<svg xmlns="http://www.w3.org/2000/svg" viewBox="0 0 1600 900"><defs><style>.cls-1{isolation:isolate;}.cls-2{fill:#052a4f;}.cls-3{opacity:0.4;}.cls-4{fill:#3d0685;opacity:0.3;mix-blend-mode:multiply;}.cls-5{fill:#ec008c;}.cls-6{fill:#f400f4;}.cls-7{fill:#7ac943;}.cls-8{fill:#a62ca2;}.cls-9{fill:#29abe2;}.cls-10{fill:#d6058b;}.cls-11{fill:#e133e5;}.cls-12{fill:#f210f9;}.cls-13{fill:#ff9cc2;}.cls-14{fill:#fbbe00;}.cls-15{fill:#581600;}.cls-16{fill:#6ae01e;}.cls-17{fill:#fff6ed;}.cls-18{fill:#2c275b;}.cls-19{fill:#fff;}.cls-20{fill:#ef5925;}.cls-21{fill:#e7412b;}.cls-22{fill:#ff00c9;}.cls-23{fill:#ffb000;}.cls-24{fill:#e63d11;}.cls-25{fill:#d8e52c;}.cls-26{fill:#fdebdb;}.cls-27{fill:#14dee2;}.cls-28{fill:#d40075;}.cls-29{fill:#260000;}.cls-30{fill:#f8af00;}.cls-31{fill:#e84f35;}.cls-32{fill:#ffcd00;}.cls-33{fill:#4e3f87;}.cls-34{fill:#312782;}.cls-35{fill:#89d1f5;}</style></defs><g class="cls-1"><g id="Layer_3" data-name="Layer 3"><rect class="cls-2" width="1600" height="900"/><g class="cls-3"><ellipse class="cls-4" cx="297.45" cy="699.93" rx="85.09" ry="67.9"/><ellipse class="cls-4" cx="469.09" cy="747.51" rx="78.31" ry="62.49"/><ellipse class="cls-4" cx="445.82" cy="591.98" rx="85.09" ry="67.9"/><ellipse class="cls-4" cx="482.18" cy="156.74" rx="76.86" ry="61.33"/><ellipse class="cls-4" cx="252.36" cy="451.54" rx="92.36" ry="73.7"/><ellipse class="cls-4" cx="390.55" cy="309.94" rx="85.09" ry="67.9"/><ellipse class="cls-4" cx="463.27" cy="449.22" rx="63.76" ry="50.88"/><ellipse class="cls-4" cx="1265.41" cy="361.01" rx="96.73" ry="77.18"/><ellipse class="cls-4" cx="1193.45" cy="191.95" rx="63.76" ry="50.88"/><ellipse class="cls-4" cx="1110.55" cy="443.81" rx="63.76" ry="50.88"/><path class="cls-4" d="M1350.55,463.73c-49.41,0-89.46,32-89.46,71.38a58,58,0,0,0,.57,8.06,106.32,106.32,0,0,0-18.75-1.67c-47,0-85.09,30.4-85.09,67.89s38.09,67.9,85.09,67.9,85.09-30.4,85.09-67.9c0-1.76-.11-3.51-.28-5.25a111.16,111.16,0,0,0,22.83,2.35c49.4,0,89.45-32,89.45-71.38S1400,463.73,1350.55,463.73Z"/><ellipse class="cls-4" cx="1111.27" cy="699.16" rx="63.76" ry="50.88"/><ellipse class="cls-4" cx="1034.91" cy="157.9" rx="85.09" ry="67.9"/></g><path class="cls-5" d="M889.26,683.73c5,0,10-4,10.16-9.13s-4.59-8.75-9.5-8.75-10,4-10.16,9.14,4.58,8.74,9.5,8.74"/><path class="cls-6" d="M1095,204.39c4.51,0,9-3.58,9.18-8.25s-4.14-7.9-8.58-7.9-9,3.58-9.18,8.25,4.14,7.9,8.58,7.9"/><path class="cls-7" d="M542.07,386.81c4.52,0,9-3.58,9.18-8.25s-4.14-7.9-8.58-7.9-9,3.58-9.18,8.25,4.14,7.9,8.58,7.9"/><path class="cls-7" d="M1227.51,280.25c4.52,0,9-3.58,9.18-8.25s-4.14-7.9-8.58-7.9-9,3.58-9.18,8.25,4.14,7.9,8.58,7.9"/><path class="cls-8" d="M888.42,323.07c4.51,0,9-3.58,9.17-8.25s-4.14-7.89-8.58-7.89-9,3.57-9.17,8.25,4.14,7.89,8.58,7.89"/><path class="cls-6" d="M1228.17,401.46c4.52,0,9-3.58,9.18-8.25s-4.14-7.89-8.58-7.89-9,3.58-9.18,8.25,4.14,7.89,8.58,7.89"/><path class="cls-7" d="M758.28,669.82c4.51,0,9-3.58,9.17-8.25s-4.14-7.9-8.58-7.9-9,3.58-9.17,8.25,4.14,7.9,8.58,7.9"/><path class="cls-7" d="M615,683.18c4.51,0,9-3.58,9.18-8.25S620,667,615.55,667s-9,3.58-9.18,8.25,4.14,7.9,8.58,7.9"/><path class="cls-7" d="M523.14,416.16a4.19,4.19,0,0,0,4.2-3.77,3.7,3.7,0,0,0-3.93-3.6,4.18,4.18,0,0,0-4.19,3.77,3.68,3.68,0,0,0,3.92,3.6"/><path class="cls-6" d="M1086.23,361.3c4.51,0,9-3.58,9.17-8.25s-4.14-7.89-8.58-7.89-9,3.57-9.18,8.25,4.15,7.89,8.59,7.89"/><path class="cls-5" d="M1067.3,390.66a4.19,4.19,0,0,0,4.19-3.77,3.68,3.68,0,0,0-3.92-3.61,4.19,4.19,0,0,0-4.2,3.77,3.7,3.7,0,0,0,3.93,3.61"/><path class="cls-8" d="M382.79,393a4.18,4.18,0,0,0,4.2-3.77,3.69,3.69,0,0,0-3.92-3.61,4.2,4.2,0,0,0-4.2,3.77,3.69,3.69,0,0,0,3.92,3.61"/><path class="cls-7" d="M375.51,566.65a4.18,4.18,0,0,0,4.19-3.77,3.68,3.68,0,0,0-3.92-3.6,4.17,4.17,0,0,0-4.19,3.77,3.68,3.68,0,0,0,3.92,3.6"/><path class="cls-5" d="M371.29,334.8a4.17,4.17,0,0,0,3.46,4.45,3.68,3.68,0,0,0,3.87-3.65,4.18,4.18,0,0,0-3.46-4.45,3.68,3.68,0,0,0-3.87,3.65"/><path class="cls-7" d="M831,456.12a4.19,4.19,0,0,0,4.2-3.77,3.7,3.7,0,0,0-3.93-3.6,4.18,4.18,0,0,0-4.19,3.76,3.68,3.68,0,0,0,3.92,3.61"/><path class="cls-7" d="M634.22,474.34a4.19,4.19,0,0,0,4.2-3.77,3.7,3.7,0,0,0-3.93-3.61,4.19,4.19,0,0,0-4.19,3.77,3.68,3.68,0,0,0,3.92,3.61"/><path class="cls-7" d="M896.85,353.29a4.18,4.18,0,0,0,4.19-3.77,3.68,3.68,0,0,0-3.92-3.6,4.19,4.19,0,0,0-4.2,3.76,3.69,3.69,0,0,0,3.93,3.61"/><path class="cls-5" d="M589,708.85a4.18,4.18,0,0,0,4.19-3.77,3.68,3.68,0,0,0-3.92-3.6,4.18,4.18,0,0,0-4.19,3.77,3.68,3.68,0,0,0,3.92,3.6"/><path class="cls-5" d="M597.51,184.13a4.17,4.17,0,0,0,4.19-3.77,3.68,3.68,0,0,0-3.92-3.6,4.18,4.18,0,0,0-4.19,3.77,3.68,3.68,0,0,0,3.92,3.6"/><path class="cls-8" d="M745.7,649.34a4.19,4.19,0,0,0,4.19-3.77A3.68,3.68,0,0,0,746,642a4.19,4.19,0,0,0-4.2,3.77,3.7,3.7,0,0,0,3.93,3.61"/><path class="cls-7" d="M1195,319.43c-4.48.57-8.5,4.68-8.08,9.33s5.09,7.32,9.5,6.77,8.49-4.68,8.07-9.33-5.09-7.32-9.49-6.77"/><path class="cls-8" d="M1210.05,338.19a4.18,4.18,0,0,0-3.69,4.26,3.69,3.69,0,0,0,4.34,3.09,4.18,4.18,0,0,0,3.69-4.26,3.68,3.68,0,0,0-4.34-3.09"/><path class="cls-7" d="M1189.87,380.75a4.18,4.18,0,0,0-3.69,4.26,3.68,3.68,0,0,0,4.34,3.09,4.17,4.17,0,0,0,3.69-4.26,3.68,3.68,0,0,0-4.34-3.09"/><path class="cls-5" d="M472.53,184.41c3.55-2.78,4.88-8.37,2.13-12.15s-8.14-3.66-11.63-.91-4.88,8.37-2.13,12.15,8.14,3.66,11.63.91"/><path class="cls-7" d="M450,176.07a4.18,4.18,0,0,0,1-5.55,3.69,3.69,0,0,0-5.31-.42,4.18,4.18,0,0,0-1,5.55,3.68,3.68,0,0,0,5.31.42"/><path class="cls-8" d="M1167.7,166.81a5.35,5.35,0,0,0,7-1.86c1.35-2.45-.07-5.22-2.38-6.39a5.35,5.35,0,0,0-7,1.87c-1.36,2.44.06,5.21,2.38,6.38"/><path class="cls-8" d="M988.62,249.72a4.17,4.17,0,0,0,4.19-3.77,3.68,3.68,0,0,0-3.92-3.6,4.18,4.18,0,0,0-4.19,3.77,3.68,3.68,0,0,0,3.92,3.6"/><path class="cls-7" d="M690.23,282.87c2.94,0,5.86-2.33,6-5.37s-2.69-5.13-5.58-5.13-5.85,2.32-6,5.36,2.7,5.14,5.58,5.14"/><path class="cls-7" d="M696.83,303.2a4.18,4.18,0,0,0,4.2-3.77,3.68,3.68,0,0,0-3.92-3.6,4.18,4.18,0,0,0-4.2,3.77,3.68,3.68,0,0,0,3.92,3.6"/><path class="cls-9" d="M642.08,504a5.49,5.49,0,0,0,5.5-5c.1-2.87-2.48-4.74-5.15-4.74a5.49,5.49,0,0,0-5.5,4.95c-.1,2.87,2.48,4.74,5.15,4.74"/><path class="cls-7" d="M367,434.26a5.5,5.5,0,0,0,5.51-4.95c.1-2.87-2.48-4.73-5.15-4.73a5.48,5.48,0,0,0-5.5,4.94c-.11,2.87,2.48,4.74,5.14,4.74"/><path class="cls-7" d="M1199.32,218.69a4.19,4.19,0,0,0,4.19-3.77,3.68,3.68,0,0,0-3.92-3.61,4.18,4.18,0,0,0-4.19,3.77,3.68,3.68,0,0,0,3.92,3.61"/><path class="cls-7" d="M1113.06,174.29a4.18,4.18,0,0,0,4.2-3.77,3.69,3.69,0,0,0-3.93-3.6,4.18,4.18,0,0,0-4.19,3.76,3.68,3.68,0,0,0,3.92,3.61"/><path class="cls-7" d="M977.29,230c4.51,0,9-3.58,9.17-8.25s-4.14-7.9-8.58-7.9-9,3.58-9.18,8.25,4.15,7.9,8.59,7.9"/><path class="cls-7" d="M420.14,240.08c2.69-12.11,3.36-22.2,6.67-33.8,2.53,7.43,9.43,33,9.43,33s26.36,2.22,33.74,3.12c-11.49,5.09-34.7,10.47-34.7,10.47s-3,16.82-7.07,31.62a240.47,240.47,0,0,1-6.73-30.94s-22.2-2-35.65-6.06c11.43-2.69,20.85-4.71,34.31-7.4"/><path class="cls-5" d="M392.41,279.65c1.1-4.94,1.37-9,2.72-13.78,1,3,3.85,13.45,3.85,13.45s10.74.9,13.75,1.27c-4.68,2.08-14.15,4.27-14.15,4.27s-1.23,6.85-2.88,12.89A97.64,97.64,0,0,1,393,285.13s-9-.82-14.53-2.46c4.66-1.1,8.5-1.92,14-3"/><path class="cls-7" d="M563.28,157.65c1.1-4.93,1.38-9.05,2.72-13.78,1,3,3.85,13.45,3.85,13.45s10.74.91,13.75,1.27c-4.68,2.08-14.15,4.27-14.15,4.27s-1.23,6.86-2.88,12.89a99.73,99.73,0,0,1-2.74-12.61s-9.05-.82-14.53-2.47c4.66-1.1,8.5-1.92,14-3"/><path class="cls-7" d="M622.44,285.75c.82-3.7,1-6.78,2-10.32.77,2.27,2.88,10.07,2.88,10.07s8,.68,10.29.95a79.3,79.3,0,0,1-10.59,3.2s-.92,5.14-2.16,9.66a74.6,74.6,0,0,1-2-9.45A71.21,71.21,0,0,1,612,288c3.5-.82,6.37-1.44,10.48-2.26"/><path class="cls-8" d="M834.64,171.9c1.09-4.94,1.37-9.05,2.72-13.78,1,3,3.84,13.45,3.84,13.45s10.75.9,13.75,1.27c-4.68,2.08-14.14,4.27-14.14,4.27S839.57,184,837.93,190a97.64,97.64,0,0,1-2.74-12.62s-9.06-.82-14.54-2.46c4.66-1.1,8.5-1.92,14-3"/><path class="cls-5" d="M986.46,685.69c1.76-7.89,2.19-14.47,4.35-22,1.65,4.84,6.14,21.5,6.14,21.5s17.18,1.45,22,2c-7.48,3.32-22.61,6.82-22.61,6.82s-2,11-4.6,20.61a156,156,0,0,1-4.38-20.17s-14.47-1.31-23.23-3.94c7.45-1.76,13.59-3.07,22.35-4.82"/><path class="cls-7" d="M1056,730.36c1.75-7.89,2.19-14.46,4.34-22,1.65,4.84,6.15,21.5,6.15,21.5s17.17,1.44,22,2c-7.49,3.31-22.61,6.82-22.61,6.82s-2,11-4.6,20.6a157.14,157.14,0,0,1-4.39-20.16s-14.46-1.32-23.23-4c7.45-1.75,13.59-3.06,22.36-4.82"/><path class="cls-7" d="M1203.89,625.91c1.41-6.38,1.77-11.69,3.51-17.79,1.33,3.91,5,17.36,5,17.36s13.87,1.17,17.75,1.64c-6,2.68-18.26,5.51-18.26,5.51s-1.59,8.85-3.71,16.64A126,126,0,0,1,1204.6,633s-11.69-1.06-18.77-3.19c6-1.41,11-2.48,18.06-3.89"/><path class="cls-7" d="M505.62,679.2c1.74-7.84,2.17-14.37,4.32-21.88,1.64,4.81,6.1,21.36,6.1,21.36s17.06,1.44,21.84,2c-7.44,3.29-22.46,6.78-22.46,6.78s-2,10.89-4.58,20.47a154.76,154.76,0,0,1-4.35-20s-14.38-1.3-23.09-3.92c7.41-1.74,13.51-3,22.22-4.79"/><path class="cls-7" d="M318.07,329.18c1.67-7.51,2.08-13.78,4.14-21,1.57,4.61,5.85,20.48,5.85,20.48s16.36,1.38,20.94,1.94c-7.13,3.16-21.54,6.5-21.54,6.5s-1.88,10.44-4.38,19.62a148.3,148.3,0,0,1-4.18-19.21s-13.78-1.25-22.13-3.75c7.1-1.67,12.94-2.93,21.3-4.6"/><path class="cls-7" d="M1120,298.09c.3-3.52-.33-7.19-.79-10.67q-.4-3-.87-6c5.25-1.44,10.5-2.86,15.78-4.19a1.68,1.68,0,0,0,1.1-1.35,1.81,1.81,0,0,0-1-1.85,74.15,74.15,0,0,0-10-4.44q-3-1.19-5.93-2.29.18-2.94.31-5.88a83.59,83.59,0,0,0,0-11.63,1.78,1.78,0,0,0-3.1-.93c-3.53,4.37-6.86,8.86-10.91,12.77-5.6.09-11.22-.5-16.82-.68a1.74,1.74,0,0,0-1.36,3.05c4,3.58,7.56,7.54,11.44,11.21-3.56,4.27-6.87,8.73-10.19,13.19a1.77,1.77,0,0,0,2,2.73,168.17,168.17,0,0,0,16.56-5.78c3.44,4.58,6.92,9.15,10.64,13.5.9,1.05,3,.93,3.15-.73m-13.83-16.48c-4.15,1.58-8.33,3.25-12.57,4.66,2.58-3.43,5.22-6.83,8-10.1a1.75,1.75,0,0,0-.26-2.44c-3.21-2.94-6.19-6.11-9.29-9.16,4.48.25,9,.58,13.46.47a1.51,1.51,0,0,0,1.14-.6l0,0a87.5,87.5,0,0,0,8.63-9.73c0,2.06-.1,4.11-.19,6.15-.1,2.44-.24,4.89-.41,7.32a1.78,1.78,0,0,0,1,1.85c2.3.84,4.59,1.72,6.87,2.62,2,.79,4,1.56,6,2.42-4.29,1.12-8.56,2.29-12.84,3.46a1.69,1.69,0,0,0-1.1,1.8q.58,3.63,1.07,7.26c.23,1.72.44,3.44.61,5.16-2.77-3.44-5.43-7-8.08-10.5a1.79,1.79,0,0,0-2.06-.62"/><path class="cls-10" d="M796.86,224a6.11,6.11,0,0,0,2.17-4l.24-7.17c0-1.39.73-1.66,1.62-.59l4.72,5.71a4.38,4.38,0,0,0,4.09,1.27l7.25-1.77c1.35-.34,1.73.26.84,1.33l-4.12,5.08a2.64,2.64,0,0,0,.17,3.63l5.45,5.25c1,1,.7,1.58-.68,1.38l-7.71-1.19a4.07,4.07,0,0,0-3.77,1.86l-4.25,6.78c-.74,1.18-1.33,1-1.33-.38l-.18-8.15a2.67,2.67,0,0,0-2.53-2.64l-7.29-.36c-1.39-.06-1.6-.76-.46-1.57Z"/><path class="cls-11" d="M699.81,223.32a5,5,0,0,0,1.77-3.3l.2-5.86c0-1.14.59-1.36,1.32-.49l3.86,4.67a3.6,3.6,0,0,0,3.35,1l5.93-1.45c1.1-.28,1.41.22.68,1.09l-3.37,4.15a2.18,2.18,0,0,0,.14,3l4.46,4.29c.82.79.57,1.29-.56,1.12l-6.3-1a3.35,3.35,0,0,0-3.09,1.52l-3.47,5.54c-.6,1-1.09.84-1.09-.3l-.15-6.67a2.19,2.19,0,0,0-2.07-2.16l-5.95-.29c-1.14,0-1.31-.63-.38-1.29Z"/><path class="cls-9" d="M696,694.68c6.12-6.68,8.17-17.33,3.74-25.43a15.27,15.27,0,0,0-10.05-7.55A17.13,17.13,0,0,0,678,663.77c-7.32,4.12-12.7,13.71-7.88,21.66a12.77,12.77,0,0,0,10.4,5.87,13.13,13.13,0,0,0,11.54-6.49,10.42,10.42,0,0,0,1-7.78,7.1,7.1,0,0,0-6.06-4.88,7.49,7.49,0,0,0-7.58,4.09,6.12,6.12,0,0,0,1.73,7.72c1.4,1.15,4.35-1.62,2.72-3a3.57,3.57,0,0,1-1-4.59,1.88,1.88,0,0,1,1.27-.89A4.33,4.33,0,0,1,687,676c3.43,1.62,3.27,6.53,1.32,9a8.54,8.54,0,0,1-10.05,2.22,10.38,10.38,0,0,1-6.35-9.2,11.76,11.76,0,0,1,1.31-5.46,14.39,14.39,0,0,1,3.15-4.16,13.58,13.58,0,0,1,9.7-3.61c4.07.14,7.61,2.71,9.79,6,2.42,3.66,2.89,8.27,2.23,12.52a19,19,0,0,1-4.65,9.81c-.54.59-1,1.73-.1,2.27a2.26,2.26,0,0,0,2.62-.7"/><path class="cls-8" d="M752.85,709.14c-8.82,4.47-15,14.56-13.61,24.54a16.68,16.68,0,0,0,7.36,11.57,18.69,18.69,0,0,0,12.73,2.38c9.06-1.39,18.24-9.11,16.38-19.07a13.94,13.94,0,0,0-8.36-10,14.33,14.33,0,0,0-14.28,2.2,11.3,11.3,0,0,0-4,7.54,7.76,7.76,0,0,0,4.31,7.32,8.2,8.2,0,0,0,9.32-1.27,6.69,6.69,0,0,0,1.19-8.54c-1-1.72-5.06,0-3.92,2a3.88,3.88,0,0,1-.74,5.07,2.06,2.06,0,0,1-1.64.43,4.8,4.8,0,0,1-2.75-1.57c-2.88-3-.82-7.92,2.13-9.72,3.54-2.15,8.17-1.21,11.12,1.61A11.34,11.34,0,0,1,771,735.44a12.94,12.94,0,0,1-3.43,5.07,16,16,0,0,1-4.82,3,14.8,14.8,0,0,1-11.3,0c-4.1-1.71-6.72-5.7-7.68-9.91-1.06-4.66.23-9.55,2.54-13.63a20.74,20.74,0,0,1,8.53-8.23c.78-.4,1.64-1.41,1-2.28s-2.08-.73-2.94-.3"/><path class="cls-12" d="M468.35,533.6c10.79,3.64,24.08.57,31.14-8.64a19.22,19.22,0,0,0,3.55-15.4,21.45,21.45,0,0,0-8.32-12.37c-8.47-6.33-22.22-7.63-28.91,1.95a16.08,16.08,0,0,0-1.45,15A16.47,16.47,0,0,0,477.69,524a13.11,13.11,0,0,0,9.47-2.76,8.93,8.93,0,0,0,2.52-9.46,9.42,9.42,0,0,0-8.56-6.63,7.72,7.72,0,0,0-8,5.92c-.61,2.19,4.08,4.18,4.79,1.62a4.48,4.48,0,0,1,4.77-3.48,2.33,2.33,0,0,1,1.68,1,5.55,5.55,0,0,1,.94,3.51c-.12,4.78-5.85,7.09-9.71,6.11-4.63-1.17-7.6-5.73-7.66-10.43a13,13,0,0,1,7.35-12,14.93,14.93,0,0,1,6.94-1.28,18.45,18.45,0,0,1,6.39,1.51A17.11,17.11,0,0,1,497.7,507c1.91,4.74.75,10.12-1.93,14.31-3,4.64-8,7.53-13.25,8.93a23.94,23.94,0,0,1-13.65-.35c-.95-.32-2.48-.22-2.66,1s1.09,2.3,2.14,2.65"/><path class="cls-5" d="M436.22,625.34c-4,4.11-5.43,10.79-2.77,16a9.6,9.6,0,0,0,6.21,4.91,10.8,10.8,0,0,0,7.41-1.11c4.68-2.48,8.23-8.44,5.32-13.53a8.05,8.05,0,0,0-6.47-3.87,8.27,8.27,0,0,0-7.37,3.91,6.51,6.51,0,0,0-.78,4.89,4.48,4.48,0,0,0,3.74,3.17,4.73,4.73,0,0,0,4.85-2.46,3.87,3.87,0,0,0-1-4.89c-.86-.75-2.77.95-1.77,1.82a2.25,2.25,0,0,1,.56,2.92,1.21,1.21,0,0,1-.81.54,2.76,2.76,0,0,1-1.8-.33c-2.14-1.08-2-4.17-.69-5.71a5.41,5.41,0,0,1,6.38-1.24,6.56,6.56,0,0,1,3.85,5.91,7.43,7.43,0,0,1-.91,3.42,9.37,9.37,0,0,1-2.05,2.57,8.62,8.62,0,0,1-6.18,2.12,8,8,0,0,1-6.08-4,11.21,11.21,0,0,1-1.2-7.93,12,12,0,0,1,3.09-6.11c.35-.36.63-1.08.1-1.43a1.42,1.42,0,0,0-1.66.4"/><path class="cls-9" d="M505.8,448.34c-4,4.11-5.43,10.79-2.77,16a9.61,9.61,0,0,0,6.21,4.92,10.86,10.86,0,0,0,7.41-1.12c4.68-2.48,8.23-8.44,5.32-13.53a8.05,8.05,0,0,0-6.47-3.87,8.3,8.3,0,0,0-7.38,3.91,6.56,6.56,0,0,0-.77,4.89,4.48,4.48,0,0,0,3.74,3.17,4.73,4.73,0,0,0,4.85-2.46,3.87,3.87,0,0,0-1-4.89c-.86-.75-2.77,1-1.77,1.83a2.24,2.24,0,0,1,.56,2.91,1.21,1.21,0,0,1-.81.54,2.76,2.76,0,0,1-1.8-.33c-2.14-1.08-2-4.17-.69-5.71a5.41,5.41,0,0,1,6.38-1.24,6.56,6.56,0,0,1,3.85,5.91,7.43,7.43,0,0,1-.91,3.42,9.21,9.21,0,0,1-2.06,2.57,8.6,8.6,0,0,1-6.17,2.12,8,8,0,0,1-6.08-3.95,11.16,11.16,0,0,1-1.2-7.93,11.94,11.94,0,0,1,3.09-6.11c.35-.36.63-1.08.1-1.43a1.41,1.41,0,0,0-1.66.4"/><path class="cls-5" d="M384.11,493.84a5.38,5.38,0,0,0-5.4.22,5.46,5.46,0,0,0-1,.84,6.47,6.47,0,0,1-1-1.52,5.65,5.65,0,0,1-.45-3.48,3,3,0,0,1,.13-.45,7.53,7.53,0,0,0,4.56,1.56c1.86,0,4.67-1,3.88-3.39-.65-1.95-3.39-2.1-5.06-1.86a9.11,9.11,0,0,0-3.06,1,7.4,7.4,0,0,1-.76-1.67,7.25,7.25,0,0,1-.26-3c.41.2.83.39,1.24.55,2.4,1,5.42,1.12,7.57-.55,1.47-1.15,2-3.2.53-4.59-1.8-1.73-5-1.66-7.17-.82a6.44,6.44,0,0,0-3.16,2.57,7,7,0,0,1-1.89-2.44c-.38-.86-2.45-.24-2.09.57a8.86,8.86,0,0,0,3.17,3.65,8.27,8.27,0,0,0,.81,6.48c.12.19.24.38.37.56a4.22,4.22,0,0,0-.71,1.24,6.68,6.68,0,0,0,1.73,6.76,5.66,5.66,0,0,0,.52.47c-1.3,3.32.46,8.08,2.44,10.59.54.69,2.54-.1,1.92-.89a12.5,12.5,0,0,1-2.64-7.66,6.37,6.37,0,0,1,.12-1.07,6.89,6.89,0,0,0,4.89-.52,2.7,2.7,0,0,0,1.67-1.69,1.54,1.54,0,0,0-.88-1.51m-7.39-14.49a4.61,4.61,0,0,1,5.27-1.5c1.58.48,2.38,2.18,1.19,3.39a3.52,3.52,0,0,1-2.51.77,9.41,9.41,0,0,1-3.74-1.21c-.26-.13-.51-.28-.77-.43a5.61,5.61,0,0,1,.56-1m1,8.46c1.24-.7,3.48-1.24,4.63-.14a1.48,1.48,0,0,1,.44.88,1.35,1.35,0,0,1,0,.49c0,.15-.06.17-.18.29.13-.13-.07.05-.09.07h0l-.08,0-.05,0-.07,0-.21.06a4.42,4.42,0,0,1-1.45,0,5.47,5.47,0,0,1-3.05-1.61l.16-.1m4.86,8a3.62,3.62,0,0,1-.55.26,3.48,3.48,0,0,1-3-.11,3.06,3.06,0,0,1,.57-.73,2.26,2.26,0,0,1,.83-.49,2.42,2.42,0,0,1,1-.11,1.76,1.76,0,0,1,1.43.72c-.05-.07,0,.14,0,.1s0,.07,0,.1-.07.12,0,0c-.15.21-.1.13-.28.25"/><path class="cls-5" d="M524,596.77a5.41,5.41,0,0,0-5.4.23,5.13,5.13,0,0,0-1.05.83,6.58,6.58,0,0,1-1-1.51,5.58,5.58,0,0,1-.45-3.48,3.45,3.45,0,0,1,.12-.46,7.51,7.51,0,0,0,4.56,1.56c1.86,0,4.68-1,3.89-3.39-.65-1.95-3.39-2.1-5.06-1.85a9,9,0,0,0-3.06,1,7,7,0,0,1-.76-1.67,7.07,7.07,0,0,1-.26-3c.41.21.82.39,1.23.56,2.41,1,5.43,1.12,7.58-.56,1.47-1.15,2-3.2.52-4.59-1.79-1.73-5-1.66-7.16-.82a6.5,6.5,0,0,0-3.16,2.57,6.84,6.84,0,0,1-1.89-2.43c-.38-.87-2.45-.25-2.1.56a8.89,8.89,0,0,0,3.18,3.65,8.22,8.22,0,0,0,.81,6.48c.11.19.24.38.37.56a4.27,4.27,0,0,0-.71,1.25,6.65,6.65,0,0,0,1.73,6.76,5.43,5.43,0,0,0,.51.46c-1.3,3.32.47,8.08,2.44,10.6.54.68,2.55-.11,1.93-.89a12.42,12.42,0,0,1-2.64-7.66,7.75,7.75,0,0,1,.11-1.08,7,7,0,0,0,4.9-.51,2.78,2.78,0,0,0,1.67-1.7,1.57,1.57,0,0,0-.88-1.51m-7.39-14.48a4.61,4.61,0,0,1,5.27-1.51c1.58.48,2.38,2.18,1.19,3.39a3.47,3.47,0,0,1-2.51.77,9.34,9.34,0,0,1-3.74-1.2c-.26-.14-.52-.28-.77-.44a5.88,5.88,0,0,1,.56-1m1,8.45c1.24-.7,3.48-1.24,4.63-.14a1.54,1.54,0,0,1,.44.88,1.34,1.34,0,0,1,0,.49c0,.15-.06.17-.17.29.12-.13-.08.06-.1.07l0,0-.08,0,0,0-.07,0-.21.05a4.42,4.42,0,0,1-1.45,0,5.38,5.38,0,0,1-3-1.61l.16-.1m4.85,8a2.52,2.52,0,0,1-.54.25,3.47,3.47,0,0,1-3.05-.11,3.65,3.65,0,0,1,.58-.73,2.26,2.26,0,0,1,.83-.49,2.57,2.57,0,0,1,1-.1,1.73,1.73,0,0,1,1.42.71c0-.07,0,.14,0,.11a.37.37,0,0,1,0,.09c0,.06-.07.12,0,0-.15.2-.09.12-.28.25"/><polyline class="cls-6" points="522.08 227.54 522.08 227.54 522.08 227.54 522.07 227.54 522.08 227.54"/><path class="cls-12" d="M541,185.2a2.36,2.36,0,0,0-3-.54A72.27,72.27,0,0,1,527.88,190a27.44,27.44,0,0,0-13.22-4.12c-3.57-.16-12.48,1.29-11,6.83.59,2.18,2.95,3.22,4.9,3.83,3.23,1,6.91.57,10.18,0a44.41,44.41,0,0,0,8-2.11c2.67,2.16,4.68,5.12,3.8,8.59a13,13,0,0,1-1.94,4.11,14.91,14.91,0,0,0-3.8-1.08,22.32,22.32,0,0,0-7.34.06c-1.81.3-3.94.87-5.25,2.24a3.46,3.46,0,0,0,.1,5.13,10.08,10.08,0,0,0,7.23,2.91,14.28,14.28,0,0,0,9.12-3.61A12.34,12.34,0,0,1,530,224.48a5.24,5.24,0,0,1-.79,1.27,7.36,7.36,0,0,0-7.1-2.84c-3.34.62-6.22,4.61-3.38,7.46,1.56,1.56,4.39,1.5,6.4,1.24a17.15,17.15,0,0,0,2-.39,12.62,12.62,0,0,1,.27,4.56c-.49,5.39-2.94,10.36-3.77,15.68-.39,2.54,4.14,2.18,4.5-.18,1-6.29,4.24-12.17,3.82-18.68a11.72,11.72,0,0,0-.73-3.34,11.47,11.47,0,0,0,1-.95c3.39-3.66,3.77-9.09,2.29-13.68a14.31,14.31,0,0,0-2.77-5,19,19,0,0,0,1.76-2.68,11.61,11.61,0,0,0,1.51-7.88,12.75,12.75,0,0,0-3.86-6.43,78.15,78.15,0,0,0,8.85-4.81c.89-.55,1.62-1.61.94-2.64m-18.93,42h0m2.31.73a5.58,5.58,0,0,1-2-.16l-.21-.07s0-.05-.12-.14,0,0,0,.05l0-.05,0,0,0,0,0-.07a.11.11,0,0,1,0-.05.49.49,0,0,0,0,.12c.28.24,0-.22,0-.13v0a.25.25,0,0,1,0-.08l.06-.17c-.07.19,0,0,.14-.17,0,.05.38-.28.27-.24l.07,0,0,0,.24-.06h.31c-.66,0,.65.18.21,0a5.78,5.78,0,0,1,.73.32,6.16,6.16,0,0,1,1.08.89l-.81.08m-8.76-17.37h0m-.1.18h0l0,0,0,0m1.45,1.05a7.53,7.53,0,0,1-1.17-.94.91.91,0,0,1-.15-.21h0c.24-.12.73-.34.66-.32a11.46,11.46,0,0,1,1.42-.39,18.1,18.1,0,0,1,6-.05,11.11,11.11,0,0,1,1.93.48,10,10,0,0,1-5.84,2.3,5.15,5.15,0,0,1-2.84-.86m.6-18.77c-2.67.39-5.79.65-8.32-.49a2.54,2.54,0,0,1-.84-.55s-.3-.42-.3-.34l-.06-.2c0,.06,0,0,0-.11a.62.62,0,0,0,0-.1c0,.07.36-.44.06-.14a1.86,1.86,0,0,1,.8-.55,6.11,6.11,0,0,1,1.31-.45,14.82,14.82,0,0,1,4.45-.37,21.6,21.6,0,0,1,7.54,2l.36.17a38.82,38.82,0,0,1-5,1.11"/><path class="cls-5" d="M1149.41,563.44a8.92,8.92,0,0,0-12.35-.68,12.4,12.4,0,0,0-4.32,7.6,11.92,11.92,0,0,0-9.51.64,9.82,9.82,0,0,0-4.72,12.15c1.59,4.7,6.31,7.1,10.81,8.27,4.66,1.22,9.45,1.44,14.23,1.76a5.8,5.8,0,0,0,.59,0,2.75,2.75,0,0,0,2.63-1.56,1.17,1.17,0,0,0,.09-.24c2.9-8.47,10.14-20,2.55-27.94m-25.25,19.77A8,8,0,0,1,1123,578a5.28,5.28,0,0,1,2.17-3.67,5,5,0,0,1,3.26-.84,8.06,8.06,0,0,1,4.84,2.5c1.43,1.39,4.68-.18,4.38-2.15-.48-3.13.5-6.82,3-8.82a3.42,3.42,0,0,1,1.2-.62,2,2,0,0,1,1,0c1.79.51,3,2.2,3.94,3.72,1.88,3.26.76,7.72-.3,11.05s-2.59,6.67-3.84,10a76.15,76.15,0,0,1-9.16-1c-3.47-.67-7.23-1.93-9.29-5"/><path class="cls-9" d="M949.44,182.58c-8.08-1.94-22.56-4.59-24.59-14-2.32-11.23,11.06-15.59,17.38-6.69,0-10.14,11.3-17,16.76-6.5,4.29,8.22-5.32,19.16-9.55,27.15"/><path class="cls-9" d="M1019.64,173.18c-1.85-5.08-5.62-13.86-1.28-18.32,5.25-5.29,12.41.39,9.87,7,5.48-3.63,13.22,0,9.53,6.73-2.91,5.27-12.28,4-18.12,4.59"/><path class="cls-6" d="M844.62,752.8c-6.36.94-17.52,3.23-21.69-2.91-4.9-7.39,3.44-14.38,10.54-9.83-2.92-7.27,3.21-15.43,10.14-9.51,5.46,4.66,1.73,15.29,1,22.25"/><path class="cls-6" d="M704.3,481.18c-6.36.94-17.52,3.23-21.68-2.91-4.91-7.39,3.43-14.38,10.54-9.83-2.92-7.27,3.2-15.43,10.14-9.51,5.46,4.66,1.73,15.29,1,22.25"/><path class="cls-5" d="M808.76,724.54c-2.18-4.46-6.46-12.12-2.92-16.62,4.28-5.33,11.37-.83,9.68,5.45,4.66-3.84,12.08-1.24,9.35,5.24-2.15,5.09-10.83,4.83-16.11,5.93"/><path class="cls-9" d="M790.36,705.26c-2.19-.29-6.09-.58-6.88-3-.92-2.9,2.49-4.42,4.4-2.25-.28-2.67,2.51-4.79,4.24-2.18,1.36,2-.87,5.21-1.76,7.43"/><path class="cls-9" d="M453.42,443.51c-9.43-.65-26.07-.87-30.12-11-4.72-12.15,9.45-19.57,18.22-10.8-1.91-11.36,9.45-21.14,17.54-10.46,6.37,8.4-2.42,22.49-5.64,32.25"/><path class="cls-13" d="M453.42,443.51c-8.14-1.83-21.23-3.35-24.33-11.1-3.62-9.31,8.31-12.33,15-5.6-1.47-8.71,4.87-16,10.43-13,8.21,4.48,1,21.09-1.14,29.66"/><path class="cls-7" d="M1027.45,240.85c.88-8.45,1.59-23.39,10.82-26.72,11.06-3.86,17.29,9.1,9.13,16.71,10.27-1.36,18.71,9.15,8.85,16.09-7.74,5.46-20.13-2.88-28.8-6.08"/><path class="cls-13" d="M1027.45,240.85c1.89-7.25,3.67-19,10.73-21.51,8.48-3,10.82,7.85,4.57,13.68,7.87-1,14.22,4.88,11.32,9.79-4.28,7.24-19,.25-26.62-2"/><path class="cls-7" d="M904.49,665.57a17.61,17.61,0,0,0-10.21-6.34,20.21,20.21,0,0,0-19.12,5.39,2.81,2.81,0,0,0-2,1.37,23.31,23.31,0,0,0-1,2.76,20.24,20.24,0,0,0-1,2.27c-.16.45-.31.91-.45,1.37s.17,1,.68,1.24a16,16,0,0,0,1.46,7.23,18.14,18.14,0,0,0,9.93,9,18.42,18.42,0,0,0,14.08-.39,18.15,18.15,0,0,0,9.73-11.84,14.06,14.06,0,0,0-2.13-12.09m-5.77,17.76a14.48,14.48,0,0,1-1.78,1.89,14.85,14.85,0,0,1-1.6,1.11,8.45,8.45,0,0,1-3.73,1.13,12.24,12.24,0,0,1-4-.36,14.1,14.1,0,0,1-4.4-2c-5.57-3.63-7.46-10.19-5.85-16.29a14.59,14.59,0,0,1,2-2.78,11.09,11.09,0,0,1,4.52-3.06l0,0,.19-.06c.23-.08.47-.14.7-.21l.71-.17.4-.08c.43-.07.86-.11,1.28-.15l.73,0h.53a14.37,14.37,0,0,1,5.48,1.16,12.86,12.86,0,0,1,7.31,7.41c1.45,4.19.14,9.07-2.51,12.5"/><path class="cls-5" d="M1188.77,157.07c-3.93-5.4-10.32-8.91-16.73-10.4-11.49-2.67-23.56.71-31.35,8.84a4.64,4.64,0,0,0-3.25,2.25,37,37,0,0,0-1.62,4.53,31.09,31.09,0,0,0-1.64,3.71c-.27.74-.51,1.5-.75,2.25-.3,1,.29,1.64,1.13,2a25.91,25.91,0,0,0,2.4,11.84,29.68,29.68,0,0,0,16.27,14.8,30.15,30.15,0,0,0,23.09-.63c8-3.58,13.6-11.08,15.94-19.42a23,23,0,0,0-3.49-19.81m-9.46,29.12a25.08,25.08,0,0,1-2.91,3.1,25.61,25.61,0,0,1-2.63,1.82,13.8,13.8,0,0,1-6.1,1.85,20.07,20.07,0,0,1-6.57-.59,23.66,23.66,0,0,1-7.22-3.27c-9.13-5.95-12.23-16.69-9.59-26.7a24.61,24.61,0,0,1,3.23-4.56,18.31,18.31,0,0,1,7.42-5l.09,0,.3-.1,1.15-.34c.38-.11.77-.2,1.16-.29l.67-.12c.69-.11,1.39-.19,2.09-.24.4,0,.8,0,1.19-.07h.88a23.66,23.66,0,0,1,9,1.92,21,21,0,0,1,12,12.15c2.37,6.86.23,14.87-4.12,20.49"/><path class="cls-7" d="M724,175.2a9,9,0,0,0-11.19.14,1.91,1.91,0,0,0-.51.7,8.15,8.15,0,0,0,1.91,11c4,2.9,9.16,1.54,12-2.33,2.31-3.17.77-7.36-2.18-9.46m-1.67,7.22a4.68,4.68,0,0,1-2.6,1.78c.15,0-.54.05-.64.05h-.24l-.33-.06a3,3,0,0,1-.45-.12c.17.08.14.07-.11,0s-.87-.48-.72-.37a3.77,3.77,0,0,1-1.65-2.46,5.48,5.48,0,0,1,0-1.3,4.81,4.81,0,0,1,.63-1.63l.38-.26.19-.1.26-.09c.08,0,.67-.14.59-.14a5.78,5.78,0,0,1,.72,0h.21l.28,0a8.11,8.11,0,0,1,.85.21l.1,0,.37.16a8.84,8.84,0,0,1,.95.53c-.33-.21.31.26.38.31s.36.35.53.53c-.15-.16.26.36.3.43s.26.51.27.5a4.1,4.1,0,0,1,.14.5c-.08-.31,0,.34,0,.46a2.87,2.87,0,0,1-.39,1.07"/><path class="cls-7" d="M932,457.68c-4.69-3.33-10.75-3.56-15.26.19a2.29,2.29,0,0,0-.69.95c-3,4.91-2.23,11.44,2.6,14.93,5.48,4,12.48,2.1,16.32-3.18,3.15-4.32,1-10-3-12.89m-2.28,9.84a6.38,6.38,0,0,1-3.54,2.42,7.24,7.24,0,0,0-.88.07,2,2,0,0,0-.32,0l-.46-.08-.61-.16-.15-.06c-.23-.1-1.18-.66-1-.51a5.18,5.18,0,0,1-2.25-3.34,7.37,7.37,0,0,1,0-1.78,6.29,6.29,0,0,1,.85-2.22l.52-.36.27-.13.34-.13c.11,0,.91-.19.81-.19a8.19,8.19,0,0,1,1,0h.28l.39.06a11.33,11.33,0,0,1,1.15.28l.14,0,.51.22a10.67,10.67,0,0,1,1.28.71c-.44-.28.44.36.52.44a8.16,8.16,0,0,1,.73.71c-.21-.21.35.5.41.59s.35.7.36.67c.08.23.14.46.2.69-.11-.42,0,.47,0,.63a3.9,3.9,0,0,1-.53,1.46"/><path class="cls-9" d="M496.75,335.31c-5.32,11-22.74,4.88-17.46-6.91s22.78-4.79,17.46,6.91m-23.27-2.82c-4.66,2.34-10.5,8.17-6.22,13.61,3.89,4.67,10.11,1.17,14.39-1.55-1,4.66-.78,12.83,5.44,12.05,5.84-.39,7.78-8,7-12.83,10.11,13.22,18.28-6.61,7.39-9.33,11.67,3.5,11.67-13.61.39-10.89,10.89-3.5,1.17-19.44-10.11-7.39-1.17-4.27-1.55-10.5-8.17-9.33-6.22,1.17-6.41,7.78-3.3,12.05-11.86-6.8-20.8,9.53-6.81,13.61"/><path class="cls-8" d="M1126,667.43c-4.77,9.84-20.38,4.37-15.65-6.2s20.41-4.29,15.65,6.2m-20.85-2.53c-4.18,2.09-9.41,7.32-5.57,12.2,3.48,4.18,9.05,1,12.89-1.4-.87,4.18-.7,11.5,4.87,10.81,5.23-.35,7-7.15,6.28-11.5,9.06,11.84,16.37-5.93,6.62-8.37,10.45,3.14,10.45-12.19.35-9.75,9.75-3.14,1-17.42-9.06-6.62-1-3.83-1.4-9.41-7.32-8.36-5.58,1-5.75,7-3,10.8-10.63-6.1-18.64,8.53-6.1,12.19"/><path class="cls-9" d="M966.69,751.46c-2.85,5.9-12.22,2.62-9.38-3.72s12.24-2.57,9.38,3.72m-12.5-1.52c-2.51,1.26-5.64,4.39-3.34,7.32,2.09,2.5,5.43.62,7.73-.84-.52,2.51-.42,6.89,2.92,6.48,3.14-.21,4.18-4.29,3.76-6.9,5.44,7.11,9.82-3.55,4-5,6.27,1.88,6.27-7.31.21-5.85,5.85-1.88.63-10.45-5.43-4-.63-2.3-.84-5.64-4.39-5-3.34.62-3.44,4.17-1.77,6.47-6.37-3.65-11.18,5.12-3.66,7.31"/><path class="cls-9" d="M781.19,160.54c-4.85,10-20.74,4.45-15.92-6.3s20.77-4.36,15.92,6.3M760,158c-4.25,2.13-9.57,7.45-5.67,12.41,3.55,4.26,9.22,1.07,13.12-1.42-.89,4.26-.71,11.7,5,11,5.32-.35,7.09-7.26,6.38-11.69,9.22,12.05,16.67-6,6.74-8.51,10.64,3.19,10.64-12.41.35-9.93,9.93-3.19,1.07-17.73-9.21-6.74-1.07-3.9-1.42-9.57-7.45-8.5-5.67,1.06-5.85,7.09-3,11-10.81-6.21-19,8.68-6.21,12.4"/><path class="cls-5" d="M785.47,456.89c-2.2,4.56-9.43,2-7.24-2.87s9.45-2,7.24,2.87m-9.65-1.17c-1.93,1-4.35,3.39-2.57,5.65,1.61,1.93,4.19.48,6-.65-.4,1.94-.32,5.32,2.26,5,2.42-.16,3.22-3.31,2.9-5.32,4.19,5.48,7.58-2.74,3.06-3.87,4.84,1.45,4.84-5.64.16-4.52,4.52-1.45.49-8.06-4.19-3.06-.48-1.77-.64-4.35-3.38-3.87-2.58.49-2.66,3.23-1.37,5-4.92-2.82-8.63,3.95-2.83,5.64"/><path class="cls-14" d="M331.33,182.22s-1.52,14.84-1.61,18.26c0,0-9.21,1.49-13,2.39a116.75,116.75,0,0,0,12,7.37s-1.51,11.43-1.68,14.46a51.14,51.14,0,0,0,10.62-12.25s9.94,3.82,13.57,5.28c0,0-4.18-9.8-4.71-11.84,0,0,5.29-6.2,8-10.26,0,0-10.85,1.18-13.88,1.75,0,0-8.93-14.82-9.25-15.16"/><path class="cls-15" d="M338,201.26c.16.72-.05,1.37-.46,1.45s-.86-.42-1-1.13.05-1.36.45-1.45.87.42,1,1.13"/><path class="cls-15" d="M334.72,201.91c.16.72-.05,1.37-.46,1.46s-.86-.42-1-1.14.05-1.36.46-1.45.87.42,1,1.13"/><path class="cls-15" d="M331.15,204.75c.87,1.44,3.29,2.12,4.86,1.9,2-.27,4.13-1.43,4.62-3.53,0-.17-.2-.32-.3-.14a5.59,5.59,0,0,1-4.1,3.13c-2,.4-3.38-.7-5.06-1.4a0,0,0,0,0,0,0"/><path class="cls-5" d="M390.23,643.44s.58-11.59.83-14.58c0,0,6.51,9.43,8.25,13.91,0,0,13.75.2,16.52.48,0,0-6.41,7.52-8.36,9.35,0,0,2.18,12.19,2.89,14.58,0,0-8.85-5.09-12.25-7.41,0,0-6.68,8.26-9,10.17,0,0-1.3-10.26-1-15.46,0,0-11.55-5.56-15.15-7.32,0,0,14.81-3.23,17.22-3.72"/><path class="cls-15" d="M394.76,649c.13.69-.06,1.31-.42,1.38s-.76-.44-.89-1.14.06-1.31.43-1.38.76.45.88,1.14"/><path class="cls-15" d="M397.11,648.85c0,.7-.23,1.29-.6,1.31s-.69-.54-.73-1.25.23-1.29.6-1.31.7.54.73,1.25"/><path class="cls-15" d="M391,651.19c.33,2,2.92,3.15,4.77,2.93a5.46,5.46,0,0,0,4.34-3.52c.1-.25-.28-.46-.42-.22-.93,1.55-1.95,2.77-3.81,3.09-2.17.37-3.32-1.07-4.78-2.34,0,0-.11,0-.1.06"/><path class="cls-14" d="M1188.54,524.79c-.21,1.66-1.29,10.08-1.82,14.56,0,0-8.69,3-12.7,5.08l13,3.22s.39,11.05.58,14.27c0,0,7.62-11,9.09-13,0,0,10.45,5,13.29,6.05,0,0-3.42-9.47-5-12.7,0,0,3.91-6.74,5.28-10.06,0,0-7.43,2.25-11.43,3.51,0,0-9.11-10.05-10.27-11.13Z"/><path class="cls-15" d="M1193.56,541.21c.22.63.17,1.22-.13,1.33s-.71-.33-.93-1-.16-1.22.13-1.32.71.32.93,1"/><path class="cls-15" d="M1196.21,540.44c.11.66,0,1.24-.35,1.29s-.65-.44-.76-1.1.05-1.23.36-1.28.64.44.75,1.09"/><path class="cls-15" d="M1190.47,543.16a5.2,5.2,0,0,0,4.52,1.54c1.91-.32,3.23-1.73,4.33-3.23.14-.21-.19-.46-.35-.27-1.12,1.28-2.07,2.49-3.79,2.95s-3.09-.52-4.63-1.13c-.09,0-.13.08-.08.14"/><polygon class="cls-16" points="711.92 413.45 724.07 264.6 674.47 265.91 667.76 331.93 643.13 287.15 627.26 335.61 599.49 275.04 559.13 280.69 608.85 432.21 649.13 425.57 651.64 362.59 668.26 414.37 711.92 413.45"/><path class="cls-17" d="M613,326.8s-8.1-1.12-9.87,11.12c0,0,11.07-2.46,9.87-11.12"/><path class="cls-17" d="M618,343.65s-8.12-1.13-9.88,11.11c0,0,11.07-2.46,9.88-11.11"/><path class="cls-17" d="M623.1,360.86s-8.1-1.13-9.87,11.12c0,0,11.08-2.46,9.87-11.12"/><path class="cls-17" d="M628.24,378.26s-8.1-1.11-9.86,11.14c0,0,11.07-2.47,9.86-11.14"/><path class="cls-17" d="M632.62,393s-8.12-1.12-9.87,11.12c0,0,11.07-2.46,9.87-11.12"/><path class="cls-17" d="M584.46,335.25s6.19-5.35,14.33,4c0,0-10.62,4-14.33-4"/><path class="cls-17" d="M589.45,352.09s6.18-5.35,14.31,4c0,0-10.62,4-14.31-4"/><path class="cls-17" d="M594.54,369.31s6.19-5.35,14.33,4c0,0-10.63,4-14.33-4"/><path class="cls-17" d="M599.69,386.73s6.19-5.37,14.32,4c0,0-10.61,3.94-14.32-4"/><path class="cls-17" d="M604.05,401.48s6.19-5.36,14.33,4c0,0-10.63,3.95-14.33-4"/><polygon class="cls-17" points="595.31 321.96 622.92 415.31 624.47 414.85 596.84 321.51 595.31 321.96"/><path class="cls-18" d="M574.44,303c11.16-1.27,6.95,18.65,19.72,17.06,6.13-.77,8.52-6.15,7.29-11.84-1.18-5.44-3.45-8.37,1.41-12.52-4.12,1.3-7.69,1.72-9.19,6.46-.51-1.28-3.3-7.46-5.68-8.36-2.68,2.11-1.21,7.2-1,10.27A10.51,10.51,0,0,0,574.44,303"/><path class="cls-17" d="M710,317.79s-7.07-4.13-13.36,6.53c0,0,11.18,1.94,13.36-6.53"/><path class="cls-17" d="M708.24,335.26s-7.07-4.12-13.36,6.54c0,0,11.2,1.93,13.36-6.54"/><path class="cls-17" d="M706.4,353.12S699.34,349,693,359.66c0,0,11.19,1.93,13.36-6.54"/><path class="cls-17" d="M704.55,371.19s-7.07-4.13-13.36,6.52c0,0,11.17,1.94,13.36-6.52"/><path class="cls-17" d="M703,386.49s-7.07-4.12-13.36,6.53c0,0,11.18,1.93,13.36-6.53"/><path class="cls-17" d="M680.41,314.74s7.76-2.59,11.75,9.12c0,0-11.34-.39-11.75-9.12"/><path class="cls-17" d="M678.62,332.21s7.77-2.59,11.74,9.12c0,0-11.33-.39-11.74-9.12"/><path class="cls-17" d="M676.79,350.07s7.75-2.59,11.74,9.13c0,0-11.34-.39-11.74-9.13"/><path class="cls-17" d="M674.92,368.13s7.78-2.6,11.74,9.12c0,0-11.33-.39-11.74-9.12"/><path class="cls-17" d="M673.35,383.44s7.75-2.59,11.75,9.12c0,0-11.34-.4-11.75-9.12"/><polygon class="cls-17" points="695.5 306.58 685.54 403.41 687.13 403.56 697.11 306.74 695.5 306.58"/><path class="cls-18" d="M683.4,281.14c10.8,3.06-.65,19.88,11.75,23.27,6,1.62,10.23-2.45,11.25-8.2,1-5.46,0-9,6.07-11-4.31-.37-7.77-1.33-11,2.47,0-1.35-.21-8.15-2.06-9.88-3.28.94-3.87,6.19-4.86,9.11a10.52,10.52,0,0,0-11.18-5.75"/><path class="cls-9" d="M798.17,358.59s1.91-53.18-36.8-50.46-39,96.72,7.64,98.52c24.17.93,28.89-22.17,29-30.45l-16.25.87s.25,10-11.15,10.25c-14.87.3-14.23-27.77-14.23-27.77ZM764,324.05c9.69-.39,10.17,19.44,10.17,19.44l-17.28.87c-.29-5.54.2-20,7.11-20.31"/><path class="cls-18" d="M741.66,373.93c-.6,1.25,1.69,4.28,4,2.13s-2.2-5.83-4-2.13"/><path class="cls-18" d="M741.79,341.09c-.6,1.26,1.69,4.29,4,2.13s-2.2-5.83-4-2.13"/><path class="cls-18" d="M758.91,314.25c-.6,1.25,1.7,4.28,4,2.13s-2.19-5.83-4-2.13"/><path class="cls-18" d="M783.86,330.24c-.6,1.24,1.69,4.28,4,2.12s-2.19-5.82-4-2.12"/><path class="cls-18" d="M773.32,350.79c-.6,1.25,1.69,4.28,4,2.13s-2.19-5.84-4-2.13"/><path class="cls-18" d="M787.79,381.77c-.6,1.25,1.69,4.28,4,2.13s-2.2-5.83-4-2.13"/><path class="cls-18" d="M764.27,397.42c-.6,1.25,1.69,4.29,4,2.13s-2.19-5.83-4-2.13"/><path class="cls-19" d="M747.56,358.64l-4.47,9.17h1.2l-4.57-9.12v.59l4.47-9.18H743l4.57,9.13ZM743,349.51l-4.47,9.17-.14.3.15.29,4.56,9.13.6,1.2.59-1.21,4.47-9.17.14-.3-.15-.29-4.56-9.13-.6-1.2Z"/><path class="cls-19" d="M783.63,347l3.29-9.66-1.18.16L791.4,346l-.08-.59L788,355.06l1.19-.15-5.67-8.49Zm5.66,8.49,3.29-9.65.11-.32-.18-.27-5.67-8.49-.74-1.12-.44,1.28-3.28,9.65-.11.31.18.28,5.66,8.49.75,1.11Z"/><path class="cls-19" d="M760.19,347.89l8.42,5.75.18-1.18-9.7,3.19.58.07L751.24,350l-.17,1.17,9.7-3.18Zm-9.69,3.18,8.42,5.76.27.18.31-.11,9.69-3.18,1.28-.42-1.11-.76-8.43-5.75-.26-.18-.31.09-9.7,3.19-1.28.42Z"/><path class="cls-19" d="M776.7,392.54l9.43-3.88-.89-.79-2.65,9.85.38-.44-9.43,3.89.9.79,2.64-9.85Zm-2.65,9.86,9.43-3.89.3-.13.08-.31,2.66-9.85.35-1.31-1.24.52-9.44,3.89-.3.12-.09.32-2.65,9.86-.35,1.29Z"/><path class="cls-19" d="M756.49,384.28l3,9.74.87-.83-9.58-3.52.4.43-3-9.75-.87.82,9.59,3.52Zm-9.58-3.54,3,9.76.09.3.31.11,9.58,3.53,1.26.46-.4-1.28-3-9.75-.1-.31-.31-.11-9.58-3.53-1.26-.45Z"/><path class="cls-19" d="M754.11,327.5l-8.2,6.07,1.06.54.17-10.2-.26.52,8.2-6.07-1.06-.54-.18,10.2Zm.18-10.21-8.2,6.08-.27.19v.33l-.17,10.2,0,1.34,1.08-.8,8.2-6.06.27-.2v-.32l.17-10.21,0-1.34Z"/><path class="cls-19" d="M773.67,323.49l-5.36-8.67-.63,1,10.15,1-.5-.31,5.37,8.68.63-1-10.15-1Zm10.16,1-5.37-8.68-.17-.28-.33,0-10.15-1-1.34-.13.7,1.13,5.37,8.69.18.27.32,0,10.15,1,1.34.13Z"/><path class="cls-20" d="M808.21,502l28.5-3.33,1.65,20.81a42.19,42.19,0,0,1,35.56-16.77c27.26.95,45.67,38,43.64,111.66H878.94s6.74-77.88-19.76-78.13c-8.11-.07-11.68,5.08-16.24,11.68l6.18,69.15-36.15.45Z"/><path class="cls-19" d="M826.28,548c1.79-2.87-3.68-6-4.64-2.42a2.59,2.59,0,0,0,1.41,3.19,2.68,2.68,0,0,0,3.23-.77"/><path class="cls-19" d="M898.4,566.32c1.8-2.87-3.67-6-4.63-2.42a2.58,2.58,0,0,0,1.42,3.2,2.65,2.65,0,0,0,3.21-.78"/><path class="cls-19" d="M862,523.93c1.79-2.87-3.68-6-4.64-2.42a2.58,2.58,0,0,0,1.41,3.19,2.68,2.68,0,0,0,3.23-.77"/><path class="cls-19" d="M830.27,605.54c1.8-2.87-3.67-6-4.63-2.42a2.57,2.57,0,0,0,1.42,3.19,2.64,2.64,0,0,0,3.21-.77"/><path class="cls-19" d="M822.29,510.09c.17,2.08.31,4.39.31,6.65l.25,0c1.14-1.83,2.62-3.22,3.87-5a.38.38,0,0,1,.36.14c-.84,1.83-2.66,3.35-3.53,5a7.22,7.22,0,0,0-.95,1.22c2.56,0,5.47-.26,7.78-.22-.22.79-1.09.66-1.74.74-1.83,0-3.35.26-5.26.18l-.1.08c1.79,2.13,4.49,3.52,5.49,6a.33.33,0,0,1-.3.13c-1.75-2.17-3.83-3.7-5.75-5.66-.17,3.09.36,6.09-.08,9.32a1.63,1.63,0,0,1-.57-1.05c0-3-.17-5.73-.26-8.7l-.57.61c-1.43,1.73-2.26,4.26-4.39,5.35l-.13,0c.09-.7,1-1,1.22-1.75l2.83-4a5.91,5.91,0,0,0-2.18,0c-1.39-.18-2.83.12-4.22-.27-.13-.12-.39-.25-.26-.47.87-.31,1.79.13,2.87,0,1.39-.08,2.83,0,4.35-.22a67.9,67.9,0,0,1-5.22-5.48c.22-.39.66,0,.87.14,1.57,1.6,3,3.22,4.79,4.69l.09-.17c-.18-2.78-.09-5.83-.27-8.44,1-.43.39.91.7,1.18"/><path class="cls-19" d="M826.26,565.67c.18,2.09.31,4.38.31,6.65l.26,0c1.13-1.83,2.61-3.22,3.87-5,.17-.05.26,0,.35.13-.83,1.83-2.65,3.35-3.52,5-.3.43-.78.78-1,1.22,2.56,0,5.48-.26,7.78-.22-.22.79-1.08.66-1.73.75-1.83-.05-3.35.25-5.27.17l-.08.08c1.78,2.13,4.47,3.52,5.48,6a.33.33,0,0,1-.3.13c-1.75-2.17-3.84-3.7-5.75-5.65-.17,3.08.35,6.08-.09,9.31a1.72,1.72,0,0,1-.57-1c0-3-.16-5.74-.26-8.7l-.56.61c-1.44,1.74-2.26,4.26-4.39,5.35l-.13,0c.08-.69.95-1,1.22-1.73l2.82-4.06a6.31,6.31,0,0,0-2.17,0c-1.39-.17-2.83.14-4.22-.25-.13-.14-.39-.26-.26-.48.87-.3,1.78.13,2.86,0,1.4-.08,2.83,0,4.36-.22a71.29,71.29,0,0,1-5.23-5.47c.22-.39.66,0,.87.13,1.57,1.61,3.06,3.21,4.79,4.69l.09-.18c-.18-2.78-.09-5.82-.26-8.42,1-.44.39.9.69,1.17"/><path class="cls-19" d="M892.17,530.76c.17,2.09.3,4.39.3,6.65l.27,0c1.13-1.83,2.6-3.21,3.87-5a.36.36,0,0,1,.35.13c-.83,1.83-2.66,3.36-3.53,5-.3.45-.78.8-1,1.23,2.58,0,5.48-.26,7.79-.22-.22.79-1.09.65-1.74.75-1.83,0-3.35.26-5.26.17l-.09.09c1.79,2.13,4.48,3.52,5.48,6a.32.32,0,0,1-.3.13c-1.74-2.17-3.83-3.69-5.74-5.65-.17,3.08.34,6.09-.09,9.31a1.59,1.59,0,0,1-.56-1c0-3-.17-5.74-.27-8.7l-.56.62c-1.44,1.73-2.26,4.26-4.4,5.34l-.13,0c.09-.7,1-1,1.22-1.74l2.83-4a6.07,6.07,0,0,0-2.17,0c-1.4-.18-2.84.13-4.23-.26-.12-.13-.39-.25-.25-.47.86-.31,1.78.12,2.86,0,1.39-.09,2.83,0,4.35-.22a73.29,73.29,0,0,1-5.22-5.48c.22-.39.66,0,.87.13,1.57,1.61,3,3.22,4.79,4.7l.08-.18c-.17-2.78-.08-5.83-.25-8.43,1-.44.39.91.69,1.17"/><path class="cls-19" d="M899.58,584.26c.17,2.08.31,4.4.31,6.66l.26,0c1.13-1.83,2.61-3.22,3.87-5a.33.33,0,0,1,.35.14c-.83,1.83-2.65,3.34-3.53,5-.3.43-.78.77-1,1.21,2.56,0,5.48-.25,7.78-.21-.22.78-1.08.65-1.73.74-1.84,0-3.36.26-5.27.18l-.09.08c1.78,2.13,4.48,3.53,5.48,6a.32.32,0,0,1-.3.13c-1.74-2.17-3.83-3.7-5.74-5.65-.18,3.09.34,6.09-.09,9.32a1.75,1.75,0,0,1-.57-1c0-3-.17-5.74-.26-8.7l-.56.61c-1.44,1.73-2.25,4.25-4.39,5.34l-.13,0c.08-.69,1-1,1.21-1.74l2.83-4a5.85,5.85,0,0,0-2.17,0c-1.39-.18-2.83.12-4.23-.27-.12-.14-.38-.25-.25-.48.86-.3,1.77.14,2.87.05,1.39-.09,2.82-.05,4.34-.22a73.14,73.14,0,0,1-5.22-5.47c.22-.39.66,0,.88.12a66.31,66.31,0,0,0,4.78,4.7l.09-.17c-.18-2.78-.09-5.83-.26-8.43,1-.44.39.9.69,1.16"/><path class="cls-14" d="M708.27,519c-25,36-8.87,70.45,9.48,86.8,20.9,18.64,64.63,17.64,72.94-30.08,9.85-56.53-48-106.2-82.42-56.72m45.82,41.38c5.27,1.43,16.8,8.52,13.89,15.1-4.26,9.59-17.72.66-21.77-5.68.5,10.19-8,31.48-17.52,17.15-3.92-5.88-1.4-13.83,8.37-24.31-12.7-1.68-24.29-9.14-19.42-18.05,3.26-6,17.17-.58,22.79,6.36-3.34-6.49-6.23-32.32,7.48-28.61,11.81,3.21.93,28.9.93,28.9,6.25-5.84,19.49-12.41,24.55-4.87,6,9-9.39,15.71-19.3,14"/><path class="cls-21" d="M711.07,525.09c-.63,1.71,2.75,5.42,5.48,2.31s-3.61-7.41-5.48-2.31"/><path class="cls-21" d="M721.13,513.61c-.63,1.73,2.76,5.44,5.49,2.32s-3.61-7.4-5.49-2.32"/><path class="cls-21" d="M732.54,508.73c-.63,1.73,2.75,5.44,5.48,2.32s-3.61-7.4-5.48-2.32"/><path class="cls-21" d="M745.9,508.42c-.64,1.71,2.75,5.42,5.48,2.3s-3.6-7.4-5.48-2.3"/><path class="cls-21" d="M758.73,516c-.63,1.71,2.76,5.42,5.49,2.31s-3.61-7.4-5.49-2.31"/><path class="cls-21" d="M769,526.18c-.64,1.71,2.76,5.42,5.48,2.3s-3.6-7.39-5.48-2.3"/><path class="cls-21" d="M776,538.59c-.64,1.71,2.74,5.42,5.48,2.31s-3.61-7.4-5.48-2.31"/><path class="cls-21" d="M780.26,552.41c-.64,1.71,2.75,5.43,5.48,2.3s-3.6-7.39-5.48-2.3"/><path class="cls-21" d="M781.56,568c-.64,1.72,2.75,5.43,5.48,2.32s-3.6-7.41-5.48-2.32"/><path class="cls-21" d="M778.21,579.74c-.65,1.72,2.74,5.43,5.47,2.31s-3.61-7.4-5.47-2.31"/><path class="cls-21" d="M772.07,591.28c-.64,1.71,2.76,5.42,5.48,2.31s-3.6-7.41-5.48-2.31"/><path class="cls-21" d="M762.36,602.31c-.64,1.72,2.75,5.43,5.49,2.31s-3.61-7.39-5.49-2.31"/><path class="cls-21" d="M748.32,608.59c-.64,1.73,2.75,5.44,5.48,2.32s-3.61-7.41-5.48-2.32"/><path class="cls-21" d="M703.44,537.53c-.63,1.71,2.75,5.43,5.48,2.32s-3.6-7.41-5.48-2.32"/><path class="cls-21" d="M700.28,551.57c-.64,1.72,2.75,5.43,5.47,2.31s-3.6-7.4-5.47-2.31"/><path class="cls-21" d="M700.34,566.53c-.64,1.71,2.74,5.43,5.48,2.31s-3.61-7.41-5.48-2.31"/><path class="cls-21" d="M705,580.31c-.64,1.72,2.74,5.42,5.48,2.31s-3.61-7.4-5.48-2.31"/><path class="cls-21" d="M711.45,591.19c-.65,1.71,2.74,5.44,5.48,2.32s-3.61-7.41-5.48-2.32"/><path class="cls-21" d="M721.41,602.17c-.64,1.72,2.75,5.43,5.48,2.31s-3.6-7.4-5.48-2.31"/><path class="cls-21" d="M733.36,608.66c-.63,1.71,2.75,5.43,5.49,2.32s-3.61-7.4-5.49-2.32"/><path class="cls-22" d="M1018,571.3s17-66.62-32.64-73.8S909.66,609,968,624c30.27,7.81,42.56-20.06,44.94-30.5l-20.76-3.35s-2.43,12.72-16.89,9.89c-18.85-3.7-10.35-39-10.35-39Zm-33.71-53c12.34,2.17,7.5,27.34,7.5,27.34l-22-3.64c1.15-7.07,5.75-25.25,14.55-23.7"/><path class="cls-19" d="M942.44,575.18c-1.1,1.42.95,5.88,4.42,3.79s-1.18-8-4.42-3.79"/><path class="cls-19" d="M951.59,533.76c-1.09,1.41,1,5.87,4.43,3.78s-1.17-8-4.43-3.78"/><path class="cls-19" d="M980.56,504.57c-1.1,1.4,1,5.86,4.43,3.76s-1.17-7.95-4.43-3.76"/><path class="cls-19" d="M1007.68,531.58c-1.09,1.41,1,5.87,4.43,3.77s-1.17-8-4.43-3.77"/><path class="cls-19" d="M988.75,554.64c-1.1,1.41,1,5.87,4.42,3.78s-1.16-8-4.42-3.78"/><path class="cls-19" d="M998.53,597.72c-1.1,1.42,1,5.87,4.42,3.78s-1.17-8-4.42-3.78"/><path class="cls-19" d="M964.54,611.05c-1.1,1.4,1,5.86,4.43,3.77s-1.18-8-4.43-3.77"/><path class="cls-19" d="M954.07,557.49l-8.15,10.36,1.51.32-3.26-12.77-.16.74,8.15-10.37-1.5-.31,3.26,12.78Zm-3.25-12.78-8.16,10.37-.26.33.1.41,3.27,12.78.42,1.68,1.08-1.36,8.16-10.37.26-.33-.11-.4L952.32,545l-.43-1.69Z"/><path class="cls-19" d="M1002.8,552.69l6.81-11.3-1.54-.13,4.83,12.27.06-.75-6.8,11.29,1.54.13-4.83-12.27Zm4.84,12.27,6.8-11.3.21-.36-.16-.39-4.82-12.27L1009,539l-.89,1.49-6.81,11.29-.21.36.15.4,4.83,12.27.64,1.61Z"/><path class="cls-19" d="M973,547.38,982,557l.54-1.43-13.12,1.35.71.27-9.07-9.58-.53,1.44,13.12-1.36Zm-13.12,1.36,9.06,9.58.3.3.42,0,13.11-1.36,1.72-.18-1.18-1.27-9.07-9.57-.29-.31-.42,0-13.11,1.36-1.73.19Z"/><path class="cls-19" d="M981.57,608.29l13-2.33-.91-1.24-6,11.72.61-.45-13,2.33.91,1.24,6-11.72Zm-6,11.72,13-2.33.42-.07.19-.38,6-11.71L996,604l-1.71.31-13,2.33-.41.07-.2.37-6,11.73-.79,1.54Z"/><path class="cls-19" d="M958.33,592.31l1.16,13.13,1.31-.8-11.13-7.07.39.65-1.16-13.13-1.31.79L958.72,593Zm-11.13-7.08,1.16,13.14,0,.42.36.23,11.12,7.07,1.47.93-.15-1.73L960,592.15l0-.41-.36-.23-11.13-7.08L947,583.5Z"/><path class="cls-19" d="M970.88,520l-12,5.41,1.19,1,3-12.83-.49.58,12-5.42-1.18-1-3,12.84Zm3-12.84-12,5.42-.39.18-.09.4-3,12.84-.39,1.69,1.58-.71,12-5.42.38-.17.1-.41,3-12.84.4-1.69Z"/><path class="cls-19" d="M996.68,520.28l-4.4-12.44L991.21,509l12.54,4.07-.54-.52,4.39,12.43,1.07-1.11-12.54-4.07Zm12.53,4.07-4.4-12.43-.13-.4-.41-.13-12.53-4.07-1.66-.54.58,1.63,4.4,12.44.14.4.4.13,12.54,4.07,1.65.54Z"/><polygon class="cls-23" points="927.02 416 1007.42 407.57 1004.88 366.93 963.5 371.1 954.66 245.32 904.43 251.22 927.02 416"/><path class="cls-24" d="M928.33,330.25s6.84-.16,6.65-10.48c0,0-8.79,3.51-6.65,10.48"/><path class="cls-24" d="M924.67,263.47c2.44,1.62,5.39,4.18,5.62,7.2.14,2-1,3.33-2.4,4.89a15.91,15.91,0,0,0-2.28,3.1c-1.08,2.12-1.32,3.93-.72,5.53,1.09,2.92,4.72,4.39,8.22,5.8a22.48,22.48,0,0,1,5.2,2.56c6.29,4.82,2.44,12.82-.36,18.66l-.22.44c-3,6.23-1.45,13.57,4.24,20.13s8.5,11.76,6.89,20.07a24.77,24.77,0,0,1-3.17,7.52c-1.89,3.33-3.84,6.77-3.16,11.88.52,4,2.47,7.19,4.34,10.26,1.68,2.76,3.27,5.36,3.92,8.52a15.18,15.18,0,0,1-1.49,10.24l1.23.67a16.65,16.65,0,0,0,1.63-11.19c-.7-3.41-2.43-6.23-4.1-9-1.88-3.07-3.65-6-4.15-9.71-.61-4.64,1.14-7.74,3-11a26,26,0,0,0,3.33-7.94c1.71-8.87-1.34-14.51-7.2-21.25-2.51-2.9-7.94-10.51-4-18.61l.21-.45c2.85-5.91,7.16-14.85,0-20.37a24.15,24.15,0,0,0-5.53-2.75c-3.23-1.29-6.56-2.64-7.44-5a5.42,5.42,0,0,1,.66-4.4,13.65,13.65,0,0,1,2.09-2.82c1.44-1.65,2.92-3.35,2.73-5.91-.21-2.88-2.31-5.66-6.24-8.27Z"/><path class="cls-24" d="M936.84,396.33s7.4,2.89,11.85-8.26c0,0-11-.2-11.85,8.26"/><path class="cls-24" d="M950.66,398.92s-7.95-.12-8.21,11.9c0,0,10.39-3.69,8.21-11.9"/><path class="cls-24" d="M929.62,375.58s7.39,2.9,11.84-8.26c0,0-11-.19-11.84,8.26"/><path class="cls-24" d="M927.09,271.86s-4.59-3.71-10.24,3.21c0,0,7.76,2.6,10.24-3.21"/><path class="cls-24" d="M950,379.73s2.31,7.6,13.82,4.16c0,0-6.68-8.76-13.82-4.16"/><path class="cls-24" d="M939,319.51s2.31,7.61,13.83,4.17c0,0-6.69-8.76-13.83-4.17"/><path class="cls-24" d="M909.83,254.58s-1.43,14.89,18.46,11.08c0,0-4.5-18.08-18.46-11.08"/><path class="cls-24" d="M928,306.76s7.75-1.76,5.17-13.49c0,0-9.23,6-5.17,13.49"/><path class="cls-24" d="M929.78,262.41s2.87,7.41,14.1,3.13c0,0-7.32-8.24-14.1-3.13"/><path class="cls-24" d="M955.18,306.79s.75-7.92-11.21-9.1c0,0,2.87,10.64,11.21,9.1"/><path class="cls-24" d="M935.7,348.34s7.94.38,8.57-11.62c0,0-10.5,3.35-8.57,11.62"/><path class="cls-24" d="M958,372.32s.63-7.92-11.34-8.94c0,0,3,10.6,11.34,8.94"/><path class="cls-24" d="M930.69,280.84s2.32,7.61,13.83,4.17c0,0-6.68-8.75-13.83-4.17"/><path class="cls-24" d="M935.08,403.31a1.93,1.93,0,1,0-3,2.48c1.54,1.87,4.12.54,3.28-1.85a2.21,2.21,0,0,0-.33-.63"/><path class="cls-24" d="M995.69,398.78a1.93,1.93,0,1,0-3,2.48c1.54,1.87,4.13.53,3.28-1.85a2.49,2.49,0,0,0-.33-.63"/><path class="cls-24" d="M935.65,358.8a1.94,1.94,0,1,0-3,2.49c1.54,1.87,4.13.54,3.29-1.85a3,3,0,0,0-.33-.64"/><path class="cls-24" d="M954.06,331.93a1.94,1.94,0,1,0-2.95,2.49c1.54,1.87,4.12.54,3.28-1.86a2.67,2.67,0,0,0-.33-.63"/><path class="cls-24" d="M959.72,402.18a1.93,1.93,0,1,0-2.94,2.49c1.53,1.87,4.12.53,3.27-1.86a2.1,2.1,0,0,0-.33-.63"/><path class="cls-24" d="M926.88,315a1.93,1.93,0,1,0-3,2.48c1.54,1.88,4.12.54,3.28-1.85a2.67,2.67,0,0,0-.33-.63"/><path class="cls-24" d="M948.86,289.42a1.93,1.93,0,1,0-3,2.48c1.54,1.87,4.12.54,3.27-1.85a2.19,2.19,0,0,0-.32-.63"/><path class="cls-24" d="M924.63,290.67a1.94,1.94,0,1,0-3,2.49c1.54,1.87,4.12.54,3.28-1.85a2.27,2.27,0,0,0-.33-.64"/><path class="cls-24" d="M943.61,254.47a1.93,1.93,0,1,0-3,2.48c1.54,1.87,4.12.54,3.27-1.85a2.19,2.19,0,0,0-.32-.63"/><path class="cls-24" d="M981.48,384.61a1.94,1.94,0,1,0-3,2.48c1.54,1.87,4.13.53,3.29-1.85a2.49,2.49,0,0,0-.33-.63"/><path class="cls-24" d="M928.56,338.66a1.94,1.94,0,1,0-2.95,2.49c1.54,1.87,4.12.54,3.28-1.85a2.75,2.75,0,0,0-.33-.64"/><path class="cls-24" d="M945.34,272.5a1.94,1.94,0,1,0-3,2.48c1.54,1.87,4.13.53,3.28-1.85a2.19,2.19,0,0,0-.32-.63"/><path class="cls-24" d="M961.17,390a1.94,1.94,0,1,0-2.95,2.49c1.54,1.87,4.13.54,3.28-1.85a2.41,2.41,0,0,0-.33-.64"/><path class="cls-24" d="M935.17,384.29a1.93,1.93,0,1,0-2.95,2.48c1.54,1.88,4.12.54,3.28-1.85a2.67,2.67,0,0,0-.33-.63"/><path class="cls-24" d="M992.88,384.41c1.24,4.14,3.51,6.32,5.64,5.39,4-1.76-2.14-6.19-3.78-7.06,1.5.77,6.92,1.32,6.89-2.08,0-2.88-6-1.5-7.7-.45,1.07-2.23-.11-8.15-2.53-6.28-1.62,1.25-1.7,4.9-.37,6.86-2.16-1.45-5.6-1.23-5.87.27-.36,2.09,2.91,2.79,5.39,2.08-3,2-4.83,5.58-1.62,6.22,2.73.43,4-4.95,4-4.95"/><path class="cls-24" d="M974.59,398c1.29-.07,7.71-.1,7.23,2.85-.42,2.55-7.51.82-8.59-1.31.58,2.89-1.46,7.95-3.43,4.64-1-1.72,1-4.66,1.73-5.79-2.3,1.13-8.3,2.06-8.22-.92.06-2.45,6.33-2.13,7.92-2.05-2.24-1.67-4.16-8.11-1.58-9.57,4.45-2.51,5.62,7.14,4.55,9.9.54-.68,5.78-7,6.52-3.05.47,2.55-6.13,5.3-6.13,5.3"/><polygon class="cls-25" points="816.56 417.33 888.75 421.46 892.36 385.21 855.22 382.94 865.49 270.63 820.3 268.61 816.56 417.33"/><path class="cls-26" d="M830,341.82s6.06.84,7.38-8.3c0,0-8.27,1.84-7.38,8.3"/><path class="cls-26" d="M836.41,282.34c1.92,1.78,4.16,4.47,3.92,7.16-.15,1.76-1.38,2.79-2.82,4a14.79,14.79,0,0,0-2.46,2.42,6.06,6.06,0,0,0-1.43,4.77c.55,2.74,3.54,4.55,6.43,6.3a20.63,20.63,0,0,1,4.22,3c4.86,5.16.32,11.67-3,16.42l-.26.36c-3.54,5.07-3.23,11.77.86,18.38s5.8,11.61,3.18,18.71a21.87,21.87,0,0,1-3.87,6.18c-2.15,2.68-4.36,5.43-4.5,10-.11,3.63,1.15,6.71,2.36,9.69a24,24,0,0,1,2.24,8.08,13.62,13.62,0,0,1-2.79,8.82l1,.77a14.85,14.85,0,0,0,3.06-9.65,25.43,25.43,0,0,0-2.33-8.5c-1.22-3-2.37-5.81-2.27-9.17.13-4.19,2.12-6.67,4.22-9.29a23,23,0,0,0,4.08-6.54c2.79-7.57.9-13-3.3-19.79-1.8-2.92-5.5-10.42-.89-17l.25-.36c3.37-4.81,8.45-12.09,2.89-18a21.57,21.57,0,0,0-4.48-3.23c-2.66-1.6-5.41-3.27-5.85-5.47a4.87,4.87,0,0,1,1.21-3.79,13,13,0,0,1,2.25-2.19c1.51-1.25,3.07-2.54,3.27-4.83.23-2.56-1.23-5.32-4.32-8.19Z"/><path class="cls-26" d="M828.05,401.38s6.12,3.62,11.65-5.59c0,0-9.69-1.76-11.65,5.59"/><path class="cls-26" d="M839.88,405.66s-7-1.26-9,9.32c0,0,9.7-1.76,9-9.32"/><path class="cls-26" d="M824.66,382s6.11,3.62,11.64-5.6c0,0-9.69-1.74-11.64,5.6"/><path class="cls-26" d="M837.34,290.1s-3.52-3.94-9.5,1.36c0,0,6.47,3.41,9.5-1.36"/><path class="cls-26" d="M842,388.62s1,7,11.62,5.66c0,0-4.65-8.7-11.62-5.66"/><path class="cls-26" d="M841,333.88s1,7,11.61,5.66c0,0-4.64-8.69-11.61-5.66"/><path class="cls-26" d="M824.58,272.36s-3.4,12.93,14.71,12.44c0,0-1.38-16.62-14.71-12.44"/><path class="cls-26" d="M833.13,321s7.1-.43,6.51-11.16c0,0-9,4-6.51,11.16"/><path class="cls-26" d="M841.07,282.14s1.47,6.95,12,4.79c0,0-5.28-8.32-12-4.79"/><path class="cls-26" d="M857.12,325s1.79-6.88-8.59-9.65c0,0,1,9.81,8.59,9.65"/><path class="cls-26" d="M834,358.85s6.95,1.48,9.23-9c0,0-9.74,1.45-9.23,9"/><path class="cls-26" d="M850.19,383.23s1.7-6.91-8.72-9.52c0,0,1.13,9.79,8.72,9.52"/><path class="cls-26" d="M839.23,298.55s.95,7.05,11.61,5.66c0,0-4.64-8.69-11.61-5.66"/><path class="cls-18" d="M825.5,407.29a1.73,1.73,0,1,0-3,1.77c1.1,1.88,3.57,1.07,3.17-1.16a2.57,2.57,0,0,0-.2-.61"/><path class="cls-26" d="M879.66,412a1.73,1.73,0,1,0-3,1.77c1.09,1.87,3.56,1.07,3.16-1.16a2.19,2.19,0,0,0-.2-.61"/><path class="cls-18" d="M832.39,368.08a1.73,1.73,0,1,0-3,1.77c1.09,1.88,3.57,1.07,3.17-1.16a2.44,2.44,0,0,0-.21-.61"/><path class="cls-18" d="M852.51,347a1.73,1.73,0,1,0-3,1.77c1.09,1.88,3.56,1.07,3.16-1.16a2.3,2.3,0,0,0-.2-.61"/><path class="cls-18" d="M847.42,409.84a1.73,1.73,0,1,0-3,1.77,1.69,1.69,0,0,0,3.17-1.17,2.49,2.49,0,0,0-.2-.6"/><path class="cls-18" d="M831,328.17a1.73,1.73,0,1,0-3,1.77,1.69,1.69,0,0,0,3.16-1.17,2.64,2.64,0,0,0-.2-.6"/><path class="cls-18" d="M854,308.72a1.73,1.73,0,1,0-3,1.77c1.09,1.87,3.56,1.07,3.16-1.16a2.19,2.19,0,0,0-.2-.61"/><path class="cls-18" d="M832.46,306.35a1.73,1.73,0,1,0-3,1.77c1.09,1.87,3.56,1.07,3.17-1.16a2.19,2.19,0,0,0-.21-.61"/><path class="cls-18" d="M854.42,277.11a1.73,1.73,0,1,0-3,1.77c1.09,1.88,3.56,1.07,3.15-1.16a2.18,2.18,0,0,0-.19-.61"/><path class="cls-26" d="M869.15,397.45a1.73,1.73,0,1,0-3,1.77c1.09,1.87,3.57,1.06,3.16-1.16a2.18,2.18,0,0,0-.19-.61"/><path class="cls-26" d="M829,349.28a1.73,1.73,0,1,0-3,1.78c1.09,1.86,3.57,1.06,3.16-1.17a2,2,0,0,0-.2-.61"/><path class="cls-26" d="M853.35,293.28a1.73,1.73,0,1,0-3,1.77c1.09,1.87,3.57,1.06,3.16-1.17a1.84,1.84,0,0,0-.2-.6"/><path class="cls-26" d="M850.44,399.31a1.73,1.73,0,1,0-3,1.76c1.09,1.88,3.56,1.07,3.16-1.16a1.84,1.84,0,0,0-.2-.6"/><path class="cls-26" d="M828.31,390.51a1.73,1.73,0,1,0-3,1.77c1.09,1.88,3.56,1.07,3.16-1.16a2.19,2.19,0,0,0-.2-.61"/><path class="cls-18" d="M879.24,398.92c.5,3.83,2.2,6.08,4.21,5.57,3.78-1-1-5.77-2.33-6.78,1.22.89,5.92,2.16,6.39-.85.38-2.55-5.09-2.18-6.74-1.5,1.27-1.82,1.08-7.21-1.33-5.91-1.6.87-2.21,4.08-1.31,6-1.7-1.59-4.77-1.89-5.22-.6-.62,1.79,2.16,2.88,4.46,2.61-3,1.3-5.07,4.23-2.33,5.26,2.35.77,4.2-3.8,4.2-3.8"/><path class="cls-18" d="M861.14,408.3c1.15.11,6.82,1,6,3.55-.73,2.19-6.75-.36-7.39-2.39.09,2.64-2.43,6.81-3.7,3.6-.66-1.66,1.55-4,2.36-4.86-2.19.66-7.62.63-7.12-2,.4-2.15,5.89-1,7.29-.67-1.75-1.8-2.52-7.75,0-8.67,4.29-1.58,3.94,7.11,2.59,9.39.59-.52,6.12-5.38,6.2-1.75.05,2.31-6.17,3.8-6.17,3.8"/><path class="cls-27" d="M1079.2,440.64l-1.66.35-.16,1.69c-.09,1.08-9.82,107.89-10.35,131.83l0,1.88,30,6.76.5-2.25c2.8-12.69,27.38-124.15,26.91-131.4l-.09-1.34-1.21-.59c-1-.45-23.55-11.19-43.87-6.93"/><path class="cls-27" d="M1077,591.05c-8.94,1.53-16.71,8.28-18.88,16.41a32,32,0,0,0-.79,3.76c-1.56,10.62,2.86,19.14,12.5,23.73,11.18,5.32,21.73,2.53,27.52-7.28,4.14-7,5.35-16.08,3-22.6-3-8.35-12.54-15.89-23.37-14"/><path class="cls-18" d="M1081.4,598.29c-.3,2-.3,4.54-.81,6.06.42,2.21-.71,4.85-.48,7l8.8-8c.36.05.79-.35,1.08.16l-.08.55c-2.9,3.32-6.77,5.64-9.5,9.07,3.77.85,8.38.4,12.44.62.33-.32,1-.59,1.32-.08-1.76,1.8-4.68,1.46-7.28,1.45-2.08.25-4.23-.91-6.28-.27,1.24,2.9,4.34,4.57,5.18,7.68-.68.28-1.06-.34-1.77-.53-1.59-1.83-2.84-4.07-4.54-5.73-1,4.07.56,9.34-2.18,12.87-.69-.38-.37-1.27-.28-1.91,0-3.56.67-7.67.73-11.21-2.27,1.53-3.64,4.52-6.53,5.86-.16-.21-.46-.06-.51-.36,1.17-2.25,3.49-4.16,5.38-6.22l.52-.39c-1.3-1.22-3.86-.94-5.65-1.39l-6.21-.73c-.34-.14-.64-.65-.32-1,4.24.25,8.61.24,12.72,1.31a44.37,44.37,0,0,1-5.5-8.67,1,1,0,0,1,1.23-.09c1.92,2.71,3.14,5.13,5.38,7.53l.34-1c.37-4.43,1.11-9.47,1.67-13.87.77-.17,1.11.63,1.13,1.19"/><path class="cls-19" d="M1111,486.61s-7-4.49-13.81,6c0,0,11.23,2.45,13.81-6"/><path class="cls-19" d="M1108.36,504.22s-7-4.49-13.82,6c0,0,11.23,2.46,13.82-6"/><path class="cls-19" d="M1105.7,522.23s-7-4.49-13.82,6c0,0,11.24,2.45,13.82-6"/><path class="cls-19" d="M1103,540.43s-7-4.49-13.81,6c0,0,11.23,2.46,13.81-6"/><path class="cls-19" d="M1100.74,555.86s-7-4.49-13.82,6c0,0,11.23,2.45,13.82-6"/><path class="cls-19" d="M1081.09,482.2s8-2.28,11.49,9.76c0,0-11.47-.89-11.49-9.76"/><path class="cls-19" d="M1078.49,499.81s8-2.28,11.49,9.76c0,0-11.47-.89-11.49-9.76"/><path class="cls-19" d="M1075.83,517.82s8-2.28,11.49,9.76c0,0-11.46-.9-11.49-9.76"/><path class="cls-19" d="M1073.15,536s8-2.28,11.48,9.76c0,0-11.46-.9-11.48-9.76"/><path class="cls-19" d="M1070.87,551.46s8-2.29,11.49,9.75c0,0-11.47-.89-11.49-9.75"/><rect class="cls-19" x="1041.01" y="522.72" width="98.66" height="1.62" transform="translate(413.28 1525.78) rotate(-81.61)"/><path class="cls-28" d="M1085.61,448.31c10.79,3.58-1.55,20.1,10.87,24.09,6,1.91,10.46-2,11.75-7.79,1.23-5.5.4-9.15,6.63-10.9-4.34-.57-7.8-1.69-11.21,2,.07-1.38.15-8.27-1.65-10.11-3.37.81-4.19,6.1-5.33,9a10.66,10.66,0,0,0-11.06-6.32"/><path class="cls-13" d="M679,554.33c-6.08-64.56-52.48-84.06-88-83-12.84.39-45.42,5.4-45.42,5.4L567.5,655.57s32.06-2.21,45.15-5.23c32.27-7.43,72.46-30.72,66.3-96m-75.14,52.14-10.35-87.65c10.45-1.69,39.55-.36,44.77,32.33,8.36,52.28-34.42,55.32-34.42,55.32"/><polygon class="cls-19" points="567.65 522.36 571.94 507.16 579.45 521.05 575.16 536.24 567.65 522.36"/><polygon class="cls-19" points="598.49 489.11 611.19 498.5 595.54 500.62 582.85 491.23 598.49 489.11"/><polygon class="cls-19" points="649.92 516.51 655.62 531.23 641.27 524.64 635.57 509.92 649.92 516.51"/><polygon class="cls-19" points="663.22 575.01 655.42 589.02 651.25 573.54 659.05 559.53 663.22 575.01"/><polygon class="cls-19" points="631.27 623.42 616.38 628.66 623.41 614.52 638.31 609.29 631.27 623.42"/><polygon class="cls-29" points="569.28 486.52 571.24 500.66 572.04 500.55 570.08 486.42 569.28 486.52"/><polygon class="cls-29" points="576.92 492.34 564.31 494.1 564.42 494.91 577.03 493.14 576.92 492.34"/><polygon class="cls-29" points="576.1 496.98 565.72 489.61 565.25 490.26 575.62 497.64 576.1 496.98"/><polygon class="cls-29" points="573.73 488.02 566.93 498.8 567.62 499.22 574.41 488.45 573.73 488.02"/><polygon class="cls-29" points="622.92 494.95 624.88 509.09 625.68 508.98 623.72 494.85 622.92 494.95"/><polygon class="cls-29" points="630.57 500.76 617.95 502.53 618.06 503.34 630.67 501.57 630.57 500.76"/><polygon class="cls-29" points="629.74 505.41 619.36 498.03 618.89 498.69 629.26 506.07 629.74 505.41"/><polygon class="cls-29" points="627.37 496.45 620.58 507.22 621.26 507.65 628.05 496.88 627.37 496.45"/><rect class="cls-29" x="657.87" y="538.07" width="0.91" height="16.06" transform="translate(-68.74 95.56) rotate(-7.89)"/><polygon class="cls-29" points="665.38 544.75 651.17 546.74 651.3 547.65 665.5 545.65 665.38 544.75"/><polygon class="cls-29" points="664.45 549.98 652.76 541.67 652.23 542.41 663.91 550.72 664.45 549.98"/><polygon class="cls-29" points="661.77 539.9 654.13 552.02 654.9 552.5 662.54 540.38 661.77 539.9"/><polygon class="cls-29" points="646.73 593.19 648.69 607.33 649.49 607.22 647.53 593.09 646.73 593.19"/><polygon class="cls-29" points="654.37 599.01 641.76 600.77 641.87 601.58 654.48 599.81 654.37 599.01"/><polygon class="cls-29" points="653.55 603.65 643.17 596.27 642.7 596.93 653.07 604.31 653.55 603.65"/><polygon class="cls-29" points="651.18 594.69 644.38 605.47 645.07 605.89 651.86 595.12 651.18 594.69"/><polygon class="cls-29" points="603.65 622.29 605.61 636.43 606.41 636.32 604.45 622.18 603.65 622.29"/><polygon class="cls-29" points="611.3 628.1 598.68 629.87 598.79 630.67 611.4 628.9 611.3 628.1"/><polygon class="cls-29" points="610.47 632.75 600.09 625.37 599.62 626.02 610 633.41 610.47 632.75"/><polygon class="cls-29" points="608.1 623.79 601.31 634.56 601.99 634.99 608.78 624.22 608.1 623.79"/><polygon class="cls-19" points="572.48 576.46 576.77 561.26 584.29 575.15 579.99 590.34 572.48 576.46"/><polygon class="cls-29" points="574.11 540.62 576.07 554.76 576.87 554.65 574.92 540.52 574.11 540.62"/><polygon class="cls-29" points="581.76 546.44 569.14 548.2 569.26 549.01 581.87 547.24 581.76 546.44"/><polygon class="cls-29" points="580.93 551.08 570.55 543.71 570.08 544.36 580.46 551.74 580.93 551.08"/><polygon class="cls-29" points="578.56 542.13 571.77 552.89 572.45 553.32 579.25 542.55 578.56 542.13"/><polygon class="cls-19" points="579.7 629.97 583.99 614.77 591.5 628.66 587.21 643.86 579.7 629.97"/><polygon class="cls-29" points="578.9 594.17 580.86 608.31 581.66 608.19 579.7 594.06 578.9 594.17"/><polygon class="cls-29" points="586.54 599.98 573.93 601.74 574.04 602.55 586.65 600.78 586.54 599.98"/><polygon class="cls-29" points="585.72 604.63 575.34 597.25 574.87 597.9 585.24 605.28 585.72 604.63"/><polygon class="cls-29" points="583.35 595.67 576.55 606.44 577.24 606.86 584.03 596.1 583.35 595.67"/><path class="cls-30" d="M318.54,591.67v21.47a.37.37,0,0,1-.73,0V591.67a.37.37,0,0,1,.73,0"/><path class="cls-30" d="M328.07,603c-7,0-14-.37-21,.61-.46.06-.65-.63-.19-.7,7-1,14.08-.67,21.15-.64a.37.37,0,0,1,0,.73"/><path class="cls-30" d="M312.42,595.79c1.93,5.06,8,7.39,11.48,11.2.32.35-.19.86-.51.52-3.61-3.92-9.68-6.29-11.67-11.53-.17-.44.53-.63.7-.19"/><path class="cls-30" d="M324.46,596.41c-2.31,1.37-4.06,3.89-5.7,6-1.86,2.34-3.6,4.78-5.37,7.2-.28.38-.91,0-.63-.37,1.8-2.47,3.6-4.94,5.49-7.34,1.66-2.13,3.47-4.67,5.84-6.07a.37.37,0,0,1,.37.63"/><path class="cls-31" d="M326.47,627.79v15.29a.26.26,0,0,0,.51,0V627.79a.26.26,0,0,0-.51,0"/><path class="cls-31" d="M319.68,635.85c5,0,10-.27,14.92.43.33.05.47-.45.14-.5-5-.71-10-.47-15.06-.45a.26.26,0,0,0,0,.52"/><path class="cls-31" d="M330.82,630.72c-1.37,3.61-5.68,5.27-8.18,8-.22.25.14.61.37.37,2.58-2.8,6.89-4.48,8.31-8.21.12-.31-.38-.45-.5-.14"/><path class="cls-31" d="M322.25,631.16c1.64,1,2.89,2.77,4.06,4.24,1.32,1.67,2.56,3.41,3.82,5.13.2.26.65,0,.45-.27-1.29-1.75-2.56-3.51-3.91-5.22a16.6,16.6,0,0,0-4.16-4.32.26.26,0,0,0-.26.44"/><path class="cls-32" d="M540.49,714.49c.29,3.49.51,7.34.51,11.13l.43-.07c1.9-3.06,4.37-5.39,6.48-8.3a.57.57,0,0,1,.58.22c-1.38,3.06-4.44,5.6-5.89,8.37-.51.72-1.31,1.31-1.6,2,4.29.07,9.17-.44,13-.36-.37,1.3-1.82,1.09-2.91,1.23-3.06-.08-5.6.43-8.81.29l-.14.14c3,3.57,7.5,5.9,9.16,10.12a.53.53,0,0,1-.5.21c-2.91-3.63-6.4-6.18-9.6-9.45-.29,5.16.58,10.18-.15,15.56a2.64,2.64,0,0,1-.94-1.74c0-5-.29-9.6-.44-14.55l-1,1c-2.39,2.91-3.78,7.13-7.34,8.95l-.22-.08c.15-1.16,1.6-1.74,2-2.91l4.73-6.77c-1.1-.43-2.33,0-3.64,0-2.34-.28-4.73.23-7.06-.43-.22-.22-.66-.44-.44-.8,1.46-.51,3,.22,4.8.07,2.33-.14,4.74-.07,7.28-.36a118.41,118.41,0,0,1-8.73-9.16c.36-.66,1.09-.08,1.45.21,2.63,2.69,5.1,5.39,8,7.86l.14-.29c-.29-4.65-.14-9.75-.43-14.11,1.6-.73.65,1.52,1.16,2"/><path class="cls-32" d="M478.54,561.69v23.55a.4.4,0,0,1-.8,0V561.69a.4.4,0,0,1,.8,0"/><path class="cls-32" d="M489,574.1c-7.67,0-15.35-.41-23,.67-.5.07-.72-.7-.21-.77,7.7-1.09,15.45-.73,23.19-.71a.41.41,0,0,1,0,.81"/><path class="cls-32" d="M471.83,566.2c2.12,5.55,8.75,8.11,12.6,12.29.34.38-.22.94-.57.56-4-4.29-10.61-6.89-12.8-12.63-.19-.48.59-.69.77-.22"/><path class="cls-32" d="M485,566.89c-2.54,1.49-4.46,4.26-6.26,6.52-2,2.57-3.95,5.25-5.89,7.89-.3.42-1,0-.69-.4,2-2.71,3.95-5.42,6-8.06,1.83-2.33,3.81-5.11,6.41-6.64a.4.4,0,0,1,.41.69"/><path class="cls-30" d="M1156.31,209.61v21.47a.37.37,0,0,1-.73,0V209.61a.37.37,0,0,1,.73,0"/><path class="cls-30" d="M1165.84,220.92c-7,0-14-.37-20.95.62-.46.06-.66-.64-.19-.7,7-1,14.08-.67,21.14-.65a.37.37,0,0,1,0,.73"/><path class="cls-30" d="M1150.19,213.72c1.94,5.06,8,7.4,11.49,11.21.32.35-.19.86-.52.51-3.61-3.91-9.67-6.29-11.67-11.52-.17-.44.54-.63.7-.2"/><path class="cls-30" d="M1162.24,214.35c-2.31,1.36-4.06,3.88-5.71,6-1.86,2.34-3.6,4.78-5.36,7.19-.28.38-.91,0-.63-.36,1.8-2.47,3.59-4.94,5.48-7.35,1.66-2.13,3.48-4.66,5.85-6.06a.37.37,0,0,1,.37.63"/><path class="cls-31" d="M1164.24,245.73V261a.26.26,0,0,0,.52,0V245.73a.26.26,0,0,0-.52,0"/><path class="cls-31" d="M1157.46,253.78c5,0,10-.26,14.92.44.32.05.46-.45.13-.5-5-.71-10-.47-15-.45a.25.25,0,1,0,0,.51"/><path class="cls-31" d="M1168.6,248.66c-1.38,3.6-5.68,5.27-8.18,8-.23.24.14.61.36.37,2.58-2.8,6.89-4.48,8.32-8.21.11-.32-.39-.45-.5-.14"/><path class="cls-31" d="M1160,249.1c1.65,1,2.89,2.77,4.06,4.24,1.33,1.67,2.57,3.4,3.83,5.13.19.26.64,0,.44-.27-1.28-1.75-2.56-3.51-3.9-5.23-1.19-1.51-2.48-3.32-4.17-4.32-.29-.17-.54.28-.26.45"/><path class="cls-32" d="M1271.7,296.43c.29,3.49.51,7.34.51,11.13l.43-.07c1.9-3.06,4.37-5.39,6.49-8.3a.54.54,0,0,1,.57.22c-1.38,3.06-4.43,5.6-5.89,8.36-.5.73-1.31,1.32-1.6,2.05,4.29.07,9.17-.45,13-.37-.36,1.31-1.82,1.09-2.91,1.24-3-.08-5.6.43-8.8.29l-.14.14c3,3.57,7.49,5.89,9.16,10.11a.53.53,0,0,1-.51.22c-2.9-3.63-6.39-6.18-9.6-9.45-.29,5.16.58,10.18-.15,15.56a2.76,2.76,0,0,1-.94-1.74c0-4.95-.29-9.6-.43-14.55l-1,1c-2.4,2.91-3.79,7.13-7.35,8.94l-.22-.07c.15-1.17,1.6-1.74,2-2.91l4.73-6.77c-1.1-.43-2.33,0-3.64,0-2.33-.28-4.73.22-7.06-.43-.21-.22-.65-.44-.43-.8,1.45-.51,3,.22,4.79.07,2.33-.14,4.74-.07,7.28-.36a118.56,118.56,0,0,1-8.73-9.17c.36-.65,1.1-.07,1.45.22,2.63,2.69,5.1,5.39,8,7.86l.14-.29c-.29-4.66-.14-9.75-.43-14.11,1.6-.73.65,1.52,1.16,2"/><path class="cls-32" d="M256.11,313.19c.29,3.49.51,7.34.51,11.13l.43-.07c1.9-3.06,4.37-5.39,6.48-8.3a.55.55,0,0,1,.58.22c-1.38,3.06-4.44,5.6-5.89,8.37-.51.72-1.31,1.31-1.6,2,4.29.07,9.17-.44,13-.36-.36,1.3-1.82,1.09-2.91,1.23-3.06-.08-5.6.43-8.81.29l-.14.14c3,3.57,7.5,5.9,9.16,10.11a.51.51,0,0,1-.5.22c-2.91-3.63-6.4-6.18-9.6-9.45-.29,5.16.58,10.18-.15,15.56a2.73,2.73,0,0,1-.94-1.74c0-4.95-.29-9.6-.44-14.55l-.94,1C252,332,250.58,336.18,247,338l-.22-.07c.15-1.16,1.6-1.74,2-2.91l4.73-6.77c-1.1-.43-2.33,0-3.64,0-2.33-.28-4.73.23-7.06-.43-.21-.22-.65-.44-.44-.8,1.46-.51,3,.22,4.8.07,2.33-.14,4.74-.07,7.28-.36a118.41,118.41,0,0,1-8.73-9.16c.36-.66,1.1-.08,1.45.21,2.63,2.69,5.1,5.39,8,7.86l.14-.29c-.29-4.65-.14-9.75-.43-14.11,1.6-.73.65,1.52,1.16,2"/><path class="cls-32" d="M1288.2,196.65v23.54a.4.4,0,0,1-.8,0V196.65a.4.4,0,0,1,.8,0"/><path class="cls-32" d="M1298.65,209.05c-7.67,0-15.36-.4-23,.68-.5.06-.72-.7-.21-.77,7.69-1.1,15.45-.74,23.19-.71a.4.4,0,0,1,0,.8"/><path class="cls-32" d="M1281.49,201.16c2.12,5.55,8.75,8.11,12.59,12.29.35.37-.21.94-.56.56-4-4.3-10.61-6.9-12.8-12.64-.19-.48.59-.68.77-.21"/><path class="cls-32" d="M1294.7,201.84c-2.54,1.5-4.46,4.26-6.26,6.53-2,2.57-4,5.24-5.89,7.89-.3.41-1,0-.69-.41,2-2.7,4-5.41,6-8,1.83-2.33,3.81-5.11,6.41-6.65a.4.4,0,0,1,.41.69"/><path class="cls-33" d="M1051.58,681.67c2.66-1.5,7.79-2.66,8.91.38,1.32,3.62-4.58,4.65-7.87,3.22,1.71,1,5.1,4.37,3.54,6.4-2.28,3-6.19-1.26-7.06-3.79-.68,3.56-5.41,10.22-7.51,4.46-.86-2.37.68-4.91,5-7.72-4.26-1.65-7.64-5.21-5.2-7.88,1.63-1.8,6,1.24,7.35,4.12-.61-2.53.56-11.71,5-9.27,3.82,2.1-2.11,10.08-2.11,10.08"/><path class="cls-34" d="M1168.61,685.19c.33,2.54.62,5.36.74,8.13l.32-.07c1.29-2.3,3-4.08,4.47-6.28a.4.4,0,0,1,.43.14c-.91,2.28-3.06,4.24-4,6.31a9.33,9.33,0,0,0-1.11,1.55c3.14-.09,6.69-.63,9.51-.7-.22,1-1.29.86-2.08,1-2.24,0-4.09.49-6.43.5l-.11.11c2.3,2.51,5.68,4.06,7,7.1a.39.39,0,0,1-.36.17c-2.25-2.57-4.89-4.32-7.34-6.6,0,3.79.76,7.43.41,11.39a2,2,0,0,1-.75-1.24c-.16-3.62-.53-7-.8-10.64l-.66.78c-1.66,2.21-2.53,5.34-5.08,6.79l-.16,0c.07-.85,1.11-1.32,1.39-2.19l3.24-5.11a7.6,7.6,0,0,0-2.66.12c-1.71-.13-3.45.32-5.18-.09-.16-.15-.49-.29-.34-.57,1-.42,2.19.06,3.51-.1,1.7-.18,3.46-.21,5.31-.51a87.73,87.73,0,0,1-6.69-6.41c.25-.5.8-.1,1.07.1,2,1.89,3.91,3.78,6.12,5.49l.09-.22c-.36-3.39-.42-7.12-.78-10.31,1.15-.58.53,1.1.91,1.4"/><path class="cls-35" d="M1278.83,676.59c.23,2.79.41,5.89.41,8.92l.35,0c1.52-2.46,3.5-4.32,5.18-6.65a.44.44,0,0,1,.47.17c-1.1,2.45-3.55,4.49-4.72,6.7a10.92,10.92,0,0,0-1.28,1.64c3.44,0,7.34-.36,10.43-.29-.29,1.05-1.45.87-2.33,1-2.45-.06-4.49.34-7,.23l-.12.11c2.39,2.86,6,4.73,7.34,8.11a.42.42,0,0,1-.4.17c-2.34-2.91-5.13-4.95-7.69-7.58-.24,4.14.46,8.16-.12,12.48a2.25,2.25,0,0,1-.76-1.4c0-4-.23-7.69-.35-11.66l-.75.82c-1.93,2.33-3,5.71-5.89,7.17l-.18-.07c.12-.93,1.29-1.39,1.64-2.32l3.78-5.43c-.87-.34-1.86,0-2.91,0-1.87-.23-3.79.18-5.66-.34-.17-.18-.52-.35-.34-.65,1.16-.4,2.39.18,3.84.06,1.87-.11,3.79-.06,5.83-.29a93.49,93.49,0,0,1-7-7.34c.29-.53.87-.06,1.16.17,2.1,2.16,4.08,4.32,6.41,6.3l.12-.23c-.23-3.73-.12-7.81-.35-11.31,1.28-.58.52,1.23.93,1.57"/><path class="cls-35" d="M308.27,443.31c.23,2.79.41,5.89.41,8.92l.35-.05c1.52-2.46,3.5-4.32,5.18-6.65a.44.44,0,0,1,.47.17c-1.1,2.45-3.55,4.49-4.72,6.7a10.92,10.92,0,0,0-1.28,1.64c3.44,0,7.34-.36,10.43-.29-.29,1.05-1.45.87-2.33,1-2.45-.06-4.49.34-7,.23l-.12.11c2.39,2.86,6,4.73,7.34,8.11a.42.42,0,0,1-.4.17c-2.34-2.91-5.13-4.95-7.69-7.58-.24,4.14.46,8.16-.12,12.48a2.25,2.25,0,0,1-.76-1.4c0-4-.23-7.69-.35-11.66l-.75.82c-1.93,2.33-3,5.71-5.89,7.17l-.18-.07c.12-.93,1.29-1.39,1.64-2.32l3.78-5.43c-.87-.34-1.86,0-2.91,0-1.87-.23-3.79.18-5.66-.34-.17-.18-.52-.35-.34-.65,1.16-.4,2.39.18,3.84.06,1.87-.11,3.79-.06,5.83-.29a93.49,93.49,0,0,1-7-7.34c.29-.53.87-.06,1.16.17,2.1,2.16,4.08,4.32,6.41,6.3l.12-.23c-.23-3.73-.12-7.81-.35-11.31,1.28-.58.52,1.23.93,1.57"/><path class="cls-35" d="M260.3,157.74c.23,2.8.41,5.89.41,8.92l.35,0c1.51-2.46,3.5-4.32,5.18-6.65a.45.45,0,0,1,.47.17c-1.1,2.45-3.56,4.49-4.72,6.7-.41.58-1.05,1-1.28,1.64,3.44.05,7.34-.35,10.43-.29-.29,1-1.46.87-2.33,1-2.45-.06-4.49.35-7.06.23l-.11.12c2.39,2.85,6,4.72,7.34,8.1a.43.43,0,0,1-.4.17c-2.34-2.91-5.13-4.95-7.69-7.58-.24,4.14.46,8.17-.13,12.48a2.24,2.24,0,0,1-.75-1.4c0-4-.23-7.69-.35-11.66l-.76.82c-1.92,2.33-3,5.71-5.88,7.17l-.18-.07c.12-.93,1.28-1.39,1.63-2.32l3.79-5.43c-.87-.34-1.86,0-2.91,0-1.87-.23-3.79.18-5.66-.34-.17-.18-.52-.35-.34-.65,1.16-.4,2.39.18,3.84.06,1.86-.11,3.79-.06,5.83-.29a91.68,91.68,0,0,1-7-7.34c.29-.52.87-.06,1.16.17,2.1,2.16,4.08,4.32,6.41,6.3l.12-.23c-.24-3.73-.12-7.81-.35-11.31,1.28-.58.52,1.23.93,1.57"/><path class="cls-35" d="M1253.27,435.58c.24,2.79.41,5.88.41,8.91l.35-.05c1.52-2.46,3.5-4.32,5.19-6.65a.46.46,0,0,1,.47.17c-1.11,2.45-3.56,4.49-4.72,6.7a11.39,11.39,0,0,0-1.29,1.64c3.44.06,7.34-.35,10.43-.29-.29,1.05-1.45.87-2.33,1-2.44-.06-4.49.35-7,.23l-.11.12c2.38,2.85,6,4.72,7.33,8.1a.42.42,0,0,1-.4.17c-2.33-2.91-5.13-4.95-7.69-7.58-.23,4.14.47,8.17-.12,12.48a2.22,2.22,0,0,1-.76-1.4c0-4-.23-7.69-.34-11.66l-.76.82c-1.92,2.33-3,5.71-5.89,7.17l-.17-.07c.11-.93,1.28-1.39,1.63-2.32l3.79-5.43c-.87-.34-1.87,0-2.92,0-1.86-.23-3.79.18-5.66-.34-.17-.18-.52-.35-.34-.65,1.17-.4,2.39.18,3.84.06,1.87-.11,3.8-.06,5.83-.29a91.77,91.77,0,0,1-7-7.34c.29-.52.88-.06,1.16.18,2.11,2.15,4.08,4.31,6.42,6.29l.11-.23c-.23-3.73-.11-7.81-.35-11.3,1.29-.59.53,1.22.93,1.57"/></g></g></svg>