<?xml version="1.0" encoding="utf-8"?>
<!-- Generator: Adobe Illustrator 25.2.3, SVG Export Plug-In . SVG Version: 6.00 Build 0)  -->
<svg version="1.1" id="Layer_1" xmlns="http://www.w3.org/2000/svg" xmlns:xlink="http://www.w3.org/1999/xlink" x="0px" y="0px"
	 viewBox="0 0 600 570" style="enable-background:new 0 0 600 570;" xml:space="preserve">
<style type="text/css">
	.st0{fill:#EFEFEF;}
	.st1{clip-path:url(#SVGID_2_);}
	.st2{fill:url(#SVGID_3_);}
	.st3{fill:url(#SVGID_4_);}
	.st4{opacity:0.43;}
	.st5{fill:none;stroke:#FEFFEB;stroke-width:0.5;stroke-miterlimit:10;}
	.st6{fill:#426E72;}
	.st7{fill:#264547;}
	.st8{fill:#E5D2C1;}
	.st9{fill:#E8D75D;}
	.st10{fill:#DBDAD9;}
	.st11{fill:#C6B663;}
	.st12{opacity:0.15;fill:#EA3B48;enable-background:new    ;}
	.st13{fill:#CFCEDD;}
	.st14{fill:#DBD9ED;}
	.st15{fill:#EEEEFF;}
	.st16{fill:#FFFFFF;stroke:#DBD9ED;stroke-miterlimit:10;}
	.st17{fill:#A5A5A5;stroke:#767582;stroke-miterlimit:10;}
	.st18{fill:#B6B5C9;}
	.st19{fill:#FFD3CA;stroke:#D17D74;stroke-miterlimit:10;}
	.st20{fill:#EFC3BD;stroke:#D17D74;stroke-miterlimit:10;}
	.st21{fill:#D17D74;}
	.st22{fill:#EF8359;stroke:#323232;stroke-miterlimit:10;}
	.st23{fill:#224966;stroke:#323232;stroke-miterlimit:10;}
	.st24{fill:#CC6B4E;}
	.st25{opacity:0.15;enable-background:new    ;}
	.st26{opacity:0.18;fill:#6B1808;enable-background:new    ;}
	.st27{fill:#DB9D8E;}
	.st28{fill:#342517;}
	.st29{fill:#F9D1C6;}
	.st30{fill:#323232;}
	.st31{fill:#342516;}
	.st32{fill:#661E1B;}
	.st33{fill:#D26653;}
	.st34{fill:#FFFFFF;}
	.st35{fill:#F9988F;}
	.st36{fill:#F9F8F7;stroke:#7F430D;stroke-width:0.75;stroke-miterlimit:10;}
	.st37{fill:#FDEFEC;}
	.st38{opacity:0.25;fill:#FFFFFF;enable-background:new    ;}
	.st39{fill:#D0FCFC;}
	.st40{opacity:0.65;fill:#F8FFFF;enable-background:new    ;}
	.st41{opacity:0.69;fill:#D0FCFC;enable-background:new    ;}
	.st42{fill:#F3FFFF;}
	.st43{opacity:0.69;fill:#A7FCFA;enable-background:new    ;}
	.st44{fill:#C1E3EA;}
	.st45{fill:#D4F6FF;}
	.st46{fill:url(#SVGID_5_);}
	.st47{fill:url(#SVGID_6_);}
	.st48{fill:url(#SVGID_7_);}
	.st49{fill:url(#SVGID_8_);}
	.st50{fill:url(#SVGID_9_);}
	.st51{fill:url(#SVGID_10_);}
	.st52{fill:url(#SVGID_11_);}
	.st53{fill:url(#SVGID_12_);}
	.st54{fill:url(#SVGID_13_);}
	.st55{fill:url(#SVGID_14_);}
	.st56{fill:url(#SVGID_15_);}
	.st57{fill:url(#SVGID_16_);}
	.st58{fill:url(#SVGID_17_);}
	.st59{fill:url(#SVGID_18_);}
	.st60{fill:url(#SVGID_19_);}
	.st61{fill:url(#SVGID_20_);}
	.st62{fill:url(#SVGID_21_);}
	.st63{fill:url(#SVGID_22_);}
	.st64{fill:url(#SVGID_23_);}
	.st65{fill:url(#SVGID_24_);}
	.st66{fill:url(#SVGID_25_);}
	.st67{fill:url(#SVGID_26_);}
	.st68{fill:url(#SVGID_27_);}
	.st69{fill:url(#SVGID_28_);}
	.st70{fill:none;stroke:#206363;stroke-width:8;stroke-miterlimit:10;}
</style>
<path class="st0" d="M133,548.5h350c53.6,0,97-43.4,97-97v-333c-0.1-53.6-43.6-96.9-97.1-96.9c-2.9,0-5.8,0.1-8.7,0.4L108.1,55.5
	c-51.9,4.8-90.8,49.7-88,101.7l16,299.5C38.9,508.1,81.4,548.5,133,548.5z"/>
<g>
	<defs>
		<path id="SVGID_1_" d="M133,548.5h350c53.6,0,97-43.4,97-97v-333c-0.1-53.6-43.6-96.9-97.1-96.9c-2.9,0-5.8,0.1-8.7,0.4
			L108.1,55.5c-51.9,4.8-90.8,49.7-88,101.7l16,299.5C38.9,508.1,81.4,548.5,133,548.5z"/>
	</defs>
	<clipPath id="SVGID_2_">
		<use xlink:href="#SVGID_1_"  style="overflow:visible;"/>
	</clipPath>
	<g class="st1">
		
			<linearGradient id="SVGID_3_" gradientUnits="userSpaceOnUse" x1="846.5316" y1="1170.9495" x2="380.4615" y2="-189.3205" gradientTransform="matrix(1 0 0 -1 0 572)">
			<stop  offset="0" style="stop-color:#72EDED"/>
			<stop  offset="0.23" style="stop-color:#6FE9EA"/>
			<stop  offset="0.45" style="stop-color:#67DDE3"/>
			<stop  offset="0.68" style="stop-color:#58C9D6"/>
			<stop  offset="0.9" style="stop-color:#45ADC4"/>
			<stop  offset="0.99" style="stop-color:#3CA1BC"/>
		</linearGradient>
		<path class="st2" d="M-35.1-189.3c1.2,269.8,2.5,539.5,3.7,809.2l1199.1,7.4v-813L-35.1-189.3z"/>
		
			<linearGradient id="SVGID_4_" gradientUnits="userSpaceOnUse" x1="1204.1304" y1="824.8223" x2="-98.3565" y2="497.2807" gradientTransform="matrix(1 0 0 -1 0 572)">
			<stop  offset="2.000000e-02" style="stop-color:#72EDED"/>
			<stop  offset="0.26" style="stop-color:#6FE9EC"/>
			<stop  offset="0.5" style="stop-color:#67DDE7"/>
			<stop  offset="0.74" style="stop-color:#59C9E0"/>
			<stop  offset="0.98" style="stop-color:#45ADD6"/>
			<stop  offset="0.99" style="stop-color:#45ADD6"/>
		</linearGradient>
		<polyline class="st3" points="1219.3,-192.4 -38.8,-191.8 -38.8,311.4 1207.8,-191.8 		"/>
		<g class="st4">
			<polyline class="st5" points="-560.4,29.5 -48,84.1 1331.4,77.1 			"/>
			<polyline class="st5" points="-561.5,188.6 -34.7,202.2 1268.3,202.2 			"/>
			<polyline class="st5" points="-556.7,343.8 -556.7,363.5 -41.8,324.7 1304,323.8 			"/>
			<polyline class="st5" points="-553.3,532.5 -26.5,454.7 1237.8,454.7 			"/>
			<polyline class="st5" points="123.8,-189.3 123.8,579.3 -305.8,759.1 			"/>
			<polyline class="st5" points="320.1,-189.3 312.4,585.3 48.2,785.3 			"/>
			<polyline class="st5" points="514,-189.3 510.7,588.7 381.2,854 			"/>
		</g>
		<ellipse class="st6" cx="451.8" cy="124.1" rx="22.8" ry="22.3"/>
		<ellipse class="st7" cx="451.8" cy="124.1" rx="15.8" ry="15.4"/>
		<rect x="448.7" y="115.3" class="st8" width="239.9" height="16.7"/>
		<path class="st9" d="M482.1,116.6v124.3c-2,20.8-3.9,24.2,26.9,23.4s120.6,0.1,120.6,0.1s21,10.9,20.7-23.5
			c-0.4-33.8-10.8-115.3-5-124.3c1.3-7.7,5,0,5,0l-3.6-7.7H484.7C484.7,108.9,482.1,112.7,482.1,116.6z"/>
		<path class="st10" d="M482.1,235.9c0,0-13.7,36.3,24.5,28.5c38.2-0.3,121.2,0.1,121.2,0.1s26.1,10.5,22.5-28.6
			c-9.7,0-41.6,6.1-49.4,4.2s-42.2-3.4-49.8,0.8s-33.2-0.9-36.7-2.5S488.5,244.6,482.1,235.9z"/>
		<path class="st11" d="M548.2,108.9c0,0-70.1,22.8-66.1,58.7v-51l2.6-7.7L548.2,108.9z"/>
		<ellipse class="st12" cx="502.9" cy="168.2" rx="11.5" ry="10.5"/>
		<ellipse class="st12" cx="544.4" cy="192.2" rx="10.1" ry="9.2"/>
		<ellipse class="st12" cx="608.6" cy="177.4" rx="10.1" ry="9.2"/>
		<ellipse class="st12" cx="568.6" cy="158" rx="10.1" ry="9.2"/>
		<ellipse class="st12" cx="541.9" cy="128.7" rx="10.1" ry="9.2"/>
		<ellipse class="st12" cx="568.6" cy="219.8" rx="10.1" ry="9.2"/>
		<ellipse class="st12" cx="505" cy="219.8" rx="10.1" ry="9.2"/>
		<path class="st13" d="M433.5,641.9h-82.9V477.9c0,0,28.2,0.9,37.6,0.7c12.8-0.2,44.9-2,44.9-2L433.5,641.9z"/>
		<path class="st14" d="M479.1,374.9H204.7c0,1-0.1,2-0.2,3.1c-5.3,80.6,109,115.4,249.5,95.8c8.7-1.1,17.1-3.5,25.1-7.1V374.9z"/>
		<path class="st14" d="M288.3,374.9h274.4c0,1,0.1,2,0.2,3.1c5.3,80.6-109,115.4-249.5,95.8c-8.7-1.1-17.1-3.5-25.1-7.1
			L288.3,374.9z"/>
		<path class="st15" d="M409.2,302.3l15.6,1.1l-2.4,27.8l-15.6-1c-8.6-0.6-15.1-7.3-14.4-15S400.5,301.7,409.2,302.3z"/>
		<path class="st15" d="M408,316.2c-0.6,7.7,5.8,14.4,14.4,15s16.1-5.2,16.8-12.9s-5.8-14.4-14.4-15S408.6,308.5,408,316.2z"/>
		<path class="st15" d="M427.1,340.6c4.2,0,7.8-3,8-6.8c0.1-1.8,1.6-92.9,1.7-95.2c1.1-18.1-6.9-33.4-21.9-42.1
			c-13.7-8-31.4-9.1-45.1-2.9c-12.2,5.3-20.3,17-20.8,30.3c-0.2,4,3.2,7.3,7.6,7.6c4.7,0.1,8.2-2.8,8.5-6.8
			c0.5-8.6,4.7-14.9,12-18.2c8.6-3.9,20-3.1,29,2.1c10.2,5.9,15.4,16.4,14.6,29.3c-0.1,2.3-1.6,93.4-1.7,95.1
			c-0.3,4,3.1,7.4,7.5,7.6L427.1,340.6z"/>
		<path class="st16" d="M409.2,302.3l15.6,1.1l-2.4,27.8l-15.6-1c-8.6-0.6-15.1-7.3-14.4-15S400.5,301.7,409.2,302.3z"/>
		<path class="st14" d="M408,316.2c-0.6,7.7,5.8,14.4,14.4,15s16.1-5.2,16.8-12.9s-5.8-14.4-14.4-15S408.6,308.5,408,316.2z"/>
		<path class="st17" d="M427.1,340.6c4.2,0,7.8-3,8-6.8c0.1-1.8,1.6-92.9,1.7-95.2c1.1-18.1-6.9-33.4-21.9-42.1
			c-13.7-8-31.4-9.1-45.1-2.9c-12.2,5.3-20.3,17-20.8,30.3c-0.2,4,3.2,7.3,7.6,7.6c4.7,0.1,8.2-2.8,8.5-6.8
			c0.5-8.6,4.7-14.9,12-18.2c8.6-3.9,20-3.1,29,2.1c10.2,5.9,15.4,16.4,14.6,29.3c-0.1,2.3-1.6,93.4-1.7,95.1
			c-0.3,4,3.1,7.4,7.5,7.6L427.1,340.6z"/>
		<ellipse class="st15" cx="383.7" cy="372.8" rx="179.3" ry="43"/>
		<path class="st18" d="M224.5,371.9c0,18,70,32.6,156.3,32.6s156.3-14.6,156.3-32.6s-70-32.6-156.3-32.6S224.5,353.9,224.5,371.9z"
			/>
		<path class="st19" d="M295.5,373.3l-43.7-25l17.4-25c0,0,38.5,33.9,39.1,34.6L295.5,373.3z"/>
		<path class="st20" d="M291.5,380.1c0.1,1.9,4.9,16.8,5.5,17.4s10.1,5,8.2-8l-0.4-3.3c0,0,20.3,14.7,28.8,13.7c4.5-0.5-2-6.9-2-6.9
			s3.6,3.6,3-8.3S320,363.8,320,363.8S290.7,361.7,291.5,380.1z"/>
		<path class="st21" d="M334.4,396.7c-0.6-0.9-1.4-1.8-2.2-2.5c-0.8-0.8-1.7-1.5-2.5-2.2c-1.8-1.4-3.6-2.7-5.4-4l-5.5-4l-2.8-2
			l-2.7-2c1,0.5,2,1.1,3,1.6l2.9,1.7c1.9,1.2,3.8,2.5,5.7,3.8c1.8,1.3,3.6,2.8,5.3,4.3C331.8,392.9,333.3,394.7,334.4,396.7z"/>
		<path class="st21" d="M313.8,392.3c-2.6-1-5.1-2.4-7.3-4.2c-2.2-1.7-4.3-3.6-6.1-5.8c2.3,1.6,4.5,3.3,6.7,5
			S311.5,390.6,313.8,392.3z"/>
		<path class="st21" d="M334.4,390c-0.2-0.5-0.4-1-0.6-1.5c-0.2-0.5-0.5-1-0.7-1.5c-0.2-0.5-0.5-0.9-0.8-1.4
			c-0.3-0.5-0.6-0.9-0.9-1.3c-1.3-1.7-2.8-3.3-4.3-4.8c-1.5-1.5-3.2-2.9-4.9-4.3c-0.9-0.7-1.7-1.4-2.6-2s-1.8-1.3-2.6-1.9
			c2,0.9,3.9,2.1,5.7,3.3c1.8,1.2,3.6,2.6,5.1,4.1c1.6,1.5,3.1,3.2,4.3,5.1C333.3,385.7,334.1,387.8,334.4,390z"/>
		<path class="st22" d="M261.3,366.9c-12.7,3.2-20.7-3.6-30.7-14.4c-1-25.4,17.4-49.8,18.8-48.7c19.1,15.5,29.4,28.2,34.9,32.7
			C282.5,343,268.3,360.9,261.3,366.9z"/>
		<path class="st23" d="M237.6,594.7c-6.6,1.3-39.4,3.5-48.4,2.4c-1.3-19-5.8-98.2-9-124.6c-1.2-9.8-9-8.4-9.3,0.2
			c-0.1,4.3-5,92.3-5.5,124.2c-13.3,2.3-36.5,2.6-48.8,0.4c0,0-6.9-176.3-4.1-202c23.2-1.3,101.5,3.3,126.1,7.6
			C241.2,429.8,238.7,556,237.6,594.7z"/>
		<path class="st22" d="M248.5,337.7c-3.8,36.4-8.4,81.1-7.9,122.4c-38.5,12.6-95,18.6-132.2-9.9c0,0-0.1-146.3,41.8-165.6
			c50.3-7,77.2,7.6,100.5,20.2"/>
		<path class="st24" d="M237,302.4c0.4-1.1,0.6-2.2,0.5-3.4c-15.1-7-43.1-12.7-62-15.2c-0.4,0.7-0.7,1.4-1,2.1
			c-3.4,12.9,7.8,27.1,25,31.7S233.5,315.3,237,302.4z"/>
		<path class="st25" d="M288,362.3c-24.3-6.7-59.1-22.9-70-28.9c-8.4-4.6-33.1-18.4-63.4-42.2c-21.1,8.3-30.4,40.9-9.2,62.7
			c9.6,9.9,29.4,27,37.4,32.4c3-3.6,9-9.4,12.9-14.3c17.5,9.7,65.1,14.4,95.1,15.4C292.8,387.4,290.4,363,288,362.3z"/>
		<path class="st19" d="M290.9,387.3c1.9,0.1-0.5-24.4-2.9-25c-24.3-6.7-44.4-12.8-69.1-22.9c-4.3-1.8-22-18.1-25.1-17.8
			c-8.9,7.1-18.7,13.6-29.3,24c15.2,14.3,29,22.2,35.5,24.9C211.9,375.3,260.9,386.4,290.9,387.3z"/>
		<path class="st19" d="M275.4,358.6l11.8,2.5c0,0,5.8-8.4,12.9-13.6s9.5-3.7,15.2-8.3s1.6,5.4,1.1,6.8c0,0,8.7-1.5,12.2-0.3
			s6.3,0.9,10.3,17.1c0,0,4.9,9.7-0.2,9.6c-0.1,0.1-0.1,0.3-0.1,0.4c-0.3,2.5,3.8,9.2-4.7,7.8c2.5,0.2-17.4-7.1-17.4-7.1
			s-6.5,7.7-27,14.9l-29.2-4.3"/>
		<path class="st21" d="M338.3,373.3c-1.1-1.5-2.6-2.8-4.2-3.7c-1.6-0.9-3.3-1.8-5.1-2.5c-1.8-0.8-3.5-1.4-5.4-2.1l-5.5-1.9
			c3.8,0.5,7.6,1.6,11.2,3.1c1.8,0.7,3.5,1.7,5.1,2.8C336.2,370,337.5,371.5,338.3,373.3z"/>
		<path class="st21" d="M338.4,363.3c-1.1-1.6-2.6-2.8-4.3-3.7c-1.7-1-3.4-1.8-5.1-2.5c-1.8-0.8-3.5-1.4-5.3-2.1l-5.4-1.9
			c3.8,0.5,7.6,1.6,11.2,3.1c1.8,0.7,3.5,1.7,5.1,2.8C336.3,359.9,337.6,361.4,338.4,363.3z"/>
		<path class="st22" d="M171.2,302.5c21.1,16.9,40.8,29.7,44.2,32.3c-6.2,11.1-23.7,33.4-33.4,45c-12.5-8.7-24.5-18.1-36-28
			c-30-26.9-16.8-59,4.3-67.3"/>
		<path class="st19" d="M236.2,264.5l-9,38.3c-1.9,8.2-14,12.4-26.9,9.4s-21.8-12.2-19.8-20.4l9-38.3L236.2,264.5z"/>
		<path class="st26" d="M234.7,269.1c-15.4-2.9-32.6-5.5-46.3-6.5c-0.4,0.7-0.6,1.5-0.9,2.2c-2.8,13.8,9.8,28.1,28.2,31.8
			c4,0.8,8.2,1.1,12.3,0.7L234.7,269.1z"/>
		<path class="st19" d="M292.7,244.2c-7.6,9.8-19.8,12.2-27.9,6.4s-3.6-11.2,4.1-21s7.6-8.5,17.5-11
			C308,213.3,300.4,234.4,292.7,244.2z"/>
		<path class="st27" d="M288.8,224c1.5-0.3,3,0.2,4.2,1.2c1.4,1.4,1.1,3.6,0.6,5.5c-1.9,6.5-6.6,12-12.2,16.1
			c-0.9,0.7-1.9,1.2-3,1.5c-1.1,0.3-2.3,0-3.1-0.9c-0.7-1.1-0.7-2.4,0-3.5c1.4-2.8,4.7-4.2,7.4-5.9c0.8-0.4,1.5-1,2-1.7
			c0.5-0.7,0.6-1.6,0.2-2.4c-0.4-0.6-1-1-1.7-1.1c-1.4-0.4-2.8-0.7-4.2-0.8c-0.2-2.1,1.9-3.6,3.4-4.8
			C284.1,225.5,286.4,224.4,288.8,224z"/>
		<path class="st19" d="M283.7,170c-31.8-27.2,20.8-44.7-26.9-52.9c-46.3-7.9-77.5,10.3-86.1,50.3c-4,18.5-1.6,39-1.9,40
			c-13.5,46.1,21.3,76.8,49.3,81.6c12.3,2.1,26-1.5,38.4-8c15.1-8,28.3-22,34.4-55C291.2,225,310.3,192.7,283.7,170z"/>
		<path class="st27" d="M203.1,153.3c0,0,7.4,15.5,59.3,24.5l-0.2-7.1c0,0,1.3,10.1,30.5,20.7l-2,37.6l22.5-75.1l-107.9-28.1
			l-19.9,14l-3,20.7c0,0-18.1,39.3-18.9,53.5l2.2-2c8.2-7.5,14.6-16.7,18.9-27l0,0C184.6,184.9,194.4,191.1,203.1,153.3z"/>
		<path class="st28" d="M200.8,142.4c0,0-8.3,15.1,60.5,31.3c0,0-1.6-1.1-4.7-18.3c4.2,21.2,22.1,25,34.6,31.4l9.4-19.2l-9.8,61.4
			c0,0,9.9-16.6,13.1-23.8c0,0,10.3-19.9,9.5-34.1c1,4.5,1.6,9.1,1.8,13.7c0,0,17.9-30.8-20.6-65.9c0,0,9.2-0.6,18.9,6.6
			c0,0-15.5-26.1-56.2-35.1c-21.3-4.7-37.3-8.4-51,10.5c0,0-21.9-22.4-39.6,7.2c0,0,20-5.9,23.7,2.4c0,0-21.9-1.1-33,28.2
			c-10.5,27.7-6.9,49.8,4.4,74c0,0,19.4-14.4,20.8-40.6l4.1,10.8C186.4,183,199.3,177.4,200.8,142.4z"/>
		<path class="st19" d="M166.8,232.5c-11.7,7.1-21.3-2.4-23.4-14.1s0.1-33.8,14.9-21.5c5.5,3.6,9.1,9.5,9.7,16.1"/>
		<path class="st27" d="M154.3,201c-1.1-0.8-2.5-0.9-3.7-0.4c-1.6,0.8-2.3,3-2.6,4.9c-0.9,6.5,0.2,13.2,3.2,19.1
			c0.4,0.9,1,1.8,1.7,2.5c0.8,0.7,1.9,0.8,2.8,0.3c1-0.8,1.5-2,1.4-3.2c0-3.1-2-5.5-3.5-8c-0.4-0.7-0.7-1.4-0.9-2.3
			c-0.1-0.9,0.2-1.7,0.8-2.3c0.5-0.4,1.1-0.5,1.8-0.5c1.2,0.1,2.4,0.3,3.6,0.7c1-1.9-0.1-4-0.8-5.6
			C157.5,204.1,156.1,202.3,154.3,201z"/>
		<path class="st29" d="M235.5,236.7c7.8,9.3,17,3,17.6-0.9c0,0,1-4.1-3-8.6s-0.7-15.7-0.7-15.7"/>
		<path class="st30" d="M235.5,236.6c1.2,1.4,2.6,2.5,4.1,3.4c1.5,0.9,3.3,1.3,5.1,1.2c1.7-0.1,3.4-0.6,4.9-1.6
			c0.7-0.5,1.4-1.1,1.9-1.7c0.5-0.6,0.9-1.4,1.1-2.2l0,0c0.1-1,0.1-2-0.2-3c-0.2-1-0.6-1.9-1.1-2.8c-0.5-0.9-1.1-1.7-1.8-2.5
			c-0.7-0.9-1.2-2-1.4-3.1c-0.5-2.1-0.5-4.4-0.2-6.5c0.3-2.1,0.8-4.3,1.4-6.3h0.1c-0.5,2.1-0.8,4.2-0.9,6.3c-0.2,2.1,0,4.2,0.5,6.2
			c0.3,1,0.7,1.9,1.4,2.7c0.7,0.8,1.4,1.7,1.9,2.7c1.1,2,1.6,4.3,1.2,6.5l0,0c-0.2,1-0.7,1.8-1.3,2.5c-0.6,0.7-1.3,1.3-2.1,1.8
			c-1.6,1-3.4,1.5-5.3,1.5c-1.8,0-3.7-0.5-5.2-1.5c-1.6-0.9-2.9-2.2-4.1-3.6L235.5,236.6z"/>
		<path class="st31" d="M231.9,181.8c0,0,0.8-4-5.6-4.8s-15.8,4.8-17,9.2C209.3,186.1,223.2,178.3,231.9,181.8z"/>
		<path class="st31" d="M256.1,188.2c1.3-2.3,4-3.4,6.6-2.7c4.8,0.9,10.2,7.2,10,10.6C272.7,196.1,263.2,187.8,256.1,188.2z"/>
		<path class="st32" d="M208.5,243.6c1.5,5.5,6.4,23.1,18.9,27.8c7.5,2.8,12.8-2.6,17.6-6.4c1.2-1,2.4-2,3.6-3l0,0l1.8-1.6
			c1.6-1.4,3.2-2.6,5-3.7l0,0c0.4-0.3,0.8-0.5,1.3-0.7c0.2-0.1,0.3-0.2,0.5-0.3c0,0-12.9,3.9-45-11.7l-2.6-1.5l-1-0.6l-0.6-0.3
			C208,241.5,208.1,242.3,208.5,243.6z"/>
		<path class="st33" d="M240.5,266.7c-1.7-2.2-4.3-3.5-7.1-3.6c-4-1.9-8.6-2.3-12.9-0.9C220.5,262.2,229.6,272,240.5,266.7z"/>
		<path class="st34" d="M208.6,241.8c12,17.3,26,20.9,34.3,20.4c3.6-0.2,4.8-6,10.3-5c1.2-0.3,2.4-0.7,3.5-1.3
			c0.2-0.1,0.3-0.2,0.5-0.3c0,0-12.9,3.9-45-11.7l-2.6-1.5L208.6,241.8z"/>
		<path class="st35" d="M208.5,243.6c1.5,5.5,6.4,23.1,18.9,27.8c7.5,2.8,12.8-2.6,17.6-6.4C229.9,272.6,219.9,267.3,208.5,243.6z"
			/>
		<path class="st35" d="M209.6,242.4c22.5,18.4,39.2,16.2,45.8,14.2l0,0h0.1c0.4-0.2,0.7-0.5,1.1-0.7c0.2-0.1,0.3-0.2,0.5-0.3
			c0,0-12.9,3.9-45-11.7L209.6,242.4z"/>
		<path class="st33" d="M210.3,239.7c0,0-4.3-0.4-3.5,4.4C206.7,244.1,205.4,237.7,210.3,239.7z"/>
		<path class="st33" d="M256.7,254c0,0,2.3,1.3-0.1,4.3C256.6,258.3,260.2,255.6,256.7,254z"/>
		<ellipse transform="matrix(0.1182 -0.993 0.993 0.1182 -10.1745 400.6108)" class="st36" cx="220.5" cy="206" rx="13" ry="11.7"/>
		<ellipse transform="matrix(0.1182 -0.993 0.993 0.1182 -14.4197 406.0789)" class="st31" cx="221.4" cy="211.2" rx="8" ry="7.4"/>
		<ellipse class="st37" cx="217.2" cy="207" rx="1.4" ry="1.4"/>
		
			<ellipse transform="matrix(0.1181 -0.993 0.993 0.1181 19.5076 446.7516)" class="st36" cx="261.3" cy="212.4" rx="13" ry="10.7"/>
		<ellipse transform="matrix(0.1181 -0.993 0.993 0.1181 15.0512 451.948)" class="st31" cx="262" cy="217.5" rx="8" ry="6.9"/>
		
			<ellipse transform="matrix(0.1182 -0.993 0.993 0.1182 15.7505 444.5347)" class="st37" cx="258.2" cy="213.4" rx="1.4" ry="1.3"/>
		<path class="st38" d="M294.5,399.1c14.3,2.9,86.8,13.9,113.9,4.9c-0.6-1.4-45-176.8-45-176.8c-1.6,3.5-5.4,5.4-9.1,4.6
			c-4.3-0.8-5.5-5.8-5.5-5.8L294.5,399.1z"/>
		<path class="st39" d="M381.4,390.9c0,1.6,1.7,2.9,3.9,2.9s3.9-1.3,3.9-2.9s-1.7-2.9-3.9-2.9S381.4,389.3,381.4,390.9z"/>
		<ellipse class="st40" cx="479.9" cy="368.4" rx="5.4" ry="4"/>
		<ellipse class="st41" cx="475.3" cy="344.2" rx="12.4" ry="9.1"/>
		<ellipse class="st40" cx="500.5" cy="376.1" rx="5.4" ry="4"/>
		<path class="st42" d="M414.3,382.6c0,1.6,1.7,2.9,3.9,2.9s3.9-1.3,3.9-2.9s-1.7-2.9-3.9-2.9S414.3,381,414.3,382.6z"/>
		<path class="st42" d="M425.8,388.9c0,2.5,2.9,4.5,6.4,4.5s6.4-2,6.4-4.5s-2.9-4.5-6.4-4.5S425.8,386.4,425.8,388.9z"/>
		<path class="st43" d="M294.5,399.1c66.8,7,86.6,6.1,113.9,4.9c-0.6-1.4-44-177.7-44-177.7c-1.6,3.5-5.4,5.4-9.1,4.6
			c-4.4-0.8-5.5-5.9-5.5-5.9L294.5,399.1z"/>
		<path class="st44" d="M330.4,365c4.1-1.8,8.8,0.1,10.5,4.2c1.1,2.6,0.8,5.7-0.9,8c1,0.7,1.8,1.7,2.2,2.8c1.4,3.5-0.3,7.5-3.8,8.9
			s-7.5-0.3-8.9-3.8c-0.3-0.7-0.4-1.4-0.5-2.2c-0.2,0.1-0.3,0.2-0.5,0.2c-3.8,1.8-8.4,0.2-10.2-3.7c-1.8-3.8-0.2-8.4,3.7-10.2
			c0.2-0.1,0.5-0.2,0.7-0.3c1.2-0.5,2.4-0.7,3.7-0.5C327.3,366.9,328.7,365.7,330.4,365z"/>
		<path class="st45" d="M330.9,366.9c3.8-1.6,8.2,0.2,9.8,4c1,2.4,0.7,5.2-0.8,7.3c0.9,0.7,1.6,1.6,2.1,2.6c1.3,3.3-0.2,7-3.5,8.3
			s-7-0.2-8.3-3.5c-0.3-0.6-0.4-1.3-0.4-2l-0.5,0.2c-3.6,1.5-7.8-0.2-9.3-3.9c-1.5-3.6,0.2-7.8,3.9-9.3c1.1-0.4,2.3-0.6,3.4-0.5
			C328,368.7,329.3,367.5,330.9,366.9z"/>
		
			<linearGradient id="SVGID_5_" gradientUnits="userSpaceOnUse" x1="28.9301" y1="422.4403" x2="35.7201" y2="422.4403" gradientTransform="matrix(-0.38 -0.93 0.93 -0.38 -45.51 561.52)">
			<stop  offset="1.000000e-02" style="stop-color:#D4F6FF"/>
			<stop  offset="1" style="stop-color:#FFFFFF"/>
		</linearGradient>
		<path class="st46" d="M334,368.3c-1.7,0.7-2.6,2.7-1.9,4.4c0.7,1.7,2.7,2.6,4.4,1.9c1.7-0.7,2.6-2.7,1.9-4.4c0,0,0,0,0,0
			C337.7,368.4,335.7,367.6,334,368.3C334,368.3,334,368.3,334,368.3z"/>
		
			<linearGradient id="SVGID_6_" gradientUnits="userSpaceOnUse" x1="28.9301" y1="409.8282" x2="34.9201" y2="409.8282" gradientTransform="matrix(-0.38 -0.93 0.93 -0.38 -45.51 561.52)">
			<stop  offset="1.000000e-02" style="stop-color:#D4F6FF"/>
			<stop  offset="1" style="stop-color:#FFFFFF"/>
		</linearGradient>
		<path class="st47" d="M322.6,373.8c-1.5,0.6-2.3,2.4-1.6,3.9s2.4,2.3,3.9,1.6c1.5-0.6,2.3-2.4,1.6-3.9c0,0,0,0,0,0
			C325.9,373.9,324.1,373.2,322.6,373.8z"/>
		
			<linearGradient id="SVGID_7_" gradientUnits="userSpaceOnUse" x1="16.6801" y1="418.8032" x2="24.1101" y2="418.8032" gradientTransform="matrix(-0.38 -0.93 0.93 -0.38 -45.51 561.52)">
			<stop  offset="1.000000e-02" style="stop-color:#D4F6FF"/>
			<stop  offset="1" style="stop-color:#FFFFFF"/>
		</linearGradient>
		<path class="st48" d="M335,380.4c-1.9,0.8-2.8,3-2,4.9c0.8,1.9,3,2.8,4.9,2c1.9-0.8,2.8-3,2-4.9c0,0,0,0,0,0
			C339.1,380.5,336.9,379.7,335,380.4z"/>
		<path class="st44" d="M318.4,357.3c3.1-1.3,6.7,0.2,8,3.4c0.8,1.9,0.5,4.1-0.7,5.9c0.8,0.5,1.3,1.3,1.7,2.1c1,2.7-0.4,5.7-3.1,6.7
			c-2.6,0.9-5.4-0.3-6.5-2.8c-0.2-0.5-0.3-1.1-0.4-1.7l-0.4,0.2c-3,1.2-6.4-0.2-7.6-3.2s0.2-6.4,3.2-7.6c0.9-0.4,1.8-0.5,2.8-0.4
			C316.1,358.7,317.1,357.8,318.4,357.3z"/>
		<path class="st45" d="M318.8,358.8c2.9-1.2,6.3,0.2,7.5,3.1c0.7,1.8,0.5,3.9-0.6,5.5c0.7,0.5,1.3,1.2,1.6,2c0.9,2.5-0.5,5.3-3,6.2
			c-2.3,0.8-4.9-0.3-6-2.5c-0.2-0.5-0.3-1-0.3-1.6l-0.4,0.2c-2.8,1.1-6-0.2-7.1-3c-1.1-2.8,0.2-6,3-7.1c0.8-0.3,1.8-0.5,2.7-0.4
			C316.6,360.1,317.6,359.3,318.8,358.8z"/>
		
			<linearGradient id="SVGID_8_" gradientUnits="userSpaceOnUse" x1="43.2301" y1="413.7803" x2="48.4101" y2="413.7803" gradientTransform="matrix(-0.38 -0.93 0.93 -0.38 -45.51 561.52)">
			<stop  offset="1.000000e-02" style="stop-color:#D4F6FF"/>
			<stop  offset="1" style="stop-color:#FFFFFF"/>
		</linearGradient>
		<path class="st49" d="M321.1,359.8c-1.3,0.5-2,2.1-1.4,3.4c0.5,1.3,2.1,2,3.4,1.4c1.3-0.5,2-2.1,1.4-3.4
			C324,359.9,322.5,359.3,321.1,359.8z"/>
		
			<linearGradient id="SVGID_9_" gradientUnits="userSpaceOnUse" x1="43.2301" y1="404.1691" x2="47.8001" y2="404.1691" gradientTransform="matrix(-0.38 -0.93 0.93 -0.38 -45.51 561.52)">
			<stop  offset="1.000000e-02" style="stop-color:#D4F6FF"/>
			<stop  offset="1" style="stop-color:#FFFFFF"/>
		</linearGradient>
		<path class="st50" d="M312.4,364c-1.2,0.5-1.7,1.8-1.2,3s1.8,1.7,3,1.2c1.2-0.5,1.7-1.8,1.2-3C314.9,364.1,313.6,363.6,312.4,364
			C312.4,364,312.4,364,312.4,364z"/>
		
			<linearGradient id="SVGID_10_" gradientUnits="userSpaceOnUse" x1="33.8801" y1="410.9568" x2="39.5501" y2="410.9568" gradientTransform="matrix(-0.38 -0.93 0.93 -0.38 -45.51 561.52)">
			<stop  offset="1.000000e-02" style="stop-color:#D4F6FF"/>
			<stop  offset="1" style="stop-color:#FFFFFF"/>
		</linearGradient>
		<path class="st51" d="M321.9,369.1c-1.4,0.6-2.1,2.2-1.6,3.7c0.6,1.4,2.2,2.1,3.7,1.6c1.4-0.6,2.1-2.2,1.6-3.7
			C325,369.2,323.3,368.5,321.9,369.1z"/>
		<path class="st44" d="M309.3,359.4c-0.7-3.9-4.5-6.4-8.4-5.6c-2.4,0.5-4.4,2.1-5.3,4.4c-1-0.4-2.1-0.5-3.2-0.3
			c-3.3,0.8-5.3,4-4.5,7.3c0.7,3.1,3.7,5.1,6.8,4.6c0.7-0.1,1.3-0.4,1.9-0.7c0,0.2,0,0.3,0.1,0.5c0.7,3.7,4.3,6,8,5.3
			c3.7-0.7,6-4.3,5.3-8c-0.2-1.1-0.7-2.1-1.4-2.9C309.4,362.6,309.6,361,309.3,359.4z"/>
		<path class="st45" d="M307.6,360c-0.7-3.6-4.2-6-7.8-5.3c-2.2,0.4-4.1,2-4.9,4.1c-0.9-0.4-2-0.5-3-0.3c-3,0.7-5,3.7-4.3,6.7
			c0.6,2.9,3.5,4.9,6.5,4.4c0.6-0.1,1.2-0.3,1.7-0.7c0,0.2,0,0.3,0.1,0.5c0.6,3.4,3.9,5.7,7.3,5.1c3.4-0.6,5.7-3.9,5.1-7.3
			c0-0.1,0-0.1,0-0.2c-0.2-1-0.6-2-1.3-2.8C307.7,363,307.9,361.5,307.6,360z"/>
		
			<linearGradient id="SVGID_11_" gradientUnits="userSpaceOnUse" x1="5.0038" y1="433.8472" x2="11.0143" y2="433.8472" gradientTransform="matrix(0.98 -0.19 -0.19 -0.98 376.77 785.6)">
			<stop  offset="1.000000e-02" style="stop-color:#D4F6FF"/>
			<stop  offset="1" style="stop-color:#FFFFFF"/>
		</linearGradient>
		<path class="st52" d="M305.1,358.4c0.3,1.6-0.8,3.2-2.4,3.5c-1.6,0.3-3.2-0.8-3.5-2.4c-0.3-1.6,0.7-3.2,2.4-3.5
			C303.2,355.7,304.8,356.7,305.1,358.4C305.1,358.3,305.1,358.3,305.1,358.4z"/>
		
			<linearGradient id="SVGID_12_" gradientUnits="userSpaceOnUse" x1="4.9938" y1="422.6044" x2="10.3031" y2="422.6044" gradientTransform="matrix(0.98 -0.19 -0.19 -0.98 376.77 785.6)">
			<stop  offset="1.000000e-02" style="stop-color:#D4F6FF"/>
			<stop  offset="1" style="stop-color:#FFFFFF"/>
		</linearGradient>
		<path class="st53" d="M306.5,369.5c0.3,1.4-0.7,2.8-2.1,3.1c-1.4,0.3-2.8-0.7-3.1-2.1c-0.3-1.4,0.7-2.8,2.1-3.1
			C304.9,367.1,306.3,368.1,306.5,369.5z"/>
		
			<linearGradient id="SVGID_13_" gradientUnits="userSpaceOnUse" x1="-5.8462" y1="430.5572" x2="0.7338" y2="430.5572" gradientTransform="matrix(0.98 -0.19 -0.19 -0.98 376.77 785.6)">
			<stop  offset="1.000000e-02" style="stop-color:#D4F6FF"/>
			<stop  offset="1" style="stop-color:#FFFFFF"/>
		</linearGradient>
		<path class="st54" d="M295.6,363.5c0.3,1.8-0.8,3.5-2.6,3.9c-1.8,0.3-3.5-0.8-3.9-2.6c-0.3-1.8,0.8-3.5,2.6-3.8
			C293.6,360.6,295.3,361.7,295.6,363.5C295.6,363.5,295.6,363.5,295.6,363.5z"/>
		<path class="st44" d="M320.8,364.6c-0.6-3-3.4-4.9-6.4-4.3c-1.8,0.4-3.4,1.6-4,3.4c-0.8-0.3-1.6-0.4-2.4-0.2
			c-2.5,0.6-4,3.1-3.4,5.6c0.6,2.3,2.8,3.8,5.2,3.5c0.5-0.1,1-0.3,1.4-0.5l0.1,0.4c0.5,2.8,3.3,4.6,6.1,4.1c2.8-0.5,4.6-3.3,4.1-6.1
			c-0.2-0.8-0.5-1.6-1.1-2.3C320.9,367,321,365.8,320.8,364.6z"/>
		<path class="st45" d="M319.5,365c-0.5-2.8-3.2-4.6-5.9-4c-1.7,0.3-3.2,1.5-3.8,3.2c-0.7-0.3-1.5-0.4-2.2-0.2
			c-2.3,0.5-3.9,2.7-3.4,5c0.5,2.3,2.7,3.9,5,3.4c0.5-0.1,0.9-0.3,1.3-0.5l0.1,0.4c0.5,2.6,3,4.3,5.6,3.8s4.3-3,3.8-5.6l0,0
			c-0.2-0.8-0.5-1.5-1-2.1C319.6,367.3,319.8,366.1,319.5,365z"/>
		
			<linearGradient id="SVGID_14_" gradientUnits="userSpaceOnUse" x1="17.6638" y1="426.1062" x2="22.2438" y2="426.1062" gradientTransform="matrix(0.98 -0.19 -0.19 -0.98 376.77 785.6)">
			<stop  offset="1.000000e-02" style="stop-color:#D4F6FF"/>
			<stop  offset="1" style="stop-color:#FFFFFF"/>
		</linearGradient>
		<path class="st55" d="M317.6,363.8c0.2,1.2-0.6,2.5-1.8,2.7c-1.2,0.2-2.5-0.6-2.7-1.8c-0.2-1.2,0.6-2.5,1.8-2.7c0,0,0,0,0,0
			C316.2,361.7,317.4,362.5,317.6,363.8z"/>
		
			<linearGradient id="SVGID_15_" gradientUnits="userSpaceOnUse" x1="17.6638" y1="417.5526" x2="21.7038" y2="417.5526" gradientTransform="matrix(0.98 -0.19 -0.19 -0.98 376.77 785.6)">
			<stop  offset="1.000000e-02" style="stop-color:#D4F6FF"/>
			<stop  offset="1" style="stop-color:#FFFFFF"/>
		</linearGradient>
		<path class="st56" d="M318.7,372.3c0.2,1.1-0.5,2.1-1.6,2.3c-1.1,0.2-2.1-0.5-2.3-1.6c-0.2-1.1,0.5-2.1,1.6-2.3
			C317.4,370.5,318.5,371.2,318.7,372.3C318.7,372.3,318.7,372.3,318.7,372.3z"/>
		
			<linearGradient id="SVGID_16_" gradientUnits="userSpaceOnUse" x1="9.3838" y1="423.6145" x2="14.4038" y2="423.6145" gradientTransform="matrix(0.98 -0.19 -0.19 -0.98 376.77 785.6)">
			<stop  offset="1.000000e-02" style="stop-color:#D4F6FF"/>
			<stop  offset="1" style="stop-color:#FFFFFF"/>
		</linearGradient>
		<path class="st57" d="M310.4,367.7c0.3,1.4-0.6,2.7-2,2.9c-1.4,0.3-2.7-0.6-2.9-2c-0.3-1.4,0.6-2.7,2-2.9
			C308.8,365.5,310.1,366.4,310.4,367.7C310.4,367.7,310.4,367.7,310.4,367.7z"/>
		<path class="st44" d="M345.9,347.3c4,0.3,7,3.8,6.7,7.8c-0.2,2.5-1.6,4.7-3.8,5.9c0.5,1,0.7,2.1,0.7,3.2c-0.3,3.4-3.2,5.9-6.6,5.7
			s-5.9-3.2-5.7-6.6l0,0c0-0.7,0.2-1.4,0.5-2h-0.5c-3.8-0.3-6.7-3.6-6.4-7.4c0.3-3.8,3.6-6.7,7.4-6.4c1.1,0.1,2.2,0.4,3.2,1.1
			C342.6,347.6,344.2,347.1,345.9,347.3z"/>
		<path class="st45" d="M345.5,349c3.7,0.3,6.5,3.5,6.2,7.3c-0.2,2.3-1.5,4.4-3.6,5.5c0.5,0.9,0.7,1.9,0.6,3
			c-0.4,3.2-3.2,5.4-6.4,5.1c-3-0.3-5.2-2.9-5.1-5.9c0.1-0.6,0.2-1.3,0.5-1.8h-0.5c-3.5-0.3-6.2-3.4-5.9-6.9s3.4-6.2,6.9-5.9
			c1.1,0.1,2.1,0.4,3,1C342.5,349.3,344,348.9,345.5,349z"/>
		
			<linearGradient id="SVGID_17_" gradientUnits="userSpaceOnUse" x1="-200.493" y1="1091.1664" x2="-194.363" y2="1091.1664" gradientTransform="matrix(8.000000e-02 -1 1 8.000000e-02 -728.32 71.81)">
			<stop  offset="1.000000e-02" style="stop-color:#D4F6FF"/>
			<stop  offset="1" style="stop-color:#FFFFFF"/>
		</linearGradient>
		<path class="st58" d="M347.4,351.4c-1.7-0.1-3.2,1.1-3.3,2.8c-0.1,1.7,1.1,3.2,2.8,3.3c1.7,0.1,3.1-1.1,3.3-2.8
			C350.4,353,349.1,351.5,347.4,351.4C347.5,351.4,347.4,351.4,347.4,351.4z"/>
		
			<linearGradient id="SVGID_18_" gradientUnits="userSpaceOnUse" x1="-200.493" y1="1079.7887" x2="-195.083" y2="1079.7887" gradientTransform="matrix(8.000000e-02 -1 1 8.000000e-02 -728.32 71.81)">
			<stop  offset="1.000000e-02" style="stop-color:#D4F6FF"/>
			<stop  offset="1" style="stop-color:#FFFFFF"/>
		</linearGradient>
		<path class="st59" d="M336,351.3c-1.5-0.1-2.8,1-2.9,2.5s1,2.8,2.5,2.9c1.5,0.1,2.8-1,2.9-2.5C338.6,352.7,337.5,351.4,336,351.3z
			"/>
		
			<linearGradient id="SVGID_19_" gradientUnits="userSpaceOnUse" x1="-211.543" y1="1087.8673" x2="-204.833" y2="1087.8673" gradientTransform="matrix(8.000000e-02 -1 1 8.000000e-02 -728.32 71.81)">
			<stop  offset="1.000000e-02" style="stop-color:#D4F6FF"/>
			<stop  offset="1" style="stop-color:#FFFFFF"/>
		</linearGradient>
		<path class="st60" d="M343.3,361.6c-1.8-0.1-3.5,1.2-3.6,3.1c-0.1,1.8,1.2,3.5,3.1,3.6c1.8,0.1,3.4-1.2,3.6-3.1
			C346.5,363.3,345.2,361.7,343.3,361.6z"/>
		<path class="st44" d="M334,339.7c2.9-1,6,0.5,7.1,3.4c0.6,1.8,0.3,3.8-0.9,5.3c0.7,0.5,1.2,1.2,1.4,2c0.8,2.5-0.6,5.1-3.1,5.9
			c-2.4,0.7-4.9-0.5-5.8-2.8c-0.2-0.5-0.3-1-0.3-1.5l-0.4,0.1c-2.7,1-5.8-0.5-6.7-3.2c-1-2.7,0.5-5.8,3.2-6.7
			c0.8-0.3,1.7-0.4,2.6-0.2C331.9,340.9,332.9,340.1,334,339.7z"/>
		<path class="st45" d="M334.3,341c2.7-0.9,5.6,0.5,6.6,3.2c0.6,1.7,0.3,3.5-0.8,4.9c0.6,0.5,1.1,1.1,1.3,1.9
			c0.8,2.3-0.4,4.8-2.7,5.6s-4.8-0.4-5.6-2.7c-0.2-0.5-0.2-0.9-0.2-1.4l-0.4,0.1c-2.6,0.9-5.4-0.5-6.3-3s0.5-5.4,3-6.3
			c0.8-0.3,1.6-0.3,2.4-0.2C332.3,342.1,333.2,341.4,334.3,341z"/>
		
			<linearGradient id="SVGID_20_" gradientUnits="userSpaceOnUse" x1="30.4362" y1="494.0326" x2="35.1162" y2="494.0326" gradientTransform="matrix(-0.33 -0.94 0.94 -0.33 -116.09 538.95)">
			<stop  offset="1.000000e-02" style="stop-color:#D4F6FF"/>
			<stop  offset="1" style="stop-color:#FFFFFF"/>
		</linearGradient>
		<path class="st61" d="M336.4,342.1c-1.2,0.4-1.8,1.8-1.4,3c0.4,1.2,1.8,1.8,3,1.4c1.2-0.4,1.8-1.8,1.4-3
			C339,342.3,337.6,341.7,336.4,342.1C336.4,342.1,336.4,342.1,336.4,342.1z"/>
		
			<linearGradient id="SVGID_21_" gradientUnits="userSpaceOnUse" x1="30.4362" y1="485.2456" x2="34.5662" y2="485.2456" gradientTransform="matrix(-0.33 -0.94 0.94 -0.33 -116.09 538.95)">
			<stop  offset="1.000000e-02" style="stop-color:#D4F6FF"/>
			<stop  offset="1" style="stop-color:#FFFFFF"/>
		</linearGradient>
		<path class="st62" d="M328.4,345.5c-1.1,0.4-1.7,1.6-1.3,2.6c0.4,1.1,1.6,1.7,2.6,1.3c1.1-0.4,1.7-1.6,1.3-2.6c0,0,0,0,0,0
			C330.6,345.7,329.4,345.1,328.4,345.5z"/>
		
			<linearGradient id="SVGID_22_" gradientUnits="userSpaceOnUse" x1="22.0062" y1="491.4303" x2="27.1162" y2="491.4303" gradientTransform="matrix(-0.33 -0.94 0.94 -0.33 -116.09 538.95)">
			<stop  offset="1.000000e-02" style="stop-color:#D4F6FF"/>
			<stop  offset="1" style="stop-color:#FFFFFF"/>
		</linearGradient>
		<path class="st63" d="M336.6,350.5c-1.3,0.5-2,1.9-1.6,3.3c0.5,1.3,1.9,2,3.3,1.6c1.3-0.5,2-1.9,1.6-3.3c0,0,0,0,0,0
			C339.4,350.7,338,350,336.6,350.5C336.6,350.5,336.6,350.5,336.6,350.5z"/>
		<path class="st44" d="M326.5,348c-0.5-3.5-3.7-6-7.3-5.5c-2.2,0.3-4.1,1.7-5,3.7c-0.9-0.4-1.9-0.5-2.8-0.4c-3,0.4-5.1,3.2-4.7,6.2
			s3.2,5.1,6.2,4.7c0.6-0.1,1.2-0.3,1.7-0.6c0,0.2,0,0.3,0,0.5c0.5,3.3,3.6,5.7,6.9,5.2c3.3-0.5,5.7-3.6,5.2-6.9
			c-0.1-1-0.5-1.9-1.1-2.7C326.4,350.9,326.7,349.4,326.5,348z"/>
		<path class="st45" d="M325,348.5c-0.5-3.3-3.5-5.6-6.8-5.1c-2,0.3-3.8,1.6-4.6,3.5c-0.8-0.4-1.7-0.5-2.6-0.4
			c-2.8,0.5-4.6,3.2-4.1,6c0.5,2.6,2.9,4.4,5.5,4.1c0.6-0.1,1.1-0.3,1.6-0.5c0,0.1,0,0.3,0,0.4c0.4,3.1,3.3,5.3,6.4,4.9
			c3.1-0.4,5.3-3.3,4.9-6.4l0,0c-0.1-0.9-0.5-1.8-1-2.6C325,351.1,325.2,349.8,325,348.5z"/>
		
			<linearGradient id="SVGID_23_" gradientUnits="userSpaceOnUse" x1="89.9746" y1="430.7651" x2="95.4046" y2="430.7651" gradientTransform="matrix(0.9903 -0.1387 -0.1387 -0.9903 288.0441 786.6891)">
			<stop  offset="1.000000e-02" style="stop-color:#D4F6FF"/>
			<stop  offset="1" style="stop-color:#FFFFFF"/>
		</linearGradient>
		<path class="st64" d="M322.8,346.9c0.2,1.5-0.8,2.9-2.3,3.1c-1.5,0.2-2.9-0.8-3.1-2.3c-0.2-1.5,0.8-2.9,2.3-3.1
			C321.2,344.3,322.6,345.4,322.8,346.9C322.8,346.9,322.8,346.9,322.8,346.9z"/>
		
			<linearGradient id="SVGID_24_" gradientUnits="userSpaceOnUse" x1="89.9797" y1="420.6074" x2="94.7697" y2="420.6074" gradientTransform="matrix(0.9903 -0.1387 -0.1387 -0.9903 288.0441 786.6891)">
			<stop  offset="1.000000e-02" style="stop-color:#D4F6FF"/>
			<stop  offset="1" style="stop-color:#FFFFFF"/>
		</linearGradient>
		<path class="st65" d="M323.6,357c0.2,1.3-0.7,2.5-2,2.7c-1.3,0.2-2.5-0.7-2.7-2c-0.2-1.3,0.7-2.5,2-2.7S323.4,355.7,323.6,357
			C323.6,357,323.6,357,323.6,357z"/>
		
			<linearGradient id="SVGID_25_" gradientUnits="userSpaceOnUse" x1="80.1997" y1="427.763" x2="86.1397" y2="427.763" gradientTransform="matrix(0.9903 -0.1387 -0.1387 -0.9903 288.0441 786.6891)">
			<stop  offset="1.000000e-02" style="stop-color:#D4F6FF"/>
			<stop  offset="1" style="stop-color:#FFFFFF"/>
		</linearGradient>
		<path class="st66" d="M314,351.1c0.2,1.6-0.9,3.2-2.5,3.4s-3.2-0.9-3.4-2.5s0.9-3.2,2.5-3.4c0,0,0,0,0.1,0
			C312.3,348.4,313.8,349.5,314,351.1z"/>
		<path class="st44" d="M335.9,346.4c-0.4-2.7-2.9-4.6-5.6-4.2c-1.7,0.2-3.1,1.3-3.8,2.8c-0.7-0.3-1.4-0.4-2.2-0.3
			c-2.3,0.4-3.8,2.6-3.3,4.9c0.4,2.1,2.3,3.6,4.5,3.4c0.5-0.1,0.9-0.2,1.3-0.4c0,0.1,0,0.2,0,0.4c0.4,2.5,2.7,4.3,5.3,4
			c2.5-0.4,4.3-2.7,4-5.3c-0.1-0.8-0.4-1.5-0.8-2.1C335.8,348.6,336,347.5,335.9,346.4z"/>
		<path class="st45" d="M334.7,346.7c-0.3-2.5-2.6-4.3-5.1-3.9c-1.6,0.2-2.9,1.2-3.6,2.7c-0.6-0.3-1.3-0.4-2-0.3
			c-2.1,0.4-3.5,2.4-3.2,4.5c0.4,2,2.2,3.4,4.2,3.2c0.4-0.1,0.8-0.2,1.2-0.4c0,0.1,0,0.2,0,0.3c0.3,2.4,2.6,4.1,5,3.7s4.1-2.6,3.7-5
			l0,0c-0.1-0.7-0.4-1.4-0.8-2C334.7,348.7,334.9,347.7,334.7,346.7z"/>
		
			<linearGradient id="SVGID_26_" gradientUnits="userSpaceOnUse" x1="101.5897" y1="430.6918" x2="105.7297" y2="430.6918" gradientTransform="matrix(0.9903 -0.1387 -0.1387 -0.9903 288.0441 786.6891)">
			<stop  offset="1.000000e-02" style="stop-color:#D4F6FF"/>
			<stop  offset="1" style="stop-color:#FFFFFF"/>
		</linearGradient>
		<path class="st67" d="M333,345.5c0.2,1.1-0.6,2.2-1.8,2.3c-1.1,0.2-2.2-0.6-2.3-1.8c-0.2-1.1,0.6-2.2,1.8-2.3
			C331.8,343.6,332.8,344.4,333,345.5C333,345.5,333,345.5,333,345.5z"/>
		
			<linearGradient id="SVGID_27_" gradientUnits="userSpaceOnUse" x1="101.5897" y1="422.9635" x2="105.2497" y2="422.9635" gradientTransform="matrix(0.9903 -0.1387 -0.1387 -0.9903 288.0441 786.6891)">
			<stop  offset="1.000000e-02" style="stop-color:#D4F6FF"/>
			<stop  offset="1" style="stop-color:#FFFFFF"/>
		</linearGradient>
		<path class="st68" d="M333.6,353.2c0.1,1-0.6,1.9-1.6,2.1c-1,0.1-1.9-0.6-2.1-1.6c-0.1-1,0.6-1.9,1.6-2.1c0,0,0,0,0,0
			C332.6,351.5,333.5,352.2,333.6,353.2z"/>
		
			<linearGradient id="SVGID_28_" gradientUnits="userSpaceOnUse" x1="94.1297" y1="428.4251" x2="98.6597" y2="428.4251" gradientTransform="matrix(0.9903 -0.1387 -0.1387 -0.9903 288.0441 786.6891)">
			<stop  offset="1.000000e-02" style="stop-color:#D4F6FF"/>
			<stop  offset="1" style="stop-color:#FFFFFF"/>
		</linearGradient>
		<path class="st69" d="M326.3,348.7c0.2,1.2-0.7,2.4-1.9,2.6c-1.2,0.2-2.4-0.7-2.6-1.9s0.7-2.4,1.9-2.6c0,0,0,0,0,0
			C325,346.6,326.2,347.5,326.3,348.7z"/>
	</g>
</g>
<path class="st70" d="M133,548.5h350c53.6,0,97-43.4,97-97v-333c-0.1-53.6-43.6-96.9-97.1-96.9c-2.9,0-5.8,0.1-8.7,0.4L108.1,55.5
	c-51.9,4.8-90.8,49.7-88,101.7l16,299.5C38.9,508.1,81.4,548.5,133,548.5z"/>
</svg>
