<svg id="Layer_1" data-name="Layer 1" xmlns="http://www.w3.org/2000/svg" viewBox="0 0 630 750"><defs><style>.cls-1{fill:#513725;stroke:#381b05;}.cls-1,.cls-12,.cls-13,.cls-15,.cls-2,.cls-26,.cls-27,.cls-5,.cls-6,.cls-7,.cls-8{stroke-miterlimit:10;}.cls-2{fill:#2b1026;stroke:#890e6c;}.cls-3{fill:#23220c;}.cls-4{fill:#8a812a;}.cls-5{fill:#69b0e0;}.cls-12,.cls-5,.cls-6,.cls-7,.cls-8{stroke:#965e38;stroke-width:0.75px;}.cls-6{fill:#a0d1f9;}.cls-7{fill:#8bc3ea;}.cls-8{fill:#d0e6f4;}.cls-9{fill:#81c4ea;}.cls-10{fill:#589ec6;}.cls-11{fill:#e1eef4;opacity:0.61;}.cls-12,.cls-22{fill:#f4c9ab;}.cls-13{fill:#53506f;}.cls-13,.cls-26,.cls-27{stroke:#232338;}.cls-14,.cls-15{fill:#d0e2ec;}.cls-15{stroke:#626299;}.cls-16{fill:#ddaa87;}.cls-17{fill:#ea9653;}.cls-18{fill:#542d19;}.cls-19{fill:#f7eee8;}.cls-20{fill:#e07a5f;}.cls-21{fill:#ad7b59;}.cls-23{fill:#965e38;}.cls-24{fill:#d89f79;}.cls-25{fill:#f4f42a;}.cls-26{fill:#a7a7d1;}.cls-27{fill:#6b698c;}.cls-28{fill:#36344f;}</style></defs><path class="cls-1" d="M163.72,629.3s-35.7,53.55-34,110.5l249.9.85s-6.8-58.65-28.9-117.3-3.4.85-3.4.85Z"/><path class="cls-2" d="M202.82,645.45s90.1,19.55,137.7-10.2L338,593.6l-122.4,13.6Z"/><polygon class="cls-1" points="314.17 614.85 313.53 649.49 321.61 648 322.24 613.15 314.17 614.85"/><polygon class="cls-1" points="273.37 619.95 274.22 653.95 265.29 653.31 265.29 618.25 273.37 619.95"/><path class="cls-3" d="M234.83,153.3c0,51.64-12.26,107-48.16,104.55-61.2-4.25-85.85-59.71-85.85-111.35s32.86-86.7,68.85-86.7S234.83,101.66,234.83,153.3Z"/><ellipse class="cls-3" cx="149.43" cy="70" rx="55.29" ry="51.2" transform="translate(-5.73 126.17) rotate(-45)"/><path class="cls-4" d="M204.8,33.59c20,20,18.22,66.37-3.37,88S137,139.86,117,119.86s-7.43-56.75,14.16-78.34S184.81,13.59,204.8,33.59Z"/><path class="cls-5" d="M484.38,201.14c.72.49,5.92,4.11,5.1,5.81-1.22,2.54-9.32,3.85-12.89,6.84-2.9,2.42-4.31,10.22-6.77,11.23-2.61,1.06-6.21-4.78-7.07-5.81-1.67-2,1.82-7.66,7.79-12.65S482.26,199.66,484.38,201.14Z"/><ellipse class="cls-6" cx="478.92" cy="215.65" rx="14.1" ry="4.71" transform="translate(-26.86 357.25) rotate(-39.88)"/><path class="cls-7" d="M491.55,213.5c2.73,4,2.71,10.36-3.21,14.44s-11.64,2.57-14.37-1.39-1.08-7.19,4.31-12C484.81,208.85,488.82,209.54,491.55,213.5Z"/><path class="cls-8" d="M478.41,215.22l1.17-1a27,27,0,0,1,35.93.65l104.15,96.24a11.93,11.93,0,0,1,.23,17.3l-35,34.19a11.93,11.93,0,0,1-17.43-.82l-92-108.6A27,27,0,0,1,478.41,215.22Z"/><path class="cls-9" d="M470,238.3s41.09-4.82,58.37-9.35l91.29,82.16s-41.42,9.92-49.92,52.14l-96.9-115S468.87,245.1,470,238.3Z"/><ellipse class="cls-5" cx="597.01" cy="339.8" rx="35.86" ry="11.92" transform="translate(-65.42 521.67) rotate(-45)"/><ellipse class="cls-10" cx="596.16" cy="338.39" rx="19.43" ry="6.46" transform="translate(-64.66 520.66) rotate(-45)"/><path class="cls-11" d="M500.89,216.48,611.1,312.81l-8.21,4.54L496.64,218.46S483.89,204.58,500.89,216.48Z"/><ellipse class="cls-11" cx="490.69" cy="236.03" rx="3.9" ry="2.08"/><ellipse class="cls-11" cx="499.47" cy="235.18" rx="3.9" ry="2.08"/><path class="cls-12" d="M529.57,226.54s10-5.53,15.52,3,2.55,11.9,2.55,11.9,15.08-5.52,13.81,11.05c0,0,16.57-1.27,11.47,16.58,0,0,15.73-6,11.69,8.71s-19.34,17-21.46,5.31c0,0-12.54,6.8-17.21-3.4,0,0-2.34-5.52.21-10,0,0-9.14,4.67-13.18-.64s-1.06-12.54-1.06-12.54-9.56,5.53-15.51-.64,11.47-26.13,11.47-26.13Z"/><line class="cls-12" x1="547.85" y1="240.14" x2="531.91" y2="256.5"/><line class="cls-12" x1="561.45" y1="252.46" x2="546.15" y2="269.68"/><path class="cls-12" d="M573.14,267.13s-7,11.47-11,17"/><path class="cls-12" d="M474.82,356.45,491.39,325s-31.87-31.88-9.77-56.1c0,0,18.7-15.3,54,16.15,0,0-2.55,14-25.5,9.77l36.55,42.08s-6.37,8.92-24.65,10.2l-13.17,34.42a67.27,67.27,0,0,1-34-23.37"/><path class="cls-12" d="M496.49,284.2s3,8.07,16.15,11.69"/><path class="cls-12" d="M514.77,300.14s11.05,11.26,7.86,30.6"/><path class="cls-12" d="M488.21,322A45.33,45.33,0,0,0,499,332"/><path class="cls-13" d="M517,379.4s-4,9-10,22.35c-15.6,34.8-44.9,99.26-53.5,112-11.9,17.57-39.1,11.89-39.1,11.89s-36.27-22.66-65.17-58.36S304,304,304,304s32.88,4,58.94,42.5,57.23,83.3,57.23,83.3,2.35,9.85,38.57-55.68c3.6-6.54,7.55-13.83,11.87-22C470.57,352.19,497.2,372.59,517,379.4Z"/><path class="cls-14" d="M218.4,611.73s81.6,18.14,118.43-4.53l13.6-168.3S342.5,352.2,302.27,329s-115,1.7-115,1.7S163.43,357.3,218.4,611.73Z"/><path class="cls-15" d="M198.57,478s53.83,38,81.6,10.77c0,0,15.86-12.47,41.36-4s43.64-23.23,43.64-23.23"/><path class="cls-12" d="M275.06,391.29c-57.8-4.52-89-90.66-89-90.66A90.7,90.7,0,0,0,189.17,274c-.47-12.67-3.64-20.35-3.64-20.35a8.39,8.39,0,0,1,.34-2.11c4.4-15,52.12-8.79,65.11,10.33a17.32,17.32,0,0,1,2.55,15c-3.92,13.9,5,19.73,12.07,22.14a33.71,33.71,0,0,0,7.77,1.65L294.9,331.8C313,396.4,275.06,391.29,275.06,391.29Z"/><path class="cls-16" d="M189.5,291.56c5.32,7-9,39.06,14.17,30.6,14.73-5.38,48.16-19.83,56.38-24.08-7.65-7.93-12.39-11.4-8.78-24.93,1.45-5.46,1.07-4.33-1.66-8.59l-38.36-15-21.42,5"/><path class="cls-13" d="M109.6,332.36s17-23.8,77.63-39.1c0,0,51,89.54,64,177.37s-.57,185.3-53.27,243.1c0,0-36.83,2.27-73.67-46.46,0,0,53.27-48.17,58.37-92.94s-37.4-92.93-51.57-146.76S109.6,332.36,109.6,332.36Z"/><path class="cls-12" d="M303.58,272s-11.76,18.36-34.14,19.74-69.35-4.18-99.11-51.1a293.62,293.62,0,0,1-17.4-49.33c-.52-2.15-3.56-3-4-5.22l-11-24.4S153.47,60.8,222.19,50.36c0,0,106.89-13.67,111.22,36.56.58,6.65,3.09,11.33.54,21.61a89.24,89.24,0,0,0-1.39,9.38,161.71,161.71,0,0,0-.84,18.27c.07,9.58-3.3,25.78-.83,38.89C337.74,211.62,332.22,241.71,303.58,272Z"/><path d="M248.83,152.47a45.1,45.1,0,0,0-5.4-5.19,46.58,46.58,0,0,0-6.22-4.31A34.92,34.92,0,0,0,223,138.21a32.57,32.57,0,0,0-7.57.22l-1.92.23-1.9.31c-1.28.18-2.52.49-3.79.74a43.79,43.79,0,0,0-7.32,2.39,22.22,22.22,0,0,0-3.4,1.82,11,11,0,0,0-2.86,2.58,11.05,11.05,0,0,1,2.71-2.79,23.29,23.29,0,0,1,3.32-2.07,43.67,43.67,0,0,1,7.29-2.92c1.26-.34,2.51-.74,3.8-1l1.91-.44,1.93-.36a30.94,30.94,0,0,1,7.94-.56,37,37,0,0,1,15.25,4.49,49.19,49.19,0,0,1,6.72,4.31,47.18,47.18,0,0,1,6,5.37Z"/><path d="M287,144.68A36.59,36.59,0,0,1,291.8,141a39,39,0,0,1,5.27-2.88,31.09,31.09,0,0,1,11.62-2.82,26.47,26.47,0,0,1,11.59,2.3,35.29,35.29,0,0,1,9.63,6.62,34.86,34.86,0,0,0-9.91-5.92,26.15,26.15,0,0,0-5.54-1.39,25.62,25.62,0,0,0-5.67-.11,29.15,29.15,0,0,0-10.73,3.34,37.59,37.59,0,0,0-4.77,3,33.64,33.64,0,0,0-4.17,3.65Z"/><path class="cls-17" d="M234.33,233.87s18.3,29.43,37.21,30.48,31-33.79,31-33.79S282.67,241.94,234.33,233.87Z"/><path class="cls-18" d="M236.54,235.09s16,21.34,34.87,22.38,31.71-28,31.71-28S286.82,248.33,236.54,235.09Z"/><path class="cls-19" d="M240.77,235.79s7,10.62,18.7,11.84,23.33,2.26,32.78-5.57l7.25-9.23S273.75,248.68,240.77,235.79Z"/><path class="cls-17" d="M234.33,233.87s24.14,5.23,38.62,4,25.74-2.27,30.77-9.58c0,0-8.05,13.41-33.19,13.06S234.33,233.87,234.33,233.87Z"/><path class="cls-20" d="M256.08,252.27a14.37,14.37,0,0,1,13-.72s8.85-3.31,16.49,1.22C285.55,252.77,273.17,263.94,256.08,252.27Z"/><path class="cls-21" d="M235.14,230.56s-5.64.7-2.62,6.62C232.52,237.18,231.92,232.83,235.14,230.56Z"/><path class="cls-21" d="M304.14,232s3.95-3.55-2.63-6.62C301.51,225.4,305.07,228.52,304.14,232Z"/><path class="cls-22" d="M282.29,170.07s-3.94,12.16,4.82,26.7c.66,1.1,1.31,2.2,1.89,3.34l1.66,3.3A8,8,0,0,1,287,214.14l-.22.11C279.45,218,270,217,266.89,209.2"/><path class="cls-23" d="M282.32,170.08a32.88,32.88,0,0,0,.87,17.54,40.74,40.74,0,0,0,3.6,8.1c.73,1.28,1.55,2.53,2.25,3.86s1.37,2.63,2,4a8.1,8.1,0,0,1-1.16,8.73,10.08,10.08,0,0,1-3.73,2.66,18.28,18.28,0,0,1-4.32,1.38,15.43,15.43,0,0,1-8.94-.77A11.18,11.18,0,0,1,269.2,213a11.38,11.38,0,0,1-2.34-3.81l.07,0a11,11,0,0,0,6.18,5.93,15.39,15.39,0,0,0,8.61.53,20.39,20.39,0,0,0,4.15-1.37,9.27,9.27,0,0,0,3.47-2.46,7.79,7.79,0,0,0,1.75-3.82,7.48,7.48,0,0,0-.58-4.17c-.62-1.32-1.31-2.67-2-4s-1.47-2.56-2.2-3.87a41.21,41.21,0,0,1-3.52-8.23,33,33,0,0,1-.58-17.68Z"/><path class="cls-3" d="M271.88,73.92S190.56,77.77,149,186.1L107.9,144.8S91.84,90.9,150.54,44,253.37,10.56,253.37,10.56s102.37,7.81,98.37,103.19c-1.94,46-21.51,59.55-21.51,59.55S341.78,96.31,271.88,73.92Z"/><path class="cls-22" d="M151.75,188.65s-6.36-14.4-17.3-19-25.45,14.86-9.93,35.06,37.92,29.49,38.17,14.86"/><path class="cls-23" d="M151.72,188.66A49.64,49.64,0,0,0,143,175.92a27.91,27.91,0,0,0-6-4.82,13.12,13.12,0,0,0-1.7-.9l-.87-.42-.89-.32a8.58,8.58,0,0,0-3.77-.24,10.63,10.63,0,0,0-3.57,1.25,14.26,14.26,0,0,0-3,2.36,18,18,0,0,0-4,6.5,22.18,22.18,0,0,0-1.2,7.54,25.78,25.78,0,0,0,1.31,7.53,38.15,38.15,0,0,0,7.94,13.07,74.51,74.51,0,0,0,11.11,10.71,55.09,55.09,0,0,0,6.35,4.38,32.43,32.43,0,0,0,7,3.17,15.53,15.53,0,0,0,3.75.71,7.93,7.93,0,0,0,3.71-.58,5.28,5.28,0,0,0,2.64-2.59,9.93,9.93,0,0,0,.82-3.74h.08a10.19,10.19,0,0,1-.71,3.82,5.56,5.56,0,0,1-2.69,2.82,8.17,8.17,0,0,1-3.87.68,15.84,15.84,0,0,1-3.87-.66,33.46,33.46,0,0,1-7.17-3.09,59.11,59.11,0,0,1-6.5-4.32A75.06,75.06,0,0,1,126.71,208a38.68,38.68,0,0,1-7.95-13.36,26.29,26.29,0,0,1-1.28-7.72,22.5,22.5,0,0,1,1.29-7.71,18.32,18.32,0,0,1,4.1-6.63,14.81,14.81,0,0,1,3.11-2.41,11.11,11.11,0,0,1,3.72-1.28,9.08,9.08,0,0,1,3.91.3l.93.33.88.44a14.27,14.27,0,0,1,1.72.93,28.23,28.23,0,0,1,6,4.93,49.75,49.75,0,0,1,8.63,12.86Z"/><path class="cls-24" d="M126.34,189.13a29.16,29.16,0,0,1,4.58-7.62l.05-.06.08,0a9,9,0,0,1,6.3.84,15.46,15.46,0,0,1,5,4,19.28,19.28,0,0,1,4.54,11.82l0,.74-.7-.28a7.26,7.26,0,0,0-4.17-.52,3.83,3.83,0,0,0-1.81.87,3.35,3.35,0,0,0-1,1.67,2.14,2.14,0,0,0,.34,1.79,3.47,3.47,0,0,0,1.64,1.13,10.24,10.24,0,0,0,4.33.22,22.08,22.08,0,0,1,2.32-.13,3.79,3.79,0,0,1,2.34.7,4.46,4.46,0,0,1,1.47,4.41,5,5,0,0,1-2.91,3.52,5.9,5.9,0,0,1-4.5.13,6,6,0,0,0,4.39-.37,4.58,4.58,0,0,0,2.52-3.38,3.89,3.89,0,0,0-1.35-3.79,3.07,3.07,0,0,0-2-.5,21.65,21.65,0,0,0-2.23.19,10.15,10.15,0,0,1-4.7-.18,4.35,4.35,0,0,1-2.07-1.42,3.08,3.08,0,0,1-.51-2.53,4.48,4.48,0,0,1,3.54-3.27,7.88,7.88,0,0,1,4.75.55l-.68.46a18.37,18.37,0,0,0-4.22-11.28,15.46,15.46,0,0,0-4.64-4,8.4,8.4,0,0,0-5.87-1l.12-.08A31.11,31.11,0,0,0,126.34,189.13Z"/><ellipse class="cls-25" cx="155.44" cy="218.95" rx="6.23" ry="5.69"/><path class="cls-22" d="M271.88,77.39s-3.15-34.64-15.51-60.52,8.56,16.5,8.56,16.5S274.58,57.7,268.79,77"/><path class="cls-13" d="M149.27,424.73c-37.4,40.8-60.64,102-60.64,102,13.12,19,41,39.87,60.71,53.28,12.68,8.61,22,14.15,22,14.15l-21.53,44.77s-9.52-5.36-23.17-13.16C106.2,614.08,76.5,596.88,55.76,584,21.2,562.43-4.06,551.88,10.44,514.83,69.08,365,117,324.15,117,324.15"/><path class="cls-13" d="M88.63,526.73s-15.3-14.16-43.06-3.4"/><path class="cls-26" d="M171.36,594.16l-21.53,44.77s-9.52-5.36-23.17-13.16A299.57,299.57,0,0,1,149.34,580C162,588.62,171.36,594.16,171.36,594.16Z"/><path class="cls-13" d="M308.5,305.73s-26.07-6.8-50.43-11.33c0,0,50.43,41.36,64.6,112.76s10.2,95.21,7.36,126.37-6.8,152.44,13,172.27c0,0,47-24.37,36.83-68,0,0-27.77-44.77-21-149,0,0,22.67-32.87,10.2-73.67,0,0-7.93-34.57-24.36-68"/><path class="cls-26" d="M517,379.4s-4,9-10,22.35a100.52,100.52,0,0,1-48.37-27.6c3.6-6.54,7.55-13.83,11.87-22C470.57,352.19,497.2,372.59,517,379.4Z"/><path class="cls-13" d="M420.13,429.83s-14.16,3.4-14.73,39.1"/><path class="cls-27" d="M186.1,287s-15.3,2.27-15.87,36.83l13.6.57s-6.23,17,4,42.5,56.1,80.47,64,131.47l2.27,19.27s-2.27-89.54-36.83-160.94Z"/><path class="cls-27" d="M255.23,292.13s53.84,50.43,65.74,106c0,0,10.76,61.2,11.33,96.33,0,0,9.63-79.33-4-117.87s-37.4-62.33-37.4-62.33S301.7,300.63,255.23,292.13Z"/><path class="cls-13" d="M117,324.15s36.55-2.55,48.45,58.65"/><path class="cls-1" d="M270,741.5s8.5-14.45,15.3-38.25L309.92,682"/><path class="cls-3" d="M256.93,73.4s-53.29,72.53-107.1,75.36c0,0,74.19-5.66,106.06-82.73Z"/><path class="cls-12" d="M155.39,629.13l16.45-33.37s8.4,2.88,22-5,46.6-16.05,58.1-10.08c13.65,7.08,41.29,41.41,36.74,65.9,0,0-2.8,6.72-9-4s-15.05-24.25-15.05-24.25,1.4,9.72-4.78,14.4c0,0,2.1,13.33-7.23,13.81,0,0,.35,15.72-11,15.84,0,0-5.13,1.2-3.27-10s-8.75-15.85-17.85-15.85-22.86,12.49-42.46,10.09S155.39,629.13,155.39,629.13Z"/><path class="cls-12" d="M265.05,620s-3.15-14.88-16.21-24.61"/><path class="cls-12" d="M260,636.21s.46-5.28-4.79-11.16S240,610.17,240,610.17"/><path class="cls-12" d="M251.87,651.94s3.73-9.24-6.88-18.61-13.19-10.8-13.19-10.8"/><path class="cls-28" d="M136.09,441.87l11-14.87s2.13,39.52,5.53,52.7Z"/></svg>