<?xml version="1.0" encoding="utf-8"?>
<!-- Generator: Adobe Illustrator 25.2.3, SVG Export Plug-In . SVG Version: 6.00 Build 0)  -->
<svg version="1.1" id="Layer_1" xmlns="http://www.w3.org/2000/svg" xmlns:xlink="http://www.w3.org/1999/xlink" x="0px" y="0px"
	 viewBox="0 0 600 570" style="enable-background:new 0 0 600 570;" xml:space="preserve">
<style type="text/css">
	.st0{fill:#EFEFEF;}
	.st1{clip-path:url(#SVGID_2_);}
	.st2{fill:#73DD47;}
	.st3{fill:#77CE49;}
	.st4{fill:#42605E;}
	.st5{fill:#2BB51C;}
	.st6{fill:#897F77;}
	.st7{fill:#CCC2C2;}
	.st8{fill:#848483;}
	.st9{fill:#B7A192;}
	.st10{opacity:0.4;fill:#8E8E8D;enable-background:new    ;}
	.st11{fill:#70706F;}
	.st12{fill:none;stroke:#5B5B5B;stroke-width:0.5;stroke-miterlimit:10;}
	.st13{fill:none;stroke:#FFFFFF;stroke-width:0.5;stroke-miterlimit:10;}
	.st14{fill:url(#SVGID_3_);}
	.st15{fill:url(#SVGID_4_);}
	.st16{fill:url(#SVGID_5_);}
	.st17{fill:url(#SVGID_6_);}
	.st18{fill:url(#SVGID_7_);}
	.st19{fill:#6D3F1F;}
	.st20{opacity:0.3;enable-background:new    ;}
	.st21{fill:#1E70AF;stroke:#184059;stroke-miterlimit:10;}
	.st22{fill:#166493;}
	.st23{fill:#1E70AF;}
	.st24{fill-rule:evenodd;clip-rule:evenodd;fill:#EA9860;stroke:#A55925;stroke-width:0.75;stroke-miterlimit:10;}
	.st25{fill-rule:evenodd;clip-rule:evenodd;fill:#422813;}
	.st26{fill-rule:evenodd;clip-rule:evenodd;fill:#DD8B52;}
	.st27{fill-rule:evenodd;clip-rule:evenodd;fill:#DC8347;}
	.st28{opacity:0.3;fill:#8D3D24;enable-background:new    ;}
	.st29{opacity:0.3;fill-rule:evenodd;clip-rule:evenodd;fill:#8D3D24;enable-background:new    ;}
	.st30{fill:#331F00;}
	.st31{fill-rule:evenodd;clip-rule:evenodd;fill:#88512B;}
	.st32{fill:#DD8B52;}
	.st33{fill-rule:evenodd;clip-rule:evenodd;fill:#331F00;}
	.st34{fill:#88512B;}
	.st35{fill:#659AFF;stroke:#3F5E8E;stroke-miterlimit:10;}
	.st36{fill:#FFFFFF;}
	.st37{fill:#422813;}
	.st38{fill:#DC8347;}
	.st39{fill:#1C7CC6;}
	.st40{fill:#97CBFF;}
	.st41{fill:#5BA5FC;}
	.st42{fill:#351F10;}
	.st43{fill:#575903;}
	.st44{fill:#2D2216;}
	.st45{fill:#2A3F54;}
	.st46{fill:#99A4BC;}
	.st47{fill:#ABECFF;}
	.st48{fill-rule:evenodd;clip-rule:evenodd;fill:#A3653B;}
	.st49{fill:#006F88;stroke:#003488;stroke-miterlimit:10;}
	.st50{fill:#2297AA;stroke:#04869B;stroke-linejoin:round;}
	.st51{fill-rule:evenodd;clip-rule:evenodd;fill:#1C7CC6;stroke:#2E4566;stroke-miterlimit:10;}
	.st52{fill:#647C8C;}
	.st53{fill:#2A3F54;stroke:#171F26;stroke-miterlimit:10;}
	.st54{fill:#90A5B2;}
	.st55{fill:#FFCC0C;stroke:#917417;stroke-miterlimit:10;}
	.st56{fill:#6D5403;}
	.st57{fill:#263949;}
	.st58{fill:#564539;}
	.st59{fill:#676767;}
	.st60{fill:#080806;}
	.st61{fill:#0A0A09;}
	.st62{fill:#1F211A;}
	.st63{fill:#C1C6C1;}
	.st64{fill:#E0E0E0;}
	.st65{fill:#A5A5A5;}
	.st66{fill:#ED5A11;stroke:#663708;stroke-miterlimit:10;}
	.st67{fill:#8D8D8D;}
	.st68{fill:#171715;}
	.st69{fill:#F0E6D0;}
	.st70{fill:#B5B4B4;}
	.st71{fill:#A0A0A0;}
	.st72{fill:#898989;}
	.st73{fill:#6C6D6D;}
	.st74{fill:#7E817F;}
	.st75{fill:#8E4F15;}
	.st76{fill:#B54615;}
	.st77{fill:#A79D8A;}
	.st78{fill:#D3C6A7;}
	.st79{fill:#B4AC99;}
	.st80{fill:#FF9566;}
	.st81{fill:#929190;}
	.st82{fill:#FF7E45;stroke:#663708;stroke-miterlimit:10;}
	.st83{fill:#70522B;}
	.st84{fill:#511707;}
	.st85{opacity:0.7;fill:#70522B;enable-background:new    ;}
	.st86{opacity:0.59;fill:#ABE7FF;enable-background:new    ;}
	.st87{fill:#FFE400;}
	.st88{fill:#FFC100;}
	.st89{fill:#FFCB00;}
	.st90{fill:#FFC300;}
	.st91{fill:#FFA800;}
	.st92{fill:#FFAF00;}
	.st93{fill:#FFC900;}
	.st94{fill:#FFA600;}
	.st95{fill:#FFC200;}
	.st96{fill:#FFF000;}
	.st97{fill:#FFE800;}
	.st98{fill:#FFEF00;}
	.st99{clip-path:url(#SVGID_9_);}
	.st100{fill:#FFF0A5;}
	.st101{fill:#FFCE51;}
	.st102{fill:#FCAF17;}
	.st103{fill:#DD941A;}
	.st104{fill:#FFE539;}
	.st105{fill:#8CC6EC;}
	.st106{fill:#AAD4F1;}
	.st107{fill:#5DA5DF;}
	.st108{fill:#095DA3;}
	.st109{fill:#F4E12F;stroke:#597C15;stroke-width:0.5;stroke-miterlimit:10;}
	.st110{fill-rule:evenodd;clip-rule:evenodd;fill:#EA9860;}
	.st111{fill:#A55925;}
	.st112{fill:none;stroke:#206363;stroke-width:8;stroke-miterlimit:10;}
</style>
<path class="st0" d="M133,548.5h350c53.6,0,97-43.4,97-97v-333c-0.1-53.6-43.6-96.9-97.1-96.9c-2.9,0-5.8,0.1-8.7,0.4L108.1,55.5
	c-51.9,4.8-90.8,49.7-88,101.7l16,299.5C38.9,508.1,81.4,548.5,133,548.5z"/>
<g>
	<defs>
		<path id="SVGID_1_" d="M133,548.5h350c53.6,0,97-43.4,97-97v-333c-0.1-53.6-43.6-96.9-97.1-96.9c-2.9,0-5.8,0.1-8.7,0.4
			L108.1,55.5c-51.9,4.8-90.8,49.7-88,101.7l16,299.5C38.9,508.1,81.4,548.5,133,548.5z"/>
	</defs>
	<clipPath id="SVGID_2_">
		<use xlink:href="#SVGID_1_"  style="overflow:visible;"/>
	</clipPath>
	<g class="st1">
		<path class="st2" d="M793.9,402.5c0,76.9-180.3,215.3-461.6,186.2C63.1,560.8-90.1,496-90.1,419.1S61.6,310.3,332.3,310.3
			S793.9,325.6,793.9,402.5z"/>
		<path class="st3" d="M814.9,457.8c0,61.7-208.6,206-489.9,182.7C55.7,618.1-116.6,482.7-116.6,421.1s207,17.1,477.7,17.1
			S814.9,396.1,814.9,457.8z"/>
		<rect x="-140.7" y="250.8" class="st4" width="903.7" height="98.7"/>
		<path class="st5" d="M461.9,521.6c0,0,7.5-5,22-6.3s-15.6-6.6-26.3,6.3C457.6,521.6,452.8,527.3,461.9,521.6z"/>
		<path class="st5" d="M441.1,518.7c-0.3,0.9,0.2,1.9,1.1,2.2c0.5,0.2,1.1,0.1,1.6-0.2c6-4.2,22.2-15.3,32.6-18.7
			c12.9-4.3-12.3-4.6-29.4,8.7l-0.2,0.1C446.2,511.4,442.2,515.3,441.1,518.7z"/>
		<path class="st5" d="M433.2,519.2c0.1,1,1,1.7,1.9,1.6c0.6-0.1,1.1-0.4,1.3-0.9c3.8-6.6,14.5-24.2,19.8-26.8
			c6.6-3.2-10.5-5-21.2,16.1c0,0.1-0.1,0.1-0.1,0.2C434.7,510.2,432.8,515.5,433.2,519.2z"/>
		<path class="st5" d="M425.5,515.9c0.2,1,1.1,1.6,2,1.5c0.7-0.1,1.2-0.6,1.4-1.3c2.1-7.4,5.8-18.9,9.4-21.3
			C443.1,491.6,422.6,497.4,425.5,515.9z"/>
		<path class="st5" d="M420.2,516c0.6,0.8,1.7,1,2.5,0.4c0.6-0.4,0.8-1.1,0.7-1.8c-1.1-6-3.8-13.5-10.5-15.3
			C403.5,496.9,413.5,506.8,420.2,516z"/>
		<path class="st5" d="M413.2,515.2c0.8,0.6,1.9,0.5,2.5-0.3c0.5-0.6,0.5-1.4,0.1-2.1c-3.9-6.4-10.6-13.6-20.5-13.9
			C380.6,498.5,399.9,504.6,413.2,515.2z"/>
		<path class="st5" d="M403.2,518.2c0.9,0.2,1.9-0.4,2.1-1.3s-0.4-1.9-1.3-2.1l0,0c-3.5-0.8-7.2-1.2-10.8-1
			C383.6,514.2,393.1,516.1,403.2,518.2z"/>
		<path class="st5" d="M186.4,536.4c0,0,7.5-5,22-6.3s-15.6-6.6-26.3,6.3C182.1,536.4,177.2,542.1,186.4,536.4z"/>
		<path class="st5" d="M165.5,533.5c-0.3,0.9,0.2,1.9,1.1,2.2c0.5,0.2,1.1,0.1,1.5-0.2c6-4.2,22.3-15.3,32.6-18.7
			c12.9-4.3-12.3-4.7-29.4,8.7l-0.2,0.1C170.7,526.1,166.7,530,165.5,533.5z"/>
		<path class="st5" d="M157.7,533.9c0.1,1,0.9,1.7,1.9,1.6c0.6-0.1,1.1-0.4,1.4-0.9c3.8-6.6,14.5-24.2,19.9-26.8
			c6.6-3.2-10.5-5-21.2,16.2l-0.1,0.2C159.2,525,157.3,530.3,157.7,533.9z"/>
		<path class="st5" d="M149.9,530.7c0.1,1,1,1.6,2,1.5c0.7-0.1,1.3-0.6,1.4-1.3c2.1-7.3,5.8-18.9,9.4-21.3
			C167.6,506.4,147.1,512.2,149.9,530.7z"/>
		<path class="st5" d="M144.6,530.8c0.6,0.8,1.7,1,2.5,0.4c0.5-0.4,0.8-1.1,0.7-1.7c-1.1-6-3.8-13.5-10.6-15.3
			C127.9,511.6,138,521.6,144.6,530.8z"/>
		<path class="st5" d="M137.7,530c0.8,0.6,1.9,0.5,2.5-0.3c0.5-0.6,0.5-1.4,0.1-2.1c-3.9-6.4-10.6-13.6-20.4-13.9
			C105.1,513.3,124.4,519.3,137.7,530z"/>
		<path class="st5" d="M127.6,533c1,0.2,1.9-0.4,2.1-1.4c0.2-0.9-0.4-1.8-1.3-2c-3.5-0.8-7.2-1.2-10.8-1
			C108.1,529,117.5,530.9,127.6,533z"/>
		<rect x="-140.5" y="-163.6" class="st6" width="1042" height="421.2"/>
		<polyline class="st7" points="20,311.2 663.3,311.2 657.2,421.7 -141.6,421.1 -141,373 -50.9,373 20,311.2 20,311.2 		"/>
		<rect x="-142.4" y="408.7" class="st8" width="1042.6" height="12.4"/>
		<polygon class="st9" points="663.3,311.2 20,311.2 20,-66.9 663.2,-66.9 		"/>
		<polygon class="st10" points="113,384.2 169.2,333 521.8,325.9 602.5,366.5 384.5,398.7 		"/>
		<polygon class="st11" points="245.1,421.1 245.1,408.7 254.7,373.3 246.5,408.7 246.2,421.1 		"/>
		<polyline class="st12" points="900.2,351.4 660.7,349 -35,353.8 		"/>
		<polyline class="st13" points="900.2,350.9 660.7,348.5 -35,353.3 		"/>
		<line class="st12" x1="-141.1" y1="385.4" x2="994.5" y2="385.4"/>
		<line class="st13" x1="-141.8" y1="384.9" x2="993.8" y2="384.9"/>
		
			<linearGradient id="SVGID_3_" gradientUnits="userSpaceOnUse" x1="-142.43" y1="254.945" x2="20.11" y2="254.945" gradientTransform="matrix(1 0 0 -1 0 572)">
			<stop  offset="0" style="stop-color:#96A343"/>
			<stop  offset="4.000000e-02" style="stop-color:#9BAA47"/>
			<stop  offset="0.14" style="stop-color:#A4B44F"/>
			<stop  offset="0.25" style="stop-color:#A7B851"/>
			<stop  offset="0.51" style="stop-color:#A7B851"/>
			<stop  offset="0.95" style="stop-color:#96A343"/>
		</linearGradient>
		<path class="st14" d="M20,311.2L-50.9,373H-141l-1.4-111.9H19.4c0.3,11.7,0.5,23.3,0.7,35"/>
		
			<linearGradient id="SVGID_4_" gradientUnits="userSpaceOnUse" x1="598" y1="204.915" x2="683.15" y2="204.915" gradientTransform="matrix(1 0 0 -1 0 572)">
			<stop  offset="0" style="stop-color:#7A8634"/>
			<stop  offset="0.83" style="stop-color:#6B772C"/>
		</linearGradient>
		<path class="st15" d="M606.8,335.2l53.2,0.1c7.7,21.2,15.4,42.5,23.1,63.7l-85.1-0.9C600.9,377.1,603.9,356.1,606.8,335.2z"/>
		
			<linearGradient id="SVGID_5_" gradientUnits="userSpaceOnUse" x1="599.6199" y1="210.045" x2="681.5399" y2="210.045" gradientTransform="matrix(1 0 0 -1 0 572)">
			<stop  offset="0" style="stop-color:#96A343"/>
			<stop  offset="4.000000e-02" style="stop-color:#9BAA47"/>
			<stop  offset="0.14" style="stop-color:#A4B44F"/>
			<stop  offset="0.25" style="stop-color:#A7B851"/>
			<stop  offset="0.51" style="stop-color:#A7B851"/>
			<stop  offset="0.95" style="stop-color:#96A343"/>
		</linearGradient>
		<path class="st16" d="M606.8,332.9l53.2,0.1l21.5,58l-81.9-1.6L606.8,332.9z"/>
		
			<linearGradient id="SVGID_6_" gradientUnits="userSpaceOnUse" x1="-4185.3999" y1="215.985" x2="-4074.1201" y2="215.985" gradientTransform="matrix(-1 0 0 -1 -4113.8501 572)">
			<stop  offset="0" style="stop-color:#7A8634"/>
			<stop  offset="0.83" style="stop-color:#6B772C"/>
		</linearGradient>
		<path class="st17" d="M71.6,328l-54.1-2.3l-57.1,60.5l89.5-0.9L71.6,328z"/>
		
			<linearGradient id="SVGID_7_" gradientUnits="userSpaceOnUse" x1="-4185.3999" y1="219.515" x2="-4078.6301" y2="219.515" gradientTransform="matrix(-1 0 0 -1 -4113.8501 572)">
			<stop  offset="0" style="stop-color:#96A343"/>
			<stop  offset="4.000000e-02" style="stop-color:#9BAA47"/>
			<stop  offset="0.14" style="stop-color:#A4B44F"/>
			<stop  offset="0.25" style="stop-color:#A7B851"/>
			<stop  offset="0.51" style="stop-color:#A7B851"/>
			<stop  offset="0.95" style="stop-color:#96A343"/>
		</linearGradient>
		<path class="st18" d="M71.6,324.3l-54.1,1.5l-52.6,54.9h82.7L71.6,324.3z"/>
		<rect x="-142.4" y="253.6" class="st19" width="161.8" height="7.5"/>
		<ellipse class="st20" cx="291.4" cy="459.1" rx="348.5" ry="53.2"/>
		<path class="st21" d="M501.2,182.5c0,0-12.4,24.2-15.3,29.2s-18.9,9.4-27.1,8.6c-1.6-0.2-17.6-1.8-19.9-2.5
			c-5.4-1.7-3.2-4.1-5.6-6.3c-4-3.7-3.4-5.4-1-8.6c1.8-2.4-0.2-4.5,3-5.1c10.9-2,32.3,4.3,36.3-1.3c5.3-7.3,18.7-56.2,18.7-56.2
			L501.2,182.5z"/>
		<path class="st22" d="M424,205c-1.2,5.2,2.1,10.3,7.2,11.5l5.6,1.1c5.2,0.9,10.2-2.5,11.1-7.8l0,0c1.2-5.2-2.1-10.3-7.2-11.5
			l-2.5-0.8C433.2,196.6,425.1,199.7,424,205L424,205z"/>
		<polygon class="st23" points="503.7,112 499,114.4 503.2,118.9 		"/>
		<path class="st24" d="M510.6,131.3c0,0-0.1,3.7,0.1-2.4c0.1-2.6-5.1-4.7-5.5-5.6c-1.3-3.3-9.9-17.5-9.9-17.5l-13.7,25.9l20.6,13.4
			L510.6,131.3z"/>
		<path class="st24" d="M453.6,96.4c-0.5-3.4,5-12.3,8.1-15.5s12.8-10.2,19.9-9.4s14.1,21.8,14.1,21.8l-2.4,21.8
			c0,0-4.6,13.2-7.8,16.9c-2.4,2.8-11.7,8.3-13.2,5.5c-1-2.2-2.6-4.1-4.6-5.4c-2-1.4-5.6-2.8-5.5-4.1c0.1-0.5-0.2-1.7,0.8-1.9
			c1.3-0.3,1.7-2,0.2-2c-0.7,0-2.5-1.8-3-1.8s-0.4-0.5-0.3-0.8c0.5-1.5,0.8-3,0.9-4.6c0.1-2.4-6.6-1.3-6.8-3.7
			c-0.2-1.9,2.5-3,3.5-4.6c0.5-0.9,0.4-4,0.3-5C457.6,101.8,453.8,98.2,453.6,96.4z"/>
		<path class="st25" d="M487.3,98.3l-8.5-2.6c-0.3-1.3-1.8-9.6-1.7-9.7c2.1-1.4,5.6-2.2,7.8-3.5c1.1-0.7,2.2-1.3,3.4-1.9
			c0.9-0.5,1.8-0.9,2.8-1.3c3-1.5,6.2-2.8,9.4-3.8c1.6-0.5,3.2-0.7,4.9-0.7c3.4,3.5,5.8,7.1,5.3,10.3c-1.2,7.5-3.5,15.6-6.1,20.2
			c-1.6,2.8-8.1,10.2-8.1,10.2l-6.8-8.9c0,0-2.7,1.5-2.7,1.3C486.7,104.6,486.8,101.4,487.3,98.3z"/>
		<path class="st26" d="M490.9,101.8c0,0,5.3-9.9,7.4-5.2c1.6,3.6-2.3,17.2-6.8,16.2S490.9,101.8,490.9,101.8z"/>
		<path class="st27" d="M461.5,111.1c0,0,2.8,2.2,2.5,3.7s-1.2,1.7-1.2,1.7s0.4-0.3,0.3-1.4C462.8,113.6,462.2,112.3,461.5,111.1z"
			/>
		<path class="st28" d="M485.5,132.1c3.1-3.7,7.8-16.9,7.8-16.9l0.3-3l0.3-0.1l2.5,3.3l0.7-0.8c0,0-2,9-3.2,11.5
			c-1.3,2.7-3,6.8-5.1,9.9l-4.6-2.8C484.7,132.8,485.1,132.5,485.5,132.1z"/>
		<path class="st29" d="M493,101.9c0-0.1,1.8-3.1,2.8-2.6c1.1,0.5,1.7,1.6,1.4,2.8c-0.4,0.9-0.2-1.2-1.2-1.6S493,101.9,493,101.9z"
			/>
		<polygon class="st30" points="456.5,94.8 452.4,97 453.6,99.2 458.7,98.1 		"/>
		<polygon class="st31" points="459.6,103.1 457.6,103 457.3,103.9 459.5,104 		"/>
		<polygon class="st32" points="461.8,97.2 464.1,103 468.6,102.1 472.8,104.1 472.6,97.8 465.9,94.8 		"/>
		<polygon class="st33" points="472.9,97.9 461.8,97.2 462.4,92.8 473.3,96.1 		"/>
		<path class="st34" d="M473.1,104.4l0.1-0.7c-1.1-0.4-3.3-2.1-5.6-2.6c-2.8-0.6-4,2.2-4,2.2l0.6,0.5c0-0.1,0.6,2.4,2.4,2.8
			C468.8,107.2,473,104.4,473.1,104.4z"/>
		<path class="st35" d="M509.6,252.4c-10.5-28.8-14.3-71.3-16.5-98c-0.2-3.1,0-6.2,0.6-9.3c0.6-3.5,5.5-4.4,6.8-7.9
			c1.6-4.4-0.2-11.4,2.3-14.2c1.4-1.6,3.2-2.8,5.2-3.4c4.7-1.2,19.8,4.7,23.5,7.8c7.7,6.6,15.6,15.5,17.5,25.7
			c3.8,20.5,12,53.5,18.8,77.3c0,0,2.5,26.1-1.7,26.9C554.7,259.4,509.6,252.4,509.6,252.4z"/>
		<path class="st36" d="M467.4,102.2c1.7,0.5,3.3,1.2,4.9,1.9l-0.1,0.5c0,0-1.4,0.7-3,1.2c-0.3,0.1-0.7,0.2-1,0.3
			c-0.7,0.2-1.4,0.3-2.1,0.2c-0.1,0-0.2-0.1-0.3-0.1c-0.3-0.2-0.6-0.4-0.7-0.7c-0.3-0.5-0.5-1.1-0.6-1.8
			C464.9,102.7,466.1,102,467.4,102.2z"/>
		<path class="st37" d="M460.3,117.1c0,0,5.2-0.4,6.7,0.1c2.7,1,8.9,7.5,8.9,7.5c1.2,0,9.3-8.3,9.9-10.7c0.5-2.2,0.8-4.5,0.8-6.8
			c0-1.3,0.1-2.6,0.3-3.9l2.6,1.9l4.1,7c0,0-0.9,8.2-3.6,14c-3.8,8.1-13,11.9-15,12.5c-4.1,1.3-10.2-4.2-9.1-7.5
			c0,0,7.1-3.9,6.9-4.6c-0.7-0.3-4-6-9.1-5.7c-1.2,0.1-4.8-0.3-4.8-0.3L460.3,117.1z"/>
		<path class="st36" d="M457.3,106.1L457.3,106.1c-0.2-0.8-0.1-1.5,0.1-2.2c0.6-0.5,1.4-0.6,2.1-0.4v0.2c0,0.2,0,0.3-0.1,0.5
			c0,0.1,0,0.2-0.1,0.3c-0.1,0.3-0.2,0.6-0.3,0.9l0,0c-0.1,0.2-0.1,0.4-0.2,0.6s-0.1,0.4-0.2,0.6s-0.1,0.3-0.2,0.5l0,0l0,0l0,0
			l-0.1-0.1c-0.2-0.1-0.4-0.2-0.5-0.3c-0.1-0.1-0.2-0.2-0.3-0.4c0,0,0,0,0-0.1L457.3,106.1z"/>
		<path class="st38" d="M457.7,108.3c0,0,2.1-2.9,2.2-4.6c-0.1-1.7-0.5-3.3-1.1-4.9c0,0,1.1,3.4,0.6,5.3
			C458.9,105.6,458.4,107,457.7,108.3z"/>
		<path class="st36" d="M457.8,103.6c0.5-0.3,1.2-0.4,1.7-0.2v0.2c0,0.2,0,0.3-0.1,0.5c0,0.1,0,0.2-0.1,0.3c0,0.1-0.1,0.2-0.1,0.3
			c-0.1,0.2-0.1,0.4-0.2,0.5l0,0c-0.1,0.2-0.1,0.4-0.2,0.6l-0.2,0.6c-0.1,0.2-0.1,0.3-0.2,0.5s0,0,0,0l0,0l0,0l0,0l-0.1-0.1
			c-0.2-0.1-0.4-0.2-0.5-0.3l0,0c-0.1-0.1-0.2-0.2-0.3-0.4c0,0,0,0,0-0.1l0,0c0,0,0-0.1,0-0.1c-0.1-0.5-0.2-1.1,0-1.6
			c0-0.2,0.1-0.4,0.1-0.6C457.6,103.8,457.7,103.7,457.8,103.6z"/>
		<polygon class="st23" points="490.1,137 488.9,145.6 497.6,148.9 496.1,141 		"/>
		<path class="st39" d="M496.3,142.2l1.4,6.7c0,0,2.8,15.8,3.9,18.2c0.6,1.4,8,29.3,14.9,49.2c5,14.6,9.8,24.6,9.8,24.6l6,2.3
			c0,0-12.2-22-13.7-31.2c-3.3-19.8-13-44.2-14-46.8c-1.4-3.8-4.5-17.6-4.5-17.6l-0.5-3L496.3,142.2z"/>
		<polygon class="st39" points="488.9,145.6 493.1,152.2 493.5,147.2 		"/>
		<path class="st40" d="M503.7,112c0,0-4.1,16.7-5.2,19.6c-1.4,3.9-3,9.9-3,9.9l9.7,7.4c0,0,0.9-6.1,2.2-12.9c1.6-8.2,1-18.5,1-18.5
			L503.7,112z"/>
		<path class="st41" d="M498.3,149.3c-0.1,0.4,0.2,0.9,0.7,0.9c0,0,0,0,0,0c0.5,0,0.8-0.4,0.8-0.9c0.1-0.5-0.3-0.9-0.7-0.9
			C498.6,148.4,498.3,148.8,498.3,149.3z"/>
		<path class="st41" d="M500.5,159.9c-0.1,0.5,0.3,0.9,0.7,0.9c0,0,0,0,0,0c0.5,0,0.8-0.4,0.8-0.9c0.1-0.4-0.2-0.9-0.7-0.9
			c0,0,0,0,0,0C500.9,159,500.5,159.4,500.5,159.9z"/>
		<path class="st41" d="M506,179.2c-0.1,0.5,0.3,0.9,0.7,0.9c0.5,0,0.8-0.4,0.8-0.9c0.1-0.5-0.3-0.9-0.7-0.9c0,0,0,0,0,0
			C506.4,178.4,506,178.8,506,179.2z"/>
		<path class="st41" d="M503.3,170.9c-0.1,0.5,0.3,0.9,0.7,0.9c0,0,0,0,0,0c0.5,0,0.8-0.4,0.8-0.9c0.1-0.4-0.2-0.9-0.7-0.9
			c0,0,0,0,0,0C503.7,170,503.3,170.4,503.3,170.9z"/>
		<path class="st42" d="M473.2,136.2c2-0.6,11.1-4.4,14.9-12.5c1.7-3.7,2.7-7.6,3.1-11.7l-1.3-6.3c0,0,3.6,5,4.1,7
			c0.7,3.5-0.9,8.2-3.6,14c-3.8,8.1-13,11.9-15,12.5c-3.3,1-7.9-2.3-9-5.3C468.4,135.7,471.1,136.8,473.2,136.2z"/>
		<path class="st43" d="M467,103.6c1.1,0,1.9,0.9,1.9,1.9c0,0,0,0,0,0.1c0,0.2-0.1,0.3-0.1,0.5l-0.5,0.2c-0.3,0.1-0.6,0.2-0.9,0.2
			c0.5-0.4,0.5-1.1,0.1-1.6c-0.2-0.3-0.6-0.4-0.9-0.4c-0.7,0-1.2,0.4-1.3,1.1c0,0.2,0,0.3,0.1,0.5c-0.1-0.1-0.2-0.2-0.3-0.4
			c-0.1-0.1-0.2-0.3-0.3-0.5C465.1,104.2,466,103.5,467,103.6z"/>
		<path class="st44" d="M465.9,106.3c-0.2-0.1-0.3-0.2-0.4-0.3c-0.1-0.1-0.1-0.3-0.1-0.5c0.1-0.7,0.6-1.1,1.3-1.1
			c0.6,0,1.1,0.5,1.2,1.1c0,0.3-0.1,0.7-0.4,0.9c-0.4,0.1-0.8,0.1-1.2,0C466,106.4,465.9,106.4,465.9,106.3z"/>
		<path class="st43" d="M458.7,104.6c0.2,0,0.3,0,0.5,0.1l0,0c0,0.2-0.1,0.4-0.2,0.5l0,0c0,0.1-0.1,0.2-0.1,0.3
			c-0.2-0.1-0.4-0.1-0.5-0.2c-0.4,0-0.9,0.2-1.1,0.6c-0.1-0.3-0.1-0.5-0.1-0.8C457.6,104.8,458.1,104.5,458.7,104.6z"/>
		<path class="st44" d="M458.6,106.4c-0.1,0.2-0.1,0.3-0.2,0.5l0,0l0,0l0,0l-0.1-0.1c-0.2-0.1-0.4-0.2-0.5-0.3l0,0
			c-0.1-0.1-0.2-0.2-0.3-0.4l0,0l0,0v-0.1l0,0c0.2-0.4,0.7-0.6,1.1-0.6c0.2,0,0.4,0.1,0.5,0.2l-0.1,0.3
			C458.7,106.1,458.7,106.3,458.6,106.4z"/>
		<path class="st45" d="M561.9,204.2c0,0-22.4,4.6-28-3.8S519,166.5,519,166.5l-24.5,8.3c0,0,1.7,20.3,5.4,36.9
			c2.7,12,7,40.7,8.6,42.5c3.8,4.1,60.7,2.3,60.7,2.3c0.5-8.7,0-17.5-1.5-26.1C566.3,221.5,564.3,212.8,561.9,204.2z"/>
		<path class="st46" d="M523.9,242.8c-0.1,0.1-0.2,0.2-0.4,0.1c0,0,0,0,0,0l-0.9-0.3c-0.2,0-0.2-0.2-0.2-0.4l0,0
			c0.1-0.1,0.2-0.2,0.4-0.1l0.9,0.3C523.8,242.5,523.9,242.6,523.9,242.8z"/>
		<path class="st47" d="M512.3,171.7l2.7-10.2l-7,1.2l3.9,9h-0.7l-4.2-9.5l8.9-1.6l-2.9,11C512.8,171.7,512.6,171.7,512.3,171.7z"/>
		<path class="st36" d="M510.6,170.7c-0.3,0.8,0,1.6,0.8,2c0,0,0,0,0.1,0l0,0c0.8,0.3,1.6-0.1,1.9-0.9c0,0,0,0,0,0l0,0
			c0.3-0.8,0-1.6-0.8-2c0,0,0,0-0.1,0l0,0C511.8,169.5,510.9,169.9,510.6,170.7C510.6,170.7,510.6,170.7,510.6,170.7L510.6,170.7z"
			/>
		<path class="st45" d="M530.3,123c0,0-12.9-2-13.4,15c-0.2,7.2-2.8,24.1-2.8,24.1l-5.5,0.7c0,0,2-23.7,2.4-26.6s6.3-15.7,6.3-15.7
			L530.3,123z"/>
		<polygon class="st36" points="467.3,122.6 462.6,126.8 461.7,123.1 		"/>
		<path class="st21" d="M547.1,192c-8.7-18.7-15.2-22.3-21.4-33.1c-2.6-4.6-8.9-24.5-5.8-31.1c2.5-5.4,6.7-6.8,16.4-1.6
			c13.2,7,42,71.6,30.8,72.8C557.2,198.3,547.6,193.1,547.1,192z"/>
		<path class="st24" d="M482.1,213.4c1.5-1.3,12.9,0.3,12.9,0.3l11.5,5.3c0,0,4.4,8,2.5,10.1c-1.3,1.4-5.7,3.6-7.2,4
			c-1.8,0.4-3.6,0.4-5.4,0c-2-0.7-6.6-5.3-6.6-5.3s0,4.5,0.1,5.2c-0.2,1.2-0.1,2-0.7,2.5s-2.3,0.3-3.1,0.5c-0.1,0-0.3-0.3-0.4-0.3
			c-0.4,0-0.7-0.2-0.9-0.5c-0.3-0.4-0.7-0.7-1.1-1l-0.8-0.8c-0.1-0.1-0.3-0.2-0.3-0.3c-0.1-0.6-3.4-2-3.4-2
			c-0.8-0.7-1.6-1.5-2.2-2.4c-0.5-2.3,0-2.7,0-2.7c-0.3-0.2-0.6-0.5-0.9-0.7C474.9,222.9,477,217.7,482.1,213.4z"/>
		<path class="st24" d="M410.4,194.3c1.5-1.3,12.9,0.3,12.9,0.3l11.5,5.3c0,0,4.4,8,2.5,10.1c-1.3,1.4-5.7,3.6-7.2,4
			c-1.8,0.4-3.6,0.4-5.4,0c-2-0.7-6.6-5.3-6.6-5.3s0,4.5,0.1,5.2c-0.2,1.2-0.1,2-0.7,2.5s-2.3,0.3-3.1,0.5c-0.1,0-0.3-0.3-0.4-0.3
			c-0.4,0-0.7-0.2-0.9-0.5c-0.3-0.4-0.7-0.7-1.1-1l-0.8-0.8c-0.1-0.1-0.3-0.2-0.3-0.3c-0.1-0.6-3.4-2-3.4-2
			c-0.8-0.7-1.6-1.5-2.2-2.4c-0.5-2.3,0-2.7,0-2.7c-0.3-0.2-0.6-0.5-0.9-0.7C403.2,203.9,405.3,198.6,410.4,194.3z"/>
		<path class="st48" d="M490.7,222.4c0,0-6.1,2.4-5.7,5.1s1.7,7.8,1.7,7.8s-2.8-6.5-2.5-8.7C484.5,223.8,490.2,222.7,490.7,222.4z"
			/>
		<path class="st48" d="M484.7,221.7c0,0-3.5,4-3.1,6.4s0.9,4.6,0.9,4.6s-2.4-4.2-2-5.4c0.2-0.9,0.6-1.7,1.2-2.4
			C482.4,223.9,484.7,221.7,484.7,221.7z"/>
		<path class="st48" d="M477.2,226c-0.2-0.1-0.5-0.3-0.6-0.5c0-0.2,0-0.4,0-0.5c0.2-0.9,0.6-1.8,1.2-2.6c1-1.1,2-2.1,3.2-2.9
			C480.9,219.5,477.3,223.6,477.2,226z"/>
		<path class="st21" d="M553.5,189.1c-6,2.9-11.8,6.1-17.4,9.8c-10,6.7-22,14.8-27.3,19.9c-2.6,2.5,4.6,6.8,5.8,8.7
			c3.4,5.6,18.5,1.8,33.7-8.4c7.1-4.8,16.4-12.9,20.3-17.8c3-3.8,3.8-7,2.6-11.1"/>
		<path class="st49" d="M453.6,95.3c0,0-10.6,1.4-13.5-0.5c-1.8-1.3-3.1-3.1-3.8-5.2l20.2-3.8L453.6,95.3z"/>
		<path class="st49" d="M511.5,85.1c0,0-21.7-1.7-28.1-2.2c-18.8-1.4-31.4,5.5-31.4,5.5s1-30.9,29.4-33.1
			C517.5,52.5,511.2,84.3,511.5,85.1z"/>
		<path class="st50" d="M485.2,82.7c0,0-8.4,10.1-26.8,9.2c-6.3-0.3-11-4.3-15.5-3.5s-6.7,1.2-6.7,1.2l15.5-6.5
			c4.8-2.1,9.9-3.4,15.1-3.8C474.6,78.8,485.2,82.7,485.2,82.7z"/>
		<path class="st51" d="M514.2,212.8l-10.7,3.7c0.7,2.7,1.3,5.5,1.7,8.3c0.5,4,1.5,8.3,1.5,8.3l12.2-1.8c-0.4-3.6-1.1-7.2-2.1-10.7
			C515,215.6,514.2,212.8,514.2,212.8z"/>
		<path class="st52" d="M512.9,419.1c0,0,1.1,6.6,0.2,7.9s13.6,5.3,13.6,5.3s0.4-8,0.1-9.3c0,0-5.1-1.7-6.3-2
			C519.4,420.8,512.9,419.1,512.9,419.1z"/>
		<path class="st53" d="M569.2,330c-1.2-13.3,1.2-45.5,1.3-49.2c0-3.2,0-26.3-0.5-32.6l-36.7-0.4l0,0H506c0,0-0.4,96.1,3.7,168.4
			l18.6,3.1l7.4-139.2l2.7,0.2c7,49.1,13.3,140.5,13.3,140.5s19.4,5.2,19.4,4.5S572.7,369.3,569.2,330z"/>
		<path class="st54" d="M553.8,421.3c0,0,1.1,6.6,0.2,7.9s13.6,5.3,13.6,5.3s0.4-8,0.1-9.3c0,0-5.1-1.7-6.3-2
			C560.3,423,553.8,421.3,553.8,421.3z"/>
		<path class="st55" d="M491.1,442.8c7-3.1,13.1-8.2,16.2-10.9l-1.7-31.1l25.4-1.3l-1.7,41l0,0l0.3,9.3l-30,2.8l-17.1-0.5
			C482.5,452.2,481.3,447.1,491.1,442.8z"/>
		<path class="st55" d="M551,436.1c0.2-0.4,0.6-1.6,1.1-2.8l-3.2-35.1l25,0.4l-2.6,35.3c0.6,1.3,1.3,2.5,1.6,3.3
			c1.3,3,5.3,16.5,5.3,16.5c-4.9,2.7-10.3,4.2-15.9,4.4c-5.8,0.1-11.5-1.1-16.6-3.7C545.6,454.3,550.5,437.1,551,436.1z"/>
		<path class="st56" d="M562,455.2c-5.5,0.1-10.9-1-15.9-3.4l-0.7,2.5c5.2,2.6,10.9,3.9,16.6,3.7c5.6-0.2,11.2-1.7,16.2-4.3
			c0,0-0.3-1-0.7-2.5C572.7,453.6,567.4,455,562,455.2z"/>
		<path class="st56" d="M529.9,452l0.1-3.1c0,0-23.4,1.3-31.2,2.4c-6.9,0.9-16.9-0.5-16.9-0.5l0.1,1.9c7,0.5,7.3,0.9,14.3,0.9
			c1.7,0,17.4-0.5,23.8-0.5C522.6,453,529.9,452,529.9,452z"/>
		<path class="st57" d="M505.9,248.4l10.7-0.2c0,0-2.9,9.4-5,12.9c-1.7,2.8-3.6,5.4-5.6,8L505.9,248.4z"/>
		<path class="st57" d="M545.3,248.3l14.8,0.1l0.3,23.8c0,0-6.6-5.7-10-10.4S545.3,248.3,545.3,248.3z"/>
		<polygon class="st58" points="570,248.2 505.9,248.4 505.9,243.3 570,243.1 		"/>
		<rect x="534.1" y="242.4" class="st45" width="2.3" height="6.9"/>
		<rect x="561" y="242.8" class="st57" width="2.3" height="6.9"/>
		<rect x="516.5" y="242.6" class="st45" width="2.3" height="6.9"/>
		<path class="st59" d="M-145.3,202.4c2.7,4.7,16.9,5.3,21.4,2.4c0,0,21.3-25.6,30-32.3c13.1-10.1,42.6-25.6,58.2-30.6
			c10.1-3.2,41.9-5.5,41.9-5.5c4.5-3,5.9-9,3.2-13.7l0,0c-2.7-4.7-8.1-3.8-12.6-1c0,0-28.4,3.1-37.4,6.2
			c-16.9,5.7-49,22.7-63.5,33.5c-8.7,6.5-30.6,31.4-30.6,31.4C-139.2,195.7-148,197.6-145.3,202.4L-145.3,202.4z"/>
		<polygon class="st60" points="44.6,414 218.7,410.2 213.6,251.1 52.2,257.2 		"/>
		<path class="st61" d="M379.2,308.8c6.8-0.9,27.4,0,27.4,0c0.9,0.2,1.7,0.5,2.6,0.7h20.4c28.9,6.9,49.2,37.4,49.2,74.1
			c0,41-22.3,73.8-56.6,75l0,0h-29.3c-35.4,0-64.1-33.9-64.1-75.8C328.7,346.6,349.7,312.6,379.2,308.8z"/>
		<path class="st60" d="M93.9,412.4c0-36.9,23.9-67.5,53.9-74.5h25.6c29.1,7,57.2,38.4,57.2,75.4c0,41.3-30.1,73.4-64.6,74.6l0,0
			h-29.5l3.3-5.1C114.2,471.9,93.9,444.7,93.9,412.4z"/>
		<path class="st62" d="M122.7,337.1c6.8-0.9,27.5,0,27.5,0c29,7.4,50.8,38,50.8,74.5c0,42.1-28.9,76.3-64.5,76.3S72,453.7,72,411.6
			C72,375.1,93.1,340.9,122.7,337.1z"/>
		<path class="st63" d="M123.2,366.1c8.3-2.2,16.9,0,16.9,0c17.9,4.6,31.2,23.4,31.2,45.8c0,25.9-17.8,46.9-39.7,46.9
			s-39.7-21-39.7-46.9C91.9,389.5,103.1,371.5,123.2,366.1z"/>
		<path class="st64" d="M128,399c1.6-0.4,3.3-0.4,4.9,0c5.2,1.3,9,6.8,9,13.3c0,7.5-5.1,13.6-11.5,13.6s-11.5-6.1-11.5-13.6
			C118.9,405.8,122.2,400.6,128,399z"/>
		<polygon class="st65" points="136.3,371.5 127.2,371.4 129.1,395.1 133.7,395.3 		"/>
		<polygon class="st65" points="122.9,453.5 131.9,454.2 131.4,431 126.8,430.5 		"/>
		<polygon class="st65" points="167.5,418.6 167.9,409 145.2,410.4 144.9,415.3 		"/>
		<polygon class="st65" points="95.7,405.2 94.8,414.7 115.6,414.6 116.2,409.7 		"/>
		<polygon class="st65" points="161.8,387.8 155.3,381.1 140.9,399.5 144.1,403.1 		"/>
		<polygon class="st65" points="99.8,436 105.9,443.1 120.9,426 117.9,422.3 		"/>
		<polygon class="st65" points="154.4,444.4 160.8,437.6 143.1,422.6 139.7,426 		"/>
		<polygon class="st65" points="108.1,379.8 101.3,386.2 117.7,401.8 121.3,398.7 		"/>
		<path class="st65" d="M128.1,419.6c0.1,1.2,1.1,2.2,2.4,2.1c1.2-0.1,2.2-1.1,2.1-2.4c-0.1-1.2-1.1-2.2-2.3-2.1
			C129,417.2,128,418.3,128.1,419.6C128.1,419.6,128.1,419.6,128.1,419.6z"/>
		<path class="st65" d="M127.5,405.8c0.1,1.2,1.1,2.2,2.4,2.2c1.2-0.1,2.2-1.1,2.2-2.4c-0.1-1.2-1.1-2.2-2.3-2.2
			C128.4,403.4,127.4,404.5,127.5,405.8z"/>
		<path class="st65" d="M121.2,413.4c0.1,1.2,1.1,2.2,2.4,2.1c1.2-0.1,2.2-1.1,2.1-2.4c-0.1-1.2-1-2.1-2.2-2.1
			C122.1,411,121.1,412.1,121.2,413.4C121.2,413.3,121.2,413.3,121.2,413.4z"/>
		<path class="st65" d="M134.1,411.7c0.1,1.2,1.1,2.2,2.4,2.1c1.2-0.1,2.2-1.1,2.1-2.4c-0.1-1.2-1.1-2.1-2.3-2.1
			C135.1,409.4,134.1,410.5,134.1,411.7z"/>
		<path class="st66" d="M-392.9,203.8c5.6-5.9,48.7-4.4,50.1-5.2l233.8-1.6l21.4-106.2C-1,84.3,167.7,81,202.6,98.4
			c31.4,15.7,99.9,83.2,119.6,94.7c5.6,3.3,11.2,5,18.7,6.6c14.9,3.1,37.7,5.5,84.8,17.5c15.9,4,70.2,26.1,74.3,31.7
			c13.6,18.3,26.3,45.3,28.9,56.7c1.5,6.9-13.3,62.2-18.5,80.6c-2.7,9.8-10.1,19.8-17.8,24.5c-5,2.6-10.2,4.6-15.7,5.8l-271.5-2
			c-3.1-5.6-6.1-13.6-6.1-25.5c0-51-23.1-87.6-64.4-88.8c-43-1.2-72.2,8-79.5,68.6c-3.3,27.7-3.2,42-3,47H-39l-193.4-0.4l-4.5-0.1
			c-1.2-2.7,5.3-110.5-68.4-109.6c-61.5,0.8-55.9,98.5-55.5,101.8c0.2,2.4-2,4.6-3.3,4.3c-4.8-0.8-46-35.8-51.5-42.1
			c-11.1-12.8-5.3-67.6-1-114.8C-412.9,213.7-409.9,221.6-392.9,203.8z"/>
		<path class="st67" d="M-77.3,100.4l83-1.2c11.2,15.9,46.6,96,46.6,96l-142.8-1L-77.3,100.4z"/>
		<path class="st67" d="M27.1,102.9c0.7-1.5,0.9-2.3,1.6-3.7l169.5-0.8c36.4,13.5,124.1,97.8,124.1,97.8l-250.4,0.4
			c0,0-34-61.8-47-89.5C25.6,105.8,26.4,104.3,27.1,102.9z"/>
		<path class="st68" d="M284.8,362.8c17.1-6.4,31.6-10.2,40.4-11.9c46.2-8.7,194.4,1,194.4,1c-2.1,14.3-5.7,25.2-10.5,36.8
			c-43.5,0.1-210.6-1-226.1-1C265.2,387.7,258,372.8,284.8,362.8z"/>
		<path class="st68" d="M204.4,260.7c18.8-20,98.5,2.9,127.7,7.4c29.4,4.5,57.6,3.9,117.2,2.6c50.5-1.1,50.4-7.7,58.5-10.1
			c8,10.1,16.2,29.7,17.8,35c0.6,2.2,2.7,6.9,3.3,12.1l-187,0.2c-19.6-3.6-97.1-6-125.1-18.2C208.7,286,198.7,266.8,204.4,260.7z"/>
		<path class="st69" d="M218.7,264.2c17.1-13.9,81.8,2.7,107.6,7.2c6.1,1.1,20,5.1,16,20c-2.5,9.1-12,8.7-20.3,8.9
			c-28.5,0.9-75.6-7-92.7-14.9C222.2,282,213.5,268.4,218.7,264.2z"/>
		<path class="st69" d="M494.3,287c-5.5-14.3,7.9-19.9,13.9-21.6c0.5-0.1,2.3-0.7,2.7-0.9c7.1,10.1,11.7,21.4,14,27.8
			c-3.2,0.4-6.6,1-9.5,1.3C507.1,294.3,497.7,295.9,494.3,287z"/>
		<path class="st59" d="M356.8,285c0,2,1.5,3.6,3.5,3.7h120c2-0.1,3.5-1.7,3.5-3.7l0,0c0-2-1.5-3.6-3.5-3.7h-120
			C358.4,281.4,356.8,283,356.8,285z"/>
		<path class="st59" d="M364.5,296.9c-0.1,1.9,1.3,3.5,3.2,3.7h109.9c1.9-0.1,3.3-1.8,3.2-3.7l0,0c0.1-1.9-1.3-3.5-3.2-3.7H367.8
			C365.9,293.3,364.4,295,364.5,296.9z"/>
		<path class="st70" d="M386.4,369.3c0,7.1,3.8,12.8,8.6,12.8h65.6c4.7,0,8.6-5.7,8.6-12.8l0,0c0-7.1-3.8-12.8-8.6-12.8H395
			C390.3,356.5,386.4,362.2,386.4,369.3L386.4,369.3z"/>
		<path class="st59" d="M315.6,363.9c4.6,2,7.3,6.8,6.6,11.8c-0.9,5.3-5.9,7.1-8.1,7.6s-27.5,0.4-29.4-3s1.1-10.9,11.6-14.1
			S311.5,362.4,315.6,363.9z"/>
		<path class="st71" d="M296.6,191.4c0,0-77.2-79.3-98.3-82.9s-172.4,0.4-172.4,0.4L65,187.7L296.6,191.4z"/>
		<polygon class="st67" points="118.9,106.4 138,196 123.1,196.3 109.3,106 		"/>
		<path class="st72" d="M175.7,191c0,0-13.9-22.4-25.1-23.1s-52.2-4.7-62.7,6.8c-2.6,2.8,0.9,13.9,0.9,15.7S175.7,191,175.7,191z"/>
		<path class="st73" d="M105.7,105.8h22.7l-2.7-6.8l2.9-0.2l3.1,7h14.7c3,0.1,5.2,2.6,5.1,5.6c-0.1,2.8-2.3,5-5.1,5.1h-40.7
			c-3-0.1-5.2-2.6-5.1-5.6C100.7,108.1,103,105.9,105.7,105.8L105.7,105.8z"/>
		<path class="st74" d="M70.4,196.8c0,0-0.5-2-8.5-15.1c8.6,3.9,27.7,8,49.7,7.5c11.2-0.3,150.4,3.4,171.5-0.9
			c10.4-2.1,13-8.8,13.2-13.4c18.8,15.1,18.7,15.1,33.3,21.7L70.4,196.8z"/>
		<path class="st71" d="M7.8,115.3c10.2,6.4,3.7,39.7-3.3,55c-10.5,0.2-21.1,1.2-28.5,4.2v-0.5c0,0-35.6-1.7-65.7-2.6l7.7-62.6
			C-43.8,108.4-0.9,109.8,7.8,115.3z"/>
		<path class="st74" d="M-54.5,186.8c0.3-3.1,1-6.2,2.6-7.6c7.5-6.5,26.2-8.4,44.6-8.7c16.9-0.2,33.5,1,40.7,1.3
			c1.5,0.1,3.1,0.4,4.6,0.9c8.2,13.6,14.2,23.9,14.2,23.9h-85.7c-12.5-0.2-21-0.6-21-1.1C-54.7,192.6-54.7,189.7-54.5,186.8z"/>
		<path class="st73" d="M-98.1,196.2l150.4,0.1c0,0-27.5-69-40.2-89.9c-0.8-1.3-3.6-5.6-5.9-7.2c-2-1.4-7.2-1.4-7.2-1.4l-78.8,0.6
			L-98.1,196.2z M-88,191.6l3.5-19.9l8.6-68.3l70.1-0.9c0,0,5.6-0.4,8,1.1s4.9,5.5,7.1,9.6c12.4,22.6,33,78.5,33,78.5H-88z"/>
		<path class="st75" d="M28.6,185.3c0,0-4.7-14-8.4-18s-36.8-5.4-43.4-1.5s-11,21.3-5.1,29.2s46.7,3.6,50.6,4.2c3,0.6,5.9,1.6,8.7,3
			l30.3-0.6l-12.4-20.9L28.6,185.3z"/>
		<path class="st73" d="M198,98.4c3.3,1.3,6.6,2.7,9.7,4.4c0,0-175.3-6.4-179.4-0.7c-3.1,4.3,32.7,82.3,45.3,88.6
			c11.8,5.9,244.4-0.3,244.4-0.3c6.1,3.4,12.9,6.2,12.9,6.2s-188.4,10.1-251,3.5c-2.5-0.3-7.5-1.7-9.5-3.3
			C53.4,183,38,135.9,25,108.1c-1.7-3.7-3.1-5.9-1.6-8.5c1-1.8,58.2-4.8,98.1-3.9C140.6,96.1,198,98.4,198,98.4z"/>
		<path class="st76" d="M507.3,391c-2.9,9.5-8.9,17.3-15.7,21.5c-2,1.3-6.7,2.7-13.6,4.3l-177,9.8c0,0-44.5-0.8-57.9-2
			c-10-0.9-31-3.5-39.1-9.8c-3.6-2.8-5.7-25.3-5.5-40.7c0,0,5.6,8.1,35.7,15.9c59.6,15.5,245.3,11.1,245.3,11.1
			C485.4,399.7,502.2,393.4,507.3,391z"/>
		<path class="st77" d="M217.5,264.3c2.6-1.9,5.5-3.3,8.6-3.9c-0.8,0.4-1.6,1-2.3,1.5c-5.2,4.3,3.5,17.9,10.5,21.1
			c17.1,7.9,64.2,15.9,92.7,14.9c3.4,0,6.7-0.2,10-0.6c-4.2,3-10.6,2.8-16.4,3c-28.5,0.9-75.6-7-92.7-14.9
			C221,282.2,212.3,268.6,217.5,264.3z"/>
		<path class="st78" d="M405.7,288.8c0,4,8.1,7.2,18.2,7.2s18.2-3.2,18.2-7.2s-8.1-7.2-18.2-7.2S405.7,284.9,405.7,288.8z"/>
		<path class="st79" d="M411,288.6c0,2.8,5.8,5.1,12.9,5.1s12.9-2.3,12.9-5.1s-5.8-5.1-12.9-5.1S411,285.8,411,288.6z"/>
		<path class="st59" d="M499.9,371.1c-1-6.1,3.4-11.3,6.6-11.8c3.8-0.2,7.6,0.4,11.2,1.9c-0.3,6.6-3.2,13.3-5.2,19.7
			c-2.6,0-6.4-0.1-6.5-0.1C503.9,380.2,500.8,376.4,499.9,371.1z"/>
		<path class="st80" d="M199.4,262.4l-565.4-17.3c0,0,5.4-5.5,5.7-9.4s-4.5-6.3-3.7-7c5.4-5.2,564.8,23.7,570.7,26
			C206.7,254.7,200.4,261.6,199.4,262.4z"/>
		<path class="st76" d="M-38.8,378.1h92.9c-0.4,19.8-0.3,32.1-0.2,38.5h-94.1l-193.9-2.1l-4.7-0.3c-0.4-2.1-1-18-0.8-39.6l6.8,0.5
			L-38.8,378.1z"/>
		<path class="st81" d="M-243.5,416c0,5.2,4.2,9.4,9.4,9.4c0,0,0,0,0,0l279.7-1.6c5.2,0,9.4-4.2,9.4-9.4c0,0,0,0,0,0l0,0
			c0-5.2-4.2-9.4-9.4-9.4c0,0,0,0,0,0l-279.7,1.6C-239.2,406.7-243.5,410.9-243.5,416L-243.5,416z"/>
		<path class="st81" d="M274.9,416.4c0,5.8,4.7,10.5,10.5,10.5c0,0,0,0,0,0h221.3c5.8,0,10.5-4.7,10.5-10.5l0,0
			c0-5.8-4.7-10.5-10.5-10.5H285.4C279.6,405.9,274.9,410.6,274.9,416.4C274.9,416.4,274.9,416.4,274.9,416.4z"/>
		<path class="st82" d="M-297.5,279.7c69.3,0,67.5,82.6,66.1,86.9l190.3,1.5l89.7,3.9c0.6-3.4,1.6-10.1,3-19.6
			c2.8-19.9,16.9-88.3,76.6-87.7c83.7,0.9,75.8,113.4,72.3,113.5c-2.7,0.1-5.7-41.2-23.4-61.2c-11.9-13.5-34-16.9-53.4-16.9
			c-43.2,0-60.2,26.1-66.2,54.9c-2.1,10.3-2.1,11.5-2.4,17.5l0,0l-0.9,5.6l-161.4-3l-130.1-0.4c-0.7,0.2-1.5,0.2-2.2-0.1
			c0,0-9.5-35.7-21.8-49.8c-10.1-11.5-26.2-19.6-42.7-19.6c-36.8,0-50,34.5-53.9,61.5c-1.7,11.6-3.6,21.5-3.6,21.5
			S-388.1,279.7-297.5,279.7z"/>
		<path class="st75" d="M202.4,399.3c1.1-15.7,1.2-31.4,0.1-47.1c-1.1-14.6-3.2-27.5-6.4-38c-4-13.3-9.5-23.2-16.6-29.3
			c-26.8-23.5-44.8-22.1-53.4-21.5c-1.2,0.1-2.2,0.2-3,0.2c-3.2,0-15.4,1.6-28.9,9c-15.9,8.4-27.9,22.7-33.5,39.8
			c-11.7,35.2-15.2,53.2-15.9,57.1l-275.2-3.7c-0.1-4.5-0.6-23.5-3.9-34.7c-2.6-8.6-6.3-16.9-10.9-24.7
			c-6.4-10.6-13.7-17.8-21.6-21.3c-18.9-8.4-38.8-9.3-56.2-2.8c-19.2,7.2-27,17.3-31.7,23.4c-8.5,10.9-11.4,34.6-11.8,42
			c-0.4,7.8,3.9,39.5,4.1,40.8l1.8-0.3c0-0.3-4.5-32.8-4.1-40.5c0.3-7.3,3.2-30.3,11.4-40.9c4.6-5.9,12.2-15.7,30.9-22.8
			c17-6.4,36.4-5.4,54.9,2.7c20.4,9,30.4,41.1,31.5,44.7c3.6,12.2,3.9,34.8,3.9,35.1v0.9l278.6,3.8l0.1-0.9c0-0.2,2.8-17.8,16-57.6
			c5.5-16.6,17.2-30.4,32.6-38.7c12.2-6.6,24.1-8.8,28-8.8c0.9,0,2-0.1,3.2-0.2c8.4-0.6,25.9-1.9,52.1,21
			c15.3,13.4,20.6,43.3,22.3,66c1.1,15.6,1.1,31.2-0.1,46.8L202.4,399.3z"/>
		<path class="st76" d="M45.5,396.2c0-0.2,0.9-22.9,1.4-30.4c0.2-3.5,11.9-59.7,18-72.9c6.8-14.9,14.6-31.8,17.7-42.4
			c5.9-20.6-9.3-33.9-9.9-35.1l-0.1-0.1L55.9,192l-1.6,1.3l16.6,23.2c0.8,1.6,15.3,14.1,9.7,33.4c-3,10.5-10.8,27.3-17.6,42.1
			c-6.7,14.6-18,69.9-18.2,73.7c-0.5,7.5-1.3,30.2-1.4,30.4L45.5,396.2z"/>
		<path class="st76" d="M212.9,256.6l1.8-3.3c-1-0.6-24.4-14.7-33.1-18.1c-27.5-10.8-111.9-28.3-115.4-29l-0.7,3.7
			c0.9,0.2,87.6,18.1,114.9,28.8C188.8,242.1,212.7,256.5,212.9,256.6z"/>
		<path class="st80" d="M525.2,327.5c0,0-26.8,0.3-29.8,0.3s-147.2,0-153.9,0.4s-81.1-10.7-89.3-13s-4.1-6.3,16.4-5.1
			s57,9.4,77.1,8.2s147.6,0,147.6,0l34.5-1.1L525.2,327.5z"/>
		<path class="st83" d="M441.7,230.7c-4.9,0-12.8-4.9-12.8-4.9s-1.9-4,7.6-3.2s17.9,5.6,12.9,7.2S441.7,230.7,441.7,230.7z"/>
		<path class="st83" d="M436.2,234c-1.9,0-5-1.9-5-1.9s-0.7-1.6,3-1.2s6.9,2.2,5,2.8C438.2,234,437.2,234.1,436.2,234z"/>
		<path class="st84" d="M56.1,372.1c0.3-6,0.3-7.3,2.4-17.5c6-28.8,22.9-54.9,66.2-54.9c19.4,0,41.5,3.4,53.4,16.9
			c14.4,16.4,19.1,47,21.8,57.5c-0.2-0.3-0.3-0.4-0.3-0.4c-0.1,6.1,0.2,13.4,0.8,20c-5.6-28.5-24.8-50.8-49-57.1
			c0,0-20.7-0.9-27.5,0c-29.7,3.8-50.8,38-50.8,74.5c0,0.6,0,1.2,0,1.8L55,413.4c-0.1-6.9-0.1-18.5,0.3-35.7L56.1,372.1z"/>
		<path class="st85" d="M23.8,108.1c13,27.8,28.4,74.9,45.4,88.7c2,1.6,7,3.1,9.5,3.3c62.7,6.7,251.9-3.5,251.9-3.5
			c-4.7-1.8-9.3-3.9-13.8-6.2c0,0-1.1-0.8-2.1-1.4c-18.6-17.4-75.1-68.3-108.3-86.3h0.2c-1.2-0.6-2.4-1.2-3.5-1.7c-2-1-4-1.9-6-2.7
			h-0.1c0,0-57.4-2.3-76.5-2.7c-40-0.8-97.1,2.1-98.1,3.9C20.8,102.1,22.1,104.4,23.8,108.1z M42.5,116.9c0,0,68.7-3.6,109.8,12.7
			c-4.1-9.5-6.9-16.4-6.9-16.4s61.7,10.4,96.3,26.6c31,14.4,63.1,50.3,63.1,50.3c-3.9-0.7-39.8,3.1-57.2,3.1
			c-10,0-25.3,0.4-39.1-0.4c-15.4,1.1-35.1,2.6-47.3,2.6c-24.5,0-75.8,1.8-84.2-9.2S42.5,116.9,42.5,116.9z"/>
		<path class="st86" d="M295.6,174c1.9,6.9,38.8,23.8,20.7,23.9s-20.1-8.3-41.6,0.1s51.4,35.5,97.6,49.9s-18.3,10.9-76.7-20.4
			s-27.9-11-38.9-9.1s-77.5,3.2-54.3-12.3s-3.8-6.3-4.3-26.6s0.1-27.9,20.1-16.5s19.8,36.3,27.4,16.5s-27.5-32.3-11.3-35.8
			S290.2,154.6,295.6,174z"/>
		<path class="st86" d="M349.6,211.4c0,0,84.6,18.7,89.9,34.6s-39.3-7.1-39.3-7.1s-4.6-0.6,12,21.2c13.9,18.3-27.6,0.6-27.6,0.6
			l-68-38.5c0,0,10.8-6.8,16.7-9.2S349.6,211.4,349.6,211.4z"/>
		<ellipse class="st20" cx="347.4" cy="532.2" rx="58" ry="8.8"/>
		<path class="st87" d="M295.4,450.2l12.7,77.5c0,5.4,17.6,9.9,39.3,9.9s39.3-4.4,39.3-9.9l12.8-79.3L295.4,450.2z"/>
		<path class="st88" d="M347.4,537.8c-22.2,0-39.5-4.5-39.5-10.1l-12.7-77.5c0-0.1,0-0.2,0.1-0.2c0.1-0.1,0.1-0.1,0.2-0.1l104-1.8
			l0,0c0.1,0,0.2,0,0.2,0.1c0.1,0.1,0.1,0.1,0.1,0.2l-12.8,79.3C386.9,533.3,369.6,537.8,347.4,537.8L347.4,537.8z M295.8,450.5
			l12.6,77.2c0,5.2,17.9,9.6,39,9.6s39-4.4,39-9.6l12.7-79L295.8,450.5L295.8,450.5z"/>
		<path class="st89" d="M330.1,498.9c-2.2,0-4.7,1-7.8,3.4l2.6,30c-0.3,0-0.7,0-1,0c-4.8,0-10.5-3.1-10.5-3.1l-4.7-29.9
			c-0.4-0.2-0.9-0.4-1.4-0.4h-0.3c-1.1,0.1-2.2,0.7-2.9,1.5l4.4,27.1c0,5.2,17.9,9.6,39,9.6c5.1,0,10.1-0.3,15.1-0.8
			c19.7-2.7,22-22.7,22-22.7l2-13.8c-2,0.4-3.8,1.6-4.8,3.5c-1.8,2.8-3.9,4.9-6.7,4.9c-2,0-4.2-1-6.9-3.6c-3.1-3-5.8-4.4-8.2-4.4
			c-2.7,0-5.2,1.6-8,4.2c-1.6,1.6-3.8,2.6-6.1,2.7c-3.2,0-6-2-7.9-4c-2.4-2.5-4.7-4.4-7.8-4.4L330.1,498.9z"/>
		<path class="st88" d="M386.6,527.8c-0.2,3.9-9.3,7.2-22.4,8.8C377.3,535,386.4,531.7,386.6,527.8z M386.6,527.8L386.6,527.8z
			 M386.6,527.8L386.6,527.8z M386.6,527.8L386.6,527.8z M386.6,527.8L386.6,527.8z M386.6,527.8L386.6,527.8z M386.6,527.8
			L386.6,527.8z M390.7,502.4l-4.1,25.4l0,0L390.7,502.4z M303.9,500.6l-0.2,0.3l4.4,26.9c0,5.4,17.6,9.9,39.3,9.9
			c4.6,0,9-0.2,13.1-0.6c0.6-0.2,1.2-0.4,1.8-0.5h0.2c-5,0.5-10.1,0.8-15.1,0.8c-21.1,0-39-4.4-39-9.6L303.9,500.6L303.9,500.6z"/>
		<path class="st90" d="M296.1,452.5l2.2,13.2c0-2,0.4-7.5,4.9-7.5c0.6,0,1.3,0.1,1.9,0.3c0,0,16.3,4.9,41.5,4.9
			c11.1,0,22.2-1,33.2-2.9c0.4-0.2,0.9-0.3,1.4-0.4c0.6,0,1.3,0.3,1.5,1.4c0.3,2.1,2.1,3.7,4.2,3.8c0.4,0,0.9-0.1,1.3-0.2h0.1
			c0.5,0,3.3,0.4,2.1,9.5l-3.7,25.4c0.2,0,0.3,0,0.5,0c1.4,0,2.7,0.7,3.5,1.9l8-49.4c-1.9,0.9-3.9,1.6-5.9,2.2
			c0.2,0.6,0.2,1.2,0.3,1.9c0,2.8-1.5,5.1-3.4,5.1s-3.4-2.3-3.4-5.1v-0.1c-10.4,2.4-23.9,3.9-38.7,3.9
			C325.5,460.5,306.4,457.3,296.1,452.5L296.1,452.5z"/>
		<path class="st91" d="M364.2,536.6c-1.2,0.2-2.5,0.3-3.7,0.4l0,0C361.8,536.9,363,536.7,364.2,536.6z M386.6,527.8L386.6,527.8z
			 M386.6,527.8L386.6,527.8z M386.6,527.8L386.6,527.8z M386.6,527.8L386.6,527.8z M398.7,452.5l-0.3,0.1l-8,49.4l0.2,0.3
			L398.7,452.5L398.7,452.5z M295.8,452.4l2.3,14.1h0.2c0,0,0-0.3,0-0.8l-2.2-13.2L295.8,452.4L295.8,452.4z"/>
		<path class="st92" d="M387,500c-0.2,0-0.3,0-0.5,0l-2,13.8c0,0-2.4,19.9-22,22.7c13.9-1.5,23.8-4.9,23.8-8.8l4.1-25.7
			C389.7,500.7,388.4,500,387,500z"/>
		<path class="st91" d="M390.5,501.9l-4.1,25.7c0,3.9-10,7.3-23.8,8.8h-0.2c-0.6,0.1-1.2,0.2-1.8,0.5c1.3-0.1,2.5-0.2,3.7-0.4
			c13.1-1.6,22.2-4.9,22.4-8.8l0,0l0,0l0,0l4.1-25.4L390.5,501.9L390.5,501.9z"/>
		<path class="st93" d="M390.7,457c0,2.8-1.5,5.1-3.4,5.1s-3.4-2.3-3.4-5.1s1.5-5.1,3.4-5.1S390.7,454.2,390.7,457z"/>
		<path class="st88" d="M387.3,462.4c-2,0-3.7-2.4-3.7-5.4s1.6-5.4,3.7-5.4s3.7,2.4,3.7,5.4S389.3,462.4,387.3,462.4z M387.3,452.2
			c-1.7,0-3.1,2.2-3.1,4.9s1.4,4.8,3.1,4.8s3.1-2.2,3.1-4.8S389,452.2,387.3,452.2z"/>
		<path class="st87" d="M402.1,438.2c-8.9-5.8-30.1-9.9-54.7-9.9s-45.8,4.1-54.7,9.9h-4.5v7h0.1c1.5,8.5,27.4,15.3,59.2,15.3
			c14.8,0,28.3-1.5,38.7-3.9v0.1c0,2.8,1.5,5.1,3.4,5.1s3.4-2.3,3.4-5.1c0-0.6-0.1-1.3-0.3-1.9c8.8-2.8,14.1-6.4,14.1-10.4v-6.2
			H402.1z"/>
		<path class="st88" d="M389.4,462c-2,0-3.6-2.3-3.7-5.1c-10.7,2.5-24.3,3.8-38.4,3.8c-31.6,0-57.6-6.7-59.4-15.4h0
			c-0.1,0-0.1-0.1-0.1-0.2v-7c0-0.2,0.1-0.3,0.3-0.3h4.5c9.3-6,30.8-9.9,54.8-9.9s45.5,3.9,54.8,9.9h4.5c0.2,0,0.3,0.1,0.3,0.3v6.2
			c0,4-4.8,7.6-14,10.6c0.1,0.6,0.2,1.1,0.2,1.7C393.1,459.6,391.5,462,389.4,462z M386,456.6h0.3c0,2.7,1.4,4.8,3.1,4.8
			s3.1-2.2,3.1-4.8c0-0.6-0.1-1.2-0.2-1.8c0-0.1,0-0.3,0.2-0.3c0,0,0,0,0,0c8.9-2.9,13.9-6.5,13.9-10.1v-5.9h-4.2
			c-0.1,0-0.1,0-0.1,0c-9.2-6-30.6-9.9-54.6-9.9s-45.4,3.9-54.6,9.9c0,0-0.1,0-0.1,0h-4.3v6.6c0,0,0.1,0.1,0.1,0.1
			c1.5,8.5,27.4,15.1,58.9,15.1c14.2,0,27.9-1.4,38.6-3.9c0.2,0,0.3,0.1,0.3,0.2c0,0,0,0,0,0.1L386,456.6L386,456.6z"/>
		<path class="st87" d="M406.6,438.2c0,8.9-26.5,16.1-59.3,16.1s-59.3-7.2-59.3-16.1s26.5-16.1,59.3-16.1S406.6,429.3,406.6,438.2z"
			/>
		<path class="st88" d="M347.4,454.6c-32.8,0-59.6-7.4-59.6-16.4s26.7-16.4,59.6-16.4s59.6,7.4,59.6,16.4S380.2,454.6,347.4,454.6
			L347.4,454.6z M347.4,422.4c-32.5,0-59,7.1-59,15.8s26.5,15.8,59,15.8s59-7.1,59-15.8S379.9,422.4,347.4,422.4z"/>
		<path class="st94" d="M347.4,423.1c-29.8,0-53.9,6.1-53.9,13.5c0,2.9,3.6,5.5,9.7,7.7c9.7,3.5,25.9,5.8,44.2,5.8
			s34.5-2.3,44.2-5.8c6.1-2.2,9.7-4.9,9.7-7.7C401.2,429.2,377.1,423.1,347.4,423.1L347.4,423.1z"/>
		<path class="st95" d="M347.4,450.5c-17.6,0-34.2-2.2-44.3-5.8c-6.5-2.3-9.9-5.1-9.9-8c0-7.7,23.8-13.8,54.2-13.8
			s54.2,6.1,54.2,13.8c0,2.9-3.4,5.7-9.9,8C381.5,448.3,365,450.5,347.4,450.5z M347.4,423.4c-29.6,0-53.6,5.9-53.6,13.3
			c0,2.6,3.3,5.2,9.5,7.5c10.1,3.6,26.6,5.8,44.1,5.8s34-2.2,44.1-5.8c6.2-2.2,9.5-4.8,9.5-7.5C401,429.3,376.9,423.4,347.4,423.4z"
			/>
		<path class="st95" d="M347.4,450.5c-0.2,0-0.3-0.1-0.3-0.3c0-0.2,0.1-0.3,0.3-0.3c17.6,0,34-2.2,44.1-5.8c0.1,0,0.3,0,0.4,0.2
			c0,0.1,0,0.3-0.2,0.4C381.5,448.3,365,450.5,347.4,450.5L347.4,450.5z"/>
		<path class="st96" d="M303.1,464.1l5.6,35.3c1.1,0.7,2.2,1.5,3.1,2.4c1.6,1.4,3.4,2.8,5.6,2.8c1.8-0.1,3.4-0.8,4.7-2l0.3-0.2
			l-3.1-35.1C319.2,467.2,310.7,465.6,303.1,464.1L303.1,464.1z"/>
		<path class="st97" d="M308.6,499.4l4.7,29.9c0,0,5.7,3.1,10.5,3.1c0.3,0,0.7,0,1,0l-2.6-30l-0.3,0.2c-1.3,1.2-3,1.9-4.7,2
			c-2.2,0-4-1.4-5.6-2.8C310.8,500.9,309.7,500.1,308.6,499.4L308.6,499.4z"/>
		<path class="st98" d="M291.7,436c0,0-3.6,9,28.2,13.5c0,0,9.7,0.9-0.5,0.8C307.9,450.2,284.7,443.4,291.7,436z"/>
		<path class="st94" d="M392,456.9c0,1.7-0.9,3.1-2,3.1s-2-1.4-2-3.1s0.9-3.1,2-3.1S392,455.2,392,456.9z"/>
		<path class="st92" d="M391.1,444.2l-1,0.3c-6.9,2.3-16.4,3.9-27.1,4.7l-0.5,0.1c-0.4,0.1-0.8,0.2-1.2,0.3
			c12.4-0.8,23-2.8,30.2-5.3L391.1,444.2L391.1,444.2z"/>
		<g>
			<defs>
				<path id="SVGID_8_" d="M288.9,450.7l2.9,0.1c1.2,0.8,2.4,1.6,3.7,2.2c0,0-11,50.1,20.9,44.6s69.7-44.3,73.5-43.7
					s2.6,4.4,0.5,8.8s-31,49.5-77.1,44.8c0,0-20.1,1.9-24.1-17S288.9,450.7,288.9,450.7L288.9,450.7z"/>
			</defs>
			<clipPath id="SVGID_9_">
				<use xlink:href="#SVGID_8_"  style="overflow:visible;"/>
			</clipPath>
			<g class="st99">
				<path class="st100" d="M316.2,505.5c-4.2,0.1-8.4-0.6-12.4-2.1c-22.1-8.9-11.2-51.4-10.8-53.2c0.1-0.7,0.8-1.2,1.5-1
					c0,0,0.1,0,0.1,0c0.7,0.3,1.1,1.1,0.9,1.9c-0.1,0.4-10.6,41.6,9.1,49.6c21.3,8.6,65.7-11,83.6-43.6c0.3-0.6,1-0.9,1.6-0.6
					c0.1,0,0.1,0.1,0.2,0.1c0.6,0.5,0.8,1.4,0.4,2C375.1,486.7,340.2,505.5,316.2,505.5z"/>
				<path class="st101" d="M316.2,505.7c-4.3,0.1-8.5-0.6-12.5-2.2c-22.3-9-11.4-51.7-10.9-53.6c0.2-0.9,1-1.4,1.9-1.2
					c0,0,0.1,0,0.1,0c0.9,0.3,1.3,1.3,1.1,2.2c-0.1,0.4-10.5,41.4,8.9,49.3c3.7,1.4,7.7,2.1,11.7,2c22.4,0,56.2-17.4,71.6-45.5
					c0.4-0.8,1.3-1.1,2.1-0.7c0,0,0.1,0,0.1,0.1c0.7,0.6,1,1.6,0.5,2.4C374.9,487.7,339.6,505.7,316.2,505.7z M294.3,449.3
					c-0.5,0-0.9,0.4-1,0.9c-0.5,1.8-11.3,44.1,10.6,52.9c3.9,1.5,8.1,2.2,12.3,2.1c23.3,0,58.3-17.9,74.2-46.9
					c0.3-0.6,0.2-1.3-0.4-1.7c-0.5-0.3-1.1-0.2-1.4,0.3c0,0,0,0,0,0.1c-15.5,28.3-49.5,45.8-72.1,45.8c-4.1,0.1-8.1-0.6-11.9-2.1
					c-19.9-8-9.4-49.5-9.3-49.9c0.2-0.6-0.1-1.3-0.7-1.5C294.5,449.3,294.4,449.3,294.3,449.3z"/>
				<path class="st36" d="M316.3,504.2c-4.1,0.1-8.3-0.6-12.1-2.1c-21.1-8.5-10.1-51.2-10-51.6c0-0.1,0.1-0.2,0.2-0.1
					c0.1,0,0.2,0.1,0.1,0.2c0,0,0,0,0,0c-0.1,0.4-11,42.8,9.8,51.2c3.8,1.5,7.9,2.2,12,2.1c23.4,0,57.7-18.5,72.9-46.3
					c0.1-0.1,0.2-0.1,0.3-0.1c0.1,0.1,0.1,0.2,0.1,0.3c0,0,0,0,0,0C374.3,485.7,339.9,504.2,316.3,504.2z"/>
			</g>
		</g>
		<path class="st102" d="M299.6,496.1c0,0,6.1,6.1,18.2,5.2l1.6,0.9c-0.7,0.3-1.1,1.1-0.9,1.9c0.3,1.5,1.3,1.6,1.3,1.6l-0.9,1
			c0,0-13.6,2.3-22.5-6.1l0.2-1.3C296.9,497.8,298.1,496.5,299.6,496.1z"/>
		<path class="st103" d="M314.5,507.4c-5.3,0-12.8-1.1-18.4-6.5c-0.1-0.1-0.1-0.2-0.1-0.3l0.2-1.3c0,0,0.5-3,3.3-3.5
			c0.1,0,0.2,0,0.3,0.1c0.1,0,5.4,5.2,15.6,5.2c0.8,0,1.5,0,2.3-0.1c0.1,0,0.1,0,0.2,0l1.6,0.9c0.1,0.1,0.2,0.2,0.2,0.4
			c0,0.1-0.1,0.3-0.3,0.3c-0.1,0-0.8,0.3-0.6,1.5s0.9,1.3,0.9,1.3c0.1,0,0.2,0.1,0.3,0.2c0.1,0.1,0,0.3-0.1,0.4l-0.9,1
			c-0.1,0.1-0.1,0.1-0.2,0.1C317.5,507.3,316,507.4,314.5,507.4z M296.8,500.5c5.4,5.1,12.6,6.2,17.7,6.2c1.4,0,2.8-0.1,4.1-0.3
			l0.4-0.5c-0.6-0.4-0.9-1-1-1.7c-0.2-0.7,0-1.4,0.5-1.9l-1-0.5c-0.8,0-1.5,0.1-2.3,0.1c-9.7,0-15-4.4-16-5.3
			c-1.3,0.4-2.3,1.5-2.5,2.8L296.8,500.5z"/>
		<path class="st104" d="M298.8,497.7c0,0,6.7,5.3,15.4,5.4s-2.4,3.9-10.7,0.1S298.5,497.7,298.8,497.7z"/>
		<path class="st105" d="M391.6,444.4c-9.7-3.5-25.9-5.8-44.2-5.8s-34.5,2.3-44.2,5.8c9.7,3.5,25.9,5.8,44.2,5.8
			S381.8,447.9,391.6,444.4z"/>
		<path class="st105" d="M347.4,450.2c18.3,0,34.5-2.3,44.2-5.8L347.4,450.2z"/>
		<path class="st106" d="M343.9,439c-16.2,0.1-30.4,2.2-39,5.3c6.2,2,12.7,3.4,19.2,4.1c4.1-6.9,19.8-9.1,19.8-9.1L343.9,439
			L343.9,439z"/>
		<path class="st107" d="M371,440.2c4.5,1.4,9,3.8,1.1,6.7l18-2.4l0.5-0.2C384.3,442.4,377.7,441,371,440.2L371,440.2z"/>
		<path class="st108" d="M369.4,439.8c0.5,0.1,1.1,0.3,1.7,0.5c6.7,0.7,13.3,2.1,19.7,4.1l-0.5,0.2l0,0l1-0.3
			C384.1,442,376.8,440.5,369.4,439.8L369.4,439.8z"/>
		<path class="st107" d="M390.2,444.6L390.2,444.6l-18,2.4c-3,1-6,1.8-9.1,2.4C373.8,448.5,383.3,446.8,390.2,444.6L390.2,444.6z"/>
		<path class="st109" d="M369.8,218.5c3.5,5.5,51.4,13.2,63.9,21.2c14.8,9.4,4.2-8.8,1.1-14.8c-2-3.6-5.2-6.4-9.1-7.8
			c0,0,0.9,5.7,5.5-0.7s-8.8-13.9-19.2-15.8c-16.8-3-78.4,1.1-62.2,4.3C373.9,209.8,366.4,213,369.8,218.5z"/>
		<path class="st110" d="M423.5,198.1c0,0-10.3-1.9-11.1,0.7c-2.2,7.3,3,7.1,10.1,5c0,0,1.3,4.4,7.3,8.7"/>
		<path class="st111" d="M423.5,198.1c-2.2-0.3-4.5-0.4-6.8-0.4c-1.1,0-2.2,0.1-3.2,0.5c-0.2,0.1-0.4,0.2-0.6,0.4
			c-0.1,0.2-0.2,0.4-0.3,0.6c-0.2,0.5-0.3,1.1-0.3,1.6c-0.2,1,0,2.1,0.6,2.9c0.8,0.7,1.8,1,2.9,0.9c2.2-0.1,4.5-0.5,6.6-1.1l0.3-0.1
			l0.1,0.3c0.3,0.9,0.7,1.7,1.2,2.5c0.5,0.8,1.1,1.6,1.7,2.3c0.6,0.7,1.3,1.4,1.9,2.1s1.4,1.3,2.1,1.9c-0.8-0.5-1.6-1.1-2.3-1.7
			c-1.5-1.2-2.8-2.7-3.9-4.3c-0.6-0.8-1-1.7-1.4-2.6l0.4,0.2c-2.2,0.7-4.5,1.1-6.8,1.3c-0.6,0-1.2-0.1-1.8-0.2
			c-0.3-0.1-0.6-0.2-0.9-0.4c-0.3-0.2-0.5-0.4-0.8-0.6c-0.8-1-1-2.3-0.8-3.5c0.1-0.6,0.2-1.2,0.4-1.7c0-0.1,0.1-0.3,0.1-0.4
			c0.1-0.2,0.2-0.3,0.3-0.5c0.2-0.2,0.5-0.4,0.8-0.5c1.1-0.3,2.3-0.5,3.5-0.4C419.1,197.3,421.3,197.6,423.5,198.1z"/>
	</g>
</g>
<path class="st112" d="M133,548.5h350c53.6,0,97-43.4,97-97v-333c-0.1-53.6-43.6-96.9-97.1-96.9c-2.9,0-5.8,0.1-8.7,0.4L108.1,55.5
	c-51.9,4.8-90.8,49.7-88,101.7l16,299.5C38.9,508.1,81.4,548.5,133,548.5z"/>
</svg>
