<?xml version="1.0" encoding="utf-8"?>
<!-- Generator: Adobe Illustrator 25.2.3, SVG Export Plug-In . SVG Version: 6.00 Build 0)  -->
<svg version="1.1" id="Layer_1" xmlns="http://www.w3.org/2000/svg" xmlns:xlink="http://www.w3.org/1999/xlink" x="0px" y="0px"
	 viewBox="0 0 510 510" style="enable-background:new 0 0 510 510;" xml:space="preserve">
<style type="text/css">
	.st0{opacity:0.3;enable-background:new    ;}
	.st1{opacity:0.91;fill:url(#SVGID_1_);enable-background:new    ;}
	.st2{clip-path:url(#SVGID_3_);}
	.st3{opacity:0.29;fill:#932216;enable-background:new    ;}
	.st4{fill:none;stroke:#F4F2F2;stroke-width:0.5;stroke-miterlimit:10;}
	.st5{fill:none;}
	.st6{fill:url(#SVGID_4_);}
	.st7{fill:#80E559;}
	.st8{opacity:0.5;fill:url(#SVGID_5_);enable-background:new    ;}
	.st9{fill:#73DD47;}
	.st10{opacity:0.3;}
	.st11{fill:#84E75A;}
	.st12{opacity:0.31;}
	.st13{fill:#5F8337;}
	.st14{opacity:0.5;fill:#5F8337;enable-background:new    ;}
	.st15{fill:#2BB51C;}
	.st16{fill:#1C8E16;}
	.st17{fill:#709B6D;}
	.st18{fill:#CC773E;}
	.st19{fill:#904E27;}
	.st20{fill:#7C3F29;}
	.st21{fill:#8C4D23;}
	.st22{fill:#723B17;}
	.st23{opacity:0.61;}
	.st24{fill:#666666;}
	.st25{fill:#1A1A1A;}
	.st26{fill:#E6E6E6;}
	.st27{fill:#C93140;}
	.st28{fill:#439C3D;}
	.st29{fill:#308C1F;}
	.st30{fill:#AFD24D;}
	.st31{opacity:0.24;fill:#616849;enable-background:new    ;}
	.st32{fill:#82CFF7;stroke:#5DA3C1;stroke-miterlimit:10;}
	.st33{fill:#B3E0F4;}
	.st34{fill:url(#SVGID_6_);}
	.st35{fill:#52A2E7;}
	.st36{fill:#3476B7;}
	.st37{opacity:0.35;fill:#4A97CC;enable-background:new    ;}
	.st38{fill:#5393B7;stroke:#4C2606;stroke-width:0.5;stroke-miterlimit:10;}
	.st39{fill:#81C0EA;stroke:#4C2606;stroke-width:0.5;stroke-miterlimit:10;}
	.st40{fill:#D3E7F2;stroke:#4C2606;stroke-width:0.5;stroke-miterlimit:10;}
	.st41{fill:#DAB4AA;stroke:#323232;stroke-miterlimit:10;}
	.st42{fill:#587AB1;}
	.st43{fill:none;stroke:#323232;stroke-miterlimit:10;}
	.st44{opacity:0.76;fill:#1B3F72;enable-background:new    ;}
	.st45{fill:#FACC35;stroke:#323232;stroke-miterlimit:10;}
	.st46{fill:#BE9030;}
	.st47{fill:#4C3409;}
	.st48{fill:#FBD3C7;stroke:#453323;stroke-width:0.75;stroke-miterlimit:10;}
	.st49{fill:#453323;}
	.st50{fill:#DD9F8F;}
	.st51{fill:#F9D1C6;stroke:#323232;stroke-miterlimit:10;}
	.st52{fill:#DB9D8E;}
	.st53{fill:#F5968E;}
	.st54{fill:#951C27;}
	.st55{fill:#D26653;}
	.st56{fill:url(#SVGID_7_);}
	.st57{fill:#342517;}
	.st58{fill:#FFFFFF;stroke:#3D2E17;stroke-width:0.75;stroke-miterlimit:10;}
	.st59{fill:#2D2B21;}
	.st60{fill:#FFFFFF;}
	.st61{fill:#F9D1C6;}
	.st62{fill:#49442E;}
	.st63{fill:#323232;}
	.st64{fill:#FBD3C7;}
	.st65{fill:url(#SVGID_8_);}
	.st66{fill:url(#SVGID_9_);}
	.st67{fill:url(#SVGID_10_);}
	.st68{fill-rule:evenodd;clip-rule:evenodd;fill:#1E4D82;}
	.st69{fill-rule:evenodd;clip-rule:evenodd;fill:#497EB2;stroke:#357DC4;stroke-miterlimit:10;}
	.st70{fill-rule:evenodd;clip-rule:evenodd;fill:#3D709B;stroke:#357DC4;stroke-miterlimit:10;}
	.st71{fill-rule:evenodd;clip-rule:evenodd;fill:#306487;stroke:#357DC4;stroke-miterlimit:10;}
	.st72{fill-rule:evenodd;clip-rule:evenodd;fill:#9CCAFF;}
	.st73{fill-rule:evenodd;clip-rule:evenodd;fill:#DBECFF;}
	.st74{fill-rule:evenodd;clip-rule:evenodd;fill:#76A9E3;}
	.st75{fill:#211505;}
	.st76{fill:#664422;}
	.st77{fill:#ECE9D6;stroke:#B2AC8D;stroke-miterlimit:10;}
	.st78{fill:#A17127;}
	.st79{fill:#774E18;}
	.st80{fill:#F9F8F7;}
	.st81{fill:#222544;}
	.st82{fill:none;stroke:#61689B;stroke-miterlimit:10;}
	.st83{fill:#664422;stroke:#3F3A25;stroke-miterlimit:10;}
	.st84{fill:#7A552C;stroke:#686248;stroke-miterlimit:10;}
	.st85{fill:#956B39;}
	.st86{fill:#D3B497;}
	.st87{fill:#543614;}
	.st88{fill:#825638;stroke:#492C17;stroke-miterlimit:10;}
	.st89{opacity:0.7;}
	.st90{fill:#684229;}
	.st91{fill:#825638;}
	.st92{fill:#A77144;stroke:#754623;stroke-miterlimit:10;}
	.st93{fill:#8E5A33;stroke:#754623;stroke-miterlimit:10;}
	.st94{fill:#EFE7DF;stroke:#A8795A;stroke-miterlimit:10;}
	.st95{fill:#F2C3B7;}
	.st96{fill:#C67A6D;}
	.st97{fill:#E29181;}
	.st98{fill:#A77144;}
	.st99{fill:#F6AC7C;}
	.st100{fill:#EFE7DF;}
	.st101{fill:#E5D9CF;}
	.st102{fill:#D3C5BA;}
	.st103{opacity:0.8;fill:#825638;enable-background:new    ;}
	.st104{fill:#164A75;}
	.st105{fill:#186FB7;}
	.st106{fill:#308BE5;}
	.st107{fill:#DEE5B5;}
	.st108{fill:#991010;}
	.st109{fill:#3F2F2D;}
	.st110{fill:#F4EDED;}
	.st111{fill:#DD0E0E;}
	.st112{fill:#DEE5B5;stroke:#A4AA6A;stroke-miterlimit:10;}
	.st113{opacity:0.1;fill:url(#SVGID_11_);enable-background:new    ;}
	.st114{opacity:0.6;fill:#FDFFFF;enable-background:new    ;}
	.st115{opacity:0.5;fill:#4ECECE;enable-background:new    ;}
</style>
<circle class="st0" cx="262.3" cy="262.3" r="242.7"/>
<g id="_01-2">
	
		<radialGradient id="SVGID_1_" cx="-2885.3232" cy="1156.5938" r="584.4604" gradientTransform="matrix(0.48 0 0 -0.48 1637.6 803.96)" gradientUnits="userSpaceOnUse">
		<stop  offset="0" style="stop-color:#FFFFFF"/>
		<stop  offset="0.61" style="stop-color:#D3F9FC"/>
		<stop  offset="0.93" style="stop-color:#48E5FF"/>
	</radialGradient>
	<path class="st1" d="M490.2,248.8c0,133.4-108.6,241.6-242.6,241.6S5,382.2,5,248.8S113.6,7.2,247.6,7.2S490.2,115.3,490.2,248.8z"
		/>
	<g>
		<defs>
			<ellipse id="SVGID_2_" cx="248.3" cy="246.1" rx="242.2" ry="241.1"/>
		</defs>
		<clipPath id="SVGID_3_">
			<use xlink:href="#SVGID_2_"  style="overflow:visible;"/>
		</clipPath>
		<g class="st2">
			<path class="st3" d="M346,159c0,0,121.3,32.5,174.1,63.9s122.6,56.9,122.6,56.9l-180.1-1L346,159z"/>
			<line class="st4" x1="490.3" y1="366.9" x2="560.4" y2="366.9"/>
			<line class="st4" x1="489.6" y1="368.3" x2="559.8" y2="368.3"/>
			<line class="st4" x1="489" y1="369.6" x2="559.1" y2="369.6"/>
			<line class="st4" x1="488.9" y1="370.9" x2="559.1" y2="370.9"/>
			<line class="st4" x1="488.2" y1="372.3" x2="558.4" y2="372.3"/>
			<line class="st4" x1="487.5" y1="373.6" x2="557.7" y2="373.6"/>
			<line class="st4" x1="487.5" y1="375" x2="557.7" y2="375"/>
			<line class="st4" x1="486.9" y1="376.3" x2="557.1" y2="376.3"/>
			<line class="st5" x1="458" y1="319.9" x2="601.2" y2="318.8"/>
			
				<linearGradient id="SVGID_4_" gradientUnits="userSpaceOnUse" x1="108.1743" y1="-189.1989" x2="275.4143" y2="637.5411" gradientTransform="matrix(1 0 0 -1 0 512)">
				<stop  offset="0.2" style="stop-color:#C5F7FD"/>
				<stop  offset="0.34" style="stop-color:#B3F0FD"/>
				<stop  offset="0.66" style="stop-color:#8EE1FD"/>
				<stop  offset="0.83" style="stop-color:#80DBFD"/>
			</linearGradient>
			<rect x="-324.6" y="-65.4" class="st6" width="1093.7" height="406"/>
			<polygon class="st7" points="-316,393.9 791.2,370.7 791.2,584.9 -316,584.9 			"/>
			
				<linearGradient id="SVGID_5_" gradientUnits="userSpaceOnUse" x1="-58.45" y1="128.48" x2="-58.45" y2="149.54" gradientTransform="matrix(1 0 0 -1 0 512)">
				<stop  offset="0" style="stop-color:#09170A"/>
				<stop  offset="0.58" style="stop-color:#2D550C"/>
				<stop  offset="1" style="stop-color:#16623E"/>
			</linearGradient>
			<path class="st8" d="M-298.5,368.9c18.5,0.2,36.8,1.3,55.3,1.5c22.9,0.2,45.4-1.5,68.3-0.8c12.9,0.4,25.8,0.9,38.7,1.1
				c11.7,0.2,23.4,0.1,35,0.6c23.9,1.1,47.1,3.8,70.7,5.5c50.2,3.7,101.1,4.2,152.1,5c18.4,0.3,36.2,0.1,54.3-0.5
				c3.3-0.5,6.7-0.7,10.1-0.9c5.7-0.3,11.4-0.4,17.1-0.4c-3.1-0.1-5.9-0.1-8-0.1c-19.3,0-61,1.6-83.5,0.8s-32.1,0-64.2-1.2
				s-69.6-4.4-92.1-5.2s-48.2-4-68.5-4.4s-36.4,0.8-65.3-0.8s-55.7,1.2-85.6-0.4c-20.3-1.1-42.1-2.2-55.7-2.8v3.3
				C-312.8,368.9-305.4,368.8-298.5,368.9z"/>
			<path class="st9" d="M570.1,218.8c-35.9,9.3-72.8,24.4-108.9,26.8c-47.4,3.1-94.3,14.1-141.8,16.7c-48.7,2.6-95.8,2-144.4-3.6
				c-42.1-4.9-84.3-0.5-126.4-5.3C5.4,248.4-37,231.6-80.2,227.1c-31-3.1-61.8-7.9-92.3-14.4c-25.5-5.5-50-19.6-75.3-25.1
				c-24.1-5.2-49.2-14-73.5-14.9v496.2H768.8V148.6c-31.1,9.6-61.3,21.8-90.4,36.4C643.4,202.6,606.1,209.5,570.1,218.8z"/>
			<g class="st10">
				<path class="st11" d="M688.9,308.3c-3.8,2.5-7.7,5.1-11.6,7.6C661.7,326,644.7,334,627,339.7c-37.4,11.8-78.8,12-114.9,26.9
					c21.9,3,44.3,1.6,66.3-0.2c15.3-1.3,30.7-2.1,46-3.4c11.9-1,23.8-2,35.8-2.1c8.8-0.1,21.3-0.6,28.9,4.3c6,3.9,3.9,10-0.1,14.5
					c-6.5,7.2-16.1,12.5-25.2,16.9c-12.3,5.9-25,10.8-38.1,14.5c-12.5,3.6-25.5,6.6-38.6,7.4c-8.7,0.5-19.2,0.6-26.5-4.3
					c-0.3-0.2-0.4-0.6-0.2-0.9c0-0.1,0.1-0.1,0.1-0.1c8.1-8.4,23.7-8.4,30.6-17.7c-17.1-6.1-37.4-2.8-55.1-1.3
					c-22.3,1.9-44.6,4.4-67,5c-47.5,1.3-94.3-10.4-141.8-9.5c-24.7,0.4-49.4,1.5-74.2,1.7c-24.5,0.3-49,0.2-73.5-0.5
					c-18-0.5-36.2-0.2-54.2-1.3c-15.8-1-33.3-2.9-46.4-11.4c-0.3-0.2-0.5-0.5-0.3-0.9c0.1-0.2,0.3-0.3,0.5-0.4c1.5-0.4,3-0.8,4.5-1
					c10.4-1.6,20.9-0.4,31.4,0c11.8,0.5,23.7-0.8,35.4-1.9c11.9-1.2,23.8-2.6,35.8-3.4c5.7-0.4,11.4-0.5,17.1-0.5
					c-10-0.6-20-1.3-30.1-2.1c-42.1-3.6-84.3-0.4-126.4-3.9C3.4,360.1-39,347.5-82.2,344.2c-31.2-2.4-61.4-5.8-92.3-10.8
					c-25.5-4.1-50-14.7-75.3-18.7c-24.1-3.9-49.2-10.5-73.5-11.2v8.8c4.9,0.4,9.9,0.9,14.8,1.5c46.7,5.8,91.2,20,136.5,30.8
					c11.3,2.7,22.6,5.2,34.2,7c10.8,1.6,21.7,2.5,32.6,2.9c17.8,0.7,37.4,1.6,52.9,10.2c0.3,0.1,0.4,0.5,0.3,0.8
					c-0.1,0.1-0.2,0.2-0.3,0.3c-9.1,4-19.4,5.5-29.5,6c-19.2,1-38.4-0.9-57.5-0.9c-21.8,0-43.2,4.5-64.4,8.8
					c-11.9,2.4-23.8,5.3-35.9,7.3c-7.8,1.2-15.7,1.8-23.5,2.8c-8.4,1.1-17.3,2.5-24.9,6.1c-2,0.9-4,2-5.8,3.4
					c-1.5,1.2-1.6,1.2-0.3,2.6c1.7,1.7,3.6,3,5.7,4.1c11.5,5.8,26,6.7,39,7.2c14.4,0.6,28.9,0.1,43.3,0c12.7-0.1,25.3,1,38.1,1.4
					c15.4,0.4,33.9,0.2,47.2,8c0.3,0.1,0.4,0.5,0.3,0.8c0,0,0,0,0,0.1c-3.5,5.7-8.9,6.5-15.7,7.1c-6.2,0.5-12.4,2.1-18.5,3
					c-5.3,0.8-10.6,1.5-16,2c-12.1,1.3-24.2,2.2-36.3,3c-24.7,1.8-49,4.6-73.5,8.1c-14.2,2-28.5,3.8-42.8,5v222.6H767V285.6
					C740.5,291.6,714.5,299.2,688.9,308.3z"/>
			</g>
			<g class="st12">
				<path class="st13" d="M774.3,472.6c-10.3,3-21.7,6-30.5,10.8c-2,1.1-5.3,2.9-5,4.9c0.5,3.5,7.4,6.1,11.2,7.9
					c8.2,3.6,22.9,8.9,18.9,17c-2,4.2-8.3,6-14.3,7c-9,1.5-18.4,2.6-27.5,3.8c-47.8,5.9-96.5,6.4-144.9,6.4h-75.3
					c-11,0-22.1,0.2-33.1,0c-9.4-0.2-18.9-0.8-27.5-3.5c-0.5-0.2-0.5-0.7,0-0.9c26.8-9.8,59.3-10.7,89.1-11.4
					c9.8-0.2,19.6-0.4,29.5-0.7c11.1-0.3,22.2-1.2,33.3-1.9c12.5-0.8,25-1.5,37.5-2.2c11.5-0.7,23-1.7,34.5-2.1
					c8.8-0.3,18.6-0.3,26.6-3c2.2-0.7,4.2-1.6,6.2-2.9c2.1-1.5,1.5-2.1-1.3-2.7c-4-0.7-8.1-1-12.1-0.7c-8.6,0.4-17.1,1.7-25.7,2.3
					c-12.6,0.9-25.2,1.3-37.8,1.3c-25.3,0-50.5-1.2-75.8-1.3c-22.9-0.1-45.8,0.3-68.6,0.8c-12.9,0.9-25.8,2.1-38.4,4.1
					c-12,1.9-23.7,4.5-35.6,6.5c-11.5,1.9-23,3.5-34.8,4.5c-23.3,2-47.2,1.6-70.6,0.7c-17.8-0.7-35.5-2-52.9-4.4
					c-50.3-2-100.7-5.4-150.8-2.1c19.8,4.6,41,6.2,61.8,7.2c19.8,1,39.7,1.8,59.5,2.2c19.5,0.4,39-0.1,58.4,0.8
					c17.6,0.8,35.8,2.6,51.3,8.5c0.5,0.2,0.5,0.7,0,0.9c-11.3,5.5-27,6.3-40.4,6.5c-16.2,0.4-32.3-0.5-48.4-1.2
					c-20.5-0.9-41.2-0.8-61.8-1c-24.1-0.3-48.3-0.6-72.4-1.3c-25.5-0.8-50.7-2.4-76-4.3c-25-1.9-50-3.7-75.2-4.1s-50.1,0-75.2-0.4
					c-10.6-0.2-21.2-0.1-31.8-0.4c-7.9-0.2-16.2-0.8-22.5-4.3c-0.2-0.1-0.3-0.3-0.2-0.5c0-0.1,0.1-0.2,0.2-0.2
					c8.6-5.9,22.6-7.4,34.3-8.1c16.2-1.1,32.5-0.7,48.8-0.4c19.6,0.3,39.2,0.1,58.8,0.3c12.8,0.1,25.6,0.1,38.4,0
					c9.7-0.1,19.4-0.5,29.1-0.2c8.7,0.2,17.5,0.6,26.2,0.3c8.1-0.4,16.8-1.2,23.4-4.5c-27.3-5.7-55.8-7.9-84.2-9s-56.7-1.5-85-2.9
					c-25.6-1.2-51.1-4.3-76.7-5c-12-0.4-24.1,0.5-36,0.9c-14.5,0.4-29.3,0.9-43.7-0.3c-7.7-0.7-19.5-1.7-23-7.2
					c-0.1-0.1,0-0.4,0.2-0.5c15-8,37.1-8.7,55.5-10c25.6-1.8,50.8-5.6,76.5-7.5c11.1-0.8,21.7-1.8,31.9-4.9
					c8.2-2.5,15.8-5.3,24.6-6.9s19.5-2.5,26.6-6.5c1.2-0.7,0.8-0.6-0.3-1.2c-0.8-0.4-1.5-0.8-2.3-1.2c-1.3-0.6-2.6-1.1-4-1.5
					c-3.2-0.9-6.5-1.6-9.8-1.9c-15.6-1.6-31.5,0.5-47.1,0.9c-13.4,0.4-28.1-0.3-38.1-7c-0.4-0.3-0.3-0.6,0.1-0.8
					c8.2-3.9,18.7-5.4,28.4-6.4c11-1.2,22-1.7,33-2.6c10-0.8,20.2-1.8,30.4-2.5c12.2-0.9,24.5-1.8,36.5-3.6
					c8.8-1.3,17.7-3.1,25.5-6.2c5.3-2.1,15-6.1,14.5-11c-0.1-0.7-0.4-1.4-0.8-2c-29.8-4-59.5-9-89.4-10.8
					c-32.2-1.9-63.5-4.6-95.5-8.5c-26.4-3.2-51.7-11.6-77.9-14.8c-24.9-3-50.9-8.3-76-8.8v6.9c5.1,0.3,10.2,0.7,15.3,1.1
					c48.3,4.5,94.4,15.8,141.2,24.3c11.7,2.1,23.4,4.1,35.3,5.5c11.2,1.3,22.3,1.9,33.7,2.2c18.4,0.6,38.7,1.3,54.7,8
					c0.5,0.2,0.5,0.7,0,0.9c-9.5,3.2-20.2,4.4-30.6,4.8c-19.8,0.8-39.7-0.7-59.5-0.7c-22.6,0-44.7,3.5-66.6,6.9
					c-12.3,1.9-24.6,4.2-37.1,5.7c-8,1-16.2,1.4-24.3,2.2c-8.7,0.9-17.9,2-25.7,4.8c-2.1,0.7-4.1,1.6-6,2.7c-1.6,1-1.7,1-0.3,2
					c1.8,1.3,3.8,2.4,5.9,3.2c11.8,4.6,26.9,5.3,40.3,5.7c14.9,0.4,29.9,0.1,44.8,0c13.1-0.1,26.2,0.8,39.4,1.1
					c16,0.3,35,0.2,48.9,6.3c0.3,0.2,0.5,0.4,0.3,0.7c-3.6,4.5-9.2,5.1-16.3,5.6c-6.4,0.4-12.8,1.6-19.1,2.4
					c-5.5,0.6-11,1.2-16.5,1.6c-12.5,1-25,1.7-37.6,2.4c-25.6,1.4-50.7,3.6-76.1,6.4c-14.7,1.6-29.4,3-44.3,3.9v175.5h1128V464.1
					C795.9,466.8,785,469.6,774.3,472.6z"/>
			</g>
			<path class="st14" d="M249.2,399.1c-1.2,0-2.8,0-4.4,0.1c-3.1,0.1-5.9,0.5-6.6,1.2c-0.1,0.1-0.1,0.2,0.1,0.3
				c3,1.4,9.1,1,13.2,0.8c1.5-0.1,10-0.2,9.5-1.4S251.6,399,249.2,399.1z"/>
			<path class="st14" d="M299.3,394.3c-1-1-7.2-0.6-9.2-0.5c-0.8,0-2.8,0-4.4,0.2l-1.4,0c-0.9,0-3.6,0.5-2.2,1
				c2.1,0.4,4.2,0.6,6.4,0.5c2.2,0,4.3-0.1,6.5-0.3c1.3,0,2.5-0.2,3.8-0.5C299.1,394.7,299.5,394.5,299.3,394.3z"/>
			<path class="st14" d="M5.6,438.8c-1-1-7.2-0.6-9.2-0.5c-0.8,0-2.8,0-4.4,0.1l-1.4,0.1c-0.9,0-3.6,0.5-2.2,1
				c2.1,0.4,4.2,0.6,6.4,0.5c2.2,0,4.3-0.1,6.5-0.3c1.3,0,2.5-0.2,3.8-0.5C5.5,439.2,5.8,439,5.6,438.8z"/>
			<path class="st14" d="M276.3,442.3c-0.8,0-1.9,0-3,0.1c-2.2,0.1-4.1,0.3-4.6,0.9c-0.1,0.1,0,0.1,0.1,0.2c2.1,1,6.4,0.7,9.2,0.6
				c1,0,7-0.1,6.6-1S278,442.3,276.3,442.3z"/>
			<path class="st14" d="M311.5,445c-0.7-0.7-5-0.4-6.4-0.4c-0.6,0-1.9,0-3.1,0.1H301c-0.6,0-2.6,0.4-1.5,0.7c1.5,0.3,3,0.4,4.5,0.4
				c1.5,0,3,0,4.5-0.2c0.9,0,1.8-0.1,2.6-0.3C311.4,445.2,311.6,445.1,311.5,445z"/>
			<path class="st14" d="M463.6,446.7c0,1.2-17.4,2.2-38.9,2.2s-38.9-1-38.9-2.2s17.4-2.3,38.9-2.3S463.6,445.5,463.6,446.7z"/>
			<path class="st15" d="M504.8,419.3c0,0,14.4-11.9,22.8-15s-8.1-3.4-19.3,6.5C508.3,410.7,502.7,416.7,504.8,419.3z"/>
			<path class="st15" d="M500.6,419.3c0,0,9.6-19.3,13.9-21.6s-6.9-3.7-13.9,12C500.6,409.7,497.8,418,500.6,419.3z"/>
			<path class="st15" d="M495.5,419.3c0,0,3.7-17.7,7.2-20.3S489.3,401.9,495.5,419.3z"/>
			<path class="st15" d="M493.4,419.3c0,0,0.2-14.7-7.4-17S490.4,411.9,493.4,419.3z"/>
			<path class="st15" d="M490.9,419.3c0,0-6.1-6-17.7-6.4S483.7,408.2,490.9,419.3z"/>
			<path class="st15" d="M489.9,419.3c-4.5-4.4-10.5-6.6-16.8-6.3C462.6,413.5,487.4,417.2,489.9,419.3z"/>
			<path class="st16" d="M-324.3,263.4c131.8,5.4,204,5.8,274.2,7.5c240.5,6,234.8-5,368.6,2.5c87.4,4.9,229-7.9,316.3-1.3
				c16,1.2,51,4.1,123.9,2.7c7.1-0.1,6.1,9.9,7.8,2.1c3.8-17.5,3.2-0.3,3.1,1.3c-0.4,9.2-3.4,3-2.8,7.3l-1085,0.7L-324.3,263.4z"/>
			<path class="st17" d="M-347,185.5c-0.6-8.1-19.4-14.7-6.7-20.8c23.6-11.4,75.2-14.8,136.8-7.4c114.2,13.7,163.1-8,272.6,8.5
				c19.6,3,35,5.2,64.7,3.6c38.1-2.1,10.8,6,96.8-4.7c19.7-2.5,39.6-1.6,58.9,2.7c42,9.2,91.4-1.4,130,2.7
				c17.1,1.8,133.8-11.7,143.6-12.8c213.3-22.1,211,17.8,210.8,20c0,0,11.6,1,23.4,1.5h0.1l-10.5,65.8H-301.5L-347,185.5z"/>
			<polygon class="st18" points="-319.3,214.6 -319.3,275.4 192.1,275.4 192.1,217.7 			"/>
			<rect x="-319.3" y="209.5" class="st19" width="511.4" height="9.4"/>
			<rect x="-319.3" y="204.8" class="st18" width="511.4" height="9.4"/>
			<rect x="70.4" y="233.2" class="st20" width="9.6" height="5.2"/>
			<rect x="75.2" y="239.7" class="st20" width="9.6" height="5.2"/>
			<rect x="15.1" y="244.4" class="st20" width="9.6" height="5.2"/>
			<rect x="19.9" y="250.9" class="st20" width="9.6" height="5.2"/>
			<rect x="161.9" y="233.2" class="st20" width="9.6" height="5.2"/>
			<rect x="166.7" y="239.7" class="st20" width="9.6" height="5.2"/>
			<polygon class="st18" points="769.1,212.9 769.1,274.9 184,272.6 184,216 			"/>
			<rect x="184" y="213" class="st21" width="585.2" height="5.4"/>
			<rect x="192.1" y="203.6" class="st18" width="577" height="10.5"/>
			<rect x="422.1" y="228.7" class="st22" width="10.9" height="5.1"/>
			<rect x="416.7" y="235.1" class="st22" width="10.9" height="5.1"/>
			<rect x="312.3" y="231.2" class="st22" width="10.9" height="5.1"/>
			<rect x="306.8" y="237.6" class="st22" width="10.9" height="5.1"/>
			<rect x="375.6" y="242.3" class="st22" width="10.9" height="5.1"/>
			<rect x="370.1" y="248.7" class="st22" width="10.9" height="5.1"/>
			<rect x="207.6" y="231.2" class="st22" width="10.9" height="5.1"/>
			<rect x="202.1" y="237.6" class="st22" width="10.9" height="5.1"/>
			<g class="st23">
				<path class="st24" d="M16.1,189.9H9v-3.1c0.6-0.3,1-1,1-1.7c0-1.1-0.9-1.9-2-1.9c-1.1,0-2,0.8-2,1.9c0,0.7,0.4,1.3,1,1.7v3.1
					h-58.9v-3.1c0.6-0.3,1-1,1-1.7c0-1.1-0.9-1.9-2-1.9c-1.1,0-2,0.8-2,1.9c0,0.7,0.4,1.3,1,1.7v3.1h-58.9v-3.1c0.6-0.3,1-1,1-1.7
					c0-1.1-0.9-1.9-2-1.9c-1.1,0-2,0.8-2,1.9c0,0.7,0.4,1.3,1,1.7v3.1h-58.9v-3.1c0.6-0.3,1-1,1-1.7c0-1.1-0.9-1.9-2-1.9
					c-1.1,0-2,0.8-2,1.9c0,0.7,0.4,1.3,1,1.7v3.1h-58.9v-3.1c0.6-0.3,1-1,1-1.7c0-1.1-0.9-1.9-2-1.9c-1.1,0-2,0.8-2,1.9
					c0,0.7,0.4,1.3,1,1.7v3.1h-59.1v-3.1c0.6-0.3,1-1,1-1.7c0-1.1-0.9-1.9-2-1.9c-1.1,0-2,0.8-2,1.9c0,0.7,0.4,1.3,1,1.7v3.1h-58.9
					v-3.1c0.6-0.3,1-1,1-1.7c0-1.1-0.9-1.9-2-1.9c-1.1,0-2,0.8-2,1.9c0,0.7,0.4,1.3,1,1.7v3.1h-39.6v2.9h39.6v12.5h2v-12.5h58.9
					v12.5h2v-12.5h58.9v12.5h2v-12.5h58.9v12.5h2v-12.5h58.9v12.5h2v-12.5h59v12.5h2v-12.5H7v12.5h2v-12.5h7L16.1,189.9z"/>
				<path class="st25" d="M-50.9,189.9h-1v-3.1c0.6-0.3,1-1,1-1.7c0-0.8-0.5-1.5-1.2-1.8c0.1,0.2,0.2,0.5,0.2,0.8
					c0,1.1-0.9,1.9-2,1.9c-0.3,0-0.6-0.1-0.8-0.2c0.3,0.7,1.1,1.1,1.8,1.1c0.1,0,0.3,0,0.4,0v18.3h0.6v-12.5H7v-1h-57.9V189.9z"/>
			</g>
			<g class="st23">
				<path class="st24" d="M423.8,189.9h-7v-3.1c0.6-0.3,1-1,1-1.7c0-1.1-0.9-2-2-2s-2,0.9-2,2c0,0.7,0.4,1.3,1,1.7v3.1h-58.9v-3.1
					c0.6-0.3,1-1,1-1.7c0-1.1-0.9-2-2-2s-2,0.9-2,2c0,0.7,0.4,1.3,1,1.7v3.1h-58.9v-3.1c0.6-0.3,1-1,1-1.7c0-1.1-0.9-2-2-2
					s-2,0.9-2,2c0,0.7,0.4,1.3,1,1.7v3.1h-58.9v-3.1c0.6-0.3,1-1,1-1.7c0-1.1-0.9-2-2-2s-2,0.9-2,2c0,0.7,0.4,1.3,1,1.7v3.1h-58.9
					v-3.1c0.6-0.3,1-1,1-1.7c0-1.1-0.9-2-2-2s-2,0.9-2,2c0,0.7,0.4,1.3,1,1.7v3.1h-58.9v-3.1c0.6-0.3,1-1,1-1.7c0-1.1-0.9-2-2-2
					s-2,0.9-2,2c0,0.7,0.4,1.3,1,1.7v3.1H50.9v-3.1c0.6-0.3,1-1,1-1.7c0-1.1-0.9-2-2-2s-2,0.9-2,2c0,0.7,0.4,1.3,1,1.7v3.1H9.3v2.9
					h39.6v12.5h2v-12.5h58.9v12.5h2v-12.5h58.9v12.5h2v-12.5h58.9v12.5h2v-12.5h58.9v12.5h2v-12.5h58.9v12.5h2v-12.5h58.9v12.5h2
					v-12.5h7L423.8,189.9z"/>
				<path class="st26" d="M170.5,185.3c0.9,0.8,2.4-0.7,1.6-1.5S169.6,184.5,170.5,185.3z"/>
				<path class="st26" d="M231.4,185.3c0.9,0.8,2.4-0.7,1.6-1.5S230.6,184.5,231.4,185.3z"/>
				<path class="st26" d="M292.4,185.2c0.9,0.7,2.4-0.7,1.6-1.5S291.5,184.5,292.4,185.2z"/>
				<path class="st26" d="M109.5,185.2c0.9,0.7,2.4-0.7,1.6-1.5S108.6,184.5,109.5,185.2z"/>
				<path class="st25" d="M52,189.9h-1v-3.1c0.6-0.3,1-1,1-1.7c0-0.8-0.5-1.5-1.2-1.8c0.1,0.2,0.2,0.5,0.2,0.8c0,1.1-0.9,1.9-2,1.9
					c-0.3,0-0.6-0.1-0.8-0.2c0.4,0.7,1,1.1,1.8,1.1c0.1,0,0.3,0,0.4,0v18.3h0.6v-12.5h58.9v-1H52V189.9z"/>
				<path class="st25" d="M173.9,191.8v-1.9h-1v-3.1c0.9-0.5,1.3-1.6,0.8-2.5c-0.2-0.4-0.6-0.7-1-0.9c0.1,0.2,0.2,0.5,0.2,0.8
					c0,1.1-0.9,1.9-2,1.9c-0.3,0-0.6-0.1-0.8-0.2c0.3,0.7,1.1,1.1,1.9,1.1c0.1,0,0.3,0,0.4,0v18.3h0.6v-12.6h58.9v-1L173.9,191.8z"
					/>
				<path class="st25" d="M234.9,191.8v-1.9h-1v-3.1c0.9-0.5,1.3-1.6,0.8-2.5c-0.2-0.4-0.6-0.7-1-0.9c0.1,0.2,0.2,0.5,0.2,0.8
					c0,1.1-0.9,1.9-2,1.9c-0.3,0-0.6-0.1-0.8-0.2c0.3,0.7,1.1,1.1,1.9,1.1c0.1,0,0.3,0,0.4,0v18.3h0.6v-12.6h58.9v-1L234.9,191.8z"
					/>
				<path class="st25" d="M295.8,191.8v-1.9h-1v-3.1c0.9-0.5,1.3-1.6,0.8-2.5c-0.2-0.4-0.6-0.7-1-0.9c0.1,0.2,0.2,0.5,0.2,0.8
					c0,1.1-0.9,1.9-2,1.9c-0.3,0-0.6-0.1-0.8-0.2c0.4,0.7,1.1,1.1,1.8,1.1c0.1,0,0.3,0,0.4,0v18.3h0.6v-12.5h58.9v-1L295.8,191.8z"
					/>
				<path class="st25" d="M356.8,189.9h-1v-3.1c0.6-0.3,1-1,1-1.7c0-0.8-0.5-1.5-1.2-1.8c0.1,0.2,0.2,0.5,0.2,0.8
					c0,1.1-0.9,1.9-2,1.9c-0.3,0-0.6-0.1-0.8-0.2c0.4,0.7,1.1,1.1,1.9,1.1c0.1,0,0.3,0,0.4,0v18.3h0.6v-12.5h58.9v-1h-57.9V189.9z"
					/>
				<path class="st25" d="M112.9,191.8v-1.9h-1v-3.1c0.9-0.5,1.3-1.6,0.8-2.5c-0.2-0.4-0.6-0.7-1-0.9c0.1,0.2,0.2,0.5,0.2,0.8
					c0,1.1-0.9,1.9-2,1.9c-0.3,0-0.6-0.1-0.8-0.2c0.4,0.7,1.1,1.1,1.8,1.1c0.1,0,0.3,0,0.4,0v18.3h0.6v-12.5h58.9v-1L112.9,191.8z"
					/>
			</g>
			<g class="st23">
				<path class="st24" d="M831.5,189.9h-7v-3.1c0.6-0.3,1-1,1-1.7c0-1.1-0.9-2-2-2c-1.1,0-2,0.9-2,2c0,0.7,0.4,1.3,1,1.7v3.1h-58.9
					v-3.1c0.6-0.3,1-1,1-1.7c0-1.1-0.9-2-2-2c-1.1,0-2,0.9-2,2c0,0.7,0.4,1.3,1,1.7v3.1h-58.9v-3.1c0.6-0.3,1-1,1-1.7
					c0-1.1-0.9-2-2-2c-1.1,0-2,0.9-2,2c0,0.7,0.4,1.3,1,1.7v3.1h-58.9v-3.1c0.6-0.3,1-1,1-1.7c0-1.1-0.9-2-2-2c-1.1,0-2,0.9-2,2
					c0,0.7,0.4,1.3,1,1.7v3.1h-58.9v-3.1c0.6-0.3,1-1,1-1.7c0-1.1-0.9-2-2-2c-1.1,0-2,0.9-2,2c0,0.7,0.4,1.3,1,1.7v3.1h-58.9v-3.1
					c0.6-0.3,1-1,1-1.7c0-1.1-0.9-2-2-2c-1.1,0-2,0.9-2,2c0,0.7,0.4,1.3,1,1.7v3.1h-58.9v-3.1c0.6-0.3,1-1,1-1.7c0-1.1-0.9-2-2-2
					s-2,0.9-2,2c0,0.7,0.4,1.3,1,1.7v3.1H417v2.9h39.6v12.5h2v-12.5h58.9v12.5h2v-12.5h58.9v12.5h2v-12.5h58.9v12.5h2v-12.5h58.9
					v12.5h2v-12.5h58.9v12.5h2v-12.5h58.9v12.5h2v-12.5h7L831.5,189.9z"/>
				<path class="st25" d="M459.7,189.9h-1v-3.1c0.9-0.5,1.3-1.6,0.8-2.5c-0.2-0.4-0.6-0.7-1-0.9c0.1,0.2,0.2,0.5,0.2,0.8
					c0,1.1-0.9,1.9-2,1.9c-0.3,0-0.6-0.1-0.8-0.2c0.4,0.7,1.1,1.1,1.9,1.1c0.1,0,0.3,0,0.4,0v18.3h0.6v-12.5h58.9v-1h-58V189.9z"/>
			</g>
			<rect x="185.9" y="200.3" class="st19" width="2.9" height="12.5"/>
			<ellipse class="st27" cx="187.1" cy="191.2" rx="8.2" ry="12.3"/>
			<rect x="442.2" y="199.6" class="st19" width="2.9" height="12.5"/>
			<ellipse class="st27" cx="443.5" cy="190.4" rx="8.2" ry="12.3"/>
			<path class="st28" d="M40.2,283.6H182c0.5-1,0.3-2.2-0.9-3.5c-3.6-3.9-12.7-3.4-12.7-3.4s9.1-4.6,3.4-7.8s-13.3-0.5-13.3-0.5
				s7.5-5.9-0.7-8.9c-0.4-0.1-0.7-0.2-1-0.3c-4.2-1.3-8.7-0.8-12.6,1.2c0,0-1.3-3.2-6-3.9c-2.9-0.6-6,0.1-8.4,1.9
				c0,0-2.4-4.4-10.8-4.2c-11.6,0.4-12.2,4.9-12.2,4.9s-3.8-3.5-8.8-3c-4.2,0.5-4.2,4-4.2,4s-4.3-5.8-18.2-4.1l0,0
				c-0.1,0-0.2,0-0.3,0c-14.1,1.8-10.2,8.6-10.2,8.6s-6.3-2-11-0.6c-0.8,0.2-1.5,0.6-2.2,1c-4.5,3,0.5,6.6,0.7,6.7
				c-0.3,0-8.6-1-11.9,3.1C37.9,278.4,38.4,281.4,40.2,283.6z"/>
			<path class="st28" d="M356.5,281.4h360.4v-63.4c-6.2-11.8-26.6-18.8-38.1-10.4c0,0,3.6-22.8-22.8-33.7s-45.3,7.3-45.3,7.3
				s-8.7-27.5-41.4-13.2c-10.5-15.9-37.5-14.4-40.3,5.9c0,0-20.3-25.3-51.4-19.3s-31.5,31-31.5,31s-0.9-0.5-2.4-1.3
				c-6.5-3.2-25.3-8.2-42.5,2.8c-19.7,12.5-19.3,24.9-17.6,34.6c0.4,2.2,0.9,4.4,1.5,6.6c0,0-20.9-2.1-31.9,23.2
				C347.6,264.2,351.5,274.4,356.5,281.4z"/>
			<path class="st29" d="M441.2,478.2c0,0,17.6-2.6,17.1-9.9S441.2,478.2,441.2,478.2z"/>
			<path class="st29" d="M437.8,481.2c0,0,9.8-18.2,17.1-22.8s-12.7-5-17.1,14V481.2z"/>
			<path class="st29" d="M437.1,478.7c0,0,4.9-14.1-13.5-14.9C415.3,463.5,437.1,478.7,437.1,478.7z"/>
			<path class="st15" d="M55.2,414.2c0,0,8.2-5.5,24.1-6.9s-17.1-7.2-28.8,6.9C50.5,414.2,45.2,420.4,55.2,414.2z"/>
			<path class="st15" d="M32.8,415c0,0,24.1-17.6,38.3-22.3s-13.5-5.1-32.4,9.6C38.7,402.2,29.3,411,32.8,415z"/>
			<path class="st15" d="M25.7,415c0,0,16-28.6,23.3-32.1s-11.5-5.5-23.3,17.8C25.7,400.6,21,413,25.7,415z"/>
			<path class="st15" d="M17.2,415c0,0,6.2-26.2,12.1-30.2S6.9,389.1,17.2,415z"/>
			<path class="st15" d="M13.7,415c0,0,0.3-21.9-12.4-25.3S8.7,404,13.7,415z"/>
			<path class="st15" d="M9.6,415c0,0-8-25.1-27.4-25.7S-2.5,398.5,9.6,415z"/>
			<path class="st15" d="M7.9,415c0,0-10.4-10.2-28.1-9.4S3.6,411.8,7.9,415z"/>
			<path class="st15" d="M3.3,314.1c0,0,6.3-4.2,18.5-5.3s-13.1-5.5-22.1,5.3C-0.3,314.1-4.3,319,3.3,314.1z"/>
			<path class="st15" d="M-13.8,314.8c0,0,18.5-13.5,29.3-17.1S5.1,293.8-9.3,305C-9.3,305-16.5,311.8-13.8,314.8z"/>
			<path class="st29" d="M432,319.2c0,0,5.9-3.9,17.1-4.9s-12.1-5.1-20.5,4.9C428.6,319.2,424.8,323.7,432,319.2z"/>
			<path class="st29" d="M416.1,319.8c0,0,17.1-12.5,27.2-15.9s-9.6-3.6-23,6.8C420.2,310.8,413.5,317,416.1,319.8z"/>
			<path class="st29" d="M411,319.8c0,0,11.4-20.3,16.6-22.8s-8.2-3.9-16.6,12.7C411,309.6,407.7,318.4,411,319.8z"/>
			<path class="st29" d="M405,319.8c0,0,4.4-18.6,8.6-21.4S397.7,301.4,405,319.8z"/>
			<path class="st29" d="M402.5,319.8c0,0,0.2-15.5-8.8-17.9S398.9,312,402.5,319.8z"/>
			<path class="st29" d="M399.5,319.8c0,0-5.6-17.8-19.4-18.2S391,308.1,399.5,319.8z"/>
			<path class="st29" d="M398.4,319.8c-5.5-4.7-12.7-7.1-19.9-6.7C365.9,313.7,395.3,317.6,398.4,319.8z"/>
			<ellipse class="st30" cx="223.6" cy="435.5" rx="259" ry="76.8"/>
			<ellipse class="st31" cx="231.7" cy="434.5" rx="223.1" ry="60.3"/>
			<path class="st32" d="M227.4,322.5l35.9-31.8c3.9-3.5,9.8-3.6,13.9-0.3l6.8,5.5c4.6,3.8,5.3,10.5,1.5,15.2
				c-0.1,0.2-0.3,0.3-0.4,0.5l-33.3,35.6c-4.1,4.5-11,5.2-15.3,0.8l-9.7-9.8c-4.2-4.2-4.2-11,0-15.2
				C227.1,322.8,227.3,322.7,227.4,322.5z"/>
			<path class="st32" d="M256,342.8c-8.3,22.5-27,16.8-34.2,9.6s-11-26.7,7.5-31.9"/>
			<path class="st33" d="M223.9,344c0,0-1.9-9.7,13.2-21.2s38.9-32,38.9-32c2.1,0.7,3.8,2.1,5,3.9l-40,33.7c0,0-12.7,10.6-10.6,23.6
				L223.9,344z"/>
			
				<linearGradient id="SVGID_6_" gradientUnits="userSpaceOnUse" x1="260.0706" y1="205.16" x2="250.3405" y2="82.32" gradientTransform="matrix(1 0 0 -1 0 512)">
				<stop  offset="0.1" style="stop-color:#286BAD"/>
				<stop  offset="0.13" style="stop-color:#3476B3"/>
				<stop  offset="0.23" style="stop-color:#5B96C7"/>
				<stop  offset="0.33" style="stop-color:#7BB1D7"/>
				<stop  offset="0.44" style="stop-color:#94C6E4"/>
				<stop  offset="0.55" style="stop-color:#A5D4ED"/>
				<stop  offset="0.67" style="stop-color:#B0DDF2"/>
				<stop  offset="0.81" style="stop-color:#B3E0F4"/>
			</linearGradient>
			<path class="st34" d="M230.4,350.1c0,0,12.5-1.5,25.1-14.5c12.5-13,30.7-35.9,30.7-35.9s4.1,2.6-0.2,10.1l-29.8,32
				c0,0-9.2,25.3-27.4,13.8L230.4,350.1z"/>
			<path class="st35" d="M228.8,344.4c3.5,4,4.3,8.8,2.1,11.1c-5.8,6.2-7.1,0.4-10.7-3.6s-8.8-6.4-2.1-11.1
				C220.7,339,225.3,340.4,228.8,344.4z"/>
			
				<ellipse transform="matrix(0.7539 -0.657 0.657 0.7539 -175.5303 232.1572)" class="st32" cx="222.1" cy="350.4" rx="5.7" ry="9.7"/>
			<path class="st32" d="M228.7,356.5c-1.4,1.2-4.3,0.3-7-2c-0.7-0.6-1.4-1.2-2-1.9c-3.2-3.7-4.4-7.9-2.6-9.5s5.8,0.2,9,3.9
				c0.5,0.5,0.9,1.1,1.3,1.7C229.6,352,230.2,355.3,228.7,356.5z"/>
			<path class="st36" d="M228.7,356.5c-1.4,1.2-4.3,0.3-7-2l5.7-5.8C229.6,352,230.2,355.3,228.7,356.5z"/>
			<path class="st37" d="M228.6,321.1c0,0,4.7-1.5,15.2,8.9s10.7,15.1,10.7,15.1s-0.2-7-9.7-16.4S228.6,321.1,228.6,321.1z"/>
			<path class="st38" d="M55.7,319.9c-3.7-10.8-20.5-10.1-26.2-5.7c0,0-6.3,3-8.5,41L19,376c0,0-2.6,10.6,6.8,14
				c6.8,2.5,23.1,4.9,29.4,0.3S55.7,319.9,55.7,319.9z"/>
			<path class="st39" d="M52.6,317.5c-29.8-14.3-30.6,32.5-34.3,55.1c-0.7,11.3,22.5,15.5,33.8,11.3s5.2-55.9,5.2-55.9"/>
			<path class="st38" d="M59,328.8c0,0,3.9-6.8-4.4-10.4c-16-9.3-37.9,20.7-17.4,31.3C35.4,337.4,41.9,319.5,59,328.8z"/>
			<path class="st40" d="M37.5,350.2c0,0-7.1-3.4-8.5-9.4c-9.6,6.8-2.4,23.1,12,20.2L37.5,350.2z"/>
			<path class="st39" d="M31.5,360c0,0-5-1.1-8.9,4.8"/>
			<path class="st41" d="M112.3,413c-27.3,18.7-49.1-2.6-65.5-40.5c-10.5-24.8-14-40.8-2.1-46.8c0,0,7.3-3.2,11.4,1.8l12.8,14.3
				C68.9,341.7,125.5,372,112.3,413z"/>
			<path class="st41" d="M182.1,398.9c-3.9,23-38.3,20.8-51.1,0C122.9,386.4,182.4,386.4,182.1,398.9z"/>
			<path class="st42" d="M182.1,336.3l2.3,60.7c-16.3,16.7-56.6,13.9-68.6-3.8l4.4-53.6L182.1,336.3z"/>
			<path class="st43" d="M182.1,336.3c0,0,4,53.4,2.3,60.8c-15.7,16.6-50,12.9-65.1,0.3"/>
			<path class="st42" d="M144.8,349.8c0,0-3,25.8-3.9,25.5s-14,6.5-17.5,5.5c0,0-2.5,28.5-5.5,31s-43.2,2.5-59-31l5.7-65.6
				L144.8,349.8z"/>
			<path class="st43" d="M141.8,350.2l-6,26.1c0,0-7.6,4.7-12.5,4.4c0,0-1.6,25.1-5.5,31c0,0-18.3,7.2-41.3-10
				c-16.4-12.2-17.7-21-17.7-21l5.7-65.6"/>
			<path class="st43" d="M82.7,335c0,0-10.5,12.9-20.8,9.7"/>
			<path class="st44" d="M182.1,354.9c-41.7,21.6-87.9-1.2-117.6-23.5l0.7-11.8L181.1,337L182.1,354.9z"/>
			<path class="st45" d="M67.8,249.9l-6.1,69.5c1.2,14.4,25.4,26.5,39.7,31.6c31.8,11.2,59.7,2.3,73.8-4.2c5.7-2.6,9.1-8.5,8.6-14.8
				c-2.6-35.5,2.9-87.9,2.9-87.9c4.6-2.8,4-5.5,4-5.5l9.7-31.8L183.1,185c-47.7-13.2-36.4-15.3-85.8-4.8L67.8,219V249.9z"/>
			<path class="st46" d="M183.1,282.9c0,0-68.7,18-117.2-20l-1.1,11.4c0,0,43.4,33,117.6,18.4L183.1,282.9z"/>
			<path class="st47" d="M237.2,222.6c0,0,0.8,3.2-0.6,5.2l-4.6-4.9L237.2,222.6z"/>
			<path class="st48" d="M237.3,299.4c-7.4-39.8-21.3-41.2-30-48.7c0,0,8.4-24.7,24.4-29.2c19.4,22.2,26.4,18.6,30.8,70.2"/>
			<path class="st49" d="M221.3,247.3c-1,2.3-1.6,4.7-1.6,7.2c0,1.2,0.2,2.4,0.5,3.6c0.3,1.2,0.7,2.4,1.1,3.5h-0.1
				c-0.8-1-1.4-2.2-1.8-3.4c-0.3-1.2-0.5-2.5-0.4-3.8C219.2,251.9,220,249.5,221.3,247.3L221.3,247.3z"/>
			<path class="st50" d="M216.3,255.9c0,0-3.8-2.5-5.1-3.6s6.2-20.3,13.8-27.2l6.9-2.3l5.2,5.6C237.2,228.5,224,235.7,216.3,255.9z"
				/>
			<path class="st48" d="M261.3,290.4c5.7,3.2,2.3,26.7-11.6,22.8c-6.1-1.7-7.3-1.4-10.8-0.1s-3,2.2-8.2,5.7
				c-2.1,1.4-3.1-0.3-3.6-2.3c-0.7-2.5-0.5-7.3,0.7-9.5c3.4-6.2,8.3-10.6,12.8-10.7"/>
			<path class="st48" d="M42.4,225.6c0,0-27,27.2-18.6,35.1l9.9,9.8c0,0,28.5-15.6,28-16.8S65,227.9,42.4,225.6z"/>
			<path class="st51" d="M170.3,196.7c-1.7,16.4-53.2,10.1-47.1-15.2C127.8,170.8,170.8,184.2,170.3,196.7z"/>
			<path class="st45" d="M173.1,191l19.5-2.8c17.5,9.2,43,34,43,34c-17.8,10-23.7,32.5-23.7,32.5s-16.6-9.5-24.4-17.4"/>
			<path class="st46" d="M234.1,222.1c0,0-14.3,6.6-22.6,31.2l-8.5-5.3c4-13.4,13.2-24.6,25.5-31.2L234.1,222.1z"/>
			<path class="st51" d="M217.1,157.8c-6.8,8.9-17.6,11-24.9,5.8s-3.2-10.1,3.6-19s6.8-7.7,15.6-9.9
				C230.6,129.9,223.9,148.9,217.1,157.8z"/>
			<path class="st52" d="M213.5,139.5c13.2-0.6-5.8,26.4-12.1,21.1c-2.3-5.3,5.7-6.9,8.4-10c1.8-3.2-2.9-3.8-5-4
				C205.2,142.8,210,140.2,213.5,139.5z"/>
			<path class="st51" d="M209,90.8c-28.3-24.6,18.6-40.4-24-47.8c-41.3-7.2-69.1,9.3-76.7,45.4c-3.5,16.7-1.4,35.2-1.7,36.1
				c-13.8,56.2,38.8,89.5,78.2,66.4c13.5-7.2,25.3-19.8,30.7-49.6C215.7,140.5,232.7,111.3,209,90.8z"/>
			<path class="st53" d="M142.1,157.2c5,2.3,37.9,7.7,43,7.8C167.1,189.2,151.4,186.5,142.1,157.2z"/>
			<path class="st54" d="M163.5,162.4c-5.8-1.3-22.2-6.5-22.2-6.5c14.4,25.6,23,28.6,45.3,8C186.5,163.8,169.3,163.7,163.5,162.4z"
				/>
			<path class="st55" d="M170.1,171.8c-0.9-0.5-6.9-1.9-7.9-1c-3.1-2.1-11.6-3.1-11.7-0.9c5.2,6.7,12,10.8,19.7,5.9
				C173.4,174.1,176.1,174,170.1,171.8z"/>
			<path class="st52" d="M186.3,159.9c0,0-1.1,6.2,1.2,7.4s0.3-2.1,0-3.3C187.3,163.4,186.3,159.9,186.3,159.9z"/>
			<path class="st52" d="M143.2,152.3c-0.8,8.1-7.9,8-2.4,3.6C141.6,154.7,142.4,153.5,143.2,152.3z"/>
			
				<linearGradient id="SVGID_7_" gradientUnits="userSpaceOnUse" x1="1520.0087" y1="115.4302" x2="1520.5087" y2="103.8302" gradientTransform="matrix(1.41 0.22 0.26 -1.63 -2008.3101 1.2)">
				<stop  offset="0" style="stop-color:#E8D9D7"/>
				<stop  offset="0.4" style="stop-color:#EFE5E4"/>
				<stop  offset="1" style="stop-color:#FFFFFF"/>
			</linearGradient>
			<path class="st56" d="M146.2,157.7c-1.2,11.2,31.6,18.2,34.1,6.3c-5.7,0.3-11.5-0.1-17.1-1.2
				C157.9,161.7,152.3,158.3,146.2,157.7z"/>
			<path class="st53" d="M141.3,155.9c0,0,10.7,7.4,20.9,8.7c21.8,3,24.3-0.8,24.3-0.8s-17.5-0.9-23.8-2.4
				C157.1,160.1,141.3,155.9,141.3,155.9z"/>
			<path class="st57" d="M152.8,99.4c-4.2-0.4-18.3,1.8-20.3,10.6c0,0,10.5-5.9,20.4-6.1C152.9,104,154.9,99.6,152.8,99.4z"/>
			<path class="st57" d="M192.9,107c4.2,0.5,17.4,5.7,17.4,14.8c0,0-8.9-8.1-18.4-10.3C191.8,111.5,190.8,106.8,192.9,107z"/>
			<path class="st52" d="M137.1,75.7c0,0,6.6,14,52.9,22.1l-0.2-6.4c0,0,1.2,9.2,27.2,18.7l-1.8,33.9l20.1-67.8l-96.2-25.4
				l-17.8,12.6l-2.7,18.7c0,0-16.1,35.5-16.8,48.3l3.2,1c7.3-6.9,11.9-18,15.6-27.2C120.7,104.2,129.4,109.8,137.1,75.7z"/>
			<path class="st57" d="M135.1,65.8c0,0-7.4,13.6,53.9,28.3c0,0-1.5-1-4.2-16.5c3.7,19.2,19.7,22.5,30.8,28.4l8.4-17.3l-8.8,55.4
				c6.4-12.9,18.7-27.2,20.1-52.3c0.9,4.1,1.4,8.2,1.5,12.4c0,0,20.5-36.6-15.3-59.3c0,0,5.2-0.7,13.8,5.8
				c-3.1-20-68.3-58.2-99.2-25.2c0,0-17.1-13.2-32.9,13.5c0,0,15.4-7.2,20.1-2.7c0,0-15.5-3.4-27.2,26.3
				c-9.8,24.8-1.5,47.7,8.5,69.5c8.3-11.5,13.2-25.2,13.9-39.4l3.6,9.7C122.3,102.5,133.8,97.4,135.1,65.8z"/>
			<path class="st58" d="M157.6,124.3c0.9,17.5-25.8,19-27.2,1.7C129.5,108.6,156.1,107.1,157.6,124.3z"/>
			<path class="st59" d="M153.8,133c0.2,5.3-15.8,8.6-15.8,1.1C137,123.6,153.6,122.6,153.8,133z"/>
			<path class="st60" d="M144.3,128.6c0.8,3-3.7,4.3-4.4,1.2S143.6,125.5,144.3,128.6z"/>
			<path class="st58" d="M205.6,134.9c-2.1,17.8-28.3,15.1-26.8-2.8C180.9,114.3,207,117,205.6,134.9z"/>
			<path class="st59" d="M201.6,141.4c0.2,5.3-15.8,8.6-15.8,1.1C184.8,132.1,201.4,131.1,201.6,141.4z"/>
			<path class="st60" d="M192.1,137c0.8,3-3.7,4.3-4.4,1.2S191.4,133.9,192.1,137z"/>
			<path class="st61" d="M159.7,146.7c4.1,7.8,24.5,8.8,18-5.4"/>
			<path class="st62" d="M159.7,146.7c0.7,1,1.5,1.9,2.6,2.6c1,0.7,2.1,1.3,3.2,1.7c2.3,0.8,4.7,1.2,7.1,0.9c1.2-0.1,2.3-0.4,3.4-1
				c1-0.5,1.9-1.4,2.3-2.5c0.4-1.1,0.6-2.3,0.4-3.5c-0.2-1.2-0.5-2.4-0.9-3.6c0.6,1.1,1,2.3,1.3,3.5c0.3,1.3,0.2,2.6-0.2,3.8
				c-0.5,1.2-1.4,2.3-2.5,2.9c-1.1,0.6-2.4,1-3.6,1.1c-2.5,0.2-5.1-0.2-7.4-1.1C162.9,150.6,160.9,148.9,159.7,146.7z"/>
			<path class="st51" d="M104.8,147.2c-24.9,15.7-29.5-49.5-7.6-32.1c0,0,8.1,6.3,9.2,16.4"/>
			<path class="st52" d="M93.7,118.8c-10.1-3.7-5.3,20.2-1.1,23.5c1.9,1.6,3.9-0.5,3.7-2.7c0-2.8-1.8-5-3.1-7.3
				c-2.5-4.2,1.3-5.4,4.7-3.9C98.9,125,96.3,120.8,93.7,118.8z"/>
			<path class="st45" d="M108.8,178.1c-27.7-2.8-57.2,33.2-67.6,46.6c0,0,19.4,13.8,25.8,33"/>
			<path class="st46" d="M59.3,241.3c0,0-10.7-13.2-16.8-16.8l5.3-5.8c0,0,15.7,13.7,17.9,22.3L59.3,241.3z"/>
			<path class="st63" d="M90.9,210.1c0.6,4.8,0.4,9.7-0.4,14.5c-0.4,2.4-1.1,4.8-2.2,7c-1.1,2.2-2.9,4-5.1,5.2l-0.1-0.1
				c1.9-1.5,3.3-3.4,4.3-5.5c1-2.1,1.8-4.4,2.3-6.7c0.5-2.3,0.8-4.7,1-7.1C91,215,91,212.5,90.9,210.1L90.9,210.1z"/>
			<path class="st48" d="M42.8,239.7c11.1,3.2,24.4,2.5,35.6,0c26.5,24-37.6,66-55.8,19.6"/>
			<path class="st48" d="M70.8,244.2c0,0,12-10.4,16.3-16.4c0,0,17.8,11.7,21.6,21.5c4,10.3-8.3,5.5-8.3,5.5s4.6,9.9-5.3,8.2
				c0,0,2.5,10.2-7.2,8.5c0,0-2.8,7.7-10,2.4c0,0-7.4,2.3-16.1-2.4"/>
			<path class="st49" d="M77.7,273.2c-1.6-0.5-3.1-1.4-4.4-2.5c-0.7-0.5-1.3-1.1-1.8-1.8c-0.5-0.7-0.9-1.4-1.2-2.2h0.1
				c0.6,0.6,1.2,1.2,1.8,1.8s1.1,1.2,1.7,1.8c0.6,0.6,1.2,1.1,1.9,1.6C76.3,272.4,77,272.8,77.7,273.2L77.7,273.2z"/>
			<path class="st64" d="M100.4,254.8c-2.7-2.9-6.1-5.3-9.8-6.8"/>
			<path class="st49" d="M100.4,254.8c-1.4-1.4-3-2.6-4.7-3.7c-0.8-0.5-1.7-1-2.6-1.5s-1.7-1-2.6-1.6V248c1,0.2,2,0.5,2.9,1
				c0.9,0.5,1.7,1,2.5,1.6C97.6,251.8,99.1,253.2,100.4,254.8L100.4,254.8z"/>
			<path class="st64" d="M95.1,263c-2.2-2.7-4.7-5-7.6-7"/>
			<path class="st49" d="M95,263c-1.2-1.3-2.4-2.4-3.7-3.5c-0.7-0.5-1.4-1-2-1.6c-0.6-0.6-1.3-1.2-1.8-1.8V256
				c0.8,0.3,1.6,0.8,2.3,1.3c0.7,0.5,1.3,1.1,1.9,1.8C92.9,260.3,94.1,261.6,95,263L95,263z"/>
			<path class="st64" d="M87.8,271.5c-1.8-2.5-3.9-4.7-6.3-6.5"/>
			<path class="st49" d="M87.8,271.5c-1-1.2-2-2.3-3.1-3.3c-0.5-0.5-1.1-1-1.7-1.5s-1-1.1-1.5-1.7V265c0.7,0.3,1.4,0.7,2,1.2
				c0.6,0.5,1.1,1,1.6,1.6C86.1,269,87,270.2,87.8,271.5L87.8,271.5z"/>
			<path class="st50" d="M53,240.9c0,0-9.3-9.5-13.3-11.5l2.7-2.9c0,0,10.7,8.2,14.6,14.7C55.7,241.2,54.3,241.1,53,240.9z"/>
			<path class="st48" d="M250.4,313.3c0,0,17.5,6.8,11.3,23.3c0,0,7.5,7.1,10-6.5c0,0,5.5,4.9,7.5-6.8c0,0,3.9-0.3,4.5-7.8
				c0,0,13.9-12-23.3-27.5"/>
			<path class="st48" d="M271.8,330.2c0,0,2.3-13-6.5-18.8"/>
			<path class="st48" d="M279,325c0,0,1-14.6-7.8-17.8"/>
			<path class="st48" d="M283.8,315.6c-1.1-4.2-3.1-8.2-6-11.5"/>
			
				<linearGradient id="SVGID_8_" gradientUnits="userSpaceOnUse" x1="242.3839" y1="168.7972" x2="180.7238" y2="82.4272" gradientTransform="matrix(1 0 0 -1 0 512)">
				<stop  offset="0.1" style="stop-color:#286BAD"/>
				<stop  offset="0.13" style="stop-color:#3476B3"/>
				<stop  offset="0.23" style="stop-color:#5B96C7"/>
				<stop  offset="0.33" style="stop-color:#7BB1D7"/>
				<stop  offset="0.44" style="stop-color:#94C6E4"/>
				<stop  offset="0.55" style="stop-color:#A5D4ED"/>
				<stop  offset="0.67" style="stop-color:#B0DDF2"/>
				<stop  offset="0.81" style="stop-color:#B3E0F4"/>
			</linearGradient>
			<path class="st65" d="M226.8,356.5c0,0-10.4,0.2-10.8,46.6c0,0-5.5,7-3.5-18c0,0-5.3,2.3-2.5-10.6c1.3-5.7,3.3-11.3,5.8-16.6
				c2.2-4.7,6.6-7.8,11.7-8.4l0,0C227.5,349.4,231.5,356.5,226.8,356.5z"/>
			
				<linearGradient id="SVGID_9_" gradientUnits="userSpaceOnUse" x1="227.3981" y1="142.5813" x2="215.3081" y2="125.6513" gradientTransform="matrix(1 0 0 -1 0 512)">
				<stop  offset="0.1" style="stop-color:#286BAD"/>
				<stop  offset="0.13" style="stop-color:#3476B3"/>
				<stop  offset="0.23" style="stop-color:#5B96C7"/>
				<stop  offset="0.33" style="stop-color:#7BB1D7"/>
				<stop  offset="0.44" style="stop-color:#94C6E4"/>
				<stop  offset="0.55" style="stop-color:#A5D4ED"/>
				<stop  offset="0.67" style="stop-color:#B0DDF2"/>
				<stop  offset="0.81" style="stop-color:#B3E0F4"/>
			</linearGradient>
			<path class="st66" d="M222.1,368.9c0,0-3.6,8.6,0,12.5S226.5,374,222.1,368.9z"/>
			
				<linearGradient id="SVGID_10_" gradientUnits="userSpaceOnUse" x1="212.7195" y1="161.6904" x2="203.3995" y2="148.6203" gradientTransform="matrix(1 0 0 -1 0 512)">
				<stop  offset="0.1" style="stop-color:#286BAD"/>
				<stop  offset="0.13" style="stop-color:#3476B3"/>
				<stop  offset="0.23" style="stop-color:#5B96C7"/>
				<stop  offset="0.33" style="stop-color:#7BB1D7"/>
				<stop  offset="0.44" style="stop-color:#94C6E4"/>
				<stop  offset="0.55" style="stop-color:#A5D4ED"/>
				<stop  offset="0.67" style="stop-color:#B0DDF2"/>
				<stop  offset="0.81" style="stop-color:#B3E0F4"/>
			</linearGradient>
			<path class="st67" d="M211.4,351.9c0,0-8.3,2.4-4.4,6.5S211.4,351.9,211.4,351.9z"/>
			<path class="st68" d="M182.2,463.5c-0.5-2.5,0.7-5.1,3.5-5.2c0.9,0,2.1-0.8,3.6-0.2c20.3,7.1,31.8,13,56.3,13.6
				c19.9,0.4,42.8-5.5,56.6-12.9c3.8-2,6.9-0.9,8.9-1.2c3.2-0.5,5.5,2.9,4.9,5.9C310.4,490.8,187.6,490.8,182.2,463.5L182.2,463.5z"
				/>
			<path class="st69" d="M183.3,462c-0.5-2.6,0.3-2.9,1.8-4.6c4.4-4.9,6.4-19.8,8.9-27.3c1.4-4.2,3.5-11.5,6.9-14.2
				c16.8-13.4,79.7-13.4,96.5,0c3.4,2.7,5.5,10,6.9,14.2c2.5,7.5,4.5,22.4,8.9,27.3c1.5,1.7,2.4,2,1.8,4.6
				C309.6,488.3,188.7,488.3,183.3,462z"/>
			<path class="st70" d="M301,421.2c1.2,2.9,2.3,5.9,3.2,8.9c2.5,7.5,4.5,22.4,8.9,27.3c1.5,1.7,2.4,2,1.8,4.6
				c-5.2,25.3-117.1,26.2-130.5,2.9c14.1,15.3,64.3,16.5,85.2,12.1c9.3-1.9,14.6-4.4-0.1-3.4c-16.2,1.2-31.6,1.2-43.9-2.5
				c16.4,2,44.8,1.4,63.6-6.8C306.2,457.1,303.8,439.3,301,421.2L301,421.2z"/>
			<path class="st71" d="M249.1,407.8c24.3,0,44,5.4,44,12.1s-19.7,12.1-44,12.1s-44-5.4-44-12.1S224.8,407.8,249.1,407.8z"/>
			<path class="st72" d="M291,423.6c-5.7,4.9-22.3,8.4-41.9,8.4s-36.2-3.5-41.9-8.4c5.7-4.9,22.3-8.4,41.9-8.4
				S285.3,418.7,291,423.6z"/>
			<path class="st73" d="M228.6,430.6c-2.9-0.4-5.5-0.9-8-1.5c-5-2-8.2-4.5-3.1-7.1c8.9-4.6,26.2-4,34.5-4.2c-4.9,0.4-24,0.4-28,5.7
				C221.6,426.6,224.7,428.9,228.6,430.6L228.6,430.6z"/>
			<path class="st74" d="M286.6,426.2c-1.9,0.8-3.8,1.5-5.8,2c0.4-0.6,0.5-1.3,0.4-2c-1.2-6.5-14.1-7.5-20-8.4
				c6.5,0.1,21.5,1.6,25,7.4C286.3,425.4,286.5,425.8,286.6,426.2L286.6,426.2z"/>
			<path class="st75" d="M156.8,456l-1.6,2.6l10.5,1.6c0,0,0,3.3-9.5,0.6c0,0,7.2,1.6,8.2,3.9s-10.5-2.6-10.5-2.6l2.6,5.2
				c0,0-2.3,3.6-4.6-5.2l-2.3-2.6l3.9-5.2L156.8,456z"/>
			<polygon class="st76" points="163,448.2 156.8,456 151.6,455.7 154.2,447.9 			"/>
			<path class="st75" d="M164.6,448.7l10.3,2.7c0,0,2.2-1.2-4.7-3.7c0,0,10.5,2.2,6.4-0.5l-3.4-1l5.1-1.7
				C178.3,444.5,173.2,441.3,164.6,448.7z"/>
			<path class="st77" d="M179.1,381.2c0,0,5.6,15.3,6.9,27s4.4,36.1-30.3,43.6c0,0-19.2,6.1-12.8-27c0,0-16.3-42.4,15.1-50.6l1-0.3
				C159,373.9,170.5,365.9,179.1,381.2z"/>
			<path class="st78" d="M179.4,390.8c0.1,0.9,0.6,1.7,1.5,2c6.3,3.5,10.4-0.2,10.4-0.2l-0.1-0.1l-4.1-3.1l0,0l0.3-0.1
				c0.9-0.2,1.7-0.5,2.5-0.8c3.2-1.3,3.8-3,3.8-3l-8.5-0.7c-2.8-0.4-5.4,1.6-5.8,4.4C179.4,389.9,179.4,390.4,179.4,390.8z"/>
			<path class="st79" d="M187.4,389.5c0.9-0.2,1.7-0.5,2.5-0.8C189,389,188.1,389.3,187.4,389.5z"/>
			<path class="st79" d="M183.7,390.3c2.3,1.4,4.8,2.2,7.5,2.3l-4.1-3.1C186,389.9,184.8,390.1,183.7,390.3z"/>
			<ellipse class="st75" cx="169.1" cy="390.9" rx="4" ry="5.1"/>
			<ellipse class="st80" cx="167.7" cy="387.4" rx="1.3" ry="1.5"/>
			<path class="st75" d="M165.3,381.3c0,0-4.7,0-5.1,4.7C160.2,386,157.7,378.4,165.3,381.3z"/>
			<path class="st81" d="M137.2,437.8c0,0-15.1,10.4-24.6,17.9c0,0-2.5,4.7,3.6,5.9c0,0-0.4,3.2,2.3,3.6c1.9,0.2,3.8,0,5.6-0.6
				c0,0-0.6,3.5,1.9,4s2.1-1.5,13.3-25.1C139.3,443.5,143.1,437.8,137.2,437.8z"/>
			<line class="st82" x1="116.2" y1="461.7" x2="136.7" y2="440.7"/>
			<line class="st82" x1="124.3" y1="464.5" x2="137.1" y2="441.6"/>
			<path class="st83" d="M149.9,398.2c0,0-31.4,20-20,48.1c0,0,19.7,13.9,29.2,0.6S149.9,398.2,149.9,398.2z"/>
			<path class="st84" d="M128.2,388l2.3-1.8c-2.2,26.7,6.4,39.2,6.4,39.2s15.8,7.2,25.6-1.9s7-11.4,7.5-17s-13.1,1.7-19.4-5.8
				s-4.2-23.1,11.7-23.3s19.2,10,19.2,10c0-0.9-0.2-1.8-0.3-2.7c-1.1-5.7-5.6-18.4-24.1-18.1C129.1,366.8,126,379,126,379
				c2.9-1.7,5.9-3,9.2-3.9c-4.2,4.2-7.4,9.2-9.4,14.7L128.2,388z"/>
			<path class="st81" d="M125.7,389.8l2.4-1.9c5.2-5.5,12.7-10.2,23.4-12.3c16.9-3.4,25.3,2.3,29.4,9c-1.1-5.7-5.6-18.4-24.1-18.1
				C129.1,366.8,126,379,126,379c2.9-1.7,5.9-3,9.2-3.9C131,379.3,127.8,384.3,125.7,389.8z"/>
			<path class="st85" d="M136.2,438.7c0.4,4.9,13,18.7,22,11.3c1.9-1.7,3.4-3.7,4.3-6.1c8.5-18.6-4.3-24.7-4.3-24.7
				c-12.1-1.5-19.3,8.3-21.4,15.2C136.4,435.8,136.2,437.2,136.2,438.7z"/>
			<path class="st86" d="M136.9,435c0.3,3.9,12.8,13.3,21.2,15c0.7,0.1,2.9-3.1,2.9-3.4c-4.8-1.5-17.7-7.2-22.3-16.5
				C137.7,431.9,136.8,433.9,136.9,435z"/>
			<path class="st87" d="M136.2,438.7c0.4,4.9,13,18.7,22,11.3c-4.8-1.5-16.8-6.2-21.4-15.6C136.4,435.8,136.2,437.2,136.2,438.7z"
				/>
			<path class="st88" d="M443.1,370.9l0.5,4.1c0,0-11.9-10.5-9.4-22.5s8-12.4,12.3-17.6s3.9-13.7-2.1-17.3s-15.8-0.5-19.2,8.6
				l-0.1-6.3c0,0-11.8,14-10.3,29.7c1.4,15.3,14.6,27,21.9,34.5c0.9,1.1,4.2,5.4,4,10c0,0.1,0,0.2,0,0.3
				c-0.3,7.1-5.6,14.2-17.2,12.9l-3.8,11.9l1.1-0.4c0,0,27,0.9,30.1-19.8S443.1,370.9,443.1,370.9z"/>
			<g class="st89">
				<path class="st90" d="M440.2,340.5c0,0-1.7-7.6-12.1-8.3c-1.5,0.2-2.9,0.7-4.3,1.4c1.6-0.2,3.3,0.1,4.8,0.9
					c2.1,1.4,7.7,5.1,8.6,9.5L440.2,340.5z"/>
				<path class="st90" d="M443.9,337.4c0,0,2.1-12.1-9-12.9c0,0,5.5-1.6,9.5,2c2.3,1.9,3.3,4.9,2.5,7.8
					C446.1,335.5,445.1,336.5,443.9,337.4z"/>
				<path class="st90" d="M434.6,350.3c0,0-6.6-2.3-9.7-1.7s-5.5,2.7-5.8,3.8c0,0,3.8-1.6,5.8-1.5s8.9,3.5,8.9,3.5L434.6,350.3z"/>
				<path class="st90" d="M435,362.5c0,0-5-2.6-8-1.2c0,0,7.7,2.4,10.2,5.6L435,362.5z"/>
				<path class="st90" d="M443.6,375c0,0-6.3-1-8.6-2.8s-3.2-2.7-3.2-2.7c2.9,1.3,5.9,2.2,9,2.8L443.6,375z"/>
				<path class="st90" d="M432.4,379.9c0,0,6.6-0.2,9.8,1.2c1.9,0.9,3.6,2.2,4.9,3.8c0,0-5.5-2.5-11-1.4L432.4,379.9z"/>
				<path class="st90" d="M444.5,390.3c0,0,6.3,1.9,6.8,4.9c0,0-0.1,3-0.3,3.9C450.9,399.1,446.1,391,444.5,390.3z"/>
				<path class="st90" d="M443.6,401.9c0,0,1.9,5,1.4,8.9c0,0-2.5,2.5-3.4,2.6C442.7,409.7,443.4,405.8,443.6,401.9z"/>
			</g>
			<path class="st91" d="M379.9,421.8l-28.9,0.2c0,0-0.8-9.9,21.4-10.1c0,0-7.8-8.3-9.1-15.3s44.9-0.8,44.9-0.8l-2.6,25.1
				L379.9,421.8z"/>
			<path class="st92" d="M408.2,354.7c-17.1-19.2-27.5-25.1-38.5-39.1c-10.9-13.9-37.7-8.3-36,0.3l-0.4-0.3c0,0-3.8,30.7,0.3,41.9
				c2.5,6.7,7.5,13.7,12.2,19.7l0.3-0.2c0,0,23,23.5,32.1,30c4.3,3.1,10.4,5.8,15.7,7.9c1.4,0.3,2.8,0.5,4.2,0.7
				c18.7,2.5,27.2-26.5,27.2-26.5S425.3,373.9,408.2,354.7z"/>
			<path class="st91" d="M375.9,345.2c0,0,13.3,26-6.9,49.7l-1.3,1.1l-6.1-12.4L375.9,345.2z"/>
			<path class="st93" d="M334,318.9c0,0-9.8,4.1-11,25.9v5.2c0,0-12-10.5-17.7-13.8s-15.7-5.9-22.8-0.9c0,0,4.4,12.3,18.3,11.6
				c0,0,21.8,27.6,26.3,29.8s14.9,0.5,20.5-9S334,318.9,334,318.9z"/>
			<path class="st91" d="M354.2,317.8c5.8,1.9,12,2.2,18,1l-2.3-3.2L354.2,317.8z"/>
			<path class="st92" d="M375.1,313.9c0.3-1.6,0.3-3.2-0.1-4.8l1.4,1.1c1-4,0-9.4,0-9.4l0.5-0.7v-0.1c13.7-23,1.6-38.9,1.6-38.9
				l-1,0.2c-3.5,0.6-12.8,12.1-12.8,12.1l0,0c-8.3-5.6-15.7-5.6-15.7-5.6l-9.7-15.5c-6.1-1.1-10.8,24.1-10.8,24.1s-9.9,3.9-10.9,8.8
				c-0.9,4.2,2.9,13.8,4,16.5c1.8,3.4,5.6,9.1,12,12.1c8.8,4.2,25.4,4.5,34.1,3.3c2.2-0.4,4.3-1.3,6-2.6l-0.2-2L375.1,313.9z"/>
			<path class="st94" d="M328.6,286.9c0,0,3.5,0,5.3-0.9s5.9-5.1,9.1-3.2s3.1,7.3,3.1,7.3s0.6,4.5,2.8,6.4s12.3,5.5,10.1,11.3
				c-0.6,1.7-1.5,3.2-2.7,4.5c-1.8,1.6-2.1,5.8-2.1,5.8s-13,0-17.1-1.1s-8.1-2.3-11.8-9.3s-5-12.7-3.8-17.4
				C321.6,290.2,322.3,286.6,328.6,286.9z"/>
			<path class="st91" d="M355.1,269c0,0-5.7,1.6-12.3,12.2c0,0,7.1-8.4,15.7-11C358.5,270.2,356,269.2,355.1,269z"/>
			<path class="st91" d="M360.6,271.1c0,0-7.9,4.1-12.5,9.4c0,0,11.4-7.3,15.2-8C363.2,272.5,361.1,271.4,360.6,271.1z"/>
			<path class="st91" d="M349.6,268c0,0-5.6,4.2-7.5,9c0,0,7.3-7.8,10.2-8.7C351.4,268.2,350.5,268.1,349.6,268z"/>
			<path class="st91" d="M363,300.9c0,0,4.8-1.3,13.7,1.7c0,0,0.2,3.2,0.2,4.2C376.8,306.7,365.2,301.5,363,300.9z"/>
			<path class="st91" d="M363.1,306.4c0,0,4-1.5,12.1,4c0.2,1.2,0.1,2.3-0.1,3.5C375.1,313.9,366.3,307.8,363.1,306.4z"/>
			<path class="st91" d="M319.4,282.4c0,0,2.6,1.6,3.3,2.8c0.2-1.6-0.3-3.3-1.5-4.5C320.6,281.3,319.9,281.8,319.4,282.4z"/>
			<path class="st91" d="M317.5,286.9c1.3,1,2.6,2,3.8,3.1c0,0-0.5-3.9-3.1-6C317.7,284.8,317.5,285.8,317.5,286.9z"/>
			<path class="st91" d="M360.4,277.7c-2.2,2.3-5.2,3.8-8.4,4.2c1.9,0.1,3.8,0.1,5.6,0C359,281.6,360.4,277.7,360.4,277.7z"/>
			<path class="st91" d="M340.2,274.1c0,0-0.7,2.7,0.2,4.1c0,0-1.5-1.4-1.5-2C339.3,275.5,339.7,274.8,340.2,274.1z"/>
			<path class="st95" d="M377,261.4c0,0-7.2,3.5-14.6,15.7c0,0,8.2,9.1,10.1,18.9C372.5,296,386.5,277.8,377,261.4z"/>
			<path class="st95" d="M341.2,271.3c-0.9-4.1-3.2-16-1.8-18.8l0,0c-6.1-1.1-10.8,24.2-10.8,24.2
				C332.7,274.5,336.9,272.7,341.2,271.3z"/>
			<path class="st58" d="M333,275.5c0,0-2.5,0.2-4.4,3.8s0.4,6.2,1.7,6.5s3.7-0.2,5.9-2.7C336.2,283,336.5,277.3,333,275.5z"/>
			<path class="st59" d="M335.7,279.3c-0.3-1.6-1.3-3-2.7-3.8c0,0-2.5,0.2-4.4,3.8c-0.8,1.4-0.9,3.1-0.3,4.6
				C329.6,284.1,332.8,284,335.7,279.3z"/>
			<path class="st60" d="M332.5,278.5c-0.2,0.4-0.7,0.5-1.1,0.3c0,0,0,0,0,0c-0.4-0.2-0.5-0.7-0.3-1.1c0.2-0.4,0.7-0.5,1.1-0.3
				S332.7,278.1,332.5,278.5L332.5,278.5z"/>
			<path class="st96" d="M328.9,298.6c-0.1,0.1-0.3,10.3,3.3,10.7s5.9-3.1,6.8-5.6c0,0-4.2-2.2-5-9.5
				C332.6,296,330.9,297.4,328.9,298.6z"/>
			<path class="st60" d="M312.4,290.6c0,0,10.8,1.5,16.1,2.9C323.3,291.5,317.9,290.5,312.4,290.6z"/>
			<path class="st60" d="M315.8,297.4c3.5-1,7.1-1.7,10.8-2C326.6,295.4,320.4,294.4,315.8,297.4z"/>
			<path class="st60" d="M340.1,301c8.5,3.8,16.6,8.4,24.3,13.6C357.4,308.3,349.1,303.6,340.1,301z"/>
			<path class="st60" d="M339.4,296.5c0,0,21.8,3.7,41.1,11.7C380.4,308.2,356,296.9,339.4,296.5z"/>
			<path class="st60" d="M338.4,298.7c0,0,19.6,4.7,33.6,12.8C372,311.5,356.2,301.5,338.4,298.7z"/>
			<path class="st60" d="M310.7,283.3c0,0,13,6.2,19.8,9.9C330.5,293.2,323.4,287.6,310.7,283.3z"/>
			<path class="st58" d="M347.9,289.2c-0.4,2.8,1.2,5.5,3.7,6.7c4.5,2.1,10.4,1.7,12.8-5.2c0,0-1.4-4.2-7.8-5.7
				C353.1,284,349.3,285.8,347.9,289.2z"/>
			<path class="st59" d="M349.4,294.3c8.1,0.6,9.8-7.1,10-8.4c-0.9-0.4-1.8-0.8-2.8-1c-3.6-1-7.3,0.8-8.8,4.2
				C347.6,291,348.2,292.8,349.4,294.3z"/>
			<path class="st60" d="M353.7,287.2c-0.3,0.4-0.8,0.6-1.3,0.3c-0.4-0.3-0.6-0.8-0.3-1.3c0.3-0.4,0.8-0.6,1.3-0.3c0,0,0,0,0,0
				C353.8,286.2,353.9,286.8,353.7,287.2C353.7,287.2,353.7,287.2,353.7,287.2z"/>
			<path class="st97" d="M339,303.8c-1.6-1-2.8-2.4-3.5-4.1c-2.6,0.5-4.8,2.1-6.3,4.3l0,0c0.4,2.6,1.3,5.2,3.1,5.4
				C335.9,309.7,338.1,306.2,339,303.8z"/>
			<polygon class="st60" points="329.6,298.5 330.2,300 331.4,296.8 			"/>
			<polygon class="st60" points="336.1,300.9 335.3,303.3 337,302.1 			"/>
			<path class="st98" d="M323.6,298.7c0,0,5.3,1.8,10.3-5.4l0.3,0.7C334.2,294,329.4,301.8,323.6,298.7z"/>
			<path class="st98" d="M333.8,294.6c0,0,0,9.4,9.1,10.5c-4.9-1.3-8.3-5.6-8.4-10.6"/>
			<path class="st99" d="M332.9,290.1c0,0-1.8-1-1.4-1.7s3.1,0,4.8,0.6s4.3,1.8,4,2.7s-2.7,0.1-2.7,0.1s-1.3,4.4-3.9,3.4
				S332.9,290.1,332.9,290.1z"/>
			<path class="st91" d="M395.7,416.1c0,0-6.3-2.7-7.7-3.2c-5.1-5.6-7.9-13-7.7-20.6c0.4-12.6,8.8-19.9,13.1-21.5s4.1,21.5,4.1,21.7
				S395.7,416.1,395.7,416.1z"/>
			<path class="st92" d="M397.5,416.6c0,0-25.3-2.9-26.9,10.7c0,0,35.2,1.1,49.6,0.7c0,0,7.9-24.5,5.1-39.1
				c-2.2-12.3-12.8-21.4-25.3-21.6C390.2,367.5,365.7,396,397.5,416.6z"/>
			<path class="st100" d="M333,312.9c0,0-0.9,11.6-0.9,15.5c0,2.2,0.2,4.4,0.5,6.6l-2.3-2.1c0.7,2.3,1.1,4.6,1.4,7
				c-0.4-0.4-0.9-0.7-1.5-1c0.7,1.7,1.2,3.5,1.3,5.3c-0.3,4.8,0.1,9.7,1.1,14.4l-1.2-0.3c0.6,1.1,1.1,2.2,1.5,3.3
				c0.4,1.4,8.1,15.3,17.5,22.5s20.8,17.3,20.8,17.3s-3.6-7.4-5.6-12.4s-10.5-26.3-10.4-33s3.5-14.4,4.5-15.7c0,0-2.8,1.1-3.8,2.4
				c0.4-1.5,0.9-2.9,1.7-4.2L356,339c0,0,1.1-4.5,2.2-6.2c-1.3,0.3-2.4,1-3.1,2c-0.9-6.1-1.2-12.3-0.7-18.4
				c0.7-10.1-21.6-3.5-21.6-3.5"/>
			<path class="st92" d="M379.4,356.7c1,14.6-6.2,38-39.1,72.3c-7.2,1.3-14.5,1.4-21.7,0.3c0,0,0.5-11.5,16.1-10.9
				c0,0,7.9-10.1,16.1-47.1c3.7-16.7,7.4-25.2,10.5-29.5"/>
			<path class="st100" d="M370.4,427.3c0,0,11.1,0.3,23.3,0.6c0.5-5-2.6-9.7-7.5-11.2C379.3,417.4,371.3,419.9,370.4,427.3z"/>
			<path class="st100" d="M336.6,415.5c-0.5,1-1.2,2-1.8,3c-15.7-0.6-16.1,10.9-16.1,10.9c7.2,1.1,14.5,0.9,21.6-0.3
				c2-2.1,3.9-4.1,5.7-6.1C344.4,418.4,339.6,416.3,336.6,415.5z"/>
			<path class="st101" d="M282.4,335.3c0,0,4.4,12.3,18.3,11.6c0,0,1.8,2.3,4.5,5.7c3-3.8,3.5-9.5,3.2-14.3c-1-0.7-2.1-1.4-3.2-2.1
				C299.6,333,289.5,330.3,282.4,335.3z"/>
			<path class="st101" d="M374,427.4c0,0,0.9-5,5.6-6.4c0,0-3.9,3.1-4.1,6.4H374z"/>
			<path class="st101" d="M322,429.8c0,0,0.8-5.4,5.4-7c0,0-3.2,3.6-3.8,7.1C323.5,430,322.4,429.9,322,429.8z"/>
			<path class="st102" d="M285.5,340.4c2.7-1.8,6-2.5,9.2-2.1c-3.3-1.4-7.1-1.1-10.3,0.6L285.5,340.4z"/>
			<path class="st103" d="M372.6,349c-10.6,2.1-16.1,6.6-18.3,9c-0.6,1.8-1.2,3.9-1.8,6.2C358.3,359.9,372.6,349,372.6,349z"/>
			<path class="st103" d="M368.4,365.4c-6.5,0.8-14.2,4.5-17.6,6.3c0,0.1,0,0.2-0.1,0.4c-0.3,1.4-0.6,2.8-0.9,4.2
				C358.4,373.4,368.4,365.4,368.4,365.4z"/>
			<path class="st103" d="M346.2,390.2c9.2-1,19.3-6.9,19.3-6.9c-6.1,0.3-14.3,2-18.2,3C346.9,387.7,346.5,389,346.2,390.2z"/>
			<path class="st103" d="M378,324.9c-3,1.9-8.2,4.5-14,4.6c0,0,7.3,3.7,17.2-1.5C380.1,327,379,325.9,378,324.9z"/>
			<path class="st103" d="M392.5,338.6c-1.1-1-2.1-2-3.1-2.9c-4.5,3.1-11.1,6.9-16.5,7c3.7,0.9,7.5,0.7,11.1-0.4
				C386.9,341.3,389.8,340.1,392.5,338.6z"/>
			<path class="st103" d="M402.2,348.3c-4,2.9-11,7.1-17.4,7.1c0,0,4.5,1.8,7.7,1.6c2.5-0.1,9.5-2.5,13.6-4.5
				C404.7,350.9,403.4,349.6,402.2,348.3z"/>
			<path class="st103" d="M416.1,365c-3,2.6-9.2,6.9-16.6,7.3c2.8,1.1,5.8,1.4,8.8,1.1c3.7-0.7,7.3-1.8,10.8-3.3
				C418.3,368.5,417.3,366.8,416.1,365z"/>
			<path class="st103" d="M396.8,390.2c0,0,11.5,5.4,18.3,4.7c2.8-0.3,7-0.8,10.9-1.3c0-1.3-0.1-2.7-0.2-4c-0.1-1.2-0.4-2.3-0.6-3.4
				c-4.3,1.4-8.8,2.6-13.3,3.4C406.8,390.2,401.8,390.4,396.8,390.2z"/>
			<path class="st103" d="M424.8,408c-3.6,0.3-9.3,0.8-12.4,1c-3.2,0.3-6.4,1-9.5,2c2.9,0.9,5.8,1.4,8.8,1.6H424
				C424.3,411.1,424.5,409.6,424.8,408z"/>
			<path class="st92" d="M333.3,315.6c0,0,17.8,3.4,27.6,2.8"/>
			<path class="st104" d="M295.1,411.5l1.8,4.9c0,0-2.4-2-8.1,1.8s6.7-0.6,6.7-0.6s-6.9,1-4.5,4.1l6.1-3.2l-2.6,3.5l8.3-2.6l-2.6-2
				l-2-3.1l3.3-5.7L295.1,411.5z"/>
			<path class="st104" d="M278.9,403l1.8,4.9c0,0-2.4-2-8.1,1.8s6.7-0.6,6.7-0.6s-6.9,1-4.5,4.1l6.1-3.1l-2.6,3.5l8.3-2.6l-2.6-2
				l-2-3.2l3.2-5.7L278.9,403z"/>
			<path class="st105" d="M321.1,385.2c0,0,9.1-1.3,9.9-11.7s11.3-10.2,7.3-1.3s0.5,0.6,0.5,0.6s9.7-8,8.2,0.9s-6.5,9-6.5,9
				s14.9-5.5,10.5-0.1s-14.6,11.4-25.9,10.8S321.1,385.2,321.1,385.2z"/>
			<path class="st106" d="M258.4,365.4c0,0-10.6,15.5,4.3,28.4c14.9,12.9,16-6.1,16-6.1L272,371l-13.5-6.4"/>
			<path class="st107" d="M258.7,338.5c0,0-9.7,11.6,0.5,29.9c0,0-6.1,32.5,25.4,41.1s39.7-18.9,39.7-18.9l-21.6-4l8.5-24.4
				c0,0-0.1-26-10.5-28s-19.8-4.7-19.8-4.7S264.9,321.7,258.7,338.5z"/>
			<path class="st106" d="M255.7,343.6c0,0,5.2-12.2,15.3-12.4s4.7,18.6,4.7,18.6c5-5.4,12.1-8.4,19.5-8.4c12.5,0,16.4,20.1,2,31.5
				s-15.7,18.9-4.3,29.6c0,0,2.9,7.8,8.4,9c0,0,11.9-3.7,20.4-11.7s12.3-9.8,6.1-15.8l-9.7,0.1l-5.5-12.9c0,0,5.8-29.3-1.2-40.7
				c0,0,8.7-9.5,4.9-14.2s-11.3,1.6-9.6,11.4l-4.3-14.4c0,0-9.7-0.1,2.3,13.6c0,0-3-7.2-17-6.1C272.8,322.2,258.9,327,255.7,343.6z"
				/>
			<path class="st105" d="M298.6,378.9c0,0-11,6.5-4,18.8s24.6-3.7,24.6-3.7s5-2.9-3.3-6.4s0.4-1.8,0.4-1.8l-7.2-4.3l5.8,0.8
				C315,382.3,306.9,372.9,298.6,378.9z"/>
			<path class="st108" d="M271.5,359.5l-1.3,6.5c0.6,0.6,1.6,0.7,2.4,0.4c0.8-0.3,1.5-0.8,2.1-1.4l2.8-2.5c1-1,1.8-2,2.6-3.1
				c0.4-0.8-1.5,0.2-2-0.5c-0.6-0.7-1.3-1.3-2-1.8c-0.6-0.5-1.4-0.8-2.2-0.8c-0.8,0.1-1.5,0.6-1.9,1.3c-0.4,0.7-0.6,1.4-0.8,2.2"/>
			<ellipse class="st109" cx="290.1" cy="352.2" rx="4.7" ry="4.6"/>
			<ellipse class="st110" cx="293.4" cy="350.7" rx="1.2" ry="1.2"/>
			<ellipse class="st109" cx="268.8" cy="344.4" rx="4.2" ry="4.6"/>
			<ellipse class="st110" cx="271.7" cy="342.9" rx="1.1" ry="1.2"/>
			<path class="st111" d="M268.7,352.5c0,0,1.2-3,5.9-2.7s5.8,9.3,5.8,9.3s-7.1,1.3-9,5.2s-8.7-3.7-2.7-11.5"/>
			<path class="st112" d="M259.1,368.4c0,0,6.5,10.2,21.4,9.5"/>
		</g>
	</g>
	
		<radialGradient id="SVGID_11_" cx="-2788.7708" cy="1144.5104" r="476.345" gradientTransform="matrix(0.51 0 0 -0.48 1660.51 803.96)" gradientUnits="userSpaceOnUse">
		<stop  offset="0" style="stop-color:#FFFFFF"/>
		<stop  offset="0.43" style="stop-color:#D3F9FC"/>
	</radialGradient>
	<path class="st113" d="M490.4,254.6c0,126.2-107.9,228.5-241,228.5S8.5,380.8,8.5,254.6s107.9-228.5,241-228.5
		S490.4,128.4,490.4,254.6z"/>
	<path class="st114" d="M68.9,173.8c9.8-35.6,38.8-70.1,98.6-91.8c6.7-2.5,10.1-9.9,7.6-16.6c-0.7-1.8-1.7-3.4-3-4.7l-1.1-1.2
		c-3.4-3.3-8.3-4.6-12.9-3.2C135.6,63,77.4,96.2,58.3,171c-0.6,2.3,0.4,4.6,2.3,5.9l0.1,0.1c2.5,1.6,5.9,0.9,7.5-1.6
		C68.5,174.9,68.8,174.3,68.9,173.8z"/>
	<path class="st115" d="M263.4,458.6c-133.1,0-240.9-102.3-240.9-228.4c0-32.6,7.3-64.8,21.4-94.2c-2.6,3.9-5.2,7.8-7.5,11.9
		c-20,33.7-30.6,72.2-30.6,111.4c0,126.2,107.9,228.5,241,228.5c97.7,0,181.7-55.1,219.6-134.3C423.5,416.7,348.6,458.6,263.4,458.6
		z"/>
	<circle class="st114" cx="60.6" cy="192.9" r="8.2"/>
</g>
</svg>
