<?xml version="1.0" encoding="utf-8"?>
<!-- Generator: Adobe Illustrator 25.2.3, SVG Export Plug-In . SVG Version: 6.00 Build 0)  -->
<svg version="1.1" id="Layer_1" xmlns="http://www.w3.org/2000/svg" xmlns:xlink="http://www.w3.org/1999/xlink" x="0px" y="0px"
	 viewBox="0 0 510 510" style="enable-background:new 0 0 510 510;" xml:space="preserve">
<style type="text/css">
	.st0{opacity:0.3;enable-background:new    ;}
	.st1{opacity:0.91;fill:url(#SVGID_1_);enable-background:new    ;}
	.st2{clip-path:url(#SVGID_3_);}
	.st3{fill:#A0D8D0;}
	.st4{fill:#859E7B;}
	.st5{fill:url(#SVGID_4_);}
	.st6{fill:url(#SVGID_5_);}
	.st7{fill:#202658;}
	.st8{fill:#121011;}
	.st9{fill:#1B1E28;}
	.st10{fill:url(#SVGID_6_);}
	.st11{fill:url(#SVGID_7_);}
	.st12{fill:url(#SVGID_8_);}
	.st13{fill:url(#SVGID_9_);}
	.st14{fill:#8B4E29;}
	.st15{fill:#C87942;}
	.st16{fill:#D1A787;}
	.st17{fill:url(#SVGID_10_);}
	.st18{fill:url(#SVGID_11_);}
	.st19{fill:url(#SVGID_12_);}
	.st20{opacity:0.3;fill:#0C0D0F;enable-background:new    ;}
	.st21{fill:url(#SVGID_13_);}
	.st22{fill:#485672;}
	.st23{opacity:0.11;enable-background:new    ;}
	.st24{fill:#4F4E4E;}
	.st25{fill:#449F90;}
	.st26{fill:#AFDDD6;}
	.st27{fill:#8FD1C5;}
	.st28{fill:#6D1549;}
	.st29{fill:#81235E;}
	.st30{fill:url(#SVGID_14_);}
	.st31{fill:#AF5286;}
	.st32{fill:#88406E;}
	.st33{fill:url(#SVGID_15_);}
	.st34{fill:#0C8479;}
	.st35{fill:#9F5F32;}
	.st36{fill:#29306E;}
	.st37{fill:#9D527E;}
	.st38{fill:#B7749D;}
	.st39{fill:#F1AD85;stroke:#77442A;stroke-width:0.5;stroke-miterlimit:10;}
	.st40{fill:#EAECEC;}
	.st41{fill:#64BCAD;}
	.st42{fill:#9F3F23;}
	.st43{fill:#F16623;}
	.st44{fill:#CB5428;}
	.st45{fill:url(#SVGID_16_);}
	.st46{fill:url(#SVGID_17_);}
	.st47{fill:#00A69C;}
	.st48{fill:#FFFFFF;}
	.st49{fill:#D6C8AE;}
	.st50{fill:#7C1A51;}
	.st51{fill:url(#SVGID_18_);}
	.st52{fill:url(#SVGID_19_);}
	.st53{fill:#9E6DA3;}
	.st54{fill:#805983;}
	.st55{fill:url(#SVGID_20_);}
	.st56{fill:#C04927;}
	.st57{fill:#E98056;}
	.st58{fill:url(#SVGID_21_);}
	.st59{fill:#F19776;}
	.st60{fill:url(#SVGID_22_);}
	.st61{fill:url(#SVGID_23_);}
	.st62{fill:url(#SVGID_24_);}
	.st63{fill:#F1AD85;stroke:#77442A;stroke-width:0.75;stroke-miterlimit:10;}
	.st64{fill:#F1AD85;}
	.st65{fill:#77442A;}
	.st66{fill:none;stroke:#77442A;stroke-width:0.75;stroke-miterlimit:10;}
	.st67{fill:none;stroke:#77442A;stroke-width:0.5;stroke-miterlimit:10;}
	.st68{fill:#264426;stroke:#162B17;stroke-width:0.25;stroke-miterlimit:10;}
	.st69{fill:#2F5C2D;stroke:#223D20;stroke-width:0.25;stroke-miterlimit:10;}
	.st70{opacity:0.54;fill:#DDDAD9;enable-background:new    ;}
	.st71{opacity:0.57;fill:#9FDCF4;enable-background:new    ;}
	.st72{fill:#DDDAD9;}
	.st73{opacity:0.33;fill:#FFFFFF;enable-background:new    ;}
	.st74{opacity:0.89;}
	.st75{fill:#E9F5FA;}
	.st76{opacity:0.46;fill:#FFFFFF;enable-background:new    ;}
	.st77{opacity:0.53;}
	.st78{fill:#B1E5E0;}
	.st79{opacity:0.1;fill:url(#SVGID_25_);enable-background:new    ;}
	.st80{opacity:0.5;fill:#4ECECE;enable-background:new    ;}
	.st81{opacity:0.6;fill:#FDFFFF;enable-background:new    ;}
</style>
<circle class="st0" cx="262.3" cy="262.3" r="242.7"/>
<radialGradient id="SVGID_1_" cx="-1744.8434" cy="1156.5938" r="584.4588" gradientTransform="matrix(0.48 0 0 -0.48 1088.22 803.96)" gradientUnits="userSpaceOnUse">
	<stop  offset="0" style="stop-color:#FFFFFF"/>
	<stop  offset="0.61" style="stop-color:#D3F9FC"/>
	<stop  offset="0.93" style="stop-color:#48E5FF"/>
</radialGradient>
<path class="st1" d="M490.2,248.8c0,133.4-108.6,241.6-242.6,241.6S5,382.2,5,248.8S113.6,7.2,247.6,7.2S490.2,115.3,490.2,248.8z"
	/>
<g>
	<defs>
		<ellipse id="SVGID_2_" cx="248.3" cy="246.1" rx="242.2" ry="241.1"/>
	</defs>
	<clipPath id="SVGID_3_">
		<use xlink:href="#SVGID_2_"  style="overflow:visible;"/>
	</clipPath>
	<g class="st2">
		<rect x="-748.8" y="-299.4" class="st3" width="1170.3" height="780"/>
		<rect x="-733.5" y="-282.7" class="st4" width="1229.2" height="780.2"/>
		
			<linearGradient id="SVGID_4_" gradientUnits="userSpaceOnUse" x1="82.4681" y1="419.185" x2="130.11" y2="419.185" gradientTransform="matrix(1 0 0 -1 0 512)">
			<stop  offset="0" style="stop-color:#293B8F"/>
			<stop  offset="1" style="stop-color:#252962"/>
		</linearGradient>
		<path class="st5" d="M84.5,19.4c0,0,17.8,36,29.4,65.7c0,0,16.1,54.1,16.1,62s-16.2,19.9-24.2,19S75.6,51.4,84.5,19.4z"/>
		
			<linearGradient id="SVGID_5_" gradientUnits="userSpaceOnUse" x1="47.8869" y1="360.9931" x2="114.2769" y2="429.2931" gradientTransform="matrix(1 0 0 -1 0 512)">
			<stop  offset="0" style="stop-color:#293B8F"/>
			<stop  offset="1" style="stop-color:#151945"/>
		</linearGradient>
		<path class="st6" d="M91.5,40.2l4.1,2.7c0,0,12.2,27,15.3,49.2s3,28.6,20.1,26.8s-7.8,23.8-24.6,29.7s-15.9,17.4-23.1,4
			S91.5,40.2,91.5,40.2z"/>
		<path class="st7" d="M121,184.9c-6.9-8.3,5.5-15.1,12.4-22c1.4-1.4,4.1-6,0-6.9c-16.9,4.4-22.9-6-24.6-18.8
			c-5.6,6.1-10.8,12.6-15.7,19.4L72,215.8c18.3,0.7,39.1-12.7,55.4-27C124.8,188.4,122.5,187,121,184.9z"/>
		<path class="st8" d="M-98.1,310.3l-5.4,2.1c0,0-3.6,2.8-0.5,11.3l2.9,8.8c0,0-1.7,44.8,0,77.4l178.6-31.5l27.4-36l7.8-34.4
			L-98.1,310.3z"/>
		<path class="st9" d="M-84.9,283.6l8.3,3c0,0-27.2,3.8-22.2,9.1c0,0-13.8,14.5-6.3,19.8c27.5,19.6,7.9,141,31.7,146.5
			c16.1,3.8,82-12.5,105.6-11.5C94.6,453.2,86,321.8,96,312.2s2.9-26.3-4.5-29.1S-84.9,283.6-84.9,283.6z"/>
		
			<linearGradient id="SVGID_6_" gradientUnits="userSpaceOnUse" x1="-0.7029" y1="622.8297" x2="-3.6729" y2="353.2997" gradientTransform="matrix(1 0 0 -1 0 512)">
			<stop  offset="0" style="stop-color:#293B8F"/>
			<stop  offset="1" style="stop-color:#252962"/>
		</linearGradient>
		<path class="st10" d="M100.1,270.2c0-0.1-0.1-0.3-0.1-0.5c0,0,0,0,0-0.1v-0.2c-0.1-0.5-0.1-1-0.1-1.5c0-0.5,0-0.9,0.2-1.4
			c-0.1-0.7-0.2-1.4-0.2-2.1c0-10.6,1.5-62.8,1.7-106c0-7.3,4.2-23.9,3.8-29.8c-2.3-40.7,1.9-52.6-5.1-55c0,0-0.5-3.3-3.7-22.5
			S99.7,12,72.6,3.8C47.7-3.7-54-16.3-54-16.3l-4.2,5c0,0-14.1-1.1-15.9,5.5c0,0-21,12.9-37.8,38.8s8.4,134.7,9.1,149
			c0.1,1.3,8.1,12.1,8,13.9l12.3,20.5l-12.2,71.7l0.7,7.9c21.2,8,58.7,26,115.2,22.6c4.6-0.3,24.4-3.2,28.6-3.5l5.5-22.5l3.2,21.7
			c85.1-9,39.3-31.7,38-41.1C95.8,268.8,97.6,269.2,100.1,270.2z"/>
		
			<linearGradient id="SVGID_7_" gradientUnits="userSpaceOnUse" x1="60.5213" y1="499.3813" x2="-96.0387" y2="648.0613" gradientTransform="matrix(1 0 0 -1 0 512)">
			<stop  offset="0" style="stop-color:#F8C4A0"/>
			<stop  offset="0.66" style="stop-color:#D79F7E"/>
			<stop  offset="1" style="stop-color:#C48B6B"/>
		</linearGradient>
		<path class="st11" d="M-26.1-77.3c0,0-3.6,26.6-7.1,39.2l1.5,8.3c0,0-0.5,9.9,5.2,14.6S28,6.7,28,6.7s-3.7,15.8,0,17.6
			s7.5,9.7,7.5,9.7s0.8-10,1.3-17.2c0.3-4.3,0.3-8.5,0-12.8c0,0,12.5-8,13.8-20.2s-1.9-17.4-1.9-17.4L45-41l-1.1-16.9L-26.1-77.3z"
			/>
		
			<linearGradient id="SVGID_8_" gradientUnits="userSpaceOnUse" x1="54.2137" y1="592.3101" x2="48.4137" y2="747.1102" gradientTransform="matrix(1 0 0 -1 0 512)">
			<stop  offset="0" style="stop-color:#293B8F"/>
			<stop  offset="1" style="stop-color:#252962"/>
		</linearGradient>
		<path class="st12" d="M75.8-18.2C72.3-26.3,45-41,45-41s0.2,3.4,0.5,7.5l2.6,9.3l0.4,4.6l-1.2,3.3l0,0C46-9.8,36.8,4,36.8,4
			S57.3,9.1,61,12.9c3.7,3.8,8.1,18.2,15.9,24.4C76.9,37.3,79.4-10.1,75.8-18.2z"/>
		
			<linearGradient id="SVGID_9_" gradientUnits="userSpaceOnUse" x1="55.7265" y1="531.6745" x2="90.1265" y2="481.7945" gradientTransform="matrix(1 0 0 -1 0 512)">
			<stop  offset="0" style="stop-color:#293B8F"/>
			<stop  offset="1" style="stop-color:#252962"/>
		</linearGradient>
		<path class="st13" d="M75.8-18.2c-0.7-1.3-1.5-2.5-2.6-3.5L61,12.8l0.1,0.1c3.7,3.8,8.1,18.2,15.9,24.4
			C76.9,37.3,79.4-10.1,75.8-18.2z"/>
		<rect x="380.8" y="-0.8" class="st14" width="151.4" height="325.7"/>
		<polygon class="st15" points="-580.7,480.8 487.6,274.4 487.6,480.8 		"/>
		<polygon class="st16" points="456.7,374.7 322.6,332.5 -35.2,410.9 -13.2,420.6 318.2,347.6 442.6,383.9 		"/>
		<polygon class="st16" points="10.8,452.7 1.3,460.8 60.3,480.8 87.3,480.8 		"/>
		
			<linearGradient id="SVGID_10_" gradientUnits="userSpaceOnUse" x1="379.6751" y1="217.7698" x2="385.2151" y2="57.2198" gradientTransform="matrix(1 0 0 -1 0 512)">
			<stop  offset="1.000000e-02" style="stop-color:#88CBBF"/>
			<stop  offset="1" style="stop-color:#3C8D80"/>
		</linearGradient>
		<polygon class="st17" points="446,380.3 323.9,346.6 323.5,346.6 319,373.6 323.5,480.6 446,480.6 		"/>
		
			<linearGradient id="SVGID_11_" gradientUnits="userSpaceOnUse" x1="367.5087" y1="64.4402" x2="374.4487" y2="115.0902" gradientTransform="matrix(1 0 0 -1 0 512)">
			<stop  offset="1.000000e-02" style="stop-color:#ADDDD7"/>
			<stop  offset="1" style="stop-color:#46A99A"/>
		</linearGradient>
		<polyline class="st18" points="441.7,398.5 444.7,388.2 323,346.6 322.6,346.6 311,355.7 322.6,359.9 		"/>
		
			<linearGradient id="SVGID_12_" gradientUnits="userSpaceOnUse" x1="199.4615" y1="350.0696" x2="112.8515" y2="-14.9404" gradientTransform="matrix(1 0 0 -1 0 512)">
			<stop  offset="1.000000e-02" style="stop-color:#ADDDD7"/>
			<stop  offset="1" style="stop-color:#46A99A"/>
		</linearGradient>
		<polygon class="st19" points="-62.4,427.8 93.5,480.6 322.6,480.6 322.6,346.6 		"/>
		<path class="st14" d="M380.8,351.1L507.8,394l6.5-136.8c-48.6-6.5-94.1-16.3-133.5-29.6V351.1z"/>
		<path class="st20" d="M384.3,237.7h9c0,0,3.6,1.2,4,11.3s0,63.8,0,63.8s-3.5,4-6.4,4c-3.4,0.2-6.8,0.2-10.1,0L384.3,237.7z"/>
		
			<linearGradient id="SVGID_13_" gradientUnits="userSpaceOnUse" x1="3.9042" y1="268.8907" x2="21.7942" y2="162.9407" gradientTransform="matrix(1 0 0 -1 0 512)">
			<stop  offset="1.000000e-02" style="stop-color:#63BAAD"/>
			<stop  offset="1" style="stop-color:#449F90"/>
		</linearGradient>
		<path class="st21" d="M70.1,399.8l-132.5,27.9l155.9,52.9h48C109.6,462.8,84,436.8,70.1,399.8z"/>
		<path class="st22" d="M248.5,113.5l11.2,1.9c5.6-31,35.2-51.6,66.2-46c27,4.9,46.7,28.3,46.9,55.7v118.7h11.4V125.2
			c0-37.8-30.6-68.4-68.4-68.4C282.7,56.7,254.2,80.7,248.5,113.5z"/>
		<path class="st23" d="M318,68.2c30.6,1.1,54.9,26.3,54.9,56.9v118.7h4V125.2c0-31.5-25.5-57-57-57C319.3,68.2,318.6,68.2,318,68.2
			z"/>
		<rect x="350.4" y="265.7" class="st24" width="4.2" height="25.5"/>
		<rect x="333.3" y="258.9" class="st22" width="7.2" height="5.9"/>
		<path class="st22" d="M341.6,258.9h-9.5l0,0v-19.4c0-2.1,1.7-3.8,3.8-3.8c0,0,0,0,0,0h1.9c2.1,0,3.8,1.7,3.8,3.8l0,0L341.6,258.9
			L341.6,258.9L341.6,258.9z"/>
		<path class="st22" d="M362.5,245.4v67.5c0,1.5,7.2,2.7,16.1,2.7s16-1.2,16.1-2.6v-67.5c0-2.2-1.8-4-4-4h-24.3
			C364.3,241.4,362.5,243.2,362.5,245.4C362.5,245.4,362.5,245.4,362.5,245.4z"/>
		<path class="st22" d="M351.8,292.1h-17.3c-3,0-5.4-2.4-5.4-5.4v-16.6c0-3,2.4-5.4,5.4-5.4h17.3l0,0V292.1L351.8,292.1z"/>
		<rect x="353.4" y="264.8" class="st22" width="9.1" height="27.4"/>
		<rect x="353.4" y="285.7" class="st23" width="9.1" height="6.4"/>
		<path class="st23" d="M335.5,269.5v-4.7h-1.2l-0.1,0c-0.2,0.1-0.5,0.2-0.7,0.4c-0.4,0.3-0.8,0.5-1.3,0.8c-0.6,0.4-1.2,0.8-1.8,1.1
			v0.1l0,0c0,0.1,0,0.2,0,0.3c-0.2,0.4-0.4,0.9-0.5,1.3l0.1-0.3c-0.3,0.7-0.6,1.5-0.9,2.3v16.6c0.2,0.1,0.3,0.2,0.4,0.4
			c0.3,0.7,0.6,1.4,1,2.1c0.1,0.1,0.2,0.1,0.3,0.2c0.2,0.2,0.4,0.4,0.5,0.6c0.8,0.5,1.5,1,2.3,1.5h18v-6.4
			C342.9,285.7,335.6,278.5,335.5,269.5C335.5,269.5,335.5,269.5,335.5,269.5z"/>
		<path class="st23" d="M336,249.4v-13.5c-0.1,0-0.3,0.1-0.4,0.1c-0.2,0.1-0.4,0.2-0.6,0.3c-0.3,0.1-0.6,0.2-0.9,0.1
			c-0.2,0.2-0.4,0.4-0.6,0.7c-0.2,0.2-0.3,0.5-0.4,0.7l0,0c-0.1,0.4-0.5,0.7-0.9,0.9v20.1h9.5V255C338.5,255,336,252.5,336,249.4
			C336,249.4,336,249.4,336,249.4z"/>
		<path class="st23" d="M248.5,113.5l3.9,0.7l0.1-0.7c5.6-32,32.9-55.7,65.4-56.7c-0.7,0-1.4,0-2.1,0
			C282.7,56.8,254.3,80.7,248.5,113.5L248.5,113.5z"/>
		<path class="st22" d="M260.4,131.7l-18.5-3.3l0,0l2-11.3c0.5-2.8,3.1-4.6,5.9-4.1l8.4,1.5c2.8,0.5,4.6,3.1,4.1,5.9L260.4,131.7
			L260.4,131.7L260.4,131.7z"/>
		<path class="st23" d="M257.5,125.1c-5.6-1-9.4-6.2-8.6-11.9l-0.5,0.2l-0.2,0.1l0,0l-0.3,0.1L247,114c-0.3,0.1-0.5,0.3-0.7,0.4
			l-0.3,0.2l-0.2,0.2c-0.4,0.3-0.8,0.6-1.1,1c-0.1,0.1-0.1,0.1-0.2,0.1l-0.2,0.3c0,0,0,0,0,0.1s0,0.1-0.1,0.1c0,0.1-0.1,0.2-0.1,0.3
			c0,0.2-0.1,0.3-0.3,0.4v0.1l-2,11l18.5,3.3l1-5.9L257.5,125.1z"/>
		<path class="st25" d="M250.3,449.4c0,13.2-35.1,23.8-78.5,23.8s-78.5-10.7-78.5-23.8s35.1-23.8,78.5-23.8S250.3,436.2,250.3,449.4
			z"/>
		<path class="st26" d="M352.5,425.3c0,0-18.2-9-47.5-2.7l-188.6,42.8l-0.4,5.8l-15.8-2.1l-25.6,5.8l13.3,5.9h333.5v-33L352.5,425.3
			z"/>
		<path class="st27" d="M305,427.2L83.7,477.4l9.8,3.3h328.1v-28.4l-69-22.5C352.5,429.9,334.3,420.9,305,427.2z"/>
		<path class="st28" d="M168.9,443.2c-43.3,0-78.5,10.7-78.5,23.8c0,5.1,5.2,9.8,14.1,13.6h128.9c8.9-3.9,14.1-8.5,14.1-13.6
			C247.3,453.9,212.2,443.2,168.9,443.2z"/>
		<path class="st29" d="M168.9,441.5c-43.3,0-78.5,10.7-78.5,23.8c0,5.8,6.9,11.1,18.3,15.3h120.4c11.4-4.1,18.3-9.5,18.3-15.3
			C247.3,452.2,212.2,441.5,168.9,441.5z"/>
		
			<linearGradient id="SVGID_14_" gradientUnits="userSpaceOnUse" x1="169.1409" y1="61.29" x2="168.4509" y2="25.52" gradientTransform="matrix(1 0 0 -1 0 512)">
			<stop  offset="0" style="stop-color:#FFFFFF"/>
			<stop  offset="1" style="stop-color:#918F8F"/>
		</linearGradient>
		<path class="st30" d="M168.9,447.1c-36.2,0-65.6,8.3-65.6,18.4c0,6.2,11,11.8,27.9,15.1h75.4c16.9-3.3,27.9-8.9,27.9-15.1
			C234.5,455.3,205.1,447.1,168.9,447.1z"/>
		<path class="st31" d="M195.3,454.8c0,2.1-5.2,3.8-11.5,3.8s-11.5-1.7-11.5-3.8s5.2-3.8,11.5-3.8S195.3,452.7,195.3,454.8z"/>
		<path class="st31" d="M163.4,459.6c0,0.6-1.6,1-3.5,1s-3.5-0.5-3.5-1s1.6-1,3.5-1S163.4,459.1,163.4,459.6z"/>
		<path class="st31" d="M158.1,472.4c0,2.4-7.7,4.4-17.1,4.4s-17.1-2-17.1-4.4s7.7-4.4,17.1-4.4S158.1,470,158.1,472.4z"/>
		<path class="st31" d="M208.5,473.9c0,1.4-4.5,2.5-10,2.5s-10-1.1-10-2.5s4.5-2.5,10-2.5S208.5,472.5,208.5,473.9z"/>
		<path class="st32" d="M168.9,480.8c-30.4,0-54.3-6.9-54.3-15.8s23.8-15.8,54.3-15.8s54.3,6.9,54.3,15.8S199.3,480.8,168.9,480.8z
			 M168.9,450.6c-28.7,0-52.9,6.6-52.9,14.4s24.2,14.4,52.9,14.4s52.9-6.6,52.9-14.4S197.5,450.6,168.9,450.6L168.9,450.6z"/>
		
			<linearGradient id="SVGID_15_" gradientUnits="userSpaceOnUse" x1="371.42" y1="74.5825" x2="396.2235" y2="74.5825" gradientTransform="matrix(1 0 0 -1 0 512)">
			<stop  offset="1.000000e-02" style="stop-color:#D4C9B3"/>
			<stop  offset="1" style="stop-color:#00A69C"/>
		</linearGradient>
		<path class="st33" d="M392.9,420.7c-3.8-2.3-12.6,0-12.6,0l-8.9,30.3c0,0,2.1,6.8,10.5,2.7s12.4-20.8,13.6-25.3
			S396.7,423,392.9,420.7z"/>
		<path class="st34" d="M389.2,424.1c0,0,3.1-0.1,4.3,0s1.1,1.7,0.1,5.5s-4.5,15.3-8,19.3s-6.5,5.7-6.2,4S389.2,424.1,389.2,424.1z"
			/>
		<polygon class="st35" points="82.2,469.8 -36.3,430.2 322.6,352.7 453.5,393.7 451.9,380.2 323.2,341.3 -77.9,427.9 80.4,480.8 
			113.6,480.8 		"/>
		<path class="st36" d="M147.8,138.4c-3.7-3.9-1.9-9.5-1.9-12.9s3.6-13.7-14.1-6.5c-7.7,3.1-16.1,10.7-23,18.2l-0.7,7l-17.6,21.3
			c0,0,4.5,25.8,16.9,26.5s19.9-3.1,19.9-3.1c15.3-13.4,26.6-27.6,28-31.2C158.1,150,151.6,142.2,147.8,138.4z"/>
		
			<ellipse transform="matrix(0.996 -8.958956e-02 8.958956e-02 0.996 -26.4605 24.0331)" class="st37" cx="254.5" cy="306.8" rx="86.1" ry="65.8"/>
		
			<ellipse transform="matrix(0.996 -8.958964e-02 8.958964e-02 0.996 -26.4421 24.1698)" class="st38" cx="256" cy="306.6" rx="62.1" ry="47.5"/>
		<path class="st39" d="M108.2,203.4c0,0,70.8,56.8,82.9,59.3c10.3-6.4,39.1-18.9,47.3-18.5s14.6-1.8,23.1,5s16.4,11,26.7,3.2
			c7.1-5,3.9-3.9,3.9-3.9s5.7-0.7-8.2-6.4c-13.5-7.8-28.8-20.6-29.5-22.1s-4.6-6.4-12.4-0.7c-8.2,6.1-14.6,10-18.5,11
			s-12.1-6.4-19.2-14.2S152.2,162,152.2,162"/>
		<path class="st40" d="M273.3,235.2c0,0-7.4,11,19.2,11C285.9,242.9,279.5,239.3,273.3,235.2z"/>
		<path class="st41" d="M332.9,455.3c0,13.2-35.1,23.8-78.5,23.8s-78.5-10.7-78.5-23.8s35.1-23.8,78.5-23.8S332.9,442.1,332.9,455.3
			z"/>
		<path class="st41" d="M405.7,468.5c0,6.5-22.6,11.7-50.5,11.7s-50.5-5.2-50.5-11.7s22.6-11.7,50.5-11.7S405.7,462,405.7,468.5z"/>
		<path class="st42" d="M327.2,455.1c0-13.2-35.1-23.8-78.5-23.8s-78.5,10.7-78.5,23.8c0,11.1,25.1,20.5,59.1,23.1
			c12.9,1.4,31.5,0.5,31.5,0.5l0,0C298.4,476.9,327.2,467,327.2,455.1z"/>
		<path class="st43" d="M248.1,428.9c-43.3,0-78.5,10.7-78.5,23.8c0,11.1,25.1,20.5,59.1,23.1l-1-2l23.5-6.4l9,8.8l0,0
			c37.6-1.8,66.4-11.6,66.4-23.5C326.6,439.5,291.5,428.9,248.1,428.9z"/>
		<path class="st44" d="M326.6,453.8c0-13.2-35.1-23.8-78.5-23.8s-78.5,10.7-78.5,23.8c0,11.1,25.1,20.5,59.1,23.1
			c12.9,1.4,31.5,0.5,31.5,0.5l0,0C297.8,475.5,326.6,465.7,326.6,453.8z"/>
		
			<linearGradient id="SVGID_16_" gradientUnits="userSpaceOnUse" x1="235.0094" y1="115.1331" x2="299.2294" y2="-80.2669" gradientTransform="matrix(1 0 0 -1 0 512)">
			<stop  offset="0" style="stop-color:#FFFFFF"/>
			<stop  offset="1" style="stop-color:#918F8F"/>
		</linearGradient>
		<path class="st45" d="M318.2,450.4c0,10.2-29.4,18.4-65.6,18.4s-65.6-8.3-65.6-18.4s29.4-18.4,65.6-18.4S318.2,440.2,318.2,450.4z
			"/>
		
			<linearGradient id="SVGID_17_" gradientUnits="userSpaceOnUse" x1="250.5459" y1="8.7485" x2="232.0259" y2="60.4285" gradientTransform="matrix(1 0 0 -1 0 512)">
			<stop  offset="0" style="stop-color:#FFFFFF"/>
			<stop  offset="1" style="stop-color:#918F8F"/>
		</linearGradient>
		<path class="st46" d="M294.7,443.3c0,8.5-29.4,15.3-65.6,15.3s-65.6-6.9-65.6-15.3s29.4-15.3,65.6-15.3S294.7,434.9,294.7,443.3z"
			/>
		<path class="st44" d="M252.6,466.2c-30.4,0-54.3-6.9-54.3-15.8s23.9-15.8,54.3-15.8s54.3,6.9,54.3,15.8S283,466.2,252.6,466.2z
			 M252.6,436c-28.7,0-52.9,6.6-52.9,14.4s24.2,14.4,52.9,14.4s52.9-6.6,52.9-14.4S281.3,436,252.6,436L252.6,436z"/>
		<path class="st47" d="M403.9,466.2c0,6.5-22.6,11.7-50.5,11.7s-50.5-5.2-50.5-11.7s22.6-11.7,50.5-11.7S403.9,459.7,403.9,466.2z"
			/>
		<path class="st48" d="M353.5,475.1c-12.6,0-24.4-1.2-33.3-3.4c-9.9-2.4-12-3.7-12-5.6s2.1-3.2,12-5.6c8.9-2.2,20.7-3.4,33.3-3.4
			s24.4,1.2,33.3,3.4c9.9,2.4,12,3.3,12,5.6c0,1.5-2.1,3.2-12,5.6C377.9,473.9,366.1,475.1,353.5,475.1z"/>
		<path class="st49" d="M379.4,469.3c0,2.5-11.8,4.6-26.4,4.6s-26.4-2-26.4-4.6s11.8-4.6,26.4-4.6S379.4,466.7,379.4,469.3z"/>
		<path class="st28" d="M258.1,456.8c0,13.2-35.1,23.8-78.5,23.8s-78.5-10.6-78.5-23.8s35.1-23.8,78.5-23.8S258.1,443.6,258.1,456.8
			z"/>
		<path class="st37" d="M251.3,452.7c0,0.7,6.7,3.7,6.5,4.4c-3.3,12.2-37.1,21.9-78.2,21.9c-43.3,0-78.5-10.7-78.5-23.8
			s35.1-23.8,78.5-23.8S251.3,439.5,251.3,452.7z"/>
		<path class="st50" d="M187.8,431.4c-14.9,2.8-24.4,7.1-24.4,11.9c0,8.5,29.4,15.3,65.6,15.3c5.5,0,10.4-0.6,15.5-0.9
			c4.4-0.3,9.1-0.2,13.2-0.7c0.2-0.7,0.3-1.3,0.3-2C258.1,442.8,227.3,432.6,187.8,431.4z"/>
		
			<linearGradient id="SVGID_18_" gradientUnits="userSpaceOnUse" x1="161.7963" y1="110.1852" x2="226.0063" y2="-85.1948" gradientTransform="matrix(1 0 0 -1 0 512)">
			<stop  offset="0" style="stop-color:#FFFFFF"/>
			<stop  offset="1" style="stop-color:#918F8F"/>
		</linearGradient>
		<path class="st51" d="M241,451.6l2.7-0.3c-6.4-8.3-32.7-14.5-64.1-14.5c-36.2,0-65.6,8.3-65.6,18.4s29.4,18.4,65.6,18.4
			c33.3,0,60.8-7,65-16L241,451.6z"/>
		
			<linearGradient id="SVGID_19_" gradientUnits="userSpaceOnUse" x1="185.2462" y1="19.5719" x2="212.7662" y2="74.1619" gradientTransform="matrix(1 0 0 -1 0 512)">
			<stop  offset="0" style="stop-color:#FFFFFF"/>
			<stop  offset="1" style="stop-color:#918F8F"/>
		</linearGradient>
		<path class="st52" d="M179.6,436.9h-2.4c-8,4.9-12.3,9.8-11.5,14.1c2.1,11,37,13.9,78.9,6.7c0.4-0.8,0.6-1.6,0.6-2.4
			C245.2,445.1,215.8,436.9,179.6,436.9z"/>
		<path class="st31" d="M206,444.6c0,2.1-5.2,3.8-11.5,3.8s-11.5-1.7-11.5-3.8s5.2-3.8,11.5-3.8S206,442.5,206,444.6z"/>
		<path class="st31" d="M174.2,449.4c0,0.6-1.6,1-3.5,1s-3.5-0.5-3.5-1s1.6-1,3.5-1S174.2,448.8,174.2,449.4z"/>
		<path class="st31" d="M168.9,462.2c0,2.4-7.7,4.4-17.1,4.4s-17.1-2-17.1-4.4s7.7-4.4,17.1-4.4S168.9,459.8,168.9,462.2z"/>
		<path class="st31" d="M219.2,463.6c0,1.4-4.5,2.5-10,2.5s-10-1.1-10-2.5s4.5-2.5,10-2.5S219.2,462.2,219.2,463.6z"/>
		<path class="st31" d="M179.6,471.1c-30.4,0-54.3-6.9-54.3-15.8s23.8-15.8,54.3-15.8s54.3,6.9,54.3,15.8S210,471.1,179.6,471.1z
			 M179.6,440.9c-28.7,0-52.9,6.6-52.9,14.4s24.2,14.4,52.9,14.4s52.9-6.6,52.9-14.4S208.3,440.9,179.6,440.9L179.6,440.9z"/>
		<path class="st53" d="M345,470.8c-41.6-10.9-30-55.1-30-55.1l39,5.6l39.1,4.6c0,0-1.3,45-44.2,45.2L345,470.8z"/>
		<path class="st54" d="M393.2,425.9c-0.3,2.8-18.1,2.9-39.7,0.1s-38.9-7.3-38.6-10.1s18.1-2.8,39.7-0.1S393.5,423,393.2,425.9z"/>
		
			<linearGradient id="SVGID_20_" gradientUnits="userSpaceOnUse" x1="353.9846" y1="91.2906" x2="356.3946" y2="70.8305" gradientTransform="matrix(1 0 0 -1 0 512)">
			<stop  offset="0" style="stop-color:#FFFFFF"/>
			<stop  offset="1" style="stop-color:#918F8F"/>
		</linearGradient>
		<path class="st55" d="M377.8,425.9c-8.1-0.1-16.1-0.7-24.1-1.8c-18.3-2.4-32.7-6.3-32.5-7.5c0.9-0.9,3.1-0.9,9-0.9
			c8.1,0.1,16.1,0.7,24.1,1.8c18.3,2.4,31.5,5.6,32.5,7.5C386.2,425.9,383.8,425.9,377.8,425.9z"/>
		<path class="st56" d="M346,407.1c-2.7-14.8-47.5-18.9-100.1-9.1s-92.9,29.6-90.2,44.4c2.3,12.5,34.7,17.3,76.4,12.6
			c16-1.4,38.2-6.6,38.2-6.6l0,0C315.6,438,348.5,420.4,346,407.1z"/>
		<path class="st57" d="M344.9,405.7c-2.7-14.8-47.5-18.8-100.1-9.1s-92.9,29.6-90.2,44.4c2.3,12.5,34.7,17.3,76.4,12.6
			c16-1.4,38.2-6.6,38.2-6.6l0,0C314.6,436.6,347.4,419,344.9,405.7z"/>
		
			<linearGradient id="SVGID_21_" gradientUnits="userSpaceOnUse" x1="260.5011" y1="56.2546" x2="333.7911" y2="-166.7353" gradientTransform="matrix(1.06 -0.2 -0.18 -0.98 -49.52 471.66)">
			<stop  offset="0" style="stop-color:#FFFFFF"/>
			<stop  offset="1" style="stop-color:#918F8F"/>
		</linearGradient>
		<path class="st58" d="M329.9,408.3c2.1,11.4-31.8,27.3-75.7,35.4s-81.3,5.5-83.4-5.9s31.8-27.3,75.7-35.4S327.7,396.8,329.9,408.3
			z"/>
		<path class="st59" d="M253.6,440.7c-36.9,6.9-67.3,4.5-69.1-5.5s25.6-23,62.5-29.9s67.3-4.4,69.1,5.5S290.5,433.8,253.6,440.7z
			 M247.3,406.9c-34.8,6.5-62.8,19.3-61.1,28s32.4,10.7,67.1,4.2s62.8-19.3,61.1-28S282.1,400.4,247.3,406.9L247.3,406.9z"/>
		
			<linearGradient id="SVGID_22_" gradientUnits="userSpaceOnUse" x1="96.6803" y1="464.7999" x2="86.1303" y2="437.2799" gradientTransform="matrix(1 0 0 -1 0 512)">
			<stop  offset="0" style="stop-color:#293B8F"/>
			<stop  offset="1" style="stop-color:#151945"/>
		</linearGradient>
		<path class="st60" d="M100.9,73.7c0,0-15,5.3-30.5,4.6C70.4,78.3,86.6,75.7,100.9,73.7z"/>
		
			<linearGradient id="SVGID_23_" gradientUnits="userSpaceOnUse" x1="106.497" y1="458.7512" x2="85.627" y2="404.3112" gradientTransform="matrix(1 0 0 -1 0 512)">
			<stop  offset="0" style="stop-color:#293B8F"/>
			<stop  offset="1" style="stop-color:#151945"/>
		</linearGradient>
		<path class="st61" d="M70.4,88.6c0,0,0.6,25.8,3.3,30.3s17,10.9,25.9,10.9c0,0-16.2-3.9-21.9-10.9S70.4,88.6,70.4,88.6z"/>
		
			<linearGradient id="SVGID_24_" gradientUnits="userSpaceOnUse" x1="159.1229" y1="694.3051" x2="47.2029" y2="402.3251" gradientTransform="matrix(1 0 0 -1 0 512)">
			<stop  offset="0" style="stop-color:#293B8F"/>
			<stop  offset="1" style="stop-color:#151945"/>
		</linearGradient>
		<path class="st62" d="M35.5,34c0,0,6.6,10.6,4.3,18.9s6,64.9,4.2,94.4s0.4,43.1,2.7,46.6s11.5,3.8,4.2,7.3s-6.3,9-6.3,9
			s-1.8-5.3-1.3-8.1s2.5-3.9,1.3-5.1s-2.7-5.6-2.7-12s-1.8-41-1.2-58s-3.2-43.6-3.6-60.5s0.7-17.2,0-22L35.5,34z"/>
		<path class="st23" d="M362.5,245.4v67.5c0,1.5,7.2,2.7,16.1,2.7s16-1.2,16.1-2.6v-3.8c-14.3,0-25.8-11.6-25.8-25.8v-41.9h-2.4
			C364.3,241.4,362.5,243.2,362.5,245.4C362.5,245.4,362.5,245.4,362.5,245.4z"/>
		<path class="st63" d="M6,269.7l125.2,71c0,0,11.6,11.3,30.4-7.7c15-5.8,29.1-13.9,32.7-13.4s10.6,13.6,10.6,13.6l-3.3,9.6l0.9,8.4
			c0,0,13-11.4,14.1-13.5s0.5-6,0.5-6s6.9-14.5,7.3-16s5.1-9.3,5.3-12.8c3.8,1,5-3.8,5-3.8s5.1-17.4,5.1-19.1s-9-12.3-14.3-15.1
			c-5.2-4.2-5.8-6.3-12.7-1.3c0,0-34.8,25.1-39.3,27.1C169,293,156,302,151.5,305c-5.8-0.9-13.9-8.9-13.9-8.9l-86.8-81.5"/>
		<path class="st63" d="M216.2,333.8c0,0-6.2-25.3-12-32.5"/>
		<path class="st63" d="M223.4,317.7c0.4-6.4-1.4-12.7-5-17.9c-3.5-5.1-7.3-9.9-11.4-14.5"/>
		<path class="st64" d="M229.1,303.3c0,0-0.5-9.5-5.2-14.6c-3.8-3.9-7.9-7.6-12.2-11"/>
		<path class="st65" d="M229.1,303.3c-0.3-2.6-0.9-5.3-1.8-7.8c-0.8-2.5-2.1-4.8-3.9-6.8c-1.8-2-3.7-3.8-5.7-5.6s-4-3.6-6-5.4
			c2.2,1.5,4.3,3.2,6.4,4.9c2.1,1.7,4,3.6,5.9,5.6c1.8,2.1,3.1,4.5,3.9,7.1C228.6,297.9,229,300.6,229.1,303.3z"/>
		<polyline class="st66" points="218.4,285.5 226.9,281.9 222.7,287.8 		"/>
		<path class="st67" d="M142.3,325.4c-2.1-6.9-0.6-14.3,3.8-19.9"/>
		<path class="st68" d="M123.4,365c0,0,9.3,13.3,14.4,15.2s15.4,3.8,30.1-1.7s33.4-14.9,33.3-16.8c-1.2-4.9-5.6-26.6-18.9-24.3
			c-13.6,2.4-23.3,4.1-48,19.7C124.7,363.5,123.4,365,123.4,365z"/>
		<path class="st69" d="M142.2,342.5c0,0-15.4,17-17.5,21c6.3-4.6,12.9-8.8,19.7-12.7c7-4,11.5-6.5,18-8.6c9-3,15.6-5.1,22.4-2.8
			c11.5,3.9,15.5,17.8,16.2,20.3l-0.4-17.2l3.6-8.3c0,0,0.6-0.2-1.5-3.4s-5.8-11.9-5.8-11.9S157.6,332.1,142.2,342.5z"/>
		<path class="st69" d="M221.7,322c0,0,26.4-4.1,20.7-13.6l-8.7-7l-4,1.7l-8.3,18.3"/>
		<path class="st36" d="M-17.7,285.5c0,0,7.3,10.4,9.7,7.1s70.8-71.1,73.6-74.2s-45.1-47.8-47.3-46.2S8.6,189,5.9,192.3
			s-15.7,15-18.5,19.2S-23.8,278.8-17.7,285.5z"/>
		<path class="st70" d="M270.6,290.6c0,0-8.3,23.3-5.1,24.9s6,0.3,6.9-24.9"/>
		<path class="st70" d="M264.7,322c0,0-5.6,5.9-3.6,7.8s10,1.1,7.5-2.1C267.1,325.9,265.8,324,264.7,322z"/>
		<path class="st71" d="M241.4,263.8c3-0.5,6.1-0.7,9.2-0.7c3.2,0,6.4,0.2,9.5,0.7c-0.1-12.9-0.3-34.6-0.8-60.5
			c-0.5-22.6-1.2-49.3-2.4-75.6h-12.3c-1.2,26.7-1.9,53.3-2.4,75.6C241.6,229.5,241.5,250.9,241.4,263.8z"/>
		<path class="st72" d="M361.2,395.7c-3.1-2.7-7.8-2.3-10.5,0.8c-1.2,1.4-1.9,3.3-1.8,5.2l0,0c-0.2,0-0.4,0.1-0.6,0.2
			c-2.9,0.2-5.4,2-6.5,4.7c-0.2-0.1-0.3-0.1-0.5-0.2c-2.4-0.8-5,0.6-5.7,3s0.6,5,3,5.7c-0.8,2.4,0.6,5,3,5.7c0.9,0.3,1.8,0.3,2.7,0
			c0.8,2.4,3.4,3.7,5.8,2.9c1.4-0.5,2.5-1.6,2.9-2.9c0.1-0.3,0.2-0.7,0.2-1c0.9,0.6,1.8,0.9,2.8,1.1c1.2,1.9,3.7,2.6,5.7,1.7
			c0.5,0.4,1,0.7,1.6,0.9c-0.8,2.4,0.6,5,3,5.7c0.9,0.3,1.8,0.3,2.7,0c0.8,2.4,3.4,3.7,5.8,2.9c1.4-0.5,2.5-1.6,2.9-2.9
			c0.1-0.3,0.2-0.7,0.2-1c0.6,0.4,1.2,0.7,1.8,0.9c3.9,1.4,8.1-0.7,9.5-4.6c1.4-3.9-0.7-8.1-4.6-9.5c-0.2-0.1-0.3-0.1-0.5-0.1l0,0
			c0.3-1.7-0.8-3.4-2.6-3.7c-1.2-0.2-2.3,0.2-3.1,1.1c-1.7-1.6-4.1-2.2-6.4-1.8c0.3-0.5,0.4-1,0.4-1.6c3.5,2.2,8.1,1.2,10.3-2.2
			c2.2-3.5,1.2-8.1-2.2-10.3c-0.6-0.4-1.2-0.6-1.8-0.8l0,0c0.3-1.7-0.8-3.4-2.5-3.7c-1.2-0.2-2.3,0.2-3.1,1.1
			c-3-2.8-7.7-2.5-10.5,0.5C362.1,394,361.6,394.8,361.2,395.7L361.2,395.7z"/>
		<path class="st73" d="M311.9,456.2c-3.6,0-7.2,0.2-10.8,0.5L279,466.9c7,2.2,14.9,2,22.3,1.9c3.7-0.1,7.4-0.4,11.1-1
			c3.7-0.5,8-1.2,11.3-2.8"/>
		<g class="st74">
			<path class="st48" d="M268.7,269.6c-1,0-1.8-0.8-1.8-1.8c0-1,0.8-1.8,1.8-1.8c1,0,1.8,0.8,1.8,1.8c0,0,0,0,0,0
				C270.6,268.8,269.8,269.6,268.7,269.6z M268.7,266.8c-0.6,0-1,0.4-1,1s0.4,1,1,1s1-0.4,1-1S269.3,266.8,268.7,266.8z"/>
			<g class="st74">
				<path class="st48" d="M229.6,266.6c-0.6,0-1-0.4-1-1s0.4-1,1-1s1,0.4,1,1S230.1,266.6,229.6,266.6z M229.6,265
					c-0.3,0-0.6,0.3-0.6,0.6s0.3,0.6,0.6,0.6l0,0c0.3,0,0.6-0.3,0.6-0.6S229.9,265,229.6,265z"/>
			</g>
		</g>
		<g class="st74">
			<path class="st48" d="M257.7,266.2c-0.8,0-1.4-0.6-1.4-1.4s0.6-1.4,1.4-1.4s1.4,0.6,1.4,1.4S258.5,266.2,257.7,266.2L257.7,266.2
				z M257.7,264c-0.4,0-0.8,0.3-0.8,0.8c0,0,0,0,0,0c0,0.4,0.4,0.8,0.8,0.8c0.4,0,0.8-0.4,0.8-0.8c0,0,0,0,0,0
				C258.5,264.3,258.1,264,257.7,264L257.7,264z"/>
		</g>
		<g class="st74">
			<circle class="st75" cx="246.9" cy="265.6" r="1.3"/>
		</g>
		<g class="st74">
			<path class="st48" d="M251,351.4c-0.8,0-1.4-0.6-1.4-1.4c0-0.8,0.6-1.4,1.4-1.4s1.4,0.6,1.4,1.4S251.8,351.4,251,351.4L251,351.4
				z M251,349.2c-0.4,0-0.8,0.3-0.8,0.8c0,0,0,0,0,0c0,0.4,0.4,0.8,0.8,0.8c0.4,0,0.8-0.4,0.8-0.8c0,0,0,0,0,0
				C251.8,349.6,251.4,349.2,251,349.2L251,349.2z"/>
		</g>
		<g class="st74">
			<path class="st48" d="M241.4,357.9c-0.6,0-1.1-0.5-1.1-1.1s0.5-1.1,1.1-1.1c0.6,0,1.1,0.5,1.1,1.1S241.9,357.9,241.4,357.9
				L241.4,357.9z M241.4,356.1c-0.4,0-0.7,0.3-0.7,0.7c0,0.4,0.3,0.7,0.7,0.7c0.4,0,0.7-0.3,0.7-0.7
				C242,356.4,241.7,356.1,241.4,356.1C241.4,356.1,241.4,356.1,241.4,356.1L241.4,356.1z"/>
		</g>
		<g class="st74">
			<path class="st75" d="M262.2,353.8c0,0.6-0.5,1.1-1.1,1.1s-1.1-0.5-1.1-1.1s0.5-1.1,1.1-1.1l0,0
				C261.7,352.7,262.2,353.2,262.2,353.8z"/>
		</g>
		<path class="st76" d="M272.1,258c0.3,0.2,0.5,0.6,0.3,0.9c-0.1,0.1-0.2,0.2-0.3,0.3c-1.8,0.8-3.7,1.4-5.7,1.7
			c-1.1,0.2-2.3,0.4-3.5,0.6h0.1c2.1-0.4,4.2-1.2,6-2.3c0.3-0.2,0.4-0.7,0.2-1c0-0.1-0.1-0.1-0.2-0.2c-1.8-1.1-3.9-1.9-6-2.3h-0.1
			c1.3,0.2,2.5,0.4,3.6,0.6C268.4,256.6,270.3,257.2,272.1,258z"/>
		<g class="st77">
			<path class="st48" d="M243.5,260.4c-1,0-1.7-0.8-1.7-1.7c0-1,0.8-1.7,1.7-1.7c1,0,1.7,0.8,1.7,1.7l0,0
				C245.2,259.6,244.5,260.4,243.5,260.4C243.5,260.4,243.5,260.4,243.5,260.4z M243.5,257.5c-0.6,0-1.2,0.5-1.2,1.1
				c0,0.6,0.5,1.2,1.1,1.2c0.6,0,1.2-0.5,1.2-1.1c0,0,0,0,0,0C244.6,258,244.1,257.5,243.5,257.5L243.5,257.5z"/>
		</g>
		<g class="st77">
			<path class="st48" d="M252.1,258.8c-0.6,0-1.1-0.5-1.1-1.1s0.5-1.1,1.1-1.1c0.6,0,1.1,0.5,1.1,1.1S252.7,258.8,252.1,258.8
				L252.1,258.8z M252.1,257.1c-0.4,0-0.7,0.3-0.7,0.7c0,0.4,0.3,0.7,0.7,0.7c0.4,0,0.7-0.3,0.7-0.7
				C252.7,257.4,252.4,257.1,252.1,257.1C252.1,257.1,252.1,257.1,252.1,257.1L252.1,257.1z"/>
			<path class="st78" d="M207.8,347.6c-2,9.5-3.5,16.9-4.1,20.8c-0.2,1.2-0.6,4.1,0.8,5.3c0.4,0.3,0.9,0.5,1.4,0.4
				c0.8-0.2,1.2-1.3,1.3-1.6c1.5-4.2,2.1-24.6,2.1-24.6l0,0L207.8,347.6z"/>
			<path class="st78" d="M208.5,371.5c0,0-3.3,8.8-1.9,10.4s3.2,1.8,3.3-1.8C209.8,377.2,209.3,374.3,208.5,371.5z"/>
			<path class="st78" d="M204.2,381.8c0,0-3.3,8.8-1.9,10.4s3.2,1.8,3.3-1.8C205.5,387.5,205,384.6,204.2,381.8z"/>
			<path class="st78" d="M177.7,376.6c0,0-3.3,8.8-1.9,10.4s3.2,1.8,3.3-1.8C179,382.3,178.5,379.4,177.7,376.6z"/>
			<path class="st78" d="M177.7,385c0,0-3.3,8.8-1.9,10.4s3.2,1.8,3.3-1.8C179,390.8,178.5,387.9,177.7,385z"/>
		</g>
		<g class="st77">
			<path class="st75" d="M266.5,258.6c0,0.6-0.5,1.1-1.1,1.1c-0.6,0-1.1-0.5-1.1-1.1c0-0.6,0.5-1.1,1.1-1.1c0,0,0,0,0,0
				C266,257.5,266.5,258,266.5,258.6z"/>
		</g>
	</g>
</g>
<radialGradient id="SVGID_25_" cx="-1754.0708" cy="1144.5104" r="476.3478" gradientTransform="matrix(0.51 0 0 -0.48 1136.91 803.96)" gradientUnits="userSpaceOnUse">
	<stop  offset="0" style="stop-color:#FFFFFF"/>
	<stop  offset="0.43" style="stop-color:#D3F9FC"/>
</radialGradient>
<path class="st79" d="M490.4,254.6c0,126.2-107.9,228.5-241,228.5S8.5,380.8,8.5,254.6s107.9-228.5,241-228.5
	S490.4,128.4,490.4,254.6z"/>
<path class="st80" d="M263.4,458.6c-133.1,0-240.9-102.3-240.9-228.4c0-32.6,7.3-64.8,21.4-94.2c-2.6,3.9-5.2,7.8-7.5,11.9
	c-20,33.7-30.6,72.2-30.6,111.4c0,126.2,107.9,228.5,241,228.5c97.7,0,181.7-55.1,219.6-134.3C423.5,416.7,348.6,458.6,263.4,458.6z
	"/>
<path class="st81" d="M65.6,167.3c9.8-35.6,38.8-70.1,98.6-91.8c6.7-2.5,10.1-9.9,7.6-16.6c-0.7-1.8-1.7-3.4-3-4.7l-1.2-1.1
	c-3.4-3.4-8.3-4.6-12.9-3.2C132.4,56.5,74.1,89.6,55,164.4c-0.6,2.3,0.4,4.6,2.3,5.9l0.1,0.1c2.5,1.6,5.9,0.9,7.5-1.7
	C65.3,168.3,65.5,167.8,65.6,167.3z"/>
<circle class="st81" cx="57.3" cy="186.4" r="8.2"/>
</svg>
