<?xml version="1.0" encoding="utf-8"?>
<!-- Generator: Adobe Illustrator 25.2.3, SVG Export Plug-In . SVG Version: 6.00 Build 0)  -->
<svg version="1.1" id="Layer_1" xmlns="http://www.w3.org/2000/svg" xmlns:xlink="http://www.w3.org/1999/xlink" x="0px" y="0px"
	 viewBox="0 0 510 510" style="enable-background:new 0 0 510 510;" xml:space="preserve">
<style type="text/css">
	.st0{opacity:0.3;enable-background:new    ;}
	.st1{opacity:0.91;fill:url(#SVGID_1_);enable-background:new    ;}
	.st2{clip-path:url(#SVGID_3_);}
	.st3{fill:url(#SVGID_4_);}
	.st4{fill:url(#SVGID_5_);}
	.st5{fill:url(#SVGID_6_);}
	.st6{fill:#6BC93A;}
	.st7{opacity:0.3;}
	.st8{fill:#84E75A;}
	.st9{opacity:0.5;fill:#5F8337;enable-background:new    ;}
	.st10{fill:#2BB51C;}
	.st11{fill:#85B780;}
	.st12{fill:#76B7A4;}
	.st13{fill:#9B5334;}
	.st14{fill:#904E27;}
	.st15{fill:#CC773E;}
	.st16{fill:#7C3F29;}
	.st17{fill:#8C4D23;}
	.st18{fill:#723B17;}
	.st19{opacity:0.61;}
	.st20{fill:#666666;}
	.st21{fill:#E6E6E6;}
	.st22{fill:#1A1A1A;}
	.st23{fill:#1D7C15;}
	.st24{fill:#D67F42;}
	.st25{fill:#C1723D;}
	.st26{fill:#FB975B;}
	.st27{fill:#934B1B;}
	.st28{fill:#BBEF60;}
	.st29{fill:#27423A;}
	.st30{fill:#BFFF33;}
	.st31{fill:#699A59;}
	.st32{fill:#9DBF6A;}
	.st33{fill:none;stroke:#27423A;stroke-width:0.5;stroke-miterlimit:10;}
	.st34{fill:#F9D1C6;stroke:#BA5817;stroke-miterlimit:10;}
	.st35{fill:#EF852E;stroke:#60561A;stroke-miterlimit:10;}
	.st36{fill:#A32F07;}
	.st37{fill:#F9D1C6;stroke:#897F33;stroke-miterlimit:10;}
	.st38{fill:#F9D1C6;}
	.st39{fill:#BA5817;}
	.st40{fill:#D3978C;}
	.st41{fill:#FFFFFF;}
	.st42{fill:#4F4726;}
	.st43{fill:#2B2716;}
	.st44{fill:#240D00;}
	.st45{fill:#F5968E;}
	.st46{fill:#721F33;}
	.st47{fill:#F4EDEF;}
	.st48{fill:#E03859;}
	.st49{fill:#D26653;}
	.st50{fill:#897F33;}
	.st51{fill:#82CFF7;stroke:#5DA3C1;stroke-miterlimit:10;}
	.st52{fill:#B3E0F4;}
	.st53{fill:url(#SVGID_7_);}
	.st54{fill:#52A2E7;}
	.st55{fill:#3476B7;}
	.st56{opacity:0.35;fill:#4A97CC;enable-background:new    ;}
	.st57{fill:url(#SVGID_8_);}
	.st58{fill:url(#SVGID_9_);}
	.st59{fill:#218B8E;stroke:#0C4C4C;stroke-miterlimit:10;}
	.st60{fill:#E9F1F4;stroke:#AF3A75;stroke-miterlimit:10;}
	.st61{fill:#73D3F4;stroke:#AF3A75;stroke-miterlimit:10;}
	.st62{fill:#D5F0F7;stroke:#AF3A75;stroke-miterlimit:10;}
	.st63{opacity:0.1;fill:url(#SVGID_10_);enable-background:new    ;}
	.st64{opacity:0.5;fill:#4ECECE;enable-background:new    ;}
	.st65{opacity:0.6;fill:#FDFFFF;enable-background:new    ;}
</style>
<circle class="st0" cx="262.3" cy="262.3" r="242.7"/>
<g id="_01-3">
	
		<radialGradient id="SVGID_1_" cx="229.5763" cy="261.9769" r="259.6087" gradientTransform="matrix(1.08 0 0 -1.08 -1.24 531.73)" gradientUnits="userSpaceOnUse">
		<stop  offset="0" style="stop-color:#FFFFFF"/>
		<stop  offset="0.61" style="stop-color:#D3F9FC"/>
		<stop  offset="0.93" style="stop-color:#48E5FF"/>
	</radialGradient>
	<path class="st1" d="M490.2,248.8c0,133.4-108.6,241.6-242.6,241.6S5,382.2,5,248.8S113.6,7.2,247.6,7.2S490.2,115.3,490.2,248.8z"
		/>
	<g>
		<defs>
			<ellipse id="SVGID_2_" cx="248.3" cy="246.1" rx="242.2" ry="241.1"/>
		</defs>
		<clipPath id="SVGID_3_">
			<use xlink:href="#SVGID_2_"  style="overflow:visible;"/>
		</clipPath>
		<g class="st2">
			
				<linearGradient id="SVGID_4_" gradientUnits="userSpaceOnUse" x1="81.8801" y1="-158.13" x2="236.1901" y2="604.73" gradientTransform="matrix(1 0 0 -1 0 512)">
				<stop  offset="0.2" style="stop-color:#C5F7FD"/>
				<stop  offset="0.34" style="stop-color:#B3F0FD"/>
				<stop  offset="0.66" style="stop-color:#8EE1FD"/>
				<stop  offset="0.83" style="stop-color:#80DBFD"/>
			</linearGradient>
			<rect x="-317.5" y="-37.3" class="st3" width="1009.2" height="374.6"/>
			
				<linearGradient id="SVGID_5_" gradientUnits="userSpaceOnUse" x1="213.8929" y1="447.3271" x2="252.4529" y2="485.9071" gradientTransform="matrix(1 0 0 -1 0 512)">
				<stop  offset="0.11" style="stop-color:#85DDFD"/>
				<stop  offset="0.82" style="stop-color:#D7EEF4"/>
			</linearGradient>
			<path class="st4" d="M214,48.4c0,0,0.6-4.7,7.6-8s13-5,19.2-1.3s4.8,12.2,3.5,13.2c-2.5,1.9-8,4.5-22.5,2
				C213,52.9,214,48.4,214,48.4z"/>
			
				<linearGradient id="SVGID_6_" gradientUnits="userSpaceOnUse" x1="473.9003" y1="419.9397" x2="514.4803" y2="460.5597" gradientTransform="matrix(1 0 0 -1 0 512)">
				<stop  offset="0.17" style="stop-color:#83DCFD"/>
				<stop  offset="0.9" style="stop-color:#D7EEF4"/>
			</linearGradient>
			<path class="st5" d="M473.3,69.1c0,0,0.8-6,11.1-10.1s18.9-6.3,27.8-1.6s7,15.5,5.1,16.7c-3.7,2.4-11.6,5.7-32.7,2.5
				C472,74.8,473.3,69.1,473.3,69.1z"/>
			<path class="st6" d="M508.1,225c-33.1,8.6-67.1,22.4-100.5,24.7c-43.7,2.9-87,13-130.9,15.4c-44.9,2.4-88.4,1.9-133.3-3.3
				c-38.8-4.5-77.8-0.4-116.6-4.9c-39.8-4.5-79-20.1-118.8-24.2c-28.6-2.9-57-7.3-85.1-13.3c-23.6-5-46.1-18.1-69.5-23.1
				c-22.2-4.8-45.4-12.9-67.8-13.8v457.8H691.5V160.2c-28.7,8.9-56.6,20.1-83.5,33.6C575.8,210,541.3,216.4,508.1,225z"/>
			<g class="st7">
				<path class="st8" d="M617.7,307.6c-3.5,2.4-7.1,4.7-10.7,7c-14.4,9.3-30,16.7-46.4,22c-34.5,10.9-72.7,11-106,24.8
					c20.2,2.8,40.9,1.5,61.1-0.2c14.2-1.2,28.3-2,42.5-3.1c11-0.9,22-1.9,33-2c8.2-0.1,19.6-0.6,26.6,3.9c5.6,3.6,3.6,9.2-0.1,13.4
					c-6,6.7-14.9,11.5-23.3,15.5c-11.3,5.5-23.1,9.9-35.2,13.4c-11.5,3.3-23.5,6.1-35.6,6.8c-8,0.5-17.7,0.5-24.4-4
					c-0.3-0.1-0.4-0.5-0.3-0.8c0-0.1,0.1-0.1,0.1-0.2c7.5-7.8,21.8-7.8,28.2-16.3c-15.8-5.6-34.5-2.5-50.9-1.1
					c-20.5,1.7-41.2,4-61.8,4.6c-43.9,1.2-87-9.6-130.9-8.8c-22.8,0.4-45.6,1.3-68.4,1.6c-22.6,0.2-45.2,0.2-67.8-0.4
					c-16.6-0.5-33.4-0.2-50-1.2c-14.6-0.9-30.7-2.7-42.8-10.5c-0.3-0.1-0.4-0.5-0.3-0.8c0.1-0.2,0.3-0.3,0.5-0.3
					c1.4-0.4,2.8-0.7,4.2-0.9c9.6-1.5,19.3-0.4,28.9,0c10.9,0.4,21.9-0.7,32.7-1.8c11-1.1,22-2.4,33-3.1c5.3-0.3,10.5-0.5,15.8-0.5
					c-9.2-0.5-18.5-1.2-27.8-2c-38.9-3.4-77.8-0.3-116.6-3.6c-39.8-3.4-79-15-118.8-18.1c-28.8-2.2-56.6-5.4-85.2-10
					c-23.6-3.8-46.1-13.5-69.5-17.3c-22.2-3.5-45.4-9.7-67.8-10.3v8.1c4.6,0.3,9.1,0.8,13.7,1.3c43,5.3,84.2,18.5,126,28.4
					c10.4,2.5,20.9,4.8,31.5,6.4c9.9,1.5,20,2.3,30,2.7c16.4,0.7,34.5,1.5,48.8,9.4c0.3,0.2,0.4,0.5,0.2,0.8
					c-0.1,0.1-0.1,0.2-0.2,0.2c-8.4,3.7-17.9,5-27.2,5.5c-17.7,0.9-35.4-0.8-53.1-0.8c-20.1,0-39.9,4.1-59.4,8.1
					c-11,2.2-22,4.9-33.1,6.7c-7.2,1.1-14.5,1.6-21.7,2.6c-7.8,1-16,2.3-22.9,5.6c-1.9,0.8-3.7,1.9-5.3,3.1
					c-1.4,1.1-1.5,1.1-0.2,2.4c1.5,1.5,3.3,2.8,5.3,3.8c10.6,5.4,24,6.2,36,6.7c13.3,0.5,26.6,0.1,39.9,0c11.7-0.1,23.4,1,35.1,1.3
					c14.2,0.4,31.3,0.2,43.6,7.4c0.3,0.1,0.4,0.5,0.3,0.8c0,0,0,0.1,0,0.1c-3.2,5.2-8.2,6-14.5,6.5c-5.7,0.5-11.4,1.9-17.1,2.8
					c-4.9,0.8-9.8,1.4-14.8,1.9c-11.1,1.2-22.3,2-33.5,2.8c-22.8,1.6-45.2,4.3-67.8,7.4c-13.1,1.8-26.3,3.5-39.5,4.6v205.4h1006
					V286.6C665.4,292.2,641.3,299.2,617.7,307.6z"/>
			</g>
			<path class="st9" d="M212,391.4c-1.1,0-2.6,0-4.1,0.1c-2.9,0.1-5.4,0.5-6.1,1.1c-0.1,0.1-0.1,0.2,0.1,0.2
				c2.8,1.2,8.4,0.9,12.2,0.7c1.4,0,9.2-0.2,8.7-1.3S214.2,391.3,212,391.4z"/>
			<path class="st9" d="M258.2,387c-1-0.9-6.6-0.5-8.5-0.5c-0.8,0-2.6,0-4.1,0.1h-1.2c-0.8,0-3.4,0.5-2,0.9c1.9,0.4,3.9,0.6,5.9,0.5
				c2,0,4-0.1,6-0.2c1.2,0,2.3-0.2,3.5-0.4C258.1,387.3,258.4,387.2,258.2,387z"/>
			<path class="st9" d="M237,431.3c-0.8,0-1.8,0-2.8,0.1c-2,0.1-3.8,0.3-4.3,0.8c-0.1,0,0,0.1,0.1,0.1c2,0.9,5.9,0.6,8.5,0.5
				c1,0,6.4-0.1,6.1-0.9S238.6,431.2,237,431.3z"/>
			<path class="st9" d="M269.5,433.7c-0.7-0.6-4.6-0.4-5.9-0.3c-0.5,0-1.8,0-2.8,0.1h-0.9c-0.6,0-2.4,0.3-1.4,0.6
				c1.4,0.3,2.7,0.4,4.1,0.3c1.4,0,2.8,0,4.1-0.2c0.8,0,1.6-0.1,2.4-0.3C269.4,434,269.6,433.8,269.5,433.7z"/>
			<path class="st10" d="M460.2,409.5c0,0,4.5-3.4,13.3-4.3s-9.4-4.5-15.9,4.3C457.6,409.5,454.7,413.4,460.2,409.5z"/>
			<path class="st10" d="M447.9,410c0,0,13.3-11,21.1-13.9s-7.5-3.2-17.9,6C451.1,402.1,445.9,407.6,447.9,410z"/>
			<path class="st10" d="M444,410c0,0,8.8-17.8,12.9-20s-6.4-3.4-12.9,11.1C444,401.1,441.4,408.8,444,410z"/>
			<path class="st10" d="M439.3,410c0,0,3.4-16.3,6.6-18.7S433.6,394,439.3,410z"/>
			<path class="st10" d="M437.3,410c0,0,0.2-13.6-6.8-15.7S434.6,403.2,437.3,410z"/>
			<path class="st10" d="M435,410c0,0-5.6-5.6-16.3-5.9S428.4,399.8,435,410z"/>
			<path class="st10" d="M434.1,410c-4.1-4-9.7-6.1-15.5-5.8C408.9,404.7,431.8,408.1,434.1,410z"/>
			<path class="st11" d="M-317.2,266.2c121.6,5,188.3,5.3,253,7c221.9,5.6,216.7-4.6,340.1,2.3c80.6,4.5,211.4-7.3,291.8-1.2
				c14.8,1.1,47,3.8,114.4,2.5c6.5-0.1,5.6,9.1,7.2,1.9c3.5-16.2,3-0.3,2.9,1.2c-0.4,8.5-3.2,2.8-2.5,6.8l-1001.1,0.6L-317.2,266.2z
				"/>
			<path class="st12" d="M-338.2,194.3c-0.6-7.5-17.9-13.6-6.2-19.2c21.8-10.5,69.4-13.6,126.2-6.8c105.4,12.7,150.5-7.4,251.5,7.9
				c18.1,2.7,32.3,4.8,59.7,3.3c35.2-1.9,10,5.6,89.4-4.3c18.1-2.3,36.5-1.4,54.4,2.5c38.8,8.5,84.3-1.3,120,2.5
				c15.8,1.6,123.5-10.8,132.5-11.8c196.8-20.4,194.7,16.4,194.5,18.5c0,0,10.7,0.9,21.6,1.4h0.1l-9.7,60.7h-991.9L-338.2,194.3z"/>
			<polygon class="st13" points="-312.5,221.1 -312.5,277.2 159.3,277.2 159.3,224 			"/>
			<rect x="-312.5" y="216.4" class="st14" width="471.8" height="8.7"/>
			<rect x="-312.5" y="212.1" class="st15" width="471.8" height="8.7"/>
			<rect x="47" y="238.3" class="st16" width="8.8" height="4.8"/>
			<rect x="51.5" y="244.3" class="st16" width="8.8" height="4.8"/>
			<rect x="-4" y="248.6" class="st16" width="8.8" height="4.8"/>
			<rect x="0.4" y="254.7" class="st16" width="8.8" height="4.8"/>
			<rect x="131.5" y="238.3" class="st16" width="8.8" height="4.8"/>
			<rect x="135.9" y="244.3" class="st16" width="8.8" height="4.8"/>
			<polygon class="st13" points="691.8,219.6 691.8,276.8 151.8,274.7 151.8,222.4 			"/>
			<rect x="151.8" y="219.7" class="st17" width="539.9" height="5"/>
			<rect x="159.3" y="211" class="st15" width="532.4" height="9.7"/>
			<rect x="504.8" y="233.5" class="st18" width="10.1" height="4.8"/>
			<rect x="499.8" y="239.4" class="st18" width="10.1" height="4.8"/>
			<rect x="472.4" y="252" class="st18" width="10.1" height="4.7"/>
			<rect x="467.4" y="257.9" class="st18" width="10.1" height="4.8"/>
			<rect x="371.6" y="234.1" class="st18" width="10.1" height="4.8"/>
			<rect x="366.5" y="240" class="st18" width="10.1" height="4.8"/>
			<rect x="270.2" y="236.5" class="st18" width="10.1" height="4.8"/>
			<rect x="265.1" y="242.4" class="st18" width="10.1" height="4.8"/>
			<rect x="328.6" y="246.7" class="st18" width="10.1" height="4.8"/>
			<rect x="323.5" y="252.6" class="st18" width="10.1" height="4.8"/>
			<rect x="173.6" y="236.5" class="st18" width="10.1" height="4.8"/>
			<rect x="168.5" y="242.4" class="st18" width="10.1" height="4.8"/>
			<g class="st19">
				<path class="st20" d="M373.1,198.4h-6.5v-2.9c0.6-0.3,0.9-0.9,0.9-1.5c-0.1-1-1-1.8-2-1.7c-0.9,0.1-1.7,0.8-1.7,1.7
					c0,0.6,0.4,1.2,0.9,1.5v2.9h-54.4v-2.9c0.6-0.3,0.9-0.9,0.9-1.5c-0.1-1-1-1.8-2-1.7c-0.9,0.1-1.7,0.8-1.7,1.7
					c0,0.6,0.4,1.2,0.9,1.5v2.9h-54.4v-2.9c0.6-0.3,0.9-0.9,0.9-1.5c-0.1-1-1-1.8-2-1.7c-0.9,0.1-1.7,0.8-1.7,1.7
					c0,0.6,0.4,1.2,0.9,1.5v2.9h-54.4v-2.9c0.6-0.3,0.9-0.9,0.9-1.5c-0.1-1-1-1.8-2-1.7c-0.9,0.1-1.7,0.8-1.7,1.7
					c0,0.6,0.4,1.2,0.9,1.5v2.9h-54.4v-2.9c0.6-0.3,0.9-0.9,0.9-1.5c-0.1-1-1-1.8-2-1.7c-0.9,0.1-1.7,0.8-1.7,1.7
					c0,0.6,0.4,1.2,0.9,1.5v2.9H85.3v-2.9c0.6-0.3,0.9-0.9,0.9-1.5c-0.1-1-1-1.8-2-1.7c-0.9,0.1-1.7,0.8-1.7,1.7
					c0,0.6,0.4,1.2,0.9,1.5v2.9H29.1v-2.9c0.6-0.3,0.9-0.9,0.9-1.5c-0.1-1-1-1.8-2-1.7c-0.9,0.1-1.7,0.8-1.7,1.7
					c0,0.6,0.4,1.2,0.9,1.5v2.9H-9.4v2.6h36.6v11.5h1.9V201h54.4v11.5h1.9V201h54.4v11.5h1.9V201H196v11.5h1.9V201h54.4v11.5h1.9
					V201h54.4v11.5h1.9V201h54.4v11.5h1.9V201h6.5L373.1,198.4z"/>
				<path class="st21" d="M139.4,194.1c0.8,0.7,2.3-0.6,1.5-1.4S138.6,193.4,139.4,194.1z"/>
				<path class="st21" d="M195.6,194.1c0.8,0.7,2.3-0.6,1.5-1.4S194.8,193.4,195.6,194.1z"/>
				<path class="st21" d="M251.9,194c0.8,0.7,2.3-0.6,1.5-1.4S251.1,193.4,251.9,194z"/>
				<path class="st21" d="M83.1,194c0.8,0.7,2.3-0.6,1.5-1.4S82.3,193.4,83.1,194z"/>
				<path class="st22" d="M30,198.4h-0.9v-2.9c0.6-0.3,0.9-0.9,0.9-1.5c0-0.7-0.4-1.4-1.1-1.6c0.1,0.2,0.2,0.5,0.2,0.7
					c0,1-0.9,1.8-1.9,1.8c0,0,0,0,0,0c-0.3,0-0.5-0.1-0.8-0.2c0.3,0.6,1,1,1.7,1c0.1,0,0.3,0,0.4,0v16.9h0.6V201h54.4v-0.9H30V198.4
					z"/>
				<path class="st22" d="M142.5,200.1v-1.8h-0.9v-2.9c0.8-0.4,1.2-1.5,0.7-2.3c-0.2-0.4-0.5-0.7-0.9-0.8c0.1,0.2,0.2,0.5,0.2,0.7
					c0,1-0.9,1.8-1.9,1.8c0,0,0,0,0,0c-0.3,0-0.5-0.1-0.8-0.2c0.3,0.7,1,1.1,1.7,1.1c0.1,0,0.2,0,0.4,0v16.9h0.6V201H196v-0.9
					L142.5,200.1z"/>
				<path class="st22" d="M198.8,200.1v-1.8h-0.9v-2.9c0.8-0.4,1.2-1.5,0.7-2.3c-0.2-0.4-0.5-0.7-0.9-0.8c0.1,0.2,0.2,0.5,0.2,0.7
					c0,1-0.9,1.8-1.9,1.8c0,0,0,0,0,0c-0.3,0-0.5-0.1-0.8-0.2c0.3,0.7,1,1.1,1.7,1.1c0.1,0,0.3,0,0.4,0v16.9h0.6V201h54.4v-0.9
					L198.8,200.1z"/>
				<path class="st22" d="M255,200.1v-1.8h-0.9v-2.9c0.6-0.3,0.9-0.9,0.9-1.5c0-0.7-0.4-1.4-1.1-1.6c0.1,0.2,0.2,0.5,0.2,0.7
					c0,1-0.9,1.8-1.9,1.8c0,0,0,0,0,0c-0.3,0-0.5-0.1-0.8-0.2c0.3,0.6,1,1,1.7,1c0.1,0,0.3,0,0.4,0v16.9h0.6V201h54.4v-0.9
					L255,200.1z"/>
				<path class="st22" d="M311.3,198.4h-0.9v-2.9c0.6-0.3,0.9-0.9,0.9-1.5c0-0.7-0.4-1.3-1.1-1.6c0.1,0.2,0.2,0.5,0.2,0.7
					c0,1-0.9,1.8-1.9,1.8c0,0,0,0,0,0c-0.3,0-0.5-0.1-0.8-0.2c0.3,0.6,1,1,1.7,1c0.1,0,0.2,0,0.4,0v16.9h0.6V201h54.4v-0.9h-53.5
					V198.4z"/>
				<path class="st22" d="M86.3,200.1v-1.8h-0.9v-2.9c0.6-0.3,0.9-0.9,0.9-1.5c0-0.7-0.4-1.3-1.1-1.6c0.1,0.2,0.2,0.5,0.2,0.7
					c0,1-0.9,1.8-1.9,1.8c0,0,0,0,0,0c-0.3,0-0.5-0.1-0.8-0.2c0.3,0.6,1,1,1.7,1c0.1,0,0.2,0,0.4,0v16.9h0.6V201h54.4v-0.9
					L86.3,200.1z"/>
			</g>
			<g class="st19">
				<path class="st20" d="M749.3,198.4h-6.5v-2.9c0.6-0.3,0.9-0.9,0.9-1.5c-0.1-1-1-1.8-2-1.7c-0.9,0.1-1.7,0.8-1.7,1.7
					c0,0.6,0.4,1.2,0.9,1.5v2.9h-54.4v-2.9c0.6-0.3,0.9-0.9,0.9-1.5c-0.1-1-1-1.8-2-1.7c-0.9,0.1-1.7,0.8-1.7,1.7
					c0,0.6,0.4,1.2,0.9,1.5v2.9h-54.4v-2.9c0.6-0.3,0.9-0.9,0.9-1.5c-0.1-1-1-1.8-2-1.7c-0.9,0.1-1.7,0.8-1.7,1.7
					c0,0.6,0.4,1.2,0.9,1.5v2.9H574v-2.9c0.6-0.3,0.9-0.9,0.9-1.5c-0.1-1-1-1.8-2-1.7c-0.9,0.1-1.7,0.8-1.7,1.7
					c0,0.6,0.4,1.2,0.9,1.5v2.9h-54.3v-2.9c0.6-0.3,0.9-0.9,0.9-1.5c-0.1-1-1-1.8-2-1.7c-0.9,0.1-1.7,0.8-1.7,1.7
					c0,0.6,0.4,1.2,0.9,1.5v2.9h-54.4v-2.9c0.6-0.3,0.9-0.9,0.9-1.5c-0.1-1-1-1.8-2-1.7c-0.9,0.1-1.7,0.8-1.7,1.7
					c0,0.6,0.4,1.2,0.9,1.5v2.9h-54.4v-2.9c0.6-0.3,0.9-0.9,0.9-1.5c-0.1-1-1-1.8-2-1.7c-0.9,0.1-1.7,0.8-1.7,1.7
					c0,0.6,0.4,1.2,0.9,1.5v2.9h-36.6v2.6h36.6v11.5h1.9V201h54.4v11.5h1.9V201h54.4v11.5h1.9V201h54.4v11.5h1.8V201h54.4v11.5h1.9
					V201h54.4v11.5h1.9V201h54.4v11.5h1.9V201h6.5L749.3,198.4z"/>
				<path class="st21" d="M459.3,194c0.8,0.7,2.3-0.6,1.5-1.4S458.5,193.4,459.3,194z"/>
				<path class="st22" d="M406.2,198.4h-0.9v-2.9c0.8-0.4,1.2-1.5,0.7-2.3c-0.2-0.4-0.5-0.7-0.9-0.8c0.1,0.2,0.2,0.5,0.2,0.7
					c0,1-0.9,1.8-1.9,1.8c0,0,0,0,0,0c-0.3,0-0.5-0.1-0.8-0.2c0.3,0.6,1,1,1.7,1c0.1,0,0.2,0,0.4,0v16.9h0.6V201h54.4v-0.9h-53.5
					V198.4z"/>
				<path class="st22" d="M462.5,200.1v-1.8h-0.9v-2.9c0.8-0.4,1.2-1.5,0.7-2.3c-0.2-0.4-0.5-0.7-0.9-0.8c0.1,0.2,0.2,0.5,0.2,0.7
					c0,1-0.9,1.8-1.9,1.8c0,0,0,0,0,0c-0.3,0-0.5-0.1-0.8-0.2c0.3,0.6,1,1,1.7,1c0.1,0,0.3,0,0.4,0v16.9h0.6V201h54.4v-0.9
					L462.5,200.1z"/>
			</g>
			<path class="st11" d="M19.2,284.8H150c0.4-1.1,0.1-2.4-0.8-3.2c-3.3-3.6-11.7-3.1-11.7-3.1s8.3-4.3,3.2-7.2s-12.3-0.4-12.3-0.4
				s7-5.4-0.7-8.2c-0.3-0.1-0.6-0.2-1-0.3c-3.9-1.2-8-0.8-11.6,1.1c0,0-1.2-3-5.6-3.6c-2.7-0.5-5.5,0.1-7.8,1.8c0,0-2.2-4.1-9.9-3.9
				c-10.7,0.3-11.3,4.5-11.3,4.5c-2.2-2-5.1-3-8.1-2.8c-3.9,0.4-3.9,3.7-3.9,3.7s-4-5.4-16.8-3.8l0,0c-0.1,0-0.2,0-0.3,0
				c-13,1.7-9.4,7.9-9.4,7.9s-5.8-1.8-10.2-0.5c-0.7,0.2-1.4,0.5-2,0.9c-4.2,2.8,0.4,6.1,0.6,6.2c-0.3,0-7.9-0.9-11,2.9
				C17.1,280,17.5,282.8,19.2,284.8z"/>
			<path class="st11" d="M235.7,285.7h332.5v-17.8c-5.8-3.3-24.5-5.3-35.2-2.9c0,0,3.3-6.4-21-9.4s-41.8,2.1-41.8,2.1
				s-8-7.7-38.2-3.7c-9.7-4.5-34.6-4-37.2,1.7c0,0-18.8-7.1-47.4-5.4s-29.1,8.7-29.1,8.7s-0.8-0.1-2.2-0.4c-6-0.9-23.3-2.3-39.2,0.8
				c-18.2,3.5-17.8,7-16.3,9.7c0.4,0.7,0.9,1.3,1.4,1.9c0,0-19.3-0.6-29.4,6.5C227.6,280.8,231.1,283.7,235.7,285.7z"/>
			<ellipse class="st23" cx="293.2" cy="448.8" rx="102.3" ry="18"/>
			<ellipse class="st23" cx="59.2" cy="453.9" rx="48.3" ry="10.3"/>
			<ellipse class="st23" cx="132.2" cy="433" rx="48.3" ry="10.3"/>
			<path class="st24" d="M101.6,386.3l10,40.1c0,0,8.3,7.8,24.5,6.5s19.1-5.9,19.1-5.9l10.5-40.6L101.6,386.3z"/>
			<path class="st25" d="M131.2,424.8c-12.6-5.9-16.1-29.9-1.1-30.1c13.2-0.2,30.5-4,34.6-4.9l0.9-3.4h-64l10,40.1
				c0,0,8.3,7.8,24.5,6.5c11.2-0.9,16.1-3.4,18-4.9C148.3,428.5,139.1,428.5,131.2,424.8z"/>
			<ellipse class="st24" cx="134.4" cy="383.8" rx="36" ry="7.2"/>
			<polygon class="st24" points="97.1,371.4 98.4,383.9 170.4,383.6 172.3,371.4 			"/>
			<ellipse class="st26" cx="134.7" cy="371.4" rx="37.6" ry="7.2"/>
			<ellipse class="st27" cx="134.6" cy="371" rx="33.4" ry="5.4"/>
			<path class="st28" d="M127.6,306.4c2,2.4,3.4,5.2,4.3,8.1c-5.7-2.7-9.9-7.8-11.6-13.8C123.1,302.1,125.6,304.1,127.6,306.4z"/>
			<path class="st29" d="M119.3,285h0.3c-1,11.8-0.9,23.7,0.2,35.5c0.9,10.2,3,20.3,6.2,30c3.8,10.8,9,19.3,15.6,25.3l-0.2,0.2
				c-6.6-6.1-11.9-14.6-15.7-25.4c-3.2-9.7-5.3-19.8-6.2-30C118.4,308.7,118.3,296.8,119.3,285z"/>
			<path class="st29" d="M102,320.1c0.1,0,0.3,0.2,1.2,1.3c3,3.4,10.8,12.3,18.8,14.8l-0.1,0.2c-8.1-2.5-16-11.5-18.9-14.9
				c-0.3-0.4-0.7-0.8-1.1-1.2L102,320.1z"/>
			<path class="st29" d="M151.7,294.8c-7.6,6.2-22.6,19.8-30.5,37l-0.2-0.1c1.8-3.8,3.9-7.5,6.3-11c8-11.9,18.3-21.2,24.2-26
				L151.7,294.8"/>
			<path class="st29" d="M140.2,285.7l0.2,0.1c-0.1,0.1-4.9,12-4.5,24.2h-0.3C135.2,297.8,140.1,285.8,140.2,285.7z"/>
			<path class="st29" d="M154.9,303.2c-1.6-2.5-2.7-5.4-3.2-8.4c5.1,3.3,8.6,8.7,9.6,14.7C158.7,307.8,156.6,305.7,154.9,303.2z"/>
			<path class="st30" d="M158.6,295.1c-2.4,0.4-4.9,0.3-7.3-0.3c4.1-2.7,9.2-3.6,14-2.3C163.3,293.8,161,294.7,158.6,295.1z"/>
			<path class="st30" d="M121.4,269.6c0.4,5.2-0.3,10.4-2,15.3c-5.1-9.2-6.1-20.2-2.6-30.1C119.3,259.4,120.9,264.5,121.4,269.6z"/>
			<path class="st28" d="M126.2,275.8c-1.6,3.5-3.9,6.6-6.8,9.2c0-7.8,3.4-15.2,9.2-20.3C128.6,268.5,127.8,272.3,126.2,275.8z"/>
			<path class="st28" d="M114.9,274.5c2.2,3.2,3.7,6.7,4.5,10.5c-6.7-3.9-11.4-10.6-12.9-18.2C109.8,268.8,112.7,271.4,114.9,274.5z
				"/>
			<path class="st28" d="M147.2,292.9c-1,3.7-2.7,7.2-5,10.3c-1.4-7.7,0.5-15.5,5.3-21.7C148.2,285.2,148.1,289.1,147.2,292.9z"/>
			<path class="st31" d="M111.6,319.5c1.1,3.7,1.4,7.6,1,11.4c-5.2-5.8-7.6-13.6-6.6-21.3C108.5,312.5,110.4,315.9,111.6,319.5z"/>
			<path class="st31" d="M94.3,316c3,0.9,5.7,2.4,8.1,4.4c-6.2,0.9-12.5-1-17.3-5.1C88.1,314.9,91.3,315.2,94.3,316z"/>
			<path class="st30" d="M134.1,303.5c0,3.8-0.8,7.6-2.3,11.2c-3.3-7.1-3.4-15.2-0.3-22.3C133.2,295.8,134,299.6,134.1,303.5z"/>
			<path class="st28" d="M144.3,275.9c-0.7,3.8-2.1,7.4-4.2,10.6c-2-7.5-0.6-15.5,3.7-22C144.7,268.2,144.9,272.1,144.3,275.9z"/>
			<path class="st29" d="M137.3,277.5c1.5,2.7,2.5,5.7,2.8,8.8c-5.1-3.7-8.4-9.4-9-15.6C133.6,272.5,135.7,274.9,137.3,277.5z"/>
			<path class="st31" d="M118.3,339.1c2.5,1.7,4.6,4,6.2,6.5c-6-1.1-11.3-4.7-14.4-9.9C113,336.3,115.8,337.5,118.3,339.1z"/>
			<path class="st31" d="M117.2,344.8c2.4-0.2,4.9,0.1,7.2,0.9c-4.3,2.4-9.5,2.8-14.1,1.2C112.4,345.7,114.8,345,117.2,344.8z"/>
			<path class="st29" d="M114.2,287.4c2.2,3.2,3.7,6.7,4.5,10.5c-6.7-3.9-11.4-10.6-12.9-18.2C109,281.6,111.9,284.3,114.2,287.4z"
				/>
			<path class="st31" d="M132.9,330c-0.9-2.9-1.3-5.9-1.1-8.9c4.2,4.5,6.3,10.5,5.7,16.6C135.5,335.5,133.9,332.8,132.9,330z"/>
			<path class="st30" d="M136.9,326.2c-2.1-1.3-3.8-3-5.2-5c4.9,0.7,9.2,3.4,12,7.5C141.3,328.3,139,327.5,136.9,326.2z"/>
			<path class="st29" d="M114.2,305c2,1.9,3.5,4.2,4.6,6.7c-5.2-1.8-9.4-5.7-11.5-10.8C109.9,301.7,112.2,303.2,114.2,305z"/>
			<path class="st31" d="M136.2,362.9c-3.3-1.9-6.3-4.4-8.6-7.5c7.8,0.6,14.9,4.5,19.6,10.7C143.3,365.8,139.6,364.7,136.2,362.9z"
				/>
			<path class="st31" d="M136.3,354.2c-3.1,0.5-6.2,0.5-9.2-0.2c5.2-3.6,11.6-4.8,17.7-3.3C142.2,352.4,139.3,353.6,136.3,354.2z"/>
			<path class="st28" d="M135.4,324c-3-0.3-5.9-1.3-8.5-2.8c5.8-1.9,12.2-1.3,17.4,1.8C141.5,323.9,138.5,324.3,135.4,324z"/>
			<path class="st28" d="M133.7,318.8c-2,1.3-4.3,2.2-6.8,2.6c2.6-4.2,6.9-7,11.8-7.8C137.5,315.7,135.7,317.4,133.7,318.8z"/>
			<path class="st32" d="M103.9,324.4c3.1-0.1,6.2,0.4,9.1,1.5c-5.6,2.9-12.2,3.2-18,0.9C97.8,325.4,100.8,324.6,103.9,324.4z"/>
			<path class="st33" d="M81.9,317.9c0,0,22.7,21.4,49.4,32.1"/>
			<path class="st33" d="M99.4,353.1c0.4-0.3,16.5-0.2,24.9-6.2"/>
			<path class="st33" d="M109.1,292.3c0,0-1.3,29.4,11,52.6"/>
			<path class="st33" d="M95.1,301.8c0,0,6.5,11.1,16.6,18.2"/>
			<path class="st32" d="M117.8,291.2c-2.8,1.1-5.8,1.7-8.8,1.7c4.2-4.5,10-7,16.2-6.8C123,288.3,120.5,290,117.8,291.2z"/>
			<path class="st32" d="M113.6,287.3c-1.2,2.1-2.7,4-4.7,5.6c0.3-4.9,2.7-9.5,6.6-12.5C115.4,282.8,114.7,285.2,113.6,287.3z"/>
			<path class="st32" d="M70.9,307.1c4.4,2.8,8.1,6.5,11,10.8c-10.4-1.5-19.7-7.4-25.5-16.2C61.5,302.5,66.4,304.3,70.9,307.1z"/>
			<path class="st32" d="M78.7,307c1.8,3.4,2.9,7.2,3.2,11c-6.2-4.7-10-11.9-10.6-19.6C74.4,300.7,76.9,303.7,78.7,307z"/>
			<path class="st32" d="M70.8,315.2c3.8,0.2,7.6,1.1,11.1,2.8c-7.2,3-15.3,2.7-22.3-0.7C63.2,315.8,67,315.1,70.8,315.2z"/>
			<path class="st28" d="M105,300.6c2.4,3,4.1,6.5,5.2,10.2c-6.9-3.5-12-9.8-14-17.3C99.6,295.2,102.6,297.6,105,300.6z"/>
			<path class="st32" d="M104.7,345c3.6,1.3,6.9,3.4,9.7,6.1c-7.8,0.6-15.4-2.2-21-7.6C97.2,343.2,101,343.7,104.7,345z"/>
			<path class="st29" d="M91.3,356.7c2.5-1.8,5.4-3.1,8.4-3.8c-3.1,5.5-8.4,9.4-14.5,10.7C86.8,360.9,88.9,358.6,91.3,356.7z"/>
			<path class="st32" d="M105.5,317.4c3.1,2.3,5.6,5.3,7.5,8.6c-7.6-1.7-14.1-6.5-17.9-13.3C98.8,313.5,102.4,315.1,105.5,317.4z"/>
			<path class="st29" d="M89.7,292.6c2.6,2.8,4.6,6.2,5.9,9.8c-7.2-3-12.7-8.9-15.3-16.3C83.8,287.7,87,289.9,89.7,292.6z"/>
			<path class="st28" d="M86.8,299.2c3.1,0.4,6,1.5,8.7,3.1c-6,1.8-12.5,1-17.9-2.3C80.6,299.1,83.7,298.8,86.8,299.2z"/>
			<path class="st32" d="M124.3,351.6c2.9-0.9,5.9-1.3,8.9-1c-4.5,4.1-10.6,6.1-16.7,5.5C118.9,354.1,121.5,352.6,124.3,351.6z"/>
			<path class="st32" d="M128.2,355.8c1.3-2,3.1-3.8,5.1-5.2c-0.7,4.9-3.5,9.3-7.6,12C126,360.2,126.9,357.9,128.2,355.8z"/>
			<path class="st29" d="M80.6,323.6c3.8,0.2,7.6,1.1,11.1,2.8c-7.2,3-15.3,2.7-22.3-0.7C73,324.2,76.8,323.5,80.6,323.6z"/>
			<path class="st32" d="M125.9,334.4c-2.9-1-5.5-2.5-7.7-4.5c6.1-0.6,12.2,1.4,16.7,5.5C131.8,335.7,128.7,335.3,125.9,334.4z"/>
			<path class="st29" d="M125.3,329c-2.3,0.8-4.7,1.2-7.2,1.1c3.5-3.5,8.3-5.4,13.2-5.1C129.6,326.7,127.6,328.1,125.3,329z"/>
			<path class="st32" d="M94.7,334.1c2.7-0.4,5.4-0.3,8.1,0.4c-4.6,3.1-10.3,4-15.6,2.6C89.4,335.6,92,334.6,94.7,334.1z"/>
			<path class="st32" d="M122.7,328.8c-2.1,2.2-4.6,3.9-7.4,5.1c2-5.8,6.4-10.5,12-12.8C126.3,323.9,124.7,326.6,122.7,328.8z"/>
			<path class="st32" d="M117.5,327c-0.2,2.4-0.9,4.8-2,7c-1.7-4.6-1.4-9.8,0.9-14.1C117.2,322.1,117.6,324.6,117.5,327z"/>
			<path class="st24" d="M20.5,409.6l10.8,43.6c0,0,9.1,8.5,26.6,7s20.8-6.4,20.8-6.4l11.4-44.2L20.5,409.6z"/>
			<path class="st25" d="M52.7,451.4c-13.8-6.4-17.5-32.5-1.2-32.8c14.4-0.3,33.2-4.3,37.7-5.3l1-3.7H20.5l10.8,43.6
				c0,0,9.1,8.5,26.6,7c12.2-1,17.5-3.7,19.5-5.3C71.2,455.5,61.3,455.4,52.7,451.4z"/>
			<ellipse class="st24" cx="56.2" cy="406.8" rx="39.2" ry="7.8"/>
			<polygon class="st24" points="15.5,393.3 17,406.9 95.3,406.6 97.4,393.3 			"/>
			<ellipse class="st26" cx="56.4" cy="393.3" rx="40.9" ry="7.8"/>
			<ellipse class="st27" cx="56.3" cy="393" rx="36.3" ry="5.9"/>
			<path class="st29" d="M23.7,371.6c0,0,36.5-43,29.8-54s-13,8-13,8s7.6-30.9-2.2-31.6s-9.1,14.2-9.1,14.2s-0.4-24.7-11.4-23.9
				s-1.4,25.2-1.4,25.2s-9.7-18.2-15.2-8.2s16.2,34,16.2,34s-15.7-15.7-18.5-3.5C-4.5,346.3,23.7,371.6,23.7,371.6z"/>
			<path class="st33" d="M19.3,374.4c0,0,14.7-32.2,7.2-55.3"/>
			<path class="st29" d="M72.2,359.3c0,0,31.5-25.3,28.3-33.9s-10.3,3.9-10.3,3.9s9.5-20.7,2.8-22.5s-8.3,8.7-8.3,8.7
				s3.1-17.4-4.8-18.4s-4.4,17.5-4.4,17.5s-4.3-14.2-9.5-7.9s6.8,26.1,6.8,26.1s-8.9-13.2-12.6-5C55.8,337.7,72.2,359.3,72.2,359.3z
				"/>
			<path class="st33" d="M68.7,360.6c0,0,14.7-20.6,12.6-37.9"/>
			<path class="st30" d="M68.3,390c0,0-1.7-59.5,11-64.1s5.5,15.2,5.5,15.2s14.1-30.5,22.7-24.6s-1.8,17.7-1.8,17.7
				s16.6-20.2,25.2-12.2s-15.4,21.6-15.4,21.6s20-8.7,17.9,3.2s-35.7,17.3-35.7,17.3s23.3-2.6,17.6,9.4
				C108.2,387.8,68.3,390,68.3,390z"/>
			<path class="st33" d="M70.1,395.1c0,0,9.1-36.2,30.5-50.3"/>
			<path class="st31" d="M73.4,396.6c0,0-38.2-36.4-33.1-47.2s12.9,6.2,12.9,6.2s-10.1-28-1.1-29.6s9.9,12.3,9.9,12.3
				s-2.1-23,8.3-23.3s3.8,23.3,3.8,23.3s7.2-17.9,13.2-9.2s-11.7,33.2-11.7,33.2s13-16.1,16.9-5.1C97.2,370.3,73.4,396.6,73.4,396.6
				z"/>
			<path class="st33" d="M77.8,398.7c0,0-16.9-28.5-12.2-50.6"/>
			<path class="st30" d="M38.5,387.5c0,0,8-48.4-1.8-53.5s-6.1,11.8-6.1,11.8s-8.1-26.5-15.8-22.6s-0.5,14.6-0.5,14.6
				S2.9,319.5-4.9,325.1s10.2,19.4,10.2,19.4s-15.4-9.3-15,0.6s27.2,18.1,27.2,18.1s-18.7-4.7-15.4,5.7
				C6.1,381.3,38.5,387.5,38.5,387.5z"/>
			<path class="st33" d="M36.4,391.6c0,0-3.4-30.6-19.3-44.5"/>
			<path class="st28" d="M42.6,396.8c0,0-24.9-36.8-18.8-44.7s9.5,7.4,9.5,7.4s-3.3-24.8,4.4-24.6s5.9,11.8,5.9,11.8
				s2.4-19.3,11-17.7s-1,19.8-1,19.8s9.1-13.5,12.5-5.2s-15.5,25.2-15.5,25.2s13.6-11,14.8-1.2C66.8,379.4,42.6,396.8,42.6,396.8z"
				/>
			<path class="st33" d="M45.8,399.3c0,0-8.8-26.4-1-43.8"/>
			<path class="st29" d="M70.4,391.3c0,0,22.2-5.3,22.6-10.5s-6.2-0.5-6.2-0.5s9.8-8.3,6.8-10.9s-6.3,2.5-6.3,2.5s5.8-8.2,2-10.5
				s-6.4,7.9-6.4,7.9s1.2-8.3-3-6.3S77,378,77,378s-1.4-8.9-5.2-5.5C67.2,376.3,70.4,391.3,70.4,391.3z"/>
			<path class="st33" d="M68.3,391.2c0,0,12.5-7,15.5-16.3"/>
			<path class="st34" d="M213.3,244.4c0,0,22.1-6.9,41.4-27.6l16.7,21.9c0,0-17.8,17.6-48,18.4L213.3,244.4z"/>
			<path class="st35" d="M316.6,191.4c0,0-7.2,9.8-19.9,26.4c-4.8,6.3-10.2,11.9-16.3,16.9c-2.9,2.5-6.1,4.6-9.4,6.5
				c-15-10.1-16.6-25.1-16.6-25.1c3.1-3.2,6-6.6,8.7-10.1c9.5-12.3,19-27.7,19-27.7L316.6,191.4z"/>
			<path class="st36" d="M280.4,233.4c-3.1,2.4-6.6,4.4-10.2,6c-14.8-9.2-15-23.3-15-23.3c2.7-2.5,4.7-5.3,7.6-8.8
				C263.3,213.4,266.7,224.1,280.4,233.4z"/>
			<path class="st35" d="M274,204.9c0,0,6.1,27.6,9.1,51s4.1,41.9,4.1,41.9s47.1,25.4,90.1-11.9c0,0-21.1-78.8-32.1-103.1
				c0,0-14.2-28.5-41.6-23.7c-26,4.6-20.5,26.7-20.5,26.7"/>
			
				<ellipse transform="matrix(0.6784 -0.7347 0.7347 0.6784 -32.0222 273.4638)" class="st36" cx="296.4" cy="173.3" rx="21.7" ry="9.9"/>
			<path class="st37" d="M282.1,166c0,0,4.2,2,2.6,12.1s19.2,3.9,24.8-19.2c0,0-4.9-7.8-1.6-21.5S278.5,146.4,282.1,166z"/>
			<path class="st34" d="M217.3,140.8c-2.4-4.6-7-7.7-12.1-8.3c-8.7-0.8-7,12.8,1.1,21s16.1,6.9,17.9,2.4"/>
			<path class="st38" d="M218.6,151.9c0,0-11.3-12.8-16.3-6.2"/>
			<path class="st39" d="M218.6,151.9c-1.2-1.2-2.4-2.3-3.7-3.3c-1.3-1-2.6-2-4-2.8c-1.4-0.8-2.9-1.3-4.4-1.6
				c-0.7-0.1-1.5-0.1-2.2,0.1c-0.7,0.3-1.4,0.7-2,1.2l-0.1-0.1c0.4-0.8,1-1.4,1.8-1.8c0.8-0.4,1.7-0.6,2.6-0.5
				c1.7,0.2,3.3,0.9,4.7,1.9C214.1,147.1,216.5,149.3,218.6,151.9L218.6,151.9z"/>
			<path class="st38" d="M211.3,145.3c0,0-3.3,2.7,0.6,10.4"/>
			<path class="st39" d="M211.3,145.3c-0.6,0.7-0.9,1.6-1,2.4c-0.1,0.9,0,1.8,0.1,2.6c0.2,0.9,0.5,1.7,0.8,2.6
				c0.1,0.4,0.3,0.9,0.4,1.3c0.1,0.4,0.2,0.9,0.3,1.4l-0.1,0.1c-0.6-0.7-1.2-1.5-1.5-2.4c-0.2-0.4-0.3-0.9-0.4-1.4
				c-0.1-0.5-0.2-0.9-0.2-1.4c-0.1-0.9-0.1-1.9,0.1-2.8c0.2-0.9,0.7-1.8,1.4-2.4L211.3,145.3z"/>
			<path class="st34" d="M316.4,104.4c7.1,32.2-8,61-33.2,73.1s-60.5,8.8-73.6-36.4c-3.3-11.4-9.5-31.1-14.7-37.6
				c-9.5-11.9-12.7-8.1,11.7-26.9C277.6,22,309.5,73.2,316.4,104.4z"/>
			<path class="st40" d="M279.3,61.8c0,0-41.8,36.1-73.4,43.4l-1,23l-21.7-43.7l43.9-32.3l56.5-6.4l26.8,35.8l1.2,33.3
				c0,0-5.4-14.5-16.8-23.6S279.3,61.8,279.3,61.8z"/>
			
				<ellipse transform="matrix(0.9003 -0.4352 0.4352 0.9003 -23.1856 129.6992)" class="st41" cx="271.6" cy="115.5" rx="13.5" ry="13.4"/>
			<path class="st42" d="M283.8,109.6c1.6,3.2,1.8,6.9,0.7,10.3c-2.4,7.3-10.2,11.3-17.6,9c-7.3-2.3-11.3-10.1-9-17.4
				c1.2-3.8,4-6.9,7.7-8.5c3.3-1.5,7.1-1.6,10.5-0.4C279.5,103.8,282.2,106.3,283.8,109.6z M283.7,109.6c-1.6-3.2-4.3-5.6-7.7-6.8
				c-7-2.4-14.6,1.3-17.1,8.3c-2.4,6.9,1.2,14.5,8.1,17c0,0,0.1,0,0.1,0c7,2.4,14.6-1.3,17.1-8.2
				C285.4,116.5,285.2,112.8,283.7,109.6L283.7,109.6z"/>
			
				<ellipse transform="matrix(0.9003 -0.4352 0.4352 0.9003 -26.4011 129.8611)" class="st43" cx="270.3" cy="122.6" rx="6.7" ry="6.7"/>
			
				<ellipse transform="matrix(0.9003 -0.4352 0.4352 0.9003 -23.9814 129.2165)" class="st41" cx="270.1" cy="117" rx="1.9" ry="1.9"/>
			
				<ellipse transform="matrix(0.9003 -0.4352 0.4352 0.9003 -34.6839 112.9603)" class="st41" cx="229.3" cy="132.2" rx="11.5" ry="12.8"/>
			<path class="st42" d="M239.7,127.2c1.5,2.9,1.8,6.2,1.1,9.4c-0.7,3.2-2.8,6-5.7,7.6c-3,1.5-6.6,1.7-9.8,0.3
				c-6.5-2.8-10-9.9-8.1-16.7c0.9-3.3,3.2-6,6.3-7.4c3.1-1.3,6.5-1.2,9.5,0.2C236,121.9,238.3,124.2,239.7,127.2z M239.6,127.2
				c-1.4-2.9-3.8-5.2-6.7-6.5c-5.3-2.5-11.7-0.2-14.2,5.1c-0.3,0.7-0.6,1.4-0.7,2.2c-1.6,6.4,1.6,13,7.6,15.7
				c5.3,2.5,11.7,0.2,14.2-5.1c0.3-0.7,0.6-1.4,0.7-2.1C241.3,133.4,241,130.1,239.6,127.2L239.6,127.2z"/>
			
				<ellipse transform="matrix(0.9003 -0.4352 0.4352 0.9003 -37.2321 113.7311)" class="st43" cx="229.7" cy="138.1" rx="6.4" ry="6.3"/>
			
				<ellipse transform="matrix(0.9003 -0.4352 0.4352 0.9003 -35.0461 113.6069)" class="st41" cx="230.5" cy="133.3" rx="1.6" ry="1.8"/>
			<path class="st42" d="M242.1,126.5c0.6,0.5,1.3,1.1,1.8,1.7c0.6,0.6,1.1,1.2,1.6,1.9c1,1.3,1.8,2.8,2.4,4.4
				c0.6,1.7,0.8,3.4,0.6,5.2c-0.3,1.8-1.1,3.4-2.3,4.7l0.1-0.9c0.4,0.8,0.9,1.5,1.6,2c0.7,0.5,1.6,0.8,2.5,0.9c1,0,1.9-0.1,2.9-0.4
				c0.5-0.2,0.9-0.3,1.4-0.5s0.9-0.4,1.4-0.6l0.1,0.1l-1.3,0.8c-0.5,0.3-0.9,0.5-1.4,0.7c-1,0.4-2,0.6-3,0.7c-1.1,0-2.1-0.3-3-0.8
				c-0.9-0.6-1.6-1.4-2-2.3v-0.1l0,0c1-1.2,1.7-2.7,2-4.3c0.2-1.6,0.1-3.2-0.4-4.8c-0.5-1.5-1.2-3-2.1-4.4c-0.9-1.4-1.9-2.6-3-3.8
				L242.1,126.5z"/>
			<path class="st43" d="M254.1,97.1c0,0-4.7-5.1,1.8-8.9c5.6-3.3,15.5-2.1,22.8,2.3c0.5,0.2,0.7,0.8,0.5,1.3
				c-0.2,0.4-0.7,0.7-1.1,0.6C272.4,91.8,261.6,91.7,254.1,97.1z"/>
			<path class="st43" d="M225.5,106.4c0,0-1.4-6.8-7.3-4.6c-5,1.9-9,9.7-9.4,17.8c0,1,1.2,1.6,1.7,0.8
				C212.9,115.9,218,108.2,225.5,106.4z"/>
			<path class="st44" d="M280.5,55.9c0,0-27.2,18.5-44.1,14.9c0,0-4.1,10.5-18.1,12.3c0,0,4.4,9-14.4,16.8c0,0-0.2,25.1,2.9,32.2
				c0,0-24.9-16.8-26.8-40.9s6.6-45.2,38-63.5s64.6-4.8,74.1,4.9L285.9,19c0,0,8.5,4.5,9.3,12.6c0,0,1.9-4.7,10.8-2
				c0,0-7.6,3.3-7,7.2c0,0,10.3,2.3,18.4,14.5s14.7,37.6,8.4,50.8c0,0-10.4,3.4-10.5,11.7c0,0-3.7,6.8-5.3-5.7s-24-24.8-30.1-51
				L280.5,55.9z"/>
			<path class="st34" d="M312,117.2c0,0-1.9-8.3,7.2-17.2s18,1.6,15.4,14.8s-12.8,20.2-18.3,19"/>
			<path class="st38" d="M319.3,125.7c0,0,2.7-19.4,13.6-20"/>
			<path class="st39" d="M319.2,125.7c0.5-4.3,1.7-8.5,3.6-12.5c0.9-2,2.2-3.9,3.9-5.4c1.7-1.5,3.9-2.3,6.1-2.2v0.1
				c-2.1,0.4-4,1.4-5.5,2.8c-1.5,1.5-2.8,3.1-3.8,5c-1,1.9-1.9,3.9-2.5,5.9C320.3,121.5,319.7,123.6,319.2,125.7L319.2,125.7z"/>
			<path class="st38" d="M322.4,114.2c0,0,5.9-1.4,7.5,7.4"/>
			<path class="st39" d="M322.4,114.2c1-0.2,2-0.2,3,0.1c1,0.3,1.9,0.9,2.6,1.7c0.7,0.7,1.3,1.6,1.6,2.6c0.1,0.5,0.2,1,0.3,1.5
				c0,0.5,0,1,0,1.5h-0.1c-0.2-0.4-0.4-0.9-0.6-1.4c-0.2-0.4-0.4-0.9-0.6-1.3c-0.4-0.9-0.8-1.7-1.3-2.5c-0.6-0.8-1.3-1.4-2.1-1.7
				C324.3,114.3,323.3,114.1,322.4,114.2L322.4,114.2z"/>
			<path class="st44" d="M279.9,57.1c0,0-35.4,39.5-76.6,44.2S247,48.4,247,48.4l39.3-3.4L279.9,57.1z"/>
			<path class="st45" d="M279,141.3c0,0,2.4,20.5-11.2,27c0,0-15.6,6.1-26-12.9C255.9,158.1,270.3,152.7,279,141.3z"/>
			<path class="st46" d="M278.8,141c0,0,1.5,17.1-12.1,23.6c0,0-15.2,5.5-25-9.2C255.8,157.9,270.1,152.4,278.8,141z"/>
			<path class="st47" d="M275.1,145.3c-1.2,5-4.5,9.2-9,11.7c-6.2,3.2-13.7,2.6-19.4-1.5C246.7,155.5,263.4,156.9,275.1,145.3z"/>
			<path class="st45" d="M279,140.7c0,0-6.6,8.1-16.8,11.5c-6.6,2.1-13.5,3.1-20.5,3.2C241.7,155.4,266,161,279,140.7z"/>
			<path class="st48" d="M277.2,139.7c1.6,0.9,2.8,2.2,3.6,3.8C280.8,143.5,280.3,140.1,277.2,139.7z"/>
			<path class="st48" d="M242.7,152.2c-0.8,1.7-1,3.6-0.5,5.4C241,155.9,241.2,153.6,242.7,152.2z"/>
			<path class="st49" d="M274.5,157.8c-3.2-1.2-6.9-0.3-9.3,2.2c0,0-4.4-0.8-9.3,5.3C256,165.3,267.9,168.9,274.5,157.8z"/>
			<path class="st34" d="M222.1,240.5c0,0-16.8,5.6-22.8,10.5c-1.1,1.3-1.1,3.3,0.2,4.5c2.2,2.2,11.1-4.7,9.6,1.5
				c-1.5,6.3-4.6,19.5-4.6,19.5s-0.8,5.7,8.4,2.6c0,0,2.9,3.1,9.3-1.5c0,0,5.4,3.7,10.6-5.3l6.2-19.8"/>
			<path class="st38" d="M211.1,279.7c0,0,2.8,0.1,3.7-5.9s1.1-8.7,1.1-8.7"/>
			<path class="st50" d="M211.1,279.2c0.2,0,0.5-0.1,0.7-0.2c0.3-0.1,0.5-0.3,0.7-0.5c0.4-0.5,0.8-1,1-1.6c0.5-1.2,0.9-2.5,1.1-3.8
				c0.5-2.6,0.9-5.3,1.3-8c-0.2,2.7-0.4,5.4-0.8,8.1c-0.1,1.4-0.4,2.7-0.9,4c-0.3,0.7-0.6,1.3-1.1,1.9c-0.5,0.6-1.3,1.1-2.1,1.1
				L211.1,279.2z"/>
			<path class="st38" d="M220.8,278.8c0,0,1.7-0.8,2.7-5.6c0.6-2.7,0.9-5.5,0.9-8.4"/>
			<path class="st50" d="M220.6,278.4c0.2-0.1,0.4-0.3,0.5-0.5c0.2-0.2,0.4-0.4,0.5-0.7c0.3-0.5,0.6-1,0.8-1.6
				c0.4-1.1,0.8-2.3,1-3.5c0.5-2.4,0.8-4.8,0.9-7.3c0.1,2.5,0,4.9-0.4,7.4c-0.2,1.2-0.4,2.5-0.8,3.7c-0.2,0.6-0.5,1.2-0.8,1.8
				c-0.2,0.3-0.3,0.6-0.5,0.8c-0.2,0.3-0.5,0.6-0.8,0.8L220.6,278.4z"/>
			<path class="st38" d="M231.3,275c0,0,3.4-4.2,2.3-11.7"/>
			<path class="st50" d="M230.9,274.7c0.6-0.8,1.1-1.6,1.4-2.5c0.4-0.9,0.7-1.9,0.9-2.9c0.2-1,0.3-2,0.4-3c0-1,0-2-0.1-3
				c0.2,1,0.3,2,0.3,3c0,1,0,2.1-0.1,3.1c-0.1,1-0.4,2-0.7,3c-0.3,1-0.8,2-1.4,2.9L230.9,274.7z"/>
			<path class="st51" d="M184.6,276.2l38.3-33.9c4.2-3.7,10.5-3.9,14.9-0.3l7.2,5.9c4.9,4,5.7,11.3,1.6,16.2
				c-0.1,0.2-0.3,0.3-0.4,0.5l-35.5,38c-4.4,4.9-11.7,5.5-16.4,0.9L184,292.9c-4.5-4.5-4.4-11.8,0.1-16.3
				C184.3,276.5,184.4,276.4,184.6,276.2z"/>
			<path class="st51" d="M215.1,297.9c-8.8,24.1-28.8,17.9-36.5,10.2s-11.8-28.6,8.1-34"/>
			<path class="st52" d="M180.8,299.2c0,0-2.1-10.4,14.1-22.6s41.5-34.1,41.5-34.1c2.2,0.8,4.1,2.2,5.3,4.1l-42.7,36
				c0,0-13.6,11.3-11.3,25.2L180.8,299.2z"/>
			
				<linearGradient id="SVGID_7_" gradientUnits="userSpaceOnUse" x1="219.47" y1="252.53" x2="209.09" y2="121.33" gradientTransform="matrix(1 0 0 -1 0 512)">
				<stop  offset="0.1" style="stop-color:#286BAD"/>
				<stop  offset="0.13" style="stop-color:#3476B3"/>
				<stop  offset="0.23" style="stop-color:#5B96C7"/>
				<stop  offset="0.33" style="stop-color:#7BB1D7"/>
				<stop  offset="0.44" style="stop-color:#94C6E4"/>
				<stop  offset="0.55" style="stop-color:#A5D4ED"/>
				<stop  offset="0.67" style="stop-color:#B0DDF2"/>
				<stop  offset="0.81" style="stop-color:#B3E0F4"/>
			</linearGradient>
			<path class="st53" d="M187.7,305.6c0,0,13.4-1.6,26.8-15.5s32.8-38.3,32.8-38.3s4.4,2.8-0.2,10.9l-31.9,34.1
				c0,0-9.8,27-29.3,14.8L187.7,305.6z"/>
			<path class="st54" d="M186.1,299.6c3.8,4.3,4.6,9.4,2.3,11.8c-6.2,6.6-7.6,0.5-11.4-3.9s-9.4-6.9-2.3-11.8
				C177.5,293.8,182.3,295.3,186.1,299.6z"/>
			
				<ellipse transform="matrix(0.7539 -0.657 0.657 0.7539 -156.9784 192.859)" class="st51" cx="178.9" cy="306" rx="6.1" ry="10.4"/>
			<path class="st51" d="M186,312.6c-1.5,1.3-4.6,0.4-7.5-2.1c-0.8-0.6-1.5-1.3-2.1-2.1c-3.4-3.9-4.7-8.5-2.8-10.1s6.2,0.2,9.6,4.2
				c0.5,0.6,1,1.2,1.4,1.8C186.9,307.7,187.6,311.2,186,312.6z"/>
			<path class="st55" d="M186,312.6c-1.5,1.3-4.6,0.4-7.5-2.1l6.1-6.2C186.9,307.7,187.6,311.2,186,312.6z"/>
			<path class="st56" d="M185.8,274.7c0,0,5-1.6,16.3,9.5s11.4,16.1,11.4,16.1s-0.2-7.4-10.4-17.5S185.8,274.7,185.8,274.7z"/>
			<path class="st34" d="M244.9,270.3c0,0,36.3-0.6,60.6-21.1c0,0-15.8-5.4-23.4-20.4c0,0-22.6,20.1-45.6,21.4c0,0-6.8,2.7-6.8,9.2
				C229.5,272,244.9,270.3,244.9,270.3"/>
			<path class="st34" d="M236.4,250.2c-8.3,1.6-16.8,1.7-25.1,0.5c-1.6,0.7-2.3,2.6-1.6,4.2c1.1,2.9,2.6,4.2,9.1,4.1
				c17.3-0.4,8.7,23.2,5.7,26.8c-9,11.2-6.9,14.3,14.6-2.4c9-7.8,10.1-15.8,10.1-15.8"/>
			<path class="st38" d="M237.4,278.8c0,0-0.5,6-7.8,11.5"/>
			<path class="st39" d="M237.4,278.8c0,1.2-0.2,2.4-0.7,3.5c-0.4,1.1-1,2.2-1.7,3.2c-1.1,1.5-2.4,2.7-3.9,3.8
				c-0.5,0.3-1,0.6-1.6,0.9c0.4-0.5,0.8-0.9,1.2-1.3s0.8-0.9,1.2-1.3c0.8-0.9,1.5-1.8,2.2-2.7C235.6,283.1,236.7,281,237.4,278.8z"
				/>
			<path class="st38" d="M243.8,276.4c0,0-1.4,5.8-9.5,10.1"/>
			<path class="st39" d="M243.8,276.4c-0.2,1.2-0.6,2.4-1.2,3.4c-0.6,1-1.4,2-2.2,2.9c-0.9,0.9-1.8,1.6-2.8,2.3
				c-0.5,0.3-1.1,0.6-1.6,0.9c-0.5,0.3-1.1,0.5-1.7,0.7c0.5-0.4,0.9-0.7,1.4-1.1s0.9-0.7,1.4-1.1c0.9-0.7,1.8-1.5,2.6-2.3
				C241.3,280.3,242.7,278.5,243.8,276.4z"/>
			<path class="st35" d="M339.5,218.2l-21,22.2l-10.4,11c-22.4-5-29.3-24.8-29.3-24.8s3.6-4.4,8.5-10.5c7.7-9.6,18.5-23.4,23.4-31"
				/>
			<path class="st36" d="M317.6,240.4l-9.9,11c-21.3-5-27.9-24.8-27.9-24.8s3.4-4.4,8.1-10.5C294.6,227.5,305.1,236.2,317.6,240.4z"
				/>
			
				<linearGradient id="SVGID_8_" gradientUnits="userSpaceOnUse" x1="150.3609" y1="169.38" x2="186" y2="169.38" gradientTransform="matrix(1 0 0 -1 0 512)">
				<stop  offset="0" style="stop-color:#FFFFFF"/>
				<stop  offset="0.43" style="stop-color:#B3E0F4"/>
				<stop  offset="0.83" style="stop-color:#3476B7"/>
			</linearGradient>
			<path class="st57" d="M186,312.6c0,0-25.7,28.6-24.2,61.3c0,0-0.5,1-10.1,1.8c-3.5-7.8-2.2-31.4,27.6-66.1"/>
			
				<linearGradient id="SVGID_9_" gradientUnits="userSpaceOnUse" x1="553.1169" y1="-1385.8323" x2="626.007" y2="-1385.8323" gradientTransform="matrix(0.75 -0.36 -0.38 -0.78 -817.51 -512.35)">
				<stop  offset="8.000000e-02" style="stop-color:#286BAD"/>
				<stop  offset="0.12" style="stop-color:#3675B2"/>
				<stop  offset="0.3" style="stop-color:#739EC9"/>
				<stop  offset="0.47" style="stop-color:#A5C1DD"/>
				<stop  offset="0.63" style="stop-color:#CCDCEC"/>
				<stop  offset="0.78" style="stop-color:#E8EFF6"/>
				<stop  offset="0.9" style="stop-color:#F9FBFD"/>
				<stop  offset="1" style="stop-color:#FFFFFF"/>
			</linearGradient>
			<path class="st58" d="M159.7,334.6c0,0-16.5,16-10.9,40.4c0,0-1.1,4.6-4.3-1.3c-3.2-6.1-1-28.2,15.6-40.2"/>
			<path class="st59" d="M287.2,297.8c0,0-1.5,8-10.2,50.7c0,0-2.7,8.8,4.6,44.2c2,9.9,4.7,19.7,8,29.3l0,0c0,0,19.1,7.2,28.3-2.6
				c0,0-2.3-30.1-5.3-57.6l13.1-21.6c0,0,1.6,17.2,12.7,36.9s17.5,52.5,17.5,52.5c8.1,6.1,18.9,7,27.9,2.4
				c-1.1-18.2-3.1-36.3-6-54.3c-4.7-28.5,2.8-60-4.2-90.5C373.6,287.1,334.7,319.2,287.2,297.8z"/>
			<path class="st59" d="M325.7,340.2c0,0-8.1-2.2-12.3-18.5"/>
			<path class="st60" d="M281.2,428.6c0,0-3.6-14.1,8.5-16.6c0,0,10.4,0.5,10,15.2c0,0,14.6,4.3,18.2-4.8c0,0,1.5,12.5-0.6,17.7
				s-7.8,7-18.2,10.4c-9.9,3.3-20.2,15.6-40.9,7.7c-5-2.1-7.4-7.8-5.3-12.8c0,0,0-0.1,0.1-0.1c1-2.1,2.3-3.9,4-5.5
				C266.6,430.7,272.7,430.7,281.2,428.6z"/>
			<path class="st61" d="M281.4,423c0,0-3.6-14.1,8.5-16.6c0,0,10.4,0.5,10,15.2c0,0,14.6,4.3,18.2-4.8c0,0,1.5,12.5-0.6,17.7
				s-7.9,7-18.2,10.5c-9.9,3.2-20.2,15.5-40.9,7.7c-5-2-7.4-7.7-5.4-12.7c0-0.1,0.1-0.2,0.1-0.2c0.9-2.1,2.3-3.9,4-5.5
				C266.8,425,272.9,425,281.4,423z"/>
			<path class="st62" d="M279.8,421.7c4.5,1,8.4,3.6,11,7.4l-4.2,2c-3.3-3.9-7.9-6.4-12.9-7.3l0,0
				C274.5,421.9,278,420.7,279.8,421.7L279.8,421.7C279.9,421.8,279.8,421.7,279.8,421.7z"/>
			<path class="st62" d="M271.7,425.2c0,0,9.8,3.2,13.6,8.6l-4.9,1.8c0,0-8.3-7.3-15.9-7.3C264.5,428.4,264.7,423,271.7,425.2z"/>
			<path class="st60" d="M351.8,437.3c0,0-3-7.7,6.4-14.3c0,0,13.6-4.1,13.6,14.1c0,0,7.4,0.2,10.4-10.7c0,0,1.5-7.3,3.4,6.1
				s2.1,14.1-3.2,19.5s-10.2,17.7-25.6,17.7s-23.3-3.9-21.6-14.1S351.8,437.3,351.8,437.3z"/>
			<path class="st61" d="M351.8,431c0,0-3-7.7,6.4-14.3c0,0,13.6-4.1,13.6,14.1c0,0,7.4,0.2,10.4-10.7c0,0,1.5-7.3,3.4,6.1
				s2.1,14.1-3.2,19.5s-10.2,17.7-25.6,17.7s-23.3-3.9-21.6-14.1S351.8,431,351.8,431z"/>
			<path class="st62" d="M347,433.7c0,0,7.6-3.4,19.4,5.8c0,0,8.6-0.3-0.6-5.5S343.1,427.9,347,433.7z"/>
			<path class="st62" d="M342.8,437.8c0,0,7.6-3.4,19.4,5.8c0,0,8.6-0.3-0.6-5.5S339,432,342.8,437.8z"/>
		</g>
	</g>
	
		<radialGradient id="SVGID_10_" cx="22.3509" cy="256.6065" r="211.4594" gradientTransform="matrix(1.14 0 0 -1.08 223.99 531.73)" gradientUnits="userSpaceOnUse">
		<stop  offset="0" style="stop-color:#FFFFFF"/>
		<stop  offset="0.43" style="stop-color:#D3F9FC"/>
	</radialGradient>
	<path class="st63" d="M490.4,254.6c0,126.2-107.9,228.5-241,228.5S8.5,380.8,8.5,254.6s107.9-228.5,241-228.5
		S490.4,128.4,490.4,254.6z"/>
	<path class="st64" d="M263.4,458.6c-133.1,0-240.9-102.3-240.9-228.4c0-32.6,7.3-64.8,21.4-94.2c-2.6,3.9-5.2,7.8-7.5,11.9
		c-20,33.7-30.6,72.2-30.6,111.4c0,126.2,107.9,228.5,241,228.5c97.7,0,181.7-55.1,219.6-134.3C423.5,416.7,348.6,458.6,263.4,458.6
		z"/>
	<path class="st65" d="M68.9,173.8c9.8-35.6,38.8-70.1,98.6-91.8c6.7-2.5,10.1-9.9,7.6-16.6c-0.7-1.8-1.7-3.4-3-4.7l-1.1-1.2
		c-3.4-3.3-8.3-4.6-12.9-3.2C135.6,63,77.4,96.2,58.3,171c-0.6,2.3,0.4,4.6,2.3,5.9l0.1,0.1c2.5,1.6,5.9,0.9,7.5-1.6
		C68.5,174.9,68.8,174.3,68.9,173.8z"/>
	<circle class="st65" cx="60.6" cy="192.9" r="8.2"/>
</g>
</svg>
