<?xml version="1.0" encoding="utf-8"?>
<!-- Generator: Adobe Illustrator 25.2.3, SVG Export Plug-In . SVG Version: 6.00 Build 0)  -->
<svg version="1.1" id="Layer_1" xmlns="http://www.w3.org/2000/svg" xmlns:xlink="http://www.w3.org/1999/xlink" x="0px" y="0px"
	 viewBox="0 0 510 510" style="enable-background:new 0 0 510 510;" xml:space="preserve">
<style type="text/css">
	.st0{opacity:0.3;enable-background:new    ;}
	.st1{opacity:0.91;fill:url(#SVGID_1_);enable-background:new    ;}
	.st2{clip-path:url(#SVGID_3_);}
	.st3{fill:url(#SVGID_4_);}
	.st4{opacity:0.36;fill:none;stroke:#FEFFEB;stroke-miterlimit:10;enable-background:new    ;}
	.st5{fill:url(#SVGID_5_);}
	.st6{fill:url(#SVGID_6_);}
	.st7{fill:url(#SVGID_7_);}
	.st8{fill:url(#SVGID_8_);}
	.st9{fill:url(#SVGID_9_);}
	.st10{opacity:0.43;}
	.st11{fill:none;stroke:#FEFFEB;stroke-width:0.5;stroke-miterlimit:10;}
	.st12{fill:#A6E6F7;}
	.st13{fill:#71CAF2;}
	.st14{fill:#2C8284;}
	.st15{opacity:0.4;fill:#353535;enable-background:new    ;}
	.st16{fill:#54A3B7;}
	.st17{fill:#DF6B97;}
	.st18{fill:#ECA8C2;}
	.st19{opacity:0.5;fill:#DF6B97;enable-background:new    ;}
	.st20{opacity:0.7;fill:#DF6B97;enable-background:new    ;}
	.st21{fill:#471025;}
	.st22{fill:#E9EAE5;}
	.st23{fill:#4D8184;}
	.st24{fill:#426E72;}
	.st25{fill:#99AAA9;}
	.st26{fill:#C0C1BC;}
	.st27{fill:#A4A5A0;}
	.st28{fill:#CACCC0;}
	.st29{fill:#93D839;}
	.st30{fill:#73AD0E;}
	.st31{fill:none;stroke:#913D2A;stroke-width:0.25;stroke-miterlimit:10;}
	.st32{fill:#F9D1C6;}
	.st33{opacity:0.5;}
	.st34{fill:#2C5591;}
	.st35{fill:none;stroke:#0E3266;stroke-width:0.5;stroke-miterlimit:10;}
	.st36{fill:#4776C2;}
	.st37{fill:#5789D3;}
	.st38{fill:#F7BEB0;}
	.st39{fill:#913D2A;}
	.st40{fill:#F9D1C6;stroke:#CE8F89;stroke-width:0.5;stroke-miterlimit:10;}
	.st41{fill:#342517;}
	.st42{fill:#422F1F;}
	.st43{fill:#CE8F89;}
	.st44{fill:#EAEDF9;}
	.st45{fill:none;stroke:#035353;stroke-width:0.25;stroke-miterlimit:10;}
	.st46{fill:#2D2B21;}
	.st47{fill:url(#SVGID_10_);}
	.st48{opacity:0.6;fill:url(#SVGID_11_);enable-background:new    ;}
	.st49{fill:#C23945;}
	.st50{fill:#B5F7F5;}
	.st51{fill:#84C918;}
	.st52{fill:#D6D621;}
	.st53{fill:#BFBB17;}
	.st54{fill:#B2AA14;}
	.st55{fill:#CCC71D;}
	.st56{opacity:0.1;fill:url(#SVGID_12_);enable-background:new    ;}
	.st57{opacity:0.5;fill:#4ECECE;enable-background:new    ;}
	.st58{opacity:0.6;fill:#FDFFFF;enable-background:new    ;}
</style>
<circle class="st0" cx="262.3" cy="262.3" r="242.7"/>
<g id="_01-2">
	
		<radialGradient id="SVGID_1_" cx="-1174.6134" cy="1156.5938" r="584.458" gradientTransform="matrix(0.48 0 0 -0.48 813.52 803.96)" gradientUnits="userSpaceOnUse">
		<stop  offset="0" style="stop-color:#FFFFFF"/>
		<stop  offset="0.61" style="stop-color:#D3F9FC"/>
		<stop  offset="0.93" style="stop-color:#48E5FF"/>
	</radialGradient>
	<path class="st1" d="M490.2,248.8c0,133.4-108.6,241.6-242.6,241.6S5,382.2,5,248.8S113.6,7.2,247.6,7.2S490.2,115.3,490.2,248.8z"
		/>
	<g>
		<defs>
			<ellipse id="SVGID_2_" cx="248.3" cy="246.1" rx="242.2" ry="241.1"/>
		</defs>
		<clipPath id="SVGID_3_">
			<use xlink:href="#SVGID_2_"  style="overflow:visible;"/>
		</clipPath>
		<g class="st2">
			
				<linearGradient id="SVGID_4_" gradientUnits="userSpaceOnUse" x1="654.2937" y1="797.9088" x2="386.9437" y2="17.6287" gradientTransform="matrix(1 0 0 -1 0 512)">
				<stop  offset="0" style="stop-color:#72EDED"/>
				<stop  offset="0.23" style="stop-color:#6FE9EA"/>
				<stop  offset="0.45" style="stop-color:#67DDE3"/>
				<stop  offset="0.68" style="stop-color:#58C9D6"/>
				<stop  offset="0.9" style="stop-color:#45ADC4"/>
				<stop  offset="0.99" style="stop-color:#3CA1BC"/>
			</linearGradient>
			<path class="st3" d="M222.9-76.6c0.5,171.7,1.1,343.5,1.7,515.2l539.6,4.7V-74.3L222.9-76.6z"/>
			<line class="st4" x1="247.1" y1="402.9" x2="827" y2="404.8"/>
			
				<linearGradient id="SVGID_5_" gradientUnits="userSpaceOnUse" x1="-759.0381" y1="662.1841" x2="243.142" y2="192.594" gradientTransform="matrix(1 0 0 -1 0 512)">
				<stop  offset="0.38" style="stop-color:#41AFB5"/>
				<stop  offset="0.76" style="stop-color:#3EABB6"/>
				<stop  offset="0.99" style="stop-color:#39A5B7"/>
			</linearGradient>
			<path class="st5" d="M242.8-87.4l-441.5-119.8l-8.6,722.1l453-77.9C244.7,262.3,243.7,87.5,242.8-87.4z"/>
			
				<linearGradient id="SVGID_6_" gradientUnits="userSpaceOnUse" x1="-596.575" y1="643.9084" x2="261.895" y2="507.6784" gradientTransform="matrix(1 0 0 -1 0 512)">
				<stop  offset="0.13" style="stop-color:#41B5C4"/>
				<stop  offset="0.48" style="stop-color:#40B1C2"/>
				<stop  offset="0.81" style="stop-color:#3DA5BE"/>
				<stop  offset="0.99" style="stop-color:#3A9CBA"/>
			</linearGradient>
			<path class="st6" d="M-254.3-215.6l493.7,100c-0.2,94.7,4.8,160.2,4.6,255C79.7,11.3-89.9-87.5-254.3-215.6z"/>
			
				<linearGradient id="SVGID_7_" gradientUnits="userSpaceOnUse" x1="757.2333" y1="606.0874" x2="216.2228" y2="470.0273" gradientTransform="matrix(1 0 0 -1 0 512)">
				<stop  offset="2.000000e-02" style="stop-color:#72EDED"/>
				<stop  offset="0.26" style="stop-color:#6FE9EC"/>
				<stop  offset="0.5" style="stop-color:#67DDE7"/>
				<stop  offset="0.74" style="stop-color:#59C9E0"/>
				<stop  offset="0.98" style="stop-color:#45ADD6"/>
				<stop  offset="0.99" style="stop-color:#45ADD6"/>
			</linearGradient>
			<polyline class="st7" points="764,-67.3 238.1,-67.1 240.7,139.4 759.2,-67.1 			"/>
			
				<linearGradient id="SVGID_8_" gradientUnits="userSpaceOnUse" x1="718.9095" y1="127.032" x2="181.8695" y2="-8.0179" gradientTransform="matrix(1 0 0 -1 0 512)">
				<stop  offset="2.000000e-02" style="stop-color:#E9EAE5"/>
				<stop  offset="0.12" style="stop-color:#E0E4E0"/>
				<stop  offset="0.44" style="stop-color:#C7D4D1"/>
				<stop  offset="0.74" style="stop-color:#B8C9C8"/>
				<stop  offset="0.98" style="stop-color:#B3C6C5"/>
			</linearGradient>
			<polygon class="st8" points="734.4,410.7 247.1,402.9 -254.8,509.8 734.5,501.1 			"/>
			
				<linearGradient id="SVGID_9_" gradientUnits="userSpaceOnUse" x1="-216.7" y1="54.0421" x2="1439.52" y2="54.0421" gradientTransform="matrix(1 0 0 -1 0 512)">
				<stop  offset="0" style="stop-color:#6F929B"/>
				<stop  offset="0.14" style="stop-color:#7D96A5"/>
				<stop  offset="0.48" style="stop-color:#999EB9"/>
				<stop  offset="0.77" style="stop-color:#ABA2C5"/>
				<stop  offset="0.99" style="stop-color:#B1A4C9"/>
			</linearGradient>
			<path class="st9" d="M247.1,402.9c117.1,30.5,235.8,54.7,355.4,72.6c304.6,45.5,577,44.1,801,25.2l-1656.2,8.8L247.1,402.9z"/>
			<g class="st10">
				<polyline class="st11" points="-260.6,24.6 242.1,37.6 738.7,37.6 				"/>
				<polyline class="st11" points="-256,172.7 -256,191.5 235.3,154.5 761.8,154.1 				"/>
				<polyline class="st11" points="-252.8,352.7 249.9,278.6 793.4,278.6 				"/>
				<polyline class="st11" points="393.4,-336 393.4,397.4 -16.5,569 				"/>
				<polyline class="st11" points="580.7,-336 573.3,403.2 321.2,594 				"/>
				<line class="st11" x1="98.8" y1="-126.4" x2="109.1" y2="432.2"/>
			</g>
			<path class="st12" d="M214.4,431.5c14.7-8.2,60.9-11.4,80.1-11.4s54.5,1.8,56,5.7s-12.1,7.2-10.8,10.2s40.5-0.6,44.2,8.2
				s-28.7,14.5-37.4,14.9s4.1,9.6,0.3,13.7s-28.7,1.6-37.2,3.9s-30,7.1-39,2.9s-22-6.5-41.6-3.7s-67.4-1-68.7-6.5
				s15.2-5.7,12.1-10.4s-37.2-2.5-35.4-9.2S203.1,434,214.4,431.5z"/>
			<path class="st13" d="M346.4,459.1c8.8-0.4,41-6.1,37.4-14.9s-42.9-5.1-44.2-8.2s12.4-6.3,10.9-10.2c-0.6-1.5-6.4-2.7-14.4-3.6
				c2.4,0.6,3.7,2.6,3,4.5c0,0.1-0.1,0.2-0.1,0.3c-1.1,2.7-5.7,3.6-8,5.9c-1.6,2-0.8,4.7,1.8,6c0.3,0.2,0.7,0.3,1.1,0.4
				c10.3,3.6,39.3,1.5,33.3,8.2c-9.8,5.9-23.5,4.1-34.4,9.1c-0.6,0.8-0.6,1.9,0,2.7c2.3,3.2,7.5,6.4,5.2,10
				c-1.1,1.8-5.2,2.3-7.5,2.3c-12.6,0.9-21.1-1.4-39.1,4.4c-5.3,1.5-10.9,1.7-16.4,0.8c-3.3-1.5-6.6-2.8-10.1-3.8
				c-11-5.1-49.9,3.7-86.4-2.1c-7.8-2-6.3-4.2-5.2-6c2.3-2.7,8.6-5.4,5.7-7.7c-11.4-7.7-29.5,0.3-42.1-7.1
				c-1.4,6.6,32.3,4.4,35.4,9.1s-13.4,4.9-12.1,10.4s49.1,9.4,68.7,6.5s32.5-0.6,41.6,3.7s30.5-0.6,39-2.9s33.3,0.2,37.2-3.9
				S337.6,459.5,346.4,459.1z"/>
			<path class="st14" d="M280.7,481.5c-3.6,0.2-7.1-0.4-10.4-1.8c-7.9-3.5-16.4-5.2-25-4.9c-5.5,0-10.9,0.5-16.3,1.3
				c-5.8,0.7-11.6,1.1-17.4,1c-20.4,0-50.6-3-51.7-7.8c-0.7-3,3.4-4.5,7-5.9c2.5-0.9,4.9-1.8,5.4-3c0.2-0.5,0.1-1.1-0.2-1.5
				c-1.3-1.9-8.9-2.7-16.3-3.4c-8.1-0.8-16.4-1.6-18.6-4c-0.5-0.5-0.7-1.3-0.5-2c1.3-5,33.5-10.8,63.5-15.9c6.5-1.1,11.6-2,14.2-2.5
				c14.5-8,60.1-11.5,80.2-11.5c14.4,0,54.6,1.4,56.4,5.9c0.9,2.3-2.6,4.2-6,6c-2.6,1.5-5.4,2.9-4.9,4.2c0.4,0.9,6.8,1.2,13,1.4
				c12.1,0.4,28.8,1,31.1,6.8c0.6,1.5,0.2,3.2-0.9,4.4c-5.8,6.7-30,10.6-36.9,10.9c-1.3,0.1-2.2,0.3-2.5,0.8c-0.8,1,0.4,3,1.6,5
				c1.6,2.7,3.4,5.7,1.5,7.8c-2.4,2.5-11.4,2.6-20.9,2.8c-5.5-0.1-11,0.3-16.4,1.3C300.2,479.6,290.5,481.1,280.7,481.5z
				 M245.3,474.3c8.7-0.3,17.4,1.4,25.4,5c3.2,1.3,6.6,1.8,10,1.7c9.7-0.4,19.3-2,28.7-4.5c5.5-0.9,11.1-1.3,16.6-1.2
				c8.9-0.2,18.2-0.3,20.3-2.6c1.6-1.7-0.1-4.6-1.6-7.1c-1.4-2.3-2.5-4.3-1.6-5.6c0.8-0.8,2-1.2,3.1-1.1c8.2-0.4,31-4.6,36.3-10.7
				c1-1,1.4-2.5,0.8-3.8c-2.2-5.3-18.4-5.9-30.4-6.4c-8.6-0.3-13.2-0.5-13.7-1.8c-0.7-1.7,2.1-3.2,5.1-4.9s6.4-3.5,5.7-5.4
				c-1.3-3.4-33.9-5.5-55.7-5.5c-20,0-65.5,3.4-79.8,11.4h-0.1c-2.6,0.5-7.8,1.4-14.3,2.5c-21.5,3.6-61.5,10.4-62.9,15.4
				c-0.2,0.5,0,1.1,0.4,1.5c2,2.2,10.2,3,18.1,3.8s15.4,1.5,16.9,3.7c0.4,0.6,0.5,1.3,0.3,1.9c-0.6,1.4-3.1,2.4-5.8,3.4
				c-3.5,1.3-7.2,2.7-6.6,5.2c0.9,3.9,28.8,7.3,51,7.3c5.8,0.1,11.5-0.3,17.3-1C234.3,474.7,239.8,474.3,245.3,474.3L245.3,474.3z"
				/>
			<path class="st12" d="M155.9,471.1c3.2,4.2-17.1,9.4-22.7,4.7S150.5,464,155.9,471.1z"/>
			<path class="st13" d="M155.9,471.1c-1-1.2-2.3-2-3.8-2.4c0.4,0.6,0.4,1.3,0.1,1.9c-4.6,4.2-12.2,5.3-18.4,2.7
				c-0.4-0.1-0.7-0.3-0.9-0.6c-0.8,0.7-0.8,2-0.1,2.7c0.1,0.1,0.2,0.2,0.4,0.3C138.9,480.5,159.1,475.3,155.9,471.1z"/>
			<path class="st14" d="M140.6,478c-2.7,0.2-5.4-0.5-7.7-2c-1-0.6-1.3-1.9-0.7-2.9c1.5-2.8,8.9-5.4,15.2-5.4
				c3.3-0.3,6.5,0.8,8.9,3.2c0.5,0.7,0.5,1.6,0,2.3C154.4,475.7,147,478,140.6,478z M147.4,468.4c-6.1,0-13.1,2.4-14.5,5
				c-0.4,0.8-0.2,1.7,0.6,2.2c2.1,1.3,4.6,1.9,7.1,1.8c5.4,0.3,10.7-1.3,15-4.5c0.4-0.5,0.4-1.2,0-1.6
				C153.4,469.2,150.4,468.1,147.4,468.4L147.4,468.4z"/>
			<path class="st12" d="M377.9,469.6c0.9,3.6,29.4,1.6,27.1-2.9S376.9,465.3,377.9,469.6z"/>
			<path class="st13" d="M405,466.7c-0.6-1.2-2.9-1.8-5.8-2.1c-3.3,6-19,5.4-20.9,4.4c-0.1-0.1-0.2,0-0.3,0c-0.1,0.2-0.1,0.4,0,0.6
				C378.8,473.2,407.3,471.2,405,466.7z"/>
			<path class="st14" d="M386.8,471.8L386.8,471.8c-3.3,0-8.8-0.3-9.3-2.1c-0.1-0.6,0.1-1.2,0.6-1.6c2.4-2.3,11.3-3.9,18-3.9
				c3,0,8.1,0.3,9.2,2.4c0.3,0.5,0.2,1.2-0.2,1.6C403.3,470.4,394.1,471.8,386.8,471.8z M396.1,464.8c-7.3,0-15.4,1.7-17.4,3.6
				c-0.3,0.2-0.5,0.7-0.5,1.1c0.2,1,3.6,1.6,8.5,1.6c7.2,0,16-1.3,17.7-3.3c0.3-0.3,0.3-0.7,0.2-1
				C404,465.6,400.9,464.9,396.1,464.8L396.1,464.8z"/>
			<ellipse class="st15" cx="111.9" cy="453.8" rx="31.8" ry="7.2"/>
			<path class="st12" d="M245.6,406.6c9-2.9,12.9,16.4,0,16.2c9.3,9.2-7,13-12.7,6.5c-1.5,4.2-6.9,6.6-12.2,5.4
				c-3.4-0.8-6.1-2.9-6.9-5.6c-1.2,3.8-6.1,6.1-10.9,5.1c-4.3-0.9-7.2-4.1-6.7-7.6c-9.6,10.4-38,3-9.6-6c-8.5-3.8-3.6-15.3,9.3-10.6
				c-10.9-11.6,8.4-17.2,18.1-9.4c2.5-6.7,10-4.7,11.3-0.4C227.7,392.1,246.1,396.2,245.6,406.6z"/>
			<path class="st13" d="M249.1,406.6c2.6,3.9,4.8,8.7-0.6,11.4c-3.5,1.1-7.3,1.2-10.9,0.5c2.9,2.3,5.2,5.9,2.9,7.7
				c-4,3.6-8-2.3-10.9-5.5c1.1,3.6-1.1,8.2-6.9,7.3s-5.2-5.4-6.9-8.6c-1.7,1.8-2.3,5-4.6,5.5c-2.6,1-5.7,0.2-7-1.9
				c-0.5-0.8-0.7-1.7-0.4-2.6c-2.9,3.2-8.6,6.4-13.2,4.5c-5.2-1.8,1.1-6.4,4.6-6.8c-3.4-1.4-8.6,0-9.8-3.6c-0.7-1.1-0.9-2.5-0.7-3.8
				c-2.5,1.8-3,5.2-1.3,7.6c0.4,0.5,0.9,1,1.4,1.4c0.6,0.4,1.2,0.7,1.8,1c-28.4,9,0,16.4,9.6,6c-0.5,3.9,3.1,7.4,8,7.8
				c4.4,0.4,8.5-1.9,9.6-5.3c1.3,4.2,6.7,6.7,12,5.7c3.5-0.7,6.2-2.8,7.1-5.5c5.7,6.5,21.9,2.7,12.7-6.5
				C256.6,423,255.4,408.9,249.1,406.6z"/>
			<path class="st16" d="M223.6,435.3c-4.4,0.1-8.3-2-9.8-5.3c-1.5,2.8-4.9,4.6-8.8,4.6l0,0c-5,0.1-9-3.1-9.1-7c0-0.1,0-0.1,0-0.2
				c-3.7,3-8.4,4.6-13.2,4.5c-4.7,0-8.1-1.4-8.6-3.3c-0.4-1.5,0.7-4.5,11.8-8.1c-3-1.6-4.4-4.5-3.5-7.3s4.2-4.8,7.9-4.6
				c1.6,0,3.2,0.3,4.7,0.7c-3.6-3-3.6-7.7,0.2-10.6c2.3-1.7,5.2-2.4,8.1-2c3.9,0,7.6,1.1,10.8,3.4c0.9-2.4,3.2-4.1,5.8-4.1
				c2.3,0,4.5,1.2,5.7,3.3c1.2-2.3,4.1-3.8,7.3-3.6c3.5,0,6.9,1.2,9.6,3.4c2.2,1.7,3.6,4.3,3.6,7.2c0.5-0.1,0.9-0.2,1.4-0.2
				c4.3,0,6.9,4.6,6.9,8.9c0,3.7-2.1,8-7.9,8.2c2.1,1.6,2.9,4.3,1.9,6.8c-1.8,2.1-4.4,3.2-7.2,3l0,0c-2.9,0.1-5.8-0.9-8-2.9
				C231.7,433.2,227.8,435.4,223.6,435.3L223.6,435.3z M213.9,427.9l0.3,1.1c1,3.4,4.9,5.8,9.4,5.7l0,0c4.3,0.1,8-2.2,9-5.5l0.2-0.7
				l0.5,0.6c2,2.1,4.9,3.2,7.8,3.1l0,0c2.5,0.2,4.9-0.8,6.5-2.7c0.9-2.5-0.1-5.2-2.3-6.6l-0.5-0.5h1.1c5.7,0,7.7-3.9,7.7-7.6
				c0-4-2.5-8.2-6.1-8.2c-0.6,0-1.1,0.1-1.6,0.3l-0.6,0.2v-0.5c0.1-2.8-1.2-5.5-3.4-7.1c-2.6-2-5.8-3.2-9.1-3.2
				c-3.3-0.2-6.2,1.5-6.9,4.1l-0.4,1.3l-0.4-1.3c-0.5-2-2.7-3.6-5.3-3.7c-2.3,0-4.2,1.5-5.2,4.1l-0.2,0.5l-0.5-0.4
				c-3.1-2.3-6.8-3.6-10.7-3.5c-3.5-0.3-6.9,1.1-9.3,3.7c-1.4,3.1-0.4,6.5,2.4,8.8l0.9,1l-1.4-0.5c-1.8-0.7-3.7-1.1-5.6-1.1
				c-3.4-0.1-6.3,1.6-7.2,4.2c-0.9,2.7,0.7,5.6,3.8,6.9l0.7,0.3l-0.8,0.2c-11.6,3.7-12.3,6.5-12,7.6c0.4,1.7,3.6,2.8,7.8,2.8
				c4.9,0.2,9.7-1.6,13.3-5l0.8-0.9l-0.1,1.1c-0.2,2,0.6,4.1,2.2,5.4c1.8,1.4,3.9,2.1,6.1,2.1l0,0c3.9,0,7.4-2.1,8.5-5.1
				L213.9,427.9z"/>
			<path class="st17" d="M186,310.5c-3.8-4.1-34.8-6.4-74.2-6.4c-42,0-74.2,3.2-74.2,7.7l0,0c0,5.2,1.6,9.7,6.4,12.8l0,0
				c1.4,2.8,2.2,5.9,2.6,9c0.2,3.6,0.9,10.5,1.3,14.1c1,8.5,1.8,14.5,2.6,23c1.5,16.8,1.3,31.8,2.6,48.6
				c0.9,11.8,2.3,23.3,13.2,29.9c7.1,4.2,14.3,4.3,22.6,4.8c2,0.2,5.9-0.2,7.7,0c7.8,1,35.8,0,43.5,0l0,0c6.3-1,12.4-3.2,17.9-6.4
				c10.9-6.5,11.9-16.4,12.8-28.1c1.3-16.8,2.4-33.1,3.8-49.9c0.7-8.5,1.6-15.8,2.6-24.3c0.4-3.6,1-9.2,1.3-12.8
				c0.2-2.7,1.1-5.4,2.6-7.7c0.9-0.4,1.7-0.8,2.6-1.3c2.6-2.6,3.7-6.6,3.8-11.5C187.3,311.4,186.3,310.5,186,310.5z"/>
			<path class="st17" d="M185.1,310.5c0,0.7-1.2,1.3-3.4,2c-9.3,2.6-36.8,4.6-69.4,4.6c-31.7,0-58.6-1.8-68.6-4.4
				c-2.7-0.7-4.2-1.4-4.2-2.2c0-3.6,32.6-6.6,72.8-6.6S185.1,306.9,185.1,310.5z"/>
			<path class="st12" d="M181.8,312.5c-9.3,2.6-36.8,4.6-69.4,4.6c-31.7,0-58.6-1.8-68.6-4.4c9.3-2.7,36.9-4.6,69.4-4.6
				C144.8,308.1,171.8,309.9,181.8,312.5z"/>
			<path class="st18" d="M177,336.2c-1.1,7.9-1.8,15.9-2.5,23.9c-1.4,16.7-3.2,33.3-4.7,49.9c-1,10.5,0.1,23.3-7.2,31.9
				c-4.6,5.4-13.8,9.3-20.6,10.4c-4.3,0.6-8.7,0.9-13,0.9c-16.2,0.2-33.2,2-49.2-2.2c-4.1-1-8.1-2.6-11.8-4.6
				c-13.1-7.2-11.7-23.6-13-36.5c-1.6-16.6-3.4-33.3-4.7-49.9c-0.7-8-1.4-15.9-2.5-23.9c-0.5-3.4-0.6-7-2-10
				c5.4,2.4,11.5,3.2,17.4,3.9c17,2.1,34.2,3,51.4,2.8c16.5-0.1,33.1-1.1,49.3-4c3.9-0.7,7.8-1.6,11.7-2.6c1.3-0.3,2.6-0.6,4-1
				C177.5,328.3,177.5,332.4,177,336.2z"/>
			<path class="st17" d="M177,336.2c-1.1,7.9-1.8,15.9-2.5,23.9c-1.4,16.7-3.2,33.3-4.7,49.9c-1,10.5,0.1,23.3-7.2,31.9
				c-4.6,5.4-13.8,9.3-20.6,10.4c-4.3,0.6-8.7,0.9-13,0.9c-16.2,0.2-33.2,2-49.2-2.2c-4.1-1-8.1-2.6-11.8-4.6
				c-13.1-7.2-11.7-23.6-13-36.5c-1.6-16.6-3.4-33.3-4.7-49.9c-0.7-8-1.4-15.9-2.5-23.9c-0.5-3.4-0.6-7-2-10
				c5.4,2.4,11.5,3.2,17.4,3.9c17,2.1,34.2,3,51.4,2.8c16.5-0.1,33.1-1.1,49.3-4c3.9-0.7,7.8-1.6,11.7-2.6c1.3-0.3,2.6-0.6,4-1
				C177.5,328.3,177.5,332.4,177,336.2z"/>
			<path class="st18" d="M89.5,441.5c-1.5-13.9-2.2-27.9-2.1-41.9c0-14.7,0.3-29.3,0-44c-0.2-7.3-0.4-14.7-0.5-22v-1.3
				c-4.1-0.2-8.2-0.5-12.2-0.9c0.8,22.6,1.2,45.3,2.4,67.9c0.9,17.4,2.6,34.7,4,52.1c3.3,0.8,6.6,1.3,10,1.7
				C90.4,449.2,89.9,445.3,89.5,441.5z"/>
			<path class="st19" d="M175.6,326.2c-3.9,1-7.8,1.9-11.7,2.6c-1.7,0.3-3.5,0.6-5.2,0.9c-0.7,20.7-2.7,41.3-3.9,62
				c-0.7,11.9-1.5,23.9-2.6,35.8c-0.3,3.6-0.7,7.2-1,10.8c-0.1,1.5-0.3,2.9-0.4,4.4s0.2,3.1-0.2,1c0.1,1,0,2.1-0.1,3.1
				c0,0.3-0.1,0.6-0.1,0.9c-0.3,1-0.7,1.9-1.3,2.7c5.2-1.9,10.5-4.9,13.6-8.5c7.3-8.6,6.2-21.4,7.2-31.9c1.6-16.6,3.4-33.3,4.7-49.9
				c0.6-8,1.4-15.9,2.5-23.9c0.5-3.8,0.6-7.9,2.6-11C178.2,325.6,176.9,325.9,175.6,326.2z"/>
			<path class="st18" d="M181.8,322.5c-2.7,1.3-5.9,1.8-8.7,2.5c-6.8,1.7-13.7,3.1-20.6,4c-14.3,1.9-28.6,2.1-43,1.9
				c-14.2-0.1-28.4-1-42.6-2.7c-6.7-0.8-13.6-1.7-19.8-4.4c-4.7-2-7.4-6.1-8.6-10.8c8.1,3.6,38.1,6.2,73.8,6.2
				c36.3,0,66.6-2.7,74.2-6.4C186.2,316.6,185.4,320.8,181.8,322.5z"/>
			<path class="st19" d="M181.8,322.5c-2.7,1.3-5.9,1.8-8.7,2.5c-6.8,1.7-13.7,3.1-20.6,4c-14.3,1.9-28.6,2.1-43,1.9
				c-14.2-0.1-28.4-1-42.6-2.7c-6.7-0.8-13.6-1.7-19.8-4.4c-4.7-2-7.4-6.1-8.6-10.8c8.1,3.6,38.1,6.2,73.8,6.2
				c36.3,0,66.6-2.7,74.2-6.4C186.2,316.6,185.4,320.8,181.8,322.5z"/>
			<path class="st17" d="M111.1,327.2c-13.2,0-34.6-1.5-47.7-3c-8.3-1-17.7-2.7-23.9-8.5c1.4,3.6,4.1,6.5,7.6,8
				c6.2,2.7,13.1,3.5,19.8,4.4c14.1,1.7,28.3,2.6,42.6,2.7c14.4,0.2,28.7,0,43-1.9c6.9-0.9,13.8-2.2,20.6-3.9
				c2.8-0.7,6.1-1.3,8.7-2.5c2.1-1.1,3.6-3.2,4.1-5.5C179.6,325.2,128.8,327.3,111.1,327.2z"/>
			<path class="st17" d="M48.3,339.8c1.3-4.5,0.3-7.7,5.3-7.8c13.9-0.4,25.3,3,39.2,3.5c7.4,0.3,27,1.1,34.4,0.4
				c10.4-0.9,23.6-3.4,30-4.4c11.8-1.8,17.9-7.8,17.4,10.5c-0.1,3.4,0.1,6.7,0.6,10.1c0.5-5.3,1.1-10.6,1.8-15.9
				c0.5-3.8,0.6-7.9,2.6-11c-1.3,0.4-2.7,0.7-4,1c-3.9,1-7.8,1.9-11.7,2.6c-16.3,3-32.8,3.9-49.3,4c-17.2,0.2-34.3-0.7-51.4-2.8
				c-5.8-0.7-12-1.5-17.4-3.9c1.5,3,1.6,6.6,2,10C48,337.4,48.1,338.6,48.3,339.8z"/>
			<path class="st20" d="M165.5,426c-1.4,3.4-3.4,6.6-6.1,9.1c-6,5.2-15.6,7.7-24.8,8.7c-16.7,1.9-48.9,2.7-64-5.2
				c-7.8-4.1-9.1-8.3-11.8-18.7c-1-4-2.2-9.2-4-12.8l0.3,2.8c1.2,12.9-0.2,29.2,12.9,36.5c3.7,2,7.6,3.6,11.7,4.6
				c15.9,4.1,32.9,2.4,49.2,2.2c4.3,0,8.7-0.3,13-0.9c6.8-1.1,16.1-5,20.6-10.4c7.1-8.4,6.3-20.8,7.1-31.1
				C169.4,413.6,169,416.9,165.5,426z"/>
			<path class="st21" d="M171.2,322.5l0.1-0.2c0.3-0.9,0.1-1.8-0.5-2.6c-0.3-0.5-0.8-0.9-1.3-1.1c-1.4-0.3-2.9,0-4,0.8
				c-1.2,0.8-2.3,2.3-2,3.8c0.1,0.5,0.4,1,0.7,1.4c0.4,0.6,0.9,1,1.6,1.1c-1.3,2.9-2.9,5.6-4.7,8.1c-2.5,3.7-4.8,7.5-7.3,11.2
				c-5.1,7.4-11,14.2-17.4,20.5C123,378.3,107,389.2,89.9,396c-11.9,4.7-26.7,8-39,2.8c-6.2-2.6-9.1-7.8-9.6-14.3
				c-0.4-4.8,0.6-9.7,1.7-14.4c1.2-4.9,2.6-10.1,5.2-14.4c0.5-0.8-0.5-1-0.9-0.4c-5.6,7-8.8,17.6-9.3,26.5c-0.5,7.3,1,14.2,7.4,18.5
				c11.6,8,28.7,4.3,40.9,0.2c19.5-6.5,37.3-19.1,52.1-33.1c7.4-7.1,13.9-15.1,19.6-23.6c3.6-5.4,8.6-11.8,10.6-18.4
				c1.2-0.5,2.1-1.5,2.6-2.6l0,0v0l0.1-0.1L171.2,322.5z"/>
			<path class="st22" d="M97.7,211.3l2.5-3c0,0-5.6-10.8-6.8-14.2s19.8-2.2,20.5-2.2s2.8,1.4,0.9,5.5c-1.4,5.5-2.4,11.4-2.4,11.4
				l1.8,1.3c0,0-6.9,4.2,0.2,12c-8,7.7-13.9,1.6-14.9,0.3S95.8,218.2,97.7,211.3z"/>
			<ellipse class="st23" cx="82.2" cy="216.7" rx="10" ry="14.5"/>
			<ellipse class="st24" cx="82.4" cy="217.4" rx="7.3" ry="10.7"/>
			<path class="st25" d="M83.8,211.2h13.8c0,0-2.4,6.3,1.6,11l-16.8-0.4C82.5,221.8,77.8,214.5,83.8,211.2z"/>
			<path class="st22" d="M114.2,210.3c0,0,13.7-3.7,13.6,12l-0.2,12.5c0,0-6.9,2.2-11.7,0l0.3-9.9c0,0-0.9-1.3-1.9-2.6
				C113,220.8,107.5,214.7,114.2,210.3z"/>
			<path class="st24" d="M93.6,194.6h22.5C117.6,188.7,90.6,188.9,93.6,194.6z"/>
			<path class="st23" d="M116.2,194.7c0,0,0.4-2.6-3.6-3.4l-9.3,3.4H116.2z"/>
			<path class="st25" d="M115.8,234.8c0,0,3.3,2.4,11.7,0c-0.1,0.8-0.1,1.5,0,2.3c0,0-8.5,2.8-11.7,0V234.8z"/>
			<path class="st26" d="M116.1,224.8c0,0,6,9.4,11.5,9.9c-4.7,1-7.6,1.8-11.7,0L116.1,224.8z"/>
			<path class="st27" d="M93.6,194.6c0,0,2.8,10.4,5.7,12.1c2.1,1.3,10-0.1,10-0.1s-10.2-7.3-12.3-12L93.6,194.6z"/>
			<polygon class="st28" points="116.1,194.7 112.9,206.7 109.2,206.6 113.5,194.7 			"/>
			<path class="st26" d="M99.3,209.3c0,0-5.3,3.9-1,11.6c3.4,6.9,12,6.3,15.8,1.4c0,0-10.1,1.8-10.9-12.9H99.3z"/>
			<path class="st23" d="M99.2,209.4h13.6c0,0-0.4-0.5,0-2.6c0.1-0.3-13.6,0-13.6,0l0.9,1.6L99.2,209.4z"/>
			<path class="st22" d="M59.9,214l2.8-3.2c0,0-6.4-11.6-7.7-15.3s22.4-2.3,23.1-2.4s3.2,1.5,1,5.9c-1.5,5.9-2.7,12.3-2.7,12.3
				l2,1.4c0,0-7.8,4.5,0.2,12.8c-9,8.2-15.7,1.7-16.8,0.3S57.7,221.3,59.9,214z"/>
			<ellipse class="st23" cx="42.3" cy="219.8" rx="11.3" ry="15.6"/>
			<ellipse class="st24" cx="42.6" cy="220.4" rx="8.3" ry="11.5"/>
			<path class="st25" d="M44.2,213.8h15.6c0,0-2.7,6.7,1.8,11.9l-18.9-0.4C42.8,225.3,37.4,217.4,44.2,213.8z"/>
			<path class="st22" d="M78.5,212.8c0,0,15.5-4,15.3,12.8l-0.2,13.4c0,0-7.8,2.4-13.3,0l0.3-10.7c0,0-1-1.4-2.1-2.8
				C77.2,224.1,71,217.6,78.5,212.8z"/>
			<path class="st24" d="M55.2,196h25.1C81.9,189.6,51.8,189.8,55.2,196z"/>
			<path class="st23" d="M80.7,196.1c0,0,0.5-2.8-4.1-3.7l-10.5,3.7H80.7z"/>
			<path class="st25" d="M80.3,239.1c0,0,3.7,2.6,13.3,0c-0.2,0.8-0.2,1.7,0,2.5c0,0-9.6,3-13.3,0V239.1z"/>
			<path class="st26" d="M80.6,228.4c0,0,6.7,10.1,13,10.7c-5.3,1.1-8.5,1.9-13.3,0L80.6,228.4z"/>
			<path class="st27" d="M55.2,196c0,0,3.3,11.2,6.4,13.1c2.4,1.4,11.2-0.3,11.2-0.3S61.5,201,59.1,196C55.3,196,55.2,196,55.2,196z
				"/>
			<polygon class="st28" points="80.7,196.1 77,209 72.8,208.8 77.7,196.1 			"/>
			<path class="st26" d="M61.7,211.8c0,0-6,4.1-1.1,12.4c3.9,7.4,13.6,6.8,17.9,1.5c0,0-11.4,1.9-12.3-13.9L61.7,211.8z"/>
			<path class="st23" d="M61.7,211.8H77c0,0-0.5-0.5,0-2.8c0.1-0.3-15.3,0-15.3,0l1,1.7L61.7,211.8z"/>
			<path class="st28" d="M80.8,212.4c0,0,7.2-11.1,12.8-1.2c-0.1,4.9,0.3,7.5,1.5,8.9l-1.6,1.3C93.4,221.4,92.6,211.5,80.8,212.4z"
				/>
			<path class="st23" d="M77.5,208.3l6.9,0.5c0,0,3-3.8,7.2,0l0.2-5.9l-12.7-0.2L77.5,208.3z"/>
			<path class="st26" d="M88.4,202.3l-3.6,3.9l-2.6,0.4l-1.2-1.1c0,0-0.6-2.4,0.5-3.8"/>
			<polyline class="st29" points="289.3,317.7 342.9,327.4 341.8,374.4 288.1,365.6 			"/>
			<ellipse class="st30" cx="288.6" cy="341.6" rx="11.1" ry="24"/>
			<polyline class="st31" points="289.3,317.7 289.3,317.7 342.9,327.4 341.8,374.4 288,365.6 288,365.5 			"/>
			<ellipse class="st31" cx="288.6" cy="341.6" rx="11.1" ry="24"/>
			<path class="st32" d="M428,347.9l-66.4-13.3l-30.4-5.9l1.7-4.1l-0.8-17c-1.2-6.3-2.4-12.6-3.6-18.9l-9.4-17.2
				c-0.2-0.6-0.6-1.5-1-2.6c0,0-0.9-2.5-1.7-4.7c-3.1-8.3-7.3-20.4-12-36.5l-3.1-8.1l-8.3-21.7c0,0-10.8-33-17.7-81.8l21,0.6
				l-0.4,0.9c0,0,21,34.4,28.3,61.5l10.7,28.3l2,5.2c0,0,13.6,18.1,19.7,5.4l49.2-1.4c0,0-3.8,8.9,3,11.2s19.8-6.3,24.8,4.7
				c6.3,13.9-5.2,49.5-8,75.3C424.5,321.2,425.2,334.7,428,347.9z"/>
			<path class="st31" d="M428,348.3l-66.4-13.3l-30.4-5.9l1.8-4.2l-0.8-17c-1.2-6.3-2.4-12.6-3.6-18.9l-9.5-17.1l-1-2.6
				c0,0-0.9-2.5-1.7-4.7c-3.1-8.3-7.3-20.4-12-36.5l-3.1-8.1l-8.3-21.7c0,0-10.8-33-17.7-81.8l21,0.6l-0.4,0.9
				c0,0,21.1,34.4,28.4,61.5l10.7,28.3l2,5.2c0,0,13.6,18.2,19.7,5.5l49.2-1.5c0,0-3.8,8.9,3,11.2s19.8-6.3,24.8,4.7
				c6.3,14-5.2,49.5-8,75.3C424.5,321.6,425.2,335.1,428,348.3z"/>
			<path class="st32" d="M277.6,123.4c-12-5.5-14.9-18.3-14.9-18.3c-19.3-9.4-20-13-19.3-16s4.2-1.6,4.2-1.6l16.5,7.9
				c0,0-13.6-17.3-14.7-25.7s3.9-6.7,9.3,0.7s10.5,14.1,10.5,14.1s2.1,0.4,1.2-2.8s-7.7-24.5-7.7-24.5s-1.7-4,2-5.7s7.4,4,16.7,27.7
				c0,0,1.5-2.4,0.6-17.3c0,0-0.5-11.5,5.5-13.6c0,0,4.1,0.8,5.4,29.3c0,0,1.3,13.8,4.8,17.2c0,0,0.4,1.3,4.1-3.3s9.5-7.7,14.6-3.3
				c0,0,2.9,1.6-2.4,4.9s-6.9,6.8-9.6,13.4s-2.6,6.5-7.8,12.4"/>
			<path class="st31" d="M277.6,123.4c-12-5.5-14.9-18.3-14.9-18.3c-19.3-9.4-20-13-19.3-16s4.2-1.6,4.2-1.6l16.5,7.9
				c0,0-13.6-17.3-14.7-25.7s3.9-6.7,9.3,0.7s10.5,14.1,10.5,14.1s2.1,0.4,1.2-2.8s-7.7-24.5-7.7-24.5s-1.7-4,2-5.7s7.4,4,16.7,27.7
				c0,0,1.5-2.4,0.6-17.3c0,0-0.5-11.5,5.5-13.6c0,0,4.1,0.8,5.4,29.3c0,0,1.3,13.8,4.8,17.2c0,0,0.4,1.3,4.1-3.3s9.5-7.7,14.6-3.3
				c0,0,2.9,1.6-2.4,4.9s-6.9,6.8-9.6,13.4s-2.6,6.5-7.8,12.4"/>
			<path class="st32" d="M290.5,77.4c0,0-25.8,2.9-27.9,20.8"/>
			<path class="st31" d="M290.5,77.4c0,0-25.8,2.9-27.9,20.8"/>
			<path class="st32" d="M298.4,95.1c0,0-10.2,2.8-13.3,11.3"/>
			<path class="st31" d="M298.4,95.1c0,0-10.2,2.8-13.3,11.3"/>
			<g class="st33">
				<ellipse cx="373.8" cy="427.7" rx="104.5" ry="13.4"/>
			</g>
			<path class="st34" d="M313.4,378.7h15.9c3.5,0,6.3,2.8,6.3,6.3v31.2c0,3.5-2.8,6.3-6.3,6.3h-15.9c-3.5,0-6.3-2.8-6.3-6.3V385
				C307.1,381.5,309.9,378.7,313.4,378.7z"/>
			<path class="st35" d="M313.4,378.7h15.9c3.5,0,6.3,2.8,6.3,6.3v31.2c0,3.5-2.8,6.3-6.3,6.3h-15.9c-3.5,0-6.3-2.8-6.3-6.3V385
				C307.1,381.5,309.9,378.7,313.4,378.7z"/>
			<path class="st36" d="M296.2,396.5h15.9c3.5,0,6.3,2.8,6.3,6.3v25.4c0,3.5-2.8,6.3-6.3,6.3h-15.9c-3.5,0-6.3-2.8-6.3-6.3v-25.4
				C290,399.3,292.8,396.5,296.2,396.5z"/>
			<path class="st35" d="M296.2,396.5h15.9c3.5,0,6.3,2.8,6.3,6.3v25.4c0,3.5-2.8,6.3-6.3,6.3h-15.9c-3.5,0-6.3-2.8-6.3-6.3v-25.4
				C290,399.3,292.8,396.5,296.2,396.5z"/>
			<path class="st34" d="M443,378.7h15.9c3.5,0,6.3,2.8,6.3,6.3v31.2c0,3.5-2.8,6.3-6.3,6.3H443c-3.5,0-6.3-2.8-6.3-6.3V385
				C436.7,381.5,439.5,378.7,443,378.7z"/>
			<path class="st35" d="M443,378.7h15.9c3.5,0,6.3,2.8,6.3,6.3v31.2c0,3.5-2.8,6.3-6.3,6.3H443c-3.5,0-6.3-2.8-6.3-6.3V385
				C436.7,381.5,439.5,378.7,443,378.7z"/>
			<path class="st36" d="M427.1,396.5h15.9c3.5,0,6.3,2.8,6.3,6.3v25.4c0,3.5-2.8,6.3-6.3,6.3h-15.9c-3.5,0-6.3-2.8-6.3-6.3v-25.4
				C420.8,399.3,423.6,396.5,427.1,396.5z"/>
			<path class="st35" d="M427.1,396.5h15.9c3.5,0,6.3,2.8,6.3,6.3v25.4c0,3.5-2.8,6.3-6.3,6.3h-15.9c-3.5,0-6.3-2.8-6.3-6.3v-25.4
				C420.8,399.3,423.6,396.5,427.1,396.5z"/>
			<path class="st36" d="M478.3,392.4c0,7.4-46.8,13.4-104.6,13.4s-104.5-6-104.5-13.4v-9.3c0-7.4,46.8-13.4,104.5-13.4
				c57,0,103.3,5.9,104.5,13.1v9.3C478.3,392.2,478.3,392.3,478.3,392.4z"/>
			<ellipse class="st37" cx="373.8" cy="383.1" rx="104.5" ry="13.4"/>
			<path class="st35" d="M478.3,392.4c0,7.4-46.8,13.4-104.6,13.4s-104.5-6-104.5-13.4v-9.3c0-7.4,46.8-13.4,104.5-13.4
				c57,0,103.3,5.9,104.5,13.1v9.3C478.3,392.2,478.3,392.3,478.3,392.4z"/>
			<ellipse class="st35" cx="373.8" cy="383.1" rx="104.5" ry="13.4"/>
			
				<ellipse transform="matrix(2.443220e-02 -0.9997 0.9997 2.443220e-02 -32.0771 734.1239)" class="st15" cx="360.1" cy="383.5" rx="10" ry="74.3"/>
			<path class="st32" d="M327.1,348.4l-2.1,7.4c-2.7,9.3-12.5,14.6-21.8,11.8l-19.5-5.8c0,9.6-6.8,35.9-7.9,41
				c-1.6,4.5-0.9,9.5,1.9,13.4c3.3,6.4,1.9,11.4-3.2,12.3s-10.7,1.1-12.9,6.5c-2.3,5-8.6,7.7-14.6,6c-4.1,6.3-14.8,5.4-13-0.2
				c-3,1.8-7.6,0.6-5.6-2.3c-4.5,1.5-4.3-2-3.1-3.6c-5.1-0.3-4.5-3.2-2.4-4.8c-2.6-1.4,4.4-6.1,10.4-5.3c2.8-1,17.6-9.1,19.3-17.5
				c1.6-7.8-1-33.7-2.8-57c-0.1-1.7-0.2-3.4-0.4-5c-1.7-4-2.5-8.4-2.5-12.7c0-5.8,1.6-11.4,4.4-16.4l0.5-0.4
				c4.5-3.7,10.5-4.9,16.1-3.3l15.5,4.6l1.5,0.4l30.4,9C324.6,329.4,329.9,339.1,327.1,348.4z"/>
			<path class="st38" d="M277.3,414.8c2.1,1.6,3.4,3.9,3.7,6.5c0,0.8,0.3,3.6-1.5,5.3c-1.1,1-2,0.7-5.1,2c0,0-1.1,0.6-3.1,1.6
				c-5.5,2.7-10.4,9.6-17.6,11.1c-2.2,0.4-4.5,0.4-6.7-0.1c-0.6,1-1.4,1.8-2.4,2.5c-3.6,2.5-9.5,2-10.6-0.4c-0.3-0.7-0.3-1.5,0-2.3
				c-3,1.8-7.6,0.6-5.6-2.3c-4.5,1.5-4.3-2-3.1-3.6c-5.1-0.3-4.5-3.2-2.4-4.9c-1.3-0.7-0.3-2.2,1.8-3.4c-0.8,0.8,1.7,1.7,2.7,1.7
				c-1.9,0.4-4,3.1,0.7,4.3c-0.6,0.8-0.4,2,0.4,2.6c0,0,0.1,0.1,0.1,0.1c1.2,0.5,2.5,0.5,3.7,0.1c-1.2,0.6-1.6,2.4-0.8,3
				c1.2,1.2,3.4,1,5.9,0c-1.9,1.3-1.2,2.5-0.6,3.1c1.7,1,3.8,0.8,5.4-0.4c2.1-2.1,2.7-1.8,4.8-3.9c3.5-0.5,8.7-0.7,9.5-4
				c2.4-7.2,10.4-7,15.1-11.2c2.6-1.5,0.7-7.5-0.4-10.4c-1.3-4.7-1.2-9.6,0.1-14.3c6.3-15.2,5.4-27.7,1.2-46
				c2.8-1.6,5.4-3.6,7.7-5.9c0,0.3,0,0.7,0,1c0.2,3.2,1.7,6.3,3.2,13.1s-6.5,37.6-7.7,43.2c-0.5,1.2-0.7,2.5-0.8,3.8
				C274.9,409.6,275.7,412.4,277.3,414.8z"/>
			<path class="st38" d="M308.1,368.3c-1.7,0-3.4-0.2-5-0.7l-19.5-5.8c0,1.7-0.2,3.4-0.4,5l-3-1.5v-19.8c0,0,10.9,11.8,22.2,16
				C308.2,363.6,308.8,366.2,308.1,368.3z"/>
			<path class="st31" d="M315.3,326.7l-30.4-9l-1.5-0.4l-15.5-4.6c-5.6-1.7-11.6-0.4-16.1,3.3c-0.2,0.1-0.3,0.2-0.5,0.4
				c-5.1,8.9-5.8,19.7-1.9,29.2c0.1,1.6,0.3,3.3,0.4,5c1.7,23.3,4.3,49.2,2.8,57c-1.7,8.4-16.5,16.5-19.3,17.5c-3-0.3-6,0.4-8.5,1.9
				l0,0c-0.9,0.5-1.7,1.1-2.2,2c-0.1,0.1-0.1,0.2-0.1,0.3c-0.1,0.3,0,0.7,0.3,1c0.1,0.1,0.2,0.1,0.3,0.2l0,0
				c-0.1,0.1-0.2,0.2-0.3,0.3c-0.1,0.1-0.2,0.2-0.3,0.3c-0.9,1-1.3,2.2-0.4,3.1c0.3,0.3,0.6,0.5,0.9,0.6c0.8,0.3,1.7,0.5,2.5,0.5
				c-0.8,1-1.2,2.9-0.1,3.7c0.2,0.1,0.5,0.2,0.8,0.3c0.8,0.1,1.6,0,2.4-0.3c-0.7,1-0.6,1.9,0,2.4c0.1,0.1,0.2,0.2,0.4,0.3
				c1.7,0.7,3.7,0.6,5.2-0.4c-0.1,0.2-0.1,0.4-0.2,0.6c0,0.3,0,0.7,0,1c0,0.1,0,0.2,0.1,0.4c0,0.1,0.1,0.2,0.1,0.3l0,0
				c1.1,2.3,6.3,2.8,10,0.8c0.1-0.1,0.3-0.1,0.4-0.2l0.8-0.5c0.2-0.2,0.5-0.4,0.7-0.6s0.4-0.5,0.6-0.7s0.4-0.5,0.6-0.8l0,0
				c0.2,0,0.3,0.1,0.5,0.1c0.5,0.1,1,0.2,1.5,0.2c1.2,0.2,2.4,0.2,3.5,0c0.2,0,0.3,0,0.5-0.1h0.2c0.2,0,0.3-0.1,0.4-0.1
				c0.1,0,0.3-0.1,0.4-0.1c0.3-0.1,0.6-0.2,0.9-0.3c6.5-2,11.2-8.1,16.3-10.7c2.1-1,3.1-1.6,3.1-1.6c0.7-0.3,1.5-0.6,2.2-0.8
				c1.4-0.4,2.1-0.5,2.9-1.2c1.8-1.6,1.6-4.5,1.5-5.3c-0.3-2.6-1.6-4.9-3.7-6.5c-1.2-1.8-2-4-2.3-6.2c0,0.8,0.2,1.7,0.4,2.5
				c-0.2-0.8-0.3-1.6-0.4-2.5c0-0.2,0-0.4,0-0.6v-0.1c0-0.2,0-0.3,0-0.5v-0.2c0-0.3,0-0.5,0-0.7c0-0.2,0-0.3,0-0.5
				c0-0.3,0-0.6,0.1-0.9c0.1-0.4,0.2-0.8,0.3-1.2c0.1-0.4,0.2-0.8,0.4-1.2c0.1-0.6,0.4-1.6,0.7-2.9c0.2-0.9,0.5-2,0.8-3.1l0,0
				c0.1-0.4,0.2-0.8,0.3-1.2c0.3-1.3,0.6-2.6,1-4s0.7-2.9,1-4.5c0.6-2.6,1.2-5.2,1.7-7.9c0.1-0.5,0.2-1.1,0.3-1.6
				c0.2-1,0.4-2.1,0.6-3.1c0.9-4.2,1.4-8.5,1.6-12.8l0,0l19.5,5.8c0.8,0.2,1.7,0.4,2.5,0.5c0.8,0.1,1.6,0.2,2.4,0.2
				c7.8,0,14.7-5.1,16.9-12.6l2.2-7.3C329.9,339.2,324.6,329.5,315.3,326.7z"/>
			<path class="st39" d="M283.5,361.9c0.9-9.6-1-19.2-5.4-27.7c4.5,8.5,6.4,18.2,5.6,27.8L283.5,361.9z"/>
			<path class="st39" d="M233.9,440.9c0.9-1,2-1.9,3.1-2.7c1.1-0.8,2.4-1.4,3.7-1.8c-1.3,0.4-2.5,1.1-3.6,1.9
				c-1.1,0.8-2.1,1.8-3,2.8L233.9,440.9z"/>
			<path class="st39" d="M228.3,438.6c1.2-1.2,2.6-2.3,4.1-3.2c1.5-0.9,3.1-1.5,4.9-1.6c-1.7,0.2-3.3,0.8-4.8,1.7
				c-1.5,0.9-2.8,2-3.9,3.2L228.3,438.6z"/>
			<path class="st39" d="M225.2,435c1.1-1,2.4-1.9,3.8-2.5c0.7-0.3,1.4-0.6,2.1-0.7c0.7-0.2,1.5-0.3,2.2-0.3c-0.7,0-1.5,0.1-2.2,0.3
				c-0.7,0.2-1.4,0.5-2.1,0.8c-1.3,0.7-2.6,1.5-3.6,2.6L225.2,435z"/>
			<path class="st39" d="M222.7,430.2c1.3-0.7,2.6-1.2,4-1.6c1.4-0.4,2.9-0.4,4.3,0c-1.4-0.3-2.9-0.2-4.2,0.2
				c-1.4,0.4-2.7,0.9-3.9,1.7L222.7,430.2z"/>
			<path class="st40" d="M334.1,137.5c-4.1,10.7-0.1,37.9-1,49.3s12.2,39.7,44.8,38.1s52.8-19.3,58.9-45.7s7.2-57.4-9.6-67.5
				s-58.4-14.4-74.3-1.2C343.9,117.3,337.4,126.8,334.1,137.5z"/>
			<path class="st38" d="M427.1,111.7c-16.8-10.2-58.4-14.4-74.3-1.2c-8.9,6.8-15.5,16.2-18.8,26.9c-1.1,3.5-1.7,7.1-1.8,10.7
				c1.6,2.7,3.6,5.6,6.4,3.3c8.7-6.4,9.2-17.3,15.6-25.4c-1.2,8.1-4.6,18.5,2.3,24.8c0-8.1,4.6-15,8.1-22.5
				c-2.1,8.5-0.2,17.4,5.2,24.3c2.3-10.6,7.5-20.5,15-28.3c-2.4,6.4-1.8,13.6,1.6,19.6c2.9-9.3,5.3-17.8,13.4-24.8
				c-1.7,8.7-2.3,17.3-4,26c9.8-6.4,19.6-14.4,22.5-26c5.8,16.2,4.6,34.1,2.9,50.9c2.9-1.1,4-4,6.4-6.4c7.5,26.6-14,50.2-38.9,55.4
				c-23.7,5.3-47.5-0.3-55.8-30.1c2.9,22,22.6,37.9,44.8,36c32.5-1.6,52.8-19.3,58.9-45.7S443.9,121.9,427.1,111.7z"/>
			<path class="st39" d="M395.9,194.9h-0.2c-4.8,0.3-9.4-1.9-12.1-5.8l0,0c0.5,1.7,1.6,3.2,3.1,4.1c-19.8,9.8-32.7,0.7-32.8,0.6l0,0
				c4.3,3.2,9.5,4.9,14.8,4.7c6.5-0.1,13-1.8,18.8-4.9C390,195.1,393,195.5,395.9,194.9L395.9,194.9z"/>
			<path class="st39" d="M359.4,189.6c-2.6,0.1-5-1.3-6.3-3.5c-1.6-2.2-1.4-5.2,0.3-7.4c2.2-2,4.3-0.8,6.3,0.4
				c1.1,0.8,2.4,1.3,3.7,1.5l0,0c-1.4,0.3-2.9,0-4.1-0.8c-1.9-1.1-3.6-2.1-5.4-0.5c-1.5,1.9-1.5,4.5-0.1,6.4c1.9,3,5.8,4.1,9,2.5
				l0,0C361.8,189,360.6,189.5,359.4,189.6z"/>
			<path class="st39" d="M371.1,208.8c-2.1,0.2-4.2-0.6-5.7-2.1l0,0c4.2,1.9,9,1.9,13.2,0l0,0C376.2,208,373.7,208.7,371.1,208.8z"
				/>
			<path class="st41" d="M332.2,163.6c0,0-17.7-19.9-11.1-54.4s48-53.5,75.5-46.6s61.7,40.5,62.6,66.7c0.8,19.1-8.6,37.1-24.6,47.5
				c-0.2-9.8-3.8-15.5-2.1-26.3c-3.8,10.5-7.1,11.6-7.1,11.6s5.9-28.3-6.4-47.4c-5.5,10.1-12.4,19.3-20.5,27.3
				c3.2-8.9,4.2-18.4,2.9-27.7c0,0-13,13.5-15,24c-3.5-4.9,6-25.8,6-25.8s-20.3,17.6-23.2,35.9c-5.9-12.7,0.2-29.5,0.2-29.5
				s-13.8,16-14.3,26.5c-3.4-8.4,2.7-27.4,2.7-27.4c-12.4,16.1-17.8,31.2-20,32.3s-5.5-4-5.5-4C332,152.2,331.9,157.9,332.2,163.6z"
				/>
			<path class="st42" d="M459.3,129.3c-0.4-6.4-2.2-12.6-5.2-18.3c3.9,11.8,4.8,24.4-2.7,35.2c0.9-3.3,1.1-6.8,0.5-10.1
				c-1,8.1-7.6,13.7-13.8,18.8c3.1-10.4,3.1-21.5,0.1-32c0.1,5.6-4.1,11-5.9,16.4c3.5-13.3-6.4-24.3-11-35.3c-0.2-0.5-0.3-1-0.5-1.6
				c-0.9,8-8.6,13.5-14.6,19c4-5.8,3.5-13.3,3.5-20.2c-2.9,2.9-6.9,3.5-9.8,6.4c1.3-2.8,3.3-5.2,5.8-6.9c-9.3,2.2-18,6.6-25.4,12.7
				c3.2-6.3,7.7-11.8,13.1-16.2c-11,2.3-17.2,8.1-25.9,16.2c2-4.2,4.5-8.1,7.5-11.6c-14.5,5.2-30.6,15-35.8,30.6
				c-0.2-7.5,0.2-15.1,1.2-22.5c-7.4,10.1-12.3,21.8-14.4,34.1c-4.2-11.6-5.7-23.9-4.6-36.1c-0.1,0.5-0.2,0.9-0.3,1.4
				c-6.6,34.5,11.1,54.4,11.1,54.4c-0.2-5.7-0.2-11.4,0.2-17.1c0,0,3.3,5.1,5.5,4s7.6-16.3,20-32.3c0,0-6.1,19-2.7,27.4
				c0.4-10.5,14.3-26.5,14.3-26.5s-6,16.8-0.2,29.5c2.9-18.4,23.2-35.9,23.2-35.9s-9.6,20.9-6,25.8c2-10.5,15-24,15-24
				c1.2,9.3,0.2,18.8-3,27.7c8.1-8.1,15-17.3,20.5-27.3c12.3,19.1,6.4,47.4,6.4,47.4s3.3-1.2,7.1-11.6c-1.7,10.8,1.9,16.5,2.1,26.3
				C450.7,166.4,460.1,148.4,459.3,129.3z"/>
			<path d="M434.3,177.4v-0.6c-0.1-3.5-0.6-6.9-1.3-10.3c-1-4.3-1.4-8.6-1.1-13c-3.3,7.9-6.1,9-6.2,9l-0.6,0.2l0.1-0.7
				c0-0.3,5.5-27.8-6-46.5c-5.5,9.8-12.3,18.8-20.3,26.8l-1.2,1.2l0.5-1.6c3-8.6,4-17.7,3-26.7c-2.5,2.7-12.6,14.2-14.4,23.2
				l-0.2,0.9l-0.5-0.7c-3.1-4.2,3-19.3,5.2-24.4c-4.6,4.3-19.3,19.2-21.7,34.4l-0.2,1.3l-0.5-1.2c-3.2-9-3.3-18.8-0.4-27.8
				c-3.4,4.2-12.6,16.4-13,24.8l-0.1,1.8l-0.7-1.6c-2.8-6.9,0.6-20.4,2-25.6c-5.4,7.5-10.3,15.4-14.4,23.7c-2.4,4.5-3.5,6.5-4.4,7
				c-0.3,0.1-0.5,0.2-0.8,0.2c-1.7,0-3.5-2.1-4.5-3.4c-0.3,5.3-0.4,10.6-0.2,15.9l0.1,1.2l-0.8-0.9c-0.2-0.2-17.8-20.4-11.2-54.7
				c5.7-29.8,37.6-48.3,63.9-48.3c4.1,0,8.2,0.5,12.1,1.4c15.9,5,30.2,14,41.5,26.3c13.2,13.7,21,28.5,21.5,40.8
				c0.8,19.2-8.7,37.4-24.8,47.8L434.3,177.4z M432.2,150.3l0.8,0.2c-0.8,5.3-0.5,10.6,0.8,15.8c0.7,3.2,1.1,6.5,1.3,9.8
				c15.5-10.4,24.6-28.1,23.8-46.8c-0.5-12.1-8.2-26.8-21.3-40.3c-11.2-12.1-25.4-21.1-41.1-26c-3.9-1-7.9-1.4-12-1.4
				c-25.9,0-57.5,18.2-63.1,47.7c-4.2,18.3-0.5,37.6,10.2,53.1c-0.3-5.6,0.3-15.8,0.3-15.9l0.1-1.2l0.6,1c0.7,1.1,2.9,4,4.5,4
				c0.2,0,0.3,0,0.5-0.1c1.6-2,3-4.3,4-6.7c4.5-9,9.8-17.5,15.8-25.6l1.4-1.8l-0.7,2.1c0,0.2-5.3,16.6-3.2,25.4
				c1.8-10.4,13.7-24.3,14.2-24.9l1.4-1.6l-0.7,2c-0.1,0.2-5.6,15.7-0.7,28c3.6-17.8,22.9-34.7,23.1-34.9l1.4-1.2l-0.8,1.6
				c-0.1,0.2-8.4,18.5-6.5,24.4c2.6-10.3,14.3-22.6,14.9-23.1l0.5-0.5l0.1,0.7c1.2,8.8,0.3,17.8-2.4,26.3c7.7-7.7,14.1-16.4,19.2-26
				l0.3-0.7l0.4,0.6c11,17.1,7.5,41.8,6.7,46.8C429,158.4,431.1,154.6,432.2,150.3L432.2,150.3z"/>
			<path class="st32" d="M447.2,156.3c-8.9-2.1-13.4,10.4-14.2,16.8l1.6,11.8c4.6,0.8,9.3-0.6,12.6-3.8
				C452.5,175.6,456.1,158.4,447.2,156.3z"/>
			<path class="st43" d="M437.4,185.4c-0.9-0.1-1.9-0.2-2.8-0.5l0,0c4.5,0.6,9.1-0.9,12.4-4.1c4.4-5.4,6.1-12.5,4.8-19.3
				c-0.5-2.4-2.3-4.3-4.6-4.9c-2.2-0.5-4.5-0.1-6.3,1.2c-4.4,4-7.1,9.4-7.8,15.3l0,0c-0.1-3.9,1-7.7,3-11c1.1-1.9,2.6-3.6,4.4-4.9
				c2-1.4,4.5-1.9,6.9-1.3c2.6,0.7,4.6,2.8,5.2,5.4c1.3,7.1-0.5,14.4-5,20C444.9,184.1,441.2,185.6,437.4,185.4z"/>
			<path class="st39" d="M442.7,175.4c-3.3-1-4.1-4.1-3.2-7.6c0.9-3.3,3.1-6,5.7-4.9l0,0c-2.2-0.5-4.2,2.1-5,5.1
				C439.4,171.1,439.9,174.6,442.7,175.4L442.7,175.4z"/>
			<ellipse class="st44" cx="389.5" cy="164.4" rx="10.7" ry="13"/>
			<ellipse class="st45" cx="389.5" cy="164.1" rx="10.7" ry="13"/>
			<ellipse class="st46" cx="388.2" cy="168.8" rx="5.7" ry="7"/>
			
				<ellipse transform="matrix(0.4647 -0.8855 0.8855 0.4647 63.842 435.3512)" class="st44" cx="392" cy="164.9" rx="3.1" ry="2.5"/>
			<ellipse class="st44" cx="344.5" cy="164.6" rx="10.1" ry="12.3"/>
			<ellipse class="st45" cx="344.5" cy="164.3" rx="10.1" ry="12.3"/>
			<ellipse class="st46" cx="343.1" cy="168.5" rx="5.4" ry="6.6"/>
			<ellipse transform="matrix(0.4647 -0.8855 0.8855 0.4647 40.327 394.7023)" class="st44" cx="346.6" cy="164" rx="3" ry="2.4"/>
			<path class="st46" d="M382.5,146.7c0-0.5,0.3-0.9,0.7-1.1c6.9-3.6,15.2-2.7,21.1,2.2c0.2,0.2,0.3,0.6,0.1,0.8
				c-0.2,0.2-0.4,0.2-0.6,0.1c-6.5-2.9-13.8-3.4-20.6-1.5c-0.3,0.1-0.6-0.1-0.7-0.4C382.6,146.8,382.5,146.7,382.5,146.7
				L382.5,146.7z"/>
			<path class="st46" d="M351.5,149c0-0.5-0.2-0.9-0.6-1.1c-2.8-1.7-6.1-2.4-9.3-2.1c-3.4,0.4-6.6,1.9-9.1,4.3
				c-0.4,0.4,0,1.2,0.5,0.9c2.6-1.4,5.5-2.2,8.4-2.5c3.2-0.3,6.4,0.1,9.4,1.1c0.3,0.1,0.5-0.1,0.6-0.4
				C351.5,149.1,351.5,149.1,351.5,149L351.5,149z"/>
			<path class="st12" d="M346.5,280.9c8,2.2,21.5-8,9.3-12.7c1.7-3,1.2-6.7-1.2-9.2c3.2,0.1,5.9-2.4,6-5.6c0.1-1.9-0.8-3.7-2.3-4.8
				c29.5-5.9,7.2-29.5-9.5-25.5c-0.2-3.6-3.2-6.3-6.8-6.1c-1.8,0.1-3.4,0.9-4.6,2.3c-2.3-7.3-11.9-8.4-13.4,2.4
				c-9.7-6.2-19.3,5.4-11.3,17c-11.5,1.9-16.1,7.5-9.6,14c-12.2,9,0.3,18.5,14.5,18.5C327.9,272,337.8,275.3,346.5,280.9z"/>
			<path class="st13" d="M355.7,268.2c1.7-3,1.2-6.7-1.2-9.2c3.2,0.1,5.9-2.4,6-5.6c0.1-1.9-0.8-3.7-2.3-4.8
				c15.5-3.1,16.7-11,12-17.3c0.1,0.7,0.1,1.3-0.1,2c-1.1,10.5-13.1,6.7-18.2,12.1c-0.5,1.2,3.6,4.3,1.8,7c-0.2,0.6-2.2,0.4-4-0.3
				c0.6,5.1,5.1,10.4,1.2,14.9c-1.1,0.9-2.2,0.4-3.6,0.5c-2.6-0.4-4.6-5.4-5.6-4.5c-10.3,7.2-24,7.1-34.2-0.2
				c-4.1-3.1,0.1-8.2,3.3-10.9c-3.2,0.7-6.3-1.2-7-4.4c0.2-2.5,0.9-4.8,2.3-6.9c-6.3,2.6-7.9,7.1-2.9,12.1
				c-12.2,9,0.3,18.5,14.5,18.5c10.3,0.8,20.2,4.2,28.8,9.8C354.5,283.1,367.9,272.9,355.7,268.2z"/>
			<path class="st16" d="M305.9,269.2L305.9,269.2c-4-1.2-7-4.3-8.1-8.3c-0.1-3.4,1.7-6.7,4.7-8.4c-2.1-1.7-3.1-4.5-2.5-7.2
				c1.1-3.3,5.3-5.8,12.1-7c-3.5-4.5-3.7-10.8-0.3-15.5c2.9-3.6,8.1-4.4,12-1.8c0.3-2.8,1.8-5.4,4.1-6.9c1.7-0.9,3.7-1,5.4-0.2
				c2,0.9,3.6,2.6,4.4,4.7c2.2-1.8,5.2-2.3,7.9-1.3c2.1,0.9,3.5,3,3.6,5.3c4.1-0.7,8.4-0.2,12.3,1.5c7.3,3.1,12.2,9.2,11.7,14.4
				c-0.4,3.4-3.1,8-14,10.4c1.7,1.9,2.2,4.5,1.4,6.9c-0.9,2.1-2.8,3.5-5.1,3.7c2,2.4,2.3,5.8,0.9,8.6h0.1c5.1,2.2,4.9,5.1,4.4,6.7
				c-2.9,5.1-8.7,7.8-14.5,6.6h-0.1l0,0c-3.3-2.1-6.8-3.9-10.4-5.5c-5.7-2.6-11.9-4.1-18.2-4.3C313.6,271.5,309.6,270.8,305.9,269.2
				z M322.1,221.1c-3.4-1.6-7.4-0.7-9.7,2.2c-3.2,4.6-2.9,10.7,0.7,15l0.4,0.6l-0.7,0.1c-6.7,1.1-11.1,3.5-12,6.5
				c-0.6,2,0.3,4.3,2.6,6.7l0.4,0.4l-0.4,0.3c-2.9,1.6-4.7,4.6-4.7,7.9c1,3.7,3.9,6.6,7.6,7.7l0,0c3.6,1.5,7.5,2.2,11.4,2.2
				c6.4,0.2,12.7,1.7,18.5,4.4c3.6,1.5,7.1,3.4,10.5,5.5c5.3,1,10.7-1.4,13.4-6.1c0.8-2.4-0.7-4.4-4.4-5.8l-0.5-0.2l0.3-0.4
				c1.6-2.8,1.1-6.3-1.1-8.6l-0.7-0.7h1c2.2,0.1,4.3-1.2,5.2-3.2c0.8-2.3,0.1-4.9-1.8-6.5l-0.6-0.6l0.8-0.2c8.6-1.7,13.6-5.2,14-9.8
				c0.5-4.9-4.2-10.6-11.1-13.5c-3.8-1.7-8.1-2.2-12.2-1.4l-0.5,0.1v-0.5c0.1-2.2-1.2-4.2-3.2-5.1c-2.6-1-5.5-0.4-7.4,1.6l-0.5,0.6
				l-0.2-0.7c-0.6-2.1-2.1-3.9-4.1-4.8c-1.5-0.7-3.2-0.6-4.6,0.2c-2.3,1.6-3.7,4.2-3.8,6.9l-0.1,0.6l-0.6-0.4
				C323.3,221.7,322.7,221.4,322.1,221.1L322.1,221.1z"/>
			
				<linearGradient id="SVGID_10_" gradientUnits="userSpaceOnUse" x1="540.4311" y1="-413.6507" x2="568.7211" y2="-413.6507" gradientTransform="matrix(0.92 0.39 -0.39 0.92 -344.16 402.28)">
				<stop  offset="0" style="stop-color:#FC9E9F"/>
				<stop  offset="0.78" style="stop-color:#FE909B"/>
				<stop  offset="1" style="stop-color:#FF8B9A"/>
			</linearGradient>
			<path class="st47" d="M315.6,237.7c0,0,16.3-12.9,18.3-12.1s11.4,12.7,10.8,16s-15.6,12.3-15.6,12.3
				C322.2,251,317.2,245,315.6,237.7z"/>
			
				<linearGradient id="SVGID_11_" gradientUnits="userSpaceOnUse" x1="552.3311" y1="-411.1069" x2="568.7211" y2="-411.1069" gradientTransform="matrix(0.92 0.39 -0.39 0.92 -344.16 402.28)">
				<stop  offset="0" style="stop-color:#FC9E9F"/>
				<stop  offset="0.78" style="stop-color:#FE909B"/>
				<stop  offset="1" style="stop-color:#FF8B9A"/>
			</linearGradient>
			<path class="st48" d="M344.7,241.6c0.3-1.4-1.3-4.4-3.3-7.4c-0.3,7.6-10.4,13-18.2,16.1c1.8,1.5,3.8,2.7,5.9,3.6
				C329.1,253.9,344.1,244.9,344.7,241.6z"/>
			<path class="st49" d="M328.6,254.2c-6.9-3-11.9-9.1-13.4-16.4v-0.3l0.2-0.1c3.9-3.1,16.7-13,18.7-12.2s11.7,12.9,11,16.5
				c-0.6,3.4-14.3,11.7-15.8,12.6l-0.2,0.1l-0.2-0.1L328.6,254.2z M316.1,237.9c1.5,7,6.3,12.8,12.9,15.6
				c4.3-2.6,14.8-9.4,15.2-11.9c0.6-3.1-8.8-14.8-10.5-15.6C327.3,229.1,321.4,233.1,316.1,237.9L316.1,237.9z"/>
			<path class="st32" d="M399.7,302.9l-13.9-21.4c-2.8-0.6-5.6-1.4-8.2-2.5c-3.4-1.4-6.7-3.3-9.6-5.5c-9.2-6.5-17.4-12.6-21.1-15.5
				c0.9-5.6-0.9-11.3-4.8-15.4c0,0-3.3,2.9-5,4.4c-2.4-0.2-14.8-7.5-16.2-11.8s-4.5-2.6-3.7,0.7c-1.4-0.7-3.6,0.9-3.1,4.3
				c-1.4-0.7-2.5,0.7-2.9,3.6l0,0c0,0.4-0.1,0.7-0.1,1.2c-7.2,4.8,2.5,19.1,5,21.4c7.6,4.1,15.7,6.9,24.1,8.6
				c31.5,37.8,56.4,42.3,65.4,36.8L399.7,302.9z"/>
			<path class="st38" d="M399.7,302.9c-1.5,0.7-3.1,1.1-4.8,1.2c-21.3,0.8-33.7-21.3-51-31.8c-23.1-8.6-30.4-13.7-32.9-28.5
				c0,0.4-0.1,0.7-0.1,1.2c-7.2,4.8,2.5,19.1,5,21.4c7.6,4.1,15.7,6.9,24.1,8.6c31.5,37.8,56.4,42.3,65.4,36.8L399.7,302.9z"/>
			<path class="st39" d="M319.4,260.4c-4.9-3.7-8.1-9.2-8.9-15.3l0.8-0.2C312.2,250.8,315.1,256.3,319.4,260.4z"/>
			<path class="st39" d="M323.4,256.6c-0.4-0.4-9.2-10.3-9.9-16.4l0.9-0.1C316.3,246.2,319.4,251.8,323.4,256.6z"/>
			<path class="st39" d="M325.3,250.2c-4.1-3.9-7-8.8-8.7-14.1l0.8-0.2C319,241.1,321.7,246,325.3,250.2L325.3,250.2z"/>
			<path class="st32" d="M405.4,311.8l30.1-51.7c0,0,6.6-32-11.1-33.2l-38.6,54.7L405.4,311.8z"/>
			<path class="st38" d="M437,246.5v2c0,0.4,0,0.8,0,1.1v0.3c0,0.9-0.1,1.8-0.2,2.7c0,0.1,0,0.1,0,0.2c0,0.4-0.1,0.7-0.1,1.1
				c0,0.1,0,0.1,0,0.2c0,0.3-0.1,0.7-0.1,1v0.1c-0.2,1.5-0.4,2.7-0.5,3.6c0,0,0,0.1,0,0.1c-0.2,0.4-0.3,0.8-0.5,1.2l-30.1,51.7
				l-5.9-8.8c10-16.1,20-32.2,30.1-48.3c15.1-24.2,3.6-17.2-1.5-26.9l0.4,0.2c0.5,0.2,1,0.4,1.5,0.7l0,0l0.2,0.2
				c0.3,0.2,0.5,0.3,0.7,0.5c0.1,0.1,0.2,0.2,0.3,0.3s0.5,0.4,0.7,0.6c0.1,0.1,0.2,0.2,0.3,0.3c0.2,0.2,0.4,0.5,0.6,0.7l0.2,0.3
				c0.2,0.3,0.4,0.6,0.6,1c0,0,0.1,0.1,0.1,0.2c0.5,0.8,0.9,1.6,1.2,2.5c0,0.1,0,0.1,0,0.2c0.2,0.4,0.3,0.8,0.4,1.2
				c0.1,0.1,0.1,0.3,0.1,0.4c0.1,0.3,0.2,0.6,0.3,0.9c0,0.2,0.1,0.4,0.1,0.5c0.1,0.3,0.1,0.6,0.2,0.9s0.1,0.4,0.1,0.6
				s0.1,0.5,0.1,0.8s0.1,0.4,0.1,0.6s0.1,0.6,0.1,0.8s0,0.4,0.1,0.6l0.1,0.8c0,0.2,0,0.4,0,0.7s0,0.5,0,0.8s0,0.4,0,0.6
				S437,246.3,437,246.5z"/>
			<path class="st31" d="M424.7,226.9L424.7,226.9c1.3,0.1,2.6,0.4,3.9,0.9c0.1,0.1,0.2,0.1,0.3,0.2l0.4,0.2
				c0.3,0.1,0.5,0.3,0.8,0.4c0,0,0.1,0,0.1,0.1l0,0l0.2,0.2c0.3,0.2,0.5,0.3,0.7,0.5c0.1,0.1,0.2,0.2,0.3,0.3s0.5,0.4,0.7,0.6
				c0.1,0.1,0.2,0.2,0.3,0.3c0.2,0.2,0.4,0.5,0.6,0.7l0.2,0.3c0.2,0.3,0.4,0.6,0.6,1c0,0,0.1,0.1,0.1,0.2c0.5,0.8,0.9,1.6,1.2,2.5
				c0,0.1,0,0.1,0,0.2c0.2,0.4,0.3,0.8,0.4,1.2c0.1,0.1,0.1,0.3,0.1,0.4c0.1,0.3,0.2,0.6,0.3,0.9c0,0.2,0.1,0.4,0.1,0.5
				c0.1,0.3,0.1,0.6,0.2,0.9s0.1,0.4,0.1,0.6s0.1,0.5,0.1,0.8s0.1,0.4,0.1,0.6s0.1,0.6,0.1,0.8s0,0.4,0.1,0.6l0.1,0.8
				c0,0.2,0,0.4,0,0.7s0,0.5,0,0.8s0,0.4,0,0.6s0,0.6,0,0.8v2c0,0.4,0,0.8,0,1.1v0.3c0,0.9-0.1,1.8-0.2,2.7c0,0.1,0,0.1,0,0.2
				c0,0.4-0.1,0.7-0.1,1.1c0,0.1,0,0.1,0,0.2c0,0.3-0.1,0.7-0.1,1v0.1c-0.2,1.5-0.4,2.7-0.5,3.6c0,0,0,0.1,0,0.1
				c-0.1,0.8-0.2,1.2-0.2,1.2l0,0l-30,51.6l0,0l0,0l0,0l0,0c-2.5,1.3-5.2,2-8,1.9c-1,0-2-0.1-3.1-0.2c-0.5-0.1-1.1-0.1-1.6-0.3
				c-1.2-0.2-2.4-0.4-3.5-0.8c-2-0.5-3.9-1.2-5.8-2c-1.4-0.6-2.8-1.2-4.2-1.9c-10.9-5.5-24.3-15.9-39-33.6c-2.1-0.4-4.2-0.9-6.2-1.5
				c-6.2-1.7-12.2-4.1-17.9-7.1c-0.7-0.7-1.4-1.5-2-2.4c-2.7-3.8-6.5-10.7-5.4-15.4c0.3-1.3,1-2.4,2-3.2c0-0.1,0-0.2-0.1-0.3
				l0.4-0.1c0-0.4,0.1-0.8,0.1-1.2l0,0c0.4-3,1.5-4.3,2.9-3.6c-0.5-3.4,1.8-5,3.1-4.3c-0.8-3.4,2.3-5,3.7-0.7s13.8,11.6,16.2,11.8
				c1.8-1.5,5-4.4,5-4.4c3.9,4.1,5.7,9.8,4.8,15.4c3.8,2.9,11.9,9,21.1,15.4c5.2,3.9,11.2,6.6,17.6,8l0.3,0.1l25.1-35.6"/>
			<path class="st39" d="M386.2,281.6c-0.7,1.2-1.3,2.5-1.8,3.8c-0.4,1.3-0.7,2.7-0.9,4.1c-0.3,2.8,0.3,5.6,1.6,8.1
				c-1.4-2.5-2-5.3-1.8-8.1c0.1-1.4,0.4-2.8,0.8-4.1c0.4-1.4,1-2.6,1.7-3.9L386.2,281.6z"/>
			<path class="st50" d="M308.3,155.2c-1.6,5.8-1.2,10,0.8,11c1,0.4,2.1,0.2,3-0.5c2.1-1.5,2.4-5.7,0-10.2"/>
			<path class="st50" d="M423.9,233.8c-2.7,5.3-3.1,9.6-1.3,10.9c0.9,0.5,2,0.6,3,0.1c2.3-1.1,3.4-5.1,2-10"/>
			<path class="st50" d="M420.5,160.8c-3,5.2-3.6,9.4-2,10.8c0.9,0.6,2,0.7,3,0.3c2.4-0.9,3.7-4.9,2.5-9.9"/>
			<path class="st50" d="M406.9,183.9c-0.9,2.1-1,3.7-0.3,4.1c0.4,0.2,0.8,0.2,1.1,0c0.9-0.4,1.2-2,0.6-3.8"/>
			<path class="st50" d="M424.4,285.3c-1,2-1,3.7-0.4,4.1c0.4,0.2,0.8,0.2,1.1,0c0.9-0.5,1.2-2,0.6-3.8"/>
			<path class="st50" d="M403.2,206.6c-1,2.1-1,3.7-0.4,4.2c0.4,0.2,0.8,0.2,1.1,0c0.9-0.4,1.2-2,0.6-3.8"/>
			<path class="st50" d="M401.9,225.6c-0.9,2.1-1,3.7-0.3,4.2c0.4,0.2,0.8,0.2,1.1,0c0.9-0.4,1.2-2,0.6-3.8"/>
			<path class="st50" d="M388.6,237.6c-1,2.1-1,3.7-0.4,4.1c0.4,0.2,0.8,0.2,1.1,0c0.9-0.4,1.2-2,0.6-3.8"/>
			<path class="st50" d="M378.1,269.3c-1,2.1-1,3.7-0.4,4.2c0.4,0.2,0.8,0.2,1.1,0c0.9-0.4,1.2-2,0.6-3.8"/>
			<path class="st50" d="M370.3,250.5c-1,2.1-1,3.7-0.4,4.2c0.4,0.2,0.8,0.2,1.1,0c0.9-0.4,1.2-2,0.6-3.8"/>
			<path class="st50" d="M342.1,313.5c-1,2-1,3.7-0.4,4.1c0.4,0.2,0.8,0.2,1.1,0c0.9-0.5,1.2-2,0.6-3.8"/>
			<path class="st50" d="M348.9,295.5c-1,2-1,3.7-0.4,4.1c0.4,0.2,0.8,0.2,1.1,0c0.9-0.4,1.2-2,0.6-3.8"/>
			<path class="st50" d="M403.2,327.6c-1,2-1,3.7-0.4,4.1c0.4,0.2,0.8,0.2,1.1,0c0.9-0.4,1.2-2,0.6-3.8"/>
			<path class="st50" d="M360,323.1c-1,2.1-1,3.7-0.4,4.2c0.4,0.2,0.8,0.2,1.1,0c0.9-0.4,1.2-2,0.6-3.8"/>
			<path class="st50" d="M389.9,260.4c-1,2-1,3.7-0.4,4.1c0.4,0.2,0.8,0.2,1.1,0c0.9-0.5,1.2-2,0.6-3.8"/>
			<path class="st50" d="M417.2,194.3c-1,2.1-1,3.7-0.4,4.1c0.4,0.2,0.8,0.2,1.1,0c0.9-0.4,1.2-2,0.6-3.8"/>
			<path class="st50" d="M412,264c-1,2.1-1,3.7-0.4,4.2c0.4,0.2,0.8,0.2,1.1,0c0.9-0.4,1.2-2,0.6-3.8"/>
			<path class="st50" d="M283,140.8c-1.1,3.9-0.8,6.8,0.5,7.5c0.7,0.2,1.4,0.1,2-0.3c1.4-1,1.6-3.9,0-6.9"/>
			<path class="st50" d="M324.1,201.2c-1.1,3.9-0.8,6.8,0.5,7.5c0.7,0.2,1.4,0.1,2-0.3c1.4-1,1.6-3.9,0-6.9"/>
			<path class="st50" d="M298.2,184.4c-1.1,3.9-0.8,6.8,0.5,7.5c0.7,0.2,1.4,0.1,2-0.3c1.4-1,1.6-3.9,0-6.9"/>
			<path class="st30" d="M357.6,356.9c-0.3,8.1-3.4,15.9-8.9,22l-0.9,1c-0.4,0.4-0.7,0.7-1,1.1s-0.7,0.7-1,1l-1,0.9
				c-0.6,0.5-1,0.9-1.3,1c-1.1-0.5-16-7.7-18.3-23.8c-1.8-12.9,5.3-26.1,17.7-32.5C344.9,329,358.1,339.4,357.6,356.9z"/>
			<path class="st31" d="M480.6,294.9C480.6,294.9,480.6,294.9,480.6,294.9c-0.1,0-0.2,0-0.2,0.1"/>
			<path class="st32" d="M382.1,360.5l-2.6,8.6c-2.6,8.8-10.7,14.8-19.8,14.7c-0.9,0-1.9-0.1-2.8-0.2c-1-0.1-2-0.4-2.9-0.6l-23-6.8
				v0c-0.1,3.3-0.4,6.6-1,9.8c-0.2,1.1-0.4,2.2-0.6,3.4c-0.4,2.4-0.9,4.8-1.4,7.3c-0.1,0.6-0.3,1.3-0.4,1.9v0
				c-0.4,1.8-0.8,3.7-1.2,5.5c-2,9.2-4.1,17.5-4.7,20.3c-0.7,1.8-1,3.6-1,5.5c0,0.1,0,0.2,0,0.3c0,3.6,1.1,7.1,3.2,10
				c1.2,2.1,1.9,4.5,2.1,6.9 M325.9,447.2c0,0.7-0.1,1.4-0.3,2c-0.2,0.9-0.7,1.8-1.3,2.5c-1.2,1.2-2.7,2.1-4.3,2.4
				c-3.2,0.9-6.4,2.1-9.4,3.6c-2.1,1.1-4,2.5-5.7,4.1l-1.9,1.7c-2.5,1.7-3,2.4-4.2,3.1c-0.2,0.1-0.4,0.2-0.6,0.3
				c-0.7,0.3-1.4,0.7-2.1,1l0,0c0,0,0,0.1,0,0.1c-0.7,1.8-2.5,2.9-4.4,2.8c-0.8,0-1.5-0.2-2.2-0.5c-0.1,0-0.1,0-0.1-0.1
				c-0.2-0.1-0.3-0.2-0.5-0.3c-0.2,0.2-0.4,0.4-0.6,0.5l-0.1,0.1l0,0c-1,0.6-2.1,1-3.3,1c-0.8,0-1.7-0.2-2.5-0.5l0,0l-0.1-0.1
				c-0.5-0.2-1-0.6-1.4-1c-0.4,0.2-0.8,0.4-1.2,0.5c0,0,0,0-0.1,0l0,0c-0.6,0.2-1.3,0.3-2,0.3c-1.1,0-2.1-0.3-3.1-0.7
				c0,0-0.1-0.1-0.1-0.1l-0.1,0c-0.1,0-0.2,0-0.2-0.1c-0.1,0-0.1-0.1-0.2-0.1l-0.1-0.1c-0.6-0.4-1.1-0.9-1.4-1.4
				c-0.5,0.1-1,0.2-1.5,0.2h-0.3c0,0-0.1,0-0.1,0c-1.8,0-3.5-0.7-4.8-2l0,0c-3.4,0-6.1-2.1-6.5-4.9c0-0.2-0.1-0.4-0.1-0.6
				c0-2.4,1.9-4.4,4.4-5.1c0.7-0.2,1.4-0.3,2.1-0.3h0.3c0.3-0.2,0.6-0.3,0.9-0.4c0.8-0.3,1.6-0.7,2.3-1.2c0.7-0.4,1.3-0.9,1.9-1.5
				c0.6-0.5,1.1-1.1,1.5-1.7c0.2-0.2,0.3-0.3,0.5-0.5c13.1-9,21-17.7,21.5-20.2c0.3-1.9,0.5-3.8,0.5-5.8c0-0.3,0-0.7,0-1
				c0-1.4,0-2.9,0-4.5c0-0.4,0-0.9,0-1.3s0-0.9,0-1.4c0-0.9,0-1.8-0.1-2.7c-0.1-1.8-0.2-3.6-0.3-5.5c0-0.6-0.1-1.3-0.1-2l0,0
				c-0.8-12.7-2.1-28.1-3.2-42.7c-0.1-2-0.3-3.9-0.4-5.9c-1.9-4.7-2.9-9.8-2.9-14.9v-0.5c0.1-6.6,1.9-13.1,5.2-18.9
				c0.2-0.2,0.4-0.3,0.5-0.5c5.3-4.4,12.4-5.8,18.9-3.9l18.3,5.4l1.8,0.5l35.7,10.5c1.2,0.4,2.4,0.8,3.6,1.4
				c0.4,0.2,0.8,0.4,1.1,0.6c1.4,0.8,2.7,1.9,3.8,3c0.2,0.2,0.5,0.5,0.7,0.7c0.2,0.2,0.4,0.5,0.6,0.7c4.4,5.3,5.9,12.4,3.9,19.1
				L325.9,447.2z"/>
			<path class="st38" d="M372,378.8l-0.2,1.3c-3.5,2.5-7.7,3.9-12.1,3.8c-0.9,0-1.9-0.1-2.8-0.2c-1-0.1-2-0.4-2.9-0.6l-23-6.8v0
				c-0.1,3.3-0.4,6.6-1,9.8c-0.2,1.1-0.4,2.2-0.6,3.4c-0.4,2.4-0.9,4.8-1.4,7.3c-0.1,0.6-0.3,1.3-0.4,1.9v0
				c-0.4,1.8-0.8,3.7-1.2,5.5c-2,9.2-4.1,17.5-4.7,20.3c-0.7,1.8-1,3.6-1,5.5c0,0.1,0,0.2,0,0.3c0,3.6,1.1,7.1,3.2,10
				c1.2,2.1,1.9,4.5,2.1,6.9 M326,447.2c0,0.7-0.1,1.4-0.3,2c-0.2,0.9-0.7,1.8-1.3,2.5c-1.2,1.2-2.7,2.1-4.3,2.4
				c-3.2,0.9-6.4,2.1-9.4,3.6c-2.1,1.1-4,2.5-5.7,4.1l-1.9,1.7c-2.5,1.7-3,2.4-4.2,3.1c-0.2,0.1-0.4,0.2-0.6,0.3
				c-0.7,0.3-1.4,0.7-2.1,1l0,0c0,0,0,0.1,0,0.1c-0.7,1.8-2.5,2.9-4.4,2.8c-0.8,0-1.5-0.2-2.2-0.5c-0.1,0-0.1,0-0.1-0.1
				c-0.2-0.1-0.3-0.2-0.5-0.3c-0.2,0.2-0.4,0.4-0.6,0.5l-0.1,0.1l0,0c-1.7,1.1-3.9,1.3-5.7,0.5l0,0l-0.1-0.1c-0.5-0.2-1-0.6-1.4-1
				c-0.4,0.2-0.8,0.4-1.2,0.5c0,0,0,0-0.1,0l0,0c-0.6,0.2-1.3,0.3-2,0.3c-1.1,0-2.1-0.3-3.1-0.7c0,0-0.1-0.1-0.1-0.1l-0.1,0
				c-0.1,0-0.2,0-0.2-0.1c-0.1,0-0.1-0.1-0.2-0.1l-0.1-0.1c-0.6-0.4-1.1-0.9-1.4-1.4c-0.5,0.1-1,0.2-1.5,0.2h-0.3c0,0-0.1,0-0.1,0
				c-1.8,0-3.5-0.7-4.8-2l0,0c-3.4,0-6.1-2.1-6.5-4.9c0-0.2-0.1-0.4-0.1-0.6c0-2.4,1.9-4.4,4.4-5.1c0,1.2,0.6,2.3,1.5,3.1
				c1,0.8,2.2,1.1,3.5,1c0,2,1.7,3.6,3.7,3.6c0.7,0,1.4-0.2,1.9-0.6c0,0.1,0,0.1,0,0.2c0.1,0.6,0.3,1.2,0.6,1.7
				c0.6,1.1,1.6,1.8,2.8,2c1.4,0.1,2.7-0.4,3.6-1.4c0.1,0.3,0.3,0.6,0.5,0.9c0.7,1.1,1.9,1.9,3.2,2c1.6,0.2,3.2-0.6,4-2.1l0.3,0.3
				c0.9,0.9,2.3,1.3,3.5,0.9c1.2-0.4,2.1-1.3,2.4-2.5c4.9-7.6,10.2-11.3,14.2-13.1c3.9-1.8,7.3-2.3,8.6-5.2c1.4-3.2-1-5.8-2.2-11
				c-0.8-3.6-1.2-8.7,1.1-15.7c2.6-5.9,4.5-12.1,5.9-18.4c2.1-9.6,2.8-19.5,2-29.3c-0.7-5.2-1.5-10.4-2.2-15.6L326,447.2z"/>
			<path class="st39" d="M265.4,466.2c0-1,0.1-2,0.4-3c0.3-0.9,0.8-1.8,1.5-2.5c0.7-0.7,1.5-1.3,2.4-1.8c0.4-0.2,0.9-0.4,1.4-0.6
				c0.5-0.1,1-0.3,1.4-0.4c-0.5,0.1-1,0.3-1.4,0.4c-0.5,0.2-0.9,0.4-1.4,0.6c-0.9,0.4-1.6,1.1-2.3,1.8c-1.3,1.5-1.9,3.4-1.7,5.4
				L265.4,466.2z"/>
			<path class="st39" d="M272.1,468.1c0-0.8,0.1-1.5,0.3-2.2c0.2-0.7,0.5-1.4,0.9-2c0.4-0.6,1-1.1,1.6-1.5c0.6-0.4,1.3-0.7,2-0.9
				c-0.7,0.2-1.4,0.5-2,0.9c-0.6,0.4-1.1,0.9-1.5,1.6c-0.8,1.3-1.2,2.7-1.1,4.2L272.1,468.1z"/>
			<path class="st39" d="M280.6,469.9c-0.2-1.1-0.1-2.3,0.1-3.4c0.2-1.1,0.6-2.2,1.3-3.1c-0.6,0.9-1.1,2-1.2,3.2
				c-0.2,1.1-0.1,2.3,0.1,3.4L280.6,469.9z"/>
			<path class="st39" d="M288.7,469.9c-0.1-0.8-0.2-1.7-0.2-2.6c0-0.9,0.2-1.7,0.5-2.5c-0.3,0.8-0.4,1.6-0.4,2.5
				c0,0.8,0.1,1.7,0.3,2.5L288.7,469.9z"/>
			<path class="st31" d="M382.1,360.5l-2.6,8.6c-2.6,8.8-10.7,14.8-19.8,14.7c-0.9,0-1.9-0.1-2.8-0.2c-1-0.1-2-0.4-2.9-0.6l-23-6.8
				v0c-0.1,3.3-0.4,6.6-1,9.8c-0.2,1.1-0.4,2.2-0.6,3.4c-0.4,2.4-0.9,4.8-1.4,7.3c-0.1,0.6-0.3,1.3-0.4,1.9v0
				c-0.4,1.8-0.8,3.7-1.2,5.5c-2,9.2-4.1,17.5-4.7,20.3c-0.7,1.8-1,3.6-1,5.5c0,0.1,0,0.2,0,0.3c0,3.6,1.1,7.1,3.2,10
				c1.2,2.1,1.9,4.5,2.1,6.9 M325.9,447.2c0,0.7-0.1,1.4-0.3,2c-0.2,0.9-0.7,1.8-1.3,2.5c-1.2,1.2-2.7,2.1-4.3,2.4
				c-3.2,0.9-6.4,2.1-9.4,3.6c-2.1,1.1-4,2.5-5.7,4.1l-1.9,1.7c-2.5,1.7-3,2.4-4.2,3.1c-0.2,0.1-0.4,0.2-0.6,0.3
				c-0.7,0.3-1.4,0.7-2.1,1l0,0c0,0,0,0.1,0,0.1c-0.7,1.8-2.5,2.9-4.4,2.8c-0.8,0-1.5-0.2-2.2-0.5c-0.1,0-0.1,0-0.1-0.1
				c-0.2-0.1-0.3-0.2-0.5-0.3c-0.2,0.2-0.4,0.4-0.6,0.5l-0.1,0.1l0,0c-1,0.6-2.1,1-3.3,1c-0.8,0-1.7-0.2-2.5-0.5l0,0l-0.1-0.1
				c-0.5-0.2-1-0.6-1.4-1c-0.4,0.2-0.8,0.4-1.2,0.5c0,0,0,0-0.1,0l0,0c-0.6,0.2-1.3,0.3-2,0.3c-1.1,0-2.1-0.3-3.1-0.7
				c0,0-0.1-0.1-0.1-0.1l-0.1,0c-0.1,0-0.2,0-0.2-0.1c-0.1,0-0.1-0.1-0.2-0.1l-0.1-0.1c-0.6-0.4-1.1-0.9-1.4-1.4
				c-0.5,0.1-1,0.2-1.5,0.2h-0.3c0,0-0.1,0-0.1,0c-1.8,0-3.5-0.7-4.8-2l0,0c-3.4,0-6.1-2.1-6.5-4.9c0-0.2-0.1-0.4-0.1-0.6
				c0-2.4,1.9-4.4,4.4-5.1c0.7-0.2,1.4-0.3,2.1-0.3h0.3c0.3-0.2,0.6-0.3,0.9-0.4c0.8-0.3,1.6-0.7,2.3-1.2c0.7-0.4,1.3-0.9,1.9-1.5
				c0.6-0.5,1.1-1.1,1.5-1.7c0.2-0.2,0.3-0.3,0.5-0.5c13.1-9,21-17.7,21.5-20.2c0.3-1.9,0.5-3.8,0.5-5.8c0-0.3,0-0.7,0-1
				c0-1.4,0-2.9,0-4.5c0-0.4,0-0.9,0-1.3s0-0.9,0-1.4c0-0.9,0-1.8-0.1-2.7c-0.1-1.8-0.2-3.6-0.3-5.5c0-0.6-0.1-1.3-0.1-2l0,0
				c-0.8-12.7-2.1-28.1-3.2-42.7c-0.1-2-0.3-3.9-0.4-5.9c-1.9-4.7-2.9-9.8-2.9-14.9v-0.5c0.1-6.6,1.9-13.1,5.2-18.9
				c0.2-0.2,0.4-0.3,0.5-0.5c5.3-4.4,12.4-5.8,18.9-3.9l18.3,5.4l1.8,0.5l35.7,10.5c1.2,0.4,2.4,0.8,3.6,1.4
				c0.4,0.2,0.8,0.4,1.1,0.6c1.4,0.8,2.7,1.9,3.8,3c0.2,0.2,0.5,0.5,0.7,0.7c0.2,0.2,0.4,0.5,0.6,0.7c4.4,5.3,5.9,12.4,3.9,19.1
				L325.9,447.2z"/>
			<path class="st29" d="M386.3,337.9h40.9c0,0.4,0,0.8,0,1.1c0.1,0.4,0.1,0.5,0.1,0.7c0,0.7-0.7,0.9-0.7,1.5s0.9,0.8,1,1.7
				c0,0.5-0.3,0.9,0,1.3c0.1,0.2,0.2,0.2,0.3,0.4c0.1,0.2,0,0.5-0.1,0.7h-41.5V337.9z"/>
			<path class="st29" d="M343.2,383.8c1.5-1.2,13.6-10.5,14.1-26.9c0.5-18.2-13.6-28.6-14.8-29.5c0,0,49.2,9.9,63.9,16.2
				c12,0.3,20.8,1.4,21.1,1.8s5.5,16.8,3.2,27.1c-1.6,3.5-4.1,6.6-7.3,8.7l0,0c-0.7,0.5-1.4,1-2.2,1.5c-15.1,6.5-36.2,4.7-36.2,4.7
				c-8.9-0.7-21.6-1.6-38-2L343.2,383.8z"/>
			<path class="st51" d="M430.8,372.6c-1.5,3.5-4.1,6.6-7.3,8.7c0,0-1.8,1.3-2.2,1.5c-15,6.5-36.2,4.7-36.2,4.7
				c-8.9-0.7-21.6-1.6-38-2c-1.3-0.6-2.6-1.1-3.8-1.7c1.9-1.5,3.7-3.2,5.3-5l1,0.5c15.7,0.4,27.8,1.2,36.2,1.9
				c0,0,20.2,1.7,34.5-4.5c0.4-0.2,2.1-1.4,2.1-1.4c1.9-1.3,3.5-2.9,4.9-4.7c0.8-1.1,1.5-2.3,2.1-3.6c1.5-6.7-0.4-16.1-1.8-21.5
				C427.8,345.9,433,362.2,430.8,372.6z"/>
			<path class="st31" d="M431.4,365.2c-0.4-6.7-1.6-13.3-3.8-19.6c-0.3-0.4-9.1-1.5-21.1-1.8c-14.8-6.4-63.9-16.2-63.9-16.2
				c1.2,0.8,15.3,11.3,14.8,29.5c-0.3,8.1-3.4,15.9-8.9,22c-0.2,0.3-0.4,0.5-0.6,0.7l-0.5,0.5l-0.5,0.5c-0.2,0.2-0.4,0.4-0.5,0.5
				l-0.4,0.4l-0.5,0.5c-0.3,0.3-0.6,0.5-0.8,0.7l-0.1,0.1l-0.5,0.4l-0.1,0l-0.4,0.3l-0.3,0.2l0,0l3.8,1.7c10.3,0.3,19,0.7,26.4,1.1
				c4.4,0.3,8.3,0.6,11.6,0.9c0,0,2.1,0.2,5.4,0.2c7.3,0.1,20.5-0.5,30.9-4.9c0.8-0.5,1.5-1,2.2-1.5c2-1.3,3.7-3,5.1-4.9
				c0.9-1.2,1.6-2.5,2.2-3.8C431.3,370.2,431.5,367.7,431.4,365.2z"/>
			<path class="st50" d="M333.7,280.6c0.5,0.8,0.7,1.6,0.8,2.5c0,2.2-1.9,3.1-1.5,4.8c0.2,0.9,0.9,1.6,1.8,1.9
				c0.7,0.2,1.4,0.2,2-0.1c0.7-0.4,1.1-1.2,1.2-2c0.1-1.8-1.7-2.4-2.1-4.7c-0.1-0.8-0.1-1.5,0.1-2.3"/>
			<path class="st50" d="M414.6,308.3c0.5,0.7,0.7,1.6,0.8,2.5c0,2.2-1.9,3.1-1.5,4.8c0.3,0.9,0.9,1.6,1.8,1.9
				c0.7,0.2,1.4,0.2,2-0.1c0.7-0.4,1.1-1.2,1.2-2c0.1-1.8-1.7-2.4-2.1-4.7c-0.1-0.8-0.1-1.5,0.1-2.3"/>
			<path class="st50" d="M378.6,313.5c0.2,0.6,0.3,1.3,0.1,2c-0.4,1.6-1.8,2-1.8,3.3c0,0.7,0.4,1.3,0.9,1.7c0.4,0.3,0.9,0.4,1.4,0.2
				c0.6-0.2,1-0.7,1.2-1.3c0.4-1.3-0.8-2-0.7-3.8c0-0.6,0.2-1.1,0.4-1.7"/>
			<path class="st50" d="M306.1,343.5c-0.9,1.9-1,3.4-0.3,3.9c0.3,0.2,0.7,0.2,1.1,0c0.8-0.4,1.1-1.9,0.5-3.5"/>
			<path class="st50" d="M256.5,325.4c-0.9,1.9-1,3.4-0.3,3.9c0.3,0.2,0.7,0.2,1,0c0.8-0.4,1.1-1.8,0.6-3.5"/>
			<path class="st50" d="M275.3,339c-0.9,1.9-1,3.4-0.3,3.9c0.3,0.2,0.7,0.2,1,0c0.8-0.4,1.1-1.9,0.6-3.5"/>
			<path class="st50" d="M254.8,349.1c-0.9,2.7-0.7,4.8,0.3,5.2c0.5,0.2,1,0.1,1.4-0.2c1-0.7,1.2-2.7,0.1-4.8"/>
			<path class="st50" d="M265.1,399.2c-0.5,2.1-0.4,3.6,0.1,4c0.2,0.1,0.6,0.1,0.7-0.2c0.5-0.5,0.6-2,0.1-3.7"/>
			<path class="st50" d="M275.7,365c-0.4,1.3-0.3,2.4,0.1,2.6c0.2,0.1,0.5,0.1,0.7-0.1c0.5-0.4,0.6-1.3,0.1-2.4"/>
			<path class="st50" d="M320.5,381.1c-0.9,1.9-1,3.4-0.3,3.9c0.3,0.2,0.7,0.2,1,0c0.8-0.4,1.1-1.8,0.6-3.5"/>
			<path class="st50" d="M299,365.6c-0.6,2-0.5,3.5,0.2,3.9c0.3,0.1,0.7,0.1,1-0.1c0.7-0.5,0.9-2,0.1-3.6"/>
			<path class="st50" d="M342.6,352.5c-3.9,3.6-6.3,6.6-6.2,7.8c0,0.6,0.6,0.6,1.2,0.5c1.5-0.5,4.1-3.3,6-7.1"/>
			<path class="st50" d="M304.6,400.5c-0.6,2-0.5,3.5,0.2,3.9c0.3,0.1,0.7,0.1,1-0.1c0.7-0.5,0.9-2,0.1-3.6"/>
			<path class="st50" d="M310.9,431.9c-0.6,2-0.5,3.5,0.2,3.9c0.4,0.1,0.7,0.1,1-0.1c0.7-0.5,0.9-2,0.1-3.6"/>
			<ellipse class="st0" cx="362.5" cy="467.3" rx="25.6" ry="5.8"/>
			<path class="st52" d="M391.9,413.1l-3.6,49.8c-0.2,2.2-1.6,4-3.6,4.7c-15.6,5.2-30.6,5.7-44.7,0.1c-1.9-0.8-3.1-2.6-3.2-4.6
				l-3.7-50.1H391.9z"/>
			<path class="st53" d="M381.8,461.7c-18.4,8-35.7,4.1-38.4,1.7c-1.4-1.1-2.2-2.7-2.2-4.4c0-0.2-0.6-9.5-0.6-8.9
				c-0.4-8.4-1-19-0.7-30.6c2,11.4,3,22.4,3.8,30.4c0,0.2,0.5,6.7,0.7,8.9c0.3,3.1,3.6,3.3,7.6,4.1C361.8,465,372,463.9,381.8,461.7
				z"/>
			<path class="st54" d="M391.8,413.1c0,2.9-13.1,5.3-29.4,5.3S333,416,333,413.1s13.2-5.3,29.4-5.3S391.8,410.2,391.8,413.1z"/>
			<path class="st55" d="M410.6,422.9v35.9c-5.1,0-9.2-4.1-9.2-9.2c0,0,0,0,0,0v-24.4h-11.3V416h13.6
				C407.5,416,410.6,419,410.6,422.9C410.6,422.9,410.6,422.9,410.6,422.9z"/>
		</g>
	</g>
	
		<radialGradient id="SVGID_12_" cx="-1236.7308" cy="1144.5104" r="476.3492" gradientTransform="matrix(0.51 0 0 -0.48 875.11 803.96)" gradientUnits="userSpaceOnUse">
		<stop  offset="0" style="stop-color:#FFFFFF"/>
		<stop  offset="0.43" style="stop-color:#D3F9FC"/>
	</radialGradient>
	<path class="st56" d="M490.4,254.6c0,126.2-107.9,228.5-241,228.5S8.5,380.8,8.5,254.6s107.9-228.5,241-228.5
		S490.4,128.4,490.4,254.6z"/>
	<path class="st57" d="M263.4,458.6c-133.1,0-240.9-102.3-240.9-228.4c0-32.6,7.3-64.8,21.4-94.2c-2.6,3.9-5.2,7.8-7.5,11.9
		c-20,33.7-30.6,72.2-30.6,111.4c0,126.2,107.9,228.5,241,228.5c97.7,0,181.7-55.1,219.6-134.3C423.5,416.7,348.6,458.6,263.4,458.6
		z"/>
	<path class="st58" d="M65.6,167.3c9.8-35.6,38.8-70.1,98.6-91.8c6.7-2.5,10.1-9.9,7.6-16.6c-0.7-1.8-1.7-3.4-3-4.7l-1.2-1.1
		c-3.4-3.4-8.3-4.6-12.9-3.2C132.4,56.5,74.1,89.6,55,164.4c-0.6,2.3,0.4,4.6,2.3,5.9l0.1,0.1c2.5,1.6,5.9,0.9,7.5-1.7
		C65.3,168.3,65.5,167.8,65.6,167.3z"/>
	<circle class="st58" cx="57.3" cy="186.4" r="8.2"/>
</g>
</svg>
