<?xml version="1.0" encoding="utf-8"?>
<!-- Generator: Adobe Illustrator 25.2.3, SVG Export Plug-In . SVG Version: 6.00 Build 0)  -->
<svg version="1.1" id="Layer_1" xmlns="http://www.w3.org/2000/svg" xmlns:xlink="http://www.w3.org/1999/xlink" x="0px" y="0px"
	 viewBox="0 0 510 510" style="enable-background:new 0 0 510 510;" xml:space="preserve">
<style type="text/css">
	.st0{opacity:0.3;enable-background:new    ;}
	.st1{opacity:0.91;fill:url(#SVGID_1_);enable-background:new    ;}
	.st2{clip-path:url(#SVGID_3_);}
	.st3{fill:url(#SVGID_4_);}
	.st4{opacity:0.36;fill:none;stroke:#FEFFEB;stroke-miterlimit:10;enable-background:new    ;}
	.st5{fill:url(#SVGID_5_);}
	.st6{fill:url(#SVGID_6_);}
	.st7{opacity:0.57;fill:#A8B0B2;enable-background:new    ;}
	.st8{fill:url(#SVGID_7_);}
	.st9{opacity:0.43;}
	.st10{fill:none;stroke:#FEFFEB;stroke-width:0.5;stroke-miterlimit:10;}
	.st11{fill:#426E72;}
	.st12{fill:#264547;}
	.st13{fill:#E5D2C1;}
	.st14{fill:#E8D75D;}
	.st15{fill:#DBDAD9;}
	.st16{fill:#C6B663;}
	.st17{opacity:0.15;fill:#EA3B48;enable-background:new    ;}
	.st18{fill:#CFCEDD;}
	.st19{fill:#DBD9ED;}
	.st20{fill:#EEEEFF;}
	.st21{fill:#FFFFFF;stroke:#DBD9ED;stroke-miterlimit:10;}
	.st22{fill:#A5A5A5;stroke:#767582;stroke-miterlimit:10;}
	.st23{fill:#B6B5C9;}
	.st24{fill:#FFD3CA;stroke:#D17D74;stroke-miterlimit:10;}
	.st25{fill:#EFC3BD;stroke:#D17D74;stroke-miterlimit:10;}
	.st26{fill:#D17D74;}
	.st27{fill:#EF8359;stroke:#323232;stroke-miterlimit:10;}
	.st28{fill:#F9D1C6;stroke:#323232;stroke-width:2;stroke-miterlimit:10;}
	.st29{fill:#224966;stroke:#323232;stroke-miterlimit:10;}
	.st30{fill:#CC6B4E;}
	.st31{opacity:0.15;enable-background:new    ;}
	.st32{opacity:0.18;fill:#6B1808;enable-background:new    ;}
	.st33{fill:#DB9D8E;}
	.st34{fill:#342517;}
	.st35{fill:#F9D1C6;}
	.st36{fill:#323232;}
	.st37{fill:#342516;}
	.st38{fill:#661E1B;}
	.st39{fill:#D26653;}
	.st40{fill:#FFFFFF;}
	.st41{fill:#F9988F;}
	.st42{fill:#F9F8F7;stroke:#7F430D;stroke-width:0.75;stroke-miterlimit:10;}
	.st43{fill:#FDEFEC;}
	.st44{fill:#C1E3EA;}
	.st45{fill:#D4F6FF;}
	.st46{fill:url(#SVGID_8_);}
	.st47{fill:url(#SVGID_9_);}
	.st48{fill:url(#SVGID_10_);}
	.st49{fill:url(#SVGID_11_);}
	.st50{fill:url(#SVGID_12_);}
	.st51{fill:url(#SVGID_13_);}
	.st52{fill:url(#SVGID_14_);}
	.st53{fill:url(#SVGID_15_);}
	.st54{fill:url(#SVGID_16_);}
	.st55{fill:url(#SVGID_17_);}
	.st56{fill:url(#SVGID_18_);}
	.st57{fill:url(#SVGID_19_);}
	.st58{fill:url(#SVGID_20_);}
	.st59{fill:url(#SVGID_21_);}
	.st60{fill:url(#SVGID_22_);}
	.st61{fill:url(#SVGID_23_);}
	.st62{fill:url(#SVGID_24_);}
	.st63{fill:url(#SVGID_25_);}
	.st64{fill:url(#SVGID_26_);}
	.st65{fill:url(#SVGID_27_);}
	.st66{fill:url(#SVGID_28_);}
	.st67{fill:url(#SVGID_29_);}
	.st68{fill:url(#SVGID_30_);}
	.st69{fill:url(#SVGID_31_);}
	.st70{opacity:0.1;fill:url(#SVGID_32_);enable-background:new    ;}
	.st71{opacity:0.5;fill:#4ECECE;enable-background:new    ;}
	.st72{opacity:0.6;fill:#FDFFFF;enable-background:new    ;}
</style>
<circle class="st0" cx="263.1" cy="262.6" r="242.4"/>
<g id="_01-3">
	
		<radialGradient id="SVGID_1_" cx="4463.5566" cy="1585.4585" r="585.5742" gradientTransform="matrix(0.48 0 0 -0.48 -1902.52 1010.2401)" gradientUnits="userSpaceOnUse">
		<stop  offset="0" style="stop-color:#FFFFFF"/>
		<stop  offset="0.61" style="stop-color:#D3F9FC"/>
		<stop  offset="0.93" style="stop-color:#48E5FF"/>
	</radialGradient>
	<path class="st1" d="M490.6,249.2c0,133.7-108.8,242.1-243,242.1S4.6,382.9,4.6,249.2S113.3,7.2,247.5,7.2S490.6,115.5,490.6,249.2
		z"/>
	<g>
		<defs>
			<ellipse id="SVGID_2_" cx="248.2" cy="246.5" rx="242.6" ry="241.5"/>
		</defs>
		<clipPath id="SVGID_3_">
			<use xlink:href="#SVGID_2_"  style="overflow:visible;"/>
		</clipPath>
		<g class="st2">
			
				<linearGradient id="SVGID_4_" gradientUnits="userSpaceOnUse" x1="729.9569" y1="1038.201" x2="324.7169" y2="-144.5189" gradientTransform="matrix(1 0 0 -1 0 512)">
				<stop  offset="0" style="stop-color:#72EDED"/>
				<stop  offset="0.23" style="stop-color:#6FE9EA"/>
				<stop  offset="0.45" style="stop-color:#67DDE3"/>
				<stop  offset="0.68" style="stop-color:#58C9D6"/>
				<stop  offset="0.9" style="stop-color:#45ADC4"/>
				<stop  offset="0.99" style="stop-color:#3CA1BC"/>
			</linearGradient>
			<path class="st3" d="M-38.2-169.5c1.1,234.2,2.2,468.4,3.2,702.6l1045.6,6.5v-705.9L-38.2-169.5z"/>
			<line class="st4" x1="-33.2" y1="502.7" x2="1071.8" y2="504.5"/>
			
				<linearGradient id="SVGID_5_" gradientUnits="userSpaceOnUse" x1="1042.2827" y1="737.7917" x2="-93.0627" y2="452.2728" gradientTransform="matrix(1 0 0 -1 0 512)">
				<stop  offset="2.000000e-02" style="stop-color:#72EDED"/>
				<stop  offset="0.26" style="stop-color:#6FE9EC"/>
				<stop  offset="0.5" style="stop-color:#67DDE7"/>
				<stop  offset="0.74" style="stop-color:#59C9E0"/>
				<stop  offset="0.98" style="stop-color:#45ADD6"/>
				<stop  offset="0.99" style="stop-color:#45ADD6"/>
			</linearGradient>
			<polyline class="st5" points="1055.8,-172.2 -41.4,-171.7 -41.4,265.2 1045.7,-171.7 			"/>
			
				<linearGradient id="SVGID_6_" gradientUnits="userSpaceOnUse" x1="984.0357" y1="96.7773" x2="170.5957" y2="-107.7827" gradientTransform="matrix(1 0 0 -1 0 512)">
				<stop  offset="2.000000e-02" style="stop-color:#E9EAE5"/>
				<stop  offset="0.12" style="stop-color:#E0E4E0"/>
				<stop  offset="0.44" style="stop-color:#C7D4D1"/>
				<stop  offset="0.74" style="stop-color:#B8C9C8"/>
				<stop  offset="0.98" style="stop-color:#B3C6C5"/>
			</linearGradient>
			<path class="st6" d="M1021.5,509.9l-1056.7-5.4L-491.9,600l1513.5-7.9L1021.5,509.9z"/>
			<path class="st7" d="M-43.3,504.6c0.3,3.8,0,7.3-3.4,9.9c-0.8,0.6-1.7,1.2-2.7,1.5c57.3,2.1,129,4.5,158,4
				c16.1,35.5,84.1,37,123.6,0.2l359.5,7.9l-6.8,14.4c-0.9,1.9,0,4.1,1.9,5c0.5,0.2,1,0.3,1.6,0.3l330.4,3c3,0,5.7-1.8,6.8-4.6
				l13.3-36.7L-43.3,504.6z"/>
			
				<linearGradient id="SVGID_7_" gradientUnits="userSpaceOnUse" x1="-457.06" y1="-40.8431" x2="1056.45" y2="-40.8431" gradientTransform="matrix(1 0 0 -1 0 512)">
				<stop  offset="0" style="stop-color:#6F929B"/>
				<stop  offset="0.14" style="stop-color:#7D96A5"/>
				<stop  offset="0.48" style="stop-color:#999EB9"/>
				<stop  offset="0.77" style="stop-color:#ABA2C5"/>
				<stop  offset="0.99" style="stop-color:#B1A4C9"/>
			</linearGradient>
			<path class="st8" d="M-33.2,502.7c107,27.7,215.5,49.7,324.8,66c242.3,35.9,487.9,43.6,732,22.9l-1513.5,8L-33.2,502.7z"/>
			<g class="st9">
				<polyline class="st10" points="-496.2,20.5 -49.4,67.8 1153.5,61.8 				"/>
				<polyline class="st10" points="-497.1,158.6 -37.8,170.4 1098.4,170.4 				"/>
				<polyline class="st10" points="-493,293.4 -493,310.4 -44,276.8 1129.6,276 				"/>
				<polyline class="st10" points="-490,457.1 -30.7,389.6 1071.8,389.6 				"/>
				<polyline class="st10" points="100.5,-169.5 100.5,497.8 -274.2,653.9 				"/>
				<polyline class="st10" points="271.6,-169.5 264.9,503 34.5,676.6 				"/>
				<polyline class="st10" points="440.7,-169.5 437.8,505.9 324.9,736.3 				"/>
			</g>
			<ellipse class="st11" cx="386.5" cy="102.6" rx="19.9" ry="19.4"/>
			<ellipse class="st12" cx="386.5" cy="102.6" rx="13.7" ry="13.4"/>
			<rect x="383.8" y="94.9" class="st13" width="209.2" height="14.5"/>
			<path class="st14" d="M412.9,96.1V204c-1.7,18-3.4,21,23.4,20.4s105.1,0.1,105.1,0.1s18.4,9.5,18-20.4
				c-0.3-29.3-9.5-100.1-4.3-107.9c1.1-6.7,4.3,0,4.3,0l-3.2-6.7H415.2C413.9,91.4,413.1,93.7,412.9,96.1z"/>
			<path class="st15" d="M412.9,199.6c0,0-12,31.6,21.3,24.7c33.3-0.3,105.7,0.1,105.7,0.1s22.8,9.1,19.6-24.8
				c-8.4,0-36.3,5.3-43.1,3.6s-36.8-3-43.4,0.7s-29-0.8-32-2.2S418.4,207.3,412.9,199.6z"/>
			<path class="st16" d="M470.5,89.4c0,0-61.1,19.8-57.6,50.9V96.1l2.3-6.7L470.5,89.4z"/>
			<ellipse class="st17" cx="431" cy="140.9" rx="10" ry="9.1"/>
			<ellipse class="st17" cx="467.2" cy="161.7" rx="8.8" ry="8"/>
			<ellipse class="st17" cx="488.3" cy="132" rx="8.8" ry="8"/>
			<ellipse class="st17" cx="465" cy="106.6" rx="8.8" ry="8"/>
			<ellipse class="st17" cx="488.3" cy="185.7" rx="8.8" ry="8"/>
			<ellipse class="st17" cx="432.8" cy="185.7" rx="8.8" ry="8"/>
			<path class="st18" d="M370.5,552.2h-72.3V409.7c0,0,24.6,0.7,32.8,0.6c11.2-0.1,39.1-1.7,39.1-1.7L370.5,552.2z"/>
			<path class="st19" d="M410.3,320.3H171c0,0.9-0.1,1.8-0.2,2.7c-4.6,70,95,100.2,217.6,83.1c7.6-0.9,14.9-3,21.9-6.1V320.3z"/>
			<path class="st19" d="M243.9,320.3h239.3c0,0.9,0.1,1.8,0.2,2.7c4.6,70-95,100.2-217.6,83.1c-7.6-0.9-14.9-3-21.9-6.1V320.3z"/>
			<path class="st20" d="M349.3,257.3l13.6,0.9l-2.1,24.2l-13.6-0.9c-7.5-0.5-13.1-6.3-12.6-13S341.8,256.8,349.3,257.3z"/>
			<path class="st20" d="M348.3,269.4c-0.6,6.7,5.1,12.5,12.6,13s14.1-4.5,14.6-11.2s-5-12.5-12.6-13S348.8,262.7,348.3,269.4z"/>
			<path class="st20" d="M364.9,290.5c3.7,0,6.8-2.6,7-5.9c0.1-1.5,1.4-80.6,1.5-82.6c1-15.7-6-29-19.1-36.6
				c-12-6.9-27.4-7.9-39.3-2.5c-10.6,4.5-17.7,14.8-18.2,26.3c-0.2,3.4,2.8,6.4,6.6,6.6c4.1,0.1,7.2-2.5,7.4-5.9
				c0.4-7.4,4.1-12.9,10.5-15.8c7.5-3.4,17.5-2.7,25.3,1.8c8.9,5.2,13.4,14.2,12.8,25.5c-0.1,2-1.4,81.1-1.5,82.6
				c-0.2,3.4,2.7,6.4,6.6,6.6L364.9,290.5z"/>
			<path class="st21" d="M349.3,257.3l13.6,0.9l-2.1,24.2l-13.6-0.9c-7.5-0.5-13.1-6.3-12.6-13S341.8,256.8,349.3,257.3z"/>
			<path class="st19" d="M348.3,269.4c-0.6,6.7,5.1,12.5,12.6,13s14.1-4.5,14.6-11.2s-5-12.5-12.6-13S348.8,262.7,348.3,269.4z"/>
			<path class="st22" d="M364.9,290.5c3.7,0,6.8-2.6,7-5.9c0.1-1.5,1.4-80.6,1.5-82.6c1-15.7-6-29-19.1-36.6
				c-12-6.9-27.4-7.9-39.3-2.5c-10.6,4.5-17.7,14.8-18.2,26.3c-0.2,3.4,2.8,6.4,6.6,6.6c4.1,0.1,7.2-2.5,7.4-5.9
				c0.4-7.4,4.1-12.9,10.5-15.8c7.5-3.4,17.5-2.7,25.3,1.8c8.9,5.2,13.4,14.2,12.8,25.5c-0.1,2-1.4,81.1-1.5,82.6
				c-0.2,3.4,2.7,6.4,6.6,6.6L364.9,290.5z"/>
			<ellipse class="st20" cx="327.1" cy="318.5" rx="156.4" ry="37.4"/>
			<path class="st23" d="M188.2,317.7c0,15.6,61,28.3,136.3,28.3s136.3-12.7,136.3-28.3s-61-28.3-136.3-28.3
				S188.2,302.1,188.2,317.7z"/>
			<path class="st24" d="M250.2,319l-38.1-21.7l15.1-21.7c0,0,33.6,29.4,34.1,30L250.2,319z"/>
			<path class="st25" d="M246.6,324.9c0.1,1.6,4.3,14.5,4.8,15.1s8.8,4.3,7.1-6.9l-0.4-2.8c0,0,17.8,12.7,25.1,11.9
				c3.9-0.4-1.7-6-1.7-6s3.1,3.1,2.6-7.2s-12.7-18.3-12.7-18.3S246,308.9,246.6,324.9z"/>
			<path class="st26" d="M284,339.3c-0.6-0.8-1.2-1.5-2-2.2c-0.7-0.7-1.5-1.3-2.2-1.9c-1.5-1.2-3.1-2.4-4.7-3.5
				c-3.2-2.3-6.4-4.5-9.5-6.9c3.5,1.8,6.9,3.8,10.1,6.1c1.6,1.2,3.2,2.4,4.6,3.7C281.9,335.9,283.1,337.5,284,339.3z"/>
			<path class="st26" d="M266.1,335.4c-2.3-0.8-4.5-2.1-6.4-3.6c-1-0.7-1.9-1.5-2.8-2.4c-0.9-0.8-1.7-1.7-2.5-2.7
				c2.1,1.4,4,2.8,5.9,4.3S264.1,333.9,266.1,335.4z"/>
			<path class="st26" d="M284.1,333.5c-0.6-1.8-1.5-3.4-2.7-4.9c-1.1-1.5-2.4-2.9-3.8-4.1c-1.4-1.3-2.8-2.5-4.3-3.7s-3-2.3-4.5-3.5
				c1.7,0.8,3.4,1.7,5,2.8c1.6,1.1,3.1,2.3,4.5,3.6c1.4,1.3,2.7,2.8,3.7,4.4C283.1,329.7,283.8,331.6,284.1,333.5z"/>
			<path class="st27" d="M220.3,313.4c-11,2.8-18.1-3.2-26.8-12.5c-0.9-22,15.1-43.3,16.4-42.2c16.7,13.5,25.6,24.5,30.4,28.4
				C238.8,292.6,226.4,308.2,220.3,313.4z"/>
			<path class="st28" d="M162.6,540.7c0.1,0.9,34-0.9,34-2c0.3-9.5-0.7-28.7-0.6-34.2l-36.2,1.9C161,515.8,162,534.2,162.6,540.7z"
				/>
			<path class="st28" d="M97,545.1c0,0.9,33.9,2,34,0.9c1.1-9.5,1.8-28.6,2.3-34l-36.2-1.3C97.5,520.1,96.9,538.6,97,545.1z"/>
			<path class="st29" d="M199.6,511.2c-5.7,1.2-34.4,3-42.2,2.1c-1.2-16.5-5-85.3-7.9-108.2c-1-8.5-7.8-7.3-8.1,0.2
				c-0.1,3.7-4.3,80.1-4.8,107.8c-11.6,2-31.8,2.2-42.6,0.3c0,0-6-153.1-3.6-175.4c20.3-1.1,88.5,2.9,110,6.6
				C202.8,368,200.6,477.6,199.6,511.2z"/>
			<path class="st27" d="M209.1,288c-3.3,31.6-7.3,70.4-6.9,106.3c-33.5,11-82.8,16.2-115.3-8.6c0,0-0.1-127,36.5-143.8
				c43.8-6,67.3,6.6,87.6,17.5"/>
			<path class="st30" d="M199.1,257.4c0.4-0.9,0.5-1.9,0.4-2.9c-13.1-6.1-37.6-11-54.1-13.2c-0.3,0.6-0.6,1.2-0.8,1.8
				c-3,11.2,6.8,23.6,21.8,27.5S196.1,268.6,199.1,257.4z"/>
			<path class="st31" d="M243.6,309.4c-21.2-5.8-51.5-19.9-61.1-25c-19.4-10.7-37.9-22.9-55.3-36.7c-18.4,7.2-26.5,35.5-8,54.5
				c8.4,8.6,25.7,23.4,32.7,28.1c2.6-3.1,7.9-8.1,11.3-12.4c15.3,8.4,56.8,12.5,83,13.3C247.8,331.2,245.7,310,243.6,309.4z"/>
			<path class="st24" d="M246.1,331.1c1.6,0-0.4-21.2-2.5-21.7c-21.2-5.8-38.7-11.1-60.3-19.9c-3.7-1.5-19.2-15.7-21.9-15.4
				c-7.8,6.2-16.3,11.8-25.5,20.9c13.3,12.4,25.3,19.3,30.9,21.6C177.2,320.7,220,330.3,246.1,331.1z"/>
			<path class="st24" d="M232.6,306.2l10.3,2.2c0,0,5-7.3,11.2-11.8c6.2-4.5,8.3-3.2,13.3-7.2s1.4,4.7,1,5.9c0,0,7.6-1.3,10.7-0.3
				s5.5,0.8,9,14.9c0,0,4.3,8.4-0.2,8.3c-0.1,0.1-0.1,0.2-0.1,0.4c-0.3,2.2,3.3,8-4.1,6.7c2.2,0.2-15.1-6.1-15.1-6.1
				s-5.6,6.7-23.6,13l-25.5-3.7"/>
			<path class="st26" d="M287.5,319c-1-1.3-2.3-2.4-3.7-3.2c-1.4-0.8-2.9-1.5-4.5-2.2c-3.1-1.3-6.2-2.4-9.4-3.5
				c3.4,0.4,6.6,1.3,9.8,2.6c1.6,0.7,3.1,1.5,4.5,2.4C285.6,316.1,286.8,317.4,287.5,319z"/>
			<path class="st26" d="M287.6,310.2c-1-1.3-2.3-2.4-3.7-3.2c-1.4-0.8-2.9-1.5-4.5-2.2c-3.1-1.3-6.2-2.4-9.4-3.5
				c3.4,0.4,6.6,1.3,9.8,2.6c1.6,0.7,3.1,1.5,4.5,2.4C285.7,307.3,286.9,308.6,287.6,310.2z"/>
			<path class="st27" d="M141.7,257.5c18.4,14.7,35.6,25.8,38.5,28c-5.4,9.7-20.7,29-29.1,39.1c-10.9-7.6-21.3-15.7-31.4-24.4
				c-26.2-23.3-14.7-51.3,3.7-58.4"/>
			<path class="st24" d="M198.4,224.4l-7.9,33.2c-1.7,7.1-12.2,10.8-23.4,8.1s-19-10.6-17.3-17.7l7.9-33.2L198.4,224.4z"/>
			<path class="st32" d="M197.2,228.5c-13.4-2.5-28.4-4.7-40.4-5.7c-0.3,0.6-0.6,1.3-0.8,1.9c-2.5,12,8.5,24.4,24.6,27.6
				c3.5,0.7,7.1,0.9,10.7,0.6L197.2,228.5z"/>
			<path class="st24" d="M247.7,206.9c-6.7,8.5-17.2,10.6-24.4,5.6s-3.1-9.7,3.6-18.2s6.7-7.4,15.3-9.5
				C261,180.1,254.4,198.4,247.7,206.9z"/>
			<path class="st33" d="M244.3,189.3c1.3-0.2,2.6,0.1,3.6,1c1.2,1.2,1,3.1,0.5,4.8c-1.7,5.6-5.7,10.5-10.6,14
				c-0.8,0.6-1.7,1.1-2.6,1.3c-1,0.3-2,0-2.7-0.8c-0.6-0.9-0.6-2.1,0-3.1c1.3-2.4,4.1-3.7,6.5-5.1c0.7-0.4,1.3-0.9,1.7-1.5
				c0.4-0.6,0.5-1.4,0.1-2.1c-0.4-0.5-0.9-0.8-1.5-1c-1.2-0.4-2.4-0.6-3.6-0.7c-0.2-1.8,1.7-3.2,3-4.2
				C240.3,190.6,242.2,189.6,244.3,189.3z"/>
			<path class="st24" d="M239.9,142.5c-27.7-23.6,18.1-38.8-23.5-45.9c-40.4-6.9-67.6,9-75,43.6c-3.4,16-1.4,33.9-1.6,34.7
				c-11.8,40.1,18.5,66.7,43,70.9c10.7,1.8,22.6-1.3,33.5-7c13.2-6.9,24.7-19,30-47.7C246.4,190.2,263,162.1,239.9,142.5z"/>
			<path class="st33" d="M169.6,128c0,0,6.4,13.4,51.7,21.3l-0.1-6.2c0,0,1.2,8.8,26.6,18l-1.8,32.6l19.7-65.3L171.5,104l-17.4,12.1
				l-2.6,18c0,0-15.8,34.1-16.4,46.5l1.9-1.7c7.1-6.5,12.7-14.5,16.5-23.5l0,0C153.5,155.4,162,160.8,169.6,128z"/>
			<path class="st34" d="M167.6,118.4c0,0-7.2,13.1,52.7,27.2c0,0-1.4-1-4.1-15.9c3.6,18.4,19.3,21.7,30.1,27.3l8.2-16.7l-8.5,53.3
				c0,0,8.6-14.4,11.4-20.7c0,0,9-17.3,8.3-29.6c0.9,3.9,1.4,7.9,1.5,11.9c0,0,15.6-26.7-17.9-57.2c0,0,8-0.5,16.4,5.7
				c0,0-13.5-22.7-49-30.5c-18.6-4.1-32.6-7.3-44.5,9.1c0,0-19.1-19.4-34.5,6.3c0,0,17.4-5.1,20.7,2.1c0,0-19.1-1-28.8,24.5
				c-9.1,24.1-6,43.2,3.8,64.3c0,0,16.9-12.5,18.1-35.3l3.5,9.4C155.1,153.7,166.3,148.8,167.6,118.4z"/>
			<path class="st24" d="M137.9,196.7c-10.2,6.1-18.6-2.1-20.4-12.2s0.1-29.4,13-18.6c4.8,3.1,8,8.3,8.5,14"/>
			<path class="st33" d="M127.1,169.4c-0.9-0.7-2.2-0.8-3.2-0.3c-1.4,0.7-2,2.6-2.3,4.2c-0.8,5.7,0.2,11.5,2.8,16.6
				c0.3,0.8,0.9,1.5,1.5,2.1c0.7,0.6,1.6,0.7,2.4,0.2c0.8-0.7,1.3-1.7,1.2-2.8c0-2.7-1.7-4.8-3-7c-0.4-0.6-0.6-1.3-0.8-1.9
				c-0.1-0.7,0.2-1.5,0.7-2c0.4-0.3,1-0.5,1.5-0.4c1.1,0.1,2.1,0.3,3.1,0.6c0.8-1.6-0.1-3.5-0.7-4.9
				C129.8,172,128.6,170.5,127.1,169.4z"/>
			<path class="st35" d="M197.8,200.3c6.8,8,14.8,2.6,15.3-0.7c0,0,0.9-3.5-2.6-7.5s-0.6-13.6-0.6-13.6"/>
			<path class="st36" d="M197.9,200.3c1,1.2,2.2,2.2,3.6,2.9c2.7,1.5,6.1,1.4,8.7-0.3c0.6-0.4,1.2-0.9,1.7-1.5
				c0.5-0.5,0.8-1.2,0.9-1.9l0,0c0.2-1.7-0.2-3.5-1.2-5c-0.5-0.8-1-1.5-1.6-2.2c-0.6-0.8-1.1-1.7-1.3-2.7c-0.4-1.9-0.5-3.8-0.2-5.7
				c0.2-1.9,0.7-3.7,1.3-5.5h0.1c-0.4,1.8-0.7,3.6-0.8,5.5c-0.1,1.8,0,3.6,0.4,5.4c0.2,0.8,0.6,1.6,1.2,2.3c0.6,0.7,1.2,1.5,1.7,2.3
				c1,1.7,1.4,3.7,1.1,5.7l0,0c-0.2,0.8-0.6,1.6-1.2,2.2c-0.5,0.6-1.2,1.1-1.9,1.6c-1.4,0.8-3,1.3-4.6,1.3c-1.6,0-3.2-0.5-4.6-1.3
				c-1.3-0.8-2.5-1.9-3.5-3.1L197.9,200.3z"/>
			<path class="st37" d="M194.7,152.7c0,0,0.7-3.5-4.9-4.2s-13.8,4.2-14.8,8C175,156.5,187.1,149.7,194.7,152.7z"/>
			<path class="st37" d="M215.9,158.3c1.2-2,3.5-3,5.7-2.4c4.1,0.8,8.9,6.3,8.7,9.2C230.3,165.1,222,157.9,215.9,158.3z"/>
			<path class="st38" d="M174.3,206.4c1.3,4.8,5.6,20,16.5,24.1c6.6,2.5,11.2-2.3,15.3-5.5c1.1-0.8,2.1-1.7,3.1-2.6l0,0
				c0.5-0.5,1.1-0.9,1.6-1.4c1.4-1.2,2.8-2.3,4.4-3.2l0,0c0.4-0.2,0.7-0.4,1.1-0.6c0.1-0.1,0.3-0.2,0.4-0.2c0,0-11.3,3.4-39.2-10.2
				l-2.3-1.3l-0.9-0.5l-0.5-0.3C173.8,204.5,174,205.2,174.3,206.4z"/>
			<path class="st39" d="M202.2,226.4c-1.5-1.9-3.8-3.1-6.2-3.1c-3.5-1.7-7.5-2-11.2-0.8C184.8,222.5,192.7,231,202.2,226.4z"/>
			<path class="st40" d="M174.3,204.8c10.5,15,22.7,18.2,29.9,17.8c3.1-0.2,4.2-5.3,9-4.4c1.1-0.3,2.1-0.6,3.1-1.1
				c0.1-0.1,0.3-0.2,0.4-0.2c0,0-11.3,3.4-39.2-10.2l-2.3-1.3L174.3,204.8z"/>
			<path class="st41" d="M174.3,206.4c1.3,4.8,5.6,20,16.5,24.1c6.6,2.5,11.2-2.3,15.3-5.5C193,231.6,184.3,226.9,174.3,206.4z"/>
			<path class="st41" d="M175.2,205.3c19.6,16,34.2,14.1,39.9,12.4l0,0h0.1c0.3-0.2,0.7-0.4,1-0.6c0.1-0.1,0.3-0.2,0.4-0.2
				c0,0-11.3,3.4-39.2-10.2L175.2,205.3z"/>
			<path class="st39" d="M175.8,203c0,0-3.7-0.4-3.1,3.8C172.8,206.8,171.6,201.3,175.8,203z"/>
			<path class="st39" d="M216.3,215.4c0,0,2,1.1-0.1,3.7C216.2,219.1,219.4,216.8,216.3,215.4z"/>
			
				<ellipse transform="matrix(0.1233 -0.9924 0.9924 0.1233 -10.4298 335.6155)" class="st42" cx="184.7" cy="173.7" rx="11.3" ry="10.2"/>
			
				<ellipse transform="matrix(0.1255 -0.9921 0.9921 0.1255 -14.4791 339.8939)" class="st37" cx="185.6" cy="178.2" rx="6.9" ry="6.4"/>
			<circle class="st43" cx="181.9" cy="174.5" r="1.2"/>
			
				<ellipse transform="matrix(0.1208 -0.9927 0.9927 0.1208 15.7265 376.285)" class="st42" cx="220.3" cy="179.3" rx="11.3" ry="9.4"/>
			
				<ellipse transform="matrix(0.1217 -0.9926 0.9926 0.1217 11.7037 380.619)" class="st37" cx="220.9" cy="183.7" rx="6.9" ry="6"/>
			
				<ellipse transform="matrix(0.1246 -0.9922 0.9922 0.1246 11.7743 373.5778)" class="st43" cx="217.6" cy="180.1" rx="1.2" ry="1.1"/>
			<path class="st44" d="M280.6,311.7c3.6-1.5,7.7,0.2,9.2,3.7c0.9,2.2,0.7,4.8-0.8,6.8c0.9,0.6,1.5,1.5,1.9,2.4c1.4,3,0,6.6-3,7.9
				c-3,1.4-6.6,0-7.9-3c-0.3-0.8-0.5-1.6-0.5-2.4c-0.1,0.1-0.3,0.2-0.5,0.2c-3.4,1.4-7.3-0.2-8.7-3.6c-1.4-3.4,0.2-7.3,3.6-8.7
				c1-0.4,2.1-0.6,3.2-0.5C278,313.4,279.2,312.3,280.6,311.7z"/>
			<path class="st45" d="M281,313.4c3.3-1.4,7.2,0.2,8.5,3.6c0.8,2.1,0.6,4.4-0.7,6.3c0.8,0.6,1.4,1.4,1.8,2.3
				c1.1,2.9-0.3,6.1-3.1,7.2c-2.8,1.1-6-0.2-7.2-3c-0.2-0.6-0.4-1.2-0.4-1.8l-0.4,0.2c-3.2,1.3-6.8-0.2-8.1-3.4s0.2-6.8,3.4-8.1
				c0.9-0.4,2-0.5,3-0.4C278.5,314.9,279.7,313.9,281,313.4z"/>
			
				<linearGradient id="SVGID_8_" gradientUnits="userSpaceOnUse" x1="-2402.5352" y1="2008.3553" x2="-2396.6353" y2="2008.3553" gradientTransform="matrix(-0.38 -0.93 0.93 -0.38 -2491.1799 -1142.26)">
				<stop  offset="1.000000e-02" style="stop-color:#D4F6FF"/>
				<stop  offset="1" style="stop-color:#FFFFFF"/>
			</linearGradient>
			<path class="st46" d="M283.7,314.6c-1.5,0.6-2.3,2.3-1.7,3.9s2.3,2.3,3.9,1.7s2.3-2.3,1.7-3.9c0,0,0,0,0-0.1
				C287,314.7,285.3,314,283.7,314.6C283.8,314.6,283.8,314.6,283.7,314.6z"/>
			
				<linearGradient id="SVGID_9_" gradientUnits="userSpaceOnUse" x1="-2402.5251" y1="1997.4071" x2="-2397.3152" y2="1997.4071" gradientTransform="matrix(-0.38 -0.93 0.93 -0.38 -2491.1799 -1142.26)">
				<stop  offset="1.000000e-02" style="stop-color:#D4F6FF"/>
				<stop  offset="1" style="stop-color:#FFFFFF"/>
			</linearGradient>
			<path class="st47" d="M273.8,319.4c-1.3,0.5-2,2.1-1.4,3.4c0.5,1.3,2.1,2,3.4,1.4c1.3-0.5,2-2.1,1.4-3.4
				C276.6,319.5,275.1,318.9,273.8,319.4C273.8,319.4,273.8,319.4,273.8,319.4z"/>
			
				<linearGradient id="SVGID_10_" gradientUnits="userSpaceOnUse" x1="-2413.1753" y1="2005.1942" x2="-2406.7151" y2="2005.1942" gradientTransform="matrix(-0.38 -0.93 0.93 -0.38 -2491.1799 -1142.26)">
				<stop  offset="1.000000e-02" style="stop-color:#D4F6FF"/>
				<stop  offset="1" style="stop-color:#FFFFFF"/>
			</linearGradient>
			<path class="st48" d="M284.6,325.1c-1.6,0.7-2.4,2.6-1.7,4.2c0.7,1.6,2.6,2.4,4.2,1.7c1.6-0.7,2.4-2.6,1.7-4.2
				C288.1,325.3,286.3,324.5,284.6,325.1C284.6,325.1,284.6,325.1,284.6,325.1z"/>
			<path class="st44" d="M270.1,305.1c2.7-1.1,5.9,0.2,7,2.9c0.7,1.7,0.5,3.6-0.6,5.1c0.7,0.5,1.2,1.1,1.5,1.9
				c0.8,2.4-0.4,5-2.8,5.8c-2.2,0.8-4.6-0.3-5.6-2.4c-0.2-0.5-0.3-1-0.3-1.5l-0.4,0.2c-2.6,1.1-5.6-0.2-6.6-2.8
				c-1.1-2.6,0.2-5.5,2.8-6.6c0,0,0,0,0,0c0.8-0.3,1.6-0.4,2.5-0.4C268.1,306.3,269,305.5,270.1,305.1z"/>
			<path class="st45" d="M270.4,306.3c2.6-1.1,5.5,0.2,6.5,2.7c0.6,1.6,0.5,3.4-0.5,4.8c0.6,0.4,1.1,1,1.4,1.7
				c0.9,2.2-0.2,4.6-2.3,5.5s-4.6-0.2-5.5-2.3l0,0c-0.2-0.4-0.3-0.9-0.3-1.4c-0.1,0.1-0.2,0.1-0.3,0.1c-2.4,1-5.2-0.2-6.2-2.6
				s0.2-5.2,2.6-6.2c0.7-0.3,1.5-0.4,2.3-0.3C268.6,307.5,269.4,306.8,270.4,306.3z"/>
			
				<linearGradient id="SVGID_11_" gradientUnits="userSpaceOnUse" x1="-2390.1052" y1="2000.8776" x2="-2385.6052" y2="2000.8776" gradientTransform="matrix(-0.38 -0.93 0.93 -0.38 -2491.1799 -1142.26)">
				<stop  offset="1.000000e-02" style="stop-color:#D4F6FF"/>
				<stop  offset="1" style="stop-color:#FFFFFF"/>
			</linearGradient>
			<path class="st49" d="M272.5,307.3c-1.1,0.5-1.7,1.8-1.2,3s1.8,1.7,3,1.2c1.1-0.5,1.6-1.8,1.2-2.9
				C275.1,307.3,273.8,306.8,272.5,307.3C272.6,307.2,272.5,307.2,272.5,307.3z"/>
			
				<linearGradient id="SVGID_12_" gradientUnits="userSpaceOnUse" x1="-2390.0952" y1="1992.4406" x2="-2386.1138" y2="1992.4406" gradientTransform="matrix(-0.38 -0.93 0.93 -0.38 -2491.1799 -1142.26)">
				<stop  offset="1.000000e-02" style="stop-color:#D4F6FF"/>
				<stop  offset="1" style="stop-color:#FFFFFF"/>
			</linearGradient>
			<path class="st50" d="M264.9,310.9c-1,0.4-1.5,1.6-1.1,2.6c0.4,1,1.6,1.5,2.6,1.1c1-0.4,1.5-1.6,1.1-2.6
				C267.1,311,266,310.5,264.9,310.9C264.9,310.9,264.9,310.9,264.9,310.9z"/>
			
				<linearGradient id="SVGID_13_" gradientUnits="userSpaceOnUse" x1="-2398.2251" y1="1998.3793" x2="-2393.2952" y2="1998.3793" gradientTransform="matrix(-0.38 -0.93 0.93 -0.38 -2491.1799 -1142.26)">
				<stop  offset="1.000000e-02" style="stop-color:#D4F6FF"/>
				<stop  offset="1" style="stop-color:#FFFFFF"/>
			</linearGradient>
			<path class="st51" d="M273.1,315.3c-1.3,0.5-1.9,2-1.3,3.2s2,1.9,3.2,1.3c1.2-0.5,1.8-1.9,1.3-3.2
				C275.9,315.4,274.4,314.8,273.1,315.3C273.2,315.3,273.2,315.3,273.1,315.3z"/>
			<path class="st44" d="M262.2,306.9c-0.7-3.4-3.9-5.6-7.3-4.9c-2.1,0.4-3.8,1.9-4.6,3.8c-0.9-0.3-1.8-0.4-2.8-0.3
				c-2.8,0.7-4.6,3.5-3.9,6.3c0.6,2.7,3.2,4.4,5.9,4c0.6-0.1,1.1-0.3,1.6-0.6c0,0.1,0,0.3,0.1,0.4c0.7,3.2,3.9,5.2,7.1,4.4
				c3-0.7,5-3.6,4.5-6.7c-0.2-1-0.6-1.8-1.2-2.6C262.3,309.7,262.5,308.3,262.2,306.9z"/>
			<path class="st45" d="M260.8,307.4c-0.6-3.1-3.7-5.2-6.8-4.6c-1.9,0.4-3.6,1.7-4.3,3.6c-0.8-0.3-1.7-0.4-2.6-0.2
				c-2.6,0.6-4.3,3.3-3.6,5.9c0.6,2.5,3,4.1,5.5,3.7c0.5-0.1,1-0.3,1.5-0.6l0.1,0.4c0.6,3,3.5,4.9,6.4,4.4c3-0.6,4.9-3.5,4.4-6.4
				c-0.2-0.9-0.6-1.7-1.1-2.4C260.8,310,261,308.7,260.8,307.4z"/>
			
				<linearGradient id="SVGID_14_" gradientUnits="userSpaceOnUse" x1="256.6187" y1="-173.7249" x2="261.8587" y2="-173.7249" gradientTransform="matrix(0.98 -0.19 -0.19 -0.98 -31.17 185.52)">
				<stop  offset="1.000000e-02" style="stop-color:#D4F6FF"/>
				<stop  offset="1" style="stop-color:#FFFFFF"/>
			</linearGradient>
			<path class="st52" d="M258.5,306c0.3,1.4-0.6,2.8-2.1,3.1c-1.4,0.3-2.8-0.6-3.1-2.1s0.6-2.8,2.1-3.1c0,0,0,0,0,0
				C256.9,303.6,258.2,304.6,258.5,306C258.5,306,258.5,306,258.5,306z"/>
			
				<linearGradient id="SVGID_15_" gradientUnits="userSpaceOnUse" x1="256.6187" y1="-183.4476" x2="261.2468" y2="-183.4476" gradientTransform="matrix(0.98 -0.19 -0.19 -0.98 -31.17 185.52)">
				<stop  offset="1.000000e-02" style="stop-color:#D4F6FF"/>
				<stop  offset="1" style="stop-color:#FFFFFF"/>
			</linearGradient>
			<path class="st53" d="M259.8,315.6c0.2,1.3-0.6,2.5-1.8,2.7c-1.3,0.2-2.5-0.6-2.7-1.8c-0.2-1.3,0.6-2.5,1.8-2.7
				C258.3,313.6,259.5,314.4,259.8,315.6C259.8,315.6,259.8,315.6,259.8,315.6z"/>
			
				<linearGradient id="SVGID_16_" gradientUnits="userSpaceOnUse" x1="247.1587" y1="-176.5463" x2="252.8987" y2="-176.5463" gradientTransform="matrix(0.98 -0.19 -0.19 -0.98 -31.17 185.52)">
				<stop  offset="1.000000e-02" style="stop-color:#D4F6FF"/>
				<stop  offset="1" style="stop-color:#FFFFFF"/>
			</linearGradient>
			<path class="st54" d="M250.3,310.5c0.3,1.6-0.7,3.1-2.3,3.4s-3.1-0.7-3.4-2.3c-0.3-1.6,0.7-3.1,2.3-3.4c0,0,0,0,0,0
				C248.5,307.9,250,308.9,250.3,310.5C250.3,310.5,250.3,310.5,250.3,310.5z"/>
			<path class="st44" d="M272.2,311.4c-0.5-2.6-3-4.3-5.6-3.8c-1.6,0.3-2.9,1.4-3.5,2.9c-0.7-0.3-1.4-0.3-2.1-0.2
				c-2.2,0.4-3.6,2.6-3.1,4.7s2.6,3.6,4.7,3.1c0.4-0.1,0.8-0.2,1.2-0.4c0,0.1,0,0.2,0,0.3c0.5,2.4,2.8,4.1,5.3,3.6
				c2.4-0.5,4.1-2.8,3.6-5.3c-0.1-0.7-0.5-1.4-0.9-2C272.3,313.5,272.4,312.4,272.2,311.4z"/>
			<path class="st45" d="M271.1,311.8c-0.5-2.4-2.8-4-5.2-3.5c-1.5,0.3-2.7,1.3-3.2,2.7c-0.6-0.2-1.3-0.3-2-0.2
				c-2,0.4-3.4,2.4-3,4.4s2.4,3.4,4.4,3c0.4-0.1,0.8-0.2,1.2-0.4c0,0.1,0,0.2,0,0.3c0.5,2.3,2.8,3.7,5.1,3.1
				c2.1-0.5,3.5-2.5,3.2-4.7c-0.1-0.7-0.4-1.3-0.9-1.9C271.1,313.7,271.3,312.7,271.1,311.8z"/>
			
				<linearGradient id="SVGID_17_" gradientUnits="userSpaceOnUse" x1="267.6587" y1="-180.4136" x2="271.6587" y2="-180.4136" gradientTransform="matrix(0.98 -0.19 -0.19 -0.98 -31.17 185.52)">
				<stop  offset="1.000000e-02" style="stop-color:#D4F6FF"/>
				<stop  offset="1" style="stop-color:#FFFFFF"/>
			</linearGradient>
			<path class="st55" d="M269.4,310.7c0.2,1.1-0.5,2.1-1.6,2.3c-1.1,0.2-2.1-0.5-2.3-1.6c-0.2-1.1,0.5-2.1,1.6-2.3
				C268.2,308.9,269.2,309.6,269.4,310.7C269.4,310.7,269.4,310.7,269.4,310.7z"/>
			
				<linearGradient id="SVGID_18_" gradientUnits="userSpaceOnUse" x1="267.6687" y1="-187.8622" x2="271.1987" y2="-187.8622" gradientTransform="matrix(0.98 -0.19 -0.19 -0.98 -31.17 185.52)">
				<stop  offset="1.000000e-02" style="stop-color:#D4F6FF"/>
				<stop  offset="1" style="stop-color:#FFFFFF"/>
			</linearGradient>
			<path class="st56" d="M270.4,318.1c0.2,1-0.4,1.9-1.4,2.1s-1.9-0.4-2.1-1.4c-0.2-1,0.4-1.9,1.4-2.1
				C269.3,316.5,270.2,317.1,270.4,318.1C270.4,318.1,270.4,318.1,270.4,318.1z"/>
			
				<linearGradient id="SVGID_19_" gradientUnits="userSpaceOnUse" x1="260.4487" y1="-182.5963" x2="264.8187" y2="-182.5963" gradientTransform="matrix(0.98 -0.19 -0.19 -0.98 -31.17 185.52)">
				<stop  offset="1.000000e-02" style="stop-color:#D4F6FF"/>
				<stop  offset="1" style="stop-color:#FFFFFF"/>
			</linearGradient>
			<path class="st57" d="M263.1,314.1c0.2,1.2-0.5,2.3-1.7,2.6c-1.2,0.2-2.3-0.5-2.6-1.7c-0.2-1.2,0.5-2.3,1.7-2.6c0,0,0,0,0,0
				C261.7,312.2,262.9,312.9,263.1,314.1C263.1,314.1,263.1,314.1,263.1,314.1z"/>
			<path class="st44" d="M294.1,296.4c3.5,0.2,6.1,3.2,5.9,6.7c-0.1,2.2-1.4,4.1-3.4,5.2c0.4,0.8,0.6,1.8,0.6,2.8
				c-0.2,3-2.8,5.2-5.8,5c-3-0.2-5.2-2.8-5-5.8c0-0.6,0.2-1.2,0.4-1.7h-0.5c-3.3-0.3-5.8-3.1-5.5-6.5c0.3-3.3,3.1-5.8,6.5-5.5
				c1,0.1,1.9,0.4,2.8,0.9C291.3,296.6,292.7,296.2,294.1,296.4z"/>
			<path class="st45" d="M293.7,297.9c3.2,0.2,5.7,3,5.5,6.3c-0.1,2-1.3,3.8-3.1,4.8c0.4,0.8,0.6,1.7,0.5,2.6
				c-0.2,2.8-2.6,4.8-5.4,4.6s-4.8-2.6-4.6-5.4l0,0c0-0.5,0.2-1.1,0.4-1.6h-0.4c-3.1-0.2-5.4-2.9-5.2-6c0.2-3.1,2.9-5.4,6-5.2
				c0.9,0.1,1.8,0.4,2.6,0.9C291.1,298.1,292.4,297.8,293.7,297.9z"/>
			
				<linearGradient id="SVGID_20_" gradientUnits="userSpaceOnUse" x1="-1154.6852" y1="2057.5796" x2="-1149.3651" y2="2057.5796" gradientTransform="matrix(8.000000e-02 -1 1 8.000000e-02 -1670.89 -1004.8)">
				<stop  offset="1.000000e-02" style="stop-color:#D4F6FF"/>
				<stop  offset="1" style="stop-color:#FFFFFF"/>
			</linearGradient>
			<path class="st58" d="M295.5,299.9c-1.5-0.1-2.7,1-2.8,2.5s1,2.7,2.5,2.8c1.5,0.1,2.7-1,2.8-2.5C298,301.3,296.9,300,295.5,299.9
				z"/>
			
				<linearGradient id="SVGID_21_" gradientUnits="userSpaceOnUse" x1="-1154.6852" y1="2047.6281" x2="-1149.9951" y2="2047.6281" gradientTransform="matrix(8.000000e-02 -1 1 8.000000e-02 -1670.89 -1004.8)">
				<stop  offset="1.000000e-02" style="stop-color:#D4F6FF"/>
				<stop  offset="1" style="stop-color:#FFFFFF"/>
			</linearGradient>
			<path class="st59" d="M285.5,299.8c-1.3-0.1-2.4,0.9-2.5,2.2c-0.1,1.3,0.9,2.4,2.2,2.5c1.3,0.1,2.4-0.9,2.5-2.2
				C287.7,301,286.8,299.9,285.5,299.8C285.5,299.8,285.5,299.8,285.5,299.8z"/>
			
				<linearGradient id="SVGID_22_" gradientUnits="userSpaceOnUse" x1="-1164.2751" y1="2054.7065" x2="-1158.4552" y2="2054.7065" gradientTransform="matrix(8.000000e-02 -1 1 8.000000e-02 -1670.89 -1004.8)">
				<stop  offset="1.000000e-02" style="stop-color:#D4F6FF"/>
				<stop  offset="1" style="stop-color:#FFFFFF"/>
			</linearGradient>
			<path class="st60" d="M291.9,308.8c-1.6-0.1-3,1.1-3.1,2.7c-0.1,1.6,1.1,3,2.7,3.1c1.6,0.1,3-1.1,3.1-2.7
				C294.7,310.3,293.5,308.9,291.9,308.8C291.9,308.8,291.9,308.8,291.9,308.8z"/>
			<path class="st44" d="M283.8,289.8c2.5-0.9,5.3,0.5,6.2,3c0.6,1.6,0.3,3.3-0.8,4.6c0.6,0.5,1,1.1,1.2,1.8
				c0.7,2.1-0.4,4.5-2.5,5.2s-4.5-0.4-5.2-2.5c-0.1-0.4-0.2-0.9-0.2-1.3l-0.3,0.1c-2.4,0.8-5-0.4-5.8-2.8c-0.8-2.4,0.4-5,2.8-5.8
				c0.7-0.3,1.5-0.3,2.3-0.2C281.9,290.8,282.8,290.1,283.8,289.8z"/>
			<path class="st45" d="M284,290.9c2.3-0.8,4.9,0.5,5.7,2.8c0.5,1.4,0.2,3-0.7,4.2c0.5,0.4,0.9,1,1.2,1.6c0.4,2.1-0.9,4.1-2.9,4.6
				c-1.7,0.4-3.4-0.5-4.2-2c-0.1-0.4-0.2-0.8-0.2-1.2l-0.3,0.1c-2.2,0.8-4.7-0.4-5.4-2.6c-0.8-2.2,0.4-4.7,2.6-5.4l0,0
				c0.7-0.2,1.4-0.3,2.1-0.2C282.3,291.9,283.1,291.3,284,290.9z"/>
			
				<linearGradient id="SVGID_23_" gradientUnits="userSpaceOnUse" x1="-2226.6992" y1="2053.3486" x2="-2222.6392" y2="2053.3486" gradientTransform="matrix(-0.33 -0.94 0.94 -0.33 -2381.21 -1129.6899)">
				<stop  offset="1.000000e-02" style="stop-color:#D4F6FF"/>
				<stop  offset="1" style="stop-color:#FFFFFF"/>
			</linearGradient>
			<path class="st61" d="M285.8,291.9c-1,0.4-1.6,1.5-1.2,2.6c0.4,1,1.5,1.6,2.6,1.2c1-0.4,1.5-1.5,1.2-2.5
				C288.1,292.1,286.9,291.5,285.8,291.9C285.9,291.8,285.9,291.9,285.8,291.9z"/>
			
				<linearGradient id="SVGID_24_" gradientUnits="userSpaceOnUse" x1="-2226.6892" y1="2045.6759" x2="-2223.1091" y2="2045.6759" gradientTransform="matrix(-0.33 -0.94 0.94 -0.33 -2381.21 -1129.6899)">
				<stop  offset="1.000000e-02" style="stop-color:#D4F6FF"/>
				<stop  offset="1" style="stop-color:#FFFFFF"/>
			</linearGradient>
			<path class="st62" d="M278.8,294.8c-0.9,0.3-1.4,1.4-1.1,2.3c0.3,0.9,1.4,1.4,2.3,1.1c0.9-0.3,1.4-1.4,1.1-2.3
				C280.8,295,279.7,294.5,278.8,294.8z"/>
			
				<linearGradient id="SVGID_25_" gradientUnits="userSpaceOnUse" x1="-2234.0193" y1="2051.0488" x2="-2229.5791" y2="2051.0488" gradientTransform="matrix(-0.33 -0.94 0.94 -0.33 -2381.21 -1129.6899)">
				<stop  offset="1.000000e-02" style="stop-color:#D4F6FF"/>
				<stop  offset="1" style="stop-color:#FFFFFF"/>
			</linearGradient>
			<path class="st63" d="M286,299.1c-1.2,0.4-1.8,1.7-1.4,2.8c0.4,1.2,1.7,1.8,2.8,1.4l0,0c1.2-0.4,1.8-1.6,1.4-2.8c0,0,0,0,0,0
				C288.4,299.3,287.2,298.7,286,299.1z"/>
			<path class="st44" d="M277.2,297c-0.4-3.1-3.3-5.2-6.3-4.8c-1.9,0.3-3.5,1.5-4.3,3.2c-0.8-0.4-1.6-0.5-2.5-0.4
				c-2.6,0.3-4.4,2.7-4.1,5.3c0.3,2.6,2.7,4.4,5.3,4.1c0.6-0.1,1.1-0.2,1.6-0.5c0,0.1,0,0.3,0,0.4c0.4,2.9,3.1,5,6,4.6
				c2.9-0.4,5-3.1,4.6-6c-0.1-0.9-0.5-1.7-1-2.4C277.1,299.5,277.4,298.3,277.2,297z"/>
			<path class="st45" d="M275.9,297.4c-0.5-2.8-3.2-4.8-6-4.3c-1.7,0.3-3.1,1.4-3.9,2.9c-0.7-0.3-1.5-0.4-2.3-0.3
				c-2.4,0.3-4.1,2.6-3.8,5c0.3,2.4,2.6,4.1,5,3.8c0.5-0.1,1-0.2,1.4-0.5c0,0.1,0,0.3,0,0.4c0.3,2.7,2.8,4.7,5.5,4.4
				s4.7-2.8,4.4-5.5c-0.1-0.9-0.4-1.7-1-2.5C275.8,299.7,276.1,298.5,275.9,297.4z"/>
			
				<linearGradient id="SVGID_26_" gradientUnits="userSpaceOnUse" x1="269.6771" y1="-8.7733" x2="274.4071" y2="-8.7733" gradientTransform="matrix(0.9903 -0.1387 -0.1387 -0.9903 1.0198 325.3795)">
				<stop  offset="1.000000e-02" style="stop-color:#D4F6FF"/>
				<stop  offset="1" style="stop-color:#FFFFFF"/>
			</linearGradient>
			<path class="st64" d="M274,296c0.2,1.3-0.7,2.5-2,2.7c-1.3,0.2-2.5-0.7-2.7-2c-0.2-1.3,0.7-2.5,2-2.7c0,0,0,0,0,0
				C272.6,293.8,273.8,294.7,274,296z"/>
			
				<linearGradient id="SVGID_27_" gradientUnits="userSpaceOnUse" x1="269.6754" y1="-17.538" x2="273.8554" y2="-17.538" gradientTransform="matrix(0.9903 -0.1387 -0.1387 -0.9903 1.0198 325.3795)">
				<stop  offset="1.000000e-02" style="stop-color:#D4F6FF"/>
				<stop  offset="1" style="stop-color:#FFFFFF"/>
			</linearGradient>
			<path class="st65" d="M274.6,304.8c0.2,1.1-0.6,2.2-1.8,2.3c-1.1,0.2-2.2-0.6-2.3-1.8c-0.2-1.1,0.6-2.2,1.8-2.3
				C273.4,302.8,274.5,303.6,274.6,304.8C274.6,304.8,274.6,304.8,274.6,304.8z"/>
			
				<linearGradient id="SVGID_28_" gradientUnits="userSpaceOnUse" x1="261.1454" y1="-11.3289" x2="266.3154" y2="-11.3289" gradientTransform="matrix(0.9903 -0.1387 -0.1387 -0.9903 1.0198 325.3795)">
				<stop  offset="1.000000e-02" style="stop-color:#D4F6FF"/>
				<stop  offset="1" style="stop-color:#FFFFFF"/>
			</linearGradient>
			<path class="st66" d="M266.3,299.7c0.2,1.4-0.8,2.7-2.2,2.9c-1.4,0.2-2.7-0.8-2.9-2.2c-0.2-1.4,0.8-2.7,2.2-2.9c0,0,0,0,0,0
				C264.8,297.3,266.1,298.2,266.3,299.7C266.3,299.7,266.3,299.7,266.3,299.7z"/>
			<path class="st44" d="M285.4,295.6c-0.3-2.3-2.5-4-4.8-3.6c-1.5,0.2-2.7,1.1-3.3,2.5c-0.6-0.3-1.2-0.4-1.9-0.3
				c-2,0.3-3.3,2.1-3,4.1c0.3,1.9,2.1,3.3,4,3c0.4-0.1,0.8-0.2,1.1-0.4c0,0.1,0,0.2,0,0.3c0.4,2.2,2.5,3.7,4.7,3.4
				c2.1-0.4,3.6-2.3,3.4-4.5c-0.1-0.7-0.4-1.3-0.8-1.8C285.3,297.5,285.5,296.5,285.4,295.6z"/>
			<path class="st45" d="M284.4,295.9c-0.3-2.2-2.4-3.7-4.5-3.4c-1.3,0.2-2.5,1.1-3,2.3c-0.6-0.2-1.2-0.3-1.8-0.3
				c-1.8,0.3-3.1,2.1-2.7,3.9c0.3,1.7,1.9,3,3.7,2.8c0.4-0.1,0.7-0.2,1.1-0.4v0.3c0.4,2.1,2.4,3.4,4.4,3.1c1.9-0.4,3.3-2.1,3.1-4.1
				c-0.1-0.6-0.3-1.2-0.7-1.7C284.3,297.6,284.5,296.8,284.4,295.9z"/>
			
				<linearGradient id="SVGID_29_" gradientUnits="userSpaceOnUse" x1="279.7954" y1="-8.8254" x2="283.4054" y2="-8.8254" gradientTransform="matrix(0.9903 -0.1387 -0.1387 -0.9903 1.0198 325.3795)">
				<stop  offset="1.000000e-02" style="stop-color:#D4F6FF"/>
				<stop  offset="1" style="stop-color:#FFFFFF"/>
			</linearGradient>
			<path class="st67" d="M282.9,294.8c0.1,1-0.5,1.9-1.5,2.1c-1,0.1-1.9-0.5-2.1-1.5c-0.1-1,0.5-1.9,1.5-2.1c0,0,0,0,0.1,0
				C281.9,293.2,282.7,293.8,282.9,294.8z"/>
			
				<linearGradient id="SVGID_30_" gradientUnits="userSpaceOnUse" x1="279.7954" y1="-15.5278" x2="282.9854" y2="-15.5278" gradientTransform="matrix(0.9903 -0.1387 -0.1387 -0.9903 1.0198 325.3795)">
				<stop  offset="1.000000e-02" style="stop-color:#D4F6FF"/>
				<stop  offset="1" style="stop-color:#FFFFFF"/>
			</linearGradient>
			<path class="st68" d="M283.4,301.5c0.1,0.9-0.5,1.7-1.3,1.8s-1.7-0.5-1.8-1.3c-0.1-0.9,0.5-1.7,1.3-1.8c0,0,0,0,0,0
				C282.5,300,283.3,300.6,283.4,301.5C283.4,301.5,283.4,301.5,283.4,301.5z"/>
			
				<linearGradient id="SVGID_31_" gradientUnits="userSpaceOnUse" x1="273.2854" y1="-10.7985" x2="277.2354" y2="-10.7985" gradientTransform="matrix(0.9903 -0.1387 -0.1387 -0.9903 1.0198 325.3795)">
				<stop  offset="1.000000e-02" style="stop-color:#D4F6FF"/>
				<stop  offset="1" style="stop-color:#FFFFFF"/>
			</linearGradient>
			<path class="st69" d="M277,297.6c0.2,1.1-0.6,2.1-1.7,2.3c-1.1,0.2-2.1-0.6-2.3-1.7s0.6-2.1,1.7-2.3c0,0,0,0,0.1,0
				C275.9,295.8,276.9,296.5,277,297.6z"/>
		</g>
	</g>
	
		<radialGradient id="SVGID_32_" cx="4079.4492" cy="1573.3959" r="477.2769" gradientTransform="matrix(0.51 0 0 -0.48 -1815.15 1010.2401)" gradientUnits="userSpaceOnUse">
		<stop  offset="0" style="stop-color:#FFFFFF"/>
		<stop  offset="0.43" style="stop-color:#D3F9FC"/>
	</radialGradient>
	<path class="st70" d="M490.8,255c0,126.4-108.1,228.9-241.4,228.9S8,381.4,8,255S116.1,26.2,249.4,26.2S490.8,128.6,490.8,255z"/>
	<path class="st71" d="M263.4,459.4C130.1,459.4,22,357,22,230.6c0-32.7,7.3-64.9,21.4-94.4c-2.6,3.9-5.2,7.9-7.5,11.9
		C15.8,181.9,5.2,220.4,5.3,259.7c0,126.4,108.1,228.9,241.4,228.9c97.8,0,182-55.2,220-134.5C423.7,417.4,348.7,459.4,263.4,459.4z
		"/>
	<path class="st72" d="M69.3,173.8c9.8-35.6,38.8-70.1,98.7-91.8c6.7-2.5,10.1-9.9,7.6-16.6c-0.7-1.8-1.7-3.4-3-4.7l-1.2-1.2
		c-3.4-3.3-8.3-4.6-12.9-3.2C136.1,63,77.8,96.2,58.7,171c-0.6,2.3,0.4,4.6,2.3,5.9l0.1,0.1c2.5,1.6,5.9,0.9,7.5-1.6
		C69,174.9,69.2,174.3,69.3,173.8z"/>
	<circle class="st72" cx="61" cy="192.9" r="8.2"/>
</g>
</svg>
