<?xml version="1.0" encoding="utf-8"?>
<!-- Generator: Adobe Illustrator 25.2.3, SVG Export Plug-In . SVG Version: 6.00 Build 0)  -->
<svg version="1.1" id="Layer_1" xmlns="http://www.w3.org/2000/svg" xmlns:xlink="http://www.w3.org/1999/xlink" x="0px" y="0px"
	 viewBox="0 0 510 510" style="enable-background:new 0 0 510 510;" xml:space="preserve">
<style type="text/css">
	.st0{opacity:0.3;enable-background:new    ;}
	.st1{opacity:0.91;fill:url(#SVGID_1_);enable-background:new    ;}
	.st2{clip-path:url(#SVGID_3_);}
	.st3{clip-path:url(#SVGID_5_);}
	.st4{fill:#E5E5B1;}
	.st5{fill:#9B2A55;stroke:#323232;stroke-miterlimit:10;}
	.st6{fill:#707375;}
	.st7{fill:#858889;}
	.st8{fill:#4C4E51;}
	.st9{fill:#306068;}
	.st10{fill:#6BA3B2;}
	.st11{fill:#FFFFFF;stroke:#552168;stroke-miterlimit:10;}
	.st12{fill:#FFFFFF;}
	.st13{fill:#E5BBB1;stroke:#5E432E;stroke-miterlimit:10;}
	.st14{fill:#8BBFD1;}
	.st15{fill:#565A63;}
	.st16{fill:#44474F;}
	.st17{fill:#334872;}
	.st18{fill:#283A56;}
	.st19{fill:#686868;}
	.st20{fill:#23334C;}
	.st21{fill:#313338;}
	.st22{fill:#EA5B28;}
	.st23{fill:#F2961D;}
	.st24{fill:#EFD01B;}
	.st25{fill:#7C7C7C;}
	.st26{fill:#353535;}
	.st27{fill:#474747;}
	.st28{opacity:0.29;fill:#FFFFFF;enable-background:new    ;}
	.st29{fill:#EAC583;}
	.st30{fill:#ED7E5D;}
	.st31{fill:#EFE1A5;}
	.st32{opacity:0.6;fill:#FFFFFF;enable-background:new    ;}
	.st33{fill:#70B4F2;}
	.st34{fill:#C2E0F2;stroke:#453323;stroke-width:0.75;stroke-miterlimit:10;}
	.st35{fill:#EBF3F7;}
	.st36{fill:#99D3FF;}
	.st37{opacity:0.58;fill:#9DCFF4;enable-background:new    ;}
	.st38{fill:#9DCFF4;}
	.st39{fill:#DFECF4;}
	.st40{fill:#88B8D1;stroke:#453323;stroke-width:0.75;stroke-miterlimit:10;}
	.st41{fill:none;stroke:#453323;stroke-width:0.75;stroke-miterlimit:10;}
	.st42{fill:#72A2B7;}
	.st43{fill:#E6F5FF;}
	.st44{fill:#56A1D8;}
	.st45{opacity:0.38;fill:#EDF2F9;stroke:#5E432E;stroke-miterlimit:10;enable-background:new    ;}
	.st46{fill:#422B27;stroke:#453323;stroke-width:0.75;stroke-miterlimit:10;}
	.st47{fill:#704B48;stroke:#453323;stroke-width:0.75;stroke-miterlimit:10;}
	.st48{fill:#FBD3C7;stroke:#5E432E;stroke-miterlimit:10;}
	.st49{fill:#FFF7F5;stroke:#99755B;stroke-width:0.75;stroke-miterlimit:10;}
	.st50{fill:#CC8B81;}
	.st51{opacity:0.1;fill:url(#SVGID_6_);enable-background:new    ;}
	.st52{opacity:0.5;fill:#4ECECE;enable-background:new    ;}
	.st53{opacity:0.6;fill:#FDFFFF;enable-background:new    ;}
</style>
<circle class="st0" cx="262.3" cy="262.3" r="242.7"/>
<g id="_01-2">
	
		<radialGradient id="SVGID_1_" cx="-2315.0833" cy="1156.5938" r="584.4596" gradientTransform="matrix(0.48 0 0 -0.48 1362.91 803.96)" gradientUnits="userSpaceOnUse">
		<stop  offset="0" style="stop-color:#FFFFFF"/>
		<stop  offset="0.61" style="stop-color:#D3F9FC"/>
		<stop  offset="0.93" style="stop-color:#48E5FF"/>
	</radialGradient>
	<path class="st1" d="M490.2,248.8c0,133.4-108.6,241.6-242.6,241.6S5,382.2,5,248.8S113.6,7.2,247.6,7.2S490.2,115.3,490.2,248.8z"
		/>
	<g>
		<defs>
			<ellipse id="SVGID_2_" cx="248.3" cy="246.1" rx="242.2" ry="241.1"/>
		</defs>
		<clipPath id="SVGID_3_">
			<use xlink:href="#SVGID_2_"  style="overflow:visible;"/>
		</clipPath>
		<g class="st2">
			<g>
				<defs>
					<rect id="SVGID_4_" x="-77.7" y="4" width="650.4" height="511"/>
				</defs>
				<clipPath id="SVGID_5_">
					<use xlink:href="#SVGID_4_"  style="overflow:visible;"/>
				</clipPath>
				<g class="st3">
					<rect x="-84.7" y="6.3" class="st4" width="662" height="531.7"/>
					<polygon class="st5" points="338,-30.4 324,89.5 350.6,418.8 -46.3,517.9 -86.7,427.4 -37,235.7 5,72 -14.6,-61.6 					"/>
					<path class="st6" d="M578.5,381.5v135.8c0,0.2-0.1,0.3-0.3,0.3H-41.1c-0.3,0-0.4-0.6,0-0.6l0,0c0.1,0,0.1,0,0.2-0.1l39.4-44.8
						l46.9-53.3l33.1-37.6c0-0.1,0.1-0.1,0.2-0.1h499.6C578.4,381.3,578.5,381.4,578.5,381.5z"/>
					<polygon class="st7" points="578.5,381.2 578.5,418.9 45.4,418.9 78.5,381.2 78.5,381.2 					"/>
					<polygon class="st8" points="578.5,472.2 578.5,517.6 -44.6,517.6 -41,517 -1.6,472.2 					"/>
					<ellipse class="st9" cx="224.5" cy="432.1" rx="131.2" ry="32"/>
					<ellipse class="st10" cx="227.7" cy="421.6" rx="118.3" ry="28.9"/>
					<path class="st11" d="M-0.9,62.3c0,0,86.1,27.3,164.8,28.3c0,0,140.6,5.3,158.5-21c0,0,10.9,9.8,0.4,29.7
						c0,0-79.1,23.8-156.7,9.1c0,0-109.1,5.3-166.9-25.2C-0.9,83.2-20.8,73.8-0.9,62.3z"/>
					<path class="st12" d="M181.7,99c0,0-41.9,2.3-28.2,61.3s41.9-51.1,41.9-51.1l-11.1,1.1c0,0-12.8,47.6-22.2,55.6
						S117.5,102.4,181.7,99z"/>
					<path class="st12" d="M185.6,89.4c0,0,78.7,28.3,63,65.1s-40.9,9.9-65.1-53.8c0,0,43,77.9,52.5,55.9S229.7,120.9,185.6,89.4z"
						/>
					<path class="st12" d="M143.8,69c1.5,0.5,1.2-2.1,0.8-3.6c-0.7-2.5,1.2-5.2,3.6-6.2s5.2-0.6,7.7,0c10.9,2.9,19.9,10.8,24.1,21.3
						c3-6.1,6.1-12.2,10.5-17.3s10.5-9.1,17.2-9.8c1.2-0.2,2.3,0,3.4,0.5c1.2,0.8,1.7,2.2,2.1,3.5c1.7,5.1,3.3,10.9,1,15.8
						c-1.4,3-4,5.1-6.5,7.2l-17.4,14.2c5.2-2.8,11-4.6,16.9-5.2c3.7,4,1,11-3.8,13.6c-10.1,5.4-23.8,1.2-31.5-5.7
						C164.1,90.2,154,72.2,143.8,69z"/>
					<path class="st13" d="M31.6,103.5c0,0,19.6,37.4,13.6,58.8S25,146.5,27.4,119.9S31.6,103.5,31.6,103.5z"/>
					<ellipse class="st14" cx="220.7" cy="415.2" rx="89.3" ry="26.3"/>
					<rect x="149.6" y="401.4" class="st15" width="145.4" height="15.8"/>
					<path class="st15" d="M295.1,417.2c0,8.7-26.6,17.3-73.3,17.3c-40.2,0-72.1-8.5-72.1-17.3s32.6-15.8,72.7-15.8
						S295.1,408.5,295.1,417.2z"/>
					<path class="st16" d="M298.4,401.4c0,8.7-33.7,19.6-76,19.6S145,410.1,145,401.4s34.3-15.8,76.7-15.8S298.4,392.7,298.4,401.4z
						"/>
					<path class="st17" d="M46.4,283.6c-22.3-8.7-45-17.5-69-19.4c-7.2-0.6-15.5-0.1-19.9,5.1c-4.8,5.6-1.6,14.9,5.5,18.3
						c5.1,2.4,11.2,2.2,16.9,2.6c6.4,0.6,12.8,1.7,19.1,3.4c31.1,7.2,61.8,15.3,92.3,24.4c4,1.2,9.1,2.1,11.8-0.8
						c7.8-8.7-11.9-15.9-17.2-17.9L46.4,283.6z"/>
					<path class="st18" d="M75.1,310.8c-34-17.7-72.7-23.1-110.3-30.9c-3-0.6-6-1.4-8.2-3.5c-0.5-0.5-0.9-1.1-1.3-1.7
						c-0.3,5.5,2.8,10.6,7.7,12.9c5.1,2.4,11.2,2.2,16.9,2.6c6.5,0.6,12.9,1.8,19.1,3.4c24.8,5.7,49.4,12.1,73.8,19
						C73.7,312,74.4,311.4,75.1,310.8z"/>
					<path class="st19" d="M68.1,316.7c-1-0.6-1.9-1.3-2.7-2.3c-0.7-1.1-1.1-2.4-1.2-3.7c-0.3-6.1,5-11.4,10.9-13s12.2-0.2,18,1.8
						c5.6,1.9,11,4.5,16.1,7.6c4.7,3,9.6,7.8,8.5,13.3c-1,4.8-6,7.5-10.6,9.1C91.9,334.8,80.3,324.8,68.1,316.7z"/>
					<path class="st17" d="M364.6,345.5c-1.1,18.4-11.6,34.5-27,41.5c-20.5,9.4-56.5,18.6-118.8,18.6c-62.1,0-97.3-8.8-116.9-17.9
						c-14.5-6.7-24.6-21.5-26.6-38.6l-2.5-21.5l293.1-2.8L364.6,345.5z"/>
					<path class="st20" d="M364.6,335.9c-1.1,18.4-11.6,34.5-27,41.5c-20.5,9.4-56.5,23.3-118.9,23.3c-62.1,0-97.2-13.5-116.9-22.5
						c-14.5-6.7-24.6-21.4-26.6-38.6l-1.4-11.9h-1.1l2.5,21.5c2,17.2,12.1,32,26.6,38.6c19.7,9.1,54.8,22.4,116.9,22.4
						c62.3,0,98.4-13.7,118.9-23.1c15.4-7,25.8-23.1,27-41.5l1.3-20.7h-0.6L364.6,335.9z"/>
					<path class="st21" d="M154,412.7c0,2.5-0.8,4.6-1.7,4.6s-1.7-2-1.7-4.6s0.8-4.6,1.7-4.6S154,410.1,154,412.7z"/>
					<path class="st21" d="M167,418c0,2.5-0.8,4.6-1.7,4.6s-1.7-2-1.7-4.6s0.8-4.6,1.7-4.6S167,415.4,167,418z"/>
					<path class="st21" d="M183.1,421.5c0,2.5-0.8,4.6-1.7,4.6s-1.7-2-1.7-4.6s0.8-4.6,1.7-4.6S183.1,418.9,183.1,421.5z"/>
					<path class="st21" d="M199.2,423.4c0,2.5-0.8,4.6-1.7,4.6s-1.7-2-1.7-4.6s0.8-4.6,1.7-4.6S199.2,420.9,199.2,423.4z"/>
					<path class="st21" d="M213.9,426c0,2.5-0.8,4.6-1.7,4.6s-1.7-2-1.7-4.6s0.8-4.6,1.7-4.6S213.9,423.5,213.9,426z"/>
					<path class="st21" d="M226.7,425.8c0,2.5-0.8,4.6-1.7,4.6s-1.7-2-1.7-4.6s0.8-4.6,1.7-4.6S226.7,423.3,226.7,425.8z"/>
					<path class="st21" d="M240.1,424.4c0,2.5-0.8,4.6-1.7,4.6s-1.7-2-1.7-4.6s0.8-4.6,1.7-4.6S240.1,421.9,240.1,424.4z"/>
					<path class="st21" d="M254.2,422.9c0,2.5-0.8,4.6-1.7,4.6s-1.7-2-1.7-4.6s0.8-4.6,1.7-4.6S254.2,420.4,254.2,422.9z"/>
					<path class="st21" d="M269,421.5c0,2.5-0.8,4.6-1.7,4.6s-1.7-2-1.7-4.6s0.8-4.6,1.7-4.6S269,418.9,269,421.5z"/>
					<path class="st21" d="M281.6,417.4c0,2.5-0.8,4.6-1.7,4.6s-1.7-2-1.7-4.6s0.8-4.6,1.7-4.6S281.6,414.9,281.6,417.4z"/>
					<path class="st21" d="M294.8,413.7c0,2.5-0.8,4.6-1.7,4.6s-1.7-2-1.7-4.6s0.8-4.6,1.7-4.6S294.8,411.2,294.8,413.7z"/>
					<path class="st22" d="M136.1,406.4c-1.6-3.1-2.7-6.3-3.3-9.7c0.7,1,2,1.3,3.2,1.5c5.2,1,10.6,2.6,14.2,6.4
						c1.3,1.2,2.2,2.8,2.6,4.5c0.9,4.2-2.4,7.4-6.3,6C142,413.7,138.3,410.5,136.1,406.4z"/>
					<path class="st23" d="M141.3,408.8l-2.6-5.1c1.3,0.6,2.8,1.1,4.2,1.3c2.5,0.6,4.9,1.8,6.9,3.4c0.9,0.6,1.6,1.5,2.1,2.4
						c0.8,1.5,0.3,3.4-1.2,4.2c-0.7,0.4-1.5,0.5-2.2,0.3C144.7,414.7,142.8,411.9,141.3,408.8z"/>
					<path class="st24" d="M142.8,407.7c1.6,1.4,11.3,3.1,8.7,7C148.5,419.1,144.1,408.8,142.8,407.7z"/>
					<path class="st22" d="M218.8,411.9c0.9-2.6,2.3-5.1,4.2-7.2c-0.1,1,0.8,2,1.6,2.8c3.6,3.8,7,8.1,7.3,12.4c0.2,1.4-0.2,2.8-1,4
						c-2.2,2.8-7.3,2.3-9.6-1C218.5,419.3,217.6,415.6,218.8,411.9z"/>
					<path class="st23" d="M221.4,416.4c0.5-1.4,1-2.9,1.5-4.3c0.7,1.3,1.6,2.4,2.6,3.4c1.6,1.8,2.7,3.9,3.3,6.2
						c0.3,0.8,0.3,1.7,0,2.6c-0.9,2.1-4.3,2-6.1,0.1C220,421.7,220.5,419,221.4,416.4z"/>
					<path class="st24" d="M223.5,416.8c0.4,1.7,7.3,8.9,2.2,9.2C220,426.4,223.8,418.3,223.5,416.8z"/>
					<path class="st22" d="M199.8,413.8c-1.2-3.2-1.9-6.6-2.1-10.1c0.6,1.1,1.8,1.5,3,1.9c5,1.6,10.1,3.9,13.3,8.1
						c1.1,1.4,1.8,3.1,2.1,4.8c0.4,4.2-3.3,7-7.1,5.2C204.8,421.8,201.5,418.2,199.8,413.8z"/>
					<path class="st23" d="M204.6,416.8l-2-5.4c1.2,0.8,2.6,1.4,4,1.8c2.4,0.9,4.6,2.4,6.4,4.3c0.8,0.8,1.4,1.7,1.7,2.7
						c0.6,1.6-0.2,3.4-1.8,4c-0.7,0.3-1.5,0.3-2.2,0C207.3,423.1,205.8,420.1,204.6,416.8z"/>
					<path class="st24" d="M206.3,415.9c1.4,1.5,10.8,4.5,7.7,8.1C210.5,428,207.5,417.2,206.3,415.9z"/>
					<path class="st22" d="M185.5,412.9c-1.4-3.1-2.4-6.4-3-9.8c0.7,0.9,1.8,1.6,2.9,1.8c4.8,1.5,9.7,3.5,13.1,7.5
						c1.2,1.3,2,2.9,2.5,4.6c0.8,4.1-2.3,7-5.9,5.3C190.9,420.4,187.5,417.1,185.5,412.9z"/>
					<path class="st23" d="M190.3,415.6c-0.8-1.7-1.6-3.5-2.4-5.3c1.2,0.8,2.5,1.3,3.9,1.7c2.4,0.9,4.5,2.2,6.3,4
						c0.8,0.7,1.4,1.6,1.9,2.6c1.1,2.7-0.8,4.8-3.3,4.1C193.4,421.8,191.7,418.8,190.3,415.6z"/>
					<path class="st24" d="M191.7,414.7c1.5,1.5,10.4,4.1,7.9,7.7C196.8,426.4,192.9,416,191.7,414.7z"/>
					<path class="st22" d="M169.8,411c-0.9-3.3-1.5-6.7-1.6-10.1c0.6,1,1.5,1.8,2.7,2.2c4.5,2.1,9.1,4.8,11.9,9.3
						c1,1.5,1.6,3.2,1.7,5c0.2,4.2-3.3,6.6-6.6,4.4C174,419.3,171.1,415.4,169.8,411z"/>
					<path class="st23" d="M174.1,414.4l-1.6-5.5c1.1,0.9,2.3,1.7,3.6,2.2c2.2,1.2,4.2,2.8,5.7,4.8c0.7,0.8,1.2,1.8,1.5,2.8
						c0.7,2.8-1.5,4.6-3.8,3.6C176.3,420.9,175.1,417.8,174.1,414.4z"/>
					<path class="st24" d="M175.7,413.7c1.2,1.7,9.8,5.5,6.8,8.7C179.1,426,176.7,415.1,175.7,413.7z"/>
					<path class="st22" d="M152.6,407.8c-1.4-3.1-2.4-6.4-3-9.8c0.7,1,1.8,1.6,3,1.8c4.8,1.4,9.7,3.5,13.1,7.5
						c1.2,1.3,2,2.9,2.4,4.6c0.8,4.1-2.3,7-5.9,5.3C157.9,415.3,154.5,412,152.6,407.8z"/>
					<path class="st23" d="M157.4,410.5l-2.4-5.2c1.2,0.7,2.5,1.3,3.9,1.6c2.4,0.9,4.5,2.2,6.4,4c0.8,0.7,1.4,1.6,1.9,2.6
						c1.1,2.7-0.8,4.8-3.3,4.1C160.4,416.7,158.8,413.7,157.4,410.5z"/>
					<path class="st24" d="M158.8,409.6c1.5,1.5,10.4,4,7.9,7.6C163.9,421.3,160,410.8,158.8,409.6z"/>
					<path class="st22" d="M309.5,406.2c1.8-2.9,3.3-6.1,4.2-9.4c-0.8,0.9-2.1,1.1-3.3,1.2c-5.3,0.5-10.8,1.6-14.8,5
						c-1.4,1.1-2.4,2.6-3.1,4.3c-1.3,4,1.7,7.6,5.7,6.6C302.9,412.9,306.9,410.2,309.5,406.2z"/>
					<path class="st23" d="M304.1,408.1l3.1-4.9c-1.4,0.5-2.9,0.8-4.3,0.9c-2.6,0.4-5,1.3-7.2,2.8c-0.9,0.6-1.7,1.3-2.3,2.2
						c-1,1.4-0.6,3.4,0.9,4.3c0.6,0.4,1.4,0.6,2.1,0.5C300.2,413.7,302.3,411.1,304.1,408.1z"/>
					<path class="st24" d="M302.7,406.9c-1.7,1.2-11.6,2-9.3,6.2C296,417.7,301.3,407.9,302.7,406.9z"/>
					<path class="st22" d="M265.3,412.6c1.5-3.1,2.5-6.4,3.2-9.7c-0.7,0.9-1.8,1.5-3,1.7c-4.8,1.4-9.8,3.3-13.2,7.3
						c-1.2,1.3-2.1,2.9-2.5,4.6c-0.9,4.1,2.1,7,5.8,5.4C259.8,420,263.3,416.7,265.3,412.6z"/>
					<path class="st23" d="M260.5,415.3c0.8-1.7,1.6-3.5,2.5-5.2c-1.2,0.7-2.5,1.3-3.9,1.6c-2.4,0.8-4.6,2.1-6.4,3.9
						c-0.8,0.7-1.5,1.6-1.9,2.5c-1.1,2.7,0.7,4.8,3.2,4.1C257.3,421.3,259,418.4,260.5,415.3z"/>
					<path class="st24" d="M259.1,414.3c-1.5,1.4-10.5,3.9-8.1,7.5C253.7,425.9,257.8,415.5,259.1,414.3z"/>
					<path class="st22" d="M279.3,410.7c1.1-3.2,1.8-6.6,2-10c-0.6,1-1.6,1.7-2.8,2.1c-4.6,1.9-9.3,4.4-12.3,8.8
						c-1,1.4-1.7,3.1-1.9,4.9c-0.4,4.2,3,6.8,6.4,4.7C274.8,418.8,277.8,415.1,279.3,410.7z"/>
					<path class="st23" d="M274.9,414l1.8-5.5c-1.1,0.9-2.4,1.5-3.7,2c-2.3,1.1-4.3,2.6-5.9,4.6c-0.7,0.8-1.3,1.7-1.6,2.8
						c-0.8,2.8,1.3,4.7,3.6,3.8C272.4,420.4,273.8,417.3,274.9,414z"/>
					<path class="st24" d="M273.4,413.2c-1.3,1.6-10,5.1-7.1,8.4C269.4,425.3,272.3,414.5,273.4,413.2z"/>
					<path class="st22" d="M293.3,408.3c1.6-3,2.9-6.2,3.7-9.6c-0.8,0.9-1.9,1.4-3.1,1.6c-4.9,1.1-10,2.8-13.6,6.5
						c-1.3,1.2-2.2,2.8-2.7,4.5c-1.1,4.1,1.8,7.2,5.5,5.7C287.5,415.5,291.1,412.4,293.3,408.3z"/>
					<path class="st23" d="M288.4,410.7c0.9-1.7,1.8-3.4,2.8-5.1c-1.3,0.7-2.6,1.1-4,1.4c-2.4,0.7-4.7,1.9-6.6,3.5
						c-0.9,0.7-1.6,1.5-2.1,2.4c-1.3,2.6,0.5,4.8,3,4.3C284.9,416.6,286.7,413.8,288.4,410.7z"/>
					<path class="st24" d="M287,409.7c-1.6,1.4-10.7,3.3-8.5,7C281,421,285.7,410.8,287,409.7z"/>
					<path class="st22" d="M251,412.8c1.1-3.2,1.8-6.6,2-10.1c-0.5,1.1-1.8,1.5-3,1.9c-5,1.7-10.1,4-13.3,8.2
						c-1.1,1.4-1.8,3.1-2,4.8c-0.4,4.2,3.3,7,7.1,5.1C246.1,420.8,249.4,417.2,251,412.8z"/>
					<path class="st23" d="M246.2,415.8c0.7-1.8,1.3-3.6,1.9-5.4c-1.2,0.8-2.6,1.4-4,1.8c-2.4,0.9-4.6,2.4-6.4,4.3
						c-0.8,0.8-1.4,1.7-1.7,2.7c-0.6,1.6,0.2,3.4,1.8,4c0.7,0.3,1.5,0.3,2.2,0C243.6,422.1,245,419.1,246.2,415.8z"/>
					<path class="st24" d="M244.5,414.9c-1.4,1.5-10.8,4.6-7.7,8.1C240.4,427,243.4,416.2,244.5,414.9z"/>
					<path class="st25" d="M365.9,324.8c0,19.9-53.1,38.9-146.9,38.9c-82.2,0-146.2-16.2-146.2-36.1s64-36.1,146.2-36.1
						S365.9,304.8,365.9,324.8z"/>
					<ellipse class="st26" cx="219" cy="326.7" rx="140.5" ry="33.1"/>
					<path class="st27" d="M221.8,321.8c-57.4,0-106.7,8.1-128.5,19.7c23.1,10.8,70.7,18.2,125.6,18.2c57.4,0,106.7-8.1,128.5-19.7
						C324.3,329.2,276.8,321.8,221.8,321.8z"/>
					<path class="st28" d="M135,291.9c4.6-13.2,13.5-25.7,12.3-39.6c-0.7-8.9-5.5-17-6.4-25.9c-0.8-8,1.7-16.1,6.9-22.3
						c-4.3,5.8-3.3,14-0.4,20.6s7.4,12.4,9.9,19.2c3.9,10.7,2.4,22.6-3.8,32c-3.1,4.6-7.3,8.5-10.1,13.2
						c-6.5,10.8-2.3,18.8-0.7,29.7C130.8,318.1,132.5,299.1,135,291.9z"/>
					<path class="st28" d="M189.7,296.2c-1.1-5.8-0.2-11.8,1-17.6c1.5-7.1,3.3-14.1,5.6-21c1.6-4.9,3.4-10,3.3-15.2
						c-0.2-7.7-4.7-14.6-7.3-21.8c-4.4-13-2.7-27.3,4.7-38.9c-4,7.6-4.9,16.4-2.5,24.6c2.1,6.8,6.2,12.6,9.6,18.8
						c4.3,7.7,7.4,16.4,6.6,25.2c-0.6,7.2-3.9,13.9-7.1,20.4s-6.5,13.1-7.3,20.3s1.4,14.6,7.2,19.3C196,310.8,191,302.7,189.7,296.2
						z"/>
					<path class="st28" d="M244.7,289.2c-1-8.1-4.4-15.7-6-23.7s-0.9-17.2,5-22.9c-3.6,5.1-2.6,12.2-0.1,17.9
						c2.5,5.7,6.3,10.9,8.2,16.8c2.4,7.7,1.7,16.1-1.9,23.3c-3.6,7.1-9.5,12.8-16.8,16.1C240.5,308.9,246.1,300.6,244.7,289.2z"/>
					<path class="st28" d="M298.3,286.6c1.6-5.2,4.9-9.7,7.5-14.5s4.8-10.2,3.8-15.6c2.1,5.2,2.3,11,0.4,16.3
						c-1.1,3-2.8,5.7-4.1,8.5c-5.9,12.5-4.5,26.5,1.8,38.5C296.3,315.7,295.3,296.3,298.3,286.6z"/>
					<ellipse class="st29" cx="219.1" cy="340.2" rx="129.3" ry="19.5"/>
					<path class="st30" d="M136,342.4c0,1.2,0.6,2.3,1.5,2.9c1.5,1.1,4.1,1.3,6.4,1.5c4,0.3,8,0.2,12-0.2c3.7-0.4,7.2-1.5,10.4-3.4
						c-4.4-0.3-8.8-0.9-13.1-1.7c-2.5-0.5-5.3-1.3-5.9-2.9c-0.4-1.2,0.9-2.7-1.2-3c-1.6,0.2-3.2,0.6-4.7,1.1
						C137.8,338,136,339.8,136,342.4z"/>
					<path class="st30" d="M242.1,330.8c0.2-1.1-0.2-2.3-1-3c-1.3-1.1-3.8-1.6-6.1-1.9c-4-0.6-8-0.7-12-0.5c-3.8,0.1-7.6,1.1-11,2.7
						c4.3,0.6,8.6,1.4,12.8,2.5c2.4,0.6,5.1,1.6,5.3,3.2c0.2,1.2-1.4,2.6,0.7,3.1c1.6-0.1,3.3-0.4,4.9-0.9
						C239.6,335.1,241.7,333.4,242.1,330.8z"/>
					<path class="st30" d="M285.2,345.5c0.2,0.5,0.7,1,1.9,1.2c2.2,0.3,4.3,0.3,6.5,0c4-0.3,8-0.8,11.8-1.5c3.3-0.5,6.6-1.5,9.7-2.8
						c-4.4,0.4-8.8,0.6-13.1,0.7c-2.5,0-5.4,0-6.2-0.7c-0.6-0.5,0.5-1.4-1.7-1.3c-0.6,0-3.7,0.9-4.4,1.1
						C286.2,343.2,284.7,344.3,285.2,345.5z"/>
					<path class="st31" d="M161.9,327.4c8-2.9,18.4-4.1,26.7-1.5c3.1,1,6,2.6,6,4.7c0,1.7-2.1,3.3-4.6,4.1c-2.7,0.8-5.5,1.2-8.4,1.3
						c-6.6,0.4-17.3,1.2-23.5-0.8C151.6,333.2,157.5,329.1,161.9,327.4z"/>
					<path class="st31" d="M262.7,343.1c1.8,0.2,3.6,0.6,5.3,1.3c1.5,0.7,2.5,1.9,2.1,3c-3.1,1.2-7.2,0.9-10.9,1.1
						s-7.1,0.8-10.8,1.1c-6.4,0.5-15.1,0.3-21.1-1.2c1-3.1,10.9-4.6,15.3-5.2C249.3,342.2,256.1,342.2,262.7,343.1z"/>
					<path class="st31" d="M293.1,323.1c1.4,0.3,2.8,0.8,4,1.6c1,0.8,1.3,2,0.2,2.5c-0.7,0.3-1.4,0.4-2.1,0.4
						c-5.8,0.3-44.7-0.3-41.9-6.9c1.2-2.9,10-1.6,13.8-1.5C275.9,319.6,284.6,320.9,293.1,323.1z"/>
					<path class="st31" d="M197.9,347.3c1.6,0.3,3.5,1.1,2.9,2.1c-0.3,0.6-1.4,0.8-2.4,1c-3,0.6-21.4,4.1-20.5-0.7
						C178.7,345.6,194.2,346.5,197.9,347.3z"/>
					<path class="st31" d="M100.6,335.8c0.9-2.1,4.8-3.2,8.4-3.7c2.7-0.4,5.5-0.6,8.2-0.6c3.1-0.2,6.2,0.2,9.2,1.2
						c2.3,0.9,4.1,2.7,3.1,4.3c-0.9,1-2,1.8-3.3,2.1C120.8,340.9,97.3,343.8,100.6,335.8z"/>
					<path class="st31" d="M281.1,335.5c4.1-1.7,9.6-1.6,14.6-1s9.8,1.6,14.8,1.5c4-0.1,8.3-0.8,11.7,0.5c0.4,0.1,0.7,0.3,0.9,0.6
						c0.3,0.5-0.3,1-1,1.2c-0.8,0.2-1.6,0.2-2.4,0.1c-6.5-0.3-12.9-1.1-19.4-1.4c-3.1-0.2-6.1-0.1-9.1,0.4c-2,0.4-3.7,1-5.6,1.5
						c-2.3,0.5-4.6,0.8-6.9,0.9c-5.7,0.4-11.4,0.5-17.1,0.2c-5-0.3-10.1-0.8-14.9,0.1c-0.8,0.1-2,0.1-1.8-0.4c0-0.1,0.1-0.2,0.2-0.2
						c4.1-2.9,13.9-2,19.3-1.2c2.7,0.6,5.5,0.8,8.2,0.7C276.2,338.4,278.2,336.6,281.1,335.5z"/>
					<path class="st31" d="M186.8,340.7c1.1,0.6,2.2,0.8,3.4,0.8c2.8,0.1,5.7-0.1,8.5,0c4.3,0.1,8.6,1.1,12.6,2.9
						c0.5,0.2,0.9,0.5,1.2,0.9c0.3,0.6-0.4,1.3-1.2,1.7c-2,1.1-4.8,2-5.4,3.6c-0.1,0.3,0,0.7,0.3,0.9c0.4,0.2,0.7,0.3,1.1,0.3
						c6.2,0.6,12.7,0.1,18.7,1.3c1.3,0.3,2.6,0.6,3.1,1.3c0.3,0.4,0.3,0.8,0.7,1c0.6,0.3,1.2,0.4,1.8,0.4c2.5,0.1,4.9-0.1,7.4-0.5
						c1-0.2,2.1-0.8,1.4-1.2c-0.2-0.1-0.5-0.2-0.7-0.2c-2.2-0.3-4.8,0.3-6.7-0.5c-0.6-0.3-1.1-0.6-1.6-0.9c-3.1-1.6-7.8-1.2-12-1.3
						c-1.6,0-3.3-0.2-4.1-1.1s0.2-2.1,1.4-2.9s2.5-1.8,2.2-2.8s-2.6-1.8-4.5-2.2c-5.7-1.1-11.4-2-17.2-2.5c-0.6,0-1.1-0.2-1.6-0.4
						c-0.7-0.6,0.5-1.3,1.6-1.6c3-0.8,6.3-0.8,9.5-1.1c0.8-0.1,1.7-0.3,1.9-0.7s-0.5-0.9-1.2-1.1c-2-0.6-4.4-0.1-6.5,0.3l-10.4,2.2
						C188.8,337.4,185.2,339.5,186.8,340.7z"/>
					<path class="st31" d="M122.1,344.4c2.6-0.7,5-1.7,7.4-2.9c1.4,0.5,1.9,1.6,1.4,2.5c-0.7,1-1.8,1.8-3,2.1c-2.6,0.8-5.3,1.2-8,1
						c-2.7-0.2-5.4-0.6-8-1.4c-0.2-0.1-0.4-0.1-0.6-0.3c-1.5-1.3,3.2-0.8,3.8-0.7C117.5,345.1,119.8,345,122.1,344.4z"/>
					<path class="st31" d="M155.1,350.3c0.1,0.3,0.3,0.5,0.6,0.6c1.4,0.8,3.5,0.7,5.4,0.7s4.1,0.3,4.7,1.4c0.1,0.3,0.2,0.6,0.5,0.8
						c0.4,0.2,0.7,0.3,1.1,0.3c2.4,0.3,4.7,0.3,7.1,0.1c0.7,0,1.5-0.2,2.1-0.4c0.6-0.3,0.9-0.8,0.6-1.2c-0.2-0.2-0.5-0.4-0.8-0.5
						c-1.3-0.5-2.7-0.8-4.1-0.8c-1.1,0-2.2,0-3.3-0.2c-1-0.2-2-0.9-1.6-1.5c0.3-0.3,0.7-0.6,1.1-0.7l1.7-0.8
						c2.2-1.1-6.2-0.8-7.5-0.6C160.9,347.8,154.7,348.7,155.1,350.3z"/>
					<path class="st32" d="M161.4,331.1c-0.3,0.3-0.5,0.8-0.4,1.2c0.2,0.8,1.7,1.3,3.1,1.4c0.7,0.1,1.4,0.1,2.1-0.1
						c1.1-0.4,1.4-1.2,2.1-1.9c1.2-1.2,3.6-1.8,5.9-2.2c1,0,2-0.4,2.8-0.9c2.4-2.4-4.8-2.4-6.9-2C166.3,327.4,163,329,161.4,331.1z"
						/>
					<path class="st32" d="M266,319.2c-0.8,0.1-1.7,0.3-1.8,0.7c-0.2,0.6,1.1,1.4,2.2,1.5c1.1,0,2.1,0,3.1-0.3
						c4.3-0.6,9.5,0.9,14,0.5c0.2,0,0.5-0.1,0.5-0.2s-0.4-0.4-0.7-0.4C277.7,319.8,271.4,318.7,266,319.2z"/>
					<path class="st32" d="M108.2,333.9c-1.1,0.4-2.2,1-3.1,1.8c-0.8,0.6-1,1.6-0.5,2.4c0.9,0.9,2.3,1.3,3.5,0.9
						c0.4-0.1,0.7-0.2,1-0.5c0.3-0.3,0.4-0.8,0.4-1.2c0.4-1.2,1.3-2.1,2.5-2.5c1.5-0.6,3.1-0.8,4.7-0.5c0.6-0.3,0.4-0.9-0.2-1.1
						c-0.7-0.2-1.4-0.4-2.1-0.3C112.4,332.7,110.2,333.1,108.2,333.9z"/>
					<path class="st32" d="M182.4,348.7c-0.7,0.3-1.4,0.9-1,1.4c0.6,0.4,1.4,0.5,2.1,0.3c0.7-0.2,1.3-0.6,2-0.8c1.8-0.6,4.2-0.4,6-1
						c0.4-0.1,0.8-0.4,0.6-0.7c-0.4-0.5-3.9-0.4-4.8-0.3C185.6,347.6,183.9,348,182.4,348.7z"/>
					<path class="st32" d="M236.8,345.7c-0.5,0.2-1.1,0.5-1.1,0.9c0.1,0.6,1.4,0.6,2.3,0.5c3.4-0.4,6.5-1.4,9.9-1.6s6.9,0.4,10.2,0
						c0.5-0.1,1.1-0.2,1.1-0.5s-0.6-0.5-1.1-0.5C251.3,343.5,243.2,343.4,236.8,345.7z"/>
					<path class="st33" d="M256.2,328.4c0,0-15.9-22-18.5-12.3s18.2,14.3,18.2,14.3L256.2,328.4z"/>
					<path class="st33" d="M288.7,332.3c0,0,27.6-4.5,15.7-8.7s-17.1,8.4-17.1,8.4"/>
					<path class="st33" d="M268.4,334.7c0,0,2.8-3.1-15,0.7s-11.9-7.3-31.1-4.5s-16.1,13.3,9.8,14.7s25.5,6.6,25.5,6.6
						s-8.4-13.3,20.3-9.1s1.8-5.6,1.8-5.6S287,320.7,268.4,334.7z"/>
					<path class="st34" d="M492.3,183.6c-0.1,1.8-0.3,3.6-0.5,5.3c-2.5,18.3-12.7,31.4-18.6,34.5c-6.5,3.4-64.4,1.4-88.8-4.5
						l-0.9-0.2c-3.8-1-7.4-2.1-10.7-3.2c-7.2-2.6-14.2-5.6-20.9-9.1c-4.1-2-7.9-3.9-11.8-5.6c-2.9-1.2-5.8-2.3-8.8-3.1
						c-16-4.5-46.4,1.3-46.4,1.3s-5.3,2.3-10.8-12.9c-0.9-2.4-1.8-5.3-2.6-8.7c-6.3-24.7,8.1-45.1,17.8-39.3
						c6.8,4,35.5,11.1,39.7,3.4c2.8-5.1,8.2-5.5,12.6-8.1c8.4-5,18.6-5.8,27.6-2.1c0,0,22.5,3.2,47.6,4.6c19.6,1,41.1,5.3,49.1,6.1
						C483.9,144,493.3,162.6,492.3,183.6z"/>
					<path class="st35" d="M295.6,152.3c8.2,1.9,16.6,2.5,24.9,1.8l0.3,7.1c0,0-16.8,2.6-24.4-2.9L295.6,152.3z"/>
					<path class="st36" d="M491.8,188.9c-0.2,1.6-0.5,3.2-0.8,4.7c-1.7,8.3-5.3,16.2-10.4,23c-2,2.8-4.5,5.1-7.4,6.9
						c-6.5,3.4-64.4,1.4-88.8-4.5l-0.9-0.2c-3.8-1-7.4-2.1-10.7-3.2c-7.2-2.6-14.2-5.6-20.9-9.1c-4.1-2-7.9-3.9-11.8-5.6
						c-2.9-1.2-5.8-2.3-8.8-3.1c-16-4.5-46.4,1.3-46.4,1.3s-1.7,0.7-4.1-1.3c-1.9-1.6-4.3-4.9-6.7-11.6c1.1-1.5,2.4-2.9,4-3.9
						c2.9-2,6.2-3.2,9.7-3.6l60.5,2.8L491.8,188.9z"/>
					<path class="st37" d="M480.6,216.6c-2,2.8-4.5,5.1-7.4,6.9c-6.5,3.4-64.4,1.4-88.8-4.5l-0.9-0.2c-3.8-1-7.4-2.1-10.7-3.2
						c-7.2-2.6-14.2-5.6-20.9-9.1c-4.1-2-7.9-3.9-11.8-5.6c-2.9-1.2-5.8-2.3-8.8-3.1c-16-4.5-46.4,1.3-46.4,1.3s-1.7,0.7-4.1-1.3
						c5-1.4,42.4-11.4,65.8-0.1c15.7,7.4,32,13.3,48.8,17.6C443.4,223.5,472.8,218.3,480.6,216.6z"/>
					<path class="st38" d="M491.8,188.9c-0.2,1.6-0.5,3.2-0.8,4.7l-6-0.2c0,0-107-6.6-171-8.8c-20.4-0.7-31-1.5-35.9-2.4
						c2.9-2,6.2-3.2,9.7-3.6l60.5,2.8L491.8,188.9z"/>
					<path class="st39" d="M491.9,188.9l-0.7,4.8v0.1H491c-2.2-0.1-4.5-0.1-6.7-0.2l-6.7-0.3l-13.3-0.6l-26.6-1.1
						c-17.8-0.9-35.5-1.7-53.3-2.4l-26.7-1.2l-26.6-1.1l-26.6-0.9c-4.5-0.2-8.9-0.4-13.4-0.6s-8.9-0.6-13.4-1.3l-4.4-0.7l3.7-2.5
						c1.6-1.1,3.3-1.9,5-2.6c0.9-0.3,1.8-0.6,2.7-0.8c0.9-0.2,1.9-0.4,2.9-0.5h0.2l51,2.5c8.5,0.4,17.1,0.9,25.6,1.4l25.7,1.6
						l51.1,3.2L491.9,188.9z M491.7,189l-102-5.2c-17-0.9-34-1.8-51-2.6l-51-2.3l0,0c-1.7,0.2-3.4,0.6-5,1.2
						c-1.6,0.6-3.2,1.4-4.6,2.4l-0.1-0.4c4.4,0.7,8.8,1,13.2,1.3s8.9,0.5,13.3,0.7l26.6,1c17.8,0.7,35.5,1.5,53.3,2.5
						c17.8,0.9,35.5,1.9,53.3,2.9l26.6,1.5l13.3,0.8l6.6,0.4c2.2,0.1,4.4,0.2,6.7,0.3l-0.1,0.1L491.7,189z"/>
					<path class="st40" d="M286.8,136.8c-1.8-0.8-3.9-0.9-5.8-0.4c-8.2,2.1-14.5,15.5-14.5,31.7c0,15,5.4,27.6,12.7,31.1
						c1.2,0.6,2.6,0.9,4,0.9c1.6,0,3.2-0.4,4.5-1.2c7-3.8,12.1-16.1,12.1-30.8C299.9,152.7,294.3,139.9,286.8,136.8z M274,167.6
						c0-12.1,3.5-22.6,8.8-27.9c5.4,3.1,9.4,14.6,9.4,28.4c0,13.3-3.8,24.4-8.9,28C277.8,190.9,274,180.1,274,167.6z"/>
					<path class="st41" d="M284.9,141.3c0,0-6.2-6.9-12.8,3.1"/>
					<path class="st40" d="M285,194.8c0,0-6.2,6.5-12.8-3"/>
					<path class="st42" d="M267.3,194l1,0.9C267.9,194.7,267.6,194.3,267.3,194z"/>
					<path class="st42" d="M299.9,168c0,14.6-5.1,27-12.1,30.8c-1.4,0.8-3,1.2-4.5,1.2c-1.4,0-2.8-0.3-4-0.9
						c1.4,0.2,2.7,0.2,4.1,0.2c11.4,0,18.2-26.7,12.8-46.3c-5.3-19.3-14.9-16.8-15.2-16.7l0.1-0.1c1.9-0.5,4-0.3,5.8,0.4
						C294.3,139.9,299.9,152.7,299.9,168z"/>
					<path class="st36" d="M286.3,178.7l-3.9,18.5c0,0-2.4,0.4-4.8,3.8c-2.3,3.3-4.5,9.4-4.7,20.7c-0.3,18.6,6.9,82.5,0.3,104.3
						c-1.6,5.3-4,8.1-7.6,7.3c-18.2-4.5-15.7-77.6-9.1-115.8C263.2,179.4,286.3,178.7,286.3,178.7z"/>
					<path class="st43" d="M262.7,204.8c0,0-6.8,46.3-8.2,73.6C254.5,278.4,251.8,226.6,262.7,204.8z"/>
					<path class="st44" d="M273.2,326c-0.8-1.6-1-3.8,0.1-7.1c4.5-14-2.8-71.7-1.4-98.6c0.8-14.9,3.5-18.8,5.7-19.3
						c-2.3,3.3-4.5,9.4-4.7,20.7C272.7,240.3,279.9,304.2,273.2,326z"/>
					<path class="st38" d="M288,182.9c0,0-16.4,0.7-24.5,15.7s-1.4,0.4-1.4,0.4s5.6-17.8,24.1-20.3"/>
					<path class="st33" d="M259,192.3c0,0-16.8,10.1-15.4,19.2S257.9,205.6,259,192.3z"/>
					<path class="st45" d="M431.4,140.9c0,0-39.2-3.4-31.6,5.4c13.1,15.2,75.1,49.6,64.9,78.3c0,0,4.5,1,10.1-2.4s30.6-59.7-9-77.1
						L431.4,140.9z"/>
					<path class="st46" d="M9.8,134.7c0,0,102.3,88,121.5,99.8c8.6,1.9,17,4.7,25,8.4c13.6,6.2,56.3,28,82.5,49.5
						c0,0,6.4,23.9-36.8,19.6c0,0-11.6,4.8-74.8-49.3c0,0-2.6-3.7-15.2-18.6S-5.7,149.8-5.7,149.8S-13.1,125.8,9.8,134.7z"/>
					<path class="st47" d="M13.3,131.2c0,0,102.3,88,121.5,99.8c8.6,1.9,17,4.7,25,8.4c13.6,6.2,56.3,28,82.5,49.5
						c0,0,6.4,23.9-36.8,19.6c0,0-11.6,4.8-74.8-49.3c0,0-2.6-3.7-15.2-18.6S-2.2,146.3-2.2,146.3S-9.6,122.3,13.3,131.2z"/>
					<path class="st48" d="M-130.8,25.8c0,0,79.7,55.3,87.9,68.8c-5.9,14.8-3.8,31.6,5.4,44.5c0,0,9.1,31.5,22.9,24.7
						c0,0,7.6,17.4,18.4,7.9c0,0,2.3,11.7,14.2,12.5s10.5-15.8,10.5-15.8l0.4-31.5l3.5-8.1c0,0,14.5,31,22.5,48s13.9,21.7,22.8,16
						c0,0,2.1,0.1-5.4-24.2S56.5,122.5,52.2,104S43,90.3,23.9,71.5S-28.3,20.2-73-7.4"/>
					<path class="st48" d="M3.7,171.8c-1.3-12.9-1.5-25.9-0.5-38.8"/>
					<path class="st49" d="M74.4,176.3c0,0-7.1-7.1-9.7,2.8c0,0,1.1,10.9,6.2,13.8c0,0,7.1,3.9,7.2-1.6L74.4,176.3z"/>
					<path class="st29" d="M195,276.6c0,0-11.9-4.2-12.6,5.6s16.1-7.7,13.3,21s7.7,40.6,10.5,11.9c0,0,3.5-12.6,6.3-1.4
						s8.4-2.8,8.4-2.8s18.9,0.7-4.9-18.2S215.3,266.1,195,276.6z"/>
					<path class="st48" d="M408.5-55.2c0,0-25.4,93.5-37,122.2s-28.6,26.6-42.8,76l27.9-7.8l-0.9-1.4l-3.7-3.3
						c0,0,11.2,6.6,16.6,24.1s4.6,38.6,4.6,38.6L361.7,211c-2.1,3.2-2.2,7.3-0.1,10.5c1.5,2.2,4.1,4,8.6,4.2
						c6,0.3,11.8-2.2,15.7-6.7c0.5-0.5,0.9-1.1,1.3-1.7c0,0-3.7,12.1,12.9,10c0,0,5.8-0.8,9.5-8.7c0,0,0.4,8.7,12,7.5
						c0,0,6.2-0.4,12.5-11.2c0,0,9.1,8.3,19.1-9.1s7.9-23.7,7.9-23.7s2.5-25.3-17-93.9c0,0-5.8-7.5,5-38.2s59-105.1,59-105.1
						L408.5-55.2z"/>
					<path class="st50" d="M383.2,221.2c0,0,9.4-8.3,12.6-26.8v-46.8c0,0,4.3,34.2,2.6,48.6c0,0-0.4,9.8-10.9,27
						c0,0-1.8-1.2-0.2-5.9L383.2,221.2z"/>
					<path class="st50" d="M407.2,222.3c0,0,10.6-18.3,11.1-24c0.7-8.3-2-50.4-2-50.4s4.3,42.5,4.6,50.8s-10.3,23.1-10.3,23.1
						l-0.8-3.1L407.2,222.3z"/>
					<path class="st50" d="M431.6,218.8c0,0,9.2-12.6,9.2-24.4s-2.4-48-2.4-48s4.1,37.9,4,48.5s-6.2,21.1-6.2,21.1l-1.6-0.7
						L431.6,218.8z"/>
				</g>
			</g>
		</g>
	</g>
	
		<radialGradient id="SVGID_6_" cx="-2271.4207" cy="1144.5104" r="476.3464" gradientTransform="matrix(0.51 0 0 -0.48 1398.71 803.96)" gradientUnits="userSpaceOnUse">
		<stop  offset="0" style="stop-color:#FFFFFF"/>
		<stop  offset="0.43" style="stop-color:#D3F9FC"/>
	</radialGradient>
	<path class="st51" d="M490.4,254.6c0,126.2-107.9,228.5-241,228.5S8.5,380.8,8.5,254.6s107.9-228.5,241-228.5
		S490.4,128.4,490.4,254.6z"/>
	<path class="st52" d="M263.4,458.6c-133.1,0-240.9-102.3-240.9-228.4c0-32.6,7.3-64.8,21.4-94.2c-2.6,3.9-5.2,7.8-7.5,11.9
		c-20,33.7-30.6,72.2-30.6,111.4c0,126.2,107.9,228.5,241,228.5c97.7,0,181.7-55.1,219.6-134.3C423.5,416.7,348.6,458.6,263.4,458.6
		z"/>
	<path class="st53" d="M68.9,173.8c9.8-35.6,38.8-70.1,98.6-91.8c6.7-2.5,10.1-9.9,7.6-16.6c-0.7-1.8-1.7-3.4-3-4.7l-1.1-1.2
		c-3.4-3.3-8.3-4.6-12.9-3.2C135.6,63,77.4,96.2,58.3,171c-0.6,2.3,0.4,4.6,2.3,5.9l0.1,0.1c2.5,1.6,5.9,0.9,7.5-1.6
		C68.5,174.9,68.8,174.3,68.9,173.8z"/>
	<circle class="st53" cx="60.6" cy="192.9" r="8.2"/>
</g>
</svg>
