<?xml version="1.0" encoding="utf-8"?>
<!-- Generator: Adobe Illustrator 25.2.3, SVG Export Plug-In . SVG Version: 6.00 Build 0)  -->
<svg version="1.1" id="Layer_1" xmlns="http://www.w3.org/2000/svg" xmlns:xlink="http://www.w3.org/1999/xlink" x="0px" y="0px"
	 viewBox="0 0 600 570" style="enable-background:new 0 0 600 570;" xml:space="preserve">
<style type="text/css">
	.st0{fill:#EFEFEF;}
	.st1{clip-path:url(#SVGID_2_);}
	.st2{fill:#BDCBE0;}
	.st3{fill:#CEDAE6;}
	.st4{fill:none;stroke:#D3C9D1;stroke-width:2;stroke-miterlimit:10;}
	.st5{opacity:0.75;fill:none;stroke:#DDDDDD;stroke-width:2;stroke-miterlimit:10;enable-background:new    ;}
	.st6{fill:#8CACC3;}
	.st7{fill:#C1E9F4;}
	.st8{fill:#3FAABC;}
	.st9{fill:#E86A4D;}
	.st10{fill:#DB5B46;}
	.st11{fill:#6D2C21;}
	.st12{opacity:0.3;}
	.st13{fill:#983B39;stroke:#EF9595;stroke-width:0.5;stroke-miterlimit:10;}
	.st14{fill:#E0E5DF;}
	.st15{fill:#983B39;}
	.st16{fill:#3F493F;}
	.st17{fill-rule:evenodd;clip-rule:evenodd;fill:#F4EDEE;}
	.st18{fill-rule:evenodd;clip-rule:evenodd;fill:#C0CACE;}
	.st19{fill:#A6A8AB;}
	.st20{fill-rule:evenodd;clip-rule:evenodd;fill:#808184;}
	.st21{fill-rule:evenodd;clip-rule:evenodd;fill:#231F20;}
	.st22{fill-rule:evenodd;clip-rule:evenodd;fill:#6D6E70;}
	.st23{fill-rule:evenodd;clip-rule:evenodd;fill:#626366;}
	.st24{fill-rule:evenodd;clip-rule:evenodd;fill:#58595B;}
	.st25{fill-rule:evenodd;clip-rule:evenodd;fill:#4D4D4F;}
	.st26{fill-rule:evenodd;clip-rule:evenodd;fill:#404041;}
	.st27{fill:#FFFFFF;}
	.st28{fill:#BBBDBF;}
	.st29{fill:#E6E7E8;}
	.st30{fill:#8C8C8C;}
	.st31{fill-rule:evenodd;clip-rule:evenodd;fill:#AAAAAA;}
	.st32{fill-rule:evenodd;clip-rule:evenodd;fill:#7C7C7C;}
	.st33{fill-rule:evenodd;clip-rule:evenodd;fill:#C9C9C9;}
	.st34{fill-rule:evenodd;clip-rule:evenodd;fill:#333333;}
	.st35{fill-rule:evenodd;clip-rule:evenodd;fill:#5E5D5E;}
	.st36{fill:#E52940;}
	.st37{fill-rule:evenodd;clip-rule:evenodd;fill:#F24E71;}
	.st38{fill-rule:evenodd;clip-rule:evenodd;fill:#D12845;}
	.st39{fill-rule:evenodd;clip-rule:evenodd;fill:#E57089;}
	.st40{fill-rule:evenodd;clip-rule:evenodd;fill:#8E1730;}
	.st41{fill-rule:evenodd;clip-rule:evenodd;fill:#BA243D;}
	.st42{fill:#C1C2B4;}
	.st43{fill:#332C38;}
	.st44{fill:#A64700;}
	.st45{fill:#89C433;}
	.st46{fill:#739B43;}
	.st47{fill:#4D5050;}
	.st48{fill:#337100;}
	.st49{fill:#3E8A00;}
	.st50{fill:#FCDFC7;}
	.st51{fill:#87AED9;}
	.st52{fill:#98B7D9;}
	.st53{fill:#596F87;}
	.st54{fill:#CCECFF;}
	.st55{fill:#131014;}
	.st56{opacity:0.2;}
	.st57{fill:#3E4051;}
	.st58{fill:#191B2D;}
	.st59{fill:#636675;}
	.st60{fill:#505366;}
	.st61{fill:#333644;}
	.st62{fill:#0D5E82;}
	.st63{fill:#268EAA;}
	.st64{fill:#CC413E;}
	.st65{fill:#D3534B;}
	.st66{fill:#535557;}
	.st67{fill:#212328;}
	.st68{clip-path:url(#SVGID_4_);}
	.st69{opacity:5.000000e-02;fill:#FFFFFF;enable-background:new    ;}
	.st70{opacity:0.15;fill:#FFFFFF;enable-background:new    ;}
	.st71{opacity:0.3;enable-background:new    ;}
	.st72{fill:#218780;}
	.st73{opacity:0.3;fill:#212328;enable-background:new    ;}
	.st74{fill:#919598;}
	.st75{opacity:0.4;fill:#FFFFFF;enable-background:new    ;}
	.st76{fill:#55585E;}
	.st77{fill:#D6D6D6;}
	.st78{clip-path:url(#SVGID_6_);}
	.st79{opacity:0.25;fill:#FFFFFF;enable-background:new    ;}
	.st80{fill:#14635B;}
	.st81{fill:#204A87;}
	.st82{fill:#1A3D6F;}
	.st83{fill:#39629D;}
	.st84{fill:#D7E9F0;}
	.st85{fill:#EAF3F7;}
	.st86{fill:#CE5C00;}
	.st87{fill:#9C4600;}
	.st88{fill:#E8BD80;}
	.st89{fill:#F4DDB9;}
	.st90{fill:#FBEBD3;}
	.st91{fill:#BA5300;}
	.st92{fill:#729FCF;}
	.st93{fill:#E1BB83;}
	.st94{fill:#844817;}
	.st95{fill:#EECEA1;}
	.st96{fill:#EF9953;}
	.st97{fill:#E97211;}
	.st98{opacity:0.2;fill:#2A4F51;enable-background:new    ;}
	.st99{fill:#161717;}
	.st100{fill:#246182;}
	.st101{opacity:0.4;fill:#F2F2F2;enable-background:new    ;}
	.st102{fill:url(#SVGID_7_);}
	.st103{fill:#D6D8D9;}
	.st104{fill:#666666;}
	.st105{opacity:0.2;fill-rule:evenodd;clip-rule:evenodd;fill:#1C1C1C;enable-background:new    ;}
	.st106{fill-rule:evenodd;clip-rule:evenodd;fill:#888989;}
	.st107{fill-rule:evenodd;clip-rule:evenodd;fill:#717272;}
	.st108{fill-rule:evenodd;clip-rule:evenodd;fill:#A2A5A5;}
	.st109{clip-path:url(#SVGID_9_);}
	.st110{fill:#929497;}
	.st111{fill-rule:evenodd;clip-rule:evenodd;fill:#CDCECD;}
	.st112{clip-path:url(#SVGID_11_);}
	.st113{fill-rule:evenodd;clip-rule:evenodd;fill:#929497;}
	.st114{fill-rule:evenodd;clip-rule:evenodd;fill:#B7B9BB;}
	.st115{fill-rule:evenodd;clip-rule:evenodd;fill:#BBBDBF;}
	.st116{fill:#5F25CE;stroke:#231F20;stroke-miterlimit:10;}
	.st117{opacity:0.33;enable-background:new    ;}
	.st118{fill:#FBD3C7;stroke:#453323;stroke-width:0.5;stroke-miterlimit:10;}
	.st119{fill:#82CFF7;stroke:#5DA3C1;stroke-miterlimit:10;}
	.st120{fill:#B3E0F4;}
	.st121{fill:url(#SVGID_12_);}
	.st122{fill:#52A2E7;}
	.st123{fill:#3476B7;}
	.st124{opacity:0.35;fill:#4A97CC;enable-background:new    ;}
	.st125{fill:none;stroke:#141F3F;stroke-width:2;stroke-miterlimit:10;}
	.st126{fill:#D26653;}
	.st127{fill:#FBD3C7;}
	.st128{opacity:0.72;fill:#E4A68D;enable-background:new    ;}
	.st129{opacity:0.53;}
	.st130{fill:#E4A68D;}
	.st131{fill:#49321F;}
	.st132{fill:#E4A68D;stroke:#8C5644;stroke-miterlimit:10;}
	.st133{fill:#342517;}
	.st134{fill:#342516;}
	.st135{fill:#F9F8F7;stroke:#7F430D;stroke-width:0.75;stroke-miterlimit:10;}
	.st136{fill:#FDEFEC;}
	.st137{fill:#8C5644;}
	.st138{fill:#F9D1C6;}
	.st139{fill:#323232;}
	.st140{fill:#ED8E99;}
	.st141{fill:#DB7988;}
	.st142{fill:#DB9D8E;}
	.st143{opacity:0.74;fill:#E4A68D;enable-background:new    ;}
	.st144{fill:#AA8EEF;stroke:#803BBC;stroke-miterlimit:10;}
	.st145{fill:none;}
	.st146{fill:#803BBC;}
	.st147{fill:none;stroke:#4C2D22;stroke-width:2;stroke-miterlimit:10;}
	.st148{fill:#82CFF7;}
	.st149{fill:url(#SVGID_13_);}
	.st150{opacity:0.56;fill:url(#SVGID_14_);enable-background:new    ;}
	.st151{fill:#A57B5E;}
	.st152{fill:#C49A7A;}
	.st153{opacity:0.86;}
	.st154{fill:#52ABE2;}
	.st155{fill:#67BDE8;}
	.st156{fill:#EAF0F9;}
	.st157{fill:#F2F5F9;}
	.st158{fill:#8ACCED;}
	.st159{fill:#97D6EF;}
	.st160{opacity:0.7;}
	.st161{fill:none;stroke:#206363;stroke-width:8;stroke-miterlimit:10;}
</style>
<path class="st0" d="M133,548.5h350c53.6,0,97-43.4,97-97v-333c-0.1-53.6-43.6-96.9-97.1-96.9c-2.9,0-5.8,0.1-8.7,0.4L108.1,55.5
	c-51.9,4.8-90.8,49.7-88,101.7l16,299.5C38.9,508.1,81.4,548.5,133,548.5z"/>
<g>
	<defs>
		<path id="SVGID_1_" d="M133,548.5h350c53.6,0,97-43.4,97-97v-333c-0.1-53.6-43.6-96.9-97.1-96.9c-2.9,0-5.8,0.1-8.7,0.4
			L108.1,55.5c-51.9,4.8-90.8,49.7-88,101.7l16,299.5C38.9,508.1,81.4,548.5,133,548.5z"/>
	</defs>
	<clipPath id="SVGID_2_">
		<use xlink:href="#SVGID_1_"  style="overflow:visible;"/>
	</clipPath>
	<g class="st1">
		<polygon class="st2" points="-302.1,593.9 -20.3,360.6 812.2,363 812.2,633.7 -301.6,633.7 		"/>
		<path class="st3" d="M-236.5,670h1091V504.8C854.5,504.8,204,389.9-236.5,670z"/>
		<line class="st4" x1="-57.3" y1="650.6" x2="161" y2="394.4"/>
		<line class="st5" x1="190.3" y1="650.6" x2="316.6" y2="404.8"/>
		<line class="st5" x1="408.6" y1="650.6" x2="479.1" y2="394.4"/>
		<line class="st5" x1="622" y1="404.8" x2="597.5" y2="655.6"/>
		<line class="st5" x1="812.2" y1="504.5" x2="-105.8" y2="496.4"/>
		<path class="st6" d="M-301.6-105.4v739L8.8,392.8v-498.2L-301.6-105.4z M-130.4,234.3l-61.2,32.1V-13.9l61.2-0.3V234.3z"/>
		<rect x="8.8" y="-104.9" class="st7" width="803.4" height="516.5"/>
		<rect x="539.1" y="380.4" class="st8" width="273.1" height="30.6"/>
		<polygon class="st9" points="575.2,441.3 -42,431.8 -42.9,247.3 576.6,260.3 		"/>
		<polygon class="st10" points="575.9,257.5 591.9,212.9 593,412.7 575.2,441.3 		"/>
		<polygon class="st10" points="568.3,434.2 373.8,434.3 373.8,264.8 568.3,264.5 		"/>
		<polygon class="st10" points="364.9,434.2 310.7,434.2 310.7,264.9 366.3,264.9 		"/>
		<polygon class="st10" points="301.7,434.3 246.5,434.3 247.6,264.9 303.2,264.9 		"/>
		<rect x="117.2" y="292.4" class="st11" width="5.5" height="31.5"/>
		<rect x="117.2" y="372.2" class="st11" width="5.5" height="31.5"/>
		<polygon class="st10" points="236.2,434.3 119.2,431.6 119.2,262.8 236.2,264.7 		"/>
		<g class="st12">
			<path d="M225.1,321.8l2.5,0.2c1,0.1,1.7,1.3,1.7,2.6l-0.1,35.9c0,1.4-0.8,2.5-1.9,2.5h-2.3c-1,0-1.8-1.1-1.8-2.5v-36.2
				C223.2,322.9,224.1,321.7,225.1,321.8z"/>
		</g>
		<path class="st13" d="M226.2,319.8l2.5,0.2c1,0.1,1.7,1.2,1.7,2.6l-0.1,36c0,1.4-0.8,2.5-1.8,2.5h-2.3c-1,0-1.9-1.1-1.9-2.5v-36.2
			C224.3,320.9,225.2,319.8,226.2,319.8z"/>
		<g class="st12">
			<path d="M260.9,276.6l0.1-2.4c0.1-1,0.9-1.7,1.9-1.6l26.4,0.1c1,0,1.8,0.8,1.8,1.8v2.2c0,1-0.8,1.8-1.8,1.8c0,0,0,0,0,0h-26.6
				C261.8,278.4,261,277.7,260.9,276.6C260.9,276.6,260.9,276.6,260.9,276.6z"/>
		</g>
		<path class="st13" d="M259.5,275.5l0.1-2.5c0.1-1,1-1.7,1.9-1.6l26.4,0.1c1,0,1.8,0.8,1.8,1.8v2.2c0,1-0.8,1.8-1.9,1.8h-26.6
			C260.4,277.4,259.6,276.6,259.5,275.5C259.5,275.6,259.5,275.5,259.5,275.5z"/>
		<g class="st12">
			<path d="M325,276.6l0.1-2.4c0.1-1,1-1.7,1.9-1.6l26.4,0.1c1,0,1.8,0.8,1.8,1.8c0,0,0,0,0,0v2.2c0,1-0.8,1.8-1.8,1.8h-26.6
				c-1,0-1.8-0.7-1.9-1.7C325.1,276.6,325,276.6,325,276.6z"/>
		</g>
		<path class="st13" d="M323.6,275.5l0.1-2.5c0.1-1,1-1.7,1.9-1.6l26.4,0.1c1,0,1.8,0.8,1.8,1.8v2.2c0,1-0.8,1.8-1.8,1.8
			c0,0,0,0,0,0h-26.6c-1,0-1.8-0.7-1.9-1.7C323.6,275.6,323.6,275.5,323.6,275.5z"/>
		<polygon class="st14" points="-45,248.3 9.4,207.3 603.4,207.5 576.8,254 		"/>
		<path class="st15" d="M580.7,259.6c0,2.1-1.3,3.8-2.8,3.8l-622.3,0.5c-2,0-3.6-2.3-3.5-5l0.3-6.2c0.1-2.5,1.6-4.5,3.5-4.5
			l622.2-0.6c1.5,0,2.7,2,2.7,4L580.7,259.6z"/>
		<rect x="393" y="410.4" class="st16" width="120.5" height="30.9"/>
		<polygon class="st17" points="526,219.4 420.3,219.4 389.9,247.6 516.7,247.6 		"/>
		<polygon class="st18" points="516.7,417 389.7,415.5 389.7,247.6 516.7,247.6 		"/>
		<rect x="389.7" y="282.7" class="st19" width="127" height="8.5"/>
		<path class="st20" d="M433.4,234c-3.5,0-9-1.1-11.4-0.5c-2.7,0.6-2,3-2,4.1c0,2,6,3.6,13.4,3.6s13.4-1.6,13.4-3.6
			c0-0.9,0.6-3.1-1.3-3.8C443,233,437.6,234,433.4,234z"/>
		<path class="st21" d="M433.4,238.4c-7.1,0-12.9-1.6-12.9-3.6s5.8-3.6,12.9-3.6s12.9,1.6,12.9,3.6S440.5,238.4,433.4,238.4z"/>
		<path class="st20" d="M483.1,233.6c-3.6,0-9.5-1.1-12-0.5c-2.8,0.7-2.1,3.2-2.1,4.3c0,2.1,6.3,3.7,14.1,3.7s14.1-1.7,14.1-3.7
			c0-0.9,0.6-3.3-1.4-3.9C493.2,232.6,487.5,233.6,483.1,233.6z"/>
		<path class="st21" d="M483.1,238.3c-7.4,0-13.5-1.7-13.5-3.7s6.1-3.7,13.5-3.7s13.5,1.7,13.5,3.7S490.5,238.3,483.1,238.3z"/>
		<path class="st20" d="M443.1,222.1c-3.5,0-9-1.1-11.4-0.5c-2.7,0.6-2,3-2,4.1c0,2,6,3.6,13.4,3.6s13.4-1.6,13.4-3.6
			c0-0.9,0.6-3.1-1.3-3.7C452.8,221.1,447.3,222.1,443.1,222.1z"/>
		<path class="st21" d="M443.1,226.4c-7.1,0-12.9-1.6-12.9-3.6s5.8-3.6,12.9-3.6s12.9,1.6,12.9,3.6S450.2,226.4,443.1,226.4z"/>
		<path class="st20" d="M491.3,222.5c-3.5,0-9-1.1-11.4-0.5c-2.7,0.6-2,3-2,4.1c0,2,6,3.6,13.4,3.6s13.4-1.6,13.4-3.6
			c0-0.9,0.6-3.1-1.3-3.7C501,221.5,495.5,222.5,491.3,222.5z"/>
		<path class="st21" d="M491.3,226.9c-7.1,0-12.9-1.6-12.9-3.6s5.8-3.6,12.9-3.6s12.9,1.6,12.9,3.6S498.4,226.9,491.3,226.9z"/>
		<path class="st22" d="M424.1,222.5v-2.9c0-1.2,0.4-2.3,1.1-3.3c0.7-0.8,1.6-2.3,2.7-2.3h89.7c1,0,2,1.4,2.7,2.3
			c0.7,0.9,1.1,2.1,1.1,3.3v2.9h2.2v-2.9c0-1.9-0.6-3.7-1.8-5.2c-1-1.3-2.6-2.1-4.2-2.1h-89.7c-1.7,0-3.2,0.8-4.2,2.1
			c-1.2,1.5-1.8,3.3-1.8,5.2v2.9H424.1z"/>
		<path class="st23" d="M418.3,228.1V225c0-1.3,0.4-2.6,1.1-3.6c0.7-0.9,1.8-2.6,2.8-2.6h92.6c1.1,0,2,1.7,2.7,2.6
			c0.8,1.1,1.2,2.3,1.2,3.6v3.2h2.2V225c0-2-0.6-4-1.8-5.7c-1-1.4-2.6-2.3-4.3-2.4h-92.6c-1.7,0.1-3.3,0.9-4.3,2.4
			c-1.2,1.6-1.8,3.6-1.8,5.7v3.2L418.3,228.1z"/>
		<path class="st24" d="M412.5,233.8v-3.5c0-1.4,0.4-2.8,1.2-4c0.8-1,1.9-2.9,3-2.9h95.5c1.1,0,2,1.9,2.8,2.9c0.8,1.2,1.2,2.6,1.2,4
			v3.5h2.2v-3.5c0-2.2-0.6-4.4-1.8-6.2c-1-1.5-2.6-2.5-4.4-2.6h-95.4c-1.8,0.1-3.5,1-4.4,2.6c-1.2,1.8-1.9,4-1.8,6.2v3.5H412.5z"/>
		<path class="st25" d="M406.7,239.4v-3.8c0-1.6,0.4-3.1,1.3-4.4c0.8-1.1,2-3.3,3.2-3.3h98.4c1.2,0,2,2.1,2.8,3.3
			c0.8,1.3,1.3,2.9,1.2,4.4v3.8h2.2v-3.8c0-2.4-0.6-4.7-1.9-6.7c-1-1.6-2.7-2.7-4.5-2.8H411c-1.9,0.1-3.6,1.2-4.5,2.8
			c-1.3,2-1.9,4.4-1.9,6.7v3.8H406.7z"/>
		<path class="st26" d="M401,245.1V241c0-1.7,0.4-3.4,1.3-4.8c0.8-1.2,2.2-3.6,3.4-3.6h101.2c1.2,0,2,2.4,2.8,3.6
			c0.9,1.5,1.4,3.1,1.3,4.8v4.1h2.2V241c0-2.5-0.6-5.1-1.9-7.3c-0.9-1.7-2.7-2.9-4.7-3H405.3c-2,0.1-3.7,1.3-4.7,3
			c-1.3,2.2-2,4.7-1.9,7.3v4.1L401,245.1z"/>
		<polygon class="st22" points="494.7,305.2 411.7,305.2 402.6,316.3 402.6,359.1 411.7,370.2 494.7,370.2 503.9,359.1 503.9,316.3 
					"/>
		<rect x="385.2" y="288" class="st19" width="126.9" height="8.5"/>
		<polygon class="st22" points="512.1,288 385.2,288 390,282.8 398.5,282.8 396.4,285.1 501.7,285.1 503.9,282.8 516.9,282.8 		"/>
		<polygon class="st24" points="512.1,288 516.5,283 516.5,291.6 512.1,296.5 		"/>
		<rect x="385.2" y="288" class="st27" width="126.9" height="2.1"/>
		<rect x="389.7" y="279.7" class="st28" width="127" height="3"/>
		<rect x="389.7" y="247.6" class="st29" width="127" height="3.5"/>
		<ellipse class="st30" cx="409.6" cy="264.1" rx="7.5" ry="9.5"/>
		<path class="st31" d="M417.1,264.1c0,5.3-3.2,9.5-7.2,9.5h-0.3c3.8-0.3,6.8-4.4,6.8-9.5s-3-9.3-6.8-9.5h0.4
			C413.9,254.6,417.1,258.8,417.1,264.1z"/>
		<path class="st32" d="M409.6,273.6h-0.3c-4,0-7.2-4.3-7.2-9.5s3.2-9.6,7.2-9.6h0.3c-3.8,0.3-6.8,4.4-6.8,9.5
			S405.8,273.4,409.6,273.6z"/>
		<path class="st33" d="M409.6,266.6c-1,0-1.7-3-1.7-6.6s0.8-6.6,1.7-6.6s1.8,3,1.8,6.6S410.6,266.6,409.6,266.6z"/>
		<path class="st34" d="M409.6,265.8c-1,0-1.7-3-1.7-6.6s0.8-6.6,1.7-6.6s1.8,3,1.8,6.6S410.6,265.8,409.6,265.8z"/>
		<path class="st35" d="M409.6,266.3c-1,0-1.7-3-1.7-6.6s0.8-6.6,1.7-6.6s1.8,3,1.8,6.6S410.6,266.3,409.6,266.3z"/>
		<ellipse class="st30" cx="428.5" cy="264.1" rx="7.5" ry="9.5"/>
		<path class="st31" d="M436,264.1c0,5.3-3.2,9.5-7.2,9.5h-0.3c3.8-0.3,6.8-4.4,6.8-9.5s-3-9.3-6.8-9.5h0.3
			C432.8,254.6,436,258.8,436,264.1z"/>
		<path class="st32" d="M428.5,273.6h-0.3c-4,0-7.2-4.3-7.2-9.5s3.2-9.6,7.2-9.6h0.3c-3.8,0.3-6.8,4.4-6.8,9.5
			S424.7,273.4,428.5,273.6z"/>
		<path class="st33" d="M428.5,266.6c-1,0-1.7-3-1.7-6.6s0.8-6.6,1.7-6.6s1.8,3,1.8,6.6S429.4,266.6,428.5,266.6z"/>
		<path class="st34" d="M428.5,265.8c-1,0-1.7-3-1.7-6.6s0.8-6.6,1.7-6.6s1.8,3,1.8,6.6S429.4,265.8,428.5,265.8z"/>
		<path class="st35" d="M428.5,266.3c-1,0-1.7-3-1.7-6.6s0.8-6.6,1.7-6.6s1.8,3,1.8,6.6S429.4,266.3,428.5,266.3z"/>
		<ellipse class="st30" cx="447.3" cy="264.1" rx="7.5" ry="9.5"/>
		<path class="st31" d="M454.9,264.1c0,5.3-3.2,9.5-7.2,9.5h-0.3c3.8-0.3,6.8-4.4,6.8-9.5s-3-9.3-6.8-9.5h0.3
			C451.6,254.6,454.9,258.8,454.9,264.1z"/>
		<path class="st32" d="M447.3,273.6H447c-4,0-7.2-4.3-7.2-9.5s3.2-9.6,7.2-9.6h0.3c-3.8,0.3-6.8,4.4-6.8,9.5
			S443.5,273.4,447.3,273.6z"/>
		<path class="st33" d="M447.3,266.6c-1,0-1.7-3-1.7-6.6s0.8-6.6,1.7-6.6s1.8,3,1.8,6.6S448.3,266.6,447.3,266.6z"/>
		<path class="st34" d="M447.3,265.8c-1,0-1.7-3-1.7-6.6s0.8-6.6,1.7-6.6s1.8,3,1.8,6.6S448.3,265.8,447.3,265.8z"/>
		<path class="st35" d="M447.3,266.3c-1,0-1.7-3-1.7-6.6s0.8-6.6,1.7-6.6s1.8,3,1.8,6.6S448.3,266.3,447.3,266.3z"/>
		<ellipse class="st30" cx="466.2" cy="264.1" rx="7.5" ry="9.5"/>
		<path class="st31" d="M473.7,264.1c0,5.3-3.2,9.5-7.2,9.5h-0.3c3.8-0.3,6.8-4.4,6.8-9.5s-3-9.3-6.8-9.5h0.3
			C470.5,254.6,473.7,258.8,473.7,264.1z"/>
		<path class="st32" d="M466.2,273.6h-0.3c-4,0-7.2-4.3-7.2-9.5s3.2-9.6,7.2-9.6h0.3c-3.8,0.3-6.8,4.4-6.8,9.5
			S462.4,273.4,466.2,273.6z"/>
		<path class="st33" d="M466.2,266.6c-1,0-1.7-3-1.7-6.6s0.8-6.6,1.7-6.6s1.8,3,1.8,6.6S467.2,266.6,466.2,266.6z"/>
		<path class="st34" d="M466.2,265.8c-1,0-1.7-3-1.7-6.6s0.8-6.6,1.7-6.6s1.8,3,1.8,6.6S467.2,265.8,466.2,265.8z"/>
		<path class="st35" d="M466.2,266.3c-1,0-1.7-3-1.7-6.6s0.8-6.6,1.7-6.6s1.8,3,1.8,6.6S467.2,266.3,466.2,266.3z"/>
		<ellipse class="st36" cx="500.3" cy="264.6" rx="7.5" ry="9.5"/>
		<path class="st37" d="M507.8,264.6c0,5.3-3.2,9.5-7.2,9.5h-0.3c3.8-0.3,6.8-4.4,6.8-9.5s-3-9.3-6.8-9.5h0.3
			C504.6,255.1,507.8,259.3,507.8,264.6z"/>
		<path class="st38" d="M500.3,274.1H500c-4,0-7.2-4.3-7.2-9.5s3.2-9.6,7.2-9.6h0.3c-3.8,0.3-6.8,4.4-6.8,9.5
			S496.5,273.9,500.3,274.1z"/>
		<path class="st39" d="M500.3,267.1c-1,0-1.8-3-1.8-6.6s0.8-6.6,1.8-6.6s1.7,3,1.7,6.6S501.3,267.1,500.3,267.1z"/>
		<path class="st40" d="M500.3,266.3c-1,0-1.8-3-1.8-6.6s0.8-6.6,1.8-6.6s1.7,3,1.7,6.6S501.3,266.3,500.3,266.3z"/>
		<path class="st41" d="M500.3,266.8c-1,0-1.8-3-1.8-6.6s0.8-6.6,1.8-6.6s1.7,3,1.7,6.6S501.3,266.8,500.3,266.8z"/>
		<g class="st12">
			<path d="M524.4,276.6l0.1-2.4c0.1-1,0.9-1.7,1.9-1.6l26.4,0.1c1,0,1.8,0.8,1.8,1.8v2.2c0,1-0.8,1.8-1.8,1.8c0,0,0,0,0,0h-26.6
				c-1,0-1.8-0.7-1.9-1.7C524.4,276.7,524.4,276.6,524.4,276.6z"/>
		</g>
		<path class="st13" d="M523,275.5l0.1-2.5c0.1-1,0.9-1.7,1.9-1.6l26.4,0.1c1,0,1.8,0.8,1.8,1.8v2.2c0,1-0.8,1.8-1.8,1.8
			c0,0,0,0,0,0h-26.6c-1,0-1.8-0.7-1.9-1.7C523,275.6,523,275.5,523,275.5z"/>
		<polygon class="st10" points="107.1,434.3 -26.6,431.6 -26.6,263.8 107.1,264.7 		"/>
		<g class="st12">
			<path d="M93.7,321.8l3,0.2c1.3,0.2,2.1,1.4,2,2.6l-0.1,35.9c0.1,1.3-0.9,2.4-2.2,2.5h-2.7c-1.3-0.1-2.3-1.2-2.2-2.5v-36.2
				c-0.1-1.3,0.8-2.4,2.1-2.6C93.7,321.8,93.7,321.8,93.7,321.8z"/>
		</g>
		<path class="st13" d="M95.1,319.8l3,0.2c1.3,0.2,2.1,1.4,2,2.6l-0.1,35.9c0.1,1.3-0.9,2.4-2.2,2.5h-2.7c-1.3-0.1-2.3-1.2-2.2-2.5
			v-36.2c-0.1-1.3,0.8-2.4,2.1-2.6C95,319.8,95,319.8,95.1,319.8z"/>
		<path class="st42" d="M315.3,14.2h102.1c0.2,0,0.4,0.2,0.4,0.4v2.1c0,0.2-0.2,0.4-0.4,0.4H315.3c-0.2,0-0.4-0.2-0.4-0.4v-2.1
			C314.9,14.4,315,14.2,315.3,14.2z"/>
		<path class="st43" d="M315.3,10.7h101.8c0.5,0,0.8,0.4,0.8,0.8v4.2c0,0.5-0.4,0.8-0.8,0.8H315.3c-0.5,0-0.8-0.4-0.8-0.8v-4.2
			C314.5,11,314.9,10.7,315.3,10.7z"/>
		<path class="st44" d="M323.1,20.9c-1.4-0.1-2.5-1.2-2.4-2.6c0-1.2,0.8-2.3,2-2.6v-3.1c0-0.2,0.1-0.4,0.3-0.5
			c0.2,0,0.4,0.1,0.5,0.3c0,0,0,0.1,0,0.1v3.5c0,0.2-0.2,0.4-0.4,0.4c0,0,0,0,0,0c-1-0.1-1.8,0.7-1.9,1.6c-0.1,1,0.7,1.8,1.6,1.9
			c1,0.1,1.8-0.7,1.9-1.6c0,0,0-0.1,0-0.1c0-0.2,0.1-0.4,0.3-0.5c0.2,0,0.4,0.1,0.5,0.3c0,0,0,0.1,0,0.1
			C325.6,19.6,324.5,20.8,323.1,20.9z"/>
		<path class="st42" d="M347.1,46l0.5-26c0-0.2,0-0.4-0.1-0.6c-0.1-0.3-0.3-0.5-0.5-0.6c-0.3-0.2-0.5-0.3-0.9-0.3
			c-0.6,0-1.1,0.3-1.4,0.9c-0.1,0.2-0.1,0.4-0.1,0.6l0.2,12.1l0,0l0.3,13.9l-2.6,3.2c-0.2,0.2-0.2,0.4-0.2,0.7l0.3,8.3
			c0,0.6,0.5,1,1.1,1h0.3v-6c0-0.2,0.2-0.4,0.4-0.4l0,0c0.1,0,0.1,0,0.2,0.1c0,0,0.1,0.1,0.1,0.1l0,0l0,0c0,0,0,0.1,0,0.1v6h1v-5.9
			c0-0.2,0.2-0.4,0.4-0.4l0,0c0.1,0,0.1,0,0.2,0.1c0,0,0.1,0.1,0.1,0.1l0,0l0,0c0,0,0,0.1,0,0.1v6h1v-5.9c0-0.2,0.2-0.4,0.4-0.4l0,0
			c0.1,0,0.2,0,0.3,0.1l0,0c0,0,0.1,0.1,0.1,0.1l0,0l0,0c0,0,0,0.1,0,0.1v6h0.4c0.5,0,0.9-0.5,0.9-1l0.3-8.3c0-0.2-0.1-0.5-0.2-0.7
			L347.1,46z"/>
		<path class="st44" d="M346.4,21.1c-1.4-0.1-2.4-1.2-2.4-2.6c0-1.2,0.8-2.3,2-2.6v-3.1c0-0.2,0.1-0.4,0.3-0.5
			c0.2,0,0.4,0.1,0.5,0.3c0,0,0,0.1,0,0.1v3.5c0,0.2-0.2,0.4-0.4,0.4c-1-0.1-1.8,0.6-1.9,1.6c-0.1,1,0.6,1.8,1.6,1.9
			c1,0.1,1.8-0.6,1.9-1.6c0,0,0-0.1,0-0.1c0-0.2,0.2-0.4,0.4-0.4s0.4,0.2,0.4,0.4C348.9,19.9,347.8,21,346.4,21.1z"/>
		<path class="st45" d="M350.3,49.2l-2.6-3.2l0.3-13.9l0.2-12.1c0-0.8-0.6-1.4-1.4-1.5h-0.1c-0.8,0-1.5,0.6-1.5,1.4c0,0,0,0,0,0
			l0.2,12.1l0.3,13.9l-2.6,3.2c-0.1,0.2-0.2,0.4-0.2,0.7l0.3,8.3c0,0.6,0.5,1,1.1,1h0.2v-6c0-0.2,0.2-0.4,0.4-0.4c0,0,0,0,0,0l0,0
			c0.1,0,0.1,0,0.2,0c0.1,0,0.1,0.1,0.1,0.1c0,0,0,0.1,0,0.1c0,0,0,0.1,0,0.1v6h1v-6c0-0.2,0.2-0.4,0.4-0.4l0,0c0.1,0,0.1,0,0.2,0
			l0,0L347,53c0,0,0,0,0,0.1c0,0,0,0.1,0,0.1c0,0,0,0.1,0,0.1v6h1v-6c0-0.2,0.2-0.4,0.3-0.4c0,0,0,0,0,0l0,0c0.1,0,0.1,0,0.2,0l0,0
			l0.1,0.1c0,0,0,0,0.1,0.1c0,0,0,0.1,0,0.1c0,0,0,0.1,0,0.1v6h0.3c0.5,0,1-0.5,1-1l0.3-8.3C350.4,49.7,350.4,49.5,350.3,49.2z
			 M347.6,22.1l-1.2,0.1c-0.1-0.5-0.1-1.1-0.1-1.6c0.1-1.9,0.8-1.3,0.8-1.3C347.5,19.4,347.6,22.1,347.6,22.1z"/>
		<g>
			<path class="st46" d="M345.4,52.9L345.4,52.9c-0.1,0-0.1,0-0.2,0.1c0.1,0.1,0.2,0.2,0.2,0.3v6h0.4v-6
				C345.7,53.1,345.6,52.9,345.4,52.9C345.4,52.9,345.4,52.9,345.4,52.9z"/>
			<path class="st46" d="M343.6,58.2l-0.3-8.3c0-0.2,0.1-0.5,0.2-0.7l2.6-3.2l-0.5-26c0-0.7,0.6-1.4,1.3-1.5h-0.2
				c-0.8,0-1.5,0.6-1.5,1.4c0,0,0,0,0,0l0.5,26l-2.6,3.3c-0.2,0.2-0.2,0.4-0.2,0.7l0.3,8.3c0,0.6,0.5,1,1.1,1h0.2
				C344.1,59.2,343.7,58.8,343.6,58.2z"/>
			<path class="st46" d="M349.2,53.3c0-0.2-0.2-0.4-0.4-0.4l0,0c-0.1,0-0.1,0-0.2,0.1c0.1,0.1,0.2,0.2,0.2,0.3v6h0.4L349.2,53.3z"/>
			<path class="st46" d="M347.1,52.9L347.1,52.9c-0.1,0-0.1,0-0.2,0.1c0.1,0.1,0.2,0.2,0.2,0.3v6h0.4v-6
				C347.5,53.1,347.3,52.9,347.1,52.9C347.1,52.9,347.1,52.9,347.1,52.9z"/>
		</g>
		<path class="st47" d="M346.8,18.5h-0.1c-0.8,0-1.5,0.6-1.5,1.4c0,0,0,0,0,0l0.2,12.1h2.5l0.2-12.1
			C348.2,19.2,347.6,18.5,346.8,18.5z M346.4,22.2c-0.1-0.5-0.1-1.1-0.1-1.6c0.1-1.9,0.8-1.3,0.8-1.3c0.5,0.2,0.5,2.8,0.5,2.8
			L346.4,22.2z"/>
		<path class="st47" d="M346.9,18.5h-0.2c-0.8,0-1.5,0.6-1.5,1.4c0,0,0,0,0,0l0.2,12.1h0.4L345.6,20
			C345.6,19.2,346.1,18.6,346.9,18.5z"/>
		<path class="st44" d="M348.4,18.1c-0.2,0-0.4,0.2-0.4,0.4c0,0.9-0.7,1.7-1.6,1.7c-0.1,0-0.1,0.9-0.1,0.9c1.4,0,2.5-1.1,2.5-2.5
			c0,0,0,0,0-0.1C348.8,18.3,348.6,18.1,348.4,18.1z"/>
		<g>
			<path class="st42" d="M406.8,20.7c-0.2,0-0.4,0.2-0.4,0.4c0,0,0,0,0,0c-0.1,0.9-0.8,1.6-1.7,1.5c-0.9-0.1-1.6-0.8-1.5-1.7
				c0.1-0.8,0.8-1.5,1.6-1.5c0.2,0,0.4-0.2,0.4-0.4v-1.8h-0.8v1.4c-1.2,0.3-2,1.3-2,2.6c-0.1,1.3,0.9,2.5,2.2,2.7s2.5-0.9,2.7-2.2
				c0-0.1,0-0.3,0-0.4C407.2,20.9,407,20.7,406.8,20.7C406.8,20.7,406.8,20.7,406.8,20.7z"/>
		</g>
		<path class="st44" d="M406.6,23.8c-1.4,0-2.5-1.2-2.4-2.6c0-1.2,0.8-2.3,2-2.6v-3.1c0-0.2,0.1-0.4,0.3-0.5c0.2,0,0.4,0.1,0.5,0.3
			c0,0,0,0.1,0,0.1V19c0,0.2-0.2,0.4-0.4,0.4c0,0,0,0,0,0c-1-0.1-1.8,0.7-1.9,1.6c-0.1,1,0.7,1.8,1.6,1.9c1,0.1,1.8-0.7,1.9-1.6
			c0,0,0-0.1,0-0.1c0-0.2,0.1-0.4,0.3-0.5c0.2,0,0.4,0.1,0.5,0.3c0,0,0,0.1,0,0.1C409,22.6,408,23.7,406.6,23.8z"/>
		<path class="st42" d="M417.2,45.3l0.4-1.3c0.1-0.4,0.3-0.8,0.4-1.2l0.4-1.2c1.1-3.4,1.7-5.8,1.7-5.8l-1.4-0.6l-1.8-0.8l-11.6-6
			l0.4-5h-1.9l0.4,5.3c-0.2,0.2-0.6,0.6-1.1,1.1l-0.1,0.1l-0.3,0.4c-1.5,1.5-3.4,3.7-5.4,6c-0.5,0.6-1,1.1-1.4,1.7
			c-0.7,0.9-1.4,1.8-2,2.6l-0.4,0.5l-0.1,0.2c-0.4,0.5-0.7,1.1-1.1,1.6c-0.7,1-1.2,2-1.6,3.1c0,0.1-0.1,0.2-0.1,0.3l-0.1,0.2
			l-0.1,0.2c0,0.1,0,0.3,0,0.4c0,0.1,0,0.1,0,0.2c0,0.1,0,0.2,0,0.3c0,0.2,0.1,0.3,0.1,0.4c0.1,0.1,0.2,0.3,0.3,0.4
			c0.1,0.1,0.2,0.2,0.4,0.3l0.1,0.1c0.1,0.1,0.3,0.1,0.4,0.2c0.1,0.1,0.3,0.1,0.4,0.1c0.2,0,0.3,0.1,0.5,0.1c0.2,0,0.3,0,0.5,0
			c0.2,0,0.4,0,0.5-0.1l0.5-0.1l0.5-0.2c0.4-0.2,0.8-0.3,1.1-0.5c0.2-0.1,0.4-0.3,0.6-0.4l0.6-0.4c0.2-0.2,0.4-0.3,0.6-0.4
			s0.4-0.3,0.5-0.4c0.4-0.4,0.7-0.6,0.7-0.6c-0.1,0.3-0.4,0.8-0.7,1.7l-0.1,0.4l-0.2,0.5c0,0,0,0.1,0,0.1s-0.1,0.3-0.1,0.4
			s0,0.1,0,0.1s-0.1,0.3-0.1,0.5V50c-0.2,0.8-0.5,1.7-0.6,2.5c-0.2,1-0.3,1.9-0.4,2.9c0,0.3,0,0.5,0,0.7c0,1,0.1,2.1,0.3,3.1v0.1
			c0,0.2,0.1,0.3,0.1,0.5l0.2,0.5c0,0.1,0.1,0.2,0.1,0.3s0.1,0.2,0.1,0.3l0.1,0.3c0.1,0.2,0.2,0.3,0.3,0.5s0.2,0.3,0.3,0.4
			c0,0,0.1,0.1,0.1,0.1c0.1,0.2,0.3,0.3,0.4,0.5c0.2,0.2,0.4,0.4,0.6,0.6c0.2,0.2,0.5,0.3,0.7,0.5l0.1,0.1c0.2,0.1,0.5,0.2,0.7,0.4
			l0.2,0.1c0.3,0.1,0.7,0.3,1,0.3l0.5,0.1l0.5,0.1c0.2,0,0.3,0,0.5,0h0.5c0.2,0,0.4-0.1,0.5-0.1l0.5-0.2l0.5-0.2
			c0.9-0.4,1.8-1,2.5-1.7c1.6-1.6,2.9-3.3,4-5.2c0.2-0.3,0.4-0.6,0.5-1c0.8-1.5,1.6-3,2.3-4.6c0.1-0.3,0.3-0.7,0.4-1
			c0.7-1.6,1.3-3.2,1.8-4.7c0.1-0.4,0.3-0.7,0.4-1L417.2,45.3z"/>
		<path class="st48" d="M406.1,27.6c0,0-17.3,16.3-14.1,19.4c2.8,2.8,7.9-2.1,7.9-2.1s-7.7,15.4,2.6,18.7
			c10.2,3.3,19.1-28.3,19.1-28.3L406.1,27.6z"/>
		<path class="st49" d="M406.8,27.3c0,0-14.1,13.9-11.5,16.7c2.3,2.4,6.5-1.8,6.5-1.8s-6.1,13.3,2.2,16.5s15.5-24.4,15.5-24.4
			L406.8,27.3z"/>
		<path class="st50" d="M396.2,45.8l-0.4,1.8c0.4-0.1,0.8-0.3,1.1-0.5l0.2-1L396.2,45.8z"/>
		<path class="st50" d="M398.8,39.1l1.2-4.8l-0.5-0.1l-0.8,0.8l-0.9,3.9L398.8,39.1z"/>
		<polygon class="st50" points="396.5,44.7 397.4,45 398.6,40.2 397.6,39.9 		"/>
		<polygon class="st50" points="406.9,30 406,29.7 404.8,34.5 405.7,34.8 		"/>
		<polygon class="st50" points="404.1,41.7 403.1,41.4 401.9,46.3 402.9,46.5 		"/>
		<polygon class="st50" points="407.2,29 407.4,28.2 406.4,27.7 406.2,28.7 		"/>
		<polygon class="st50" points="404.3,40.7 405.5,35.8 404.5,35.6 403.4,40.4 		"/>
		<polygon class="st50" points="402.6,47.6 401.7,47.3 400.5,52.1 401.5,52.4 		"/>
		<polygon class="st50" points="401.2,53.4 400.2,53.2 399.1,58 400,58.3 		"/>
		<path class="st50" d="M398.8,59l-0.4,1.6c0.2,0.4,0.5,0.7,0.8,1l0.6-2.3L398.8,59z"/>
		<polygon class="st50" points="409.8,42.2 411,37.4 410,37.1 408.8,41.9 		"/>
		<polygon class="st50" points="404.5,59.5 405.5,59.8 406.7,55 405.7,54.7 		"/>
		<polygon class="st50" points="411.2,36.3 412.4,31.5 411.4,31.3 410.2,36.1 		"/>
		<path class="st50" d="M404.3,60.5l-0.8,3.3c0.3,0,0.7,0,1,0l0.7-3L404.3,60.5z"/>
		<polygon class="st50" points="407.1,48.8 406,53.7 406.9,53.9 408.1,49.1 		"/>
		<polygon class="st50" points="409.5,43.2 408.6,43 407.4,47.8 408.4,48.1 		"/>
		<polygon class="st50" points="416.7,37.9 417.8,33.4 416.9,33 415.7,37.6 		"/>
		<polygon class="st50" points="414.3,43.5 415.2,43.7 416.4,38.9 415.5,38.6 		"/>
		<path class="st50" d="M411.2,56.2l-0.9,3.8c0.5-0.6,1-1.3,1.5-2l0.4-1.5L411.2,56.2z"/>
		<polygon class="st50" points="411.4,55.2 412.4,55.5 413.6,50.6 412.6,50.4 		"/>
		<polygon class="st50" points="412.9,49.3 413.8,49.6 415,44.8 414,44.5 		"/>
		<path class="st50" d="M399.1,58l-1.8-0.5c0.1,0.4,0.2,0.8,0.3,1.2l1.3,0.3L399.1,58z"/>
		<polygon class="st50" points="400,58.3 399.8,59.3 404.3,60.5 404.5,59.5 		"/>
		<path class="st50" d="M405.2,60.8l3.4,0.9c0.3-0.3,0.6-0.5,0.9-0.8l-4-1.1L405.2,60.8z"/>
		<polygon class="st50" points="399.1,58 398.8,59 399.8,59.3 400,58.3 		"/>
		<polygon class="st50" points="399.1,58 398.8,59 399.8,59.3 400,58.3 		"/>
		<polygon class="st50" points="405.5,59.8 404.5,59.5 404.3,60.5 405.2,60.8 		"/>
		<polygon class="st50" points="405.5,59.8 404.5,59.5 404.3,60.5 405.2,60.8 		"/>
		<path class="st50" d="M412.1,56.5l0.5,0.2l0.6-0.9l-0.9-0.2L412.1,56.5z"/>
		<polygon class="st50" points="406,53.7 401.5,52.4 401.2,53.4 405.7,54.7 		"/>
		<polygon class="st50" points="406.9,53.9 406.7,55 411.2,56.2 411.4,55.2 		"/>
		<path class="st50" d="M400.5,52.1l-2.8-0.8c-0.1,0.3-0.1,0.7-0.2,1l2.8,0.8L400.5,52.1z"/>
		<polygon class="st50" points="401.5,52.4 400.5,52.1 400.2,53.2 401.2,53.4 		"/>
		<polygon class="st50" points="401.5,52.4 400.5,52.1 400.2,53.2 401.2,53.4 		"/>
		<polygon class="st50" points="406,53.7 405.7,54.7 406.7,55 406.9,53.9 		"/>
		<polygon class="st50" points="406,53.7 405.7,54.7 406.7,55 406.9,53.9 		"/>
		<polygon class="st50" points="411.2,56.2 412.1,56.5 412.4,55.5 411.4,55.2 		"/>
		<polygon class="st50" points="411.2,56.2 412.1,56.5 412.4,55.5 411.4,55.2 		"/>
		<polygon class="st50" points="408.1,49.1 412.6,50.4 412.9,49.3 408.4,48.1 		"/>
		<path class="st50" d="M401.9,46.3l-2.3-0.7c-0.1,0.3-0.3,0.6-0.4,1l2.5,0.7L401.9,46.3z"/>
		<path class="st50" d="M396.5,44.7l-4.1-1.2c-0.2,0.3-0.3,0.7-0.4,1l4.3,1.2L396.5,44.7z"/>
		<path class="st50" d="M397.2,46l1,0.3c0.4-0.3,0.8-0.6,1.1-0.8l-1.8-0.5L397.2,46z"/>
		<path class="st50" d="M413.6,50.6l2,0.6l0.5-1l-2.3-0.6L413.6,50.6z"/>
		<polygon class="st50" points="407.4,47.8 402.9,46.5 402.6,47.6 407.1,48.8 		"/>
		<polygon class="st50" points="396.2,45.8 397.2,46 397.4,45 396.5,44.7 		"/>
		<polygon class="st50" points="396.2,45.8 397.2,46 397.4,45 396.5,44.7 		"/>
		<polygon class="st50" points="402.9,46.5 401.9,46.3 401.7,47.3 402.6,47.6 		"/>
		<polygon class="st50" points="402.9,46.5 401.9,46.3 401.7,47.3 402.6,47.6 		"/>
		<polygon class="st50" points="408.4,48.1 407.4,47.8 407.1,48.8 408.1,49.1 		"/>
		<polygon class="st50" points="408.4,48.1 407.4,47.8 407.1,48.8 408.1,49.1 		"/>
		<polygon class="st50" points="412.6,50.4 413.6,50.6 413.8,49.6 412.9,49.3 		"/>
		<polygon class="st50" points="412.6,50.4 413.6,50.6 413.8,49.6 412.9,49.3 		"/>
		<path class="st50" d="M415,44.8l3,0.8l0.4-1l-3.2-0.9L415,44.8z"/>
		<path class="st50" d="M397.9,38.9l-1.9-0.5l-0.7,0.9l2.4,0.7L397.9,38.9z"/>
		<polygon class="st50" points="398.8,39.1 398.6,40.2 403.1,41.4 403.4,40.4 		"/>
		<polygon class="st50" points="409.5,43.2 414,44.5 414.3,43.5 409.8,42.2 		"/>
		<polygon class="st50" points="408.8,41.9 404.3,40.7 404.1,41.7 408.6,43 		"/>
		<polygon class="st50" points="397.9,38.9 397.6,39.9 398.6,40.2 398.8,39.1 		"/>
		<polygon class="st50" points="397.9,38.9 397.6,39.9 398.6,40.2 398.8,39.1 		"/>
		<polygon class="st50" points="404.3,40.7 403.4,40.4 403.1,41.4 404.1,41.7 		"/>
		<polygon class="st50" points="404.3,40.7 403.4,40.4 403.1,41.4 404.1,41.7 		"/>
		<polygon class="st50" points="409.8,42.2 408.8,41.9 408.6,43 409.5,43.2 		"/>
		<polygon class="st50" points="409.8,42.2 408.8,41.9 408.6,43 409.5,43.2 		"/>
		<polygon class="st50" points="414,44.5 415,44.8 415.2,43.7 414.3,43.5 		"/>
		<polygon class="st50" points="414,44.5 415,44.8 415.2,43.7 414.3,43.5 		"/>
		<path class="st50" d="M416.4,38.9l3.7,1c0.1-0.3,0.2-0.7,0.3-1l-3.8-1.1L416.4,38.9z"/>
		<polygon class="st50" points="415.5,38.6 415.7,37.6 411.2,36.3 411,37.4 		"/>
		<path class="st50" d="M404.5,35.6l0.3-1l-4.4-1.2l-0.2,0.2l-0.2,0.8L404.5,35.6z"/>
		<polygon class="st50" points="410.2,36.1 405.7,34.8 405.5,35.8 410,37.1 		"/>
		<path class="st50" d="M400.2,33.5l-0.6,0.7l0.5,0.1L400.2,33.5z"/>
		<path class="st50" d="M400.2,33.5l-0.6,0.7l0.5,0.1L400.2,33.5z"/>
		<polygon class="st50" points="405.7,34.8 404.8,34.5 404.5,35.6 405.5,35.8 		"/>
		<polygon class="st50" points="405.7,34.8 404.8,34.5 404.5,35.6 405.5,35.8 		"/>
		<polygon class="st50" points="410,37.1 411,37.4 411.2,36.3 410.2,36.1 		"/>
		<polygon class="st50" points="410,37.1 411,37.4 411.2,36.3 410.2,36.1 		"/>
		<polygon class="st50" points="416.4,38.9 416.7,37.9 415.7,37.6 415.5,38.6 		"/>
		<polygon class="st50" points="416.4,38.9 416.7,37.9 415.7,37.6 415.5,38.6 		"/>
		<path class="st50" d="M406.2,28.7l-1-0.3l-0.9,0.9l1.6,0.5L406.2,28.7z"/>
		<polygon class="st50" points="416,32.5 412.6,30.8 412.4,31.5 		"/>
		<polygon class="st50" points="406.9,30 411.4,31.3 411.6,30.3 411,30 407.2,29 		"/>
		<polygon class="st50" points="407.2,29 406.2,28.7 406,29.7 406.9,30 		"/>
		<polygon class="st50" points="407.2,29 406.2,28.7 406,29.7 406.9,30 		"/>
		<polygon class="st50" points="412.4,31.5 412.6,30.8 411.6,30.3 411.4,31.3 		"/>
		<polygon class="st50" points="412.4,31.5 412.6,30.8 411.6,30.3 411.4,31.3 		"/>
		<polygon class="st48" points="406,28.5 405.7,22.4 407.6,22.5 406.9,29.1 		"/>
		<path class="st44" d="M384,20.9c-1.4-0.1-2.5-1.2-2.4-2.6c0-1.2,0.8-2.3,2-2.6v-3.1c0-0.2,0.1-0.4,0.3-0.5c0.2,0,0.4,0.1,0.5,0.3
			c0,0,0,0.1,0,0.1v3.5c0,0.2-0.2,0.4-0.4,0.4c0,0,0,0,0,0c-1-0.1-1.8,0.7-1.9,1.6c-0.1,1,0.7,1.8,1.6,1.9c1,0.1,1.8-0.7,1.9-1.6
			c0,0,0-0.1,0-0.1c0-0.2,0.1-0.4,0.3-0.5c0.2,0,0.4,0.1,0.5,0.3c0,0,0,0.1,0,0.1C386.5,19.6,385.4,20.8,384,20.9z"/>
		<path class="st42" d="M388.1,57.4l-0.7-4.2l-0.9-5.4l-2.5-1.7l0.2-17.8l-0.1,4.9l0.1-6.4h0.3l0.5-8.1c-0.7-0.4-1.6-0.4-2.4-0.1
			l0.3,8.2h0.2l-0.4,15.6l-0.1,3.5l-2.5,2.1l1.2,10.1l6.1-0.8L388.1,57.4L388.1,57.4z M385.1,57.1l-0.8,0.1
			c-0.2-1.4-1.2-7.5-0.9-8.5C383.9,48.5,384.8,55.4,385.1,57.1L385.1,57.1L385.1,57.1z M383.1,57.4L383.1,57.4l-0.8,0.1
			c-0.3-1.7-1.2-7.9-0.8-8.5v0.1C382,48.9,382.8,55.5,383.1,57.4L383.1,57.4z M383.4,48.6C383.4,48.6,383.4,48.6,383.4,48.6
			C383.4,48.6,383.4,48.6,383.4,48.6L383.4,48.6z M385.3,48.4c0,0,0,0-0.1,0.1c0.5-0.2,1.5,6.5,1.8,8.3l-0.8,0.1
			C385.9,55.2,384.8,48.6,385.3,48.4L385.3,48.4z M387,56.8v-0.2V56.8z M383.8,19.1c0.2,0.2,0.3,0.4,0.3,0.7c0,0.3-0.1,0.5-0.3,0.8
			c-0.2-0.2-0.4-0.5-0.3-0.8C383.5,19.5,383.7,19.3,383.8,19.1L383.8,19.1z"/>
		<polygon class="st51" points="384,22.9 383.9,46.5 385.1,46.4 385,22.8 		"/>
		<path class="st52" d="M387.7,47l-2.7-1.6h-0.9l-2.6,2l1.5,9.9l6.7-1L387.7,47z M383.7,56.6c-0.3-1.7-1.4-8.1-1-8.3
			s1.6,6.5,1.8,8.1L383.7,56.6z M385.7,56.3c-0.3-1.5-1.5-8.2-1-8.4s1.6,6.9,1.9,8.3L385.7,56.3z M387.6,55.9
			c-0.3-1.7-1.6-8.1-1.1-8.3s1.7,6.6,2,8.2L387.6,55.9z"/>
		<polygon class="st53" points="389.6,56.4 383.1,57.1 381.7,47.6 384.1,45.5 384.3,26.3 384,26.2 383.9,45.3 381.5,47.5 
			382.9,57.4 		"/>
		<polygon class="st54" points="389.6,56.4 387.5,47.1 385,45.5 385.1,28 385.2,45.4 387.7,47 		"/>
		<path class="st43" d="M383.2,18.6l0.5,8l1.6-0.1l0.3-8C384.8,18.2,384,18.2,383.2,18.6z M384.6,20.4c-0.3,0-0.5-0.4-0.5-0.8
			s0.2-0.8,0.5-0.8s0.5,0.4,0.5,0.8S384.8,20.5,384.6,20.4z"/>
		<polygon class="st43" points="383.3,18.6 383.7,18.5 384.1,26.4 385.2,26.5 383.7,26.6 		"/>
		<path class="st53" d="M384.6,56.5L384.6,56.5c-0.4-1.8-1.4-8.2-1.9-8c0-0.1,0-0.1,0.1-0.1C383.3,48.1,384.3,54.8,384.6,56.5z"/>
		<path class="st53" d="M386.5,56.1L386.5,56.1c-0.3-1.6-1.4-8.4-1.9-8.2c0,0,0-0.1,0.1-0.1C385.2,47.6,386.3,54.8,386.5,56.1z"/>
		<path class="st53" d="M388.5,55.8h-0.1c-0.3-1.7-1.4-8.2-1.9-8.1c0,0,0-0.1,0.1-0.1C387,47.4,388.2,54.3,388.5,55.8z"/>
		<path class="st55" d="M384.6,20.4c-0.1,0-0.1,0-0.2,0c0.2-0.2,0.3-0.5,0.3-0.7c0-0.3-0.1-0.5-0.3-0.7c0,0,0.1-0.1,0.2-0.1
			c0.3,0,0.5,0.3,0.5,0.7S384.9,20.4,384.6,20.4z"/>
		<path class="st44" d="M386,17.8c-0.2,0-0.4,0.2-0.4,0.4c0,0,0,0,0,0c0,0.9-0.6,1.6-1.5,1.6c-0.1,0-0.1,0.8-0.1,0.8
			c1.3,0,2.3-1.1,2.3-2.4c0,0,0,0,0,0C386.4,18,386.2,17.9,386,17.8C386,17.8,386,17.8,386,17.8z"/>
		<g>
			<polygon class="st42" points="320.8,44.4 320.8,34.4 322.5,34.5 322.9,45.1 			"/>
			<g class="st12">
				<path class="st42" d="M320.8,34.4v10l0.3,0.1c0-1.9,0-7.8,1-10L320.8,34.4z"/>
			</g>
			<path class="st42" d="M319.3,43.4c-4.6,1-14,5.8-11.8,18.2c1.7,9.8,13.2,13.1,19.7,9.3c5.7-3.4,11.2-13.5,5.2-21.8
				C327.3,42.3,322.5,42.7,319.3,43.4z"/>
			<path class="st42" d="M318.8,44.2c-4.3,0.9-12.6,5.5-10.5,17.2c1.6,9.3,12.8,12.7,18.8,9.1c5.4-3.2,10.2-13.1,4.6-20.8
				C326.9,43.2,321.8,43.5,318.8,44.2z"/>
			<path class="st42" d="M319.2,47c-3.5,0.7-10,4.4-8.4,13.7c1.3,7.4,10.2,10.1,15,7.3c4.3-2.5,8.1-10.4,3.6-16.6
				C325.7,46.2,321.6,46.4,319.2,47z"/>
			<g class="st56">
				<path class="st42" d="M312.6,61.6c-1.7-9.8,5-13.9,8.8-14.9c-0.8,0-1.5,0.1-2.3,0.3c-3.5,0.7-10,4.4-8.4,13.7
					c0.6,3.1,2.6,5.7,5.4,7.1C314.3,66.2,313,64,312.6,61.6z"/>
			</g>
			<path class="st42" d="M320.3,20.9c-0.3,1.9-0.5,17-0.5,17l3.6,0.1c0,0,0.9-15.7-0.1-18.3S320.5,19,320.3,20.9z M322.5,22.8
				l-1.2,0.1c0,0-0.4-2.8,0.4-3S322.5,22.8,322.5,22.8L322.5,22.8z"/>
			<path class="st42" d="M320,28.8c0,0.3,0,0.5,0,0.8c0.5,0,1,0,1.4,0c0.8,0.1,1.5,0.2,2.3,0.4c0-0.3,0-0.5,0-0.8
				c-0.7-0.1-1.4-0.2-2.1-0.3C321.1,28.8,320.6,28.7,320,28.8z"/>
			<path class="st42" d="M320,27.4c0,0.2,0,0.5,0,0.7c0.7,0,1.3,0,2,0.1c0.6,0.1,1.2,0.2,1.7,0.4c0-0.3,0-0.6,0-0.9
				C322.5,27.4,321.3,27.3,320,27.4z"/>
			<g class="st12">
				<path class="st42" d="M320.3,20.9c-0.3,1.9-0.5,17-0.5,17h0.5c0-2.7-0.1-15.8,1.6-19.4C320.9,19,320.3,19.9,320.3,20.9z"/>
			</g>
		</g>
		<polygon class="st57" points="322.1,44.2 322.1,34.2 323.8,34.2 324.2,44.8 		"/>
		<g class="st12">
			<path class="st58" d="M322.1,34.2v10l0.3,0.1c0-1.9,0-7.8,1-10L322.1,34.2z"/>
		</g>
		<path class="st59" d="M320.6,43.2c-4.6,1-14,5.8-11.8,18.2c1.7,9.8,13.2,13.1,19.7,9.3c5.7-3.4,11.2-13.5,5.2-21.7
			C328.6,42.1,323.8,42.5,320.6,43.2z"/>
		<path class="st60" d="M320,43.9c-4.3,0.9-12.6,5.5-10.5,17.2c1.6,9.3,12.8,12.7,18.8,9.1c5.4-3.2,10.2-13.1,4.6-20.8
			C328.2,43,323.1,43.3,320,43.9z"/>
		<path class="st61" d="M320.5,46.7c-3.5,0.7-10,4.4-8.4,13.7c1.3,7.4,10.2,10.1,15,7.3c4.3-2.5,8.1-10.4,3.6-16.6
			C327,45.9,322.9,46.2,320.5,46.7z"/>
		<g class="st56">
			<path class="st58" d="M313.9,61.3c-1.7-9.8,5-13.9,8.8-14.9c-0.8,0-1.5,0.1-2.3,0.3c-3.5,0.7-10,4.4-8.4,13.7
				c0.6,3.1,2.5,5.7,5.4,7.1C315.6,65.9,314.3,63.8,313.9,61.3z"/>
		</g>
		<path class="st62" d="M321.6,20.7c-0.3,1.9-0.5,17-0.5,17l3.6,0.1c0,0,0.9-15.7-0.1-18.3S321.8,18.8,321.6,20.7z M323.8,22.6
			l-1.2,0.1c0,0-0.4-2.8,0.4-3S323.8,22.6,323.8,22.6z"/>
		<path class="st63" d="M321.3,28.5c0,0.3,0,0.5,0,0.8c0.5,0,1,0,1.4,0c0.8,0.1,1.5,0.2,2.3,0.4c0-0.3,0-0.5,0-0.8
			c-0.7-0.1-1.4-0.2-2.1-0.3C322.4,28.5,321.8,28.5,321.3,28.5z"/>
		<path class="st63" d="M321.3,27.1c0,0.3,0,0.5,0,0.7c0.7,0,1.3,0,2,0.1c0.6,0.1,1.2,0.2,1.7,0.4c0-0.3,0-0.6,0-0.9
			C323.8,27.2,322.6,27,321.3,27.1z"/>
		<g class="st12">
			<path class="st62" d="M321.6,20.7c-0.3,1.9-0.5,17-0.5,17h0.5c0-2.7-0.1-15.8,1.5-19.4C322.2,18.8,321.6,19.7,321.6,20.7z"/>
		</g>
		<path class="st44" d="M325.2,17.8c-0.2,0-0.4,0.2-0.4,0.4c0,0.9-0.7,1.7-1.6,1.7c0,0,0,0,0,0c-0.1,0-0.1,0.9-0.1,0.9
			c1.4,0,2.5-1.1,2.5-2.5c0,0,0,0,0-0.1C325.6,18,325.4,17.8,325.2,17.8C325.2,17.8,325.2,17.8,325.2,17.8z"/>
		<path class="st44" d="M364,20.9c-1.4-0.1-2.5-1.2-2.4-2.6c0-1.2,0.8-2.3,2-2.6v-3.1c0-0.2,0.1-0.4,0.3-0.5c0.2,0,0.4,0.1,0.5,0.3
			c0,0,0,0.1,0,0.1v3.5c0,0.2-0.2,0.4-0.4,0.4c0,0,0,0,0,0c-1-0.1-1.8,0.7-1.9,1.6c-0.1,1,0.7,1.8,1.6,1.9c1,0.1,1.8-0.7,1.9-1.6
			c0,0,0-0.1,0-0.1c0-0.2,0.1-0.4,0.3-0.5c0.2,0,0.4,0.1,0.5,0.3c0,0,0,0.1,0,0.1C366.5,19.6,365.4,20.8,364,20.9z"/>
		<path class="st42" d="M364.8,47.1c-0.5-0.3-0.8-0.9-0.8-1.5l0.5-23.6v-2.3c0-0.6-0.4-1.1-1-1.3l0,0h-0.2h-0.1h-0.1h-0.1H363h-0.1
			h-0.1l-0.1,0.1l-0.1,0.1c0,0-0.1,0.1-0.1,0.1l-0.1,0.1c0,0-0.1,0.1-0.1,0.1l-0.1,0.1l-0.1,0.1c0,0,0,0,0,0.1l0,0c0,0,0,0.1,0,0.2
			s0,0.1,0,0.1c0,0.1,0,0.2,0,0.3l0.3,12.1l0,0l0.3,13.9c0,0.6-0.3,1.1-0.8,1.5c-0.2,0.1-0.3,0.3-0.5,0.4c-1,1.1-1.6,2.5-1.8,4
			c-0.1,0.5-0.1,1-0.1,1.4c0,3.5,1.8,6.4,3.9,6.4s3.9-2.8,3.9-6.4C367.1,50.3,366.2,48,364.8,47.1z"/>
		<path class="st64" d="M368,52.9c0-2.6-1-4.9-2.4-5.9c-0.5-0.3-0.8-0.9-0.8-1.5l0.3-13.9l0.3-12.1c0-0.5-0.4-1-0.9-1.2h-0.1h-0.1
			h-0.2c-0.7,0-1.3,0.6-1.3,1.3c0,0,0,0,0,0l0.5,26c0,0.6-0.3,1.1-0.8,1.5c-1.4,1-2.4,3.2-2.4,5.9c0,3.5,1.8,6.4,3.9,6.4h0.2
			C366.3,59.1,368,56.3,368,52.9z M364.5,19.3c0.4,0.2,0.4,2.3,0.4,2.3h-1.1c0-0.4,0-0.9,0-1.3C363.9,18.8,364.5,19.3,364.5,19.3z"
			/>
		<path class="st65" d="M360.5,52.9c0-2.6,1-4.9,2.4-5.8c0.5-0.3,0.8-0.9,0.8-1.5l-0.5-26c0-0.6,0.5-1.2,1.1-1.3h-0.1
			c-0.7,0-1.3,0.5-1.4,1.2c0,0,0,0,0,0.1l0.5,26c0,0.6-0.3,1.1-0.8,1.5c-1.4,1-2.4,3.2-2.4,5.8c0,3.5,1.8,6.4,3.9,6.4h0.2
			C362.2,59.1,360.5,56.3,360.5,52.9z"/>
		<path class="st66" d="M364.5,18.4h-0.1h-0.1h-0.2c-0.7,0-1.3,0.6-1.3,1.3c0,0,0,0,0,0l0.2,12h2.1l0.3-12.1
			C365.4,19.1,365,18.6,364.5,18.4z M364.9,21.6h-1.1c0-0.4,0-0.9,0-1.3c0.1-1.5,0.7-1,0.7-1C364.9,19.5,364.9,21.6,364.9,21.6z"/>
		<path class="st66" d="M364.3,18.3h-0.2c-0.7,0-1.3,0.6-1.3,1.3c0,0,0,0,0,0l0.2,12.1h0.4l-0.3-12.1
			C363.1,18.9,363.6,18.4,364.3,18.3z"/>
		<path class="st65" d="M367,53c0,0,0.5,3.2-1.1,4.5c-0.8,0.7-1.9,0.9-2.8,0.3c0.9,0.2,1.9-0.2,2.6-0.9C366.6,55.9,367,53,367,53z"
			/>
		<path class="st44" d="M366,17.9c-0.2,0-0.4,0.2-0.4,0.4c0,0.9-0.7,1.7-1.6,1.7c-0.1,0-0.1,0.9-0.1,0.9c1.4,0,2.5-1.1,2.5-2.5
			c0,0,0,0,0-0.1C366.4,18.1,366.3,17.9,366,17.9z"/>
		<path class="st67" d="M468.1,232.4L468.1,232.4v-2.9l32.1-0.3v3.2c0,2.5-6.1,3.5-13.9,3.5h-6.1
			C472.9,235.8,468.1,234.7,468.1,232.4z"/>
		<g>
			<defs>
				<path id="SVGID_3_" d="M468.1,232.4L468.1,232.4v-2.9l32.1-0.3v3.2c0,2.5-6.1,3.5-13.9,3.5h-6.1
					C472.9,235.8,468.1,234.7,468.1,232.4z"/>
			</defs>
			<clipPath id="SVGID_4_">
				<use xlink:href="#SVGID_3_"  style="overflow:visible;"/>
			</clipPath>
			<g class="st68">
				<rect x="469.4" y="227.3" class="st69" width="20.5" height="12.1"/>
				<rect x="471.7" y="227.3" class="st70" width="7.9" height="12.1"/>
				<rect x="494.3" y="227.3" class="st71" width="7.9" height="12.1"/>
			</g>
		</g>
		<path class="st72" d="M464.9,206.9l2.4,22.3c0,0.4,0.2,0.8,0.4,1.2l0,0c0.9,1.7,3.7,2.9,14,2.9h4.7c7.7,0,12-1,13.7-2.4
			c0.5-0.5,0.8-1.1,0.9-1.8l2.5-23.1L464.9,206.9z"/>
		<path class="st73" d="M481.7,233.3h4.7c7.7,0,12-1,13.7-2.4c0.5-0.5,0.8-1.1,0.9-1.8l2.6-23.1C503.5,206,499.6,229.2,481.7,233.3z
			"/>
		<path class="st74" d="M488.9,191.9c0-1.5-1.7-3.2-4.7-3.2s-4.7,1.7-4.7,3.2H488.9z"/>
		<path class="st75" d="M488.9,191.9c-1.6-0.2-3.2-0.3-4.8-0.3c-1.5,0-3,0.1-4.5,0.3H488.9z"/>
		<path class="st76" d="M479.5,191.9c1,1.4,1.6,3.1,1.5,4.8c0,2.4,6.4,2,6.4,0c0-1.7,0.6-3.4,1.5-4.8H479.5z"/>
		<path class="st77" d="M503.5,202.9l-1.6-1.7c-2.1-2.2-4.8-3.8-7.7-4.3l0,0c-1.3-0.4-2.8-0.7-8.7-0.7h-3.5c-0.4,0-0.8,0-1.2,0
			c-7.8,0.4-10.5,2.1-14.9,6l-1.1,1L503.5,202.9z"/>
		<g>
			<defs>
				<path id="SVGID_5_" d="M503.5,202.9l-1.6-1.7c-2.1-2.2-4.8-3.8-7.7-4.3l0,0c-1.3-0.4-2.8-0.7-8.7-0.7h-3.5c-0.4,0-0.8,0-1.2,0
					c-7.8,0.4-10.5,2.1-14.9,6l-1.1,1L503.5,202.9z"/>
			</defs>
			<clipPath id="SVGID_6_">
				<use xlink:href="#SVGID_5_"  style="overflow:visible;"/>
			</clipPath>
			<g class="st78">
				<path class="st69" d="M470.4,216.2c-1.4-3.2-7.8-15.4,18.2-19.9c7.5-1.3-18.5-6.4-18.5-6.4s-12.1,10.9-12.1,11.8
					S470.4,216.2,470.4,216.2z"/>
				<path class="st73" d="M477.7,196.3c11.3,0.1,19.5,0.6,22.1,9.9s10.2-10.6,10.2-11s-23.4-4.7-23.4-4.7L477.7,196.3z"/>
			</g>
		</g>
		<path class="st67" d="M510.4,206.9h-7l-0.7,6.1h0.5c0,0,0.9-2.5,2.3-3.1s4.9-0.4,4.9-0.4L510.4,206.9z"/>
		<path class="st67" d="M457.9,206.9h7l0.7,6.1h-0.5c0,0-0.9-2.5-2.3-3.1s-4.9-0.4-4.9-0.4L457.9,206.9z"/>
		<rect x="457.9" y="206.9" class="st79" width="7.8" height="0.5"/>
		<rect x="502.7" y="206.9" class="st79" width="7.8" height="0.5"/>
		<rect x="464.7" y="204.6" class="st80" width="39.2" height="2.8"/>
		<rect x="466.8" y="204.6" class="st69" width="23.6" height="2.8"/>
		<rect x="468.1" y="204.6" class="st70" width="17.6" height="2.8"/>
		<polygon class="st73" points="503.8,207.4 498.3,207.4 498.3,204.6 503.8,204.6 		"/>
		<polygon class="st73" points="503.1,209.5 465,208.1 465,207.4 503.4,207.4 		"/>
		<polygon class="st74" points="504.2,202.8 464.5,202.8 464.5,204.6 504.1,204.6 		"/>
		<polygon class="st73" points="504.2,202.8 499.2,202.8 499.2,204.6 504.1,204.6 		"/>
		<polygon class="st70" points="486.9,202.8 467.5,202.8 467.6,204.6 486.9,204.6 		"/>
		<polygon class="st75" points="503.6,202.9 467.2,201.1 465.3,202.8 503.6,202.9 		"/>
		<polygon class="st70" points="478.6,202.8 472,202.8 472,204.6 478.6,204.6 		"/>
		<polygon class="st67" points="464.5,204.6 503.8,204.6 503.8,205.1 		"/>
		<ellipse class="st71" cx="332.3" cy="232.8" rx="21.1" ry="2.9"/>
		<g id="g4742">
			<path id="path4650" class="st81" d="M311.3,212.4c-0.1,0.8,0,1.7,0.4,2.5c0.2,0.6,0.7,1,1.3,1.3v12.4c0.1,1.3,0.5,2.5,1.2,3.6
				c-0.8,0.7,22.3,5.2,36.2-0.1c0.5-0.7,1.6-2,1.6-3.1v-12.8c0.6-0.3,1-0.7,1.2-1.3c0.3-0.8,0.5-1.6,0.4-2.5L311.3,212.4
				L311.3,212.4z"/>
			<path id="path4660" class="st82" d="M349.5,212.4c0.2,0.7,0.3,1.4,0.3,2.1c0,0.4-0.1,0.8-0.2,1.2l-18.3,0.3l18.4,0.7
				c0.3,1.9,0.3,3.9-0.2,5.9c-0.4,1.8-1.2,3.4-2.4,4.8c-1.1,1.3-2.5,2.2-4.1,2.7c-1.5,0.4-3,0.7-4.5,0.7c-5.6,0.5-11.3,0.8-16.9-0.4
				c-3-0.6-5.9-1.6-8.7-3v1.3c0.1,1.2,0.5,2.4,1.2,3.4c14.3,4.7,32,1.2,32,1.2c1.3-0.3,2.6-0.7,3.9-1.2c0.4-0.2,0.7-0.4,0.9-0.8
				c0.6-0.8,0.8-1.8,0.8-2.8v-12.4c0.6-0.3,1-0.7,1.2-1.3c0.3-0.8,0.5-1.6,0.4-2.5H349.5z"/>
			<path id="path4668" class="st83" d="M334.3,213.9c0,0.5-4.7,1-10.5,1s-10.5-0.4-10.5-1s4.7-1,10.5-1l0,0
				C329.6,212.9,334.3,213.3,334.3,213.9z"/>
			<path id="ellipse4670" class="st83" d="M330.9,222.7c0,3.1-3.8,5.5-8.5,5.5l0,0c-4.7,0-8.5-2.5-8.5-5.5l0,0
				c0-3.1,3.8-5.5,8.5-5.5S330.9,219.6,330.9,222.7z"/>
			<path id="path4676" class="st84" d="M330.6,204.6c-3.9,0-7.7,0.8-11.3,2.4c-1.6,0.7-3.2,1.6-4.6,2.6c-0.7,0-1.5,0.3-1.9,0.9
				c-0.4,0.5-0.7,1.2-0.9,1.9l20.5,0.1l20.5-0.1c-0.1-0.7-0.5-1.3-0.9-1.9c-0.5-0.6-1.2-0.9-1.9-0.9c-1.5-1-3-1.8-4.6-2.6
				c-3.5-1.6-7.4-2.4-11.3-2.4H330.6L330.6,204.6z"/>
			<path id="path4688" class="st85" d="M330.6,204.6c-3.9,0-7.7,0.8-11.3,2.4c-1.6,0.7-3.1,1.6-4.6,2.5c1.8,0.9,3.8,1.7,5.8,2.2
				c1.2,0.3,2.5,0.6,3.8,0.7h7c1.8-0.2,3.7-0.5,5.5-0.9c1.9-0.4,3.8-0.9,5.6-1.5l-12.3-0.1l12.4-0.4c-0.1-1.5-0.6-2.9-1.4-4.1
				c-2.3-0.6-4.7-0.9-7.1-0.9L330.6,204.6L330.6,204.6z"/>
			<path id="ellipse4697" class="st27" d="M327.9,205.1c-0.4,0-0.8,0-1.3,0.1c-1.8,0.3-3.2,1-3.1,1.7l0,0c0.1,0.6,1.5,0.9,3.3,0.6
				l0,0c1.8-0.3,3.2-1,3.1-1.7l0,0C329.9,205.4,329.1,205.1,327.9,205.1z M322.6,207c-0.3,0-0.6,0.1-0.9,0.2
				c-0.8,0.3-1.4,0.7-1.3,0.9l0,0c0,0.3,0.7,0.3,1.5,0s1.4-0.7,1.3-0.9S322.9,206.9,322.6,207L322.6,207z"/>
			<path id="path4706" class="st82" d="M332.3,200.5c-0.6,0-1.2,0.3-1.6,0.7c-0.3,0.3-0.6,0.7-0.8,1.1c0.2,0.2,0.4,0.5,0.6,0.6
				c0.2,0.2,0.5,0.4,0.8,0.5l-0.5,0.7l0.1,0.4h3.1l0.1-0.4l-0.5-0.7c0.3-0.1,0.5-0.3,0.8-0.5c0.2-0.2,0.4-0.4,0.6-0.6
				c-0.2-0.4-0.5-0.8-0.8-1.1c-0.5-0.5-1.1-0.7-1.7-0.7H332.3z"/>
			<path id="path4717" class="st81" d="M332.3,200.5c-0.6,0-1.2,0.3-1.6,0.7c-0.3,0.3-0.6,0.7-0.8,1.1c0.2,0.2,0.4,0.5,0.6,0.6
				c0.2,0.2,0.5,0.4,0.8,0.5l-0.5,0.7v0.1c0.4,0.1,0.8,0.1,1.2,0.1c0.5,0,1-0.1,1.5-0.3l-0.4-0.7c0.2-0.4,0.3-0.9,0.3-1.4
				c0-0.5-0.2-0.9-0.4-1.3c-0.1-0.1-0.2-0.2-0.4-0.3L332.3,200.5L332.3,200.5z"/>
			<path id="path4725" class="st27" d="M332.8,202.4c-0.5,0.1-1,0.1-1.4,0.1l0,0c-0.5,0-1,0-1.4-0.1l0,0c0.5-0.1,1-0.1,1.4-0.1l0,0
				C331.9,202.3,332.4,202.3,332.8,202.4z"/>
			<path id="ellipse4727" class="st27" d="M332.6,204.2c-0.3,0.1-0.6,0.1-0.9,0.1l0,0c-0.3,0-0.6,0-0.9-0.1l0,0
				c0.3-0.1,0.6-0.1,0.9-0.1l0,0C332,204.1,332.4,204.1,332.6,204.2z"/>
			<path id="path4729" class="st27" d="M331.7,200.7c-0.1,0-0.1,0-0.2,0c-0.2,0-0.3,0.2-0.3,0.3s0.2,0.2,0.4,0.1l0,0
				c0.2,0,0.3-0.2,0.3-0.3l0,0C331.9,200.8,331.8,200.7,331.7,200.7z M331.1,201.1c-0.1,0-0.1,0-0.1,0.1c-0.1,0.1-0.2,0.2-0.2,0.2
				l0,0c0,0.1,0.1,0.1,0.2,0S331.2,201.2,331.1,201.1L331.1,201.1C331.2,201.2,331.2,201.1,331.1,201.1z"/>
		</g>
		<ellipse class="st71" cx="549.3" cy="229.9" rx="14.6" ry="2.5"/>
		<g id="g6867">
			<path id="rect6775" class="st86" d="M557.1,192.1v0.2c0,0.3-0.2,0.5-0.4,0.5h-1.5c-0.2,0-0.4-0.2-0.4-0.5v-0.2
				c0-0.3,0.2-0.5,0.4-0.5h1.5C557,191.6,557.1,191.8,557.1,192.1z"/>
			<path id="path6768" class="st86" d="M553.6,195.8l1.9,0.3h1c0.3,0,0.5,0,0.8-0.1l0.4-0.1c0.1,0,0.3,0,0.4,0
				c0.3,0.1,0.5,0.3,0.6,0.5c0.1,0.3,0.2,0.6,0.2,0.9c0.1,0.7,0,1.5-0.2,2.2c-0.2,0.7-0.4,1.4-0.5,2.1c-0.5,2.4-0.3,4.8,0.5,7.1
				l0.9,1.8l1.2-12.5l-0.6-3.4l-2.2-1.1l-5-0.1L553.6,195.8z"/>
			<path id="path6856" class="st87" d="M554.7,194.9l-0.4,0.9l1.3,0.2h1c0.3,0,0.5,0,0.8-0.1l0.4-0.1c0.1,0,0.3,0,0.4,0
				c0.3,0.1,0.5,0.3,0.6,0.5c0.1,0.3,0.2,0.6,0.2,0.9c0.1,0.7,0,1.5-0.2,2.2c-0.2,0.7-0.4,1.4-0.5,2.1c-0.2,0.8-0.3,1.6-0.3,2.4
				c0.3-0.8,0.6-1.6,0.9-2.4c0.4-1.1,0.6-2.3,0.6-3.5c0-0.5-0.1-1-0.2-1.5c-0.1-0.4-0.4-0.8-0.7-1.1c-0.4-0.3-0.8-0.4-1.3-0.3
				c-0.4,0-0.9,0.2-1.3,0.2C555.4,195.2,555,195.1,554.7,194.9z"/>
			<path id="path6764" class="st88" d="M552.7,192.5v1.7h5.2c0.7,0.1,1.3,0.5,1.6,1.1c0.3,0.6,0.4,1.3,0.3,2l0,0l-1.2,16.4l1.2,0.2
				l1.3-16.3v0.1c0.2-1.1,0-2.3-0.5-3.3c-0.5-1.1-1.5-1.8-2.7-1.9L552.7,192.5z"/>
			<path id="path6760" class="st86" d="M544.3,193.6h-6l-0.1,0.1c-0.1,0.1-0.1,0.2-0.2,0.3c0,0.1,0,0.2,0,0.4l2.2,9.8L544.3,193.6z"
				/>
			<path id="rect6755" class="st86" d="M545.6,189.6h7v1.4h-7V189.6z"/>
			<path id="path6749" class="st89" d="M537.9,227.8v-4.9c-0.1-5,0.4-10.1,1.3-15c1.2-5.9,3.3-11.6,6.2-16.9h7.2
				c2.9,5.3,5,11,6.2,16.9c1,4.9,1.4,10,1.3,15v4.9L537.9,227.8L537.9,227.8z"/>
			<path id="path6819" class="st90" d="M545,191.8c-2.7,5.1-4.6,10.5-5.8,16.1c-0.8,3.9-1.2,7.8-1.3,11.7c1.7,0,3.5-0.4,5-1.3
				c2.5-1.4,4.5-3.6,5.8-6.2c1.5-3,2.1-6.3,1.8-9.6c-0.2-2.6-1-5.2-2.4-7.4C547.4,193.8,546.3,192.7,545,191.8z"/>
			<path id="rect6753" class="st86" d="M537.3,227.8h23.6v3h-23.6V227.8z"/>
			<path id="rect6757" class="st91" d="M547.4,188.2c1-0.8,2.5-0.8,3.5,0l-0.4,1.4h-2.7L547.4,188.2z"/>
			<path id="path6789" class="st86" d="M549.2,196.3c-0.9,0-1.5,1-1.5,2.1v25.1c0,1.2,0.7,2.1,1.5,2.1s1.5-1,1.5-2.1v-25.1
				C550.8,197.2,550,196.3,549.2,196.3z"/>
			<path id="path6782" class="st92" d="M548,208.4v15.1c0,0.9,0.5,1.7,1.2,1.7s1.2-0.7,1.2-1.7v-15.1H548z"/>
			<path id="rect6777" class="st93" d="M548,208.4h2.4v-10c0-0.9-0.5-1.7-1.2-1.7s-1.2,0.7-1.2,1.7L548,208.4z"/>
			<path id="rect6793" class="st94" d="M548.1,199.2v0.5h1v-0.5H548.1z M548.1,203.2v0.5h1v-0.5H548.1z M548.1,207.2v0.5h1v-0.5
				H548.1z M548.1,211.2v0.5h1v-0.5H548.1z M548.1,215.2v0.5h1v-0.5H548.1z M548.1,219.2v0.5h1v-0.5H548.1z M548.1,223.2v0.5h1v-0.5
				H548.1z"/>
			<path id="path6808" class="st95" d="M545.5,190.9L545.5,190.9c1,0.2,2.1,0.4,3.1,0.6c1.2,0.2,2.5,0.4,3.7,0.5
				c1,2.6,1.8,5.3,2.4,8c0.7,3,1.1,6,1.2,9c0.1,3-0.3,6.1-1.1,9c-0.6,2-1.6,3.9-3,5.6c-1.2,1.4-2.8,2.4-4.6,2.7
				c-2.3,0.2-4.6-1-6.9-1.7c-0.8-0.2-1.6-0.4-2.5-0.4v3.6h22.4v-4.9c0.1-5-0.4-10.1-1.3-15c-1.2-5.9-3.3-11.6-6.2-16.9L545.5,190.9
				L545.5,190.9z"/>
			<path id="path6830" class="st27" d="M544.8,196.7c-0.7-0.1-1.4,0.8-1.7,2c-0.3,1.4,0,2.8,0.8,3.1l0,0c0.8,0.3,1.6-0.5,2-1.9l0,0
				c0.3-1.4,0-2.8-0.8-3.1l0,0C544.9,196.7,544.8,196.7,544.8,196.7z M543.3,202.1c-0.3,0-0.5,0.4-0.5,0.9s0.2,0.9,0.5,0.9l0,0
				c0.3,0,0.5-0.4,0.5-0.9S543.6,202.1,543.3,202.1z"/>
			<path id="path6837" class="st96" d="M555.7,228.5c0,0.2-4.1,0.3-9.1,0.3l0,0c-5,0-9.1-0.1-9.1-0.3l0,0c0-0.2,4.1-0.3,9.1-0.3l0,0
				C551.6,228.2,555.7,228.4,555.7,228.5z"/>
			<path id="ellipse6839" class="st96" d="M552.3,190c-1.1,0.2-2.2,0.3-3.3,0.2l0,0c-1.1,0.1-2.2,0-3.3-0.2l0,0
				C547.9,189.7,550.1,189.7,552.3,190z"/>
			<path id="path6841" class="st96" d="M547.7,188.4c0.3-0.3,0.8-0.5,1.2-0.5c0.6-0.1,1.3,0.1,1.7,0.6
				C549.6,188,548.6,188,547.7,188.4L547.7,188.4z"/>
			<path id="path6845" class="st97" d="M538.4,193.6h-0.1l-0.1,0.1c-0.1,0.1-0.1,0.2-0.2,0.3c0,0.1,0,0.2,0,0.4l1.6,7.1
				c1.2-1.4,1.9-3.2,2.2-5c0.2-1,0.2-1.9,0.1-2.9L538.4,193.6z"/>
		</g>
		<path class="st98" d="M-301.1,342.1c0,0,96.9-573.9,308.3-203.5c0,0,364.6-347.6,804.9-7.5V-106H-301.6L-301.1,342.1z"/>
		<polygon class="st71" points="780.8,448.4 778.7,418 613.1,411.1 584.5,447.3 		"/>
		<rect x="592.2" y="16.4" class="st99" width="186.5" height="398.7"/>
		<path class="st100" d="M596.8,119.2h176c3.2,0,5.9,3.3,5.8,7.4l-1,270.8H591.3c-0.9-0.1-1.6-1-1.5-1.9V128
			C589.8,123.1,592.9,119.2,596.8,119.2z"/>
		<path class="st100" d="M591.7-27l188.2-0.3l-0.6,133.5c0,4.5,0.2,8.9-4.5,8.1H599.6c-4,0-7.3-4.1-7.3-9.2L591.7-27z"/>
		<path class="st100" d="M608.3,444l-18.5,0.4v-37.7h189v37.7h-20.2c0,0,2.4-15.8-8.8-21.5l-134.2,1.4
			C615.6,424.2,608.2,429.9,608.3,444z"/>
		<path class="st101" d="M589.8,397h7.7l-1.6-277.3l-1.3,0.1c-2.4,0.2-4.3,2.3-4.2,4.7L589.8,397z"/>
		<path class="st101" d="M599.3,114.3l-3.3-141.1c0,0-4.2,0.1-4.6,0.1l0.9,132.7C592.6,113.7,599.3,114.5,599.3,114.3z"/>
		<rect x="592.3" y="397.2" class="st99" width="186.5" height="9.4"/>
		
			<linearGradient id="SVGID_7_" gradientUnits="userSpaceOnUse" x1="3809.8501" y1="393.465" x2="3827.1001" y2="393.465" gradientTransform="matrix(-1 0 0 -1 3934.8501 572)">
			<stop  offset="0" style="stop-color:#E8EBEB"/>
			<stop  offset="1" style="stop-color:#F3F5F5"/>
		</linearGradient>
		<rect x="107.8" y="153.9" class="st102" width="17.3" height="49.3"/>
		<path class="st27" d="M125,153.9l-2.9,3.1h-11.5v43.1l-2.9,3.1v-49.3H125z"/>
		<path class="st103" d="M111.7,166.1c0.2,2.6,2.4,4.6,5,4.4c2.6-0.2,4.6-2.4,4.4-5c-0.1-2.5-2.2-4.4-4.7-4.4
			C113.7,161.2,111.6,163.4,111.7,166.1z"/>
		<rect x="118.5" y="164.4" class="st104" width="1.4" height="3.1"/>
		<rect x="112.8" y="164.4" class="st104" width="1.4" height="3.1"/>
		<ellipse class="st103" cx="116.4" cy="178.7" rx="4.7" ry="5"/>
		<rect x="118.5" y="177.1" class="st104" width="1.4" height="3.1"/>
		<rect x="112.8" y="177.1" class="st104" width="1.4" height="3.1"/>
		<path class="st104" d="M93,210.9c8,3.8,16.8,0,19.8-2.5c1.7-1.4,2.8-10.5,3-12.1c-2.8-0.2-4.8-2.6-4.6-5.4s2.6-4.8,5.4-4.6
			c2.6,0.2,4.6,2.4,4.6,5c0,2.5-1.4,4.5-3.6,4.9c-0.2,1.9-1.2,11.5-3.7,13.5c-2.5,1.8-5.2,3.1-8.1,4c-4.5,1-9.1,0.5-13.3-1.4
			L93,210.9z"/>
		<polygon class="st105" points="76.1,218.4 103.2,217.3 88.3,234.9 -23.6,235.6 -8.7,223.8 		"/>
		<path class="st106" d="M-16.1,150.5L2,142.2h96.5l-13.9,9.4C84.7,151.6,6.9,156.2-16.1,150.5z"/>
		<polygon class="st107" points="81.6,153.6 86.2,233.3 98.6,219.9 98.5,142.2 		"/>
		<path class="st108" d="M84.9,150.4H-15.4c-1.7,0-3.1,1.8-3.1,4v75.3c0,2.2,1.4,4,3.1,4H84.9c1.7,0,3.1-1.8,3.1-4v-75.4
			C88,152.2,86.6,150.4,84.9,150.4z"/>
		<g>
			<defs>
				<path id="SVGID_8_" d="M84.9,150.4H-15.4c-1.7,0-3.1,1.8-3.1,4v75.3c0,2.2,1.4,4,3.1,4H84.9c1.7,0,3.1-1.8,3.1-4v-75.4
					C88,152.2,86.6,150.4,84.9,150.4z"/>
			</defs>
			<clipPath id="SVGID_9_">
				<use xlink:href="#SVGID_8_"  style="overflow:visible;"/>
			</clipPath>
			<g class="st109">
				<rect x="5.6" y="146.7" class="st110" width="1.2" height="93.2"/>
				<path class="st111" d="M47.8,218.3H-16v1.8c0,5.1,3.3,9.4,7.2,9.4h47.9C43.9,229.4,47.8,224.4,47.8,218.3z"/>
				<g>
					<defs>
						<path id="SVGID_10_" d="M47.8,218.3H-16v1.8c0,5.1,3.3,9.4,7.2,9.4h47.9C43.9,229.4,47.8,224.4,47.8,218.3z"/>
					</defs>
					<clipPath id="SVGID_11_">
						<use xlink:href="#SVGID_10_"  style="overflow:visible;"/>
					</clipPath>
					<g class="st112">
						<path class="st113" d="M13.7,231.5h0.2c0.8-5.1,4.3-8.9,8.5-8.9h47.9c3.9,0,7,4,7.2,8.9l0,0v-1.8c0-5.1-3.3-9.4-7.2-9.4H22.3
							C17.6,220.4,13.7,225.4,13.7,231.5z"/>
					</g>
				</g>
				<path class="st20" d="M4.3,218.3H3.2v1.8c0,5.1,1.2,9.4,2.7,9.4h0.3c-1.1-1.2-2-5-2-9.3L4.3,218.3z"/>
				<path class="st114" d="M47.8,218.3H-16v-0.6c0-1.6,1-3,2.3-3H45C46.5,214.7,47.7,216.3,47.8,218.3L47.8,218.3z"/>
				<path class="st20" d="M4.3,218.3H3.2v-0.6c-0.1-1.6,1.1-3,2.7-3.1h0.3c-1.2,0.5-2,1.7-2,3L4.3,218.3z"/>
			</g>
		</g>
		<path class="st24" d="M72.3,156.9H17c-1.7,0-3.1,1.8-3.1,4v47.4c0,2.2,1.4,4,3.1,4h55.3c5.1,0,9.3-5.4,9.3-12.1V169
			C81.6,162.3,77.4,156.9,72.3,156.9z"/>
		<path class="st115" d="M-6.5,208.5c-3.6,0-6.6-3.2-6.6-7.2s3-7.2,6.6-7.2s6.6,3.2,6.6,7.2S-2.9,208.5-6.5,208.5z"/>
		<path class="st115" d="M-6.5,187.5c-3.6,0-6.6-3.4-6.6-7.6s3-7.6,6.6-7.6s6.6,3.4,6.6,7.6S-2.9,187.5-6.5,187.5z"/>
		<path class="st24" d="M-1.2,156.9h-10.5c-1.1,0.2-1.9,1.2-1.8,2.4v4.1c-0.1,1.1,0.7,2.2,1.8,2.3h10.5c1.1-0.2,1.9-1.2,1.8-2.3
			v-4.1C0.8,158.1,0,157.1-1.2,156.9z"/>
		<path class="st116" d="M119.8,235.9c0,0,11.7-40.8,60.3-13.1c0,0,5.4-1.8,12.2,7.6c0,0,55.4,6.8,74.5,19.4c0,0,52.7,7.7,70.2,28.4
			s66.8,63.2,124.8,57c0,0,40.5,32.2,27.3,77.5S421.2,504,421.2,504l-213-8.6c0,0-1.6-146.2,16.5-176L119.8,235.9z"/>
		<path class="st117" d="M461.7,335.4c-5.7,0.6-8.2,4.5-13.8,4.1c4,3.4,35,31,22.6,73.4c-12.3,42.1-60.3,84.6-67,90.4L420,504
			c0,0,54.5-45.8,67.8-91.1S461.7,335.4,461.7,335.4z"/>
		<path class="st117" d="M242.6,319.6l-104.9-83.1c0,0,5-17.1,21.8-21.6c-31-6.7-39.2,21.6-39.2,21.6l104.9,83.1
			c-18.1,29.6-16.5,175.1-16.5,175.1l213,8.6l0.8-0.7l-196.4-7.9C226.1,494.8,224.5,349.3,242.6,319.6z"/>
		<path class="st118" d="M284.3,408.2c11.9-11,4.6-42.2,11.6-42.8c13-2.9,9.8,37.3,11.9,53.3"/>
		<path class="st119" d="M269.5,386.5l-128.8-2.1c-14.2-0.3-26.1-10.7-28.2-24.7l-3.4-23.2c-2.3-15.8,8.7-30.6,24.5-32.9
			c0.5-0.1,1-0.1,1.5-0.2l130.5-10.1c16.5-1.5,31.2,9.7,31.8,26.2l1.4,36.9c0.6,16-11.9,29.4-27.9,30
			C270.5,386.5,270,386.5,269.5,386.5z"/>
		<path class="st119" d="M249.7,294.4c57.3-29.7,84,15.8,85.1,43.1s-26.7,73-72.8,49.5"/>
		<path class="st120" d="M315.5,350.3c0,0-13.8,22.8-64.6,18.1s-135.2-7.2-135.2-7.2c-2.8-5.1-3.7-11-2.8-16.7l140.4,5.7
			c0,0,44.5,2.1,63.8-27.5L315.5,350.3z"/>
		
			<linearGradient id="SVGID_12_" gradientUnits="userSpaceOnUse" x1="439.7387" y1="4626.7432" x2="413.5987" y2="4296.5332" gradientTransform="matrix(-0.7376 -0.6752 -0.6752 0.7376 3624.5911 -2757.6104)">
			<stop  offset="0.1" style="stop-color:#286BAD"/>
			<stop  offset="0.13" style="stop-color:#3476B3"/>
			<stop  offset="0.23" style="stop-color:#5B96C7"/>
			<stop  offset="0.33" style="stop-color:#7BB1D7"/>
			<stop  offset="0.44" style="stop-color:#94C6E4"/>
			<stop  offset="0.55" style="stop-color:#A5D4ED"/>
			<stop  offset="0.67" style="stop-color:#B0DDF2"/>
			<stop  offset="0.81" style="stop-color:#B3E0F4"/>
		</linearGradient>
		<path class="st121" d="M313.6,326.5c0,0-27.6-19.8-76-16.8s-125.9,15.4-125.9,15.4s-3.4-12.6,18.9-19.7l117.2-9.3
			c0,0,64.1-33.5,79.5,22.4L313.6,326.5z"/>
		<path class="st122" d="M306.4,340.5c0.4-14.4,7.5-25.1,15.9-25.8c22.6-1.8,15,12.1,14.6,26.5s5.8,28.8-15.9,25.8
			C312.6,365.9,306,355,306.4,340.5z"/>
		
			<ellipse transform="matrix(2.443220e-02 -0.9997 0.9997 2.443220e-02 -18.2453 662.9152)" class="st119" cx="330.5" cy="340.8" rx="26.2" ry="15.3"/>
		<path class="st119" d="M328.6,316.6c5,0.1,9.1,7.1,10.3,16.7c0.3,2.5,0.4,4.9,0.4,7.4c-0.3,13.1-5.6,23.7-11.9,23.5
			s-11-10.9-10.7-24.1c0-1.9,0.2-3.8,0.5-5.7C318.6,324.1,323.3,316.5,328.6,316.6z"/>
		<path class="st123" d="M328.6,316.6c5,0.1,9.1,7.1,10.3,16.7l-21.8,1.1C318.6,324.1,323.3,316.5,328.6,316.6z"/>
		<path class="st124" d="M264.6,387.2c0,0-12-5.6-14-45.3s6.1-49.3,6.1-49.3s-12.3,14.1-10.4,50.1S264.6,387.2,264.6,387.2z"/>
		<path class="st125" d="M331.2,314.7c-0.6,0-1.2,0-1.8,0.1l-0.5,0c-10.8-22.8-36.5-42.5-79.3-20.4v0.1l-114.5,8.9
			c-16,1.5-27.7,15.6-26.3,31.5c0,0.5,0.1,1,0.2,1.5l3.4,23.2c2.1,14,14,24.5,28.2,24.7l121.3,2l0.1,0.6
			c30.9,15.8,53.5,0.5,64.8-19.5c1.3,0,2.5-0.2,3.8-0.5c8.1-0.5,14.8-11.8,15.1-25.8C346.2,326.8,339.6,314.9,331.2,314.7z"/>
		<path class="st126" d="M534.7,322.6c0,0-1.3,0-0.9,1.9C533.8,324.5,532.8,322.5,534.7,322.6z"/>
		<path class="st127" d="M119.8,235.9c1.4-3.1,3.9-5.6,7-7c10.6-5,36.7-13.8,58.2,7.7c27.6,27.6,33.6,38.5,45.7,39.3
			c11.9-2.6,17.3,9.4,35-1.2c1.3-0.8,2.9-0.3,3.6,0.9c0.3,0.5,0.4,1,0.4,1.6c-0.8,7.9-6,13.5-28.2,18.1c-2.8,30-17.9,24.8-23.3,67.7
			c-3.1,4.8-5.8,6-7.8,0c-0.6,7.5-2.5,11.5-9.9,0c-0.1,5.8-1.9,6.9-8.2-3.5c0,0-13.8-25.8-4.8-39.2c-20.9,11.8-32.6,13.7-34.9,5.2
			c0,0,31-12.5,32.8-24.1C185.4,301.3,92.6,295.1,119.8,235.9z"/>
		<path class="st128" d="M161.5,323.5c0,0,31-12.5,32.8-24.2c0,0-92.8-6.2-65.7-65.5c1.4-3.1,3.9-5.6,7-7c2.7-1.3,5.6-2.4,8.4-3.3
			c-6.1,1-12,2.8-17.6,5.4c-3.1,1.4-5.6,3.9-7,7c-27.2,59.3,65.6,65.5,65.6,65.5c-1.7,11.7-32.8,24.2-32.8,24.2
			c1.6,5.8,7.5,6.8,17.7,3.1C165.4,329,162.5,327.2,161.5,323.5z"/>
		<g class="st129">
			<path class="st130" d="M209.5,360.8c-0.1,5.8-3.9,10-10.1-0.4c0,0-20.9-26.7-11.8-40.1c-4,2.2,3.3-1.5,0,0
				c-9,13.7,4.6,39.2,4.6,39.2c6.3,10.4,8.1,9.3,8.2,3.5c7.4,11.5,9.3,7.5,9.9,0c1.1,3.4,2.4,4.5,4,3.9
				C212.4,365.1,210.8,363,209.5,360.8z"/>
		</g>
		<path class="st131" d="M370.8,104c-3.8-1.6-7.9-1.9-11.9-1.1c-1-3-3.3-5.4-6.2-6.6c-6-2.4-12.8,0.6-15.1,6.6c0,0,0,0,0,0
			c-0.1,0.3-0.2,0.5-0.3,0.8c-2.9-0.8-5.9-1.2-8.9-1.2c-17.3,0-31.3,13.3-31.3,29.8c0,3.3,0.6,6.6,1.7,9.8c-2,1-3.6,2.6-4.4,4.7
			c-2,4.5,0.1,9.7,4.5,11.6c0.6,0.2,1.2,0.4,1.8,0.5c-3.5,10.4,1.3,21.8,11.2,25.9c10.4,4.4,22.5-0.9,27-11.7
			c1.8-4.2,2.2-8.8,1.2-13.2c7.5-2.8,13.6-8.5,17-15.8c9.7,2.6,20.2-2.7,24.4-12.6C385.9,120.6,381.2,108.3,370.8,104z"/>
		<path class="st131" d="M535,190.2c2-2.7,3.1-6,3.2-9.4c2.6-0.3,5-1.6,6.5-3.7c3.1-4.4,2-10.4-2.4-13.5c-0.2-0.1-0.4-0.3-0.6-0.4
			c1.2-2.2,2.1-4.5,2.7-6.9c3.3-13.9-4.7-27.8-17.9-30.9c-2.7-0.6-5.5-0.8-8.2-0.5c-0.4-1.8-1.4-3.4-2.9-4.5
			c-3.2-2.4-7.8-1.8-10.2,1.4c0,0,0,0,0,0c-0.3,0.4-0.6,0.9-0.8,1.3c-7.7-4.8-17.8-3.1-23,4c-5.5,7.5-3.6,18.3,4.2,24
			c3,2.3,6.7,3.5,10.4,3.5c0.8,6.6,4.2,12.6,9.5,16.7c-3.9,7.7-1.6,17.1,5.4,22.1C518.7,199.3,529.5,197.8,535,190.2z"/>
		<path class="st132" d="M350.1,311.2c0,0-13.8,37.9,17.7,52.2c32.4,14.7,55.8-19.8,55.8-19.8L350.1,311.2z"/>
		<path class="st133" d="M314.1,239.6c0,0-17.6-117.8,107.6-114.9c0,0,97-4.2,95.1,92.4C516.8,217.1,338.2,301.8,314.1,239.6z"/>
		<path class="st118" d="M508,236.2c0-45.4-38-82.1-84.8-82.1s-84.8,36.8-84.8,82.1c0,1.1,0,2.1,0.1,3.2c-3.9,9.6-5.9,19.8-5.9,30.2
			c7.5,46.5,36.8,72.8,78,84.7c29.6-1.5,72.3-18,81.1-69.2c0.2-1,5.9-25.4,5.8-26.5C501.5,249.3,508,246.9,508,236.2z"/>
		<path class="st133" d="M343.5,258.4c0.6-37.1,30.6-39.9,49.7-84.2c-7.3,18.1-12,28.3-1.1,38.8c-0.5-8.1,1.1-21,17.1-28
			c-13.3,8.9-6.8,34.3,5.7,42.2c-4.5-19.1,5.5-27.2,17.1-43.7c-9.1,19.1-7.1,33.2,4.9,42.7c-1.6-16.8,11-15.7,13.9-36.6
			c1.9,22.1,6.1,16.3,6.1,34.4c12.3-11.9,19-25.2,11.6-43.2c10.2,15.6,16.2,30,14.9,42.4c11.2-5.1,11.1-16.4,5.5-30.7
			c9.2,32.3,13.3,34.4,8.5,67.5c9.3-11,23.2-23,17.7-47.8c-3.8-17-12.7-32.6-26.8-42.7c-38.8-27.8-93.2-33-138.1,8.4
			C329.2,197.8,315.9,242.2,343.5,258.4z"/>
		<path class="st117" d="M465.7,367c0,0-60.4,27.7-75.1,85.3l-35-10.2c12.9,2.7,26.9,5.9,29.7,2.4c-1.9,1-17.2-30.7-13.2-46.1
			c3.2,14.3,12.5,25.8,21.6,32.9c-1.3-22.6,6.3-40.4,23.3-56.2c-9.8,15.2-13.2,30-13.2,37.3C403.8,412.3,439.4,373.7,465.7,367z"/>
		<path class="st134" d="M462.9,239.2c0,0-0.2-4,6.1-3.9s14.6,6.9,15.1,11.3C484.1,246.5,471.8,237,462.9,239.2z"/>
		<path class="st134" d="M412.4,230.8c0,0,1.2-3.8-4.9-5.3s-15.9,3-17.4,7.1C390,232.6,404.3,226.5,412.4,230.8z"/>
		
			<ellipse transform="matrix(0.246 -0.9693 0.9693 0.246 50.882 587.639)" class="st135" cx="403.1" cy="261.1" rx="17.5" ry="15.8"/>
		
			<ellipse transform="matrix(0.246 -0.9693 0.9693 0.246 44.2426 588.7156)" class="st134" cx="400.5" cy="265.9" rx="12" ry="11.1"/>
		<ellipse transform="matrix(0.25 -0.9682 0.9682 0.25 55.6509 589.6439)" class="st136" cx="408.5" cy="258.9" rx="5" ry="5"/>
		
			<ellipse transform="matrix(0.246 -0.9693 0.9693 0.246 89.7255 648.4695)" class="st135" cx="461.7" cy="266.6" rx="17.7" ry="16"/>
		
			<ellipse transform="matrix(0.246 -0.9693 0.9693 0.246 83.1699 648.7432)" class="st134" cx="458.6" cy="270.9" rx="12" ry="11.1"/>
		<path class="st137" d="M416.2,334.2c0.9-1.1,2.1-2,3.3-2.6c1.3-0.7,2.6-1.2,4.1-1.4c1.5-0.3,3-0.1,4.4,0.4c1.4,0.5,2.5,1.6,3,3.1
			c-1-0.8-2.2-1.3-3.5-1.6c-1.2-0.2-2.5-0.1-3.7,0.1c-1.3,0.2-2.5,0.5-3.8,0.9C418.8,333.4,417.5,333.8,416.2,334.2z"/>
		<path class="st138" d="M425,297.2c9.4,8.7,18.2,1,18.3-3.1c0,0,0.5-4.4-4.2-8.6s-2.7-16.4-2.7-16.4"/>
		<path class="st139" d="M425.1,297.1c1.4,1.3,3,2.3,4.7,3c3.5,1.4,7.5,0.8,10.4-1.6c0.7-0.6,1.3-1.2,1.8-2c0.5-0.7,0.8-1.6,0.9-2.4
			l0,0c0-1.1-0.2-2.1-0.6-3.1c-0.4-1-0.9-2-1.6-2.8c-0.7-0.9-1.4-1.7-2.2-2.4c-0.8-0.8-1.5-1.9-1.9-3c-0.8-2.2-1.1-4.5-1.1-6.8
			c0-2.3,0.2-4.5,0.7-6.8h0.1c-0.2,2.2-0.3,4.5-0.2,6.7c0.1,2.2,0.5,4.4,1.3,6.5c0.4,1,1,1.9,1.8,2.6c0.9,0.8,1.7,1.6,2.4,2.6
			c1.4,1.9,2.2,4.3,2.1,6.6l0,0c-0.1,1-0.5,2-1.1,2.8c-0.6,0.8-1.2,1.5-2,2.1c-1.5,1.2-3.4,2-5.3,2.3c-1.9,0.2-3.9-0.1-5.6-0.9
			C428,299.7,426.4,298.6,425.1,297.1L425.1,297.1z"/>
		<path class="st140" d="M404,313.9c0,0,26.6,5.7,28.5,5.7s5.5,3.4,3.3,6.7S401,325.6,404,313.9z"/>
		<path class="st141" d="M401.5,310.1c0,0,18.1,2.8,22,2s6,2.5,6,2.5c1.8-0.8,3.7-0.9,5.6-0.4c2.9,0.9,5.8,5.1,5.8,5.1
			c-1.1,1.5-2.8,2.5-4.7,2.7C433.1,322.2,399.5,319.6,401.5,310.1z"/>
		<path class="st118" d="M338,277.9c-14.7,10.5-26.3-1.2-28.6-16.7s1.4-45.3,19.2-30.1c0,0,10.4,5.8,11.6,20.6"/>
		<path class="st142" d="M323.6,236.9c-1.4-0.9-3.1-1-4.5-0.1c-2,1.3-2.9,4.2-3.4,6.8c-1.4,8.6-0.2,17.3,3.3,25.3
			c0.4,1.2,1.1,2.3,2.1,3.1c1,0.8,2.4,0.8,3.4,0.1c1.2-1.1,1.9-2.8,1.8-4.5c0.1-4.1-2.3-7.2-4-10.4c-0.5-0.9-0.9-1.9-1-2.9
			c-0.1-1.2,0.3-2.3,1.1-3.1c0.6-0.5,1.4-0.8,2.2-0.8c1.5,0,3,0.2,4.4,0.6c1.3-2.6,0.1-5.4-0.8-7.4
			C327.2,240.8,325.8,238.3,323.6,236.9z"/>
		<ellipse transform="matrix(0.25 -0.9682 0.9682 0.25 93.2532 650.7253)" class="st136" cx="466.7" cy="265.2" rx="5" ry="5"/>
		<path class="st127" d="M283.2,441.8L249.5,431c-24.3-5.7-40.1-23.6-41.4-25c3.3-10.7,17.6,5.4,36.6,9.1
			c-11.7-8.7-10.9-35.9-16.6-48.9c-2.2-8.4,0.4-9.4,6.6-5.1c-1.6-14.4,2.9-13.1,10.4-4c-2.5-8.9,0.7-8.9,9.5,0
			c11.4,16.9,26.3,31.1,43.6,41.8c3.2,7.4,8.8,14.8,17.1,22.1c43.9,39.3,117.1,15.3,105.7,83C386.2,527.3,332.4,499.1,283.2,441.8z"
			/>
		<path class="st143" d="M231,363.3c-0.4-1.5-0.7-3.1-0.8-4.6c-2.9-0.7-3.7,1.5-2.2,7.4c4.9,11.2,4.5,39,16.7,48.9
			c2.3,0.8,1.8-0.4,4.3,0.1C237.4,406.4,236.7,376.4,231,363.3z"/>
		<path class="st128" d="M286.6,439L253,428.2c-24.3-5.7-40.1-23.6-41.4-25c0.1-0.2,0.2-0.5,0.3-0.7c-1.5,0.3-2.5,1.4-3.2,3.5
			c1.3,1.4,17.1,19.4,41.4,25l33.7,10.8c49.2,57.3,103,85.5,138,62.1c0.1-0.4,0.1-0.7,0.2-1.1C386.8,523,334.6,494.8,286.6,439z"/>
		<path class="st130" d="M237,350.3c-2.3-0.7-3.2,2.4-2.3,10.5c1.4,0.8,2.7,1.8,3.9,2.8C237.6,359.3,237.1,354.8,237,350.3z"/>
		<path class="st144" d="M325.6,228.9c0,0,35.5-85.3,115.2-74.8s75.4,72.9,75.4,72.9s10.2-82.7-85.1-88.3S325.6,228.9,325.6,228.9z"
			/>
		<path class="st144" d="M431.7,137.1c0.1-4-3.3-27.4-36-30.9c0,0-4.2,41.4,30.8,36.9L431.7,137.1z"/>
		<line class="st145" x1="407.4" y1="117.6" x2="428.8" y2="139.4"/>
		<path class="st146" d="M407.4,117.6c2.5,0.9,4.9,2.2,7,3.8c2.1,1.5,4,3.2,5.8,5c1.8,1.8,3.4,3.8,4.9,5.9c1.6,2.2,2.8,4.6,3.7,7.1
			c-2.5-0.9-4.9-2.2-7-3.8c-2.1-1.5-4-3.2-5.8-5c-1.8-1.8-3.4-3.8-4.9-5.9C409.5,122.5,408.3,120.1,407.4,117.6z"/>
		<path class="st144" d="M447.8,145.6c3.6,1.7,26.2,8.6,43.3-19.5c0,0-35.7-21.4-46.4,12.2L447.8,145.6z"/>
		<line class="st145" x1="475.8" y1="131.8" x2="446.9" y2="142"/>
		<path class="st146" d="M475.8,131.8c-1.9,1.9-4.1,3.5-6.5,4.8c-4.5,2.5-9.4,4.2-14.5,5.1c-2.6,0.5-5.3,0.6-8,0.3
			c1.9-1.9,4.1-3.5,6.5-4.8c2.2-1.2,4.6-2.3,7-3.1c2.4-0.8,4.9-1.5,7.5-1.9C470.4,131.7,473.1,131.6,475.8,131.8z"/>
		<circle class="st144" cx="439.3" cy="144.6" r="13.8"/>
		<path class="st130" d="M245.3,357c1.7,3.2,3.4,6.4,5,9.6s3.2,6.4,4.9,9.6c1.7,3.2,3.3,6.4,5.2,9.4c0.9,1.5,1.9,3,3,4.4
			c1,1.5,2.4,2.7,4,3.4c-0.9-0.1-1.8-0.5-2.6-1c-0.8-0.5-1.5-1.1-2.1-1.8c-1.3-1.3-2.5-2.7-3.5-4.2c-1.1-1.5-2-3-3-4.6
			s-1.8-3.2-2.7-4.8c-1.7-3.2-3.2-6.5-4.6-9.9C247.5,363.9,246.3,360.5,245.3,357z"/>
		<path class="st130" d="M238,362.6c2.9,7.1,5.5,14.3,8.2,21.4c0.7,1.8,1.3,3.6,2,5.3c0.7,1.8,1.4,3.5,2.1,5.3s1.5,3.5,2.4,5.1
			c0.4,0.8,0.9,1.6,1.5,2.4c0.5,0.8,1.2,1.4,2.1,1.9c-1-0.2-1.8-0.7-2.5-1.5c-0.7-0.7-1.3-1.4-1.9-2.2c-1.1-1.6-2.1-3.3-3-5
			c-1.7-3.4-3.3-7-4.6-10.6c-1.3-3.6-2.6-7.2-3.6-10.9C239.6,370.1,238.7,366.4,238,362.6z"/>
		<path class="st130" d="M219,318.2c-1.6,7.5-3.6,14.9-5.4,22.3c-0.5,1.8-0.9,3.7-1.4,5.5c-0.4,1.9-0.9,3.7-1.2,5.5
			s-0.7,3.7-0.9,5.6c-0.1,0.9-0.2,1.9-0.2,2.8c-0.1,0.9,0.2,1.9,0.6,2.7c-0.7-0.7-1.1-1.7-1.2-2.6c-0.2-1-0.3-1.9-0.3-2.9
			c0-1.9,0.1-3.9,0.4-5.8c0.5-3.8,1.2-7.6,2.2-11.3c1-3.7,2-7.4,3.3-11C216.1,325.4,217.4,321.8,219,318.2z"/>
		<path class="st130" d="M201.4,321c-0.2,3.6-0.6,7.2-0.9,10.7s-0.7,7.1-0.9,10.7s-0.5,7.1-0.5,10.6c0,1.8,0.1,3.5,0.3,5.3
			c0.1,1.8,0.7,3.5,1.7,4.9c-1.4-1.3-2.3-2.9-2.6-4.8c-0.4-1.8-0.7-3.6-0.9-5.4c-0.3-3.6-0.2-7.2,0.1-10.9c0.3-3.6,0.7-7.2,1.4-10.7
			C199.5,328,200.3,324.5,201.4,321z"/>
		<path class="st147" d="M542.4,163c-0.2-0.1-0.4-0.3-0.6-0.4c1.2-2.2,2.1-4.5,2.7-6.9c3.3-13.9-4.7-27.8-17.9-30.9
			c-2.7-0.6-5.5-0.8-8.2-0.5c-0.4-1.8-1.4-3.4-2.9-4.5c-3.2-2.4-7.8-1.8-10.2,1.4c-0.3,0.4-0.6,0.9-0.8,1.3
			c-5.8-3.7-13.2-3.6-19,0.2c-8.7-3.7-25.4-8.3-35.4,4.6c-7.2-1.7-14.5-2.7-21.8-3.1c-4.3-7.8-13.3-16.6-32.4-18.7
			c-0.5,6.6,0.2,13.3,2.1,19.6c-5.2,0.6-10.3,1.5-15.4,2.8c2.6-10-2.2-20.6-11.6-24.5c-3.8-1.6-7.9-1.9-11.9-1.1
			c-1.1-3-3.3-5.4-6.2-6.6c-6-2.4-12.8,0.6-15.1,6.5c0,0,0,0,0,0c-0.1,0.3-0.2,0.6-0.3,0.8c-2.9-0.8-5.9-1.2-8.9-1.2
			c-17.3,0-31.3,13.3-31.3,29.8c0,3.3,0.6,6.6,1.7,9.8c-2,1-3.6,2.6-4.4,4.7c-2,4.5,0.1,9.7,4.5,11.6c0.6,0.2,1.2,0.4,1.8,0.5
			c-3.5,10.4,1.3,21.8,11.2,25.9c2.3,1,4.8,1.5,7.2,1.5c-5.7,17.6-6.2,34.7-5.7,44.6c-4.6,6.8-5.3,21.1-4,30.3
			c-20.4-8-42.7-11.3-42.7-11.3c-19.1-12.7-74.5-19.4-74.5-19.4c-6.9-9.4-12.2-7.6-12.2-7.6c-43.4-24.7-57.3,5.2-59.8,11.8
			c-0.2,0.4-0.5,0.8-0.7,1.3c-27.2,59.3,65.6,65.5,65.6,65.5c-0.7,4.7-6.2,9.6-12.5,13.7c-6.4,4-13.1,7.4-20,10.3c0,0,0,0,0,0.1
			l-0.3,0.1c1.6,5.8,7.5,6.8,17.7,3.1h-0.3c6.1-2.3,12.1-5.1,17.7-8.4c-2.1,1.2-1.1,0.7-0.1,0.2c-1.9,3-2.9,6.5-2.9,10
			c-0.7,13.4,7.7,29,7.7,29c3.4,5.7,5.5,7.9,6.7,7.8s1.5-1.5,1.6-4.1c3.3,5,5.4,7,6.9,7c1.9,0.1,2.6-2.8,3-6.9
			c0.9,2.6,1.9,3.8,3.1,3.8c-1.3,11.3-2.3,23.5-3,35.8c-1.2,0.7-2,1.8-2.3,3.2c0.2,0.2,0.9,1,2,2.1c-2.5,44.2-2,87.3-2,87.3
			l145.5,5.9c14.2,7.2,27.8,11.1,40.2,10.9c9.9,0.1,19.6-2.7,27.8-8.2c0-0.2,0-0.3,0.1-0.5c5.9-5.1,54.7-48.1,67.2-90.6
			c12.3-41.8-20.4-71.6-25.6-76.1c14-10.8,24.4-27.9,28.5-51.7c0.1-0.9,4.5-19.4,5.6-25l0,0c7.3-8.6,17.3-17.8,18.8-33.2l0,0v-0.1
			c0.3-3.2,0.4-6.4,0.3-9.6l0.4-0.2c0.2-7.1-0.3-14.1-1.3-21.1c7.1,2.6,15,0.2,19.5-5.8c2-2.7,3.1-6,3.2-9.4c2.6-0.3,5-1.6,6.5-3.7
			C547.8,172.1,546.7,166.1,542.4,163z"/>
		<polygon class="st148" points="211.4,367 217.3,367 216.2,384.5 209.5,384.5 		"/>
		<path class="st147" d="M211,402.5c0,0,2.6-2,13,4.4c6.4,3.9,13.4,6.6,20.8,8.1c0,0-8.7-5.4-11-23.8s-6-27.1-6-27.1
			s-2.2-7.1,3.6-5.6l3.4,2.2c0,0-1.7-9.4,1.6-10.5s8.6,6.2,8.6,6.2s-2-5.9,0.5-6.2s7.1,3.4,9.5,6.8c2.4,3.4,24.6,33.2,37,37.4"/>
		<path class="st147" d="M305.7,389.4l1.3,22.9c0,0,20.3,22.1,42.3,28s65.3,14.1,71.3,36.4"/>
		<path class="st147" d="M210.2,407.4c0,0,14.9,16.2,30.1,20.8s42.9,13.7,42.9,13.7s24,28.9,34.2,34.4"/>
		<path class="st147" d="M122.1,231.5c0,0,34.7-23.2,61.9,4.2s33.2,38.4,45.2,39.8c0,0,9.1-1.6,16.8,3s20.3-4,20.3-4
			s4.9-0.6,2.9,5.4s-16.1,17-27.8,15.5c0,15.9-11.1,30.3-11.1,30.3s-11.8,19.2-11.4,30.5s-4.8,10.8-4.8,10.8"/>
		
			<linearGradient id="SVGID_13_" gradientUnits="userSpaceOnUse" x1="341.2221" y1="236.59" x2="341.2221" y2="97.85" gradientTransform="matrix(1 0 0 -1 0 572)">
			<stop  offset="0" style="stop-color:#51BDE1"/>
			<stop  offset="0.46" style="stop-color:#54BDE1;stop-opacity:0.99"/>
			<stop  offset="0.68" style="stop-color:#60BDE0;stop-opacity:0.96"/>
			<stop  offset="0.86" style="stop-color:#74BCDF;stop-opacity:0.91"/>
			<stop  offset="1" style="stop-color:#90BCDE;stop-opacity:0.85"/>
		</linearGradient>
		<path class="st149" d="M317.7,335.4c0,0,52.5,17.8,47,138.7h-20.8c0,0-4.9-102.2-21.8-113C322.1,361.2,315.8,354.9,317.7,335.4z"
			/>
		
			<linearGradient id="SVGID_14_" gradientUnits="userSpaceOnUse" x1="320.55" y1="165.56" x2="360" y2="165.56" gradientTransform="matrix(1 0 0 -1 0 572)">
			<stop  offset="0.28" style="stop-color:#51FFFF"/>
			<stop  offset="0.61" style="stop-color:#99DCEE;stop-opacity:0.95"/>
			<stop  offset="0.89" style="stop-color:#DABCDE;stop-opacity:0.9"/>
		</linearGradient>
		<path class="st150" d="M320.5,339.1c0,0,34.8,35.6,38.5,103.5l1,31.1l-10.5-0.3C349.5,473.4,348.9,374.1,320.5,339.1z"/>
		<polygon class="st151" points="-0.9,668.7 341.6,668.7 633.1,498.7 633.1,475.4 6.2,501.4 		"/>
		<polygon class="st152" points="-0.9,645.4 341.6,645.4 633.1,475.4 6.2,478.1 		"/>
		<ellipse class="st117" cx="364.2" cy="513.8" rx="33.1" ry="5.2"/>
		<ellipse class="st117" cx="441.4" cy="513.8" rx="33.1" ry="5.2"/>
		<g class="st153">
			<ellipse class="st27" cx="432.2" cy="513.2" rx="20.3" ry="3.4"/>
			<polygon class="st154" points="449.8,511.7 414.6,511.7 407.2,434.5 457.3,434.5 			"/>
			<ellipse class="st155" cx="432.2" cy="434.5" rx="25" ry="4.2"/>
			<ellipse class="st154" cx="432.2" cy="511.6" rx="17.6" ry="3"/>
			<path class="st156" d="M461,424.5h-57.6l8.5,88.6v0.1c0,1.9,9.1,3.4,20.3,3.4s20.3-1.5,20.3-3.4c0,0,0-0.1,0-0.1L461,424.5z"/>
			<path class="st157" d="M448.2,420.5c-5.3-0.6-10.7-0.8-16-0.8c-15.9,0-28.8,2.2-28.8,4.9s12.9,4.9,28.8,4.9
				c5.1,0,10.1-0.2,15.2-0.7c8.2-0.9,13.6-2.4,13.6-4.1S455.9,421.3,448.2,420.5z"/>
			<polygon class="st158" points="449.8,511.7 414.6,511.7 407.2,434.5 457.3,434.5 			"/>
			<ellipse class="st159" cx="432.2" cy="434.5" rx="25" ry="4.2"/>
			<ellipse class="st158" cx="432.2" cy="511.6" rx="17.6" ry="3"/>
			<g class="st160">
				<path class="st157" d="M408.7,425.8c0,0,0,0.1,0,0.1V425.8L408.7,425.8z"/>
				<polygon class="st27" points="408.7,425.8 408.7,425.8 408.7,425.8 				"/>
				<path class="st27" d="M415.7,451.7l-2.3-23.6c-2.8-0.5-3-0.5-4.6-0.9l2.5,24.5H415.7z"/>
				<path class="st27" d="M421.8,513.9L421.8,513.9l-5.8-59.7h-4.5l5.8,57.9c0,0,0,0.6,0,0.6C417.3,513.6,418.9,513.5,421.8,513.9
					L421.8,513.9z"/>
				<path class="st157" d="M413.3,427.8c0,0,0,0.1,0,0.1V427.8z"/>
				<polygon class="st27" points="413.3,427.8 413.3,427.8 413.3,427.8 				"/>
			</g>
		</g>
		<ellipse class="st117" cx="518.7" cy="513.8" rx="33.1" ry="5.2"/>
		<g class="st153">
			<ellipse class="st27" cx="509.5" cy="513.2" rx="20.3" ry="3.4"/>
			<polygon class="st154" points="527.2,511.7 491.9,511.7 484.5,434.5 534.5,434.5 			"/>
			<ellipse class="st155" cx="509.5" cy="434.5" rx="25" ry="4.2"/>
			<ellipse class="st154" cx="509.5" cy="511.6" rx="17.6" ry="3"/>
			<path class="st156" d="M538.3,424.5h-57.6l8.5,88.6v0.1c0,1.9,9.1,3.4,20.3,3.4c11.2,0,20.3-1.5,20.3-3.4v-0.1L538.3,424.5z"/>
			<path class="st157" d="M525.5,420.5c-5.3-0.6-10.7-0.8-16-0.8c-15.9,0-28.8,2.2-28.8,4.9s12.9,4.9,28.8,4.9
				c5.1,0,10.1-0.2,15.2-0.7c8.2-0.9,13.6-2.4,13.6-4.1S533.2,421.3,525.5,420.5z"/>
			<polygon class="st158" points="527.2,511.7 491.9,511.7 484.5,434.5 534.5,434.5 			"/>
			<ellipse class="st159" cx="509.5" cy="434.5" rx="25" ry="4.2"/>
			<ellipse class="st158" cx="509.5" cy="511.6" rx="17.6" ry="3"/>
			<g class="st160">
				<path class="st157" d="M486,425.8c0,0,0,0.1,0,0.1V425.8L486,425.8z"/>
				<polygon class="st27" points="486,425.8 486,425.8 486,425.8 				"/>
				<path class="st27" d="M493,451.7l-2.3-23.6c-2.8-0.5-3-0.5-4.6-0.9l2.5,24.5H493z"/>
				<path class="st27" d="M499.1,513.9L499.1,513.9l-5.8-59.7h-4.5l5.8,57.9c0,0,0,0.6,0,0.6C494.6,513.6,496.2,513.5,499.1,513.9
					L499.1,513.9z"/>
				<path class="st157" d="M490.6,427.8c0,0,0,0.1,0,0.1V427.8z"/>
				<polygon class="st27" points="490.6,427.8 490.6,427.8 490.6,427.8 				"/>
			</g>
		</g>
		<g class="st153">
			<ellipse class="st27" cx="354" cy="513.2" rx="20.1" ry="3.4"/>
			<polygon class="st154" points="371.4,511.6 336.5,511.6 329.1,435.2 378.8,435.2 			"/>
			<ellipse class="st155" cx="354" cy="435.1" rx="24.8" ry="4.2"/>
			<ellipse class="st154" cx="354" cy="511.6" rx="17.5" ry="3"/>
			<path class="st156" d="M382.5,425.3h-57.1l8.4,87.8l0,0c0,1.9,9,3.4,20.1,3.4s20.1-1.5,20.1-3.4l0,0L382.5,425.3z"/>
			<path class="st157" d="M369.8,421.2c-5.2-0.6-10.5-0.8-15.8-0.8c-15.8,0-28.5,2.1-28.5,4.8s12.7,4.8,28.5,4.8c5,0,10-0.2,15-0.7
				c8.1-0.9,13.5-2.4,13.5-4.1S377.4,422.1,369.8,421.2z"/>
			<polygon class="st158" points="371.4,511.6 336.5,511.6 332.6,471.5 375.3,471.5 			"/>
			<ellipse class="st159" cx="354" cy="471.5" rx="21.3" ry="4.2"/>
			<ellipse class="st158" cx="354" cy="511.6" rx="17.5" ry="3"/>
			<g class="st160">
				<path class="st157" d="M330.7,426.5c0,0,0,0.1,0,0.1V426.5z"/>
				<polygon class="st27" points="330.7,426.5 330.7,426.5 330.7,426.5 				"/>
				<path class="st27" d="M337.5,452.5l-2.3-23.5c-2.8-0.5-3-0.5-4.6-0.9l2.4,24.3L337.5,452.5z"/>
				<path class="st27" d="M343.6,514.1L343.6,514.1l-5.8-59.2h-4.5l5.8,57.4c0,0,0,0.6,0,0.6C339.1,513.8,340.8,513.7,343.6,514.1
					L343.6,514.1z"/>
				<path class="st157" d="M335.2,428.5c0,0,0,0.1,0,0.1V428.5z"/>
				<polygon class="st27" points="335.2,428.5 335.2,428.5 335.2,428.5 				"/>
			</g>
		</g>
	</g>
</g>
<path class="st161" d="M133,548.5h350c53.6,0,97-43.4,97-97v-333c-0.1-53.6-43.6-96.9-97.1-96.9c-2.9,0-5.8,0.1-8.7,0.4L108.1,55.5
	c-51.9,4.8-90.8,49.7-88,101.7l16,299.5C38.9,508.1,81.4,548.5,133,548.5z"/>
</svg>
