<?xml version="1.0" encoding="utf-8"?>
<!-- Generator: Adobe Illustrator 25.2.3, SVG Export Plug-In . SVG Version: 6.00 Build 0)  -->
<svg version="1.1" id="Layer_1" xmlns="http://www.w3.org/2000/svg" xmlns:xlink="http://www.w3.org/1999/xlink" x="0px" y="0px"
	 viewBox="0 0 600 570" style="enable-background:new 0 0 600 570;" xml:space="preserve">
<style type="text/css">
	.st0{fill:#EFEFEF;}
	.st1{clip-path:url(#SVGID_2_);}
	.st2{opacity:0.29;fill:#932216;enable-background:new    ;}
	.st3{fill:none;stroke:#F4F2F2;stroke-width:0.5;stroke-miterlimit:10;}
	.st4{fill:none;}
	.st5{fill:url(#SVGID_3_);}
	.st6{fill:url(#SVGID_4_);}
	.st7{fill:url(#SVGID_5_);}
	.st8{fill:#80E559;}
	.st9{opacity:0.5;fill:url(#SVGID_6_);enable-background:new    ;}
	.st10{fill:#6BC93A;}
	.st11{opacity:0.3;}
	.st12{fill:#84E75A;}
	.st13{opacity:0.31;}
	.st14{fill:#5F8337;}
	.st15{opacity:0.5;fill:#5F8337;enable-background:new    ;}
	.st16{fill:#2BB51C;}
	.st17{fill:#85B780;}
	.st18{fill:#76B7A4;}
	.st19{fill:#9B5334;}
	.st20{fill:#904E27;}
	.st21{fill:#CC773E;}
	.st22{fill:#7C3F29;}
	.st23{fill:#8C4D23;}
	.st24{fill:#723B17;}
	.st25{opacity:0.61;}
	.st26{fill:#666666;}
	.st27{fill:#1A1A1A;}
	.st28{fill:#E6E6E6;}
	.st29{fill:#C93140;}
	.st30{fill:#308C1F;}
	.st31{fill:#176713;}
	.st32{fill:#1D7C15;}
	.st33{fill:#4FB62B;}
	.st34{fill:#D67F42;}
	.st35{fill:#C1723D;}
	.st36{fill:#FB975B;}
	.st37{fill:#934B1B;}
	.st38{fill:#BBEF60;}
	.st39{fill:#27423A;}
	.st40{fill:#BFFF33;}
	.st41{fill:#699A59;}
	.st42{fill:#9DBF6A;}
	.st43{fill:none;stroke:#27423A;stroke-width:0.5;stroke-miterlimit:10;}
	.st44{fill:#F9D1C6;stroke:#BA5817;stroke-miterlimit:10;}
	.st45{fill:#EF852E;stroke:#60561A;stroke-miterlimit:10;}
	.st46{fill:#A32F07;}
	.st47{fill:#F9D1C6;stroke:#897F33;stroke-miterlimit:10;}
	.st48{fill:#F9D1C6;}
	.st49{fill:#BA5817;}
	.st50{fill:#D3978C;}
	.st51{fill:#FFFFFF;}
	.st52{fill:#4F4726;}
	.st53{fill:#2B2716;}
	.st54{fill:#240D00;}
	.st55{fill:#F5968E;}
	.st56{fill:#721F33;}
	.st57{fill:#F4EDEF;}
	.st58{fill:#E03859;}
	.st59{fill:#D26653;}
	.st60{fill:#897F33;}
	.st61{fill:#82CFF7;stroke:#5DA3C1;stroke-miterlimit:10;}
	.st62{fill:#B3E0F4;}
	.st63{fill:url(#SVGID_7_);}
	.st64{fill:#52A2E7;}
	.st65{fill:#3476B7;}
	.st66{opacity:0.35;fill:#4A97CC;enable-background:new    ;}
	.st67{fill:url(#SVGID_8_);}
	.st68{fill:url(#SVGID_9_);}
	.st69{fill:#218B8E;stroke:#0C4C4C;stroke-miterlimit:10;}
	.st70{fill:#E9F1F4;stroke:#AF3A75;stroke-miterlimit:10;}
	.st71{fill:#73D3F4;stroke:#AF3A75;stroke-miterlimit:10;}
	.st72{fill:#D5F0F7;stroke:#AF3A75;stroke-miterlimit:10;}
	.st73{fill:none;stroke:#206363;stroke-width:8;stroke-miterlimit:10;}
</style>
<path class="st0" d="M467,548.5H117c-53.6,0-97-43.4-97-97v-333c0.1-53.6,43.6-96.9,97.1-96.9c2.9,0,5.8,0.1,8.7,0.4l366.1,33.5
	c51.9,4.8,90.8,49.7,88,101.7l-16,299.5C561.1,508.1,518.6,548.4,467,548.5z"/>
<g>
	<defs>
		<path id="SVGID_1_" d="M467,548.5H117c-53.6,0-97-43.4-97-97v-333c0.1-53.6,43.6-96.9,97.1-96.9c2.9,0,5.8,0.1,8.7,0.4l366.1,33.5
			c51.9,4.8,90.8,49.7,88,101.7l-16,299.5C561.1,508.1,518.6,548.4,467,548.5z"/>
	</defs>
	<clipPath id="SVGID_2_">
		<use xlink:href="#SVGID_1_"  style="overflow:visible;"/>
	</clipPath>
	<g class="st1">
		<path class="st2" d="M375.4,221.9c0,0,119.3,32,171.3,62.9s120.6,56,120.6,56l-177.3-1L375.4,221.9z"/>
		<line class="st3" x1="517.4" y1="426.5" x2="586.5" y2="426.5"/>
		<line class="st3" x1="516.7" y1="427.8" x2="585.8" y2="427.8"/>
		<line class="st3" x1="516.1" y1="429.1" x2="585.2" y2="429.1"/>
		<line class="st3" x1="516.1" y1="430.5" x2="585.2" y2="430.5"/>
		<line class="st3" x1="515.4" y1="431.8" x2="584.5" y2="431.8"/>
		<line class="st3" x1="514.7" y1="433.1" x2="583.8" y2="433.1"/>
		<line class="st3" x1="514.7" y1="434.4" x2="583.8" y2="434.4"/>
		<line class="st3" x1="514.1" y1="435.8" x2="583.2" y2="435.8"/>
		<line class="st4" x1="485.6" y1="380.3" x2="626.6" y2="379.1"/>
		
			<linearGradient id="SVGID_3_" gradientUnits="userSpaceOnUse" x1="141.3592" y1="-183.5199" x2="305.9592" y2="630.1601" gradientTransform="matrix(1 0 0 -1 0 572)">
			<stop  offset="0.2" style="stop-color:#C5F7FD"/>
			<stop  offset="0.34" style="stop-color:#B3F0FD"/>
			<stop  offset="0.66" style="stop-color:#8EE1FD"/>
			<stop  offset="0.83" style="stop-color:#80DBFD"/>
		</linearGradient>
		<rect x="-284.6" y="1" class="st5" width="1076.4" height="399.5"/>
		
			<linearGradient id="SVGID_4_" gradientUnits="userSpaceOnUse" x1="282.1644" y1="462.2756" x2="323.2944" y2="503.4356" gradientTransform="matrix(1 0 0 -1 0 572)">
			<stop  offset="0.11" style="stop-color:#85DDFD"/>
			<stop  offset="0.82" style="stop-color:#D7EEF4"/>
		</linearGradient>
		<path class="st6" d="M282.2,92.3c0,0,0.6-5,8.1-8.5s13.9-5.3,20.5-1.3s5.2,13,3.8,14.1c-2.7,2.1-8.5,4.8-24,2.1
			C281.3,97.1,282.2,92.3,282.2,92.3z"/>
		
			<linearGradient id="SVGID_5_" gradientUnits="userSpaceOnUse" x1="559.4989" y1="433.0711" x2="602.7889" y2="476.3911" gradientTransform="matrix(1 0 0 -1 0 572)">
			<stop  offset="0.17" style="stop-color:#83DCFD"/>
			<stop  offset="0.9" style="stop-color:#D7EEF4"/>
		</linearGradient>
		<path class="st7" d="M558.9,114.4c0,0,0.9-6.4,11.8-10.8s20.2-6.7,29.7-1.7s7.5,16.5,5.5,17.8c-3.9,2.6-12.3,6-34.8,2.7
			C557.5,120.5,558.9,114.4,558.9,114.4z"/>
		<polygon class="st8" points="-276.1,453.1 813.6,430.2 813.6,641.1 -276.1,641.1 		"/>
		
			<linearGradient id="SVGID_6_" gradientUnits="userSpaceOnUse" x1="-22.635" y1="129.14" x2="-22.635" y2="149.87" gradientTransform="matrix(1 0 0 -1 0 572)">
			<stop  offset="0" style="stop-color:#09170A"/>
			<stop  offset="0.58" style="stop-color:#2D550C"/>
			<stop  offset="1" style="stop-color:#16623E"/>
		</linearGradient>
		<path class="st9" d="M-258.9,428.5c18.2,0.2,36.3,1.3,54.5,1.4c22.5,0.2,44.7-1.4,67.2-0.8c12.7,0.4,25.4,0.9,38.1,1.1
			c11.5,0.2,23,0.1,34.4,0.6c23.5,1,46.3,3.7,69.6,5.4c49.4,3.6,99.5,4.1,149.7,4.9c18.1,0.3,35.6,0.1,53.4-0.5
			c3.3-0.4,6.6-0.7,9.9-0.9c5.6-0.3,11.2-0.4,16.8-0.4c-3.1-0.1-5.8-0.1-7.8-0.1c-19,0-60.1,1.6-82.2,0.8s-31.6,0-63.2-1.2
			s-68.4-4.3-90.6-5.1s-47.4-4-67.4-4.4s-35.8,0.8-64.3-0.8s-54.8,1.2-84.3-0.4c-20-1.1-41.4-2.1-54.8-2.7v3.2
			C-272.9,428.4-265.7,428.4-258.9,428.5z"/>
		<path class="st10" d="M596,280.7c-35.3,9.2-71.6,24-107.2,26.4c-46.6,3.1-92.8,13.9-139.6,16.4c-47.9,2.6-94.3,2-142.2-3.5
			c-41.4-4.8-83-0.5-124.4-5.2C40.2,309.9-1.6,293.3-44,289c-30.5-3.1-60.8-7.8-90.8-14.2c-25.2-5.4-49.2-19.4-74.2-24.7
			c-23.7-5.1-48.4-13.8-72.3-14.7v488.3H791.6V211.7c-30.6,9.4-60.4,21.4-89,35.8C668.1,264.8,631.4,271.5,596,280.7z"/>
		<g class="st11">
			<path class="st12" d="M712.9,368.8c-3.8,2.5-7.5,5-11.4,7.5c-15.4,9.9-32,17.8-49.5,23.5c-36.8,11.6-77.5,11.8-113.1,26.5
				c21.5,3,43.6,1.5,65.2-0.2c15.1-1.3,30.2-2.1,45.3-3.3c11.7-1,23.4-2,35.2-2.1c8.7-0.1,20.9-0.6,28.4,4.2c6,3.8,3.9,9.8-0.1,14.3
				c-6.4,7.1-15.9,12.3-24.8,16.6c-12.1,5.8-24.6,10.6-37.5,14.3c-12.3,3.5-25,6.5-38,7.3c-8.5,0.5-18.9,0.5-26-4.2
				c-0.3-0.2-0.4-0.5-0.3-0.8c0-0.1,0.1-0.1,0.1-0.2c8-8.3,23.3-8.3,30.1-17.4c-16.8-6-36.8-2.7-54.3-1.2
				c-21.9,1.8-43.9,4.3-65.9,4.9c-46.8,1.3-92.8-10.2-139.6-9.4c-24.3,0.4-48.7,1.4-73,1.7c-24.1,0.3-48.2,0.2-72.3-0.5
				c-17.8-0.5-35.6-0.2-53.4-1.3c-15.6-1-32.8-2.9-45.7-11.2c-0.3-0.2-0.4-0.5-0.3-0.8c0.1-0.2,0.3-0.3,0.5-0.3c1.5-0.4,3-0.8,4.5-1
				c10.2-1.6,20.6-0.4,30.9,0c11.6,0.4,23.3-0.7,34.8-1.9c11.7-1.2,23.5-2.6,35.2-3.3c5.6-0.4,11.3-0.5,16.9-0.5
				c-9.8-0.6-19.7-1.2-29.6-2.1c-41.4-3.6-83-0.3-124.4-3.9c-42.5-3.6-84.3-16-126.8-19.3c-30.7-2.3-60.4-5.8-90.8-10.6
				c-25.1-4-49.2-14.4-74.1-18.4c-23.7-3.8-48.4-10.3-72.3-11v8.6c4.9,0.3,9.7,0.8,14.6,1.4c45.9,5.7,89.8,19.7,134.4,30.3
				c11.1,2.7,22.3,5.1,33.6,6.8c10.6,1.5,21.3,2.5,32.1,2.8c17.5,0.7,36.8,1.6,52,10c0.3,0.1,0.4,0.5,0.3,0.8
				c-0.1,0.1-0.2,0.2-0.3,0.3c-9,4-19.1,5.4-29.1,5.9c-18.9,1-37.8-0.9-56.6-0.9c-21.5,0-42.5,4.4-63.3,8.7
				c-11.7,2.4-23.4,5.3-35.3,7.1c-7.6,1.2-15.4,1.8-23.1,2.8c-8.3,1.1-17,2.5-24.5,6c-2,0.9-3.9,2-5.7,3.3c-1.5,1.2-1.6,1.2-0.2,2.6
				c1.6,1.6,3.5,3,5.6,4c11.3,5.8,25.6,6.6,38.4,7.1c14.2,0.5,28.4,0.1,42.6,0c12.5-0.1,24.9,1,37.5,1.4c15.2,0.4,33.3,0.2,46.5,7.9
				c0.3,0.1,0.4,0.5,0.3,0.8c0,0,0,0,0,0.1c-3.4,5.6-8.8,6.4-15.5,7c-6.1,0.5-12.2,2-18.2,2.9c-5.2,0.8-10.5,1.4-15.7,2
				c-11.9,1.3-23.8,2.1-35.7,3c-24.3,1.7-48.2,4.6-72.4,8c-14,2-28,3.8-42.1,4.9V729h1073V346.5C763.7,352.4,738,359.9,712.9,368.8z
				"/>
		</g>
		<g class="st13">
			<path class="st14" d="M797,530.5c-10.2,2.9-21.4,5.9-30,10.6c-2,1.1-5.2,2.8-5,4.8c0.5,3.5,7.3,6,11.1,7.7
				c8,3.6,22.5,8.8,18.6,16.8c-2,4.1-8.2,5.9-14,6.9c-8.9,1.5-18.1,2.6-27.1,3.7c-47,5.8-95,6.3-142.6,6.3h-74.2
				c-10.8,0-21.7,0.2-32.5,0c-9.2-0.2-18.6-0.8-27-3.5c-0.5-0.2-0.5-0.7,0-0.9c26.3-9.7,58.3-10.5,87.7-11.2
				c9.7-0.2,19.3-0.4,29-0.7c11-0.3,21.8-1.2,32.8-1.8c12.3-0.8,24.6-1.5,36.9-2.2c11.3-0.7,22.6-1.7,33.9-2.1
				c8.7-0.3,18.3-0.3,26.2-3c2.1-0.7,4.1-1.6,6-2.8c2-1.4,1.5-2.1-1.3-2.7c-3.9-0.7-7.9-1-11.9-0.7c-8.5,0.4-16.8,1.7-25.2,2.3
				c-12.4,0.9-24.8,1.3-37.2,1.3c-24.9,0-49.7-1.1-74.6-1.2c-22.5-0.1-45,0.2-67.5,0.8c-12.7,0.9-25.4,2.1-37.8,4
				c-11.8,1.9-23.3,4.4-35.1,6.3c-11.3,1.8-22.7,3.5-34.2,4.4c-22.9,1.9-46.5,1.6-69.4,0.7c-17.5-0.7-35-2-52.1-4.4
				c-49.5-1.9-99.1-5.4-148.5-2c19.5,4.5,40.3,6.1,60.8,7.1c19.5,1,39.1,1.8,58.6,2.1c19.1,0.3,38.4-0.1,57.5,0.8
				c17.3,0.8,35.2,2.6,50.5,8.3c0.5,0.2,0.5,0.7,0,0.9c-11.1,5.4-26.5,6.2-39.8,6.4c-15.9,0.4-31.8-0.5-47.6-1.2
				c-20.2-0.9-40.6-0.8-60.8-1c-23.8-0.3-47.5-0.6-71.2-1.3c-25.1-0.8-49.9-2.4-74.8-4.3c-24.6-1.9-49.2-3.7-74-4s-49.3,0-74-0.4
				c-10.4-0.2-20.9-0.1-31.3-0.4c-7.7-0.2-15.9-0.8-22.1-4.2c-0.2-0.1-0.3-0.3-0.2-0.5c0-0.1,0.1-0.1,0.2-0.2
				c8.5-5.8,22.2-7.2,33.8-8c15.9-1,32-0.7,48-0.4c19.3,0.3,38.6,0.1,57.9,0.3c12.6,0.1,25.2,0.1,37.8,0c9.5-0.1,19.1-0.5,28.6-0.2
				c8.6,0.2,17.2,0.6,25.8,0.3c8-0.3,16.5-1.2,23.1-4.4c-26.8-5.6-54.9-7.8-82.9-8.9s-55.8-1.5-83.7-2.9c-25.2-1.2-50.3-4.2-75.5-5
				c-11.8-0.3-23.7,0.5-35.5,0.9c-14.3,0.4-28.8,0.9-43.1-0.3c-7.6-0.7-19.2-1.7-22.6-7.1c-0.1-0.2,0-0.4,0.2-0.5
				c14.8-7.9,36.5-8.6,54.6-9.8c25.3-1.7,50-5.5,75.3-7.4c10.9-0.8,21.3-1.8,31.4-4.8c8.1-2.5,15.5-5.3,24.2-6.8s19.2-2.4,26.2-6.4
				c1.1-0.7,0.8-0.6-0.3-1.2c-0.7-0.4-1.5-0.8-2.3-1.1c-1.3-0.6-2.6-1.1-4-1.5c-3.1-0.9-6.4-1.5-9.6-1.8c-15.3-1.6-31,0.5-46.3,0.9
				c-13.2,0.3-27.7-0.2-37.5-6.9c-0.4-0.3-0.2-0.6,0.2-0.8c8.1-3.8,18.4-5.3,28-6.3c10.8-1.2,21.7-1.7,32.5-2.5
				c10-0.8,20-1.8,30-2.5c12-0.9,24.1-1.7,35.9-3.5c8.6-1.3,17.4-3.1,25.1-6.1c5.2-2.1,14.7-6.1,14.2-10.8c-0.1-0.7-0.4-1.4-0.8-1.9
				c-29.3-3.9-58.5-8.9-88-10.6c-31.7-1.9-62.5-4.5-94-8.4c-26-3.2-50.9-11.4-76.7-14.5c-24.5-3-50.1-8.1-74.8-8.6v6.8
				c5,0.3,10.1,0.7,15.1,1.1c47.5,4.5,92.9,15.5,139,23.9c11.5,2.1,23.1,4,34.8,5.4c11,1.3,22,1.9,33.2,2.2
				c18.1,0.6,38.1,1.3,53.8,7.9c0.5,0.2,0.5,0.7,0,0.9c-9.3,3.1-19.8,4.2-30.1,4.6c-19.5,0.8-39.1-0.7-58.6-0.7
				c-22.2,0-44,3.5-65.5,6.8c-12.1,1.9-24.3,4.1-36.5,5.6c-7.9,1-16,1.4-23.9,2.2c-8.6,0.9-17.6,1.9-25.3,4.7c-2,0.7-4,1.6-5.9,2.6
				c-1.5,0.9-1.7,1-0.3,2c1.8,1.3,3.7,2.4,5.8,3.2c11.6,4.5,26.5,5.2,39.7,5.6c14.7,0.4,29.4,0.1,44.1,0c12.9-0.1,25.8,0.8,38.8,1.1
				c15.7,0.3,34.5,0.2,48.1,6.2c0.3,0.2,0.5,0.4,0.3,0.7c-3.6,4.4-9.1,5.1-16,5.5c-6.3,0.4-12.6,1.6-18.8,2.3
				c-5.4,0.6-10.8,1.1-16.3,1.6c-12.3,1-24.6,1.7-37,2.4c-25.2,1.4-49.9,3.6-74.9,6.3c-14.5,1.5-29,3-43.6,3.9v172.6H828.9V522.2
				C818.2,524.8,807.5,527.5,797,530.5z"/>
		</g>
		<path class="st15" d="M280.1,458.2c-1.2,0-2.8,0-4.3,0.1c-3,0.1-5.8,0.5-6.5,1.2c-0.1,0.1-0.1,0.2,0.1,0.2c3,1.3,9,1,13,0.8
			c1.5,0,9.8-0.2,9.3-1.4S282.5,458.1,280.1,458.2z"/>
		<path class="st15" d="M329.4,453.5c-1-0.9-7.1-0.5-9-0.5c-0.8,0-2.8,0-4.3,0.1h-1.3c-0.9,0-3.6,0.5-2.1,1c2.1,0.4,4.2,0.6,6.3,0.5
			c2.1,0,4.3-0.1,6.4-0.3c1.2,0,2.5-0.2,3.7-0.5C329.3,453.9,329.6,453.7,329.4,453.5z"/>
		<path class="st15" d="M-9.2,493.6c-1.2,0-2.8,0-4.3,0.1c-3,0.1-5.8,0.5-6.5,1.2c-0.1,0.1-0.1,0.2,0.1,0.3c3,1.3,9,1,13,0.8
			c1.5-0.1,9.8-0.2,9.3-1.4S-6.8,493.5-9.2,493.6z"/>
		<path class="st15" d="M40.4,497.3c-1-0.9-7.1-0.5-9.1-0.5c-0.8,0-2.7,0-4.3,0.1l-1.3,0c-0.9,0-3.6,0.5-2.1,1
			c2.1,0.4,4.2,0.6,6.3,0.5c2.1,0,4.3-0.1,6.4-0.2c1.2,0,2.5-0.2,3.7-0.5C40.3,497.7,40.6,497.5,40.4,497.3z"/>
		<path class="st15" d="M306.8,500.7c-0.8,0-1.9,0-3,0.1c-2.1,0.1-4,0.3-4.5,0.9c-0.1,0,0,0.1,0.1,0.2c2.1,0.9,6.3,0.7,9.1,0.6
			c1,0,6.9-0.1,6.5-1S308.5,500.7,306.8,500.7z"/>
		<path class="st15" d="M341.4,503.3c-0.7-0.6-4.9-0.4-6.3-0.3c-0.6,0-1.9,0-3,0.1h-0.9c-0.6,0-2.5,0.4-1.5,0.7
			c1.4,0.3,2.9,0.4,4.4,0.4c1.5,0,3,0,4.4-0.2c0.9,0,1.7-0.1,2.6-0.3C341.4,503.6,341.6,503.5,341.4,503.3z"/>
		<path class="st15" d="M491.2,505.1c0,1.2-17.1,2.2-38.3,2.2s-38.3-1-38.3-2.2s17.1-2.2,38.3-2.2S491.2,503.9,491.2,505.1z"/>
		<path class="st16" d="M544.9,477.5c0,0,4.8-3.6,14.2-4.5s-10-4.8-17,4.5C542.1,477.5,539,481.7,544.9,477.5z"/>
		<path class="st16" d="M531.7,478.1c0,0,14.2-11.7,22.5-14.8s-8-3.4-19,6.4C535.2,469.6,529.7,475.5,531.7,478.1z"/>
		<path class="st16" d="M527.6,478.1c0,0,9.4-18.9,13.7-21.3s-6.8-3.6-13.7,11.8C527.6,468.6,524.8,476.8,527.6,478.1z"/>
		<path class="st16" d="M522.6,478.1c0,0,3.6-17.4,7.1-20S516.5,460.9,522.6,478.1z"/>
		<path class="st16" d="M520.5,478.1c0,0,0.2-14.5-7.3-16.7S517.5,470.8,520.5,478.1z"/>
		<path class="st16" d="M518.1,478.1c0,0-6-5.9-17.4-6.3S511,467.2,518.1,478.1z"/>
		<path class="st16" d="M517.1,478.1c-4.4-4.3-10.4-6.6-16.5-6.2C490.2,472.4,514.5,476,517.1,478.1z"/>
		<path class="st17" d="M-284.3,324.6c129.7,5.3,200.8,5.7,269.8,7.4c236.7,5.9,231.1-5,362.7,2.5c86,4.9,225.4-7.7,311.3-1.3
			c15.8,1.2,50.2,4,122,2.6c7-0.1,6,9.7,7.6,2c3.7-17.2,3.1-0.3,3.1,1.3c-0.4,9-3.4,3-2.7,7.2l-1067.8,0.7L-284.3,324.6z"/>
		<path class="st18" d="M-306.7,248c-0.6-8-19.1-14.5-6.6-20.5c23.3-11.2,74-14.6,134.6-7.3c112.4,13.5,160.5-7.9,268.3,8.4
			c19.3,2.9,34.5,5.1,63.7,3.5c37.5-2,10.7,6,95.3-4.6c19.3-2.4,39-1.5,58,2.6c41.4,9.1,90-1.3,128,2.6
			c16.8,1.8,131.7-11.6,141.3-12.6c210-21.8,207.7,17.5,207.5,19.7c0,0,11.4,1,23,1.5h0.1c0.1,0-10.4,64.7-10.4,64.7h-1058
			L-306.7,248z"/>
		<polygon class="st19" points="-279.3,276.5 -279.3,336.4 223.9,336.4 223.9,279.6 		"/>
		<rect x="-279.3" y="271.6" class="st20" width="503.3" height="9.3"/>
		<rect x="-279.3" y="266.9" class="st21" width="503.3" height="9.3"/>
		<rect x="9.7" y="292.3" class="st22" width="9.4" height="5.2"/>
		<rect x="14.4" y="298.7" class="st22" width="9.4" height="5.2"/>
		<rect x="104.2" y="294.9" class="st22" width="9.4" height="5.2"/>
		<rect x="108.9" y="301.3" class="st22" width="9.4" height="5.2"/>
		<rect x="49.8" y="306" class="st22" width="9.4" height="5.2"/>
		<rect x="54.5" y="312.4" class="st22" width="9.4" height="5.2"/>
		<rect x="194.3" y="294.9" class="st22" width="9.4" height="5.2"/>
		<rect x="199" y="301.3" class="st22" width="9.4" height="5.2"/>
		<polygon class="st19" points="791.9,275 791.9,335.9 216,333.7 216,278 		"/>
		<rect x="216" y="275.1" class="st23" width="575.9" height="5.3"/>
		<rect x="224" y="265.8" class="st21" width="567.9" height="10.4"/>
		<rect x="592.5" y="289.8" class="st24" width="10.8" height="5.1"/>
		<rect x="587.1" y="296.1" class="st24" width="10.8" height="5.1"/>
		<rect x="557.9" y="309.5" class="st24" width="10.8" height="5.1"/>
		<rect x="552.5" y="315.8" class="st24" width="10.8" height="5.1"/>
		<rect x="450.4" y="290.5" class="st24" width="10.8" height="5.1"/>
		<rect x="445" y="296.8" class="st24" width="10.8" height="5.1"/>
		<rect x="342.2" y="293" class="st24" width="10.8" height="5.1"/>
		<rect x="336.8" y="299.3" class="st24" width="10.8" height="5.1"/>
		<rect x="404.5" y="303.8" class="st24" width="10.8" height="5.1"/>
		<rect x="399.1" y="310.1" class="st24" width="10.8" height="5.1"/>
		<rect x="239.2" y="293" class="st24" width="10.8" height="5.1"/>
		<rect x="233.8" y="299.3" class="st24" width="10.8" height="5.1"/>
		<g class="st25">
			<path class="st26" d="M50.7,252.3h-6.9v-3.1c0.6-0.3,1-0.9,1-1.6c0-1.1-0.9-2-2-2s-2,0.9-2,2c0,0.7,0.4,1.3,1,1.6v3.1h-58v-3.1
				c0.6-0.3,1-0.9,1-1.6c0-1.1-0.9-1.9-2-1.9c0,0,0,0,0,0c-1.1,0-1.9,0.8-2,1.9c0,0.7,0.4,1.3,1,1.6v3.1h-58v-3.1
				c0.6-0.3,1-0.9,1-1.6c-0.1-1.1-0.9-1.9-2-1.9c-1.1,0-2,0.8-2,1.9c0,0,0,0,0,0c0,0.7,0.4,1.3,1,1.6v3.1h-58v-3.1
				c0.6-0.3,1-0.9,1-1.6c0-1.1-0.9-1.9-2-1.9c0,0,0,0,0,0c-1.1,0-1.9,0.8-2,1.9c0,0.7,0.4,1.3,1,1.6v3.1h-58v-3.1
				c0.6-0.3,1-0.9,1-1.6c-0.1-1.1-0.9-1.9-2-1.9c-1.1,0-2,0.8-2,1.9c0,0,0,0,0,0c0,0.7,0.4,1.3,1,1.6v3.1h-58v-3.1
				c0.6-0.3,1-0.9,1-1.6c-0.1-1.1-0.9-1.9-2-1.9c-1.1,0-1.9,0.8-2,1.9c0,0.7,0.4,1.3,1,1.6v3.1h-58v-3.1c0.6-0.3,1-0.9,1-1.6
				c0-1.1-0.9-1.9-2-1.9c0,0,0,0,0,0c-1.1,0-1.9,0.8-2,1.9c0,0.7,0.4,1.3,1,1.6v3.1h-39v2.8h39v12.3h2v-12.3h58v12.3h2v-12.3h58
				v12.3h2v-12.3h58v12.3h2v-12.3h58v12.3h2v-12.3h58v12.3h2v-12.3h58v12.3h2v-12.3h6.9V252.3z"/>
			<path class="st27" d="M-15.2,252.3h-1v-3.1c0.6-0.3,1-0.9,1-1.6c0-0.8-0.5-1.4-1.2-1.7c0.1,0.2,0.2,0.5,0.2,0.8
				c0,1.1-0.9,1.9-2,1.9c0,0,0,0,0,0c-0.3,0-0.6-0.1-0.8-0.2c0.3,0.7,1.1,1.1,1.8,1.1c0.1,0,0.3,0,0.4,0v18h0.6v-12.3h58v-1h-57
				L-15.2,252.3z"/>
		</g>
		<g class="st25">
			<path class="st26" d="M452,252.3h-6.9v-3.1c0.6-0.3,1-0.9,1-1.6c0-1.1-0.9-2-2-2s-2,0.9-2,2c0,0.7,0.4,1.3,1,1.6v3.1h-58v-3.1
				c0.6-0.3,1-0.9,1-1.6c0-1.1-0.9-2-2-2s-2,0.9-2,2c0,0.7,0.4,1.3,1,1.6v3.1H325v-3.1c0.6-0.3,1-0.9,1-1.6c0-1.1-0.9-2-2-2
				s-2,0.9-2,2c0,0.7,0.4,1.3,1,1.6v3.1h-58v-3.1c0.6-0.3,1-0.9,1-1.6c0-1.1-0.9-2-2-2s-2,0.9-2,2c0,0.7,0.4,1.3,1,1.6v3.1h-58v-3.1
				c0.6-0.3,1-0.9,1-1.6c0-1.1-0.9-2-2-2s-2,0.9-2,2c0,0.7,0.4,1.3,1,1.6v3.1h-58v-3.1c0.6-0.3,1-0.9,1-1.6c0-1.1-0.9-2-2-2
				s-2,0.9-2,2c0,0.7,0.4,1.3,1,1.6v3.1H85v-3.1c0.6-0.3,1-0.9,1-1.6c0-1.1-0.9-2-2-2s-2,0.9-2,2c0,0.7,0.4,1.3,1,1.6v3.1H44v2.8h39
				v12.3h2v-12.3h58v12.3h2v-12.3h58v12.3h2v-12.3h58v12.3h2v-12.3h58v12.3h2v-12.3h58v12.3h2v-12.3h58v12.3h2v-12.3h7V252.3z"/>
			<path class="st28" d="M202.7,247.7c0.9,0.7,2.4-0.7,1.6-1.4S201.8,247,202.7,247.7z"/>
			<path class="st28" d="M262.7,247.7c0.9,0.7,2.4-0.7,1.6-1.4S261.8,247,262.7,247.7z"/>
			<path class="st28" d="M322.7,247.7c0.9,0.7,2.4-0.7,1.6-1.4S321.8,247,322.7,247.7z"/>
			<path class="st28" d="M142.7,247.7c0.9,0.7,2.4-0.7,1.6-1.4S141.8,247,142.7,247.7z"/>
			<path class="st27" d="M86,252.3h-1v-3.1c0.9-0.5,1.3-1.6,0.8-2.5c-0.2-0.4-0.6-0.7-1-0.9c0.1,0.2,0.2,0.5,0.2,0.8
				c0,1.1-0.9,1.9-2,1.9c0,0,0,0,0,0c-0.3,0-0.6-0.1-0.8-0.2c0.3,0.7,1.1,1.1,1.8,1.1c0.1,0,0.3,0,0.4,0v18H85v-12.3h58v-1H86V252.3
				z"/>
			<path class="st27" d="M206,254.2v-1.9h-1v-3.1c0.6-0.3,1-0.9,1-1.6c0-0.8-0.5-1.4-1.2-1.7c0.1,0.2,0.2,0.5,0.2,0.8
				c0,1.1-0.9,1.9-2,1.9c0,0,0,0,0,0c-0.3,0-0.6-0.1-0.8-0.2c0.3,0.7,1.1,1.1,1.8,1.1c0.1,0,0.3,0,0.4,0v18h0.6v-12.4h58v-1
				L206,254.2z"/>
			<path class="st27" d="M266,254.2v-1.9h-1v-3.1c0.9-0.5,1.3-1.6,0.8-2.5c-0.2-0.4-0.6-0.7-1-0.9c0.1,0.2,0.2,0.5,0.2,0.8
				c-0.1,1.1-0.9,1.9-2,1.9c-0.3,0-0.6-0.1-0.8-0.2c0.3,0.7,1.1,1.1,1.8,1.1c0.1,0,0.3,0,0.4,0v18h0.6v-12.4h58v-1L266,254.2z"/>
			<path class="st27" d="M326,254.2v-1.9h-1v-3.1c0.6-0.3,1-0.9,1-1.6c0-0.8-0.5-1.4-1.2-1.7c0.1,0.2,0.2,0.5,0.2,0.8
				c0,1.1-0.9,1.9-2,1.9c0,0,0,0,0,0c-0.3,0-0.6-0.1-0.8-0.2c0.3,0.7,1.1,1.1,1.8,1.1c0.1,0,0.3,0,0.4,0v18h0.6v-12.3h58v-1
				L326,254.2z"/>
			<path class="st27" d="M386,252.3h-1v-3.1c0.9-0.5,1.3-1.6,0.8-2.5c-0.2-0.4-0.6-0.7-1-0.9c0.1,0.2,0.2,0.5,0.2,0.8
				c-0.1,1.1-0.9,1.9-2,1.9c-0.3,0-0.6-0.1-0.8-0.2c0.3,0.7,1.1,1.1,1.8,1.1c0.1,0,0.3,0,0.4,0v18h0.6v-12.3h58v-1h-57V252.3z"/>
			<path class="st27" d="M146,254.2v-1.9h-1v-3.1c0.6-0.3,1-0.9,1-1.6c0-0.8-0.5-1.4-1.2-1.7c0.1,0.2,0.2,0.5,0.2,0.8
				c-0.1,1.1-0.9,1.9-2,1.9c-0.3,0-0.6-0.1-0.8-0.2c0.3,0.7,1.1,1.1,1.8,1.1c0.1,0,0.3,0,0.4,0v18h0.6v-12.3h58v-1L146,254.2z"/>
		</g>
		<g class="st25">
			<path class="st26" d="M853.2,252.3h-6.9v-3.1c0.6-0.3,1-0.9,1-1.6c0-1.1-0.9-2-2-2s-2,0.9-2,2c0,0.7,0.4,1.3,1,1.6v3.1h-58v-3.1
				c0.6-0.3,1-0.9,1-1.6c0-1.1-0.9-2-2-2s-2,0.9-2,2c0,0.7,0.4,1.3,1,1.6v3.1h-58v-3.1c0.6-0.3,1-0.9,1-1.6c0-1.1-0.9-2-2-2
				s-2,0.9-2,2c0,0.7,0.4,1.3,1,1.6v3.1h-58v-3.1c0.6-0.3,1-0.9,1-1.6c0-1.1-0.9-2-2-2s-2,0.9-2,2c0,0.7,0.4,1.3,1,1.6v3.1h-58v-3.1
				c0.6-0.3,1-0.9,1-1.6c0-1.1-0.9-2-2-2s-2,0.9-2,2c0,0.7,0.4,1.3,1,1.6v3.1h-58v-3.1c0.6-0.3,1-0.9,1-1.6c0-1.1-0.9-2-2-2
				s-2,0.9-2,2c0,0.7,0.4,1.3,1,1.6v3.1h-58v-3.1c0.6-0.3,1-0.9,1-1.6c0-1.1-0.9-2-2-2s-2,0.9-2,2c0,0.7,0.4,1.3,1,1.6v3.1h-39v2.8
				h39v12.3h2v-12.3h58v12.3h2v-12.3h58v12.3h2v-12.3h58v12.3h2v-12.3h58v12.3h2v-12.3h58v12.3h2v-12.3h58v12.3h2v-12.3h6.9V252.3z"
				/>
			<path class="st28" d="M543.9,247.7c0.9,0.7,2.4-0.7,1.6-1.4S543.1,247,543.9,247.7z"/>
			<path class="st27" d="M487.3,252.3h-1v-3.1c0.9-0.5,1.3-1.6,0.8-2.5c-0.2-0.4-0.6-0.7-1-0.9c0.1,0.2,0.2,0.5,0.2,0.8
				c0,1.1-0.9,1.9-2,1.9c0,0,0,0,0,0c-0.3,0-0.6-0.1-0.8-0.2c0.3,0.7,1.1,1.1,1.8,1.1c0.1,0,0.3,0,0.4,0v18h0.6v-12.3h58v-1h-57
				L487.3,252.3z"/>
			<path class="st27" d="M547.3,254.2v-1.9h-1v-3.1c0.9-0.5,1.3-1.6,0.8-2.5c-0.2-0.4-0.6-0.7-1-0.9c0.1,0.2,0.2,0.5,0.2,0.8
				c-0.1,1.1-0.9,1.9-2,1.9c-0.3,0-0.6-0.1-0.8-0.2c0.3,0.7,1.1,1.1,1.8,1.1c0.1,0,0.3,0,0.4,0v18h0.6v-12.3h58v-1L547.3,254.2z"/>
		</g>
		<rect x="217.8" y="262.5" class="st20" width="2.8" height="12.3"/>
		<ellipse class="st29" cx="219.1" cy="253.6" rx="8.1" ry="12.1"/>
		<rect x="470.1" y="261.8" class="st20" width="2.8" height="12.3"/>
		<ellipse class="st29" cx="471.4" cy="252.8" rx="8.1" ry="12.1"/>
		<path class="st17" d="M74.5,344.6H214c0.5-1.2,0.2-2.6-0.8-3.4c-3.5-3.9-12.5-3.3-12.5-3.3s8.9-4.6,3.4-7.6s-13.1-0.5-13.1-0.5
			s7.4-5.8-0.7-8.7c-0.3-0.1-0.7-0.2-1-0.3c-4.1-1.2-8.6-0.8-12.4,1.2c0,0-1.3-3.2-5.9-3.9c-2.9-0.5-5.9,0.1-8.3,1.9
			c0,0-2.4-4.4-10.6-4.1c-11.4,0.4-12,4.8-12,4.8c-2.4-2.1-5.5-3.1-8.6-3c-4.2,0.5-4.1,3.9-4.1,3.9s-4.3-5.7-17.9-4h-0.3
			c-13.9,1.8-10.1,8.4-10.1,8.4s-6.2-1.9-10.9-0.6c-0.8,0.2-1.5,0.5-2.1,1c-4.4,2.9,0.5,6.5,0.7,6.6c-0.3,0-8.4-1-11.7,3
			C72.2,339.4,72.7,342.4,74.5,344.6z"/>
		<path class="st17" d="M305.5,345.4h354.7v-19c-6.1-3.5-26.1-5.6-37.5-3.1c0,0,3.6-6.9-22.4-10.1s-44.6,2.2-44.6,2.2
			s-8.5-8.3-40.7-4c-10.3-4.8-36.9-4.3-39.6,1.8c0,0-20-7.6-50.6-5.8s-31,9.3-31,9.3s-0.9-0.2-2.4-0.4c-6.4-1-24.9-2.5-41.9,0.8
			c-19.4,3.8-19,7.5-17.4,10.4c0.4,0.7,0.9,1.4,1.5,2c0,0-20.6-0.6-31.4,7C296.7,340.3,300.5,343.3,305.5,345.4z"/>
		<path class="st30" d="M469.1,536.1c0,0,17.3-2.6,16.9-9.8S469.1,536.1,469.1,536.1z"/>
		<path class="st30" d="M465.8,539c0,0,9.6-17.9,16.9-22.4s-12.5-4.9-16.9,13.8V539z"/>
		<path class="st30" d="M465,536.6c0,0,4.9-13.9-13.2-14.6C443.6,521.6,465,536.6,465,536.6z"/>
		<path class="st16" d="M89.2,473c0,0,8.1-5.4,23.8-6.8s-16.8-7.1-28.4,6.8C84.6,473,79.3,479.2,89.2,473z"/>
		<path class="st16" d="M67.2,473.8c0,0,23.8-17.4,37.7-22s-13.3-5-31.9,9.4C73,461.3,63.7,469.9,67.2,473.8z"/>
		<path class="st16" d="M60.2,473.8c0,0,15.8-28.1,23-31.6s-11.4-5.4-23,17.5C60.2,459.7,55.6,471.9,60.2,473.8z"/>
		<path class="st16" d="M51.8,473.8c0,0,6.1-25.8,11.9-29.7S41.7,448.4,51.8,473.8z"/>
		<path class="st16" d="M48.3,473.8c0,0,0.3-21.5-12.2-24.8S43.4,463,48.3,473.8z"/>
		<path class="st16" d="M44.3,473.8c0,0-7.8-24.7-26.9-25.2S32.4,457.6,44.3,473.8z"/>
		<path class="st16" d="M42.7,473.8c0,0-10.2-10-27.6-9.3S38.4,470.7,42.7,473.8z"/>
		<path class="st16" d="M38.2,374.6c0,0,6.2-4.2,18.2-5.2s-12.9-5.4-21.7,5.2C34.6,374.6,30.6,379.3,38.2,374.6z"/>
		<path class="st16" d="M21.3,375.2c0,0,18.2-13.3,28.8-16.8s-10.2-3.8-24.4,7.2C25.7,365.6,18.6,372.2,21.3,375.2z"/>
		<path class="st16" d="M16,375.2c0,0,12-21.6,17.5-24.2s-8.7-4.2-17.5,13.4C16,364.4,12.4,373.7,16,375.2z"/>
		<path class="st16" d="M9.5,375.2c0,0,4.7-19.8,9.1-22.7S1.8,355.7,9.5,375.2z"/>
		<path class="st16" d="M6.9,375.2c0,0,0.2-16.5-9.3-19S3.1,366.9,6.9,375.2z"/>
		<path class="st16" d="M3.8,375.2c0,0-6-18.9-20.6-19.3S-5.3,362.8,3.8,375.2z"/>
		<path class="st16" d="M2.5,375.2c-5.9-5-13.4-7.5-21.1-7.1C-32,368.7-0.7,372.8,2.5,375.2z"/>
		<path class="st30" d="M433.5,380.1c0,0,4.3-18.4,8.4-21.1S426.3,362,433.5,380.1z"/>
		<path class="st30" d="M431,380.1c0,0,0.2-15.3-8.6-17.6S427.5,372.5,431,380.1z"/>
		<path class="st30" d="M428.1,380.1c0,0-5.6-17.5-19.1-17.9S419.7,368.6,428.1,380.1z"/>
		<path class="st30" d="M427,380.1c-5.4-4.6-12.5-7-19.6-6.6C395,374.1,423.9,377.9,427,380.1z"/>
		<path class="st31" d="M600.1,512.9c0,0,11.2-20,16.3-22.5s-8.1-3.8-16.3,12.5C600.1,502.9,596.8,511.6,600.1,512.9z"/>
		<path class="st31" d="M594.1,512.9c0,0,4.3-18.4,8.4-21.1S586.9,494.9,594.1,512.9z"/>
		<path class="st31" d="M591.6,512.9c0,0,0.2-15.3-8.6-17.6S588.1,505.3,591.6,512.9z"/>
		<path class="st31" d="M588.7,512.9c0,0-5.5-17.5-19.1-17.9S580.3,501.4,588.7,512.9z"/>
		<path class="st31" d="M587.6,512.9c-5.4-4.6-12.4-7-19.6-6.6C555.6,506.9,584.6,510.8,587.6,512.9z"/>
		<path class="st32" d="M163.7,562.6c0,0,24.6-4.1,23.9-15.5S163.7,562.6,163.7,562.6z"/>
		<path class="st32" d="M158.9,567.2c0,0,13.7-28.4,23.9-35.6s-17.8-7.8-23.9,21.9V567.2z"/>
		<path class="st32" d="M157.9,563.3c0,0,6.9-22.1-18.8-23.2C127.5,539.6,157.9,563.3,157.9,563.3z"/>
		<path class="st32" d="M48.2,541.8c0,0,9.6-7.3,28-9.1s-19.8-9.5-33.5,9.1C42.7,541.8,36.5,550.1,48.2,541.8z"/>
		<path class="st32" d="M22.2,542.9c0,0,28-23.2,44.4-29.4s-15.7-6.7-37.6,12.7C29,526.1,18.1,537.7,22.2,542.9z"/>
		<path class="st32" d="M14,542.9c0,0,18.6-37.7,27-42.4s-13.4-7.2-27,23.5C14,524,8.6,540.3,14,542.9z"/>
		<path class="st32" d="M4.1,542.9c0,0,7.2-34.6,14-39.8S-7.8,508.8,4.1,542.9z"/>
		<path class="st32" d="M0,542.9c0,0,0.3-28.8-14.3-33.3S-5.8,528.4,0,542.9z"/>
		<path class="st32" d="M-133.4,544.4c34.9-2.1,86.2-4,148.1-1.7c58.2,2.1,116.1,7.6,173.7,16.5c86.1,13,291.2,18.2,770.6-3.8
			l2.7,39.5c-350.8,14-701.3,14.6-1051.4,1.7c-14.6-0.5-23.1,9.9-37.7,9.3C-127.4,589-133.4,561.2-133.4,544.4z"/>
		<ellipse class="st33" cx="84.8" cy="478.4" rx="42.7" ry="7.9"/>
		<ellipse class="st33" cx="14" cy="431.7" rx="18.3" ry="4"/>
		<ellipse class="st32" cx="366.8" cy="519.5" rx="109.1" ry="19.2"/>
		<ellipse class="st32" cx="117.2" cy="524.9" rx="51.5" ry="11"/>
		<ellipse class="st32" cx="195" cy="502.6" rx="51.5" ry="11"/>
		<path class="st34" d="M162.4,452.8l10.6,42.8c0,0,8.9,8.3,26.1,6.9s20.4-6.3,20.4-6.3l11.2-43.3H162.4z"/>
		<path class="st35" d="M194,493.8c-13.5-6.3-17.2-31.9-1.1-32.1c14.1-0.3,32.6-4.3,36.9-5.2l0.9-3.7h-68.3l10.6,42.8
			c0,0,8.9,8.3,26.1,6.9c11.9-1,17.1-3.6,19.2-5.2C212.2,497.8,202.4,497.8,194,493.8z"/>
		<ellipse class="st34" cx="197.4" cy="450.1" rx="38.4" ry="7.7"/>
		<polygon class="st34" points="157.6,436.9 159,450.2 235.8,449.9 237.8,436.9 		"/>
		<ellipse class="st36" cx="197.7" cy="436.9" rx="40.1" ry="7.7"/>
		<ellipse class="st37" cx="197.6" cy="436.5" rx="35.6" ry="5.7"/>
		<path class="st38" d="M190.1,367.6c2.1,2.6,3.7,5.5,4.6,8.7c-3-1.5-5.6-3.5-7.8-6c-2.1-2.6-3.7-5.5-4.6-8.7
			C185.3,363,188,365.1,190.1,367.6z"/>
		<path class="st39" d="M181.3,344.7h0.3c-1.1,12.6-1,25.3,0.2,37.8c0.9,10.9,3.2,21.6,6.6,32c4,11.5,9.6,20.6,16.6,27l-0.2,0.2
			c-7-6.5-12.6-15.6-16.7-27.1c-3.5-10.4-5.7-21.1-6.6-32C180.3,370,180.2,357.3,181.3,344.7z"/>
		<path class="st39" d="M162.8,382.2c0.1,0,0.3,0.3,1.3,1.4c3.1,3.6,11.5,13.1,20.1,15.8l-0.1,0.3c-8.6-2.7-17-12.3-20.2-15.9
			c-0.6-0.7-1.1-1.2-1.2-1.3L162.8,382.2z"/>
		<path class="st39" d="M215.9,355.2c-8.1,6.6-24.1,21.1-32.5,39.4l-0.2-0.1c1.9-4.1,4.1-8,6.7-11.8c8.6-12.7,19.6-22.6,25.9-27.7
			L215.9,355.2"/>
		<path class="st39" d="M203.5,345.5l0.3,0.1c-0.1,0.1-5.3,12.8-4.8,25.8h-0.3C198.3,358.4,203.5,345.6,203.5,345.5z"/>
		<path class="st39" d="M219.2,364.1c-1.7-2.7-2.9-5.8-3.4-8.9c5.5,3.5,9.2,9.2,10.2,15.7C223.3,369.1,221,366.8,219.2,364.1z"/>
		<path class="st40" d="M223.2,355.5c-2.6,0.4-5.2,0.3-7.7-0.4c4.4-2.9,9.8-3.8,14.9-2.5C228.2,354.1,225.8,355.1,223.2,355.5z"/>
		<path class="st40" d="M183.5,328.3c0.4,5.5-0.3,11.1-2.1,16.4c-5.5-9.8-6.5-21.5-2.7-32.1C181.3,317.5,183,322.8,183.5,328.3z"/>
		<path class="st38" d="M188.7,334.9c-1.7,3.7-4.2,7-7.3,9.8c0-8.3,3.6-16.2,9.9-21.7C191.2,327.1,190.3,331.2,188.7,334.9z"/>
		<path class="st38" d="M176.6,333.5c2.3,3.4,4,7.2,4.8,11.2c-7.2-4.2-12.2-11.2-13.8-19.4C171.2,327.4,174.2,330.2,176.6,333.5z"/>
		<path class="st38" d="M211,353.1c-1,4-2.8,7.7-5.3,11c-1.5-8.2,0.5-16.6,5.7-23.1C212.1,345,211.9,349.1,211,353.1z"/>
		<path class="st41" d="M173.1,381.5c1.2,3.9,1.5,8,1.1,12.1c-5.5-6.2-8.1-14.5-7.1-22.7C169.8,374,171.8,377.6,173.1,381.5z"/>
		<path class="st41" d="M154.6,377.8c3.2,1,6.1,2.6,8.6,4.7c-6.6,0.9-13.4-1.1-18.4-5.5C148,376.6,151.4,376.8,154.6,377.8z"/>
		<path class="st40" d="M197.1,364.4c0,4.1-0.8,8.2-2.4,11.9c-3.5-7.5-3.6-16.2-0.3-23.8C196.1,356.3,197,360.3,197.1,364.4z"/>
		<path class="st38" d="M207.9,335c-0.7,4-2.2,7.9-4.5,11.3c-2.1-8-0.7-16.6,3.9-23.5C208.3,326.8,208.5,331,207.9,335z"/>
		<path class="st39" d="M200.5,336.8c1.6,2.9,2.6,6.1,3,9.4c-5.4-3.9-8.9-10-9.6-16.7C196.6,331.4,198.8,333.9,200.5,336.8z"/>
		<path class="st41" d="M180.2,402.5c2.6,1.9,4.9,4.2,6.6,7c-6.4-1.1-12-5-15.4-10.6C174.5,399.5,177.5,400.7,180.2,402.5z"/>
		<path class="st41" d="M179.1,408.5c2.6-0.2,5.2,0.2,7.7,1c-4.6,2.6-10.1,3-15.1,1.3C174,409.5,176.5,408.7,179.1,408.5z"/>
		<path class="st39" d="M175.8,347.3c2.3,3.4,4,7.2,4.8,11.2c-7.2-4.2-12.2-11.3-13.8-19.4C170.3,341.2,173.4,343.9,175.8,347.3z"/>
		<path class="st41" d="M195.8,392.7c-1-3.1-1.4-6.3-1.1-9.5c4.5,4.8,6.7,11.2,6.1,17.7C198.5,398.5,196.9,395.7,195.8,392.7z"/>
		<path class="st40" d="M200.1,388.7c-2.2-1.4-4.1-3.2-5.6-5.4c2.6,0.4,5.1,1.2,7.3,2.6c2.2,1.4,4.1,3.2,5.6,5.4
			C204.8,390.9,202.3,390,200.1,388.7z"/>
		<path class="st39" d="M175.9,366c2.1,2,3.8,4.4,4.9,7.1c-5.6-1.9-10-6.1-12.3-11.6C171.2,362.5,173.7,364,175.9,366z"/>
		<path class="st41" d="M199.3,427.8c-3.6-2-6.7-4.7-9.2-8c8.3,0.6,15.9,4.8,20.9,11.5C206.9,430.9,202.9,429.7,199.3,427.8z"/>
		<path class="st41" d="M199.4,418.6c-3.3,0.6-6.6,0.5-9.8-0.3c5.5-3.8,12.4-5.1,18.9-3.5C205.7,416.6,202.6,417.9,199.4,418.6z"/>
		<path class="st38" d="M198.5,386.3c-3.2-0.4-6.3-1.4-9.1-3c6.2-2,13-1.3,18.6,2C204.9,386.3,201.7,386.6,198.5,386.3z"/>
		<path class="st38" d="M196.6,380.8c-2.2,1.4-4.6,2.4-7.2,2.8c2.8-4.5,7.4-7.5,12.6-8.3C200.6,377.4,198.8,379.3,196.6,380.8z"/>
		<path class="st42" d="M164.9,386.8c3.3-0.1,6.6,0.4,9.7,1.6c-6,3-13,3.4-19.2,0.9C158.3,387.8,161.6,387,164.9,386.8z"/>
		<path class="st43" d="M141.4,379.8c0,0,24.2,22.8,52.7,34.3"/>
		<path class="st43" d="M160.1,417.4c0.4-0.3,17.6-0.2,26.6-6.6"/>
		<path class="st43" d="M170.4,352.5c0,0-1.4,31.4,11.8,56.1"/>
		<path class="st43" d="M155.5,362.6c0,0,6.9,11.9,17.7,19.5"/>
		<path class="st42" d="M179.6,351.4c-3,1.2-6.2,1.8-9.4,1.8c4.4-4.8,10.7-7.4,17.2-7.3C185.3,348.2,182.6,350.1,179.6,351.4z"/>
		<path class="st42" d="M175.2,347.2c-1.2,2.3-2.9,4.3-5,5.9c0.3-5.3,2.9-10.1,7.1-13.4C177.1,342.4,176.4,344.9,175.2,347.2z"/>
		<path class="st42" d="M129.6,368.3c4.7,3,8.7,7,11.8,11.6c-11.1-1.6-21-7.9-27.2-17.3C119.6,363.4,124.9,365.3,129.6,368.3z"/>
		<path class="st42" d="M138,368.1c1.9,3.6,3.1,7.6,3.4,11.7c-6.6-5.1-10.7-12.7-11.3-21C133.3,361.4,136,364.5,138,368.1z"/>
		<path class="st42" d="M129.6,376.9c4.1,0.2,8.1,1.2,11.8,2.9c-7.7,3.2-16.3,2.9-23.8-0.8C121.4,377.6,125.5,376.8,129.6,376.9z"/>
		<path class="st38" d="M166,361.4c2.5,3.2,4.4,6.9,5.5,10.9c-7.4-3.7-12.9-10.5-15-18.5C160.1,355.6,163.4,358.2,166,361.4z"/>
		<path class="st42" d="M165.7,408.8c3.8,1.4,7.4,3.6,10.3,6.5c-8.3,0.6-16.4-2.3-22.4-8.1C157.7,406.8,161.8,407.4,165.7,408.8z"/>
		<path class="st39" d="M151.5,421.2c2.7-1.9,5.8-3.3,9-4c-3.3,5.8-8.9,10-15.5,11.4C146.6,425.7,148.8,423.2,151.5,421.2z"/>
		<path class="st42" d="M166.6,379.3c3.3,2.5,6,5.6,8,9.1c-8.1-1.8-15.1-6.9-19.1-14.2C159.5,375.2,163.2,376.9,166.6,379.3z"/>
		<path class="st39" d="M149.7,352.9c2.8,3,4.9,6.6,6.3,10.4c-7.7-3.2-13.6-9.5-16.4-17.3C143.4,347.6,146.8,349.9,149.7,352.9z"/>
		<path class="st38" d="M146.6,359.9c3.3,0.5,6.4,1.6,9.3,3.3c-6.4,1.9-13.4,1-19.1-2.5C140,359.7,143.3,359.5,146.6,359.9z"/>
		<path class="st42" d="M186.6,415.8c3.1-1,6.3-1.3,9.5-1c-4.8,4.4-11.3,6.5-17.8,5.9C180.8,418.5,183.6,416.8,186.6,415.8z"/>
		<path class="st42" d="M190.7,420.3c1.4-2.2,3.3-4.1,5.4-5.5c-0.8,5.2-3.7,9.9-8.1,12.8C188.4,425,189.4,422.5,190.7,420.3z"/>
		<path class="st39" d="M140,385.9c4.1,0.2,8.1,1.2,11.8,2.9c-7.7,3.2-16.3,2.9-23.8-0.8C131.8,386.5,135.9,385.8,140,385.9z"/>
		<path class="st42" d="M188.3,397.4c-3-1.1-5.9-2.7-8.3-4.9c6.5-0.7,13,1.5,17.8,5.9C194.6,398.8,191.3,398.4,188.3,397.4z"/>
		<path class="st39" d="M187.7,391.6c-2.5,0.9-5.1,1.3-7.7,1.2c3.7-3.7,8.9-5.7,14.1-5.4C192.3,389.2,190.1,390.6,187.7,391.6z"/>
		<path class="st42" d="M155,397.1c2.9-0.4,5.8-0.3,8.6,0.4c-4.9,3.3-10.9,4.3-16.6,2.8C149.4,398.7,152.1,397.7,155,397.1z"/>
		<path class="st42" d="M184.9,391.4c-2.2,2.3-4.9,4.2-7.9,5.5c2.1-6.2,6.8-11.2,12.8-13.7C188.7,386.3,187,389.1,184.9,391.4z"/>
		<path class="st42" d="M179.3,389.5c-0.2,2.6-0.9,5.1-2.1,7.5c-1.8-4.9-1.5-10.4,1-15.1C179.1,384.3,179.5,386.9,179.3,389.5z"/>
		<path class="st34" d="M75.9,477.6l11.6,46.5c0,0,9.7,9,28.4,7.5s22.2-6.9,22.2-6.9l12.2-47.1L75.9,477.6z"/>
		<path class="st35" d="M110.2,522.2c-14.7-6.9-18.7-34.6-1.3-35c15.3-0.3,35.4-4.6,40.2-5.7l1-4H75.9L87.4,524c0,0,9.7,9,28.4,7.5
			c13-1.1,18.6-4,20.8-5.6C130,526.5,119.4,526.5,110.2,522.2z"/>
		<ellipse class="st34" cx="113.9" cy="474.6" rx="41.8" ry="8.3"/>
		<polygon class="st34" points="70.6,460.3 72.1,474.8 155.7,474.5 157.9,460.3 		"/>
		<ellipse class="st36" cx="114.2" cy="460.3" rx="43.7" ry="8.3"/>
		<ellipse class="st37" cx="114.1" cy="459.9" rx="38.7" ry="6.2"/>
		<path class="st39" d="M79.3,437.1c0,0,38.9-45.9,31.8-57.6s-13.9,8.6-13.9,8.6s8.1-33-2.4-33.8s-9.7,15.1-9.7,15.1
			s-0.4-26.4-12.2-25.5s-1.4,26.8-1.4,26.8s-10.3-19.5-16.1-8.8s17.3,36.2,17.3,36.2s-16.7-16.8-19.8-3.7
			C49.2,410.2,79.3,437.1,79.3,437.1z"/>
		<path class="st43" d="M74.7,440c0,0,15.7-34.4,7.7-59"/>
		<path class="st39" d="M131,424c0,0,33.6-27,30.2-36.1s-10.9,4.1-10.9,4.1s10.2-22.1,2.9-24s-8.9,9.3-8.9,9.3s3.3-18.6-5.1-19.6
			s-4.7,18.7-4.7,18.7s-4.6-15.1-10.1-8.4s7.2,27.8,7.2,27.8s-9.4-14-13.4-5.3C113.5,400.9,131,424,131,424z"/>
		<path class="st43" d="M127.3,425.4c0,0,15.7-22,13.4-40.4"/>
		<path class="st40" d="M126.8,456.7c0,0-1.8-63.5,11.7-68.4s5.8,16.2,5.8,16.2s15.1-32.5,24.2-26.2s-2,18.8-2,18.8
			s17.7-21.5,26.8-13S177,407.3,177,407.3s21.3-9.3,19.1,3.4S158,429.1,158,429.1s24.8-2.8,18.7,10
			C169.4,454.4,126.8,456.7,126.8,456.7z"/>
		<path class="st43" d="M128.8,462.2c0,0,9.7-38.6,32.5-53.6"/>
		<path class="st41" d="M132.3,463.8c0,0-40.7-38.8-35.3-50.3s13.8,6.6,13.8,6.6s-10.8-29.9-1.1-31.6s10.5,13.1,10.5,13.1
			s-2.2-24.5,8.8-24.9s4,24.8,4,24.8s7.6-19.1,14.1-9.8S134.7,427,134.7,427s13.9-17.2,18-5.4C157.7,435.7,132.3,463.8,132.3,463.8z
			"/>
		<path class="st43" d="M137,466c0,0-18-30.4-13-54"/>
		<path class="st40" d="M95.1,454.1c0,0,8.6-51.6-1.9-57.1s-6.6,12.6-6.6,12.6s-8.7-28.2-16.8-24.1s-0.5,15.6-0.5,15.6
			s-12.1-19.5-20.5-13.6s10.9,20.7,10.9,20.7s-16.4-10-16,0.6s29,19.3,29,19.3s-19.9-5-16.4,6.1C60.5,447.4,95.1,454.1,95.1,454.1z"
			/>
		<path class="st43" d="M92.9,458.4c0,0-3.6-32.6-20.6-47.4"/>
		<path class="st38" d="M99.4,463.9c0,0-26.6-39.2-20-47.7s10.2,7.9,10.2,7.9s-3.6-26.5,4.6-26.2s6.3,12.6,6.3,12.6
			s2.5-20.6,11.7-18.9s-1.1,21.1-1.1,21.1s9.7-14.4,13.4-5.5s-16.6,26.9-16.6,26.9s14.5-11.7,15.8-1.2
			C125.3,445.4,99.4,463.9,99.4,463.9z"/>
		<path class="st43" d="M102.8,466.6c0,0-9.4-28.2-1.1-46.8"/>
		<path class="st39" d="M129.1,458.1c0,0,23.7-5.7,24.1-11.2s-6.6-0.5-6.6-0.5s10.5-8.9,7.3-11.6s-6.8,2.6-6.8,2.6s6.1-8.7,2.1-11.2
			s-6.9,8.4-6.9,8.4s1.3-8.8-3.2-6.7s-3,16-3,16s-1.5-9.5-5.6-5.9C125.7,442.1,129.1,458.1,129.1,458.1z"/>
		<path class="st43" d="M126.8,458c0,0,13.3-7.5,16.6-17.4"/>
		<path class="st44" d="M281.5,301.5c0,0,23.6-7.4,44.2-29.4l17.8,23.4c0,0-19,18.8-51.2,19.7L281.5,301.5z"/>
		<path class="st45" d="M391.7,244.9c0,0-7.6,10.4-21.2,28.1c-5.1,6.7-10.9,12.7-17.4,18c-3.1,2.6-6.5,5-10,7
			c-16-10.8-17.7-26.7-17.7-26.7c3.3-3.4,6.4-7,9.2-10.8c10.2-13.2,20.3-29.5,20.3-29.5L391.7,244.9z"/>
		<path class="st46" d="M353.1,289.7c-3.4,2.6-7,4.7-10.9,6.4c-15.8-9.8-16-24.8-16-24.8c2.9-2.6,5-5.6,8.2-9.4
			C334.9,268.3,338.5,279.8,353.1,289.7z"/>
		<path class="st45" d="M346.3,259.3c0,0,6.5,29.4,9.7,54.4s4.4,44.7,4.4,44.7s50.2,27.1,96.1-12.7c0,0-22.5-84-34.3-110
			c0,0-15.2-30.4-44.3-25.2c-27.7,5-21.9,28.5-21.9,28.5"/>
		
			<ellipse transform="matrix(0.6784 -0.7347 0.7347 0.6784 -46.7154 344.4706)" class="st46" cx="370.1" cy="225.6" rx="23.2" ry="10.5"/>
		<path class="st47" d="M354.9,217.8c0,0,4.5,2.1,2.8,12.9s20.5,4.2,26.4-20.5c0,0-5.2-8.3-1.7-22.9S351.1,196.9,354.9,217.8z"/>
		<path class="st44" d="M285.8,190.9c-2.6-4.9-7.4-8.2-13-8.8c-9.2-0.9-7.5,13.7,1.2,22.4s17.2,7.3,19.1,2.6"/>
		<path class="st48" d="M287.2,202.8c0,0-12.1-13.6-17.4-6.6"/>
		<path class="st49" d="M287.2,202.8c-1.2-1.2-2.5-2.4-3.9-3.5c-1.3-1.1-2.8-2.1-4.3-3c-1.5-0.8-3-1.4-4.7-1.7
			c-0.8-0.1-1.6-0.1-2.4,0.2c-0.8,0.3-1.5,0.7-2.1,1.3l-0.1-0.1c0.4-0.8,1.1-1.5,1.9-1.9c0.9-0.4,1.8-0.6,2.8-0.5
			c1.8,0.2,3.5,0.9,5,2c2.9,2,5.6,4.3,7.8,7.1L287.2,202.8z"/>
		<path class="st48" d="M279.4,195.7c0,0-3.5,2.9,0.6,11.1"/>
		<path class="st49" d="M279.4,195.7c-0.6,0.7-0.9,1.7-1,2.6c-0.1,0.9-0.1,1.9,0.1,2.8c0.2,0.9,0.6,1.8,0.8,2.7
			c0.1,0.4,0.3,0.9,0.4,1.4c0.1,0.5,0.3,1,0.4,1.4H280c-0.7-0.8-1.2-1.6-1.6-2.5c-0.2-0.5-0.3-1-0.5-1.4c-0.1-0.5-0.2-1-0.2-1.5
			c-0.1-1-0.1-2,0.1-3C278.1,197.2,278.6,196.3,279.4,195.7L279.4,195.7z"/>
		<path class="st44" d="M391.5,152.1c7.5,34.3-8.5,65-35.4,78s-64.5,9.4-78.5-38.8c-3.5-12.1-10.1-33.2-15.6-40.1
			c-10.1-12.7-13.5-8.7,12.5-28.7C350.2,64.2,384.2,118.8,391.5,152.1z"/>
		<path class="st50" d="M352,106.7c0,0-44.6,38.5-78.3,46.3l-1,24.5l-23.2-46.6l46.9-34.5l60.2-6.8l28.6,38.2l1.3,35.5
			c0,0-5.8-15.4-17.9-25.1S352,106.7,352,106.7z"/>
		
			<ellipse transform="matrix(0.9003 -0.4352 0.4352 0.9003 -37.0756 165.9174)" class="st51" cx="343.7" cy="163.9" rx="14.4" ry="14.3"/>
		<path class="st52" d="M356.7,157.6c1.7,3.4,2,7.4,0.7,11c-2.6,7.7-10.9,12-18.7,9.5c-7.8-2.5-12-10.8-9.5-18.6
			c1.3-4,4.2-7.3,8.1-9c3.5-1.6,7.6-1.7,11.2-0.4C352.1,151.5,355.1,154.2,356.7,157.6z M356.6,157.7c-1.7-3.4-4.6-6-8.2-7.2
			c-7.5-2.5-15.6,1.4-18.2,8.8c-2.6,7.4,1.3,15.5,8.6,18.1c0,0,0.1,0,0.1,0.1c7.4,2.5,15.6-1.4,18.2-8.8
			C358.5,165,358.3,161.1,356.6,157.7z"/>
		
			<ellipse transform="matrix(0.9003 -0.4352 0.4352 0.9003 -40.5063 166.0844)" class="st53" cx="342.3" cy="171.5" rx="7.1" ry="7.1"/>
		<ellipse transform="matrix(0.9003 -0.4352 0.4352 0.9003 -37.9208 165.3994)" class="st51" cx="342.1" cy="165.5" rx="2" ry="2"/>
		
			<ellipse transform="matrix(0.9003 -0.4352 0.4352 0.9003 -49.3372 148.059)" class="st51" cx="298.6" cy="181.7" rx="12.3" ry="13.6"/>
		<path class="st52" d="M309.7,176.4c1.6,3.1,2,6.6,1.1,10c-1.4,6.4-7.7,10.5-14.1,9.2c-0.8-0.2-1.6-0.4-2.4-0.8
			c-6.9-2.9-10.6-10.5-8.6-17.8c1-3.5,3.4-6.4,6.7-7.9c3.2-1.4,6.9-1.3,10.1,0.2C305.7,170.8,308.2,173.3,309.7,176.4z M309.6,176.4
			c-1.5-3.1-4-5.5-7.1-6.9c-5.7-2.7-12.5-0.2-15.1,5.5c-0.3,0.7-0.6,1.5-0.8,2.3c-1.7,6.8,1.7,13.8,8.1,16.8
			c5.7,2.7,12.5,0.2,15.1-5.4c0.3-0.7,0.6-1.5,0.8-2.2C311.4,183,311.1,179.5,309.6,176.4L309.6,176.4z"/>
		
			<ellipse transform="matrix(0.9003 -0.4352 0.4352 0.9003 -52.0595 148.884)" class="st53" cx="299" cy="188.1" rx="6.8" ry="6.8"/>
		
			<ellipse transform="matrix(0.9003 -0.4352 0.4352 0.9003 -49.7181 148.7518)" class="st51" cx="299.9" cy="182.9" rx="1.8" ry="1.9"/>
		<path class="st52" d="M312.2,175.6c0.7,0.5,1.3,1.1,1.9,1.8c0.6,0.6,1.2,1.3,1.7,2c1.1,1.4,1.9,3,2.6,4.7c0.6,1.8,0.8,3.6,0.6,5.5
			c-0.3,1.9-1.2,3.6-2.4,5l0.1-0.9c0.4,0.9,1,1.6,1.8,2.1c0.8,0.6,1.7,0.9,2.7,0.9c1,0,2.1-0.1,3-0.5c0.5-0.2,1-0.4,1.5-0.6
			s1-0.5,1.5-0.7v0.1l-1.4,0.9c-0.5,0.3-1,0.5-1.5,0.7c-1,0.4-2.1,0.7-3.2,0.7c-1.1,0-2.2-0.3-3.1-0.9c-0.9-0.6-1.7-1.5-2.2-2.5l0,0
			l0,0c1.1-1.3,1.9-2.9,2.2-4.6c0.2-1.7,0.1-3.4-0.5-5.1c-0.5-1.6-1.3-3.2-2.2-4.6c-0.9-1.5-2-2.8-3.2-4.1L312.2,175.6z"/>
		<path class="st53" d="M325.1,144.3c0,0-5.1-5.5,1.9-9.6c6-3.5,16.5-2.3,24.3,2.4c0.5,0.3,0.6,1,0.3,1.5c-0.2,0.3-0.6,0.5-1,0.5
			C344.5,138.7,333.1,138.6,325.1,144.3z"/>
		<path class="st53" d="M294.5,154.2c0,0-1.5-7.2-7.7-4.9c-5.4,2-9.6,10.3-10,19c0,1.1,1.3,1.7,1.8,0.8
			C281.1,164.4,286.5,156.2,294.5,154.2z"/>
		<path class="st54" d="M353.3,100.3c0,0-29,19.7-47,15.9c0,0-4.4,11.2-19.4,13.1c0,0,4.6,9.6-15.3,17.9c0,0-0.2,26.8,3.1,34.3
			c0,0-26.6-17.9-28.5-43.7s7-48.2,40.5-67.7s69-5.1,79,5.2L359,61c0,0,9,4.8,9.9,13.5c0,0,2-5,11.5-2.2c0,0-8.1,3.6-7.5,7.7
			c0,0,11,2.5,19.7,15.5s15.7,40.1,8.9,54.1c0,0-11.1,3.7-11.2,12.5c0,0-3.9,7.3-5.6-6.1s-25.7-26.4-32.1-54.4L353.3,100.3z"/>
		<path class="st44" d="M386.9,165.7c0,0-2.1-8.8,7.7-18.4s19.2,1.7,16.4,15.8s-13.6,21.5-19.5,20.2"/>
		<path class="st48" d="M394.6,174.8c0,0,2.9-20.7,14.5-21.3"/>
		<path class="st49" d="M394.5,174.8c0.6-4.6,1.9-9.1,3.8-13.3c1-2.2,2.4-4.1,4.1-5.7c1.8-1.6,4.1-2.5,6.5-2.4v0.1
			c-2.2,0.4-4.3,1.4-5.9,3c-1.6,1.6-3,3.3-4.1,5.3c-1.1,2-2,4.1-2.7,6.3C395.7,170.3,395.1,172.6,394.5,174.8L394.5,174.8z"/>
		<path class="st48" d="M397.9,162.6c0,0,6.3-1.5,8,7.9"/>
		<path class="st49" d="M397.9,162.5c1.1-0.3,2.2-0.2,3.2,0.1c1,0.4,2,1,2.7,1.8c0.8,0.8,1.4,1.7,1.7,2.8c0.1,0.5,0.3,1,0.4,1.6
			c0.1,0.5,0.1,1.1,0.1,1.6h-0.1c-0.2-0.5-0.5-1-0.6-1.4c-0.2-0.5-0.4-0.9-0.6-1.4c-0.4-0.9-0.9-1.8-1.4-2.6
			c-0.6-0.8-1.4-1.4-2.3-1.9C399.9,162.6,398.9,162.5,397.9,162.5L397.9,162.5z"/>
		<path class="st54" d="M352.5,101.6c0,0-37.8,42.1-81.8,47.1s46.7-56.3,46.7-56.3l42-3.6L352.5,101.6z"/>
		<path class="st55" d="M351.6,191.5c0,0,2.5,21.9-11.9,28.9c0,0-16.6,6.4-27.7-13.8C326.9,209.4,342.3,203.6,351.6,191.5z"/>
		<path class="st56" d="M351.4,191.1c0,0,1.6,18.2-12.9,25.2c0,0-16.2,5.9-26.6-9.8C326.9,209.1,342.2,203.2,351.4,191.1z"/>
		<path class="st57" d="M347.4,195.7c-1.3,5.3-4.7,9.9-9.6,12.5c-6.6,3.4-14.6,2.8-20.6-1.6C317.2,206.6,335,208.1,347.4,195.7z"/>
		<path class="st55" d="M351.6,190.9c0,0-7,8.7-17.9,12.3c-7.1,2.2-14.4,3.4-21.9,3.4C311.9,206.5,337.8,212.5,351.6,190.9z"/>
		<path class="st58" d="M349.7,189.7c1.7,0.9,3,2.4,3.8,4.1C353.5,193.8,353,190.2,349.7,189.7z"/>
		<path class="st58" d="M312.9,203.1c-0.8,1.8-1,3.8-0.5,5.8C311,207.1,311.3,204.6,312.9,203.1z"/>
		<path class="st59" d="M346.9,209.1c-3.5-1.2-7.3-0.3-9.9,2.3c0,0-4.7-0.9-9.9,5.7C327.1,217.1,339.8,220.9,346.9,209.1z"/>
		<path class="st44" d="M291,297.3c0,0-17.9,6-24.3,11.2c-1.2,1.4-1.1,3.5,0.2,4.8c2.3,2.3,11.8-5,10.2,1.6l-4.9,20.8
			c0,0-0.9,6,9,2.8c0,0,3.1,3.4,9.9-1.6c0,0,5.7,4,11.4-5.6l6.6-21.2"/>
		<path class="st48" d="M279.2,339.1c0,0,3,0.1,3.9-6.3s1.2-9.3,1.2-9.3"/>
		<path class="st60" d="M279.2,338.6c0.3,0,0.5-0.1,0.8-0.2c0.3-0.2,0.5-0.3,0.8-0.6c0.5-0.5,0.8-1.1,1.1-1.7
			c0.6-1.3,0.9-2.7,1.1-4.1c0.5-2.8,1-5.7,1.3-8.5c-0.2,2.9-0.5,5.7-0.8,8.6c-0.1,1.5-0.4,2.9-0.9,4.3c-0.3,0.7-0.7,1.4-1.2,2
			c-0.5,0.7-1.3,1.1-2.2,1.2L279.2,338.6z"/>
		<path class="st48" d="M289.6,338.1c0,0,1.8-0.9,2.9-6c0.6-2.9,1-5.9,0.9-8.9"/>
		<path class="st60" d="M289.4,337.7c0.2-0.1,0.4-0.3,0.6-0.5c0.2-0.2,0.4-0.5,0.5-0.7c0.3-0.5,0.6-1.1,0.9-1.7
			c0.5-1.2,0.8-2.5,1.1-3.7c0.6-2.6,0.9-5.2,1-7.8c0.1,2.6-0.1,5.3-0.5,7.9c-0.2,1.3-0.5,2.6-0.9,3.9c-0.2,0.7-0.5,1.3-0.8,1.9
			c-0.2,0.3-0.4,0.6-0.6,0.9c-0.2,0.3-0.5,0.6-0.9,0.8L289.4,337.7z"/>
		<path class="st48" d="M300.8,334c0,0,3.6-4.5,2.4-12.5"/>
		<path class="st60" d="M300.4,333.7c0.6-0.8,1.2-1.7,1.5-2.7c0.4-1,0.8-2,1-3c0.2-1.1,0.4-2.1,0.4-3.2c0-1.1,0-2.2-0.1-3.2
			c0.2,1.1,0.3,2.2,0.3,3.3c0,1.1,0,2.2-0.2,3.3c-0.2,1.1-0.4,2.2-0.8,3.2c-0.4,1.1-0.8,2.1-1.5,3.1L300.4,333.7z"/>
		<path class="st61" d="M250.9,335.4l40.8-36.2c4.5-4,11.2-4.1,15.9-0.3l7.7,6.3c5.3,4.3,6,12,1.8,17.3c-0.1,0.2-0.3,0.4-0.5,0.5
			l-37.9,40.5c-4.7,5.2-12.5,5.9-17.5,0.9l-11-11.1c-4.8-4.8-4.7-12.6,0.1-17.3C250.6,335.7,250.8,335.5,250.9,335.4z"/>
		<path class="st61" d="M283.4,358.5c-9.4,25.7-30.8,19.1-38.9,10.9s-12.6-30.5,8.6-36.3"/>
		<path class="st62" d="M246.9,359.9c0,0-2.2-11.1,15-24.1s44.3-36.4,44.3-36.4c2.3,0.8,4.3,2.4,5.7,4.4l-45.5,38.4
			c0,0-14.5,12.1-12.1,26.9L246.9,359.9z"/>
		
			<linearGradient id="SVGID_7_" gradientUnits="userSpaceOnUse" x1="288.1007" y1="254.5015" x2="277.0208" y2="114.5615" gradientTransform="matrix(1 0 0 -1 0 572)">
			<stop  offset="0.1" style="stop-color:#286BAD"/>
			<stop  offset="0.13" style="stop-color:#3476B3"/>
			<stop  offset="0.23" style="stop-color:#5B96C7"/>
			<stop  offset="0.33" style="stop-color:#7BB1D7"/>
			<stop  offset="0.44" style="stop-color:#94C6E4"/>
			<stop  offset="0.55" style="stop-color:#A5D4ED"/>
			<stop  offset="0.67" style="stop-color:#B0DDF2"/>
			<stop  offset="0.81" style="stop-color:#B3E0F4"/>
		</linearGradient>
		<path class="st63" d="M254.3,366.8c0,0,14.3-1.7,28.6-16.5s35-40.9,35-40.9s4.7,3-0.3,11.6l-34,36.4c0,0-10.5,28.8-31.3,15.8
			L254.3,366.8z"/>
		<path class="st64" d="M252.5,360.3c4,4.6,4.9,10,2.4,12.6c-6.6,7-8.1,0.5-12.2-4.1s-10.1-7.3-2.4-12.6
			C243.3,354.1,248.5,355.7,252.5,360.3z"/>
		
			<ellipse transform="matrix(0.7539 -0.657 0.657 0.7539 -180.9084 251.231)" class="st61" cx="244.9" cy="367.1" rx="6.5" ry="11.1"/>
		<path class="st61" d="M252.4,374.1c-1.6,1.4-4.9,0.4-8-2.3c-0.8-0.7-1.6-1.4-2.2-2.2c-3.7-4.2-5-9-3-10.8s6.6,0.3,10.3,4.5
			c0.5,0.6,1,1.3,1.5,1.9C253.4,368.9,254.1,372.6,252.4,374.1z"/>
		<path class="st65" d="M252.4,374.1c-1.6,1.4-4.9,0.4-8-2.3l6.5-6.6C253.4,368.9,254.1,372.6,252.4,374.1z"/>
		<path class="st66" d="M252.2,333.8c0,0,5.4-1.7,17.4,10.2s12.2,17.2,12.2,17.2s-0.2-7.9-11.1-18.6S252.2,333.8,252.2,333.8z"/>
		<path class="st44" d="M315.2,329c0,0,38.7-0.7,64.6-22.5c0,0-16.9-5.8-25-21.8c0,0-24.1,21.4-48.6,22.8c0,0-7.2,2.9-7.3,9.8
			C298.9,330.9,315.2,329,315.2,329"/>
		<path class="st44" d="M306.2,307.6c-8.8,1.7-17.9,1.9-26.8,0.5c-1.7,0.8-2.5,2.8-1.8,4.5c1.2,3.1,2.8,4.5,9.7,4.3
			c18.5-0.4,9.3,24.8,6,28.6c-9.6,11.9-7.4,15.2,15.6-2.5c9.7-8.3,10.8-16.8,10.8-16.8"/>
		<path class="st48" d="M307.3,338.1c0,0-0.5,6.4-8.3,12.2"/>
		<path class="st49" d="M307.3,338.1c0,1.3-0.3,2.6-0.7,3.8c-0.5,1.2-1.1,2.3-1.9,3.4c-0.8,1-1.6,2-2.6,2.9c-0.5,0.4-1,0.8-1.5,1.2
			s-1.1,0.7-1.6,1c0.9-0.9,1.8-1.8,2.6-2.8s1.6-1.9,2.3-2.9c0.7-1,1.4-2.1,2-3.1C306.4,340.5,306.9,339.3,307.3,338.1z"/>
		<path class="st48" d="M314.1,335.5c0,0-1.5,6.2-10.1,10.8"/>
		<path class="st49" d="M314.1,335.5c-0.2,1.3-0.6,2.5-1.3,3.6c-0.7,1.1-1.5,2.1-2.4,3.1c-0.9,0.9-1.9,1.7-3,2.4
			c-0.5,0.4-1.1,0.6-1.7,1s-1.2,0.5-1.8,0.7c1-0.8,2-1.5,3-2.3c1-0.8,1.9-1.6,2.8-2.5c0.9-0.9,1.7-1.8,2.4-2.8
			C312.9,337.8,313.5,336.7,314.1,335.5z"/>
		<path class="st45" d="M416.2,273.5l-22.5,23.7l-11.1,11.7c-23.8-5.3-31.3-26.4-31.3-26.4s3.8-4.7,9-11.2c8.2-10.2,19.8-25,25-33"
			/>
		<path class="st46" d="M392.8,297.1l-10.6,11.7c-22.7-5.3-29.7-26.4-29.7-26.4s3.7-4.7,8.6-11.2
			C368.2,283.4,379.5,292.6,392.8,297.1z"/>
		
			<linearGradient id="SVGID_8_" gradientUnits="userSpaceOnUse" x1="214.4167" y1="165.81" x2="252.43" y2="165.81" gradientTransform="matrix(1 0 0 -1 0 572)">
			<stop  offset="0" style="stop-color:#FFFFFF"/>
			<stop  offset="0.43" style="stop-color:#B3E0F4"/>
			<stop  offset="0.83" style="stop-color:#3476B7"/>
		</linearGradient>
		<path class="st67" d="M252.4,374.1c0,0-27.4,30.5-25.8,65.4c0,0-0.6,1-10.7,1.9c-3.7-8.3-2.4-33.5,29.4-70.5"/>
		
			<linearGradient id="SVGID_9_" gradientUnits="userSpaceOnUse" x1="-582.1676" y1="-27.5551" x2="-504.4276" y2="-27.5551" gradientTransform="matrix(0.75 -0.36 -0.38 -0.78 609.17 205.31)">
			<stop  offset="8.000000e-02" style="stop-color:#286BAD"/>
			<stop  offset="0.12" style="stop-color:#3675B2"/>
			<stop  offset="0.3" style="stop-color:#739EC9"/>
			<stop  offset="0.47" style="stop-color:#A5C1DD"/>
			<stop  offset="0.63" style="stop-color:#CCDCEC"/>
			<stop  offset="0.78" style="stop-color:#E8EFF6"/>
			<stop  offset="0.9" style="stop-color:#F9FBFD"/>
			<stop  offset="1" style="stop-color:#FFFFFF"/>
		</linearGradient>
		<path class="st68" d="M224.4,397.6c0,0-17.6,17-11.6,43.1c0,0-1.2,5-4.6-1.4c-3.4-6.5-1.1-30,16.6-42.8"/>
		<path class="st69" d="M360.4,358.4c0,0-1.6,8.5-10.8,54.1c0,0-2.9,9.4,4.9,47.1c2.2,10.6,5.1,21,8.6,31.3l0,0
			c0,0,20.4,7.7,30.2-2.8c0,0-2.4-32.1-5.6-61.4l14-23c0,0,1.7,18.3,13.5,39.3s18.7,56,18.7,56c8.6,6.5,20.1,7.5,29.7,2.5
			c-1.1-19.4-3.3-38.7-6.4-57.9c-5.1-30.4,3-64-4.5-96.6C452.5,347,411,381.2,360.4,358.4z"/>
		<path class="st69" d="M401.4,403.6c0,0-8.6-2.3-13.2-19.8"/>
		<path class="st70" d="M354,498c0,0-3.8-15,9-17.7c0,0,11.1,0.5,10.6,16.2c0,0,15.6,4.6,19.4-5.1c0,0,1.6,13.3-0.7,18.9
			s-8.4,7.5-19.4,11.1c-10.5,3.5-21.5,16.6-43.6,8.2c-5.3-2.2-7.9-8.3-5.7-13.6c0-0.1,0-0.1,0.1-0.1c1-2.2,2.5-4.2,4.3-5.8
			C338.4,500.1,344.9,500.1,354,498z"/>
		<path class="st71" d="M354.2,491.9c0,0-3.8-15,9-17.7c0,0,11.1,0.5,10.6,16.2c0,0,15.6,4.6,19.4-5.1c0,0,1.6,13.3-0.7,18.9
			s-8.4,7.5-19.4,11.1c-10.5,3.5-21.5,16.6-43.6,8.2c-5.3-2.2-7.9-8.3-5.7-13.6c0-0.1,0-0.1,0.1-0.2c1-2.2,2.5-4.2,4.3-5.8
			C338.6,494.1,345.1,494.1,354.2,491.9z"/>
		<path class="st72" d="M352.5,490.6c4.8,1,9,3.8,11.8,7.9l-4.5,2.2c-3.6-4.1-8.4-6.8-13.8-7.7l0,0
			C346.8,490.8,350.6,489.6,352.5,490.6L352.5,490.6C352.6,490.6,352.4,490.5,352.5,490.6z"/>
		<path class="st72" d="M343.8,494.3c0,0,10.4,3.4,14.5,9.2l-5.2,1.9c0,0-8.8-7.8-17-7.8C336.1,497.7,336.3,491.9,343.8,494.3z"/>
		<path class="st70" d="M429.3,507.2c0,0-3.2-8.2,6.8-15.2c0,0,14.5-4.4,14.5,15c0,0,7.9,0.2,11.1-11.4c0,0,1.6-7.8,3.6,6.5
			s2.3,15-3.4,20.8s-10.9,18.9-27.4,18.9s-24.9-4.1-23.1-15S429.3,507.2,429.3,507.2z"/>
		<path class="st71" d="M429.3,500.4c0,0-3.2-8.2,6.8-15.3c0,0,14.5-4.4,14.5,15c0,0,7.9,0.2,11.1-11.4c0,0,1.6-7.8,3.6,6.5
			s2.3,15-3.4,20.8c-5.7,5.8-10.9,18.9-27.4,18.9s-24.9-4.1-23.1-15S429.3,500.4,429.3,500.4z"/>
		<path class="st72" d="M424.1,503.3c0,0,8.1-3.6,20.7,6.2c0,0,9.1-0.4-0.7-5.8S420,497.2,424.1,503.3z"/>
		<path class="st72" d="M419.7,507.7c0,0,8.1-3.6,20.7,6.2c0,0,9.2-0.4-0.7-5.8S415.6,501.5,419.7,507.7z"/>
	</g>
</g>
<path class="st73" d="M467,548.5H117c-53.6,0-97-43.4-97-97v-333c0.1-53.6,43.6-96.9,97.1-96.9c2.9,0,5.8,0.1,8.7,0.4l366.1,33.5
	c51.9,4.8,90.8,49.7,88,101.7l-16,299.5C561.1,508.1,518.6,548.4,467,548.5z"/>
</svg>
