<svg id="Layer_1" data-name="Layer 1" xmlns="http://www.w3.org/2000/svg" viewBox="0 0 140 50"><defs><style>.cls-1,.cls-3{fill:#f9f4f4;}.cls-1{stroke:#000;stroke-miterlimit:10;stroke-width:0.5px;}.cls-2{fill:#300909;}.cls-4{fill:#ddb192;}</style></defs><path class="cls-1" d="M55.43,28.34c0,12.36-10.66,18.14-24,18.14S7,40.7,7,28.34,17.81,6,31.2,6,55.43,16,55.43,28.34Z"/><ellipse class="cls-2" cx="29.02" cy="25.96" rx="13.28" ry="12.27"/><ellipse class="cls-3" cx="36.54" cy="19.16" rx="3.35" ry="3.09"/><path class="cls-1" d="M133,24.94c0,11.83-9,16.9-20.5,16.9s-21-5.07-21-16.9S100.85,3.52,112.3,3.52,133,13.11,133,24.94Z"/><ellipse class="cls-2" cx="110.64" cy="24.6" rx="11.83" ry="11.78"/><ellipse class="cls-3" cx="117.34" cy="18.06" rx="2.98" ry="2.97"/><path class="cls-4" d="M55.43,28.34c.14,3.81-7.86-9.63-24.2-10C15.23,18,6.89,31.13,7,28.34,7,16,17.81,6,31.2,6S55.43,16,55.43,28.34Z"/><path class="cls-4" d="M133,24.94c.32,4.83-3.42-8.14-22.49-8.62C96.94,16,92,31.64,91.57,24.94c0-11.83,9.28-21.42,20.73-21.42S133,13.11,133,24.94Z"/></svg>