<svg id="Layer_1" data-name="Layer 1" xmlns="http://www.w3.org/2000/svg" viewBox="0 0 600 250"><defs><style>.cls-1{fill:#000076;}.cls-2{fill:#f5f6fc;}.cls-3{fill:#0016ff;}.cls-4{fill:#4263fc;}.cls-5{fill:none;stroke:#edf3f7;stroke-miterlimit:10;}</style></defs><path class="cls-1" d="M196.74,32a4.07,4.07,0,0,0-3.23-1.43c-25,.73-49.6,1.66-49.85,1.67h-.17A4.09,4.09,0,0,0,139.77,37c4.13,25.49,7.74,67.59,7.28,101.75C135.35,120,125.83,98,119.52,81.63A4.09,4.09,0,0,0,115.36,79h-.1a4.11,4.11,0,0,0-3.63,3.42c-2.67,16.39-7.94,36.7-13.11,54-4.86-28.17-9-64.84-9.85-89.19a4.12,4.12,0,0,0-4.43-3.95,4.58,4.58,0,0,0-.63.1,348.4,348.4,0,0,1-46.55,7.38L34.69,51h0a4.12,4.12,0,0,0-3.51,5.56c16.47,43.2,33.6,117.15,39.86,172a4.12,4.12,0,0,0,4.41,3.63l.21,0c2.34-.31,4.79-.57,7.28-.77a187.64,187.64,0,0,1,31.18.21,4,4,0,0,0,.77,0,4.12,4.12,0,0,0,3.78-4.06,302.88,302.88,0,0,1,7.07-57.85c9.22,24.84,12.47,52.08,12.51,52.39A4.12,4.12,0,0,0,140,225a4.06,4.06,0,0,0,2.63.69,3.7,3.7,0,0,0,.74-.13,212.49,212.49,0,0,1,34.26-5.68c2.09-.17,4.18-.3,6.19-.39H184a4.11,4.11,0,0,0,3.77-4.25c-2.37-63.06,1.53-133.65,9.94-179.82A4.1,4.1,0,0,0,196.74,32Z"/><path class="cls-1" d="M257.08,88.8a61,61,0,0,0-23.38-3.06c-12.67,1-23.42,7.05-30.27,17-7.62,11-9.72,26.06-5.63,40.23a4.11,4.11,0,0,0,2.07,2.51,4,4,0,0,0,2.21.45,4.12,4.12,0,0,0,1-.22,166,166,0,0,1,20-5.34c-18,6.46-32.16,21.73-29.93,43.82,2.5,24.22,28.64,35.12,46.55,33.67a33.17,33.17,0,0,0,3.95-.54A59.42,59.42,0,0,0,258.47,212a4.1,4.1,0,0,0,4.42,3.77,4,4,0,0,0,.46-.07c.12,0,12.16-2.35,24.94-3.38,1.91-.16,3.78-.28,5.53-.36H294a4.1,4.1,0,0,0,2.94-1.6,4.14,4.14,0,0,0,.74-3.39c-1.78-7.89-2.07-19-2.39-30.7C294.35,142.37,293.22,100.18,257.08,88.8ZM237,176.42c1-2.81,4-5.72,7.51-7.25l.09,0a15.15,15.15,0,0,1,5.11-1.32c3-.24,6.72.39,8.11,2.79a4.7,4.7,0,0,1-.08,3.41,15.74,15.74,0,0,1-7.84,8.66,14.75,14.75,0,0,1-4.79,1.22c-2.24.18-6.25,0-7.94-3.36A5,5,0,0,1,237,176.42Zm5.27-39.83a4.12,4.12,0,0,0,.77-3.34c-1.06-5.17-.09-8.8,1.07-10.34.2-.28.62-.75,1-.78,1.13-.09,5.89,2.84,9.7,16.67a49.21,49.21,0,0,0-13-1.79A3.7,3.7,0,0,0,242.29,136.59Z"/><path class="cls-1" d="M485.18,135a1.43,1.43,0,0,0-.29,0c-22.08,3.34-45.62,8.38-45.85,8.43a4.1,4.1,0,0,0-3.1,5.08c1.71,6.39,1.63,12.41-.22,15.32a3.61,3.61,0,0,1-2.57,1.76l-.36.05c-4.09.33-9.57-7.12-12.36-20.3,27.42-7,58.5-10,58.82-10a4.06,4.06,0,0,0,2.82-1.52,4.12,4.12,0,0,0,.86-3.08c-2.37-18.57-8.08-33.16-17-43.36C455.64,75.49,441.63,70.2,424.32,71.6l-1.05.09a45.39,45.39,0,0,0-34.89,21.17c-10,15.42-12.54,37.2-7.12,58.11-4.29-1.52-18.41-6.39-33.39-10.22a4.12,4.12,0,0,0-1.35-.11,4.11,4.11,0,0,0-3.75,4.49c1.15,11.78-.22,19.08-1.46,21.37-2.76-4.13-5.92-22.87-3.84-51.45,7.07-.12,15.61-.07,24.14.65a3.86,3.86,0,0,0,.68,0,4.09,4.09,0,0,0,3.76-4.42c-1-12.7.53-27.9.55-28a4.11,4.11,0,0,0-4.42-4.52l-.2,0L341.8,81.39A219,219,0,0,1,348.93,52a4.1,4.1,0,0,0-4.06-5.35c-.18,0-18.25.68-35.79,1.84H309a4.1,4.1,0,0,0-3.68,3.25A348,348,0,0,0,299.77,87l-7.63,1a4.1,4.1,0,0,0-3.58,3.82c0,.46-.68,11.37-.26,23.17a4.11,4.11,0,0,0,1.49,3,4,4,0,0,0,2.95.93l.29,0s1.75-.27,4.74-.67c-.72,55.63,14.12,87.7,42,90.45a41.83,41.83,0,0,0,7.58.09c21.23-1.71,35-19.06,37.53-46.84,12.27,30,37.07,39.28,56.88,37.68,1.31-.11,2.63-.26,3.88-.45,23.16-3.34,46.87-21,44-60.45a4.09,4.09,0,0,0-4.42-3.79Zm-48.69-18.36c-5.48,1.23-11.78,2.28-17.3,3,1.23-7.41,3.82-12.45,7-13.31a6.38,6.38,0,0,1,.73-.1C431.34,105.86,434.6,111,436.49,116.59Z"/><path class="cls-1" d="M553.76,65.41a36.51,36.51,0,0,0-6.19,0,47.23,47.23,0,0,0-23.71,9.06c-.06-1.82-.09-3.56-.12-5.18a4.09,4.09,0,0,0-2-3.42,4.08,4.08,0,0,0-3.94-.2c-11.53,5.57-29.21,7.56-29.39,7.58a4.11,4.11,0,0,0-3.55,5C491.3,106,494.61,144,495,194.46a4.09,4.09,0,0,0,4.44,4,3.88,3.88,0,0,0,1.24-.3c13-5.38,27.42-7,33-7.46,1.44-.12,2.27-.16,2.32-.16h.16a4.09,4.09,0,0,0,3-1.63,4.13,4.13,0,0,0,.7-3.45c-4.46-17.95-9.36-46.3-12.55-72.55,2.66-4.94,5.47-5.17,6.43-5.25a7.35,7.35,0,0,1,1.24,0c1.41.27,5.53,5.68,6.19,20.42a4.1,4.1,0,0,0,4.43,3.9,3.94,3.94,0,0,0,1.29-.32c.2-.08,20-8.53,36.57-11.38a4.11,4.11,0,0,0,3.41-4.3C584.38,76.3,567.47,66.57,553.76,65.41Z"/><path class="cls-2" d="M97.1,218.81a4.07,4.07,0,0,1-.78,0,187.54,187.54,0,0,0-31.18-.21c-2.49.2-4.94.46-7.27.77l-.21,0a4.11,4.11,0,0,1-4.41-3.63C47,160.89,29.85,86.94,13.39,43.74a4.11,4.11,0,0,1,3.5-5.56h0c.79-.06,1.59-.11,2.37-.18a348.4,348.4,0,0,0,46.55-7.38,4.58,4.58,0,0,1,.63-.1,4.12,4.12,0,0,1,2.82.83,4.07,4.07,0,0,1,1.61,3.12c.86,24.35,5,61,9.86,89.19,5.17-17.34,10.44-37.65,13.11-54a4.09,4.09,0,0,1,3.63-3.42h.09a4.11,4.11,0,0,1,4.16,2.62c6.31,16.38,15.83,38.4,27.53,57.15.46-34.16-3.15-76.26-7.28-101.74a4.09,4.09,0,0,1,3.72-4.75h.18c.24,0,24.81-.94,49.84-1.67a4.1,4.1,0,0,1,4.16,4.84C171.5,68.8,167.6,139.39,170,202.45a4.1,4.1,0,0,1-3.77,4.25h-.14c-2,.09-4.1.22-6.19.39a212,212,0,0,0-34.26,5.68,3.93,3.93,0,0,1-.75.13,4.06,4.06,0,0,1-2.63-.69,4.12,4.12,0,0,1-1.78-2.93c0-.31-3.29-27.55-12.51-52.39a303,303,0,0,0-7.07,57.85,4.08,4.08,0,0,1-3.77,4.06Z"/><path class="cls-3" d="M165.31,148A731.11,731.11,0,0,1,83.59,128.5c-1.26,4.16-2.54,8.18-3.79,12-.91-4.32-1.81-9-2.69-14Q58.63,121,38.69,114C47,148.1,53.84,184.71,57.33,215.29a186.45,186.45,0,0,1,39.44-.57S97,178.61,107,144.07c13.24,28,17.51,64.75,17.51,64.75a214.25,214.25,0,0,1,41.34-6.21C165.19,184.46,165,166.05,165.31,148Z"/><path class="cls-4" d="M175.87,21.89c-5.81,31.88-9.8,77.76-10.56,126.1A731.11,731.11,0,0,1,83.59,128.5C89.5,109.11,95.2,87.09,97.93,70.28c8.6,22.32,20.67,48.81,35.08,68.56,1.78-36.23-2.26-86.37-6.95-115.28C126.06,23.56,150.57,22.63,175.87,21.89Z"/><path class="cls-4" d="M77.11,126.56Q58.63,121,38.69,114c-6.55-26.87-14-52.18-21.47-71.75a347.54,347.54,0,0,0,49.59-7.66C67.67,59.15,71.93,97.35,77.11,126.56Z"/><path class="cls-2" d="M222,205c-17.91,1.45-44.05-9.45-46.54-33.67-2.23-22.09,11.93-37.36,29.92-43.82a168.27,168.27,0,0,0-20,5.34,4.11,4.11,0,0,1-5.3-2.74c-4.1-14.17-2-29.21,5.62-40.23,6.85-9.91,17.6-15.94,30.27-17A61.11,61.11,0,0,1,239.33,76c36.13,11.38,37.26,53.57,38.17,87.46.31,11.73.61,22.81,2.38,30.7a4.1,4.1,0,0,1-3.67,5h-.15c-1.75.08-3.61.2-5.53.36-12.78,1-24.82,3.36-24.94,3.39s-.3.05-.46.06a4.1,4.1,0,0,1-4.42-3.77,59.13,59.13,0,0,1-14.77,5.28A32.62,32.62,0,0,1,222,205Zm10-50a15,15,0,0,0-5.1,1.32l-.1,0c-3.48,1.53-6.5,4.44-7.51,7.25a5,5,0,0,0,.17,4.11c1.69,3.34,5.7,3.54,7.95,3.36a14.74,14.74,0,0,0,4.79-1.21,15.77,15.77,0,0,0,7.83-8.67,4.71,4.71,0,0,0,.09-3.41C238.69,155.38,235,154.75,232,155Zm-7.81-30.8a49.15,49.15,0,0,1,13,1.79c-3.8-13.83-8.56-16.76-9.7-16.67-.42,0-.83.5-1,.78-1.16,1.54-2.13,5.17-1.06,10.34a4.09,4.09,0,0,1-.78,3.34A3.7,3.7,0,0,1,224.16,124.19Z"/><path class="cls-3" d="M275.87,195c-2.32-10.33-2.21-25.06-2.75-40.62-9.17.74-19,1.12-29.63,1.06l.2.32c2.75,5-2,14-9.81,17.79-5.55,2.54-14.69,2.75-18.11-4-2.76-5.47.74-11.27,5.63-14.82-11.92-.73-24.66-2-38.3-3.93a35.27,35.27,0,0,0-3.57,20.1c2.4,23.34,29.83,32.63,45.53,29.54a50.28,50.28,0,0,0,20.44-9.23c-.06,2.61-.38,5-.69,7.63A248.13,248.13,0,0,1,275.87,195Z"/><path class="cls-4" d="M273.12,154.42c-9.17.74-19,1.12-29.63,1.06-3.49-5.44-12.44-5.68-18.37-2.89a20.41,20.41,0,0,0-3.71,2.15h0c-11.92-.73-24.66-2-38.3-3.93,6.87-13.3,22.05-20.82,36.42-22.35a43.75,43.75,0,0,1,23.34,4.13c-7.61-39.13-25.45-30.11-21.57-11.33-18,.93-37.3,7.71-37.3,7.71-8.71-30.15,12.77-62.21,54.09-49.07C268.4,89.44,272.05,123.56,273.12,154.42Z"/><path class="cls-2" d="M329.59,196a42.79,42.79,0,0,1-7.58-.1c-27.88-2.75-42.72-34.82-42-90.45-3,.4-4.73.66-4.75.67l-.29,0a4.1,4.1,0,0,1-4.43-3.94c-.43-11.8.23-22.71.26-23.17a4.1,4.1,0,0,1,3.57-3.82l7.63-1a350.87,350.87,0,0,1,5.56-35.31,4.11,4.11,0,0,1,3.69-3.25h.06c17.54-1.16,35.61-1.83,35.79-1.84a4.07,4.07,0,0,1,3.42,1.62,4.12,4.12,0,0,1,.65,3.73,217.52,217.52,0,0,0-7.13,29.4l20.17-2.66.21,0a4.11,4.11,0,0,1,4.41,4.52c0,.15-1.57,15.35-.54,28.05a4.11,4.11,0,0,1-1.2,3.24,4,4,0,0,1-2.56,1.18,3.86,3.86,0,0,1-.68,0c-8.54-.72-17.08-.76-24.15-.65-2.08,28.58,1.08,47.32,3.84,51.45,1.25-2.29,2.61-9.59,1.46-21.37a4.11,4.11,0,0,1,3.76-4.49,3.82,3.82,0,0,1,1.34.12c17.88,4.56,34.55,10.62,34.72,10.68a4.11,4.11,0,0,1,2.69,4C366.62,174.18,352.44,194.14,329.59,196Zm-5.51-41.69"/><path class="cls-3" d="M351.6,138.47h0c-6.18-2-14.18-4.43-22.5-6.56a84.7,84.7,0,0,1,.37,12.54c-.47,8.92-2.74,14.94-6.88,13.62-2.16-.59-4-4.39-5.37-10.6q-7.59,1.78-15.24,3.2-6.41,1.17-13.39,2.1c5.31,21.77,15.81,37.26,33.84,39,21.62,2.18,40-13.42,41-49.33C363.42,142.48,358.72,140.76,351.6,138.47Z"/><path class="cls-4" d="M344.2,98.79a263.66,263.66,0,0,0-28.29-.59c-1.79,20.81-1,38.6,1.3,49.27q-7.59,1.78-15.24,3.2-6.41,1.17-13.39,2.1c-3.7-15.14-4.89-33.31-4.36-52-6,.74-9.57,1.29-9.57,1.29-.42-11.74.26-22.77.26-22.77l10.87-1.4a344.49,344.49,0,0,1,5.81-38.12c17.69-1.17,35.67-1.83,35.67-1.83a222.54,222.54,0,0,0-8.12,35.43L344.76,70S343.14,85.54,344.2,98.79Z"/><path class="cls-2" d="M424,186.82c-20.82,1.68-47.17-8.59-58.67-42.44C357.62,121.65,359.64,97,370.62,80a45.41,45.41,0,0,1,34.9-21.17l1.05-.09c17.31-1.4,31.31,3.89,41.63,15.73,8.89,10.2,14.61,24.79,17,43.36a4.12,4.12,0,0,1-3.68,4.61c-.33,0-31.41,3.06-58.83,10,2.79,13.18,8.27,20.63,12.36,20.3l.36-.05A3.57,3.57,0,0,0,418,151c1.85-2.91,1.94-8.93.22-15.32a4.11,4.11,0,0,1,3.1-5.08c.24-.05,23.77-5.09,45.86-8.43l.28,0a4.11,4.11,0,0,1,4.43,3.79c2.91,39.48-20.81,57.12-44,60.45C426.63,186.56,425.31,186.72,424,186.82ZM408.45,93.5c-3.19.86-5.78,5.9-7,13.31,5.51-.76,11.81-1.81,17.29-3-1.88-5.61-5.15-10.73-9.54-10.37A6.55,6.55,0,0,0,408.45,93.5Z"/><path class="cls-3" d="M467.75,126.22c-22.21,3.36-45.61,8.39-45.61,8.39,2.62,9.72,1.94,20.76-6.05,22.19-8.51,1.47-15.54-11-18.15-27.3,11.27-3.06,23.36-5.41,33.9-7.16-24.25,2.24-45.37,6.93-65,12.06a81.41,81.41,0,0,0,2.42,8.66c11,32.33,36.64,42.54,58.08,39.25C448,179.33,470.53,163.91,467.75,126.22Z"/><path class="cls-4" d="M405.9,63c-33.16,3.16-46.49,38.3-39.1,71.44,19.67-5.13,40.79-9.82,65-12.06h.07c16.48-2.72,29.2-3.94,29.2-3.94C456.84,85,440.41,59.65,405.9,63Zm-9.15,48.59c.88-11.84,4.62-20.5,10.77-22,8-1.69,13.84,6.2,16.3,17.25A213.62,213.62,0,0,1,396.75,111.55Z"/><path class="cls-2" d="M481.7,185.69a4.06,4.06,0,0,1-2.59-.66,4.12,4.12,0,0,1-1.84-3.39c-.42-50.42-3.73-88.44-10.13-116.22a4.11,4.11,0,0,1,3.55-5c.18,0,17.87-2,29.4-7.58a4,4,0,0,1,1.46-.4,4.11,4.11,0,0,1,4.43,4c0,1.62.07,3.36.12,5.18a47.26,47.26,0,0,1,23.71-9.06,36.5,36.5,0,0,1,6.19,0c13.72,1.16,30.63,10.89,33.12,50.62a4.11,4.11,0,0,1-3.4,4.3c-16.59,2.85-36.38,11.3-36.58,11.38a3.88,3.88,0,0,1-1.29.32,4.07,4.07,0,0,1-2.51-.61,4.12,4.12,0,0,1-1.92-3.29c-.66-14.74-4.77-20.15-6.18-20.42a7.37,7.37,0,0,0-1.24,0c-1,.08-3.77.31-6.44,5.25,3.19,26.25,8.09,54.6,12.55,72.55a4.11,4.11,0,0,1-3.66,5.08h-.16s-.88,0-2.32.16c-5.61.45-20.06,2.08-33,7.46A4,4,0,0,1,481.7,185.69Z"/><path class="cls-3" d="M508.7,124.09c-3.91-.48-7.71-.91-11.36-1.28-6.28-.63-12.36-1.08-18.27-1.39,1.58,20.8,2.15,41.8,2.3,60.18,17.2-7.14,36.76-7.93,36.76-7.93C514.9,160.67,511.53,142.75,508.7,124.09Z"/><path class="cls-4" d="M565,103.46c-17.28,3-37.5,11.66-37.5,11.66-.65-14.59-4.78-23.67-9.8-24.31-4.48-.42-9,1.51-12.39,8.59,1,8.13,2.12,16.49,3.37,24.69-3.91-.48-7.71-.91-11.36-1.28-6.28-.63-12.36-1.08-18.27-1.39-1.53-20-4-39.81-7.93-56.93,0,0,18.4-2,30.74-8,.07,4.18.19,8.88.58,13.82,9.14-9.89,22.62-14.64,33.16-13.66C553,58.15,563.19,74.33,565,103.46Z"/><path class="cls-5" d="M83.59,128.5c-2.14-.63-4.3-1.27-6.48-1.94"/><path class="cls-5" d="M243.49,155.48c-7,0-14.38-.27-22.08-.74"/></svg>