<?xml version="1.0" encoding="utf-8"?>
<!-- Generator: Adobe Illustrator 25.2.3, SVG Export Plug-In . SVG Version: 6.00 Build 0)  -->
<svg version="1.1" id="Layer_1" xmlns="http://www.w3.org/2000/svg" xmlns:xlink="http://www.w3.org/1999/xlink" x="0px" y="0px"
	 viewBox="0 0 510 510" style="enable-background:new 0 0 510 510;" xml:space="preserve">
<style type="text/css">
	.st0{opacity:0.3;enable-background:new    ;}
	.st1{opacity:0.91;fill:url(#SVGID_1_);enable-background:new    ;}
	.st2{clip-path:url(#SVGID_3_);}
	.st3{fill:#73DD47;}
	.st4{fill:#77CE49;}
	.st5{fill:#42605E;}
	.st6{fill:#2BB51C;}
	.st7{fill:#897F77;}
	.st8{fill:#CCC2C2;}
	.st9{fill:#848483;}
	.st10{fill:#B7A192;}
	.st11{fill:#ADACAC;}
	.st12{fill:#B2B0AD;}
	.st13{opacity:0.4;fill:#8E8E8D;enable-background:new    ;}
	.st14{fill:#70706F;}
	.st15{fill:none;stroke:#5B5B5B;stroke-width:0.5;stroke-miterlimit:10;}
	.st16{fill:none;stroke:#FFFFFF;stroke-width:0.5;stroke-miterlimit:10;}
	.st17{fill:url(#SVGID_4_);}
	.st18{fill:url(#SVGID_5_);}
	.st19{fill:url(#SVGID_6_);}
	.st20{fill:url(#SVGID_7_);}
	.st21{fill:url(#SVGID_8_);}
	.st22{fill:#1E70AF;stroke:#184059;stroke-miterlimit:10;}
	.st23{fill:#166493;}
	.st24{fill:#1E70AF;}
	.st25{fill-rule:evenodd;clip-rule:evenodd;fill:#EA9860;stroke:#A55925;stroke-width:0.75;stroke-miterlimit:10;}
	.st26{fill-rule:evenodd;clip-rule:evenodd;fill:#422813;}
	.st27{fill-rule:evenodd;clip-rule:evenodd;fill:#DD8B52;}
	.st28{fill-rule:evenodd;clip-rule:evenodd;fill:#DC8347;}
	.st29{opacity:0.3;fill:#8D3D24;enable-background:new    ;}
	.st30{opacity:0.3;fill-rule:evenodd;clip-rule:evenodd;fill:#8D3D24;enable-background:new    ;}
	.st31{fill:#331F00;}
	.st32{fill-rule:evenodd;clip-rule:evenodd;fill:#88512B;}
	.st33{fill:#DD8B52;}
	.st34{fill-rule:evenodd;clip-rule:evenodd;fill:#331F00;}
	.st35{fill:#88512B;}
	.st36{fill:#659AFF;stroke:#3F5E8E;stroke-miterlimit:10;}
	.st37{fill:#FFFFFF;}
	.st38{fill:#422813;}
	.st39{fill:#DC8347;}
	.st40{fill:#1C7CC6;}
	.st41{fill:#97CBFF;}
	.st42{fill:#5BA5FC;}
	.st43{fill:#351F10;}
	.st44{fill:#575903;}
	.st45{fill:#2D2216;}
	.st46{fill:#2A3F54;}
	.st47{fill:#99A4BC;}
	.st48{fill:#ABECFF;}
	.st49{fill-rule:evenodd;clip-rule:evenodd;fill:#A3653B;}
	.st50{fill:#006F88;stroke:#003488;stroke-miterlimit:10;}
	.st51{fill:#2297AA;stroke:#04869B;stroke-linejoin:round;}
	.st52{fill-rule:evenodd;clip-rule:evenodd;fill:#1C7CC6;stroke:#2E4566;stroke-miterlimit:10;}
	.st53{fill:#647C8C;}
	.st54{fill:#2A3F54;stroke:#171F26;stroke-miterlimit:10;}
	.st55{fill:#90A5B2;}
	.st56{fill:#FFCC0C;stroke:#917417;stroke-miterlimit:10;}
	.st57{fill:#6D5403;}
	.st58{fill:#263949;}
	.st59{fill:#564539;}
	.st60{fill:#080806;}
	.st61{fill:#0A0A09;}
	.st62{fill:#1F211A;}
	.st63{fill:#C1C6C1;}
	.st64{fill:#E0E0E0;}
	.st65{fill:#A5A5A5;}
	.st66{fill:#ED5A11;stroke:#663708;stroke-miterlimit:10;}
	.st67{fill:#8D8D8D;}
	.st68{fill:#171715;}
	.st69{fill:#F0E6D0;}
	.st70{fill:#676767;}
	.st71{fill:#B5B4B4;}
	.st72{fill:#A0A0A0;}
	.st73{fill:#898989;}
	.st74{fill:#6C6D6D;}
	.st75{fill:#7E817F;}
	.st76{fill:#8E4F15;}
	.st77{fill:#B54615;}
	.st78{fill:#A79D8A;}
	.st79{fill:#D3C6A7;}
	.st80{fill:#B4AC99;}
	.st81{fill:#FF9566;}
	.st82{fill:#929190;}
	.st83{fill:#FF7E45;stroke:#663708;stroke-miterlimit:10;}
	.st84{fill:#70522B;}
	.st85{fill:#511707;}
	.st86{opacity:0.7;fill:#70522B;enable-background:new    ;}
	.st87{opacity:0.59;fill:#ABE7FF;enable-background:new    ;}
	.st88{fill:#FFE400;}
	.st89{fill:#FFC100;}
	.st90{fill:#FFCB00;}
	.st91{fill:#FFC300;}
	.st92{fill:#FFA800;}
	.st93{fill:#FFAF00;}
	.st94{fill:#FFC900;}
	.st95{fill:#FFA600;}
	.st96{fill:#FFC200;}
	.st97{fill:#FFF000;}
	.st98{fill:#FFE800;}
	.st99{fill:#FFEF00;}
	.st100{clip-path:url(#SVGID_10_);}
	.st101{fill:#FFF0A5;}
	.st102{fill:#FFCE51;}
	.st103{fill:#FCAF17;}
	.st104{fill:#DD941A;}
	.st105{fill:#FFE539;}
	.st106{fill:#8CC6EC;}
	.st107{fill:#AAD4F1;}
	.st108{fill:#5DA5DF;}
	.st109{fill:#095DA3;}
	.st110{fill:#F4E12F;stroke:#597C15;stroke-width:0.5;stroke-miterlimit:10;}
	.st111{fill-rule:evenodd;clip-rule:evenodd;fill:#EA9860;}
	.st112{fill:#A55925;}
	.st113{opacity:0.1;fill:url(#SVGID_11_);enable-background:new    ;}
	.st114{opacity:0.5;fill:#4ECECE;enable-background:new    ;}
	.st115{opacity:0.6;fill:#FDFFFF;enable-background:new    ;}
</style>
<circle class="st0" cx="263.1" cy="263.1" r="241.9"/>
<g id="_01-2">
	
		<radialGradient id="SVGID_1_" cx="3298.6655" cy="669.4713" r="80.2149" gradientTransform="matrix(3.5 0 0 -3.48 -11286.2305 2577.76)" gradientUnits="userSpaceOnUse">
		<stop  offset="0" style="stop-color:#FFFFFF"/>
		<stop  offset="0.61" style="stop-color:#D3F9FC"/>
		<stop  offset="0.93" style="stop-color:#48E5FF"/>
	</radialGradient>
	<path class="st1" d="M488.6,248c0,133-108.3,240.9-241.8,240.9S5,381,5,248S113.3,7.1,246.8,7.1S488.6,115,488.6,248z"/>
	<g>
		<defs>
			<ellipse id="SVGID_2_" cx="247.5" cy="245.3" rx="241.4" ry="240.3"/>
		</defs>
		<clipPath id="SVGID_3_">
			<use xlink:href="#SVGID_2_"  style="overflow:visible;"/>
		</clipPath>
		<g class="st2">
			<path class="st3" d="M609.2,349.4c0,60.9-142.9,170.6-365.9,147.6C30,474.9-91.4,423.5-91.4,362.5s120.3-86.3,334.8-86.3
				S609.2,288.5,609.2,349.4z"/>
			<path class="st4" d="M625.8,393.2c0,48.9-165.3,163.3-388.3,144.8c-213.4-17.7-350-125-350-173.9s164.1,13.6,378.6,13.6
				S625.8,344.3,625.8,393.2z"/>
			<rect x="-131.6" y="229.1" class="st5" width="716.3" height="78.3"/>
			<path class="st6" d="M346,443.8c0,0,6-4,17.5-5s-12.3-5.2-20.9,5C342.6,443.8,338.8,448.3,346,443.8z"/>
			<path class="st6" d="M329.5,441.5c-0.3,0.7,0.1,1.5,0.9,1.8c0.4,0.1,0.9,0.1,1.3-0.2c4.7-3.3,17.6-12.1,25.9-14.9
				c10.2-3.4-9.7-3.7-23.3,6.9l-0.1,0.1C333.6,435.7,330.5,438.8,329.5,441.5z"/>
			<path class="st6" d="M323.3,441.8c0.1,0.8,0.8,1.3,1.5,1.3c0.5,0,0.9-0.3,1.1-0.7c3-5.2,11.5-19.2,15.7-21.3
				c5.3-2.5-8.3-4-16.8,12.8c0,0.1-0.1,0.1-0.1,0.2C324.5,434.8,323,439,323.3,441.8z"/>
			<path class="st6" d="M317.2,439.3c0.1,0.8,0.8,1.3,1.6,1.2c0.5-0.1,1-0.5,1.1-1c1.6-5.8,4.6-15,7.4-16.8
				C331.2,420,314.9,424.6,317.2,439.3z"/>
			<path class="st6" d="M313,439.4c0.5,0.6,1.3,0.8,2,0.3c0.4-0.3,0.6-0.9,0.6-1.4c-0.9-4.7-3-10.7-8.4-12.1
				C299.8,424.2,307.7,432.1,313,439.4z"/>
			<path class="st6" d="M307.5,438.7c0.6,0.5,1.5,0.4,2-0.2c0.4-0.5,0.4-1.1,0.1-1.6c-3.1-5-8.4-10.8-16.2-11
				C281.6,425.5,296.9,430.3,307.5,438.7z"/>
			<path class="st6" d="M299.5,441.1c0.8,0.1,1.5-0.4,1.6-1.1c0.1-0.7-0.3-1.4-1-1.6c-2.8-0.7-5.7-1-8.6-0.8
				C284,437.9,291.5,439.5,299.5,441.1z"/>
			<path class="st6" d="M127.7,455.5c0,0,6-4,17.4-5s-12.3-5.2-20.8,5C124.3,455.5,120.4,460,127.7,455.5z"/>
			<path class="st6" d="M111.2,453.2c-0.3,0.7,0.1,1.5,0.9,1.8c0.4,0.1,0.9,0.1,1.3-0.2c4.7-3.3,17.6-12.1,25.9-14.9
				c10.2-3.4-9.7-3.7-23.3,6.9l-0.1,0.1C115.2,447.4,112.1,450.5,111.2,453.2z"/>
			<path class="st6" d="M104.9,453.5c0.1,0.8,0.8,1.3,1.6,1.2c0.4,0,0.8-0.3,1.1-0.7c3-5.2,11.4-19.2,15.7-21.3
				c5.3-2.5-8.3-4-16.8,12.8c0,0.1-0.1,0.1-0.1,0.2C106.1,446.5,104.6,450.7,104.9,453.5z"/>
			<path class="st6" d="M98.8,451c0.1,0.8,0.8,1.3,1.6,1.2c0.5-0.1,1-0.5,1.1-1c1.6-5.8,4.6-15,7.4-16.9
				C112.8,431.7,96.5,436.3,98.8,451z"/>
			<path class="st6" d="M94.6,451c0.5,0.6,1.3,0.8,2,0.3c0.4-0.3,0.6-0.8,0.6-1.3c-0.9-4.7-3-10.7-8.4-12.1
				C81.4,435.9,89.3,443.8,94.6,451z"/>
			<path class="st6" d="M89.1,450.4c0.6,0.5,1.5,0.4,2-0.2c0.4-0.5,0.4-1.1,0.1-1.6c-3.1-5-8.4-10.8-16.2-11
				C63.3,437.2,78.5,442,89.1,450.4z"/>
			<path class="st6" d="M81.1,452.8c0.8,0.1,1.5-0.4,1.6-1.1c0.1-0.7-0.3-1.4-1-1.6c-2.8-0.7-5.7-1-8.6-0.8
				C65.6,449.6,73.1,451.1,81.1,452.8z"/>
			<rect x="-131.4" y="-99.3" class="st7" width="825.9" height="333.8"/>
			<polyline class="st8" points="-4.2,277 505.7,277 500.8,364.6 -132.3,364.1 -131.8,326 -60.4,326 -4.2,277 -4.2,277 			"/>
			<rect x="-132.9" y="354.3" class="st9" width="826.4" height="9.8"/>
			<polygon class="st10" points="505.7,277 -4.2,277 -4.2,-22.6 505.6,-22.6 			"/>
			<polygon class="st11" points="506.5,277.3 502.2,354.6 699.8,354.6 702.4,281.5 			"/>
			<path class="st12" d="M696.3,282.1l-189.8-4.8l9.7-42.7l15.7-0.2c0.7-1.4,1.3-2.8,2-4.2c14.8-0.2,26.9-0.2,35-0.1
				c28.1,0.2,52.3,0.9,84.1,1.2l6,0.1l37.7,0.4c-0.3,44.2-0.7,88.4-1,132.6"/>
			<polygon class="st13" points="69.5,334.9 114.1,294.3 393.5,288.6 457.5,320.8 284.7,346.4 			"/>
			<polygon class="st14" points="174.2,364.1 174.2,354.3 181.9,326.3 175.3,354.3 175.1,364.1 			"/>
			<polyline class="st15" points="693.5,308.9 503.6,307 -47.8,310.8 			"/>
			<polyline class="st16" points="693.5,308.5 503.6,306.6 -47.8,310.4 			"/>
			<line class="st15" x1="-131.9" y1="335.8" x2="768.2" y2="335.8"/>
			<line class="st16" x1="-132.4" y1="335.4" x2="767.7" y2="335.4"/>
			
				<linearGradient id="SVGID_4_" gradientUnits="userSpaceOnUse" x1="453.93" y1="190.705" x2="521.4" y2="190.705" gradientTransform="matrix(1 0 0 -1 0 512)">
				<stop  offset="0" style="stop-color:#7A8634"/>
				<stop  offset="0.83" style="stop-color:#6B772C"/>
			</linearGradient>
			<path class="st17" d="M460.9,296l42.2,0.1c6.1,16.8,12.2,33.7,18.3,50.5l-67.5-0.7C456.3,329.3,458.6,312.7,460.9,296z"/>
			
				<linearGradient id="SVGID_5_" gradientUnits="userSpaceOnUse" x1="455.2" y1="194.77" x2="520.12" y2="194.77" gradientTransform="matrix(1 0 0 -1 0 512)">
				<stop  offset="0" style="stop-color:#96A343"/>
				<stop  offset="4.000000e-02" style="stop-color:#9BAA47"/>
				<stop  offset="0.14" style="stop-color:#A4B44F"/>
				<stop  offset="0.25" style="stop-color:#A7B851"/>
				<stop  offset="0.51" style="stop-color:#A7B851"/>
				<stop  offset="0.95" style="stop-color:#96A343"/>
			</linearGradient>
			<path class="st18" d="M460.9,294.2l42.2,0.1l17,45.9l-64.9-1.2L460.9,294.2z"/>
			
				<linearGradient id="SVGID_6_" gradientUnits="userSpaceOnUse" x1="3199.49" y1="199.46" x2="3287.6899" y2="199.46" gradientTransform="matrix(-1 0 0 -1 3236.1499 512)">
				<stop  offset="0" style="stop-color:#7A8634"/>
				<stop  offset="0.83" style="stop-color:#6B772C"/>
			</linearGradient>
			<path class="st19" d="M36.7,290.4l-42.9-1.8c-15.1,16-30.2,32-45.3,47.9l70.9-0.7L36.7,290.4z"/>
			
				<linearGradient id="SVGID_7_" gradientUnits="userSpaceOnUse" x1="3199.49" y1="202.255" x2="3284.1499" y2="202.255" gradientTransform="matrix(-1 0 0 -1 3236.1499 512)">
				<stop  offset="0" style="stop-color:#96A343"/>
				<stop  offset="4.000000e-02" style="stop-color:#9BAA47"/>
				<stop  offset="0.14" style="stop-color:#A4B44F"/>
				<stop  offset="0.25" style="stop-color:#A7B851"/>
				<stop  offset="0.51" style="stop-color:#A7B851"/>
				<stop  offset="0.95" style="stop-color:#96A343"/>
			</linearGradient>
			<path class="st20" d="M36.7,287.4l-42.9,1.2L-48,332.1h65.6C23.9,317.2,30.3,302.3,36.7,287.4z"/>
			
				<linearGradient id="SVGID_8_" gradientUnits="userSpaceOnUse" x1="505.68" y1="259.05" x2="545.1299" y2="259.05" gradientTransform="matrix(1 0 0 -1 0 512)">
				<stop  offset="0" style="stop-color:#96A343"/>
				<stop  offset="4.000000e-02" style="stop-color:#9BAA47"/>
				<stop  offset="0.14" style="stop-color:#A4B44F"/>
				<stop  offset="0.25" style="stop-color:#A7B851"/>
				<stop  offset="0.51" style="stop-color:#A7B851"/>
				<stop  offset="0.95" style="stop-color:#96A343"/>
			</linearGradient>
			<path class="st21" d="M512.3,229.1l19.2-0.2h13.7l-6.4,48.1h-33.1C507.9,261,510.1,245,512.3,229.1z"/>
			<ellipse class="st0" cx="210.9" cy="394.3" rx="276.2" ry="42.2"/>
			<path class="st22" d="M377.2,175c0,0-9.8,19.2-12.1,23.1s-15,7.5-21.5,6.8c-1.3-0.1-13.9-1.4-15.7-2c-4.3-1.4-2.5-3.2-4.4-5
				c-3.2-2.9-2.7-4.3-0.8-6.8c1.4-1.9-0.2-3.6,2.4-4c8.7-1.6,25.6,3.4,28.8-1.1c4.2-5.7,14.8-44.6,14.8-44.6L377.2,175z"/>
			<path class="st23" d="M316,192.9c-0.9,4.1,1.6,8.2,5.7,9.1l4.5,0.9c4.1,0.7,8.1-2,8.8-6.1c0,0,0,0,0,0l0,0
				c0.9-4.1-1.6-8.2-5.7-9.1l-2-0.6C323.3,186.2,316.8,188.6,316,192.9L316,192.9z"/>
			<polygon class="st24" points="379.1,119.1 375.5,121.1 378.8,124.6 			"/>
			<path class="st25" d="M384.7,134.4c0,0-0.1,3,0.1-1.9c0.1-2-4-3.8-4.3-4.4c-1-2.6-7.9-13.9-7.9-13.9l-10.9,20.5l16.3,10.6
				L384.7,134.4z"/>
			<path class="st25" d="M339.4,106.8c-0.4-2.7,3.9-9.7,6.4-12.3s10.1-8.1,15.8-7.5s11.2,17.3,11.2,17.3l-1.9,17.3
				c0,0-3.7,10.5-6.2,13.4c-1.9,2.2-9.2,6.6-10.5,4.4c-0.8-1.7-2.1-3.2-3.7-4.3c-1.6-1.1-4.5-2.2-4.4-3.2c0-0.4-0.2-1.3,0.6-1.5
				c1-0.2,1.4-1.6,0.2-1.6c-0.6,0-2-1.4-2.4-1.4s-0.3-0.4-0.2-0.6c0.4-1.2,0.6-2.4,0.7-3.6c0.1-1.9-5.2-1-5.4-3
				c-0.1-1.5,2-2.4,2.8-3.7c0.4-0.7,0.3-3.2,0.3-4C342.6,111.1,339.6,108.2,339.4,106.8z"/>
			<path class="st26" d="M366.1,108.3l-6.7-2.1c-0.2-1-1.4-7.6-1.3-7.7c1.7-1.2,4.4-1.7,6.2-2.8c0.9-0.5,1.8-1,2.7-1.5
				c0.7-0.4,1.5-0.7,2.2-1c2.4-1.2,4.9-2.2,7.5-3c1.2-0.4,2.5-0.5,3.8-0.5c2.7,2.8,4.6,5.6,4.2,8.1c-1,5.9-2.8,12.4-4.8,16
				c-1.3,2.3-6.4,8.1-6.4,8.1l-5.4-7c0,0-2.1,1.2-2.2,1C365.7,113.4,365.8,110.8,366.1,108.3z"/>
			<path class="st27" d="M369,111c0,0,4.2-7.9,5.9-4.2c1.3,2.9-1.8,13.7-5.4,12.9S369,111,369,111z"/>
			<path class="st28" d="M345.7,118.4c0,0,2.2,1.7,2,2.9s-0.9,1.3-0.9,1.3s0.3-0.3,0.2-1.1C346.7,120.4,346.3,119.4,345.7,118.4z"/>
			<path class="st29" d="M364.7,135c2.5-2.9,6.2-13.4,6.2-13.4l0.3-2.4l0.3-0.1l2,2.6l0.6-0.7c0,0-1.6,7.1-2.6,9.1
				c-1.2,2.7-2.5,5.4-4,7.9l-3.6-2.2C364.1,135.6,364.4,135.3,364.7,135z"/>
			<path class="st30" d="M370.7,111.1c0-0.1,1.4-2.4,2.2-2.1c0.8,0.4,1.3,1.3,1.1,2.2c-0.3,0.7-0.1-0.9-1-1.3
				S370.7,111.1,370.7,111.1z"/>
			<polygon class="st31" points="341.7,105.5 338.5,107.2 339.5,109 343.5,108.1 			"/>
			<polygon class="st32" points="344.2,112.1 342.6,112 342.4,112.7 344.1,112.8 			"/>
			<polygon class="st33" points="346,107.4 347.8,112 351.4,111.3 354.7,112.9 354.5,107.9 349.2,105.5 			"/>
			<polygon class="st34" points="354.8,107.9 346,107.4 346.5,103.9 355.1,106.5 			"/>
			<path class="st35" d="M354.9,113.2l0.1-0.6c-0.9-0.3-2.6-1.6-4.5-2c-2.2-0.5-3.2,1.8-3.2,1.8l0.5,0.4c0,0,0.5,1.9,1.9,2.2
				C351.5,115.3,354.9,113.1,354.9,113.2z"/>
			<path class="st36" d="M383.9,230.4c-8.3-22.8-11.3-56.5-13.1-77.7c-0.1-2.5,0-4.9,0.5-7.4c0.5-2.8,4.3-3.5,5.4-6.3
				c1.3-3.5-0.1-9.1,1.9-11.3c1.1-1.3,2.5-2.2,4.1-2.7c3.8-1,15.7,3.7,18.6,6.2c6.1,5.2,12.4,12.3,13.9,20.4
				c3,16.2,9.5,42.4,14.9,61.3c0,0,2,20.7-1.3,21.3C419.6,236,383.9,230.4,383.9,230.4z"/>
			<path class="st37" d="M350.4,111.4c1.3,0.4,2.6,0.9,3.8,1.5l-0.1,0.4c-0.8,0.4-1.6,0.7-2.4,1c-0.3,0.1-0.5,0.2-0.8,0.3
				c-0.5,0.2-1.1,0.2-1.6,0.2l-0.2-0.1c-0.2-0.1-0.4-0.3-0.6-0.6c-0.2-0.4-0.4-0.9-0.5-1.4C348.4,111.8,349.4,111.2,350.4,111.4z"/>
			<path class="st38" d="M344.8,123.2c0,0,4.1-0.4,5.3,0.1c2.1,0.8,7,5.9,7,5.9c1,0,7.4-6.6,7.8-8.5c0.4-1.8,0.7-3.6,0.6-5.4
				c0-1,0.1-2.1,0.2-3.1l2.1,1.5l3.2,5.6c0,0-0.7,6.5-2.8,11.1c-3,6.4-10.3,9.4-11.9,9.9c-3.3,1-8.1-3.3-7.2-5.9
				c0,0,5.7-3.1,5.5-3.7c-0.5-0.3-3.2-4.8-7.2-4.5c-1,0.1-3.8-0.2-3.8-0.2L344.8,123.2z"/>
			<path class="st37" d="M342.4,114.4C342.4,114.4,342.4,114.4,342.4,114.4c-0.1-0.6-0.1-1.2,0.1-1.8c0.5-0.4,1.1-0.5,1.7-0.3
				c0,0,0,0.1,0,0.1s0,0.3-0.1,0.4c0,0.1,0,0.1-0.1,0.2c-0.1,0.2-0.1,0.5-0.2,0.7l0,0l-0.2,0.5l-0.2,0.5c-0.1,0.1-0.1,0.3-0.2,0.4
				l0,0l0,0l0,0h-0.1c-0.2-0.1-0.3-0.2-0.4-0.3c-0.1-0.1-0.2-0.2-0.2-0.3l0,0C342.5,114.5,342.4,114.5,342.4,114.4z"/>
			<path class="st39" d="M342.7,116.2c0,0,1.7-2.3,1.7-3.7c-0.1-1.3-0.4-2.6-0.9-3.9c0,0,0.9,2.7,0.5,4.2
				C343.7,114,343.2,115.2,342.7,116.2z"/>
			<path class="st37" d="M342.8,112.5c0.4-0.2,0.9-0.3,1.4-0.1c0,0,0,0.1,0,0.1s0,0.3-0.1,0.4l-0.1,0.2c0,0.1,0,0.2-0.1,0.3
				s-0.1,0.3-0.1,0.4l0,0c0,0.2-0.1,0.3-0.2,0.5s-0.1,0.3-0.2,0.5s-0.1,0.3-0.2,0.4l0,0l0,0l0,0l0,0h-0.1c-0.1-0.1-0.3-0.1-0.4-0.3
				l0,0c-0.1-0.1-0.2-0.2-0.2-0.3l0,0l0,0c0,0,0,0,0-0.1c-0.1-0.4-0.1-0.8,0-1.2c0-0.2,0.1-0.3,0.1-0.5
				C342.7,112.7,342.7,112.6,342.8,112.5z"/>
			<polygon class="st24" points="368.4,138.9 367.4,145.8 374.4,148.4 373.1,142.1 			"/>
			<path class="st40" d="M373.3,143.1l1.1,5.3c0,0,2.2,12.5,3.1,14.4c0.5,1.1,6.3,23.2,11.8,39c4,11.6,7.8,19.5,7.8,19.5l4.8,1.9
				c0,0-9.6-17.4-10.8-24.7c-2.6-15.7-10.3-35-11.1-37.1c-1.1-3-3.6-13.9-3.6-13.9l-0.4-2.4L373.3,143.1z"/>
			<polygon class="st40" points="367.4,145.8 370.8,151 371.1,147 			"/>
			<path class="st41" d="M379.1,119.1c0,0-3.3,13.2-4.1,15.6c-1.1,3.1-2.4,7.9-2.4,7.9l7.8,5.9c0,0,0.7-4.9,1.7-10.2
				c0.8-4.9,1-9.8,0.8-14.7L379.1,119.1z"/>
			<path class="st42" d="M374.9,148.7c-0.1,0.3,0.2,0.7,0.5,0.7c0,0,0,0,0,0c0.4,0,0.7-0.3,0.7-0.7c0-0.4-0.2-0.7-0.6-0.7
				c0,0,0,0,0,0C375.2,148,374.9,148.3,374.9,148.7z"/>
			<path class="st42" d="M376.7,157.1c-0.1,0.3,0.2,0.7,0.5,0.7c0,0,0,0,0,0c0.4,0,0.7-0.3,0.7-0.7c0.1-0.4-0.2-0.7-0.5-0.7
				c0,0,0,0,0,0C377,156.4,376.7,156.7,376.7,157.1z"/>
			<path class="st42" d="M381,172.4c-0.1,0.3,0.2,0.7,0.5,0.7c0,0,0,0,0,0c0.4,0,0.7-0.3,0.7-0.7c0.1-0.4-0.2-0.7-0.5-0.7
				c0,0,0,0,0,0C381.3,171.8,381,172.1,381,172.4z"/>
			<path class="st42" d="M378.9,165.8c-0.1,0.3,0.2,0.7,0.5,0.7c0,0,0,0,0,0c0.4,0,0.7-0.3,0.7-0.7c0-0.4-0.2-0.7-0.6-0.7
				c0,0,0,0,0,0C379.2,165.1,378.9,165.5,378.9,165.8z"/>
			<path class="st43" d="M355,138.3c1.5-0.5,8.8-3.5,11.8-9.9c1.3-2.9,2.1-6,2.4-9.2l-1-5c0,0,2.9,4,3.2,5.6
				c0.6,2.8-0.7,6.5-2.8,11.1c-3,6.4-10.3,9.4-11.8,9.9c-2.6,0.8-6.2-1.8-7.1-4.2C351.2,137.9,353.3,138.8,355,138.3z"/>
			<path class="st44" d="M350.1,112.5c0.8,0,1.5,0.7,1.5,1.5c0,0,0,0,0,0.1c0,0.1,0,0.3-0.1,0.4l-0.4,0.1c-0.2,0.1-0.4,0.1-0.7,0.2
				c0.4-0.3,0.4-0.9,0.1-1.3c-0.2-0.2-0.4-0.3-0.7-0.3c-0.5,0-0.9,0.4-1,0.9c0,0.1,0,0.3,0.1,0.4c-0.1-0.1-0.2-0.2-0.2-0.3
				c-0.1-0.1-0.1-0.2-0.2-0.4C348.6,113,349.3,112.4,350.1,112.5z"/>
			<path class="st45" d="M349.2,114.7c-0.1-0.1-0.2-0.1-0.4-0.3c-0.1-0.1-0.1-0.3-0.1-0.4c0.1-0.5,0.5-0.9,1-0.9
				c0.5,0,0.9,0.4,0.9,0.9c0,0.3-0.1,0.5-0.3,0.7c-0.3,0.1-0.7,0.1-1,0C349.3,114.7,349.2,114.7,349.2,114.7z"/>
			<path class="st44" d="M343.5,113.3c0.1,0,0.3,0,0.4,0.1l0,0c0,0.1-0.1,0.3-0.1,0.4l0,0l-0.1,0.3c-0.1-0.1-0.3-0.1-0.4-0.1
				c-0.4,0-0.7,0.2-0.9,0.5c-0.1-0.2-0.1-0.4-0.1-0.7C342.6,113.4,343.1,113.2,343.5,113.3z"/>
			<path class="st45" d="M343.4,114.7c-0.1,0.1-0.1,0.3-0.2,0.4l0,0l0,0l0,0h-0.1c-0.2-0.1-0.3-0.1-0.4-0.3l0,0
				c-0.1-0.1-0.2-0.2-0.2-0.3c0,0,0,0,0-0.1l0,0c0,0,0,0,0-0.1l0,0c0.2-0.3,0.5-0.5,0.9-0.5c0.1,0,0.3,0,0.4,0.1l-0.1,0.2
				C343.5,114.4,343.5,114.6,343.4,114.7z"/>
			<path class="st46" d="M425.3,192.2c0,0-17.8,3.6-22.2-3s-11.8-26.9-11.8-26.9l-19.4,6.6c0.9,9.8,2.3,19.6,4.3,29.2
				c2.1,9.5,5.5,32.3,6.8,33.7c3,3.3,48.1,1.8,48.1,1.8c0.3-6.9-0.1-13.8-1.2-20.6C428.8,206,427.3,199,425.3,192.2z"/>
			<path class="st47" d="M395.2,222.8c0,0.1-0.2,0.2-0.3,0.1c0,0,0,0,0,0l-0.7-0.3c-0.1,0-0.2-0.2-0.2-0.3l0,0
				c0.1-0.1,0.2-0.2,0.3-0.1l0.7,0.3C395.1,222.5,395.2,222.7,395.2,222.8C395.2,222.8,395.2,222.8,395.2,222.8L395.2,222.8z"/>
			<path class="st48" d="M386,166.5l2.1-8.1l-5.6,1l3.1,7.1h-0.6l-3.3-7.6l7.1-1.3l-2.3,8.7C386.4,166.4,386.2,166.4,386,166.5z"/>
			<path class="st37" d="M384.7,165.7c-0.2,0.6,0.1,1.3,0.7,1.5c0,0,0,0,0,0l0,0c0.6,0.2,1.3-0.1,1.5-0.7l0,0
				c0.2-0.6-0.1-1.3-0.7-1.5c0,0,0,0,0,0l0,0C385.6,164.7,384.9,165.1,384.7,165.7C384.7,165.7,384.7,165.7,384.7,165.7L384.7,165.7
				z"/>
			<path class="st46" d="M400.3,127.8c0,0-10.2-1.6-10.6,11.9c-0.2,5.7-2.2,19.1-2.2,19.1l-4.4,0.6c0,0,1.6-18.8,1.9-21.1
				s5-12.5,5-12.5L400.3,127.8z"/>
			<polygon class="st37" points="350.4,127.6 346.6,130.9 345.9,127.9 			"/>
			<path class="st22" d="M413.6,182.5c-6.9-14.8-12-17.6-17-26.3c-2.1-3.7-7-19.4-4.6-24.7c2-4.3,5.3-5.4,13-1.3
				c10.5,5.6,33.3,56.8,24.4,57.7C421.6,187.6,414,183.4,413.6,182.5z"/>
			<path class="st25" d="M362.1,199.5c1.2-1,10.3,0.3,10.3,0.3l9.1,4.2c0,0,3.5,6.3,2,8c-1.7,1.4-3.6,2.5-5.7,3.1
				c-1.4,0.3-2.8,0.3-4.2,0c-1.6-0.6-5.2-4.2-5.2-4.2s0,3.6,0.1,4.1c-0.2,0.9-0.1,1.6-0.5,2s-1.8,0.2-2.4,0.4
				c-0.1,0-0.2-0.2-0.3-0.2c-0.3,0-0.6-0.1-0.7-0.4c-0.3-0.3-0.6-0.5-0.9-0.8l-0.6-0.6c0-0.1-0.2-0.2-0.2-0.2
				c-0.1-0.4-2.7-1.6-2.7-1.6c-0.6-0.6-1.2-1.2-1.8-1.9c-0.4-1.8,0-2.1,0-2.1c-0.2-0.2-0.5-0.4-0.7-0.6
				C356.4,207.1,358,202.9,362.1,199.5z"/>
			<path class="st25" d="M305.2,184.4c1.2-1,10.3,0.3,10.3,0.3l9.1,4.2c0,0,3.5,6.3,2,8c-1.7,1.4-3.6,2.5-5.7,3.1
				c-1.4,0.3-2.8,0.3-4.2,0c-1.6-0.6-5.2-4.2-5.2-4.2s0,3.5,0.1,4.1c-0.2,0.9-0.1,1.6-0.5,2s-1.8,0.3-2.4,0.4
				c-0.1,0-0.2-0.2-0.3-0.2c-0.3,0-0.6-0.1-0.7-0.4c-0.3-0.3-0.6-0.5-0.9-0.8l-0.6-0.6c0,0-0.2-0.2-0.2-0.2
				c-0.1-0.4-2.7-1.6-2.7-1.6c-0.6-0.6-1.2-1.2-1.7-1.9c-0.4-1.8,0-2.1,0-2.1c-0.3-0.2-0.5-0.4-0.7-0.6
				C299.5,191.9,301.2,187.8,305.2,184.4z"/>
			<path class="st49" d="M368.9,206.7c0,0-4.8,1.9-4.5,4.1s1.3,6.2,1.3,6.2s-2.2-5.1-2-6.9C364,207.8,368.5,206.9,368.9,206.7z"/>
			<path class="st49" d="M364.1,206.1c0,0-2.8,3.2-2.5,5.1s0.7,3.6,0.7,3.6s-1.9-3.3-1.6-4.3c0.2-0.7,0.5-1.4,1-1.9
				C362.5,207.7,363.3,206.9,364.1,206.1z"/>
			<path class="st49" d="M358.1,209.5c-0.2-0.1-0.4-0.2-0.5-0.4c0-0.1,0-0.4,0-0.4c0.2-0.7,0.5-1.4,1-2c0.8-0.9,1.6-1.6,2.5-2.3
				C361.2,204.4,358.3,207.6,358.1,209.5z"/>
			<path class="st22" d="M418.7,180.3c-4.8,2.3-9.4,4.8-13.8,7.7c-7.9,5.3-17.4,11.8-21.6,15.8c-2,1.9,3.6,5.4,4.6,6.9
				c2.7,4.4,14.6,1.4,26.7-6.7c5.7-3.8,13-10.2,16.1-14.1c2.4-3,3-5.6,2.1-8.8"/>
			<path class="st50" d="M339.5,105.9c0,0-8.4,1.2-10.7-0.4c-1.4-1-2.5-2.4-3-4.1l16-3L339.5,105.9z"/>
			<path class="st50" d="M385.3,97.8l-22.3-1.7c-14.9-1.1-24.8,4.4-24.8,4.4S339,76,361.6,74.2C390.1,72,385.1,97.2,385.3,97.8z"/>
			<path class="st51" d="M364.5,95.9c0,0-6.7,8-21.3,7.3c-5-0.2-8.7-3.4-12.3-2.8s-5.3,0.9-5.3,0.9l12.2-5.2c3.8-1.6,7.8-2.6,11.9-3
				C356.1,92.8,364.5,95.9,364.5,95.9z"/>
			<path class="st52" d="M387.5,199l-8.5,2.9c0.6,2.2,1,4.4,1.4,6.6c0.4,3.2,1.1,6.6,1.1,6.6l9.6-1.4c-0.3-2.9-0.9-5.7-1.7-8.5
				C388.1,201.3,387.5,199,387.5,199z"/>
			<path class="st53" d="M386.4,362.6c0,0,0.9,5.2,0.1,6.3s10.8,4.2,10.8,4.2s0.3-6.4,0.1-7.4c0,0-4-1.3-5-1.6
				S386.4,362.6,386.4,362.6z"/>
			<path class="st54" d="M431.1,291.9c-0.9-10.5,1-36.1,1-39c0-2.5,0-20.9-0.4-25.8l-29.1-0.3l0,0H381c0,0-0.3,76.2,3,133.4
				l14.7,2.5l5.9-110.3l2.1,0.1c5.5,38.9,10.6,111.4,10.6,111.4s15.4,4.1,15.3,3.6S433.9,323.1,431.1,291.9z"/>
			<path class="st55" d="M418.9,364.3c0,0,0.9,5.2,0.1,6.3s10.8,4.2,10.8,4.2c0.2-2.4,0.2-4.9,0.1-7.3c0,0-4-1.4-5-1.6L418.9,364.3z
				"/>
			<path class="st56" d="M369.2,381.3c5.5-2.4,10.4-6.5,12.9-8.6l-1.3-24.6l20.1-1l-1.3,32.5l0,0l0.3,7.3l-23.7,2.2l-13.6-0.4
				C362.4,388.7,361.4,384.8,369.2,381.3z"/>
			<path class="st56" d="M416.6,376c0.1-0.3,0.5-1.3,0.9-2.2l-2.5-27.8l19.8,0.3l-2,28c0.5,1,1,2,1.2,2.6c1,2.4,4.2,13.1,4.2,13.1
				c-3.9,2.1-8.2,3.3-12.6,3.5c-4.6,0.1-9.1-0.9-13.2-3C412.4,390.4,416.3,376.8,416.6,376z"/>
			<path class="st57" d="M425.4,391.2c-4.4,0.1-8.7-0.8-12.6-2.7c-0.4,1.2-0.6,2-0.6,2c4.1,2.1,8.6,3.1,13.2,3
				c4.5-0.2,8.8-1.4,12.8-3.5l-0.6-2C433.8,389.9,429.7,391,425.4,391.2z"/>
			<path class="st57" d="M399.9,388.6l0.1-2.5c0,0-18.5,1-24.7,1.9c-5.4,0.7-13.4-0.4-13.4-0.4l0.1,1.5c5.5,0.4,5.8,0.7,11.4,0.7
				c1.4,0,13.8-0.4,18.9-0.4C394.2,389.4,399.9,388.6,399.9,388.6z"/>
			<path class="st58" d="M380.9,227.2l8.5-0.1c0,0-2.3,7.4-4,10.2c-1.4,2.2-2.9,4.3-4.5,6.4L380.9,227.2z"/>
			<path class="st58" d="M412.2,227.1l11.7,0.1l0.3,18.9c-2.9-2.5-5.6-5.3-8-8.3C413.5,234.1,412.2,227.1,412.2,227.1z"/>
			<polygon class="st59" points="431.7,227.1 380.9,227.2 380.9,223.2 431.7,223 			"/>
			<rect x="403.3" y="222.5" class="st46" width="1.8" height="5.4"/>
			<rect x="424.6" y="222.8" class="st58" width="1.8" height="5.4"/>
			<rect x="389.3" y="222.6" class="st46" width="1.8" height="5.4"/>
			<polygon class="st60" points="15.3,358.5 153.3,355.5 149.3,229.4 21.3,234.2 			"/>
			<path class="st61" d="M280.5,275.1c5.4-0.7,21.7,0,21.7,0c0.7,0.2,1.4,0.4,2.1,0.6h16.1c22.9,5.5,39,29.6,39,58.7
				c0,32.5-17.7,58.5-44.9,59.5l0,0h-23.2c-28.1,0-50.8-26.9-50.8-60.1C240.5,305.1,257.1,278.1,280.5,275.1z"/>
			<path class="st60" d="M54.4,357.2c0-29.3,19-53.5,42.7-59.1h20.3c23,5.5,45.3,30.5,45.3,59.7c0,32.8-23.9,58.1-51.2,59.1l0,0
				H88.1l2.6-4C70.5,404.4,54.4,382.8,54.4,357.2z"/>
			<path class="st62" d="M77.2,297.6c5.4-0.7,21.8,0,21.8,0c23,5.9,40.2,30.1,40.2,59c0,33.4-22.9,60.4-51.1,60.4S37,390,37,356.6
				C37,327.6,53.7,300.5,77.2,297.6z"/>
			<path class="st63" d="M77.6,320.5c4.4-1,9-1,13.4,0c14.1,3.6,24.7,18.5,24.7,36.3c0,20.5-14.1,37.2-31.4,37.2
				s-31.5-16.6-31.5-37.2C52.8,339.1,61.7,324.8,77.6,320.5z"/>
			<path class="st64" d="M81.4,346.6c1.3-0.3,2.6-0.3,3.9,0c4.1,1,7.2,5.4,7.2,10.5c0,6-4.1,10.8-9.1,10.8s-9.1-4.8-9.1-10.8
				C74.2,352,76.8,347.9,81.4,346.6z"/>
			<polygon class="st65" points="88,324.8 80.8,324.7 82.3,343.5 85.9,343.7 			"/>
			<polygon class="st65" points="77.3,389.8 84.5,390.4 84.1,372 80.5,371.5 			"/>
			<polygon class="st65" points="112.7,362.1 113,354.6 95.1,355.7 94.8,359.5 			"/>
			<polygon class="st65" points="55.8,351.5 55.1,359 71.5,358.9 72,355.1 			"/>
			<polygon class="st65" points="108.2,337.8 103,332.4 91.7,347 94.2,349.8 			"/>
			<polygon class="st65" points="59.1,375.9 63.9,381.6 75.8,368 73.4,365 			"/>
			<polygon class="st65" points="102.3,382.6 107.4,377.2 93.4,365.4 90.7,368 			"/>
			<polygon class="st65" points="65.6,331.4 60.3,336.5 73.3,348.9 76.1,346.4 			"/>
			<path class="st65" d="M81.4,362.9c0,1,0.9,1.8,1.9,1.7s1.8-0.9,1.7-1.9c0-1-0.8-1.7-1.8-1.7C82.2,361.1,81.4,361.9,81.4,362.9
				C81.4,362.9,81.4,362.9,81.4,362.9z"/>
			<path class="st65" d="M81,352c0,1,0.9,1.8,1.9,1.7s1.8-0.9,1.7-1.9c0-1-0.8-1.7-1.8-1.7C81.8,350.2,81,351,81,352z"/>
			<path class="st65" d="M76,358c0,1,0.9,1.8,1.9,1.7s1.8-0.9,1.7-1.9c0-1-0.8-1.7-1.8-1.7C76.8,356.2,76,357,76,358
				C76,358,76,358,76,358z"/>
			<path class="st65" d="M86.3,356.7c0,1,0.9,1.7,1.9,1.7s1.7-0.9,1.7-1.9c0-1-0.9-1.7-1.8-1.7C87,354.9,86.2,355.7,86.3,356.7z"/>
			<path class="st66" d="M-331.5,191.9c4.4-4.6,38.6-3.5,39.7-4.1l185.3-1.3l17-84.2c68.6-5.2,202.4-7.8,230,6
				c24.9,12.4,79.1,66,94.8,75c4.5,2.6,8.8,4,14.8,5.2c11.8,2.5,29.8,4.4,67.2,13.9c12.6,3.2,55.7,20.7,58.9,25.1
				c10.8,14.5,20.9,35.9,22.9,44.9c1.2,5.5-10.6,49.3-14.7,63.9c-2.2,7.7-8,15.7-14.1,19.5c-3.9,2.1-8.1,3.6-12.5,4.6l-215.2-1.5
				c-2.5-4.4-4.9-10.8-4.9-20.2c0-40.4-18.3-69.4-51.1-70.4c-34.1-1-57.2,6.3-63,54.4c-2.6,22-2.6,33.3-2.4,37.3h-72.4l-153.3-0.3
				l-3.6-0.1c-1-2.2,4.2-87.6-54.3-86.8c-48.7,0.6-44.3,78.1-44,80.7c0.2,1.9-1.5,3.6-2.6,3.4c-3.8-0.7-36.5-28.3-40.8-33.3
				c-8.8-10.2-4.2-53.6-0.8-91C-347.3,199.7-344.9,206-331.5,191.9z"/>
			<path class="st67" d="M-81.3,110l65.8-0.9c8.9,12.6,36.9,76.1,36.9,76.1l-113.2-0.8L-81.3,110z"/>
			<path class="st67" d="M1.4,111.9c0.6-1.2,0.7-1.8,1.3-3l134.3-0.6c28.9,10.7,98.4,77.6,98.4,77.6l-198.5,0.4
				c0,0-26.9-49-37.3-70.9C0.2,114.2,0.9,113.1,1.4,111.9z"/>
			<path class="st68" d="M205.7,317.9c10.4-4,21.1-7.1,32-9.4c36.6-6.9,154.1,0.8,154.1,0.8c-1.5,10-4.3,19.8-8.3,29.1
				c-34.5,0.1-166.9-0.8-179.2-0.8C190.1,337.7,184.5,325.8,205.7,317.9z"/>
			<path class="st68" d="M142,237c14.9-15.9,78.1,2.3,101.2,5.8s45.6,3.1,92.9,2.1c40-0.9,40-6.1,46.4-8c6.4,8,12.9,23.5,14.1,27.8
				c0.5,1.7,2.1,5.5,2.6,9.6l-148.2,0.1c-15.5-2.9-77-4.8-99.2-14.5C145.4,257.1,137.4,241.8,142,237z"/>
			<path class="st69" d="M153.3,239.8c13.5-11,64.8,2.2,85.3,5.7c4.9,0.8,15.9,4.1,12.7,15.8c-2,7.3-9.5,6.9-16.1,7.1
				c-22.6,0.7-59.9-5.6-73.5-11.8C156.1,253.9,149.1,243.1,153.3,239.8z"/>
			<path class="st69" d="M371.7,257.9c-4.4-11.3,6.2-15.8,11-17.1c0.4-0.1,1.8-0.6,2.2-0.7c4.6,6.8,8.3,14.2,11.1,22
				c-2.5,0.4-5.2,0.8-7.5,1C381.9,263.6,374.4,264.9,371.7,257.9z"/>
			<path class="st70" d="M262.8,256.3c0,1.6,1.2,2.9,2.8,2.9c0,0,0,0,0,0h95.1c1.6,0,2.8-1.3,2.8-2.9l0,0c0-1.6-1.2-2.9-2.8-2.9
				c0,0,0,0,0,0h-95.1C264,253.4,262.7,254.7,262.8,256.3C262.8,256.3,262.8,256.3,262.8,256.3z"/>
			<path class="st70" d="M268.9,265.7c-0.1,1.5,1,2.8,2.5,2.9h87.1c1.5-0.1,2.6-1.4,2.5-2.9l0,0c0.1-1.5-1-2.8-2.5-2.9h-87.1
				C269.9,262.9,268.8,264.2,268.9,265.7z"/>
			<path class="st71" d="M286.2,323.1c0,5.6,3,10.2,6.8,10.2h52c3.8,0,6.8-4.5,6.8-10.2l0,0c0-5.6-3-10.2-6.8-10.2h-52
				C289.2,312.9,286.2,317.4,286.2,323.1L286.2,323.1z"/>
			<path class="st70" d="M230.1,318.8c3.7,1.6,5.8,5.4,5.3,9.4c-0.7,4.2-4.7,5.6-6.5,6s-21.8,0.3-23.3-2.4s0.9-8.6,9.2-11.1
				S226.8,317.6,230.1,318.8z"/>
			<path class="st72" d="M215,182c0,0-61.2-62.8-77.9-65.7S0.5,116.6,0.5,116.6l31,62.5L215,182z"/>
			<polygon class="st67" points="74.2,114.7 89.3,185.7 77.5,186 66.6,114.4 			"/>
			<path class="st73" d="M119.2,181.8c0,0-11-17.8-19.9-18.3s-41.3-3.8-49.7,5.4c-2.1,2.3,0.7,11,0.7,12.4S119.2,181.8,119.2,181.8z
				"/>
			<path class="st74" d="M63.8,114.2h18l-2.1-5.4l2.3-0.2l2.4,5.6h11.6c2.3,0.1,4.1,2.1,4,4.4c-0.1,2.2-1.8,3.9-4,4H63.8
				c-2.3-0.1-4.1-2.1-4-4.4C59.8,116,61.6,114.3,63.8,114.2z"/>
			<path class="st75" d="M35.8,186.4c0,0-0.4-1.6-6.7-12c6.8,3.1,22,6.4,39.4,5.9c8.9-0.2,119.2,2.7,135.9-0.7
				c8.2-1.7,10.3-7,10.5-10.6c14.9,12,14.8,12,26.4,17.2L35.8,186.4z"/>
			<path class="st75" d="M-63.3,178.4c0.2-2.5,0.8-4.9,2-6c5.9-5.1,20.8-6.7,35.3-6.9c13.4-0.2,26.5,0.8,32.3,1.1
				c1.2,0.1,2.4,0.3,3.6,0.7c6.5,10.8,11.3,18.9,11.3,18.9h-67.9c-9.9-0.2-16.7-0.4-16.7-0.8C-63.4,183.1-63.4,180.7-63.3,178.4z"/>
			<path class="st74" d="M-97.8,185.9l119.2,0.1c0,0-21.8-54.7-31.9-71.3c-0.6-1.1-2.9-4.4-4.7-5.7c-1.6-1.1-5.7-1.1-5.7-1.1
				l-62.5,0.5L-97.8,185.9z M-89.8,182.2l2.8-15.8l6.8-54.2l55.6-0.7c0,0,4.4-0.3,6.4,0.8s3.9,4.4,5.6,7.6
				c9.8,17.9,26.2,62.2,26.2,62.2H-89.8z"/>
			<path class="st76" d="M2.6,177.2c0,0-3.7-11.1-6.6-14.2s-29.1-4.3-34.4-1.2s-8.8,16.8-4.1,23.2s37,2.9,40.1,3.3
				c2.4,0.5,4.7,1.3,6.9,2.4l24-0.5l-9.9-16.6L2.6,177.2z"/>
			<path class="st74" d="M136.9,108.4c2.6,1,5.2,2.2,7.7,3.5c0,0-138.9-5-142.2-0.5c-2.4,3.4,25.9,65.2,35.9,70.2
				c9.3,4.7,193.7-0.2,193.7-0.2c4.8,2.7,10.2,4.9,10.2,4.9S93,194.3,43.3,189c-2-0.2-6-1.4-7.5-2.6c-13.5-11-25.7-48.3-36-70.3
				c-1.4-2.9-2.4-4.7-1.3-6.7c0.8-1.4,46.1-3.8,77.8-3.1C91.4,106.6,136.9,108.4,136.9,108.4z"/>
			<path class="st77" d="M382.1,340.2c-2.3,7.5-7,13.7-12.5,17.1c-1.6,1-5.4,2.1-10.8,3.4l-140.3,7.8c0,0-35.3-0.6-45.9-1.5
				c-7.9-0.7-24.6-2.8-31-7.8c-2.8-2.2-4.5-20-4.4-32.3c0,0,4.4,6.4,28.3,12.6c47.2,12.3,194.4,8.8,194.4,8.8
				C364.6,347.2,378,342.2,382.1,340.2z"/>
			<path class="st78" d="M152.3,239.9c2-1.5,4.4-2.6,6.8-3.1c-0.6,0.4-1.2,0.8-1.8,1.2c-4.1,3.4,2.8,14.2,8.3,16.7
				c13.6,6.3,50.9,12.6,73.5,11.8c2.7,0,5.3-0.2,8-0.5c-3.3,2.4-8.4,2.2-13,2.4c-22.6,0.7-60-5.6-73.5-11.8
				C155.1,254.1,148.2,243.2,152.3,239.9z"/>
			<path class="st79" d="M301.5,259.3c0,3.1,6.5,5.7,14.4,5.7s14.4-2.5,14.4-5.7s-6.4-5.7-14.4-5.7S301.5,256.2,301.5,259.3z"/>
			<path class="st80" d="M305.7,259.1c0,2.2,4.6,4,10.2,4s10.2-1.8,10.2-4s-4.6-4-10.2-4S305.7,256.9,305.7,259.1z"/>
			<path class="st70" d="M376.2,324.5c-0.8-4.9,2.7-9,5.2-9.4c3-0.2,6.1,0.3,8.9,1.5c-0.2,5.2-2.6,10.6-4.1,15.6
				c-2.1,0-5.1-0.1-5.1-0.1C379.3,331.7,376.9,328.7,376.2,324.5z"/>
			<path class="st81" d="M138,238.4l-448.1-13.7c0,0,4.3-4.3,4.5-7.4s-3.5-5-3-5.6c4.2-4.1,447.6,18.8,452.3,20.6
				C143.8,232.3,138.8,237.7,138,238.4z"/>
			<path class="st77" d="M-50.8,330.1h73.7c-0.3,15.7-0.3,25.5-0.2,30.5h-74.6l-153.7-1.6l-3.7-0.2c-0.3-1.6-0.8-14.3-0.6-31.4
				l5.4,0.4L-50.8,330.1z"/>
			<path class="st82" d="M-213,360.1c0,4.1,3.3,7.4,7.4,7.4l221.7-1.3c4.1,0,7.4-3.3,7.5-7.4l0,0c0-4.1-3.3-7.4-7.5-7.4l-221.7,1.3
				C-209.7,352.7-213,356-213,360.1z"/>
			<path class="st82" d="M197.8,360.4c0,4.6,3.7,8.3,8.4,8.3l0,0h175.4c4.6,0,8.3-3.7,8.4-8.3l0,0l0,0c0-4.6-3.7-8.3-8.3-8.3
				c0,0,0,0,0,0H206.2C201.6,352.1,197.8,355.8,197.8,360.4C197.8,360.4,197.8,360.4,197.8,360.4L197.8,360.4z"/>
			<path class="st83" d="M-255.8,252c54.9,0,53.5,65.5,52.4,68.9l150.8,1.2l71.1,3.1c0.5-2.7,1.3-8,2.3-15.5
				c2.2-15.8,13.4-70,60.7-69.5c66.4,0.7,60.1,89.8,57.3,89.9c-2.1,0.1-4.5-32.6-18.5-48.5c-9.4-10.7-26.9-13.4-42.3-13.4
				c-34.3,0-47.7,20.7-52.4,43.5c-1.7,8.1-1.7,9.1-1.9,13.9l0,0l-0.7,4.5l-127.9-2.4l-103.1-0.3c-0.6,0.2-1.2,0.1-1.8-0.1
				c0,0-7.6-28.3-17.3-39.5c-8.6-9.7-20.9-15.3-33.8-15.5c-29.2,0-39.6,27.4-42.8,48.8c-1.3,9.2-2.9,17-2.9,17S-327.6,252-255.8,252
				z"/>
			<path class="st76" d="M140.4,346.8c0.9-12.4,0.9-24.9,0.1-37.3c-0.6-10.2-2.3-20.3-5.1-30.1c-3.1-10.6-7.6-18.4-13.1-23.3
				c-21.3-18.6-35.5-17.5-42.4-17c-0.9,0.1-1.8,0.1-2.4,0.1c-2.6,0-12.2,1.3-22.9,7.1c-12.6,6.7-22.1,18-26.5,31.5
				C18.8,305.7,16,320,15.5,323.1l-218.1-3c-0.1-3.6-0.5-18.6-3.1-27.5c-2.1-6.8-5-13.4-8.7-19.6c-5.1-8.4-10.9-14.1-17.2-16.9
				c-14.9-6.6-30.8-7.4-44.6-2.2c-15.2,5.7-21.4,13.7-25.1,18.5c-6.7,8.7-9,27.4-9.3,33.3c-0.3,6.2,3.1,31.3,3.3,32.4l1.5-0.2
				c0-0.3-3.5-26-3.2-32.1c0.3-5.8,2.5-24,9-32.4c3.6-4.7,9.7-12.5,24.5-18c13.4-5.1,28.9-4.3,43.5,2.1c16.1,7.1,24.1,32.6,25,35.5
				c2.9,9.7,3.1,27.6,3.1,27.8v0.7l220.9,3l0.1-0.7c0-0.1,2.2-14.1,12.7-45.7c4.3-13.2,13.6-24.1,25.8-30.6c9.6-5.3,19.1-7,22.2-7
				c0.7,0,1.6,0,2.5-0.1c6.7-0.5,20.5-1.5,41.3,16.7c12.2,10.6,16.3,34.3,17.6,52.3c0.9,12.3,0.9,24.7-0.1,37L140.4,346.8z"/>
			<path class="st77" d="M16,344.4c0-0.2,0.7-18.1,1.1-24.1c0.2-2.7,9.4-47.3,14.3-57.8c5.4-11.8,11.6-25.2,14-33.6
				c4.7-16.3-7.3-26.9-7.9-27.8l-0.1-0.1l-13.2-18.5l-1.3,1L36.1,202c0.6,1.3,12.1,11.2,7.7,26.5c-2.4,8.3-8.5,21.6-13.9,33.4
				c-5.3,11.5-14.2,55.4-14.4,58.4c-0.4,6-1.1,23.9-1.1,24.1L16,344.4z"/>
			<path class="st77" d="M148.7,233.8l1.4-2.6c-0.8-0.5-19.3-11.6-26.2-14.4c-21.8-8.6-88.7-22.4-91.5-23l-0.5,2.9
				c0.7,0.1,69.4,14.4,91.1,22.9C129.6,222.2,148.5,233.6,148.7,233.8z"/>
			<path class="st81" d="M396.2,289.9c0,0-21.3,0.3-23.6,0.3s-116.6,0-122,0.3s-64.3-8.5-70.8-10.3s-3.3-5,13-4s45.2,7.4,61.2,6.5
				s117,0,117,0l27.3-0.9L396.2,289.9z"/>
			<path class="st84" d="M330,213.2c-3.9,0-10.1-3.9-10.1-3.9s-1.5-3.1,6-2.5s14.1,4.4,10.2,5.7S330,213.2,330,213.2z"/>
			<path class="st84" d="M325.6,215.8c-1.5,0-3.9-1.5-3.9-1.5s-0.6-1.2,2.3-1s5.5,1.7,4,2.2C327.3,215.8,326.5,215.9,325.6,215.8z"
				/>
			<path class="st85" d="M24.5,325.3c0.3-4.8,0.2-5.8,1.9-13.9c4.7-22.8,18.2-43.5,52.4-43.5c15.4,0,32.9,2.7,42.3,13.4
				c11.4,13,15.1,37.2,17.3,45.6c-0.2-0.2-0.3-0.3-0.3-0.3c-0.1,4.9,0.2,10.6,0.6,15.9c-4.5-22.6-19.7-40.3-38.9-45.2
				c0,0-16.4-0.7-21.8,0c-23.5,3-40.2,30.1-40.2,59c0,0.5,0,0.9,0,1.4L23.6,358c-0.1-5.5-0.1-14.6,0.2-28.3L24.5,325.3z"/>
			<path class="st86" d="M-1.1,116c10.3,22.1,22.5,59.4,36,70.3c1.6,1.3,5.6,2.4,7.5,2.6c49.6,5.3,199.6-2.7,199.6-2.7
				c-3.7-1.4-7.4-3.1-10.9-4.9c0,0-0.9-0.6-1.7-1.1c-14.7-13.8-59.5-54.1-85.9-68.4h0.1c-0.9-0.5-1.9-0.9-2.8-1.4
				c-1.6-0.8-3.2-1.5-4.8-2.1H136c0,0-45.5-1.8-60.6-2.1c-31.7-0.7-77,1.7-77.8,3.1C-3.6,111.3-2.5,113.1-1.1,116z M13.7,123
				c0,0,54.5-2.8,87,10.1c-3.2-7.6-5.5-13-5.5-13s48.9,8.3,76.3,21.1c24.6,11.4,50,39.8,50,39.8c-3.1-0.5-31.6,2.4-45.4,2.4
				c-7.9,0-20.1,0.3-31-0.3c-12.2,0.9-27.8,2.1-37.4,2.1c-19.4,0-60,1.4-66.8-7.3S13.7,123,13.7,123z"/>
			<path class="st87" d="M214.2,168.3c1.5,5.4,30.8,18.9,16.4,19s-15.9-6.6-33,0.1s40.7,28.1,77.4,39.6s-14.5,8.6-60.8-16.2
				s-22.1-8.7-30.9-7.2s-61.4,2.6-43-9.8s-3-5-3.4-21.1s0.1-22.1,15.9-13.1s15.7,28.8,21.7,13.1s-21.8-25.6-8.9-28.4
				S210,152.9,214.2,168.3z"/>
			<path class="st87" d="M257.1,197.9c0,0,67,14.9,71.2,27.5s-31.2-5.6-31.2-5.6s-3.7-0.5,9.5,16.8c11,14.5-21.8,0.4-21.8,0.4
				l-53.9-30.5c0,0,8.5-5.4,13.2-7.3S257.1,197.9,257.1,197.9z"/>
			<ellipse class="st0" cx="255.3" cy="452.2" rx="45.9" ry="7"/>
			<path class="st88" d="M214.1,387.2l10,61.4c0,4.3,13.9,7.8,31.1,7.8s31.1-3.5,31.1-7.8l10.1-62.9L214.1,387.2L214.1,387.2z"/>
			<path class="st89" d="M255.3,456.6c-17.6,0-31.4-3.5-31.4-8l-10-61.4c0-0.1,0-0.1,0.1-0.2c0-0.1,0.1-0.1,0.2-0.1l82.4-1.4l0,0
				c0.1,0,0.1,0,0.2,0.1c0,0.1,0.1,0.1,0.1,0.2l-10.1,62.8C286.6,453.1,272.8,456.6,255.3,456.6L255.3,456.6z M214.4,387.4l10,61.2
				c0,4.1,14.1,7.6,30.9,7.6s30.9-3.5,30.9-7.6l10.1-62.6L214.4,387.4L214.4,387.4z"/>
			<path class="st90" d="M241.6,425.8c-1.7,0-3.7,0.8-6.2,2.7l2.1,23.8c-0.3,0-0.5,0-0.8,0c-3.8,0-8.4-2.5-8.4-2.5l-3.7-23.7
				c-0.4-0.2-0.7-0.3-1.1-0.3h-0.3c-0.9,0.1-1.7,0.5-2.3,1.2l3.5,21.5c0,4.1,14.1,7.6,30.9,7.6c4,0,8-0.2,12-0.6
				c15.6-2.1,17.5-18,17.5-18l1.6-10.9c-1.6,0.3-3,1.3-3.8,2.7c-1.4,2.2-3.1,3.9-5.4,3.9c-1.5,0-3.3-0.8-5.5-2.9
				c-2.5-2.4-4.6-3.5-6.5-3.5s-4.1,1.2-6.4,3.3c-1.3,1.3-3,2.1-4.8,2.1c-2.4-0.2-4.7-1.3-6.3-3.1C245.9,427.2,244,425.7,241.6,425.8
				L241.6,425.8z"/>
			<path class="st89" d="M286.4,448.7c-0.1,3.1-7.4,5.7-17.8,7C279,454.4,286.3,451.8,286.4,448.7z M286.4,448.7L286.4,448.7z
				 M286.4,448.7L286.4,448.7z M286.4,448.7L286.4,448.7z M286.4,448.7L286.4,448.7z M286.4,448.7L286.4,448.7z M286.4,448.7
				L286.4,448.7z M289.6,428.5l-3.3,20.1l0,0L289.6,428.5L289.6,428.5z M220.9,427.1c-0.1,0.1-0.1,0.1-0.2,0.2l3.5,21.3
				c0,4.3,13.9,7.8,31.1,7.8c3.6,0,7.1-0.1,10.4-0.4c0.4-0.2,0.9-0.3,1.4-0.4h0.2c-4,0.4-8,0.6-12,0.6c-16.8,0-30.9-3.5-30.9-7.6
				L220.9,427.1L220.9,427.1z"/>
			<path class="st91" d="M214.6,389l1.7,10.4c0-1.6,0.3-6,3.9-6c0.5,0,1,0.1,1.5,0.2c0,0,13,3.9,32.9,3.9c8.8,0,17.6-0.8,26.3-2.3
				c0.3-0.2,0.7-0.3,1.1-0.3c0.5,0,1,0.2,1.2,1.1c0.2,1.7,1.6,3,3.3,3c0.3,0,0.7-0.1,1-0.1h0.1c0.4,0,2.6,0.3,1.7,7.6l-2.9,20.1
				c0.1,0,0.2,0,0.4,0c1.1,0,2.1,0.6,2.8,1.5l6.3-39.1c-1.5,0.7-3.1,1.3-4.6,1.8c0.1,0.5,0.2,1,0.2,1.5c0,2.2-1.2,4.1-2.7,4.1
				s-2.7-1.8-2.7-4.1v0c-10.1,2.2-20.3,3.2-30.6,3.1C237.9,395.4,222.7,392.8,214.6,389L214.6,389z"/>
			<path class="st92" d="M268.6,455.6c-1,0.1-1.9,0.2-3,0.3l0,0C266.7,455.9,267.7,455.8,268.6,455.6z M286.4,448.6L286.4,448.6z
				 M286.4,448.6L286.4,448.6z M286.4,448.6L286.4,448.6z M296,388.9l-0.2,0.1l-6.3,39.1l0.2,0.3L296,388.9z M214.4,388.9l1.8,11.1
				h0.1c0,0,0-0.2,0-0.6l-1.7-10.4L214.4,388.9L214.4,388.9z"/>
			<path class="st93" d="M286.7,426.7c-0.1,0-0.2,0-0.4,0l-1.6,10.9c0,0-1.9,15.8-17.5,18c11-1.2,18.9-3.9,18.9-7l3.3-20.4
				C288.8,427.2,287.8,426.7,286.7,426.7L286.7,426.7z"/>
			<path class="st92" d="M289.5,428.2l-3.3,20.4c0,3.1-7.9,5.8-18.9,7h-0.2c-0.5,0.1-1,0.2-1.4,0.4c1-0.1,2-0.2,3-0.3
				c10.4-1.2,17.6-3.9,17.8-7l0,0l3.3-20.1L289.5,428.2L289.5,428.2z"/>
			<path class="st94" d="M289.6,392.6c0,2.2-1.2,4.1-2.7,4.1s-2.7-1.8-2.7-4.1s1.2-4.1,2.7-4.1S289.6,390.4,289.6,392.6z"/>
			<path class="st89" d="M286.9,396.9c-1.6,0-2.9-1.9-2.9-4.3s1.3-4.3,2.9-4.3s2.9,1.9,2.9,4.3S288.5,396.9,286.9,396.9z
				 M286.9,388.8c-1.4,0-2.5,1.7-2.5,3.8s1.1,3.8,2.5,3.8s2.5-1.7,2.5-3.8S288.3,388.8,286.9,388.8L286.9,388.8z"/>
			<path class="st88" d="M298.6,377.7c-7.1-4.6-23.8-7.9-43.4-7.9s-36.3,3.3-43.4,7.9h-3.6v5.5h0.1c1.2,6.8,21.7,12.1,46.9,12.1
				c10.3,0.1,20.6-0.9,30.6-3.1v0c0,2.2,1.2,4.1,2.7,4.1s2.7-1.8,2.7-4.1c0-0.5-0.1-1-0.2-1.5c6.9-2.2,11.1-5.1,11.1-8.2v-4.9H298.6
				z"/>
			<path class="st89" d="M288.6,396.6c-1.6,0-2.8-1.8-2.9-4c-10,2.1-20.2,3.1-30.4,3c-25.1,0-45.7-5.3-47.1-12.2l0,0
				c0,0-0.1-0.1-0.1-0.2v-5.5c0-0.1,0.1-0.2,0.2-0.2l0,0h3.5c7.4-4.8,24.4-7.9,43.5-7.9s36.1,3.1,43.5,7.9h3.5
				c0.1,0,0.2,0.1,0.2,0.2c0,0,0,0,0,0v4.9c0,3.1-3.8,6-11.1,8.4c0.1,0.4,0.1,0.9,0.1,1.3C291.5,394.7,290.2,396.6,288.6,396.6z
				 M285.9,392.3h0.2c0,2.1,1.1,3.8,2.5,3.8s2.5-1.7,2.5-3.8c0-0.5-0.1-1-0.2-1.4c0-0.1,0-0.2,0.1-0.3c7.1-2.3,11-5.1,11-8v-4.7
				h-3.4c0,0-0.1,0-0.1,0c-7.3-4.8-24.3-7.8-43.3-7.8s-36,3.1-43.3,7.8c0,0-0.1,0-0.1,0h-3.4v5.1c0,0,0.1,0.1,0.1,0.1
				c1.2,6.7,21.7,12,46.7,12c10.3,0.1,20.5-1,30.6-3.1c0.1,0,0.1,0,0.2,0c0.1,0,0.1,0.1,0.1,0.2h-0.2L285.9,392.3z"/>
			<path class="st88" d="M302.3,377.7c0,7-21,12.8-47,12.8s-47-5.7-47-12.8s21-12.8,47-12.8S302.3,370.6,302.3,377.7z"/>
			<path class="st89" d="M255.3,390.7c-26,0-47.2-5.8-47.2-13s21.2-13,47.2-13s47.2,5.8,47.2,13S281.3,390.7,255.3,390.7z
				 M255.3,365.1c-25.8,0-46.8,5.6-46.8,12.5s21,12.5,46.8,12.5s46.7-5.6,46.7-12.5S281,365.1,255.3,365.1L255.3,365.1z"/>
			<path class="st95" d="M255.3,365.7c-23.6,0-42.7,4.8-42.7,10.7c0,2.3,2.9,4.4,7.7,6.1c7.7,2.8,20.5,4.6,35.1,4.6s27.3-1.8,35-4.6
				c4.8-1.7,7.7-3.8,7.7-6.1C297.9,370.5,278.8,365.7,255.3,365.7L255.3,365.7z"/>
			<path class="st96" d="M255.3,387.4c-14,0-27.1-1.7-35.1-4.6c-5.1-1.8-7.8-4-7.8-6.3c0-6.1,18.9-10.9,42.9-10.9
				s42.9,4.8,42.9,10.9c0,2.3-2.7,4.5-7.8,6.3C282.4,385.7,269.2,387.4,255.3,387.4z M255.3,366c-23.4,0-42.5,4.7-42.5,10.5
				c0,2.1,2.6,4.1,7.5,5.9c8,2.9,21,4.6,35,4.6c14,0,27-1.7,35-4.6c4.9-1.8,7.5-3.8,7.5-5.9C297.8,370.7,278.8,366,255.3,366
				L255.3,366z"/>
			<path class="st96" d="M255.3,387.4c-0.1,0-0.2-0.1-0.2-0.2s0.1-0.2,0.2-0.2c13.9,0,27-1.7,35-4.6c0.1-0.1,0.2,0,0.3,0.1
				c0.1,0.1,0,0.2-0.1,0.3c0,0,0,0-0.1,0C282.4,385.7,269.3,387.4,255.3,387.4L255.3,387.4z"/>
			<path class="st97" d="M220.2,398.2l4.4,28c0.9,0.5,1.7,1.2,2.4,1.9c1.3,1.1,2.7,2.2,4.4,2.2c1.4-0.1,2.7-0.6,3.7-1.6l0.3-0.2
				l-2.4-27.9C233,400.6,226.3,399.4,220.2,398.2L220.2,398.2z"/>
			<path class="st98" d="M224.6,426.2l3.7,23.7c0,0,4.5,2.5,8.4,2.5c0.3,0,0.5,0,0.8,0l-2.1-23.8l-0.3,0.2c-1,0.9-2.3,1.5-3.7,1.6
				c-1.8,0-3.1-1.1-4.4-2.2C226.3,427.4,225.5,426.7,224.6,426.2L224.6,426.2z"/>
			<path class="st99" d="M211.2,375.9c0,0-2.9,7.1,22.3,10.7c0,0,7.7,0.7-0.4,0.6C224,387.2,205.6,381.8,211.2,375.9z"/>
			<path class="st95" d="M290.6,392.5c0,1.4-0.7,2.4-1.6,2.4s-1.6-1.1-1.6-2.4s0.7-2.4,1.6-2.4S290.6,391.2,290.6,392.5z"/>
			<path class="st93" d="M290,382.5l-0.8,0.3c-7,2.1-14.2,3.3-21.5,3.8l-0.4,0.1c-0.4,0.1-0.7,0.1-1,0.2c9.8-0.7,18.3-2.2,24-4.2
				L290,382.5L290,382.5z"/>
			<g>
				<defs>
					<path id="SVGID_9_" d="M208.9,387.6l2.3,0.1c0.9,0.7,1.9,1.2,2.9,1.7c0,0-8.7,39.7,16.5,35.3s55.3-35.1,58.3-34.7s2,3.5,0.4,7
						s-24.6,39.2-61.1,35.5c0,0-15.9,1.5-19.1-13.5S208.9,387.6,208.9,387.6L208.9,387.6z"/>
				</defs>
				<clipPath id="SVGID_10_">
					<use xlink:href="#SVGID_9_"  style="overflow:visible;"/>
				</clipPath>
				<g class="st100">
					<path class="st101" d="M230.6,431c-3.3,0.1-6.7-0.5-9.8-1.7c-17.5-7.1-8.9-40.8-8.5-42.2c0.1-0.5,0.6-0.9,1.1-0.8
						c0.1,0,0.1,0,0.2,0c0.6,0.2,0.9,0.9,0.7,1.5c-0.1,0.3-8.4,33,7.2,39.3c16.9,6.9,52.1-8.7,66.3-34.6c0.2-0.5,0.9-0.7,1.3-0.4
						c0,0,0.1,0,0.1,0.1c0.5,0.4,0.6,1.1,0.3,1.6C277.2,416.1,249.6,431,230.6,431z"/>
					<path class="st102" d="M230.6,431.2c-3.4,0.1-6.7-0.5-9.9-1.7c-17.7-7.1-9-41-8.6-42.5c0.1-0.7,0.8-1.1,1.5-1c0,0,0.1,0,0.1,0
						c0.7,0.3,1.1,1,0.9,1.7c-0.1,0.3-8.3,32.8,7.1,39c3,1.1,6.1,1.7,9.3,1.6c17.8,0,44.5-13.8,56.8-36.1c0.3-0.6,1.1-0.8,1.7-0.5
						c0,0,0.1,0,0.1,0.1c0.6,0.5,0.8,1.3,0.4,1.9C277.1,416.9,249.2,431.2,230.6,431.2z M213.2,386.5c-0.4,0-0.7,0.3-0.8,0.7
						c-0.4,1.4-8.9,34.9,8.4,41.9c3.1,1.2,6.4,1.7,9.7,1.7c18.5,0,46.2-14.2,58.8-37.1c0.3-0.5,0.1-1-0.3-1.3
						c-0.4-0.2-0.8-0.1-1.1,0.2c0,0,0,0.1-0.1,0.1c-12.3,22.4-39.3,36.3-57.2,36.3c-3.2,0.1-6.4-0.5-9.4-1.6
						c-15.8-6.4-7.4-39.2-7.3-39.6c0.1-0.5-0.1-1-0.6-1.2C213.4,386.5,213.3,386.5,213.2,386.5z"/>
					<path class="st37" d="M230.7,430c-3.3,0.1-6.5-0.5-9.6-1.7c-16.7-6.8-8-40.6-8-40.9c0-0.1,0.1-0.1,0.2-0.1
						c0.1,0,0.1,0.1,0.1,0.2c-0.1,0.3-8.7,33.9,7.8,40.6c3,1.1,6.3,1.7,9.5,1.6c18.6,0,45.7-14.6,57.8-36.7c0-0.1,0.1-0.1,0.2-0.1
						c0.1,0,0.1,0.1,0.1,0.2c0,0,0,0,0,0C276.6,415.3,249.4,430,230.7,430z"/>
				</g>
			</g>
			<path class="st103" d="M217.4,423.6c0,0,4.8,4.8,14.4,4.1l1.3,0.7c-0.6,0.2-0.9,0.9-0.7,1.5c0.2,1.2,1,1.3,1,1.3l-0.7,0.8
				c0,0-10.8,1.9-17.8-4.9l0.1-1C215.3,424.9,216.2,423.9,217.4,423.6z"/>
			<path class="st104" d="M229.3,432.5c-4.2,0-10.1-0.9-14.6-5.2c-0.1-0.1-0.1-0.2-0.1-0.3l0.1-1c0.3-1.3,1.3-2.4,2.6-2.7
				c0.1,0,0.2,0,0.3,0.1c0,0,4.2,4.1,12.4,4.1c0.6,0,1.2,0,1.8-0.1c0.1,0,0.1,0,0.2,0l1.3,0.7c0.1,0.1,0.2,0.2,0.2,0.3
				c0,0.1-0.1,0.2-0.2,0.3c-0.1,0-0.6,0.3-0.5,1.1s0.7,1,0.7,1c0.2,0,0.3,0.2,0.2,0.4c0,0,0,0.1-0.1,0.1l-0.7,0.8
				c0,0-0.1,0.1-0.2,0.1C231.6,432.4,230.4,432.5,229.3,432.5z M215.2,427c4.3,4,10,4.9,14.1,4.9c1.1,0,2.2-0.1,3.3-0.2l0.4-0.4
				c-0.4-0.3-0.7-0.8-0.8-1.4c-0.1-0.5,0-1.1,0.4-1.5l-0.8-0.4c-0.6,0-1.2,0.1-1.8,0.1c-7.7,0-11.9-3.5-12.6-4.2
				c-1,0.3-1.8,1.2-2,2.2L215.2,427z"/>
			<path class="st105" d="M216.8,424.9c3.5,2.6,7.8,4.1,12.2,4.3c6.9,0.1-1.9,3.1-8.5,0.1S216.5,424.9,216.8,424.9z"/>
			<path class="st106" d="M290.3,382.6c-7.7-2.8-20.5-4.6-35-4.6s-27.3,1.8-35.1,4.6c7.7,2.8,20.5,4.6,35.1,4.6
				S282.6,385.4,290.3,382.6z"/>
			<path class="st106" d="M255.3,387.2c14.5,0,27.3-1.8,35-4.6L255.3,387.2L255.3,387.2z"/>
			<path class="st107" d="M252.5,378.3c-12.8,0.1-24.1,1.7-30.9,4.2c4.9,1.6,10,2.7,15.2,3.3c3.3-5.5,15.7-7.2,15.7-7.2L252.5,378.3
				L252.5,378.3z"/>
			<path class="st108" d="M274,379.3c3.5,1.1,7.1,3,0.9,5.3l14.3-1.9l0.4-0.1C284.5,381,279.3,379.9,274,379.3z"/>
			<path class="st109" d="M272.7,378.9c0.4,0.1,0.9,0.2,1.3,0.4c5.3,0.6,10.5,1.7,15.6,3.3l-0.4,0.1l0,0l0.8-0.3
				C284.4,380.7,278.6,379.5,272.7,378.9L272.7,378.9z"/>
			<path class="st108" d="M289.2,382.7L289.2,382.7l-14.3,1.9c-2.4,0.8-4.8,1.4-7.2,1.9C275,386,282.2,384.8,289.2,382.7z"/>
			<path class="st110" d="M273.1,203.5c2.8,4.4,40.7,10.5,50.6,16.8c11.7,7.4,3.3-7,0.9-11.7c-1.5-2.9-4.1-5.1-7.2-6.1
				c0,0,0.7,4.5,4.3-0.5s-6.9-11-15.2-12.5c-13.4-2.4-62.1,0.8-49.3,3.4C276.3,196.7,270.3,199.2,273.1,203.5z"/>
			<path class="st111" d="M315.6,187.4c0,0-8.2-1.5-8.8,0.5c-1.8,5.8,2.4,5.6,8,4c0,0,1.1,3.5,5.8,6.9"/>
			<path class="st112" d="M315.6,187.4c-1.8-0.2-3.6-0.3-5.4-0.3c-0.9,0-1.7,0.1-2.5,0.4c-0.2,0.1-0.3,0.2-0.5,0.3
				c-0.1,0.1-0.2,0.3-0.2,0.5c-0.1,0.4-0.2,0.8-0.3,1.3c-0.2,0.8,0,1.6,0.5,2.3c0.6,0.5,1.4,0.8,2.2,0.7c1.8-0.1,3.5-0.4,5.2-0.9
				l0.3-0.1l0.1,0.3c0.3,0.7,0.6,1.4,1,2c0.4,0.6,0.8,1.3,1.3,1.8c0.5,0.6,1,1.1,1.5,1.7c0.5,0.5,1.1,1,1.7,1.5
				c-0.6-0.4-1.3-0.9-1.8-1.4c-0.6-0.5-1.1-1-1.7-1.6c-0.5-0.6-1-1.2-1.4-1.8c-0.5-0.6-0.8-1.3-1.1-2.1l0.4,0.2
				c-1.7,0.6-3.6,0.9-5.4,1c-0.5,0-1,0-1.4-0.2c-0.2-0.1-0.5-0.2-0.7-0.3c-0.2-0.1-0.4-0.3-0.6-0.5c-0.6-0.8-0.8-1.8-0.6-2.8
				c0.1-0.5,0.2-0.9,0.3-1.4c0-0.1,0.1-0.2,0.1-0.4c0.1-0.1,0.1-0.3,0.3-0.4c0.2-0.2,0.4-0.3,0.7-0.4c0.9-0.3,1.8-0.4,2.8-0.3
				C312.1,186.7,313.9,187,315.6,187.4z"/>
		</g>
	</g>
	
		<radialGradient id="SVGID_11_" cx="3171.394" cy="667.8075" r="65.382" gradientTransform="matrix(3.67 0 0 -3.48 -11399.5596 2577.76)" gradientUnits="userSpaceOnUse">
		<stop  offset="0" style="stop-color:#FFFFFF"/>
		<stop  offset="0.43" style="stop-color:#D3F9FC"/>
	</radialGradient>
	<path class="st113" d="M488.9,253.8c0,125.8-107.5,227.7-240.2,227.7S8.5,379.6,8.5,253.8S116,26.1,248.7,26.1
		S488.9,128,488.9,253.8z"/>
	<path class="st114" d="M262.5,457.2c-132.6,0-240.2-102-240.2-227.7c0-32.5,7.3-64.6,21.3-93.9c-2.6,3.9-5.1,7.8-7.5,11.8
		c-20,33.6-30.5,72-30.5,111.1c0,125.8,107.5,227.7,240.2,227.7c97.3,0,181.1-54.9,218.9-133.9C422.1,415.4,347.5,457.2,262.5,457.2
		z"/>
	<path class="st115" d="M71.3,171.6c9.6-35.2,38.3-69.2,97.3-90.6c6.6-2.4,10-9.8,7.5-16.4c-0.6-1.7-1.7-3.3-3-4.6l-1.1-1.1
		c-3.3-3.3-8.2-4.5-12.7-3.2C137.2,62.3,79.7,95,60.8,168.8c-0.6,2.2,0.4,4.6,2.3,5.8l0.1,0.1c2.5,1.6,5.8,0.9,7.4-1.6
		C70.9,172.7,71.2,172.1,71.3,171.6z"/>
	<circle class="st115" cx="63.1" cy="190.5" r="8.1"/>
</g>
</svg>
