<?xml version="1.0" encoding="utf-8"?>
<!-- Generator: Adobe Illustrator 25.2.3, SVG Export Plug-In . SVG Version: 6.00 Build 0)  -->
<svg version="1.1" id="Layer_1" xmlns="http://www.w3.org/2000/svg" xmlns:xlink="http://www.w3.org/1999/xlink" x="0px" y="0px"
	 viewBox="0 0 510 510" style="enable-background:new 0 0 510 510;" xml:space="preserve">
<style type="text/css">
	.st0{opacity:0.3;enable-background:new    ;}
	.st1{opacity:0.91;fill:url(#SVGID_1_);enable-background:new    ;}
	.st2{clip-path:url(#SVGID_3_);}
	.st3{opacity:0.29;fill:#932216;enable-background:new    ;}
	.st4{fill:none;stroke:#F4F2F2;stroke-width:0.5;stroke-miterlimit:10;}
	.st5{fill:none;}
	.st6{fill:#62D739;}
	.st7{fill:url(#SVGID_4_);}
	.st8{fill:url(#SVGID_5_);}
	.st9{fill:url(#SVGID_6_);}
	.st10{fill:#80E559;}
	.st11{opacity:0.5;fill:url(#SVGID_7_);enable-background:new    ;}
	.st12{fill:#73DD47;}
	.st13{opacity:0.3;}
	.st14{fill:#84E75A;}
	.st15{opacity:0.31;}
	.st16{fill:#5F8337;}
	.st17{opacity:0.5;fill:#5F8337;enable-background:new    ;}
	.st18{fill:#2BB51C;}
	.st19{fill:#1C8E16;}
	.st20{fill:#709B6D;}
	.st21{fill:#CC773E;}
	.st22{fill:#904E27;}
	.st23{fill:#7C3F29;}
	.st24{fill:#8C4D23;}
	.st25{fill:#723B17;}
	.st26{opacity:0.61;}
	.st27{fill:#666666;}
	.st28{fill:#1A1A1A;}
	.st29{fill:#E6E6E6;}
	.st30{fill:#C93140;}
	.st31{fill:#439C3D;}
	.st32{fill:#308C1F;}
	.st33{fill:#176713;}
	.st34{fill:#4FB62B;}
	.st35{opacity:0.22;enable-background:new    ;}
	.st36{fill:#218B8E;stroke:#0C4C4C;stroke-miterlimit:10;}
	.st37{fill:#D67F42;}
	.st38{fill:#C1723D;}
	.st39{fill:#FB975B;}
	.st40{fill:#934B1B;}
	.st41{fill:#699A59;}
	.st42{fill:#27423A;}
	.st43{fill:#9DBF6A;}
	.st44{fill:none;stroke:#27423A;stroke-width:0.5;stroke-miterlimit:10;}
	.st45{fill:#F9D1C6;stroke:#897F33;stroke-miterlimit:10;}
	.st46{fill:#FFC102;stroke:#916E0C;stroke-miterlimit:10;}
	.st47{fill:#EF852E;stroke:#60561A;stroke-miterlimit:10;}
	.st48{fill:#A32F07;}
	.st49{fill:#F9D1C6;}
	.st50{fill:#897F33;}
	.st51{fill:#D3978C;}
	.st52{fill:#FFFFFF;}
	.st53{fill:#4F4726;}
	.st54{fill:#2B2716;}
	.st55{fill:#240D00;}
	.st56{fill:#F5968E;}
	.st57{fill:#721F33;}
	.st58{fill:#F4EDEF;}
	.st59{fill:#E03859;}
	.st60{fill:#D26653;}
	.st61{fill:#F5AD03;}
	.st62{fill:#BC8E0C;stroke:#916E0C;stroke-miterlimit:10;}
	.st63{fill:#6B4C08;}
	.st64{fill:#442F06;}
	.st65{fill:#990E5A;}
	.st66{fill:#AD840E;stroke:#916E0C;stroke-miterlimit:10;}
	.st67{fill:#EFC54D;stroke:#916E0C;stroke-miterlimit:10;}
	.st68{fill:#C14489;}
	.st69{fill:url(#SVGID_8_);}
	.st70{fill:url(#SVGID_9_);}
	.st71{fill:url(#SVGID_10_);}
	.st72{fill:url(#SVGID_11_);}
	.st73{fill:#E9F1F4;stroke:#AF3A75;stroke-miterlimit:10;}
	.st74{fill:#73D3F4;stroke:#AF3A75;stroke-miterlimit:10;}
	.st75{fill:#D5F0F7;stroke:#AF3A75;stroke-miterlimit:10;}
	.st76{fill:none;stroke:#897F33;stroke-miterlimit:10;}
	.st77{opacity:0.1;fill:url(#SVGID_12_);enable-background:new    ;}
	.st78{opacity:0.5;fill:#4ECECE;enable-background:new    ;}
	.st79{opacity:0.6;fill:#FDFFFF;enable-background:new    ;}
</style>
<ellipse class="st0" cx="263.3" cy="261.8" rx="241.2" ry="242.8"/>
<g id="_01-2">
	
		<radialGradient id="SVGID_1_" cx="-6169.1348" cy="55.5909" r="847.215" gradientTransform="matrix(0.33 0 0 -0.33 2286.23 266.61)" gradientUnits="userSpaceOnUse">
		<stop  offset="0" style="stop-color:#FFFFFF"/>
		<stop  offset="0.61" style="stop-color:#D3F9FC"/>
		<stop  offset="0.93" style="stop-color:#48E5FF"/>
	</radialGradient>
	<path class="st1" d="M489.8,248.3c0,133.5-107.9,241.7-241.1,241.7S7.6,381.7,7.6,248.3S115.5,6.6,248.7,6.6
		S489.8,114.8,489.8,248.3z"/>
	<g>
		<defs>
			<ellipse id="SVGID_2_" cx="246.2" cy="246.6" rx="240.7" ry="241.1"/>
		</defs>
		<clipPath id="SVGID_3_">
			<use xlink:href="#SVGID_2_"  style="overflow:visible;"/>
		</clipPath>
		<g class="st2">
			<path class="st3" d="M323.5,159.9c0,0,90.5,24.3,129.8,47.8s91.4,42.5,91.4,42.5l-134.4-0.8L323.5,159.9z"/>
			<line class="st4" x1="431.1" y1="315.2" x2="483.5" y2="315.2"/>
			<line class="st4" x1="430.6" y1="316.2" x2="483" y2="316.2"/>
			<line class="st4" x1="430.1" y1="317.2" x2="482.5" y2="317.2"/>
			<line class="st4" x1="430.1" y1="318.2" x2="482.5" y2="318.2"/>
			<line class="st4" x1="429.6" y1="319.2" x2="481.9" y2="319.2"/>
			<line class="st4" x1="429.1" y1="320.2" x2="481.4" y2="320.2"/>
			<line class="st4" x1="429.1" y1="321.2" x2="481.4" y2="321.2"/>
			<line class="st4" x1="428.6" y1="322.2" x2="480.9" y2="322.2"/>
			<line class="st5" x1="407" y1="280.1" x2="513.8" y2="279.2"/>
			<path class="st6" d="M497.3,378.7c0,0,6.6,0.9,1,3.9l3-1l0,0c0,0,3.1-1.3,3-2.9S497.3,378.7,497.3,378.7z"/>
			
				<linearGradient id="SVGID_4_" gradientUnits="userSpaceOnUse" x1="146.0844" y1="-52.6789" x2="270.9444" y2="564.6111" gradientTransform="matrix(1 0 0 -1 0 512)">
				<stop  offset="0.2" style="stop-color:#C5F7FD"/>
				<stop  offset="0.34" style="stop-color:#B3F0FD"/>
				<stop  offset="0.66" style="stop-color:#8EE1FD"/>
				<stop  offset="0.83" style="stop-color:#80DBFD"/>
			</linearGradient>
			<rect x="-176.6" y="-7.8" class="st7" width="815.6" height="303.3"/>
			
				<linearGradient id="SVGID_5_" gradientUnits="userSpaceOnUse" x1="463.0109" y1="415.1392" x2="495.8209" y2="447.9792" gradientTransform="matrix(1 0 0 -1 0 512)">
				<stop  offset="0.17" style="stop-color:#83DCFD"/>
				<stop  offset="0.9" style="stop-color:#D7EEF4"/>
			</linearGradient>
			<path class="st8" d="M462.6,78.3c0,0,0.6-4.8,9-8.2s15.3-5.1,22.5-1.3s5.7,12.5,4.1,13.5c-3,2-9.4,4.6-26.4,2
				C461.5,82.9,462.6,78.3,462.6,78.3z"/>
			
				<linearGradient id="SVGID_6_" gradientUnits="userSpaceOnUse" x1="-10.3372" y1="432.2972" x2="12.5228" y2="455.1672" gradientTransform="matrix(1 0 0 -1 0 512)">
				<stop  offset="0.17" style="stop-color:#83DCFD"/>
				<stop  offset="0.9" style="stop-color:#D7EEF4"/>
			</linearGradient>
			<path class="st9" d="M-10.6,66.8c0,0,0.5-3.4,6.2-5.7s10.6-3.6,15.6-0.9s4,8.7,2.9,9.4C12.1,71,7.6,72.8-4.3,71
				C-11.4,70-10.6,66.8-10.6,66.8z"/>
			<polygon class="st10" points="-170.2,335.4 655.5,318 655.5,478.1 -170.2,478.1 			"/>
			
				<linearGradient id="SVGID_7_" gradientUnits="userSpaceOnUse" x1="21.925" y1="184.39" x2="21.925" y2="200.13" gradientTransform="matrix(1 0 0 -1 0 512)">
				<stop  offset="0" style="stop-color:#09170A"/>
				<stop  offset="0.58" style="stop-color:#2D550C"/>
				<stop  offset="1" style="stop-color:#16623E"/>
			</linearGradient>
			<path class="st11" d="M-157.1,316.7c13.8,0.2,27.5,1,41.3,1.1c17,0.1,33.9-1.1,50.9-0.6c9.6,0.3,19.2,0.7,28.9,0.9
				c8.7,0.2,17.4,0.1,26.1,0.5c17.8,0.8,35.1,2.8,52.7,4.1c37.4,2.7,75.4,3.1,113.4,3.7c13.7,0.2,27,0,40.5-0.4
				c2.3-0.4,5-0.5,7.5-0.6c4.2-0.2,8.5-0.3,12.7-0.3c-2.3,0-4.4-0.1-5.9-0.1c-14.4,0-45.5,1.2-62.3,0.6s-24,0-47.9-0.9
				s-51.9-3.3-68.7-3.9s-35.9-3-51.1-3.3s-27.1,0.6-48.7-0.6s-41.5,0.9-63.9-0.3c-15.1-0.8-31.4-1.6-41.5-2.1v2.4
				C-167.7,316.6-162.3,316.6-157.1,316.7z"/>
			<path class="st12" d="M490.7,204.5c-26.8,7-54.3,18.2-81.2,20c-35.3,2.4-70.3,10.6-105.7,12.5c-36.3,2-71.4,1.5-107.7-2.7
				c-31.4-3.6-62.9-0.4-94.3-3.9c-32.2-3.7-63.8-16.3-96-19.6c-23.1-2.3-46.1-5.9-68.8-10.8c-19-4.1-37.3-14.7-56.2-18.7
				c-18-3.9-36.7-10.5-54.8-11.1v370.7h812.9V152.1c-23.2,7.2-45.7,16.3-67.4,27.2C545.3,192.4,517.5,197.6,490.7,204.5z"/>
			<g class="st13">
				<path class="st14" d="M579.2,271.4c-2.8,1.9-5.7,3.8-8.6,5.7c-11.7,7.5-24.3,13.5-37.5,17.8c-27.9,8.9-58.7,8.9-85.7,20.1
					c16.3,2.3,33,1.2,49.4-0.2c11.4-0.9,22.9-1.6,34.3-2.5c8.9-0.7,17.8-1.5,26.7-1.6c6.6,0,15.9-0.5,21.5,3.2
					c4.5,2.9,2.9,7.5-0.1,10.8c-4.8,5.4-12,9.3-18.8,12.6c-9.1,4.4-18.7,8-28.4,10.8c-9.4,2.9-19,4.7-28.8,5.5
					c-6.5,0.4-14.3,0.4-19.7-3.2c-0.3-0.2-0.4-0.5-0.1-0.8c6-6.3,17.6-6.3,22.8-13.2c-12.7-4.5-27.9-2.1-41.1-0.9
					c-16.6,1.4-33.3,3.3-50,3.7c-35.5,1-70.3-7.7-105.8-7.1c-18.4,0.3-36.9,1.1-55.3,1.3c-18.3,0.2-36.5,0.1-54.8-0.4
					c-13.4-0.4-27-0.1-40.4-1c-11.8-0.8-24.8-2.2-34.6-8.5c-0.2-0.1-0.3-0.4-0.2-0.6c0.1-0.1,0.2-0.2,0.4-0.3
					c1.1-0.3,2.2-0.6,3.4-0.8c7.8-1.2,15.6-0.3,23.4,0c8.8,0.3,17.6-0.6,26.4-1.4s17.8-1.9,26.7-2.5c4.3-0.3,8.5-0.4,12.8-0.4
					c-7.4-0.4-14.9-0.9-22.4-1.6c-31.4-2.7-62.9-0.3-94.3-2.9c-32.2-2.8-63.9-12.2-96-14.6c-23.2-1.8-45.8-4.4-68.8-8.1
					c-19-3-37.3-11-56.2-14c-18-2.9-36.7-7.8-54.8-8.3v6.5c3.7,0.3,7.4,0.6,11,1.1c34.8,4.3,68.1,14.9,101.8,23
					c8.4,2,16.9,3.9,25.5,5.2c8,1.2,16.2,1.9,24.3,2.1c13.3,0.6,27.9,1.2,39.4,7.6c0.2,0.1,0.3,0.4,0.2,0.6c0,0.1-0.1,0.2-0.2,0.2
					c-6.8,3-14.5,4.1-22,4.5c-14.3,0.7-28.6-0.7-42.9-0.7c-16.3,0-32.2,3.4-48,6.6c-8.9,1.8-17.8,4-26.8,5.4
					c-5.8,0.9-11.7,1.3-17.5,2.1c-6.3,0.9-12.9,1.9-18.5,4.6c-1.5,0.7-3,1.5-4.3,2.5c-1.1,0.9-1.2,0.9-0.2,1.9
					c1.2,1.2,2.7,2.3,4.2,3.1c8.5,4.4,19.4,5,29.1,5.4c10.8,0.4,21.5,0.1,32.3,0c9.5-0.1,18.9,0.8,28.4,1.1
					c11.5,0.3,25.3,0.2,35.2,6c0.2,0.1,0.3,0.4,0.2,0.6c0,0,0,0,0,0c-2.6,4.2-6.6,4.9-11.7,5.3c-4.6,0.4-9.2,1.5-13.8,2.2
					c-4,0.6-7.9,1.1-11.9,1.5c-9,1-18,1.6-27.1,2.3c-18.4,1.3-36.6,3.5-54.8,6c-10.6,1.5-21.2,2.9-31.9,3.7v166.3h813.1V254.4
					C617.8,259,598.3,264.6,579.2,271.4z"/>
			</g>
			<g class="st15">
				<path class="st16" d="M642.9,394.2c-7.7,2.2-16.2,4.4-22.7,8c-1.5,0.8-4,2.1-3.8,3.6c0.4,2.6,5.5,4.6,8.4,5.9
					c6.1,2.7,17.1,6.7,14.1,12.7c-1.5,3.1-6.2,4.5-10.6,5.2c-6.7,1.1-13.7,2-20.5,2.8c-35.6,4.4-71.9,4.8-108.1,4.8h-56.2
					c-8.2,0-16.5,0.2-24.7,0c-7-0.1-14.1-0.6-20.5-2.6c-0.4-0.1-0.4-0.5,0-0.7c20-7.3,44.2-8,66.4-8.5c7.3-0.2,14.6-0.3,22-0.5
					c8.3-0.3,16.5-0.9,24.8-1.4c9.3-0.6,18.6-1.1,27.9-1.7c8.5-0.5,17.1-1.3,25.7-1.6c6.5-0.2,13.8-0.2,19.8-2.3
					c1.6-0.5,3.2-1.2,4.6-2.1c1.5-1.1,1.1-1.6-1-2c-3-0.5-6-0.7-9-0.5c-6.4,0.3-12.7,1.3-19.1,1.8c-9.4,0.7-18.8,1-28.2,1
					c-18.8,0-37.7-0.9-56.5-0.9c-17.1-0.1-34.1,0.2-51.2,0.6c-9.6,0.6-19.2,1.6-28.7,3c-8.9,1.4-17.7,3.4-26.6,4.8
					c-8.5,1.4-17.2,2.6-25.9,3.4c-17.4,1.5-35.2,1.2-52.6,0.5c-13.3-0.5-26.5-1.5-39.5-3.3c-37.5-1.5-75.1-4.1-112.5-1.6
					c14.8,3.4,30.6,4.6,46.1,5.4c14.8,0.7,29.6,1.4,44.4,1.6c14.5,0.3,29.1-0.1,43.6,0.6c13.1,0.6,26.7,2,38.3,6.3
					c0.4,0.2,0.4,0.5,0,0.7c-8.4,4.1-20.1,4.7-30.1,4.9c-12,0.3-24.1-0.4-36.1-0.9c-15.3-0.7-30.7-0.6-46.1-0.7c-18-0.2-36-0.5-54-1
					c-19-0.6-37.8-1.8-56.7-3.3c-18.6-1.4-37.3-2.8-56.1-3s-37.4,0-56.1-0.3c-7.9-0.1-15.8-0.1-23.7-0.3c-5.9-0.2-12.1-0.6-16.8-3.2
					c-0.2-0.1-0.2-0.3-0.1-0.4c0-0.1,0.1-0.1,0.1-0.1c6.4-4.4,16.8-5.5,25.6-6.1c12.1-0.8,24.3-0.5,36.4-0.3
					c14.6,0.2,29.3,0.1,43.9,0.2c9.5,0,19.1,0.1,28.6,0c7.2-0.1,14.4-0.4,21.7-0.1c6.5,0.2,13,0.5,19.5,0.2c6-0.3,12.5-0.9,17.5-3.3
					c-20.3-4.3-41.6-5.9-62.8-6.7s-42.3-1.1-63.4-2.2c-19.1-0.9-38.1-3.2-57.2-3.8c-8.9-0.3-18,0.4-26.9,0.7
					c-10.8,0.3-21.8,0.7-32.6-0.3c-5.7-0.5-14.6-1.3-17.1-5.4c-0.1-0.1,0-0.3,0.1-0.4c11.2-6,27.7-6.5,41.4-7.5
					c19.1-1.3,37.9-4.2,57-5.6c8.3-0.6,16.1-1.3,23.8-3.7c6.1-1.9,11.8-4,18.3-5.1s14.6-1.8,19.9-4.9c0.9-0.5,0.6-0.5-0.2-0.9
					c-0.6-0.3-1.1-0.6-1.7-0.9c-1-0.5-2-0.8-3-1.1c-2.4-0.7-4.8-1.2-7.3-1.4C5.5,369.1-6.4,370.7-18,371c-10,0.3-21-0.2-28.4-5.2
					c-0.3-0.2-0.2-0.5,0.1-0.6c6.1-2.9,13.9-4,21.2-4.8c8.2-0.9,16.4-1.3,24.6-1.9c7.6-0.6,15.1-1.4,22.7-1.9
					c9.1-0.7,18.3-1.3,27.2-2.7c6.5-0.9,12.9-2.4,19-4.6c3.9-1.6,11.2-4.6,10.8-8.2c-0.1-0.5-0.3-1-0.6-1.5
					c-22.2-3-44.3-6.8-66.7-8.1c-24-1.4-47.3-3.4-71.2-6.4c-19.7-2.4-38.5-8.6-58.1-11c-18.6-2.3-38-6.2-56.7-6.6v5.1
					c3.8,0.2,7.6,0.5,11.4,0.9c36,3.4,70.4,11.8,105.3,18.1c8.7,1.6,17.5,3.1,26.4,4.1c8.4,1,16.7,1.4,25.1,1.7
					c13.7,0.4,28.8,1,40.8,6c0.3,0.1,0.4,0.5,0,0.7c-7,2.4-15,3.2-22.8,3.5c-14.8,0.6-29.6-0.5-44.4-0.5c-16.8,0-33.3,2.6-49.7,5.2
					c-9.2,1.4-18.4,3.1-27.7,4.3c-6,0.7-12.1,1-18.1,1.7c-6.5,0.7-13.4,1.5-19.2,3.6c-1.5,0.5-3,1.2-4.4,2c-1.2,0.7-1.3,0.7-0.2,1.5
					c1.3,1,2.8,1.8,4.4,2.4c8.8,3.4,20.1,4,30.1,4.3c11.1,0.3,22.3,0.1,33.4,0c9.8,0,19.6,0.6,29.4,0.8c11.9,0.2,26.1,0.1,36.5,4.7
					c0.3,0.1,0.4,0.3,0.2,0.5c-2.7,3.3-6.9,3.8-12.1,4.2c-4.8,0.3-9.5,1.2-14.3,1.8c-4.1,0.5-8.2,0.9-12.3,1.2
					c-9.3,0.8-18.7,1.3-28,1.8c-19.1,1-37.8,2.7-56.7,4.8c-11,1.2-22,2.3-33,3v131h841.2v-138C659,389.8,650.9,391.9,642.9,394.2z"
					/>
			</g>
			<path class="st17" d="M251.4,339.2c-0.9,0-2.1,0-3.3,0.1c-2.3,0.1-4.4,0.4-4.9,0.9c-0.1,0.1,0,0.1,0.1,0.2c2.3,1,6.8,0.7,9.9,0.6
				c1.1,0,7.4-0.1,7-1S253.1,339.2,251.4,339.2z"/>
			<path class="st17" d="M288.7,335.7c-0.8-0.7-5.4-0.4-6.9-0.4c-0.6,0-2.1,0-3.3,0.1l-1,0c-0.6,0-2.7,0.4-1.6,0.8
				c1.6,0.3,3.2,0.5,4.8,0.4c1.6,0,3.2-0.1,4.8-0.2c0.9,0,1.9-0.2,2.8-0.4C288.6,336,288.8,335.8,288.7,335.7z"/>
			<path class="st17" d="M32.1,366.1c-0.9,0-2.1,0-3.3,0.1c-2.3,0.1-4.4,0.4-4.9,0.9c-0.1,0.1,0,0.1,0.1,0.2c2.3,1,6.8,0.7,9.9,0.6
				c1.1,0,7.4-0.1,7.1-1.1S33.9,366.1,32.1,366.1z"/>
			<path class="st17" d="M69.7,368.9c-0.8-0.7-5.4-0.4-6.9-0.4c-0.6,0-2.1,0-3.3,0.1l-1,0c-0.7,0-2.7,0.4-1.6,0.7
				c1.6,0.3,3.2,0.5,4.8,0.4c1.6,0,3.2-0.1,4.8-0.2c0.9,0,1.9-0.2,2.8-0.4C69.6,369.2,69.9,369.1,69.7,368.9z"/>
			<path class="st17" d="M271.5,371.5c-0.6,0-1.5,0-2.3,0.1c-1.6,0.1-3.1,0.3-3.4,0.6c0,0,0,0.1,0,0.1c1.6,0.7,4.8,0.5,6.9,0.4
				c0.8,0,5.2-0.1,4.9-0.7S272.8,371.5,271.5,371.5z"/>
			<path class="st17" d="M297.8,373.5c-0.5-0.5-3.8-0.3-4.8-0.3c-0.5,0-1.5,0-2.3,0.1H290c-0.5,0-1.9,0.3-1.1,0.5
				c1.1,0.2,2.2,0.3,3.3,0.3c1.1,0,2.3,0,3.4-0.1c0.7,0,1.3-0.1,2-0.3C297.7,373.7,297.9,373.6,297.8,373.5z"/>
			<path class="st17" d="M411.3,374.8c0,0.9-13,1.7-29,1.7s-29-0.8-29-1.7s13-1.7,29-1.7S411.3,373.9,411.3,374.8z"/>
			<path class="st18" d="M451.9,353.9c0,0,3.7-2.8,10.8-3.5s-7.6-3.6-12.9,3.5C449.8,353.9,447.5,357.1,451.9,353.9z"/>
			<path class="st18" d="M442,354.3c0,0,10.8-8.9,17-11.2s-6-2.6-14.4,4.8C444.6,347.9,440.4,352.4,442,354.3z"/>
			<path class="st18" d="M438.8,354.3c0,0,7.2-14.3,10.4-16.2s-5.1-2.8-10.4,9C438.8,347.1,436.7,353.4,438.8,354.3z"/>
			<path class="st18" d="M435,354.3c0,0,2.8-13.2,5.4-15.2S430.4,341.3,435,354.3z"/>
			<path class="st18" d="M433.5,354.3c0,0,0.1-11-5.5-12.7S431.2,348.8,433.5,354.3z"/>
			<path class="st18" d="M431.6,354.3c0,0-4.5-4.5-13.2-4.8S426.2,346.1,431.6,354.3z"/>
			<path class="st18" d="M430.9,354.3c-3.3-3.3-7.9-5-12.5-4.7C410.5,350,429,352.8,430.9,354.3z"/>
			<path class="st19" d="M-176.3,237.9c98.3,4,152.2,4.3,204.4,5.6c179.3,4.5,175.1-3.8,274.9,1.9c65.2,3.7,170.8-5.9,235.9-1
				c11.9,0.9,38,3.1,92.4,2c5.3-0.1,4.5,7.4,5.8,1.6c2.8-13.1,2.4-0.2,2.3,1c-0.3,6.8-2.5,2.2-2.1,5.5l-809.1,0.5L-176.3,237.9z"/>
			<path class="st20" d="M-193.3,179.7c-0.4-6-14.5-11-5-15.5c17.6-8.5,56.1-11,102-5.5c85.2,10.3,121.6-6,203.3,6.4
				c14.6,2.2,26.1,3.9,48.3,2.7c28.4-1.6,8.1,4.5,72.2-3.5c14.7-1.9,29.5-1.2,43.9,2c31.3,6.9,68.2-1,97,2
				c12.7,1.3,99.8-8.8,107.1-9.5c159.1-16.6,157.4,13.3,157.2,14.9c0,0,8.7,0.8,17.4,1.1h0.1c0,0-7.9,49.1-7.9,49.1h-801.6
				L-193.3,179.7z"/>
			<polygon class="st21" points="-172.6,201.4 -172.6,246.8 208.8,246.8 208.8,203.7 			"/>
			<rect x="-172.6" y="197.6" class="st22" width="381.3" height="7.1"/>
			<rect x="-172.6" y="194.1" class="st21" width="381.3" height="7.1"/>
			<rect x="46.4" y="213.3" class="st23" width="7.1" height="3.9"/>
			<rect x="50" y="218.2" class="st23" width="7.1" height="3.9"/>
			<rect x="118" y="215.3" class="st23" width="7.1" height="3.9"/>
			<rect x="121.6" y="220.2" class="st23" width="7.1" height="3.9"/>
			<rect x="76.8" y="223.7" class="st23" width="7.1" height="3.9"/>
			<rect x="80.3" y="228.6" class="st23" width="7.1" height="3.9"/>
			<rect x="186.3" y="215.3" class="st23" width="7.1" height="3.9"/>
			<rect x="189.8" y="220.2" class="st23" width="7.1" height="3.9"/>
			<polygon class="st21" points="639.1,200.2 639.1,246.4 202.7,244.8 202.7,202.5 			"/>
			<rect x="202.7" y="200.2" class="st24" width="436.4" height="4"/>
			<rect x="208.8" y="193.2" class="st21" width="430.3" height="7.9"/>
			<rect x="488" y="211.4" class="st25" width="8.2" height="3.8"/>
			<rect x="483.9" y="216.2" class="st25" width="8.2" height="3.8"/>
			<rect x="461.8" y="226.4" class="st25" width="8.2" height="3.8"/>
			<rect x="457.7" y="231.2" class="st25" width="8.2" height="3.8"/>
			<rect x="380.3" y="211.9" class="st25" width="8.2" height="3.8"/>
			<rect x="376.2" y="216.7" class="st25" width="8.2" height="3.8"/>
			<rect x="298.4" y="213.8" class="st25" width="8.2" height="3.8"/>
			<rect x="294.3" y="218.6" class="st25" width="8.2" height="3.8"/>
			<rect x="345.6" y="222.1" class="st25" width="8.2" height="3.8"/>
			<rect x="341.5" y="226.9" class="st25" width="8.2" height="3.8"/>
			<rect x="220.3" y="213.8" class="st25" width="8.2" height="3.8"/>
			<rect x="216.2" y="218.6" class="st25" width="8.2" height="3.8"/>
			<rect x="505.9" y="225.9" class="st25" width="8.2" height="3.8"/>
			<g class="st26">
				<path class="st27" d="M77.5,183h-5.2v-2.4c0.5-0.2,0.8-0.7,0.8-1.2c-0.1-0.8-0.9-1.4-1.7-1.3c-0.6,0.1-1.1,0.6-1.3,1.3
					c0,0.5,0.3,1,0.8,1.2v2.4h-44v-2.4c0.5-0.2,0.8-0.7,0.8-1.2c-0.1-0.8-0.9-1.4-1.7-1.3c-0.6,0.1-1.1,0.6-1.3,1.3
					c0,0.5,0.3,1,0.8,1.2v2.4h-44v-2.4c0.5-0.2,0.8-0.7,0.8-1.2c0-0.8-0.7-1.5-1.5-1.4c-0.8,0-1.5,0.6-1.5,1.4c0,0,0,0,0,0
					c0,0.5,0.3,1,0.8,1.2v2.4h-44v-2.4c0.5-0.2,0.8-0.7,0.8-1.2c0-0.8-0.7-1.5-1.5-1.4c0,0,0,0,0,0c-0.8,0-1.5,0.6-1.5,1.4
					c0,0.5,0.3,1,0.8,1.2v2.4h-43.9v-2.4c0.5-0.2,0.8-0.7,0.8-1.2c0-0.8-0.7-1.5-1.5-1.4c-0.8,0-1.5,0.6-1.5,1.4
					c0,0.5,0.3,1,0.8,1.2v2.4h-44v-2.4c0.5-0.2,0.8-0.7,0.8-1.2c0-0.8-0.7-1.5-1.5-1.4c-0.8,0-1.5,0.6-1.5,1.4c0,0,0,0,0,0
					c0,0.5,0.3,1,0.8,1.2v2.4h-44v-2.4c0.5-0.2,0.8-0.7,0.8-1.2c0-0.8-0.7-1.5-1.5-1.4c0,0,0,0,0,0c-0.8,0-1.5,0.6-1.5,1.4
					c0,0.5,0.3,1,0.8,1.2v2.4h-29.6v2.1h29.6v9.3h1.5v-9.3h44v9.3h1.5v-9.3h44v9.3h1.5v-9.3h44v9.3h1.5v-9.3h44v9.3h1.5v-9.3h44v9.3
					h1.5v-9.3h43.9v9.3h1.5v-9.3h5.2V183z"/>
				<path class="st28" d="M-17.9,184.4V183h-0.8v-2.4c0.5-0.2,0.8-0.7,0.8-1.2c0-0.6-0.4-1.1-0.9-1.3c0.1,0.2,0.1,0.4,0.1,0.6
					c0,0.8-0.7,1.5-1.5,1.4c-0.2,0-0.4,0-0.6-0.1c0.3,0.5,0.8,0.9,1.4,0.9c0.1,0,0.2,0,0.3,0v13.7h0.5v-9.3h44v-0.7L-17.9,184.4z"/>
				<path class="st28" d="M27.5,183h-0.8v-2.4c0.5-0.2,0.8-0.7,0.8-1.2c0-0.6-0.4-1.1-0.9-1.3c0.1,0.2,0.1,0.4,0.1,0.6
					c0,0.8-0.7,1.5-1.5,1.4c0,0,0,0,0,0c-0.2,0-0.4,0-0.6-0.1c0.3,0.6,1,1,1.7,0.8v13.7h0.5v-9.3h44v-0.7H27.5V183z"/>
			</g>
			<g class="st26">
				<path class="st27" d="M381.5,183h-5.2v-2.4c0.5-0.2,0.8-0.7,0.8-1.2c-0.1-0.8-0.9-1.4-1.7-1.3c-0.6,0.1-1.1,0.6-1.3,1.3
					c0,0.5,0.3,1,0.8,1.2v2.4h-44v-2.4c0.5-0.2,0.8-0.7,0.8-1.2c-0.1-0.8-0.9-1.4-1.7-1.3c-0.6,0.1-1.1,0.6-1.3,1.3
					c0,0.5,0.3,1,0.8,1.2v2.4h-44v-2.4c0.5-0.2,0.8-0.7,0.8-1.2c-0.1-0.8-0.9-1.4-1.7-1.3c-0.6,0.1-1.1,0.6-1.3,1.3
					c0,0.5,0.3,1,0.8,1.2v2.4h-44v-2.4c0.5-0.2,0.8-0.7,0.8-1.2c-0.1-0.8-0.9-1.4-1.7-1.3c-0.6,0.1-1.1,0.6-1.3,1.3
					c0,0.5,0.3,1,0.8,1.2v2.4h-44v-2.4c0.5-0.2,0.8-0.7,0.8-1.2c-0.1-0.8-0.9-1.4-1.7-1.3c-0.6,0.1-1.1,0.6-1.3,1.3
					c0,0.5,0.3,1,0.8,1.2v2.4H149v-2.4c0.5-0.2,0.7-0.7,0.8-1.2c-0.1-0.8-0.9-1.4-1.7-1.3c-0.6,0.1-1.1,0.6-1.3,1.3
					c0,0.5,0.3,1,0.8,1.2v2.4h-44v-2.4c0.5-0.2,0.8-0.7,0.8-1.2c-0.1-0.8-0.9-1.4-1.7-1.3c-0.6,0.1-1.1,0.6-1.3,1.3
					c0,0.5,0.3,1,0.8,1.2v2.4H72.4v2.1H102v9.3h1.5v-9.3h44v9.3h1.5v-9.3h43.9v9.3h1.5v-9.3h43.9v9.3h1.5v-9.3h44v9.3h1.5v-9.3h44
					v9.3h1.5v-9.3h44v9.3h1.5v-9.3h5.2L381.5,183z"/>
				<path class="st29" d="M192.6,179.5c0.7,0.6,1.8-0.5,1.2-1.1S192,178.9,192.6,179.5z"/>
				<path class="st29" d="M238.1,179.5c0.7,0.6,1.8-0.5,1.2-1.1S237.4,178.9,238.1,179.5z"/>
				<path class="st29" d="M283.6,179.5c0.7,0.6,1.8-0.5,1.2-1.1S282.9,178.9,283.6,179.5z"/>
				<path class="st29" d="M147.2,179.5c0.7,0.6,1.8-0.5,1.2-1.1S146.5,178.9,147.2,179.5z"/>
				<path class="st28" d="M104.3,183h-0.8v-2.4c0.5-0.2,0.8-0.7,0.8-1.2c0-0.6-0.4-1.1-0.9-1.3c0.1,0.2,0.1,0.4,0.1,0.6
					c0,0.8-0.7,1.5-1.5,1.4c0,0,0,0,0,0c-0.2,0-0.4,0-0.6-0.1c0.3,0.5,0.8,0.9,1.4,0.9c0.1,0,0.2,0,0.3,0v13.7h0.5v-9.3h43.9v-0.7
					h-43.2V183z"/>
				<path class="st28" d="M195.2,184.4V183h-0.8v-2.3c0.7-0.4,1-1.2,0.6-1.9c-0.2-0.3-0.4-0.5-0.7-0.7c0.1,0.2,0.1,0.4,0.1,0.6
					c0,0.8-0.7,1.5-1.5,1.4c0,0,0,0,0,0c-0.2,0-0.4,0-0.6-0.1c0.3,0.6,1,0.9,1.7,0.8v13.7h0.4v-9.3h43.9v-0.7L195.2,184.4z"/>
				<path class="st28" d="M240.7,184.4V183h-0.8v-2.3c0.7-0.4,1-1.2,0.6-1.9c-0.2-0.3-0.4-0.5-0.7-0.7c0.1,0.2,0.1,0.4,0.1,0.6
					c0,0.8-0.7,1.5-1.5,1.4c-0.2,0-0.4,0-0.6-0.1c0.3,0.5,0.8,0.8,1.4,0.8c0.1,0,0.2,0,0.3,0v13.7h0.5v-9.3h44v-0.7L240.7,184.4z"/>
				<path class="st28" d="M286.1,184.4V183h-0.8v-2.4c0.5-0.2,0.8-0.7,0.8-1.2c0-0.6-0.4-1.1-0.9-1.3c0.1,0.2,0.1,0.4,0.1,0.6
					c0,0.8-0.7,1.5-1.5,1.4c0,0,0,0,0,0c-0.2,0-0.4,0-0.6-0.1c0.3,0.5,0.8,0.9,1.4,0.9c0.1,0,0.2,0,0.3,0v13.7h0.5v-9.3h44v-0.7
					L286.1,184.4z"/>
				<path class="st28" d="M331.6,183h-0.8v-2.4c0.5-0.2,0.8-0.7,0.8-1.2c0-0.6-0.4-1.1-0.9-1.3c0.1,0.2,0.1,0.4,0.1,0.6
					c0,0.8-0.7,1.5-1.5,1.4c-0.2,0-0.4,0-0.6-0.1c0.3,0.5,0.8,0.9,1.4,0.9c0.1,0,0.2,0,0.3,0v13.7h0.5v-9.3h44v-0.7h-43.2V183z"/>
				<path class="st28" d="M149.7,184.4V183H149v-2.4c0.5-0.2,0.7-0.7,0.8-1.2c0-0.6-0.4-1.1-0.9-1.3c0.1,0.2,0.1,0.4,0.1,0.6
					c0,0.8-0.7,1.5-1.5,1.4c0,0,0,0,0,0c-0.2,0-0.4,0-0.6-0.1c0.3,0.5,0.8,0.9,1.4,0.9c0.1,0,0.2,0,0.3,0v13.7h0.5v-9.3h43.9v-0.7
					L149.7,184.4z"/>
			</g>
			<g class="st26">
				<path class="st27" d="M685.6,183h-5.2v-2.4c0.5-0.2,0.8-0.7,0.8-1.2c-0.1-0.8-0.9-1.4-1.7-1.3c-0.6,0.1-1.1,0.6-1.3,1.3
					c0,0.5,0.3,1,0.8,1.2v2.4h-44v-2.4c0.5-0.2,0.7-0.7,0.8-1.2c-0.1-0.8-0.9-1.4-1.7-1.3c-0.6,0.1-1.1,0.6-1.3,1.3
					c0,0.5,0.3,1,0.8,1.2v2.4h-44v-2.4c0.5-0.2,0.8-0.7,0.8-1.2c-0.1-0.8-0.9-1.4-1.7-1.3c-0.6,0.1-1.1,0.6-1.3,1.3
					c0,0.5,0.3,1,0.8,1.2v2.4h-43.9v-2.4c0.5-0.2,0.8-0.7,0.8-1.2c-0.1-0.8-0.9-1.4-1.7-1.3c-0.6,0.1-1.1,0.6-1.3,1.3
					c0,0.5,0.3,1,0.8,1.2v2.4h-44v-2.4c0.5-0.2,0.7-0.7,0.8-1.2c-0.1-0.8-0.9-1.4-1.7-1.3c-0.6,0.1-1.1,0.6-1.3,1.3
					c0,0.5,0.3,1,0.8,1.2v2.4h-44v-2.4c0.5-0.2,0.8-0.7,0.8-1.2c-0.1-0.8-0.9-1.4-1.7-1.3c-0.6,0.1-1.1,0.6-1.3,1.3
					c0,0.5,0.3,1,0.8,1.2v2.4h-44v-2.4c0.5-0.2,0.8-0.7,0.8-1.2c-0.1-0.8-0.9-1.4-1.7-1.3c-0.6,0.1-1.1,0.6-1.3,1.3
					c0,0.5,0.3,1,0.8,1.2v2.4h-29.6v2.1H406v9.3h1.5v-9.3h44v9.3h1.5v-9.3h44v9.3h1.5v-9.3h43.9v9.3h1.5v-9.3h44v9.3h1.5v-9.3h44
					v9.3h1.5v-9.3h44v9.3h1.5v-9.3h5.2L685.6,183z"/>
				<path class="st29" d="M496.7,179.5c0.7,0.6,1.8-0.5,1.2-1.1S496,178.9,496.7,179.5z"/>
				<path class="st29" d="M451.2,179.5c0.7,0.6,1.8-0.5,1.2-1.1S450.6,178.9,451.2,179.5z"/>
				<path class="st28" d="M408.3,183h-0.8v-2.4c0.5-0.2,0.8-0.7,0.8-1.2c0-0.6-0.4-1.1-0.9-1.3c0.1,0.2,0.1,0.4,0.1,0.6
					c0,0.8-0.7,1.5-1.5,1.4c-0.2,0-0.4,0-0.6-0.1c0.3,0.5,0.8,0.9,1.4,0.9c0.1,0,0.2,0,0.3,0v13.7h0.5v-9.3h44v-0.7h-43.2V183z"/>
				<path class="st28" d="M499.2,184.4V183h-0.8v-2.3c0.7-0.4,1-1.2,0.6-1.9c-0.2-0.3-0.4-0.5-0.7-0.7c0.1,0.2,0.1,0.4,0.1,0.6
					c0,0.8-0.7,1.4-1.5,1.4c-0.2,0-0.4,0-0.6-0.1c0.3,0.6,1,0.9,1.7,0.8v13.7h0.5v-9.3h43.9v-0.7L499.2,184.4z"/>
				<path class="st28" d="M453.8,184.4V183H453v-2.4c0.5-0.2,0.8-0.7,0.8-1.2c0-0.6-0.4-1.1-0.9-1.3c0.1,0.2,0.1,0.4,0.1,0.6
					c0,0.8-0.7,1.5-1.5,1.4c0,0,0,0,0,0c-0.2,0-0.4,0-0.6-0.1c0.3,0.5,0.8,0.9,1.4,0.9c0.1,0,0.2,0,0.3,0v13.7h0.5v-9.3h44v-0.7
					L453.8,184.4z"/>
			</g>
			<rect x="204.1" y="190.7" class="st22" width="2.2" height="9.3"/>
			<ellipse class="st30" cx="205.1" cy="183.9" rx="6.1" ry="9.2"/>
			<rect x="395.3" y="190.2" class="st22" width="2.2" height="9.3"/>
			<ellipse class="st30" cx="396.3" cy="183.4" rx="6.1" ry="9.2"/>
			<path class="st19" d="M635.3,215.8c0,0-6.4,1.4-3.1,6.8c-17.9-6-28.2-0.6-27.3,6.6c-18.3-1.2-23.4,11.6-16.3,14.5
				c0,0-15.2-5.7-29.3,2.2c-14.1-6.9-47.6,3.1-56.2,8.2l130.6,0.3L635.3,215.8z"/>
			<path class="st31" d="M95.5,253h105.7c0.4-0.9,0.1-2-0.6-2.6c-2.7-2.9-9.5-2.5-9.5-2.5s6.7-3.5,2.6-5.8s-9.9-0.4-9.9-0.4
				s5.6-4.4-0.6-6.6c-0.3-0.1-0.5-0.2-0.8-0.3c-3.1-0.9-6.5-0.6-9.4,0.9c-0.9-1.7-2.6-2.8-4.5-2.9c-2.2-0.4-4.5,0.1-6.3,1.4
				c0,0-1.8-3.3-8-3.1c-8.6,0.3-9.1,3.6-9.1,3.6c-1.8-1.6-4.1-2.4-6.5-2.2c-3.1,0.3-3.1,3-3.1,3s-3.2-4.3-13.6-3h-0.2
				c-10.5,1.4-7.6,6.4-7.6,6.4s-4.7-1.5-8.2-0.4c-0.6,0.2-1.1,0.4-1.6,0.7c-3.4,2.2,0.4,4.9,0.5,5c-0.3,0-6.4-0.7-8.9,2.3
				C93.8,249,94.1,251.3,95.5,253z"/>
			<path class="st31" d="M497.4,234.3h112.1V212c-1.9-4.1-8.3-6.6-11.9-3.6c0.5-5.1-2.4-9.8-7.1-11.8c-8.2-3.8-14.1,2.6-14.1,2.6
				s-2.7-9.7-12.9-4.6c-3.3-5.6-11.7-5.1-12.5,2.1c0,0-6.3-8.9-16-6.8s-9.8,10.9-9.8,10.9s-0.3-0.2-0.8-0.4c-4.3-2.1-9.3-1.7-13.2,1
				c-6.1,4.4-6,8.7-5.5,12.2c0.1,0.8,0.3,1.5,0.5,2.3c0,0-6.5-0.7-9.9,8.1C494.9,227.3,495.3,231.2,497.4,234.3z"/>
			<path class="st31" d="M331.4,251.3h268.7V204c-4.7-8.8-19.8-14-28.5-7.8c0,0,2.7-17.1-17-25.1s-33.8,5.5-33.8,5.5
				s-6.5-20.6-30.9-9.9c-7.8-11.9-28-10.8-30,4.4c0,0-15.2-18.9-38.3-14.4s-23.5,23.1-23.5,23.1s-0.6-0.4-1.8-1
				c-4.8-2.4-18.9-6.1-31.7,2.1c-14.7,9.4-14.4,18.6-13.1,25.9c0.3,1.6,0.7,3.3,1.1,5c0,0-15.6-1.6-23.8,17.3
				C324.8,238.5,327.6,246.1,331.4,251.3z"/>
			<path class="st31" d="M4.5,249h-193.7v-27.7c3.4-5.1,14.3-8.2,20.5-4.5c0,0-1.9-10,12.3-14.7c8.2-2.8,17.2-1.7,24.4,3.2
				c0,0,4.7-12,22.3-5.8c5.6-7,20.2-6.3,21.6,2.6c7.5-6.8,17.6-9.9,27.7-8.4c16.7,2.6,16.9,13.6,16.9,13.6s0.5-0.2,1.3-0.6
				c3.5-1.4,13.6-3.6,22.9,1.2c10.6,5.5,10.4,10.9,9.5,15.2c-0.2,0.9-0.5,1.9-0.8,2.9c7.2-0.2,13.9,3.7,17.1,10.1
				C9.3,241.5,7.2,246,4.5,249z"/>
			<path class="st32" d="M394.5,398.4c0,0,13.1-2,12.8-7.4S394.5,398.4,394.5,398.4z"/>
			<path class="st32" d="M392,400.6c0,0,7.3-13.6,12.8-17s-9.5-3.8-12.8,10.4V400.6z"/>
			<path class="st32" d="M391.5,398.7c0,0,3.7-10.5-10-11.1C375.2,387.4,391.5,398.7,391.5,398.7z"/>
			<path class="st18" d="M106.7,350.5c0,0,6.1-4.1,18-5.1s-12.7-5.4-21.5,5.1C103.2,350.5,99.2,355.2,106.7,350.5z"/>
			<path class="st18" d="M90,351.1c0,0,18-13.2,28.5-16.7s-10.1-3.8-24.1,7.2C94.4,341.6,87.3,348.2,90,351.1z"/>
			<path class="st18" d="M84.7,351.1c0,0,12-21.4,17.4-24s-8.6-4.1-17.4,13.3C84.7,340.4,81.2,349.6,84.7,351.1z"/>
			<path class="st18" d="M78.3,351.1c0,0,4.6-19.6,9-22.5S70.7,331.8,78.3,351.1z"/>
			<path class="st18" d="M75.7,351.1c0,0,0.2-16.3-9.2-18.9S72,342.9,75.7,351.1z"/>
			<path class="st18" d="M72.6,351.1c0,0-5.9-18.7-20.4-19.2S63.6,338.8,72.6,351.1z"/>
			<path class="st18" d="M71.4,351.1c-5.8-5-13.3-7.5-20.9-7C37.3,344.6,68.2,348.8,71.4,351.1z"/>
			<path class="st18" d="M68,275.8c0,0,4.7-3.2,13.8-3.9s-9.8-4.1-16.5,3.9C65.3,275.8,62.3,279.4,68,275.8z"/>
			<path class="st18" d="M55.2,276.2c0,0,13.8-10.1,21.8-12.8s-7.7-2.9-18.5,5.5C58.6,268.9,53.2,274,55.2,276.2z"/>
			<path class="st18" d="M51.2,276.2c0,0,9.2-16.4,13.3-18.4s-6.6-3.1-13.3,10.2C51.2,268,48.5,275.1,51.2,276.2z"/>
			<path class="st18" d="M46.3,276.2c0,0,3.5-15,6.9-17.3S40.4,261.4,46.3,276.2z"/>
			<path class="st18" d="M44.3,276.2c0,0,0.2-12.5-7.1-14.4S41.4,270,44.3,276.2z"/>
			<path class="st18" d="M41.9,276.2c0,0-4.5-14.3-15.6-14.7S35,266.8,41.9,276.2z"/>
			<path class="st18" d="M41,276.2c-4.4-3.8-10.2-5.7-16-5.4C14.9,271.3,38.5,274.4,41,276.2z"/>
			<path class="st32" d="M387.6,279.6c0,0,4.4-2.9,12.8-3.6s-9-3.8-15.3,3.6C385.1,279.6,382.3,282.9,387.6,279.6z"/>
			<path class="st32" d="M375.8,280c0,0,12.8-9.4,20.3-11.9s-7.2-2.7-17.2,5.1C378.9,273.2,373.9,277.9,375.8,280z"/>
			<path class="st32" d="M372,280c0,0,8.5-15.2,12.4-17s-6.1-3-12.4,9.4C372,272.4,369.5,279,372,280z"/>
			<path class="st32" d="M367.5,280c0,0,3.3-13.9,6.4-16S362.1,266.3,367.5,280z"/>
			<path class="st32" d="M365.6,280c0,0,0.2-11.6-6.5-13.4S363,274.2,365.6,280z"/>
			<path class="st32" d="M363.5,280c0,0-4.2-13.3-14.5-13.6S357.1,271.3,363.5,280z"/>
			<path class="st32" d="M362.6,280c-4.1-3.5-9.4-5.3-14.9-5C338.4,275.4,360.3,278.3,362.6,280z"/>
			<path class="st33" d="M509.3,380.4c0,0,4.4-2.9,12.8-3.6s-9-3.8-15.3,3.6C506.9,380.4,504,383.7,509.3,380.4z"/>
			<path class="st33" d="M497.5,380.8c0,0,12.8-9.4,20.3-11.9c7.5-2.5-7.2-2.7-17.1,5.1C500.6,374,495.6,378.7,497.5,380.8z"/>
			<path class="st33" d="M493.8,380.8c0,0,8.5-15.2,12.4-17.1s-6.1-2.9-12.4,9.5C493.8,373.2,491.3,379.8,493.8,380.8z"/>
			<path class="st33" d="M489.2,380.8c0,0,3.3-13.9,6.4-16S483.8,367.1,489.2,380.8z"/>
			<path class="st33" d="M487.4,380.8c0,0,0.2-11.6-6.5-13.4S484.7,375,487.4,380.8z"/>
			<path class="st33" d="M485.2,380.8c0,0-4.2-13.3-14.5-13.6S478.8,372.1,485.2,380.8z"/>
			<path class="st33" d="M484.3,380.8c-4.1-3.5-9.5-5.3-14.9-5C460.1,376.2,482,379.1,484.3,380.8z"/>
			<ellipse class="st34" cx="49.7" cy="319.1" rx="13.9" ry="3"/>
			<ellipse class="st35" cx="180.3" cy="372.3" rx="19.2" ry="6.5"/>
			<ellipse class="st35" cx="340.1" cy="379.8" rx="68.5" ry="22"/>
			<ellipse class="st35" cx="120.8" cy="391.6" rx="20.2" ry="6.8"/>
			<path class="st36" d="M315.5,269.9c0,0-2.1,6-8.8,36.7c0,0-2.1,6.4,3.5,31.8c1.6,7.2,3.6,14.2,6.2,21.1l0,0
				c0,0,14.7,5.2,21.8-1.9c0,0-1.7-21.7-4.1-41.4l10.1-15.5c0,0,1.2,12.4,9.7,26.5s13.5,37.8,13.5,37.8c6.3,4.4,14.5,5.1,21.4,1.7
				c-0.8-13.1-2.4-26.1-4.6-39c-3.6-20.5,2.1-43.2-3.2-65.1C380.9,262.4,352,285.3,315.5,269.9z"/>
			<path class="st36" d="M344.1,300.6c0,0-6.2-1.6-9.5-13.3"/>
			<path class="st37" d="M155.7,340.1l7.5,30.2c0,0,6.3,5.9,18.4,4.9s14.3-4.5,14.3-4.5l7.9-30.6H155.7z"/>
			<path class="st38" d="M177.9,369.1c-9.5-4.5-12.1-22.5-0.8-22.7c9.9-0.2,22.9-3,26-3.7l0.7-2.6h-48.1l7.5,30.2
				c0,0,6.3,5.9,18.4,4.9c8.4-0.7,12.1-2.6,13.5-3.7C190.7,371.9,183.9,371.9,177.9,369.1z"/>
			<ellipse class="st37" cx="180.3" cy="338.2" rx="27.1" ry="5.4"/>
			<polygon class="st37" points="152.3,328.9 153.3,338.3 207.4,338.1 208.8,328.9 			"/>
			<ellipse class="st39" cx="180.5" cy="328.9" rx="28.3" ry="5.4"/>
			<ellipse class="st40" cx="180.4" cy="328.6" rx="25.1" ry="4"/>
			<path class="st41" d="M175.2,280c1.5,1.8,2.6,3.9,3.2,6.1c-4.3-2.1-7.4-5.8-8.7-10.4C171.8,276.8,173.7,278.2,175.2,280z"/>
			<path class="st42" d="M169,263.9h0.2c-0.8,8.9-0.7,17.8,0.1,26.7c0.7,7.7,2.2,15.3,4.7,22.6c2.8,8.1,6.8,14.5,11.7,19l-0.1,0.1
				c-5-4.5-8.9-11-11.8-19.1c-2.4-7.3-4-14.9-4.7-22.6C168.3,281.7,168.2,272.8,169,263.9z"/>
			<path class="st42" d="M156,290.3c0.1,0,0.2,0.2,0.9,1c2.2,2.5,8.1,9.3,14.1,11.1l-0.1,0.2c-6.1-1.9-12-8.7-14.2-11.2
				c-0.3-0.3-0.5-0.6-0.8-0.9L156,290.3z"/>
			<path class="st42" d="M193.3,271.3c-5.7,4.6-16.9,14.9-22.9,27.8l-0.2-0.1c1.3-2.9,2.9-5.7,4.7-8.3c5.1-7.3,11.2-13.9,18.2-19.5
				L193.3,271.3"/>
			<path class="st42" d="M184.6,264.4l0.2,0.1c0,0.1-3.7,9-3.4,18.2h-0.2C180.9,273.5,184.6,264.5,184.6,264.4z"/>
			<path class="st42" d="M195.7,277.6c-1.2-1.9-2-4.1-2.4-6.3c3.9,2.5,6.5,6.5,7.2,11.1C198.6,281.1,196.9,279.5,195.7,277.6z"/>
			<path class="st41" d="M198.5,271.5c-1.8,0.3-3.7,0.2-5.4-0.3c3.1-2.1,6.9-2.7,10.5-1.8C202,270.5,200.3,271.2,198.5,271.5z"/>
			<path class="st41" d="M170.5,252.3c0.3,3.9-0.2,7.8-1.5,11.5c-3.9-6.9-4.5-15.2-1.9-22.7C169,244.7,170.2,248.4,170.5,252.3z"/>
			<path class="st41" d="M174.2,257c-1.2,2.6-3,5-5.1,6.9c0-5.9,2.5-11.4,6.9-15.3C176,251.5,175.3,254.4,174.2,257z"/>
			<path class="st41" d="M165.7,256c1.6,2.4,2.8,5.1,3.4,7.9c-5-3-8.6-7.9-9.7-13.7C161.8,251.7,164,253.7,165.7,256z"/>
			<path class="st41" d="M189.9,269.8c-0.7,2.8-2,5.4-3.8,7.7c-1.1-5.8,0.4-11.7,4-16.3C190.7,264.1,190.6,267,189.9,269.8z"/>
			<path class="st41" d="M163.2,289.9c0.8,2.8,1.1,5.7,0.8,8.5c-1.9-2.2-3.3-4.7-4.2-7.5c-0.8-2.8-1.1-5.7-0.8-8.6
				C160.9,284.6,162.3,287.1,163.2,289.9z"/>
			<path class="st41" d="M150.2,287.2c2.2,0.7,4.3,1.8,6.1,3.3c-4.7,0.6-9.4-0.7-13-3.8C145.6,286.4,147.9,286.6,150.2,287.2z"/>
			<path class="st41" d="M180.1,277.8c0,2.9-0.6,5.7-1.7,8.4c-2.5-5.3-2.5-11.4-0.2-16.8C179.4,272,180,274.9,180.1,277.8z"/>
			<path class="st41" d="M187.7,257c-0.5,2.9-1.6,5.6-3.2,8c-1.5-5.7-0.5-11.7,2.8-16.6C188,251.2,188.2,254.1,187.7,257z"/>
			<path class="st42" d="M182.5,258.3c1.1,2,1.9,4.3,2.1,6.6c-3.8-2.8-6.3-7.1-6.7-11.8C179.7,254.5,181.3,256.3,182.5,258.3z"/>
			<path class="st41" d="M168.2,304.6c1.9,1.3,3.4,3,4.6,4.9c-4.5-0.8-8.5-3.5-10.8-7.5C164.2,302.5,166.3,303.4,168.2,304.6z"/>
			<path class="st41" d="M167.4,308.9c1.8-0.1,3.7,0.1,5.4,0.7c-1.6,0.9-3.4,1.4-5.2,1.6c-1.8,0.1-3.7-0.1-5.4-0.7
				C163.8,309.6,165.6,309,167.4,308.9z"/>
			<path class="st42" d="M165.1,265.7c1.6,2.4,2.8,5.1,3.4,7.9c-2.5-1.5-4.6-3.5-6.3-5.8c-1.6-2.4-2.8-5.1-3.4-7.9
				C161.3,261.4,163.4,263.4,165.1,265.7z"/>
			<path class="st41" d="M179.2,297.7c-0.7-2.2-1-4.4-0.8-6.7c3.1,3.4,4.7,7.9,4.3,12.5C181.1,301.8,179.9,299.9,179.2,297.7z"/>
			<path class="st42" d="M182.2,294.9c-1.5-1-2.9-2.3-3.9-3.8c3.7,0.5,7,2.5,9.1,5.6C185.5,296.5,183.7,295.8,182.2,294.9z"/>
			<path class="st42" d="M165.1,278.9c1.5,1.4,2.6,3.1,3.4,5c-1.9-0.7-3.7-1.8-5.2-3.1c-1.5-1.4-2.6-3.1-3.4-5
				C161.9,276.4,163.7,277.5,165.1,278.9z"/>
			<path class="st41" d="M181.7,322.5c-2.5-1.4-4.7-3.3-6.5-5.6c5.8,0.4,11.2,3.4,14.7,8.1C187,324.7,184.2,323.8,181.7,322.5z"/>
			<path class="st41" d="M181.7,316c-2.3,0.4-4.6,0.3-6.9-0.2c3.9-2.7,8.7-3.6,13.3-2.5C186.2,314.6,184,315.5,181.7,316z"/>
			<path class="st43" d="M181.1,293.2c-2.3-0.3-4.4-1-6.4-2.1c4.4-1.5,9.1-1,13.1,1.3C185.6,293.2,183.3,293.4,181.1,293.2z"/>
			<path class="st41" d="M179.8,289.3c-1.5,1-3.3,1.7-5.1,2c2-3.1,5.2-5.3,8.9-5.9C182.6,287,181.3,288.3,179.8,289.3z"/>
			<path class="st43" d="M157.4,293.5c2.3-0.1,4.7,0.3,6.8,1.1c-4.2,2.1-9.1,2.4-13.5,0.6C152.8,294.3,155.1,293.7,157.4,293.5z"/>
			<path class="st44" d="M140.9,288.7c0,0,17,16.1,37.1,24.2"/>
			<path class="st44" d="M154,315.2c0.3-0.2,12.4-0.2,18.7-4.7"/>
			<path class="st44" d="M161.3,269.4c0,0-0.9,22.1,8.3,39.6"/>
			<path class="st44" d="M150.8,276.5c0,0,4.9,8.4,12.4,13.7"/>
			<path class="st43" d="M167.8,268.6c-2.1,0.9-4.4,1.3-6.6,1.3c3.1-3.4,7.5-5.2,12.1-5.1C171.8,266.4,169.9,267.7,167.8,268.6z"/>
			<path class="st43" d="M164.7,265.7c-0.9,1.6-2.1,3-3.5,4.2c0.2-3.7,2.1-7.2,5-9.4C166.1,262.2,165.5,264,164.7,265.7z"/>
			<path class="st43" d="M132.6,280.5c3.3,2.1,6.1,4.9,8.3,8.2c-7.8-1.1-14.8-5.6-19.2-12.2C125.6,277.1,129.3,278.4,132.6,280.5z"
				/>
			<path class="st43" d="M138.5,280.4c1.3,2.6,2.1,5.4,2.4,8.2c-4.6-3.6-7.5-8.9-7.9-14.8C135.2,275.7,137.1,277.9,138.5,280.4z"/>
			<path class="st43" d="M132.6,286.6c2.9,0.1,5.7,0.8,8.3,2.1c-5.4,2.2-11.5,2-16.7-0.5C126.8,287,129.7,286.5,132.6,286.6z"/>
			<path class="st43" d="M158.2,275.6c1.8,2.3,3.1,4.9,3.9,7.7c-5.2-2.6-9-7.4-10.5-13C154.1,271.6,156.4,273.4,158.2,275.6z"/>
			<path class="st43" d="M158,309c2.7,1,5.2,2.6,7.3,4.6c-5.8,0.4-11.6-1.7-15.8-5.7C152.4,307.7,155.3,308.1,158,309z"/>
			<path class="st42" d="M148,317.9c1.9-1.4,4-2.3,6.3-2.8c-1.2,2-2.7,3.8-4.6,5.2c-1.9,1.4-4,2.3-6.3,2.8
				C144.6,321,146.1,319.3,148,317.9z"/>
			<path class="st43" d="M158.6,288.3c2.3,1.7,4.2,3.9,5.6,6.5c-5.7-1.2-10.6-4.9-13.4-10C153.6,285.4,156.3,286.6,158.6,288.3z"/>
			<path class="st42" d="M146.7,269.6c2,2.1,3.5,4.6,4.4,7.4c-2.7-1.1-5.1-2.8-7.1-4.9c-1.9-2.1-3.5-4.6-4.4-7.4
				C142.3,265.9,144.7,267.6,146.7,269.6z"/>
			<path class="st43" d="M144.6,274.6c2.3,0.3,4.5,1.1,6.5,2.3c-4.5,1.4-9.4,0.7-13.4-1.8C139.9,274.5,142.3,274.3,144.6,274.6z"/>
			<path class="st43" d="M172.8,314c2.2-0.7,4.4-0.9,6.7-0.7c-3.4,3.1-7.9,4.6-12.5,4.1C168.6,315.9,170.6,314.7,172.8,314z"/>
			<path class="st43" d="M175.6,317.2c1-1.5,2.3-2.9,3.8-3.9c-0.3,1.8-0.9,3.6-1.9,5.1c-1,1.5-2.3,2.9-3.8,3.9
				C174,320.5,174.7,318.8,175.6,317.2z"/>
			<path class="st42" d="M139.9,292.9c2.9,0.1,5.7,0.8,8.3,2.1c-5.4,2.2-11.5,2-16.8-0.5C134.2,293.4,137,292.8,139.9,292.9z"/>
			<path class="st43" d="M173.9,301.1c-2.1-0.7-4.1-1.9-5.8-3.4c4.6-0.5,9.1,1,12.5,4.1C178.3,302,176,301.8,173.9,301.1z"/>
			<path class="st42" d="M173.5,297c-1.7,0.6-3.5,0.9-5.4,0.9c2.6-2.6,6.2-4.1,9.9-3.9C176.7,295.3,175.2,296.3,173.5,297z"/>
			<path class="st43" d="M150.5,300.9c2-0.3,4.1-0.2,6.1,0.3c-3.4,2.3-7.7,3-11.7,2C146.5,302,148.4,301.3,150.5,300.9z"/>
			<path class="st43" d="M171.5,296.8c-1.6,1.6-3.5,2.9-5.5,3.9c1.5-4.4,4.8-7.9,9-9.6C174.2,293.2,173,295.2,171.5,296.8z"/>
			<path class="st43" d="M167.6,295.5c-0.1,1.8-0.6,3.6-1.5,5.2c-1.3-3.5-1-7.4,0.7-10.6C167.4,291.8,167.7,293.7,167.6,295.5z"/>
			<path class="st37" d="M94.8,357.6l8.1,32.8c0,0,6.8,6.4,20,5.3s15.6-4.8,15.6-4.8l8.6-33.2H94.8z"/>
			<path class="st38" d="M118.9,389.1c-10.3-4.9-13.2-24.4-0.9-24.7c10.8-0.2,25-3.3,28.3-4l0.7-2.8H94.8l8.1,32.8
				c0,0,6.8,6.4,20,5.3c9.1-0.8,13.1-2.8,14.7-4C132.9,392.1,125.4,392.1,118.9,389.1z"/>
			<ellipse class="st37" cx="121.5" cy="355.5" rx="29.4" ry="5.9"/>
			<polygon class="st37" points="91,345.4 92.1,355.6 151,355.4 152.5,345.4 			"/>
			<ellipse class="st39" cx="121.8" cy="345.4" rx="30.7" ry="5.9"/>
			<ellipse class="st40" cx="121.7" cy="345.1" rx="27.3" ry="4.4"/>
			<path class="st42" d="M97.2,329.1c0,0,27.4-32.4,22.4-40.6s-9.8,6-9.8,6s5.7-23.3-1.7-23.8s-6.8,10.7-6.8,10.7s-0.3-18.6-8.6-18
				s-1,18.9-1,18.9s-7.3-13.7-11.4-6.2s12.2,25.5,12.2,25.5s-11.8-11.8-13.9-2.6C76,310,97.2,329.1,97.2,329.1z"/>
			<path class="st44" d="M93.9,331.1c0,0,11-24.2,5.4-41.6"/>
			<path class="st42" d="M133.6,319.8c0,0,23.7-19,21.3-25.5s-7.7,2.9-7.7,2.9s7.2-15.6,2.1-17s-6.3,6.5-6.3,6.5s2.3-13.1-3.6-13.8
				s-3.3,13.2-3.3,13.2s-3.2-10.6-7.1-5.9s5,19.7,5,19.7s-6.7-9.9-9.4-3.7C121.3,303.5,133.6,319.8,133.6,319.8z"/>
			<path class="st44" d="M131,320.8c0,0,11.1-15.5,9.5-28.5"/>
			<path class="st43" d="M130.6,342.9c0,0-1.3-44.8,8.3-48.2s4.1,11.4,4.1,11.4s10.6-22.9,17-18.5s-1.4,13.3-1.4,13.3
				s12.5-15.1,18.9-9.1S165.9,308,165.9,308s15-6.5,13.4,2.4s-26.8,13-26.8,13s17.5-2,13.2,7C160.6,341.2,130.6,342.9,130.6,342.9z"
				/>
			<path class="st44" d="M132,346.8c0,0,6.8-27.3,22.9-37.8"/>
			<path class="st41" d="M134.5,347.9c0,0-28.7-27.4-24.8-35.5s9.7,4.6,9.7,4.6s-7.6-21.1-0.8-22.3s7.4,9.2,7.4,9.2
				s-1.6-17.3,6.2-17.6s2.8,17.5,2.8,17.5s5.4-13.5,9.9-6.9s-8.8,25-8.8,25s9.8-12.1,12.7-3.8C152.4,328.1,134.5,347.9,134.5,347.9z
				"/>
			<path class="st44" d="M137.8,349.5c0,0-12.7-21.4-9.1-38.1"/>
			<path class="st41" d="M108.3,341c0,0,6-36.4-1.4-40.3s-4.6,8.9-4.6,8.9s-6.1-19.9-11.8-17s-0.3,11-0.3,11s-8.5-13.8-14.4-9.6
				s7.7,14.6,7.7,14.6s-11.5-7-11.2,0.5s20.4,13.6,20.4,13.6s-14-3.6-11.6,4.3C84,336.4,108.3,341,108.3,341z"/>
			<path class="st44" d="M106.7,344.1c0,0-2.5-23-14.5-33.4"/>
			<path class="st43" d="M111.3,348c0,0-18.7-27.6-14.1-33.6s7.2,5.5,7.2,5.5s-2.5-18.7,3.3-18.5s4.4,8.9,4.4,8.9s1.8-14.5,8.2-13.3
				s-0.8,14.9-0.8,14.9s6.8-10.1,9.4-3.9c2.6,6.3-11.7,19-11.7,19s10.2-8.3,11.1-0.9C129.5,334.9,111.3,348,111.3,348z"/>
			<path class="st44" d="M113.8,349.9c0,0-6.6-19.9-0.8-33"/>
			<path class="st42" d="M132.2,343.9c0,0,16.7-4,17-7.9s-4.6-0.4-4.6-0.4s7.4-6.2,5.1-8.2s-4.8,1.9-4.8,1.9s4.3-6.1,1.5-7.9
				s-4.8,5.9-4.8,5.9s0.9-6.2-2.2-4.7s-2.1,11.3-2.1,11.3s-1-6.7-3.9-4.2C129.8,332.6,132.2,343.9,132.2,343.9z"/>
			<path class="st44" d="M130.6,343.8c0,0,9.4-5.3,11.7-12.3"/>
			<path class="st45" d="M257.8,232.4c11.9-4.4,22.5-11.5,31.2-20.7l12.5,16.5c0,0-13.4,13.2-36,13.9L257.8,232.4z"/>
			<path class="st45" d="M262.1,233.9c0,0-3.6-7.7-9.3-8.7s-4.7,5.6-0.8,9.6S262.1,233.9,262.1,233.9z"/>
			<path class="st46" d="M274,245.3c-11.6-17.6-34-23.3-50-12.7c-3.4,2.2-6.3,5.1-8.7,8.4l7.1,7.4c1.7-2.1,3.7-3.9,6-5.4
				c12.7-8,29.5-4.2,37.5,8.4c7.4,11.7,4.8,27-5.9,35.6l7.7,7.9C282.2,283.9,285.1,262.2,274,245.3z"/>
			<path class="st47" d="M335.4,192.5c0,0-5.4,7.4-14.9,19.8c-3.6,4.7-7.7,9-12.3,12.7c-2.2,1.9-4.6,3.5-7,4.9
				c-6.6-4.3-11.1-11.1-12.5-18.9c2.3-2.4,4.5-4.9,6.5-7.6c7.2-9.3,14.3-20.8,14.3-20.8L335.4,192.5z"/>
			<path class="st48" d="M308.2,224.1c-6.2,5.4-7.3,4.6-7.2,4.5c-11.1-6.9-11.7-17.6-11.7-17.6c2.1-2.1,4-4.3,5.8-6.6
				C295.4,209,298,217.1,308.2,224.1z"/>
			<path class="st47" d="M304.1,202.7c0,0,4.6,20.7,6.8,38.4s3.1,31.5,3.1,31.5s35.4,19.1,67.6-9c0,0-3.8-35.1-24.1-77.6
				c0,0-10.7-21.5-31.2-17.8c-19.5,3.5-15.4,20.1-15.4,20.1"/>
			
				<ellipse transform="matrix(0.6774 -0.7356 0.7356 0.6774 -28.0602 293.7973)" class="st48" cx="320.9" cy="178.9" rx="16.3" ry="7.4"/>
			<path class="st45" d="M310.2,173.4c0,0,3.2,1.5,2,9.1s14.4,2.9,18.6-14.4c0,0-3.7-5.9-1.2-16.2S307.5,158.7,310.2,173.4z"/>
			<path class="st45" d="M261.6,154.4c-1.8-3.5-5.2-5.8-9.1-6.2c-6.5-0.6-5.2,9.6,0.8,15.8c6.1,6.2,12.1,5.1,13.4,1.8"/>
			<path class="st49" d="M262.6,162.8c0,0-8.5-9.6-12.3-4.7"/>
			<path class="st50" d="M262.5,162.8c-0.9-0.9-1.8-1.7-2.8-2.4c-0.9-0.8-1.9-1.4-3-2c-1-0.6-2.1-1-3.3-1.1
				c-1.1-0.2-2.3,0.1-3.1,0.9l-0.1-0.1c0.3-0.6,0.7-1.1,1.3-1.4c0.6-0.3,1.3-0.5,2-0.4c1.3,0.2,2.5,0.7,3.6,1.4
				C259.2,159.1,261.1,160.8,262.5,162.8L262.5,162.8z"/>
			<path class="st49" d="M257,157.8c0,0-2.5,2.1,0.5,7.8"/>
			<path class="st50" d="M257.1,157.8c-0.4,0.5-0.6,1.2-0.7,1.8c-0.1,0.7,0,1.3,0.1,2c0.1,0.6,0.4,1.2,0.6,1.9
				c0.1,0.3,0.2,0.6,0.2,1c0.1,0.3,0.1,0.7,0.2,1.1h-0.1c-0.5-0.5-1-1.1-1.3-1.8c-0.3-0.7-0.4-1.4-0.4-2.1c-0.1-0.7,0-1.5,0.2-2.2
				C256.1,158.9,256.5,158.2,257.1,157.8L257.1,157.8z"/>
			<path class="st45" d="M336,127c5.3,24.2-6,45.9-24.9,55s-45.5,6.6-55.3-27.4c-2.5-8.6-7.1-23.4-11-28.3
				c-7.1-8.9-9.5-6.1,8.8-20.2C306.9,65.1,330.8,103.6,336,127z"/>
			<path class="st51" d="M308.1,95c0,0-31.4,27.1-55.1,32.7l-0.7,17.3L236,112.1l33-24.3l42.4-4.8l20.1,27l0.9,25.1
				c0,0-4.1-10.9-12.6-17.7S308.1,95,308.1,95z"/>
			
				<ellipse transform="matrix(0.8412 -0.5408 0.5408 0.8412 -25.4142 184.793)" class="st52" cx="301.9" cy="135.7" rx="10.1" ry="10.1"/>
			<path class="st53" d="M311.5,130.9c2.5,5.3,0.3,11.7-5,14.2c-2.4,1.1-5.2,1.3-7.7,0.6c-5.6-1.8-8.7-7.7-6.9-13.3
				c0.9-2.9,3.1-5.3,5.9-6.5c2.5-1.1,5.4-1.2,8-0.2C308.3,126.6,310.3,128.5,311.5,130.9z M311.4,130.9c-2.4-5-8.4-7-13.4-4.6
				c0,0,0,0,0,0c-2.4,1.2-4.2,3.2-5.1,5.7c-1.8,5.2,0.9,10.9,6.1,12.8c5.3,1.8,11-1,12.8-6.3C312.7,136.1,312.5,133.4,311.4,130.9
				L311.4,130.9z"/>
			
				<ellipse transform="matrix(0.8409 -0.5413 0.5413 0.8409 -27.5422 183.4094)" class="st54" cx="298.1" cy="138.5" rx="5" ry="5"/>
			<path class="st52" d="M300.7,134.2c0.5,0.6,0.4,1.5-0.3,2s-1.5,0.4-2-0.3c-0.5-0.6-0.4-1.5,0.3-2c0.2-0.1,0.4-0.2,0.6-0.3
				C299.9,133.5,300.4,133.7,300.7,134.2z"/>
			
				<ellipse transform="matrix(0.9034 -0.4288 0.4288 0.9034 -37.3092 130.2928)" class="st52" cx="270.5" cy="148" rx="8.6" ry="9.6"/>
			<path class="st53" d="M278.4,144.2c1.1,2.2,1.4,4.7,0.8,7.1c-0.5,2.5-2.1,4.6-4.3,5.8c-2.3,1.2-5.1,1.3-7.5,0.3
				c-5-2.1-7.6-7.6-6.2-12.8c0.7-2.5,2.5-4.6,4.9-5.6c2.3-1,5-0.9,7.2,0.2C275.6,140.2,277.4,141.9,278.4,144.2z M278.3,144.2
				c-1-2.2-2.8-3.9-5-4.9c-4-1.9-8.8-0.1-10.6,3.9c-0.2,0.5-0.4,1-0.5,1.6c-1.2,4.8,1.2,9.7,5.7,11.8c4,1.9,8.8,0.2,10.6-3.8
				c0.2-0.5,0.4-1,0.5-1.5C279.6,148.8,279.3,146.4,278.3,144.2L278.3,144.2z"/>
			
				<ellipse transform="matrix(0.8546 -0.5192 0.5192 0.8546 -39.5347 161.2602)" class="st54" cx="268.2" cy="151.2" rx="4.8" ry="4.8"/>
			
				<ellipse transform="matrix(0.9034 -0.4288 0.4288 0.9034 -37.3819 129.7168)" class="st52" cx="269.2" cy="147.8" rx="1.2" ry="1.4"/>
			<path class="st53" d="M280.2,143.6c0.5,0.4,1,0.8,1.4,1.2c0.5,0.4,0.9,0.9,1.3,1.4c0.8,1,1.4,2.1,1.9,3.3c0.5,1.3,0.6,2.6,0.5,4
				c-0.3,1.4-0.9,2.6-1.8,3.7l0.1-0.9c0.2,0.6,0.6,1,1.1,1.4c0.5,0.4,1.1,0.6,1.8,0.7c0.7,0,1.4-0.1,2.1-0.3
				c0.4-0.1,0.7-0.2,1.1-0.4s0.7-0.3,1.1-0.4v0.1l-1,0.6c-0.3,0.2-0.7,0.3-1,0.5c-0.7,0.3-1.5,0.5-2.3,0.5c-0.8,0-1.6-0.2-2.2-0.6
				c-0.7-0.4-1.2-1-1.5-1.8v-0.1l0,0c0.8-0.9,1.3-2,1.5-3.2c0.2-1.2,0-2.4-0.3-3.6c-0.4-1.2-0.9-2.3-1.6-3.3c-0.7-1-1.4-2-2.3-2.9
				L280.2,143.6z"/>
			<path class="st54" d="M289.2,121.6c0,0-3.6-3.9,1.3-6.7c4.2-2.5,11.6-1.6,17.1,1.7c0.4,0.2,0.5,0.7,0.3,1
				c-0.2,0.3-0.4,0.4-0.7,0.4C302.9,117.6,294.9,117.5,289.2,121.6z"/>
			<path class="st54" d="M267.7,128.5c0,0-1-5.1-5.5-3.5c-3.8,1.4-6.7,7.3-7,13.4c0,0.8,0.9,1.2,1.2,0.6
				C258.3,135.7,262.1,129.9,267.7,128.5z"/>
			<path class="st55" d="M309.1,90.5c0,0-20.4,13.9-33.1,11.2c0,0-3.1,7.9-13.6,9.2c0,0,3.3,6.8-10.8,12.6c0,0-0.1,18.9,2.2,24.2
				c0,0-18.7-12.6-20.1-30.8s4.9-34,28.5-47.8s48.5-3.6,55.6,3.7l-4.7-10.1c0,0,6.4,3.4,7,9.5c0,0,1.4-3.5,8.1-1.5
				c0,0-5.7,2.5-5.3,5.4c0,0,7.7,1.7,13.8,10.9s11,28.3,6.3,38.2c0,0-7.8,2.6-7.9,8.8c0,0-2.8,5.1-4-4.3s-18-18.7-22.6-38.4
				L309.1,90.5z"/>
			<path class="st45" d="M332.7,136.6c0,0-1.5-6.2,5.4-13s13.5,1.2,11.6,11.2s-9.6,15.2-13.7,14.3"/>
			<path class="st49" d="M338.1,143.1c0,0,2-14.6,10.2-15"/>
			<path class="st50" d="M338.1,143.1c0.4-3.3,1.2-6.4,2.6-9.4c0.7-1.6,1.7-2.9,2.9-4.1c1.3-1.1,3-1.7,4.7-1.6v0.1
				c-1.5,0.4-2.9,1.1-4,2.2c-1.1,1.1-2.1,2.3-2.9,3.7c-0.8,1.4-1.4,2.9-1.9,4.4c-0.5,1.5-1,3.1-1.3,4.7L338.1,143.1z"/>
			<path class="st49" d="M340.5,134.4c0,0,4.4-1.1,5.6,5.6"/>
			<path class="st50" d="M340.5,134.4c0.7-0.2,1.5-0.2,2.3,0c0.8,0.2,1.5,0.7,2,1.3c0.6,0.6,1,1.2,1.3,2c0.1,0.4,0.2,0.8,0.2,1.1
				c0,0.4,0,0.8,0,1.2h-0.1c-0.2-0.3-0.4-0.7-0.5-1c-0.2-0.3-0.3-0.6-0.5-1c-0.3-0.6-0.6-1.2-1-1.8
				C343.3,134.9,341.9,134.3,340.5,134.4L340.5,134.4z"/>
			<path class="st55" d="M308.5,91.4c0,0-26.5,29.7-57.5,33.2c-31,3.6,32.9-39.8,32.9-39.8l29.5-2.5L308.5,91.4z"/>
			<path class="st56" d="M307.9,154.8c0,0,1.8,15.4-8.4,20.4c0,0-11.7,4.6-19.5-9.7C290.5,167.4,301.3,163.3,307.9,154.8z"/>
			<path class="st57" d="M307.8,154.6c0,0,1.1,12.9-9.1,17.8c-7.1,2.3-14.8-0.6-18.8-6.9C290.5,167.3,301.2,163.1,307.8,154.6z"/>
			<path class="st58" d="M305,157.8c-0.9,3.7-3.3,6.9-6.7,8.8c-4.7,2.4-10.3,1.9-14.5-1.1C283.7,165.5,296.2,166.5,305,157.8z"/>
			<path class="st56" d="M307.9,154.4c-3.4,3.9-7.7,6.9-12.6,8.7c-5,1.6-10.2,2.4-15.4,2.4C279.9,165.4,298.2,169.6,307.9,154.4z"/>
			<path class="st59" d="M306.5,153.6c1.2,0.7,2.1,1.7,2.7,2.9C309.2,156.5,308.9,153.9,306.5,153.6z"/>
			<path class="st59" d="M280.6,163c-0.6,1.3-0.7,2.7-0.4,4C279.4,165.8,279.5,164.1,280.6,163z"/>
			<path class="st60" d="M304.5,167.2c-2.4-0.9-5.2-0.2-7,1.6c0,0-3.3-0.6-7,4C290.6,172.9,299.6,175.6,304.5,167.2z"/>
			<path class="st45" d="M242.7,240.6c0,0-2.1,2.4-4,0.4c-1.2-1.3-1.5-4-1-5.7s1.2-3.1,3-3.4c0,0,2.2-1.4,2.1,6.4l0.1,1.2
				c0,0-0.5-6.7,3-8.2s2.2,7.4,2.8,8.2s-0.8-7.1,2.4-8s2.3,9.5,2.3,9.5s0.2-7.9,3.5-7.6s2,5.1,1.5,7c-0.6,2.1,0.7,3.1-0.6,3.8
				c-3.3,1.7-0.7,0.7-0.7,0.7S244.7,247,242.7,240.6z"/>
			<path class="st46" d="M246.8,330.6c-11.8,8.3-24.9,11.6-34.2,9.5l-0.3,0.2l-0.2-0.3l-11.8-17.8L170.2,277l6.9-5.8l38-31.8
				l44.4,46.2l0,0l6.9,7.2c0.2,0.5,0.4,1,0.5,1.5C270,304.7,261.9,319.9,246.8,330.6z"/>
			<path class="st61" d="M246.8,330.6c-11.8,8.3-24.9,11.6-34.2,9.5l-0.3,0.2l-0.2-0.3l-11.8-17.8L170.2,277l6.9-5.8l24.9,33.6
				c17.5,23.7,54.6,18.5,64.5-9.2c0.2-0.4,0.3-0.9,0.5-1.3C270,304.7,261.9,319.9,246.8,330.6z"/>
			
				<ellipse transform="matrix(0.7663 -0.6425 0.6425 0.7663 -120.8337 184.1312)" class="st62" cx="192.7" cy="258.1" rx="29.3" ry="7.8"/>
			<path class="st63" d="M206.1,245.2c0.3,0.3,0.4,0.8,0.4,1.2c0,2.4-2.9,6.7-7.5,11.3l-0.6,0.6c-0.5,0.5-1,1-1.6,1.5
				c-0.2,0.2-0.4,0.4-0.7,0.6l-0.3,0.3c-0.2,0.2-0.4,0.4-0.6,0.5c-0.5,0.4-1,0.8-1.4,1.2c-6.5,5.1-12.7,8-15.3,7.3
				c-0.3-0.1-0.6-0.3-0.9-0.5c-1.8-2.2,3.1-9.3,11-15.9S204.3,243,206.1,245.2z"/>
			<path class="st64" d="M206.4,246.2c0,0,0.1,0.1,0.1,0.1c0.9,1.6-2.2,6.2-7.5,11.3l-0.6,0.6c-0.5,0.5-1.1,1-1.6,1.5
				c-0.2,0.2-0.4,0.4-0.7,0.6l-0.3,0.3c-0.2,0.2-0.4,0.4-0.6,0.5c-0.5,0.4-1,0.8-1.4,1.2c-7.2,5.7-13.9,8.9-15.3,7.3
				s2.4-6.8,8.4-12.4c0.1-0.1,0.1-0.1,0.2-0.2l0.2-0.2c0.8-0.7,1.6-1.4,2.5-2.1l0.2-0.2C197.6,248.2,204.9,244.5,206.4,246.2z"/>
			<path class="st65" d="M198.3,258.3c-0.5,0.5-1.1,1-1.6,1.5c-0.2,0.2-0.4,0.4-0.7,0.6l-0.3,0.3l-8.9-3.4l-0.4-0.1l-0.4-0.4
				l1.2,0.1L198.3,258.3L198.3,258.3z"/>
			<path class="st62" d="M199,257.7l-0.6,0.6c-0.5,0.5-1.1,1-1.6,1.5c-0.2,0.2-0.4,0.4-0.7,0.6L187,257l-1-0.4l2.8-2.6l1.1,0.4
				L199,257.7L199,257.7z"/>
			<path class="st46" d="M161.9,286.2l24.8,8.1c5.7,3.2,10.2,8.2,12.7,14.3c4.4,10.4-0.4,11.3-0.4,11.3l-37.9-11.1L161.9,286.2z"/>
			<path class="st66" d="M166.3,294.9c1.4,8.2-0.2,15.5-3.6,15.8c-8.2,0.7-7.2-5.6-8.6-13.8s-3.8-18.3,3.6-15.8
				C161,282.2,164.9,286.7,166.3,294.9z"/>
			
				<ellipse transform="matrix(0.9865 -0.1638 0.1638 0.9865 -46.3069 29.7843)" class="st67" cx="157.4" cy="295.6" rx="6.2" ry="15"/>
			
				<ellipse transform="matrix(0.998 -6.383562e-02 6.383562e-02 0.998 -18.1651 10.493)" class="st68" cx="155.1" cy="289.5" rx="1.1" ry="2.2"/>
			
				<ellipse transform="matrix(0.998 -6.383562e-02 6.383562e-02 0.998 -18.7524 10.4918)" class="st68" cx="154.8" cy="298.7" rx="1.1" ry="2.2"/>
			
				<ellipse transform="matrix(0.9635 -0.2676 0.2676 0.9635 -73.5492 53.9738)" class="st68" cx="161.3" cy="296.8" rx="1.1" ry="2.2"/>
			<path class="st36" d="M369.5,275.6c0,0-4.6,13.1,10.1,12.4"/>
			
				<linearGradient id="SVGID_8_" gradientUnits="userSpaceOnUse" x1="118.5792" y1="188.592" x2="162.3" y2="188.592" gradientTransform="matrix(1 0 0 -1 0 512)">
				<stop  offset="0.1" style="stop-color:#286BAD"/>
				<stop  offset="0.13" style="stop-color:#3476B3"/>
				<stop  offset="0.23" style="stop-color:#5B96C7"/>
				<stop  offset="0.33" style="stop-color:#7BB1D7"/>
				<stop  offset="0.44" style="stop-color:#94C6E4"/>
				<stop  offset="0.55" style="stop-color:#A5D4ED"/>
				<stop  offset="0.67" style="stop-color:#B0DDF2"/>
				<stop  offset="0.81" style="stop-color:#B3E0F4"/>
			</linearGradient>
			<path class="st69" d="M161.3,300.2c0,0-27.6,16.9-37.3,47c0,0-4.9,3.4-5.4-4.8s15.7-31.5,43.7-43.5"/>
			
				<linearGradient id="SVGID_9_" gradientUnits="userSpaceOnUse" x1="141.6186" y1="232.8194" x2="149.4586" y2="214.1994" gradientTransform="matrix(1 0 0 -1 0 512)">
				<stop  offset="0.1" style="stop-color:#286BAD"/>
				<stop  offset="0.13" style="stop-color:#3476B3"/>
				<stop  offset="0.23" style="stop-color:#5B96C7"/>
				<stop  offset="0.33" style="stop-color:#7BB1D7"/>
				<stop  offset="0.44" style="stop-color:#94C6E4"/>
				<stop  offset="0.55" style="stop-color:#A5D4ED"/>
				<stop  offset="0.67" style="stop-color:#B0DDF2"/>
				<stop  offset="0.81" style="stop-color:#B3E0F4"/>
			</linearGradient>
			<path class="st70" d="M153.6,288.2c0,0-17.5,2.4-12.7,8.5S153.6,288.2,153.6,288.2z"/>
			
				<radialGradient id="SVGID_10_" cx="-7258.2334" cy="-188.0229" r="325.91" gradientTransform="matrix(0.3 0 0 -0.31 2381.1299 264.04)" gradientUnits="userSpaceOnUse">
				<stop  offset="0.1" style="stop-color:#286BAD"/>
				<stop  offset="0.13" style="stop-color:#3476B3"/>
				<stop  offset="0.23" style="stop-color:#5B96C7"/>
				<stop  offset="0.33" style="stop-color:#7BB1D7"/>
				<stop  offset="0.44" style="stop-color:#94C6E4"/>
				<stop  offset="0.55" style="stop-color:#A5D4ED"/>
				<stop  offset="0.67" style="stop-color:#B0DDF2"/>
				<stop  offset="0.81" style="stop-color:#B3E0F4"/>
			</radialGradient>
			<path class="st71" d="M154.5,329.6c0,0-10.2,6.9-8.3,16.1S158.6,347.1,154.5,329.6z"/>
			
				<linearGradient id="SVGID_11_" gradientUnits="userSpaceOnUse" x1="72.16" y1="190.1463" x2="162.4" y2="190.1463" gradientTransform="matrix(1 0 0 -1 0 512)">
				<stop  offset="0.41" style="stop-color:#286BAD"/>
				<stop  offset="0.42" style="stop-color:#3476B3"/>
				<stop  offset="0.48" style="stop-color:#5B96C7"/>
				<stop  offset="0.54" style="stop-color:#7BB1D7"/>
				<stop  offset="0.6" style="stop-color:#94C6E4"/>
				<stop  offset="0.66" style="stop-color:#A5D4ED"/>
				<stop  offset="0.73" style="stop-color:#B0DDF2"/>
				<stop  offset="0.81" style="stop-color:#B3E0F4"/>
			</linearGradient>
			<path class="st72" d="M153.7,298.3c0,0-30,5.3-39.8,47.1c0,0-5.4,6.3-5.9-5.1c-0.5-11.7,10.8-37.6,46.6-43.8"/>
			<path class="st47" d="M355.5,215l-13.9,18.4l-6.9,9.1c-10.1-1.1-19-7.1-23.9-16.1c0,0,2.3-3.6,5.5-8.6
				c4.9-7.8,11.9-19.1,14.9-25.1"/>
			<path class="st48" d="M341,233.4l-6.5,9.1c-16.3-2-23.7-16.1-23.7-16.1c2.2-2.7,4.2-5.6,5.9-8.6
				C322.7,225.8,331.3,231.3,341,233.4z"/>
			<path class="st73" d="M309.9,364.2c0,0-2.8-10.1,6.5-11.9c0,0,8,0.3,7.7,10.9c0,0,11.3,3.1,14-3.4c0,0,1.1,9-0.5,12.7
				s-6,5.1-14,7.5c-7.6,2.3-15.5,11.2-31.5,5.5c-3.6-1.2-5.5-5.1-4.3-8.7c0.1-0.2,0.1-0.4,0.2-0.5c0.7-1.5,1.8-2.8,3.1-3.9
				C298.6,365.7,303.4,365.7,309.9,364.2z"/>
			<path class="st74" d="M310,360.1c0,0-2.8-10.1,6.5-11.9c0,0,8,0.3,7.7,10.9c0,0,11.3,3.1,14-3.4c0,0,1.1,9-0.5,12.7
				s-6,5.1-14,7.5c-7.6,2.3-15.5,11.2-31.5,5.5c-3.6-1.3-5.5-5.2-4.2-8.7c0.1-0.2,0.1-0.4,0.2-0.5c0.7-1.5,1.8-2.8,3.1-3.9
				C298.8,361.6,303.5,361.6,310,360.1z"/>
			<path class="st75" d="M308.8,359.2c3.4,0.7,6.4,2.6,8.5,5.3L314,366c-2.6-2.8-6.1-4.7-10-5.2l0,0
				C304.7,359.4,307.4,358.5,308.8,359.2L308.8,359.2C308.9,359.3,308.8,359.2,308.8,359.2z"/>
			<path class="st75" d="M302.5,361.8c0,0,7.5,2.3,10.5,6.2l-3.8,1.3c0,0-6.4-5.2-12.2-5.2C297,364.1,297.2,360.1,302.5,361.8z"/>
			<path class="st73" d="M364.2,370.5c0,0-2.3-5.5,4.9-10.3c0,0,10.4-2.9,10.4,10.1c0,0,5.7,0.2,8-7.7c0,0,1.1-5.2,2.6,4.4
				s1.6,10.1-2.5,14s-7.8,12.7-19.7,12.7s-17.9-2.7-16.6-10.1S364.2,370.5,364.2,370.5z"/>
			<path class="st74" d="M364.2,365.9c0,0-2.3-5.5,4.9-10.3c0,0,10.4-2.9,10.4,10.1c0,0,5.7,0.2,8-7.7c0,0,1.1-5.2,2.6,4.4
				s1.6,10.1-2.5,14s-7.8,12.7-19.7,12.7s-17.9-2.8-16.6-10.1S364.2,365.9,364.2,365.9z"/>
			<path class="st75" d="M360.4,367.9c0,0,5.9-2.5,14.9,4.2c0,0,6.6-0.2-0.5-3.9S357.5,363.7,360.4,367.9z"/>
			<path class="st75" d="M357.3,370.8c0,0,5.9-2.5,14.9,4.2c0,0,6.6-0.2-0.5-3.9S354.3,366.6,357.3,370.8z"/>
			<path class="st45" d="M286.2,251.9c-5-2.8-8.9-2.2-8.9-2.2l1.6,5.7c0,0,1.5,0.6-4.5,1.3s-6.5-2.4-6.5-2.4s-3.7,0.9-1.3,4.9
				c-0.9,1.6-0.8,3.6,0.4,5.1c-0.7,1.7-0.1,3.7,1.4,4.8c0,0-1.3,0.6,1.4,3.3c2.4,2.4,13.3,2.4,19.3-4.5c1.6-1.9,3.7-3.4,6-4.4h0.1"
				/>
			<path class="st45" d="M285,251.3c0,0,10,0.5,26.4-22.5c0,0,7.8,10.9,18.3,12.9c0,0-20.7,17.8-36,22"/>
			<path class="st76" d="M275.6,256.4c0,0,4.6,0.1,4.8-3.2"/>
			<path class="st45" d="M266.6,259.1c3.3,2.3,7.6,2.7,11.4,1.1"/>
			<path class="st45" d="M266.5,264.1c0,0,6.1,3.9,11.5,0.6"/>
			<path class="st45" d="M267.9,269c0,0,1.1,2.1,9.5,0.9"/>
		</g>
	</g>
	
		<radialGradient id="SVGID_12_" cx="-5875.7129" cy="71.7576" r="690.4786" gradientTransform="matrix(0.35 0 0 -0.33 2293.0701 266.61)" gradientUnits="userSpaceOnUse">
		<stop  offset="0" style="stop-color:#FFFFFF"/>
		<stop  offset="0.43" style="stop-color:#D3F9FC"/>
	</radialGradient>
	<path class="st77" d="M494.2,242.9c0,126.2-107.2,228.5-239.5,228.5S15.3,369.1,15.3,242.9S122.5,14.4,254.8,14.4
		S494.2,116.7,494.2,242.9z"/>
	<path class="st78" d="M264.4,458.1c-132.3,0-239.5-102.3-239.5-228.5c0-32.6,7.3-64.8,21.3-94.2c-2.6,3.9-5.1,7.8-7.5,11.9
		C18.8,181.1,8.3,219.5,8.3,258.7c0,126.2,107.2,228.5,239.5,228.5c97,0,180.6-55.1,218.2-134.3
		C423.5,416.2,349.1,458.1,264.4,458.1z"/>
	<path class="st79" d="M69.3,174.6C79,139,108,104.7,167.7,83c6.7-2.5,10.1-9.9,7.6-16.6c-0.6-1.8-1.7-3.3-3-4.7l-1.2-1.2
		c-3.4-3.4-8.3-4.6-12.8-3.2c-22.4,6.7-80.6,39.8-99.7,114.5c-0.5,2.2,0.4,4.6,2.4,5.8l0.1,0.1c2.5,1.6,5.9,0.9,7.5-1.7
		C68.9,175.6,69.1,175.1,69.3,174.6z"/>
	<circle class="st79" cx="60.9" cy="193.7" r="8.1"/>
</g>
</svg>
