<?xml version="1.0" encoding="utf-8"?>
<!-- Generator: Adobe Illustrator 25.2.3, SVG Export Plug-In . SVG Version: 6.00 Build 0)  -->
<svg version="1.1" id="Layer_1" xmlns="http://www.w3.org/2000/svg" xmlns:xlink="http://www.w3.org/1999/xlink" x="0px" y="0px"
	 viewBox="0 0 600 570" style="enable-background:new 0 0 600 570;" xml:space="preserve">
<style type="text/css">
	.st0{fill:#EFEFEF;}
	.st1{clip-path:url(#SVGID_2_);}
	.st2{fill:#73DD47;}
	.st3{fill:#77CE49;}
	.st4{fill:#42605E;}
	.st5{fill:#2BB51C;}
	.st6{fill:#897F77;}
	.st7{fill:#CCC2C2;}
	.st8{fill:#848483;}
	.st9{fill:#B7A192;}
	.st10{opacity:0.4;fill:#8E8E8D;enable-background:new    ;}
	.st11{fill:#70706F;}
	.st12{fill:none;stroke:#5B5B5B;stroke-width:0.5;stroke-miterlimit:10;}
	.st13{fill:none;stroke:#FFFFFF;stroke-width:0.5;stroke-miterlimit:10;}
	.st14{fill:url(#SVGID_3_);}
	.st15{fill:url(#SVGID_4_);}
	.st16{fill:url(#SVGID_5_);}
	.st17{fill:url(#SVGID_6_);}
	.st18{fill:url(#SVGID_7_);}
	.st19{fill:#6D3F1F;}
	.st20{opacity:0.3;enable-background:new    ;}
	.st21{fill-rule:evenodd;clip-rule:evenodd;fill:#ABE7FF;}
	.st22{fill:#F3FFF8;}
	.st23{fill-rule:evenodd;clip-rule:evenodd;fill:url(#SVGID_8_);}
	.st24{opacity:0.51;fill:#668689;enable-background:new    ;}
	.st25{fill-rule:evenodd;clip-rule:evenodd;fill:#C2F1FF;}
	.st26{fill:#080806;}
	.st27{fill:#0A0A09;}
	.st28{fill:#1F211A;}
	.st29{fill:#C1C6C1;}
	.st30{fill:#E0E0E0;}
	.st31{fill:#A5A5A5;}
	.st32{fill:#ED5A11;stroke:#663708;stroke-miterlimit:10;}
	.st33{fill:#8D8D8D;}
	.st34{fill:#171715;}
	.st35{fill:#F0E6D0;}
	.st36{fill:#676767;}
	.st37{fill:#B5B4B4;}
	.st38{fill:#A0A0A0;}
	.st39{fill:#898989;}
	.st40{fill:#6C6D6D;}
	.st41{fill:#7E817F;}
	.st42{fill:#8E4F15;}
	.st43{fill:#B54615;}
	.st44{fill:#A79D8A;}
	.st45{fill:#D3C6A7;}
	.st46{fill:#B4AC99;}
	.st47{fill:#FF9566;}
	.st48{fill:#929190;}
	.st49{fill:#FF7E45;stroke:#663708;stroke-miterlimit:10;}
	.st50{fill:#70522B;}
	.st51{fill:#511707;}
	.st52{opacity:0.7;fill:#70522B;enable-background:new    ;}
	.st53{fill:#1E70AF;stroke:#184059;stroke-miterlimit:10;}
	.st54{fill:#166493;}
	.st55{fill-rule:evenodd;clip-rule:evenodd;fill:#EA9860;stroke:#A55925;stroke-width:0.75;stroke-miterlimit:10;}
	.st56{fill:#2D6316;}
	.st57{fill:#1E70AF;}
	.st58{fill-rule:evenodd;clip-rule:evenodd;fill:#422813;}
	.st59{fill-rule:evenodd;clip-rule:evenodd;fill:#DD8B52;}
	.st60{fill-rule:evenodd;clip-rule:evenodd;fill:#DC8347;}
	.st61{opacity:0.3;fill:#8D3D24;enable-background:new    ;}
	.st62{opacity:0.3;fill-rule:evenodd;clip-rule:evenodd;fill:#8D3D24;enable-background:new    ;}
	.st63{fill:#331F00;}
	.st64{fill-rule:evenodd;clip-rule:evenodd;fill:#88512B;}
	.st65{fill:#DD8B52;}
	.st66{fill-rule:evenodd;clip-rule:evenodd;fill:#331F00;}
	.st67{fill:#88512B;}
	.st68{fill:#659AFF;stroke:#3F5E8E;stroke-miterlimit:10;}
	.st69{fill:#FFFFFF;}
	.st70{fill:#422813;}
	.st71{fill:#DC8347;}
	.st72{fill:#1C7CC6;}
	.st73{fill:#97CBFF;}
	.st74{fill:#5BA5FC;}
	.st75{fill:#351F10;}
	.st76{fill:#575903;}
	.st77{fill:#2D2216;}
	.st78{fill:#2A3F54;}
	.st79{fill:#99A4BC;}
	.st80{fill:#ABECFF;}
	.st81{fill-rule:evenodd;clip-rule:evenodd;fill:#A3653B;}
	.st82{fill:#006F88;stroke:#003488;stroke-width:0.75;stroke-miterlimit:10;}
	.st83{fill:#2297AA;stroke:#04869B;stroke-linejoin:round;}
	.st84{fill-rule:evenodd;clip-rule:evenodd;fill:#1C7CC6;stroke:#2E4566;stroke-miterlimit:10;}
	.st85{fill:#647C8C;}
	.st86{fill:#2A3F54;stroke:#171F26;stroke-miterlimit:10;}
	.st87{fill:#90A5B2;}
	.st88{fill:#FFCC0C;stroke:#917417;stroke-miterlimit:10;}
	.st89{fill:#6D5403;}
	.st90{fill:#263949;}
	.st91{fill:#564539;}
	.st92{fill:url(#SVGID_9_);}
	.st93{fill:#7FE8EF;}
	.st94{opacity:0.59;fill:#ABE7FF;enable-background:new    ;}
	.st95{fill:none;stroke:#206363;stroke-width:8;stroke-miterlimit:10;}
</style>
<path class="st0" d="M467,548.5H117c-53.6,0-97-43.4-97-97v-333c0.1-53.6,43.6-96.9,97.1-96.9c2.9,0,5.8,0.1,8.7,0.4l366.1,33.5
	c51.9,4.8,90.8,49.7,88,101.7l-16,299.5C561.1,508.1,518.6,548.4,467,548.5z"/>
<g>
	<defs>
		<path id="SVGID_1_" d="M467,548.5H117c-53.6,0-97-43.4-97-97v-333c0.1-53.6,43.6-96.9,97.1-96.9c2.9,0,5.8,0.1,8.7,0.4l366.1,33.5
			c51.9,4.8,90.8,49.7,88,101.7l-16,299.5C561.1,508.1,518.6,548.4,467,548.5z"/>
	</defs>
	<clipPath id="SVGID_2_">
		<use xlink:href="#SVGID_1_"  style="overflow:visible;"/>
	</clipPath>
	<g class="st1">
		<path class="st2" d="M727.3,402.4c0,71.9-168.5,201.3-431.5,174C44,550.4-99.2,489.8-99.2,417.9S42.6,316.2,295.7,316.2
			S727.3,330.5,727.3,402.4z"/>
		<path class="st3" d="M746.8,454.1c0,57.6-195,192.6-458,170.8C37.1,604-124,477.4-124,419.8s193.5,16,446.6,16
			S746.8,396.4,746.8,454.1z"/>
		<rect x="-146.5" y="260.5" class="st4" width="844.9" height="92.3"/>
		<path class="st5" d="M416.9,513.8c0,0,7-4.7,20.6-5.9s-14.5-6.2-24.6,5.9C412.8,513.8,408.3,519.1,416.9,513.8z"/>
		<path class="st5" d="M397.4,511c-0.3,0.9,0.2,1.8,1,2.1c0.5,0.2,1.1,0.1,1.5-0.2c5.6-3.9,20.8-14.3,30.5-17.5
			c12-4-11.5-4.3-27.5,8.1l-0.1,0.1C402.2,504.2,398.5,507.9,397.4,511z"/>
		<path class="st5" d="M390,511.5c0.1,0.9,0.9,1.6,1.8,1.5c0.5-0.1,1-0.4,1.3-0.8c3.6-6.2,13.5-22.6,18.5-25.1
			c6.2-3-9.8-4.7-19.8,15.1c0,0.1-0.1,0.1-0.1,0.2C391.5,503.1,389.7,508.1,390,511.5z"/>
		<path class="st5" d="M382.8,508.4c0.1,0.9,1,1.5,1.9,1.4c0.6-0.1,1.2-0.6,1.3-1.2c1.9-6.9,5.4-17.6,8.8-19.9
			C399.3,485.7,380.1,491.1,382.8,508.4z"/>
		<path class="st5" d="M377.8,508.5c0.5,0.8,1.5,1,2.3,0.5c0.6-0.4,0.9-1.1,0.7-1.8c-1-5.6-3.5-12.6-9.9-14.3
			C362.2,490.6,371.6,499.9,377.8,508.5z"/>
		<path class="st5" d="M371.3,507.8c0.7,0.6,1.8,0.4,2.3-0.3c0.4-0.5,0.5-1.3,0.1-1.9c-3.7-5.9-9.9-12.7-19.1-13
			C340.9,492.1,358.9,497.8,371.3,507.8z"/>
		<path class="st5" d="M361.9,510.6c0.9,0.2,1.8-0.3,2-1.2s-0.3-1.8-1.2-2c-3.3-0.8-6.7-1.1-10.1-1
			C343.7,506.8,352.5,508.6,361.9,510.6z"/>
		<path class="st5" d="M125.2,522.2c0.1,0.9,1,1.5,1.9,1.4c0.6-0.1,1.2-0.6,1.3-1.2c1.9-6.9,5.4-17.6,8.8-19.9
			C141.7,499.5,122.5,504.9,125.2,522.2z"/>
		<path class="st5" d="M120.2,522.3c0.5,0.8,1.5,1,2.3,0.5c0.6-0.4,0.9-1.1,0.7-1.8c-1-5.6-3.6-12.7-9.9-14.3
			C104.6,504.4,114,513.7,120.2,522.3z"/>
		<path class="st5" d="M113.7,521.6c0.7,0.6,1.8,0.4,2.3-0.3c0.4-0.5,0.5-1.3,0.1-1.9c-3.7-6-9.9-12.8-19.1-13
			C83.3,506,101.3,511.6,113.7,521.6z"/>
		<path class="st5" d="M104.3,524.4c0.9,0.2,1.8-0.3,2-1.2c0.2-0.9-0.3-1.8-1.2-2c-3.3-0.8-6.7-1.1-10.1-1
			C86.1,520.6,94.9,522.5,104.3,524.4z"/>
		<rect x="-146.4" y="-126.9" class="st6" width="974.2" height="393.8"/>
		<polyline class="st7" points="3.7,317 605.2,317 599.4,420.4 -147.3,419.8 -146.8,374.8 -62.6,374.8 3.7,317 3.7,317 		"/>
		<rect x="-148.1" y="408.2" class="st8" width="974.8" height="11.6"/>
		<polygon class="st9" points="605.2,317 3.7,317 3.7,-36.4 605,-36.4 		"/>
		<polygon class="st10" points="90.7,385.3 143.2,337.4 472.9,330.8 548.3,368.7 344.5,398.8 		"/>
		<polygon class="st11" points="214.2,419.8 214.2,408.2 223.2,375.1 215.4,408.2 215.1,419.8 		"/>
		<polyline class="st12" points="826.6,354.6 602.7,352.4 -47.7,356.9 		"/>
		<polyline class="st13" points="826.6,354.1 602.7,351.9 -47.7,356.4 		"/>
		<line class="st12" x1="-146.9" y1="386.4" x2="914.8" y2="386.4"/>
		<line class="st13" x1="-147.6" y1="385.9" x2="914.2" y2="385.9"/>
		
			<linearGradient id="SVGID_3_" gradientUnits="userSpaceOnUse" x1="-148.15" y1="249.5" x2="3.82" y2="249.5" gradientTransform="matrix(1 0 0 -1 0 572)">
			<stop  offset="0" style="stop-color:#96A343"/>
			<stop  offset="4.000000e-02" style="stop-color:#9BAA47"/>
			<stop  offset="0.14" style="stop-color:#A4B44F"/>
			<stop  offset="0.25" style="stop-color:#A7B851"/>
			<stop  offset="0.51" style="stop-color:#A7B851"/>
			<stop  offset="0.95" style="stop-color:#96A343"/>
		</linearGradient>
		<path class="st14" d="M3.7,317l-66.3,57.8h-84.2l-1.3-104.6H3.1l0.7,32.7"/>
		
			<linearGradient id="SVGID_4_" gradientUnits="userSpaceOnUse" x1="544.1" y1="202.705" x2="623.7" y2="202.705" gradientTransform="matrix(1 0 0 -1 0 572)">
			<stop  offset="0" style="stop-color:#7A8634"/>
			<stop  offset="0.83" style="stop-color:#6B772C"/>
		</linearGradient>
		<path class="st15" d="M552.4,339.5l49.8,0.1c7.2,19.9,14.4,39.7,21.6,59.6l-79.6-0.9C546.9,378.7,549.6,359.1,552.4,339.5z"/>
		
			<linearGradient id="SVGID_5_" gradientUnits="userSpaceOnUse" x1="545.61" y1="207.52" x2="622.19" y2="207.52" gradientTransform="matrix(1 0 0 -1 0 572)">
			<stop  offset="0" style="stop-color:#96A343"/>
			<stop  offset="4.000000e-02" style="stop-color:#9BAA47"/>
			<stop  offset="0.14" style="stop-color:#A4B44F"/>
			<stop  offset="0.25" style="stop-color:#A7B851"/>
			<stop  offset="0.51" style="stop-color:#A7B851"/>
			<stop  offset="0.95" style="stop-color:#96A343"/>
		</linearGradient>
		<path class="st16" d="M552.4,337.3l49.8,0.1l20.1,54.2l-76.6-1.5L552.4,337.3z"/>
		
			<linearGradient id="SVGID_6_" gradientUnits="userSpaceOnUse" x1="-2925.76" y1="213.055" x2="-2821.7202" y2="213.055" gradientTransform="matrix(-1 0 0 -1 -2873.8501 572)">
			<stop  offset="0" style="stop-color:#7A8634"/>
			<stop  offset="0.83" style="stop-color:#6B772C"/>
		</linearGradient>
		<path class="st17" d="M51.9,332.8l-50.6-2.1l-53.4,56.5l83.7-0.8L51.9,332.8z"/>
		
			<linearGradient id="SVGID_7_" gradientUnits="userSpaceOnUse" x1="-2925.76" y1="216.36" x2="-2825.9402" y2="216.36" gradientTransform="matrix(-1 0 0 -1 -2873.8501 572)">
			<stop  offset="0" style="stop-color:#96A343"/>
			<stop  offset="4.000000e-02" style="stop-color:#9BAA47"/>
			<stop  offset="0.14" style="stop-color:#A4B44F"/>
			<stop  offset="0.25" style="stop-color:#A7B851"/>
			<stop  offset="0.51" style="stop-color:#A7B851"/>
			<stop  offset="0.95" style="stop-color:#96A343"/>
		</linearGradient>
		<path class="st18" d="M51.9,329.3l-50.6,1.4L-47.9,382h77.3C36.9,364.4,44.4,346.9,51.9,329.3z"/>
		<rect x="-148.1" y="263.2" class="st19" width="151.3" height="7"/>
		<ellipse class="st20" cx="281.3" cy="453.5" rx="325.8" ry="45.4"/>
		<path class="st21" d="M78.5,451.3c-103.5,21.9-32,22.3-32,22.3s63.5,11.9,116.7,3.8s58.1-8.1,86.3-2.2s97.7,7.6,48.3-9.2
			s-87.4-6.8-105.9-10.2s21.7-5,38.6-9.4S154.5,435.2,78.5,451.3z"/>
		<path class="st21" d="M282.2,492c32.6,9,49,9.7,64.5,22.5s64.2,4.8,64.2,4.8s72.3-14.9-10.1-27.5S249.6,483,282.2,492z"/>
		<path class="st21" d="M310.4,478c32.6,9,49,9.7,64.5,22.6s64.2,4.8,64.2,4.8s72.3-15-10.1-27.6S277.9,469,310.4,478z"/>
		<path class="st21" d="M148.3,500.6c0,0,55.5,26.2,99.4,11.1s47.9-35.4-36.2-34.4C150.4,478.1,122.4,495.3,148.3,500.6z"/>
		<path class="st22" d="M34.5,464.9c4.4,1.9,8.9,3.5,13.5,4.9c2.3,0.7,4.6,1.3,6.9,1.9l7,1.6c9.4,2,18.9,3.4,28.5,4.2
			c19.1,1.6,38.4,1.2,57.4-1c19.1-2,37.9-6.5,57.1-7.7c9.6-0.8,19.2-0.7,28.8,0.1c4.8,0.5,9.5,1.4,14.2,2.6c1.2,0.3,2.3,0.7,3.4,1.1
			s2.3,0.8,3.4,1.3c2.2,0.9,4.4,1.9,6.6,3c-2.2-1-4.4-2-6.6-2.8c-1.1-0.4-2.2-0.8-3.4-1.2c-1.1-0.3-2.3-0.7-3.4-1
			c-4.6-1.2-9.4-2-14.2-2.4c-9.6-0.8-19.2-0.7-28.7,0.1l-3.6,0.3c-1.2,0.1-2.4,0.3-3.6,0.4c-2.4,0.3-4.8,0.5-7.1,0.8
			c-4.8,0.7-9.5,1.3-14.2,2.1s-9.5,1.6-14.2,2.3l-7.1,1.1c-2.4,0.3-4.8,0.5-7.2,0.8c-19.1,2.2-38.4,2.5-57.6,0.8
			c-9.6-0.9-19.1-2.4-28.5-4.5l-7-1.8c-2.3-0.7-4.6-1.3-6.9-2C43.4,468.6,38.9,466.9,34.5,464.9z"/>
		<path class="st22" d="M144.2,494c0.2,0.3,0.4,0.6,0.7,0.8c0.3,0.2,0.6,0.4,0.9,0.6c0.6,0.4,1.2,0.7,1.8,1.1
			c1.2,0.7,2.5,1.3,3.8,1.9c2.6,1.2,5.1,2.3,7.8,3.3c5.3,2,10.6,3.8,16.1,5.2c10.9,3,22,4.9,33.2,5.8c5.6,0.5,11.2,0.7,16.9,0.7
			c5.6-0.3,11.2-1.2,16.6-2.6c5.5-1.4,10.8-3.1,16.1-5.1c5.3-2,10.5-4.2,15.5-6.8c-2.4,1.4-5,2.6-7.5,3.8s-5.2,2.3-7.8,3.4
			c-5.2,2.1-10.6,3.9-16.1,5.4c-5.5,1.5-11.1,2.5-16.7,2.8c-5.7,0.1-11.3-0.1-17-0.6c-11.3-0.9-22.4-2.9-33.3-6
			c-5.4-1.5-10.8-3.4-16-5.5c-2.6-1.1-5.2-2.2-7.7-3.5c-1.3-0.6-2.5-1.3-3.7-2c-0.6-0.4-1.2-0.7-1.8-1.1c-0.3-0.2-0.6-0.4-0.8-0.6
			C144.6,494.6,144.4,494.3,144.2,494z"/>
		
			<linearGradient id="SVGID_8_" gradientUnits="userSpaceOnUse" x1="281.31" y1="67.1749" x2="430.14" y2="67.1749" gradientTransform="matrix(1 0 0 -1 0 572)">
			<stop  offset="0" style="stop-color:#F4F4F4;stop-opacity:0"/>
			<stop  offset="9.000000e-02" style="stop-color:#EEF4F4;stop-opacity:3.000000e-02"/>
			<stop  offset="0.22" style="stop-color:#DDF5F5;stop-opacity:0.1"/>
			<stop  offset="0.36" style="stop-color:#C0F6F6;stop-opacity:0.21"/>
			<stop  offset="0.53" style="stop-color:#98F8F8;stop-opacity:0.38"/>
			<stop  offset="0.7" style="stop-color:#65FAFA;stop-opacity:0.58"/>
			<stop  offset="0.89" style="stop-color:#28FDFD;stop-opacity:0.83"/>
			<stop  offset="1" style="stop-color:#00FFFF"/>
		</linearGradient>
		<path class="st23" d="M281.3,489.2c0,0,62.4,9.4,69.1,25.3c7.1,16.7,79.7-6.8,79.7-6.8"/>
		<path class="st21" d="M239.9,447.5c0,0,54.4,18.1,98.7,12.7s49.1-16.4-34.9-21.4C242.8,435.2,214.3,442.9,239.9,447.5z"/>
		<path class="st22" d="M239.8,443.1c0.5,0.4,1,0.7,1.6,0.9c0.6,0.3,1.1,0.5,1.7,0.7c1.1,0.5,2.3,0.9,3.4,1.3
			c2.3,0.9,4.6,1.6,6.9,2.3c4.6,1.5,9.3,2.7,14,3.9c9.4,2.3,19,4,28.6,5.3c4.8,0.7,9.6,1.2,14.5,1.6c2.4,0.2,4.8,0.4,7.2,0.5
			c1.2,0,2.4,0,3.6,0l3.6-0.1c4.8-0.3,9.6-0.9,14.4-1.9c2.4-0.5,4.7-1.1,7.1-1.7s4.7-1.3,7-1.8c-2.4,0.6-4.6,1.4-7,2.1
			s-4.7,1.3-7,1.9c-4.7,1.1-9.6,1.8-14.4,2.2c-4.9,0.3-9.7,0.2-14.6-0.3c-4.9-0.4-9.7-0.9-14.5-1.5c-9.6-1.3-19.2-3.1-28.6-5.5
			c-4.7-1.2-9.4-2.6-14-4.1c-2.3-0.8-4.6-1.6-6.8-2.5c-1.1-0.5-2.2-0.9-3.4-1.4c-0.6-0.3-1.1-0.5-1.6-0.8
			C240.7,443.8,240.2,443.5,239.8,443.1z"/>
		<path class="st21" d="M315.2,532.7c0,0,54.4,18.1,98.7,12.7S463,529,379,524C318.1,520.4,289.6,528.1,315.2,532.7z"/>
		<path class="st21" d="M315,528.3c0.6,1.2,29.2,13.8,74.7,16.8c19,1.3,33.7-4.7,38.8-5.8"/>
		<path class="st21" d="M393.4,439.8c0,0,55.5,14.5,99.4,6.1s47.9-19.6-36.2-19C395.5,427.4,367.5,436.9,393.4,439.8z"/>
		<path class="st22" d="M393,435.4c0.5,0.3,1,0.6,1.6,0.8l1.7,0.6c1.1,0.4,2.3,0.8,3.5,1.1c2.3,0.7,4.7,1.3,7,1.9
			c4.7,1.1,9.5,2.1,14.2,2.9c9.6,1.6,19.2,2.8,28.9,3.4c4.8,0.3,9.7,0.5,14.5,0.6c2.4,0,4.9,0,7.3,0c1.2,0,2.4-0.1,3.6-0.2l3.6-0.4
			c4.8-0.6,9.6-1.6,14.2-2.9c2.3-0.7,4.6-1.4,7-2.1c2.3-0.8,4.6-1.6,6.9-2.3c-2.3,0.8-4.5,1.7-6.8,2.6s-4.6,1.6-6.9,2.4
			c-4.7,1.4-9.4,2.5-14.2,3.2c-4.8,0.6-9.7,0.9-14.6,0.7c-4.9-0.1-9.7-0.2-14.6-0.5c-9.7-0.6-19.4-1.8-28.9-3.6
			c-4.8-0.9-9.5-2-14.2-3.2c-2.3-0.6-4.7-1.3-7-2.1c-1.2-0.4-2.3-0.8-3.4-1.2l-1.7-0.7C394,436.1,393.5,435.8,393,435.4z"/>
		<path class="st21" d="M279.6,416.6c0,0,55.5,11.3,99.4,4.8s47.9-15.3-36.2-14.8C281.7,406.9,253.7,414.3,279.6,416.6z"/>
		<path class="st21" d="M-8.3,431.7c0,0,55.5,11.3,99.4,4.8s47.9-15.3-36.2-14.8C-6.2,422-34.2,429.4-8.3,431.7z"/>
		<path class="st22" d="M279.2,413.2c1.1,0.5,2.2,0.9,3.4,1.1c1.2,0.3,2.3,0.6,3.5,0.9c2.3,0.5,4.7,1,7.1,1.4
			c4.7,0.9,9.5,1.6,14.3,2.3c9.5,1.3,19.1,2.1,28.7,2.6c4.8,0.3,9.6,0.4,14.4,0.5c2.4,0,4.8,0,7.2,0s4.8-0.2,7.2-0.4
			c4.8-0.4,9.5-1.2,14.2-2.2c2.4-0.5,4.7-1.1,7-1.7c2.3-0.6,4.6-1.3,7-1.8c-2.3,0.6-4.6,1.4-6.9,2s-4.6,1.3-7,1.9
			c-4.7,1.1-9.4,1.9-14.2,2.5c-4.8,0.5-9.6,0.7-14.5,0.5c-4.8,0-9.6-0.2-14.5-0.4c-9.6-0.5-19.2-1.4-28.8-2.8
			c-4.8-0.7-9.5-1.5-14.2-2.5c-2.4-0.5-4.7-1-7-1.7c-1.2-0.3-2.3-0.6-3.5-1C281.4,414.1,280.2,413.7,279.2,413.2z"/>
		<path class="st21" d="M36.1,510.5c0,0,54.8,21.4,99,11.5s48.7-24.9-35.4-26.9C38.7,493.8,10.3,505.8,36.1,510.5z"/>
		<path class="st22" d="M35.8,504.6c0.4,0.4,0.9,0.8,1.5,1.1c0.5,0.3,1.1,0.6,1.6,0.9c1.1,0.6,2.2,1.1,3.3,1.6
			c2.3,1,4.5,1.9,6.9,2.8c4.6,1.7,9.3,3.2,14.1,4.5c9.5,2.6,19.2,4.5,29,5.6c4.9,0.6,9.8,1,14.7,1.3l3.7,0.2c1.2,0,2.5,0,3.7,0
			l3.7-0.2c1.2-0.1,2.4-0.2,3.7-0.4c4.9-0.7,9.7-1.9,14.3-3.5c2.3-0.8,4.6-1.7,6.9-2.7s4.5-2,6.8-2.9c-2.3,0.9-4.5,2.1-6.7,3.1
			s-4.5,2-6.8,2.9c-4.6,1.8-9.5,3-14.4,3.8c-1.2,0.2-2.5,0.3-3.7,0.5s-2.5,0.2-3.7,0.2s-2.5,0-3.7,0l-3.7-0.1
			c-4.9-0.2-9.9-0.7-14.8-1.2c-9.8-1.2-19.5-3.2-29-5.9c-4.8-1.4-9.5-3-14-4.8c-2.3-0.9-4.6-1.9-6.8-3c-1.1-0.5-2.2-1.1-3.3-1.7
			c-0.5-0.3-1.1-0.6-1.6-1C36.8,505.4,36.3,505.1,35.8,504.6z"/>
		<ellipse class="st24" cx="5.4" cy="461.9" rx="10.1" ry="1.7"/>
		<path class="st25" d="M229.8,492.8c0,3.2-3,5.3-6.7,5.8c-8.4,1.1-49.9,7.1-6.7-5.8c3.1-0.9,3-5.8,6.7-5.8S229.8,489.7,229.8,492.8
			z"/>
		<polygon class="st26" points="-4.9,413.1 157.9,409.6 153.2,260.8 2.2,266.6 		"/>
		<path class="st27" d="M279.7,318.6c6.4-0.8,25.6,0,25.6,0c0.8,0.2,1.6,0.4,2.5,0.7h19c27,6.5,46,34.9,46,69.2
			c0,38.4-20.9,69-52.9,70.1l0,0h-27.3c-33.1,0-60-31.7-60-70.9C232.5,353.9,252.1,322.1,279.7,318.6z"/>
		<path class="st26" d="M41.2,411.6c0-34.5,22.4-63.1,50.3-69.7h24c27.2,6.5,53.5,35.9,53.5,70.5c0,38.6-28.2,68.6-60.4,69.8l0,0H81
			l3-4.8C60.2,467.3,41.2,441.9,41.2,411.6z"/>
		<path class="st28" d="M68.2,341.3c6.4-0.8,25.7,0,25.7,0c27.1,7,47.4,35.5,47.4,69.6c0,39.4-27,71.3-60.3,71.3
			s-60.3-31.9-60.3-71.3C20.7,376.8,40.4,344.8,68.2,341.3z"/>
		<path class="st29" d="M68.6,368.4c7.7-2.1,15.8,0,15.8,0c16.7,4.3,29.2,21.8,29.2,42.8c0,24.2-16.6,43.8-37.1,43.8
			s-37.1-19.6-37.1-43.8C39.4,390.2,49.8,373.4,68.6,368.4z"/>
		<path class="st30" d="M73.1,399.2c1.5-0.4,3.1-0.4,4.6,0c4.8,1.2,8.5,6.3,8.5,12.4c0,7-4.8,12.7-10.8,12.7s-10.8-5.7-10.8-12.7
			C64.6,405.5,67.7,400.6,73.1,399.2z"/>
		<polygon class="st31" points="80.9,373.4 72.4,373.3 74.1,395.5 78.4,395.7 		"/>
		<polygon class="st31" points="68.3,450.1 76.8,450.8 76.3,429 72,428.5 		"/>
		<polygon class="st31" points="110,417.4 110.3,408.5 89.2,409.8 88.9,414.3 		"/>
		<polygon class="st31" points="42.9,404.9 42,413.8 61.5,413.7 62,409.1 		"/>
		<polygon class="st31" points="104.7,388.7 98.6,382.4 85.2,399.6 88.2,402.9 		"/>
		<polygon class="st31" points="46.8,433.7 52.5,440.4 66.5,424.4 63.7,420.9 		"/>
		<polygon class="st31" points="97.8,441.6 103.7,435.2 87.2,421.2 84.1,424.4 		"/>
		<polygon class="st31" points="54.5,381.2 48.2,387.2 63.5,401.8 66.8,398.8 		"/>
		<path class="st31" d="M73.2,418.4c0.1,1.2,1,2.1,2.2,2c1.2-0.1,2.1-1,2-2.2c-0.1-1.1-1-2-2.1-2C74.1,416.2,73.1,417.2,73.2,418.4
			C73.1,418.4,73.1,418.4,73.2,418.4z"/>
		<path class="st31" d="M72.6,405.4c0.1,1.2,1,2.1,2.2,2s2.1-1,2-2.2c-0.1-1.1-1-2-2.1-2C73.5,403.3,72.6,404.3,72.6,405.4z"/>
		<path class="st31" d="M66.7,412.5c0.1,1.2,1.1,2.1,2.2,2s2.1-1.1,2-2.2c-0.1-1.1-1-2-2.1-2C67.6,410.4,66.7,411.3,66.7,412.5
			C66.7,412.5,66.7,412.5,66.7,412.5z"/>
		<path class="st31" d="M78.8,411c0.1,1.2,1,2.1,2.2,2s2.1-1,2-2.2c-0.1-1.1-1-2-2.1-2C79.7,408.8,78.8,409.8,78.8,411z"/>
		<path class="st32" d="M-413.9,216.7c5.2-5.5,45.6-4.1,46.9-4.8l218.6-1.5l20-99.3c80.9-6.1,238.7-9.2,271.3,7.1
			c29.4,14.7,93.4,77.8,111.8,88.5c15.6,9.1,30.4,5.6,96.8,22.5c14.8,3.8,65.7,24.4,69.5,29.6c12.7,17.1,24.6,42.4,27,53
			c1.5,6.5-12.5,58.1-17.3,75.4c-2.5,9.1-9.5,18.5-16.6,23c-4.7,2.4-9.6,4.3-14.7,5.4l-253.9-1.8c-2.9-5.2-5.7-12.7-5.7-23.8
			c0-47.7-21.6-81.9-60.3-83C39.3,305.6,12,314.2,5.2,371c-3.1,25.9-3,39.3-2.8,43.9H-83l-180.8-0.3l-4.2-0.1
			c-1.1-2.5,5-103.3-64-102.4c-57.5,0.7-52.2,92.1-51.9,95.2c0.2,2.2-1.8,4.3-3.1,4c-4.5-0.8-43-33.4-48.1-39.3
			c-10.4-12-4.9-63.2-0.9-107.3C-432.5,225.9-429.8,233.3-413.9,216.7z"/>
		<path class="st33" d="M-118.8,120l77.6-1.1c10.4,14.9,43.5,89.8,43.5,89.8l-133.5-0.9L-118.8,120z"/>
		<path class="st33" d="M-21.3,122.3c0.7-1.4,0.8-2.1,1.5-3.5l158.4-0.7c34.1,12.6,116,91.5,116,91.5L20.6,210
			c0,0-31.8-57.8-44-83.7C-22.6,125-21.9,123.7-21.3,122.3z"/>
		<path class="st34" d="M219.7,365.3c16-6,29.6-9.6,37.7-11.1c43.2-8.1,181.8,0.9,181.8,0.9c-1.9,13.3-5.3,23.5-9.8,34.4
			c-40.7,0.1-196.9-0.9-211.4-0.9C201.4,388.6,194.7,374.6,219.7,365.3z"/>
		<path class="st34" d="M144.6,269.8c17.5-18.7,92.1,2.7,119.4,6.9s53.8,3.6,109.6,2.4c47.2-1,47.1-7.2,54.7-9.4
			c7.5,9.5,15.2,27.8,16.6,32.8c0.6,2,2.5,6.5,3.1,11.3L273.3,314c-18.3-3.4-90.8-5.7-117-17.1C148.5,293.5,139.2,275.5,144.6,269.8
			z"/>
		<path class="st35" d="M157.9,273.1c15.9-13,76.4,2.6,100.6,6.7c5.7,1,18.7,4.8,15,18.6c-2.3,8.5-11.2,8.1-19,8.4
			c-26.6,0.9-70.7-6.6-86.7-14C161.2,289.8,153,277,157.9,273.1z"/>
		<path class="st35" d="M415.5,294.5c-5.2-13.4,7.4-18.6,13-20.2c0.4-0.1,2.1-0.7,2.6-0.8c5.4,8.1,9.8,16.8,13.1,26
			c-3,0.4-6.2,1-8.9,1.2C427.5,301.3,418.7,302.7,415.5,294.5z"/>
		<path class="st36" d="M287,292.6c0,1.9,1.4,3.4,3.3,3.4h112.2c1.9,0,3.3-1.6,3.3-3.4l0,0c0-1.9-1.4-3.4-3.3-3.4H290.3
			C288.5,289.2,287,290.7,287,292.6C287,292.6,287,292.6,287,292.6L287,292.6z"/>
		<path class="st36" d="M294.2,303.7c-0.1,1.8,1.2,3.3,3,3.4H400c1.8-0.1,3.1-1.7,3-3.4l0,0c0.1-1.8-1.2-3.3-3-3.4H297.2
			C295.5,300.4,294.1,301.9,294.2,303.7z"/>
		<path class="st37" d="M314.7,371.4c0,6.6,3.6,12,8,12H384c4.4,0,8-5.4,8-12l0,0c0-6.6-3.6-12-8-12h-61.3
			C318.3,359.4,314.7,364.7,314.7,371.4L314.7,371.4z"/>
		<path class="st36" d="M248.5,366.3c4.3,1.8,6.9,6.4,6.2,11c-0.9,4.9-5.6,6.6-7.6,7.1s-25.7,0.3-27.4-2.8s1-10.1,10.8-13.1
			S244.6,364.9,248.5,366.3z"/>
		<path class="st38" d="M230.7,205c0,0-72.2-74.1-91.9-77.5s-161.1,0.3-161.1,0.3l36.5,73.7L230.7,205z"/>
		<polygon class="st33" points="64.6,125.5 82.4,209.3 68.5,209.7 55.7,125.2 		"/>
		<path class="st39" d="M117.7,204.7c0,0-13-21-23.5-21.6s-48.8-4.4-58.6,6.3c-2.4,2.6,0.8,13,0.8,14.6S117.7,204.7,117.7,204.7z"/>
		<path class="st40" d="M52.3,125h21.2l-2.5-6.3l2.8-0.2l2.9,6.6h13.8c2.8,0,5,2.2,5,5c0,2.8-2.2,5-5,5H52.3c-2.8,0-5-2.2-5-5
			C47.3,127.2,49.5,125,52.3,125z"/>
		<path class="st41" d="M19.3,210.1c0,0-0.5-1.9-7.9-14.1c8,3.6,25.9,7.5,46.5,7c10.5-0.3,140.6,3.2,160.3-0.8
			c9.7-2,12.2-8.3,12.4-12.6c17.6,14.2,17.5,14.1,31.1,20.3L19.3,210.1z"/>
		<path class="st41" d="M-97.5,200.7c0.3-2.9,0.9-5.8,2.4-7.1c7-6.1,24.5-7.9,41.7-8.1c15.8-0.2,31.3,0.9,38.1,1.2
			c1.4,0.1,2.9,0.4,4.3,0.8c7.7,12.7,13.3,22.3,13.3,22.3H-78c-11.7-0.2-19.7-0.5-19.7-1C-97.8,206.2-97.7,203.4-97.5,200.7z"/>
		<path class="st40" d="M-138.3,209.5l140.6,0.1c0,0-25.7-64.5-37.6-84.1c-0.8-1.3-3.4-5.2-5.6-6.8c-1.9-1.3-6.7-1.3-6.7-1.3
			l-73.7,0.6L-138.3,209.5z M-128.8,205.2l3.3-18.6l8.1-63.9l65.5-0.8c0,0,5.2-0.4,7.5,1s4.6,5.2,6.7,9
			c11.6,21.1,30.9,73.4,30.9,73.4H-128.8z"/>
		<path class="st42" d="M-19.9,199.3c0,0-4.4-13.1-7.8-16.8s-34.4-5.1-40.6-1.4S-78.6,201-73,208.5s43.6,3.4,47.3,3.9
			c2.8,0.6,5.5,1.5,8.1,2.8l28.3-0.6l-11.6-19.6L-19.9,199.3z"/>
		<path class="st40" d="M138.6,118.1c3.1,1.2,6.2,2.6,9.1,4.1c0,0-163.9-5.9-167.7-0.6c-2.9,4,30.5,76.9,42.3,82.9
			c11,5.6,228.5-0.3,228.5-0.3c5.7,3.2,12,5.8,12,5.8s-176.1,9.5-234.7,3.2c-2.3-0.2-7-1.6-8.9-3.1C3.3,197.2-11,153.2-23.2,127.2
			c-1.6-3.4-2.9-5.6-1.5-7.9c1-1.7,54.4-4.4,91.7-3.7C84.9,116,138.6,118.1,138.6,118.1z"/>
		<path class="st43" d="M427.7,391.6c-2.7,8.9-8.3,16.2-14.7,20.1c-1.9,1.2-6.3,2.5-12.7,4l-165.4,9.1c0,0-41.6-0.8-54.2-1.8
			c-9.4-0.8-29-3.3-36.6-9.1c-3.4-2.6-5.3-23.6-5.1-38c0,0,5.2,7.5,33.3,14.9c55.7,14.4,229.3,10.3,229.3,10.3
			C407.2,399.8,423,393.9,427.7,391.6z"/>
		<path class="st44" d="M156.7,273.2c2.4-1.8,5.1-3,8.1-3.7c-0.8,0.4-1.5,0.9-2.1,1.4c-4.9,4,3.3,16.7,9.8,19.8
			c16,7.4,60.1,14.8,86.7,14c3.1,0,6.3-0.2,9.4-0.6c-3.9,2.8-9.9,2.6-15.3,2.8c-26.6,0.9-70.7-6.6-86.7-14
			C160,289.9,151.9,277.2,156.7,273.2z"/>
		<path class="st45" d="M332.8,296.1c0,3.7,7.6,6.7,17,6.7s17-3,17-6.7s-7.6-6.7-17-6.7S332.8,292.4,332.8,296.1z"/>
		<path class="st46" d="M337.7,295.9c0,2.6,5.4,4.8,12,4.8s12-2.1,12-4.8s-5.4-4.8-12-4.8S337.7,293.3,337.7,295.9z"/>
		<path class="st36" d="M420.8,373c-1-5.7,3.2-10.6,6.2-11c3.6-0.2,7.1,0.4,10.5,1.7c-0.3,6.2-3,12.5-4.8,18.4c-2.5,0-6-0.1-6.1-0.1
			C424.5,381.5,421.7,378,420.8,373z"/>
		<path class="st47" d="M139.9,271.4l-528.6-16.1c0,0,5-5.1,5.3-8.8s-4.2-5.9-3.5-6.6c5-4.9,528,22.1,533.6,24.3
			C146.7,264.2,140.8,270.7,139.9,271.4z"/>
		<path class="st42" d="M-82.8,379.6H4.1c-0.4,18.5-0.3,30-0.2,36h-88l-181.3-1.9l-4.4-0.3c-0.4-1.9-1-16.8-0.8-37l6.3,0.5
			L-82.8,379.6z"/>
		<path class="st48" d="M-274.2,415.1c0,4.8,3.9,8.8,8.8,8.8c0,0,0,0,0,0l261.5-1.5c4.8,0,8.8-3.9,8.8-8.7c0,0,0,0,0,0l0,0
			c0-4.8-3.9-8.8-8.8-8.8c0,0,0,0,0,0l-261.5,1.5C-270.2,406.3-274.2,410.2-274.2,415.1L-274.2,415.1z"/>
		<path class="st48" d="M210.4,415.4c0,5.4,4.4,9.8,9.9,9.8l0,0h206.9c5.4,0,9.8-4.4,9.9-9.8l0,0l0,0c0-5.4-4.4-9.8-9.9-9.8l0,0
			H220.3C214.8,405.6,210.4,410,210.4,415.4L210.4,415.4z"/>
		<path class="st49" d="M-324.7,287.6c64.8,0,63.1,77.3,61.8,81.3l177.9,1.4l83.8,3.6c0.6-3.2,1.5-9.5,2.8-18.3
			c2.6-18.6,15.8-82.6,71.6-81.9c78.3,0.9,70.8,106,67.6,106.1c-2.5,0.1-5.3-38.5-21.8-57.2c-11.1-12.7-31.8-15.8-49.9-15.8
			c-40.4,0-56.3,24.4-61.8,51.3c-2,9.6-2,10.8-2.3,16.4l0,0l-0.8,5.3l-150.9-2.8l-121.7-0.3c-0.7,0.2-1.4,0.2-2.1-0.1
			c0,0-8.9-33.4-20.4-46.5c-10.2-11.4-24.6-18.1-39.9-18.3c-34.4,0-46.8,32.3-50.4,57.5c-1.6,10.9-3.4,20.1-3.4,20.1
			S-409.4,287.6-324.7,287.6z"/>
		<path class="st42" d="M142.7,399.4c1-14.6,1-29.4,0-44c-1-13.7-3-25.7-5.9-35.5c-3.7-12.5-8.9-21.7-15.5-27.4
			c-25.1-21.9-41.9-20.7-50-20.1c-1.1,0.1-2.1,0.1-2.8,0.1c-3,0-14.4,1.5-27,8.4c-14.8,7.9-26,21.2-31.2,37.1
			C-0.7,350.9-4,367.7-4.7,371.4l-257.3-3.5c-0.1-4.2-0.6-21.9-3.7-32.4c-2.5-8.1-5.9-15.8-10.2-23.1c-6-9.9-12.8-16.6-20.2-19.9
			c-17.6-7.8-36.3-8.7-52.5-2.6c-17.9,6.8-25.3,16.2-29.6,21.8c-7.9,10.2-10.7,32.3-11,39.3c-0.4,7.3,3.7,36.9,3.8,38.2l1.7-0.3
			c0-0.3-4.2-30.7-3.8-37.8c0.3-6.8,3-28.4,10.6-38.2c4.3-5.5,11.4-14.7,28.9-21.3c15.9-6,34.1-5.1,51.3,2.5
			c19,8.4,28.5,38.4,29.5,41.8c3.4,11.4,3.6,32.6,3.6,32.8v0.9l260.5,3.6l0.1-0.8c0-0.2,2.6-16.6,15-53.9
			c5.1-15.5,16-28.5,30.5-36.1c11.4-6.2,22.5-8.2,26.2-8.2c0.8,0,1.8-0.1,3-0.2c7.8-0.6,24.2-1.8,48.7,19.7
			c14.4,12.5,19.2,40.5,20.8,61.7c1,14.6,1,29.2-0.1,43.7L142.7,399.4z"/>
		<path class="st43" d="M-4,396.5c0-0.2,0.8-21.4,1.3-28.4c0.2-3.2,11.1-55.8,16.8-68.2c6.4-13.9,13.7-29.7,16.5-39.6
			c5.5-19.3-8.7-31.7-9.3-32.8l-0.1-0.1L5.7,205.6l-1.5,1.2l15.5,21.7c0.8,1.5,14.3,13.2,9.1,31.2c-2.8,9.8-10,25.5-16.4,39.4
			c-6.3,13.6-16.8,65.3-17,68.9c-0.4,7-1.3,28.2-1.3,28.4L-4,396.5z"/>
		<path class="st43" d="M152.5,266l1.7-3c-0.9-0.6-22.8-13.7-30.9-16.9c-25.7-10.1-104.6-26.5-107.9-27.2l-0.6,3.4
			c0.8,0.2,81.9,16.9,107.4,26.9C130,252.4,152.3,265.9,152.5,266z"/>
		<path class="st47" d="M444.5,332.3c0,0-25.1,0.3-27.9,0.3s-137.6,0-143.9,0.4s-75.8-10-83.5-12.2s-3.8-5.9,15.3-4.8
			s53.3,8.8,72.1,7.7s138,0,138,0l32.2-1L444.5,332.3z"/>
		<path class="st50" d="M229.8,248.2c-2.4,0-6.3-2-6.3-2s-0.9-1.9,3.7-1.6s8.7,2.7,6.3,3.5C232.3,248.7,231,248.7,229.8,248.2z"/>
		<path class="st50" d="M191.3,252.3c-2.4,0-6.3-2-6.3-2s-0.9-1.9,3.7-1.6s8.7,2.7,6.3,3.5C193.8,252.7,192.5,252.8,191.3,252.3z"/>
		<path class="st50" d="M174.2,247.5c-4.6,0-12.1-3.7-12.1-3.7s-1.8-3.7,7.1-3s16.7,5.2,12.1,6.7S174.2,247.5,174.2,247.5z"/>
		<path class="st50" d="M366.4,241.7c-4.6,0-11.9-4.6-11.9-4.6s-1.8-3.7,7.1-3s16.7,5.2,12.1,6.7S366.4,241.7,366.4,241.7z"/>
		<path class="st50" d="M361.2,244.8c-1.8,0-4.6-1.8-4.6-1.8s-0.7-1.4,2.8-1.2s6.5,2,4.7,2.6C363.1,244.8,362.2,244.9,361.2,244.8z"
			/>
		<path class="st50" d="M48.9,246.3c-4.6,0-12.1-3.7-12.1-3.7s-1.8-3.7,7.1-3s16.7,5.2,12.1,6.7S48.9,246.3,48.9,246.3z"/>
		<path class="st51" d="M5.9,374c0.3-5.6,0.3-6.8,2.3-16.4c5.6-26.9,21.4-51.4,61.8-51.4c18.2,0,38.8,3.2,49.9,15.8
			c13.5,15.3,17.8,43.9,20.4,53.8c-0.1-0.1-0.2-0.2-0.3-0.4c-0.1,5.7,0.2,12.5,0.8,18.8c-5.3-26.6-23.2-47.5-45.8-53.4
			c0,0-19.3-0.8-25.7,0c-27.7,3.5-47.5,35.5-47.5,69.6c0,0.6,0,1.1,0,1.6l-16.9,0.4c-0.1-6.5-0.1-17.3,0.2-33.3L5.9,374z"/>
		<path class="st52" d="M-24.3,127.1c12.1,26,26.5,70,42.4,82.9c1.9,1.5,6.6,2.9,8.9,3.1c58.6,6.2,235.5-3.2,235.5-3.2
			c-4.4-1.7-8.7-3.6-12.9-5.8c0,0-1.1-0.8-2-1.3c-17.3-16.3-70.2-63.8-101.3-80.7h0.2c-1.1-0.6-2.2-1.1-3.3-1.6
			c-1.8-0.9-3.7-1.8-5.7-2.5h-0.1c0,0-53.6-2.1-71.5-2.5c-37.3-0.8-90.8,2-91.7,3.7C-27.1,121.6-25.9,123.7-24.3,127.1z M-6.8,135.4
			c0,0,64.3-3.4,102.7,11.9c-3.8-8.9-6.4-15.3-6.4-15.3s57.6,9.8,90.1,24.8c29,13.5,59,47,59,47c-3.7-0.6-37.2,2.9-53.5,2.9
			c-9.3,0-23.7,0.3-36.6-0.3c-14.4,1.1-32.8,2.5-44.2,2.5c-22.9,0-70.8,1.7-78.7-8.6S-6.8,135.4-6.8,135.4z"/>
		<path class="st53" d="M492.1,199.7c0,0-14.8,20.6-18.2,24.8s-18.8,6.1-26.3,4.2c-1.5-0.4-16-4.1-18-5.1c-4.8-2.4-2.4-4.2-4.3-6.6
			c-3.2-4-2.3-5.5,0.3-8.1c2-2,0.4-4.2,3.5-4.3c10.4-0.3,29.2,8.4,33.8,3.8c5.9-6,25.1-49.4,25.1-49.4L492.1,199.7z"/>
		<path class="st54" d="M417.6,209.8c-1.8,4.6,0.5,9.8,5.1,11.6l5.1,1.9c4.7,1.6,9.8-1,11.4-5.6l0,0c1.8-4.6-0.5-9.8-5.1-11.7
			l-2.1-1C427.3,203.4,419.3,205.1,417.6,209.8L417.6,209.8z"/>
		<path class="st55" d="M413.3,211.5c0,0-1.2,0.4-2.5,0.9s-3.3,1.6-4.7,0.7c-1.2-0.7-1.5-2.2-0.8-3.4c0.2-0.3,0.4-0.5,0.7-0.7
			c1.5-1.3,2.7-1.4,5.8-1.6s4-0.1,6.1-1.4s8.7-1.2,11.2-0.5s5.1,5,5.2,5.4S413.3,211.5,413.3,211.5z"/>
		<path class="st56" d="M394.2,212l40.1,5.7c17.8,8.1,39.4,24,52,29.9c10.1,4.8-41.2,190.9-14.5,219.2
			c17.6,18.7,138.5,8.8,179.2,23.3c28,10,58.9,39.4,69.5,44c32,14,14.4,0,14.4,0s-59.4-49.3-90-57.1s-75.4-8.2-90.2-7.1
			c-24.8,1.8-69.2,0.5-79.1-18.2c-10.1-19,29-204.9,18.4-207.4c0.1-2.4-56.1-35.1-59.4-35.1l-38.5-4c0.6,1.3,0.6,2.8,0.2,4.2
			C395.9,210.4,395.2,211.4,394.2,212z"/>
		<path class="st55" d="M433.2,220.6c-0.4,2-7.8,4.9-6-1.7c0.8-3,4-10.8,5.7-11.5s3,0.3,2.9,1.6S433.4,220,433.2,220.6z"/>
		<path class="st55" d="M428.5,220.9c0.3,1.5-6.4,2-6.2-1s2.8-11.1,4.5-12.1s3,0,3.1,1.3S428.5,220.3,428.5,220.9z"/>
		<path class="st55" d="M423.7,221.3c0.3,1.5-6.4,2-6.2-1s2.8-11.2,4.5-12.1s3,0,3.1,1.3S423.6,220.7,423.7,221.3z"/>
		<path class="st55" d="M420.3,221.5c0.7,1.4-5.6,3.8-6.2,0.8s-0.3-11.4,1.1-12.8s2.9-0.9,3.3,0.3S420,221,420.3,221.5z"/>
		<polygon class="st57" points="499,134.6 494.6,136.8 498.5,141 		"/>
		<path class="st55" d="M505.5,152.6c0,0-0.1,3.5,0.1-2.3c0.1-2.4-4.8-4.4-5.1-5.2c-1.2-3.1-9.3-16.4-9.3-16.4l-12.8,24.2l19.3,12.6
			L505.5,152.6z"/>
		<path class="st55" d="M452.2,120c-0.4-3.1,4.6-11.5,7.6-14.5s11.9-9.6,18.6-8.8s13.2,20.4,13.2,20.4l-2.3,20.4
			c0,0-4.4,12.4-7.3,15.8c-2.2,2.6-10.9,7.8-12.4,5.2c-1-2.1-2.5-3.8-4.4-5.1c-1.9-1.3-5.3-2.6-5.1-3.8c0.1-0.4-0.2-1.6,0.7-1.8
			c1.2-0.2,1.6-1.8,0.2-1.9c-0.7,0-2.4-1.6-2.8-1.7s-0.4-0.5-0.2-0.8c0.4-1.4,0.7-2.8,0.9-4.3c0.1-2.3-6.1-1.2-6.4-3.5
			c-0.2-1.7,2.4-2.8,3.3-4.3c0.5-0.8,0.4-3.7,0.3-4.7C456,125.1,452.4,121.6,452.2,120z"/>
		<path class="st58" d="M483.7,121.8l-7.9-2.5c-0.3-1.2-1.7-9-1.6-9c2-1.3,5.2-2,7.3-3.3c1-0.6,2.1-1.2,3.2-1.8
			c0.9-0.4,1.7-0.8,2.6-1.2c2.8-1.4,5.8-2.6,8.8-3.6c1.5-0.4,3-0.6,4.5-0.6c3.2,3.2,5.5,6.7,5,9.6c-1.1,7-3.3,14.6-5.7,18.9
			c-1.5,2.7-7.6,9.6-7.6,9.6l-6.3-8.3c0,0-2.5,1.4-2.6,1.2C483.1,127.7,483.2,124.7,483.7,121.8z"/>
		<path class="st59" d="M487,125c0,0,5-9.3,7-4.9c1.5,3.4-2.2,16.1-6.4,15.2S487,125,487,125z"/>
		<path class="st60" d="M459.6,133.7c0,0,2.6,2,2.3,3.4s-1.1,1.6-1.1,1.6s0.4-0.3,0.3-1.3C460.8,136.1,460.2,134.9,459.6,133.7z"/>
		<path class="st61" d="M482,153.3c2.9-3.4,7.3-15.8,7.3-15.8l0.3-2.8l0.3-0.1l2.4,3.1l0.7-0.8c0,0-1.9,8.4-3,10.7
			c-1.2,2.5-2.8,6.4-4.8,9.3l-4.3-2.6C481.3,154.1,481.6,153.7,482,153.3z"/>
		<path class="st62" d="M489,125.1c0-0.1,1.7-2.9,2.6-2.5c1,0.4,1.6,1.5,1.3,2.6c-0.3,0.9-0.2-1.1-1.1-1.5S489,125.1,489,125.1z"/>
		<polygon class="st63" points="454.9,118.5 451.1,120.5 452.3,122.6 456.9,121.5 		"/>
		<polygon class="st64" points="457.8,126.3 455.9,126.2 455.7,127 457.7,127.1 		"/>
		<polygon class="st65" points="459.9,120.7 462,126.2 466.2,125.3 470.2,127.2 469.9,121.3 463.7,118.5 		"/>
		<polygon class="st66" points="470.3,121.4 459.9,120.7 460.4,116.6 470.6,119.7 		"/>
		<path class="st67" d="M470.4,127.5l0.1-0.7c-1-0.4-3.1-1.9-5.3-2.4c-2.6-0.6-3.8,2.1-3.8,2.1l0.5,0.5c0-0.1,0.5,2.3,2.2,2.6
			C466.4,130,470.4,127.5,470.4,127.5z"/>
		<path class="st68" d="M504.5,265.8c-9.8-26.9-13.4-66.7-15.5-91.6c-0.2-2.9,0-5.8,0.6-8.7c0.6-3.3,5.1-4.1,6.3-7.4
			c1.5-4.1-0.2-10.7,2.2-13.3c1.3-1.5,3-2.6,4.9-3.2c4.4-1.2,18.5,4.4,22,7.3c7.2,6.1,14.6,14.5,16.3,24c3.5,19.1,11.2,50,17.6,72.3
			c0,0,2.3,24.4-1.5,25.2C546.8,272.4,504.5,265.8,504.5,265.8z"/>
		<path class="st69" d="M465.1,125.4c1.6,0.5,3.1,1.1,4.5,1.8l-0.1,0.5c0,0-1.3,0.6-2.8,1.1c-0.3,0.1-0.6,0.2-0.9,0.3
			c-0.6,0.2-1.3,0.3-1.9,0.2l-0.3-0.1c-0.3-0.2-0.5-0.4-0.7-0.7c-0.3-0.5-0.5-1.1-0.6-1.6C462.8,125.9,463.9,125.3,465.1,125.4z"/>
		<path class="st70" d="M458.5,139.4c0,0,4.8-0.4,6.3,0.1c2.5,1,8.3,7,8.3,7c1.1,0,8.7-7.7,9.2-10c0.5-2.1,0.8-4.2,0.8-6.4
			c0-1.2,0.1-2.5,0.3-3.7l2.5,1.7l3.8,6.6c0,0-0.8,7.7-3.3,13.1c-3.6,7.6-12.1,11.1-14,11.7c-3.8,1.2-9.6-3.9-8.5-7
			c0,0,6.7-3.6,6.4-4.3c-0.6-0.3-3.8-5.6-8.5-5.3c-1.1,0.1-4.5-0.2-4.5-0.2L458.5,139.4z"/>
		<path class="st69" d="M455.6,129.1C455.6,129,455.6,129,455.6,129.1c-0.2-0.7-0.1-1.4,0.1-2.1c0.6-0.4,1.3-0.6,2-0.4
			c0,0.1,0,0.1,0,0.2c0,0.1,0,0.3-0.1,0.4c0,0.1,0,0.2-0.1,0.3c-0.1,0.3-0.2,0.6-0.3,0.8l0,0l-0.2,0.6l-0.2,0.6
			c-0.1,0.2-0.1,0.3-0.2,0.5l0,0l0,0l0,0h-0.1c-0.2-0.1-0.4-0.2-0.5-0.3c-0.1-0.1-0.2-0.2-0.3-0.4v-0.1L455.6,129.1z"/>
		<path class="st71" d="M456,131.1c0,0,2-2.7,2-4.3c-0.1-1.6-0.5-3.1-1-4.6c0,0,1,3.2,0.5,5C457.1,128.6,456.6,129.9,456,131.1z"/>
		<path class="st69" d="M456.1,126.7c0.5-0.3,1.1-0.3,1.6-0.2c0,0.1,0,0.1,0,0.2s0,0.3-0.1,0.4s0,0.2-0.1,0.3s-0.1,0.2-0.1,0.3
			l-0.2,0.5l0,0c-0.1,0.2-0.1,0.4-0.2,0.6s-0.1,0.4-0.2,0.6s-0.1,0.3-0.2,0.5s0,0,0,0l0,0l0,0l0,0l0,0l-0.1-0.1
			c-0.2-0.1-0.3-0.2-0.5-0.3l0,0c-0.1-0.1-0.2-0.2-0.3-0.4c0,0,0,0,0-0.1l0,0V129c-0.1-0.5-0.2-1,0-1.5c0-0.2,0.1-0.4,0.1-0.6
			C455.9,126.9,456,126.8,456.1,126.7z"/>
		<polygon class="st57" points="486.3,157.9 485.2,166 493.4,169.1 491.9,161.7 		"/>
		<path class="st72" d="M492.1,162.8l1.3,6.2c0,0,2.6,14.8,3.6,17c0.6,1.3,7.5,27.4,13.9,46c4.7,13.6,9.2,23,9.2,23l5.7,2.2
			c0,0-11.4-20.5-12.7-29.1c-3.1-18.5-12.2-41.3-13.1-43.8c-1.4-3.6-4.2-16.4-4.2-16.4l-0.4-2.8L492.1,162.8z"/>
		<polygon class="st72" points="485.2,166 489.1,172.2 489.5,167.5 		"/>
		<path class="st73" d="M499,134.6c0,0-3.9,15.6-4.9,18.4c-1.4,3.6-2.8,9.3-2.8,9.3l9.1,7c0,0,0.8-5.7,2-12
			c0.9-5.7,1.2-11.5,0.9-17.3L499,134.6z"/>
		<path class="st74" d="M493.9,169.4c-0.1,0.4,0.2,0.8,0.6,0.9c0,0,0,0,0,0c0.4,0,0.8-0.4,0.8-0.8c0.1-0.4-0.2-0.8-0.7-0.9
			c0,0,0,0,0,0C494.3,168.6,493.9,169,493.9,169.4z"/>
		<path class="st74" d="M496.1,179.3c-0.1,0.4,0.2,0.8,0.6,0.9c0,0,0,0,0,0c0.4,0,0.8-0.4,0.8-0.8c0.1-0.4-0.2-0.8-0.6-0.9
			c0,0,0,0,0,0C496.4,178.5,496.1,178.9,496.1,179.3z"/>
		<path class="st74" d="M501.1,197.4c-0.1,0.4,0.2,0.8,0.7,0.9c0,0,0,0,0,0c0.4,0,0.8-0.4,0.8-0.8c0.1-0.4-0.2-0.8-0.7-0.9
			c0,0,0,0,0,0C501.5,196.6,501.1,197,501.1,197.4z"/>
		<path class="st74" d="M498.7,189.6c-0.1,0.4,0.2,0.8,0.7,0.9c0,0,0,0,0,0c0.4,0,0.8-0.4,0.8-0.8c0.1-0.4-0.2-0.8-0.7-0.9
			c0,0,0,0,0,0C499,188.8,498.7,189.2,498.7,189.6z"/>
		<path class="st75" d="M470.5,157.2c1.8-0.6,10.4-4.1,14-11.7c1.6-3.4,2.5-7.1,2.9-10.9l-1.2-5.9c0,0,3.4,4.7,3.8,6.6
			c0.7,3.3-0.8,7.7-3.3,13.1c-3.6,7.6-12.1,11.1-14,11.7c-3.1,0.9-7.3-2.1-8.4-5C466,156.7,468.5,157.8,470.5,157.2z"/>
		<path class="st76" d="M464.7,126.7c1,0,1.8,0.8,1.8,1.8c0,0,0,0,0,0.1c0,0.2,0,0.3-0.1,0.4c-0.2,0.1-0.3,0.1-0.5,0.1
			c-0.3,0.1-0.5,0.1-0.8,0.2c0.2-0.2,0.3-0.4,0.4-0.7c0-0.6-0.5-1.1-1-1.1c0,0,0,0,0,0c-0.6,0-1.1,0.4-1.2,1c0,0.2,0,0.3,0.1,0.4
			c-0.1-0.1-0.2-0.2-0.3-0.4c-0.1-0.1-0.2-0.3-0.2-0.4C462.9,127.3,463.8,126.7,464.7,126.7z"/>
		<path class="st77" d="M463.6,129.3c-0.2-0.1-0.3-0.2-0.4-0.3c-0.1-0.1-0.1-0.3-0.1-0.4c0.1-0.6,0.6-1,1.2-1c0.6,0,1.1,0.5,1.1,1.1
			c0,0,0,0,0,0c0,0.3-0.2,0.5-0.4,0.7c-0.4,0.1-0.8,0.1-1.1,0C463.8,129.4,463.7,129.3,463.6,129.3z"/>
		<path class="st76" d="M457,127.6c0.2,0,0.3,0,0.5,0.1l0,0c0,0.2-0.1,0.3-0.2,0.5l0,0l-0.1,0.3c-0.2-0.1-0.3-0.1-0.5-0.1
			c-0.4,0-0.8,0.2-1,0.6c-0.1-0.3-0.1-0.5-0.1-0.8C455.9,127.8,456.5,127.6,457,127.6z"/>
		<path class="st77" d="M456.9,129.4c-0.1,0.2-0.1,0.3-0.2,0.5l0,0l0,0l0,0h-0.1c-0.2-0.1-0.3-0.2-0.5-0.3l0,0
			c-0.1-0.1-0.2-0.2-0.3-0.4c0,0,0,0,0-0.1l0,0c0,0,0,0,0-0.1l0,0c0.2-0.4,0.6-0.6,1-0.6c0.2,0,0.3,0,0.5,0.1l-0.1,0.2
			C457,129,456.9,129.2,456.9,129.4z"/>
		<path class="st78" d="M553.4,220.8c0,0-21,4.3-26.1-3.6s-13.9-31.7-13.9-31.7l-22.9,7.8c0,0,1.6,19,5.1,34.5
			c2.5,11.3,6.5,38.1,8,39.7c3.6,3.9,56.8,2.1,56.8,2.1c0.4-8.2,0-16.3-1.4-24.4C557.6,237,555.7,228.8,553.4,220.8z"/>
		<path class="st79" d="M517.9,256.8c-0.1,0.1-0.2,0.2-0.4,0.1c0,0,0,0,0,0l-0.9-0.3c-0.1,0-0.2-0.2-0.2-0.3l0,0
			c0-0.1,0.2-0.2,0.3-0.2c0,0,0,0,0,0l0.9,0.3C517.8,256.5,517.9,256.7,517.9,256.8L517.9,256.8z"/>
		<path class="st80" d="M507.1,190.4l2.5-9.6L503,182l3.7,8.4c-0.2,0-0.5,0-0.7,0l-3.9-8.9l8.4-1.5l-2.7,10.3
			C507.5,190.3,507.3,190.4,507.1,190.4z"/>
		<path class="st69" d="M505.5,189.5c-0.3,0.7,0.1,1.5,0.8,1.8c0,0,0,0,0,0l0,0c0.7,0.3,1.5-0.1,1.8-0.9c0,0,0,0,0,0l0,0
			c0.3-0.7-0.1-1.5-0.8-1.8c0,0,0,0,0,0l0,0C506.6,188.4,505.8,188.7,505.5,189.5C505.5,189.5,505.5,189.5,505.5,189.5L505.5,189.5z
			"/>
		<path class="st78" d="M523.9,144.8c0,0-12-1.9-12.5,14c-0.2,6.8-2.6,22.5-2.6,22.5l-5.2,0.7c0,0,1.9-22.2,2.2-24.9
			s5.9-14.7,5.9-14.7L523.9,144.8z"/>
		<polygon class="st69" points="465,144.5 460.6,148.4 459.8,145 		"/>
		<path class="st53" d="M539.6,209.4c-8.1-17.5-14.2-20.8-20-31c-2.5-4.3-8.3-22.9-5.4-29.1c2.3-5,6.3-6.4,15.3-1.5
			c12.4,6.6,39.2,67,28.8,68.1C549.1,215.3,540.1,210.4,539.6,209.4z"/>
		<path class="st55" d="M478.9,229.4c1.4-1.2,12.1,0.3,12.1,0.3l10.8,5c0,0,4.1,7.4,2.4,9.4c-2,1.7-4.3,2.9-6.8,3.7
			c-1.6,0.3-3.4,0.3-5,0c-1.9-0.7-6.1-5-6.1-5s0,4.2,0.1,4.9c-0.2,1.1-0.1,1.9-0.6,2.3s-2.1,0.3-2.9,0.5c-0.1,0-0.3-0.3-0.4-0.3
			c-0.3,0-0.7-0.2-0.9-0.4c-0.3-0.3-0.7-0.6-1-0.9s-0.5-0.5-0.8-0.7c-0.1-0.1-0.3-0.2-0.3-0.3c-0.1-0.5-3.2-1.9-3.2-1.9
			c-0.8-0.7-1.5-1.4-2.1-2.2c-0.4-2.1,0-2.5,0-2.5c-0.3-0.2-0.6-0.4-0.8-0.7C472.1,238.3,474.1,233.4,478.9,229.4z"/>
		<path class="st81" d="M486.9,237.8c0,0-5.7,2.3-5.4,4.8s1.6,7.3,1.6,7.3s-2.6-6.1-2.3-8.2C481.1,239.1,486.4,238.1,486.9,237.8z"
			/>
		<path class="st81" d="M481.2,237.1c0,0-3.3,3.8-2.9,6s0.9,4.3,0.9,4.3s-2.2-3.9-1.9-5.1c0.2-0.8,0.6-1.6,1.1-2.2
			C479.3,239.1,480.2,238.1,481.2,237.1z"/>
		<path class="st81" d="M474.2,241.1c-0.2-0.1-0.4-0.2-0.6-0.4c0-0.1,0-0.4,0-0.5c0.2-0.9,0.6-1.7,1.1-2.4c0.9-1,1.9-1.9,3-2.8
			C477.8,235.1,474.4,238.9,474.2,241.1z"/>
		<path class="st53" d="M543.8,206.7c-5.6,2.7-11.1,5.7-16.3,9.1c-9.4,6.3-20.5,13.9-25.5,18.6c-2.4,2.3,4.3,6.3,5.4,8.1
			c3.1,5.2,17.3,1.7,31.5-7.9c6.7-4.5,15.3-12,19-16.6c2.8-3.5,3.5-6.6,2.4-10.4"/>
		<path class="st82" d="M452.2,118.9c0,0-9.9,1.3-12.6-0.5c-1.7-1.2-2.9-2.9-3.6-4.8l18.9-3.5L452.2,118.9z"/>
		<path class="st82" d="M506.3,109.4c0,0-20.3-1.6-26.3-2.1c-17.6-1.3-29.3,5.2-29.3,5.2s1-28.9,27.5-30.9
			C512,79,506.1,108.6,506.3,109.4z"/>
		<path class="st83" d="M481.8,107.2c0,0-7.9,9.5-25.1,8.6c-5.8-0.3-10.3-4-14.5-3.3s-6.2,1.1-6.2,1.1l14.5-6.1
			c4.5-1.9,9.2-3.1,14.1-3.5C471.8,103.5,481.8,107.2,481.8,107.2z"/>
		<path class="st84" d="M508.8,228.8l-10,3.5c0.7,2.6,1.2,5.2,1.6,7.8c0.5,3.8,1.4,7.8,1.4,7.8l11.4-1.7c-0.3-3.4-1-6.7-2-10
			C509.6,231.5,508.8,228.8,508.8,228.8z"/>
		<path class="st85" d="M507.6,421.7c0,0,1.1,6.2,0.2,7.4s12.7,4.9,12.7,4.9s0.4-7.5,0.1-8.7c0,0-4.8-1.6-5.9-1.9
			S507.6,421.7,507.6,421.7z"/>
		<path class="st86" d="M560.3,338.4c-1.1-12.4,1.1-42.6,1.2-46c0.1-3,0-24.6-0.5-30.5l-34.3-0.3l0,0h-25.5c0,0-0.4,89.9,3.4,157.4
			l17.4,2.9l7-130.1l2.5,0.2c6.5,45.9,12.4,131.3,12.4,131.3s18.2,4.9,18.1,4.2S563.6,375.2,560.3,338.4z"/>
		<path class="st87" d="M545.9,423.8c0,0,1,6.2,0.2,7.4s12.7,4.9,12.7,4.9s0.4-7.5,0.1-8.7c0,0-4.8-1.6-5.9-1.9
			S545.9,423.8,545.9,423.8z"/>
		<path class="st88" d="M487.2,443.9c6.5-2.9,12.2-7.7,15.2-10.1l-1.5-29l23.7-1.2l-1.6,38.3l0,0l0.3,8.6l-28.1,2.6l-16-0.5
			C479.2,452.5,478.1,447.9,487.2,443.9z"/>
		<path class="st88" d="M543.2,437.6c0.2-0.4,0.6-1.5,1-2.6l-3-32.8l23.3,0.4l-2.4,33c0.6,1.2,1.2,2.4,1.5,3
			c1.2,2.8,4.9,15.4,4.9,15.4c-4.6,2.5-9.6,3.9-14.8,4.1c-5.4,0.1-10.7-1.1-15.5-3.5C538.2,454.5,542.8,438.5,543.2,437.6z"/>
		<path class="st89" d="M553.6,455.5c-5.1,0.1-10.2-1-14.9-3.2l-0.7,2.4c4.8,2.4,10.2,3.6,15.5,3.5c5.3-0.2,10.4-1.6,15.1-4.1
			c0,0-0.3-0.9-0.7-2.3C563.5,454,558.6,455.2,553.6,455.5z"/>
		<path class="st89" d="M523.5,452.4l0.1-2.9c0,0-21.9,1.2-29.2,2.2c-6.4,0.8-15.8-0.5-15.8-0.5l0.1,1.8c6.5,0.4,6.9,0.8,13.4,0.8
			c1.6,0,16.2-0.5,22.2-0.5C516.7,453.4,523.5,452.4,523.5,452.4z"/>
		<path class="st90" d="M501,262.1l10-0.2c0,0-2.8,8.8-4.7,12c-1.6,2.6-3.4,5.1-5.3,7.5L501,262.1z"/>
		<path class="st90" d="M538,262l13.8,0.1l0.3,22.3c0,0-6.2-5.3-9.4-9.8S538,262,538,262z"/>
		<polygon class="st91" points="561,261.9 501,262.1 501,257.3 561,257.1 		"/>
		<rect x="527.5" y="256.5" class="st78" width="2.2" height="6.4"/>
		<rect x="552.6" y="256.8" class="st90" width="2.2" height="6.4"/>
		<rect x="511" y="256.6" class="st78" width="2.2" height="6.4"/>
		
			<linearGradient id="SVGID_9_" gradientUnits="userSpaceOnUse" x1="-2545.9634" y1="435.4389" x2="-2216.0183" y2="435.4389" gradientTransform="matrix(-1 0 0 -1 -2147.8501 572)">
			<stop  offset="0" style="stop-color:#FFFFFF"/>
			<stop  offset="0.15" style="stop-color:#FCFFFF"/>
			<stop  offset="0.28" style="stop-color:#F1FFFF"/>
			<stop  offset="0.4" style="stop-color:#DFFFFF"/>
			<stop  offset="0.52" style="stop-color:#C7FFFF"/>
			<stop  offset="0.63" style="stop-color:#A7FFFF"/>
			<stop  offset="0.74" style="stop-color:#7FFFFF"/>
			<stop  offset="0.85" style="stop-color:#51FFFF"/>
			<stop  offset="0.95" style="stop-color:#1CFFFF"/>
			<stop  offset="1" style="stop-color:#00FFFF"/>
		</linearGradient>
		<path class="st92" d="M396.3,205.5c-2.2-0.4-148.2-22.6-193.4-68.2S120.1,69,120.1,69s-20.8-12.9-46.3-6.2s43.9,4.9,67.7,30.8
			s-30.1-10.8-59.3-7s37,3.5,72.1,32.4s10.3,29.3-14.6,12.4s-9.2,15,25.3,27.9s17.1,1.4,76,21s155.7,32.1,155.7,32.1
			S400.1,206.1,396.3,205.5z"/>
		<path class="st93" d="M59.6,74.2c0,0-76.6-12.1-48.9-3.5s53.9,3.5,53.9,3.5"/>
		<path class="st93" d="M152.6,80c0,0-47.6-61.3-33.3-36.1s36.9,39.5,36.9,39.5"/>
		<path class="st93" d="M135.8,148c0,0-79.5-5.3-48.2-10.5s52.9,12.2,52.9,12.2"/>
		<path class="st94" d="M219.1,186.3c1.8,6.4,36.3,22.2,19.4,22.4s-18.8-7.8-38.9,0.1s48,33.2,91.3,46.7s-17.1,10.2-71.7-19.1
			s-26-10.3-36.4-8.5s-72.5,3-50.7-11.5s-3.6-5.9-4-24.9s0.1-26.1,18.8-15.5s18.5,34,25.7,15.5s-25.7-30.2-10.6-33.4
			S214.1,168.2,219.1,186.3z"/>
		<path class="st94" d="M-11.2,292.4c0,0,25.5,52.2,17.1,47.1c-5.5-3.4-10.4-7.5-14.8-12.3c0,0,6.3,59.2-9.4,71.2
			s-20.8-34.9-20.8-34.9s-2.8-4-17.3,19.9c-12.2,20-21.5-21.7-21.5-21.7l-3.5-73c0,0,60.3,0.7,67.8,4.3S-11.2,292.4-11.2,292.4z"/>
		<path class="st94" d="M70.2,112.6c0,0,47.1,34,37.3,33.5c-6.4-0.4-12.8-1.7-18.8-3.8c0,0,33.5,49.2,25.3,67.2
			s-34.8-20.9-34.8-20.9s-4.3-2.2-5.9,25.7c-1.3,23.4-29.2-9.1-29.2-9.1l-52.5-87.8c0,0,68.5-2.7,76.8-3.1S70.2,112.6,70.2,112.6z"
			/>
		<path class="st94" d="M237.9,328.1c0,0,15.3,52.2,10.3,47.1c-3.5-3.7-6.5-7.8-8.9-12.3c0,0,3.8,59.2-5.6,71.2
			s-12.5-34.9-12.5-34.9s-1.6-4-10.4,19.9c-7.3,20-12.9-21.7-12.9-21.7l-2.1-73c0,0,36.2,0.7,40.7,4.3S237.9,328.1,237.9,328.1z"/>
		<path class="st94" d="M409.9,309.8c0,0,25.5,52.2,17.1,47.2c-5.5-3.4-10.4-7.5-14.8-12.3c0,0,6.3,59.2-9.4,71.2
			S381.9,381,381.9,381s-2.8-4-17.3,19.9c-12.2,20-21.5-21.7-21.5-21.7l-3.5-73c0,0,60.3,0.7,67.8,4.3S409.9,309.8,409.9,309.8z"/>
		<path class="st94" d="M291.3,219.7c0,0,53.7,14.1,46,16.4c-5.3,1.4-10.8,2.1-16.3,2c0,0,51.6,17.5,54.8,33.9s-37.7,5.2-37.7,5.2
			s10.6,40-6.2,53.5c-17.1,13.8-17.1-53.1-17.1-53.1l-118.6-64c0,0,88.6,10.5,94.7,7.9S291.3,219.7,291.3,219.7z"/>
	</g>
</g>
<path class="st95" d="M467,548.5H117c-53.6,0-97-43.4-97-97v-333c0.1-53.6,43.6-96.9,97.1-96.9c2.9,0,5.8,0.1,8.7,0.4l366.1,33.5
	c51.9,4.8,90.8,49.7,88,101.7l-16,299.5C561.1,508.1,518.6,548.4,467,548.5z"/>
</svg>
