<?xml version="1.0" encoding="utf-8"?>
<!-- Generator: Adobe Illustrator 25.2.3, SVG Export Plug-In . SVG Version: 6.00 Build 0)  -->
<svg version="1.1" id="Layer_1" xmlns="http://www.w3.org/2000/svg" xmlns:xlink="http://www.w3.org/1999/xlink" x="0px" y="0px"
	 viewBox="0 0 600 570" style="enable-background:new 0 0 600 570;" xml:space="preserve">
<style type="text/css">
	.st0{fill:#FF0000;}
</style>
<path class="st0" d="M483.2,5.6c-3.5,0-7,0.2-10.5,0.5L106.7,39.5C46.2,45.1,0.9,97.4,4.2,158.1l16,299.5
	c3.2,60,52.8,106.9,112.8,106.9h350c62.4,0,113-50.6,113-113v-333C596,56.2,545.4,5.6,483.2,5.6z M580,451.5c0,53.6-43.4,97-97,97
	H133c-51.5,0-94.1-40.3-96.8-91.8l-16-299.5c-2.8-52,36.1-97,88-101.7l366-33.5c53.4-4.9,100.5,34.4,105.4,87.8
	c0.3,2.9,0.4,5.8,0.4,8.7V451.5z"/>
</svg>
