<?xml version="1.0" encoding="utf-8"?>
<!-- Generator: Adobe Illustrator 25.2.3, SVG Export Plug-In . SVG Version: 6.00 Build 0)  -->
<svg version="1.1" id="Layer_1" xmlns="http://www.w3.org/2000/svg" xmlns:xlink="http://www.w3.org/1999/xlink" x="0px" y="0px"
	 viewBox="0 0 600 570" style="enable-background:new 0 0 600 570;" xml:space="preserve">
<style type="text/css">
	.st0{fill:#EFEFEF;}
	.st1{clip-path:url(#SVGID_2_);}
	.st2{clip-path:url(#SVGID_4_);}
	.st3{fill:url(#SVGID_5_);}
	.st4{opacity:0.36;fill:none;stroke:#FCFBEB;stroke-miterlimit:10;enable-background:new    ;}
	.st5{fill:url(#SVGID_6_);}
	.st6{opacity:0.43;}
	.st7{fill:none;stroke:#FCFBEB;stroke-width:0.5;stroke-miterlimit:10;}
	.st8{fill:#82C3EB;}
	.st9{fill:#72C9F1;}
	.st10{opacity:0.5;fill:#D6EFFB;enable-background:new    ;}
	.st11{opacity:0.38;fill:#FFFFFF;enable-background:new    ;}
	.st12{opacity:0.3;fill:#7B7C7D;enable-background:new    ;}
	.st13{fill:#D12664;stroke:#951A46;stroke-width:0.75;stroke-miterlimit:10;}
	.st14{fill:#D73B81;}
	.st15{fill:#EC72AB;}
	.st16{fill:#C62567;}
	.st17{fill:#B11E57;}
	.st18{fill:#CC1B6C;}
	.st19{fill:#6479BA;}
	.st20{fill:#465BA8;}
	.st21{fill:#4E63AD;}
	.st22{fill:#556AB1;}
	.st23{fill:#3B4E8F;}
	.st24{fill:#314178;}
	.st25{opacity:0.2;fill:#151617;enable-background:new    ;}
	.st26{fill:#A7A8AC;}
	.st27{fill:#8C8E91;}
	.st28{fill:#C9CACF;stroke:#9C9B9F;stroke-width:0.25;stroke-miterlimit:10;}
	.st29{fill:#DEDEDD;stroke:#9C9B9F;stroke-width:0.25;stroke-miterlimit:10;}
	.st30{fill:#C3C3C3;}
	.st31{fill:#DEDEDD;}
	.st32{fill:#DA9E51;stroke:#905B24;stroke-width:0.25;stroke-miterlimit:10;}
	.st33{fill:#BB8844;}
	.st34{fill:#E7A855;}
	.st35{opacity:0.5;fill:#3970B7;enable-background:new    ;}
	.st36{opacity:0.31;fill:#50B1E4;enable-background:new    ;}
	.st37{fill:#50B1E4;}
	.st38{opacity:0.28;fill:#50B1E4;enable-background:new    ;}
	.st39{opacity:0.5;}
	.st40{opacity:0.63;fill:#3970B7;enable-background:new    ;}
	.st41{fill:#3970B7;}
	.st42{opacity:0.5;fill:#D5ECFA;enable-background:new    ;}
	.st43{opacity:0.7;fill:#3F96B9;enable-background:new    ;}
	.st44{opacity:0.3;fill:#E3F2FB;enable-background:new    ;}
	.st45{fill:#E2E4F2;}
	.st46{fill:#61C4EF;}
	.st47{opacity:0.19;}
	.st48{fill:#FFFFFF;}
	.st49{fill:#17B3E8;}
	.st50{opacity:0.2;enable-background:new    ;}
	.st51{fill:#878E92;}
	.st52{fill:#BABFC2;}
	.st53{fill:#D5D5D5;}
	.st54{opacity:0.1;enable-background:new    ;}
	.st55{fill:#8E959A;}
	.st56{fill:#9EA5AB;}
	.st57{fill:#D2D3D3;}
	.st58{fill:#F6F7F7;}
	.st59{fill:none;stroke:#206363;stroke-width:8;stroke-miterlimit:10;}
</style>
<path class="st0" d="M133,548.5h350c53.6,0,97-43.4,97-97v-333c-0.1-53.6-43.6-96.9-97.1-96.9c-2.9,0-5.8,0.1-8.7,0.4L108.1,55.5
	c-51.9,4.8-90.8,49.7-88,101.7l16,299.5C38.9,508.1,81.4,548.5,133,548.5z"/>
<g>
	<defs>
		<path id="SVGID_1_" d="M133,548.5h350c53.6,0,97-43.4,97-97v-333c-0.1-53.6-43.6-96.9-97.1-96.9c-2.9,0-5.8,0.1-8.7,0.4
			L108.1,55.5c-51.9,4.8-90.8,49.7-88,101.7l16,299.5C38.9,508.1,81.4,548.5,133,548.5z"/>
	</defs>
	<clipPath id="SVGID_2_">
		<use xlink:href="#SVGID_1_"  style="overflow:visible;"/>
	</clipPath>
	<g class="st1">
		<g>
			<defs>
				<rect id="SVGID_3_" x="-273.8" y="-530" width="1189.1" height="1092"/>
			</defs>
			<clipPath id="SVGID_4_">
				<use xlink:href="#SVGID_3_"  style="overflow:visible;"/>
			</clipPath>
			<g class="st2">
				
					<linearGradient id="SVGID_5_" gradientUnits="userSpaceOnUse" x1="465.752" y1="799.2593" x2="198.442" y2="19.0993" gradientTransform="matrix(1 0 0 -1 0 572)">
					<stop  offset="0" style="stop-color:#87D2DA"/>
					<stop  offset="0.23" style="stop-color:#83CFD8"/>
					<stop  offset="0.45" style="stop-color:#77C7D3"/>
					<stop  offset="0.68" style="stop-color:#63BACB"/>
					<stop  offset="0.9" style="stop-color:#47A8C0"/>
					<stop  offset="0.99" style="stop-color:#3BA0BB"/>
				</linearGradient>
				<path class="st3" d="M-9-3c0.7,161.8,1.3,323.6,1.9,485.4l626.1,4.5V-0.8L-9-3z"/>
				<line class="st4" x1="11.6" y1="439" x2="625" y2="441.2"/>
				
					<linearGradient id="SVGID_6_" gradientUnits="userSpaceOnUse" x1="588.0559" y1="146.9565" x2="110.1859" y2="26.7865" gradientTransform="matrix(1 0 0 -1 0 572)">
					<stop  offset="2.000000e-02" style="stop-color:#E8E9E4"/>
					<stop  offset="0.12" style="stop-color:#DFE3DF"/>
					<stop  offset="0.44" style="stop-color:#C6D3D0"/>
					<stop  offset="0.74" style="stop-color:#B7C8C7"/>
					<stop  offset="0.98" style="stop-color:#B2C5C4"/>
				</linearGradient>
				<path class="st5" d="M601.9,448.3l-609.5-7l-263.4,124l873-10.2L601.9,448.3z"/>
				<g class="st6">
					<polyline class="st7" points="-990.8,167 -990.8,189.2 -548.2,145.5 609,144.4 					"/>
					<polyline class="st7" points="-987,379.7 -514.7,292.1 619,292.1 					"/>
					<polyline class="st7" points="216.6,-434.2 212.9,443.1 66.9,742.4 					"/>
					<polyline class="st7" points="465.9,-435.4 475.8,443.5 476.3,701.8 					"/>
				</g>
				<path class="st8" d="M247.4,527.7c0.1,7.3-17.2,13.3-38.8,13.7s-39.1-5.1-39.2-12.4s17.2-13.5,38.8-13.9
					S247.3,520.4,247.4,527.7z"/>
				<path class="st9" d="M248.9,526.2c0.2,6.8-16.9,12.8-38.2,13.6s-38.8-4.1-39-10.9s16.9-12.8,38.2-13.6S248.7,519.5,248.9,526.2z
					"/>
				
					<ellipse transform="matrix(0.9994 -3.472507e-02 3.472507e-02 0.9994 -18.1623 7.2845)" class="st10" cx="200.6" cy="526.5" rx="26.4" ry="8.4"/>
				
					<ellipse transform="matrix(0.9994 -3.472507e-02 3.472507e-02 0.9994 -18.1119 6.813)" class="st11" cx="187.1" cy="524.8" rx="14.7" ry="4.7"/>
				<path class="st10" d="M218.8,538.2c-0.4,0-0.7-0.3-0.7-0.6c0-0.3,0.2-0.6,0.5-0.7l0,0c8.6-1.6,19.2-3.8,25.3-9.8l0,0
					c0.6-0.6,1.6-0.6,2.2,0c0.6,0.6,0.6,1.6,0,2.2C240,535.3,227.1,537.2,218.8,538.2z"/>
				<path class="st9" d="M227.8,483.8c20.2-6.7-2.9-9.1,0.4-14.7c16.9-28.9,165-23.9,168.7,10.4c0.9,8.3-17.2-0.5-34.9,9
					c-2.9,1.5-4.5,3.3-1.3,3.9c52.7,9.9-30.9,37.4-68.2,32.5c-32.9-4.3-34.8-12.8-47.7-15.9c-14.5-3.5-34.2-1-42-8.8
					C192.7,490.3,219.9,486.4,227.8,483.8z"/>
				<path class="st10" d="M304,515c-3.2,0.1-6.3-0.1-9.5-0.5c-16.5-2.4-22.6-6.1-28-9.4c-3.2-2.1-6.7-3.8-10.4-4.8
					c-4.8-1.1-9.6-1.8-14.5-2.1c-7.2-0.7-17-1.5-17.6-4.5c-0.2-1.1,1.5-1.6,4-2.5c3-1.1,6.1-2.1,9.3-2.9c2.1-0.6,3.9-1.1,5.3-1.6
					c4.7-1.7,9.2-3.9,9.7-8.4c0.4-4-2.5-6.2-4.7-7.9c-0.7-0.5-0.8-1.4,0.4-2.3c7.4-6.4,25.8-12,48.5-12.6
					c19.1-0.5,68.6,4.3,76.3,15.6c1.1,1.7,1.8,6.4-2.1,6.5c-1,0-2.1,0-3.3,0c-5.2,0.1-12.1,0.8-19.1,4.9c-3.5,2.1-5.1,4.6-4.6,7.4
					c0.4,2.5,2.4,4.5,4.9,4.8c6.7,1.4,9.9,2.4,10,3.6c0.2,2.1-6,5.6-18.8,9.8C328.1,512.3,314.7,514.8,304,515z"/>
				<path class="st11" d="M302.4,502.1c-2.3,0.1-4.6,0-6.9-0.3c-12-1.5-16.5-3.9-20.4-6c-2.4-1.4-4.9-2.4-7.5-3.1
					c-3.5-0.7-7-1.2-10.6-1.4c-5.3-0.4-9.6-0.5-9.7-2.5c-0.1-2.6,17.1-3.2,17.5-10.4c-0.1-2.7-1.5-5.1-3.7-6.5
					c-1.3-0.6-0.8-1.7,0.7-2.5c7-3.4,19.5-6.8,36-7.2c12-0.3,41.3,2.2,53.9,6.7c2,0.7,3.6,3.2,0.8,3.8c-3.6,0.8-9,2.1-13.4,5.4
					c-6.9,5.1-7.7,9.4-4.2,10.9c5.4,2.3,2.9,5.9-6.4,8.7C320,500.3,311.2,501.8,302.4,502.1z"/>
				<path class="st10" d="M244.6,505.1c0.3,0.1,0.5,0.5,0.4,0.9c-0.1,0.3-0.4,0.5-0.8,0.4c-19.1-5.1-30.6,0-39.8-8.6
					c-0.6-0.6-0.6-1.6,0-2.2c0.6-0.6,1.5-0.6,2.1-0.1C215.5,503.8,225.8,499.1,244.6,505.1z"/>
				<path class="st10" d="M373,502.4c-8.9,10.4-25.5,14.5-39,17c-0.4,0.1-0.7-0.2-0.8-0.5c-0.1-0.4,0.2-0.7,0.5-0.8
					c12.5-2.9,28.9-7.6,36.8-17.7l0,0c0.5-0.7,1.5-0.8,2.2-0.3C373.4,500.7,373.6,501.6,373,502.4L373,502.4z"/>
				<path class="st10" d="M294.1,519.9c-8.8-0.8-17.5-2.8-25.8-6.1c-0.3-0.2-0.7,0-0.9,0.3s0,0.7,0.3,0.9l0,0
					c6.5,3.6,15.7,6.3,26.1,7.4s20,0.1,27-2.2c0.3-0.1,0.5-0.5,0.4-0.8c-0.1-0.3-0.4-0.5-0.7-0.4
					C311.8,520.5,302.9,520.8,294.1,519.9z"/>
				<ellipse class="st12" cx="309.9" cy="473.5" rx="65.4" ry="8.6"/>
				<path class="st13" d="M245.6,361l16.9,104.9c0,5.6,22.7,12.4,50.6,12.4s50.6-6.8,50.6-12.4L380.6,361H245.6z"/>
				<path class="st14" d="M258.6,364.5c-0.2-1.2-0.1-2.3,0.1-3.5h-13l16.9,104.9c0,2.5,4.3,5.1,11.5,7.4
					C267.7,437.2,263.1,400.8,258.6,364.5z"/>
				<path class="st15" d="M259.2,421c-2.2-13.8-4.9-27.5-6.8-41.3c-0.8-6.2-1.4-12.5-1.9-18.7h-4.9l16.9,104.9
					c0,1.5,1.6,3.1,4.5,4.6C264.1,454.1,261.8,437.5,259.2,421z"/>
				<path class="st16" d="M343.1,361c2.1,19.8,1.7,39.5,0,59.7c-1.6,18.9-4.4,37.8-8.4,56.3c17.1-2.3,29-7,29-11l16.8-105H343.1z"/>
				<path class="st17" d="M246.6,367.5c18,4.7,79.4,18.2,133.1-1.2l0.9-5.3h-135L246.6,367.5z"/>
				<path class="st17" d="M350.6,473.8c3.3-0.9,6.4-2.1,9.4-3.7c1.7-11.8,3-23.7,4.4-35.5c2.8-24.2,8.1-49,7.1-73.6h-14.6
					c2.3,20.3,3.3,40.5,1.2,61.2C356.5,439.5,353.6,456.6,350.6,473.8z"/>
				<path class="st18" d="M384.8,359.1c0,7.9-32.1,14.4-71.7,14.4s-71.7-6.5-71.7-14.4c-4-12.9,32.1-14.4,71.7-14.4
					S388.8,346.5,384.8,359.1z"/>
				<ellipse class="st19" cx="313.1" cy="356.1" rx="71.7" ry="14.4"/>
				<ellipse class="st20" cx="313.1" cy="356.1" rx="66.7" ry="12.1"/>
				<path class="st21" d="M342.7,345.3c0.3,7.3-0.3,14.7-1.8,21.9c22.9-1.9,38.9-6.1,38.9-11S364.7,347.2,342.7,345.3z"/>
				<path class="st22" d="M354.4,346.6c0.7,6.3,0.7,12.7,0,19c15.5-2.2,25.4-5.7,25.4-9.5S369.9,348.8,354.4,346.6z"/>
				<path class="st23" d="M284.2,345.2c-22.4,2-37.8,6.1-37.8,10.9s16.4,9.2,39.9,11.1C285.4,359.9,284.6,352.6,284.2,345.2z"/>
				<path class="st24" d="M262.4,348.2c-10,2.1-16,4.9-16,7.9s6.2,5.8,16.3,7.9C261.9,358.8,261.8,353.5,262.4,348.2z"/>
				<path class="st25" d="M366.4,449.1c-10.4,4.8-22.4,4.8-29.7,4.1c-5.1-0.5-9.6-3.2-12.4-7.5l-39.5-60.4c-0.4-0.6-0.5-1.3-0.4-2
					c0.1-0.7,0.6-1.3,1.2-1.6l0.6-3.6c-2.4,0.5-4.3,2.2-5,4.5c-0.4,1.6-0.1,3.2,0.8,4.5l39.5,60.5c3.1,4.8,8.1,8,13.8,8.9
					c0.4,0.1,0.8,0.1,1.2,0.1c7.2,0.6,18.8,0.7,29.4-3.5L366.4,449.1z"/>
				<path class="st26" d="M290.7,372.8c-0.9,0-2.1-0.3-2.1-0.3l-1.2-0.5c-0.1,0.5-0.2,1.3-0.2,1.5c-0.1,1.1-0.3,2.2-0.5,3.2
					c-0.3,2-0.8,4-1.5,5.9c-0.4,0.9-0.9,1.7-1.4,2.5c2.5,1.5,6.3,0.1,6.8-3.9C290.8,378.5,290.9,375.6,290.7,372.8z"/>
				<path class="st27" d="M284.3,384.1c-0.2,0.4-0.4,0.7-0.7,1c2.4,1.4,6,0.2,6.7-3.5C288.6,383,286.5,383.8,284.3,384.1z"/>
				<path class="st28" d="M278.4,368.7c0,0,0.3,10,1.9,14.4s7.9,3.6,8.7-1.6c0.4-4,0.4-7.9,0-11.9l1.9-2.1l-9.6-0.8L278.4,368.7z"/>
				<path class="st29" d="M386.9,408.4c-3.4-5.6-7.1-12.2-10.9-18.9l-0.9,5.3c3,5.4,6.1,10.6,8.8,15.3c3.5,5.7,3.2,12.9-0.8,18.3
					c-9.8,13-27.7,15.9-37.5,16.4c-5.1,0.3-10-1.8-13.4-5.6l-47.9-54c-0.5-0.5-0.7-1.2-0.6-1.9c0-0.7,0.4-1.3,0.9-1.8V378
					c-2.3,0.8-3.9,2.8-4.3,5.2c-0.1,1.6,0.4,3.2,1.5,4.4l47.9,54c3.8,4.3,9.2,6.7,14.9,6.8c0.4,0,0.8,0,1.1,0
					c10.4-0.6,29.4-3.7,40-17.8C390.6,424,391,415.3,386.9,408.4z"/>
				<path class="st30" d="M384.6,426.1c3.5-5.3,3.6-12.2,0.3-17.6c-2.8-4.6-5.8-9.9-8.8-15.3l0.5-2.8l-0.5-0.9l-0.9,5.3
					c3,5.4,6.1,10.6,8.8,15.3C386.9,415,387.2,421.1,384.6,426.1z"/>
				<path class="st30" d="M386.8,428.9c-10.6,14-29.6,17.2-40,17.8h-1.2c-5.7,0-11.1-2.5-14.9-6.8l-47.9-54
					c-1.1-1.2-1.6-2.8-1.5-4.4c0.1-0.5,0.2-1,0.4-1.4c-0.7,0.9-1.1,1.9-1.3,3c-0.1,1.6,0.4,3.2,1.5,4.4l47.9,54
					c3.8,4.3,9.2,6.7,14.9,6.8c0.4,0,0.8,0,1.1,0c10.4-0.6,29.4-3.7,40-17.8c0.6-0.8,1.2-1.7,1.7-2.6
					C387.3,428.2,387.1,428.6,386.8,428.9z"/>
				<path class="st31" d="M286.4,379.8c0,1.1-0.6,1.9-1.4,1.9s-1.4-0.9-1.4-1.9s0.6-1.9,1.4-1.9S286.4,378.8,286.4,379.8z"/>
				<path class="st32" d="M385.6,425c-4.4-2.3-6.6,4.6-9.9,4.5c-4.7-0.2-8.6-0.1-14.3,6c-2.6,2.1-4.8,1-7.4,1.7
					c-2.9,0.5-4.9,3.2-4.7,6.1c0.1,0.4,0.1,0.9,0.3,1.3c0.1,0,0.2,0,0.3,0c0.9,0,1.6,0.7,1.6,1.6c0,0.1,0,0.1,0,0.2
					c0.1,0.7-0.3,1.3-0.9,1.5c1.3,1.9,3.5,2.4,6.5,2.3c4.8-0.2,5.4-4,9.3-2.9s12.7-3,14.3-7c1.4-1.8,4.1-3.1,5.7-3.8
					C389.7,434.9,392.5,428.6,385.6,425z"/>
				<path class="st33" d="M385.4,435.2c-1.4,0.7-2.8,0.8-4.3,1.4c-1.4,0.7-2.5,1.8-3.4,3.1c-2.9,3.5-6.7,5.1-11.2,5.4
					c-1.2,0.1-2.1-0.2-3.2,0.3c-2.6,1.1-4.8,3.4-7.8,3.3c-1.5,0-3-0.6-4.2-1.5c-0.1,0.4-0.4,0.6-0.8,0.7c1.3,1.9,3.5,2.4,6.5,2.3
					c4.8-0.2,5.4-4,9.3-2.9s12.7-3,14.3-7c1.4-1.8,4.1-3.1,5.7-3.8c2-1.1,3.4-3.1,3.5-5.4c-0.1,1-2.8,3-3.6,3.6
					C386,434.9,385.7,435.1,385.4,435.2z"/>
				<path class="st34" d="M368.5,435.1c3.1-1.8,6.7-2,10.1-3.1c1.5-0.4,3-1.2,4.2-2.2c0.6-0.6,1.5-3-0.2-2.5
					c-0.3,0.1-0.6,0.3-0.9,0.5c-2.2,1.8-4.8,2.8-7.6,3.1c-2.4,0.3-4.9,0.5-6.8,1.9c-1.5,1-2.5,2.6-3.8,3.8c-1.8,1.5-4.2,2.1-6.5,2.8
					c-1.2,0.2-2.3,0.8-3.2,1.6c-0.3,0.4-0.4,0.9-0.1,1.2c0.3,0.1,0.6,0.1,0.9,0c3.5-1.1,7-2.2,10-4.2
					C366,437,367.2,435.9,368.5,435.1z"/>
				<path class="st35" d="M312.3,341.6c-38.8,0-70.2,6.8-70.2,15.2s31.4,15.2,70.2,15.2s70.2-6.8,70.2-15.2S351.1,341.6,312.3,341.6
					z"/>
				<path class="st9" d="M312.3,370.7c-38.1,0-69.1-6.4-69.1-14.2s30.9-14.2,69.1-14.2s69,6.4,69,14.2S350.4,370.7,312.3,370.7z"/>
				<path class="st36" d="M313.9,342.8c8,0.2,16,1.1,23.8,2.9c0.9,0.2,0.4,1-0.5,1c-6.7-0.1-13.3-0.9-19.9-0.7c3.5,0.9,7,2,10.4,3.4
					c0.8,0.3,0.5,1-0.5,1c-2.1,0-4.1-0.1-6.1-0.4c-0.1,0.3-0.5,0.5-1.2,0.5c-3.7-0.4-7.4-0.7-11-0.7c3.1,0.5,5.9,1.3,6.7,2.9
					c1,2.1-0.9,3-3.5,3.6c4.1-0.2,7.9-0.8,10.5-2.8c0.6-0.4,1.3-0.3,1.8,0.1c1.4,2,0,3.7-2.5,5c4.8-0.9,9.5-2.5,9.1-5.3
					c-0.1-0.6,1.4-0.7,1.9-0.3c3,2.6,1.3,5-2.1,6.8c1.1-0.2,2.1-0.3,3.2-0.6c1.6-0.4,4.4-0.9,5.2-1.9c1.4-1.7-1.5-3.9-2.6-5.4
					c-0.3-0.4,0.2-1,1.1-0.8c4,0.9,13.4,1.7,13.5,4.9c-0.1,1.1-0.8,2.2-1.8,2.7c1.7-0.3,3.3-0.7,5-1.1c1.9-0.5,5.4-1.2,5.9-2.5
					c0.8-2-4.5-3.6-6.9-4.5c-1-0.4-0.3-1.1,0.8-1c10.1,1,19.4,6.5,10.5,11.6c-4.2,2.4-9.5,3.7-15.2,4.6c15.3-1.2,32.8-3.9,28.6-12.8
					c-0.2-0.4,0.4-0.6,0.9-0.7c-7.5-5.4-30-9.4-57.5-10.1C318.7,342.4,316.3,342.5,313.9,342.8z"/>
				<path class="st37" d="M290,365.1c-0.9-0.4,0.1-1,1-0.9c4.1,0.4,8.3,0.7,12.6,0.9c-4.8-0.5-9.5-1.7-13.9-3.5
					c-0.9-0.4-0.4-1.1,0.8-1c6.2,0.6,12.5,0.9,18.8,0.9c-4.8-0.1-9.6-0.9-14.2-2.3c-1-0.3-0.4-1.2,0.8-1c4.7,0.8,9.5,0.8,14.2,0.2
					c-6-0.1-13-0.6-14.8-3.8c-0.3-0.4,0.5-0.8,1.2-0.7c1,0.1,2,0.2,3,0.3c-3-0.5-5-1.5-3.6-3.4c-2.7,0.9-3.9,2.5-2.8,4.3
					c0.4,0.6-1.2,0.9-1.8,0.4c-2.4-2-2.8-3.4-1.6-4.6c-3.1,1-5.7,2.4-3.3,3.8c0.8,0.4-0.3,1.3-1.2,0.9l-0.2-0.1l0,0
					c-3.3-1.5-4.4-3.4-2.6-5.1c-3.3,0.6-6.6,1.6-7.4,3.4c-1.2,2.6,2.3,4.3,5.9,5.5c0.8,0.3,0.5,1.1-0.5,1c-4-0.2-8.7-1.6-10.6-3.6
					c-1.3-1.3-1.2-2.5-0.5-3.6c-3.2,1.9-6.1,4.4-4.7,6.3c1,0.6,2,1.2,3.1,1.8c0.9,0.4-0.2,1.2-1.2,0.9c-1.4-0.3-2.7-1-3.7-2.1
					c-2.6-1.7-4.5-3.8-2.6-6s5.2-3.2,8.6-4.4c-9.9,1.6-23.6,8-11.9,12c1.1,0.4,0.1,1.3-1,1c-4.4-1.3-10.1-3.6-11.1-6.5
					c-0.2-0.7-0.3-1.4-0.2-2.1c-0.6,0.7-1,1.5-1,2.5c0,7.9,30.9,14.2,69.1,14.2c5.3,0,10.4-0.1,15.3-0.4
					C315.2,370.5,299.8,369.6,290,365.1z"/>
				<path class="st38" d="M281.6,344.3c1.2-0.1,1.8,0.9,0.5,1.1c-6.1,0.9-12.2,2.4-18,4.5c10-2.4,21.1-3.6,31.7-4.6
					c1.3-0.1,1.8,0.9,0.5,1.1c-7.4,0.6-14.5,2.6-21.2,5.8c2.4-0.8,4.9-1.4,7.5-2c2.2-0.9,4.6-1.4,7-1.6c1-0.1,1.9,0.7,0.8,1
					c-1.8,0.4-3.8,0.9-5.7,1.3c-2.5,0.8-4.1,1.9-0.7,2.9c0.7,0.2,1.5,0.4,2.2,0.6c-1.7-3,7.1-5.7,12.6-5c1,0.1,0.8,0.9,0,1
					c-3.2,0.7,4.3,2.6,5,2.7c1.7,0.3,3.4,0.3,5.1,0.1c-1.9-0.3-3.8-0.4-5.6-0.5c-1,0-1.3-0.7-0.5-1c4.8-1.9,16.5,0.8,15.9,3.5
					c2.8-0.9,5.3-2.1,2-3.6c-0.7-0.3-0.1-0.9,0.7-0.9c9.4,0,12.6,5,7.7,8.4c3.8-0.5,7.7-0.9,10.7-2.2c7.7-3.2-7-5.9-11.2-6.4
					c-1.2-0.1-0.8-1,0.3-1.1c5.4-0.3,24.9,1.5,26.9,5.7c3.8-4.3-15.5-6-21.2-6.7c-0.9-0.1-1-1,0-1c10-0.9,20.1,0.2,29.7,3.1
					c-4.8-1.6-10.7-2.5-15.9-3.5c-7-1.4-14.2-2.3-21.3-2.7c-3.1,0-6.3-0.1-9.4-0.1c-1.3,0-1.3-1,0-1.1c3.1-0.1,6.1-0.1,9.1,0
					c4.2,0.1,8.3,0.1,12.5,0.3c-8.2-0.7-17.2-1.1-26.6-1.1c-20.2,0-38.4,1.8-51.1,4.7C268,345.6,275.1,344.8,281.6,344.3z"/>
				<g class="st39">
					<path class="st40" d="M311.5,353.3c-2.4,0-4.8,0.3-7.2,0.3c-1.4,0-2.7-0.1-4-0.3c-1-0.1-6.1-0.8-4.1-2c0.1-0.1,0-0.3-0.2-0.2
						c-3.1,1.3,0.5,2.6,2.8,3.1c3.7,0.8,9.7,1,13-0.4C312.1,353.7,312,353.3,311.5,353.3z"/>
					<path class="st41" d="M320.1,353.1c-0.3-1.4-4.2-2-6.2-2.4c-4-0.6-8.1-0.8-12.1-0.5c-0.2,0-0.3,0.2,0,0.2
						c4.8,0,9.6,0.6,14.3,1.8c5.4,1.4,0.5,3.5-3.2,3.9c-2,0.2-4,0.2-6,0.5c-0.4,0-0.4,0.4,0,0.4
						C311.1,356.9,320.9,356.8,320.1,353.1z"/>
					<path class="st40" d="M317,347.9c-10.1-1.1-20.8-1.2-29.3,2.5c-6.4,2.8,0,5.3,4.8,6.8c0.3,0.1,0.6-0.2,0.3-0.3
						c-1.9-0.8-3.8-1.5-5.5-2.4c-4.6-2.6,6.2-5,8.6-5.5c6.5-1.5,14.2-1.2,21-0.9C317,348,317.1,347.9,317,347.9z"/>
					<path class="st40" d="M307.8,360.1c-5.4-0.3-10.7-0.4-16-1c-5-0.5-19.9-3.8-12.5-8c0.1,0,0-0.1-0.1-0.1c-4.2,2-1.9,4.8,1.9,6.5
						c7,3.2,18.1,3.2,26.6,2.9C307.9,360.5,308.2,360.1,307.8,360.1z"/>
					<path class="st40" d="M311,344.1c-10.9,0.2-21.7,1-32.5,2.3c-8.9,1.3-19.6,3.4-25.5,7.5c-4.4,3.1,0.9,6.7,5.3,8.7
						c6.7,3,16.4,3.4,24.7,3.6c0.4,0,0.6-0.4,0.2-0.4c-5.8-0.5-11.6-1-17.2-2c-3.6-0.6-7-1.8-10.2-3.7c-5.9-3.5-1.4-6.6,4.2-8.7
						c14.5-5.4,34.1-6.3,51.1-7.2C311.1,344.2,311.2,344.1,311,344.1z"/>
					<path class="st40" d="M324.3,347.7C324.3,347.7,324.2,347.7,324.3,347.7c7.1,0.5,14.2,1.7,21.1,3.4c2.9,0.6,5.7,1.6,8.3,2.9
						c4.1,2.1-2.7,4-5.5,4.8c-14.3,3.9-30.6,3.5-46.1,3.8c-0.6,0-0.8,0.6-0.1,0.6c10.5,0.4,21.1,0.1,31.6-0.8
						c6.5-0.7,15.8-2,20.9-4.7C365.4,351.8,328.8,348,324.3,347.7z"/>
					<path class="st41" d="M326.1,350.4c-0.1,0-0.2,0.1-0.1,0.1c3.7,1.3,13.8,2.7,10.1,6.2c-2.2,2.1-8.8,2.7-12.7,3.3
						c-0.4,0.1-0.5,0.5,0,0.5c4.7-0.4,12.2-1,14.3-3.8C340.7,352.6,330.5,351.8,326.1,350.4z"/>
					<path class="st40" d="M361.1,348.9c-9.3-2.4-19.7-2.3-29.6-3.5c-0.1,0-0.2,0.1-0.1,0.1c7,1.1,14.3,1.5,21.3,2.7
						c6.2,1,20.7,3.9,20.6,8.5c-0.1,5.1-15.1,7.2-21.9,8.3c-7,1.2-14.3,2-21.4,3.1c-0.3,0-0.3,0.4,0.1,0.3
						c10.6-1.3,21.5-2.5,31.6-4.7c5.1-1.1,12.6-3.6,13.1-7C375.5,352.5,366.9,350.4,361.1,348.9z"/>
				</g>
				<path class="st10" d="M299.6,345.9c-5.5-0.2-11.1,0.2-16.5,1.2c-9.3,1.1-19.2,2.7-25,6.9s1.9,7.7,8.9,8.8
					c0.5,0.1,0.8-0.3,0.4-0.5c-3-1.2-7-2.8-7.2-5c-0.2-1.6,2.8-3.1,4.7-4c2.4-1.2,5-2.1,7.6-2.9c-5.6,3.1-2.9,7.8,5.5,8.6
					c0.5,0,0.9-0.4,0.4-0.5c-11.1-2.8-4.2-7,2.9-9.2c6-1.7,12.2-2.8,18.5-3.2C299.9,346.1,299.9,345.9,299.6,345.9z"/>
				<path class="st10" d="M299.7,358.9c-6.1-0.8-15.7-1-16.6-5.5c-0.7-3.7,7.4-5.2,12.5-5.7c0.5,0,0.4-0.5-0.1-0.5
					c-6,0.3-14.6,2.2-14.8,6.2c-0.2,4.6,12.9,5.9,18.9,5.8C299.9,359.2,300,359,299.7,358.9z"/>
				<path class="st10" d="M306.4,359.1c-1.3-0.1-2.5,0-3.8-0.2c-0.1,0-0.2,0.1-0.1,0.1c1.3,0.2,2.6,0.2,3.9,0.2
					C306.5,359.3,306.5,359.2,306.4,359.1z"/>
				<path class="st10" d="M310.9,349.7c-0.5,0-0.5,0.4,0,0.4c4.1,0.1,8.3,0.7,12.2,2c1.7,0.6,4.4,1.9,4,3.1c-0.8,2.9-9,3.4-13,3.8
					c-0.2,0-0.1,0.2,0,0.2c4.8,0.1,14.1-0.9,15.3-4.1C331,350.6,315.6,349.6,310.9,349.7z"/>
				<path class="st10" d="M367,355.9c-3.1-4.6-14.8-6.7-22.4-7.9c-11.4-1.9-23.7-2.2-35.5-2c-0.3,0-0.3,0.2,0,0.3
					c17.5,1.1,37.1,1.7,51.1,8.4c7.9,3.8-0.7,6.9-7.3,8.2c-9,1.8-19.2,1.5-28,3.3c-0.4,0.1-0.3,0.4,0.1,0.4c6,0.3,12.4-0.5,18.3-1
					c5.2-0.4,10.3-1.1,15.4-2.3C364,361.9,369.5,359.5,367,355.9z"/>
				<path class="st10" d="M322.7,366.2c-0.4,0.1-0.8,0.2-1.1,0.2c-0.1,0-0.1,0.1,0,0.1C321.9,366.4,322.4,366.4,322.7,366.2
					C322.9,366.3,322.8,366.2,322.7,366.2z"/>
				<path class="st10" d="M315,365.9c-12.8,0-25.5-0.8-38.2-2.5c-0.1,0-0.2,0.1-0.1,0.1c11.4,3.2,25.8,2.8,38.3,2.7
					C315.5,366.3,315.5,365.9,315,365.9z"/>
				<path class="st10" d="M271.1,346.2c-10.5,1.8-24.8,3.9-25.4,11.2c0,0.2,0.6,0.2,0.6,0c2.1-6.1,15.9-8.7,25-11
					C271.5,346.4,271.4,346.1,271.1,346.2z"/>
				<path class="st10" d="M375.2,352.3c-9-6.2-27.5-7.8-41-8.1c-0.3,0-0.4,0.2-0.1,0.3c14.8,1.3,27.9,3.7,40.3,8.3
					C375.1,353,375.6,352.5,375.2,352.3z"/>
				<path class="st10" d="M313.2,367.6c-7.4,0.1-14.8-0.2-22.2-0.1c-0.5,0-0.5,0.4,0,0.4c7.5,0.5,14.9,1.3,22.4,0.6
					C314.4,368.4,314.1,367.6,313.2,367.6z"/>
				<path class="st9" d="M322.5,345.2c-3.2,0.8-3.3-4.9-3.3-4.9V170.6h-10v169.8c0,0-0.1,5.7-3.3,4.9c0,0-1.7,0.8,0.1,4.5
					s4-1.2,4-1.2s-0.3,4,2,4.5c0.9,0.1,1.8-0.3,2.2-1c0.5,0.8,1.3,1.2,2.2,1c2.3-0.4,2-4.5,2-4.5s2.1,4.9,4,1.2
					S322.5,345.2,322.5,345.2z"/>
				<path class="st42" d="M310.7,238c0.5,1.8,2.5,5.9,3.7,2.2c0.4-1.3,0.7-2.5,1-3.8c0.4-2,0.8-4.1,1.2-6.1c0.5-2.7,1.4-5.3,2.6-7.7
					v-21.3c-0.3,1.5-0.5,3-0.6,4.6c-0.6,5.7-0.6,13.5-3.7,17.7c-0.1,0.2-0.4,0.3-0.6,0.2c-0.1,0-0.1-0.1-0.2-0.2
					c-2.6-3.5-2.9-9.2-3.1-14.1c-0.2-4.5-0.3-9-0.4-13.4c0-0.8-0.2-8.2-1.4-7.9v41.7C309.4,232.6,309.9,235.3,310.7,238z"/>
				<path class="st42" d="M311.5,285.3c0.2-0.3,0.6-0.1,0.8,0.3c3.6,9.7,1.3,22.1,5.6,31.3c0.3,0.7,0.8,1.4,1.3,2v-22.7
					c-1,2.9-2.7,3.5-3.8-0.1s-1.2-7.8-1.5-11.7c-0.1-1.8-1.4-14.5-3.4-9.3c-0.6,1.7-1,3.4-1.3,5.2v9.5
					C309.7,288.2,310.5,286.6,311.5,285.3z"/>
				<rect x="309.2" y="170.6" class="st43" width="10" height="8.3"/>
				<path class="st44" d="M322.5,345.2L322.5,345.2c-0.8,1.3-1.8,2.1-3,1.3c-1.1-0.8-1.9-2-2.2-3.3c-0.2,2.6-0.9,4.6-2.5,4
					c-0.6-0.2-1-1.1-1.3-2.1c-0.3,0.7-0.6,1.3-1.1,1.4c-1.4,0.4-1.9-1.5-2.1-3.7c-0.4,1.3-1.1,2.5-2.1,3.4c-1,0.8-1.8,0.1-2.1-1
					c-0.1,0-0.1,0-0.2,0c0,0-1.7,0.8,0.1,4.5s4-1.2,4-1.2s-0.3,4,2,4.5c0.9,0.1,1.8-0.3,2.2-1c0.5,0.8,1.3,1.2,2.2,1
					c2.3-0.4,2-4.5,2-4.5s2.1,4.9,4,1.2S322.5,345.2,322.5,345.2z"/>
				<g class="st39">
					<path class="st45" d="M310.5,181.9c0,0-1,87.3-0.1,157.3C310.3,339.1,310.6,249.4,310.5,181.9z"/>
					<path class="st45" d="M312.9,207.8c0,0-1,58.4-0.1,105.1C312.7,312.9,313,252.9,312.9,207.8z"/>
					<path class="st45" d="M315.2,193.3c0,0-1,79.3-0.1,142.8C315.1,336.2,315.4,254.6,315.2,193.3z"/>
					<path class="st45" d="M317.6,218.3c0,0-1,58.4-0.1,105.1C317.5,323.4,317.8,263.4,317.6,218.3z"/>
				</g>
				<path class="st46" d="M326.5,344.8c0,0,1.1,0,1.8-2.6s3.9-2.9,2.9,0.8S324.8,346.3,326.5,344.8z"/>
				<path class="st46" d="M331.9,346.6c0,0,0.6,0.2,1.4-1s2.6-0.8,1.4,1S330.7,347,331.9,346.6z"/>
				<path class="st46" d="M305.9,345.1c-1.5-0.3-2.8-1.4-3.2-2.9c-0.7-2.5-3.9-2.9-2.9,0.8S307.6,346.6,305.9,345.1z"/>
				<path class="st46" d="M299.1,346.6c0,0-0.6,0.2-1.4-1s-2.6-0.8-1.4,1S300.3,347,299.1,346.6z"/>
				<path class="st37" d="M291,369.9h1.1c0,0,2.6,14.3,2.3,20.1c-0.1,2.5-1.7,3.5-2.7,3.6s-2.5-1-2.9-2.6
					C287.8,385.8,291,369.9,291,369.9z"/>
				<path class="st37" d="M273.2,366.9h1c0,0,2.4,12.8,2.1,18c-0.1,2.3-1.5,3.1-2.4,3.3s-2.3-0.9-2.5-2.4
					C270.4,381.2,273.2,366.9,273.2,366.9z"/>
				<path class="st37" d="M267.6,367.1h0.5c0,0,1.2,6.3,1,8.8c0.1,0.8-0.5,1.4-1.2,1.6c-0.5,0.1-1.1-0.5-1.3-1.1
					C266.2,374.1,267.6,367.1,267.6,367.1z"/>
				<path class="st37" d="M282.2,369h0.8c0,0,1.9,10.2,1.6,14.3c0.1,1.3-0.7,2.4-1.9,2.7c-0.8,0.1-1.8-0.8-2-1.9
					C279.9,380.4,282.2,369,282.2,369z"/>
				<path class="st37" d="M336.4,369h0.8c0,0,1.9,10.2,1.6,14.3c0.1,1.2-0.7,2.4-1.9,2.7c-0.8,0.1-1.8-0.8-2-1.9
					C334.1,380.4,336.4,369,336.4,369z"/>
				<path class="st37" d="M340.7,368.4h0.6c0,0,1.3,6.9,1.1,9.7c0.1,0.8-0.5,1.6-1.3,1.8c-0.5,0.1-1.2-0.5-1.4-1.3
					C339.2,376.1,340.7,368.4,340.7,368.4z"/>
				<path class="st37" d="M286.1,419.3h0.5c0,0,1.2,6.3,1,8.8c0.1,0.8-0.5,1.4-1.2,1.6c-0.5,0.1-1.1-0.5-1.3-1.1
					C284.6,426.3,286.1,419.3,286.1,419.3z"/>
				<path class="st37" d="M306.3,437.3h0.5c0,0,1.2,6.3,1,8.8c0.1,0.8-0.5,1.4-1.2,1.6c-0.5,0.1-1.1-0.5-1.3-1.1
					C304.9,444.3,306.3,437.3,306.3,437.3z"/>
				<path class="st37" d="M252,363.2h0.8c0,0,1.7,9.4,1.5,13.2c0.1,1.1-0.7,2.1-1.8,2.4c-0.7,0.1-1.6-0.7-1.9-1.7
					C249.9,373.7,252,363.2,252,363.2z"/>
				<path class="st37" d="M253.4,375.5h0.6c0,0,1.4,7.5,1.2,10.5c0.1,0.9-0.5,1.7-1.4,1.9c-0.6,0.1-1.3-0.5-1.5-1.4
					C251.7,383.8,253.4,375.5,253.4,375.5z"/>
				<path class="st37" d="M253,363.7h0.6c0,0,1.4,7.5,1.2,10.5c0.1,0.9-0.5,1.7-1.4,1.9c-0.6,0.1-1.3-0.5-1.5-1.4
					C251.4,372,253,363.7,253,363.7z"/>
				<path class="st37" d="M296.2,369.5l33.7,0.3c0,0,2,47.6,1.3,60.8c-0.4,8.4-5,4-5,4s-1.2-6.2-4.3-4.4c-4,2.4-2.3,17.2-4.5,21.2
					c-2.8,5.1-4.9,0-4.9,0s-3.3-22.8-4.9-30c-1.2-5.4-4.4-1.4-5.8-1.8c-3.1-0.7-2.5-8.6-2.5-8.6l-1.2-38.3
					C298.4,371.4,297.5,370.1,296.2,369.5z"/>
				<g class="st47">
					<path class="st48" d="M301.1,370.4h25.8c0,0,1.5,42.2,1,54.1c-0.3,7.6-4,3.6-4,3.6s-0.9-5.6-3.4-4c-3.2,2.1-1.9,15.5-3.6,19.1
						c-2.2,4.6-3.9,0-3.9,0s-2.6-20.6-3.9-27.1c-0.9-4.9-3.5-1.3-4.7-1.6c-2.5-0.7-2-7.8-2-7.8L301.1,370.4z"/>
				</g>
				<g class="st39">
					<path class="st49" d="M310.4,388.3c0,0,4.1,0.1,4.6,7.7c0.4,4.2-1.4,8.4-4.8,11c0,0,3.8-2.5,4-10.1S310.4,388.3,310.4,388.3z"
						/>
				</g>
				<g class="st39">
					<path class="st49" d="M312.9,378.4c0,0,15.7-3.3,8,16.4c0,0,5.5,3.3-3.6,23.3c0,0,10.4-13.5,5.4-24.3
						C322.6,393.8,329.6,372.1,312.9,378.4z"/>
				</g>
				<path class="st50" d="M360.6,70.3c-0.6-5-5.1-8.6-10.2-8.1c-2,0.2-3.9,1.1-5.3,2.5c-0.9,0.9-2,1.3-3.2,1.3H339
					c-1.5,0-2.9-0.7-3.7-1.9l-4.7-6.6c-0.9-1.3-2.4-2.1-4-2.1h-13.8c-1.6,0-3.1,0.8-4,2.1l-4.7,6.6c-0.9,1.2-2.2,1.9-3.7,1.9h-2.9
					c-1.2,0-2.4-0.5-3.2-1.3c-3.6-3.5-9.4-3.5-13,0.2c-3.5,3.6-3.5,9.4,0.2,13c3.6,3.5,9.4,3.5,13-0.2c0.2-0.2,0.3-0.3,0.5-0.5
					c0.8-1,2.1-1.6,3.4-1.6h2.1c1.5,0,2.9,0.7,3.7,1.9l4.7,6.6c0.9,1.3,2.4,2.1,4,2.1h0.9v7.7h-1c-0.7,0-1.4,0.3-1.9,0.8l-5.2,5.2h0
					c-0.4,0.4-0.6,1-0.6,1.5v5.6c0,1.2,0.9,2.1,2.1,2.1c0,0,0,0,0,0v2.9h4c-14.2,4.8-21.8,20.1-17,34.3c2.5,7.5,8.2,13.5,15.6,16.5
					V174h20.2v-11.1c13.9-5.6,20.6-21.3,15-35.2c-2.9-7.3-9-13-16.5-15.6h4v-2.9c1.2,0,2.1-1,2.1-2.1c0,0,0,0,0,0v-5.6
					c0-0.6-0.2-1.1-0.6-1.5h0l-5.2-5.2c-0.5-0.5-1.2-0.8-1.9-0.8h-1.1v-7.7h0.9c1.6,0,3.1-0.8,4-2.1l4.7-6.6c0.9-1.2,2.3-2,3.8-1.9
					h2.1c1.3,0,2.6,0.6,3.4,1.6c3.2,3.9,9,4.4,12.9,1.2C359.8,76.4,361,73.4,360.6,70.3L360.6,70.3z"/>
				<circle class="st51" cx="313.3" cy="137.7" r="27.1"/>
				<circle class="st52" cx="313.3" cy="137.7" r="25.5"/>
				<rect x="307.3" y="84.6" class="st53" width="12" height="9.3"/>
				<rect x="310.3" y="84.6" class="st52" width="6" height="9.3"/>
				<rect x="307.3" y="84.6" class="st54" width="12" height="2.9"/>
				<path class="st53" d="M302.5,112.1h21.7c2.2,0,4,1.8,4,4v20l0,0h-29.7l0,0v-20C298.5,113.9,300.3,112.1,302.5,112.1L302.5,112.1
					z"/>
				<rect x="305.8" y="112.1" class="st52" width="15" height="24"/>
				<path class="st55" d="M306.5,55.5c-1.6,0-3.1,0.8-4,2.1l-4.7,6.6c-0.9,1.2-2.2,1.9-3.7,1.9h-2.9c-1.2,0-2.4-0.5-3.2-1.3
					c-3.6-3.5-9.4-3.5-13,0.2c-3.5,3.6-3.5,9.4,0.2,13c3.6,3.5,9.4,3.5,13-0.2c0.2-0.2,0.3-0.3,0.5-0.5c0.8-1,2.1-1.6,3.4-1.6h2.1
					c1.5,0,2.9,0.7,3.7,1.9l4.7,6.6c0.9,1.3,2.4,2.1,4,2.1h6.9V55.5H306.5z"/>
				<circle class="st52" cx="277.8" cy="70.9" r="4.6"/>
				<circle class="st53" cx="276.5" cy="70.9" r="2.1"/>
				<path class="st52" d="M298.9,74.3h0.7c1,0,2,0.5,2.6,1.4l3.3,4.7c0.7,0.9,1.7,1.5,2.9,1.5h4.9V60h-4.9c-1.1,0-2.2,0.6-2.9,1.5
					l-3.3,4.7c-0.6,0.9-1.6,1.4-2.6,1.4h-0.7c-1.9,0-3.4,1.5-3.4,3.3c0,0,0,0,0,0l0,0C295.6,72.8,297.1,74.3,298.9,74.3z"/>
				<path class="st56" d="M320.2,55.5c1.6,0,3.1,0.8,4,2.1l4.7,6.6c0.9,1.2,2.2,1.9,3.7,1.9h2.9c1.2,0,2.4-0.5,3.2-1.3
					c3.6-3.5,9.4-3.5,13,0.1c3.5,3.6,3.5,9.4-0.1,13c-3.6,3.5-9.4,3.5-13-0.1c-0.2-0.2-0.3-0.4-0.5-0.5c-0.8-1-2.1-1.6-3.4-1.6h-2.1
					c-1.5,0-2.9,0.7-3.7,1.9l-4.7,6.6c-0.9,1.3-2.4,2.1-4,2.1h-6.9V55.5H320.2z"/>
				<circle class="st57" cx="348.8" cy="70.9" r="4.6"/>
				<circle class="st58" cx="350.1" cy="70.9" r="2.1"/>
				<path class="st57" d="M327.7,74.3H327c-1,0-2,0.5-2.6,1.4l-3.3,4.7c-0.7,0.9-1.7,1.5-2.9,1.5h-4.9V60h4.9c1.1,0,2.2,0.6,2.9,1.5
					l3.3,4.7c0.6,0.8,1.6,1.3,2.6,1.3h0.7c1.9,0,3.4,1.5,3.4,3.3c0,0,0,0,0,0l0,0C331,72.7,329.5,74.2,327.7,74.3z"/>
				<circle class="st54" cx="313.3" cy="72.2" r="9.3"/>
				<circle class="st55" cx="313.3" cy="70.9" r="9.3"/>
				<circle class="st52" cx="313.3" cy="67.3" r="4.6"/>
				<circle class="st53" cx="313.3" cy="66.1" r="2.1"/>
				<path class="st55" d="M296.8,137.7c0,9.1,7.4,16.5,16.5,16.5v-33.1C304.2,121.2,296.8,128.6,296.8,137.7z"/>
				<path class="st56" d="M313.3,121.2v33.1c9.1,0,16.5-7.4,16.5-16.5C329.8,128.6,322.4,121.2,313.3,121.2z"/>
				<circle class="st54" cx="313.3" cy="139.4" r="12.3"/>
				<path class="st53" d="M306.7,129.7h13.1c1.9,0,3.5,1.6,3.5,3.5V174l0,0h-20.2l0,0v-40.8C303.2,131.3,304.8,129.7,306.7,129.7
					C306.7,129.7,306.7,129.7,306.7,129.7z"/>
				<path class="st52" d="M318.4,174h-10.2v-38.7c0-2.8,2.3-5.1,5.1-5.1l0,0c2.8,0,5.1,2.3,5.1,5.1V174z"/>
				<rect x="300.6" y="109.2" class="st52" width="12.7" height="2.9"/>
				<path class="st56" d="M313.3,93.9h-7c-0.7,0-1.4,0.3-1.9,0.8l-5.2,5.2h14.1V93.9z"/>
				<path class="st55" d="M299.2,99.9L299.2,99.9c-0.5,0.4-0.7,1-0.7,1.5v5.6c0,1.2,1,2.1,2.1,2.1l0,0h12.7v-9.2H299.2z"/>
				<path class="st55" d="M313.3,93.9h7c0.7,0,1.4,0.3,1.9,0.8l5.2,5.2h-14.1V93.9z"/>
				<path class="st56" d="M327.5,99.9L327.5,99.9c0.5,0.4,0.7,1,0.7,1.5v5.6c0,1.2-1,2.1-2.1,2.1l0,0h-12.7v-9.2H327.5z"/>
				<ellipse class="st53" cx="306.1" cy="104.4" rx="6.3" ry="3.4"/>
				<ellipse class="st53" cx="320.5" cy="104.4" rx="6.3" ry="3.4"/>
				<rect x="313.3" y="109.2" class="st57" width="12.7" height="2.9"/>
			</g>
		</g>
	</g>
</g>
<path class="st59" d="M133,548.5h350c53.6,0,97-43.4,97-97v-333c-0.1-53.6-43.6-96.9-97.1-96.9c-2.9,0-5.8,0.1-8.7,0.4L108.1,55.5
	c-51.9,4.8-90.8,49.7-88,101.7l16,299.5C38.9,508.1,81.4,548.5,133,548.5z"/>
</svg>
