<svg xmlns="http://www.w3.org/2000/svg" viewBox="0 0 131.48 131.48"><defs><style>.a{fill:#fff;}.b{fill:#2381c4;}.c{fill:#0e4168;}.d{fill:#07518d;}.e{fill:#d7d7d7;}</style></defs><circle class="a" cx="65.74" cy="65.74" r="65.74"/><circle class="b" cx="65.74" cy="65.74" r="58.9"/><circle class="c" cx="63.7" cy="67.77" r="56.86"/><circle class="d" cx="64.89" cy="66.58" r="55.67"/><path class="e" d="M103.39,67.72c-.19,1.38-.33,2.77-.58,4.14A36.46,36.46,0,0,1,86.69,96.42a35,35,0,0,1-24.56,5.91c-14.36-1.86-24.47-9.63-30.25-22.9a35.11,35.11,0,0,1-2.46-18.75A36.68,36.68,0,0,1,33.9,47.23,5.23,5.23,0,0,1,41,45.08,5.11,5.11,0,0,1,43.16,52v0a31.52,31.52,0,0,0-3.06,8.25,26.81,26.81,0,0,0,18,30.64,24.9,24.9,0,0,0,12.67.85c10.44-2.08,17.53-8.21,20.85-18.29,2.6-7.93,1.36-15.55-3.16-22.6,0-.06-.09-.11-.19-.23l-1.58,3.53c-1,2.34-2.6,2.68-4.52,1A8.6,8.6,0,0,1,81,53.77q-5.52-7.58-11-15.19a7,7,0,0,1-.81-1.37,2.8,2.8,0,0,1,1.12-3.8,2.76,2.76,0,0,1,1.09-.33c2-.34,4-.51,6-.73,4.39-.47,8.79-.94,13.19-1.37a9.93,9.93,0,0,1,2.88,0,2.43,2.43,0,0,1,2.23,2.61,2.34,2.34,0,0,1-.23.86c-.59,1.61-1.32,3.16-2,4.72a.89.89,0,0,0,.15,1.14,36.88,36.88,0,0,1,9.5,20c.14.95.24,1.91.36,2.86Z"/><path class="a" d="M102.38,65.69c-.19,1.39-.33,2.78-.58,4.15A36.48,36.48,0,0,1,85.68,94.4a35,35,0,0,1-24.56,5.9c-14.36-1.86-24.47-9.63-30.25-22.89a35.11,35.11,0,0,1-2.46-18.75,36.68,36.68,0,0,1,4.48-13.45,5.19,5.19,0,0,1,7-2.15,5.1,5.1,0,0,1,2.22,6.86l0,0A31.52,31.52,0,0,0,39,58.21a26.77,26.77,0,0,0,18,30.64,24.9,24.9,0,0,0,12.67.84c10.44-2.08,17.53-8.2,20.84-18.28C93.2,63.47,92,55.85,87.44,48.8c0-.06-.09-.1-.19-.22L85.67,52.1c-1,2.35-2.6,2.69-4.52,1A8.6,8.6,0,0,1,80,51.74q-5.53-7.59-11-15.19a7,7,0,0,1-.81-1.37,2.8,2.8,0,0,1,1.12-3.8,2.76,2.76,0,0,1,1.09-.33c2-.34,4-.52,6-.73,4.39-.47,8.79-.95,13.19-1.38a10.68,10.68,0,0,1,2.88,0,2.44,2.44,0,0,1,2.23,2.63,2.5,2.5,0,0,1-.23.85c-.59,1.61-1.32,3.16-2,4.72a.89.89,0,0,0,.15,1.13,36.92,36.92,0,0,1,9.5,20c.14,1,.24,1.9.36,2.86Z"/></svg>