<svg xmlns="http://www.w3.org/2000/svg" viewBox="0 0 240 250"><defs><style>.cls-1{isolation:isolate;}.cls-2{opacity:0.3;}.cls-3{fill:#e2f7f3;}.cls-10,.cls-4{fill:#bfe2db;}.cls-5,.cls-9{fill:#fff;}.cls-6{fill:#d0eae4;}.cls-7{fill:#2295e6;}.cls-8{fill:#47aff8;}.cls-9{opacity:0.5;mix-blend-mode:screen;}.cls-10{opacity:0.34;mix-blend-mode:multiply;}.cls-11{fill:#52706a;}</style></defs><g class="cls-1"><g id="Layer_1" data-name="Layer 1"><ellipse class="cls-2" cx="120.38" cy="231.61" rx="108.04" ry="14.28"/><path class="cls-3" d="M136.1,15.77V237.28s53.54-.38,57.82-8.95S217,20,217,20Z"/><path class="cls-4" d="M216.29,20.25S194.46,222.53,193,226.12s-12.57,7.09-23.44,8.42-24.2,1.79-24.2,1.79,16.45-1.42,27.69-3.5,17.68-6.14,18.06-7.46S211.66,22,211.66,22Z"/><path class="cls-5" d="M214.59,20.25s-21.83,202.28-23.25,205.87-12.57,7.09-23.44,8.42-24.2,1.79-24.2,1.79,16.44-1.42,27.69-3.5,17.68-6.14,18.06-7.46S210,22,210,22Z"/><path class="cls-3" d="M136.1,15.77V237.28s-53.53-.38-57.82-8.95S55.22,20,55.22,20Z"/><path class="cls-4" d="M136.1,29.82s37-.24,59.49-3.27c19.37-2.62,21.58-6.76,21.58-6.76l1.86-4L136.1,27.43Z"/><path class="cls-4" d="M136.1,29.82s-37-.24-59.49-3.27C57.25,23.93,55,19.79,55,19.79l-1.87-4L136.1,27.43Z"/><path class="cls-4" d="M229.75,36s-6.4,3.32-10.18,7c-4.31,4.17-6,13.06-6,13.06s-10.19-5.12-12.46-14S188.24,27.4,188.24,27.4L196.19,25s12.5,2.16,12.8,2.44S229.75,36,229.75,36Z"/><path class="cls-3" d="M229.71,24.5C226,19.87,218.09,14,218.09,14h0c-6.05-5.6-40.45-9.9-82-9.9-45.8,0-82.93,5.22-82.93,11.66S90.3,27.43,136.1,27.43a462.09,462.09,0,0,0,55.36-3h0c4.47-.53,18.54,4.87,25.25,7.89s12.2,4.54,15.6,3S233.4,29.13,229.71,24.5Z"/><path class="cls-6" d="M214.12,16.59c-4.41-2.77-11.71-3.33-11.71-3.33h0c-10.28-2.6-36.08-4.45-66.3-4.45-39.26,0-71.08,3.11-71.08,7s31.82,7,71.08,7c20.11,0,38.26-.82,51.19-2.13h0s6.17.4,17.42,1.72,19,8.39,22.27,7.5S218.53,19.36,214.12,16.59Z"/><path class="cls-4" d="M55.91,20.25S77.75,222.53,79.17,226.12s12.57,7.09,23.44,8.42,24.2,1.79,24.2,1.79-16.45-1.42-27.7-3.5-17.67-6.14-18-7.46S60.55,22,60.55,22Z"/><path class="cls-7" d="M136.1,193.82H80s1,16.23,2.59,22.79,16.13,11.47,29,12.47,24.54,1.14,24.54,1.14,11.69-.13,24.55-1.14,27.35-5.92,29-12.47,2.58-22.79,2.58-22.79Z"/><ellipse class="cls-8" cx="136.1" cy="192.82" rx="55.9" ry="5.92"/><path class="cls-3" d="M193.26,27.9s7.94,5.2,9.26,10.68,8.7,14,9.93,13.33,3.4-7.47,5.29-10S225,37.41,222.56,36s-17.64-7.86-23.06-9.1S189,26,193.26,27.9Z"/><path class="cls-3" d="M58.11,40.49S11.86,41.07,7,56s9.94,123.06,25.58,135.54,41.28,8.37,41.28,8.37l-3-29.45s-23.44,3.31-28.74-6.9S29.26,76.2,30,69s29.16-7.94,29.16-7.94Z"/><path class="cls-4" d="M59.07,59.19s-13.62.63-20.42,2.52-9.46,4-10,5.92.38,12.17.38,12.17S26.48,67.63,28.53,64c2.93-5.1,30.38-7.87,30.38-7.87Z"/><path class="cls-4" d="M8.84,94.35s3.78,33.4,9.7,56.85,8.64,36.32,18,41.65,20,6.24,27.61,6.55,9.58-.45,9.58-.45l-.76-6.42s-26,1.42-37.24-8.76S9.79,112.31,8.84,94.35Z"/><path class="cls-5" d="M54.09,41.8S34.55,43,22,47.19s-13.42,7.56-14.46,15,.56,22.11.56,22.11S6.37,59.2,12.72,53.71s43-9.36,44-10.31S55.93,41.66,54.09,41.8Z"/><path class="cls-5" d="M28.88,93.47s4.66,57.73,11.59,70.33,29.87,9.58,29.87,9.58l.51,5.16s-26.59,2-32.52-12.47S27.74,96.87,27.74,90.82,28.88,93.47,28.88,93.47Z"/><path class="cls-9" d="M200.22,61.46s-7.07,91.5-8.55,103.85-14.13,19.16-14.1-2.27,7-101,9.71-108.77S202.37,47.09,200.22,61.46Z"/><path class="cls-10" d="M71.1,42.71S83.88,197.58,85.35,209.93s14.14,19.15,14.11-2.27S86.7,43.27,84,35.52,69,28.34,71.1,42.71Z"/><path class="cls-9" d="M187,190.86s-.76,17.21-2.27,22.6-12.95,8-11.81-7.19,1.32-20.32,2.83-23,8.89-4.16,10.49,0A13.62,13.62,0,0,1,187,190.86Z"/><polygon class="cls-11" points="101.85 35.96 109.04 221.51 111.18 221.51 104.25 35.96 101.85 35.96"/><rect class="cls-11" x="91.83" y="40.49" width="23.22" height="1.81"/><rect class="cls-11" x="91.83" y="53.34" width="23.22" height="1.81"/><rect class="cls-11" x="92.43" y="66.2" width="23.22" height="1.81"/><rect class="cls-11" x="93.09" y="79.06" width="23.22" height="1.81"/><rect class="cls-11" x="93.6" y="90.4" width="23.22" height="1.81"/><rect class="cls-11" x="94.1" y="101.74" width="23.22" height="1.81"/><rect class="cls-11" x="94.6" y="113.08" width="23.22" height="1.81"/><rect class="cls-11" x="95.1" y="124.43" width="23.22" height="1.81"/><rect class="cls-11" x="95.6" y="135.77" width="23.22" height="1.81"/><rect class="cls-11" x="96.1" y="147.11" width="23.22" height="1.81"/><rect class="cls-11" x="96.61" y="158.46" width="23.22" height="1.81"/><rect class="cls-11" x="97.11" y="169.8" width="23.22" height="1.81"/><rect class="cls-11" x="97.61" y="181.14" width="23.22" height="1.81"/><rect class="cls-11" x="98.11" y="192.49" width="23.22" height="1.81"/><rect class="cls-11" x="98.61" y="203.83" width="23.22" height="1.81"/><rect class="cls-11" x="99.11" y="215.17" width="23.22" height="1.81"/></g></g></svg>