<svg xmlns="http://www.w3.org/2000/svg" viewBox="0 0 240 250"><defs><style>.cls-1{isolation:isolate;}.cls-2{opacity:0.3;}.cls-3{fill:#e2f7f3;}.cls-10,.cls-4{fill:#bfe2db;}.cls-5,.cls-9{fill:#fff;}.cls-6{fill:#d0eae4;}.cls-7{fill:#2295e6;}.cls-8{fill:#47aff8;}.cls-9{opacity:0.5;mix-blend-mode:screen;}.cls-10{opacity:0.34;mix-blend-mode:multiply;}.cls-11{fill:#52706a;}</style></defs><g class="cls-1"><g id="Layer_1" data-name="Layer 1"><ellipse class="cls-2" cx="124.38" cy="231.42" rx="83.62" ry="14.28"/><path class="cls-3" d="M136.1,16v221.5s53.54-.37,57.82-8.94S217,20.22,217,20.22Z"/><path class="cls-4" d="M216.29,20.43S194.46,222.72,193,226.31s-12.57,7.09-23.44,8.41-24.2,1.8-24.2,1.8,16.45-1.42,27.69-3.5,17.68-6.14,18.06-7.47S211.66,22.23,211.66,22.23Z"/><path class="cls-5" d="M214.59,20.43s-21.83,202.29-23.25,205.88-12.57,7.09-23.44,8.41-24.2,1.8-24.2,1.8,16.44-1.42,27.69-3.5,17.68-6.14,18.06-7.47S210,22.23,210,22.23Z"/><path class="cls-3" d="M136.1,16v221.5s-53.53-.37-57.82-8.94S55.22,20.22,55.22,20.22Z"/><path class="cls-4" d="M136.1,30s37-.24,59.49-3.27C215,24.12,217.17,20,217.17,20L219,16,136.1,27.62Z"/><path class="cls-4" d="M136.1,30s-37-.24-59.49-3.27C57.25,24.12,55,20,55,20l-1.87-4L136.1,27.62Z"/><path class="cls-4" d="M229.75,36.15s-6.4,3.31-10.18,7c-4.31,4.17-6,13.06-6,13.06s-10.19-5.12-12.46-14-12.83-14.58-12.83-14.58l7.95-2.42s12.5,2.16,12.8,2.45S229.75,36.15,229.75,36.15Z"/><path class="cls-3" d="M229.71,24.69C226,20.06,218.09,14.2,218.09,14.2h0c-6.05-5.61-40.45-9.9-82-9.9C90.3,4.3,53.17,9.52,53.17,16S90.3,27.62,136.1,27.62a462.09,462.09,0,0,0,55.36-3h0c4.47-.52,18.54,4.88,25.25,7.9s12.2,4.54,15.6,3S233.4,29.32,229.71,24.69Z"/><path class="cls-6" d="M214.12,16.78c-4.41-2.77-11.71-3.33-11.71-3.33h0C192.12,10.85,166.32,9,136.1,9,96.84,9,65,12.12,65,16s31.82,7,71.08,7c20.11,0,38.26-.82,51.19-2.13h0s6.17.41,17.42,1.73,19,8.38,22.27,7.5S218.53,19.55,214.12,16.78Z"/><path class="cls-4" d="M55.91,20.43S77.75,222.72,79.17,226.31s12.57,7.09,23.44,8.41,24.2,1.8,24.2,1.8-16.45-1.42-27.7-3.5-17.67-6.14-18-7.47S60.55,22.23,60.55,22.23Z"/><path class="cls-7" d="M78,175s3,35.23,4.59,41.78,16.13,11.47,29,12.48,24.54,1.14,24.54,1.14,11.69-.13,24.55-1.14,27.35-5.92,29-12.48S194.22,175,194.22,175Z"/><ellipse class="cls-8" cx="136.1" cy="175.01" rx="57.9" ry="5.92"/><path class="cls-3" d="M193.26,28.09s7.94,5.2,9.26,10.68,8.7,14,9.93,13.33,3.4-7.47,5.29-10,7.28-4.48,4.82-5.93-17.64-7.86-23.06-9.1S189,26.2,193.26,28.09Z"/><path class="cls-3" d="M58.11,40.68S11.86,41.26,7,56.18s9.94,123.06,25.58,135.53,41.28,8.38,41.28,8.38l-3-29.46s-23.44,3.31-28.74-6.9S29.26,76.39,30,69.21s29.16-7.95,29.16-7.95Z"/><path class="cls-4" d="M59.07,59.38S45.45,60,38.65,61.9s-9.46,4-10,5.92S29.07,80,29.07,80s-2.59-12.16-.54-15.75c2.93-5.1,30.38-7.88,30.38-7.88Z"/><path class="cls-4" d="M8.84,94.54s3.78,33.4,9.7,56.84,8.64,36.33,18,41.66,20,6.24,27.61,6.55,9.58-.46,9.58-.46l-.76-6.41s-26,1.42-37.24-8.76S9.79,112.5,8.84,94.54Z"/><path class="cls-5" d="M54.09,42S34.55,43.21,22,47.37,8.56,54.94,7.52,62.4s.56,22.12.56,22.12S6.37,59.39,12.72,53.9s43-9.36,44-10.31S55.93,41.85,54.09,42Z"/><path class="cls-5" d="M28.88,93.66S33.54,151.38,40.47,164s29.87,9.58,29.87,9.58l.51,5.16s-26.59,2-32.52-12.47S27.74,97.06,27.74,91,28.88,93.66,28.88,93.66Z"/><path class="cls-9" d="M200.22,61.65s-7.07,91.5-8.55,103.85-14.13,19.16-14.1-2.27,7-101,9.71-108.77S202.37,47.28,200.22,61.65Z"/><path class="cls-10" d="M71.1,42.89S83.88,197.76,85.35,210.12s14.14,19.15,14.11-2.27S86.7,43.46,84,35.71,69,28.53,71.1,42.89Z"/><path class="cls-9" d="M187,191.05s-.76,17.21-2.27,22.59-12.95,8-11.81-7.18,1.32-20.32,2.83-23,8.89-4.16,10.49,0A13.62,13.62,0,0,1,187,191.05Z"/><polygon class="cls-11" points="101.85 36.15 109.04 221.7 111.18 221.7 104.25 36.15 101.85 36.15"/><rect class="cls-11" x="91.83" y="40.68" width="23.22" height="1.81"/><rect class="cls-11" x="91.83" y="53.53" width="23.22" height="1.81"/><rect class="cls-11" x="92.43" y="66.39" width="23.22" height="1.81"/><rect class="cls-11" x="93.09" y="79.24" width="23.22" height="1.81"/><rect class="cls-11" x="93.6" y="90.59" width="23.22" height="1.81"/><rect class="cls-11" x="94.1" y="101.93" width="23.22" height="1.81"/><rect class="cls-11" x="94.6" y="113.27" width="23.22" height="1.81"/><rect class="cls-11" x="95.1" y="124.62" width="23.22" height="1.81"/><rect class="cls-11" x="95.6" y="135.96" width="23.22" height="1.81"/><rect class="cls-11" x="96.1" y="147.3" width="23.22" height="1.81"/><rect class="cls-11" x="96.61" y="158.64" width="23.22" height="1.81"/><rect class="cls-11" x="97.11" y="169.99" width="23.22" height="1.81"/><rect class="cls-11" x="97.61" y="181.33" width="23.22" height="1.81"/><rect class="cls-11" x="98.11" y="192.67" width="23.22" height="1.81"/><rect class="cls-11" x="98.61" y="204.02" width="23.22" height="1.81"/><rect class="cls-11" x="99.11" y="215.36" width="23.22" height="1.81"/></g></g></svg>