<?xml version="1.0" encoding="utf-8"?>
<!-- Generator: Adobe Illustrator 25.2.3, SVG Export Plug-In . SVG Version: 6.00 Build 0)  -->
<svg version="1.1" id="Layer_1" xmlns="http://www.w3.org/2000/svg" xmlns:xlink="http://www.w3.org/1999/xlink" x="0px" y="0px"
	 viewBox="0 0 600 570" style="enable-background:new 0 0 600 570;" xml:space="preserve">
<style type="text/css">
	.st0{fill:#EFEFEF;}
	.st1{clip-path:url(#SVGID_2_);}
	.st2{opacity:0.29;fill:#932216;enable-background:new    ;}
	.st3{fill:none;stroke:#F4F2F2;stroke-width:0.5;stroke-miterlimit:10;}
	.st4{fill:none;}
	.st5{fill:url(#SVGID_3_);}
	.st6{fill:url(#SVGID_4_);}
	.st7{fill:#80E559;}
	.st8{opacity:0.5;fill:url(#SVGID_5_);enable-background:new    ;}
	.st9{fill:#EACE7D;}
	.st10{fill:#F2DAB1;}
	.st11{opacity:0.31;}
	.st12{fill:#5F8337;}
	.st13{opacity:0.5;fill:#5F8337;enable-background:new    ;}
	.st14{fill:#1C8E16;}
	.st15{fill:#2BB51C;}
	.st16{fill:#85B780;}
	.st17{fill:#76B7A4;}
	.st18{fill:#9B5334;}
	.st19{fill:#904E27;}
	.st20{fill:#CC773E;}
	.st21{fill:#7C3F29;}
	.st22{fill:#8C4D23;}
	.st23{fill:#723B17;}
	.st24{opacity:0.61;}
	.st25{fill:#666666;}
	.st26{fill:#E6E6E6;}
	.st27{fill:#1A1A1A;}
	.st28{fill:#308C1F;}
	.st29{fill:#1D7C15;}
	.st30{fill:#FBD3C7;stroke:#453323;stroke-width:0.5;stroke-miterlimit:10;}
	.st31{fill:#E4A68D;}
	.st32{fill:#E81E25;stroke:#A31E23;stroke-width:0.5;stroke-miterlimit:10;}
	.st33{fill:#C02126;}
	.st34{fill:#E56125;stroke:#A31E23;stroke-width:0.5;stroke-miterlimit:10;}
	.st35{fill:#911B1E;stroke:#A31E23;stroke-width:0.5;stroke-miterlimit:10;}
	.st36{fill:#F8E1DB;}
	.st37{fill:#BCD0EB;stroke:#453323;stroke-width:0.5;stroke-miterlimit:10;}
	.st38{fill:#3096D2;stroke:#2C3581;stroke-miterlimit:10;}
	.st39{fill:#864A30;stroke:#68321E;stroke-miterlimit:10;}
	.st40{fill:#3096D2;stroke:#2C3581;stroke-width:0.5;stroke-miterlimit:10;}
	.st41{fill:#2C3581;}
	.st42{fill:#F6E982;stroke:#453323;stroke-width:0.5;stroke-miterlimit:10;}
	.st43{fill:#2455A3;stroke:#2D2B7A;stroke-miterlimit:10;}
	.st44{fill:#7595CC;stroke:#453323;stroke-width:0.5;stroke-miterlimit:10;}
	.st45{fill:none;stroke:#453323;stroke-width:0.5;stroke-miterlimit:10;}
	.st46{fill:#D6E5F5;stroke:#395A72;stroke-width:0.5;stroke-miterlimit:10;}
	.st47{fill:#82CFF7;stroke:#5DA3C1;stroke-miterlimit:10;}
	.st48{fill:#B3E0F4;}
	.st49{fill:url(#SVGID_6_);}
	.st50{fill:#52A2E7;}
	.st51{fill:#3476B7;}
	.st52{opacity:0.35;fill:#4A97CC;enable-background:new    ;}
	.st53{fill:url(#SVGID_7_);}
	.st54{fill:url(#SVGID_8_);}
	.st55{fill:#D7FCFF;}
	.st56{fill:url(#SVGID_9_);}
	.st57{fill:#FBD3C7;}
	.st58{fill:#453323;}
	.st59{fill:#DB9D8E;}
	.st60{fill:#342517;}
	.st61{fill:#F9D1C6;}
	.st62{fill:#323232;}
	.st63{fill:#342516;}
	.st64{fill:#661E1B;}
	.st65{fill:#D26653;}
	.st66{fill:#FFFFFF;}
	.st67{fill:#F9988F;}
	.st68{fill:#F9F8F7;stroke:#7F430D;stroke-width:0.75;stroke-miterlimit:10;}
	.st69{fill:#FDEFEC;}
	.st70{fill:none;stroke:#206363;stroke-width:8;stroke-miterlimit:10;}
</style>
<path class="st0" d="M133,548.5h350c53.6,0,97-43.4,97-97v-333c-0.1-53.6-43.6-96.9-97.1-96.9c-2.9,0-5.8,0.1-8.7,0.4L108.1,55.5
	c-51.9,4.8-90.8,49.7-88,101.7l16,299.5C38.9,508.1,81.4,548.5,133,548.5z"/>
<g>
	<defs>
		<path id="SVGID_1_" d="M133,548.5h350c53.6,0,97-43.4,97-97v-333c-0.1-53.6-43.6-96.9-97.1-96.9c-2.9,0-5.8,0.1-8.7,0.4
			L108.1,55.5c-51.9,4.8-90.8,49.7-88,101.7l16,299.5C38.9,508.1,81.4,548.5,133,548.5z"/>
	</defs>
	<clipPath id="SVGID_2_">
		<use xlink:href="#SVGID_1_"  style="overflow:visible;"/>
	</clipPath>
	<g class="st1">
		<path class="st2" d="M432,204.4c0,0,111,29.7,159.3,58.5S703.5,315,703.5,315l-164.9-1L432,204.4z"/>
		<line class="st3" x1="564" y1="394.7" x2="628.3" y2="394.7"/>
		<line class="st3" x1="563.4" y1="395.9" x2="627.7" y2="395.9"/>
		<line class="st3" x1="562.8" y1="397.1" x2="627" y2="397.1"/>
		<line class="st3" x1="562.8" y1="398.3" x2="627" y2="398.3"/>
		<line class="st3" x1="562.2" y1="399.6" x2="626.4" y2="399.6"/>
		<line class="st3" x1="561.6" y1="400.8" x2="625.8" y2="400.8"/>
		<line class="st3" x1="561.6" y1="402" x2="625.8" y2="402"/>
		<line class="st3" x1="560.9" y1="403.3" x2="625.2" y2="403.3"/>
		<line class="st4" x1="534.5" y1="351.7" x2="665.5" y2="350.6"/>
		
			<linearGradient id="SVGID_3_" gradientUnits="userSpaceOnUse" x1="214.3786" y1="-128.5897" x2="367.4286" y2="628.0103" gradientTransform="matrix(1 0 0 -1 0 572)">
			<stop  offset="0.2" style="stop-color:#C5F7FD"/>
			<stop  offset="0.34" style="stop-color:#B3F0FD"/>
			<stop  offset="0.66" style="stop-color:#8EE1FD"/>
			<stop  offset="0.83" style="stop-color:#80DBFD"/>
		</linearGradient>
		<rect x="-181.7" y="-1" class="st5" width="1000.9" height="371.5"/>
		
			<linearGradient id="SVGID_4_" gradientUnits="userSpaceOnUse" x1="22.2991" y1="465.7709" x2="50.3391" y2="493.8309" gradientTransform="matrix(1 0 0 -1 0 572)">
			<stop  offset="0.17" style="stop-color:#83DCFD"/>
			<stop  offset="0.9" style="stop-color:#D7EEF4"/>
		</linearGradient>
		<path class="st6" d="M21.9,90.3c0,0,0.5-4.1,7.6-7s13.1-4.3,19.2-1.1s4.9,10.7,3.5,11.6c-2.5,1.7-8,3.9-22.6,1.7
			C21,94.3,21.9,90.3,21.9,90.3z"/>
		<polygon class="st7" points="-173.8,419.4 839.4,398.1 839.4,594.2 -173.8,594.2 		"/>
		
			<linearGradient id="SVGID_5_" gradientUnits="userSpaceOnUse" x1="61.87" y1="162.14" x2="61.87" y2="181.42" gradientTransform="matrix(1 0 0 -1 0 572)">
			<stop  offset="0" style="stop-color:#09170A"/>
			<stop  offset="0.58" style="stop-color:#2D550C"/>
			<stop  offset="1" style="stop-color:#16623E"/>
		</linearGradient>
		<path class="st8" d="M-157.8,396.5c16.9,0.2,33.7,1.2,50.6,1.3c20.9,0.2,41.6-1.3,62.5-0.7c11.8,0.4,23.6,0.8,35.4,1
			c10.7,0.2,21.4,0.1,32,0.6c21.9,1,43.1,3.4,64.7,5c45.9,3.4,92.6,3.8,139.2,4.5c16.8,0.3,33.1,0.1,49.7-0.5c3-0.4,6.1-0.7,9.2-0.8
			c5.2-0.3,10.4-0.4,15.6-0.4c-2.9-0.1-5.4-0.1-7.3-0.1c-17.6,0-55.9,1.5-76.4,0.7s-29.4,0-58.8-1.1s-63.7-4-84.3-4.8
			s-44.1-3.7-62.7-4s-33.3,0.7-59.8-0.7s-50.9,1.1-78.4-0.4c-18.6-1-38.5-2-50.9-2.5v3C-170.9,396.4-164.1,396.4-157.8,396.5z"/>
		<path class="st9" d="M627.8,268.1c-32.8,8.5-66.6,22.3-99.7,24.5c-43.4,2.9-86.3,12.9-129.8,15.3c-44.6,2.4-87.7,1.9-132.2-3.3
			c-38.5-4.5-77.1-0.4-115.7-4.8c-39.5-4.5-78.3-19.9-117.8-24c-28.4-2.8-56.6-7.3-84.4-13.2c-23.3-5-45.7-18-68.9-22.9
			c-22-4.7-45-12.9-67.2-13.7V680h997.6V203.9c-28.5,8.8-56.1,19.9-82.8,33.3C694.8,253.2,660.7,259.6,627.8,268.1z"/>
		<path class="st10" d="M745.8,341c-3.5,2.3-7,4.7-10.6,6.9c-14.3,9.2-29.8,16.6-46,21.8c-34.2,10.8-72.1,11-105.2,24.6
			c20,2.8,40.5,1.4,60.6-0.2c14-1.2,28.1-2,42.1-3.1c10.9-0.9,21.8-1.9,32.7-2c8.1-0.1,19.5-0.5,26.4,3.9c5.5,3.6,3.6,9.1-0.1,13.3
			c-6,6.6-14.8,11.4-23.1,15.4c-11.2,5.4-22.9,9.9-34.8,13.4c-11.4,3.3-23.3,6-35.3,6.8c-8,0.5-17.6,0.5-24.2-3.9
			c-0.3-0.1-0.4-0.5-0.3-0.8c0-0.1,0.1-0.2,0.2-0.2c7.4-7.7,21.7-7.7,28-16.2c-15.6-5.5-34.3-2.5-50.5-1.1
			c-20.4,1.7-40.9,4-61.3,4.5c-43.5,1.2-86.3-9.5-129.8-8.7c-22.6,0.4-45.3,1.3-67.9,1.6c-22.4,0.2-44.8,0.2-67.3-0.4
			c-16.5-0.5-33.1-0.2-49.6-1.2c-14.5-0.9-30.5-2.6-42.5-10.4c-0.3-0.1-0.4-0.5-0.3-0.8c0.1-0.2,0.3-0.3,0.4-0.3
			c1.4-0.4,2.7-0.7,4.1-0.9c9.5-1.5,19.2-0.4,28.7,0c10.8,0.4,21.7-0.7,32.4-1.8c10.9-1.1,21.8-2.4,32.8-3.1
			c5.2-0.3,10.5-0.5,15.7-0.5c-9.1-0.5-18.3-1.1-27.5-2c-38.5-3.3-77.2-0.3-115.7-3.6c-39.5-3.4-78.4-14.9-117.9-17.9
			c-28.5-2.2-56.2-5.4-84.5-9.9c-23.4-3.7-45.7-13.4-68.9-17.1c-22-3.5-45-9.6-67.2-10.2v8c4.5,0.3,9,0.8,13.6,1.3
			c42.7,5.3,83.5,18.3,124.9,28.2c10.3,2.5,20.7,4.8,31.3,6.4c9.9,1.4,19.8,2.3,29.8,2.6c16.3,0.7,34.2,1.5,48.4,9.3
			c0.3,0.2,0.4,0.5,0.2,0.8c-0.1,0.1-0.1,0.2-0.2,0.2c-8.4,3.7-17.8,5-27,5.5c-17.5,0.9-35.1-0.8-52.7-0.8c-20,0-39.5,4.1-58.9,8
			c-10.9,2.2-21.8,4.9-32.8,6.6c-7.1,1.1-14.3,1.6-21.5,2.6c-7.7,1-15.8,2.3-22.8,5.6c-1.9,0.8-3.6,1.9-5.3,3.1
			c-1.4,1.1-1.5,1.1-0.2,2.4c1.5,1.5,3.3,2.8,5.2,3.8c10.5,5.3,23.8,6.1,35.7,6.6c13.2,0.5,26.4,0.1,39.6,0
			c11.6-0.1,23.2,1,34.8,1.3c14.1,0.4,31,0.2,43.2,7.3c0.3,0.1,0.4,0.5,0.3,0.7c0,0,0,0.1,0,0.1c-3.2,5.2-8.1,6-14.4,6.5
			c-5.7,0.5-11.3,1.9-16.9,2.7c-4.8,0.7-9.7,1.3-14.6,1.9c-11,1.2-22.1,2-33.2,2.8c-22.6,1.6-44.8,4.2-67.3,7.4
			c-13,1.8-26,3.5-39.2,4.6v203.8h997.7V320.2C793.1,325.8,769.2,332.7,745.8,341z"/>
		<g class="st11">
			<path class="st12" d="M824,491.4c-9.5,2.7-19.8,5.5-27.9,9.9c-1.8,1-4.9,2.6-4.6,4.5c0.5,3.2,6.7,5.6,10.3,7.2
				c7.5,3.3,20.9,8.2,17.3,15.6c-1.9,3.8-7.6,5.5-13,6.4c-8.3,1.4-16.8,2.4-25.2,3.4c-43.7,5.4-88.3,5.8-132.6,5.8h-68.9
				c-10.1,0-20.2,0.2-30.3,0c-8.6-0.2-17.3-0.7-25.2-3.2c-0.5-0.2-0.4-0.7,0-0.8c24.5-9,54.2-9.7,81.5-10.4c9-0.2,18-0.3,27-0.6
				c10.2-0.3,20.3-1.1,30.5-1.7c11.4-0.7,22.8-1.3,34.3-2c10.5-0.7,21-1.6,31.5-2c8-0.3,17-0.3,24.3-2.8c2-0.6,3.9-1.5,5.6-2.6
				c1.9-1.3,1.4-2-1.2-2.5c-3.6-0.7-7.4-0.9-11.1-0.6c-7.9,0.4-15.6,1.6-23.5,2.1c-11.5,0.8-23,1.2-34.6,1.2
				c-23.1,0-46.2-1-69.3-1.1c-20.9-0.1-41.9,0.2-62.8,0.7c-11.8,0.8-23.6,1.9-35.2,3.7c-11,1.7-21.7,4.1-32.6,5.9
				c-10.5,1.7-21.1,3.2-31.8,4.1c-21.3,1.8-43.2,1.5-64.6,0.7c-16.3-0.6-32.5-1.8-48.4-4.1c-46-1.8-92.1-5-138-1.9
				c18.1,4.2,37.5,5.7,56.6,6.6c18.1,0.9,36.3,1.7,54.5,2c17.8,0.3,35.7-0.1,53.5,0.7c16.1,0.8,32.7,2.4,46.9,7.8
				c0.5,0.2,0.4,0.6,0,0.8c-10.3,5-24.7,5.7-37,6c-14.8,0.3-29.6-0.4-44.3-1.1c-18.8-0.8-37.7-0.7-56.6-0.9
				c-22.1-0.2-44.1-0.5-66.2-1.2c-23.3-0.7-46.4-2.2-69.6-4c-22.9-1.8-45.8-3.4-68.8-3.7s-45.9,0-68.8-0.4
				c-9.7-0.1-19.4-0.1-29.1-0.3c-7.2-0.2-14.8-0.8-20.6-3.9c-0.2-0.1-0.3-0.3-0.2-0.5c0-0.1,0.1-0.1,0.2-0.2
				c7.9-5.4,20.7-6.7,31.4-7.4c14.8-1,29.8-0.6,44.6-0.4c18,0.3,35.9,0.1,53.8,0.3c11.7,0.1,23.4,0.1,35.2,0
				c8.9-0.1,17.7-0.4,26.6-0.2c8,0.2,16,0.6,24,0.3c7.4-0.3,15.3-1.1,21.4-4.1c-25-5.2-51-7.3-77.1-8.3s-51.9-1.4-77.8-2.7
				c-23.5-1.1-46.8-3.9-70.3-4.6c-11-0.3-22,0.5-33,0.8c-13.3,0.4-26.8,0.8-40-0.3c-7-0.6-17.9-1.5-21-6.6c-0.1-0.2,0-0.4,0.2-0.5
				c13.7-7.3,34-8,50.8-9.1c23.5-1.6,46.5-5.1,70-6.9c10.1-0.8,19.8-1.6,29.2-4.5c7.5-2.3,14.4-4.9,22.5-6.3s17.9-2.2,24.4-6
				c1-0.6,0.8-0.5-0.3-1.1c-0.7-0.4-1.4-0.7-2.1-1.1c-1.2-0.6-2.4-1-3.7-1.4c-2.9-0.8-5.9-1.4-8.9-1.7c-14.3-1.5-28.8,0.5-43.1,0.9
				c-12.3,0.3-25.8-0.2-34.9-6.4c-0.3-0.3-0.2-0.6,0.1-0.8c7.5-3.6,17.1-4.9,26-5.9c10-1.1,20.1-1.6,30.2-2.4
				c9.3-0.7,18.5-1.6,27.9-2.3c11.2-0.8,22.4-1.6,33.4-3.3c8.1-1.2,16.2-2.9,23.4-5.7c4.8-1.9,13.7-5.6,13.2-10.1
				c-0.1-0.7-0.3-1.3-0.7-1.8c-27.2-3.7-54.4-8.3-81.8-9.9c-29.5-1.7-58.1-4.2-87.4-7.8c-24.2-2.9-47.3-10.6-71.3-13.5
				c-22.8-2.8-46.6-7.6-69.6-8v6.3c4.7,0.3,9.4,0.6,14,1c44.2,4.1,86.4,14.4,129.3,22.2c10.7,2,21.4,3.8,32.3,5
				c10.3,1.2,20.5,1.7,30.8,2c16.8,0.5,35.4,1.2,50.1,7.3c0.4,0.2,0.5,0.6,0,0.8c-8.6,2.9-18.4,3.9-28,4.3
				c-18.2,0.7-36.3-0.7-54.5-0.7c-20.7,0-40.9,3.3-60.9,6.3c-11.3,1.8-22.6,3.9-34,5.2c-7.4,0.9-14.8,1.3-22.3,2
				c-8,0.8-16.4,1.8-23.5,4.4c-1.9,0.6-3.7,1.4-5.5,2.4c-1.4,0.9-1.6,0.9-0.2,1.9c1.7,1.2,3.5,2.3,5.4,3c10.8,4.2,24.7,4.9,36.9,5.2
				c13.7,0.4,27.3,0.1,41,0c12-0.1,24,0.8,36,1c14.6,0.3,32.1,0.1,44.7,5.8c0.3,0.2,0.4,0.4,0.3,0.6c-3.3,4.1-8.4,4.7-14.9,5.1
				c-5.9,0.4-11.7,1.5-17.5,2.1c-5,0.6-10.1,1-15.1,1.5c-11.4,1-22.9,1.6-34.4,2.2c-23.4,1.3-46.4,3.4-69.6,5.8
				c-13.5,1.4-26.9,2.8-40.5,3.6v160.5H853.7v-169C843.7,486.1,833.8,488.6,824,491.4z"/>
		</g>
		<path class="st13" d="M343.4,424.1c-1.1,0-2.6,0-4,0.1c-2.8,0.1-5.4,0.4-6,1.1c-0.1,0.1,0,0.1,0.1,0.2c2.8,1.2,8.3,0.9,12.1,0.7
			c1.4-0.1,9.1-0.2,8.6-1.3S345.6,424.1,343.4,424.1z"/>
		<path class="st13" d="M389.2,419.8c-0.9-0.9-6.6-0.5-8.4-0.5c-0.8,0-2.6,0-4,0.1l-1.2,0c-0.8,0-3.3,0.5-2,0.9
			c1.9,0.4,3.9,0.6,5.8,0.5c2,0,4-0.1,5.9-0.2c1.2,0,2.3-0.2,3.4-0.4C389.1,420.1,389.4,419.9,389.2,419.8z"/>
		<path class="st13" d="M74.4,457c-1.1,0-2.6,0-4,0.1c-2.8,0.1-5.4,0.4-6,1.1c-0.1,0.1-0.1,0.2,0.1,0.2c2.8,1.2,8.3,0.9,12.1,0.7
			c1.4-0.1,9.1-0.2,8.7-1.3S76.6,457,74.4,457z"/>
		<path class="st13" d="M120.5,460.5c-0.9-0.9-6.6-0.5-8.4-0.5c-0.8,0-2.5,0-4,0.1l-1.3,0.1c-0.8,0-3.3,0.5-2,0.9
			c1.9,0.4,3.9,0.6,5.8,0.5c2,0,4-0.1,5.9-0.2c1.1,0,2.3-0.2,3.4-0.4C120.4,460.9,120.7,460.7,120.5,460.5z"/>
		<path class="st13" d="M368.2,463.7c-0.8,0-1.8,0-2.8,0.1c-2,0.1-3.8,0.3-4.2,0.8c0,0,0,0.1,0.1,0.1c1.9,0.9,5.8,0.6,8.5,0.5
			c1,0,6.4-0.1,6-0.9S369.8,463.6,368.2,463.7z"/>
		<path class="st13" d="M400.4,466.1c-0.6-0.6-4.6-0.4-5.9-0.3c-0.5,0-1.8,0-2.8,0.1h-0.9c-0.6,0-2.3,0.3-1.4,0.6
			c1.3,0.3,2.7,0.4,4.1,0.3c1.4,0,2.8,0,4.1-0.1c0.8,0,1.6-0.1,2.4-0.3C400.3,466.4,400.5,466.2,400.4,466.1z"/>
		<path class="st13" d="M539.7,467.7c0,1.1-16,2-35.6,2s-35.6-0.9-35.6-2s15.9-2.1,35.6-2.1S539.7,466.6,539.7,467.7z"/>
		<path class="st14" d="M-179.2,358.6c0,0,9.2,1.8,4.4,9c25.6-7.9,40.5-0.7,39.2,8.8c26.3-1.6,33.5,15.4,23.4,19.2
			c0,0,21.8-7.5,42.1,2.9c20.2-9.1,68.3,4,80.7,10.8l-187.3,0.4L-179.2,358.6z"/>
		<path class="st15" d="M589.6,442.1c0,0,4.5-3.4,13.2-4.2s-9.3-4.5-15.8,4.2C587,442.1,584.1,446,589.6,442.1z"/>
		<path class="st15" d="M577.4,442.6c0,0,13.2-10.9,20.9-13.8s-7.4-3.1-17.7,5.9C580.6,434.8,575.4,440.2,577.4,442.6z"/>
		<path class="st15" d="M573.5,442.6c0,0,8.8-17.6,12.7-19.8s-6.3-3.4-12.7,11C573.5,433.8,570.9,441.4,573.5,442.6z"/>
		<path class="st15" d="M568.8,442.6c0,0,3.4-16.2,6.6-18.6S563.2,426.7,568.8,442.6z"/>
		<path class="st15" d="M566.9,442.6c0,0,0.2-13.5-6.8-15.5S564.2,435.9,566.9,442.6z"/>
		<path class="st15" d="M564.7,442.6c0,0-5.6-5.5-16.2-5.9S558.1,432.5,564.7,442.6z"/>
		<path class="st15" d="M563.7,442.6c-4.1-4-9.6-6.1-15.3-5.8C538.8,437.3,561.4,440.7,563.7,442.6z"/>
		<path class="st16" d="M-181.4,299.9c120.6,5,186.7,5.3,250.9,6.9c220.1,5.5,214.9-4.6,337.3,2.3c80,4.5,209.6-7.2,289.4-1.2
			c14.6,1.1,46.6,3.7,113.4,2.5c6.5-0.1,5.6,9,7.1,1.9c3.4-16,2.9-0.3,2.9,1.2c-0.4,8.4-3.1,2.8-2.5,6.7l-992.9,0.6L-181.4,299.9z"
			/>
		<path class="st17" d="M-202.2,228.6c-0.6-7.4-17.8-13.4-6.1-19c21.6-10.4,68.8-13.5,125.2-6.8c104.5,12.6,149.2-7.3,249.4,7.8
			c18,2.7,32.1,4.7,59.2,3.3c34.9-1.9,9.9,5.5,88.6-4.3c18-2.3,36.2-1.4,53.9,2.4c38.5,8.4,83.6-1.2,119,2.4
			c15.6,1.6,122.5-10.7,131.4-11.7c195.2-20.3,193.1,16.3,192.9,18.3c0,0,10.6,1,21.4,1.4h0.1l-9.7,60.2h-983.7L-202.2,228.6z"/>
		<polygon class="st18" points="-176.8,255.2 -176.8,310.9 291.2,310.9 291.2,258.1 		"/>
		<rect x="-176.8" y="250.6" class="st19" width="468" height="8.6"/>
		<rect x="-176.8" y="246.3" class="st20" width="468" height="8.6"/>
		<rect x="4.6" y="288" class="st21" width="8.8" height="4.8"/>
		<rect x="8.9" y="293.9" class="st21" width="8.7" height="4.8"/>
		<rect x="91.9" y="269.9" class="st21" width="8.8" height="4.8"/>
		<rect x="96.3" y="275.9" class="st21" width="8.8" height="4.8"/>
		<rect x="179.8" y="272.3" class="st21" width="8.8" height="4.8"/>
		<rect x="184.2" y="278.3" class="st21" width="8.8" height="4.8"/>
		<rect x="129.2" y="282.6" class="st21" width="8.8" height="4.8"/>
		<rect x="133.6" y="288.5" class="st21" width="8.8" height="4.8"/>
		<rect x="263.6" y="272.3" class="st21" width="8.8" height="4.8"/>
		<rect x="267.9" y="278.3" class="st21" width="8.8" height="4.8"/>
		<polygon class="st18" points="819.3,253.8 819.3,310.4 283.8,308.4 283.8,256.6 		"/>
		<rect x="283.7" y="253.8" class="st22" width="535.5" height="4.9"/>
		<rect x="291.2" y="245.2" class="st20" width="528.1" height="9.6"/>
		<rect x="596.7" y="291.7" class="st23" width="10" height="4.7"/>
		<rect x="501.7" y="268.1" class="st23" width="10" height="4.7"/>
		<rect x="496.7" y="274" class="st23" width="10" height="4.7"/>
		<rect x="401.1" y="270.5" class="st23" width="10" height="4.7"/>
		<rect x="396.1" y="276.4" class="st23" width="10" height="4.7"/>
		<rect x="459.1" y="280.6" class="st23" width="10" height="4.7"/>
		<rect x="454.1" y="286.5" class="st23" width="10" height="4.7"/>
		<rect x="305.3" y="270.5" class="st23" width="10" height="4.7"/>
		<rect x="300.3" y="276.4" class="st23" width="10" height="4.7"/>
		<g class="st24">
			<path class="st25" d="M130.1,232.7h-6.4v-2.9c0.6-0.3,0.9-0.9,0.9-1.5c0-1-0.8-1.9-1.9-1.9s-1.9,0.8-1.9,1.9l0,0
				c0,0.6,0.4,1.2,0.9,1.5v2.9H67.8v-2.9c0.6-0.3,0.9-0.9,0.9-1.5c0-1-0.8-1.9-1.9-1.9s-1.9,0.8-1.9,1.9l0,0c0,0.6,0.4,1.2,0.9,1.5
				v2.9H12.1v-2.9c0.6-0.3,0.9-0.9,0.9-1.5c0-1-0.8-1.9-1.9-1.9s-1.9,0.8-1.9,1.9l0,0c0,0.6,0.4,1.2,0.9,1.5v2.9h-53.9v-2.9
				c0.6-0.3,0.9-0.9,0.9-1.5c0-1-0.9-1.8-1.9-1.8c0,0,0,0,0,0c-1,0-1.8,0.8-1.9,1.8c0,0,0,0,0,0c0,0.6,0.4,1.2,0.9,1.5v2.9h-53.9
				v-2.9c0.6-0.3,0.9-0.9,0.9-1.5c0-1-0.9-1.8-1.9-1.8c-1,0-1.8,0.8-1.9,1.8c0,0,0,0,0,0c0,0.6,0.4,1.2,0.9,1.5v2.9h-53.9v-2.9
				c0.6-0.3,0.9-0.9,0.9-1.5c0-1-0.9-1.8-1.9-1.8c0,0,0,0,0,0c-1,0-1.8,0.8-1.9,1.8c0,0,0,0,0,0c0,0.6,0.4,1.2,0.9,1.5v2.9h-53.9
				v-2.9c0.6-0.3,0.9-0.9,0.9-1.5c0-1-0.9-1.8-1.9-1.8c0,0,0,0,0,0c-1,0-1.8,0.8-1.9,1.8c0,0.6,0.4,1.2,0.9,1.5v2.9h-36.3v2.6h36.3
				v11.4h1.9v-11.4h53.9v11.4h1.9v-11.4h53.9v11.4h1.9v-11.4h53.9v11.4h1.9v-11.4h53.9v11.4h1.9v-11.4H66v11.4h1.9v-11.4h53.9v11.4
				h1.9v-11.4h6.4L130.1,232.7z"/>
			<path class="st26" d="M9.9,228.4c0.8,0.7,2.2-0.6,1.5-1.3S9.1,227.7,9.9,228.4z"/>
			<path class="st27" d="M-42.8,234.4v-1.8h-0.9v-2.9c0.6-0.3,0.9-0.9,0.9-1.5c0-0.7-0.4-1.3-1.1-1.6c0.1,0.2,0.2,0.5,0.2,0.7
				c0,1-0.9,1.8-1.9,1.8c0,0,0,0,0,0c-0.3,0-0.5-0.1-0.8-0.2c0.3,0.6,1,1,1.7,1c0.1,0,0.2,0,0.4,0v16.7h0.6v-11.4h53.9v-0.9H-42.8z"
				/>
			<path class="st27" d="M13,234.4v-1.8h-0.9v-2.9c0.8-0.4,1.2-1.5,0.7-2.3c-0.2-0.4-0.5-0.7-0.9-0.8c0.1,0.2,0.2,0.5,0.2,0.7
				c0,1-0.9,1.8-1.9,1.8c-0.3,0-0.5-0.1-0.8-0.2c0.3,0.6,1,1,1.7,1c0.1,0,0.2,0,0.4,0v16.7h0.6v-11.4H66v-0.9H13z"/>
			<path class="st27" d="M68.8,232.7h-0.9v-2.9c0.6-0.3,0.9-0.9,0.9-1.5c0-0.7-0.4-1.3-1.1-1.6c0.1,0.2,0.2,0.5,0.2,0.7
				c0,1-0.9,1.8-1.9,1.8c-0.3,0-0.5-0.1-0.8-0.2c0.3,0.6,1,1,1.7,1c0.1,0,0.3,0,0.4,0v16.7h0.6v-11.4h53.9v-0.9h-53L68.8,232.7z"/>
		</g>
		<g class="st24">
			<path class="st25" d="M503.2,232.7h-6.4v-2.9c0.6-0.3,0.9-0.9,0.9-1.5c0-1-0.8-1.9-1.9-1.9c-1,0-1.9,0.8-1.9,1.9l0,0
				c0,0.6,0.4,1.2,0.9,1.5v2.9H441v-2.9c0.6-0.3,0.9-0.9,0.9-1.5c0-1-0.8-1.9-1.9-1.9c-1,0-1.9,0.8-1.9,1.9l0,0
				c0,0.6,0.4,1.2,0.9,1.5v2.9h-54v-2.9c0.6-0.3,0.9-0.9,0.9-1.5c0-1-0.8-1.9-1.9-1.9c-1,0-1.9,0.8-1.9,1.9l0,0
				c0,0.6,0.4,1.2,0.9,1.5v2.9h-53.9v-2.9c0.6-0.3,0.9-0.9,0.9-1.5c0-1-0.8-1.9-1.9-1.9c-1,0-1.9,0.8-1.9,1.9l0,0
				c0,0.6,0.4,1.2,0.9,1.5v2.9h-53.9v-2.9c0.6-0.3,0.9-0.9,0.9-1.5c0-1-0.8-1.9-1.9-1.9c-1,0-1.9,0.8-1.9,1.9l0,0
				c0,0.6,0.4,1.2,0.9,1.5v2.9h-53.9v-2.9c0.6-0.3,0.9-0.9,0.9-1.5c0-1-0.8-1.9-1.9-1.9s-1.9,0.8-1.9,1.9l0,0c0,0.6,0.4,1.2,0.9,1.5
				v2.9H162v-2.9c0.6-0.3,0.9-0.9,0.9-1.5c0-1-0.8-1.9-1.9-1.9s-1.9,0.8-1.9,1.9l0,0c0,0.6,0.4,1.2,0.9,1.5v2.9h-36.3v2.6h36.3v11.4
				h1.9v-11.4h53.9v11.4h1.9v-11.4h53.9v11.4h1.9v-11.4h53.9v11.4h1.9v-11.4h53.9v11.4h1.9v-11.4h53.9v11.4h1.9v-11.4h53.9v11.4h1.9
				v-11.4h6.4L503.2,232.7z"/>
			<path class="st26" d="M271.4,228.4c0.8,0.7,2.2-0.6,1.5-1.3S270.6,227.7,271.4,228.4z"/>
			<path class="st26" d="M327.2,228.4c0.8,0.7,2.2-0.6,1.5-1.3S326.4,227.7,327.2,228.4z"/>
			<path class="st26" d="M383,228.4c0.8,0.7,2.2-0.6,1.5-1.3S382.2,227.7,383,228.4z"/>
			<path class="st26" d="M215.6,228.4c0.8,0.7,2.2-0.6,1.5-1.3S214.8,227.7,215.6,228.4z"/>
			<path class="st27" d="M162.9,232.7H162v-2.9c0.6-0.3,0.9-0.9,0.9-1.5c0-0.7-0.4-1.3-1.1-1.6c0.1,0.2,0.2,0.5,0.2,0.7
				c0,1-0.9,1.8-1.9,1.8c0,0,0,0,0,0c-0.3,0-0.5-0.1-0.8-0.2c0.3,0.6,1,1,1.7,1c0.1,0,0.2,0,0.4,0v16.7h0.6v-11.4h53.9v-0.9h-53
				L162.9,232.7z"/>
			<path class="st27" d="M274.5,234.4v-1.8h-0.9v-2.9c0.6-0.3,0.9-0.9,0.9-1.5c0-0.7-0.4-1.3-1.1-1.6c0.1,0.2,0.2,0.5,0.2,0.7
				c0,1-0.9,1.8-1.9,1.8c0,0,0,0,0,0c-0.3,0-0.5-0.1-0.7-0.2c0.3,0.6,1,1,1.7,1c0.1,0,0.3,0,0.4,0v16.7h0.5v-11.4h53.9v-0.9H274.5z"
				/>
			<path class="st27" d="M330.3,234.4v-1.8h-0.9v-2.9c0.6-0.3,0.9-0.9,0.9-1.5c0-0.7-0.4-1.3-1.1-1.6c0.1,0.2,0.2,0.5,0.2,0.7
				c0,1-0.9,1.8-1.9,1.8c0,0,0,0,0,0c-0.3,0-0.5-0.1-0.8-0.2c0.3,0.6,1,1,1.7,1c0.1,0,0.2,0,0.4,0v16.7h0.6v-11.4h53.9v-0.9H330.3z"
				/>
			<path class="st27" d="M386.1,234.4v-1.8h-0.9v-2.9c0.8-0.4,1.2-1.5,0.7-2.3c-0.2-0.4-0.5-0.7-0.9-0.8c0.1,0.2,0.2,0.5,0.2,0.7
				c0,1-0.9,1.8-1.9,1.8c-0.3,0-0.5-0.1-0.8-0.2c0.3,0.6,1,1,1.7,1c0.1,0,0.2,0,0.4,0v16.7h0.6v-11.4h53.9v-0.9H386.1z"/>
			<path class="st27" d="M441.9,232.7H441v-2.9c0.6-0.3,0.9-0.9,0.9-1.5c0-0.7-0.4-1.3-1.1-1.6c0.1,0.2,0.2,0.5,0.2,0.7
				c0,1-0.9,1.8-1.9,1.8c0,0,0,0,0,0c-0.3,0-0.5-0.1-0.8-0.2c0.3,0.6,1,1,1.7,1c0.1,0,0.2,0,0.4,0v16.7h0.6v-11.4h53.9v-0.9h-53
				L441.9,232.7z"/>
			<path class="st27" d="M218.7,234.4v-1.8h-0.9v-2.9c0.8-0.4,1.2-1.5,0.7-2.3c-0.2-0.4-0.5-0.7-0.9-0.8c0.1,0.2,0.2,0.5,0.2,0.7
				c0,1-0.9,1.8-1.9,1.8c0,0,0,0,0,0c-0.3,0-0.5-0.1-0.8-0.2c0.3,0.6,1,1,1.7,1c0.1,0,0.2,0,0.4,0v16.7h0.6v-11.4h53.9v-0.9H218.7z"
				/>
		</g>
		<g class="st24">
			<path class="st25" d="M876.3,232.7h-6.4v-2.9c0.6-0.3,0.9-0.9,0.9-1.5c0-1-0.8-1.9-1.9-1.9c-1,0-1.8,0.8-1.9,1.9
				c0,0.6,0.4,1.2,0.9,1.5v2.9h-53.9v-2.9c0.6-0.3,0.9-0.9,0.9-1.5c0-1-0.8-1.9-1.9-1.9c-1,0-1.8,0.8-1.9,1.9c0,0.6,0.4,1.2,0.9,1.5
				v2.9h-53.9v-2.9c0.6-0.3,0.9-0.9,0.9-1.5c0-1-0.8-1.9-1.9-1.9c-1,0-1.8,0.8-1.9,1.9c0,0.6,0.4,1.2,0.9,1.5v2.9h-53.9v-2.9
				c0.6-0.3,0.9-0.9,0.9-1.5c0-1-0.8-1.9-1.9-1.9c-1,0-1.8,0.8-1.9,1.9c0,0.6,0.4,1.2,0.9,1.5v2.9h-53.9v-2.9
				c0.6-0.3,0.9-0.9,0.9-1.5c0-1-0.8-1.9-1.9-1.9c-1,0-1.8,0.8-1.9,1.9c0,0.6,0.4,1.2,0.9,1.5v2.9h-53.9v-2.9
				c0.6-0.3,0.9-0.9,0.9-1.5c0-1-0.8-1.9-1.9-1.9c-1,0-1.8,0.8-1.9,1.9c0,0.6,0.4,1.2,0.9,1.5v2.9h-53.9v-2.9
				c0.6-0.3,0.9-0.9,0.9-1.5c0-1-0.8-1.9-1.9-1.9c-1,0-1.8,0.8-1.9,1.9c0,0.6,0.4,1.2,0.9,1.5v2.9H497v2.6h36.3v11.4h1.9v-11.4h53.9
				v11.4h1.9v-11.4h53.9v11.4h1.9v-11.4h53.9v11.4h1.9v-11.4h53.9v11.4h1.9v-11.4h53.9v11.4h1.9v-11.4H868v11.4h1.9v-11.4h6.4
				L876.3,232.7z"/>
			<path class="st26" d="M588.7,228.4c0.8,0.7,2.2-0.6,1.5-1.3S587.9,227.7,588.7,228.4z"/>
			<path class="st27" d="M536,232.7h-0.9v-2.9c0.6-0.3,0.9-0.9,0.9-1.5c0-0.7-0.4-1.3-1.1-1.6c0.1,0.2,0.2,0.5,0.2,0.7
				c0,1-0.9,1.8-1.9,1.8c0,0,0,0,0,0c-0.3,0-0.5-0.1-0.8-0.2c0.3,0.6,1,1,1.7,1c0.1,0,0.2,0,0.4,0v16.7h0.6v-11.4H589v-0.9h-53
				V232.7z"/>
			<path class="st27" d="M591.8,234.4v-1.8h-0.9v-2.9c0.8-0.4,1.2-1.5,0.7-2.3c-0.2-0.4-0.5-0.7-0.9-0.8c0.1,0.2,0.2,0.5,0.2,0.7
				c0,1-0.9,1.8-1.9,1.8c-0.3,0-0.5-0.1-0.8-0.2c0.3,0.6,1,1,1.7,1c0.1,0,0.2,0,0.4,0v16.7h0.6v-11.4h53.9v-0.9H591.8z"/>
		</g>
		<path class="st16" d="M152.2,318.5h129.8c0.4-1.1,0.1-2.4-0.8-3.2c-3.3-3.6-11.6-3.1-11.6-3.1s8.3-4.3,3.2-7.1s-12.1-0.4-12.1-0.4
			s6.9-5.4-0.7-8.1c-0.3-0.1-0.6-0.2-1-0.3c-3.8-1.2-8-0.8-11.5,1.1c0,0-1.2-2.9-5.5-3.6c-2.7-0.5-5.5,0.1-7.7,1.7
			c0,0-2.2-4.1-9.9-3.8c-10.6,0.3-11.2,4.5-11.2,4.5c-2.2-1.9-5.1-2.9-8-2.7c-3.9,0.4-3.8,3.6-3.8,3.6s-4-5.3-16.7-3.7h-0.3
			c-12.9,1.7-9.4,7.9-9.4,7.9s-5.8-1.8-10.1-0.5c-0.7,0.2-1.4,0.5-2,0.9c-4.1,2.7,0.4,6,0.6,6.2c-0.3,0-7.9-0.9-10.9,2.8
			C150.1,313.6,150.5,316.4,152.2,318.5z"/>
		<path class="st16" d="M367,319.3h329.8v-17.7c-5.7-3.3-24.3-5.2-34.9-2.9c0,0,3.3-6.4-20.8-9.4s-41.5,2-41.5,2s-7.9-7.7-37.9-3.7
			c-9.6-4.4-34.3-4-36.9,1.6c0,0-18.6-7.1-47-5.4s-28.8,8.6-28.8,8.6s-0.8-0.1-2.2-0.4c-5.9-0.9-23.1-2.3-38.9,0.8
			c-18.1,3.5-17.7,6.9-16.1,9.6c0.4,0.6,0.9,1.3,1.4,1.9c0,0-19.2-0.6-29.2,6.5C358.9,314.5,362.3,317.3,367,319.3z"/>
		<path class="st16" d="M40.5,313.6h-237.7v-34c4.1-6.3,17.5-10,25.2-5.6c0,0-2.4-12.2,15-18c10-3.5,21.1-2,29.9,3.9
			c0,0,5.7-14.8,27.3-7.1c6.9-8.5,24.8-7.7,26.6,3.2c0,0,13.4-13.6,33.9-10.3s20.8,16.6,20.8,16.6s0.6-0.3,1.6-0.7
			c4.3-1.7,16.7-4.4,28.1,1.5c13,6.7,12.8,13.4,11.6,18.6c-0.3,1.1-0.6,2.3-1,3.6c8.8-0.2,17,4.6,21,12.4
			C46.4,304.4,43.9,309.9,40.5,313.6z"/>
		<path class="st14" d="M22.8,313.6h-202.2c-0.7-2.3-0.2-4.8,1.2-6.6c5.1-7.5,18.1-6.4,18.1-6.4s-12.9-8.9-4.9-14.8
			s18.9-0.9,18.9-0.9s-10.8-11.3,1.1-17c0.5-0.2,1-0.5,1.5-0.6c6-2.4,12.8-1.5,18,2.3c1.4-3.8,4.6-6.7,8.6-7.5
			c4.4-0.9,8.9,0.4,12,3.6c0,0,3.4-8.5,15.3-8c16.5,0.7,17.4,9.3,17.4,9.3s5.3-6.8,12.5-5.7c6,0.9,6,7.6,6,7.6s6.2-11.1,26-7.8l0,0
			c0.1,0,0.3,0,0.4,0c20.1,3.5,14.6,16.4,14.6,16.4s9-3.7,15.8-1.1c1.1,0.4,2.2,1.1,3.1,1.9c6.4,5.7-0.7,12.6-1,12.9
			c0.5-0.1,12.2-1.9,17,5.9C26,303.5,25.4,309.4,22.8,313.6z"/>
		<path class="st28" d="M519.2,496.5c0,0,16.1-2.4,15.7-9.1S519.2,496.5,519.2,496.5z"/>
		<path class="st28" d="M516,499.2c0,0,9-16.6,15.7-20.8s-11.7-4.6-15.7,12.8V499.2z"/>
		<path class="st28" d="M515.4,497c0,0,4.5-12.9-12.3-13.6C495.4,483.1,515.4,497,515.4,497z"/>
		<path class="st15" d="M165.9,437.9c0,0,7.5-5,22.1-6.3s-15.6-6.6-26.4,6.3C161.6,437.9,156.7,443.6,165.9,437.9z"/>
		<path class="st15" d="M145.4,438.6c0,0,22.1-16.1,35-20.4s-12.4-4.7-29.6,8.8C150.8,427,142.2,435,145.4,438.6z"/>
		<path class="st15" d="M138.9,438.6c0,0,14.7-26.2,21.3-29.4s-10.6-5-21.3,16.3C138.9,425.5,134.6,436.8,138.9,438.6z"/>
		<path class="st15" d="M131.1,438.6c0,0,5.7-24,11-27.6S121.7,415,131.1,438.6z"/>
		<path class="st15" d="M127.9,438.6c0,0,0.3-20-11.3-23.1S123.3,428.6,127.9,438.6z"/>
		<path class="st15" d="M124.1,438.6c0,0-7.3-22.9-25-23.5S113.1,423.6,124.1,438.6z"/>
		<path class="st15" d="M122.6,438.6c0,0-9.5-9.3-25.7-8.6S118.7,435.8,122.6,438.6z"/>
		<path class="st15" d="M118.4,346.4c0,0,5.8-3.9,16.9-4.8s-12-5.1-20.2,4.8C115.1,346.4,111.4,350.8,118.4,346.4z"/>
		<path class="st15" d="M102.7,346.9c0,0,16.9-12.4,26.8-15.6s-9.5-3.6-22.7,6.7C106.9,338,100.3,344.2,102.7,346.9z"/>
		<path class="st15" d="M97.8,346.9c0,0,11.2-20,16.3-22.5s-8.1-3.8-16.3,12.5C97.8,336.9,94.5,345.5,97.8,346.9z"/>
		<path class="st15" d="M91.8,346.9c0,0,4.3-18.4,8.5-21.1S84.6,328.8,91.8,346.9z"/>
		<path class="st15" d="M89.3,346.9c0,0,0.2-15.3-8.7-17.7S85.8,339.2,89.3,346.9z"/>
		<path class="st15" d="M86.4,346.9c0,0-5.6-17.6-19.2-18S78,335.4,86.4,346.9z"/>
		<path class="st15" d="M85.3,346.9c-5.5-4.7-12.5-7-19.7-6.6C53.2,340.9,82.2,344.7,85.3,346.9z"/>
		<path class="st28" d="M510.7,351c0,0,5.4-3.6,15.7-4.5s-11.1-4.7-18.8,4.5C507.6,351,504.2,355.1,510.7,351z"/>
		<path class="st28" d="M496.1,351.5c0,0,15.7-11.5,24.9-14.5c9.2-3.1-8.8-3.3-21,6.2C500,343.3,493.8,349,496.1,351.5z"/>
		<path class="st28" d="M491.5,351.5c0,0,10.4-18.6,15.2-20.9s-7.5-3.6-15.2,11.6C491.5,342.2,488.5,350.3,491.5,351.5z"/>
		<path class="st28" d="M486,351.5c0,0,4-17.1,7.8-19.6S479.3,334.7,486,351.5z"/>
		<path class="st28" d="M483.7,351.5c0,0,0.2-14.2-8-16.4S480.5,344.4,483.7,351.5z"/>
		<path class="st28" d="M481,351.5c0,0-5.2-16.3-17.8-16.7S473.2,340.8,481,351.5z"/>
		<path class="st28" d="M479.9,351.5c-5.1-4.3-11.6-6.5-18.3-6.1C450.2,345.9,477.1,349.5,479.9,351.5z"/>
		<path class="st29" d="M235.1,521.2c0,0,22.9-3.8,22.2-14.4S235.1,521.2,235.1,521.2z"/>
		<path class="st29" d="M230.7,525.5c0,0,12.7-26.4,22.2-33.1s-16.5-7.3-22.2,20.4V525.5z"/>
		<path class="st29" d="M229.7,521.9c0,0,6.4-20.5-17.5-21.6C201.5,499.8,229.7,521.9,229.7,521.9z"/>
		<path class="st29" d="M127.7,501.9c0,0,8.9-6.8,26-8.4s-18.4-8.9-31.1,8.4C122.6,501.9,116.9,509.6,127.7,501.9z"/>
		<path class="st29" d="M103.6,502.9c0,0,26-21.6,41.3-27.4s-14.6-6.2-34.9,11.8C109.9,487.3,99.8,498.1,103.6,502.9z"/>
		<path class="st29" d="M96,502.9c0,0,17.3-35.1,25.2-39.4s-12.5-6.7-25.2,21.9C96,485.3,90.9,500.5,96,502.9z"/>
		<path class="st29" d="M86.8,502.9c0,0,6.7-32.2,13-37S75.7,471.2,86.8,502.9z"/>
		<path class="st29" d="M83,502.9c0,0,0.3-26.8-13.3-30.9S77.6,489.4,83,502.9z"/>
		<path class="st29" d="M78.5,502.9c0,0-8.6-30.7-29.5-31.4S65.5,482.7,78.5,502.9z"/>
		<path class="st29" d="M76.7,502.9c-8-7.9-19-12.1-30.3-11.5C27.4,492.3,72.1,499,76.7,502.9z"/>
		<path class="st30" d="M450.5,231.3c0,0,2.1,8.5,0.8,14c-1.9,8.2-4.8,19-7.5,21.9c-4.6,4.9-32.8,4.3-37.8-5.4
			c-2.8-5.4-2.4-12.4-1.6-17.5c0.4-2.4,0.9-4.7,1.6-7c1.2-2.7,2.7-5.3,4.4-7.7c8.2-10.7,19.2-9,28-4.8
			C442.6,226.8,446.6,228.9,450.5,231.3z"/>
		<path class="st31" d="M450.5,232.9c0,0,2.1,6.9,0.8,12.4c-22.4,11.2-38.8,4.4-46.9-1c0.4-2.4,0.9-4.7,1.6-7
			c1.2-2.7,2.7-5.3,4.4-7.7c2.7-0.9,5.4-1.7,8.1-2.3c4-0.8,12.2-1.7,19.9-2.5C446.9,229,450.5,232.9,450.5,232.9z"/>
		<path class="st32" d="M525.8,304.9c-1,16.6-5,68-5.4,73.4v0.5c0,0-1.7,10-13.2,12.6s-37.2-4.1-37.2-4.1s-41.7-0.5-25.5-93.4
			c0-0.1,0-35.4,33.4-40c3-0.4,6-0.6,9-0.5c1.6,0,21.8,2.6,31.1,10.3C527.4,271.4,526.8,287.4,525.8,304.9z"/>
		<path class="st32" d="M454.4,243.8c1.9-0.2,29,1.2,38.5,12.7c0,0,4.8,8.5-8.5,11.1s-32.1-12.4-31.8-13.7S454.4,243.8,454.4,243.8z
			"/>
		<path class="st33" d="M520.4,378.3v0.5c0,0-1.7,10-13.2,12.6s-37.2-4.1-37.2-4.1s-41.7-0.5-25.5-93.4c0-0.1,0-35.4,33.4-40
			c2,1,4.2,1.1,5.8-0.4l10.8,3.9c-6.4,32.5-9.4,65.5-8.8,98.6c0.1,6,0.4,12,2.5,17.6s6.6,10.5,12.4,11.8
			C507.8,386.8,514.6,382.7,520.4,378.3z"/>
		<path class="st34" d="M525.5,357.2l-2.3,25.4c0,0-13.1,6.9-23.9,1.9L496,360"/>
		<path class="st35" d="M496,360c9.9,1.9,20.1,0.9,29.5-2.8l-3.4-1.3"/>
		<path class="st32" d="M509.5,359.5l3.2,9c0,0,7.6,8.6,9.5,0l-4.1-10L509.5,359.5z"/>
		<path class="st30" d="M504.1,506.8c-9.1,6.5-19.5,1.6-24.9-10.6c-1.7-3.8-4-9.9-6.4-16.5c-0.3-0.7-0.5-1.5-0.8-2.3
			c-0.6-1.8-1.3-3.6-1.9-5.4c-1.2-3.3-2.3-6.6-3.4-9.7c-2.9-8.3-5-14.7-5-14.7l29.2-4l3,9.8l3.2,10.6l2.1,7.1l0.2,0.7L504,487
			C504,487,513.2,500.4,504.1,506.8z"/>
		<path class="st36" d="M503.3,506.8c-8.7,6.5-18.6,1.6-23.8-10.6c-1.6-3.8-3.8-9.9-6.1-16.5l-0.8-2.3c5.3-0.5,18.1-2.8,26-6.3
			l0.2,0.7l4.4,15.3C503.2,487.1,512,500.4,503.3,506.8z"/>
		<path class="st31" d="M493.2,453.4c-7.2,8.8-19.5,9.4-26.2,8.9c-2.8-8.3-4.8-14.7-4.8-14.7l28.2-4L493.2,453.4z"/>
		<path class="st30" d="M437.5,490.7c-0.6,10.6-0.9,17.9-1,22.6c-0.4-5.1-1.6-11.1-4.5-12.4c-10.2-4.5-20.2,7.1-21.4-6.2
			c-0.7-7-1.6-17.4-2.4-26.4c-0.2-1.9-0.3-3.8-0.5-5.6c-0.7-7.7-1.2-13.4-1.2-13.4l29.5-1.7l0.3,9.5l0.2,4.3L437.5,490.7z"/>
		<path class="st31" d="M435.9,457.1c-9.6,6.5-20.5,6.5-27.7,5.6c-0.6-7.7-1.1-13.4-1.1-13.4l28.5-1.7L435.9,457.1z"/>
		<path class="st36" d="M436.8,490c-0.6,10.4-0.9,17.5-1,22.1c-0.4-5-1.3-12.4-4.3-12.1c-9.2,0.9-19.4,7-20.6-6.1
			c-0.6-6.8-1.5-17-2.3-25.8c-0.6,5.1,6.7,7.6,7.1,7.2c0,0,14.1-1.3,19.7-5.5L436.8,490z"/>
		<path class="st37" d="M502.1,506.8c0,0-8.3,3.7-15-1.1s-8.2-1-8.1,1.1l-0.7,19.1c0,0,1.8,2,7.3,2.1c1.8,1,3,2.7,3.6,4.6
			c0.7,3.1,10.3,13.2,33,8.6s10.2-19.3,10.2-19.3l-13.4-7c0,0-7.7-14.4-12.6-10.5C502.8,507.2,502.1,506.8,502.1,506.8z"/>
		<path class="st38" d="M434.4,425l-2.1-43.6l-49.9-18.1v11.6c0,0-4.3,4.9-3.5,9.5s6.2,62.7,6.2,62.7s9.8,12.9,31.2,11.1
			s21.2-8.5,21.2-8.5s-3.1-24.8-2.3-24.8"/>
		<path class="st38" d="M424.4,422.6c1.3,0.3,4.1,5.2,11.9,3.6l4.4,24c0,0,2.8,12.6,38.2,5.2c0,0,12.6-3.6,13.7-11.1
			c0,0-1.5-0.6-6.7-33.5s-10.1-41.6-10.1-41.6l-51.3,10.5"/>
		<path class="st39" d="M381,363.3v14.5c0,0,13.2,18.1,46.7,16.5s51.1-16.5,51.1-16.5l-1.7-14.5H381z"/>
		<path class="st40" d="M443.6,383L443.6,383c0.1,0.4,0.6,9.3,0.6,9.8l0,0l-4.1,0.9l0,0l-0.7-10.1C439.3,383.4,443.3,383,443.6,383z
			"/>
		<path class="st40" d="M408,382.6c0.5,0,3.6,0.8,3.6,0.8c0.1,0,0,10.8,0,10.8l-4.6-0.9L408,382.6z"/>
		<path class="st41" d="M416.5,398.4c0.5,3.8,1,7.6,1.4,11.4s1,7.6,1.4,11.4c-1.1-3.7-1.9-7.4-2.3-11.3
			C416.4,406,416.3,402.2,416.5,398.4z"/>
		<path class="st41" d="M464.9,389.1c0.6-0.1,1.1-0.1,1.7-0.1h0.1l0,0.1c1.1,3.3,2.9,6.2,5.4,8.6c2.5,2.4,5.5,4.2,8.8,5.3
			c-3.6-0.4-6.9-2-9.4-4.6c-2.6-2.5-4.4-5.7-5-9.3l0.1,0.1C466,389.2,465.5,389.1,464.9,389.1z"/>
		<path class="st42" d="M381.3,311.5l-8.3,46.4c0,0,13.4,25,49.6,26.6c0,0,47.5,0.5,59.9-23.8l-8.4-65.3l-4.1-43.6l-10.5,0.9
			c0,0-38.1,24.5-55.2-2.3l-1.8-7.4h-8l-12,35.9L381.3,311.5z"/>
		<path class="st43" d="M414.3,263.1c1.5-0.5,6.5-4.1,16.9-0.7s-2.6,14.6-2.6,14.6h-11.4C417.2,277.1,402.1,267.6,414.3,263.1z"/>
		<path class="st42" d="M406,237.3c-1.2,0.9-9,8.4-9.5,13.1s3.3,29.8,3.3,29.8l20.6-18.8c0,0-10.1-8.1-14.1-16.7L406,237.3z"/>
		<path class="st42" d="M426,260.9c-1,0.3,15.1,20,15.1,20s13.3-10.8,18.3-28.3l-8.5-12.9C451,239.7,444.9,254.3,426,260.9z"/>
		<path class="st43" d="M442.7,330c-0.3,0.8-0.5,1.5-0.8,2.2l0,0c-8.4,22.9-22.1,34.4-22.1,34.4c-3.9-4.6-7.6-9.5-10.8-14.6
			c-1.3-2.1-2.5-4.3-3.6-6.5c-2.7-5.5-3-8.3-3-8.3c0.1-2.8,0.3-5.6,0.6-8.3c0.2-2.5,0.5-4.9,0.8-7.1c0.7-5.9,1.8-11.7,3.1-17.5
			c0.6-2.6,1.2-5,1.9-7.2c4.1-14.3,8.6-21.2,8.4-22.2c-0.5-2.9,12.2-1.9,12.2-1.9c0.3,4.9,0.9,9.9,1.9,14.7c0.3,1.7,0.7,3.3,1,5
			c1.1,4.9,2.3,9.9,3.6,14.5c0.5,1.6,0.9,3.2,1.3,4.8c1.6,5.7,3.1,10.6,4.1,13.8C442.2,328.5,442.7,330,442.7,330z"/>
		<path class="st36" d="M432.3,292.9c-8.8,2.5-17.1,6.4-24.7,11.5c0.6-2.6,1.3-5.3,2-7.5c6.8-3.8,14.1-6.9,21.7-9.1
			C431.6,289.5,432,291.1,432.3,292.9z"/>
		<path class="st36" d="M436.6,312.5c-9.2,3.6-24.3,10.1-32.9,16.5c0.2-2.5,0.5-5.3,0.8-7.6c9.6-5.9,19.9-10.6,30.7-13.8
			C435.7,309.2,436.1,311,436.6,312.5z"/>
		<path class="st36" d="M441.9,330.1c-0.3,0.8-0.5,1.7-0.8,2.4l0,0c-9,4-23,10.9-31.6,19.1c-1.3-2.1-2.5-4.2-3.5-6.5
			c5.2-3.7,16.1-11,34.8-19C441.5,328.7,441.9,330.1,441.9,330.1z"/>
		<path class="st42" d="M382.5,246.8c-0.9,0.5-39.7,45.3-39.7,45.3s-2.3,26.8,21.1,37.8l14.8-13.6L382.5,246.8z"/>
		<path class="st32" d="M398.1,242.1c0.8,0.3-6.4,52.8-19.3,82.7c-0.6,2.3-1,4.7-1.3,7.1c-2.3-13.5-3.5-27.1-3.4-40.8
			c0-23.7,6.7-47,6.7-47S387.5,238.2,398.1,242.1z"/>
		<path class="st32" d="M490.7,255.6c0,0-25.8,9.3-17.1,54c0,0-1,4.9-8.3,0.2c0,0-16.8-43.9-1.5-58.5
			C463.8,251.3,479.5,247.5,490.7,255.6z"/>
		<path class="st30" d="M377.6,286.4c0.1,0.6,16.6,26.7,7.3,42.7c-3.2,5.5-15.3,13.7-21.4,15.1c-10.7,2.4-40.7-20-23.2-39.8
			C353.2,289.7,377.6,286.4,377.6,286.4z"/>
		<path class="st37" d="M409.7,494.7c0.8-0.3-0.6,6.6,3,9.6s21.7-0.7,26.5-8.9v-4.6c0,0,7.1-1.4,2.3,8.4c1.6,2.7,2.8,5.6,3.8,8.6
			c1.4,4.6-1.1,9.5-1.1,9.5s-15.7,5.7-25.3,7.7s-40.1,4.5-46.1-3.6c0,0-6.8-13.6,20.6-18.6c0,0,10.5,1.4,11.6-0.2
			S401.6,497.4,409.7,494.7z"/>
		<path class="st44" d="M445.1,493.5c-1.4,2.6-1.8,5.6-1,8.4c0.4,1.3,0.6,2.6,0.6,4l0,0c0,1,0,2-0.1,3c-0.1,1.6-1.2,2.9-2.6,3.4
			c-4.7,1.6-15.6,5.4-23,6.9c-9.6,2.1-40.1,4.5-46.1-3.6c-0.1-0.4-0.1-0.8-0.1-1.3l0,0c0-2.8,2-9.5,18.6-13.7
			c0.7-0.2,1.4-0.4,2.1-0.5l1.3-0.3l1-0.2l1-0.2l1.4-0.2l1-0.2c0.9-0.2,1.9-0.4,2.8-0.7h0c0.9-0.2,1.8-0.6,2.6-1.1
			c0.1-0.1,0.3-0.2,0.4-0.3c0.2-0.4,0.2-0.8,0.1-1.2c-0.3-2.3-2.3-6.5,4.4-8.8c0.8-0.3-2.3,6.3,3.6,10.3c9,6.2,18.4,1.9,23.8-4.2
			c1.6-1.8,0.5-3.5,0.5-5.9v-1.9C437.3,485.3,448.2,483.9,445.1,493.5z"/>
		<path class="st45" d="M445.8,491.8c-0.5,1.5-1.3,3-2.2,4.3c-1.5,2.3-3.7,4.1-6.3,5.1"/>
		<path class="st45" d="M404.9,494.7c1,3.5,3.1,6.6,6.1,8.6"/>
		<path class="st44" d="M500.8,502.2c0,0-8.3,3.7-15-1.1s-8.6-9.4-8.6-9.4s-4,0.6-3.6,4.6c0.2,1.6,1,3.1,2.2,4.1l2,1.7l-0.7,19.1
			c0,0,1.9,3.5,7.4,3.7c1.7,0.1,3.2,1.4,3.4,3.1c0.7,3.1,10.3,13.3,33,8.6c13-2.7,14.4-8.6,13.3-13.2c-0.9-3.4-3.2-6.2-6.3-7.8
			l-10.3-5.4c0,0-7.9-4.3-7.6-10c0,0,4-11.5-5.5-14c-0.3-0.1-0.5,0.1-0.6,0.4c0,0.1,0,0.3,0,0.4c1.5,2.6,5.1,9.7,1,12.8
			C501.5,502.7,500.8,502.2,500.8,502.2z"/>
		<path class="st46" d="M514.1,506.1c0.3,0.8-3.5-0.2-8.4,1.5s-9.5,4.4-9.8,3.6s3.9-4.9,8.8-6.6S513.8,505.3,514.1,506.1z"/>
		<path class="st46" d="M406.2,506.7c-0.6,0.7-1.5-1.3-4.7-4.1s-4.2-3.2-3.6-3.9s2.6-1.3,5.8,1.5S406.8,506,406.2,506.7z"/>
		<path class="st46" d="M401.2,508.7c-0.6,0.7-1.5-1.3-4.7-4.1s-5.5-3.6-4.9-4.3s3.8-0.9,7,1.9S401.8,508.1,401.2,508.7z"/>
		<path class="st46" d="M517.6,509.8c0.3,0.8-3.5-0.2-8.4,1.5s-9.5,4.4-9.8,3.6s3.9-4.9,8.8-6.6S517.3,509,517.6,509.8z"/>
		<path class="st45" d="M476.6,501.2c0-0.2,0.9,0.8,1.1,1c1.5,1.2,2.8,2.7,4.3,3.8c2.3,1.6,5.2,2.4,8,2.2"/>
		<path class="st45" d="M510.5,498.5c-0.2,1.1-0.7,2.1-1.5,2.9c-0.8,0.8-1.7,1.4-2.7,1.9"/>
		<path class="st42" d="M500.1,472.3c-3.6,2.9-11.9,7.7-27.4,7.3c-0.4,0-0.8-0.3-1-0.7l-2-5.3c-0.2-0.6,0.1-1.2,0.6-1.4
			c0.2-0.1,0.3-0.1,0.5-0.1c9.3,0.5,18.4-2.1,26.1-7.3c0.5-0.3,1.2-0.2,1.6,0.3c0.1,0.1,0.1,0.2,0.1,0.3l1.9,5.7
			C500.6,471.6,500.4,472.1,500.1,472.3z"/>
		<path class="st42" d="M406.3,470c0-0.6,0.5-1,1-1c0.2,0,0.4,0.1,0.6,0.2c2.6,1.7,9,4.5,22,1.9c2.2-0.4,4.2-1.3,6-2.5
			c0.4-0.4,1-0.3,1.4,0.1c0.2,0.2,0.2,0.4,0.3,0.6l0.7,5.6c0.1,0.5-0.2,0.9-0.6,1.1c-9.2,4.4-19.9,4.7-29.4,0.8
			c-0.1-0.1-0.3-0.1-0.4-0.3C407.5,475.9,406,474,406.3,470z"/>
		<path class="st47" d="M366.7,270l21.8,45c2.4,4.9,0.9,10.9-3.6,14.1l-7.4,5.2c-5.1,3.6-12.1,2.4-15.6-2.7
			c-0.1-0.2-0.2-0.4-0.4-0.5l-26.3-43.4c-3.4-5.5-2.1-12.5,3.5-15.6l12.5-6.9c5.4-3,12.3-1.1,15.3,4.3
			C366.5,269.7,366.6,269.8,366.7,270z"/>
		<path class="st47" d="M338.3,293c-20.3-14.6-9.2-31.8,0-37s29.9-3.5,29.8,16.5"/>
		<path class="st48" d="M346.1,260.5c0,0,10.3,0.8,17.5,19.2s21.2,48,21.2,48c-1.3,1.9-3.2,3.2-5.3,3.9L357,282
			c0,0-7-15.8-20.7-17.3L346.1,260.5z"/>
		
			<linearGradient id="SVGID_6_" gradientUnits="userSpaceOnUse" x1="1329.2192" y1="2549.115" x2="1319.0892" y2="2421.0552" gradientTransform="matrix(-0.2699 0.9629 0.9629 0.2699 -1722.474 -1660.7367)">
			<stop  offset="0.1" style="stop-color:#286BAD"/>
			<stop  offset="0.13" style="stop-color:#3476B3"/>
			<stop  offset="0.23" style="stop-color:#5B96C7"/>
			<stop  offset="0.33" style="stop-color:#7BB1D7"/>
			<stop  offset="0.44" style="stop-color:#94C6E4"/>
			<stop  offset="0.55" style="stop-color:#A5D4ED"/>
			<stop  offset="0.67" style="stop-color:#B0DDF2"/>
			<stop  offset="0.81" style="stop-color:#B3E0F4"/>
		</linearGradient>
		<path class="st49" d="M338.3,265.3c0,0-2,13,7.5,29.2s27.4,40.9,27.4,40.9s-3.8,3.4-10.1-3.1l-23.7-38.9c0,0-22.8-16.4-6.2-31.4
			L338.3,265.3z"/>
		<path class="st50" d="M344.4,265.3c-5.1,2.4-10,1.8-11.7-1c-4.6-7.5,1.6-7.3,6.6-9.7s8.9-7,11.7,1
			C352.1,258.7,349.4,262.9,344.4,265.3z"/>
		
			<ellipse transform="matrix(0.9033 -0.4291 0.4291 0.9033 -77.3162 170.8485)" class="st47" cx="340.2" cy="256.9" rx="10.1" ry="5.9"/>
		<path class="st47" d="M332.2,261.8c-0.8-1.8,0.9-4.4,4-6.5c0.8-0.5,1.6-1,2.5-1.4c4.6-2.2,9.2-2.2,10.2,0c1,2.2-1.9,5.7-6.5,7.9
			c-0.7,0.3-1.4,0.6-2.1,0.8C336.5,263.9,333.1,263.7,332.2,261.8z"/>
		<path class="st51" d="M332.2,261.8c-0.8-1.8,0.9-4.4,4-6.5l4.2,7.3C336.5,263.9,333.1,263.7,332.2,261.8z"/>
		<path class="st52" d="M367.8,271.6c0,0,0.1,5.1-13.2,12.8s-18.1,6.5-18.1,6.5s7,1.8,19.2-5.2S367.8,271.6,367.8,271.6z"/>
		<path class="st47" d="M335.7,239.2c0,0-2.9,3.9,2.5,5.8c9,3.2,11.1,7.7,11.1,7.7s0.2,6-8.5,9.4s-11.6-0.2-9.9-3.9s-6-24.1-6-24.1
			S334.6,237.3,335.7,239.2z"/>
		<path class="st48" d="M331.1,241.3c0.1,0.3,5.7,19.2,5.4,19.6s8.1-0.6,8.4-3.1S331.1,241.3,331.1,241.3z"/>
		<path class="st47" d="M348.5,251.4c0,0,16.4-3.1,10.5-13.3c0,0,10.1-3,5.3-7.4c-6.9-6.2-9.1,2.5-7.2,6.6
			C357.1,237.3,363.6,245.3,348.5,251.4"/>
		
			<linearGradient id="SVGID_7_" gradientUnits="userSpaceOnUse" x1="1055.6675" y1="2361.3577" x2="1155.6597" y2="2361.3577" gradientTransform="matrix(-5.181309e-02 0.9987 0.9987 5.181309e-02 -2034.0031 -1045.6932)">
			<stop  offset="0" style="stop-color:#FFFFFF"/>
			<stop  offset="0.43" style="stop-color:#B3E0F4"/>
			<stop  offset="0.67" style="stop-color:#B1DEF3"/>
			<stop  offset="0.76" style="stop-color:#AAD9F0"/>
			<stop  offset="0.82" style="stop-color:#9FCFEA"/>
			<stop  offset="0.88" style="stop-color:#8EC1E2"/>
			<stop  offset="0.92" style="stop-color:#78AED7"/>
			<stop  offset="0.96" style="stop-color:#5C98CA"/>
			<stop  offset="0.99" style="stop-color:#3D7DBB"/>
			<stop  offset="1" style="stop-color:#3476B7"/>
		</linearGradient>
		<path class="st53" d="M325.9,233.5c0,0-11.4-43.5-115.9-100.8c0,0-11.9-4.6,2.9-4.7s96.5,54.5,115.4,106.1"/>
		
			<linearGradient id="SVGID_8_" gradientUnits="userSpaceOnUse" x1="694.6601" y1="733.0122" x2="793.5375" y2="733.0122" gradientTransform="matrix(0.8788 0.4772 0.4772 -0.8788 -836.7082 438.6591)">
			<stop  offset="0" style="stop-color:#FFFFFF"/>
			<stop  offset="0.43" style="stop-color:#B3E0F4"/>
			<stop  offset="0.67" style="stop-color:#B1DEF3"/>
			<stop  offset="0.76" style="stop-color:#AAD9F0"/>
			<stop  offset="0.82" style="stop-color:#9FCFEA"/>
			<stop  offset="0.88" style="stop-color:#8EC1E2"/>
			<stop  offset="0.92" style="stop-color:#78AED7"/>
			<stop  offset="0.96" style="stop-color:#5C98CA"/>
			<stop  offset="0.99" style="stop-color:#3D7DBB"/>
			<stop  offset="1" style="stop-color:#3476B7"/>
		</linearGradient>
		<path class="st54" d="M236.6,124.9c0,0-64.6-79.8-132.7,56.3c0,0-12.5,4-6.1-7.9C147.1,82.3,203,83.9,236.6,124.9"/>
		<path class="st55" d="M277,128.1c0,0-5-30.7-12.4-24.3S277,128.1,277,128.1z"/>
		<path class="st55" d="M265.5,148.6c0,0-15.7-26.8-20.3-18.2S265.5,148.6,265.5,148.6z"/>
		<path class="st55" d="M165.5,152.1c0,0-27,15.4-18.4,20.1S165.5,152.1,165.5,152.1z"/>
		<path class="st55" d="M114.2,92.6c0,0-30.9,2.8-25.1,10.6S114.2,92.6,114.2,92.6z"/>
		<path class="st55" d="M315.3,193.9c0,0-1.3-22.9-7.2-18.8S315.3,193.9,315.3,193.9z"/>
		<path class="st55" d="M205.5,89.7c0,0-25.4-17.9-26-8.1S205.5,89.7,205.5,89.7z"/>
		<path class="st55" d="M324.9,233.5c0,0-7.4-12-16.3-16.4S308,225.6,324.9,233.5z"/>
		
			<linearGradient id="SVGID_9_" gradientUnits="userSpaceOnUse" x1="172.8401" y1="1735.0288" x2="326.5601" y2="1735.0288" gradientTransform="matrix(0.85 2.29 0.59 -0.22 -988.26 -89.5)">
			<stop  offset="0" style="stop-color:#FFFFFF"/>
			<stop  offset="0.28" style="stop-color:#FBFDFE"/>
			<stop  offset="0.8" style="stop-color:#B3E0F4"/>
		</linearGradient>
		<path class="st56" d="M329.8,234.1c0,0-53.7-123.1-113.1-146.9c0,0-19.1-7-7.4-12.8c2.7-1.3,61.3,16.1,122.7,161.4"/>
		<path class="st30" d="M344.2,311.8c0,0,13.1-9.8,18.2-4.2s1.1,8.2,1.1,8.2c-5.4-2.3-11.5-1.3-15.9,2.5"/>
		<path class="st30" d="M482.4,329.2c0,0-15.2,14-17.5,16.4c-3.5,3.5-11.1,3.9-16.6,4.1c-9.3,0.3-42.2-5.4-59.4-20.1l3.1-14.4
			c0,0,31.1,4.5,49.3,0.9c2.1-0.4,4.2-1,6.2-1.8C447.5,314.2,480.8,315.6,482.4,329.2z"/>
		<path class="st30" d="M399,317c-0.7-4.2-6.7-17.3-15.9-22.9c-6.9-4.1-1.3,5-1.3,5s0.6,7.5,0.8,8.5s-21,7.2-28.5,2.4
			c-0.5-0.3-4.3,0.8-4.2,7.7c0.1,1.7,1.3,3,2.9,3.3c0,0-4.2,7,2.7,10.4c0,0-3.9,7.6,6.5,9.8c0,0-0.2,3.3,5.7,5.2
			c5.2,1.7,32.8-10,32.8-10"/>
		<path class="st57" d="M374.4,320.6c-0.7,0.2-9.5,3.3-21.2-0.4"/>
		<path class="st58" d="M374.4,320.7c-3.4,1.1-7,1.6-10.6,1.5c-1.8,0-3.6-0.2-5.4-0.5c-1.8-0.3-3.5-0.8-5.2-1.5l0,0
			c1.8,0.4,3.5,0.8,5.3,1c1.8,0.3,3.5,0.5,5.3,0.6C367.3,322,370.9,321.6,374.4,320.7L374.4,320.7z"/>
		<path class="st57" d="M377.6,331.1c-0.7,0.2-9.3,3.3-20.9-0.5"/>
		<path class="st58" d="M377.6,331.2c-3.4,1.1-6.9,1.6-10.5,1.5c-1.8,0-3.6-0.2-5.3-0.5c-1.7-0.3-3.5-0.8-5.1-1.5l0,0
			c1.7,0.4,3.4,0.8,5.2,1c1.7,0.3,3.5,0.5,5.2,0.6C370.7,332.5,374.2,332.1,377.6,331.2L377.6,331.2z"/>
		<path class="st57" d="M383,338.8c-4.9,1.9-8.2,2.7-19.6,2.1"/>
		<path class="st58" d="M383.1,338.8c-1.5,0.6-3.1,1.2-4.7,1.6c-1.6,0.4-3.3,0.6-4.9,0.8c-3.3,0.3-6.6,0.2-9.9-0.3v0
			c1.7,0,3.3,0,5,0s3.3,0,5,0c1.6-0.1,3.3-0.3,4.9-0.6C379.9,339.9,381.5,339.4,383.1,338.8L383.1,338.8z"/>
		<path class="st42" d="M493.4,256.5c19.8,12.5-7.1,68.7-7.6,81.5c0,0-20.1-13.7-40.1-22.5l12.7-32.1
			C458.4,283.5,473.6,244,493.4,256.5z"/>
		<path class="st30" d="M378.3,183.1c1.8,9.3,9.2,15,16.8,13.9s6.3-6.4,4.4-15.7s-2.3-8.4-8.1-13.4
			C378.5,156.9,376.5,173.8,378.3,183.1z"/>
		<path class="st59" d="M387.9,170.7c-0.9-0.7-2.1-0.9-3.2-0.6c-1.4,0.5-2,2.1-2.3,3.5c-0.9,5.1,0.3,10.4,2.8,15.1
			c0.4,0.8,0.9,1.5,1.5,2.1c0.7,0.6,1.6,0.8,2.4,0.5c0.8-0.5,1.3-1.4,1.2-2.4c0-2.4-1.7-4.5-3-6.6c-0.4-0.5-0.6-1.2-0.8-1.8
			c-0.1-0.7,0.2-1.3,0.7-1.7c0.5-0.2,1-0.3,1.5-0.2c1.1,0.2,2.1,0.5,3.1,0.9c0.8-1.4,0-3.1-0.7-4.4
			C390.6,173.3,389.5,171.8,387.9,170.7z"/>
		<path class="st30" d="M409.9,135.8c30.9-7.6,1.2-37.5,36.4-26.7c34.2,10.5,49.1,33.6,41.2,63.7c-3.6,13.9-12.3,27.1-12.4,27.8
			c-6.7,36-40.8,44.9-61.5,38.5c-9-2.8-17.1-9.9-23.3-18.6c-7.5-10.6-11.7-24.6-4.6-49.1C385.9,170.6,384.1,142.1,409.9,135.8z"/>
		<path class="st59" d="M470.4,152.1c0,0-10.3,8-48.7-3.7l2.6-4.8c0,0-4.4,6.4-27.9,3.6l-11.5,26.2l10.5-58.8l83,17.9l8.8,16.3
			L482,164c0,0-1.2,32.9-5.6,42.8l-0.8-2.1c-3-7.9-4.2-16.4-3.6-24.9l0,0C472.1,179.9,463.4,180.7,470.4,152.1z"/>
		<path class="st60" d="M475.7,145.4c0,0,0.5,13.1-51.8,0.5c0,0,1.5-0.2,9.5-10.8c-10.1,13-23.6,9.4-34.3,9.5l0.2-16.3l-14.4,45.1
			c0,0-1-14.7-0.7-20.6c0,0-0.2-17,5.2-26.4c-2.2,2.7-4.2,5.7-5.9,8.8c0,0-1.6-27,36.6-37.7c0,0-6.1-3.5-15.1-2
			c0,0,19.5-12.4,50.2-4.6c16.1,4.1,28.2,7.1,31,24.6c0,0,22.6-7.7,24.4,18.5c0,0-11.5-10.8-16.9-6.5c0,0,15.3,6.7,12.7,30.5
			c-2.4,22.4-12.4,36.2-28.4,48.8c0,0-8.3-16.5-0.2-34.7l-6.5,6C471.5,178,464.7,169.7,475.7,145.4z"/>
		<path class="st30" d="M467.9,218.3c5.5,8.8,15.3,5.7,20.8-1.5s11.5-23-2.8-19.7c-5,0.6-9.5,3.4-12.2,7.6"/>
		<path class="st59" d="M487.1,201.2c1-0.1,2,0.2,2.6,1c0.8,1.1,0.5,2.8,0.1,4.2c-1.6,4.8-4.7,8.9-8.8,11.9c-0.6,0.5-1.3,0.9-2,1.1
			c-0.8,0.2-1.6-0.1-2-0.8c-0.4-0.9-0.3-1.9,0.2-2.7c1.1-2.1,3.3-3.1,5.1-4.3c0.5-0.3,1-0.7,1.4-1.2c0.6-0.7,0.5-1.9-0.2-2.5
			c-0.2-0.1-0.3-0.2-0.5-0.3c-0.8-0.4-1.7-0.6-2.6-0.8c0-1.6,1.4-2.7,2.4-3.6C484,202.2,485.5,201.5,487.1,201.2z"/>
		<path class="st61" d="M419.8,197.6c-8.5,3.6-12.6-3.8-11.6-6.6c0,0,0.7-3.1,5-4.8s5.9-10.4,5.9-10.4"/>
		<path class="st62" d="M419.8,197.6c-1.3,0.6-2.6,1-4,1.1c-1.4,0.1-2.8-0.2-4.1-0.8c-1.3-0.7-2.3-1.6-3.1-2.9
			c-0.9-1.2-1.2-2.7-0.9-4.2l0,0c0.5-1.7,1.6-3.1,3.1-4.1c0.7-0.5,1.5-0.9,2.2-1.2c0.7-0.3,1.3-0.8,1.8-1.3c1-1.2,1.9-2.5,2.5-4
			c0.6-1.5,1.2-3,1.6-4.6h0.1c-0.2,1.6-0.6,3.2-1.1,4.8c-0.5,1.6-1.3,3.1-2.4,4.4c-0.6,0.7-1.3,1.2-2.1,1.6
			c-0.7,0.3-1.4,0.7-2.1,1.1c-1.3,0.8-2.3,2-2.9,3.4l0,0c-0.2,1.3,0,2.5,0.7,3.6c0.7,1.2,1.6,2.1,2.8,2.8c1.2,0.7,2.5,1,3.8,0.9
			c1.4-0.1,2.7-0.3,4-0.9L419.8,197.6z"/>
		<path class="st63" d="M443.4,156.3c0,0,0.9-3,5.5-1.4s9.1,8.7,8.4,12C457.3,167,450.5,156.9,443.4,156.3z"/>
		<path class="st63" d="M420.9,151.9c-0.1-2-1.6-3.7-3.5-4.1c-3.5-1-9.4,1.4-10.4,3.8C406.9,151.5,416.2,149.2,420.9,151.9z"/>
		<path class="st64" d="M435.7,211.6c-2.9,3.3-12.3,13.5-22.4,12.4c-6.1-0.6-7.8-6.2-9.7-10.4c-0.5-1.1-1-2.2-1.4-3.3l0,0
			c-0.2-0.6-0.5-1.1-0.7-1.7c-0.6-1.5-1.3-2.9-2.1-4.2l0,0c-0.2-0.3-0.4-0.6-0.6-0.9l-0.3-0.4c0,0,7.5,7.1,34.6,7.5l2.3-0.1l0.9-0.1
			h0.5C436.8,210.3,436.4,210.8,435.7,211.6z"/>
		<path class="st65" d="M406,216.3c1.9-0.9,4.1-0.9,6,0c3.4,0.1,6.6,1.4,9.1,3.8C421.1,220.1,411.7,223.6,406,216.3z"/>
		<path class="st66" d="M436.3,210.3c-14.1,7.6-24.8,5.3-30.3,2.1c-2.3-1.4-1.2-5.8-5.3-6.9c-0.7-0.6-1.4-1.3-1.9-2.1l-0.3-0.4
			c0,0,7.5,7.1,34.6,7.5l2.3-0.1L436.3,210.3z"/>
		<path class="st67" d="M435.7,211.6c-2.9,3.3-12.3,13.5-22.4,12.4c-6.1-0.6-7.8-6.2-9.7-10.4C411.2,223.9,419.8,223.7,435.7,211.6z
			"/>
		<path class="st67" d="M435.4,210.4c-21.6,4.8-32.2-2.4-36-6l0,0l-0.1-0.1c-0.2-0.3-0.4-0.6-0.5-0.8l-0.3-0.4c0,0,7.5,7.1,34.6,7.5
			L435.4,210.4z"/>
		<path class="st65" d="M435.9,208.3c0,0,3,1.2,0.9,4.2C436.8,212.5,439.9,208.6,435.9,208.3z"/>
		<path class="st65" d="M399.4,202.1c0,0-2,0.1-1.4,2.9C398,205,396.5,202,399.4,202.1z"/>
		
			<ellipse transform="matrix(0.3422 -0.9396 0.9396 0.3422 118.8135 533.5842)" class="st68" cx="440.5" cy="181.9" rx="9.9" ry="8.9"/>
		
			<ellipse transform="matrix(0.3422 -0.9396 0.9396 0.3422 118.3068 530.3598)" class="st63" cx="437.9" cy="180.7" rx="6.1" ry="5.6"/>
		<circle class="st69" cx="442.2" cy="179.3" r="1.1"/>
		
			<ellipse transform="matrix(0.3422 -0.9396 0.9396 0.3422 108.2179 499.1071)" class="st68" cx="410.6" cy="172.3" rx="9.9" ry="8.2"/>
		
			<ellipse transform="matrix(0.3422 -0.9396 0.9396 0.3422 108.6676 495.684)" class="st63" cx="408.4" cy="170.2" rx="6.1" ry="5.2"/>
		
			<ellipse transform="matrix(0.3422 -0.9396 0.9396 0.3422 112.7103 498.4683)" class="st69" cx="412.4" cy="168.7" rx="1.1" ry="1"/>
	</g>
</g>
<path class="st70" d="M133,548.5h350c53.6,0,97-43.4,97-97v-333c-0.1-53.6-43.6-96.9-97.1-96.9c-2.9,0-5.8,0.1-8.7,0.4L108.1,55.5
	c-51.9,4.8-90.8,49.7-88,101.7l16,299.5C38.9,508.1,81.4,548.5,133,548.5z"/>
</svg>
