<?xml version="1.0" encoding="utf-8"?>
<!-- Generator: Adobe Illustrator 25.2.3, SVG Export Plug-In . SVG Version: 6.00 Build 0)  -->
<svg version="1.1" id="Layer_1" xmlns="http://www.w3.org/2000/svg" xmlns:xlink="http://www.w3.org/1999/xlink" x="0px" y="0px"
	 viewBox="0 0 490 425" style="enable-background:new 0 0 490 425;" xml:space="preserve">
<style type="text/css">
	.st0{fill:#78EFE9;}
	.st1{fill:#0072AB;}
	.st2{fill:#74879E;}
	.st3{clip-path:url(#SVGID_2_);}
	.st4{fill:#BDCBE0;}
	.st5{fill:#CEDAE6;}
	.st6{fill:none;stroke:#D3C9D1;stroke-width:2;stroke-miterlimit:10;}
	.st7{opacity:0.75;fill:none;stroke:#DDDDDD;stroke-width:2;stroke-miterlimit:10;enable-background:new    ;}
	.st8{fill:#8CACC3;}
	.st9{fill:#C1E9F4;}
	.st10{fill:#3FAABC;}
	.st11{fill:#E86A4D;}
	.st12{fill:#DB5B46;}
	.st13{fill:#6D2C21;}
	.st14{opacity:0.3;}
	.st15{fill:#983B39;stroke:#EF9595;stroke-width:0.5;stroke-miterlimit:10;}
	.st16{fill:#E0E5DF;}
	.st17{fill:#983B39;}
	.st18{fill:#3F493F;}
	.st19{fill-rule:evenodd;clip-rule:evenodd;fill:#F4EDEE;}
	.st20{fill-rule:evenodd;clip-rule:evenodd;fill:#C0CACE;}
	.st21{fill:#A6A8AB;}
	.st22{fill-rule:evenodd;clip-rule:evenodd;fill:#808184;}
	.st23{fill-rule:evenodd;clip-rule:evenodd;fill:#231F20;}
	.st24{fill-rule:evenodd;clip-rule:evenodd;fill:#6D6E70;}
	.st25{fill-rule:evenodd;clip-rule:evenodd;fill:#626366;}
	.st26{fill-rule:evenodd;clip-rule:evenodd;fill:#58595B;}
	.st27{fill-rule:evenodd;clip-rule:evenodd;fill:#4D4D4F;}
	.st28{fill-rule:evenodd;clip-rule:evenodd;fill:#404041;}
	.st29{fill:#FFFFFF;}
	.st30{fill:#BBBDBF;}
	.st31{fill:#E6E7E8;}
	.st32{fill:#8C8C8C;}
	.st33{fill-rule:evenodd;clip-rule:evenodd;fill:#AAAAAA;}
	.st34{fill-rule:evenodd;clip-rule:evenodd;fill:#7C7C7C;}
	.st35{fill-rule:evenodd;clip-rule:evenodd;fill:#C9C9C9;}
	.st36{fill-rule:evenodd;clip-rule:evenodd;fill:#333333;}
	.st37{fill-rule:evenodd;clip-rule:evenodd;fill:#5E5D5E;}
	.st38{fill:#E52940;}
	.st39{fill-rule:evenodd;clip-rule:evenodd;fill:#F24E71;}
	.st40{fill-rule:evenodd;clip-rule:evenodd;fill:#D12845;}
	.st41{fill-rule:evenodd;clip-rule:evenodd;fill:#E57089;}
	.st42{fill-rule:evenodd;clip-rule:evenodd;fill:#8E1730;}
	.st43{fill-rule:evenodd;clip-rule:evenodd;fill:#BA243D;}
	.st44{opacity:0.2;fill:#2A4F51;enable-background:new    ;}
	.st45{opacity:0.3;enable-background:new    ;}
	.st46{fill:#161717;}
	.st47{fill:#246182;}
	.st48{fill:#282828;}
	.st49{fill:#1F5266;}
	.st50{opacity:0.4;fill:#F2F2F2;enable-background:new    ;}
	.st51{opacity:0.29;}
	.st52{fill:#2D2C2C;}
	.st53{fill:#F9D1C6;stroke:#F4C7BD;stroke-width:0.25;stroke-miterlimit:10;}
	.st54{fill:#E02D2D;}
	.st55{fill:#F74646;}
	.st56{fill:#E5E4CF;}
	.st57{fill:#FFFEF3;}
	.st58{fill:#E8BAB1;}
	.st59{fill:#FF635F;}
	.st60{fill:#F9D1C6;}
	.st61{fill:#FAA181;}
	.st62{fill:#F4C7BD;}
	.st63{fill:#FFDBBB;}
	.st64{fill:#381A12;}
	.st65{fill:#FFAD8D;}
	.st66{fill:#CE6C4E;}
	.st67{fill:#DB9D8E;}
	.st68{fill:#A02727;}
	.st69{fill:#631111;}
	.st70{fill:#E2D0D0;}
	.st71{fill:#F27F7C;}
	.st72{fill:#E8524A;}
	.st73{fill:#C13A36;}
	.st74{fill:#F2E2E2;}
	.st75{fill:#342517;}
	.st76{fill:#F9D1C6;stroke:#CEA6A1;stroke-width:0.5;stroke-miterlimit:10;}
	.st77{fill:#D1F2F2;}
	.st78{fill:#A2CCCC;}
	.st79{fill:#007982;}
	.st80{opacity:0.8;fill:#C3DCDD;enable-background:new    ;}
	.st81{fill:#77C6C4;}
	.st82{opacity:0.5;fill:#FFFFFF;enable-background:new    ;}
	.st83{fill:#D3A7A3;}
	.st84{fill:none;stroke:#D3A7A3;stroke-width:0.5;stroke-miterlimit:10;}
	.st85{fill:#F9F8F7;stroke:#7F430D;stroke-width:0.75;stroke-miterlimit:10;}
	.st86{fill:#342516;}
	.st87{fill:#FDEFEC;}
	.st88{fill:#51290F;}
	.st89{fill:#8E4F24;}
	.st90{fill:none;}
	.st91{fill:#E9F1F4;}
	.st92{fill:#BCDBED;}
	.st93{fill:#CFE0E5;}
	.st94{fill:#F5FDFF;}
	.st95{fill:#CFEFFF;}
	.st96{fill:#ABCDDD;}
	.st97{opacity:0.53;fill:#FFFFFF;enable-background:new    ;}
	.st98{opacity:0.33;fill:#FFFFFF;enable-background:new    ;}
	.st99{opacity:0.15;fill:#FFFFFF;enable-background:new    ;}
</style>
<polygon class="st0" points="359.8,13.6 130.2,13.6 15.3,212.5 130.2,411.4 359.8,411.4 474.7,212.5 "/>
<polygon class="st1" points="353.3,24.9 136.7,24.9 28.3,212.5 136.7,400.1 353.3,400.1 461.7,212.5 "/>
<polygon class="st2" points="351.5,28 138.5,28 32,212.5 138.5,397 351.5,397 458,212.5 "/>
<g>
	<defs>
		<polygon id="SVGID_1_" points="353.3,24.9 136.7,24.9 28.3,212.5 136.7,400.1 353.3,400.1 461.7,212.5 		"/>
	</defs>
	<clipPath id="SVGID_2_">
		<use xlink:href="#SVGID_1_"  style="overflow:visible;"/>
	</clipPath>
	<g class="st3">
		<polygon class="st4" points="-120.8,447.1 52.2,303.8 563.4,305.3 563.4,471.5 -120.5,471.5 		"/>
		<path class="st5" d="M-80.5,493.8h669.9V392.4C589.4,392.4,190,321.8-80.5,493.8z"/>
		<line class="st6" x1="29.5" y1="481.9" x2="163.5" y2="324.6"/>
		<line class="st7" x1="181.6" y1="481.9" x2="259.1" y2="331"/>
		<line class="st7" x1="315.6" y1="481.9" x2="358.9" y2="324.6"/>
		<line class="st7" x1="446.6" y1="331" x2="431.6" y2="485"/>
		<line class="st7" x1="563.4" y1="392.2" x2="-0.3" y2="387.2"/>
		<path class="st8" d="M-120.5,17.7v453.8L70.1,323.6V17.7H-120.5z M-15.4,226.3L-53,245.9V73.8l37.6-0.2L-15.4,226.3z"/>
		<rect x="70.1" y="18" class="st9" width="493.4" height="317.1"/>
		<rect x="395.7" y="316" class="st10" width="167.7" height="18.8"/>
		<polygon class="st11" points="417.9,353.4 38.8,347.5 38.3,234.2 418.7,242.3 		"/>
		<polygon class="st12" points="418.3,240.6 428.1,213.2 428.8,335.9 417.9,353.4 		"/>
		<polygon class="st12" points="413.6,349 294.2,349.1 294.2,245 413.6,244.8 		"/>
		<polygon class="st12" points="288.7,349 255.4,349 255.4,245.1 289.6,245.1 		"/>
		<polygon class="st12" points="249.9,349.1 216,349.1 216.7,245.1 250.9,245.1 		"/>
		<rect x="136.6" y="262" class="st13" width="3.4" height="19.3"/>
		<rect x="136.6" y="311" class="st13" width="3.4" height="19.3"/>
		<polygon class="st12" points="209.7,349.1 137.8,347.5 137.8,243.8 209.7,244.9 		"/>
		<g class="st14">
			<path d="M202.9,280l1.5,0.1c0.6,0,1,0.8,1,1.6l-0.1,22.1c0,0.9-0.5,1.5-1.1,1.5h-1.4c-0.6,0-1.1-0.7-1.1-1.5v-22.2
				C201.7,280.6,202.3,279.9,202.9,280z"/>
		</g>
		<path class="st15" d="M203.6,278.8l1.5,0.1c0.6,0,1,0.8,1,1.6l-0.1,22.1c0,0.9-0.5,1.5-1.1,1.5h-1.4c-0.6,0-1.1-0.7-1.1-1.5v-22.2
			C202.4,279.5,203,278.8,203.6,278.8z"/>
		<g class="st14">
			<path d="M224.9,252.2l0.1-1.5c0.1-0.6,0.6-1,1.2-1l16.2,0.1c0.6,0,1.1,0.5,1.1,1.1c0,0,0,0,0,0v1.4c0,0.6-0.5,1.1-1.1,1.1
				c0,0,0,0,0,0h-16.3C225.4,253.4,224.9,252.9,224.9,252.2C224.9,252.3,224.9,252.3,224.9,252.2z"/>
		</g>
		<path class="st15" d="M224,251.6l0.1-1.5c0.1-0.6,0.6-1,1.2-1l16.2,0.1c0.6,0,1.1,0.5,1.1,1.1c0,0,0,0,0,0v1.4
			c0,0.6-0.5,1.1-1.1,1.1h-16.3C224.6,252.7,224,252.3,224,251.6C224,251.6,224,251.6,224,251.6z"/>
		<g class="st14">
			<path d="M264.3,252.2l0.1-1.5c0.1-0.6,0.6-1,1.2-1l16.2,0.1c0.6,0,1.1,0.5,1.1,1.1c0,0,0,0,0,0v1.4c0,0.6-0.5,1.1-1.1,1.1
				c0,0,0,0,0,0h-16.3C264.8,253.4,264.3,252.9,264.3,252.2C264.3,252.3,264.3,252.3,264.3,252.2z"/>
		</g>
		<path class="st15" d="M263.4,251.6l0.1-1.5c0.1-0.6,0.6-1,1.2-1l16.2,0.1c0.6,0,1.1,0.5,1.1,1.1v1.4c0,0.6-0.5,1.1-1.1,1.1
			c0,0,0,0,0,0h-16.3C264,252.7,263.4,252.3,263.4,251.6C263.4,251.6,263.4,251.6,263.4,251.6z"/>
		<polygon class="st16" points="37,234.9 70.4,209.7 435.2,209.8 418.9,238.4 		"/>
		<path class="st17" d="M421.3,241.8c0,1.3-0.8,2.3-1.7,2.3l-382.1,0.3c-1.2,0-2.2-1.4-2.1-3.1l0.2-3.8c0.1-1.6,1-2.8,2.2-2.8
			l382.1-0.3c0.9,0,1.6,1.2,1.6,2.5V241.8z"/>
		<rect x="306" y="334.4" class="st18" width="74" height="19"/>
		<polygon class="st19" points="387.7,217.1 322.8,217.1 304.1,234.4 382,234.4 		"/>
		<polygon class="st20" points="382,338.5 304,337.5 304,234.4 382,234.4 		"/>
		<rect x="304" y="256" class="st21" width="78" height="5.2"/>
		<path class="st22" d="M330.8,226.1c-2.1,0-5.5-0.7-7-0.3c-1.6,0.4-1.2,1.9-1.2,2.5c0,1.2,3.7,2.2,8.2,2.2s8.2-1,8.2-2.2
			c0-0.5,0.4-1.9-0.8-2.3C336.7,225.5,333.4,226.1,330.8,226.1z"/>
		<path class="st23" d="M330.8,228.8c-4.4,0-7.9-1-7.9-2.2s3.5-2.2,7.9-2.2s7.9,1,7.9,2.2S335.1,228.8,330.8,228.8z"/>
		<path class="st22" d="M361.3,225.9c-2.2,0-5.8-0.7-7.3-0.3c-1.7,0.4-1.3,1.9-1.3,2.6c0,1.3,3.9,2.3,8.6,2.3s8.6-1,8.6-2.3
			c0-0.6,0.4-2-0.8-2.4C367.5,225.2,364,225.9,361.3,225.9z"/>
		<path class="st23" d="M361.3,228.7c-4.6,0-8.3-1-8.3-2.3s3.7-2.3,8.3-2.3s8.3,1,8.3,2.3S365.9,228.7,361.3,228.7z"/>
		<path class="st22" d="M336.8,218.8c-2.1,0-5.5-0.7-7-0.3c-1.6,0.4-1.2,1.9-1.2,2.5c0,1.2,3.7,2.2,8.2,2.2s8.2-1,8.2-2.2
			c0-0.5,0.4-1.9-0.8-2.3C342.7,218.1,339.4,218.8,336.8,218.8z"/>
		<path class="st23" d="M336.8,221.4c-4.4,0-7.9-1-7.9-2.2s3.5-2.2,7.9-2.2s7.9,1,7.9,2.2S341.1,221.4,336.8,221.4z"/>
		<path class="st22" d="M366.4,219c-2.1,0-5.5-0.7-7-0.3c-1.6,0.4-1.2,1.9-1.2,2.5c0,1.2,3.7,2.2,8.2,2.2s8.2-1,8.2-2.2
			c0-0.5,0.4-1.9-0.8-2.3C372.3,218.4,369,219,366.4,219z"/>
		<path class="st23" d="M366.4,221.7c-4.4,0-7.9-1-7.9-2.2s3.5-2.2,7.9-2.2s7.9,1,7.9,2.2S370.7,221.7,366.4,221.7z"/>
		<path class="st24" d="M325.1,219v-1.8c0-0.7,0.2-1.4,0.7-2c0.4-0.5,1-1.4,1.6-1.4h55.1c0.6,0,1.2,0.9,1.6,1.4
			c0.4,0.6,0.7,1.3,0.7,2v1.8h1.4v-1.8c0-1.1-0.4-2.3-1.1-3.2c-0.6-0.8-1.6-1.3-2.6-1.3h-55.1c-1,0-2,0.5-2.6,1.3
			c-0.7,0.9-1.1,2-1.1,3.2v1.8H325.1z"/>
		<path class="st25" d="M321.6,222.5v-1.9c0-0.8,0.2-1.6,0.7-2.2c0.4-0.6,1.1-1.6,1.8-1.6h56.9c0.7,0,1.2,1,1.7,1.6
			c0.5,0.7,0.7,1.4,0.7,2.2v1.9h1.4v-1.9c0-1.3-0.4-2.5-1.1-3.5c-0.6-0.9-1.6-1.4-2.7-1.4H324c-1.1,0-2.1,0.6-2.7,1.4
			c-0.7,1-1.1,2.2-1.1,3.5v1.9H321.6z"/>
		<path class="st26" d="M318,225.9v-2.1c0-0.9,0.2-1.8,0.7-2.5c0.5-0.6,1.2-1.8,1.9-1.8h58.6c0.7,0,1.2,1.2,1.7,1.8
			c0.5,0.7,0.7,1.6,0.7,2.5v2.1h1.4v-2.1c0-1.4-0.4-2.7-1.1-3.8c-0.6-0.9-1.6-1.5-2.7-1.6h-58.6c-1.1,0.1-2.1,0.6-2.7,1.6
			c-0.8,1.1-1.2,2.5-1.1,3.8v2.1H318z"/>
		<path class="st27" d="M314.4,229.4v-2.3c0-1,0.2-1.9,0.8-2.7c0.5-0.7,1.3-2,2-2h60.4c0.7,0,1.2,1.3,1.7,2c0.5,0.8,0.8,1.8,0.8,2.7
			v2.3h1.4v-2.3c0-1.5-0.4-2.9-1.2-4.1c-0.6-1-1.6-1.7-2.8-1.7H317c-1.2,0.1-2.2,0.7-2.8,1.7c-0.8,1.2-1.2,2.7-1.2,4.1v2.3H314.4z"
			/>
		<path class="st28" d="M310.9,232.9v-2.5c0-1.1,0.2-2.1,0.8-3c0.5-0.8,1.3-2.2,2.1-2.2h62.1c0.7,0,1.3,1.4,1.7,2.2
			c0.5,0.9,0.8,1.9,0.8,3v2.5h1.4v-2.5c0-1.6-0.4-3.1-1.2-4.5c-0.6-1.1-1.7-1.8-2.9-1.9h-62.2c-1.2,0.1-2.3,0.8-2.9,1.9
			c-0.8,1.3-1.2,2.9-1.2,4.5v2.5H310.9z"/>
		<polygon class="st24" points="368.5,269.8 317.5,269.8 311.9,276.6 311.9,302.9 317.5,309.7 368.5,309.7 374.1,302.9 374.1,276.6 
					"/>
		<rect x="301.2" y="259.2" class="st21" width="77.9" height="5.3"/>
		<polygon class="st24" points="379.1,259.2 301.2,259.2 304.2,256.1 309.4,256.1 308.1,257.5 372.8,257.5 374.1,256.1 382.1,256.1 
					"/>
		<polygon class="st26" points="379.1,259.2 381.9,256.2 381.9,261.4 379.1,264.5 		"/>
		<rect x="301.2" y="259.2" class="st29" width="77.9" height="1.3"/>
		<rect x="304" y="254.2" class="st30" width="78" height="1.8"/>
		<rect x="304" y="234.4" class="st31" width="78" height="2.2"/>
		<ellipse class="st32" cx="316.2" cy="244.6" rx="4.6" ry="5.9"/>
		<path class="st33" d="M320.8,244.6c0,3.2-2,5.9-4.4,5.9h-0.2c2.3-0.2,4.2-2.7,4.2-5.9s-1.9-5.7-4.2-5.9h0.2
			C318.9,238.7,320.8,241.3,320.8,244.6z"/>
		<path class="st34" d="M316.2,250.4H316c-2.4,0-4.4-2.6-4.4-5.9s2-5.9,4.4-5.9h0.2c-2.3,0.2-4.2,2.7-4.2,5.9
			S313.9,250.3,316.2,250.4z"/>
		<path class="st35" d="M316.2,246.1c-0.6,0-1.1-1.8-1.1-4.1s0.5-4.1,1.1-4.1s1.1,1.8,1.1,4.1S316.8,246.1,316.2,246.1z"/>
		<path class="st36" d="M316.2,245.6c-0.6,0-1.1-1.8-1.1-4.1s0.5-4.1,1.1-4.1s1.1,1.8,1.1,4.1S316.8,245.6,316.2,245.6z"/>
		<path class="st37" d="M316.2,245.9c-0.6,0-1.1-1.8-1.1-4.1s0.5-4.1,1.1-4.1s1.1,1.8,1.1,4.1S316.8,245.9,316.2,245.9z"/>
		<ellipse class="st32" cx="327.8" cy="244.6" rx="4.6" ry="5.9"/>
		<path class="st33" d="M332.4,244.6c0,3.2-2,5.9-4.4,5.9h-0.2c2.3-0.2,4.2-2.7,4.2-5.9s-1.9-5.7-4.2-5.9h0.2
			C330.4,238.7,332.4,241.3,332.4,244.6z"/>
		<path class="st34" d="M327.8,250.4h-0.2c-2.4,0-4.4-2.6-4.4-5.9s2-5.9,4.4-5.9h0.2c-2.3,0.2-4.2,2.7-4.2,5.9
			S325.5,250.3,327.8,250.4z"/>
		<path class="st35" d="M327.8,246.1c-0.6,0-1.1-1.8-1.1-4.1s0.5-4.1,1.1-4.1s1.1,1.8,1.1,4.1S328.4,246.1,327.8,246.1z"/>
		<path class="st36" d="M327.8,245.6c-0.6,0-1.1-1.8-1.1-4.1s0.5-4.1,1.1-4.1s1.1,1.8,1.1,4.1S328.4,245.6,327.8,245.6z"/>
		<path class="st37" d="M327.8,245.9c-0.6,0-1.1-1.8-1.1-4.1s0.5-4.1,1.1-4.1s1.1,1.8,1.1,4.1S328.4,245.9,327.8,245.9z"/>
		<ellipse class="st32" cx="339.4" cy="244.6" rx="4.6" ry="5.9"/>
		<path class="st33" d="M344,244.6c0,3.2-2,5.9-4.4,5.9h-0.2c2.3-0.2,4.2-2.7,4.2-5.9s-1.9-5.7-4.2-5.9h0.2
			C342,238.7,344,241.3,344,244.6z"/>
		<path class="st34" d="M339.4,250.4h-0.2c-2.4,0-4.4-2.6-4.4-5.9s2-5.9,4.4-5.9h0.2c-2.3,0.2-4.2,2.7-4.2,5.9
			S337,250.3,339.4,250.4z"/>
		<path class="st35" d="M339.4,246.1c-0.6,0-1.1-1.8-1.1-4.1s0.5-4.1,1.1-4.1s1.1,1.8,1.1,4.1S340,246.1,339.4,246.1z"/>
		<path class="st36" d="M339.4,245.6c-0.6,0-1.1-1.8-1.1-4.1s0.5-4.1,1.1-4.1s1.1,1.8,1.1,4.1S340,245.6,339.4,245.6z"/>
		<path class="st37" d="M339.4,245.9c-0.6,0-1.1-1.8-1.1-4.1s0.5-4.1,1.1-4.1s1.1,1.8,1.1,4.1S340,245.9,339.4,245.9z"/>
		<ellipse class="st32" cx="351" cy="244.6" rx="4.6" ry="5.9"/>
		<path class="st33" d="M355.6,244.6c0,3.2-2,5.9-4.4,5.9H351c2.3-0.2,4.2-2.7,4.2-5.9s-1.9-5.7-4.2-5.9h0.2
			C353.6,238.7,355.6,241.3,355.6,244.6z"/>
		<path class="st34" d="M351,250.4h-0.2c-2.4,0-4.4-2.6-4.4-5.9s2-5.9,4.4-5.9h0.2c-2.3,0.2-4.2,2.7-4.2,5.9S348.6,250.3,351,250.4z
			"/>
		<path class="st35" d="M351,246.1c-0.6,0-1.1-1.8-1.1-4.1s0.5-4.1,1.1-4.1s1,1.8,1,4.1S351.5,246.1,351,246.1z"/>
		<path class="st36" d="M351,245.6c-0.6,0-1.1-1.8-1.1-4.1s0.5-4.1,1.1-4.1s1.1,1.8,1.1,4.1S351.5,245.6,351,245.6z"/>
		<path class="st37" d="M351,245.9c-0.6,0-1.1-1.8-1.1-4.1s0.5-4.1,1.1-4.1s1.1,1.8,1.1,4.1S351.5,245.9,351,245.9z"/>
		<ellipse class="st38" cx="371.9" cy="244.9" rx="4.6" ry="5.9"/>
		<path class="st39" d="M376.5,244.9c0,3.2-2,5.9-4.4,5.9h-0.2c2.3-0.2,4.2-2.7,4.2-5.9s-1.9-5.7-4.2-5.9h0.2
			C374.5,239,376.5,241.6,376.5,244.9z"/>
		<path class="st40" d="M371.9,250.8h-0.2c-2.4,0-4.4-2.6-4.4-5.9s2-5.9,4.4-5.9h0.2c-2.3,0.2-4.2,2.7-4.2,5.9
			S369.6,250.6,371.9,250.8z"/>
		<path class="st41" d="M371.9,246.4c-0.6,0-1.1-1.8-1.1-4.1s0.5-4.1,1.1-4.1s1.1,1.8,1.1,4.1S372.5,246.4,371.9,246.4z"/>
		<path class="st42" d="M371.9,245.9c-0.6,0-1.1-1.8-1.1-4.1s0.5-4.1,1.1-4.1s1.1,1.8,1.1,4.1S372.5,245.9,371.9,245.9z"/>
		<path class="st43" d="M371.9,246.2c-0.6,0-1.1-1.8-1.1-4.1s0.5-4.1,1.1-4.1s1.1,1.8,1.1,4.1S372.5,246.2,371.9,246.2z"/>
		<g class="st14">
			<path d="M386.7,252.2l0.1-1.5c0.1-0.6,0.6-1,1.2-1l16.2,0.1c0.6,0,1.1,0.5,1.1,1.1c0,0,0,0,0,0v1.4c0,0.6-0.5,1.1-1.1,1.1
				c0,0,0,0,0,0h-16.3C387.2,253.4,386.7,252.9,386.7,252.2C386.7,252.3,386.7,252.3,386.7,252.2z"/>
		</g>
		<path class="st15" d="M385.8,251.6l0.1-1.5c0.1-0.6,0.6-1,1.2-1l16.2,0.1c0.6,0,1.1,0.5,1.1,1.1v1.4c0,0.6-0.5,1.1-1.1,1.1
			c0,0,0,0,0,0H387C386.4,252.7,385.9,252.3,385.8,251.6C385.8,251.6,385.8,251.6,385.8,251.6z"/>
		<rect x="47" y="262" class="st13" width="3.9" height="19.3"/>
		<rect x="47" y="311" class="st13" width="3.9" height="19.3"/>
		<polygon class="st12" points="130.4,349.1 48.3,347.5 48.3,244.4 130.4,244.9 		"/>
		<g class="st14">
			<path d="M122.2,280l1.8,0.1c0.8,0.1,1.3,0.8,1.2,1.6l-0.1,22.1c0,0.8-0.6,1.5-1.4,1.5h-1.7c-0.8-0.1-1.4-0.7-1.3-1.5v-22.2
				C120.8,280.8,121.4,280.1,122.2,280C122.2,280,122.2,280,122.2,280z"/>
		</g>
		<path class="st15" d="M123.1,278.8l1.8,0.1c0.8,0.1,1.3,0.8,1.2,1.6l-0.1,22.1c0,0.8-0.6,1.5-1.4,1.5H123
			c-0.8-0.1-1.4-0.7-1.3-1.5v-22.2C121.6,279.6,122.2,278.9,123.1,278.8C123,278.8,123,278.8,123.1,278.8z"/>
		<path class="st44" d="M-120.2,292.5c0,0,59.5-352.4,189.4-125c0,0,223.9-213.5,494.3-4.6V17.3h-683.9L-120.2,292.5z"/>
		<polygon class="st45" points="544.2,357.7 542.9,339.1 441.2,334.8 423.6,357.1 		"/>
		<rect x="428.3" y="92.5" class="st46" width="114.5" height="244.9"/>
		<path class="st47" d="M431.2,155.6h108.1c2,0,3.6,2,3.6,4.5l-0.6,166.3H427.8c-0.6-0.1-1-0.6-0.9-1.2V161
			C426.8,158,428.8,155.6,431.2,155.6z"/>
		<path class="st47" d="M428,65.8l115.6-0.2l-0.3,82c0,2.8,0.1,5.5-2.8,5H432.9c-2.5,0-4.5-2.5-4.5-5.6L428,65.8z"/>
		<polygon class="st48" points="438.2,355 446,342.3 524.6,341.4 530.5,355.3 533,337.3 436.4,337.3 		"/>
		<path class="st47" d="M438.2,355l-11.4,0.2v-23.1h116v23.1h-12.3c0,0,1.5-9.7-5.4-13.2l-82.4,0.9
			C442.7,342.9,438.1,346.4,438.2,355z"/>
		<path class="st49" d="M427.8,66c0,0,5.3-5.6,7.8-5.7l101.9-0.7c1.2,0,2.2,0.6,2.9,1.5l3.2,4.5L427.8,66z"/>
		<path class="st50" d="M426.8,326.2h4.7l-1-170.3h-0.8c-1.5,0.1-2.6,1.4-2.6,2.9L426.8,326.2z"/>
		<path class="st50" d="M432.7,152.6L430.6,66c0,0-2.6,0.1-2.8,0l0.6,81.5C428.6,152.2,432.7,152.7,432.7,152.6z"/>
		<g class="st51">
			<polygon class="st52" points="443.6,104.7 443.5,141.5 436.9,141.5 437,104.4 			"/>
		</g>
		<polygon class="st52" points="442.7,100 442.6,136.8 436,136.8 436.1,99.7 		"/>
		<g class="st51">
			<polygon class="st52" points="443.6,186.5 443.5,241 436.9,241 437,186.1 			"/>
		</g>
		<polygon class="st52" points="442.7,179.6 442.6,234 436,234 436.1,179.2 		"/>
		<rect x="428.4" y="326.3" class="st46" width="114.5" height="5.8"/>
		<path class="st53" d="M285.9,257.1c18.6,9.3,30.2,17.9,39.2,29.9s6.4,22.9-0.2,25.9c-11.4,5.3-36.7,1.8-56.7-23.3"/>
		<path class="st54" d="M277.7,240.8c4.8,2.7,9.8,6.8,15.3,11.5c4.1,3.5,10.4,8.6,12.4,11.4s-0.5,3.1-10,11.1
			c-16.4,13.8-17.3,28.9-21.2,29.1s-12.8-9.2-18.1-13.2"/>
		<path class="st55" d="M258.1,238.1c4.5-3.1,20,2.3,30.2,12.2c10.5,10.3,14.5,12.4,15.7,14.5s-4,2.4-13.5,11.8
			c-9.6,9.6-10.3,14.6-12.4,15.3s-18-12.3-24.3-23.9C250.1,259.1,247.6,245.4,258.1,238.1z"/>
		<path class="st56" d="M303.6,261.6c2.9-1.3,4.4,3.9,6.8,5.7s3.7,4.6,1.8,5.3c-6.8,0.1-14.8,7.2-19.9,20.6
			c-5.4,13.9-2.4,19.7-5.9,20.6s-13-4.8-13.2-7.5S279.1,268.4,303.6,261.6z"/>
		<path class="st57" d="M302.8,262.8c3.4-0.7,4.5,3.7,6,4.9s2.1,2.7-2,3.9s-15,9.3-18.8,25.4c-1.4,2.8-9.9,2.6-9.8-3.7
			S289.5,265.5,302.8,262.8z"/>
		<path class="st58" d="M182.4,210.7c9.2,5.4,13.6,25,3.3,29.3c-12.4,5.9-7.2,20.1,26.6,19.3s34.4-19.4,22.4-23.9
			c-10.3-3.8-9-23.7-4.8-27.3"/>
		<path class="st54" d="M275.8,281.9c0.9,9.2,2.1,37.7,4.5,60.8c1.8,17.1,6.2,44.7,7.4,58.4c0.5,4.8,2.1,9.9,1.5,11.3
			c-2.2,5.3-15.2,15.9-49.7,15.5s-67.8-16.8-75.1-13.8c-8.2,3.4,1.5-29.7-1-54.7c-0.4-3.8-8.3-46-12.4-57.7
			c-4.7-26.6,0.2-38.1,5.9-46.4c3.4-5,13.6-9.9,20.7-12.3c4.3-2.9,9.1-4.4,10.9-4.1c4.9,0.1,6.2,9.6,20.8,10.5
			c15.7,1.1,22.6-7.3,22.3-15.8c1.1-1.5,8.2-1.6,11.8-0.6c9.8,0.2,19.1,0.5,23.1,2.7"/>
		<path class="st55" d="M199.4,418.9c34.2,13.9,78.9,7.8,87.4-5.6c1.5-2,1.4-7.2-1.3-7.4c-16.6,19.6-64.4,17.1-87.6,5.4
			c-10.5-4.2-17.3-6.8-20.7-6.2s-2.9,5.7,1.3,6.4S189,414.5,199.4,418.9z"/>
		<path class="st55" d="M180.1,245.9c-3.6-0.2-16.7,4.8-18.1,8c-1.7,12.1,16.5,73.9,20.6,83c5.6,12.5,14.3,31.5,23.3,43.5
			c-2.2,2.9-12.5-11.4-17.2-16.9c-1.1,11.5-0.6,22.3-7.1,38.4c17.1,6.3,31.9,16.7,63,15.8s39.9-11.9,40.8-14.5
			c-1.1-10.5-7.4-58.6-9.2-74.3c-1.1-9.9-0.5-35.7-2.4-58.1c-1.3-15.6-6.8-27.5-4.2-32.3c-7.3-6.6-24.9-3.6-24.9-3.6
			c0.9,12.5-4.9,21.9-22.1,27.1C206.8,266.6,187,259.8,180.1,245.9z"/>
		<path class="st57" d="M224.5,305.1c-3.7-5.3-10.7-7.3-16.6-4.8c-7.4,3.2-5.4,33,4.4,38.8s16.6-3.9,15.5-8.8s-6.7-10-7.9-7.8
			s-1,7.2-5.5,7.6s-9.8-19.1-2.6-22.6s5.7,3.9,8.3,4.3S226.6,308.3,224.5,305.1z"/>
		<path class="st57" d="M232.6,305.6c-5.6-1.3-9.5,7.3-7.4,15.9c1.6,6.3,5,11.8,10.3,9.9C243.2,328.5,245.9,308.7,232.6,305.6z
			 M231.4,322.1c-3.3-4.1-0.3-11.1,3.4-10.9c3.3,0.2,5.2,5,3.6,10C237.3,324.9,233.1,324.2,231.4,322.1L231.4,322.1z"/>
		<path class="st57" d="M243.9,335.5c7.7,4.2,14.5-2.9,15.3-14.5c0.6-10-8.5-18.5-14.4-15.8c-5.4,2.6-4.4,8-4,13.4
			C241.4,327.2,239,332.8,243.9,335.5z M245.5,328.9c-1.3-2.2-1.3-12.5,0.7-13.1c4.1-1.1,7.8,2.7,6.3,9.9
			C251.9,328.6,247.6,332.5,245.5,328.9z"/>
		<path class="st57" d="M252.7,298.2c-0.3,2.9,5.5,5.6,7.4,18.4c1.3,8.4-1.8,13.4-0.2,15.1s10.9,0.4,13.5-3s3-13.6,0.8-14.3
			s-2,4.3-3,6.4s-5.9,5-6.7,2.6s2.4-20.7-0.6-24.4S252.9,296.5,252.7,298.2z"/>
		<path class="st57" d="M229.1,353.2c1.8-0.7,9.4-0.9,10.1,0.9s1.9,5.9,0.1,7.7s-8.5,2.7-9.8-0.4S228,353.7,229.1,353.2z"/>
		<path class="st57" d="M243.4,352.8c-0.5,1.5,0.1,7.3,1.7,8.5s10.1-1.6,10.6-4.2c0.5-2.6,0.5-7.5-2.2-7.6S244.1,351,243.4,352.8z"
			/>
		<path class="st57" d="M214,343.9c6.8,13,43.1,9.3,53.3-8.5c4.8,0.4,6.5-2.9,2.2-4.4s-5.6,1.6-5.2,3.9s-7.6,11.5-25.8,14
			s-23.3-4.1-22.5-6s0.5-7.8-4.7-3.5S212.1,345.1,214,343.9z"/>
		<path class="st55" d="M190.6,240.8c-1.3-1.5-9.5,0.9-9.3,3.9c0.4,5.2,11.7,19.8,38.8,15.4c25.1-4,24.4-22.8,22.5-25
			s-10.2-2-10.5,0c-0.3,2.5,0.4,12.7-15.4,15C200.6,252.4,195.6,246.5,190.6,240.8z"/>
		<path class="st59" d="M233.4,236.7c-0.5,17.1-33.3,19.8-44.2,4c-7.6-1-1,14.4,19,18.1c16.1,3,27-3.7,29.5-10.9
			C241.2,237.4,233.5,232.4,233.4,236.7z"/>
		<path class="st60" d="M264.6,138.9c3.4-0.5,9.6-11.7,18.1-6.2c5.2,3.4,3.1,25.7-10.5,28.8c-5.6,1.3-9.3-6.7-9.4-6.9"/>
		<path class="st61" d="M270,149.2c0.2-8.6,7.8-12.4,11.2-13.5c-4.5,5.7-6.2,20.2-5.4,22.8"/>
		<path class="st62" d="M222.2,225.6c-20.1,0-41.4-7-58.6-19.1c-18-12.8-29.3-29.6-31.8-47.4c-3.5-25.4,1.9-47.2,15.6-62.9
			C160.9,80.9,181.6,72,204.3,72c20.6,0,39.4,7.6,50.4,20.4c17.4,17.8,20.9,44.2,22.6,56.8c0.3,2.2,0.5,3.9,0.8,5
			c3.6,16.6,0.1,33.9-9.6,47.7c-8.9,12.5-22.4,21.3-35.4,23C229.4,225.4,225.8,225.6,222.2,225.6z"/>
		<path class="st60" d="M150.6,176.3c-5.3-2.7-23.5-13.1-30.1-2.7c-5,7.9,10.8,28.2,24.9,27.4c7.3-0.4,9.1-10.4,9.1-10.7"/>
		<path class="st60" d="M162.3,145.7c0.2,27.6,24.4,82.6,77.5,73.2c23.8-4.2,44.7-38.4,35.6-70.7c-2.8-9.9-2.7-20.3-12-37.1
			c-4.5-2.8-10.3-6.1-10.3-6.1c3,4.1,0.6,11.3-3,11.6c-5.3,0.6-16.4-3.8-21.5-9.1c1.9,7.8,0.6,14.1-4.9,16.7
			c-9.7,4.7-38.4-10.2-46-11.6C167.8,119.4,162.2,137.5,162.3,145.7z"/>
		<path class="st63" d="M231.8,163.4c1-2.6,4.8-2.2,3.8,1.6S230.5,166.7,231.8,163.4z"/>
		<path class="st64" d="M188.3,122.7c3.2-1.5,11.7,1.5,12.1,3.5s-11.3,0.2-24.6,13.2C174.9,133.7,185,124.2,188.3,122.7z"/>
		<path class="st65" d="M238.7,167c2.8,0.4,3.1,1.7,6.1,2.2c4,0.8,1.6,3.7-2.4,4.6c-4.1,1.1-8.2,1.8-12.4,2.1
			c-4.1,0.2-3.2-3.1-0.2-4.5C232.2,170.4,235.4,166.5,238.7,167z"/>
		<path class="st66" d="M241.4,170.8c0.6-0.9,5.1-0.8,4.8,0.2C245.6,172.6,240.3,172.7,241.4,170.8z"/>
		<path class="st65" d="M225.7,166.8c-3.7,3.2-3.2,9.6,3.7,9c2.2,0-0.4-1.8-0.4-1.8C225.5,173.4,225.1,171.4,225.7,166.8z"/>
		<path class="st66" d="M233.1,172.2c-1-0.8-5.6,1.3-4.9,2.1C229.5,175.7,234.9,173.6,233.1,172.2z"/>
		<path class="st67" d="M145.5,183c-10-7.4-19.9-7.6-22.7-2.7c6.1,0.1,17.4,4.1,18.3,7.1c-2.4,4.7,3.6,6.9,6.1,6.1
			C139.4,189.5,145.5,183,145.5,183z"/>
		<path class="st61" d="M210.5,187.2c-3.3,3.6,1.7,5.2,7,3.2C215,189.5,214.3,183.1,210.5,187.2z"/>
		<path class="st61" d="M263.8,176.4c3.4,3.5,0.3,4.9-5.2,4.1C260.8,179.1,260.7,173.2,263.8,176.4z"/>
		<path class="st68" d="M259.7,180.4c0.7,0-1.1,3.5-3.7,10.4c-1.3,3.5-4.3,5.8-8.3,7.7c-7.5,3.5-16.9,2.9-21.8-0.7
			c-3.5-2.6-9.1-6.6-11.6-7.7c-0.7-0.3,0.6-0.1,1.5-0.5C225.4,185.8,242,187,259.7,180.4z"/>
		<path class="st69" d="M249.7,185.4c2.1,3.2-8.5,14.9-17,13.2s-12.3-8.6-11.4-10.6C225.7,187.9,247.8,182.6,249.7,185.4z"/>
		<path class="st70" d="M253.6,181.7c0,3.1-2.9,6.9-12.7,8.5c-11.8,1.9-15.4,0.8-20.1-1.3C229.4,186.3,243.4,184.3,253.6,181.7z"/>
		<path class="st71" d="M242.9,198.4c-8,1.6-15.7,0.2-21.8-4.1c4.5,3.9,12.2,10.4,21.7,8.4s14-11.2,15-16.4
			C256.6,188.4,250.9,196.7,242.9,198.4z"/>
		<path class="st72" d="M243.8,182c-3,1.9-2.7,0.2-7.9,1.3c-3.9,0.8-12.7,4.6-20.4,5.6c7.4,1.1,17.1-0.7,26.4-2.4
			c6.2-1.1,12.2-3.1,17.8-6.1C253.6,181.8,247.6,179.6,243.8,182z"/>
		<path class="st73" d="M212.2,187.9c-1.9,2.6,5,2.9,9,1.4c-1.3-0.1-4.3,0.1-6.5-0.8C212.9,187.6,212.8,187.1,212.2,187.9z"/>
		<path class="st73" d="M255.8,182.4c2.6-1.3,4.5-2.1,5.1-3.7c0.4-1,1.1-1.7,1.6-1c1.5,2-1.7,1.8-4.4,6.1"/>
		<path class="st74" d="M252,184.4c0.5,4.1-19,9.4-24.4,4.8C234.4,189.8,249.2,186,252,184.4z"/>
		<path class="st64" d="M243.9,112c-2.7,0.5-7.3,10-4.9,9.1c11.7-4.8,19-0.2,19.3-1.6C259,116.5,247.4,111.3,243.9,112z"/>
		<path class="st75" d="M126,138.7c-3.4,11.6-4.2,24.2,3.9,30.4c0,0,14.3,0.4,24,14.7c0,0,3.3,1.5,7.9-1.1
			c-9.2-16.3-13.8-48.9,0.1-63.5c-6.8,2.4-16.9,15.7-17,25.9"/>
		<path class="st75" d="M212.2,89.9c9.9,2.7,11.1,20.3,11,26.2c5.3-7.5,5.7-21.7-9.2-27.8"/>
		<path class="st75" d="M226.2,54.8c-47.8-14.1-94,10.8-95.8,35.6c-20.7-2.2-21.2,61.1-0.9,78.6c0,0,14-9.3,32.2,13.6
			c-24.8-36.9-6.1-64.5,5.9-76.1c0,0-3.7-5.7-9.9-7.6c15.1,0.4,45.4,21.9,53.6,20.1c6.3-1.4,12.5-19.4,5-29.3
			c0,0,24.9,22.2,30.3,19.8c4.5-2,4.2-13-8.8-20.4c14.5,3.2,26.4,13.8,31.2,27.8C280.8,103.4,271.2,68,226.2,54.8z"/>
		<path class="st75" d="M135.6,92.2c-6.6-5.4-5.3-14.6-3.6-17.3c-5-0.8-7.1,8.3-4.3,11.9c-9.8-4.6-13.7,3.3-14.4,7.8
			c4.5-4.4,14-3.8,16.3-1.1"/>
		<path class="st75" d="M162.2,105.3c-15.5,9-22.9,46.9-13.1,66.6c-9.2-8.8-19.1-29.6-17.8-41.9c-5.2,7.6-9.9,19.6-5.3,28.5
			c-4.9-5.7-22.9-32-1.3-57.8c5.5-3,13.8-0.1,13.8-0.1c-9.1,5.7-12.5,15.8-14,28.9c5.5-13.3,14.4-23.6,20.9-25.3
			S162.2,105.3,162.2,105.3z"/>
		<path class="st76" d="M238.8,307.9c-3.6-10.1-35-29.9-40.3-36.1c-14.9,2.3-24.5,17.3-24.8,27.1c6.2,13.2,37.1,40.4,63.9,40.4"/>
		<path class="st54" d="M182.9,255c4.8,2.8,9.8,6.8,15.3,11.5c4.1,3.5,10.4,8.6,12.4,11.5s-0.4,3.1-9.9,11.1
			c-16.4,13.7-17.3,28.9-21.2,29.1s-12.8-9.2-18.1-13.2"/>
		<path class="st55" d="M163.3,252.4c3.8-3.9,20,2.2,30.2,12.2c10.5,10.3,14.5,12.4,15.7,14.5s-4,2.4-13.4,11.8
			c-9.6,9.6-10.3,14.6-12.4,15.3s-18-12.3-24.3-24C155.3,273.3,154.5,261.4,163.3,252.4z"/>
		<path class="st56" d="M208.8,275.8c2.9-1.3,4.4,3.9,6.8,5.7s3.7,4.6,1.8,5.3c-6.8,0.1-14.8,7.2-19.9,20.6
			c-5.3,13.9-2.4,19.7-5.9,20.5s-13-4.8-13.2-7.5S184.3,282.6,208.8,275.8z"/>
		<path class="st57" d="M208,277.1c3.4-0.7,4.4,3.7,6,4.9s2.1,2.7-2,3.9s-15,9.3-18.8,25.4c-1.4,2.8-9.9,2.6-9.8-3.7
			S194.8,279.8,208,277.1z"/>
		<path class="st76" d="M315.5,314.9c8.1-0.3,15.5-2.3,20.3-9.4c8.7-13,4.3-63.6,1.9-74.5l-21.2-2c0,0-15.3,38.5-11.5,54.7"/>
		<path class="st76" d="M310.6,229.5c0.3,0.8-10.3-30.5,3.3-35.8c5.2-2,17.1-9.2,23.5-1.6c9,10.6,6.6,24.6,0.5,39.9"/>
		<path class="st77" d="M250.3,209.3c10.8,10.6,44.5-30.3,32.3-38.2C269.6,162.7,240.7,199.9,250.3,209.3z"/>
		<path class="st78" d="M250.4,209.9c11.6,11,45.5-30.4,32.5-38.7C269,162.4,240.1,200.2,250.4,209.9z"/>
		<path class="st79" d="M255.4,209.1c2-3.9,70.9,9.7,71.1,12.6s-16.1,23.2-23,22.4S254.1,211.8,255.4,209.1z"/>
		<path class="st80" d="M251.3,211.4c0,0,42.3,28.5,50.2,32.2c10.1,4.7,32.2-23.6,25-31.8s-33.2-32.2-43.4-40.4
			C270.4,161.3,238.3,200.9,251.3,211.4z"/>
		<path class="st81" d="M302.1,242.1c7.7,7.5,32.2-22.5,23.5-28C316.2,208.2,295.3,235.5,302.1,242.1z"/>
		<path class="st82" d="M270.2,174.9c2,1.7,44.9,35.6,45.3,35.5s0.4-1,3.4-0.7c-2.6-2.3-42.6-35.7-44.3-36.6
			S268.5,173.4,270.2,174.9z"/>
		<path class="st76" d="M333.8,205.2c-12.5,1.5-16.5-1.9-28.3-12.2s2.3-16.2,10.1-14.7s16.2,7.7,21.9,13.8"/>
		<path class="st76" d="M221.9,304.9c1.5-17.3,27-53.4,27.7-58.3c0.4-3.5-3-25.3,1-35.1c2.7-6.6,18.6-12,26.1-10.6
			s17.1,9.2,16.5,16.7s-13.1,10.5-11.1,18.9c1.3,5.3,4.5,9-9.6,20c-6.3,23.6-9.9,71.6-31.3,82.9c-5.1,0.8-13.4-1.3-13.4-1.3"/>
		<path class="st83" d="M280.5,202.4c-2.3-0.1-4.6,0-6.9,0.6c-2.3,0.5-4.5,1.3-6.5,2.4c-2.1,1-4.1,2.3-5.9,3.7
			c-0.9,0.7-1.8,1.5-2.6,2.3c-0.9,0.8-1.6,1.7-2.2,2.7c0.5-1,1.3-2,2.1-2.8c0.8-0.8,1.7-1.6,2.6-2.4c1.8-1.5,3.8-2.7,5.9-3.8
			c2.1-1.1,4.3-1.9,6.6-2.5c2.3-0.6,4.6-0.8,7-0.7L280.5,202.4z"/>
		<path class="st83" d="M286.9,206.2c-2.2,0.3-4.3,1-6.2,1.9c-2,0.9-3.9,2-5.7,3.3c-1.8,1.2-3.5,2.6-5.1,4.1c-1.7,1.5-3,3.2-4,5.2
			c0.9-2,2.2-3.8,3.9-5.3c3.2-3.1,6.8-5.7,10.8-7.6c2-1,4.1-1.7,6.3-2.1L286.9,206.2z"/>
		<path class="st83" d="M292.3,212.9c-3.5,0.7-6.8,2.3-9.5,4.6c-1.4,1.1-2.7,2.4-3.9,3.7c-1.2,1.3-2.1,2.9-2.8,4.6
			c0.6-1.7,1.5-3.3,2.7-4.7c1.1-1.4,2.4-2.7,3.8-3.9c2.8-2.4,6.1-4.1,9.6-4.9L292.3,212.9z"/>
		<path class="st84" d="M304.3,192c-1.6-7.8,12.7-11.6,18-11.3"/>
		<path class="st84" d="M309.9,196.8c3.8-7.3,14.8-12.1,20.8-11"/>
		<path class="st84" d="M317.2,202.4c2.7-5.6,13.9-9,18.5-7.5"/>
		
			<ellipse transform="matrix(0.9271 -0.3748 0.3748 0.9271 -41.614 86.352)" class="st85" cx="201.2" cy="150.2" rx="13.6" ry="13.9"/>
		
			<ellipse transform="matrix(0.9265 -0.3764 0.3764 0.9265 -43.0475 88.4621)" class="st86" cx="204.9" cy="154.4" rx="8.6" ry="8.5"/>
		
			<ellipse transform="matrix(0.9268 -0.3756 0.3756 0.9268 -42.8771 85.7054)" class="st87" cx="198.4" cy="152.8" rx="1.6" ry="1.5"/>
		
			<ellipse transform="matrix(0.9527 -0.304 0.304 0.9527 -31.2139 82.5086)" class="st85" cx="249.3" cy="141.5" rx="12.4" ry="13.9"/>
		
			<ellipse transform="matrix(0.9527 -0.3039 0.3039 0.9527 -32.4648 83.6052)" class="st86" cx="252.4" cy="146.1" rx="7.9" ry="8.5"/>
		<circle class="st87" cx="246.5" cy="143.9" r="1.5"/>
		<polygon class="st88" points="-106.8,406.8 -103.5,507.7 536.3,507.7 535.5,408.1 		"/>
		<polygon class="st89" points="16.5,346.9 -106.8,406.8 535.5,408.1 465.7,350.1 		"/>
		<polygon class="st90" points="336.7,25.7 120,25.7 11.7,213.4 120,401 336.7,401 445,213.4 		"/>
		<ellipse class="st45" cx="301.6" cy="393" rx="29.6" ry="8.2"/>
		<path class="st91" d="M335.8,357c-2.4-25.1-15.7-35.6-15-47.4s2.8-17.3,2.8-17.3h-5.7c-16.8-1.1-19.7-12.6-24.8-16
			c-5.6-3.8-21.5-1.8-21.5-1.8c2.1,3.9,3.9,8,5.5,12.1c1.5,4.2,4.2,11.6,5.1,19.1c0.1,1.2,0.2,2.5,0.3,3.9
			c0.7,11.7-12.6,22.2-15,47.4s12.2,37.7,23.6,37.7l10.5-0.1l10.5,0.1C323.6,394.7,338.3,382.1,335.8,357z"/>
		<path class="st92" d="M319.1,321.8c-1.5-3-2.5-6.3-3.1-9.6l-14.5,0l-14.6,0c-0.6,3.3-1.7,6.6-3.1,9.6c-2.3,4.6-12.1,23.6-12,39.8
			s9.9,27.7,19.9,27.7h19.7c10,0,19.8-11.5,19.9-27.7S321.4,326.3,319.1,321.8z"/>
		<path class="st91" d="M320.8,309.6c1.9-8.6,18.4-15.2,26.6-4.5s-9.6,37.3-9.6,42s1,8.2-2.3,7.5s-4-8.4-2.9-13.1
			s9.9-15.3,10.1-25.3s-8.2-11.1-12.5-8.5s-4.4,5.7-4,7.4s-2.1,6-4.7,3.8S320.8,309.6,320.8,309.6z"/>
		<path class="st93" d="M292.8,394.7c0,0-12.1,0.4-18.8-9.9s-6.6-19-6.4-26.4s3.5-19.9,9-30.5s6.4-14.6,6.1-18.3s-0.3-7.7-3.8-18.3
			c-1.8-5.8-4.2-11.5-7.2-16.8c4.2-0.6,8.4-0.8,12.6-0.5c6.8,0.4,8.9,2,10.4,3.4s6.6,10.9,15.4,13.4c2.4,0.8,5,1.3,7.5,1.5
			c2,0.1,4,0.1,6,0c0,0-3.9,1.3-14.3-1.2s-13.9-11.8-16-13.7s-6-2.9-12.4-2.9s-8,0.5-8,0.5c2.7,5.4,5,10.9,6.9,16.5
			c3.5,9.9,3.8,16.1,3.6,21.3s-13.9,29.1-14.5,45.5s4.1,23.2,7.8,28.3S287,394.4,292.8,394.7z"/>
		<path class="st93" d="M322.8,319.5c0,0,2.5,0.1,3.2-1.9s0.1-3.4,0.5-5.6s4.7-6.8,10.6-5.1s5.7,9.2,5,12.7
			c-0.8,4.3-2.5,8.4-4.8,12.1c-3.2,5.5-4.2,8-4.7,9.8c1.2-2.6,2.6-5.2,4.1-7.6c3.2-5.2,5.8-10.4,6.4-15.2s0-11-5.7-12.6
			s-10.2,2.2-11.1,4.4s-0.6,4.6-0.7,6.1C325.5,318.1,324.3,319.3,322.8,319.5z"/>
		<path class="st93" d="M313.7,394.7c0,0,15.8-3,19.8-17s2.1-23,2.1-23s0.1,14-3.1,22.9S322.5,392.1,313.7,394.7z"/>
		<path class="st93" d="M323.7,292.3c0,0-2.8,9.8-2.8,17.3c0,0,2-8.6,12.6-9.8s16.2,5.3,16.2,12.4s-2.4,12-5.4,19.8
			s-6.4,12.4-6.4,14.9s2,8.8-2.3,7.9c1,0,1.7-0.9,1.7-1.8c0,0,0,0,0,0c0-1.8-0.5-4.7-0.2-6.7s7.6-13.6,10.5-25.3s0.3-16-3.5-18.5
			s-9.3-2.7-13.9-1.3c-3.6,1.1-6.5,3.7-8,7.1c-0.6,1.4-1,2.9-1.2,4.4c0,0-0.9-0.9-0.5-7c0.3-4.2,0.9-8.4,1.7-12.6l-1.6-0.2
			L323.7,292.3z"/>
		<path class="st93" d="M323.1,319.4c0,0,3.5,7.2,5.7,12.1c1.4,3.2,2.6,6.4,3.6,9.7v0.5c0,0-7.5-18.3-10-22.3L323.1,319.4z"/>
		<path class="st94" d="M277.8,276c0,0,6,10.3,8.7,20.7s2.2,15.2,2.2,15.2s9.8,0.1,11.3-0.3s-0.1-12.4-3-21.6s-6.8-12.5-10.5-13.9
			S277.8,276,277.8,276z"/>
		<path class="st95" d="M289,312.1c-0.2,3.3-1,6.5-2.3,9.5c-2.3,5.8-9.8,23.5-9.1,39.2s7.9,24.6,16.8,25.6c4.9,0.6,9.9,0.7,14.9,0.3
			c0,0-11.1,0.9-16.9-14.1s-0.4-34,2.7-43.3s4.3-14.8,4.5-17.1L289,312.1z"/>
		<path class="st96" d="M291.8,389.3h19.1c0,0,16.1-0.1,19.4-20.4s-8.1-40.6-10.4-45.7s-3.1-7.4-3.8-11.1h-7.6
			c0.6,3.7,1.6,7.4,3.1,10.8c2.5,5.5,11,16.2,12.6,35.9s-7.3,28.1-13.8,29.3S291.8,389.3,291.8,389.3z"/>
	</g>
</g>
<path class="st97" d="M167.2,35.5c0.7,0.4,0.2,0.1-0.3-0.3c-0.5-0.4-1-0.8-1.6-1c-0.9-0.4-1.8-0.8-2.8-1.1c-2.2-0.4-4.5-0.7-6.8-0.7
	c-5.2-0.3-9.9,2-14.4,4.7c-4,2.5-7.5,5.7-10.4,9.4c-1.7,2.2-3,4.7-3.8,7.3c-0.4,1.2-0.7,2.4-0.7,3.6c0.1,1.1,0.3,2.1,0.6,3.2
	c0,1.4,1.1,2.6,2.4,2.6c0.5,0,0.9-0.1,1.3-0.3c0.6-0.3,2-0.4,2.8-0.8c0.8-0.4,1.5-0.8,2.2-1.3c0.4-0.3,3.5-2.7,1.2-1.3
	c1.5-0.8,2.9-1.8,4.3-2.9c1.1-1,2.3-1.9,3.6-2.7c1.6-1,3.1-2.1,4.7-3c3.7-2.3,5.9-2.8,9.6-5.4c2.3-1.7,6.3-2.8,8.1-5.4
	c1.3-0.9,1.6-2.6,0.7-3.9C167.7,36,167.5,35.7,167.2,35.5z"/>
<path class="st98" d="M288.1,383c5.6,1.8,11.9,1.6,17.7,1.5c2.9-0.1,5.9-0.3,8.8-0.8c3-0.4,6.4-0.9,9-2.2c1.8-0.9,2.5-3,1.7-4.8
	c-0.5-1.1-1.5-1.8-2.7-2c-2.8-0.4-5.6-0.5-8.4-0.3c-2.9,0-5.8,0.1-8.6,0.4L288.1,383z"/>
<path class="st98" d="M359.8,361.4c-0.1-0.2-0.3-0.4-0.4-0.5c-1-0.7-2.2-1-3.4-0.7c-4.3,0.8-7,3.3-10.3,5.6
	c-2.5,1.8-5.9,2.6-8.7,3.9c-3.3,1.5-6.5,3.3-7.5,6.6c-0.4,1.2,0,2.6,1,3.4c2.9,2.5,6.9,2.4,10.6,1.6c3.5-0.7,6.9-2,10.1-3.6
	c5.4-3,11.2-9.6,9-15.6C360,361.8,359.9,361.6,359.8,361.4z"/>
<path class="st99" d="M357.1,62.9c-5.4-3.3-11.2-5.8-17.3-7.3c-10.8-3-22-4.1-33.1-4.9c-17-1.9-34.1-2.8-51.1-2.8
	c-19.8-0.1-39.6,0.7-59.4,2.7c-16.2,1.6-32.5,3.8-48.2,8.3H148c-0.1,0-0.2,0-0.2,0.1l-0.6,0.2c-5.1,1.5-10.5,3.5-12.9,9
	c-2,4.9-2,10.4,0.1,15.3c5,12,19.3,15.2,30.3,16.7c14.1,2,28.6,2,42.9,2.3c14.4,0.2,28.8,0.1,43.2-0.4c28.8-1,57.6-3.6,86.1-7.9
	c6.3-1,12.6-2.2,18.4-4.8c5.1-2.3,11-6,10.9-12.6C366.2,70.6,361.6,65.8,357.1,62.9z"/>
</svg>
