<svg id="Layer_1" data-name="Layer 1" xmlns="http://www.w3.org/2000/svg" viewBox="0 0 490 140"><defs><style>.cls-1{fill:#ffdb27;stroke:#fff;stroke-miterlimit:10;stroke-width:4px;}.cls-2{fill:#323232;}</style></defs><path class="cls-1" d="M80.9,135H409.1C451,135,485,105.9,485,70h0c0-35.9-34-65-75.9-65H80.9C39,5,5,34.1,5,70H5C5,105.9,39,135,80.9,135Z"/><path class="cls-2" d="M72.17,54.87V37.47L66.05,47.83H60.77l-5.92-9.44V54.87l-6.36,0V27h7l8.12,13.88L72.17,27h6.36V54.87Z"/><path class="cls-2" d="M97.49,54.87c0-.19,0-.42,0-.68s0-.47-.07-.76,0-.6-.06-.92a6.44,6.44,0,0,1-2.6,2.06,8.56,8.56,0,0,1-3.41.7,6.32,6.32,0,0,1-5.11-2.16A9.28,9.28,0,0,1,84.37,47q0-4.85,2.94-7.46t8.38-2.62c.59,0,1.13,0,1.62,0s1,.07,1.46.14,1,.15,1.5.26a17.21,17.21,0,0,1,1.7.44V49.11c0,.61,0,1.26,0,1.94s.07,1.3.12,1.86.11,1.32.16,2Zm-.84-13a7.1,7.1,0,0,0-1.26-.2c-.38,0-.73,0-1.06,0A4.27,4.27,0,0,0,90.91,43,5.86,5.86,0,0,0,89.69,47a4,4,0,0,0,.73,2.56,2.57,2.57,0,0,0,2.08.88A3.68,3.68,0,0,0,94.11,50a4,4,0,0,0,1.32-1,5,5,0,0,0,.9-1.56,6.11,6.11,0,0,0,.32-2Z"/><path class="cls-2" d="M118.37,44.47l8.52,10.4h-7l-6.64-8.68v8.68h-5.32V27h5.32V43.07l6.48-5.8h7.64Z"/><path class="cls-2" d="M144.85,42.11a4.59,4.59,0,0,1-.71,2.48,5.94,5.94,0,0,1-2,1.9A11.21,11.21,0,0,1,139,47.71a17.59,17.59,0,0,1-4.08.44l-.48,0a6.33,6.33,0,0,0-.65,0,3.72,3.72,0,0,0,1.2,2.38,3.82,3.82,0,0,0,2.59.86,11.85,11.85,0,0,0,5.89-1.8v4.2a12,12,0,0,1-2.9,1.26,12.28,12.28,0,0,1-3.14.38,10.37,10.37,0,0,1-3.62-.6,7.39,7.39,0,0,1-2.74-1.74,7.74,7.74,0,0,1-1.72-2.72,10.07,10.07,0,0,1-.6-3.58,11,11,0,0,1,.7-4,9.34,9.34,0,0,1,2-3.14,8.67,8.67,0,0,1,3-2,10.15,10.15,0,0,1,3.88-.72,7.32,7.32,0,0,1,4.74,1.44A4.68,4.68,0,0,1,144.85,42.11Zm-5.32.4a1.37,1.37,0,0,0-.55-1.1A2,2,0,0,0,137.6,41a3.13,3.13,0,0,0-2.28.94,4.48,4.48,0,0,0-1.23,2.58,3.68,3.68,0,0,0,.64.08h.59Q139.54,44.55,139.53,42.51Z"/><path class="cls-2" d="M174.33,50a5,5,0,0,1-1.69,4,7.06,7.06,0,0,1-4.77,1.48,20.48,20.48,0,0,1-4.06-.4,12.2,12.2,0,0,1-3.2-1.08l.68-4.08a13.66,13.66,0,0,0,6.08,1.8,1.74,1.74,0,0,0,1.26-.38,1.21,1.21,0,0,0,.38-.86,1.53,1.53,0,0,0-.3-1,4.44,4.44,0,0,0-1.46-.94,24.42,24.42,0,0,1-2.82-1.44,9.15,9.15,0,0,1-1.92-1.5A5.26,5.26,0,0,1,161.43,44a5.48,5.48,0,0,1-.34-2,4.53,4.53,0,0,1,1.93-3.9,8.53,8.53,0,0,1,5.06-1.38,15,15,0,0,1,3,.26,13.58,13.58,0,0,1,3,1l-.64,4a9.42,9.42,0,0,0-2.75-1.1,12.41,12.41,0,0,0-2.63-.3,1.82,1.82,0,0,0-1.28.34,1.22,1.22,0,0,0-.34.9,1.32,1.32,0,0,0,.55,1.1,12,12,0,0,0,2.13,1.1,25,25,0,0,1,2.43,1.38,8.59,8.59,0,0,1,1.64,1.36,4.27,4.27,0,0,1,.9,1.48A5.29,5.29,0,0,1,174.33,50Z"/><path class="cls-2" d="M191.37,54.39a8.8,8.8,0,0,1-.34-.92c-.07-.24-.14-.59-.22-1a7.85,7.85,0,0,1-5.64,2.44,5.73,5.73,0,0,1-2.38-.49A6.15,6.15,0,0,1,180.87,53,5.79,5.79,0,0,1,179.61,51a7.85,7.85,0,0,1-.44-2.68c0-1.09,0-2.11.08-3s.09-1.83.12-2.69,0-1.71,0-2.57-.09-1.76-.2-2.72h5.32c.08.87.13,1.71.14,2.52s0,1.62,0,2.41,0,1.61-.08,2.43-.06,1.7-.06,2.62a4.28,4.28,0,0,0,.25,1.64,1.83,1.83,0,0,0,1.46,1.2,5.08,5.08,0,0,0,.71.06,3.73,3.73,0,0,0,.85-.16,2.81,2.81,0,0,0,1.21-.73,4.78,4.78,0,0,0,1.06-1.7,8,8,0,0,0,.46-3V37.27h5.32V48.9a20,20,0,0,0,.24,3,9.85,9.85,0,0,0,.64,2.45Z"/><path class="cls-2" d="M214.41,42.19a8.6,8.6,0,0,0-.88-.16,5.2,5.2,0,0,0-.72,0,4.07,4.07,0,0,0-3.46,1.56,7.63,7.63,0,0,0-1.18,4.65v6.67h-5.32V43.31c0-.65,0-1.22,0-1.7s-.05-.93-.1-1.35a12.14,12.14,0,0,0-.22-1.23c-.09-.41-.22-.87-.38-1.39h5.05c.08.32.16.6.23.84a4.49,4.49,0,0,1,.14.65c0,.21.06.43.08.66a6.74,6.74,0,0,1,0,.84A9.07,9.07,0,0,1,210,38a4.33,4.33,0,0,1,2.54-.76,3.61,3.61,0,0,1,.94.1,9.54,9.54,0,0,1,1.06.39Z"/><path class="cls-2" d="M232.13,42.11a4.59,4.59,0,0,1-.71,2.48,6,6,0,0,1-2,1.9,11.21,11.21,0,0,1-3.11,1.22,17.66,17.66,0,0,1-4.08.44l-.48,0a6.33,6.33,0,0,0-.65,0,3.72,3.72,0,0,0,1.2,2.38,3.82,3.82,0,0,0,2.59.86,11.85,11.85,0,0,0,5.89-1.8v4.2a12,12,0,0,1-2.9,1.26,12.28,12.28,0,0,1-3.14.38,10.37,10.37,0,0,1-3.62-.6,7.39,7.39,0,0,1-2.74-1.74,7.74,7.74,0,0,1-1.72-2.72,10.07,10.07,0,0,1-.6-3.58,11,11,0,0,1,.7-4,9.34,9.34,0,0,1,2-3.14,8.67,8.67,0,0,1,3-2,10.15,10.15,0,0,1,3.88-.72,7.32,7.32,0,0,1,4.74,1.44A4.68,4.68,0,0,1,232.13,42.11Zm-5.32.4a1.37,1.37,0,0,0-.55-1.1,2.05,2.05,0,0,0-1.38-.46,3.13,3.13,0,0,0-2.28.94,4.36,4.36,0,0,0-1.23,2.58,3.57,3.57,0,0,0,.64.08h.59Q226.82,44.55,226.81,42.51Z"/><path class="cls-2" d="M271.21,52.91a3.07,3.07,0,0,1-1.06,1.51,3.2,3.2,0,0,1-1.82.45,3,3,0,0,1-1.84-.49,3.43,3.43,0,0,1-1-1.63l-3.4-10.37L258.49,53a2.56,2.56,0,0,1-1,1.46,3.49,3.49,0,0,1-1.9.45,5.73,5.73,0,0,1-.84-.06,2.08,2.08,0,0,1-.76-.26,2,2,0,0,1-.68-.62,4.25,4.25,0,0,1-.56-1.13l-5.6-15.53h5.4l2.32,7.1c.08.26.17.57.26.92s.19.69.3,1,.23.81.36,1.25a6.64,6.64,0,0,1,.24-1l.26-.91c.09-.33.18-.64.26-.92l2.24-7.49h6.48l2.4,7.84a6.93,6.93,0,0,0,.22.76c.09.27.18.54.26.8a4.59,4.59,0,0,1,.24.9c.08-.26.16-.53.24-.82.13-.52.28-1,.44-1.48l2.36-8H277Z"/><path class="cls-2" d="M293,54.87a6.22,6.22,0,0,0-.05-.68c0-.22,0-.47-.06-.76s0-.6-.06-.92a6.4,6.4,0,0,1-2.61,2.06,8.53,8.53,0,0,1-3.41.7,6.33,6.33,0,0,1-5.11-2.16A9.33,9.33,0,0,1,279.89,47q0-4.85,2.94-7.46t8.37-2.62c.6,0,1.14,0,1.62,0a14.15,14.15,0,0,1,1.46.14c.49.06,1,.15,1.51.26a17.21,17.21,0,0,1,1.7.44V49.11c0,.61,0,1.26,0,1.94s.06,1.3.12,1.86.11,1.32.16,2Zm-.84-13a7.1,7.1,0,0,0-1.26-.2c-.38,0-.74,0-1.06,0A4.25,4.25,0,0,0,286.43,43,5.86,5.86,0,0,0,285.21,47a3.91,3.91,0,0,0,.73,2.56,2.57,2.57,0,0,0,2.08.88,3.64,3.64,0,0,0,1.6-.36A4,4,0,0,0,291,49a4.78,4.78,0,0,0,.89-1.56,5.86,5.86,0,0,0,.33-2Z"/><path class="cls-2" d="M304.29,54.87V41.07h-3.52v-3.8h3.52V32.83h5.24v4.44h4.52v3.8h-4.52v13.8Z"/><path class="cls-2" d="M331.33,42.11a4.59,4.59,0,0,1-.71,2.48,6.13,6.13,0,0,1-2,1.9,11.16,11.16,0,0,1-3.12,1.22,17.51,17.51,0,0,1-4.07.44l-.48,0a6.33,6.33,0,0,0-.65,0,3.72,3.72,0,0,0,1.2,2.38,3.82,3.82,0,0,0,2.59.86,11.85,11.85,0,0,0,5.89-1.8v4.2a12.21,12.21,0,0,1-2.9,1.26,12.34,12.34,0,0,1-3.14.38,10.33,10.33,0,0,1-3.62-.6,7.31,7.31,0,0,1-2.74-1.74,7.74,7.74,0,0,1-1.72-2.72,10.07,10.07,0,0,1-.6-3.58,11,11,0,0,1,.7-4,9.18,9.18,0,0,1,2-3.14,8.58,8.58,0,0,1,3-2,10.12,10.12,0,0,1,3.88-.72,7.32,7.32,0,0,1,4.74,1.44A4.71,4.71,0,0,1,331.33,42.11Zm-5.32.4a1.37,1.37,0,0,0-.55-1.1,2.07,2.07,0,0,0-1.38-.46,3.13,3.13,0,0,0-2.28.94,4.36,4.36,0,0,0-1.23,2.58,3.58,3.58,0,0,0,.63.08h.6C324.6,44.55,326,43.87,326,42.51Z"/><path class="cls-2" d="M347.73,42.19c-.38-.08-.67-.14-.88-.16a5.39,5.39,0,0,0-.72,0,4.06,4.06,0,0,0-3.46,1.56,7.63,7.63,0,0,0-1.18,4.65v6.67h-5.32V43.31c0-.65,0-1.22,0-1.7s0-.93-.1-1.35-.13-.83-.22-1.23-.22-.87-.38-1.39h5.05c.08.32.16.6.23.84a6.4,6.4,0,0,1,.14.65c0,.21.05.43.08.66a6.74,6.74,0,0,1,0,.84,8.93,8.93,0,0,1,2.28-2.6,4.33,4.33,0,0,1,2.54-.76,3.66,3.66,0,0,1,.94.1,10.34,10.34,0,0,1,1.06.39Z"/><path class="cls-2" d="M376.61,54.87c0-.16-.05-.35-.08-.56s-.06-.4-.09-.64-.05-.54-.08-.88a7.45,7.45,0,0,1-2.64,2,8.4,8.4,0,0,1-3.17.58,8,8,0,0,1-3.19-.62A7.2,7.2,0,0,1,364.93,53a7.79,7.79,0,0,1-1.56-2.66,10.08,10.08,0,0,1-.56-3.48,11.85,11.85,0,0,1,.66-4,9.59,9.59,0,0,1,1.84-3.18,8,8,0,0,1,2.82-2.08,8.53,8.53,0,0,1,3.6-.74,12.48,12.48,0,0,1,1.76.12,10.11,10.11,0,0,1,2,.52V27h5.32v21.8c0,.45,0,1,.06,1.72s.08,1.36.14,2,.12,1.53.2,2.36ZM375.45,42a5.38,5.38,0,0,0-1.48-.4,11,11,0,0,0-1.43-.08,4,4,0,0,0-3.23,1.38,5.61,5.61,0,0,0-1.18,3.78,4.1,4.1,0,0,0,.83,2.74,2.85,2.85,0,0,0,2.29,1,4.91,4.91,0,0,0,1.64-.28,3.12,3.12,0,0,0,1.33-1,5.2,5.2,0,0,0,.89-1.78,9.35,9.35,0,0,0,.34-2.74Z"/><path class="cls-2" d="M404.17,46a10.1,10.1,0,0,1-.66,3.79,7.67,7.67,0,0,1-1.87,2.77,8.12,8.12,0,0,1-2.91,1.71,12.31,12.31,0,0,1-7.53,0,7.76,7.76,0,0,1-4.8-4.48,10.93,10.93,0,0,1,0-7.48,7.65,7.65,0,0,1,4.76-4.47,11.84,11.84,0,0,1,3.83-.58,12,12,0,0,1,3.76.56,8.06,8.06,0,0,1,2.91,1.68,7.42,7.42,0,0,1,1.87,2.75A10,10,0,0,1,404.17,46Zm-5.32,0a3.94,3.94,0,0,0-1.08-3A3.89,3.89,0,0,0,394.89,42,3.7,3.7,0,0,0,392,43.05a4.15,4.15,0,0,0-1,3,4.41,4.41,0,0,0,1,3.06,3.65,3.65,0,0,0,2.87,1.08,3.94,3.94,0,0,0,2.93-1.06A4.27,4.27,0,0,0,398.85,46Z"/><path class="cls-2" d="M424.57,42.11a4.59,4.59,0,0,1-.71,2.48,6.13,6.13,0,0,1-2,1.9,11.28,11.28,0,0,1-3.12,1.22,17.51,17.51,0,0,1-4.07.44l-.49,0a6.13,6.13,0,0,0-.64,0,3.72,3.72,0,0,0,1.2,2.38,3.82,3.82,0,0,0,2.59.86,11.85,11.85,0,0,0,5.89-1.8v4.2a12.21,12.21,0,0,1-2.9,1.26,12.34,12.34,0,0,1-3.14.38,10.33,10.33,0,0,1-3.62-.6,7.31,7.31,0,0,1-2.74-1.74,7.74,7.74,0,0,1-1.72-2.72,10.07,10.07,0,0,1-.6-3.58,11,11,0,0,1,.7-4,9.18,9.18,0,0,1,2-3.14,8.58,8.58,0,0,1,3-2,10.12,10.12,0,0,1,3.88-.72,7.32,7.32,0,0,1,4.74,1.44A4.71,4.71,0,0,1,424.57,42.11Zm-5.32.4a1.4,1.4,0,0,0-.55-1.1,2.07,2.07,0,0,0-1.38-.46,3.17,3.17,0,0,0-2.29.94,4.41,4.41,0,0,0-1.22,2.58,3.58,3.58,0,0,0,.63.08H415Q419.25,44.55,419.25,42.51Z"/><path class="cls-2" d="M441.61,50a5,5,0,0,1-1.7,4,7,7,0,0,1-4.76,1.48,20.4,20.4,0,0,1-4.06-.4,12.07,12.07,0,0,1-3.2-1.08l.68-4.08a13.63,13.63,0,0,0,6.08,1.8,1.77,1.77,0,0,0,1.26-.38,1.21,1.21,0,0,0,.38-.86,1.53,1.53,0,0,0-.3-1,4.44,4.44,0,0,0-1.46-.94,22.89,22.89,0,0,1-2.82-1.44,9.15,9.15,0,0,1-1.92-1.5A4.93,4.93,0,0,1,428.71,44a5.48,5.48,0,0,1-.34-2,4.51,4.51,0,0,1,1.93-3.9,8.5,8.5,0,0,1,5.05-1.38,15,15,0,0,1,3,.26,13.41,13.41,0,0,1,3,1l-.64,4a9.31,9.31,0,0,0-2.75-1.1,12.27,12.27,0,0,0-2.63-.3,1.79,1.79,0,0,0-1.27.34,1.18,1.18,0,0,0-.34.9,1.32,1.32,0,0,0,.55,1.1,11.33,11.33,0,0,0,2.13,1.1,23.65,23.65,0,0,1,2.42,1.38,8.29,8.29,0,0,1,1.64,1.36,4.16,4.16,0,0,1,.91,1.48A5.29,5.29,0,0,1,441.61,50Z"/><path class="cls-2" d="M141.93,105.87v-10a4.11,4.11,0,0,0-.26-1.62,2.29,2.29,0,0,0-.62-.87,1.59,1.59,0,0,0-.76-.35,6.39,6.39,0,0,0-.68-.05,4.11,4.11,0,0,0-.84.15,2.82,2.82,0,0,0-1.22.74,5,5,0,0,0-1.1,1.69,7.79,7.79,0,0,0-.48,3v7.29h-5.32V94.23a19.92,19.92,0,0,0-.24-3,9.61,9.61,0,0,0-.64-2.45h5.32a8,8,0,0,1,.34.92,10.3,10.3,0,0,1,.22,1,8.32,8.32,0,0,1,2.74-1.84,8,8,0,0,1,3-.6,5.77,5.77,0,0,1,2.33.46A5.6,5.6,0,0,1,145.57,90a6.11,6.11,0,0,1,1.23,2.06,7.93,7.93,0,0,1,.45,2.75v11Z"/><path class="cls-2" d="M171.17,97a10.1,10.1,0,0,1-.66,3.79,7.67,7.67,0,0,1-1.87,2.77,8.12,8.12,0,0,1-2.91,1.71,12.28,12.28,0,0,1-7.52,0,8.12,8.12,0,0,1-2.91-1.71,7.84,7.84,0,0,1-1.89-2.77,9.9,9.9,0,0,1-.68-3.79,9.71,9.71,0,0,1,.66-3.69,7.67,7.67,0,0,1,1.85-2.75,7.76,7.76,0,0,1,2.91-1.72,11.74,11.74,0,0,1,3.82-.58,12,12,0,0,1,3.76.56,8.06,8.06,0,0,1,2.91,1.68,7.42,7.42,0,0,1,1.87,2.75A10,10,0,0,1,171.17,97Zm-5.32,0a4,4,0,0,0-1.07-3A3.93,3.93,0,0,0,161.89,93,3.7,3.7,0,0,0,159,94.05a4.15,4.15,0,0,0-1,3,4.41,4.41,0,0,0,1,3.06,3.66,3.66,0,0,0,2.87,1.08,3.94,3.94,0,0,0,2.93-1.06A4.23,4.23,0,0,0,165.85,97Z"/><path class="cls-2" d="M176.41,105.87V92.07h-3.52v-3.8h3.52V83.83h5.24v4.44h4.52v3.8h-4.52v13.8Z"/><path class="cls-2" d="M219.29,97a10.1,10.1,0,0,1-.66,3.79,7.67,7.67,0,0,1-1.87,2.77,8.12,8.12,0,0,1-2.91,1.71,12.28,12.28,0,0,1-7.52,0,8.12,8.12,0,0,1-2.91-1.71,7.84,7.84,0,0,1-1.89-2.77,10.77,10.77,0,0,1,0-7.48,7.55,7.55,0,0,1,1.85-2.75,7.68,7.68,0,0,1,2.91-1.72,11.74,11.74,0,0,1,3.82-.58,12,12,0,0,1,3.76.56,8.06,8.06,0,0,1,2.91,1.68,7.42,7.42,0,0,1,1.87,2.75A10,10,0,0,1,219.29,97ZM214,97a4,4,0,0,0-1.07-3A3.93,3.93,0,0,0,210,93a3.7,3.7,0,0,0-2.85,1.06,4.15,4.15,0,0,0-1,3,4.41,4.41,0,0,0,1,3.06,3.65,3.65,0,0,0,2.87,1.08,3.94,3.94,0,0,0,2.93-1.06A4.27,4.27,0,0,0,214,97Z"/><path class="cls-2" d="M234,103.26c-.21.46-.41.87-.6,1.2a2.89,2.89,0,0,1-.64.82,2.13,2.13,0,0,1-.82.45,4.12,4.12,0,0,1-1.14.14,3.08,3.08,0,0,1-1.86-.51,4.21,4.21,0,0,1-1.26-1.91l-6.28-15.18h5.52l3,8.1c.21.57.41,1.11.58,1.63s.3,1,.38,1.32c.13-.36.31-.81.52-1.34s.43-1.06.64-1.58l3.16-8.13h5.48Z"/><path class="cls-2" d="M259.13,93.11a4.59,4.59,0,0,1-.71,2.48,6.13,6.13,0,0,1-2,1.9,11.21,11.21,0,0,1-3.11,1.22,17.66,17.66,0,0,1-4.08.44l-.48,0a6.33,6.33,0,0,0-.65,0,3.72,3.72,0,0,0,1.2,2.38,3.82,3.82,0,0,0,2.59.86,11.85,11.85,0,0,0,5.89-1.8v4.2a12,12,0,0,1-2.9,1.26,12.28,12.28,0,0,1-3.14.38,10.37,10.37,0,0,1-3.62-.6,7.39,7.39,0,0,1-2.74-1.74,7.74,7.74,0,0,1-1.72-2.72,10.07,10.07,0,0,1-.6-3.58,11,11,0,0,1,.7-4,9.34,9.34,0,0,1,2-3.14,8.67,8.67,0,0,1,3-2,10.15,10.15,0,0,1,3.88-.72,7.32,7.32,0,0,1,4.74,1.44A4.68,4.68,0,0,1,259.13,93.11Zm-5.32.4a1.37,1.37,0,0,0-.55-1.1,2.07,2.07,0,0,0-1.38-.46,3.13,3.13,0,0,0-2.28.94,4.36,4.36,0,0,0-1.23,2.58,3.57,3.57,0,0,0,.64.08h.59C252.4,95.55,253.81,94.87,253.81,93.51Z"/><path class="cls-2" d="M275.53,93.19c-.38-.08-.67-.14-.88-.16a5.39,5.39,0,0,0-.72,0,4.06,4.06,0,0,0-3.46,1.56,7.63,7.63,0,0,0-1.18,4.65v6.67H264V94.31c0-.65,0-1.22,0-1.7s-.05-.93-.1-1.35-.13-.83-.22-1.23-.22-.87-.38-1.39h5.05c.08.32.16.6.23.84a6.4,6.4,0,0,1,.14.65c0,.21.06.43.08.66a6.74,6.74,0,0,1,0,.84,8.93,8.93,0,0,1,2.28-2.6,4.33,4.33,0,0,1,2.54-.76,3.66,3.66,0,0,1,.94.1,10.34,10.34,0,0,1,1.06.39Z"/><path class="cls-2" d="M291.69,105.87l0-21.72c-.21-.24-.41-.44-.58-.6s-.38-.32-.6-.48a3.23,3.23,0,0,0-.76-.4,2.92,2.92,0,0,0-1.06-.16,3.87,3.87,0,0,0-1.52.26,2.33,2.33,0,0,0-1.08.9,4.55,4.55,0,0,0-.66,1.74,14.74,14.74,0,0,0-.22,2.86h4.16v3.84h-4.08v13.76H280V92.07h-3.36v-3.8h3.28a19.67,19.67,0,0,1,.56-5.26A7.7,7.7,0,0,1,282,80a4.25,4.25,0,0,1,2.14-1.4,9.54,9.54,0,0,1,2.62-.34,8.53,8.53,0,0,1,2.48.32,13.31,13.31,0,0,1,2.56,1.12l0-1.24H297v27.44Z"/><path class="cls-2" d="M321.41,97a10.1,10.1,0,0,1-.66,3.79,7.67,7.67,0,0,1-1.87,2.77,8.12,8.12,0,0,1-2.91,1.71,12.31,12.31,0,0,1-7.53,0,8.17,8.17,0,0,1-2.9-1.71,8,8,0,0,1-1.9-2.77A9.9,9.9,0,0,1,303,97a9.71,9.71,0,0,1,.66-3.69,7.55,7.55,0,0,1,1.85-2.75,7.72,7.72,0,0,1,2.9-1.72,11.84,11.84,0,0,1,3.83-.58,12,12,0,0,1,3.76.56,8.06,8.06,0,0,1,2.91,1.68,7.42,7.42,0,0,1,1.87,2.75A10,10,0,0,1,321.41,97Zm-5.32,0a4,4,0,0,0-1.07-3A3.93,3.93,0,0,0,312.13,93a3.7,3.7,0,0,0-2.85,1.06,4.15,4.15,0,0,0-1,3,4.41,4.41,0,0,0,1,3.06,3.65,3.65,0,0,0,2.87,1.08,3.94,3.94,0,0,0,2.93-1.06A4.27,4.27,0,0,0,316.09,97Z"/><path class="cls-2" d="M348.21,103.91a3.07,3.07,0,0,1-1.06,1.51,3.2,3.2,0,0,1-1.82.45,3,3,0,0,1-1.84-.49,3.36,3.36,0,0,1-1-1.63l-3.4-10.37L335.49,104a2.65,2.65,0,0,1-1,1.46,3.49,3.49,0,0,1-1.9.45,5.53,5.53,0,0,1-.84-.06,2.08,2.08,0,0,1-.76-.26,2,2,0,0,1-.68-.62,4,4,0,0,1-.56-1.13l-5.6-15.53h5.4l2.32,7.1c.08.26.16.57.26.92s.19.69.3,1,.22.81.36,1.25a6.64,6.64,0,0,1,.24-1c.08-.28.16-.59.26-.91s.18-.64.26-.92l2.24-7.49h6.48l2.4,7.84a5.26,5.26,0,0,0,.22.76c.09.27.18.54.26.8a6.61,6.61,0,0,1,.24.9c.08-.26.16-.53.24-.82.13-.52.28-1,.44-1.48l2.36-8H354Z"/><path class="cls-2" d="M360.33,103.4a2.17,2.17,0,0,1-.91,1.76,3.52,3.52,0,0,1-2.21.71,3.44,3.44,0,0,1-2.23-.76,2.31,2.31,0,0,1-.06-3.66,3.19,3.19,0,0,1,2.13-.74,3.49,3.49,0,0,1,2.32.79A2.39,2.39,0,0,1,360.33,103.4Z"/></svg>