<svg id="Layer_1" data-name="Layer 1" xmlns="http://www.w3.org/2000/svg" viewBox="0 0 490 140"><defs><style>.cls-1{fill:#ffdb27;stroke:#fff;stroke-miterlimit:10;stroke-width:4px;}.cls-2{fill:#323232;}</style></defs><path class="cls-1" d="M80.9,135H409.1C451,135,485,105.9,485,70h0c0-35.9-34-65-75.9-65H80.9C39,5,5,34.1,5,70H5C5,105.9,39,135,80.9,135Z"/><path class="cls-2" d="M73.54,40.87a18.64,18.64,0,0,1-.86,5.85,9.89,9.89,0,0,1-2.93,4.4,14,14,0,0,1-5.49,2.77,31.84,31.84,0,0,1-8.56,1l-1.78,0-1.44-.06L51,54.69q-.75-.06-1.74-.18V27.15c1.12-.06,2.17-.12,3.16-.2h4.27q8.58,0,12.7,3.43T73.54,40.87ZM66.66,41c0-3-.78-5.34-2.36-6.92s-3.86-2.37-6.87-2.37c-.24,0-.48,0-.72,0l-1.05.06V50c.38,0,.68.09.91.1l.7,0q4.63,0,7-2.3T66.66,41Z"/><path class="cls-2" d="M96.46,46a10.1,10.1,0,0,1-.66,3.79,7.54,7.54,0,0,1-1.87,2.77A8.12,8.12,0,0,1,91,54.28a12.28,12.28,0,0,1-7.52,0,8.12,8.12,0,0,1-2.91-1.71A7.84,7.84,0,0,1,78.7,49.8,9.9,9.9,0,0,1,78,46a9.71,9.71,0,0,1,.66-3.69,7.67,7.67,0,0,1,1.85-2.75,7.76,7.76,0,0,1,2.91-1.72,11.74,11.74,0,0,1,3.82-.58,12,12,0,0,1,3.76.56,8.06,8.06,0,0,1,2.91,1.68,7.31,7.31,0,0,1,1.87,2.75A10,10,0,0,1,96.46,46Zm-5.32,0a4,4,0,0,0-1.07-3A3.93,3.93,0,0,0,87.18,42a3.7,3.7,0,0,0-2.85,1.06,4.15,4.15,0,0,0-1,3,4.41,4.41,0,0,0,1,3.06,3.66,3.66,0,0,0,2.87,1.08,3.94,3.94,0,0,0,2.93-1.06A4.23,4.23,0,0,0,91.14,46Z"/><path class="cls-2" d="M125.38,54.87v-10a4.11,4.11,0,0,0-.26-1.62,2.29,2.29,0,0,0-.62-.87,1.59,1.59,0,0,0-.76-.35,6.39,6.39,0,0,0-.68,0,4.11,4.11,0,0,0-.84.15,2.82,2.82,0,0,0-1.22.74,5,5,0,0,0-1.1,1.69,7.79,7.79,0,0,0-.48,3v7.29H114.1V43.23a19.92,19.92,0,0,0-.24-3,9.61,9.61,0,0,0-.64-2.45h5.32a8,8,0,0,1,.34.92,10.3,10.3,0,0,1,.22,1,8.32,8.32,0,0,1,2.74-1.84,8,8,0,0,1,3-.6,5.8,5.8,0,0,1,2.33.46A5.46,5.46,0,0,1,129,39a6,6,0,0,1,1.24,2.06,7.93,7.93,0,0,1,.45,2.75v11Z"/><path class="cls-2" d="M154.62,46A10.1,10.1,0,0,1,154,49.8a7.67,7.67,0,0,1-1.87,2.77,8.12,8.12,0,0,1-2.91,1.71,12.28,12.28,0,0,1-7.52,0,8.12,8.12,0,0,1-2.91-1.71,7.84,7.84,0,0,1-1.89-2.77,10.77,10.77,0,0,1,0-7.48,7.55,7.55,0,0,1,1.85-2.75,7.68,7.68,0,0,1,2.91-1.72,11.74,11.74,0,0,1,3.82-.58,12,12,0,0,1,3.76.56,8.06,8.06,0,0,1,2.91,1.68A7.42,7.42,0,0,1,154,42.26,10,10,0,0,1,154.62,46Zm-5.32,0a4,4,0,0,0-1.07-3A3.93,3.93,0,0,0,145.34,42a3.7,3.7,0,0,0-2.85,1.06,4.15,4.15,0,0,0-1,3,4.41,4.41,0,0,0,1,3.06,3.66,3.66,0,0,0,2.87,1.08,3.94,3.94,0,0,0,2.93-1.06A4.23,4.23,0,0,0,149.3,46Z"/><path class="cls-2" d="M159.86,54.87V41.07h-3.52v-3.8h3.52V32.83h5.24v4.44h4.52v3.8H165.1v13.8Z"/><path class="cls-2" d="M207.54,52.91a3.07,3.07,0,0,1-1.06,1.51,3.2,3.2,0,0,1-1.82.45,3,3,0,0,1-1.84-.49,3.36,3.36,0,0,1-1-1.63l-3.4-10.37L194.82,53a2.65,2.65,0,0,1-1,1.46,3.49,3.49,0,0,1-1.9.45,5.53,5.53,0,0,1-.84-.06,2.08,2.08,0,0,1-.76-.26,2,2,0,0,1-.68-.62,4,4,0,0,1-.56-1.13l-5.6-15.53h5.4l2.32,7.1c.08.26.16.57.26.92s.19.69.3,1,.22.81.36,1.25a6.64,6.64,0,0,1,.24-1c.08-.28.16-.59.26-.91s.18-.64.26-.92l2.24-7.49h6.48l2.4,7.84a5.26,5.26,0,0,0,.22.76c.09.27.18.54.26.8a6.61,6.61,0,0,1,.24.9c.08-.26.16-.53.24-.82.13-.52.28-1,.44-1.48l2.36-8h5.6Z"/><path class="cls-2" d="M229.34,54.87a6.22,6.22,0,0,0-.05-.68c0-.22,0-.47-.06-.76s0-.6-.06-.92a6.4,6.4,0,0,1-2.61,2.06,8.53,8.53,0,0,1-3.41.7A6.33,6.33,0,0,1,218,53.11,9.33,9.33,0,0,1,216.22,47q0-4.85,2.94-7.46t8.37-2.62c.6,0,1.14,0,1.62,0a14.15,14.15,0,0,1,1.46.14c.49.06,1,.15,1.5.26a16.67,16.67,0,0,1,1.71.44V49.11c0,.61,0,1.26,0,1.94s.06,1.3.12,1.86.1,1.32.16,2Zm-.84-13a7.1,7.1,0,0,0-1.26-.2c-.38,0-.74,0-1.06,0A4.25,4.25,0,0,0,222.76,43,5.81,5.81,0,0,0,221.54,47a3.91,3.91,0,0,0,.73,2.56,2.57,2.57,0,0,0,2.08.88A3.64,3.64,0,0,0,226,50a4,4,0,0,0,1.33-1,4.78,4.78,0,0,0,.89-1.56,5.86,5.86,0,0,0,.33-2Z"/><path class="cls-2" d="M252.38,50a5,5,0,0,1-1.7,4,7,7,0,0,1-4.76,1.48,20.48,20.48,0,0,1-4.06-.4,12.07,12.07,0,0,1-3.2-1.08l.68-4.08a13.63,13.63,0,0,0,6.08,1.8,1.77,1.77,0,0,0,1.26-.38,1.21,1.21,0,0,0,.38-.86,1.53,1.53,0,0,0-.3-1,4.44,4.44,0,0,0-1.46-.94,22.89,22.89,0,0,1-2.82-1.44,9.15,9.15,0,0,1-1.92-1.5A4.93,4.93,0,0,1,239.48,44a5.48,5.48,0,0,1-.34-2,4.51,4.51,0,0,1,1.93-3.9,8.5,8.5,0,0,1,5.05-1.38,15,15,0,0,1,3,.26,13.41,13.41,0,0,1,3,1l-.64,4a9.21,9.21,0,0,0-2.75-1.1,12.27,12.27,0,0,0-2.63-.3,1.81,1.81,0,0,0-1.27.34,1.18,1.18,0,0,0-.34.9,1.32,1.32,0,0,0,.55,1.1,11.33,11.33,0,0,0,2.13,1.1,23.65,23.65,0,0,1,2.42,1.38,8.29,8.29,0,0,1,1.64,1.36,4.16,4.16,0,0,1,.91,1.48A5.29,5.29,0,0,1,252.38,50Z"/><path class="cls-2" d="M268.66,54.87V44.92a5,5,0,0,0-.19-1.54,2,2,0,0,0-.51-.89,1.62,1.62,0,0,0-.73-.41,4,4,0,0,0-.86-.09,2.43,2.43,0,0,0-1.33.4,4.17,4.17,0,0,0-1.12,1.1,6.11,6.11,0,0,0-.8,1.64,6.52,6.52,0,0,0-.3,2v7.75H257.5V27.47h5.28v11.8A6,6,0,0,1,265,37.73a7.24,7.24,0,0,1,2.68-.46,8.45,8.45,0,0,1,2.3.31,5.9,5.9,0,0,1,2,1,4.91,4.91,0,0,1,1.44,1.81,6.24,6.24,0,0,1,.56,2.77V54.87Z"/><path class="cls-2" d="M303.71,54.54a11.85,11.85,0,0,1-2.85.33,9.5,9.5,0,0,1-3.52-.63,8.51,8.51,0,0,1-2.78-1.74,7.42,7.42,0,0,1-1.82-2.67,9.06,9.06,0,0,1-.64-3.48,11.06,11.06,0,0,1,.58-3.66,7.56,7.56,0,0,1,1.76-2.89,8,8,0,0,1,2.92-1.86,11.18,11.18,0,0,1,4.06-.67,9.32,9.32,0,0,1,3.06.42,11.59,11.59,0,0,1,2,.9l-.92,4.6c-.41-.19-.75-.36-1-.5a5.61,5.61,0,0,0-.81-.36,3.48,3.48,0,0,0-.83-.2,8.77,8.77,0,0,0-1.1-.06,4.12,4.12,0,0,0-3.08,1.09,4,4,0,0,0-1.08,3,3.88,3.88,0,0,0,1.12,3A4.46,4.46,0,0,0,302,50.15a8.4,8.4,0,0,0,2.08-.25,11.39,11.39,0,0,0,2.12-.76l.36,4.35A13.15,13.15,0,0,1,303.71,54.54Z"/><path class="cls-2" d="M323.13,54.87a6,6,0,0,0,0-.68,7.58,7.58,0,0,1-.06-.76c0-.3,0-.6-.07-.92a6.31,6.31,0,0,1-2.6,2.06,8.56,8.56,0,0,1-3.41.7,6.33,6.33,0,0,1-5.11-2.16A9.28,9.28,0,0,1,310,47q0-4.85,2.94-7.46t8.37-2.62c.59,0,1.13,0,1.62,0a14.42,14.42,0,0,1,1.46.14c.49.06,1,.15,1.5.26a17.35,17.35,0,0,1,1.71.44V49.11c0,.61,0,1.26,0,1.94s.06,1.3.12,1.86.1,1.32.16,2Zm-.84-13a7.1,7.1,0,0,0-1.26-.2c-.38,0-.73,0-1,0A4.25,4.25,0,0,0,316.56,43,5.81,5.81,0,0,0,315.34,47a3.91,3.91,0,0,0,.73,2.56,2.57,2.57,0,0,0,2.07.88,3.68,3.68,0,0,0,1.61-.36,4,4,0,0,0,1.32-1,5,5,0,0,0,.9-1.56,5.87,5.87,0,0,0,.32-2Z"/><path class="cls-2" d="M345.54,42.19a8.7,8.7,0,0,0-.89-.16,5.2,5.2,0,0,0-.72,0,4.07,4.07,0,0,0-3.46,1.56,7.7,7.7,0,0,0-1.18,4.65v6.67H334V43.31c0-.65,0-1.22,0-1.7s0-.93-.11-1.35a9.88,9.88,0,0,0-.22-1.23c-.09-.41-.22-.87-.38-1.39h5.05c.09.32.16.6.23.84a4.6,4.6,0,0,1,.15.65c0,.21.05.43.08.66a6.74,6.74,0,0,1,0,.84,8.92,8.92,0,0,1,2.27-2.6,4.36,4.36,0,0,1,2.55-.76,3.53,3.53,0,0,1,.93.1,9.56,9.56,0,0,1,1.07.39Z"/><path class="cls-2" d="M361.54,50a5,5,0,0,1-1.7,4,7.06,7.06,0,0,1-4.77,1.48,20.38,20.38,0,0,1-4.05-.4A12.28,12.28,0,0,1,347.81,54l.69-4.08a13.59,13.59,0,0,0,6.08,1.8,1.77,1.77,0,0,0,1.26-.38,1.2,1.2,0,0,0,.37-.86,1.52,1.52,0,0,0-.29-1,4.56,4.56,0,0,0-1.46-.94,23.83,23.83,0,0,1-2.83-1.44,9.71,9.71,0,0,1-1.92-1.5A5.26,5.26,0,0,1,348.63,44a5.7,5.7,0,0,1-.34-2,4.51,4.51,0,0,1,1.94-3.9,8.5,8.5,0,0,1,5-1.38,15,15,0,0,1,3,.26,13.41,13.41,0,0,1,3,1l-.64,4a9.31,9.31,0,0,0-2.75-1.1,12.34,12.34,0,0,0-2.63-.3,1.79,1.79,0,0,0-1.27.34,1.18,1.18,0,0,0-.34.9,1.33,1.33,0,0,0,.54,1.1,12,12,0,0,0,2.13,1.1,23.9,23.9,0,0,1,2.43,1.38,8.29,8.29,0,0,1,1.64,1.36,4.31,4.31,0,0,1,.91,1.48A5.29,5.29,0,0,1,361.54,50Z"/><path class="cls-2" d="M391.37,54.87a6,6,0,0,0,0-.68,7.58,7.58,0,0,1-.06-.76c0-.3,0-.6-.07-.92a6.31,6.31,0,0,1-2.6,2.06,8.56,8.56,0,0,1-3.41.7,6.32,6.32,0,0,1-5.11-2.16A9.28,9.28,0,0,1,378.25,47q0-4.85,2.94-7.46c2-1.75,4.76-2.62,8.38-2.62.59,0,1.13,0,1.62,0a14.42,14.42,0,0,1,1.46.14c.49.06,1,.15,1.5.26a17.21,17.21,0,0,1,1.7.44V49.11c0,.61,0,1.26,0,1.94s.07,1.3.12,1.86.11,1.32.16,2Zm-.84-13a7.1,7.1,0,0,0-1.26-.2c-.38,0-.73,0-1.06,0A4.27,4.27,0,0,0,384.79,43,5.86,5.86,0,0,0,383.57,47a3.91,3.91,0,0,0,.74,2.56,2.55,2.55,0,0,0,2.07.88A3.68,3.68,0,0,0,388,50a4,4,0,0,0,1.32-1,5,5,0,0,0,.9-1.56,6.11,6.11,0,0,0,.32-2Z"/><path class="cls-2" d="M413.09,54.87v-10a3.94,3.94,0,0,0-.26-1.62,2.29,2.29,0,0,0-.62-.87,1.59,1.59,0,0,0-.76-.35,6.22,6.22,0,0,0-.68,0,4.11,4.11,0,0,0-.84.15,2.88,2.88,0,0,0-1.22.74,5,5,0,0,0-1.1,1.69,7.79,7.79,0,0,0-.48,3v7.29h-5.32V43.23a19.92,19.92,0,0,0-.24-3,9.61,9.61,0,0,0-.64-2.45h5.32a6.49,6.49,0,0,1,.34.92,10.3,10.3,0,0,1,.22,1,8.25,8.25,0,0,1,2.75-1.84,7.89,7.89,0,0,1,3-.6,5.84,5.84,0,0,1,2.33.46A5.46,5.46,0,0,1,416.73,39,6.11,6.11,0,0,1,418,41.1a7.93,7.93,0,0,1,.45,2.75v11Z"/><path class="cls-2" d="M437.86,54.87c0-.16-.06-.35-.09-.56s0-.4-.08-.64-.06-.54-.08-.88a7.39,7.39,0,0,1-2.65,2,8.37,8.37,0,0,1-3.17.58,8,8,0,0,1-3.19-.62A7.26,7.26,0,0,1,426.18,53a8,8,0,0,1-1.57-2.66,10.33,10.33,0,0,1-.56-3.48,11.85,11.85,0,0,1,.66-4,9.77,9.77,0,0,1,1.84-3.18,8.15,8.15,0,0,1,2.82-2.08,8.59,8.59,0,0,1,3.6-.74,12.37,12.37,0,0,1,1.76.12,9.93,9.93,0,0,1,2,.52V27H442v21.8c0,.45,0,1,.06,1.72s.09,1.36.14,2,.12,1.53.2,2.36ZM436.69,42a5.32,5.32,0,0,0-1.47-.4,11.17,11.17,0,0,0-1.44-.08,4,4,0,0,0-3.22,1.38,5.61,5.61,0,0,0-1.19,3.78,4.1,4.1,0,0,0,.84,2.74,2.83,2.83,0,0,0,2.28,1,4.91,4.91,0,0,0,1.64-.28,3.15,3.15,0,0,0,1.34-1,5.2,5.2,0,0,0,.89-1.78,9.73,9.73,0,0,0,.33-2.74Z"/><path class="cls-2" d="M104.66,95.79a11.89,11.89,0,0,1-.69,4.15,8.8,8.8,0,0,1-2,3.17,8.89,8.89,0,0,1-3.08,2,10.54,10.54,0,0,1-4,.73,20.29,20.29,0,0,1-4-.42,19.37,19.37,0,0,1-3.76-1.13V78.44h5.32V90.31a6.28,6.28,0,0,1,2.28-1.53,7.92,7.92,0,0,1,2.9-.51,7.44,7.44,0,0,1,2.87.53,6.07,6.07,0,0,1,2.22,1.52,7,7,0,0,1,1.42,2.38A8.86,8.86,0,0,1,104.66,95.79Zm-5.32,1a3.52,3.52,0,0,0-.81-2.45,2.89,2.89,0,0,0-2.26-.88,3.92,3.92,0,0,0-1.61.32,3.88,3.88,0,0,0-1.22.89,3.64,3.64,0,0,0-.76,1.29,4.26,4.26,0,0,0-.26,1.52v3a5.23,5.23,0,0,0,1.26.47,7.91,7.91,0,0,0,1.45.11,4.14,4.14,0,0,0,3.09-1.14A4.32,4.32,0,0,0,99.34,96.76Z"/><path class="cls-2" d="M115.86,83.44a2.21,2.21,0,0,1-.92,1.78,3.47,3.47,0,0,1-2.2.73,3.42,3.42,0,0,1-2.24-.75,2.39,2.39,0,0,1-1-1.83,2.18,2.18,0,0,1,.88-1.84,3.6,3.6,0,0,1,2.32-.74,3.7,3.7,0,0,1,1.18.2,3.13,3.13,0,0,1,1,.56,2.81,2.81,0,0,1,.68.85A2.23,2.23,0,0,1,115.86,83.44Zm-6,22.43V88.27h5.32v17.6Z"/><path class="cls-2" d="M131.74,95.47l8.52,10.4h-7l-6.64-8.68v8.68h-5.32V78h5.32V94.07l6.48-5.8h7.64Z"/><path class="cls-2" d="M158.22,93.11a4.59,4.59,0,0,1-.71,2.48,6.13,6.13,0,0,1-2,1.9,11.16,11.16,0,0,1-3.12,1.22,17.51,17.51,0,0,1-4.07.44l-.48,0a6.33,6.33,0,0,0-.65,0,3.72,3.72,0,0,0,1.2,2.38,3.82,3.82,0,0,0,2.59.86,11.85,11.85,0,0,0,5.89-1.8v4.2A12.21,12.21,0,0,1,154,106a12.34,12.34,0,0,1-3.14.38,10.33,10.33,0,0,1-3.62-.6,7.39,7.39,0,0,1-2.74-1.74,7.74,7.74,0,0,1-1.72-2.72,10.07,10.07,0,0,1-.6-3.58,11,11,0,0,1,.7-4,9.18,9.18,0,0,1,2-3.14,8.58,8.58,0,0,1,3-2,10.15,10.15,0,0,1,3.88-.72,7.32,7.32,0,0,1,4.74,1.44A4.68,4.68,0,0,1,158.22,93.11Zm-5.32.4a1.4,1.4,0,0,0-.55-1.1A2.07,2.07,0,0,0,151,92a3.13,3.13,0,0,0-2.28.94,4.36,4.36,0,0,0-1.23,2.58,3.58,3.58,0,0,0,.63.08h.6C151.49,95.55,152.9,94.87,152.9,93.51Z"/><path class="cls-2" d="M175.26,101a5,5,0,0,1-1.7,4,7,7,0,0,1-4.76,1.48,20.48,20.48,0,0,1-4.06-.4,12.07,12.07,0,0,1-3.2-1.08l.68-4.08a13.63,13.63,0,0,0,6.08,1.8,1.77,1.77,0,0,0,1.26-.38,1.21,1.21,0,0,0,.38-.86,1.53,1.53,0,0,0-.3-1,4.44,4.44,0,0,0-1.46-.94,22.89,22.89,0,0,1-2.82-1.44,9.15,9.15,0,0,1-1.92-1.5A4.93,4.93,0,0,1,162.36,95a5.48,5.48,0,0,1-.34-2,4.51,4.51,0,0,1,1.93-3.9A8.52,8.52,0,0,1,169,87.67a15,15,0,0,1,3,.26,13.24,13.24,0,0,1,3,1l-.64,4a9.21,9.21,0,0,0-2.75-1.1,12.25,12.25,0,0,0-2.62-.3,1.82,1.82,0,0,0-1.28.34,1.18,1.18,0,0,0-.34.9,1.32,1.32,0,0,0,.55,1.1A11.33,11.33,0,0,0,170,95a25,25,0,0,1,2.43,1.38,8.5,8.5,0,0,1,1.63,1.36,4.16,4.16,0,0,1,.91,1.48A5.29,5.29,0,0,1,175.26,101Z"/><path class="cls-2" d="M215.06,103.91a3.07,3.07,0,0,1-1.06,1.51,3.2,3.2,0,0,1-1.82.45,3,3,0,0,1-1.84-.49,3.36,3.36,0,0,1-1-1.63l-3.4-10.37L202.34,104a2.65,2.65,0,0,1-1,1.46,3.49,3.49,0,0,1-1.9.45,5.53,5.53,0,0,1-.84-.06,2.08,2.08,0,0,1-.76-.26,2,2,0,0,1-.68-.62,4,4,0,0,1-.56-1.13L191,88.27h5.4l2.32,7.1c.08.26.16.57.26.92s.19.69.3,1,.22.81.36,1.25a6.64,6.64,0,0,1,.24-1c.08-.28.16-.59.26-.91s.18-.64.26-.92l2.24-7.49h6.48l2.4,7.84a5.26,5.26,0,0,0,.22.76c.09.27.18.54.26.8a6.61,6.61,0,0,1,.24.9c.08-.26.16-.53.24-.82.13-.52.28-1,.44-1.48l2.36-8h5.6Z"/><path class="cls-2" d="M231.14,83.44a2.21,2.21,0,0,1-.92,1.78A3.49,3.49,0,0,1,228,86a3.42,3.42,0,0,1-2.24-.75,2.36,2.36,0,0,1-1-1.83,2.15,2.15,0,0,1,.88-1.84,3.58,3.58,0,0,1,2.32-.74,3.7,3.7,0,0,1,1.18.2,3.24,3.24,0,0,1,1,.56,3,3,0,0,1,.68.85A2.23,2.23,0,0,1,231.14,83.44Zm-6,22.43V88.27h5.32v17.6Z"/><path class="cls-2" d="M237.82,105.87V92.07H234.3v-3.8h3.52V83.83h5.24v4.44h4.52v3.8h-4.52v13.8Z"/><path class="cls-2" d="M262,105.87v-10a5.27,5.27,0,0,0-.19-1.54,2,2,0,0,0-.51-.89,1.62,1.62,0,0,0-.73-.41,4,4,0,0,0-.86-.09,2.43,2.43,0,0,0-1.33.4,4,4,0,0,0-1.12,1.1,6.11,6.11,0,0,0-.8,1.64,6.52,6.52,0,0,0-.3,2v7.75h-5.32V78.47h5.28v11.8a6.05,6.05,0,0,1,2.2-1.54,7.33,7.33,0,0,1,2.69-.46,8.45,8.45,0,0,1,2.3.31,5.9,5.9,0,0,1,2,1,5,5,0,0,1,1.44,1.81,6.24,6.24,0,0,1,.56,2.77v11.72Z"/><path class="cls-2" d="M298.49,105.87a6,6,0,0,0,0-.68,7.58,7.58,0,0,1-.06-.76c0-.3,0-.6-.06-.92a6.4,6.4,0,0,1-2.61,2.06,8.56,8.56,0,0,1-3.41.7,6.33,6.33,0,0,1-5.11-2.16A9.28,9.28,0,0,1,285.38,98c0-3.23,1-5.72,2.93-7.46s4.76-2.62,8.38-2.62c.59,0,1.13,0,1.62,0a14.42,14.42,0,0,1,1.46.14c.49.06,1,.15,1.5.26a16.53,16.53,0,0,1,1.7.44v11.36c0,.61,0,1.26,0,1.94s.07,1.3.12,1.86.11,1.32.16,2Zm-.83-13a7.34,7.34,0,0,0-1.27-.2c-.38,0-.73,0-1.05,0A4.25,4.25,0,0,0,291.92,94,5.81,5.81,0,0,0,290.69,98a3.91,3.91,0,0,0,.74,2.56,2.57,2.57,0,0,0,2.07.88,3.68,3.68,0,0,0,1.61-.36,4,4,0,0,0,1.32-1,5,5,0,0,0,.9-1.56,5.86,5.86,0,0,0,.33-2Z"/><path class="cls-2" d="M338.73,96a13.29,13.29,0,0,1-.56,4,9.4,9.4,0,0,1-1.58,3.11,7.19,7.19,0,0,1-2.42,2,6.83,6.83,0,0,1-3.1.71,7,7,0,0,1-2.11-.28,6.49,6.49,0,0,1-1.79-1v13.23h-5.6V93.54a10.17,10.17,0,0,0-.06-1c0-.39-.09-.81-.16-1.24s-.14-.86-.24-1.29a7.42,7.42,0,0,0-.34-1.2h5.43a4.25,4.25,0,0,1,.29.78,9.51,9.51,0,0,1,.16,1.1,8.43,8.43,0,0,1,2.42-1.84,6.24,6.24,0,0,1,2.76-.56,7,7,0,0,1,2.81.55,6.27,6.27,0,0,1,2.18,1.58,7.08,7.08,0,0,1,1.41,2.46A9.45,9.45,0,0,1,338.73,96Zm-5.32.89a3.8,3.8,0,0,0-.79-2.57,2.72,2.72,0,0,0-2.19-.92,3.17,3.17,0,0,0-2.59,1.17,4.93,4.93,0,0,0-.95,3.17v2.31a4.26,4.26,0,0,0,2.84,1.07,3.42,3.42,0,0,0,2.69-1.12A4.55,4.55,0,0,0,333.41,96.92Z"/><path class="cls-2" d="M350.41,83.44a2.19,2.19,0,0,1-.92,1.78,3.7,3.7,0,0,1-4.44,0,2.43,2.43,0,0,1-1-1.83,2.2,2.2,0,0,1,.88-1.84,3.86,3.86,0,0,1,3.5-.54,3.13,3.13,0,0,1,1,.56,2.81,2.81,0,0,1,.68.85A2.11,2.11,0,0,1,350.41,83.44Zm-6,22.43V88.27h5.32v17.6Z"/><path class="cls-2" d="M373.21,96a13.29,13.29,0,0,1-.56,4,9.59,9.59,0,0,1-1.58,3.11,7.19,7.19,0,0,1-2.42,2,6.84,6.84,0,0,1-3.11.71,6.93,6.93,0,0,1-2.1-.28,6.35,6.35,0,0,1-1.79-1v13.23h-5.6V93.54a10.17,10.17,0,0,0-.06-1c0-.39-.09-.81-.16-1.24s-.14-.86-.24-1.29a7.42,7.42,0,0,0-.34-1.2h5.43a5.14,5.14,0,0,1,.29.78,9.51,9.51,0,0,1,.16,1.1,8.54,8.54,0,0,1,2.41-1.84,6.31,6.31,0,0,1,2.77-.56,7,7,0,0,1,2.81.55,6.27,6.27,0,0,1,2.18,1.58,7.08,7.08,0,0,1,1.41,2.46A9.45,9.45,0,0,1,373.21,96Zm-5.32.89a3.8,3.8,0,0,0-.79-2.57,2.72,2.72,0,0,0-2.19-.92,3.17,3.17,0,0,0-2.59,1.17,4.93,4.93,0,0,0-.95,3.17v2.31a4.26,4.26,0,0,0,2.84,1.07A3.43,3.43,0,0,0,366.9,100,4.55,4.55,0,0,0,367.89,96.92Z"/><path class="cls-2" d="M394,93.11a4.51,4.51,0,0,1-.71,2.48,5.94,5.94,0,0,1-2,1.9,11.21,11.21,0,0,1-3.11,1.22,17.53,17.53,0,0,1-4.08.44l-.48,0a6.33,6.33,0,0,0-.65,0,3.72,3.72,0,0,0,1.2,2.38,3.84,3.84,0,0,0,2.59.86,11.82,11.82,0,0,0,5.89-1.8v4.2a11.87,11.87,0,0,1-2.9,1.26,12.23,12.23,0,0,1-3.14.38,10.37,10.37,0,0,1-3.62-.6,7.39,7.39,0,0,1-2.74-1.74,7.89,7.89,0,0,1-1.72-2.72,10.07,10.07,0,0,1-.6-3.58,11.23,11.23,0,0,1,.7-4,9.34,9.34,0,0,1,2-3.14,8.67,8.67,0,0,1,3-2,10.19,10.19,0,0,1,3.88-.72,7.29,7.29,0,0,1,4.74,1.44A4.68,4.68,0,0,1,394,93.11Zm-5.32.4a1.37,1.37,0,0,0-.55-1.1,2,2,0,0,0-1.38-.46,3.17,3.17,0,0,0-2.28.94,4.48,4.48,0,0,0-1.23,2.58,3.79,3.79,0,0,0,.64.08h.59Q388.66,95.55,388.65,93.51Z"/><path class="cls-2" d="M404.57,103.4a2.14,2.14,0,0,1-.91,1.76,3.72,3.72,0,0,1-4.44,0,2.31,2.31,0,0,1-.06-3.66,3.21,3.21,0,0,1,2.13-.74,3.5,3.5,0,0,1,2.33.79A2.38,2.38,0,0,1,404.57,103.4Z"/></svg>