<svg xmlns="http://www.w3.org/2000/svg" viewBox="0 0 630 750"><defs><style>.cls-1{isolation:isolate;}.cls-2{fill:#513725;stroke:#381b05;}.cls-2,.cls-20,.cls-21,.cls-3,.cls-6,.cls-8,.cls-9{stroke-miterlimit:10;}.cls-3{fill:#2b1026;stroke:#890e6c;}.cls-4{fill:#23220c;}.cls-5{fill:#847b28;}.cls-6{fill:#53506f;}.cls-20,.cls-6{stroke:#232338;}.cls-7,.cls-8{fill:#d0e2ec;}.cls-8{stroke:#626299;}.cls-16,.cls-9{fill:#f4c9ab;}.cls-9{stroke:#965e38;stroke-width:0.75px;}.cls-10{fill:#ddaa87;}.cls-11{fill:#ea9653;}.cls-12{fill:#542d19;}.cls-13{fill:#f7eee8;}.cls-14{fill:#e07a5f;}.cls-15{fill:#ad7b59;}.cls-17{fill:#965e38;}.cls-18{fill:#d89f79;}.cls-19{fill:#f4f42a;}.cls-20{fill:#6b698c;}.cls-21{fill:none;stroke:#1d1d49;}.cls-22{fill:#36344f;}.cls-23{fill:#047fa5;}.cls-24,.cls-27,.cls-29{fill:#001e3f;}.cls-24,.cls-28{opacity:0.2;}.cls-24,.cls-27,.cls-28,.cls-29{mix-blend-mode:overlay;}.cls-25{fill:#1ec4d6;}.cls-26{fill:#0f9fb7;}.cls-27{opacity:0.3;}.cls-28{fill:#fff;}.cls-29{opacity:0.1;}</style></defs><g class="cls-1"><g id="Layer_1" data-name="Layer 1"><path class="cls-2" d="M168.3,631S132.36,685,134.07,742.29l251.59.85s-6.85-59-29.1-118.09-3.42.86-3.42.86Z"/><path class="cls-3" d="M207.66,647.3S298.37,667,346.3,637l-2.57-41.93L220.5,608.79Z"/><polygon class="cls-2" points="319.77 616.49 319.13 651.37 327.25 649.87 327.9 614.78 319.77 616.49"/><polygon class="cls-2" points="278.69 621.63 279.55 655.86 270.56 655.22 270.56 619.92 278.69 621.63"/><path class="cls-4" d="M239.9,151.82c0,52-12.35,107.77-48.49,105.26C129.79,252.8,105,197,105,145s33.09-87.29,69.32-87.29S239.9,99.84,239.9,151.82Z"/><ellipse class="cls-4" cx="153.92" cy="67.97" rx="55.67" ry="51.54" transform="translate(-2.98 128.74) rotate(-45)"/><path class="cls-5" d="M202.75,33.85c18.46,18.46,14.8,63.28-6.94,85s-54.32,24.41-72.77,5.95-13.43-58.48,8.3-80.22S184.3,15.4,202.75,33.85Z"/><path class="cls-6" d="M452.35,604.47c-12,17.69-53.51-39.42-53.51-39.42s-20.14-46.4-43.7-97.17c-19.46-41.94-45.64-164.31-45.64-164.31s33.09,4,59.33,42.8S397.1,488.18,397.1,488.18,461,591.69,452.35,604.47Z"/><path class="cls-7" d="M223.35,613.36s82.15,18.25,119.24-4.57l13.69-169.44s-8-87.28-48.49-110.67S192,330.39,192,330.39,168,357.2,223.35,613.36Z"/><path class="cls-8" d="M203.39,478.72s54.19,38.22,82.15,10.84c0,0,16-12.55,41.64-4s43.93-23.39,43.93-23.39"/><path class="cls-9" d="M280.4,391.43c-58.19-4.56-89.57-91.28-89.57-91.28a91.7,91.7,0,0,0,3.1-26.86c-.48-12.76-3.67-20.49-3.67-20.49a8.54,8.54,0,0,1,.34-2.12c4.43-15.14,52.47-8.85,65.55,10.4a17.44,17.44,0,0,1,2.57,15.12c-4,14,5,19.87,12.15,22.29a33.88,33.88,0,0,0,7.82,1.66l21.68,31.38C318.62,396.57,280.4,391.43,280.4,391.43Z"/><path class="cls-6" d="M113.82,332.1s17.11-24,78.16-39.36c0,0,51.34,90.14,64.46,178.56s-.57,186.55-53.62,244.75c0,0-37.09,2.28-74.17-46.79,0,0,53.63-48.49,58.76-93.56s-37.65-93.56-51.91-147.76S113.82,332.1,113.82,332.1Z"/><path class="cls-10" d="M193,289.09c5.35,7-9,39.32,14.26,30.81,14.83-5.42,48.49-20,56.76-24.25-7.7-8-12.47-11.47-8.84-25.1,1.46-5.49,1.08-4.36-1.67-8.64l-38.62-15.13-21.56,5"/><path class="cls-9" d="M309.11,271.34s-11.84,18.48-34.38,19.87S204.92,287,175,239.77a295.22,295.22,0,0,1-17.52-49.67c-.52-2.16-3.58-3-4-5.25l-11-24.56S158,58.7,227.17,48.19c0,0,107.61-13.76,112,36.81.58,6.69,3.11,11.4.54,21.76a89.69,89.69,0,0,0-1.39,9.43,159,159,0,0,0-.85,18.4c.06,9.64-3.32,25.95-.84,39.15C343.5,210.54,337.94,240.83,309.11,271.34Z"/><path d="M254,151a45.1,45.1,0,0,0-5.45-5.23,47.2,47.2,0,0,0-6.26-4.34A35,35,0,0,0,228,136.63a32.46,32.46,0,0,0-7.62.23l-1.93.23-1.91.31c-1.29.18-2.54.49-3.81.74a43.31,43.31,0,0,0-7.38,2.41,22.53,22.53,0,0,0-3.42,1.84A10.78,10.78,0,0,0,199,145a10.84,10.84,0,0,1,2.73-2.8,23.23,23.23,0,0,1,3.35-2.1,44.3,44.3,0,0,1,7.33-2.93c1.27-.34,2.53-.74,3.82-1l1.93-.44,1.94-.37a30.92,30.92,0,0,1,8-.56,37.09,37.09,0,0,1,15.35,4.52,48.86,48.86,0,0,1,6.76,4.34,46.5,46.5,0,0,1,6,5.41Z"/><path d="M292.38,143.16a35.46,35.46,0,0,1,4.87-3.76,40.19,40.19,0,0,1,5.31-2.9,31.22,31.22,0,0,1,11.69-2.84A26.46,26.46,0,0,1,325.92,136a35.52,35.52,0,0,1,9.7,6.65,35.12,35.12,0,0,0-10-6,26.52,26.52,0,0,0-5.58-1.4,26,26,0,0,0-5.71-.11,29.33,29.33,0,0,0-10.8,3.36,37.37,37.37,0,0,0-4.8,3,33.43,33.43,0,0,0-4.21,3.68Z"/><path class="cls-11" d="M239.39,232.94s18.43,29.63,37.46,30.69,31.18-34,31.18-34S288.05,241.07,239.39,232.94Z"/><path class="cls-12" d="M241.62,234.17s16.06,21.48,35.1,22.53,31.92-28.14,31.92-28.14S292.24,247.5,241.62,234.17Z"/><path class="cls-13" d="M245.87,234.87s7.09,10.7,18.83,11.92,23.49,2.28,33-5.61l7.29-9.29S279.08,247.85,245.87,234.87Z"/><path class="cls-11" d="M239.39,232.94s24.3,5.26,38.88,4,25.92-2.28,31-9.65c0,0-8.1,13.5-33.41,13.15S239.39,232.94,239.39,232.94Z"/><path class="cls-14" d="M261.28,251.47a14.47,14.47,0,0,1,13.07-.73s8.91-3.33,16.61,1.23C291,252,278.49,263.22,261.28,251.47Z"/><path class="cls-15" d="M240.2,229.61s-5.67.7-2.63,6.66C237.57,236.27,237,231.89,240.2,229.61Z"/><path class="cls-15" d="M309.67,231.08s4-3.57-2.65-6.66C307,224.42,310.61,227.55,309.67,231.08Z"/><path class="cls-16" d="M287.67,168.71s-4,12.24,4.85,26.88c.67,1.11,1.33,2.22,1.91,3.36l1.68,3.33a8,8,0,0,1-3.67,10.8l-.22.11c-7.4,3.77-16.88,2.72-20.05-5.09"/><path class="cls-17" d="M287.71,168.72a32.93,32.93,0,0,0,.87,17.66,41,41,0,0,0,3.62,8.15c.74,1.29,1.57,2.55,2.27,3.89s1.37,2.65,2,4a8.19,8.19,0,0,1-1.17,8.79,10.35,10.35,0,0,1-3.76,2.68,19,19,0,0,1-4.35,1.38,15.56,15.56,0,0,1-9-.77A11.21,11.21,0,0,1,274.5,212a11.62,11.62,0,0,1-2.36-3.83l.07,0a11.07,11.07,0,0,0,6.22,6,15.42,15.42,0,0,0,8.67.53,20.48,20.48,0,0,0,4.18-1.38,9.41,9.41,0,0,0,3.5-2.47,8,8,0,0,0,1.76-3.85,7.58,7.58,0,0,0-.59-4.2c-.63-1.34-1.32-2.69-2-4s-1.47-2.58-2.2-3.9a41.17,41.17,0,0,1-3.55-8.28,33.14,33.14,0,0,1-.59-17.8Z"/><path class="cls-4" d="M277.19,71.91s-81.87,3.87-123.75,112.94l-20.07,1.42S69.07,113.72,155,41.83c58-48.51,103.52-33.7,103.52-33.7S361.62,16,357.59,112c-1.95,46.27-21.65,60-21.65,60S347.57,94.46,277.19,71.91Z"/><path class="cls-16" d="M156.25,187.42s-6.4-14.5-17.42-19.17-25.61,15-10,35.3,38.17,29.69,38.43,15"/><path class="cls-17" d="M156.22,187.43a50,50,0,0,0-8.79-12.83,28.58,28.58,0,0,0-6-4.86,14.82,14.82,0,0,0-1.72-.91l-.87-.42-.9-.32a8.68,8.68,0,0,0-3.79-.24,10.54,10.54,0,0,0-3.6,1.27,14.1,14.1,0,0,0-3,2.37,18,18,0,0,0-4,6.54,21.75,21.75,0,0,0-1.21,7.59,25.79,25.79,0,0,0,1.31,7.59,38.37,38.37,0,0,0,8,13.16,75.49,75.49,0,0,0,11.18,10.78,55.8,55.8,0,0,0,6.39,4.41,32.88,32.88,0,0,0,7,3.19,15.77,15.77,0,0,0,3.78.71,8,8,0,0,0,3.73-.58,5.28,5.28,0,0,0,2.66-2.61,10.09,10.09,0,0,0,.83-3.76h.08a10.11,10.11,0,0,1-.72,3.84,5.62,5.62,0,0,1-2.7,2.84,8.44,8.44,0,0,1-3.9.69,16.42,16.42,0,0,1-3.89-.67,33.53,33.53,0,0,1-7.22-3.12,56.36,56.36,0,0,1-6.55-4.35A76,76,0,0,1,131,206.85a39.08,39.08,0,0,1-8-13.46,26.57,26.57,0,0,1-1.29-7.77,22.59,22.59,0,0,1,1.3-7.76,18.59,18.59,0,0,1,4.13-6.68,15.32,15.32,0,0,1,3.13-2.42,11.29,11.29,0,0,1,3.74-1.28,9,9,0,0,1,3.94.29l.94.34.88.44a12.57,12.57,0,0,1,1.73.94,28.34,28.34,0,0,1,6.06,5,50.1,50.1,0,0,1,8.69,13Z"/><path class="cls-18" d="M130.67,187.9a29.54,29.54,0,0,1,4.61-7.67l.05-.06.08,0a9,9,0,0,1,6.35.84,15.63,15.63,0,0,1,5,4,19.34,19.34,0,0,1,4.58,11.89l0,.75-.71-.28a7.33,7.33,0,0,0-4.19-.52,3.85,3.85,0,0,0-1.83.87,3.28,3.28,0,0,0-1,1.68,2.18,2.18,0,0,0,.34,1.81,3.43,3.43,0,0,0,1.65,1.13,10.06,10.06,0,0,0,4.36.23,22.27,22.27,0,0,1,2.33-.13,3.77,3.77,0,0,1,2.36.71,4.47,4.47,0,0,1,1.48,4.43,5,5,0,0,1-2.93,3.55,6,6,0,0,1-4.53.13,6.08,6.08,0,0,0,4.42-.38,4.6,4.6,0,0,0,2.54-3.4,3.89,3.89,0,0,0-1.36-3.81,3,3,0,0,0-2-.51,21.79,21.79,0,0,0-2.25.19,10.28,10.28,0,0,1-4.73-.18,4.33,4.33,0,0,1-2.08-1.43,3.08,3.08,0,0,1-.52-2.54,4.54,4.54,0,0,1,3.56-3.3,8,8,0,0,1,4.79.56l-.69.46a18.42,18.42,0,0,0-4.25-11.36,15.5,15.5,0,0,0-4.67-4,8.39,8.39,0,0,0-5.91-1l.13-.08A31,31,0,0,0,130.67,187.9Z"/><ellipse class="cls-19" cx="159.97" cy="217.92" rx="6.28" ry="5.73"/><path class="cls-16" d="M277.19,75.41S274,40.53,261.58,14.48s8.61,16.6,8.61,16.6,9.72,24.5,3.89,43.94"/><path class="cls-6" d="M314.06,305.29s-26.24-6.85-50.77-11.41c0,0,50.77,41.64,65,113.53s10.27,95.84,7.42,127.22-6.84,153.46,13.12,173.43c0,0,47.35-24.53,37.08-68.46,0,0-27.95-45.07-21.1-150,0,0,22.82-33.09,10.27-74.17,0,0-8-34.8-24.54-68.46"/><path class="cls-20" d="M192.58,279.45s-17.15,9.29-17.72,44.09l13.69.57s-6.27,17.12,4,42.79S249,447.91,257,499.26l2.28,19.39s-2.28-90.14-37.08-162Z"/><path class="cls-20" d="M260.44,292.17s54.19,50.2,66.17,106.11c0,0,10.84,61.61,11.41,97,0,0,9.7-79.87-4-118.66s-37.65-62.76-37.65-62.76S307.22,300.72,260.44,292.17Z"/><path class="cls-6" d="M121.23,323.83S158,321.26,170,382.88"/><path class="cls-21" d="M275.27,744s8.56-14.55,15.4-38.51l24.82-21.39"/><path class="cls-4" d="M262.15,71.38s-53.65,73-107.83,75.88c0,0,74.69-5.71,106.77-83.29Z"/><path class="cls-22" d="M133,418l13.48-13.82s-3.42,40.07,0,53.34Z"/><path class="cls-23" d="M219.71,462s0,.56.07,1.51a32,32,0,0,1,2.68-2.66,28,28,0,0,0,.73,12.47l38,130.84a2.75,2.75,0,0,1-1.87,3.4,2.63,2.63,0,0,1-1.24.07,2.74,2.74,0,0,1-2.17-1.94l-2.63-9.05-3.71,21.23L238.3,584.81l-21.78-76.65S201.59,470,219.71,462Z"/><path class="cls-24" d="M238.3,584.81l-2.75-9.67a35.08,35.08,0,0,0,2.52-4.68c2.83-6.08,5.47-12.24,8-18.46l15.16,52.18a2.75,2.75,0,0,1-1.87,3.4,2.63,2.63,0,0,1-1.24.07,2.74,2.74,0,0,1-2.17-1.94l-2.63-9.05-3.71,21.23Z"/><path class="cls-24" d="M216.52,508.16S201.59,470,219.71,462c0,0,0,.56.07,1.51a32,32,0,0,1,2.68-2.66,28,28,0,0,0,.73,12.47l6.45,22.18c-4.38,10-6.39,20.78-7.72,31.67Z"/><path class="cls-25" d="M230,438.73a33.22,33.22,0,0,1,9.26-4.9l.05,0h0a33.64,33.64,0,0,1,16.5-1.24l31.93,5.59a2.75,2.75,0,1,1-.95,5.41l-6.24-1.09.68,16.37s-34.5-8.2-47.53-5.18-24,18.35-24,18.35S212.89,450.73,230,438.73Z"/><path class="cls-26" d="M249.36,625.17a2.75,2.75,0,0,0,3.11-3.48l-38-130.84a28,28,0,0,1,31.68-35.35l31.94,5.59a2.75,2.75,0,0,0,.94-5.41l-31.93-5.59a33.47,33.47,0,0,0-37.91,42.3l38,130.84A2.74,2.74,0,0,0,249.36,625.17Z"/><path class="cls-23" d="M244.77,629.71c15.78-4.62,55.2-3,100.46,4.92s82.88,19.78,96.15,29.49l6.18,1.08-1.11,6.31c-1.8,10.27-50,10.41-107.73.31s-103-26.61-101.23-36.88l1.11-6.31Z"/><path class="cls-27" d="M289.3,633.85q-3.78,12.42-7.58,24.83c-27.7-8.28-45.36-17.25-44.23-23.74l1.11-6.31,6.17,1.08c5.71-1.67,14.51-2.52,25.55-2.56C276.35,630.31,282.56,632.89,289.3,633.85Z"/><path class="cls-27" d="M423.81,655.17c7.67,3.06,13.67,6.1,17.57,9l6.18,1.08-1.11,6.31c-.85,4.88-12.19,7.47-30,7.77C418.05,670.72,420.35,662.36,423.81,655.17Z"/><ellipse class="cls-25" cx="343.08" cy="646.91" rx="18.88" ry="106.07" transform="translate(-353.3 873.33) rotate(-80.07)"/><path class="cls-26" d="M479.72,447.11l-37.64,215c-1.62,9.24-47.09,9-101.58-.53s-97.34-24.76-95.72-34l37.64-215Z"/><path class="cls-28" d="M390.89,453.22c-4.81,38.54-9,71.9-13.77,110.43-2.53,20.29-5.4,41.47-17.11,58.22-1.64,2.35-3.75,4.76-6.59,5.06-5.46.58-8.21-6.35-8.95-11.8-8.17-59.88,4.43-120.43,17-179.55C371.68,433.63,394.76,455.36,390.89,453.22Z"/><path class="cls-24" d="M327.7,449.59c-6.21,29.9-12.6,59.76-18.9,89.64-4.77,22.64-9.53,46.22-3.87,68.65,5.27,20.88,19.33,38.8,36.39,51.93,1.13.86,2.27,1.71,3.42,2.54l-4.24-.73c-54.48-9.53-97.34-24.76-95.72-34l37.64-215,48.73,8.53C330.08,430.71,329.7,439.94,327.7,449.59Z"/><path class="cls-24" d="M263.34,641.36c-12.26-5.06-19.23-9.91-18.56-13.74l37.64-215,22.9,4s-6.83,36.07-9.8,49.53q-16.09,73.07-27.86,147Q265.43,627.22,263.34,641.36Z"/><path class="cls-24" d="M287.86,621.43c47.22,15.88,116.55,14.75,132.73-41.67q19.47-67.86,33.18-137.2l26,4.55-37.64,215c-1.62,9.24-47.09,9-101.58-.53s-97.34-24.76-95.72-34l4.74-27.08A125.41,125.41,0,0,0,287.86,621.43Z"/><path class="cls-29" d="M463.66,444.29l16.06,2.82-37.64,215c-.59,3.38-7.05,5.49-17.66,6.34Z"/><path class="cls-23" d="M285.32,413.08c17.23-3.43,54.79-1.36,97.61,6.13s78.85,18.31,93.89,27.39l8.73,1.53-1.25,7.1c-1.71,9.79-49.87,9.54-107.58-.56s-103.09-26.22-101.37-36l1.24-7.11Z"/><path class="cls-24" d="M308,438c-20.88-7-33.55-14.09-32.63-19.34l1.24-7.11,8.73,1.53a99.47,99.47,0,0,1,16.28-1.53l11.21,5.8Q310.65,427.73,308,438Z"/><path class="cls-24" d="M459.11,446.86c-.09-3-1-5.92-1.38-8.86a114.55,114.55,0,0,1,19.09,8.6l8.73,1.53-1.25,7.1c-.75,4.33-10.6,6.69-26.33,7.11A83.17,83.17,0,0,0,459.11,446.86Z"/><ellipse class="cls-25" cx="381.07" cy="429.84" rx="18" ry="106.07" transform="translate(-108.03 731.1) rotate(-80.07)"/><ellipse class="cls-23" cx="412.83" cy="435.4" rx="8.75" ry="51.6" transform="translate(-87.22 766.99) rotate(-80.07)"/><path class="cls-26" d="M433.38,559.37h0l125.88-89.94,22.86,23.75L430.87,649.31a24.39,24.39,0,0,1-3.85,4l0,0h0c-2.37,1.89-4.76,2.75-7,2.35-9.52-1.66-13.46-24.64-8.79-51.32C415.28,580.84,424.69,562.32,433.38,559.37Z"/><path class="cls-24" d="M423.88,571.8c-.95,8.57-.46,18.34,5.87,24.19,5.43,5,13.84,5.57,20.86,3.28s13-7,18.68-11.64q21.38-17.39,41.8-35.9,17.71-16.05,34.67-32.92c9.54-9.48,20.56-18.61,25.8-31.29.53-1.29,1-2.54,1.5-3.77l9.06,9.42L430.87,649.31a24.39,24.39,0,0,1-3.85,4l0,0h0c-2.37,1.89-4.76,2.75-7,2.35-9.52-1.66-13.46-24.64-8.79-51.32,2.71-15.47,7.72-28.78,13.3-36.91C424.24,568.88,424,570.34,423.88,571.8Z"/><path class="cls-23" d="M555.41,439.58l58.39,58.65-31.68-5.06c-2.34,2.25-9.35-1.24-15.66-7.79s-9.54-13.7-7.2-16Z"/><ellipse class="cls-26" cx="586.94" cy="465.66" rx="18.55" ry="51.98" transform="translate(-158.86 537.2) rotate(-43.91)"/><ellipse class="cls-25" cx="586.94" cy="465.66" rx="16.7" ry="46.78" transform="translate(-158.86 537.2) rotate(-43.91)"/><path class="cls-23" d="M585.72,466.83c1.81,1.89,3.83,2.89,4.5,2.24s-.25-2.7-2.07-4.58-3.82-2.89-4.49-2.24S583.91,465,585.72,466.83Z"/><path class="cls-23" d="M583.37,457.35c1.81,1.89,3.83,2.89,4.5,2.24s-.25-2.7-2.07-4.58-3.82-2.88-4.49-2.24S581.56,455.47,583.37,457.35Z"/><path class="cls-23" d="M593.69,459.16c1.81,1.88,3.83,2.89,4.5,2.24s-.25-2.7-2.06-4.58-3.83-2.89-4.5-2.24S591.88,457.28,593.69,459.16Z"/><path class="cls-23" d="M578.15,447.45c1.81,1.88,3.83,2.88,4.5,2.24s-.26-2.7-2.07-4.58-3.82-2.89-4.5-2.24S576.34,445.57,578.15,447.45Z"/><path class="cls-23" d="M595.76,469.82c-1.9-1.79-2.92-3.79-2.28-4.47s2.7.22,4.6,2,2.92,3.8,2.28,4.47S597.66,471.62,595.76,469.82Z"/><path class="cls-23" d="M577,464.71c1.81,1.88,3.83,2.88,4.5,2.23s-.25-2.69-2.07-4.58-3.82-2.88-4.5-2.23S575.21,462.82,577,464.71Z"/><path class="cls-23" d="M589.41,477.18c-1.9-1.8-2.93-3.8-2.29-4.48s2.7.22,4.6,2,2.93,3.8,2.29,4.48S591.31,479,589.41,477.18Z"/><path class="cls-23" d="M605.71,475c-1.9-1.79-2.92-3.8-2.28-4.48s2.7.23,4.6,2,2.92,3.8,2.28,4.48S607.61,476.74,605.71,475Z"/><path class="cls-23" d="M578.14,473.84c1.81,1.88,3.82,2.89,4.5,2.24s-.26-2.7-2.07-4.58-3.82-2.89-4.5-2.24S576.33,472,578.14,473.84Z"/><ellipse class="cls-23" cx="568.02" cy="458.21" rx="1.69" ry="4.73" transform="translate(-158.98 522.01) rotate(-43.91)"/><path class="cls-23" d="M594.37,486.88c-1.9-1.79-2.92-3.8-2.28-4.47s2.7.22,4.6,2,2.92,3.8,2.28,4.47S596.27,488.68,594.37,486.88Z"/><path class="cls-23" d="M575.68,456.4c1.81,1.88,3.82,2.88,4.49,2.23s-.25-2.69-2.06-4.58-3.83-2.88-4.5-2.23S573.86,454.51,575.68,456.4Z"/><path class="cls-23" d="M565.63,446c1.81,1.88,3.83,2.89,4.5,2.24s-.25-2.7-2.07-4.58-3.82-2.89-4.49-2.24S563.82,444.08,565.63,446Z"/><path class="cls-23" d="M605.25,486.53c1.81,1.89,3.83,2.89,4.5,2.24s-.25-2.7-2.07-4.58-3.82-2.88-4.49-2.24S603.44,484.65,605.25,486.53Z"/><path class="cls-23" d="M595.21,476.1C597,478,599,479,599.7,478.34s-.25-2.7-2.06-4.58-3.83-2.89-4.5-2.24S593.39,474.22,595.21,476.1Z"/><path class="cls-27" d="M427,653.32h0c-2.37,1.89-4.76,2.75-7,2.35-9.52-1.66-13.46-24.64-8.79-51.32,4.12-23.5,13.53-42,22.22-45h0l5.34-3.81c-5.51,18.89-7.94,38.52-.86,56.46a41.48,41.48,0,0,0,12.38,17.3l-19.37,20a24.39,24.39,0,0,1-3.85,4Z"/><path class="cls-28" d="M595.37,494.27c-3.94-20.11-9.45-40-18.46-58.21a110.45,110.45,0,0,1,22.06,18l.66.7c1,4.68,2.09,9.36,3,14.05,2,10.16,3.52,20.56,3.43,30.89A57.36,57.36,0,0,1,595.37,494.27Z"/><path class="cls-28" d="M561.58,430.09c3.7.35,8.27,2,13.29,4.8,8,17.95,14,36.83,16,56.32a112.93,112.93,0,0,1-10.13-8.3C576.41,464.53,570.6,446.55,561.58,430.09Z"/><path class="cls-28" d="M239.28,433.83l.05,0h0a33.28,33.28,0,0,1,12.42-1.69,211.7,211.7,0,0,0-15.68,21.15,21.24,21.24,0,0,0-2.35.4,30.67,30.67,0,0,0-10.4,4.92,87.53,87.53,0,0,1,1.41-15.47,43.41,43.41,0,0,1,5.29-4.39A33.22,33.22,0,0,1,239.28,433.83Z"/><path class="cls-26" d="M350.8,391.26c8.2-34.63,19-53.57,32.05-56.29a15.36,15.36,0,0,1,5.15-.25h0l24.5,4.29-.31,1.75L398.58,346l-11.71,19.09L375.4,397.5l-7.31,50.78-23.54-4.12-.18,0a2.41,2.41,0,0,1-2-2.6A428.16,428.16,0,0,1,350.8,391.26Z"/><path class="cls-23" d="M397.34,347.57s9.3-9.76,16.66-6,11,16.57,12.08,27.9-1.7,53.6-1.7,53.6l-23.54-4.12a2.42,2.42,0,0,1-2.07-2.69c1.87-14.1,4.38-48.67-1.85-66.25.43-.41.88-.81,1.33-1.2A11.43,11.43,0,0,0,397.34,347.57Z"/><path class="cls-24" d="M398.77,416.22c.6-4.51,1.26-11.1,1.68-18.56,1.38.45,2.74.95,4.08,1.44a121.24,121.24,0,0,0,20.86,6c-.49,9.94-1,17.89-1,17.89l-23.54-4.12A2.42,2.42,0,0,1,398.77,416.22Zm26.32-53.91c-1.72-9.13-5.24-17.83-11.09-20.78-7.36-3.72-16.66,6-16.66,6a11.43,11.43,0,0,1,.91,1.2c-.45.39-.9.79-1.33,1.2a67,67,0,0,1,3,14.42q7-.17,14.05-.8C416.66,363.34,420.87,363.08,425.09,362.31Z"/><path class="cls-26" d="M368.58,448.38l.19,0a2.4,2.4,0,0,0,2.62-2.16c2.58-26.88,14.2-97.66,36.65-102.33a8.78,8.78,0,0,1,8.28,2.12c12.07,11.21,8.91,57.53,6.67,74.42a2.41,2.41,0,1,0,4.77.63c.34-2.58,8.18-63.39-8.17-78.57a13.39,13.39,0,0,0-12.53-3.3c-13.06,2.72-23.84,21.66-32,56.29a425.73,425.73,0,0,0-8.41,50.28A2.41,2.41,0,0,0,368.58,448.38Z"/><path class="cls-28" d="M375.84,396.26q-12.81-1.14-25.58-2.67l.54-2.33a226.71,226.71,0,0,1,6.58-22.88q12.75,3.94,25.34,8.47Z"/><path class="cls-9" d="M158.06,532.36l3.41,41.07s43.26,6.22,63.53-35.36c0,0,10.44-7.53,18.93,4.47,0,0,1.75,8,5.52,12,5.11-3,13.17-22.51,2.75-29.32,0,0,8.56-2.5,1.48-14.39,0,0,5.64-8.57-4.23-15.74,0,0,2.23-2.87,2.38-4,1.71-13.25-16.48-13.46-33.43-10.66-17.24,2.86-26.25,23.07-38.86,37.78S158.06,532.36,158.06,532.36Z"/><path class="cls-9" d="M252.92,525.47s-18.27-9.06-30.63-8.51"/><path class="cls-9" d="M253.68,510.8s-20.23-9.55-34-9.11"/><path class="cls-9" d="M249.45,495.06s-15.63-9.39-31-6.23"/><path class="cls-6" d="M153.69,397.54c-37.54,30-63.45,78.33-82.27,109.18,10.77,24.49,89.07,24.49,89.07,24.49l4.7,44.72S66.05,582.1,39.4,575C-.82,564.34.64,532.6,10.3,499.07,47.1,371.35,121.23,323.83,121.23,323.83"/><path class="cls-6" d="M71.16,506.1s-21-1.1-35.51,25.11"/><path class="cls-9" d="M489.24,616s3.85,7.62-3.28,11.11-9.69,1.1-9.69,1.1,3.56,11.34-9.65,9.36c0,0,.07,12.16-13.95,7.31,0,0,3.87,11.83-7.65,8s-12.51-15.16-3-16c0,0-4.73-9.56,3.71-12.32,0,0,4.57-1.35,8,.79,0,0-3.22-7,1.27-9.56s10.11,0,10.11,0-3.88-7.31,1.4-11.26,20.29,10,20.29,10Z"/><line class="cls-9" x1="477.28" y1="628.48" x2="465.09" y2="615.83"/><line class="cls-9" x1="466.62" y1="637.6" x2="453.71" y2="625.37"/><path class="cls-9" d="M454.2,645.19s-8.8-5.84-13-9.13"/></g></g></svg>