<?xml version="1.0" encoding="utf-8"?>
<!-- Generator: Adobe Illustrator 25.2.3, SVG Export Plug-In . SVG Version: 6.00 Build 0)  -->
<svg version="1.1" id="Layer_1" xmlns="http://www.w3.org/2000/svg" xmlns:xlink="http://www.w3.org/1999/xlink" x="0px" y="0px"
	 viewBox="0 0 510 510" style="enable-background:new 0 0 510 510;" xml:space="preserve">
<style type="text/css">
	.st0{opacity:0.3;enable-background:new    ;}
	.st1{opacity:0.91;fill:url(#SVGID_1_);enable-background:new    ;}
	.st2{clip-path:url(#SVGID_3_);}
	.st3{fill:url(#SVGID_4_);}
	.st4{fill:url(#SVGID_5_);}
	.st5{fill:url(#SVGID_6_);}
	.st6{fill:url(#SVGID_7_);}
	.st7{fill:none;stroke:#FEFFEB;stroke-width:0.25;stroke-miterlimit:10;}
	.st8{opacity:0.43;}
	.st9{fill:none;stroke:#FEFFEB;stroke-width:0.5;stroke-miterlimit:10;}
	.st10{fill:#426E72;}
	.st11{fill:#264547;}
	.st12{fill:#E5D2C1;}
	.st13{fill:#E8D75D;}
	.st14{fill:#DBDAD9;}
	.st15{fill:#C6B663;}
	.st16{opacity:0.15;fill:#EA3B48;enable-background:new    ;}
	.st17{fill:#383C54;}
	.st18{fill:#878686;}
	.st19{fill:url(#SVGID_8_);}
	.st20{fill:#D5DADB;}
	.st21{fill:#E9EAE5;}
	.st22{fill:none;}
	.st23{fill:#9B2454;stroke:#323232;stroke-miterlimit:10;}
	.st24{fill:#F9DAD2;stroke:#4C2606;stroke-miterlimit:10;}
	.st25{fill:#B26B51;}
	.st26{fill:#E7D760;stroke:#BAA73B;stroke-miterlimit:10;}
	.st27{fill:#F9D1C6;stroke:#323232;stroke-miterlimit:10;}
	.st28{fill:#F75E95;stroke:#323232;stroke-miterlimit:10;}
	.st29{fill:#F4C3D7;stroke:#323232;stroke-miterlimit:10;}
	.st30{fill:#342516;}
	.st31{fill:#951C27;}
	.st32{fill:#F4EAE9;stroke:#664138;stroke-miterlimit:10;}
	.st33{fill:#F5968E;}
	.st34{fill:#F4756E;}
	.st35{fill:#C7EEF2;stroke:#323232;stroke-miterlimit:10;}
	.st36{fill:#ED865D;stroke:#323232;stroke-miterlimit:10;}
	.st37{fill:#9ACED6;stroke:#323232;stroke-miterlimit:10;}
	.st38{fill:#F4C9AB;}
	.st39{fill:#6B4B36;}
	.st40{fill:none;stroke:#323232;stroke-miterlimit:10;}
	.st41{fill:#F79FC3;stroke:#323232;stroke-miterlimit:10;}
	.st42{fill:#D8A99E;}
	.st43{fill:#F9988F;}
	.st44{fill:#F9F6F2;stroke:#323232;stroke-miterlimit:10;}
	.st45{fill:#3D2D16;stroke:#3D2D16;stroke-miterlimit:10;}
	.st46{fill:#F9F6F2;}
	.st47{fill:#3D2D16;}
	.st48{fill:#FFFFFF;stroke:#99807C;stroke-miterlimit:10;}
	.st49{fill:#F71C46;stroke:#323232;stroke-miterlimit:10;}
	.st50{fill:#EF4B3B;}
	.st51{fill:#FE66CA;stroke:#AF1086;stroke-width:2;stroke-miterlimit:10;}
	.st52{fill:#FFFA71;}
	.st53{fill:#CC0098;}
	.st54{fill:#E852BB;stroke:#AF1086;stroke-width:2;stroke-miterlimit:10;}
	.st55{fill:#EFCEE8;}
	.st56{fill:#DBBDD5;}
	.st57{fill:#C9A9C3;}
	.st58{fill:#968F94;}
	.st59{fill:#C4C0C3;}
	.st60{fill:#C4BBC2;}
	.st61{fill:#D1A7C9;}
	.st62{opacity:0.58;fill:#8AC0ED;enable-background:new    ;}
	.st63{fill:#D8B4D1;}
	.st64{fill:#D6B6D0;}
	.st65{fill:#B5B0B4;}
	.st66{fill:none;stroke:#D3CBD1;stroke-width:7;stroke-miterlimit:10;}
	.st67{fill:none;stroke:#6D646B;stroke-width:7;stroke-miterlimit:10;}
	.st68{opacity:0.1;fill:url(#SVGID_9_);enable-background:new    ;}
	.st69{opacity:0.5;fill:#4ECECE;enable-background:new    ;}
	.st70{opacity:0.6;fill:#FDFFFF;enable-background:new    ;}
</style>
<circle class="st0" cx="262.2" cy="262.3" r="242.7"/>
<g id="_01-2">
	
		<radialGradient id="SVGID_1_" cx="25.025" cy="161.2708" r="233.3304" gradientTransform="matrix(1.2 0 0 -1.2 217.42 442.1)" gradientUnits="userSpaceOnUse">
		<stop  offset="0" style="stop-color:#FFFFFF"/>
		<stop  offset="0.61" style="stop-color:#D3F9FC"/>
		<stop  offset="0.93" style="stop-color:#48E5FF"/>
	</radialGradient>
	<path class="st1" d="M489.8,248.6c0,133.3-108.5,241.4-242.4,241.4S5.1,381.9,5.1,248.6S113.6,7.2,247.4,7.2
		S489.8,115.2,489.8,248.6z"/>
	<g>
		<defs>
			<ellipse id="SVGID_2_" cx="248.1" cy="245.9" rx="242" ry="240.9"/>
		</defs>
		<clipPath id="SVGID_3_">
			<use xlink:href="#SVGID_2_"  style="overflow:visible;"/>
		</clipPath>
		<g class="st2">
			
				<linearGradient id="SVGID_4_" gradientUnits="userSpaceOnUse" x1="923.6802" y1="1142.743" x2="460.9603" y2="-207.7469" gradientTransform="matrix(1 0 0 -1 0 512)">
				<stop  offset="0" style="stop-color:#72EDED"/>
				<stop  offset="0.23" style="stop-color:#6FE9EA"/>
				<stop  offset="0.45" style="stop-color:#67DDE3"/>
				<stop  offset="0.68" style="stop-color:#58C9D6"/>
				<stop  offset="0.9" style="stop-color:#45ADC4"/>
				<stop  offset="0.99" style="stop-color:#3CA1BC"/>
			</linearGradient>
			<path class="st3" d="M46.6-223.4l3.7,802.2l1194,7.4v-806L46.6-223.4z"/>
			
				<linearGradient id="SVGID_5_" gradientUnits="userSpaceOnUse" x1="-1246.7324" y1="776.5347" x2="66.4276" y2="161.2346" gradientTransform="matrix(1 0 0 -1 0 512)">
				<stop  offset="0.38" style="stop-color:#41AFB5"/>
				<stop  offset="0.76" style="stop-color:#3EABB6"/>
				<stop  offset="0.99" style="stop-color:#39A5B7"/>
			</linearGradient>
			<path class="st4" d="M47.2-229.4l-528.3-177l-10.2,1066.9l542.1-115L47.2-229.4z"/>
			
				<linearGradient id="SVGID_6_" gradientUnits="userSpaceOnUse" x1="-883.1902" y1="674.5983" x2="88.5297" y2="520.3983" gradientTransform="matrix(1 0 0 -1 0 512)">
				<stop  offset="0.13" style="stop-color:#41B5C4"/>
				<stop  offset="0.48" style="stop-color:#40B1C2"/>
				<stop  offset="0.81" style="stop-color:#3DA5BE"/>
				<stop  offset="0.99" style="stop-color:#3A9CBA"/>
			</linearGradient>
			<path class="st5" d="M-470.9-413.5L44.2-227.6l-0.7,528.4L-470.9-413.5z"/>
			
				<linearGradient id="SVGID_7_" gradientUnits="userSpaceOnUse" x1="1280.2921" y1="799.7211" x2="-16.1107" y2="473.7104" gradientTransform="matrix(1 0 0 -1 0 512)">
				<stop  offset="2.000000e-02" style="stop-color:#72EDED"/>
				<stop  offset="0.26" style="stop-color:#6FE9EC"/>
				<stop  offset="0.5" style="stop-color:#67DDE7"/>
				<stop  offset="0.74" style="stop-color:#59C9E0"/>
				<stop  offset="0.98" style="stop-color:#45ADD6"/>
				<stop  offset="0.99" style="stop-color:#45ADD6"/>
			</linearGradient>
			<polyline class="st6" points="1295.7,-226.5 42.9,-226 42.9,272.9 1284.2,-226 			"/>
			<line class="st7" x1="50.5" y1="-233.5" x2="50.5" y2="549.4"/>
			<g class="st8">
				<polyline class="st9" points="-476.4,-6.5 33.8,47.5 1407.3,40.7 				"/>
				<polyline class="st9" points="-477.5,151.2 47,164.6 1344.4,164.6 				"/>
				<polyline class="st9" points="-472.8,305.1 -472.8,324.6 39.9,286.1 1380,285.2 				"/>
				<polyline class="st9" points="-469.4,492 55.2,415 1314,415 				"/>
				<polyline class="st9" points="204.9,-223.4 204.9,538.5 -222.9,716.7 				"/>
				<polyline class="st9" points="400.3,-223.4 392.6,544.5 129.6,742.7 				"/>
				<polyline class="st9" points="593.4,-223.4 590.1,547.8 461.2,810.8 				"/>
			</g>
			<ellipse class="st10" cx="417.9" cy="87.3" rx="22.7" ry="22.1"/>
			<ellipse class="st11" cx="417.9" cy="87.3" rx="15.7" ry="15.3"/>
			<rect x="414.8" y="78.5" class="st12" width="238.8" height="16.5"/>
			<path class="st13" d="M448.1,79.8V203c-2,20.6-3.9,24,26.8,23.3s120.1,0.1,120.1,0.1s21,10.8,20.6-23.3
				c-0.4-33.5-10.8-114.3-4.9-123.2c1.3-7.6,4.9,0,4.9,0l-3.6-7.6H450.7C450.7,72.1,448.1,76,448.1,79.8z"/>
			<path class="st14" d="M448.1,198c0,0-13.7,36,24.3,28.2c38-0.3,120.7,0.1,120.7,0.1s26,10.4,22.4-28.3c-9.6,0-41.4,6.1-49.2,4.2
				s-42-3.4-49.5,0.8s-33.1-0.9-36.6-2.5S454.4,206.7,448.1,198z"/>
			<path class="st15" d="M513.9,72.1c0,0-69.8,22.6-65.8,58.2V79.8l2.6-7.6H513.9z"/>
			<ellipse class="st16" cx="468.7" cy="130.9" rx="11.5" ry="10.4"/>
			<ellipse class="st16" cx="510.1" cy="154.8" rx="10.1" ry="9.1"/>
			<ellipse class="st16" cx="507.6" cy="91.8" rx="10.1" ry="9.1"/>
			<ellipse class="st16" cx="470.8" cy="182.1" rx="10.1" ry="9.1"/>
			<polygon class="st17" points="7.3,-158.8 -64.1,-183.4 -64.1,6.8 12.5,20.5 14.7,-156.6 			"/>
			<polygon class="st18" points="4.3,-159.3 4.3,8.4 10.3,11.9 10.3,-150.9 			"/>
			
				<linearGradient id="SVGID_8_" gradientUnits="userSpaceOnUse" x1="-22.478" y1="567.1599" x2="-30.478" y2="465.7698" gradientTransform="matrix(1 0 0 -1 0 512)">
				<stop  offset="0" style="stop-color:#AECCD3"/>
				<stop  offset="0.44" style="stop-color:#D0DDDD"/>
			</linearGradient>
			<polygon class="st19" points="-17.4,-31.9 4.3,13 -55.7,-0.9 -55.7,-41.2 -17.4,-33.3 			"/>
			<polygon class="st20" points="4.3,13 -0.2,14.5 -55.7,2.4 -55.7,-0.9 			"/>
			<path class="st21" d="M-69.8-199.9V15l90.5,13.9V-165L-69.8-199.9z M9.6,8.9l-65.3-10v-176.7l65.3,23.9V8.9z"/>
			<polygon class="st22" points="30.3,28.8 13.1,28.8 -78.7,14.5 -69.8,14.7 -60.9,15 			"/>
			<path class="st23" d="M288.9,322.9c0.2-6-1.5-11.9-4.9-16.9c-3.5-5.1-8.3-9.1-13.9-11.7c-2,15.2,18.7,28.9,18.7,28.9"/>
			<path class="st24" d="M262.9,205.9c-3.3-3.7-7.4-7.1-11.6-6.1s-5.9,5.4-4.3,12.6s3.6,10.8,9.5,14.7s8.9,5.9,14.1,1.5
				C270.7,220.6,264.6,208.4,262.9,205.9z"/>
			<path class="st25" d="M268.9,226.3c-0.7,0.3-1.5,0.3-2.2,0c-0.7-0.2-1.4-0.5-2.1-0.8c-1.4-0.7-2.6-1.8-3.3-3.2
				c-0.7-1.4-1-3-0.8-4.5c0.1-0.9,0.5-1.7,0.9-2.4c-0.4-0.5-0.7-1-1.1-1.4c-1-1.2-2.1-2.4-3.3-3.5c-1-1.2-2.3-2.1-3.7-2.7
				c-0.7-0.2-1.4-0.1-2.1,0.2c-0.7,0.4-1.1,1.1-1.1,1.8c-0.2-0.8,0.2-1.7,0.9-2.1c0.7-0.5,1.6-0.7,2.4-0.5c1.6,0.5,3,1.5,4.1,2.7
				c1.2,1.1,2.2,2.4,3.2,3.7c0.3,0.5,0.6,0.9,0.9,1.4l0.1,0.2c-0.1,0.1-0.1,0.3-0.2,0.4c-0.3,0.7-0.5,1.5-0.6,2.2
				c-0.1,1.4,0.2,2.8,0.9,4.1c0.7,1.3,1.7,2.3,2.9,3c0.6,0.4,1.3,0.7,2,1C267.5,226.3,268.2,226.4,268.9,226.3z M257,222.7
				c1.4,0.8,2.8,1.6,4.3,2.2c-1.6-0.4-3.1-1-4.5-1.7c-1.5-0.8-2.8-1.9-3.8-3.3c-0.9-1.5-1.3-3.1-1.3-4.9c0-1.6,0.3-3.2,0.7-4.8
				c-0.1,1.6-0.2,3.2-0.1,4.8c0.1,1.6,0.5,3.1,1.3,4.5C254.5,220.8,255.6,221.9,257,222.7z"/>
			<path class="st26" d="M268.5,225.8c0,0,5.7,9.5,0.2,11.6s-5-9-5-9s2.5,9.1,3.6,3.3L268.5,225.8z"/>
			<path class="st27" d="M240.3,268.3c0,0-1,28.5,7.2,48.1s9.1,20.8,18.8,18.9c14.7-2.9,22.9-14.4,22.9-14.4s-5-23.2-16.6-26.4
				l-5.3,3.1c0,0-10.4-24.4-7-35.9C260.3,261.8,241.7,258,240.3,268.3z"/>
			<path class="st27" d="M267.2,297.8c0,0,3.9,2.4,5.8,12.9"/>
			<path class="st23" d="M415.7,284.1c0,0-10.1,5.3-14.2,14.6c-2.5,5.7-3.3,11.9-2.4,18c14-6.5,17.3-32.3,17.3-32.3"/>
			<path class="st28" d="M386.1,482c-0.5,10.7-0.6,19.5,0.2,24.8c2.9,20.8-7.6,28-7.6,28c1.8,10.8-3.2,5-5.8,11.5
				s-12.6,4.7-12.6,4.7c-14.8,2.9-24.9-0.4-24.9-0.4c-9.7,1.7-19.7,0.5-28.9-3.2c-2.2-0.7-0.7-7.2-0.7-7.2c-0.3-0.4-0.6-0.8-0.9-1.2
				c-8-10.6,0-4.7-4.2-18.6c-0.2-0.7-0.4-1.3-0.5-2c-2.2-8.9-2.1-20.1-1.5-29.6l0,0c0.4-5.9,1.1-11,1.6-14.4
				c1.2-7.6,3.8-31.2,5.1-48c0.3-3.8,0.5-7.3,0.7-10.2c0.4-7.7,1-16.4,1.5-23.2s1-11.7,1-11.7s73.3-20.9,79,3.6
				c3.1,13,1.6,40.9,0.1,67.2C387.1,462.7,386.4,473,386.1,482L386.1,482z"/>
			<path class="st29" d="M387.7,452.2c-0.6,10.5-1.3,20.8-1.7,29.8l0,0c-0.1,0.3-0.2,0.5-0.4,0.8c-1.1,2.2-3.3,4-5.7,4.1
				c-2.8-0.1-5.2-2-5.9-4.8c-0.6-2.7,0-5.5,1.8-7.7c-3.2,2.2-8.1,2.5-10.7-0.3s-2-7.5,0.7-10.2s6.8-3.5,10.5-3.1
				c-3.3-5.4-3.6-13.5,3.4-15.2C387.3,445,384.9,450.3,387.7,452.2z"/>
			<path class="st29" d="M324.3,499.5c-1.8,3.1-5.2,5-8.8,4.9c4.3,2,5.4,8.7,1.9,11.9s-10,1.9-11.9-2.4c-0.3,2.5-2.8,4.3-5.4,4.6
				c-2.2-8.9-2.1-20.1-1.5-29.6l0,0c2.3-5.3,4.7-14.2,11.6-12.5c2.7,0.6,4.4,3.5,4.6,6.3s-0.7,5.5-1.6,8.1c2.1-2.8,6.7-3.1,9.4-0.8
				C325.4,492.3,326,496.3,324.3,499.5z"/>
			<path class="st29" d="M326,414.5c-1.2,3.5-5.3,5.9-8.7,4.6c0.7,3.6-1.4,7.2-4.9,8.4c-2.4,0.7-4.9,0.3-7-1
				c0.3-3.8,0.5-7.3,0.7-10.2c0.4-7.7,1-16.4,1.5-23.2h0.1c5.4-1.8,15.5,1.7,10.8,8.9c1.9-0.6,3.9,0.9,5.1,2.4
				C325.9,407.1,327.1,411,326,414.5z"/>
			<path class="st28" d="M337.9,435.3c0,0-0.7,44.9-4,66.5c0,0-1.8,7.2,0.4,18s8.7,11.1,3.3,14.7s3.6,4.7,1.8,9c0,0-5,2.5-4,7.2"/>
			<path class="st28" d="M329.6,429.5c0,0,10.5-2.1,15.5,9.3"/>
			<path class="st28" d="M368.9,391.4c0,0-2.5,10.8,18.8,25.9"/>
			<path class="st30" d="M347.4,106.3c0,0,26.2,5.8,26.5,6.8c1.6,5.8-0.2-11,10.5,18.1c7.9,21.6,4.5,73,31.2,103.9
				c0.2,0.2,0-0.3,0,0c-3.3,17.3-33.6,55.3-72.5,38.8c0,0-29.2,16.2-56.3,6.5s-20.8-44.2-34.1-67.6s-28.9-49.2-23.5-73.3
				S324.7,64.7,347.4,106.3z"/>
			<path class="st28" d="M416.4,284.3c-12.5,5-17.3,32.3-17.3,32.3l-9-5.5l-9.3-8.8l2.9,18.7c6,22,9.4,44.7,10.1,67.6l-5.5,3.1
				c-70.5,10.3-82.5-8.4-82.5-8.4c0.5-42.4-6.5-68.8-6.5-68.8l-2.9,2.3l-7.5,6.1c-2.5-23.9-18.9-28.6-18.9-28.6s4.8-3.9,10.8-9.1
				c2.9-2.5,6-5.3,9.1-8.1c9.4-8.6,21.7-14.4,21.7-14.4c19-10.5,47.9-8.9,47.9-8.9c3.5,0.7,6.9,1.6,10.3,2.7
				c0.7,0.2,1.4,0.5,2.1,0.7l0,0c1.7,0.6,3.3,1.2,5,1.9c4.1,1.7,8.2,3.6,12.1,5.8c5.8,3.2,11.4,6.8,16.8,10.7
				C409.4,278.4,413,281.3,416.4,284.3z"/>
			<path class="st31" d="M288,230c1.1,4.3,9.8,9.9,16.9,12.4c4.9,1.9,10.1,2.6,15.3,2c9.5-1.1,16.1-8.7,19.3-15
				c1.1-2.1,1.7-4.5,1.5-6.9c-0.5-4-5.3-6.1-10.1-6.9s-8.9-0.4-18.6,1.9c-8,1.9-16.2,4.6-20.8,7.3c-2.4,1.4-3.8,2.8-3.7,4.1
				C287.8,229.3,287.9,229.6,288,230z"/>
			<path class="st32" d="M290,226c20.3,10.4,48-6.1,43.5-10.2c-4.6-0.8-11.6-0.5-21.3,1.8C304.3,219.4,294.6,223.3,290,226z"/>
			<path class="st33" d="M287.9,229.5c1.2-1.2,5.8-4.1,23.1-8.4c23.9-6,29.8,0.9,29.8,0.9c-1-8-16-9.8-35.6-5.1
				c-12.1,2.9-17.8,7.8-17.5,11.5C287.7,228.7,287.8,229.1,287.9,229.5z"/>
			<path class="st33" d="M288,230c3.8,8.2,16.2,17.3,31,15.8c9.5-1,23.6-14.6,21.9-23.9c-2.3,7.1-7.7,18.1-19.6,20.7
				C305.3,246,296.3,237.1,288,230z"/>
			<path class="st34" d="M333.3,232.2c0,0-7.9-2.9-14.3,2.2c0,0-10.8-0.9-13,5.6C305.9,240.1,323.2,243.5,333.3,232.2z"/>
			<ellipse class="st35" cx="348" cy="324.9" rx="7.1" ry="6.7"/>
			<path class="st36" d="M405.5,379.2l-20.6,16.7l-1.9-4.9l-1.4-3.5l-26.1-34.7l-14.5-18.7c-1.2-1.6-1.3-3.7-0.2-5.4
				c0.2-0.4,0.5-0.8,0.8-1.1c2.7-3.7,6.4-6.5,10.7-8.2c0.6-0.2,1.2-0.5,1.9-0.7c1.4-0.4,2.9,0.2,3.5,1.5
				c2.8,5.5,10.7,20.1,20.1,27.8c8.2,6.6,16.6,19.3,21,26.4c0.8,1.2,1.8,2.2,3,2.9C402.9,378.1,404.2,378.7,405.5,379.2z"/>
			<path class="st37" d="M341,323l-5.7-8c0,0,1.1-4.3,5-4.3l6.1,7.4c0,0-4,2.1-5.5,4.7"/>
			<path class="st38" d="M343.8,333.7c0,0,5-9,12.3-9.8c0,0,7.7,13,11.8,16.4s-9.9,12.1-9.9,12.1S348.2,339.6,343.8,333.7z"/>
			<path class="st39" d="M405.5,379.2l-20.6,16.7l-1.9-4.9l18.9-13.7C402.9,378.1,404.2,378.7,405.5,379.2z"/>
			<path class="st27" d="M392.4,362.1c0,0,34.4-9.9,50.6-36.4c2.6-4.2,2.4-9.6-0.4-13.7c-7.5-10.9-17.1-20.1-28.4-27
				c0,0-12.8,3.8-14.8,29.8l8.1,6.6c0,0-6.3,18.3-28,26.2"/>
			<path class="st27" d="M397.2,359.3c0,0-5.2,10.1-22,14.4c0,0-3.6,1.2-0.5,5.3c0,0,3.2,6.1-4.1,5.3c-2.9-0.5-5.6-2-7.5-4.3
				c0,0-4.6,1.9-5.5-6.7c0,0-3.4,1.7-5.8-6c0,0-6,0.2-1.9-11.3s21.2-14.9,36.8-11"/>
			<path class="st27" d="M363.3,381c0,0-2.7-10.4,8.3-16.2"/>
			<path class="st27" d="M357.7,373.2c-0.6-6,2.6-11.7,8.1-14.3"/>
			<path class="st27" d="M352.1,368.1c0,0-0.4-12.8,7.9-15.6"/>
			<line class="st40" x1="405.5" y1="325.7" x2="411.1" y2="314.7"/>
			<path class="st41" d="M416.4,284.3c-12.5,5-17.3,32.3-17.3,32.3l-9-5.5c-1.8-18.5,9.7-30.6,15.6-35.5
				C409.4,278.4,413,281.3,416.4,284.3z"/>
			<path class="st41" d="M296.4,316.8l-7.5,6.1c-2.5-23.9-18.9-28.6-18.9-28.6s4.8-3.9,10.8-9.1C285,289.2,297.5,302.1,296.4,316.8z
				"/>
			<line class="st40" x1="300.3" y1="318.5" x2="294.9" y2="292.6"/>
			<line class="st40" x1="381.2" y1="303.4" x2="378.5" y2="284.2"/>
			<path class="st27" d="M340.8,272.1c-19.1,5.8-24.2-4-24.2-4c-0.1-3.1,0-6.2,0.5-9.2c1-5.9,2.8-11.6,5.2-17
				c-1.8-24.4,30.9-25.3,26-13.3c-2.6,6.5-2.7,13.8-0.2,20.3c0.7,2,1.7,3.9,2.9,5.7C362.9,274.4,340.8,272.1,340.8,272.1z"/>
			<path class="st42" d="M348.3,228.6c-2.6,6.5-2.7,13.8-0.2,20.3c-8.1,8.2-23.6,9.8-31.1,10c1-5.9,2.8-11.6,5.2-17
				C320.5,217.5,353.2,216.7,348.3,228.6z"/>
			<path class="st41" d="M359,261c0,7.2-11.6,15.8-23.5,15.8s-21.5-5.9-21.5-13.1c0.1-2.4,1.1-4.7,2.8-6.5c-0.1,0.3-0.2,0.7-0.3,1
				c-1.1,5.5,6.1,10.5,16.1,11.1s18.9-3.3,19.9-8.8c0.3-2.1-0.4-4.2-1.9-5.6c-0.3-0.8-0.5-1.6-0.5-2.5
				C353.8,254.7,359,257.5,359,261z"/>
			<path class="st24" d="M252.1,123.1c0,0-20.8,38.1,6.7,86.3c2.3,8.9,6.1,17.5,11.1,25.2c6.5,9.6,16.2,16.5,27.3,19.5
				c7.8,2.1,18.3,3.8,28.7,2c13.1-2.2,26.2-12.4,35.2-25.6c8.4-12.4,11.8-27.5,9.7-42.4c-2.9-20.5-13.1-69-42.4-81.7
				C285.5,87.7,252.1,123.1,252.1,123.1z"/>
			<path class="st43" d="M298.5,227.8c0,0,19.1-19.3,38.3-4.4c0,0-6.7-4.3-22.6-1.2C289.6,227.1,298.5,227.8,298.5,227.8z"/>
			<path class="st42" d="M248.7,186.7c0,0,1.3-21.9,10.8-37.3c0,0,26.9,14.6,44.6,11l-9.9-15.1c0,0,11.2,3.8,18.4,2.5l-4.1-11
				c0,0,10.8,9.2,35.6,8.1c0,0,13.9-1.6,22.2,27.3l-9.4-35.9l-42.4-19.8l-44.9,2.7L253.6,134l-12.1,34.1l7,19.4"/>
			<ellipse class="st44" cx="324.1" cy="181.6" rx="14.8" ry="15.1"/>
			<ellipse class="st45" cx="321.7" cy="188.6" rx="7.5" ry="7.7"/>
			<ellipse class="st46" cx="327" cy="183.5" rx="1.7" ry="1.8"/>
			<ellipse class="st44" cx="277.8" cy="198.1" rx="14.8" ry="15.1"/>
			<ellipse class="st45" cx="275.4" cy="205.1" rx="7.5" ry="7.7"/>
			<ellipse class="st46" cx="280.6" cy="200.1" rx="1.7" ry="1.8"/>
			<path class="st47" d="M311.3,154.6c6.9-4.2,15.6-3.3,21.5,2.1c0,0,0-6.4-11.8-8.9C321,147.8,312.5,146.9,311.3,154.6z"/>
			<path class="st47" d="M275.3,162.7c0,0-13-0.5-16.4,13.4c0,0-3.7-5.7,4.5-14.2C263.5,161.9,269.8,156.6,275.3,162.7z"/>
			<path class="st24" d="M300.2,208c0,0,0.2,8.9,8.9,8.4s9.1-10.3,9.1-10.3"/>
			<path class="st48" d="M335.6,231.8c1.2-1.3,1.9-3,1.9-4.7c0-4.1-3.6-7.4-7.9-7.4c-1.4,0-2.7,0.3-3.9,1c-1.5-1.2-3.4-1.9-5.3-1.9
				c-3.9-0.1-7.3,2.7-7.9,6.6c-0.5-0.1-1-0.1-1.5-0.1c-2.3,0-4.5,0.5-6.4,1.7c-2-1.4-4.5-2.1-6.9-2.1c-5,0-9,2.6-9,5.8
				c0,2.8,3.2,5.2,7.4,5.6c-2.4,1-4,2.8-4,4.8c0,3.2,4,5.8,9,5.8h0.5c1.1,4.9,5.9,8.1,10.8,7c3.3-0.7,6-3.2,6.9-6.5
				c1,0.4,2,0.6,3.1,0.6c3.5,0.1,6.7-2.2,7.7-5.6h0.6c5,0,9-2.6,9-5.8C339.7,234.6,338.1,232.9,335.6,231.8z"/>
			<path class="st49" d="M220.7,257.8c0,0,1.1-4.3,11.4-8.6s47.6-12.2,53.6-15.3c0-1.8,1.1-3.4,2.7-4.1c4.9-2.1,20.9-5.8,25.8-7.6
				c0,0,6,2.9,2.5,7.7c0,0,1,3.2-27.6,10.2c0,0-5.8,0.2-24.7,8.8S222.4,265.2,220.7,257.8z"/>
			<path class="st27" d="M246.7,277c-20.8-1.4-13-22.5-13-22.5c6-11.9,26-6.6,26-6.6l4,16.2l-4.9,9.7"/>
			<path class="st27" d="M233.2,242.2c0,0-6.6-0.1-5.4,7.9c1.1,7.5,7.3,14.1,12.4,10.2c0.6-0.5,1-1.2,1.1-2c0,0,3.8,0.5,2.8-3.3
				c0,0,6.4,4.3,8.5-3.2l8.9-4.3c0,0,1.9-9.9-2.2-13.8s-7.9-0.7-8.7,3c0,0-2.5-4.7-6.6-3.1c-1.6,1-2.8,2.7-3.1,4.6
				C241,238.1,235.2,233.7,233.2,242.2z"/>
			<path class="st27" d="M233.7,240.7c0,0-3.4,12.8,8.7,17.6"/>
			<path class="st27" d="M242.1,235.5c-2.9,6.5-1.9,14.1,2.5,19.6"/>
			<path class="st27" d="M250.3,236.4c0,0,1.6,1.7,0.6,10.3"/>
			<path class="st27" d="M258.6,270.9c15.9-12.4,12.8-25.3,6.3-27.7s-18,0.5-19.9,5.7s2.7,5,2.7,5c6.1-1.3,10.3-2.2,10.3-2.2
				c-12.1,4.7-6.3,13.5-6.3,13.5"/>
			<path class="st48" d="M349,245.4c0.1,2.7-1.9,4.9-4.6,5c-2.7,0.1-4.9-1.9-5-4.6c0-0.1,0-0.3,0-0.4c0-2.8-5.7-7.9-3-7.9
				S349,242.6,349,245.4z"/>
			<path class="st48" d="M354.8,235.1c0,2.8-4.3,2.3-7,2.3c-2.8,0-5-2.3-5-5c0-2.8,2.3-5,5-5C350.5,227.4,354.8,232.3,354.8,235.1z"
				/>
			<path class="st30" d="M259.7,143.5c0,0,9.2,10.5,39.5,14.6l-14.6-22.3c0,0,5.4,10.1,25.4,9.1l-7.6-14.2c0,0,20,12.2,40.1,11.7
				s24.7,35.4,24.7,35.4s5.1,8.6,15.4,5.6s9.2-84.4-43.9-105.1s-99.1,14.5-108.3,48.4c0,0-12.5,39.3,18.2,63.2c2.2,1.7,0-3.2,0-3.2
				S239.7,165.8,259.7,143.5z"/>
			<path class="st24" d="M365.8,175.8c1.1-7.7,5-10.6,9-11.6c5.3-1.3,9.7,2.3,12.1,10.7s2.4,13.3-1.7,20.6s-6.3,11.1-14.5,9.5"/>
			<path class="st25" d="M371.2,201.6c0.9-0.1,1.7-0.6,2.4-1.3c0.7-0.6,1.3-1.3,1.8-2c1.1-1.5,1.8-3.3,1.8-5.2
				c0-1.9-0.7-3.7-1.8-5.1c-0.7-0.8-1.5-1.5-2.4-2c0.1-0.7,0.3-1.4,0.4-2.1c0.4-1.8,0.9-3.7,1.5-5.4c0.6-1.8,1.1-3.6,2.5-4.9
				c0.6-0.6,1.5-0.9,2.4-0.9c0.9,0,1.8,0.5,2.3,1.3c-0.3-1-1.2-1.7-2.2-1.7c-1-0.1-2.1,0.2-2.9,0.8c-1.6,1.3-2.2,3.3-2.9,5.1
				c-0.6,1.8-1,3.7-1.3,5.6c-0.1,0.6-0.2,1.3-0.2,2c0,0.1,0,0.2,0,0.3c0.2,0.1,0.3,0.2,0.5,0.3c0.8,0.6,1.4,1.2,2,2
				c1,1.4,1.5,3,1.5,4.7c0,1.7-0.5,3.4-1.4,4.8c-0.5,0.7-1,1.4-1.6,2.1C372.8,200.8,372.1,201.3,371.2,201.6z M382.1,191.2
				c-1,1.6-2.1,3.2-3.3,4.7c1.5-1.3,2.8-2.8,3.9-4.3c1.2-1.6,1.9-3.6,2.1-5.6c0.1-2-0.4-4-1.5-5.8c-1-1.7-2.2-3.2-3.6-4.6
				c1.1,1.6,2.1,3.2,3,4.9c0.9,1.7,1.3,3.5,1.2,5.4C383.7,187.8,383.1,189.6,382.1,191.2L382.1,191.2z"/>
			<path class="st26" d="M378.6,198.2c0,0-0.6,13.1,6.6,12.2s0.1-12.1,0.1-12.1s2.6,10.9-2,5.4L378.6,198.2z"/>
			<path class="st50" d="M228.6,139.6c0.4-9.6,3.2-19.1,8-27.4c4.9-8.5,11.8-15.7,20-21.1c4.1-2.7,8.5-5,13-6.8
				c2.3-1,4.6-1.7,6.9-2.5c1.2-0.4,2.3-0.7,3.5-1s2.4-0.7,3.5-0.9l3.6-0.8c1.2-0.3,2.4-0.4,3.6-0.6s2.3-0.4,3.6-0.6s2.6-0.3,3.8-0.4
				c5-0.3,10-0.2,14.9,0.5c10.1,1.1,19.8,4.2,28.8,9c4.5,2.5,8.7,5.5,12.5,9c0.9,0.9,1.8,1.8,2.7,2.7l1.3,1.4l1.2,1.5
				c0.8,1,1.6,2,2.4,3l2.1,3.2c0.4,0.5,0.7,1.1,1,1.6l0.9,1.7l1.9,3.3l1.6,3.4c0.5,1.2,1.1,2.3,1.5,3.4l1.3,3.5
				c0.2,0.6,0.5,1.2,0.6,1.8l0.5,1.8c0.7,2.4,1.3,4.7,1.8,7.2c1.9,9.5,2.5,19.2,1.6,28.9l-1.2,0.1c-2.4-9-5.2-17.9-8.6-26.5
				c-0.8-2.1-1.8-4.1-2.7-6.2l-0.6-1.5c-0.2-0.5-0.5-1-0.8-1.5l-1.5-2.9c-0.5-1-1.1-1.9-1.6-2.9l-1.7-2.8l-1.9-2.7l-0.9-1.3
				c-0.3-0.4-0.7-0.8-1-1.3l-2-2.6c-0.7-0.8-1.4-1.6-2.1-2.4l-1-1.2l-1.1-1.1c-0.8-0.7-1.5-1.5-2.3-2.3s-1.6-1.4-2.4-2.1
				s-1.6-1.3-2.5-2l-1.2-1l-1.3-0.9c-0.9-0.6-1.7-1.3-2.6-1.8c-7.3-4.8-15.5-8.1-24.1-9.7c-4.3-0.8-8.8-1.2-13.2-1.2
				c-1.1,0-2.2,0-3.2,0.1s-2.3,0.2-3.4,0.3s-2.3,0.2-3.4,0.4l-3.4,0.5c-1.1,0.1-2.2,0.4-3.3,0.6s-2.2,0.4-3.3,0.7
				c-2.2,0.6-4.4,1.1-6.5,1.9c-4.3,1.4-8.4,3.2-12.3,5.4c-7.9,4.4-14.8,10.5-19.9,18c-2.6,3.8-4.8,7.8-6.5,12.1
				c-1.8,4.3-2.9,8.8-3.6,13.3L228.6,139.6z"/>
			<path class="st51" d="M380.3,126.6c-5.8,6.1-6.5,14.8-15.2,6.6s-5.3-25.9-5.3-25.9s17.5-4.4,26.2,3.8S386.1,120.5,380.3,126.6z"
				/>
			<path class="st51" d="M339,87.8c-5.8,6.1-14.5,7.3-5.8,15.5s26.2,3.8,26.2,3.8s3.4-17.7-5.3-25.9S344.8,81.7,339,87.8z"/>
			<ellipse class="st52" cx="351.4" cy="87" rx="1.8" ry="1.8"/>
			<ellipse class="st52" cx="354.7" cy="94.1" rx="1.8" ry="1.8"/>
			<ellipse class="st52" cx="343.9" cy="94.9" rx="1.8" ry="1.8"/>
			<path class="st52" d="M348,103.7c-0.7,0.7-1.8,0.8-2.6,0.1c-0.7-0.7-0.8-1.8-0.1-2.5c0,0,0,0,0,0c0.7-0.7,1.8-0.8,2.6-0.1
				C348.6,101.8,348.7,102.9,348,103.7C348,103.7,348,103.7,348,103.7z"/>
			<ellipse class="st52" cx="338.9" cy="100.1" rx="1.8" ry="1.8"/>
			<path class="st52" d="M358.1,98.3c-0.7,0.8-0.6,1.9,0.2,2.6c0.3,0.3,0.8,0.5,1.3,0.4c0.1-1.1,0.1-2.3,0-3.6
				C359,97.7,358.5,97.9,358.1,98.3z"/>
			<path class="st52" d="M357.9,90.6c0.2,0.2,0.6,0.4,0.9,0.4c-0.2-1-0.5-2-0.9-3c0,0,0,0,0,0C357.1,88.8,357.2,89.9,357.9,90.6
				C357.9,90.6,357.9,90.6,357.9,90.6z"/>
			<path class="st52" d="M340.4,106.4L340.4,106.4c1,0.3,2,0.6,3.1,0.7c-0.3-1-1.3-1.5-2.2-1.3C340.9,106,340.6,106.2,340.4,106.4
				L340.4,106.4z"/>
			<path class="st52" d="M353.2,106.1c-0.7-0.7-1.9-0.6-2.6,0.1c0,0,0,0,0,0c-0.4,0.4-0.5,0.9-0.5,1.5c1.3,0,2.5-0.1,3.6-0.3
				C353.8,106.9,353.6,106.4,353.2,106.1z"/>
			<path class="st52" d="M344.9,85.9c0.7-0.7,0.6-1.9-0.1-2.5c-0.4-0.4-0.9-0.5-1.4-0.5c-0.5,0.7-1,1.5-1.5,2.3
				c0.1,0.3,0.2,0.6,0.5,0.8C343.1,86.7,344.2,86.6,344.9,85.9C344.9,85.9,344.9,85.9,344.9,85.9z"/>
			<path class="st52" d="M347.4,80.7c0.7,0.7,1.9,0.6,2.6-0.1c0,0,0,0,0,0c0.4-0.4,0.5-0.9,0.5-1.4c-1.1-0.7-2.4-0.7-3.6-0.2
				C346.7,79.7,346.9,80.3,347.4,80.7z"/>
			<path class="st52" d="M334.9,93.8c0.7,0.7,1.9,0.6,2.6-0.1c0,0,0,0,0,0c0.7-0.7,0.7-1.8,0-2.5c-0.3-0.2-0.6-0.4-0.9-0.5
				c-0.8,0.6-1.5,1.1-2.2,1.6C334.3,92.9,334.5,93.5,334.9,93.8z"/>
			<path class="st52" d="M332.5,99c0.7-0.7,0.6-1.9-0.1-2.5c0,0,0,0,0,0c-0.4-0.4-1.1-0.6-1.7-0.4c-0.5,1.2-0.3,2.5,0.4,3.5
				C331.7,99.6,332.2,99.4,332.5,99z"/>
			<ellipse class="st52" cx="380.4" cy="114.2" rx="1.8" ry="1.8"/>
			<ellipse class="st52" cx="372.6" cy="111.9" rx="1.8" ry="1.8"/>
			<ellipse class="st52" cx="372.9" cy="122.1" rx="1.8" ry="1.8"/>
			<path class="st52" d="M363.8,118.5c-0.7,0.7-0.7,1.9,0.1,2.6c0.7,0.7,1.9,0.7,2.6-0.1c0.7-0.7,0.7-1.9-0.1-2.6
				C365.7,117.8,364.5,117.8,363.8,118.5C363.8,118.5,363.8,118.5,363.8,118.5z"/>
			<ellipse class="st52" cx="367.9" cy="127.3" rx="1.8" ry="1.8"/>
			<path class="st52" d="M368.7,108.2c-0.7,0.7-1.8,0.7-2.6,0.1c-0.4-0.3-0.6-0.8-0.6-1.3c1.1-0.1,2.3-0.2,3.6-0.3
				C369.2,107.2,369,107.8,368.7,108.2z"/>
			<path class="st52" d="M376.3,108c-0.2-0.2-0.4-0.5-0.5-0.8c1,0.2,2.1,0.4,3.1,0.7l0,0C378.3,108.6,377.1,108.7,376.3,108
				C376.4,108,376.4,108,376.3,108z"/>
			<path class="st52" d="M361.5,126.3L361.5,126.3c-0.4-1-0.7-2-0.9-3c0.3,0.1,0.6,0.2,0.9,0.4C362.2,124.4,362.2,125.5,361.5,126.3
				C361.5,126.2,361.5,126.3,361.5,126.3z"/>
			<path class="st52" d="M361.1,113.5c0.7,0.7,0.8,1.8,0.1,2.5c0,0,0,0,0,0c-0.4,0.4-0.9,0.6-1.4,0.6c0-1.3,0-2.5,0-3.6
				C360.3,113,360.8,113.2,361.1,113.5z"/>
			<path class="st52" d="M381.8,120.6c0.7-0.7,1.8-0.8,2.6-0.1c0,0,0,0,0,0c0.4,0.4,0.6,0.9,0.5,1.4c-0.7,0.5-1.4,1-2.2,1.6
				c-0.3-0.1-0.6-0.2-0.9-0.4C381.2,122.4,381.1,121.3,381.8,120.6C381.8,120.6,381.8,120.6,381.8,120.6z"/>
			<path class="st52" d="M386.9,117.9c-0.7-0.7-0.8-1.8-0.1-2.5c0.4-0.4,0.9-0.6,1.4-0.6c0.7,1,0.9,2.4,0.4,3.5
				C388,118.5,387.3,118.3,386.9,117.9z"/>
			<path class="st52" d="M374.5,131c-0.7-0.7-0.8-1.8-0.1-2.5c0,0,0,0,0,0c0.7-0.7,1.8-0.8,2.6-0.1c0.2,0.2,0.4,0.5,0.5,0.8
				c-0.5,0.8-1,1.5-1.5,2.3C375.4,131.5,374.8,131.4,374.5,131z"/>
			<path class="st52" d="M369.4,133.7c0.7-0.7,1.8-0.8,2.6-0.1c0,0,0,0,0,0c0.4,0.4,0.6,1,0.5,1.6c-1.2,0.5-2.5,0.4-3.6-0.2
				C368.9,134.5,369.1,134.1,369.4,133.7z"/>
			<path class="st53" d="M348.2,91.5c-2.8,1.8,6.7,10,6.7,10S351,89.6,348.2,91.5z"/>
			<path class="st53" d="M344.9,98.8c-1,2,8.9,4.6,8.9,4.6S345.9,96.8,344.9,98.8z"/>
			<path class="st53" d="M376.1,117.7c-1.7,2.8-10.4-6.1-10.4-6.1S377.7,114.8,376.1,117.7z"/>
			<path class="st53" d="M368.9,121.3c-1.9,1.1-5.1-8.6-5.1-8.6S370.9,120.2,368.9,121.3z"/>
			<path class="st54" d="M354.2,105.1c-1.2,1.3-1.2,3.3,0.1,4.5c0,0,0,0,0,0l3.2,3c1.3,1.2,3.3,1.2,4.5-0.1l3-3.2
				c1.2-1.3,1.2-3.3-0.1-4.5c0,0,0,0,0,0l-3.2-3c-1.3-1.2-3.3-1.2-4.5,0.1L354.2,105.1z"/>
			<path class="st29" d="M379.7,268.2c0,0,5.8,12.2-4,10.8c-9.5-1.4-4.9-9.7-4.7-10c-0.4,0.3-9.8,7.4-10.8-1.5
				c-1.1-9,8.3-6.1,8.3-6.1c-0.6-3.5,0.1-4.7,1.2-4.8c0.8,0,1.5,0.3,2.1,0.7l0,0c1.3,0.9,2.5,1.9,3.6,3c0.4-0.4,0.9-0.8,1.4-1.1
				c4.1,1.7,8.2,3.6,12.1,5.8l0.2,0.3C390.2,274.3,379.7,268.2,379.7,268.2z"/>
			<path class="st29" d="M332.7,305.9c-0.2,1-0.8,1.9-1.7,2.5c-1,0.6-4.1,1-4.7-0.2c0.8,1.4,1.7,1.9,1.2,3.7
				c-0.1,0.6-0.4,1.1-0.7,1.6c-0.2,0.3-0.4,0.5-0.6,0.7c-0.4,0.4-0.8,0.8-1.3,1.1c-0.6,0.3-1.2,0.6-1.8,0.6
				c-2.9,0.3-5.5-2.5-5.3-5.5c0,0.5-1.6,1.7-2.1,2c-1.1,0.6-2.4,0.8-3.7,0.6c-0.4-0.1-0.7-0.2-1.1-0.3c-0.3-0.1-0.5-0.3-0.8-0.5
				c-0.8-0.6-1.3-1.4-1.4-2.3l0,0c0-0.2-0.1-0.4-0.1-0.6v-0.3c-0.3-2.4,1.4-4.7,3.9-5c0.3,0,0.7,0,1,0c-1.9-1.4-3.5-3-3.1-4.8
				c0-0.3,0.1-0.5,0.3-0.8c0.4-0.6,0.9-1.2,1.5-1.6c0.2-0.2,0.5-0.3,0.7-0.5c0.3-0.1,0.6-0.2,0.9-0.3c1.8-0.3,3.6,0.6,4.4,2.3
				c-0.4-2,0.4-4,2-5.2c0.6-0.4,1.4-0.6,2.1-0.7c0.4,0,0.7,0,1.1,0l0,0c0.9,0.1,1.8,0.4,2.6,0.8c0.2,0.1,0.4,0.3,0.6,0.5
				c0.1,0.1,0.2,0.2,0.3,0.3c2.2,2.5,0.1,5.6-1.5,7.7c2.3-1.5,5.3-0.8,6.9,1.4c0.2,0.3,0.3,0.5,0.4,0.8c0,0.1,0,0.1,0,0.2
				C332.8,304.8,332.8,305.4,332.7,305.9z"/>
			<path class="st29" d="M349.8,360.1c-0.1,0.4-0.2,0.8-0.3,1.1c-0.4,0.9-1.1,1.8-1.9,2.3c-1.3,0.9-5.5,1.3-6.5-0.3
				c1.1,1.9,2.3,2.6,1.7,5.1c-0.2,0.8-0.5,1.5-1,2.2c-0.2,0.4-0.5,0.7-0.8,1c-0.5,0.6-1.2,1.1-1.8,1.5c-0.4,0.3-0.9,0.5-1.4,0.6
				c-0.3,0.1-0.7,0.2-1,0.2c-3.9,0.4-7.5-3.4-7.2-7.6c0,0.7-2.2,2.4-2.8,2.7c-1.5,0.8-3.3,1.1-5,0.9c-0.5-0.1-1-0.2-1.5-0.4
				c-0.4-0.2-0.7-0.4-1.1-0.6c-1-0.8-1.7-1.9-1.9-3.1l0,0c-0.1-0.3-0.1-0.5-0.1-0.8c0-0.1,0-0.2,0-0.4c-0.3-3.8,2.6-7.3,6.6-6.8
				c-2.5-1.9-4.7-4.2-4.3-6.5c0.1-0.4,0.2-0.7,0.4-1c0.5-0.9,1.2-1.6,2-2.1c0.3-0.2,0.6-0.4,1-0.6c2.7-1.3,5.9-0.2,7.2,2.5
				c0,0.1,0.1,0.1,0.1,0.2c-0.7-2.4,0.8-5.8,2.7-7.1c0.9-0.5,1.9-0.9,2.9-0.9c0.5,0,1,0,1.5,0l0,0c1.2,0.1,2.4,0.5,3.5,1.1
				c0.3,0.2,0.6,0.4,0.9,0.7c0.1,0.1,0.3,0.3,0.4,0.4c3,3.4,0.2,7.6-2.1,10.5c2.9-2,7.6-1.1,9.4,1.9c0.2,0.3,0.4,0.7,0.5,1.1
				l0.1,0.2C349.9,358.6,349.9,359.3,349.8,360.1z"/>
			<path class="st55" d="M257.7,310.9c0,42.4-43.6,89.6-104.9,89.6S35.5,355.3,35.5,312.9c0-1,0-2,0.1-2.9s0.1-1.8,0.2-2.6
				c4.2-12.1,52.2-21.7,110.8-21.7c60.1,0,109.1,10,111,22.6c0,0.4,0,0.8,0,1.2S257.7,310.4,257.7,310.9z"/>
			<path class="st56" d="M257.7,309.1c0,0.1,0,0.3,0,0.4c-1.1,12.7-50.4,23-111.1,23c-59.9,0-108.8-10-111-22.5
				c-0.1-0.3-0.1-0.6-0.1-0.9c0-0.6,0.1-1.2,0.3-1.7c4.1-12.1,52.1-21.7,110.8-21.7c60.1,0,109.1,10,111,22.6
				C257.7,308.5,257.7,308.8,257.7,309.1z"/>
			<path class="st57" d="M235.2,305.3c0,7.7-36.3,14-81,14c-14,0-27.2-0.6-38.7-1.7c-6.5-0.6-12.4-1.4-17.7-2.2
				c-15.2-2.5-24.7-6.1-24.7-10.1s9.5-7.5,24.7-10.1c5.3-0.9,11.2-1.6,17.7-2.2c11.5-1.1,24.7-1.7,38.7-1.7
				C198.9,291.3,235.2,297.5,235.2,305.3z"/>
			<path class="st58" d="M47.6,292v20.4c0,1.3,6.7,2.4,14.9,2.4s14.9-1.1,14.9-2.4V292H47.6z"/>
			<ellipse class="st59" cx="62.5" cy="292" rx="14.9" ry="2.4"/>
			<path class="st60" d="M117.3,226.7c0-9.1-7.4-16.4-16.5-16.4c0,0,0,0,0,0H70.7c-9.1,0-16.4,7.3-16.5,16.4l0,0v65.2l0,0
				c0,0.7,3.7,1.3,8.2,1.3s8.2-0.6,8.2-1.3l0,0V229c0-1.3,1.1-2.4,2.4-2.4c0,0,0,0,0,0h20c2.2,0,3.9,1.7,3.9,3.9c0,0,0,0,0,0v14.2
				h20.1v-18.2H117.3z"/>
			<path class="st58" d="M92.6,242.8h23.9c0.9,0,1.6,0.7,1.6,1.6v1.8c0,0.9-0.7,1.6-1.6,1.6H92.6c-0.9,0-1.6-0.7-1.6-1.6v-1.8
				C91,243.5,91.7,242.8,92.6,242.8z"/>
			<polyline class="st55" points="79.3,331.8 79.3,580.4 36.7,574 35.7,319.5 			"/>
			<path class="st61" d="M79.5,327.7c0,0,5.4,42,30,65.6v172l-30.1,15.2L79.5,327.7z"/>
			<path class="st62" d="M216.3,291c-6.9-1.2-13.9-1.4-20.9-0.8c-1.1,0-2.2,0.4-3.1,1.1c-1.4,1.5-0.5,4.1,1.3,5.2s3.9,1.2,5.9,1.5
				s4.2,1.2,5,3c0.4,1.2,0.5,2.4,0.1,3.6c-0.4,1.6-1.2,3.1-2.3,4.3c-0.6,0.6-1,1.2-1.3,2c-0.6,2.2,2.5,3.9,4.6,3s3.2-3.1,4.3-5.1
				s2.6-4.1,4.9-4.4c1.4,2.1-1.4,5.3,0.2,7.3c0.9,1.1,2.6,1.1,4,0.9l18.9-2.2c-0.9,3-4.6,3.9-7.6,4.5s-6.7,1.8-7.3,4.8
				c8.4,2.9,17.4-1.5,25.1-5.7c1.9-1,4-2.4,4-4.5c0.1-2.9-3.4-4.2-6.2-4.8s-6.3-2-6.1-4.9c0.2-0.7,0.2-1.5,0.2-2.2
				c-0.2-0.9-1.2-1.4-2-1.8c-9.3-4.3-19.3-6.6-29.5-6.8"/>
			<path class="st63" d="M144.4,334.5c0,0,83.2,4.4,111.3-17.6c0,0-9.2,73.2-98,81.2c0,0,54.2-25.6,39.8-41.2
				S144.4,334.5,144.4,334.5z"/>
			<path class="st64" d="M74.9,395.6v180l-34.3-6C40.6,569.7,71.3,550.4,74.9,395.6z"/>
			<polygon class="st65" points="59.5,294.9 59.5,314.2 66.9,314.1 66.9,294.9 			"/>
			<path class="st66" d="M59.4,292.7v-66.2c0-4.4,3.6-8,8-8l0,0h34.3c4.4,0,8,3.6,8,8v15.4"/>
			<path class="st67" d="M69.7,292.1v-62c0-1.8,1.4-3.2,3.2-3.2h21.7c1.8,0,3.2,1.4,3.2,3.2c0,0,0,0,0,0v12.6"/>
		</g>
	</g>
	
		<radialGradient id="SVGID_9_" cx="-121.7299" cy="156.4417" r="190.1032" gradientTransform="matrix(1.27 0 0 -1.2 403.37 442.1)" gradientUnits="userSpaceOnUse">
		<stop  offset="0" style="stop-color:#FFFFFF"/>
		<stop  offset="0.43" style="stop-color:#D3F9FC"/>
	</radialGradient>
	<path class="st68" d="M490.1,254.4c0,126.1-107.8,228.3-240.8,228.3S8.6,380.4,8.6,254.4S116.3,26.1,249.3,26.1
		S490.1,128.3,490.1,254.4z"/>
	<path class="st69" d="M263.2,458.2C130.3,458.2,22.5,356,22.5,230c0-32.6,7.3-64.7,21.4-94.1c-2.6,3.9-5.2,7.8-7.5,11.9
		C16.4,181.4,5.8,219.8,5.8,259c0,126.1,107.8,228.3,240.8,228.3c97.6,0,181.6-55.1,219.4-134.2
		C423.1,416.3,348.4,458.2,263.2,458.2z"/>
	<path class="st70" d="M69.4,173.8c9.8-35.6,38.8-70.1,98.6-91.8c6.7-2.5,10.1-9.9,7.6-16.6c-0.7-1.8-1.7-3.4-3-4.7l-1.2-1.2
		c-3.4-3.3-8.3-4.6-12.9-3.2C136.1,63,77.8,96.2,58.7,171c-0.6,2.2,0.4,4.6,2.3,5.9l0.1,0.1c2.5,1.6,5.9,1,7.5-1.6
		C69,174.9,69.2,174.4,69.4,173.8z"/>
	<circle class="st70" cx="61" cy="192.9" r="8.2"/>
</g>
</svg>
