<?xml version="1.0" encoding="utf-8"?>
<!-- Generator: Adobe Illustrator 25.2.3, SVG Export Plug-In . SVG Version: 6.00 Build 0)  -->
<svg version="1.1" id="Layer_1" xmlns="http://www.w3.org/2000/svg" xmlns:xlink="http://www.w3.org/1999/xlink" x="0px" y="0px"
	 viewBox="0 0 490 425" style="enable-background:new 0 0 490 425;" xml:space="preserve">
<style type="text/css">
	.st0{fill:#78EFE9;}
	.st1{fill:#0072AB;}
	.st2{fill:#74879E;}
	.st3{clip-path:url(#SVGID_2_);}
	.st4{fill:#A0D8D0;}
	.st5{fill:#859E7B;}
	.st6{fill:url(#SVGID_3_);}
	.st7{fill:url(#SVGID_4_);}
	.st8{fill:#202658;}
	.st9{fill:#121011;}
	.st10{fill:#1B1E28;}
	.st11{fill:url(#SVGID_5_);}
	.st12{fill:url(#SVGID_6_);}
	.st13{fill:#CE9373;}
	.st14{fill:url(#SVGID_7_);}
	.st15{fill:url(#SVGID_8_);}
	.st16{fill:#8B4E29;}
	.st17{fill:#C87942;}
	.st18{fill:#D1A787;}
	.st19{fill:url(#SVGID_9_);}
	.st20{fill:url(#SVGID_10_);}
	.st21{fill:url(#SVGID_11_);}
	.st22{opacity:0.3;fill:#0C0D0F;enable-background:new    ;}
	.st23{fill:url(#SVGID_12_);}
	.st24{fill:#485672;}
	.st25{opacity:0.11;enable-background:new    ;}
	.st26{fill:#4F4E4E;}
	.st27{fill:#449F90;}
	.st28{fill:#AFDDD6;}
	.st29{fill:#8FD1C5;}
	.st30{fill:#6D1549;}
	.st31{fill:#81235E;}
	.st32{fill:url(#SVGID_13_);}
	.st33{fill:#AF5286;}
	.st34{fill:#88406E;}
	.st35{fill:url(#SVGID_14_);}
	.st36{fill:#0C8479;}
	.st37{fill:#9F5F32;}
	.st38{fill:#29306E;}
	.st39{fill:#9D527E;}
	.st40{fill:#B7749D;}
	.st41{fill:#F1AD85;stroke:#77442A;stroke-width:0.5;stroke-miterlimit:10;}
	.st42{fill:#EAECEC;}
	.st43{fill:#64BCAD;}
	.st44{fill:#9F3F23;}
	.st45{fill:#F16623;}
	.st46{fill:#CB5428;}
	.st47{fill:url(#SVGID_15_);}
	.st48{fill:url(#SVGID_16_);}
	.st49{fill:#00A69C;}
	.st50{fill:#FFFFFF;}
	.st51{fill:#D6C8AE;}
	.st52{fill:#7C1A51;}
	.st53{fill:url(#SVGID_17_);}
	.st54{fill:url(#SVGID_18_);}
	.st55{fill:#9E6DA3;}
	.st56{fill:#805983;}
	.st57{fill:url(#SVGID_19_);}
	.st58{fill:#C04927;}
	.st59{fill:#E98056;}
	.st60{fill:url(#SVGID_20_);}
	.st61{fill:#F19776;}
	.st62{fill:url(#SVGID_21_);}
	.st63{fill:url(#SVGID_22_);}
	.st64{fill:url(#SVGID_23_);}
	.st65{fill:url(#SVGID_24_);}
	.st66{fill:#F1AD85;stroke:#77442A;stroke-width:0.75;stroke-miterlimit:10;}
	.st67{fill:#F1AD85;}
	.st68{fill:#77442A;}
	.st69{fill:none;stroke:#77442A;stroke-width:0.75;stroke-miterlimit:10;}
	.st70{fill:none;stroke:#77442A;stroke-width:0.5;stroke-miterlimit:10;}
	.st71{fill:#264426;stroke:#162B17;stroke-width:0.25;stroke-miterlimit:10;}
	.st72{fill:#2F5C2D;stroke:#223D20;stroke-width:0.25;stroke-miterlimit:10;}
	.st73{opacity:0.54;fill:#DDDAD9;enable-background:new    ;}
	.st74{fill:#2A3578;}
	.st75{opacity:0.57;fill:#9FDCF4;enable-background:new    ;}
	.st76{fill:url(#SVGID_25_);}
	.st77{fill:#DDDAD9;}
	.st78{opacity:0.33;fill:#FFFFFF;enable-background:new    ;}
	.st79{opacity:0.89;}
	.st80{fill:#E9F5FA;}
	.st81{opacity:0.46;fill:#FFFFFF;enable-background:new    ;}
	.st82{opacity:0.53;}
	.st83{fill:#B1E5E0;}
	.st84{opacity:0.53;fill:#FFFFFF;enable-background:new    ;}
	.st85{opacity:0.15;fill:#FFFFFF;enable-background:new    ;}
</style>
<polygon class="st0" points="359.8,13.6 130.2,13.6 15.3,212.5 130.2,411.4 359.8,411.4 474.7,212.5 "/>
<polygon class="st1" points="353.3,24.9 136.7,24.9 28.3,212.5 136.7,400.1 353.3,400.1 461.7,212.5 "/>
<polygon class="st2" points="351.5,28 138.5,28 32,212.5 138.5,397 351.5,397 458,212.5 "/>
<g>
	<defs>
		<polygon id="SVGID_1_" points="351.5,28 138.5,28 32,212.5 138.5,397 351.5,397 458,212.5 		"/>
	</defs>
	<clipPath id="SVGID_2_">
		<use xlink:href="#SVGID_1_"  style="overflow:visible;"/>
	</clipPath>
	<g class="st3">
		<rect x="-545.7" y="-224.1" class="st4" width="931.5" height="620.9"/>
		<rect x="-533.5" y="-210.7" class="st5" width="978.4" height="621"/>
		
			<linearGradient id="SVGID_3_" gradientUnits="userSpaceOnUse" x1="115.9927" y1="337.8235" x2="153.92" y2="337.8235" gradientTransform="matrix(1 0 0 -1 0 426)">
			<stop  offset="0" style="stop-color:#293B8F"/>
			<stop  offset="1" style="stop-color:#252962"/>
		</linearGradient>
		<path class="st6" d="M117.6,29.8c0,0,14.1,28.7,23.4,52.3c0,0,12.9,43,12.9,49.4c0,6.4-12.9,15.9-19.3,15.1S110.6,55.2,117.6,29.8
			z"/>
		
			<linearGradient id="SVGID_4_" gradientUnits="userSpaceOnUse" x1="88.472" y1="291.4981" x2="141.312" y2="345.8681" gradientTransform="matrix(1 0 0 -1 0 426)">
			<stop  offset="0" style="stop-color:#293B8F"/>
			<stop  offset="1" style="stop-color:#151945"/>
		</linearGradient>
		<path class="st7" d="M123.2,46.3l3.3,2.1c0,0,9.7,21.5,12.1,39.2s2.4,22.7,16,21.3s-6.2,19-19.5,23.7
			c-13.4,4.7-12.7,13.8-18.4,3.1S123.2,46.3,123.2,46.3z"/>
		<path class="st8" d="M146.7,161.5c-5.5-6.6,4.4-12.1,9.9-17.5c1.1-1.1,3.3-4.8,0-5.5c-13.4,3.5-18.2-4.8-19.6-15
			c-4.5,4.9-8.6,10-12.4,15.4l-16.8,47.1c14.6,0.6,31.1-10.1,44.1-21.5C149.7,164.3,147.8,163.2,146.7,161.5z"/>
		<path class="st9" d="M-27.7,261.3L-32,263c0,0-2.8,2.3-0.4,9l2.3,7c0,0-1.4,35.6,0,61.6l142.1-25l21.8-28.6l6.2-27.5L-27.7,261.3z
			"/>
		<path class="st10" d="M-17.2,240l6.6,2.4c0,0-21.6,3-17.7,7.2c0,0-11,11.5-5.1,15.8C-11.6,281-27.1,377.6-8.2,382
			c12.8,3,65.3-9.9,84.1-9.1c49.8,2.1,42.9-102.5,50.9-110.1s2.3-21-3.6-23.2S-17.2,240-17.2,240z"/>
		
			<linearGradient id="SVGID_5_" gradientUnits="userSpaceOnUse" x1="49.771" y1="499.92" x2="47.411" y2="285.38" gradientTransform="matrix(1 0 0 -1 0 426)">
			<stop  offset="0" style="stop-color:#293B8F"/>
			<stop  offset="1" style="stop-color:#252962"/>
		</linearGradient>
		<path class="st11" d="M130,229.3c0-0.1,0-0.2-0.1-0.4v-0.1c0,0,0-0.1,0-0.1c-0.1-0.4-0.1-0.8-0.1-1.2c0-0.4,0-0.8,0.1-1.1
			c-0.1-0.6-0.2-1.1-0.1-1.7c0-8.5,1.2-50,1.3-84.4c0-5.8,3.3-19,3-23.7c-1.9-32.4,1.5-41.9-4.1-43.8c0,0-0.4-2.7-3-17.9
			s2.6-31.2-19-37.7c-19.9-6-100.8-16-100.8-16L4,5.3c0,0-11.2-0.9-12.6,4.4c-12,8.2-22.3,18.6-30.1,30.9
			c-13.4,20.6,6.7,107.2,7.3,118.6c0,1,6.5,9.7,6.4,11.1l9.8,16.3l-9.7,57l0.5,6.3c16.9,6.3,46.7,20.7,91.7,18
			c3.7-0.2,19.4-2.5,22.7-2.8l4.4-17.9l2.5,17.3c67.7-7.2,31.3-25.3,30.3-32.7C126.7,228.2,128.1,228.6,130,229.3z"/>
		
			<linearGradient id="SVGID_6_" gradientUnits="userSpaceOnUse" x1="98.5252" y1="401.6655" x2="-26.0848" y2="520.0154" gradientTransform="matrix(1 0 0 -1 0 426)">
			<stop  offset="0" style="stop-color:#F8C4A0"/>
			<stop  offset="0.66" style="stop-color:#D79F7E"/>
			<stop  offset="1" style="stop-color:#C48B6B"/>
		</linearGradient>
		<path class="st12" d="M29.6-47.3c0,0-2.9,21.2-5.7,31.2l1.2,6.6c0,0-0.4,7.8,4.1,11.6s43.3,17.5,43.3,17.5s-2.9,12.6,0,14
			s6,7.7,6,7.7s0.6-8,1.1-13.7c0.3-3.4,0.3-6.8,0-10.2c0,0,9.9-6.4,11-16.1s-1.5-13.9-1.5-13.9l-3-5.8l-0.8-13.5L29.6-47.3z"/>
		<path class="st13" d="M48.4,4.1c-6.8-13.7-4.9-31.1-4.9-31.1L28.8-40c-1.3-2.8-2.9-5.4-4.8-7.8c0.3,2.8,2.5,22.5,0,31.8l1.2,6.6
			c0,0-0.5,7.8,4.1,11.6c2,1.6,10.1,5,18.9,8.4C49.4,8.9,49.7,6.7,48.4,4.1z"/>
		
			<linearGradient id="SVGID_7_" gradientUnits="userSpaceOnUse" x1="93.5141" y1="475.6302" x2="88.8941" y2="598.8502" gradientTransform="matrix(1 0 0 -1 0 426)">
			<stop  offset="0" style="stop-color:#293B8F"/>
			<stop  offset="1" style="stop-color:#252962"/>
		</linearGradient>
		<path class="st14" d="M110.7-0.2c-2.8-6.5-24.6-18.1-24.6-18.1s0.2,2.7,0.4,5.9L88.7-5L89-1.3l-1,2.6l0,0
			c-1,5.2-8.3,16.1-8.3,16.1s16.3,4.1,19.2,7.1S105.4,39,111.6,44C111.6,44,113.6,6.3,110.7-0.2z"/>
		
			<linearGradient id="SVGID_8_" gradientUnits="userSpaceOnUse" x1="94.716" y1="427.371" x2="122.096" y2="387.671" gradientTransform="matrix(1 0 0 -1 0 426)">
			<stop  offset="0" style="stop-color:#293B8F"/>
			<stop  offset="1" style="stop-color:#252962"/>
		</linearGradient>
		<path class="st15" d="M110.7-0.2c-0.5-1-1.2-2-2-2.8l-9.8,27.5l0.1,0c3,3,6.4,14.5,12.7,19.4C111.6,44,113.6,6.3,110.7-0.2z"/>
		<rect x="353.4" y="13.6" class="st16" width="120.5" height="259.3"/>
		<polygon class="st17" points="-411.9,397 438.5,232.7 438.5,397 		"/>
		<polygon class="st18" points="413.9,312.6 307.1,278.9 22.3,341.3 39.9,349.1 303.6,291 402.7,319.9 		"/>
		<polygon class="st18" points="58.9,374.6 51.4,381.1 98.3,397 119.9,397 		"/>
		
			<linearGradient id="SVGID_9_" gradientUnits="userSpaceOnUse" x1="352.5674" y1="177.4999" x2="356.9774" y2="49.7099" gradientTransform="matrix(1 0 0 -1 0 426)">
			<stop  offset="1.000000e-02" style="stop-color:#88CBBF"/>
			<stop  offset="1" style="stop-color:#3C8D80"/>
		</linearGradient>
		<polygon class="st19" points="405.4,317 308.2,290.1 307.8,290.2 304.3,311.7 307.8,396.9 405.4,396.9 		"/>
		
			<linearGradient id="SVGID_10_" gradientUnits="userSpaceOnUse" x1="342.8833" y1="55.4595" x2="348.4033" y2="95.7695" gradientTransform="matrix(1 0 0 -1 0 426)">
			<stop  offset="1.000000e-02" style="stop-color:#ADDDD7"/>
			<stop  offset="1" style="stop-color:#46A99A"/>
		</linearGradient>
		<polyline class="st20" points="401.9,331.5 404.4,323.3 307.4,290.1 307.1,290.2 297.9,297.4 307.1,300.8 		"/>
		
			<linearGradient id="SVGID_11_" gradientUnits="userSpaceOnUse" x1="209.1179" y1="282.8105" x2="140.1779" y2="-7.7295" gradientTransform="matrix(1 0 0 -1 0 426)">
			<stop  offset="1.000000e-02" style="stop-color:#ADDDD7"/>
			<stop  offset="1" style="stop-color:#46A99A"/>
		</linearGradient>
		<polygon class="st21" points="0.7,354.8 124.8,396.9 307.1,396.9 307.1,290.2 		"/>
		<path class="st16" d="M353.4,293.8l101.1,34.1l5.1-108.9c-38.7-5.2-74.9-13-106.3-23.5V293.8z"/>
		<path class="st22" d="M356.3,203.5h7.1c0,0,2.9,1,3.2,9s0,50.8,0,50.8s-2.8,3.2-5.1,3.2c-2.7,0.2-5.4,0.2-8.1,0L356.3,203.5z"/>
		
			<linearGradient id="SVGID_12_" gradientUnits="userSpaceOnUse" x1="53.4702" y1="218.1917" x2="67.7002" y2="133.8617" gradientTransform="matrix(1 0 0 -1 0 426)">
			<stop  offset="1.000000e-02" style="stop-color:#63BAAD"/>
			<stop  offset="1" style="stop-color:#449F90"/>
		</linearGradient>
		<path class="st23" d="M106.2,332.6L0.7,354.8l124.1,42.1h38.2C137.6,382.7,117.2,362,106.2,332.6z"/>
		<path class="st24" d="M248.2,104.6l9,1.5c4.3-24.7,27.8-41.2,52.5-36.8c21.7,3.8,37.5,22.6,37.5,44.6v94.5h9.1v-94.5
			c0-30.1-24.4-54.4-54.5-54.4C275.3,59.6,252.7,78.6,248.2,104.6L248.2,104.6z"/>
		<path class="st25" d="M303.4,68.6c24.4,0.9,43.7,20.9,43.7,45.3v94.5h3.2v-94.5c0-25-20.3-45.3-45.4-45.3
			C304.5,68.6,304,68.6,303.4,68.6z"/>
		<rect x="329.2" y="225.8" class="st26" width="3.3" height="20.3"/>
		<rect x="315.6" y="220.3" class="st24" width="5.7" height="4.7"/>
		<path class="st24" d="M322.3,220.4h-7.6l0,0v-14.7c0-2.1,1.7-3.8,3.8-3.8l0,0l0,0c2.1,0,3.8,1.7,3.8,3.8l0,0L322.3,220.4
			L322.3,220.4L322.3,220.4z"/>
		<path class="st24" d="M338.9,209.6v53.7c0,1.2,5.8,2.1,12.8,2.1s12.8-0.9,12.8-2.1v-53.7c0-1.8-1.4-3.2-3.2-3.2c0,0,0,0,0,0H342
			C340.3,206.4,338.9,207.9,338.9,209.6C338.9,209.6,338.9,209.6,338.9,209.6z"/>
		<path class="st24" d="M330.3,246.9h-12.6c-3,0-5.4-2.4-5.4-5.4v-11c0-3,2.4-5.4,5.4-5.4h12.6l0,0V246.9L330.3,246.9z"/>
		<rect x="331.7" y="225" class="st24" width="7.2" height="21.8"/>
		<rect x="331.6" y="241.7" class="st25" width="7.2" height="5.1"/>
		<path class="st25" d="M317.4,228.8V225h-0.9h-0.1c-0.2,0.1-0.4,0.2-0.5,0.3c-0.3,0.2-0.7,0.4-1,0.7c-0.5,0.3-1,0.6-1.5,0.9v0.1
			l0,0c0,0.1,0,0.1,0,0.2c-0.1,0.3-0.3,0.7-0.4,1l0.1-0.2c-0.3,0.6-0.5,1.2-0.7,1.8V243c0.2,0.1,0.3,0.2,0.4,0.3
			c0.3,0.6,0.5,1.1,0.8,1.7c0.1,0,0.2,0.1,0.3,0.2l0.4,0.4c0.6,0.4,1.2,0.8,1.9,1.2h14.3v-5.1c-7.1,0-12.9-5.7-13-12.8
			C317.4,228.9,317.4,228.8,317.4,228.8z"/>
		<path class="st25" d="M317.8,212.8v-10.7l-0.3,0.1c-0.2,0.1-0.4,0.2-0.5,0.3c-0.2,0.1-0.5,0.2-0.7,0.1c-0.2,0.2-0.4,0.4-0.5,0.6
			c-0.1,0.2-0.2,0.4-0.3,0.6l0,0c-0.1,0.3-0.4,0.6-0.7,0.7v16h7.6v-3.1C319.8,217.2,317.8,215.2,317.8,212.8z"/>
		<path class="st25" d="M248.2,104.6l3.1,0.5l0.1-0.5c4.4-25.5,26.2-44.4,52.1-45.1c-0.5,0-1.1,0-1.6,0
			C275.3,59.5,252.7,78.6,248.2,104.6L248.2,104.6z"/>
		<path class="st24" d="M257.6,119.1l-14.7-2.6l0,0l1.4-8c0.5-2.8,3.1-4.6,5.9-4.1l4.7,0.8c2.8,0.5,4.6,3.1,4.1,5.9L257.6,119.1
			L257.6,119.1z"/>
		<path class="st25" d="M255.3,113.9c-4.5-0.8-7.5-5-6.9-9.5l-0.4,0.1l-0.2,0.1l0,0l-0.3,0.1c-0.2,0.1-0.4,0.2-0.6,0.3
			s-0.4,0.2-0.6,0.3l-0.3,0.2l-0.2,0.1c-0.3,0.2-0.6,0.5-0.9,0.8c0,0-0.1,0.1-0.1,0.1l-0.1,0.3l-0.1,0.1v0.1c0,0.1-0.1,0.2-0.1,0.3
			c0,0.1-0.1,0.3-0.2,0.4v0.1l-1.6,8.7l14.7,2.6l0.8-4.7L255.3,113.9z"/>
		<path class="st27" d="M249.6,372c0,10.5-28,19-62.5,19s-62.5-8.5-62.5-19s28-19,62.5-19S249.6,361.5,249.6,372z"/>
		<path class="st28" d="M331,352.9c0,0-14.5-7.2-37.8-2.1L143,384.8l-0.3,4.6l-12.5-1.7l-20.4,4.6l10.6,4.7h265.5v-26.3L331,352.9z"
			/>
		<path class="st29" d="M293.1,354.3l-176.2,40l7.8,2.6h261.1v-22.6L331,356.5C331,356.5,316.5,349.3,293.1,354.3z"/>
		<path class="st30" d="M184.8,367.1c-34.5,0-62.5,8.5-62.5,19c0,4,4.1,7.8,11.2,10.8H236c7-3.1,11.2-6.8,11.2-10.8
			C247.2,375.5,219.3,367.1,184.8,367.1z"/>
		<path class="st31" d="M184.8,365.7c-34.5,0-62.5,8.5-62.5,19c0,4.6,5.5,8.9,14.6,12.2h95.8c9.1-3.3,14.6-7.5,14.6-12.2
			C247.2,374.2,219.3,365.7,184.8,365.7z"/>
		
			<linearGradient id="SVGID_13_" gradientUnits="userSpaceOnUse" x1="184.9838" y1="52.9499" x2="184.4438" y2="24.4799" gradientTransform="matrix(1 0 0 -1 0 426)">
			<stop  offset="0" style="stop-color:#FFFFFF"/>
			<stop  offset="1" style="stop-color:#918F8F"/>
		</linearGradient>
		<path class="st32" d="M184.8,370.2c-28.9,0-52.2,6.6-52.2,14.7c0,5,8.8,9.4,22.2,12h60c13.4-2.7,22.2-7,22.2-12
			C237,376.7,213.6,370.2,184.8,370.2z"/>
		<path class="st33" d="M205.8,376.3c0,1.7-4.1,3-9.2,3s-9.2-1.4-9.2-3s4.1-3,9.2-3S205.8,374.6,205.8,376.3z"/>
		<path class="st33" d="M180.5,380.1c0,0.5-1.3,0.8-2.8,0.8s-2.8-0.4-2.8-0.8s1.3-0.8,2.8-0.8S180.5,379.7,180.5,380.1z"/>
		<path class="st33" d="M176.2,390.3c0,1.9-6.1,3.5-13.6,3.5s-13.6-1.6-13.6-3.5s6.1-3.5,13.6-3.5S176.2,388.4,176.2,390.3z"/>
		<path class="st33" d="M216.3,391.5c0,1.1-3.6,2-8,2s-8-0.9-8-2s3.6-2,8-2S216.3,390.4,216.3,391.5z"/>
		<path class="st34" d="M184.8,397c-24.2,0-43.2-5.5-43.2-12.5s19-12.5,43.2-12.5s43.2,5.5,43.2,12.5S209,397,184.8,397z M184.8,373
			c-22.8,0-42.1,5.3-42.1,11.5s19.3,11.5,42.1,11.5s42.1-5.2,42.1-11.5S207.6,373,184.8,373z"/>
		
			<linearGradient id="SVGID_14_" gradientUnits="userSpaceOnUse" x1="346" y1="63.5274" x2="365.7375" y2="63.5274" gradientTransform="matrix(1 0 0 -1 0 426)">
			<stop  offset="1.000000e-02" style="stop-color:#D4C9B3"/>
			<stop  offset="1" style="stop-color:#00A69C"/>
		</linearGradient>
		<path class="st35" d="M363.1,349.2c-3-1.8-10,0-10,0l-7.1,24.1c0,0,1.6,5.4,8.4,2.2s9.9-16.6,10.8-20.1S366.1,351,363.1,349.2z"/>
		<path class="st36" d="M360.1,351.8c0,0,2.5-0.1,3.4,0s0.9,1.4,0.1,4.4s-3.6,12.1-6.4,15.4s-5.2,4.5-5,3.2S360.1,351.8,360.1,351.8
			z"/>
		<polygon class="st37" points="115.8,388.2 21.5,356.7 307.1,295 411.4,327.7 410.1,317 307.6,286 -11.6,354.9 114.3,397 
			140.7,397 		"/>
		<path class="st38" d="M168,124.4c-3-3.1-1.5-7.6-1.5-10.2s2.9-10.9-11.3-5.2c-6.2,2.5-12.8,8.5-18.3,14.5l-0.5,5.5l-14,17
			c0,0,3.6,20.5,13.4,21.1s15.8-2.5,15.9-2.5c12.2-10.7,21.2-21.9,22.3-24.9C176.2,133.7,171,127.5,168,124.4z"/>
		
			<ellipse transform="matrix(0.996 -8.958964e-02 8.958964e-02 0.996 -22.141 23.6984)" class="st39" cx="252.9" cy="258.5" rx="68.5" ry="52.4"/>
		
			<ellipse transform="matrix(0.996 -8.958950e-02 8.958950e-02 0.996 -22.1264 23.8068)" class="st40" cx="254.1" cy="258.4" rx="49.4" ry="37.8"/>
		<path class="st41" d="M136.5,176.2c0,0,56.4,45.2,66,47.2c8.2-5.1,31.1-15,37.7-14.7s11.6-1.4,18.4,4s13,8.8,21.2,2.5
			c5.7-4,3.1-3.1,3.1-3.1s4.5-0.6-6.5-5.1c-10.8-6.2-22.9-16.4-23.5-17.6s-3.7-5.1-9.9-0.6c-6.5,4.8-11.6,7.9-14.7,8.8
			s-9.6-5.1-15.3-11.3s-41.5-43.1-41.5-43.1"/>
		<path class="st42" d="M267.9,201.5c0,0-5.9,8.7,15.3,8.7C277.9,207.6,272.8,204.7,267.9,201.5z"/>
		<path class="st43" d="M315.3,376.7c0,10.5-28,19-62.5,19s-62.5-8.5-62.5-19s28-19,62.5-19S315.3,366.2,315.3,376.7z"/>
		<path class="st43" d="M373.3,387.2c0,5.1-18,9.3-40.2,9.3s-40.2-4.2-40.2-9.3s18-9.3,40.2-9.3S373.3,382.1,373.3,387.2z"/>
		<path class="st44" d="M310.8,376.5c0-10.5-28-19-62.5-19s-62.5,8.5-62.5,19c0,8.9,20,16.3,47.1,18.4c10.3,1.1,25,0.4,25,0.4l0,0
			C287.9,393.9,310.8,386,310.8,376.5z"/>
		<path class="st45" d="M247.8,355.7c-34.5,0-62.5,8.5-62.5,19c0,8.9,20,16.3,47,18.4l-0.8-1.6l18.7-5.1l7.2,7l0,0
			c29.9-1.4,52.9-9.3,52.9-18.8C310.3,364.2,282.3,355.7,247.8,355.7z"/>
		<path class="st46" d="M310.3,375.5c0-10.5-28-19-62.5-19s-62.5,8.5-62.5,19c0,8.9,20,16.3,47,18.4c10.3,1.1,25,0.4,25,0.4l0,0
			C287.4,392.8,310.3,385,310.3,375.5z"/>
		
			<linearGradient id="SVGID_15_" gradientUnits="userSpaceOnUse" x1="237.4093" y1="95.8098" x2="288.5293" y2="-59.7302" gradientTransform="matrix(1 0 0 -1 0 426)">
			<stop  offset="0" style="stop-color:#FFFFFF"/>
			<stop  offset="1" style="stop-color:#918F8F"/>
		</linearGradient>
		<path class="st47" d="M303.6,372.8c0,8.1-23.4,14.7-52.2,14.7s-52.2-6.6-52.2-14.7s23.4-14.7,52.2-14.7S303.6,364.7,303.6,372.8z"
			/>
		
			<linearGradient id="SVGID_16_" gradientUnits="userSpaceOnUse" x1="249.779" y1="11.1296" x2="235.039" y2="52.2696" gradientTransform="matrix(1 0 0 -1 0 426)">
			<stop  offset="0" style="stop-color:#FFFFFF"/>
			<stop  offset="1" style="stop-color:#918F8F"/>
		</linearGradient>
		<path class="st48" d="M284.9,367.2c0,6.7-23.4,12.2-52.2,12.2s-52.2-5.5-52.2-12.2s23.4-12.2,52.2-12.2S284.9,360.4,284.9,367.2z"
			/>
		<path class="st46" d="M251.4,385.4c-24.2,0-43.2-5.5-43.2-12.5s19-12.5,43.2-12.5s43.2,5.5,43.2,12.5S275.6,385.4,251.4,385.4z
			 M251.4,361.4c-22.8,0-42.1,5.3-42.1,11.5s19.3,11.5,42.1,11.5s42.1-5.3,42.1-11.5S274.3,361.4,251.4,361.4L251.4,361.4z"/>
		<path class="st49" d="M371.8,385.4c0,5.1-18,9.3-40.2,9.3s-40.2-4.2-40.2-9.3s18-9.3,40.2-9.3S371.8,380.2,371.8,385.4z"/>
		<path class="st50" d="M331.7,392.5c-8.9,0.1-17.8-0.8-26.5-2.7c-7.9-1.9-9.6-3-9.6-4.5s1.7-2.5,9.6-4.5c7-1.7,16.5-2.7,26.5-2.7
			c8.9-0.1,17.8,0.8,26.5,2.7c7.9,1.9,9.6,2.6,9.6,4.5c0,1.2-1.7,2.5-9.6,4.5C349.5,391.7,340.6,392.6,331.7,392.5z"/>
		<path class="st51" d="M352.3,387.8c0,2-9.4,3.6-21,3.6s-21-1.6-21-3.6s9.4-3.6,21-3.6S352.3,385.8,352.3,387.8z"/>
		<path class="st30" d="M255.8,377.9c0,10.5-28,19-62.5,19s-62.5-8.5-62.5-19s28-19,62.5-19S255.8,367.4,255.8,377.9z"/>
		<path class="st39" d="M250.4,374.6c0,0.5,5.3,3,5.2,3.5c-2.6,9.7-29.5,17.4-62.3,17.4c-34.5,0-62.5-8.5-62.5-19s28-19,62.5-19
			S250.4,364.2,250.4,374.6z"/>
		<path class="st52" d="M199.9,357.7c-11.8,2.2-19.4,5.6-19.4,9.5c0,6.7,23.4,12.2,52.2,12.2c4.4,0,8.3-0.5,12.4-0.7
			c3.5-0.2,7.3-0.2,10.5-0.5c0.1-0.5,0.2-1,0.2-1.6C255.8,366.8,231.3,358.7,199.9,357.7z"/>
		
			<linearGradient id="SVGID_17_" gradientUnits="userSpaceOnUse" x1="179.0994" y1="91.8598" x2="230.2194" y2="-63.6702" gradientTransform="matrix(1 0 0 -1 0 426)">
			<stop  offset="0" style="stop-color:#FFFFFF"/>
			<stop  offset="1" style="stop-color:#918F8F"/>
		</linearGradient>
		<path class="st53" d="M242.1,373.8l2.1-0.2c-5.1-6.6-26-11.5-51-11.5c-28.9,0-52.2,6.6-52.2,14.7s23.4,14.7,52.2,14.7
			c26.5,0,48.4-5.5,51.8-12.7L242.1,373.8z"/>
		
			<linearGradient id="SVGID_18_" gradientUnits="userSpaceOnUse" x1="197.7863" y1="19.7469" x2="219.6963" y2="63.1969" gradientTransform="matrix(1 0 0 -1 0 426)">
			<stop  offset="0" style="stop-color:#FFFFFF"/>
			<stop  offset="1" style="stop-color:#918F8F"/>
		</linearGradient>
		<path class="st54" d="M193.3,362h-1.9c-6.4,3.9-9.8,7.8-9.2,11.3c1.6,8.8,29.4,11.1,62.8,5.4c0.3-0.6,0.5-1.3,0.5-1.9
			C245.5,368.6,222.1,362,193.3,362z"/>
		<path class="st33" d="M214.3,368.2c0,1.7-4.1,3-9.2,3s-9.2-1.4-9.2-3s4.1-3,9.2-3S214.3,366.5,214.3,368.2z"/>
		<path class="st33" d="M189,372c0,0.5-1.3,0.8-2.8,0.8s-2.8-0.4-2.8-0.8s1.3-0.8,2.8-0.8S189,371.6,189,372z"/>
		<path class="st33" d="M184.8,382.2c0,1.9-6.1,3.5-13.6,3.5s-13.6-1.6-13.6-3.5s6.1-3.5,13.6-3.5S184.8,380.3,184.8,382.2z"/>
		<path class="st33" d="M224.8,383.3c0,1.1-3.6,2-8,2s-8-0.9-8-2s3.6-2,8-2S224.8,382.2,224.8,383.3z"/>
		<path class="st33" d="M193.3,389.3c-24.2,0-43.2-5.5-43.2-12.5s19-12.5,43.2-12.5s43.2,5.5,43.2,12.5S217.5,389.3,193.3,389.3z
			 M193.3,365.3c-22.8,0-42.1,5.2-42.1,11.5s19.3,11.4,42.1,11.4s42.1-5.2,42.1-11.4S216.1,365.3,193.3,365.3L193.3,365.3z"/>
		<path class="st55" d="M325,389c-33.1-8.7-23.9-43.9-23.9-43.9l31,4.5l31.1,3.6c0,0-1.1,35.8-35.2,36L325,389z"/>
		<path class="st56" d="M363.3,353.3c-0.2,2.3-14.4,2.3-31.6,0s-31-5.8-30.7-8.1s14.4-2.3,31.6,0S363.6,351,363.3,353.3z"/>
		
			<linearGradient id="SVGID_19_" gradientUnits="userSpaceOnUse" x1="332.1202" y1="76.83" x2="334.0302" y2="60.54" gradientTransform="matrix(1 0 0 -1 0 426)">
			<stop  offset="0" style="stop-color:#FFFFFF"/>
			<stop  offset="1" style="stop-color:#918F8F"/>
		</linearGradient>
		<path class="st57" d="M351,353.3c-6.4-0.1-12.8-0.6-19.2-1.4c-14.6-1.9-26.1-5-25.9-6c0.7-0.7,2.4-0.7,7.2-0.7
			c6.4,0.1,12.8,0.6,19.2,1.4c14.6,1.9,25.1,4.5,25.9,6C357.8,353.3,355.8,353.3,351,353.3z"/>
		<path class="st58" d="M325.7,338.3c-2.2-11.8-37.9-15-79.7-7.2s-73.9,23.6-71.8,35.3c1.9,10,27.6,13.8,60.9,10.1
			c12.7-1.1,30.4-5.2,30.4-5.2l0,0C301.6,362.9,327.7,349,325.7,338.3z"/>
		<path class="st59" d="M324.9,337.2c-2.2-11.8-37.8-15-79.7-7.2s-73.9,23.6-71.8,35.3c1.9,10,27.6,13.8,60.9,10.1
			c12.7-1.1,30.4-5.2,30.4-5.2l0,0C300.7,361.8,326.9,347.9,324.9,337.2z"/>
		
			<linearGradient id="SVGID_20_" gradientUnits="userSpaceOnUse" x1="441.9964" y1="220.6756" x2="500.3264" y2="43.1756" gradientTransform="matrix(1.06 -0.2 -0.18 -0.98 -206.25 608.8)">
			<stop  offset="0" style="stop-color:#FFFFFF"/>
			<stop  offset="1" style="stop-color:#918F8F"/>
		</linearGradient>
		<path class="st60" d="M312.9,339.3c1.7,9.1-25.3,21.7-60.3,28.2s-64.7,4.4-66.4-4.7s25.3-21.7,60.2-28.2S311.2,330.2,312.9,339.3z
			"/>
		<path class="st61" d="M252.2,365.1c-29.4,5.5-53.5,3.5-55-4.4s20.4-18.3,49.8-23.8s53.5-3.5,55,4.4S281.6,359.6,252.2,365.1z
			 M247.2,338.1c-27.7,5.1-50,15.4-48.7,22.3s25.8,8.5,53.4,3.4s50-15.4,48.7-22.3S274.9,333,247.2,338.1z"/>
		
			<linearGradient id="SVGID_21_" gradientUnits="userSpaceOnUse" x1="127.3141" y1="374.1284" x2="118.9141" y2="352.2284" gradientTransform="matrix(1 0 0 -1 0 426)">
			<stop  offset="0" style="stop-color:#293B8F"/>
			<stop  offset="1" style="stop-color:#151945"/>
		</linearGradient>
		<path class="st62" d="M130.7,72.9c0,0-11.9,4.2-24.3,3.7C106.4,76.6,119.2,74.5,130.7,72.9z"/>
		
			<linearGradient id="SVGID_22_" gradientUnits="userSpaceOnUse" x1="135.1189" y1="369.3204" x2="118.5089" y2="325.9804" gradientTransform="matrix(1 0 0 -1 0 426)">
			<stop  offset="0" style="stop-color:#293B8F"/>
			<stop  offset="1" style="stop-color:#151945"/>
		</linearGradient>
		<path class="st63" d="M106.4,84.8c0,0,0.4,20.6,2.6,24.2s13.5,8.7,20.6,8.7c0,0-12.8-3.1-17.4-8.7S106.4,84.8,106.4,84.8z"/>
		
			<linearGradient id="SVGID_23_" gradientUnits="userSpaceOnUse" x1="176.9994" y1="556.8203" x2="87.9094" y2="324.4102" gradientTransform="matrix(1 0 0 -1 0 426)">
			<stop  offset="0" style="stop-color:#293B8F"/>
			<stop  offset="1" style="stop-color:#151945"/>
		</linearGradient>
		<path class="st64" d="M78.6,41.3c0,0,5.2,8.4,3.4,15s4.8,51.7,3.3,75.1s0.3,34.4,2.2,37.1s9.2,3,3.3,5.8s-5,7.2-5,7.2
			s-1.4-4.3-1.1-6.4s2-3.1,1.1-4.1s-2.2-4.5-2.2-9.6s-1.5-32.7-0.9-46.2s-2.5-34.7-2.9-48.2s0.6-13.7,0-17.5S78.6,41.3,78.6,41.3z"
			/>
		<path class="st25" d="M338.9,209.6v53.7c0,1.2,5.8,2.1,12.8,2.1s12.8-0.9,12.8-2.1v-3c-11.3,0-20.5-9.2-20.5-20.6c0,0,0,0,0,0
			v-33.3h-1.9C340.3,206.4,338.9,207.8,338.9,209.6C338.9,209.6,338.9,209.6,338.9,209.6z"/>
		
			<linearGradient id="SVGID_24_" gradientUnits="userSpaceOnUse" x1="92.7838" y1="441.1366" x2="84.3838" y2="426.1666" gradientTransform="matrix(1 0 0 -1 0 426)">
			<stop  offset="0" style="stop-color:#293B8F"/>
			<stop  offset="1" style="stop-color:#252962"/>
		</linearGradient>
		<path class="st65" d="M87.8-0.9c0.4,0.7,0.5,1.5,0.2,2.3l0,0c0,0,1.3-1.3,2.6-5.4c0.8-2.7-2-6.2-4-8.3C86.9-7.5,87.4-1.4,87.8-0.9
			z"/>
		<path class="st66" d="M55.1,229l99.6,56.5c0,0,9.2,8.9,24.2-6.1c12-4.6,23.2-11.1,26-10.7s8.4,10.9,8.4,10.9l-2.6,7.6l0.7,6.7
			c0,0,10.4-9,11.2-10.8s0.4-4.7,0.4-4.7s5.5-11.5,5.8-12.7s4.1-7.4,4.2-10.2c3,0.8,4-3.1,4-3.1s4.1-13.9,4.1-15.2s-7.2-9.8-11.4-12
			c-4.1-3.3-4.6-5-10.1-1c0,0-27.7,20-31.3,21.6c-3.5,1.8-13.9,8.9-17.4,11.3c-4.6-0.7-11.1-7.1-11.1-7.1l-69.1-64.9"/>
		<path class="st66" d="M222.4,280c0,0-4.9-20.1-9.5-25.8"/>
		<path class="st66" d="M228.2,267.1c0.3-5.1-1.1-10.1-4-14.2c-2.8-4-5.8-7.9-9.1-11.5"/>
		<path class="st67" d="M232.7,255.7c0,0-0.4-7.5-4.1-11.7c-3-3.1-6.3-6-9.7-8.7"/>
		<path class="st68" d="M232.7,255.7c-0.3-2.1-0.8-4.2-1.5-6.2c-0.6-2-1.7-3.8-3.1-5.4c-1.4-1.6-3-3-4.5-4.5s-3.1-2.9-4.7-4.3
			c1.8,1.2,3.5,2.5,5.1,3.9c1.6,1.4,3.2,2.9,4.7,4.4c1.4,1.7,2.5,3.6,3.1,5.7C232.4,251.4,232.7,253.5,232.7,255.7z"/>
		<polyline class="st69" points="224.2,241.6 231,238.7 227.6,243.4 		"/>
		<path class="st70" d="M163.6,273.3c-1.6-5.5-0.5-11.4,3.1-15.8"/>
		<path class="st71" d="M148.5,304.9c0,0,7.5,10.6,11.5,12.1s12.2,3,24-1.4s26.6-11.8,26.5-13.4c-0.9-3.9-4.5-21.2-15-19.4
			c-10.8,1.9-18.5,3.3-38.2,15.7C149.6,303.7,148.5,304.9,148.5,304.9z"/>
		<path class="st72" d="M163.6,286.9c0,0-12.3,13.5-13.9,16.8c5-3.7,10.3-7,15.7-10.1c5.6-3.1,9.1-5.1,14.3-6.8
			c7.2-2.4,12.4-4.1,17.8-2.2c9.1,3.1,12.3,14.2,12.9,16.1L210,287l2.9-6.6c0,0,0.5-0.2-1.2-2.7c-1.7-3.1-3.2-6.2-4.6-9.5
			C207.1,268.2,175.8,278.6,163.6,286.9z"/>
		<path class="st72" d="M226.8,270.6c0,0,21-3.2,16.5-10.9l-6.9-5.6l-3.2,1.4l-6.6,14.6"/>
		<path class="st38" d="M36.3,241.6c0,0,5.8,8.2,7.8,5.6s56.4-56.6,58.6-59s-35.9-38.1-37.7-36.8s-7.8,13.3-9.9,16
			s-12.5,12-14.7,15.3S31.4,236.3,36.3,241.6z"/>
		<path class="st73" d="M265.7,245.6c0,0-6.6,18.5-4.1,19.8s4.8,0.2,5.5-19.8"/>
		<path class="st73" d="M261.1,270.6c0,0-4.5,4.7-2.9,6.2s8,0.9,6-1.7C263,273.7,262,272.2,261.1,270.6z"/>
		<path class="st74" d="M0.2,181.6c0,0-3,7.8-3,13.1S9,198,13.6,195.8S1,182.3,1,182.3L0.2,181.6z"/>
		<path class="st74" d="M31,146.1c0,0,8.6-5.9,15.4-3s0.5,13.6,0,14.1l-13.5-9.2L31,146.1z"/>
		<path class="st75" d="M242.5,224.3c4.9-0.8,10-0.8,14.9,0c-0.1-10.3-0.2-27.5-0.7-48.2c-0.4-17.9-1-39.2-1.9-60.2H245
			c-0.9,21.3-1.5,42.4-1.9,60.2C242.7,196.9,242.6,214,242.5,224.3z"/>
		
			<linearGradient id="SVGID_25_" gradientUnits="userSpaceOnUse" x1="-28.1404" y1="374.2584" x2="-13.9604" y2="280.9784" gradientTransform="matrix(1 0 0 -1 0 426)">
			<stop  offset="0" style="stop-color:#2B3378"/>
			<stop  offset="1" style="stop-color:#151945"/>
		</linearGradient>
		<path class="st76" d="M-20.3,116.8c-6-0.3,7.4-8.5,20.3-17.6s-20.8,4.3-32.9,6.2c-9.7,1.5-9.6-0.2-11.2-2.4c0.7,1.9,1.1,4,1.3,6
			c0.3,6.6,2.3,10.3,1.8,14c-0.1,1.8,0,3.5,0.3,5.3c3,0.2,7-0.5,11.8-1.9C-17.3,122.8-14.4,117-20.3,116.8z"/>
		<path class="st77" d="M337.8,329.2c-2.5-2.1-6.2-1.8-8.4,0.7c-1,1.1-1.5,2.6-1.4,4.1l0,0c-0.2,0-0.4,0.1-0.5,0.1
			c-2.3,0.2-4.3,1.6-5.1,3.8c-0.1-0.1-0.3-0.1-0.4-0.2c-1.9-0.5-3.9,0.6-4.5,2.5c-0.5,1.8,0.5,3.7,2.3,4.4c-0.6,1.9,0.4,3.9,2.3,4.6
			c0,0,0,0,0,0c0.7,0.2,1.5,0.2,2.1,0c0.4,1.1,1.2,2,2.3,2.3c1.9,0.6,3.9-0.4,4.5-2.3c0.1-0.3,0.1-0.6,0.2-0.8
			c0.4,0.3,0.9,0.5,1.4,0.7c0.3,0.1,0.5,0.1,0.8,0.2c0.7,1.1,1.9,1.8,3.2,1.7c0.5,0,0.9-0.1,1.3-0.3c0.4,0.3,0.8,0.6,1.3,0.7
			c-0.7,1.9,0.3,4,2.2,4.6c0.7,0.3,1.6,0.3,2.3,0c0.6,1.9,2.7,2.9,4.6,2.3c1.1-0.4,2-1.2,2.3-2.3c0.1-0.3,0.1-0.5,0.1-0.8
			c2.8,1.8,6.4,1,8.2-1.8s1-6.4-1.8-8.2c-0.4-0.3-0.9-0.5-1.4-0.7l0,0c0.3-1.4-0.7-2.7-2-3c-0.9-0.2-1.8,0.2-2.4,0.9
			c-0.6-0.6-1.4-1-2.2-1.3c-0.9-0.3-1.9-0.4-2.9-0.2c0.1-0.2,0.1-0.3,0.2-0.5c0.1-0.3,0.1-0.5,0.2-0.8c0.4,0.3,0.9,0.5,1.4,0.7
			c3.1,1,6.5-0.7,7.4-3.9s-0.7-6.5-3.9-7.4l0,0c0.3-1.4-0.7-2.7-2-3c-0.9-0.2-1.8,0.2-2.4,0.9c-0.6-0.6-1.4-1-2.2-1.2
			C342.2,324.8,339,326.3,337.8,329.2z"/>
		<path class="st78" d="M298.6,377.5c-2.9,0-5.8,0.1-8.6,0.4l-17.6,8.1c5.6,1.8,11.9,1.6,17.7,1.5c2.9-0.1,5.9-0.3,8.8-0.8
			c3-0.4,6.4-0.9,9-2.2"/>
		<g class="st79">
			<path class="st50" d="M264.3,228.9c-0.8,0-1.5-0.7-1.5-1.5c0-0.8,0.7-1.5,1.5-1.5s1.5,0.7,1.5,1.5l0,0
				C265.7,228.3,265.1,228.9,264.3,228.9z M264.3,226.6c-0.5,0-0.8,0.4-0.8,0.8s0.4,0.8,0.8,0.8c0.5,0,0.8-0.4,0.8-0.8v0
				C265.1,227,264.7,226.6,264.3,226.6z"/>
			<g class="st79">
				<path class="st50" d="M233.1,226.5c-0.4,0-0.8-0.4-0.8-0.8c0-0.4,0.4-0.8,0.8-0.8s0.8,0.4,0.8,0.8
					C233.9,226.1,233.5,226.5,233.1,226.5z M233.1,225.2c-0.3,0-0.5,0.2-0.5,0.5c0,0.3,0.2,0.5,0.5,0.5c0.3,0,0.5-0.2,0.5-0.5
					C233.6,225.4,233.4,225.2,233.1,225.2L233.1,225.2z"/>
			</g>
		</g>
		<g class="st79">
			<path class="st50" d="M255.5,226.1c-0.6-0.1-1.1-0.6-1-1.2c0.1-0.5,0.5-0.9,1-1c0.6-0.1,1.2,0.4,1.2,1c0.1,0.6-0.4,1.2-1,1.2
				C255.6,226.2,255.5,226.2,255.5,226.1z M255.5,224.4c-0.3,0-0.6,0.3-0.6,0.6c0,0.3,0.3,0.6,0.6,0.6c0.3,0,0.6-0.3,0.6-0.6
				C256.1,224.7,255.8,224.4,255.5,224.4C255.5,224.4,255.5,224.4,255.5,224.4z"/>
		</g>
		<g class="st79">
			<circle class="st80" cx="246.9" cy="225.7" r="1"/>
		</g>
		<g class="st79">
			<path class="st50" d="M250.1,294c-0.6,0-1.1-0.5-1.1-1.1s0.5-1.1,1.1-1.1s1.1,0.5,1.1,1.1c0,0,0,0,0,0
				C251.2,293.5,250.7,294,250.1,294z M250.1,292.3c-0.3,0-0.6,0.3-0.6,0.6c0,0.3,0.3,0.6,0.6,0.6c0.3,0,0.6-0.3,0.6-0.6
				c0,0,0,0,0,0C250.7,292.6,250.5,292.3,250.1,292.3L250.1,292.3z"/>
		</g>
		<g class="st79">
			<path class="st50" d="M242.5,299.1c-0.5,0-0.8-0.4-0.8-0.9s0.4-0.9,0.9-0.9c0.5,0,0.8,0.4,0.8,0.9S242.9,299.1,242.5,299.1
				L242.5,299.1z M242.5,297.8c-0.3,0-0.5,0.2-0.5,0.5c0,0.3,0.2,0.5,0.5,0.5c0.3,0,0.5-0.2,0.5-0.5S242.8,297.8,242.5,297.8
				L242.5,297.8z"/>
		</g>
		<g class="st79">
			<path class="st80" d="M259,295.9c0,0.5-0.4,0.9-0.9,0.9s-0.9-0.4-0.9-0.9c0-0.5,0.4-0.9,0.9-0.9l0,0
				C258.6,295.1,259,295.4,259,295.9z"/>
		</g>
		<path class="st81" d="M267,219.7c0.3,0.1,0.4,0.5,0.2,0.8c-0.1,0.1-0.1,0.2-0.2,0.2c-1.4,0.7-3,1.1-4.5,1.3
			c-0.9,0.2-1.8,0.3-2.8,0.4h0.1c1.7-0.3,3.3-0.9,4.8-1.8c0.2-0.2,0.3-0.5,0.1-0.8c0,0-0.1-0.1-0.1-0.1c-1.5-0.9-3.1-1.5-4.8-1.8
			h-0.1c1,0.1,2,0.3,2.8,0.4C264,218.6,265.6,219,267,219.7z"/>
		<g class="st82">
			<path class="st50" d="M244.2,221.5c-0.8,0-1.4-0.6-1.4-1.4c0-0.8,0.6-1.4,1.4-1.4c0.8,0,1.4,0.6,1.4,1.4c0,0,0,0,0,0
				C245.6,220.9,244.9,221.5,244.2,221.5z M244.2,219.3c-0.5,0-0.9,0.4-0.9,0.9s0.4,0.9,0.9,0.9c0.5,0,0.9-0.4,0.9-0.9c0,0,0,0,0,0
				C245.1,219.7,244.7,219.2,244.2,219.3C244.2,219.2,244.2,219.2,244.2,219.3z"/>
		</g>
		<g class="st82">
			<path class="st50" d="M251,220.3c-0.5,0-0.8-0.4-0.8-0.9s0.4-0.8,0.9-0.8c0.5,0,0.8,0.4,0.8,0.8
				C251.9,219.9,251.5,220.3,251,220.3z M251,218.9c-0.3,0-0.5,0.2-0.5,0.5s0.2,0.5,0.5,0.5s0.5-0.2,0.5-0.5c0,0,0,0,0,0
				C251.5,219.2,251.3,218.9,251,218.9C251,218.9,251,218.9,251,218.9z"/>
			<path class="st83" d="M215.8,291c-1.6,7.6-2.8,13.4-3.3,16.6c-0.2,1-0.5,3.3,0.6,4.2c0.3,0.3,0.7,0.4,1.1,0.4
				c0.6-0.2,0.9-1,1.1-1.3c1.2-3.3,1.6-19.6,1.6-19.6l0,0L215.8,291z"/>
			<path class="st83" d="M216.3,310c0,0-2.6,7-1.5,8.3s2.5,1.4,2.6-1.5C217.3,314.5,217,312.2,216.3,310z"/>
			<path class="st83" d="M212.9,318.2c0,0-2.6,7-1.5,8.3s2.5,1.4,2.6-1.5C213.9,322.7,213.5,320.4,212.9,318.2z"/>
			<path class="st83" d="M191.8,314.1c0,0-2.6,7-1.5,8.3s2.5,1.4,2.6-1.5C192.8,318.6,192.5,316.3,191.8,314.1z"/>
			<path class="st83" d="M191.8,320.8c0,0-2.6,7-1.5,8.3s2.5,1.4,2.6-1.5C192.8,325.3,192.5,323,191.8,320.8z"/>
		</g>
		<g class="st82">
			<path class="st80" d="M262.4,220.1c0,0.5-0.4,0.9-0.9,0.9c-0.5,0-0.9-0.4-0.9-0.9c0-0.5,0.4-0.9,0.9-0.9c0,0,0,0,0,0
				C262,219.3,262.4,219.7,262.4,220.1C262.4,220.1,262.4,220.1,262.4,220.1z"/>
		</g>
	</g>
</g>
<path class="st84" d="M167.8,38.5c0.7,0.4,0.2,0.1-0.3-0.3c-0.5-0.4-1-0.8-1.6-1c-0.9-0.4-1.8-0.8-2.8-1.1c-2.2-0.4-4.5-0.7-6.8-0.7
	c-5.2-0.3-9.9,2-14.4,4.7c-4,2.5-7.5,5.7-10.4,9.4c-1.7,2.2-3,4.7-3.8,7.3c-0.4,1.2-0.7,2.4-0.7,3.6c0.1,1.1,0.3,2.1,0.5,3.2
	c0,1.4,1.1,2.6,2.5,2.6c0.5,0,0.9-0.1,1.3-0.3c0.6-0.3,2-0.4,2.8-0.8c0.8-0.4,1.5-0.8,2.2-1.3c0.4-0.3,3.5-2.7,1.2-1.3
	c1.5-0.8,2.9-1.8,4.2-2.9c1.1-1,2.3-1.9,3.6-2.7c1.6-1,3.1-2.1,4.7-3c3.7-2.3,5.9-2.8,9.6-5.4c2.3-1.7,6.3-2.8,8.1-5.4
	c1.3-0.9,1.6-2.6,0.7-3.9C168.4,38.9,168.1,38.7,167.8,38.5z"/>
<path class="st78" d="M288.8,386c5.6,1.8,11.9,1.6,17.7,1.5c2.9-0.1,5.9-0.3,8.8-0.8c3-0.4,6.4-0.9,9-2.2c1.8-0.9,2.5-3,1.7-4.8
	c-0.5-1.1-1.5-1.8-2.7-2c-2.8-0.4-5.6-0.5-8.4-0.3c-2.9,0-5.8,0.1-8.6,0.4L288.8,386z"/>
<path class="st78" d="M360.5,364.3c-0.1-0.2-0.3-0.4-0.4-0.5c-1-0.7-2.2-1-3.4-0.7c-4.3,0.8-7,3.3-10.3,5.6c-2.5,1.8-5.9,2.6-8.7,4
	c-3.3,1.5-6.5,3.3-7.5,6.6c-0.4,1.2,0,2.6,1,3.4c2.9,2.5,6.9,2.4,10.6,1.6c3.5-0.7,6.9-2,10.1-3.6c5.4-3,11.2-9.6,9-15.6
	C360.7,364.8,360.6,364.6,360.5,364.3z"/>
<path class="st85" d="M357.8,65.8c-5.4-3.3-11.2-5.8-17.3-7.3c-10.8-3-22-4.1-33.1-4.9c-17-1.9-34.1-2.8-51.2-2.8
	c-19.8-0.2-39.6,0.7-59.4,2.7c-16.1,1.6-32.5,3.8-48.2,8.2h-0.1c-0.1,0-0.2,0-0.2,0.1l-0.5,0.2c-5.2,1.5-10.5,3.5-12.9,9
	c-2.1,4.9-2,10.4,0.1,15.3c5,12,19.3,15.2,30.3,16.7c14.1,2,28.6,2,42.9,2.3s28.8,0.1,43.2-0.4c28.8-1,57.6-3.6,86.2-7.9
	c6.3-1,12.6-2.2,18.4-4.8c5.1-2.3,11-6,10.9-12.6C366.9,73.6,362.3,68.8,357.8,65.8z"/>
</svg>
