<?xml version="1.0" encoding="utf-8"?>
<!-- Generator: Adobe Illustrator 25.2.3, SVG Export Plug-In . SVG Version: 6.00 Build 0)  -->
<svg version="1.1" id="Layer_1" xmlns="http://www.w3.org/2000/svg" xmlns:xlink="http://www.w3.org/1999/xlink" x="0px" y="0px"
	 viewBox="0 0 160 160" style="enable-background:new 0 0 160 160;" xml:space="preserve">
<style type="text/css">
	.st0{opacity:0.5;enable-background:new    ;}
	.st1{opacity:0.91;fill:url(#SVGID_1_);enable-background:new    ;}
	.st2{clip-path:url(#SVGID_3_);}
	.st3{fill:url(#SVGID_4_);}
	.st4{opacity:0.36;fill:none;stroke:#FEFFEB;stroke-miterlimit:10;enable-background:new    ;}
	.st5{fill:url(#SVGID_5_);}
	.st6{fill:url(#SVGID_6_);}
	.st7{opacity:0.57;fill:#A8B0B2;enable-background:new    ;}
	.st8{fill:url(#SVGID_7_);}
	.st9{opacity:0.43;}
	.st10{fill:none;stroke:#FEFFEB;stroke-width:0.5;stroke-miterlimit:10;}
	.st11{fill:#426E72;}
	.st12{fill:#264547;}
	.st13{fill:#E5D2C1;}
	.st14{fill:#E8D75D;}
	.st15{fill:#DBDAD9;}
	.st16{fill:#C6B663;}
	.st17{opacity:0.15;fill:#EA3B48;enable-background:new    ;}
	.st18{fill:#CFCEDD;}
	.st19{fill:#DBD9ED;}
	.st20{fill:#EEEEFF;}
	.st21{fill:#FFFFFF;stroke:#DBD9ED;stroke-miterlimit:10;}
	.st22{fill:#A5A5A5;stroke:#767582;stroke-miterlimit:10;}
	.st23{fill:#B6B5C9;}
	.st24{fill:#FFD3CA;stroke:#D17D74;stroke-miterlimit:10;}
	.st25{fill:#EFC3BD;stroke:#D17D74;stroke-miterlimit:10;}
	.st26{fill:#D17D74;}
	.st27{fill:#EF8359;stroke:#323232;stroke-miterlimit:10;}
	.st28{fill:#F9D1C6;stroke:#323232;stroke-width:2;stroke-miterlimit:10;}
	.st29{fill:#224966;stroke:#323232;stroke-miterlimit:10;}
	.st30{fill:#CC6B4E;}
	.st31{opacity:0.15;enable-background:new    ;}
	.st32{opacity:0.18;fill:#6B1808;enable-background:new    ;}
	.st33{fill:#DB9D8E;}
	.st34{fill:#342517;}
	.st35{fill:#F9D1C6;}
	.st36{fill:#323232;}
	.st37{fill:#342516;}
	.st38{fill:#661E1B;}
	.st39{fill:#D26653;}
	.st40{fill:#FFFFFF;}
	.st41{fill:#F9988F;}
	.st42{fill:#F9F8F7;stroke:#7F430D;stroke-width:0.75;stroke-miterlimit:10;}
	.st43{fill:#FDEFEC;}
	.st44{fill:#C1E3EA;}
	.st45{fill:#D4F6FF;}
	.st46{fill:url(#SVGID_8_);}
	.st47{fill:url(#SVGID_9_);}
	.st48{fill:url(#SVGID_10_);}
	.st49{fill:url(#SVGID_11_);}
	.st50{fill:url(#SVGID_12_);}
	.st51{fill:url(#SVGID_13_);}
	.st52{fill:url(#SVGID_14_);}
	.st53{fill:url(#SVGID_15_);}
	.st54{fill:url(#SVGID_16_);}
	.st55{fill:url(#SVGID_17_);}
	.st56{fill:url(#SVGID_18_);}
	.st57{fill:url(#SVGID_19_);}
	.st58{fill:url(#SVGID_20_);}
	.st59{fill:url(#SVGID_21_);}
	.st60{fill:url(#SVGID_22_);}
	.st61{fill:url(#SVGID_23_);}
	.st62{fill:url(#SVGID_24_);}
	.st63{fill:url(#SVGID_25_);}
	.st64{fill:url(#SVGID_26_);}
	.st65{fill:url(#SVGID_27_);}
	.st66{fill:url(#SVGID_28_);}
	.st67{fill:url(#SVGID_29_);}
	.st68{fill:url(#SVGID_30_);}
	.st69{fill:url(#SVGID_31_);}
	.st70{opacity:0.2;fill:url(#SVGID_32_);enable-background:new    ;}
	.st71{opacity:0.5;fill:#4ECECE;enable-background:new    ;}
	.st72{opacity:0.6;fill:#FDFFFF;enable-background:new    ;}
	.st73{opacity:0.6;}
</style>
<circle class="st0" cx="82.5" cy="82.3" r="74.3"/>
<g id="_01-2">
	
		<radialGradient id="SVGID_1_" cx="-239.78" cy="58.35" r="179.33" gradientTransform="matrix(0.48 0 0 -0.48 193.64 106.19)" gradientUnits="userSpaceOnUse">
		<stop  offset="0" style="stop-color:#FFFFFF"/>
		<stop  offset="0.61" style="stop-color:#D3F9FC"/>
		<stop  offset="0.93" style="stop-color:#48E5FF"/>
	</radialGradient>
	<path class="st1" d="M152.2,78.2c0.2,41.1-33,74.6-74.2,74.8c-41.1,0.2-74.6-33-74.8-74.2C3.1,37.7,36.3,4.2,77.4,4.1
		c0.1,0,0.2,0,0.3,0C118.8,4,152.1,37.2,152.2,78.2C152.2,78.2,152.2,78.2,152.2,78.2z"/>
	<g>
		<defs>
			<ellipse id="SVGID_2_" cx="77.9" cy="77.4" rx="74.3" ry="74"/>
		</defs>
		<clipPath id="SVGID_3_">
			<use xlink:href="#SVGID_2_"  style="overflow:visible;"/>
		</clipPath>
		<g class="st2">
			
				<linearGradient id="SVGID_4_" gradientUnits="userSpaceOnUse" x1="225.5378" y1="321.3573" x2="101.3678" y2="-41.0327" gradientTransform="matrix(1 0 0 -1 0 162)">
				<stop  offset="0" style="stop-color:#72EDED"/>
				<stop  offset="0.23" style="stop-color:#6FE9EA"/>
				<stop  offset="0.45" style="stop-color:#67DDE3"/>
				<stop  offset="0.68" style="stop-color:#58C9D6"/>
				<stop  offset="0.9" style="stop-color:#45ADC4"/>
				<stop  offset="0.99" style="stop-color:#3CA1BC"/>
			</linearGradient>
			<path class="st3" d="M-9.8-50.1l1,215.3l320.4,2V-49.1L-9.8-50.1z"/>
			<line class="st4" x1="-8.3" y1="155.9" x2="330.3" y2="156.4"/>
			
				<linearGradient id="SVGID_5_" gradientUnits="userSpaceOnUse" x1="321.2198" y1="229.3141" x2="-26.6488" y2="141.8345" gradientTransform="matrix(1 0 0 -1 0 162)">
				<stop  offset="2.000000e-02" style="stop-color:#72EDED"/>
				<stop  offset="0.26" style="stop-color:#6FE9EC"/>
				<stop  offset="0.5" style="stop-color:#67DDE7"/>
				<stop  offset="0.74" style="stop-color:#59C9E0"/>
				<stop  offset="0.98" style="stop-color:#45ADD6"/>
				<stop  offset="0.99" style="stop-color:#45ADD6"/>
			</linearGradient>
			<polyline class="st5" points="325.4,-50.9 -10.8,-50.7 -10.8,83.1 322.3,-50.7 			"/>
			
				<linearGradient id="SVGID_6_" gradientUnits="userSpaceOnUse" x1="303.3801" y1="32.9197" x2="54.1401" y2="-29.7604" gradientTransform="matrix(1 0 0 -1 0 162)">
				<stop  offset="2.000000e-02" style="stop-color:#E9EAE5"/>
				<stop  offset="0.12" style="stop-color:#E0E4E0"/>
				<stop  offset="0.44" style="stop-color:#C7D4D1"/>
				<stop  offset="0.74" style="stop-color:#B8C9C8"/>
				<stop  offset="0.98" style="stop-color:#B3C6C5"/>
			</linearGradient>
			<path class="st6" d="M314.9,158.1l-323.8-1.7l-139.9,29.3l463.7-2.4L314.9,158.1z"/>
			<path class="st7" d="M-11.4,156.5c0.2,1.1-0.1,2.3-1,3.1c-0.3,0.2-0.5,0.3-0.9,0.5c17.5,0.6,39.5,1.4,48.4,1.2
				c4.9,10.9,25.8,11.3,37.9,0.1l110.2,2.4l-2.1,4.4c-0.3,0.6,0,1.3,0.6,1.5c0.2,0.1,0.3,0.1,0.5,0.1l101.2,0.9
				c0.9,0,1.8-0.5,2.1-1.4l4-11.2L-11.4,156.5z"/>
			
				<linearGradient id="SVGID_7_" gradientUnits="userSpaceOnUse" x1="-138.18" y1="-9.2607" x2="325.56" y2="-9.2607" gradientTransform="matrix(1 0 0 -1 0 162)">
				<stop  offset="0" style="stop-color:#6F929B"/>
				<stop  offset="0.14" style="stop-color:#7D96A5"/>
				<stop  offset="0.48" style="stop-color:#999EB9"/>
				<stop  offset="0.77" style="stop-color:#ABA2C5"/>
				<stop  offset="0.99" style="stop-color:#B1A4C9"/>
			</linearGradient>
			<path class="st8" d="M-8.3,155.9c32.8,8.5,66,15.2,99.5,20.2c74.2,11,149.5,13.3,224.3,7l-463.7,2.4L-8.3,155.9z"/>
			<g class="st9">
				<polyline class="st10" points="-150.2,8.1 -13.3,22.6 355.3,20.8 				"/>
				<polyline class="st10" points="-150.5,50.5 -9.7,54.1 338.4,54.1 				"/>
				<polyline class="st10" points="-149.2,91.8 -149.2,97 -11.6,86.7 348,86.4 				"/>
				<polyline class="st10" points="-148.3,141.9 -7.5,121.3 330.3,121.3 				"/>
				<polyline class="st10" points="32.7,-50.1 32.7,154.4 -82.1,202.2 				"/>
				<polyline class="st10" points="85.1,-50.1 83,156 12.4,209.2 				"/>
				<polyline class="st10" points="136.9,-50.1 136,156.9 101.4,227.5 				"/>
			</g>
			<ellipse class="st11" cx="120.3" cy="33.3" rx="6.1" ry="5.9"/>
			<ellipse class="st12" cx="120.3" cy="33.3" rx="4.2" ry="4.1"/>
			<rect x="119.4" y="31" class="st13" width="64.1" height="4.4"/>
			<path class="st14" d="M128.4,31.3v33.1c-0.5,5.5-1,6.4,7.2,6.2s32.2,0,32.2,0s5.6,2.9,5.5-6.3c-0.1-9-2.9-30.7-1.3-33.1
				c0.4-2,1.3,0,1.3,0l-1-2h-43.2C128.7,29.8,128.4,30.6,128.4,31.3z"/>
			<path class="st15" d="M128.4,63c0,0-3.7,9.7,6.5,7.6c10.2-0.1,32.4,0,32.4,0s7,2.8,6-7.6c-2.6,0-11.1,1.6-13.2,1.1
				s-11.3-0.9-13.3,0.2c-2,1.1-8.9-0.2-9.8-0.7S130.1,65.4,128.4,63z"/>
			<path class="st16" d="M146,29.3c0,0-18.7,6.1-17.7,15.6V31.3l0.7-2H146z"/>
			<ellipse class="st17" cx="133.9" cy="45" rx="3.1" ry="2.8"/>
			<ellipse class="st17" cx="145" cy="51.4" rx="2.7" ry="2.5"/>
			<ellipse class="st17" cx="162.2" cy="47.5" rx="2.7" ry="2.5"/>
			<ellipse class="st17" cx="151.5" cy="42.3" rx="2.7" ry="2.5"/>
			<ellipse class="st17" cx="144.4" cy="34.5" rx="2.7" ry="2.5"/>
			<ellipse class="st17" cx="151.5" cy="58.8" rx="2.7" ry="2.5"/>
			<ellipse class="st17" cx="134.5" cy="58.8" rx="2.7" ry="2.5"/>
			<path class="st18" d="M115.4,171.1H93.2v-43.6c0,0,7.5,0.2,10,0.2c3.4,0,12-0.5,12-0.5L115.4,171.1z"/>
			<path class="st19" d="M127.6,100H54.3c0,0.3,0,0.5,0,0.8c-1.4,21.4,29.1,30.7,66.7,25.5c2.3-0.3,4.6-0.9,6.7-1.9L127.6,100z"/>
			<path class="st19" d="M76.6,100h73.3c0,0.3,0,0.5,0.1,0.8c1.4,21.4-29.1,30.7-66.7,25.5c-2.3-0.3-4.6-0.9-6.7-1.9V100z"/>
			<path class="st20" d="M108.9,80.7l4.2,0.3l-0.6,7.4l-4.2-0.3c-2.1,0-3.9-1.8-3.9-3.9c0,0,0-0.1,0-0.1
				C104.7,81.9,106.7,80.4,108.9,80.7z"/>
			<path class="st20" d="M108.6,84.4c-0.1,2.1,1.6,3.9,3.8,4c0,0,0.1,0,0.1,0c2.2,0.3,4.2-1.2,4.5-3.4c0.1-2.1-1.6-3.9-3.8-4
				c0,0-0.1,0-0.1,0C110.9,80.7,108.9,82.2,108.6,84.4z"/>
			<path class="st20" d="M113.7,90.9c1.1,0.1,2-0.7,2.1-1.8c0-0.5,0.4-24.7,0.4-25.3c0.4-4.6-1.9-8.9-5.8-11.2
				c-3.7-2.1-8.1-2.4-12-0.8c-3.2,1.4-5.4,4.5-5.6,8c0,1.1,0.9,2,2,2c1.1,0.1,2.1-0.6,2.3-1.7c0,0,0-0.1,0-0.1c0-2.1,1.3-4,3.2-4.8
				c2.5-1,5.4-0.8,7.8,0.6c2.7,1.6,4.3,4.7,3.9,7.8c0,0.6-0.4,24.8-0.4,25.3c0,1.1,0.9,2,2,2L113.7,90.9z"/>
			<path class="st21" d="M108.9,80.7l4.2,0.3l-0.6,7.4l-4.2-0.3c-2.1,0-3.9-1.8-3.9-3.9c0,0,0-0.1,0-0.1
				C104.7,81.9,106.7,80.4,108.9,80.7z"/>
			<path class="st19" d="M108.6,84.4c-0.1,2.1,1.6,3.9,3.8,4c0,0,0.1,0,0.1,0c2.2,0.3,4.2-1.2,4.5-3.4c0.1-2.1-1.6-3.9-3.8-4
				c0,0-0.1,0-0.1,0C110.9,80.7,108.9,82.2,108.6,84.4z"/>
			<path class="st22" d="M113.7,90.9c1.1,0.1,2-0.7,2.1-1.8c0-0.5,0.4-24.7,0.4-25.3c0.4-4.6-1.9-8.9-5.8-11.2
				c-3.7-2.1-8.1-2.4-12-0.8c-3.2,1.4-5.4,4.5-5.6,8c0,1.1,0.9,2,2,2c1.1,0.1,2.1-0.6,2.3-1.7c0,0,0-0.1,0-0.1c0-2.1,1.3-4,3.2-4.8
				c2.5-1,5.4-0.8,7.8,0.6c2.7,1.6,4.3,4.7,3.9,7.8c0,0.6-0.4,24.8-0.4,25.3c0,1.1,0.9,2,2,2L113.7,90.9z"/>
			<ellipse class="st20" cx="102.1" cy="99.5" rx="47.9" ry="11.4"/>
			<path class="st23" d="M59.5,99.2c0,4.8,18.7,8.7,41.8,8.7s41.8-3.9,41.8-8.7s-18.7-8.7-41.8-8.7S59.5,94.4,59.5,99.2z"/>
			<path class="st24" d="M78.5,99.6l-11.7-6.7l4.6-6.7c0,0,10.3,9,10.5,9.2L78.5,99.6z"/>
			<path class="st25" d="M77.4,101.4c0.4,1.6,0.9,3.1,1.5,4.6c0.2,0.2,2.7,1.3,2.2-2.1L81,103c0,0,5.4,3.9,7.7,3.6
				c1.2-0.1-0.5-1.8-0.5-1.8s1,1,0.8-2.2S85.1,97,85.1,97S77.2,96.5,77.4,101.4z"/>
			<path class="st26" d="M88.9,105.8c-0.5-0.4-1-0.7-1.5-1c-0.5-0.3-1-0.7-1.5-1c-1-0.7-1.9-1.5-2.7-2.4c1.2,0.3,2.3,0.9,3.3,1.6
				c0.5,0.4,1,0.8,1.4,1.2C88.4,104.7,88.7,105.2,88.9,105.8z"/>
			<path class="st26" d="M83.4,104.6c-0.8,0-1.6-0.3-2.2-0.8c-0.6-0.5-1.1-1.1-1.4-1.8c0.7,0.2,1.4,0.5,2,1
				C82.4,103.5,83,104,83.4,104.6z"/>
			<path class="st26" d="M88.9,104c-0.6-0.9-1.4-1.8-2.2-2.5c-0.9-0.8-1.7-1.6-2.5-2.4c0.6,0.1,1.2,0.3,1.7,0.7
				c0.5,0.3,1,0.7,1.4,1.1c0.5,0.4,0.8,0.9,1.1,1.4C88.8,102.7,89,103.4,88.9,104z"/>
			<path class="st27" d="M69.4,97.9c-3.4,0.9-5.5-1-8.2-3.8c-0.3-6.8,4.6-13.3,5-12.9c5.1,4.1,7.8,7.5,9.3,8.7
				C75.1,91.5,71.3,96.3,69.4,97.9z"/>
			<path class="st28" d="M51.7,167.6c0,0.3,10.4-0.3,10.4-0.6c0.1-2.9-0.2-8.8-0.2-10.5L50.8,157C51.2,159.9,51.5,165.6,51.7,167.6z
				"/>
			<path class="st28" d="M31.6,168.9c0,0.3,10.4,0.6,10.4,0.3c0.3-2.9,0.5-8.8,0.7-10.4l-11.1-0.4C31.8,161.2,31.6,166.9,31.6,168.9
				z"/>
			<path class="st29" d="M63,158.5c-4.3,0.5-8.6,0.8-12.9,0.6c-0.3-5.1-1.5-26.1-2.4-33.1c-0.3-2.6-2.4-2.2-2.5,0.1
				c0,1.1-1.3,24.5-1.5,33c-4.3,0.6-8.7,0.6-13,0.1c0,0-1.9-46.9-1.1-53.8c6.2-0.3,27.1,0.9,33.7,2C64,114.6,63.3,148.2,63,158.5z"
				/>
			<path class="st27" d="M66,90.1c-1,9.7-2.2,21.6-2.1,32.6c-10.3,3.3-25.4,4.9-35.4-2.7c0,0,0-38.9,11.2-44.1
				c13.4-1.8,20.6,2,26.8,5.4"/>
			<path class="st30" d="M62.9,80.7c0.1-0.3,0.2-0.6,0.1-0.9c-4-1.9-11.5-3.4-16.6-4c-0.1,0.2-0.2,0.4-0.3,0.6
				c-0.9,3.4,2.1,7.2,6.7,8.4S62,84.2,62.9,80.7z"/>
			<path class="st31" d="M76.5,96.7c-6.4-2-12.7-4.6-18.7-7.7c-5.9-3.3-11.6-7-16.9-11.2c-5.7,2.2-8.1,10.9-2.5,16.7
				c3.1,3.1,6.5,6,10,8.6c0.8-1,2.4-2.5,3.5-3.8c4.7,2.6,17.4,3.8,25.4,4.1C77.8,103.3,77.2,96.8,76.5,96.7z"/>
			<path class="st24" d="M77.3,103.3c0.5,0-0.1-6.5-0.8-6.7C70.2,95,64.1,93,58.1,90.6c-1.1-0.5-5.9-4.8-6.7-4.7
				c-2.7,2-5.3,4.1-7.8,6.4c2.8,2.7,6,5,9.5,6.6C56.2,100.1,69.3,103.1,77.3,103.3z"/>
			<path class="st24" d="M73.1,95.7l3.2,0.7c1-1.4,2.1-2.6,3.4-3.6c1.9-1.4,2.6-1,4.1-2.2s0.4,1.4,0.3,1.8c1.1-0.2,2.2-0.2,3.3-0.1
				c0.9,0.3,1.7,0.2,2.7,4.6c0,0,1.3,2.6-0.1,2.6c0,0,0,0.1,0,0.1c-0.1,0.7,1,2.5-1.3,2.1c0.7,0.1-4.6-1.9-4.6-1.9s-1.7,2-7.2,4
				l-7.8-1.2"/>
			<path class="st26" d="M90,99.6c-0.4-0.3-0.8-0.6-1.3-0.8c-0.4-0.2-0.9-0.4-1.3-0.6c-1-0.4-1.9-0.8-2.7-1.4c1.1-0.1,2.1,0,3.1,0.5
				c0.5,0.2,1,0.5,1.4,0.8C89.6,98.5,89.9,99,90,99.6z"/>
			<path class="st26" d="M90,96.9c-0.4-0.3-0.8-0.6-1.3-0.8c-0.4-0.2-0.9-0.4-1.4-0.6c-1-0.4-1.9-0.8-2.7-1.4c1.1-0.1,2.1,0,3.1,0.5
				c0.5,0.2,1,0.5,1.4,0.8C89.6,95.9,89.9,96.4,90,96.9z"/>
			<path class="st27" d="M45.3,80.8c5.6,4.5,10.9,7.9,11.8,8.6c-1.7,3-6.3,8.9-8.9,12c-3.3-2.3-6.5-4.8-9.6-7.5
				c-8-7.2-4.5-15.7,1.1-17.9"/>
			<path class="st24" d="M62.7,70.6l-2.4,10.2c-0.5,2.2-3.7,3.3-7.2,2.5s-5.8-3.2-5.3-5.4l2.4-10.2L62.7,70.6z"/>
			<path class="st32" d="M62.3,71.9c-4.1-0.8-8.2-1.4-12.4-1.7c-0.1,0.2-0.2,0.4-0.2,0.6c-0.8,3.7,2.6,7.5,7.5,8.5
				c1.1,0.2,2.2,0.3,3.3,0.2L62.3,71.9z"/>
			<path class="st24" d="M77.8,65.3c-2,2.6-5.3,3.3-7.5,1.7s-1-3,1.1-5.6s2-2.3,4.7-2.9C81.8,57,79.8,62.7,77.8,65.3z"/>
			<path class="st33" d="M76.7,59.9c0.4-0.1,0.8,0,1.1,0.3c0.3,0.4,0.4,1,0.2,1.5c-0.6,1.7-1.7,3.3-3.3,4.3
				c-0.2,0.2-0.5,0.3-0.8,0.4c-0.3,0.1-0.6,0-0.8-0.2c-0.2-0.3-0.2-0.6,0-0.9c0.5-0.7,1.2-1.2,2-1.6c0.2-0.1,0.4-0.3,0.5-0.5
				c0.1-0.2,0.1-0.4,0-0.6c-0.1-0.1-0.3-0.3-0.4-0.3c-0.4-0.1-0.7-0.2-1.1-0.2c0-0.6,0.5-1,0.9-1.3C75.5,60.3,76.1,60,76.7,59.9z"/>
			<path class="st24" d="M75.4,45.5c-8.5-7.2,5.6-11.9-7.2-14.1c-12.4-2.1-20.7,2.8-23,13.4c-1.1,4.9-0.4,10.4-0.5,10.6
				c-3.6,12.3,5.7,20.4,13.2,21.7c3.3,0.6,6.9-0.4,10.3-2.1c4-2.1,7.6-5.8,9.2-14.6C77.4,60.2,82.5,51.5,75.4,45.5z"/>
			<path class="st33" d="M53.8,41.1c0,0,2,4.1,15.8,6.5v-1.9c0,0,0.4,2.7,8.2,5.5l-0.6,10l6-20l-28.8-7.5l-5.3,3.7L48.3,43
				c0,0-4.8,10.4-5,14.2l0.6-0.5c2.2-2,3.9-4.5,5-7.2l0,0C48.9,49.5,51.5,51.1,53.8,41.1z"/>
			<path class="st34" d="M53.2,38.2c0,0-2.2,4,16.2,8.3c0,0-0.4-0.3-1.3-4.9c1.1,5.6,5.9,6.6,9.2,8.4l2.5-5.1l-2.6,16.3
				c0,0,2.6-4.4,3.5-6.3c0,0,2.8-5.3,2.5-9.1c0.3,1.2,0.4,2.4,0.5,3.7c0,0,4.8-8.2-5.5-17.5c1.8,0,3.6,0.6,5,1.7c0,0-4.2-6.9-15-9.3
				c-5.7-1.3-10-2.2-13.6,2.8c0,0-5.8-6-10.6,1.9c0,0,5.3-1.6,6.3,0.6c0,0-5.8-0.3-8.8,7.5c-2.8,7.4-1.8,13.3,1.2,19.7
				c3.3-2.7,5.3-6.6,5.6-10.8l1.1,2.9C49.4,49,52.8,47.5,53.2,38.2z"/>
			<path class="st24" d="M44.1,62.1c-3.1,1.9-5.7-0.6-6.3-3.7s0-9,4-5.7c1.5,1,2.4,2.6,2.6,4.3"/>
			<path class="st33" d="M40.8,53.8c-0.3-0.2-0.7-0.2-1-0.1c-0.4,0.3-0.7,0.8-0.7,1.3c-0.2,1.7,0.1,3.5,0.9,5
				c0.1,0.3,0.3,0.5,0.5,0.7c0.2,0.2,0.5,0.2,0.7,0.1c0.3-0.2,0.4-0.5,0.4-0.9c-0.1-0.8-0.4-1.5-0.9-2.1c-0.1-0.2-0.2-0.4-0.2-0.6
				c0-0.2,0-0.5,0.2-0.6c0.1-0.1,0.3-0.1,0.5-0.1c0.3,0,0.6,0.1,1,0.2c0.2-0.5,0.1-1.1-0.2-1.5C41.6,54.5,41.3,54.1,40.8,53.8z"/>
			<path class="st35" d="M62.5,63.3c2.1,2.5,4.5,0.8,4.7-0.2c0.1-0.8-0.2-1.7-0.8-2.3c-1.1-1.2-0.2-4.2-0.2-4.2"/>
			<path class="st36" d="M62.5,63.2c0.3,0.3,0.7,0.6,1.1,0.8c0.4,0.2,0.8,0.3,1.3,0.2c0.4,0,0.8-0.2,1.2-0.4
				c0.3-0.2,0.6-0.5,0.6-0.9l0,0c0-0.5-0.1-0.9-0.4-1.3c-0.1-0.2-0.3-0.4-0.4-0.6c-0.2-0.3-0.4-0.6-0.4-1c-0.1-0.6-0.1-1.2,0-1.8
				c0.1-0.6,0.3-1.1,0.6-1.7h0.1c-0.1,1.1-0.1,2.2,0.2,3.2c0.1,0.2,0.2,0.4,0.3,0.6c0.2,0.2,0.4,0.5,0.5,0.8c0.3,0.6,0.4,1.3,0.3,2
				l0,0c-0.2,0.6-0.6,1.1-1.1,1.3c-0.5,0.3-1,0.4-1.5,0.4c-0.5,0-1-0.2-1.5-0.5c-0.4-0.3-0.8-0.6-1.1-1L62.5,63.2z"/>
			<path class="st37" d="M61.5,48.7c0,0,0.2-1.1-1.5-1.3s-4.2,1.3-4.5,2.4C55.5,49.8,59.2,47.7,61.5,48.7z"/>
			<path class="st37" d="M68,50.4c0.4-0.6,1.1-0.9,1.8-0.7c1.3,0.3,2.7,1.9,2.7,2.8C72.4,52.5,69.9,50.2,68,50.4z"/>
			<path class="st38" d="M55.3,65.1c0.4,1.5,1.7,6.1,5,7.4c2,0.8,3.4-0.7,4.7-1.7c0.3-0.3,0.6-0.5,1-0.8l0,0
				c0.2-0.1,0.3-0.3,0.5-0.4c0.4-0.4,0.9-0.7,1.3-1l0,0l0.3-0.2l0.1-0.1c0,0-3.5,1-12-3.1l-0.7-0.4l-0.3-0.2l-0.2-0.1
				C55.1,64.5,55.2,64.7,55.3,65.1z"/>
			<path class="st39" d="M63.8,71.3c-0.4-0.6-1.1-1-1.9-1c-1.1-0.5-2.3-0.6-3.4-0.3C58.5,70,60.9,72.6,63.8,71.3z"/>
			<path class="st40" d="M55.3,64.6c3.2,4.6,6.9,5.6,9.2,5.4c1-0.1,1.3-1.6,2.8-1.3c0.3-0.1,0.6-0.2,0.9-0.4l0.1-0.1
				c0,0-3.5,1-12-3.1l-0.7-0.4L55.3,64.6z"/>
			<path class="st41" d="M55.3,65.1c0.4,1.5,1.7,6.1,5,7.4c2,0.8,3.4-0.7,4.7-1.7C61,72.8,58.3,71.4,55.3,65.1z"/>
			<path class="st41" d="M55.6,64.8c6,4.9,10.5,4.3,12.2,3.8l0,0l0.3-0.2l0.1-0.1c0,0-3.5,1-12-3.1L55.6,64.8z"/>
			<path class="st39" d="M55.7,64.1c0,0-1.1-0.1-0.9,1.2C54.8,65.2,54.4,63.5,55.7,64.1z"/>
			<path class="st39" d="M68.2,67.9c0,0,0.6,0.3,0,1.1C68.1,69,69.1,68.3,68.2,67.9z"/>
			
				<ellipse transform="matrix(0.1233 -0.9924 0.9924 0.1233 -3.4168 106.327)" class="st42" cx="58.5" cy="55.1" rx="3.5" ry="3.1"/>
			<ellipse transform="matrix(0.1255 -0.9921 0.9921 0.1255 -4.6499 107.6258)" class="st37" cx="58.7" cy="56.5" rx="2.1" ry="2"/>
			<circle class="st43" cx="57.6" cy="55.3" r="0.4"/>
			
				<ellipse transform="matrix(0.1208 -0.9927 0.9927 0.1208 4.6103 118.7859)" class="st42" cx="69.4" cy="56.8" rx="3.5" ry="2.9"/>
			
				<ellipse transform="matrix(0.1217 -0.9926 0.9926 0.1217 3.3672 120.1126)" class="st37" cx="69.6" cy="58.2" rx="2.1" ry="1.8"/>
			
				<ellipse transform="matrix(0.1246 -0.9922 0.9922 0.1246 3.3851 117.9473)" class="st43" cx="68.5" cy="57.1" rx="0.4" ry="0.3"/>
			<path class="st44" d="M87.8,97.4c1.1-0.4,2.4,0.1,2.8,1.2c0.3,0.7,0.2,1.4-0.2,2c0.3,0.2,0.5,0.4,0.6,0.8c0.4,0.9-0.1,2-1,2.4
				s-2-0.1-2.4-1l0,0c-0.1-0.2-0.1-0.4-0.1-0.6l-0.1,0.1c-1,0.4-2.2-0.1-2.7-1.1c-0.4-1,0-2.2,1.1-2.6c0,0,0,0,0.1,0
				c0.3-0.1,0.7-0.2,1-0.1C87,97.9,87.4,97.6,87.8,97.4z"/>
			<path class="st45" d="M88,97.9c1-0.4,2.2,0.1,2.6,1.1c0.3,0.6,0.2,1.4-0.2,1.9c0.2,0.2,0.4,0.4,0.6,0.7c0.3,0.9-0.2,1.9-1.1,2.1
				c-0.8,0.3-1.7-0.1-2-0.9c-0.1-0.2-0.1-0.4-0.1-0.6l-0.1,0.1c-1,0.4-2.1-0.1-2.5-1c-0.4-1,0.1-2.1,1-2.5c0.3-0.1,0.6-0.2,0.9-0.1
				C87.2,98.4,87.6,98.1,88,97.9z"/>
			
				<linearGradient id="SVGID_8_" gradientUnits="userSpaceOnUse" x1="2139.5872" y1="-1288.4091" x2="2141.3972" y2="-1288.4091" gradientTransform="matrix(-0.38 -0.93 0.93 -0.38 2096.2898 1589.22)">
				<stop  offset="1.000000e-02" style="stop-color:#D4F6FF"/>
				<stop  offset="1" style="stop-color:#FFFFFF"/>
			</linearGradient>
			<path class="st46" d="M88.8,98.3c-0.5,0.2-0.7,0.7-0.5,1.2c0.2,0.5,0.7,0.7,1.2,0.5c0.5-0.2,0.7-0.7,0.5-1.2c0,0,0,0,0,0
				C89.8,98.3,89.3,98.1,88.8,98.3C88.8,98.3,88.8,98.3,88.8,98.3z"/>
			
				<linearGradient id="SVGID_9_" gradientUnits="userSpaceOnUse" x1="2139.5872" y1="-1291.7893" x2="2141.187" y2="-1291.7893" gradientTransform="matrix(-0.38 -0.93 0.93 -0.38 2096.2898 1589.22)">
				<stop  offset="1.000000e-02" style="stop-color:#D4F6FF"/>
				<stop  offset="1" style="stop-color:#FFFFFF"/>
			</linearGradient>
			<path class="st47" d="M85.8,99.7c-0.4,0.2-0.6,0.6-0.4,1c0.2,0.4,0.6,0.6,1,0.4c0.4-0.2,0.6-0.6,0.4-1
				C86.6,99.7,86.1,99.5,85.8,99.7L85.8,99.7z"/>
			
				<linearGradient id="SVGID_10_" gradientUnits="userSpaceOnUse" x1="2136.3271" y1="-1289.4738" x2="2138.3071" y2="-1289.4738" gradientTransform="matrix(-0.38 -0.93 0.93 -0.38 2096.2898 1589.22)">
				<stop  offset="1.000000e-02" style="stop-color:#D4F6FF"/>
				<stop  offset="1" style="stop-color:#FFFFFF"/>
			</linearGradient>
			<path class="st48" d="M89.1,101.5c-0.5,0.1-0.9,0.7-0.7,1.2c0.1,0.5,0.7,0.9,1.2,0.7c0.1,0,0.2-0.1,0.3-0.1
				c0.5-0.2,0.7-0.8,0.5-1.3C90.1,101.5,89.6,101.3,89.1,101.5z"/>
			<path class="st44" d="M84.6,95.3c0.8-0.4,1.8,0,2.2,0.8c0.2,0.5,0.2,1.2-0.2,1.6c0.2,0.1,0.4,0.3,0.4,0.6c0.2,0.7-0.2,1.5-1,1.7
				c-0.6,0.2-1.3-0.1-1.6-0.7c-0.1-0.1-0.1-0.3-0.1-0.4h-0.1c-0.8,0.3-1.7-0.1-2-0.8s0.1-1.7,0.8-2l0,0c0.2-0.1,0.5-0.1,0.8-0.1
				C84.1,95.7,84.3,95.5,84.6,95.3z"/>
			<path class="st45" d="M84.7,95.7c0.8-0.3,1.7,0,2,0.8c0.2,0.5,0.1,1-0.2,1.4c0.2,0.1,0.3,0.3,0.4,0.5c0.3,0.7,0,1.4-0.7,1.7
				s-1.4,0-1.7-0.7c-0.1-0.1-0.1-0.3-0.1-0.4h-0.1c-0.7,0.3-1.6,0-1.9-0.7c-0.3-0.7,0-1.6,0.7-1.9c0,0,0.1,0,0.1-0.1
				c0.2-0.1,0.5-0.1,0.7-0.1C84.2,96.1,84.4,95.8,84.7,95.7z"/>
			
				<linearGradient id="SVGID_11_" gradientUnits="userSpaceOnUse" x1="2143.3972" y1="-1290.7295" x2="2144.7771" y2="-1290.7295" gradientTransform="matrix(-0.38 -0.93 0.93 -0.38 2096.2898 1589.22)">
				<stop  offset="1.000000e-02" style="stop-color:#D4F6FF"/>
				<stop  offset="1" style="stop-color:#FFFFFF"/>
			</linearGradient>
			<path class="st49" d="M85.4,96c-0.4,0.1-0.5,0.5-0.4,0.9c0,0,0,0,0,0c0.1,0.3,0.5,0.5,0.9,0.4c0.4-0.1,0.5-0.5,0.4-0.9
				c0,0,0,0,0,0C86.1,96,85.7,95.9,85.4,96z"/>
			
				<linearGradient id="SVGID_12_" gradientUnits="userSpaceOnUse" x1="2143.3972" y1="-1293.3414" x2="2144.6172" y2="-1293.3414" gradientTransform="matrix(-0.38 -0.93 0.93 -0.38 2096.2898 1589.22)">
				<stop  offset="1.000000e-02" style="stop-color:#D4F6FF"/>
				<stop  offset="1" style="stop-color:#FFFFFF"/>
			</linearGradient>
			<path class="st50" d="M83,97.1c-0.3,0.1-0.5,0.5-0.3,0.8c0,0,0,0,0,0c0.1,0.3,0.5,0.5,0.8,0.3c0,0,0,0,0,0
				c0.3-0.1,0.5-0.5,0.3-0.8S83.3,97,83,97.1z"/>
			
				<linearGradient id="SVGID_13_" gradientUnits="userSpaceOnUse" x1="2140.9072" y1="-1291.4662" x2="2142.417" y2="-1291.4662" gradientTransform="matrix(-0.38 -0.93 0.93 -0.38 2096.2898 1589.22)">
				<stop  offset="1.000000e-02" style="stop-color:#D4F6FF"/>
				<stop  offset="1" style="stop-color:#FFFFFF"/>
			</linearGradient>
			<path class="st51" d="M85.6,98.5c-0.4,0.2-0.6,0.6-0.4,1s0.6,0.6,1,0.4c0.4-0.2,0.5-0.6,0.4-1C86.4,98.5,86,98.3,85.6,98.5
				C85.6,98.5,85.6,98.5,85.6,98.5z"/>
			<path class="st44" d="M82.2,95.9c-0.2-1-1.2-1.7-2.2-1.5c-0.6,0.1-1.2,0.6-1.4,1.2c-0.8-0.3-1.7,0.2-2,1c-0.3,0.8,0.2,1.7,1,2
				c0.3,0.1,0.5,0.1,0.8,0.1c0.2,0,0.3-0.1,0.5-0.2c0,0,0,0.1,0,0.1c0.2,1,1.2,1.6,2.2,1.3c0.9-0.2,1.5-1.1,1.4-2
				c-0.1-0.3-0.2-0.6-0.4-0.8C82.2,96.7,82.3,96.3,82.2,95.9z"/>
			<path class="st45" d="M81.8,96.1c-0.2-1-1.1-1.6-2.1-1.4c-0.6,0.1-1.1,0.5-1.3,1.1c-0.2-0.1-0.5-0.1-0.8-0.1
				c-0.8,0.2-1.4,1-1.2,1.8c0.2,0.8,1,1.4,1.8,1.2c0.2,0,0.3-0.1,0.5-0.2c0,0,0,0.1,0,0.1c0.2,0.9,1.1,1.5,2,1.3
				c0.9-0.2,1.5-1.1,1.4-2c-0.1-0.3-0.2-0.5-0.3-0.7C81.8,96.8,81.9,96.4,81.8,96.1z"/>
			
				<linearGradient id="SVGID_14_" gradientUnits="userSpaceOnUse" x1="-68.9758" y1="511.2527" x2="-67.3658" y2="511.2527" gradientTransform="matrix(0.98 -0.19 -0.19 -0.98 244.01 583.88)">
				<stop  offset="1.000000e-02" style="stop-color:#D4F6FF"/>
				<stop  offset="1" style="stop-color:#FFFFFF"/>
			</linearGradient>
			<path class="st52" d="M81.1,95.6c0.1,0.4-0.2,0.8-0.6,0.9c0,0,0,0,0,0c-0.4,0.1-0.9-0.1-1-0.6c0,0,0,0,0-0.1
				c-0.1-0.4,0.2-0.8,0.6-0.9C80.5,94.9,81,95.1,81.1,95.6C81.1,95.6,81.1,95.6,81.1,95.6z"/>
			
				<linearGradient id="SVGID_15_" gradientUnits="userSpaceOnUse" x1="-68.9758" y1="508.2552" x2="-67.5557" y2="508.2552" gradientTransform="matrix(0.98 -0.19 -0.19 -0.98 244.01 583.88)">
				<stop  offset="1.000000e-02" style="stop-color:#D4F6FF"/>
				<stop  offset="1" style="stop-color:#FFFFFF"/>
			</linearGradient>
			<path class="st53" d="M81.5,98.6c0.1,0.4-0.2,0.8-0.6,0.8s-0.8-0.2-0.8-0.6c-0.1-0.4,0.2-0.8,0.6-0.8
				C81,97.9,81.4,98.2,81.5,98.6z"/>
			
				<linearGradient id="SVGID_16_" gradientUnits="userSpaceOnUse" x1="-71.8658" y1="510.3543" x2="-70.1158" y2="510.3543" gradientTransform="matrix(0.98 -0.19 -0.19 -0.98 244.01 583.88)">
				<stop  offset="1.000000e-02" style="stop-color:#D4F6FF"/>
				<stop  offset="1" style="stop-color:#FFFFFF"/>
			</linearGradient>
			<path class="st54" d="M78.6,97c0.1,0.5-0.2,0.9-0.7,1c-0.5,0.1-0.9-0.2-1-0.7c-0.1-0.5,0.2-0.9,0.7-1c0,0,0,0,0,0
				C78,96.2,78.5,96.5,78.6,97z"/>
			<path class="st44" d="M85.3,97.3c-0.2-0.8-0.9-1.3-1.7-1.1c-0.5,0.1-0.9,0.4-1.1,0.9c-0.2-0.1-0.4-0.1-0.7-0.1
				c-0.7,0.2-1.1,0.8-0.9,1.5c0.2,0.6,0.7,1,1.4,0.9c0.1,0,0.3-0.1,0.4-0.1c0,0,0,0.1,0,0.1c0.1,0.8,0.9,1.2,1.6,1.1
				c0.8-0.1,1.2-0.9,1.1-1.6c0-0.2-0.1-0.4-0.3-0.6C85.3,97.9,85.3,97.6,85.3,97.3z"/>
			<path class="st45" d="M84.9,97.4c-0.1-0.7-0.8-1.2-1.6-1.1c0,0,0,0,0,0c-0.5,0.1-0.8,0.4-1,0.8c-0.6-0.2-1.2,0.1-1.4,0.7
				c-0.1,0.2-0.1,0.4,0,0.6c0.1,0.6,0.7,1,1.3,0.9c0.1,0,0.3-0.1,0.4-0.1c0,0,0,0.1,0,0.1c0.1,0.7,0.8,1.1,1.5,1
				c0.7-0.1,1.1-0.8,1-1.5c0,0,0,0,0,0c0-0.2-0.1-0.4-0.3-0.6C84.9,98,85,97.7,84.9,97.4z"/>
			
				<linearGradient id="SVGID_17_" gradientUnits="userSpaceOnUse" x1="-65.5858" y1="509.1843" x2="-64.3658" y2="509.1843" gradientTransform="matrix(0.98 -0.19 -0.19 -0.98 244.01 583.88)">
				<stop  offset="1.000000e-02" style="stop-color:#D4F6FF"/>
				<stop  offset="1" style="stop-color:#FFFFFF"/>
			</linearGradient>
			<path class="st55" d="M84.4,97.1c0.1,0.3-0.2,0.6-0.5,0.7c-0.3,0.1-0.7-0.1-0.7-0.5c0,0,0,0,0,0c-0.1-0.3,0.1-0.6,0.5-0.7
				c0,0,0,0,0,0C84,96.5,84.4,96.7,84.4,97.1C84.4,97.1,84.4,97.1,84.4,97.1z"/>
			
				<linearGradient id="SVGID_18_" gradientUnits="userSpaceOnUse" x1="-65.5858" y1="506.8899" x2="-64.5051" y2="506.8899" gradientTransform="matrix(0.98 -0.19 -0.19 -0.98 244.01 583.88)">
				<stop  offset="1.000000e-02" style="stop-color:#D4F6FF"/>
				<stop  offset="1" style="stop-color:#FFFFFF"/>
			</linearGradient>
			<path class="st56" d="M84.7,99.3c0.1,0.3-0.1,0.6-0.4,0.6c0,0,0,0,0,0c-0.3,0-0.6-0.1-0.6-0.4c0-0.3,0.2-0.6,0.5-0.6
				C84.4,98.9,84.6,99.1,84.7,99.3z"/>
			
				<linearGradient id="SVGID_19_" gradientUnits="userSpaceOnUse" x1="-67.7958" y1="508.5183" x2="-66.4557" y2="508.5183" gradientTransform="matrix(0.98 -0.19 -0.19 -0.98 244.01 583.88)">
				<stop  offset="1.000000e-02" style="stop-color:#D4F6FF"/>
				<stop  offset="1" style="stop-color:#FFFFFF"/>
			</linearGradient>
			<path class="st57" d="M82.5,98.1c0.1,0.4-0.2,0.7-0.5,0.8c-0.4,0.1-0.7-0.2-0.8-0.5c-0.1-0.4,0.2-0.7,0.5-0.8
				C82.1,97.5,82.4,97.8,82.5,98.1L82.5,98.1z"/>
			<path class="st44" d="M92,92.7c1.1,0.1,1.9,1,1.8,2.1c0,0.7-0.4,1.2-1,1.6c0.1,0.3,0.2,0.6,0.2,0.8c-0.1,0.9-1,1.5-1.9,1.4
				c-0.8-0.1-1.4-0.8-1.4-1.6c0-0.2,0.1-0.4,0.1-0.5h-0.1c-1,0-1.8-0.8-1.8-1.8c0-1,0.8-1.8,1.8-1.8c0.1,0,0.2,0,0.3,0
				c0.3,0,0.6,0.1,0.8,0.3C91.2,92.8,91.6,92.6,92,92.7z"/>
			<path class="st45" d="M91.9,93.1c1,0.1,1.7,0.9,1.7,1.9c0,0.6-0.4,1.2-1,1.5c0.4,0.8,0,1.7-0.7,2s-1.7,0-2-0.7
				c-0.1-0.2-0.2-0.5-0.1-0.7c0-0.2,0.1-0.3,0.1-0.5h-0.1c-0.9-0.1-1.7-0.9-1.6-1.8s0.9-1.7,1.8-1.6c0,0,0,0,0,0
				c0.3,0,0.6,0.1,0.8,0.3C91.1,93.2,91.5,93.1,91.9,93.1z"/>
			
				<linearGradient id="SVGID_20_" gradientUnits="userSpaceOnUse" x1="1370.6487" y1="-1025.652" x2="1372.2787" y2="-1025.652" gradientTransform="matrix(8.000000e-02 -1 1 8.000000e-02 1009.4 1534.0599)">
				<stop  offset="1.000000e-02" style="stop-color:#D4F6FF"/>
				<stop  offset="1" style="stop-color:#FFFFFF"/>
			</linearGradient>
			<path class="st58" d="M92.4,93.8c-0.4,0-0.8,0.3-0.9,0.8s0.3,0.8,0.8,0.9c0.4,0,0.8-0.3,0.9-0.7C93.2,94.2,92.9,93.8,92.4,93.8
				C92.4,93.8,92.4,93.8,92.4,93.8z"/>
			
				<linearGradient id="SVGID_21_" gradientUnits="userSpaceOnUse" x1="1370.6487" y1="-1028.7034" x2="1372.0886" y2="-1028.7034" gradientTransform="matrix(8.000000e-02 -1 1 8.000000e-02 1009.4 1534.0599)">
				<stop  offset="1.000000e-02" style="stop-color:#D4F6FF"/>
				<stop  offset="1" style="stop-color:#FFFFFF"/>
			</linearGradient>
			<path class="st59" d="M89.3,93.7c-0.4,0-0.7,0.3-0.8,0.7c0,0.4,0.3,0.7,0.7,0.8c0.4,0,0.7-0.3,0.8-0.7
				C90,94.1,89.7,93.8,89.3,93.7C89.3,93.7,89.3,93.7,89.3,93.7z"/>
			
				<linearGradient id="SVGID_22_" gradientUnits="userSpaceOnUse" x1="1367.7086" y1="-1026.5286" x2="1369.4886" y2="-1026.5286" gradientTransform="matrix(8.000000e-02 -1 1 8.000000e-02 1009.4 1534.0599)">
				<stop  offset="1.000000e-02" style="stop-color:#D4F6FF"/>
				<stop  offset="1" style="stop-color:#FFFFFF"/>
			</linearGradient>
			<path class="st60" d="M91.3,96.5c-0.5,0-0.9,0.3-0.9,0.8c0,0.5,0.3,0.9,0.8,0.9c0.5,0,0.9-0.3,0.9-0.8
				C92.2,97,91.8,96.5,91.3,96.5C91.3,96.5,91.3,96.5,91.3,96.5z"/>
			<path class="st44" d="M88.8,90.7c0.8-0.3,1.6,0.1,1.9,0.9c0.2,0.5,0.1,1-0.2,1.4c0.2,0.1,0.3,0.3,0.4,0.5
				c0.2,0.7-0.1,1.4-0.8,1.6s-1.4-0.1-1.6-0.8c0-0.1-0.1-0.3-0.1-0.4h-0.1c-0.7,0.3-1.5-0.1-1.8-0.9c-0.3-0.7,0.1-1.5,0.9-1.8
				c0,0,0,0,0,0c0.2-0.1,0.5-0.1,0.7-0.1C88.2,90.9,88.5,90.7,88.8,90.7z"/>
			<path class="st45" d="M88.9,91c0.7-0.2,1.5,0.1,1.8,0.8c0.2,0.4,0.1,0.9-0.2,1.3c0.2,0.1,0.3,0.3,0.4,0.5
				c0.2,0.6-0.1,1.3-0.7,1.5c0,0,0,0,0,0c-0.6,0.2-1.3-0.1-1.5-0.7c0-0.1-0.1-0.3-0.1-0.4h-0.1c-0.7,0.2-1.4-0.2-1.6-0.9
				c-0.2-0.7,0.1-1.4,0.8-1.6c0.2-0.1,0.4-0.1,0.6-0.1C88.4,91.3,88.6,91.1,88.9,91z"/>
			
				<linearGradient id="SVGID_23_" gradientUnits="userSpaceOnUse" x1="2070.1514" y1="-1289.2179" x2="2071.4014" y2="-1289.2179" gradientTransform="matrix(-0.33 -0.94 0.94 -0.33 1989.4601 1626.03)">
				<stop  offset="1.000000e-02" style="stop-color:#D4F6FF"/>
				<stop  offset="1" style="stop-color:#FFFFFF"/>
			</linearGradient>
			<path class="st61" d="M89.4,91.3c-0.3,0.1-0.5,0.5-0.4,0.8c0.1,0.3,0.5,0.5,0.8,0.4c0.3-0.1,0.5-0.5,0.4-0.8
				C90.1,91.3,89.8,91.2,89.4,91.3z"/>
			
				<linearGradient id="SVGID_24_" gradientUnits="userSpaceOnUse" x1="2070.1614" y1="-1291.557" x2="2071.2512" y2="-1291.557" gradientTransform="matrix(-0.33 -0.94 0.94 -0.33 1989.4601 1626.03)">
				<stop  offset="1.000000e-02" style="stop-color:#D4F6FF"/>
				<stop  offset="1" style="stop-color:#FFFFFF"/>
			</linearGradient>
			<path class="st62" d="M87.3,92.2c-0.3,0.1-0.4,0.4-0.3,0.7c0.1,0.3,0.4,0.4,0.7,0.3c0.3-0.1,0.4-0.4,0.3-0.7c0,0,0,0,0,0
				C87.9,92.2,87.6,92.1,87.3,92.2z"/>
			
				<linearGradient id="SVGID_25_" gradientUnits="userSpaceOnUse" x1="2067.9114" y1="-1289.8754" x2="2069.2712" y2="-1289.8754" gradientTransform="matrix(-0.33 -0.94 0.94 -0.33 1989.4601 1626.03)">
				<stop  offset="1.000000e-02" style="stop-color:#D4F6FF"/>
				<stop  offset="1" style="stop-color:#FFFFFF"/>
			</linearGradient>
			<path class="st63" d="M89.5,93.5c-0.4,0.1-0.5,0.5-0.4,0.9s0.5,0.5,0.9,0.4c0.4-0.1,0.5-0.5,0.4-0.9
				C90.3,93.6,89.9,93.4,89.5,93.5C89.5,93.5,89.5,93.5,89.5,93.5z"/>
			<path class="st44" d="M86.8,92.9c-0.1-0.9-1-1.6-1.9-1.5c-0.6,0.1-1.1,0.5-1.3,1c-0.2-0.1-0.5-0.1-0.8-0.1
				c-0.8,0.1-1.3,0.8-1.2,1.6c0.1,0.8,0.8,1.3,1.6,1.2l0,0c0.2,0,0.3-0.1,0.4-0.2c0,0,0,0.1,0,0.1c0.2,0.9,1.1,1.4,1.9,1.3
				c0.8-0.2,1.3-0.9,1.3-1.7c0-0.3-0.1-0.5-0.3-0.7C86.8,93.6,86.9,93.2,86.8,92.9z"/>
			<path class="st45" d="M86.4,93c-0.1-0.9-1-1.5-1.8-1.3c-0.5,0.1-1,0.4-1.2,0.9c-0.2-0.1-0.5-0.1-0.7-0.1
				c-0.7,0.1-1.2,0.8-1.1,1.5c0,0,0,0,0,0c0.1,0.7,0.8,1.2,1.5,1.1c0.1,0,0.3-0.1,0.4-0.1c0,0,0,0.1,0,0.1c0.2,0.8,1,1.4,1.8,1.2
				s1.4-1,1.2-1.8c0-0.2-0.1-0.3-0.2-0.5C86.4,93.7,86.5,93.3,86.4,93z"/>
			
				<linearGradient id="SVGID_26_" gradientUnits="userSpaceOnUse" x1="-42.3095" y1="443.1188" x2="-40.8595" y2="443.1188" gradientTransform="matrix(0.9903 -0.1387 -0.1387 -0.9903 187.6949 525.7353)">
				<stop  offset="1.000000e-02" style="stop-color:#D4F6FF"/>
				<stop  offset="1" style="stop-color:#FFFFFF"/>
			</linearGradient>
			<path class="st64" d="M85.8,92.6c0,0.4-0.3,0.7-0.7,0.8c-0.4,0-0.7-0.2-0.7-0.6c0-0.4,0.3-0.7,0.7-0.8
				C85.4,92,85.7,92.2,85.8,92.6z"/>
			
				<linearGradient id="SVGID_27_" gradientUnits="userSpaceOnUse" x1="-42.2995" y1="440.4272" x2="-41.0295" y2="440.4272" gradientTransform="matrix(0.9903 -0.1387 -0.1387 -0.9903 187.6949 525.7353)">
				<stop  offset="1.000000e-02" style="stop-color:#D4F6FF"/>
				<stop  offset="1" style="stop-color:#FFFFFF"/>
			</linearGradient>
			<path class="st65" d="M86,95.3c0,0.3-0.2,0.7-0.6,0.7c-0.4,0-0.6-0.3-0.7-0.6c0-0.3,0.2-0.6,0.5-0.6C85.6,94.7,85.9,94.9,86,95.3
				C86,95.2,86,95.2,86,95.3z"/>
			
				<linearGradient id="SVGID_28_" gradientUnits="userSpaceOnUse" x1="-44.9195" y1="442.2722" x2="-43.3295" y2="442.2722" gradientTransform="matrix(0.9903 -0.1387 -0.1387 -0.9903 187.6949 525.7353)">
				<stop  offset="1.000000e-02" style="stop-color:#D4F6FF"/>
				<stop  offset="1" style="stop-color:#FFFFFF"/>
			</linearGradient>
			<path class="st66" d="M83.5,93.7c0.1,0.4-0.2,0.9-0.6,1s-0.9-0.2-1-0.6c0,0,0-0.1,0-0.1c0-0.4,0.3-0.8,0.7-0.8
				C83,93,83.4,93.3,83.5,93.7z"/>
			<path class="st44" d="M89.3,92.4c-0.1-0.7-0.8-1.2-1.5-1.1c-0.4,0.1-0.8,0.3-1,0.8C86.6,92,86.4,92,86.2,92
				c-0.6,0.1-1,0.7-0.8,1.3c0.1,0.5,0.6,0.9,1.1,0.9c0.1,0,0.2-0.1,0.3-0.1c0,0,0,0.1,0,0.1c0.1,0.7,0.8,1.1,1.5,1
				c0.6-0.1,1-0.7,1-1.3c0-0.2-0.1-0.4-0.2-0.6C89.3,93,89.3,92.7,89.3,92.4z"/>
			<path class="st45" d="M89,92.5c-0.1-0.6-0.7-1.1-1.4-1c-0.4,0-0.8,0.3-1,0.7c-0.2-0.1-0.4-0.1-0.5-0.1c-0.6,0.1-0.9,0.6-0.9,1.1
				c0.1,0.6,0.6,0.9,1.1,0.9c0.1,0,0.2,0,0.3-0.1c0,0,0,0.1,0,0.1c0.1,0.6,0.8,1,1.4,0.9c0.6-0.1,0.9-0.6,0.9-1.2
				c0-0.2-0.1-0.4-0.2-0.5C88.9,93.1,89,92.8,89,92.5z"/>
			
				<linearGradient id="SVGID_29_" gradientUnits="userSpaceOnUse" x1="-39.1995" y1="443.0971" x2="-38.0994" y2="443.0971" gradientTransform="matrix(0.9903 -0.1387 -0.1387 -0.9903 187.6949 525.7353)">
				<stop  offset="1.000000e-02" style="stop-color:#D4F6FF"/>
				<stop  offset="1" style="stop-color:#FFFFFF"/>
			</linearGradient>
			<path class="st67" d="M88.5,92.2c0,0.3-0.2,0.6-0.4,0.6c0,0,0,0,0,0c-0.3,0-0.6-0.2-0.6-0.5s0.2-0.6,0.5-0.6
				C88.2,91.7,88.5,91.9,88.5,92.2z"/>
			
				<linearGradient id="SVGID_30_" gradientUnits="userSpaceOnUse" x1="-39.1995" y1="441.05" x2="-38.2295" y2="441.05" gradientTransform="matrix(0.9903 -0.1387 -0.1387 -0.9903 187.6949 525.7353)">
				<stop  offset="1.000000e-02" style="stop-color:#D4F6FF"/>
				<stop  offset="1" style="stop-color:#FFFFFF"/>
			</linearGradient>
			<path class="st68" d="M88.7,94.3c0,0.3-0.1,0.5-0.4,0.6c-0.3,0-0.5-0.1-0.6-0.4c0-0.3,0.2-0.5,0.4-0.6S88.7,94,88.7,94.3
				L88.7,94.3L88.7,94.3z"/>
			
				<linearGradient id="SVGID_31_" gradientUnits="userSpaceOnUse" x1="-41.1995" y1="442.4958" x2="-39.9889" y2="442.4958" gradientTransform="matrix(0.9903 -0.1387 -0.1387 -0.9903 187.6949 525.7353)">
				<stop  offset="1.000000e-02" style="stop-color:#D4F6FF"/>
				<stop  offset="1" style="stop-color:#FFFFFF"/>
			</linearGradient>
			<path class="st69" d="M86.8,93.1c0,0.3-0.2,0.6-0.5,0.7c-0.3,0-0.6-0.2-0.7-0.5c0-0.3,0.2-0.6,0.5-0.7c0,0,0,0,0,0
				C86.4,92.5,86.7,92.7,86.8,93.1z"/>
		</g>
	</g>
	
		<radialGradient id="SVGID_32_" cx="-209.8135" cy="54.5729" r="146.1931" gradientTransform="matrix(0.51 0 0 -0.48 183.61 106.19)" gradientUnits="userSpaceOnUse">
		<stop  offset="0" style="stop-color:#FFFFFF"/>
		<stop  offset="0.43" style="stop-color:#D3F9FC"/>
	</radialGradient>
	<path class="st70" d="M152.3,80c0,38.7-33.1,70.1-74,70.1s-74-31.4-74-70.1s33.1-70.1,74-70.1S152.3,41.3,152.3,80z"/>
	<path class="st71" d="M82.6,142.6c-40.8,0-74-31.4-74-70.1c0-10,2.3-19.9,6.6-28.9c-0.8,1.2-1.6,2.4-2.3,3.7
		C6.7,57.6,3.5,69.4,3.5,81.4c0,38.7,33.1,70.1,74,70.1c30,0,55.8-16.9,67.4-41.2C131.7,129.8,108.7,142.6,82.6,142.6z"/>
	<path class="st72" d="M23.3,55.3c3-10.9,11.9-21.4,30.2-28.1c2.1-0.8,3.1-3.1,2.3-5.2c-0.2-0.5-0.5-0.9-0.9-1.3l-0.3-0.4
		c-1-1-2.5-1.4-3.9-1C43.7,21.4,25.9,31.5,20,54.4c-0.2,0.7,0.1,1.4,0.7,1.8l0,0c0.8,0.5,1.8,0.4,2.3-0.4
		C23.2,55.6,23.2,55.4,23.3,55.3z"/>
	<circle class="st72" cx="20.8" cy="61.1" r="2.5"/>
</g>
<g class="st73">
	<path d="M128.4,24c-30-27.9-77-26.3-105,3.8C10.7,41.4,3.6,59.4,3.5,78c0,2.3,0.1,4.5,0.3,6.8c0,0.2,0,0.5,0.1,0.7v0.1
		c1.3,18.8,10.4,36.3,25,48.2c28.4,29.6,75.4,30.5,105,2.1s30.5-75.4,2.1-105C133.6,28.4,131.1,26.1,128.4,24z"/>
</g>
</svg>
