<svg id="Layer_1" data-name="Layer 1" xmlns="http://www.w3.org/2000/svg" viewBox="0 0 450 140"><defs><style>.cls-1{fill:#ffdb27;stroke:#fff;stroke-miterlimit:10;stroke-width:4px;}.cls-2{fill:#323232;}</style></defs><path class="cls-1" d="M74.58,135H375.42C413.85,135,445,105.9,445,70h0c0-35.9-31.15-65-69.58-65H74.58C36.15,5,5,34.1,5,70H5C5,105.9,36.15,135,74.58,135Z"/><path class="cls-2" d="M156.21,105.87V92.07h-3.52v-3.8h3.52V83.83h5.24v4.44H166v3.8h-4.52v13.8Z"/><path class="cls-2" d="M185.45,97a10.1,10.1,0,0,1-.66,3.79,7.67,7.67,0,0,1-1.87,2.77,8.12,8.12,0,0,1-2.91,1.71,12.28,12.28,0,0,1-7.52,0,8.12,8.12,0,0,1-2.91-1.71,7.84,7.84,0,0,1-1.89-2.77A9.9,9.9,0,0,1,167,97a9.71,9.71,0,0,1,.66-3.69,7.55,7.55,0,0,1,1.85-2.75,7.76,7.76,0,0,1,2.91-1.72,11.74,11.74,0,0,1,3.82-.58,12,12,0,0,1,3.76.56,8.06,8.06,0,0,1,2.91,1.68,7.42,7.42,0,0,1,1.87,2.75A10,10,0,0,1,185.45,97Zm-5.32,0a4,4,0,0,0-1.07-3A3.93,3.93,0,0,0,176.17,93a3.7,3.7,0,0,0-2.85,1.06,4.15,4.15,0,0,0-1,3,4.41,4.41,0,0,0,1,3.06,3.66,3.66,0,0,0,2.87,1.08,3.94,3.94,0,0,0,2.93-1.06A4.23,4.23,0,0,0,180.13,97Z"/><path class="cls-2" d="M219.81,106.43a19,19,0,0,1-.67,5.42,9.56,9.56,0,0,1-1.84,3.5,6.76,6.76,0,0,1-2.76,1.9,10.19,10.19,0,0,1-3.47.58,31.09,31.09,0,0,1-3.57-.22,13.15,13.15,0,0,1-3.36-.86v-4a22.05,22.05,0,0,0,3.06.86,13.28,13.28,0,0,0,2.58.3,4.63,4.63,0,0,0,1.91-.4,3.85,3.85,0,0,0,1.49-1.28,6.65,6.65,0,0,0,1-2.32,15.75,15.75,0,0,0,.34-3.48v-1.76a6.13,6.13,0,0,1-2.28,1.34,9.31,9.31,0,0,1-2.48.3,7.82,7.82,0,0,1-3.12-.6,6.77,6.77,0,0,1-2.38-1.68,7.69,7.69,0,0,1-1.52-2.62,10.31,10.31,0,0,1-.54-3.42,10.19,10.19,0,0,1,.83-4.18,8.85,8.85,0,0,1,2.37-3.18,10.54,10.54,0,0,1,3.73-2,16.13,16.13,0,0,1,5-.7c.57,0,1.07,0,1.5,0a10.86,10.86,0,0,1,1.28.1c.42.05.86.12,1.34.22s1,.22,1.64.38Zm-5.32-13.36c-.47-.08-.82-.14-1.05-.16a7.72,7.72,0,0,0-.93,0,5,5,0,0,0-3.68,1.3,4.72,4.72,0,0,0-1.34,3.58,3.41,3.41,0,0,0,.88,2.52,3,3,0,0,0,2.21.88A6.91,6.91,0,0,0,212,101a2.62,2.62,0,0,0,1.25-.72,4,4,0,0,0,.89-1.62,10,10,0,0,0,.33-2.86Z"/><path class="cls-2" d="M237.61,93.19c-.38-.08-.67-.14-.88-.16a5.29,5.29,0,0,0-.72,0,4.06,4.06,0,0,0-3.46,1.56,7.63,7.63,0,0,0-1.18,4.65v6.67h-5.32V94.31c0-.65,0-1.22,0-1.7s-.05-.93-.1-1.35-.13-.83-.22-1.23-.22-.87-.38-1.39h5c.08.32.16.6.23.84a6.4,6.4,0,0,1,.14.65c0,.21.06.43.08.66a6.74,6.74,0,0,1,0,.84,8.93,8.93,0,0,1,2.28-2.6,4.33,4.33,0,0,1,2.54-.76,3.66,3.66,0,0,1,.94.1,10.34,10.34,0,0,1,1.06.39Z"/><path class="cls-2" d="M257.53,97a10.1,10.1,0,0,1-.66,3.79,7.67,7.67,0,0,1-1.87,2.77,8.12,8.12,0,0,1-2.91,1.71,12.31,12.31,0,0,1-7.53,0,8.17,8.17,0,0,1-2.9-1.71,7.84,7.84,0,0,1-1.89-2.77,10.77,10.77,0,0,1,0-7.48,7.55,7.55,0,0,1,1.85-2.75,7.72,7.72,0,0,1,2.9-1.72,11.84,11.84,0,0,1,3.83-.58,12,12,0,0,1,3.76.56A8.06,8.06,0,0,1,255,90.51a7.42,7.42,0,0,1,1.87,2.75A10,10,0,0,1,257.53,97Zm-5.32,0a4,4,0,0,0-1.07-3A3.93,3.93,0,0,0,248.25,93a3.7,3.7,0,0,0-2.85,1.06,4.15,4.15,0,0,0-1,3,4.41,4.41,0,0,0,1,3.06,3.65,3.65,0,0,0,2.87,1.08,3.94,3.94,0,0,0,2.93-1.06A4.27,4.27,0,0,0,252.21,97Z"/><path class="cls-2" d="M284.33,103.91a3.07,3.07,0,0,1-1.06,1.51,3.2,3.2,0,0,1-1.82.45,3,3,0,0,1-1.84-.49,3.36,3.36,0,0,1-1-1.63l-3.4-10.37L271.61,104a2.64,2.64,0,0,1-1,1.47,3.49,3.49,0,0,1-1.9.45,5.53,5.53,0,0,1-.84-.06,2.28,2.28,0,0,1-.76-.26,2.06,2.06,0,0,1-.68-.62,4,4,0,0,1-.56-1.13l-5.6-15.53h5.4l2.32,7.1c.08.26.16.56.26.92s.19.69.3,1,.22.81.36,1.25a6.64,6.64,0,0,1,.24-1c.08-.28.16-.59.26-.91s.18-.64.26-.92l2.24-7.49h6.48l2.4,7.84a5.65,5.65,0,0,0,.22.76c.09.27.18.54.26.8a6.61,6.61,0,0,1,.24.9c.08-.26.16-.53.24-.82.13-.52.28-1,.44-1.48l2.36-8h5.6Z"/><path class="cls-2" d="M296.45,103.4a2.17,2.17,0,0,1-.91,1.76,3.52,3.52,0,0,1-2.21.71,3.44,3.44,0,0,1-2.23-.76,2.31,2.31,0,0,1-.06-3.66,3.14,3.14,0,0,1,2.13-.74,3.54,3.54,0,0,1,2.33.79A2.41,2.41,0,0,1,296.45,103.4Z"/><path class="cls-2" d="M83.85,35.33a7.4,7.4,0,0,1-.7,3.25,6.94,6.94,0,0,1-2.07,2.52,9.91,9.91,0,0,1-3.39,1.63,17.09,17.09,0,0,1-4.63.58H72.2l-.78,0-.87-.06c-.3,0-.67-.06-1.1-.08V54.87H63.09V27H70.8q6.42,0,9.74,2A6.9,6.9,0,0,1,83.85,35.33ZM77,35.21a4,4,0,0,0-.26-1.48,2.54,2.54,0,0,0-.89-1.1,4.47,4.47,0,0,0-1.7-.67,14.3,14.3,0,0,0-2.69-.21h-.91a8.5,8.5,0,0,0-1.07.08v6.64l1.17.1,1.18,0Q77,38.59,77,35.21Z"/><path class="cls-2" d="M88.25,54.87V27h5.32V54.87Z"/><path class="cls-2" d="M112.09,54.87c0-.19,0-.42,0-.68s0-.47-.07-.76,0-.6-.06-.92a6.4,6.4,0,0,1-2.61,2.06,8.48,8.48,0,0,1-3.4.7,6.32,6.32,0,0,1-5.11-2.16A9.28,9.28,0,0,1,99,47q0-4.85,2.94-7.46t8.37-2.62c.6,0,1.14,0,1.63,0s1,.07,1.46.14,1,.15,1.5.26a17.21,17.21,0,0,1,1.7.44V49.11c0,.61,0,1.26,0,1.94s.07,1.3.12,1.86.11,1.32.16,2Zm-.84-13a7.1,7.1,0,0,0-1.26-.2c-.38,0-.73,0-1.06,0A4.26,4.26,0,0,0,105.51,43,5.86,5.86,0,0,0,104.29,47a3.91,3.91,0,0,0,.73,2.56,2.57,2.57,0,0,0,2.08.88,3.71,3.71,0,0,0,1.61-.36A4,4,0,0,0,110,49a4.78,4.78,0,0,0,.89-1.56,5.86,5.86,0,0,0,.33-2Z"/><path class="cls-2" d="M133.81,54.87v-10a4.08,4.08,0,0,0-.26-1.62,2.21,2.21,0,0,0-.62-.87,1.59,1.59,0,0,0-.76-.35,6.39,6.39,0,0,0-.68,0,4.11,4.11,0,0,0-.84.15,2.89,2.89,0,0,0-1.22.73,5.15,5.15,0,0,0-1.1,1.7,7.79,7.79,0,0,0-.48,3v7.29h-5.32V43.23a19.92,19.92,0,0,0-.24-3,9.61,9.61,0,0,0-.64-2.45H127a8,8,0,0,1,.34.92,10.3,10.3,0,0,1,.22,1,8.32,8.32,0,0,1,2.74-1.84,8,8,0,0,1,3-.6,5.8,5.8,0,0,1,2.33.46A5.6,5.6,0,0,1,137.45,39a6,6,0,0,1,1.23,2.06,7.93,7.93,0,0,1,.45,2.75v11Z"/><path class="cls-2" d="M146.09,54.87V41.07h-3.52v-3.8h3.52V32.83h5.24v4.44h4.52v3.8h-4.52v13.8Z"/><path class="cls-2" d="M171.73,50A5,5,0,0,1,170,54a7.06,7.06,0,0,1-4.77,1.48,20.48,20.48,0,0,1-4.06-.4A12.2,12.2,0,0,1,158,54l.68-4.08a13.66,13.66,0,0,0,6.08,1.8,1.74,1.74,0,0,0,1.26-.38,1.21,1.21,0,0,0,.38-.86,1.53,1.53,0,0,0-.3-1,4.44,4.44,0,0,0-1.46-.94,24.42,24.42,0,0,1-2.82-1.44,9.15,9.15,0,0,1-1.92-1.5A5.26,5.26,0,0,1,158.83,44a5.48,5.48,0,0,1-.34-2,4.51,4.51,0,0,1,1.93-3.9,8.53,8.53,0,0,1,5.06-1.38,15.1,15.1,0,0,1,3,.26,13.34,13.34,0,0,1,3,1l-.64,4a9.21,9.21,0,0,0-2.75-1.1,12.25,12.25,0,0,0-2.62-.3,1.82,1.82,0,0,0-1.28.34,1.18,1.18,0,0,0-.34.9,1.32,1.32,0,0,0,.55,1.1,11.33,11.33,0,0,0,2.13,1.1,25,25,0,0,1,2.43,1.38,8.2,8.2,0,0,1,1.63,1.36,4.16,4.16,0,0,1,.91,1.48A5.29,5.29,0,0,1,171.73,50Z"/><path class="cls-2" d="M200.61,54.87v-10a4.08,4.08,0,0,0-.26-1.62,2.32,2.32,0,0,0-.62-.87A1.59,1.59,0,0,0,199,42a6.58,6.58,0,0,0-.68,0,4.11,4.11,0,0,0-.84.15,2.89,2.89,0,0,0-1.22.73,5.15,5.15,0,0,0-1.1,1.7,7.79,7.79,0,0,0-.48,3v7.29h-5.32V43.23a19.92,19.92,0,0,0-.24-3,9.61,9.61,0,0,0-.64-2.45h5.32a8,8,0,0,1,.34.92c.06.24.14.58.22,1a8.22,8.22,0,0,1,2.74-1.84,7.93,7.93,0,0,1,3-.6,5.8,5.8,0,0,1,2.33.46A5.46,5.46,0,0,1,204.24,39a5.88,5.88,0,0,1,1.24,2.06,7.93,7.93,0,0,1,.45,2.75v11Z"/><path class="cls-2" d="M227.65,42.11a4.59,4.59,0,0,1-.71,2.48,6.13,6.13,0,0,1-2,1.9,11.16,11.16,0,0,1-3.12,1.22,17.51,17.51,0,0,1-4.07.44l-.48,0a6.33,6.33,0,0,0-.65,0,3.72,3.72,0,0,0,1.2,2.38,3.82,3.82,0,0,0,2.59.86,11.85,11.85,0,0,0,5.89-1.8v4.2a12.21,12.21,0,0,1-2.9,1.26,12.34,12.34,0,0,1-3.14.38,10.33,10.33,0,0,1-3.62-.6,7.31,7.31,0,0,1-2.74-1.74,7.74,7.74,0,0,1-1.72-2.72,10.07,10.07,0,0,1-.6-3.58,11,11,0,0,1,.7-4,9.18,9.18,0,0,1,2-3.14,8.58,8.58,0,0,1,3-2,10.12,10.12,0,0,1,3.88-.72,7.32,7.32,0,0,1,4.74,1.44A4.71,4.71,0,0,1,227.65,42.11Zm-5.32.4a1.37,1.37,0,0,0-.55-1.1A2.07,2.07,0,0,0,220.4,41a3.13,3.13,0,0,0-2.28.94,4.36,4.36,0,0,0-1.23,2.58,3.58,3.58,0,0,0,.63.08h.6C220.92,44.55,222.33,43.87,222.33,42.51Z"/><path class="cls-2" d="M247.29,42.11a4.59,4.59,0,0,1-.71,2.48,6.13,6.13,0,0,1-2,1.9,11.16,11.16,0,0,1-3.12,1.22,17.51,17.51,0,0,1-4.07.44l-.48,0a6.33,6.33,0,0,0-.65,0,3.72,3.72,0,0,0,1.2,2.38,3.82,3.82,0,0,0,2.59.86,11.85,11.85,0,0,0,5.89-1.8v4.2A12.21,12.21,0,0,1,243,55a12.34,12.34,0,0,1-3.14.38,10.33,10.33,0,0,1-3.62-.6,7.31,7.31,0,0,1-2.74-1.74,7.74,7.74,0,0,1-1.72-2.72,10.07,10.07,0,0,1-.6-3.58,11,11,0,0,1,.7-4,9.18,9.18,0,0,1,2-3.14,8.58,8.58,0,0,1,3-2,10.12,10.12,0,0,1,3.88-.72,7.32,7.32,0,0,1,4.74,1.44A4.71,4.71,0,0,1,247.29,42.11Zm-5.32.4a1.37,1.37,0,0,0-.55-1.1A2.07,2.07,0,0,0,240,41a3.13,3.13,0,0,0-2.28.94,4.36,4.36,0,0,0-1.23,2.58,3.58,3.58,0,0,0,.63.08h.6C240.56,44.55,242,43.87,242,42.51Z"/><path class="cls-2" d="M264.65,54.87c0-.16,0-.35-.08-.56s-.06-.4-.08-.64-.06-.54-.09-.88a7.45,7.45,0,0,1-2.64,2,8.4,8.4,0,0,1-3.17.58,8,8,0,0,1-3.19-.62A7.2,7.2,0,0,1,253,53a7.79,7.79,0,0,1-1.56-2.66,10.08,10.08,0,0,1-.56-3.48,11.85,11.85,0,0,1,.66-4,9.59,9.59,0,0,1,1.84-3.18,8,8,0,0,1,2.82-2.08,8.53,8.53,0,0,1,3.6-.74,12.48,12.48,0,0,1,1.76.12,10.11,10.11,0,0,1,2,.52V27h5.32v21.8c0,.45,0,1,.06,1.72s.08,1.36.14,2,.12,1.53.2,2.36ZM263.49,42a5.38,5.38,0,0,0-1.48-.4,11,11,0,0,0-1.43-.08,4,4,0,0,0-3.23,1.38,5.61,5.61,0,0,0-1.18,3.78,4.1,4.1,0,0,0,.83,2.74,2.85,2.85,0,0,0,2.29,1,4.91,4.91,0,0,0,1.64-.28,3.12,3.12,0,0,0,1.33-1,5.2,5.2,0,0,0,.89-1.78,9.35,9.35,0,0,0,.34-2.74Z"/><path class="cls-2" d="M309.45,52.91a3.07,3.07,0,0,1-1.06,1.51,3.2,3.2,0,0,1-1.82.45,3,3,0,0,1-1.84-.49,3.36,3.36,0,0,1-1-1.63l-3.4-10.37L296.73,53a2.64,2.64,0,0,1-1,1.47,3.49,3.49,0,0,1-1.9.45,5.53,5.53,0,0,1-.84-.06,2.28,2.28,0,0,1-.76-.26,2.06,2.06,0,0,1-.68-.62A4,4,0,0,1,291,52.8l-5.6-15.53h5.4l2.32,7.1c.08.26.16.56.26.92s.19.69.3,1,.22.81.36,1.25a6.64,6.64,0,0,1,.24-1c.08-.28.16-.59.26-.91s.18-.64.26-.92L297,37.27h6.48l2.4,7.84a5.65,5.65,0,0,0,.22.76c.09.27.18.54.26.8a6.61,6.61,0,0,1,.24.9c.08-.26.16-.53.24-.82.13-.52.28-1,.44-1.48l2.36-8h5.6Z"/><path class="cls-2" d="M331.24,54.87a6,6,0,0,0,0-.68,7.58,7.58,0,0,1-.06-.76c0-.3,0-.6-.06-.92a6.4,6.4,0,0,1-2.61,2.06,8.53,8.53,0,0,1-3.41.7A6.33,6.33,0,0,1,320,53.11,9.33,9.33,0,0,1,318.13,47q0-4.85,2.94-7.46t8.37-2.62c.6,0,1.14,0,1.62,0a14.15,14.15,0,0,1,1.46.14c.49.06,1,.15,1.5.26a16.67,16.67,0,0,1,1.71.44V49.11c0,.61,0,1.26,0,1.94s.06,1.3.12,1.86.1,1.32.16,2Zm-.83-13a7.1,7.1,0,0,0-1.26-.2c-.38,0-.74,0-1.06,0A4.25,4.25,0,0,0,324.67,43,5.81,5.81,0,0,0,323.45,47a3.91,3.91,0,0,0,.73,2.56,2.57,2.57,0,0,0,2.08.88,3.64,3.64,0,0,0,1.6-.36,4,4,0,0,0,1.33-1,5,5,0,0,0,.89-1.56,5.86,5.86,0,0,0,.33-2Z"/><path class="cls-2" d="M342.53,54.87V41.07H339v-3.8h3.52V32.83h5.24v4.44h4.52v3.8h-4.52v13.8Z"/><path class="cls-2" d="M369.57,42.11a4.59,4.59,0,0,1-.71,2.48,6.13,6.13,0,0,1-2,1.9,11.28,11.28,0,0,1-3.12,1.22,17.51,17.51,0,0,1-4.07.44l-.49,0a6.13,6.13,0,0,0-.64,0,3.72,3.72,0,0,0,1.2,2.38,3.82,3.82,0,0,0,2.59.86,11.85,11.85,0,0,0,5.89-1.8v4.2a12.21,12.21,0,0,1-2.9,1.26,12.34,12.34,0,0,1-3.14.38,10.33,10.33,0,0,1-3.62-.6,7.31,7.31,0,0,1-2.74-1.74,7.74,7.74,0,0,1-1.72-2.72,10.07,10.07,0,0,1-.6-3.58,11,11,0,0,1,.7-4,9.18,9.18,0,0,1,2-3.14,8.58,8.58,0,0,1,3-2,10.12,10.12,0,0,1,3.88-.72,7.32,7.32,0,0,1,4.74,1.44A4.71,4.71,0,0,1,369.57,42.11Zm-5.32.4a1.4,1.4,0,0,0-.55-1.1,2.07,2.07,0,0,0-1.38-.46,3.17,3.17,0,0,0-2.29.94,4.41,4.41,0,0,0-1.22,2.58,3.58,3.58,0,0,0,.63.08H360Q364.25,44.55,364.25,42.51Z"/><path class="cls-2" d="M386,42.19c-.38-.08-.67-.14-.88-.16a5.39,5.39,0,0,0-.72,0,4.06,4.06,0,0,0-3.46,1.56,7.63,7.63,0,0,0-1.18,4.65v6.67h-5.32V43.31c0-.65,0-1.22,0-1.7s-.05-.93-.1-1.35-.13-.83-.22-1.23-.22-.87-.38-1.39h5.05c.08.32.15.6.22.84a4.6,4.6,0,0,1,.15.65c0,.21.05.43.08.66a6.74,6.74,0,0,1,0,.84,8.78,8.78,0,0,1,2.28-2.6,4.33,4.33,0,0,1,2.54-.76,3.66,3.66,0,0,1,.94.1,10.34,10.34,0,0,1,1.06.39Z"/></svg>