<svg id="Layer_1" data-name="Layer 1" xmlns="http://www.w3.org/2000/svg" viewBox="0 0 490 140"><defs><style>.cls-1{fill:#ffdb27;stroke:#fff;stroke-miterlimit:10;stroke-width:4px;}.cls-2{fill:#323232;}</style></defs><path class="cls-1" d="M80.9,135H409.1C451,135,485,105.9,485,70h0c0-35.9-34-65-75.9-65H80.9C39,5,5,34.1,5,70H5C5,105.9,39,135,80.9,135Z"/><path class="cls-2" d="M65.9,31.67v23.2H59.62V31.63H52.18V27H73.26v4.72Z"/><path class="cls-2" d="M84,54.39a7,7,0,0,1-.34-.92c-.07-.24-.14-.59-.22-1a7.88,7.88,0,0,1-5.64,2.44,5.7,5.7,0,0,1-2.38-.49A5.93,5.93,0,0,1,73.52,53,5.79,5.79,0,0,1,72.26,51a7.61,7.61,0,0,1-.44-2.68c0-1.09,0-2.11.08-3s.09-1.83.12-2.69,0-1.71,0-2.57-.1-1.76-.2-2.72h5.32c.08.87.12,1.71.14,2.52s0,1.62,0,2.41,0,1.61-.08,2.43-.06,1.7-.06,2.62a4.28,4.28,0,0,0,.25,1.64,1.87,1.87,0,0,0,.64.87,2,2,0,0,0,.81.33,5.2,5.2,0,0,0,.71.06,3.79,3.79,0,0,0,.86-.16,2.78,2.78,0,0,0,1.2-.73,4.78,4.78,0,0,0,1.07-1.7,8.2,8.2,0,0,0,.46-3V37.27h5.32V48.9a20,20,0,0,0,.24,3,9.85,9.85,0,0,0,.64,2.45Z"/><path class="cls-2" d="M107.06,42.19c-.38-.08-.67-.14-.88-.16a5.39,5.39,0,0,0-.72,0A4.06,4.06,0,0,0,102,43.55a7.63,7.63,0,0,0-1.18,4.65v6.67H95.5V43.31c0-.65,0-1.22,0-1.7s0-.93-.1-1.35-.13-.83-.22-1.23-.22-.87-.38-1.39h5c.08.32.15.6.22.84a4.6,4.6,0,0,1,.15.65c0,.21,0,.43.08.66a6.74,6.74,0,0,1,0,.84A8.78,8.78,0,0,1,102.6,38a4.33,4.33,0,0,1,2.54-.76,3.66,3.66,0,0,1,.94.1,10.34,10.34,0,0,1,1.06.39Z"/><path class="cls-2" d="M121.86,54.87v-10a4.11,4.11,0,0,0-.26-1.62,2.4,2.4,0,0,0-.62-.87,1.64,1.64,0,0,0-.76-.35,6.58,6.58,0,0,0-.68,0,4.11,4.11,0,0,0-.84.15,2.82,2.82,0,0,0-1.22.74,4.85,4.85,0,0,0-1.1,1.69,7.79,7.79,0,0,0-.48,3v7.29h-5.32V43.23a19.92,19.92,0,0,0-.24-3,10,10,0,0,0-.64-2.45H115a8,8,0,0,1,.34.92c.06.24.14.58.22,1a8.22,8.22,0,0,1,2.74-1.84,7.89,7.89,0,0,1,3-.6,5.84,5.84,0,0,1,2.33.46A5.46,5.46,0,0,1,125.49,39a6.29,6.29,0,0,1,1.24,2.06,8.17,8.17,0,0,1,.45,2.75v11Z"/><path class="cls-2" d="M163.53,46a10.1,10.1,0,0,1-.65,3.79A7.67,7.67,0,0,1,161,52.57a8.12,8.12,0,0,1-2.91,1.71,12.31,12.31,0,0,1-7.53,0,8.12,8.12,0,0,1-2.91-1.71,7.84,7.84,0,0,1-1.89-2.77,9.9,9.9,0,0,1-.68-3.79,9.71,9.71,0,0,1,.66-3.69,7.59,7.59,0,0,1,4.76-4.47,11.78,11.78,0,0,1,3.82-.58,12.08,12.08,0,0,1,3.77.56A8.06,8.06,0,0,1,161,39.51a7.42,7.42,0,0,1,1.87,2.75A10,10,0,0,1,163.53,46Zm-5.32,0a3.68,3.68,0,0,0-4-4,3.67,3.67,0,0,0-2.84,1.06,4.11,4.11,0,0,0-1,3,4.46,4.46,0,0,0,1,3.06,3.67,3.67,0,0,0,2.87,1.08,3.92,3.92,0,0,0,2.93-1.06A4.23,4.23,0,0,0,158.21,46Z"/><path class="cls-2" d="M181.17,31.91a7,7,0,0,0-1.44-.54,5.46,5.46,0,0,0-1.32-.14,3.6,3.6,0,0,0-1.64.32,2.25,2.25,0,0,0-1,1,5.64,5.64,0,0,0-.5,1.86,25,25,0,0,0-.14,2.84h4.24v3.88h-4.2V54.87h-5.32V41.07h-3.32v-3.8h3.24a23.45,23.45,0,0,1,.44-4.94,8.1,8.1,0,0,1,1.34-3.16,4.92,4.92,0,0,1,2.24-1.68,8.73,8.73,0,0,1,3.1-.5,13.63,13.63,0,0,1,4.76.8Z"/><path class="cls-2" d="M195,31.91a7,7,0,0,0-1.44-.54,5.46,5.46,0,0,0-1.32-.14,3.6,3.6,0,0,0-1.64.32,2.25,2.25,0,0,0-1,1,5.64,5.64,0,0,0-.5,1.86,25,25,0,0,0-.14,2.84h4.24v3.88H189V54.87h-5.32V41.07h-3.32v-3.8h3.24a23.45,23.45,0,0,1,.44-4.94,8.1,8.1,0,0,1,1.34-3.16,4.92,4.92,0,0,1,2.24-1.68,8.73,8.73,0,0,1,3.1-.5,13.63,13.63,0,0,1,4.76.8Z"/><path class="cls-2" d="M210.09,54.87V41.07h-3.52v-3.8h3.52V32.83h5.24v4.44h4.52v3.8h-4.52v13.8Z"/><path class="cls-2" d="M234.25,54.87V44.92a5.32,5.32,0,0,0-.18-1.54,2,2,0,0,0-.51-.89,1.6,1.6,0,0,0-.74-.41A3.89,3.89,0,0,0,232,42a2.41,2.41,0,0,0-1.33.4,4,4,0,0,0-1.12,1.1,5.83,5.83,0,0,0-.8,1.64,6.23,6.23,0,0,0-.31,2v7.75h-5.32V27.47h5.28v11.8a6.08,6.08,0,0,1,2.21-1.54,7.28,7.28,0,0,1,2.68-.46,8.52,8.52,0,0,1,2.31.31,5.9,5.9,0,0,1,2,1A5.12,5.12,0,0,1,239,40.38a6.25,6.25,0,0,1,.55,2.77V54.87Z"/><path class="cls-2" d="M261.29,42.11a4.51,4.51,0,0,1-.71,2.48,5.94,5.94,0,0,1-2,1.9,11.21,11.21,0,0,1-3.11,1.22,17.53,17.53,0,0,1-4.08.44l-.48,0a6.33,6.33,0,0,0-.65,0,3.72,3.72,0,0,0,1.2,2.38,3.82,3.82,0,0,0,2.59.86,11.82,11.82,0,0,0,5.89-1.8v4.2A11.87,11.87,0,0,1,257,55a12.23,12.23,0,0,1-3.14.38,10.37,10.37,0,0,1-3.62-.6,7.39,7.39,0,0,1-2.74-1.74,7.89,7.89,0,0,1-1.72-2.72,10.07,10.07,0,0,1-.6-3.58,11.23,11.23,0,0,1,.7-4,9.34,9.34,0,0,1,2-3.14,8.67,8.67,0,0,1,3-2,10.19,10.19,0,0,1,3.88-.72,7.29,7.29,0,0,1,4.74,1.44A4.68,4.68,0,0,1,261.29,42.11Zm-5.32.4a1.37,1.37,0,0,0-.55-1.1A2,2,0,0,0,254,41a3.13,3.13,0,0,0-2.28.94,4.48,4.48,0,0,0-1.23,2.58,3.79,3.79,0,0,0,.64.08h.59Q256,44.55,256,42.51Z"/><path class="cls-2" d="M279.41,54.87V41.07h-3.52v-3.8h3.52V32.83h5.24v4.44h4.52v3.8h-4.52v13.8Z"/><path class="cls-2" d="M303.89,54.87a6,6,0,0,0,0-.68c0-.22-.05-.47-.07-.76s0-.6-.06-.92a6.44,6.44,0,0,1-2.6,2.06,8.56,8.56,0,0,1-3.41.7,6.32,6.32,0,0,1-5.11-2.16A9.28,9.28,0,0,1,290.77,47q0-4.85,2.94-7.46t8.38-2.62c.59,0,1.13,0,1.62,0s1,.07,1.46.14,1,.15,1.5.26a17.21,17.21,0,0,1,1.7.44V49.11c0,.61,0,1.26,0,1.94s.07,1.3.12,1.86.11,1.32.16,2Zm-.84-13a7.1,7.1,0,0,0-1.26-.2c-.38,0-.73,0-1.06,0A4.27,4.27,0,0,0,297.31,43,5.86,5.86,0,0,0,296.09,47a4,4,0,0,0,.73,2.56,2.57,2.57,0,0,0,2.08.88,3.68,3.68,0,0,0,1.61-.36,4,4,0,0,0,1.32-1,5,5,0,0,0,.9-1.56,6.11,6.11,0,0,0,.32-2Z"/><path class="cls-2" d="M331.69,45a13.29,13.29,0,0,1-.56,4,9.59,9.59,0,0,1-1.58,3.11,7.23,7.23,0,0,1-2.43,2,6.8,6.8,0,0,1-3.1.71,6.93,6.93,0,0,1-2.1-.28,6.35,6.35,0,0,1-1.79-1V66.79h-5.6V42.54a10.17,10.17,0,0,0-.06-1c0-.39-.09-.81-.16-1.24s-.15-.86-.24-1.29a8.6,8.6,0,0,0-.34-1.2h5.42a3.63,3.63,0,0,1,.29.78,7.35,7.35,0,0,1,.17,1.1A8.41,8.41,0,0,1,322,37.83a6.3,6.3,0,0,1,2.76-.56,7,7,0,0,1,2.82.55,6.27,6.27,0,0,1,2.18,1.58,7.24,7.24,0,0,1,1.41,2.46A9.71,9.71,0,0,1,331.69,45Zm-5.32.89a3.8,3.8,0,0,0-.79-2.57,2.74,2.74,0,0,0-2.2-.92,3.16,3.16,0,0,0-2.58,1.17,4.93,4.93,0,0,0-.95,3.17v2.31a4.23,4.23,0,0,0,2.83,1.07,3.44,3.44,0,0,0,2.7-1.12A4.55,4.55,0,0,0,326.37,45.92Z"/><path class="cls-2" d="M371.89,52.91a3.07,3.07,0,0,1-1.06,1.51,3.2,3.2,0,0,1-1.82.45,3,3,0,0,1-1.84-.49,3.43,3.43,0,0,1-1-1.63l-3.4-10.37L359.17,53a2.56,2.56,0,0,1-1,1.46,3.49,3.49,0,0,1-1.9.45,5.73,5.73,0,0,1-.84-.06,2.08,2.08,0,0,1-.76-.26,2,2,0,0,1-.68-.62,4.25,4.25,0,0,1-.56-1.13l-5.6-15.53h5.4l2.32,7.1c.08.26.17.57.26.92s.19.69.3,1,.23.81.36,1.25a6.64,6.64,0,0,1,.24-1l.26-.91c.09-.33.18-.64.26-.92l2.24-7.49h6.48l2.4,7.84a6.93,6.93,0,0,0,.22.76c.09.27.18.54.26.8a4.59,4.59,0,0,1,.24.9c.08-.26.16-.53.24-.82.13-.52.28-1,.44-1.48l2.36-8h5.6Z"/><path class="cls-2" d="M393,54.87V44.92a5.32,5.32,0,0,0-.18-1.54,2.15,2.15,0,0,0-.51-.89,1.65,1.65,0,0,0-.74-.41,4,4,0,0,0-.86-.09,2.4,2.4,0,0,0-1.32.4,4.06,4.06,0,0,0-1.13,1.1,6.1,6.1,0,0,0-.79,1.64,6.23,6.23,0,0,0-.31,2v7.75h-5.32V27.47h5.28v11.8a6,6,0,0,1,2.21-1.54,7.28,7.28,0,0,1,2.68-.46,8.52,8.52,0,0,1,2.31.31,5.9,5.9,0,0,1,2,1,5.12,5.12,0,0,1,1.44,1.81,6.25,6.25,0,0,1,.55,2.77V54.87Z"/><path class="cls-2" d="M420,42.11a4.59,4.59,0,0,1-.71,2.48,5.94,5.94,0,0,1-2,1.9,11.21,11.21,0,0,1-3.11,1.22,17.66,17.66,0,0,1-4.08.44l-.48,0a6.33,6.33,0,0,0-.65,0,3.72,3.72,0,0,0,1.2,2.38,3.82,3.82,0,0,0,2.59.86,11.85,11.85,0,0,0,5.89-1.8v4.2a12,12,0,0,1-2.9,1.26,12.28,12.28,0,0,1-3.14.38,10.37,10.37,0,0,1-3.62-.6,7.39,7.39,0,0,1-2.74-1.74,7.74,7.74,0,0,1-1.72-2.72,10.07,10.07,0,0,1-.6-3.58,11,11,0,0,1,.7-4,9.34,9.34,0,0,1,2-3.14,8.67,8.67,0,0,1,3-2,10.15,10.15,0,0,1,3.88-.72,7.32,7.32,0,0,1,4.74,1.44A4.68,4.68,0,0,1,420,42.11Zm-5.32.4a1.37,1.37,0,0,0-.55-1.1,2.05,2.05,0,0,0-1.38-.46,3.13,3.13,0,0,0-2.28.94,4.36,4.36,0,0,0-1.23,2.58,3.68,3.68,0,0,0,.64.08h.59Q414.7,44.55,414.69,42.51Z"/><path class="cls-2" d="M435.73,54.87v-10a4.11,4.11,0,0,0-.26-1.62,2.29,2.29,0,0,0-.62-.87,1.59,1.59,0,0,0-.76-.35,6.39,6.39,0,0,0-.68,0,4.11,4.11,0,0,0-.84.15,2.82,2.82,0,0,0-1.22.74,5,5,0,0,0-1.1,1.69,7.79,7.79,0,0,0-.48,3v7.29h-5.32V43.23a19.92,19.92,0,0,0-.24-3,9.61,9.61,0,0,0-.64-2.45h5.32a8,8,0,0,1,.34.92,10.3,10.3,0,0,1,.22,1,8.32,8.32,0,0,1,2.74-1.84,8,8,0,0,1,3-.6,5.8,5.8,0,0,1,2.33.46A5.6,5.6,0,0,1,439.37,39a6.11,6.11,0,0,1,1.23,2.06,7.93,7.93,0,0,1,.45,2.75v11Z"/><path class="cls-2" d="M115.54,103.91a3.07,3.07,0,0,1-1.06,1.51,3.2,3.2,0,0,1-1.82.45,3,3,0,0,1-1.84-.49,3.36,3.36,0,0,1-1-1.63l-3.4-10.37L102.82,104a2.65,2.65,0,0,1-1,1.46,3.49,3.49,0,0,1-1.9.45,5.53,5.53,0,0,1-.84-.06,2.08,2.08,0,0,1-.76-.26,2,2,0,0,1-.68-.62,4,4,0,0,1-.56-1.13l-5.6-15.53h5.4l2.32,7.1c.08.26.16.57.26.92s.19.69.3,1,.22.81.36,1.25a6.64,6.64,0,0,1,.24-1c.08-.28.16-.59.26-.91s.18-.64.26-.92l2.24-7.49h6.48l2.4,7.84a5.26,5.26,0,0,0,.22.76c.09.27.18.54.26.8a6.61,6.61,0,0,1,.24.9c.08-.26.16-.53.24-.82.13-.52.28-1,.44-1.48l2.36-8h5.6Z"/><path class="cls-2" d="M137.33,105.87a6,6,0,0,0,0-.68,7.58,7.58,0,0,1-.06-.76c0-.3,0-.6-.06-.92a6.4,6.4,0,0,1-2.61,2.06,8.56,8.56,0,0,1-3.41.7,6.33,6.33,0,0,1-5.11-2.16A9.28,9.28,0,0,1,124.22,98q0-4.85,2.94-7.46t8.37-2.62c.59,0,1.14,0,1.62,0a14.15,14.15,0,0,1,1.46.14c.49.06,1,.15,1.5.26a17.35,17.35,0,0,1,1.71.44v11.36c0,.61,0,1.26,0,1.94s.06,1.3.12,1.86.1,1.32.16,2Zm-.83-13a7.34,7.34,0,0,0-1.27-.2c-.38,0-.73,0-1,0A4.25,4.25,0,0,0,130.76,94,5.81,5.81,0,0,0,129.54,98a3.91,3.91,0,0,0,.73,2.56,2.57,2.57,0,0,0,2.07.88A3.68,3.68,0,0,0,134,101a4,4,0,0,0,1.32-1,5,5,0,0,0,.9-1.56,5.86,5.86,0,0,0,.33-2Z"/><path class="cls-2" d="M160.38,101a5,5,0,0,1-1.7,4,7.06,7.06,0,0,1-4.77,1.48,20.38,20.38,0,0,1-4-.4,12.07,12.07,0,0,1-3.2-1.08l.68-4.08a13.63,13.63,0,0,0,6.08,1.8,1.77,1.77,0,0,0,1.26-.38,1.21,1.21,0,0,0,.38-.86,1.53,1.53,0,0,0-.3-1,4.44,4.44,0,0,0-1.46-.94,22.89,22.89,0,0,1-2.82-1.44,9.15,9.15,0,0,1-1.92-1.5A4.93,4.93,0,0,1,147.48,95a5.48,5.48,0,0,1-.34-2,4.51,4.51,0,0,1,1.93-3.9,8.5,8.5,0,0,1,5.05-1.38,15,15,0,0,1,3,.26,13.41,13.41,0,0,1,3,1l-.64,4a9.31,9.31,0,0,0-2.75-1.1,12.34,12.34,0,0,0-2.63-.3,1.79,1.79,0,0,0-1.27.34,1.18,1.18,0,0,0-.34.9,1.33,1.33,0,0,0,.54,1.1,11.87,11.87,0,0,0,2.14,1.1,24.78,24.78,0,0,1,2.42,1.38,8.29,8.29,0,0,1,1.64,1.36,4.31,4.31,0,0,1,.91,1.48A5.29,5.29,0,0,1,160.38,101Z"/><path class="cls-2" d="M176.65,105.87v-10a5.32,5.32,0,0,0-.18-1.54,2,2,0,0,0-.51-.89,1.62,1.62,0,0,0-.73-.41,4,4,0,0,0-.86-.09,2.41,2.41,0,0,0-1.33.4,4,4,0,0,0-1.12,1.1,5.83,5.83,0,0,0-.8,1.64,6.53,6.53,0,0,0-.31,2v7.75h-5.32V78.47h5.28v11.8a6,6,0,0,1,2.2-1.54,7.33,7.33,0,0,1,2.69-.46,8.5,8.5,0,0,1,2.3.31,5.9,5.9,0,0,1,2,1,5.12,5.12,0,0,1,1.44,1.81,6.25,6.25,0,0,1,.55,2.77v11.72Z"/><path class="cls-2" d="M194.61,83.44a2.19,2.19,0,0,1-.92,1.78,3.7,3.7,0,0,1-4.44,0,2.43,2.43,0,0,1-1-1.83,2.2,2.2,0,0,1,.88-1.84,3.86,3.86,0,0,1,3.5-.54,3.13,3.13,0,0,1,1,.56,2.81,2.81,0,0,1,.68.85A2.11,2.11,0,0,1,194.61,83.44Zm-6,22.43V88.27h5.32v17.6Z"/><path class="cls-2" d="M211.33,105.87v-10a3.94,3.94,0,0,0-.26-1.62,2.29,2.29,0,0,0-.62-.87,1.59,1.59,0,0,0-.76-.35A6.22,6.22,0,0,0,209,93a4.11,4.11,0,0,0-.84.15,2.88,2.88,0,0,0-1.22.74,5,5,0,0,0-1.1,1.69,7.79,7.79,0,0,0-.48,3v7.29h-5.32V94.23a19.92,19.92,0,0,0-.24-3,9.61,9.61,0,0,0-.64-2.45h5.32a6.49,6.49,0,0,1,.34.92,10.3,10.3,0,0,1,.22,1,8.25,8.25,0,0,1,2.75-1.84,7.89,7.89,0,0,1,3-.6,5.84,5.84,0,0,1,2.33.46A5.46,5.46,0,0,1,215,90a6.11,6.11,0,0,1,1.23,2.06,7.93,7.93,0,0,1,.45,2.75v11Z"/><path class="cls-2" d="M239.89,106.43a18.63,18.63,0,0,1-.67,5.42,9.42,9.42,0,0,1-1.84,3.5,6.66,6.66,0,0,1-2.75,1.9,10.23,10.23,0,0,1-3.47.58,31.09,31.09,0,0,1-3.57-.22,13.22,13.22,0,0,1-3.37-.86v-4a22.86,22.86,0,0,0,3.06.86,13.36,13.36,0,0,0,2.58.3,4.56,4.56,0,0,0,1.91-.4,3.78,3.78,0,0,0,1.49-1.28,6.65,6.65,0,0,0,1-2.32,15.17,15.17,0,0,0,.34-3.48v-1.76a6.13,6.13,0,0,1-2.28,1.34,9.26,9.26,0,0,1-2.48.3,7.89,7.89,0,0,1-3.12-.6,6.86,6.86,0,0,1-2.38-1.68,7.69,7.69,0,0,1-1.52-2.62,10.31,10.31,0,0,1-.54-3.42,10.19,10.19,0,0,1,.83-4.18,9,9,0,0,1,2.38-3.18,10.46,10.46,0,0,1,3.73-2,16.13,16.13,0,0,1,4.95-.7c.56,0,1.06,0,1.5,0a10.69,10.69,0,0,1,1.27.1c.42.05.87.12,1.34.22s1,.22,1.64.38Zm-5.32-13.36c-.46-.08-.81-.14-1-.16a7.64,7.64,0,0,0-.92,0,5.05,5.05,0,0,0-3.69,1.3,4.76,4.76,0,0,0-1.34,3.58,3.41,3.41,0,0,0,.89,2.52,3,3,0,0,0,2.2.88,6.76,6.76,0,0,0,1.44-.16,2.6,2.6,0,0,0,1.26-.72,4,4,0,0,0,.88-1.62,10,10,0,0,0,.33-2.86Z"/><path class="cls-2" d="M270.05,105.39a8.8,8.8,0,0,1-.34-.92c-.06-.24-.14-.59-.22-1a7.85,7.85,0,0,1-5.64,2.44,5.76,5.76,0,0,1-2.38-.49,6.15,6.15,0,0,1-1.92-1.34,6.09,6.09,0,0,1-1.26-2.07,7.85,7.85,0,0,1-.44-2.68c0-1.09,0-2.11.08-3s.1-1.83.12-2.69,0-1.71,0-2.57-.09-1.76-.2-2.72h5.32c.08.87.13,1.71.14,2.52s0,1.62,0,2.41,0,1.61-.08,2.43-.06,1.7-.06,2.62a4.48,4.48,0,0,0,.25,1.64,1.83,1.83,0,0,0,1.46,1.2,5.08,5.08,0,0,0,.71.06,3.64,3.64,0,0,0,.85-.16,2.75,2.75,0,0,0,1.21-.73,4.78,4.78,0,0,0,1.06-1.7,8,8,0,0,0,.46-3V88.27h5.32V99.9a20,20,0,0,0,.24,3,10.3,10.3,0,0,0,.64,2.45Z"/><path class="cls-2" d="M282.37,105.87V92.07h-3.52v-3.8h3.52V83.83h5.24v4.44h4.52v3.8h-4.52v13.8Z"/><path class="cls-2" d="M309.41,93.11a4.59,4.59,0,0,1-.71,2.48,5.94,5.94,0,0,1-2,1.9,11.21,11.21,0,0,1-3.11,1.22,17.53,17.53,0,0,1-4.08.44l-.48,0a6.33,6.33,0,0,0-.65,0,3.72,3.72,0,0,0,1.2,2.38,3.82,3.82,0,0,0,2.59.86,11.82,11.82,0,0,0,5.89-1.8v4.2a11.87,11.87,0,0,1-2.9,1.26,12.23,12.23,0,0,1-3.14.38,10.37,10.37,0,0,1-3.62-.6,7.39,7.39,0,0,1-2.74-1.74,7.89,7.89,0,0,1-1.72-2.72,10.07,10.07,0,0,1-.6-3.58,11.23,11.23,0,0,1,.7-4,9.34,9.34,0,0,1,2-3.14,8.67,8.67,0,0,1,3-2,10.15,10.15,0,0,1,3.88-.72,7.29,7.29,0,0,1,4.74,1.44A4.68,4.68,0,0,1,309.41,93.11Zm-5.32.4a1.37,1.37,0,0,0-.55-1.1,2,2,0,0,0-1.38-.46,3.13,3.13,0,0,0-2.28.94,4.48,4.48,0,0,0-1.23,2.58,3.79,3.79,0,0,0,.64.08h.59Q304.1,95.55,304.09,93.51Z"/><path class="cls-2" d="M325.13,105.87v-10a3.94,3.94,0,0,0-.26-1.62,2.29,2.29,0,0,0-.62-.87,1.59,1.59,0,0,0-.76-.35,6.39,6.39,0,0,0-.68-.05,4.11,4.11,0,0,0-.84.15,2.88,2.88,0,0,0-1.22.74,5,5,0,0,0-1.1,1.69,7.79,7.79,0,0,0-.48,3v7.29h-5.32V94.23a19.92,19.92,0,0,0-.24-3,9.61,9.61,0,0,0-.64-2.45h5.32a8,8,0,0,1,.34.92,10.3,10.3,0,0,1,.22,1,8.32,8.32,0,0,1,2.74-1.84,8,8,0,0,1,3-.6,5.77,5.77,0,0,1,2.33.46A5.6,5.6,0,0,1,328.77,90,6.11,6.11,0,0,1,330,92.1a7.93,7.93,0,0,1,.45,2.75v11Z"/><path class="cls-2" d="M349.57,101a5,5,0,0,1-1.69,4,7.06,7.06,0,0,1-4.77,1.48,20.48,20.48,0,0,1-4.06-.4,12.33,12.33,0,0,1-3.2-1.08l.68-4.08a13.66,13.66,0,0,0,6.08,1.8,1.74,1.74,0,0,0,1.26-.38,1.17,1.17,0,0,0,.38-.86,1.53,1.53,0,0,0-.3-1,4.44,4.44,0,0,0-1.46-.94,24.42,24.42,0,0,1-2.82-1.44,9.42,9.42,0,0,1-1.92-1.5A5.26,5.26,0,0,1,336.67,95a5.48,5.48,0,0,1-.34-2,4.51,4.51,0,0,1,1.94-3.9,8.48,8.48,0,0,1,5.05-1.38,15,15,0,0,1,3,.26,13.41,13.41,0,0,1,3,1l-.64,4a9.42,9.42,0,0,0-2.75-1.1,12.41,12.41,0,0,0-2.63-.3,1.77,1.77,0,0,0-1.27.34,1.19,1.19,0,0,0-.35.9,1.32,1.32,0,0,0,.55,1.1,12,12,0,0,0,2.13,1.1,25,25,0,0,1,2.43,1.38,8.59,8.59,0,0,1,1.64,1.36,4.27,4.27,0,0,1,.9,1.48A5.29,5.29,0,0,1,349.57,101Z"/><path class="cls-2" d="M360.85,83.44a2.21,2.21,0,0,1-.92,1.78,3.47,3.47,0,0,1-2.2.73,3.42,3.42,0,0,1-2.24-.75,2.43,2.43,0,0,1-1-1.83,2.18,2.18,0,0,1,.88-1.84,3.6,3.6,0,0,1,2.32-.74,3.7,3.7,0,0,1,1.18.2,3.13,3.13,0,0,1,1,.56,2.81,2.81,0,0,1,.68.85A2.23,2.23,0,0,1,360.85,83.44Zm-6,22.43V88.27h5.32v17.6Z"/><path class="cls-2" d="M366.25,105.87V78h5.32v27.88Z"/><path class="cls-2" d="M390.45,101a5.07,5.07,0,0,1-1.69,4,7.06,7.06,0,0,1-4.77,1.48,20.48,20.48,0,0,1-4.06-.4,12.2,12.2,0,0,1-3.2-1.08l.68-4.08a13.66,13.66,0,0,0,6.08,1.8,1.74,1.74,0,0,0,1.26-.38,1.21,1.21,0,0,0,.38-.86,1.53,1.53,0,0,0-.3-1,4.44,4.44,0,0,0-1.46-.94,24.42,24.42,0,0,1-2.82-1.44,9.15,9.15,0,0,1-1.92-1.5A5.26,5.26,0,0,1,377.55,95a5.48,5.48,0,0,1-.34-2,4.51,4.51,0,0,1,1.93-3.9,8.53,8.53,0,0,1,5.06-1.38,15,15,0,0,1,3,.26,13.34,13.34,0,0,1,3,1l-.64,4a9.21,9.21,0,0,0-2.75-1.1,12.25,12.25,0,0,0-2.62-.3,1.82,1.82,0,0,0-1.28.34,1.18,1.18,0,0,0-.34.9,1.32,1.32,0,0,0,.55,1.1,11.33,11.33,0,0,0,2.13,1.1,25,25,0,0,1,2.43,1.38,8.5,8.5,0,0,1,1.63,1.36,4.16,4.16,0,0,1,.91,1.48A5.29,5.29,0,0,1,390.45,101Z"/><path class="cls-2" d="M401.77,103.4a2.14,2.14,0,0,1-.91,1.76,3.52,3.52,0,0,1-2.21.71,3.46,3.46,0,0,1-2.23-.76,2.31,2.31,0,0,1-.06-3.66,3.19,3.19,0,0,1,2.13-.74,3.52,3.52,0,0,1,2.33.79A2.41,2.41,0,0,1,401.77,103.4Z"/></svg>