<svg id="Layer_1" data-name="Layer 1" xmlns="http://www.w3.org/2000/svg" viewBox="0 0 450 140"><defs><style>.cls-1{fill:#ffdb27;stroke:#fff;stroke-miterlimit:10;stroke-width:4px;}.cls-2{fill:#323232;}</style></defs><path class="cls-1" d="M74.58,135H375.42C413.85,135,445,105.9,445,70h0c0-35.9-31.15-65-69.58-65H74.58C36.15,5,5,34.1,5,70H5C5,105.9,36.15,135,74.58,135Z"/><path class="cls-2" d="M193,109c0-.16-.05-.35-.08-.56s-.06-.4-.08-.64-.06-.53-.09-.88a7.36,7.36,0,0,1-2.64,2,8.18,8.18,0,0,1-3.17.58,8,8,0,0,1-3.19-.62,7.06,7.06,0,0,1-2.43-1.72,8,8,0,0,1-1.56-2.66,10.33,10.33,0,0,1-.56-3.48,11.89,11.89,0,0,1,.66-4,9.59,9.59,0,0,1,1.84-3.18,8.28,8.28,0,0,1,2.82-2.08,8.68,8.68,0,0,1,3.6-.74,12.48,12.48,0,0,1,1.76.12,10.11,10.11,0,0,1,2,.52V81.12h5.32v21.8c0,.45,0,1,.06,1.72s.09,1.36.14,2,.12,1.53.2,2.36Zm-1.16-12.84a5.76,5.76,0,0,0-1.48-.4,13,13,0,0,0-1.43-.08,4,4,0,0,0-3.22,1.38,5.56,5.56,0,0,0-1.19,3.78,4.13,4.13,0,0,0,.83,2.74,2.86,2.86,0,0,0,2.29,1,4.67,4.67,0,0,0,1.64-.28,3.06,3.06,0,0,0,1.33-1,5,5,0,0,0,.9-1.78,9.68,9.68,0,0,0,.33-2.74Z"/><path class="cls-2" d="M215.12,96.32c-.38-.08-.67-.13-.88-.16a5.2,5.2,0,0,0-.72,0,4.07,4.07,0,0,0-3.46,1.56,7.63,7.63,0,0,0-1.18,4.65V109h-5.32V97.45c0-.66,0-1.22,0-1.71s0-.93-.1-1.35-.13-.83-.22-1.23-.22-.87-.38-1.39h5c.08.33.16.61.23.84a6,6,0,0,1,.14.66c0,.2.05.42.08.65a7,7,0,0,1,0,.85,9.14,9.14,0,0,1,2.28-2.61,4.33,4.33,0,0,1,2.54-.76,3.61,3.61,0,0,1,.94.1,10.34,10.34,0,0,1,1.06.39Z"/><path class="cls-2" d="M224.76,86.57a2.21,2.21,0,0,1-.92,1.78,3.7,3.7,0,0,1-4.44,0,2.41,2.41,0,0,1-1-1.83,2.17,2.17,0,0,1,.88-1.83,3.55,3.55,0,0,1,2.32-.75,3.7,3.7,0,0,1,1.18.2,3.33,3.33,0,0,1,1,.56,2.81,2.81,0,0,1,.68.85A2.26,2.26,0,0,1,224.76,86.57Zm-6,22.43V91.4h5.32V109Z"/><path class="cls-2" d="M241.48,109V99a4.14,4.14,0,0,0-.26-1.62,2.5,2.5,0,0,0-.62-.87,1.62,1.62,0,0,0-.76-.34,4.82,4.82,0,0,0-.68-.06,4.11,4.11,0,0,0-.84.15,2.92,2.92,0,0,0-1.22.74A4.85,4.85,0,0,0,236,98.7a7.79,7.79,0,0,0-.48,3V109H230.2V97.37a20,20,0,0,0-.24-3,10.17,10.17,0,0,0-.64-2.45h5.32a8,8,0,0,1,.34.92c.06.24.14.59.22,1A8.22,8.22,0,0,1,237.94,92a7.93,7.93,0,0,1,3-.6,5.81,5.81,0,0,1,2.33.47,5.43,5.43,0,0,1,1.86,1.3,5.92,5.92,0,0,1,1.24,2.07A7.87,7.87,0,0,1,246.8,98v11Z"/><path class="cls-2" d="M263.76,98.6l8.52,10.4h-7l-6.64-8.68V109h-5.32V81.12h5.32V97.2l6.48-5.8h7.64Z"/><path class="cls-2" d="M280.76,106.54a2.15,2.15,0,0,1-.91,1.75,3.52,3.52,0,0,1-2.21.71,3.39,3.39,0,0,1-2.23-.76,2.31,2.31,0,0,1-.06-3.66,3.19,3.19,0,0,1,2.13-.74,3.49,3.49,0,0,1,2.32.79A2.41,2.41,0,0,1,280.76,106.54Z"/><path class="cls-2" d="M103.66,57.48H97.5l-5-16.63c-.13-.37-.27-.79-.4-1.27l-.36-1.35c-.13-.48-.25-1-.36-1.48-.13.56-.27,1.08-.4,1.55s-.26.9-.38,1.35-.25.86-.38,1.23L84.7,57.48H79l-8-27.92h6.64l3.84,16.09c.08.37.17.75.26,1.15s.18.78.26,1.15.2.84.28,1.23c.16-.55.29-1,.4-1.33s.19-.61.26-.85.14-.47.22-.7l.32-.89,5.4-15.85h6l4.6,15.93.4,1.35c.16.53.31,1,.44,1.51s.33,1.12.52,1.71c.13-.59.25-1.15.36-1.71s.22-1,.34-1.47a13.48,13.48,0,0,1,.38-1.31l4.64-16h6.68Z"/><path class="cls-2" d="M129.06,44.72a4.54,4.54,0,0,1-.71,2.48,5.85,5.85,0,0,1-2,1.9,10.91,10.91,0,0,1-3.11,1.22,17.13,17.13,0,0,1-4.08.44,4.19,4.19,0,0,1-.48,0l-.65,0a3.67,3.67,0,0,0,1.2,2.38,3.77,3.77,0,0,0,2.59.86,11.85,11.85,0,0,0,5.89-1.8v4.2a11.3,11.3,0,0,1-2.9,1.26,11.85,11.85,0,0,1-3.14.38,10.37,10.37,0,0,1-3.62-.6,7.39,7.39,0,0,1-2.74-1.74,7.65,7.65,0,0,1-1.72-2.72,10,10,0,0,1-.6-3.58,11.09,11.09,0,0,1,.7-4,9.44,9.44,0,0,1,2-3.14,8.67,8.67,0,0,1,3-2,10.15,10.15,0,0,1,3.88-.72,7.32,7.32,0,0,1,4.74,1.44A4.68,4.68,0,0,1,129.06,44.72Zm-5.32.4a1.4,1.4,0,0,0-.55-1.1,2.09,2.09,0,0,0-1.38-.46,3.17,3.17,0,0,0-2.28.94,4.48,4.48,0,0,0-1.23,2.58,2.91,2.91,0,0,0,.64.08h.59Q123.75,47.16,123.74,45.12Z"/><path class="cls-2" d="M157.22,57.48v-10a4.08,4.08,0,0,0-.26-1.62,2.21,2.21,0,0,0-.62-.87,1.59,1.59,0,0,0-.76-.35,4.7,4.7,0,0,0-.68-.06,4.35,4.35,0,0,0-.84.16,2.89,2.89,0,0,0-1.22.73,5,5,0,0,0-1.1,1.7,7.76,7.76,0,0,0-.48,3v7.28h-5.32V45.85a19.82,19.82,0,0,0-.24-3,9.82,9.82,0,0,0-.64-2.46h5.32a8.8,8.8,0,0,1,.34.92c.07.24.14.59.22,1a8.48,8.48,0,0,1,2.74-1.84,8,8,0,0,1,3-.6,5.81,5.81,0,0,1,2.33.47,5.46,5.46,0,0,1,1.86,1.31,5.79,5.79,0,0,1,1.24,2.06,7.91,7.91,0,0,1,.45,2.74v11Z"/><path class="cls-2" d="M184.26,44.72a4.54,4.54,0,0,1-.71,2.48,5.94,5.94,0,0,1-2,1.9,10.91,10.91,0,0,1-3.11,1.22,17.13,17.13,0,0,1-4.08.44,4.19,4.19,0,0,1-.48,0l-.65,0a3.67,3.67,0,0,0,1.2,2.38A3.77,3.77,0,0,0,177,54a11.85,11.85,0,0,0,5.89-1.8v4.2a11.3,11.3,0,0,1-2.9,1.26,11.85,11.85,0,0,1-3.14.38,10.37,10.37,0,0,1-3.62-.6,7.39,7.39,0,0,1-2.74-1.74,7.65,7.65,0,0,1-1.72-2.72,10,10,0,0,1-.6-3.58,11.09,11.09,0,0,1,.7-4,9.44,9.44,0,0,1,2-3.14,8.67,8.67,0,0,1,3-2,10.15,10.15,0,0,1,3.88-.72,7.32,7.32,0,0,1,4.74,1.44A4.68,4.68,0,0,1,184.26,44.72Zm-5.32.4a1.4,1.4,0,0,0-.55-1.1,2.13,2.13,0,0,0-1.38-.46,3.17,3.17,0,0,0-2.28.94,4.42,4.42,0,0,0-1.23,2.58,2.84,2.84,0,0,0,.64.08h.59Q178.95,47.16,178.94,45.12Z"/><path class="cls-2" d="M203.9,44.72a4.54,4.54,0,0,1-.71,2.48,5.94,5.94,0,0,1-2,1.9,10.91,10.91,0,0,1-3.11,1.22,17.13,17.13,0,0,1-4.08.44,4.19,4.19,0,0,1-.48,0l-.65,0a3.67,3.67,0,0,0,1.2,2.38,3.77,3.77,0,0,0,2.59.86,11.85,11.85,0,0,0,5.89-1.8v4.2a11.3,11.3,0,0,1-2.9,1.26,11.85,11.85,0,0,1-3.14.38,10.37,10.37,0,0,1-3.62-.6,7.39,7.39,0,0,1-2.74-1.74,7.65,7.65,0,0,1-1.72-2.72,10,10,0,0,1-.6-3.58,11.09,11.09,0,0,1,.7-4,9.44,9.44,0,0,1,2-3.14,8.67,8.67,0,0,1,3-2,10.15,10.15,0,0,1,3.88-.72,7.32,7.32,0,0,1,4.74,1.44A4.71,4.71,0,0,1,203.9,44.72Zm-5.32.4A1.4,1.4,0,0,0,198,44a2.13,2.13,0,0,0-1.38-.46,3.17,3.17,0,0,0-2.28.94,4.42,4.42,0,0,0-1.23,2.58,2.84,2.84,0,0,0,.64.08h.59Q198.59,47.16,198.58,45.12Z"/><path class="cls-2" d="M221.26,57.48c0-.16,0-.34-.08-.56s-.06-.4-.08-.64-.06-.53-.09-.88a7.22,7.22,0,0,1-2.64,2,8.18,8.18,0,0,1-3.17.58,7.79,7.79,0,0,1-3.19-.62,6.81,6.81,0,0,1-2.42-1.72A7.72,7.72,0,0,1,208,53a10.33,10.33,0,0,1-.56-3.48,11.93,11.93,0,0,1,.66-4A9.8,9.8,0,0,1,210,42.26a8.41,8.41,0,0,1,2.82-2.08,8.68,8.68,0,0,1,3.6-.74,12.48,12.48,0,0,1,1.76.12,10.89,10.89,0,0,1,2,.52V29.6h5.32V51.4c0,.46,0,1,.06,1.72s.09,1.36.14,2,.12,1.54.2,2.36ZM220.1,44.64a6.2,6.2,0,0,0-1.48-.4,13,13,0,0,0-1.43-.08A4,4,0,0,0,214,45.54a5.61,5.61,0,0,0-1.18,3.78,4.11,4.11,0,0,0,.83,2.74,2.83,2.83,0,0,0,2.29,1,4.67,4.67,0,0,0,1.64-.28,3,3,0,0,0,1.33-1,5,5,0,0,0,.9-1.78,9.63,9.63,0,0,0,.33-2.74Z"/><path class="cls-2" d="M266.06,55.53A3.12,3.12,0,0,1,265,57a3.29,3.29,0,0,1-1.82.44,3,3,0,0,1-1.84-.48,3.36,3.36,0,0,1-1-1.63L256.9,45l-3.56,10.57a2.55,2.55,0,0,1-1,1.47,3.59,3.59,0,0,1-1.9.44,7.58,7.58,0,0,1-.84,0,2.28,2.28,0,0,1-.76-.26,2.17,2.17,0,0,1-.68-.62,4.4,4.4,0,0,1-.56-1.13L242,39.88h5.4L249.7,47c.08.26.17.56.26.91s.19.7.3,1,.22.81.36,1.25a6.64,6.64,0,0,1,.24-1c.08-.29.16-.59.26-.92l.26-.91,2.24-7.5h6.48l2.4,7.85a7.63,7.63,0,0,0,.22.76c.09.27.18.54.26.8a4.59,4.59,0,0,1,.24.9c.08-.26.16-.54.24-.82.13-.52.28-1,.44-1.49l2.36-8h5.6Z"/><path class="cls-2" d="M287.86,57.48a6.58,6.58,0,0,0-.05-.68c0-.21-.05-.46-.06-.76s0-.6-.06-.92a6.24,6.24,0,0,1-2.61,2.06,8.36,8.36,0,0,1-3.41.7,6.33,6.33,0,0,1-5.11-2.16,9.32,9.32,0,0,1-1.82-6.16,9.48,9.48,0,0,1,2.94-7.46c2-1.74,4.75-2.62,8.37-2.62.6,0,1.14,0,1.62,0s1,.08,1.46.14,1,.16,1.51.26,1.08.26,1.7.44V51.72c0,.62,0,1.26,0,1.94s.06,1.3.12,1.86.1,1.32.16,2Zm-.84-13a9.57,9.57,0,0,0-1.26-.2c-.38,0-.74,0-1.06,0a4.28,4.28,0,0,0-3.42,1.42,5.88,5.88,0,0,0-1.22,3.94,3.89,3.89,0,0,0,.73,2.56,2.54,2.54,0,0,0,2.08.88,3.64,3.64,0,0,0,1.6-.36,4,4,0,0,0,1.33-1,5,5,0,0,0,.89-1.56,5.82,5.82,0,0,0,.33-2Z"/><path class="cls-2" d="M299.14,57.48V43.68h-3.52v-3.8h3.52V35.44h5.24v4.44h4.52v3.8h-4.52v13.8Z"/><path class="cls-2" d="M326.18,44.72a4.54,4.54,0,0,1-.71,2.48,6,6,0,0,1-2,1.9,10.86,10.86,0,0,1-3.12,1.22,17,17,0,0,1-4.07.44,4.19,4.19,0,0,1-.48,0l-.65,0a3.67,3.67,0,0,0,1.2,2.38,3.77,3.77,0,0,0,2.59.86,11.85,11.85,0,0,0,5.89-1.8v4.2a11.45,11.45,0,0,1-2.9,1.26,11.91,11.91,0,0,1-3.14.38,10.33,10.33,0,0,1-3.62-.6,7.31,7.31,0,0,1-2.74-1.74,7.65,7.65,0,0,1-1.72-2.72,10,10,0,0,1-.6-3.58,11.09,11.09,0,0,1,.7-4,9.28,9.28,0,0,1,2-3.14,8.58,8.58,0,0,1,3-2,10.12,10.12,0,0,1,3.88-.72,7.32,7.32,0,0,1,4.74,1.44A4.71,4.71,0,0,1,326.18,44.72Zm-5.32.4a1.4,1.4,0,0,0-.55-1.1,2.13,2.13,0,0,0-1.38-.46,3.17,3.17,0,0,0-2.28.94,4.42,4.42,0,0,0-1.23,2.58,2.83,2.83,0,0,0,.63.08h.6C319.45,47.16,320.86,46.48,320.86,45.12Z"/><path class="cls-2" d="M342.58,44.8c-.38-.08-.67-.13-.88-.16s-.46,0-.72,0a4.07,4.07,0,0,0-3.46,1.57,7.61,7.61,0,0,0-1.18,4.64v6.67H331V45.93c0-.65,0-1.22,0-1.7s-.05-.93-.1-1.35-.13-.83-.22-1.24-.22-.86-.38-1.39h5.05c.08.33.16.61.22.84a5.06,5.06,0,0,1,.15.66c0,.21,0,.43.08.66a6.74,6.74,0,0,1,0,.84,9.12,9.12,0,0,1,2.28-2.61,4.4,4.4,0,0,1,2.54-.76,3.62,3.62,0,0,1,.94.11,10.34,10.34,0,0,1,1.06.39Z"/><path class="cls-2" d="M359.78,57.48V43.68h-3.52v-3.8h3.52V35.44H365v4.44h4.52v3.8H365v13.8Z"/><path class="cls-2" d="M389,48.63a10.13,10.13,0,0,1-.66,3.79,7.67,7.67,0,0,1-1.87,2.77,8.12,8.12,0,0,1-2.91,1.71,12.51,12.51,0,0,1-7.53,0,8.17,8.17,0,0,1-2.9-1.71,8,8,0,0,1-1.9-2.77,11,11,0,0,1,0-7.49A7.6,7.6,0,0,1,376,40.47a12.71,12.71,0,0,1,7.59,0,8.06,8.06,0,0,1,2.91,1.68,7.42,7.42,0,0,1,1.87,2.75A10,10,0,0,1,389,48.63Zm-5.32,0a4,4,0,0,0-1.08-3,3.93,3.93,0,0,0-2.88-1.06,3.73,3.73,0,0,0-2.85,1.06,4.2,4.2,0,0,0-1,3,4.41,4.41,0,0,0,1,3.06,3.64,3.64,0,0,0,2.87,1.07,3.93,3.93,0,0,0,2.93-1A4.29,4.29,0,0,0,383.7,48.63Z"/></svg>