<svg id="Layer_1" data-name="Layer 1" xmlns="http://www.w3.org/2000/svg" viewBox="0 0 450 140"><defs><style>.cls-1{fill:#ffdb27;stroke:#fff;stroke-miterlimit:10;stroke-width:4px;}.cls-2{fill:#323232;}</style></defs><path class="cls-1" d="M74.58,135H375.42C413.85,135,445,105.9,445,70h0c0-35.9-31.15-65-69.58-65H74.58C36.15,5,5,34.1,5,70H5C5,105.9,36.15,135,74.58,135Z"/><path class="cls-2" d="M106.76,58.48H100.6l-5-16.63c-.13-.37-.26-.79-.4-1.27l-.36-1.35c-.13-.48-.25-1-.36-1.48-.13.56-.26,1.08-.4,1.55s-.26.9-.38,1.35-.24.86-.38,1.23L87.8,58.48H82.08L74,30.56h6.64l3.84,16.09c.08.37.17.75.26,1.15S85,48.58,85,49s.2.84.28,1.23c.16-.55.3-1,.4-1.33s.2-.61.26-.85.14-.47.22-.7l.32-.89,5.4-15.85h6l4.6,15.93.4,1.35c.16.53.31,1,.44,1.51s.34,1.12.52,1.71c.14-.59.26-1.15.36-1.71s.22-1,.34-1.47a13.48,13.48,0,0,1,.38-1.31l4.64-16h6.68Z"/><path class="cls-2" d="M132.16,45.72a4.54,4.54,0,0,1-.71,2.48,5.85,5.85,0,0,1-2,1.9,10.91,10.91,0,0,1-3.11,1.22,17,17,0,0,1-4.08.44,4.19,4.19,0,0,1-.48,0l-.65,0a3.67,3.67,0,0,0,1.2,2.38,3.77,3.77,0,0,0,2.59.86,11.82,11.82,0,0,0,5.89-1.8v4.2a11.15,11.15,0,0,1-2.9,1.26,11.8,11.8,0,0,1-3.14.38,10.37,10.37,0,0,1-3.62-.6,7.39,7.39,0,0,1-2.74-1.74,7.79,7.79,0,0,1-1.72-2.72,10,10,0,0,1-.6-3.58,11.31,11.31,0,0,1,.7-4,9.44,9.44,0,0,1,2-3.14,8.67,8.67,0,0,1,3-2,10.19,10.19,0,0,1,3.88-.72,7.29,7.29,0,0,1,4.74,1.44A4.68,4.68,0,0,1,132.16,45.72Zm-5.32.4a1.4,1.4,0,0,0-.55-1.1,2.09,2.09,0,0,0-1.38-.46,3.17,3.17,0,0,0-2.28.94,4.54,4.54,0,0,0-1.23,2.58,3,3,0,0,0,.64.08h.59Q126.85,48.16,126.84,46.12Z"/><path class="cls-2" d="M160.32,58.48v-10a3.9,3.9,0,0,0-.26-1.62,2.21,2.21,0,0,0-.62-.87,1.59,1.59,0,0,0-.76-.35,4.59,4.59,0,0,0-.68-.06,4.35,4.35,0,0,0-.84.16,3,3,0,0,0-1.22.73,5,5,0,0,0-1.1,1.7,7.76,7.76,0,0,0-.48,3v7.28H149V46.85a19.82,19.82,0,0,0-.24-3,9.82,9.82,0,0,0-.64-2.46h5.32a8.8,8.8,0,0,1,.34.92c.07.24.14.59.22,1a8.41,8.41,0,0,1,2.75-1.84,7.88,7.88,0,0,1,3-.6,5.86,5.86,0,0,1,2.34.47A5.66,5.66,0,0,1,164,42.66a5.92,5.92,0,0,1,1.23,2.06,7.91,7.91,0,0,1,.45,2.74v11Z"/><path class="cls-2" d="M187.36,45.72a4.54,4.54,0,0,1-.71,2.48,5.85,5.85,0,0,1-2,1.9,10.91,10.91,0,0,1-3.11,1.22,17,17,0,0,1-4.08.44,4.19,4.19,0,0,1-.48,0l-.65,0a3.67,3.67,0,0,0,1.2,2.38,3.77,3.77,0,0,0,2.59.86,11.82,11.82,0,0,0,5.89-1.8v4.2a11.3,11.3,0,0,1-2.9,1.26A11.8,11.8,0,0,1,180,59a10.37,10.37,0,0,1-3.62-.6,7.39,7.39,0,0,1-2.74-1.74,7.65,7.65,0,0,1-1.72-2.72,10,10,0,0,1-.6-3.58,11.09,11.09,0,0,1,.7-4,9.44,9.44,0,0,1,2-3.14,8.67,8.67,0,0,1,3-2,10.15,10.15,0,0,1,3.88-.72,7.32,7.32,0,0,1,4.74,1.44A4.68,4.68,0,0,1,187.36,45.72Zm-5.32.4a1.4,1.4,0,0,0-.55-1.1,2.09,2.09,0,0,0-1.38-.46,3.17,3.17,0,0,0-2.28.94,4.54,4.54,0,0,0-1.23,2.58,3,3,0,0,0,.64.08h.59Q182,48.16,182,46.12Z"/><path class="cls-2" d="M207,45.72a4.54,4.54,0,0,1-.71,2.48,5.85,5.85,0,0,1-2,1.9,10.91,10.91,0,0,1-3.11,1.22,17,17,0,0,1-4.08.44,4.19,4.19,0,0,1-.48,0l-.65,0a3.67,3.67,0,0,0,1.2,2.38,3.77,3.77,0,0,0,2.59.86,11.82,11.82,0,0,0,5.89-1.8v4.2a11.3,11.3,0,0,1-2.9,1.26,11.85,11.85,0,0,1-3.14.38,10.37,10.37,0,0,1-3.62-.6,7.39,7.39,0,0,1-2.74-1.74,7.65,7.65,0,0,1-1.72-2.72,10,10,0,0,1-.6-3.58,11.09,11.09,0,0,1,.7-4,9.44,9.44,0,0,1,2-3.14,8.67,8.67,0,0,1,3-2,10.15,10.15,0,0,1,3.88-.72,7.32,7.32,0,0,1,4.74,1.44A4.68,4.68,0,0,1,207,45.72Zm-5.32.4a1.4,1.4,0,0,0-.55-1.1,2.09,2.09,0,0,0-1.38-.46,3.17,3.17,0,0,0-2.28.94,4.54,4.54,0,0,0-1.23,2.58,2.91,2.91,0,0,0,.64.08h.59Q201.69,48.16,201.68,46.12Z"/><path class="cls-2" d="M224.36,58.48c0-.16-.05-.34-.08-.56s-.05-.4-.08-.64-.06-.53-.08-.88a7.25,7.25,0,0,1-2.65,2,8.18,8.18,0,0,1-3.17.58,7.83,7.83,0,0,1-3.19-.62,6.89,6.89,0,0,1-2.42-1.72A7.88,7.88,0,0,1,211.12,54a10.33,10.33,0,0,1-.56-3.48,11.93,11.93,0,0,1,.66-4,9.8,9.8,0,0,1,1.84-3.18,8.41,8.41,0,0,1,2.82-2.08,8.68,8.68,0,0,1,3.6-.74,12.48,12.48,0,0,1,1.76.12,10.68,10.68,0,0,1,2,.52V30.6h5.32V52.4c0,.46,0,1,.06,1.72s.09,1.36.14,2,.12,1.54.2,2.36ZM223.2,45.64a6.26,6.26,0,0,0-1.47-.4,13.3,13.3,0,0,0-1.44-.08,4,4,0,0,0-3.22,1.38,5.61,5.61,0,0,0-1.19,3.78,4.11,4.11,0,0,0,.83,2.74A2.83,2.83,0,0,0,219,54a4.67,4.67,0,0,0,1.64-.28,2.91,2.91,0,0,0,1.33-1,4.87,4.87,0,0,0,.9-1.78,9.63,9.63,0,0,0,.33-2.74Z"/><path class="cls-2" d="M269.16,56.53A3.12,3.12,0,0,1,268.1,58a3.29,3.29,0,0,1-1.82.44,3,3,0,0,1-1.84-.48,3.43,3.43,0,0,1-1-1.63L260,46l-3.56,10.57a2.55,2.55,0,0,1-1,1.47,3.59,3.59,0,0,1-1.9.44,7.58,7.58,0,0,1-.84,0,2.28,2.28,0,0,1-.76-.26,2.17,2.17,0,0,1-.68-.62,4.4,4.4,0,0,1-.56-1.13l-5.6-15.54h5.4L252.8,48c.08.26.17.56.26.91s.19.7.3,1,.23.81.36,1.25a6.64,6.64,0,0,1,.24-1c.08-.29.17-.59.26-.92l.26-.91,2.24-7.5h6.48l2.4,7.85a7.63,7.63,0,0,0,.22.76c.09.27.18.54.26.8a4.59,4.59,0,0,1,.24.9c.08-.26.16-.54.24-.82.13-.52.28-1,.44-1.49l2.36-8H275Z"/><path class="cls-2" d="M291,58.48c0-.18,0-.41,0-.68s-.05-.46-.07-.76,0-.6-.06-.92a6.24,6.24,0,0,1-2.61,2.06,8.31,8.31,0,0,1-3.4.7,6.32,6.32,0,0,1-5.11-2.16,9.26,9.26,0,0,1-1.83-6.16,9.48,9.48,0,0,1,2.94-7.46c2-1.74,4.75-2.62,8.37-2.62.6,0,1.14,0,1.63,0s1,.08,1.46.14,1,.16,1.5.26,1.08.26,1.7.44V52.72c0,.62,0,1.26,0,1.94s.07,1.3.12,1.86.11,1.32.16,2Zm-.84-13a9.57,9.57,0,0,0-1.26-.2c-.38,0-.73,0-1.06,0a4.29,4.29,0,0,0-3.42,1.42,5.88,5.88,0,0,0-1.22,3.94,3.89,3.89,0,0,0,.73,2.56A2.54,2.54,0,0,0,286,54a3.71,3.71,0,0,0,1.61-.36,4,4,0,0,0,1.32-1,4.78,4.78,0,0,0,.89-1.56,5.82,5.82,0,0,0,.33-2Z"/><path class="cls-2" d="M302.24,58.48V44.68h-3.52v-3.8h3.52V36.44h5.24v4.44H312v3.8h-4.52v13.8Z"/><path class="cls-2" d="M329.28,45.72a4.54,4.54,0,0,1-.71,2.48,5.85,5.85,0,0,1-2,1.9,10.91,10.91,0,0,1-3.11,1.22,17.07,17.07,0,0,1-4.08.44,4.19,4.19,0,0,1-.48,0l-.65,0a3.67,3.67,0,0,0,1.2,2.38A3.77,3.77,0,0,0,322,55a11.85,11.85,0,0,0,5.89-1.8v4.2a11.3,11.3,0,0,1-2.9,1.26,11.85,11.85,0,0,1-3.14.38,10.37,10.37,0,0,1-3.62-.6,7.39,7.39,0,0,1-2.74-1.74,7.65,7.65,0,0,1-1.72-2.72,10,10,0,0,1-.6-3.58,11.09,11.09,0,0,1,.7-4,9.44,9.44,0,0,1,2-3.14,8.67,8.67,0,0,1,3-2,10.15,10.15,0,0,1,3.88-.72,7.32,7.32,0,0,1,4.74,1.44A4.68,4.68,0,0,1,329.28,45.72Zm-5.32.4a1.4,1.4,0,0,0-.55-1.1,2.09,2.09,0,0,0-1.38-.46,3.17,3.17,0,0,0-2.28.94,4.48,4.48,0,0,0-1.23,2.58,2.91,2.91,0,0,0,.64.08h.59Q324,48.16,324,46.12Z"/><path class="cls-2" d="M345.68,45.8c-.37-.08-.67-.13-.88-.16s-.45,0-.72,0a4.08,4.08,0,0,0-3.46,1.57,7.61,7.61,0,0,0-1.18,4.64v6.67h-5.32V46.93c0-.65,0-1.22,0-1.7s-.05-.93-.1-1.35-.13-.83-.22-1.24-.22-.86-.38-1.39h5.05c.08.33.16.61.23.84a4.91,4.91,0,0,1,.14.66c0,.21.06.43.08.66a6.53,6.53,0,0,1,.05.84,9.11,9.11,0,0,1,2.27-2.61,4.4,4.4,0,0,1,2.54-.76,3.57,3.57,0,0,1,.94.11,9.54,9.54,0,0,1,1.06.39Z"/><path class="cls-2" d="M362.88,58.48V44.68h-3.52v-3.8h3.52V36.44h5.24v4.44h4.52v3.8h-4.52v13.8Z"/><path class="cls-2" d="M392.12,49.63a10.13,10.13,0,0,1-.66,3.79,7.67,7.67,0,0,1-1.87,2.77,8.12,8.12,0,0,1-2.91,1.71,12.48,12.48,0,0,1-7.52,0,8.12,8.12,0,0,1-2.91-1.71,7.84,7.84,0,0,1-1.89-2.77,9.93,9.93,0,0,1-.68-3.79,9.76,9.76,0,0,1,.66-3.7,7.63,7.63,0,0,1,1.85-2.75,7.79,7.79,0,0,1,2.91-1.71,12.67,12.67,0,0,1,7.58,0,8.06,8.06,0,0,1,2.91,1.68,7.42,7.42,0,0,1,1.87,2.75A10,10,0,0,1,392.12,49.63Zm-5.32,0a4,4,0,0,0-1.07-3,4,4,0,0,0-2.89-1.06A3.73,3.73,0,0,0,380,46.66a4.2,4.2,0,0,0-1,3,4.41,4.41,0,0,0,1,3.06,3.66,3.66,0,0,0,2.87,1.07,3.93,3.93,0,0,0,2.93-1A4.25,4.25,0,0,0,386.8,49.63Z"/><path class="cls-2" d="M133.74,109.48V99.54a5.39,5.39,0,0,0-.18-1.55,2,2,0,0,0-.51-.88,1.6,1.6,0,0,0-.74-.41,4,4,0,0,0-.85-.1,2.42,2.42,0,0,0-1.33.41,4.2,4.2,0,0,0-1.13,1.1,6.1,6.1,0,0,0-.79,1.64,6.22,6.22,0,0,0-.31,2v7.75h-5.32V82.08h5.28v11.8a6.21,6.21,0,0,1,2.21-1.54,7.49,7.49,0,0,1,2.68-.46,8.53,8.53,0,0,1,2.31.32,5.73,5.73,0,0,1,2,1A5,5,0,0,1,138.51,95a6.2,6.2,0,0,1,.55,2.76v11.72Z"/><path class="cls-2" d="M157.82,109.48a6.21,6.21,0,0,0,0-.68c0-.21-.05-.46-.07-.76s0-.6-.06-.92a6.28,6.28,0,0,1-2.6,2.06,8.39,8.39,0,0,1-3.41.7,6.32,6.32,0,0,1-5.11-2.16,9.26,9.26,0,0,1-1.83-6.16,9.48,9.48,0,0,1,2.94-7.46c2-1.74,4.75-2.62,8.38-2.62.59,0,1.13,0,1.62,0s1,.08,1.46.14,1,.16,1.5.26,1.08.26,1.7.44v11.36c0,.62,0,1.26,0,1.94s.07,1.3.12,1.86.11,1.32.16,2Zm-.84-13a9.57,9.57,0,0,0-1.26-.2c-.38,0-.73,0-1.06,0a4.31,4.31,0,0,0-3.42,1.42,5.88,5.88,0,0,0-1.22,3.94,4,4,0,0,0,.73,2.56,2.54,2.54,0,0,0,2.08.88,3.68,3.68,0,0,0,1.61-.36,4,4,0,0,0,1.32-1,5,5,0,0,0,.9-1.56,6.07,6.07,0,0,0,.32-2Z"/><path class="cls-2" d="M178.06,106.88c-.21.46-.41.87-.6,1.2a2.85,2.85,0,0,1-.64.82,2.13,2.13,0,0,1-.82.45,4.06,4.06,0,0,1-1.14.13A3.1,3.1,0,0,1,173,109a4.44,4.44,0,0,1-1.26-1.91l-6.28-15.19H171l3,8.1c.22.57.41,1.12.58,1.64a12,12,0,0,1,.38,1.32c.14-.36.31-.81.52-1.34s.43-1.06.64-1.58l3.16-8.14h5.48Z"/><path class="cls-2" d="M203.22,96.72a4.54,4.54,0,0,1-.71,2.48,5.85,5.85,0,0,1-2,1.9,10.91,10.91,0,0,1-3.11,1.22,17,17,0,0,1-4.08.44,4.19,4.19,0,0,1-.48,0l-.65,0a3.67,3.67,0,0,0,1.2,2.38A3.77,3.77,0,0,0,196,106a11.82,11.82,0,0,0,5.89-1.8v4.2a11.15,11.15,0,0,1-2.9,1.26,11.85,11.85,0,0,1-3.14.38,10.37,10.37,0,0,1-3.62-.6,7.39,7.39,0,0,1-2.74-1.74,7.65,7.65,0,0,1-1.72-2.72,10,10,0,0,1-.6-3.58,11.31,11.31,0,0,1,.7-4,9.44,9.44,0,0,1,2-3.14,8.67,8.67,0,0,1,3-2,10.19,10.19,0,0,1,3.88-.72,7.32,7.32,0,0,1,4.74,1.44A4.68,4.68,0,0,1,203.22,96.72Zm-5.32.4a1.4,1.4,0,0,0-.55-1.1,2.09,2.09,0,0,0-1.38-.46,3.17,3.17,0,0,0-2.28.94,4.54,4.54,0,0,0-1.23,2.58,2.91,2.91,0,0,0,.64.08h.59Q197.91,99.16,197.9,97.12Z"/><path class="cls-2" d="M232.34,109.48c0-.18,0-.41,0-.68s-.05-.46-.07-.76,0-.6-.06-.92a6.28,6.28,0,0,1-2.6,2.06,8.39,8.39,0,0,1-3.41.7,6.32,6.32,0,0,1-5.11-2.16,9.26,9.26,0,0,1-1.83-6.16,9.48,9.48,0,0,1,2.94-7.46c2-1.74,4.75-2.62,8.38-2.62.59,0,1.13,0,1.62,0s1,.08,1.46.14,1,.16,1.5.26,1.08.26,1.7.44v11.36c0,.62,0,1.26,0,1.94s.07,1.3.12,1.86.11,1.32.16,2Zm-.84-13a9.57,9.57,0,0,0-1.26-.2c-.38,0-.73,0-1.06,0a4.31,4.31,0,0,0-3.42,1.42,5.88,5.88,0,0,0-1.22,3.94,4,4,0,0,0,.73,2.56,2.54,2.54,0,0,0,2.08.88,3.68,3.68,0,0,0,1.61-.36,4,4,0,0,0,1.32-1,5,5,0,0,0,.9-1.56,6.07,6.07,0,0,0,.32-2Z"/><path class="cls-2" d="M272.82,99.41a11.83,11.83,0,0,1-.69,4.14,8.84,8.84,0,0,1-2,3.18,8.94,8.94,0,0,1-3.08,2,10.74,10.74,0,0,1-4,.72,20.33,20.33,0,0,1-4-.41,18.69,18.69,0,0,1-3.76-1.14V82.05h5.32V93.93a6.28,6.28,0,0,1,2.28-1.53,7.72,7.72,0,0,1,2.9-.52,7.45,7.45,0,0,1,2.87.54,6.07,6.07,0,0,1,2.22,1.52,6.87,6.87,0,0,1,1.42,2.37A9,9,0,0,1,272.82,99.41Zm-5.32,1a3.5,3.5,0,0,0-.81-2.45,2.89,2.89,0,0,0-2.26-.89,3.71,3.71,0,0,0-2.83,1.22,3.69,3.69,0,0,0-.76,1.28,4.58,4.58,0,0,0-.26,1.52v3a5.23,5.23,0,0,0,1.26.47,8.13,8.13,0,0,0,1.45.1,4.14,4.14,0,0,0,3.09-1.14A4.3,4.3,0,0,0,267.5,100.38Z"/><path class="cls-2" d="M290.14,109.48a6.58,6.58,0,0,0-.05-.68c0-.21,0-.46-.06-.76s0-.6-.06-.92a6.24,6.24,0,0,1-2.61,2.06,8.35,8.35,0,0,1-3.4.7,6.34,6.34,0,0,1-5.12-2.16,9.32,9.32,0,0,1-1.82-6.16A9.48,9.48,0,0,1,280,94.1c2-1.74,4.75-2.62,8.37-2.62.6,0,1.14,0,1.63,0s1,.08,1.46.14,1,.16,1.5.26,1.08.26,1.7.44v11.36c0,.62,0,1.26,0,1.94s.07,1.3.12,1.86.11,1.32.16,2Zm-.84-13a9.57,9.57,0,0,0-1.26-.2c-.38,0-.74,0-1.06,0a4.28,4.28,0,0,0-3.42,1.42,5.88,5.88,0,0,0-1.22,3.94,3.89,3.89,0,0,0,.73,2.56,2.54,2.54,0,0,0,2.08.88,3.71,3.71,0,0,0,1.61-.36,4,4,0,0,0,1.32-1,4.78,4.78,0,0,0,.89-1.56,5.82,5.82,0,0,0,.33-2Z"/><path class="cls-2" d="M301.42,109.48V95.68H297.9v-3.8h3.52V87.44h5.24v4.44h4.52v3.8h-4.52v13.8Z"/><path class="cls-2" d="M325.58,109.48V99.54A5.39,5.39,0,0,0,325.4,98a2.08,2.08,0,0,0-.52-.88,1.57,1.57,0,0,0-.73-.41,4,4,0,0,0-.86-.1A2.47,2.47,0,0,0,322,97a4.17,4.17,0,0,0-1.12,1.1,6.11,6.11,0,0,0-.8,1.64,6.5,6.5,0,0,0-.3,2v7.75h-5.32V82.08h5.28v11.8a6.12,6.12,0,0,1,2.21-1.54,7.49,7.49,0,0,1,2.68-.46,8.53,8.53,0,0,1,2.31.32,5.73,5.73,0,0,1,2,1A5,5,0,0,1,330.35,95a6.34,6.34,0,0,1,.55,2.76v11.72Z"/><path class="cls-2" d="M343.58,107a2.18,2.18,0,0,1-.91,1.76,3.52,3.52,0,0,1-2.21.7,3.43,3.43,0,0,1-2.23-.75,2.31,2.31,0,0,1-.06-3.66,3.15,3.15,0,0,1,2.13-.75,3.54,3.54,0,0,1,2.33.8A2.41,2.41,0,0,1,343.58,107Z"/></svg>