<svg id="Layer_1" data-name="Layer 1" xmlns="http://www.w3.org/2000/svg" viewBox="0 0 450 140"><defs><style>.cls-1{fill:#ffdb27;stroke:#fff;stroke-miterlimit:10;stroke-width:4px;}.cls-2{fill:#323232;}</style></defs><path class="cls-1" d="M74.58,135H375.42C413.85,135,445,105.9,445,70h0c0-35.9-31.15-65-69.58-65H74.58C36.15,5,5,34.1,5,70H5C5,105.9,36.15,135,74.58,135Z"/><path class="cls-2" d="M86.72,50.84a6.26,6.26,0,0,1-3.2,5.7c-2.14,1.3-5.46,1.94-10,1.94l-1.72,0-2.22-.1c-.78,0-1.57-.1-2.35-.18s-1.49-.16-2.1-.24V30.56h7.94a29.39,29.39,0,0,1,5,.38,11.79,11.79,0,0,1,3.68,1.21,5.66,5.66,0,0,1,3,5.28,7,7,0,0,1-1,3.64,6,6,0,0,1-3.49,2.44A8.67,8.67,0,0,1,85.1,46,6.94,6.94,0,0,1,86.72,50.84ZM78.45,38.31A2.44,2.44,0,0,0,76.9,35.9a10,10,0,0,0-4.3-.62l-1.15,0v6.21l1.55,0a7.67,7.67,0,0,0,4.16-.72A2.77,2.77,0,0,0,78.45,38.31ZM79.81,50.2q0-4-6.24-3.92a7.26,7.26,0,0,1-.8,0H71.45v7.21c.45,0,.92.09,1.4.12l1.16,0a8.71,8.71,0,0,0,4.4-.85A2.87,2.87,0,0,0,79.81,50.2Z"/><path class="cls-2" d="M97.53,36.05a2.2,2.2,0,0,1-.92,1.78,3.72,3.72,0,0,1-4.44,0,2.37,2.37,0,0,1-1-1.84,2.17,2.17,0,0,1,.88-1.83,3.55,3.55,0,0,1,2.32-.75,3.46,3.46,0,0,1,1.18.21A2.92,2.92,0,0,1,97.27,35,2.22,2.22,0,0,1,97.53,36.05Zm-6,22.43V40.88h5.32v17.6Z"/><path class="cls-2" d="M114.93,45.8c-.38-.08-.67-.13-.88-.16s-.46,0-.72,0a4.07,4.07,0,0,0-3.46,1.57,7.61,7.61,0,0,0-1.18,4.64v6.67h-5.32V46.93c0-.65,0-1.22,0-1.7s0-.93-.1-1.35-.13-.83-.22-1.24-.22-.86-.38-1.39h5c.08.33.16.61.23.84s.11.46.14.66.05.43.08.66a6.74,6.74,0,0,1,0,.84,9.12,9.12,0,0,1,2.28-2.61,4.4,4.4,0,0,1,2.54-.76A3.62,3.62,0,0,1,114,41a10.34,10.34,0,0,1,1.06.39Z"/><path class="cls-2" d="M130.37,58.48c0-.16-.05-.34-.08-.56s-.06-.4-.09-.64,0-.53-.08-.88a7.22,7.22,0,0,1-2.64,2,8.21,8.21,0,0,1-3.17.58,7.79,7.79,0,0,1-3.19-.62,6.93,6.93,0,0,1-2.43-1.72A7.7,7.7,0,0,1,117.13,54a10.08,10.08,0,0,1-.56-3.48,11.93,11.93,0,0,1,.66-4,9.8,9.8,0,0,1,1.84-3.18,8.22,8.22,0,0,1,2.82-2.08,8.68,8.68,0,0,1,3.6-.74,12.48,12.48,0,0,1,1.76.12,10.89,10.89,0,0,1,2,.52V30.6h5.32V52.4c0,.46,0,1,.06,1.72s.08,1.36.14,2,.12,1.54.2,2.36Zm-1.16-12.84a6.2,6.2,0,0,0-1.48-.4,13.11,13.11,0,0,0-1.43-.08,4,4,0,0,0-3.23,1.38,5.61,5.61,0,0,0-1.18,3.78,4.06,4.06,0,0,0,.83,2.74A2.82,2.82,0,0,0,125,54a4.67,4.67,0,0,0,1.64-.28,3,3,0,0,0,1.33-1,4.87,4.87,0,0,0,.89-1.78,9.25,9.25,0,0,0,.34-2.74Z"/><path class="cls-2" d="M153.13,53.6a5,5,0,0,1-1.7,4,7,7,0,0,1-4.76,1.48,19.76,19.76,0,0,1-4.06-.4,11.39,11.39,0,0,1-3.2-1.08l.68-4.08a13.63,13.63,0,0,0,6.08,1.8,1.73,1.73,0,0,0,1.26-.38,1.19,1.19,0,0,0,.38-.86,1.55,1.55,0,0,0-.3-1,4.8,4.8,0,0,0-1.46-.94,22.89,22.89,0,0,1-2.82-1.44,9.15,9.15,0,0,1-1.92-1.5,4.84,4.84,0,0,1-1.08-1.66,5.41,5.41,0,0,1-.34-2,4.51,4.51,0,0,1,1.93-3.9,8.52,8.52,0,0,1,5.05-1.38,15.74,15.74,0,0,1,3,.26,14.32,14.32,0,0,1,3,1l-.64,4a9.48,9.48,0,0,0-2.75-1.1,12.25,12.25,0,0,0-2.62-.3,1.87,1.87,0,0,0-1.28.34,1.21,1.21,0,0,0-.34.9,1.3,1.3,0,0,0,.55,1.1,10.75,10.75,0,0,0,2.13,1.1A25,25,0,0,1,150.32,49,8.88,8.88,0,0,1,152,50.38a4.25,4.25,0,0,1,.91,1.48A5.29,5.29,0,0,1,153.13,53.6Z"/><path class="cls-2" d="M183,58.48a6.21,6.21,0,0,0,0-.68,7.12,7.12,0,0,1-.06-.76c0-.29,0-.6-.06-.92a6.24,6.24,0,0,1-2.61,2.06,8.36,8.36,0,0,1-3.41.7,6.33,6.33,0,0,1-5.11-2.16,9.26,9.26,0,0,1-1.82-6.16,9.48,9.48,0,0,1,2.94-7.46c2-1.74,4.75-2.62,8.37-2.62.6,0,1.14,0,1.62,0s1,.08,1.46.14,1,.16,1.5.26,1.08.26,1.71.44V52.72c0,.62,0,1.26,0,1.94s.06,1.3.12,1.86.1,1.32.16,2Zm-.83-13a9.7,9.7,0,0,0-1.27-.2c-.38,0-.73,0-1.05,0a4.28,4.28,0,0,0-3.42,1.42,5.83,5.83,0,0,0-1.22,3.94,3.89,3.89,0,0,0,.73,2.56A2.54,2.54,0,0,0,178,54a3.67,3.67,0,0,0,1.6-.36,4.08,4.08,0,0,0,1.33-1,5,5,0,0,0,.89-1.56,5.82,5.82,0,0,0,.33-2Z"/><path class="cls-2" d="M204.69,58.48v-10a4.08,4.08,0,0,0-.26-1.62,2.32,2.32,0,0,0-.62-.87,1.64,1.64,0,0,0-.76-.35,4.82,4.82,0,0,0-.68-.06,4.35,4.35,0,0,0-.84.16,2.89,2.89,0,0,0-1.22.73,4.9,4.9,0,0,0-1.1,1.7,7.76,7.76,0,0,0-.48,3v7.28h-5.32V46.85a19.82,19.82,0,0,0-.24-3,10.27,10.27,0,0,0-.64-2.46h5.32a8.8,8.8,0,0,1,.34.92c.06.24.14.59.22,1a8.37,8.37,0,0,1,2.74-1.84,7.93,7.93,0,0,1,3-.6,5.84,5.84,0,0,1,2.33.47,5.46,5.46,0,0,1,1.86,1.31,5.93,5.93,0,0,1,1.24,2.06,7.91,7.91,0,0,1,.45,2.74v11Z"/><path class="cls-2" d="M229.45,58.48c0-.16-.06-.34-.08-.56s-.06-.4-.09-.64-.05-.53-.08-.88a7.17,7.17,0,0,1-2.65,2,8.13,8.13,0,0,1-3.16.58,7.79,7.79,0,0,1-3.19-.62,6.93,6.93,0,0,1-2.43-1.72A7.7,7.7,0,0,1,216.21,54a10.08,10.08,0,0,1-.56-3.48,11.93,11.93,0,0,1,.66-4,9.8,9.8,0,0,1,1.84-3.18A8.22,8.22,0,0,1,221,41.18a8.68,8.68,0,0,1,3.6-.74,12.48,12.48,0,0,1,1.76.12,10.89,10.89,0,0,1,2,.52V30.6h5.32V52.4c0,.46,0,1,.06,1.72s.08,1.36.14,2,.12,1.54.2,2.36Zm-1.16-12.84a6.2,6.2,0,0,0-1.48-.4,13.3,13.3,0,0,0-1.44-.08,4,4,0,0,0-3.22,1.38A5.61,5.61,0,0,0,221,50.32a4.06,4.06,0,0,0,.83,2.74,2.8,2.8,0,0,0,2.28,1,4.73,4.73,0,0,0,1.65-.28,3,3,0,0,0,1.33-1A5,5,0,0,0,228,51a9.6,9.6,0,0,0,.34-2.74Z"/><path class="cls-2" d="M264.28,58.48a6.21,6.21,0,0,0,0-.68,7.12,7.12,0,0,1-.06-.76c0-.29,0-.6-.07-.92a6.15,6.15,0,0,1-2.6,2.06,8.39,8.39,0,0,1-3.41.7A6.33,6.33,0,0,1,253,56.72a9.26,9.26,0,0,1-1.82-6.16,9.48,9.48,0,0,1,2.94-7.46c1.95-1.74,4.75-2.62,8.37-2.62.59,0,1.13,0,1.62,0s1,.08,1.46.14,1,.16,1.5.26,1.08.26,1.71.44V52.72c0,.62,0,1.26,0,1.94s.06,1.3.12,1.86.1,1.32.16,2Zm-.84-13a9.57,9.57,0,0,0-1.26-.2c-.38,0-.73,0-1.05,0a4.28,4.28,0,0,0-3.42,1.42,5.83,5.83,0,0,0-1.23,3.94,3.89,3.89,0,0,0,.74,2.56,2.54,2.54,0,0,0,2.07.88,3.68,3.68,0,0,0,1.61-.36,4,4,0,0,0,1.32-1,5,5,0,0,0,.9-1.56,5.83,5.83,0,0,0,.32-2Z"/><path class="cls-2" d="M286,58.48v-10a3.9,3.9,0,0,0-.26-1.62,2.21,2.21,0,0,0-.62-.87,1.55,1.55,0,0,0-.76-.35,4.58,4.58,0,0,0-.67-.06,4.1,4.1,0,0,0-.84.16,2.92,2.92,0,0,0-1.23.73,5.2,5.2,0,0,0-1.1,1.7,7.76,7.76,0,0,0-.48,3v7.28h-5.31V46.85a18.66,18.66,0,0,0-.25-3,10.33,10.33,0,0,0-.63-2.46h5.31a7,7,0,0,1,.34.92,10.41,10.41,0,0,1,.23,1,8.37,8.37,0,0,1,2.74-1.84,7.89,7.89,0,0,1,3-.6,5.84,5.84,0,0,1,2.33.47,5.46,5.46,0,0,1,1.86,1.31,5.92,5.92,0,0,1,1.23,2.06,7.91,7.91,0,0,1,.45,2.74v11Z"/><path class="cls-2" d="M304,36.05a2.17,2.17,0,0,1-.92,1.78,3.39,3.39,0,0,1-2.2.73,3.44,3.44,0,0,1-2.24-.74,2.43,2.43,0,0,1-1-1.84,2.2,2.2,0,0,1,.88-1.83,3.57,3.57,0,0,1,2.32-.75,3.41,3.41,0,0,1,1.18.21,3,3,0,0,1,1,.56,2.81,2.81,0,0,1,.68.85A2.1,2.1,0,0,1,304,36.05Zm-6,22.43V40.88h5.32v17.6Z"/><path class="cls-2" d="M332.16,58.48v-8.7a5.72,5.72,0,0,0-.67-3.26,2.16,2.16,0,0,0-1.83-.92,2.74,2.74,0,0,0-1.19.29,3,3,0,0,0-1.09.93,4.83,4.83,0,0,0-.8,1.75,10.52,10.52,0,0,0-.3,2.73v7.18H321v-8.7a6.17,6.17,0,0,0-.62-3.17,2.23,2.23,0,0,0-2.06-1A2.91,2.91,0,0,0,315.92,47a7.46,7.46,0,0,0-1,4.35v7.18H309.6v-11c0-.64,0-1.23,0-1.76a13.25,13.25,0,0,0-.14-1.49,9.93,9.93,0,0,0-.28-1.36c-.12-.44-.26-.91-.42-1.4H314q.21.63.3.93a8.85,8.85,0,0,1,.22.89,12.58,12.58,0,0,1,2.77-1.7,9,9,0,0,1,3.65-.66,6.29,6.29,0,0,1,2.73.58,4,4,0,0,1,1.81,1.62,6,6,0,0,1,2.68-1.64,11.15,11.15,0,0,1,3.44-.56,5.69,5.69,0,0,1,4.32,1.6,6.4,6.4,0,0,1,1.52,4.62V58.48Z"/><path class="cls-2" d="M356.12,58.48a6.21,6.21,0,0,0,0-.68A7.12,7.12,0,0,1,356,57c0-.29,0-.6-.07-.92a6.21,6.21,0,0,1-2.6,2.06,8.39,8.39,0,0,1-3.41.7,6.32,6.32,0,0,1-5.11-2.16A9.26,9.26,0,0,1,343,50.56a9.48,9.48,0,0,1,2.94-7.46c2-1.74,4.75-2.62,8.38-2.62.59,0,1.13,0,1.62,0s1,.08,1.46.14,1,.16,1.5.26,1.08.26,1.7.44V52.72c0,.62,0,1.26,0,1.94s.07,1.3.12,1.86.11,1.32.16,2Zm-.84-13a9.57,9.57,0,0,0-1.26-.2c-.38,0-.73,0-1.06,0a4.31,4.31,0,0,0-3.42,1.42,5.88,5.88,0,0,0-1.22,3.94,3.89,3.89,0,0,0,.74,2.56,2.52,2.52,0,0,0,2.07.88,3.68,3.68,0,0,0,1.61-.36,4,4,0,0,0,1.32-1,5,5,0,0,0,.9-1.56,6.07,6.07,0,0,0,.32-2Z"/><path class="cls-2" d="M366.52,58.48V30.6h5.32V58.48Z"/><path class="cls-2" d="M390.72,53.6a5,5,0,0,1-1.69,4,7,7,0,0,1-4.77,1.48,19.76,19.76,0,0,1-4.06-.4A11.62,11.62,0,0,1,377,57.6l.68-4.08a13.66,13.66,0,0,0,6.08,1.8,1.7,1.7,0,0,0,1.26-.38,1.19,1.19,0,0,0,.38-.86,1.55,1.55,0,0,0-.3-1,4.67,4.67,0,0,0-1.46-.94,24.42,24.42,0,0,1-2.82-1.44,9.71,9.71,0,0,1-1.92-1.5,5.15,5.15,0,0,1-1.08-1.66,5.62,5.62,0,0,1-.34-2,4.51,4.51,0,0,1,1.94-3.9,8.5,8.5,0,0,1,5.05-1.38,15.82,15.82,0,0,1,3,.26,14.51,14.51,0,0,1,3,1l-.64,4a9.71,9.71,0,0,0-2.75-1.1,12.41,12.41,0,0,0-2.63-.3,1.82,1.82,0,0,0-1.27.34,1.22,1.22,0,0,0-.35.9,1.3,1.3,0,0,0,.55,1.1,11.39,11.39,0,0,0,2.13,1.1A25,25,0,0,1,387.91,49a9,9,0,0,1,1.64,1.36,4.37,4.37,0,0,1,.9,1.48A5.29,5.29,0,0,1,390.72,53.6Z"/><path class="cls-2" d="M138.51,109.48v-10a4.08,4.08,0,0,0-.26-1.62,2.32,2.32,0,0,0-.62-.87,1.64,1.64,0,0,0-.76-.35,4.82,4.82,0,0,0-.68-.06,4.35,4.35,0,0,0-.84.16,2.89,2.89,0,0,0-1.22.73,4.9,4.9,0,0,0-1.1,1.7,7.76,7.76,0,0,0-.48,3v7.28h-5.32V97.85a19.82,19.82,0,0,0-.24-3,10.27,10.27,0,0,0-.64-2.46h5.32a8.8,8.8,0,0,1,.34.92c.06.24.14.59.22,1A8.37,8.37,0,0,1,135,92.48a7.89,7.89,0,0,1,3-.6,5.84,5.84,0,0,1,2.33.47,5.46,5.46,0,0,1,1.86,1.31,6.09,6.09,0,0,1,1.24,2.06,7.91,7.91,0,0,1,.45,2.74v11Z"/><path class="cls-2" d="M165.55,96.72a4.47,4.47,0,0,1-.72,2.48,5.9,5.9,0,0,1-2,1.9,11.1,11.1,0,0,1-3.12,1.22,17,17,0,0,1-4.08.44,4.19,4.19,0,0,1-.48,0l-.64,0a3.71,3.71,0,0,0,1.19,2.38,3.79,3.79,0,0,0,2.59.86,11.86,11.86,0,0,0,5.9-1.8v4.2a11.45,11.45,0,0,1-2.9,1.26,11.91,11.91,0,0,1-3.14.38,10.43,10.43,0,0,1-3.63-.6,7.35,7.35,0,0,1-2.73-1.74,7.82,7.82,0,0,1-1.73-2.72,10.22,10.22,0,0,1-.59-3.58,11.09,11.09,0,0,1,.7-4,9.28,9.28,0,0,1,2-3.14,8.58,8.58,0,0,1,3-2,10.1,10.1,0,0,1,3.87-.72,7.33,7.33,0,0,1,4.75,1.44A4.71,4.71,0,0,1,165.55,96.72Zm-5.32.4a1.43,1.43,0,0,0-.55-1.1,2.13,2.13,0,0,0-1.39-.46,3.21,3.21,0,0,0-2.28.94,4.47,4.47,0,0,0-1.22,2.58,2.83,2.83,0,0,0,.63.08H156Q160.23,99.16,160.23,97.12Z"/><path class="cls-2" d="M185.19,96.72a4.47,4.47,0,0,1-.72,2.48,5.9,5.9,0,0,1-2,1.9,11.1,11.1,0,0,1-3.12,1.22,17,17,0,0,1-4.08.44,4.19,4.19,0,0,1-.48,0l-.64,0a3.66,3.66,0,0,0,1.19,2.38,3.79,3.79,0,0,0,2.59.86,11.82,11.82,0,0,0,5.89-1.8v4.2a11.24,11.24,0,0,1-2.89,1.26,11.93,11.93,0,0,1-3.15.38,10.37,10.37,0,0,1-3.62-.6,7.35,7.35,0,0,1-2.73-1.74,7.82,7.82,0,0,1-1.73-2.72,10.22,10.22,0,0,1-.59-3.58,11.09,11.09,0,0,1,.7-4,9.28,9.28,0,0,1,2-3.14,8.63,8.63,0,0,1,3-2,10.19,10.19,0,0,1,3.88-.72,7.29,7.29,0,0,1,4.74,1.44A4.69,4.69,0,0,1,185.19,96.72Zm-5.33.4a1.41,1.41,0,0,0-.54-1.1,2.13,2.13,0,0,0-1.39-.46,3.21,3.21,0,0,0-2.28.94,4.47,4.47,0,0,0-1.22,2.58,2.83,2.83,0,0,0,.63.08h.59Q179.87,99.16,179.86,97.12Z"/><path class="cls-2" d="M202.55,109.48c0-.16-.06-.34-.08-.56s-.06-.4-.09-.64,0-.53-.08-.88a7.17,7.17,0,0,1-2.65,2,8.14,8.14,0,0,1-3.17.58,7.78,7.78,0,0,1-3.18-.62,6.93,6.93,0,0,1-2.43-1.72,7.7,7.7,0,0,1-1.56-2.66,10.08,10.08,0,0,1-.56-3.48,12.18,12.18,0,0,1,.65-4,10,10,0,0,1,1.85-3.18,8.28,8.28,0,0,1,2.81-2.08,8.76,8.76,0,0,1,3.61-.74,12.58,12.58,0,0,1,1.76.12,11.11,11.11,0,0,1,2,.52V81.6h5.32v21.8c0,.46,0,1,.06,1.72s.08,1.36.13,2,.12,1.54.21,2.36Zm-1.16-12.84a6.2,6.2,0,0,0-1.48-.4,13.3,13.3,0,0,0-1.44-.08,4,4,0,0,0-3.22,1.38,5.61,5.61,0,0,0-1.19,3.78,4.06,4.06,0,0,0,.84,2.74,2.8,2.8,0,0,0,2.28,1,4.73,4.73,0,0,0,1.65-.28,3,3,0,0,0,1.33-1,5,5,0,0,0,.89-1.78,9.6,9.6,0,0,0,.34-2.74Z"/><path class="cls-2" d="M247.34,107.53a3,3,0,0,1-1.06,1.51,3.26,3.26,0,0,1-1.82.44,3,3,0,0,1-1.84-.48,3.51,3.51,0,0,1-1-1.63L238.19,97l-3.57,10.57a2.58,2.58,0,0,1-1,1.47,3.62,3.62,0,0,1-1.91.44,7.58,7.58,0,0,1-.84,0,2.23,2.23,0,0,1-.75-.26,2.2,2.2,0,0,1-.69-.62,4.4,4.4,0,0,1-.56-1.13l-5.59-15.54h5.39L231,99c.08.26.17.56.26.91l.3,1c.11.39.23.81.36,1.25a8.31,8.31,0,0,1,.25-1l.25-.92c.1-.32.18-.63.26-.91l2.24-7.5h6.48l2.4,7.85c.06.23.13.49.22.76s.19.54.27.8a5.4,5.4,0,0,1,.23.9c.08-.26.16-.54.24-.82.14-.52.28-1,.45-1.49l2.35-8h5.61Z"/><path class="cls-2" d="M269.14,109.48a6.21,6.21,0,0,0,0-.68A7.12,7.12,0,0,1,269,108c0-.29,0-.6-.07-.92a6.15,6.15,0,0,1-2.6,2.06,8.39,8.39,0,0,1-3.41.7,6.32,6.32,0,0,1-5.11-2.16,9.26,9.26,0,0,1-1.83-6.16A9.48,9.48,0,0,1,259,94.1c2-1.74,4.76-2.62,8.38-2.62.59,0,1.13,0,1.62,0s1,.08,1.46.14,1,.16,1.5.26,1.08.26,1.7.44v11.36c0,.62,0,1.26,0,1.94s.07,1.3.12,1.86.11,1.32.16,2Zm-.84-13a9.57,9.57,0,0,0-1.26-.2c-.38,0-.73,0-1.06,0a4.31,4.31,0,0,0-3.42,1.42,5.88,5.88,0,0,0-1.22,3.94,3.89,3.89,0,0,0,.74,2.56,2.52,2.52,0,0,0,2.07.88,3.68,3.68,0,0,0,1.61-.36,4,4,0,0,0,1.32-1,5,5,0,0,0,.9-1.56,6.07,6.07,0,0,0,.32-2Z"/><path class="cls-2" d="M280.42,109.48V95.68H276.9v-3.8h3.52V87.44h5.24v4.44h4.52v3.8h-4.52v13.8Z"/><path class="cls-2" d="M307.46,96.72a4.46,4.46,0,0,1-.71,2.48,5.9,5.9,0,0,1-2,1.9,11.1,11.1,0,0,1-3.12,1.22,17,17,0,0,1-4.08.44,4.19,4.19,0,0,1-.48,0l-.65,0a3.67,3.67,0,0,0,1.2,2.38,3.79,3.79,0,0,0,2.59.86,11.82,11.82,0,0,0,5.89-1.8v4.2a11.15,11.15,0,0,1-2.9,1.26,11.8,11.8,0,0,1-3.14.38,10.37,10.37,0,0,1-3.62-.6,7.39,7.39,0,0,1-2.74-1.74,7.79,7.79,0,0,1-1.72-2.72,10,10,0,0,1-.6-3.58,11.31,11.31,0,0,1,.7-4,9.44,9.44,0,0,1,2-3.14,8.67,8.67,0,0,1,3-2,10.19,10.19,0,0,1,3.88-.72,7.29,7.29,0,0,1,4.74,1.44A4.68,4.68,0,0,1,307.46,96.72Zm-5.32.4a1.41,1.41,0,0,0-.54-1.1,2.13,2.13,0,0,0-1.39-.46,3.21,3.21,0,0,0-2.28.94,4.54,4.54,0,0,0-1.23,2.58,3,3,0,0,0,.64.08h.59Q302.15,99.16,302.14,97.12Z"/><path class="cls-2" d="M323.86,96.8c-.37-.08-.66-.13-.88-.16s-.45,0-.72,0a4.08,4.08,0,0,0-3.46,1.57,7.68,7.68,0,0,0-1.18,4.64v6.67H312.3V97.93c0-.65,0-1.22,0-1.7a11.25,11.25,0,0,0-.1-1.35,10.38,10.38,0,0,0-.22-1.24c-.09-.4-.22-.86-.38-1.39h5.05c.09.33.16.61.23.84a5.06,5.06,0,0,1,.15.66c0,.21.05.43.08.66s0,.51,0,.84a9.11,9.11,0,0,1,2.27-2.61,4.42,4.42,0,0,1,2.54-.76,3.51,3.51,0,0,1,.94.11,8.86,8.86,0,0,1,1.06.39Z"/><path class="cls-2" d="M329.54,107a2.15,2.15,0,0,1-.91,1.76,3.5,3.5,0,0,1-2.21.7,3.43,3.43,0,0,1-2.22-.75,2.3,2.3,0,0,1-.06-3.66,3.14,3.14,0,0,1,2.12-.75,3.51,3.51,0,0,1,2.33.8A2.38,2.38,0,0,1,329.54,107Z"/></svg>