<svg id="Layer_1" data-name="Layer 1" xmlns="http://www.w3.org/2000/svg" viewBox="0 0 450 140"><defs><style>.cls-1{fill:#ffdb27;stroke:#fff;stroke-miterlimit:10;stroke-width:4px;}.cls-2{fill:#323232;}</style></defs><path class="cls-1" d="M74.58,135H375.42C413.85,135,445,105.9,445,70h0c0-35.9-31.15-65-69.58-65H74.58C36.15,5,5,34.1,5,70H5C5,105.9,36.15,135,74.58,135Z"/><path class="cls-2" d="M102.91,59.48H96.75l-5-16.63c-.14-.37-.27-.79-.4-1.27s-.26-.93-.36-1.35-.26-1-.36-1.48c-.14.56-.27,1.08-.4,1.55s-.27.9-.38,1.35a12.82,12.82,0,0,1-.39,1.23L84,59.48H78.23l-8-27.92h6.64l3.84,16.09c.08.37.16.75.25,1.15s.19.78.27,1.15.2.84.27,1.23c.17-.55.3-1,.41-1.33s.19-.61.26-.85.14-.47.22-.7.18-.52.32-.89l5.4-15.85h6l4.6,15.93c.1.37.24.82.4,1.35s.3,1,.43,1.51.34,1.12.53,1.71c.13-.59.25-1.15.36-1.71s.22-1,.34-1.47a11.15,11.15,0,0,1,.38-1.31l4.64-16h6.68Z"/><path class="cls-2" d="M128.3,46.72a4.46,4.46,0,0,1-.71,2.48,5.9,5.9,0,0,1-2,1.9,11.1,11.1,0,0,1-3.12,1.22,17,17,0,0,1-4.08.44,4.19,4.19,0,0,1-.48,0l-.64,0a3.66,3.66,0,0,0,1.19,2.38,3.79,3.79,0,0,0,2.59.86,11.88,11.88,0,0,0,5.9-1.8v4.2A11.36,11.36,0,0,1,124,59.62a11.78,11.78,0,0,1-3.13.38,10.33,10.33,0,0,1-3.62-.6,7.43,7.43,0,0,1-2.75-1.74,7.77,7.77,0,0,1-1.71-2.72,9.78,9.78,0,0,1-.6-3.58,11.31,11.31,0,0,1,.69-4,9.44,9.44,0,0,1,2-3.14,8.71,8.71,0,0,1,3-2,10.12,10.12,0,0,1,3.88-.72,7.32,7.32,0,0,1,4.74,1.44A4.7,4.7,0,0,1,128.3,46.72Zm-5.31.4a1.43,1.43,0,0,0-.55-1.1,2.13,2.13,0,0,0-1.39-.46,3.21,3.21,0,0,0-2.28.94,4.54,4.54,0,0,0-1.23,2.58,3,3,0,0,0,.64.08h.59Q123,49.16,123,47.12Z"/><path class="cls-2" d="M156.46,59.48v-10a4.1,4.1,0,0,0-.25-1.62,2.32,2.32,0,0,0-.62-.87,1.68,1.68,0,0,0-.76-.35,4.82,4.82,0,0,0-.69-.06,4.49,4.49,0,0,0-.84.16,2.86,2.86,0,0,0-1.21.73,4.91,4.91,0,0,0-1.11,1.7,8,8,0,0,0-.48,3v7.28h-5.32V47.85a19.82,19.82,0,0,0-.24-3,9.41,9.41,0,0,0-.64-2.46h5.33a6.69,6.69,0,0,1,.33.92c.07.24.14.59.22,1a8.41,8.41,0,0,1,2.75-1.84,7.89,7.89,0,0,1,3-.6,5.84,5.84,0,0,1,2.33.47,5.46,5.46,0,0,1,1.86,1.31,5.92,5.92,0,0,1,1.23,2.06,7.91,7.91,0,0,1,.46,2.74v11Z"/><path class="cls-2" d="M183.5,46.72a4.46,4.46,0,0,1-.71,2.48,5.9,5.9,0,0,1-2,1.9,11.1,11.1,0,0,1-3.12,1.22,17,17,0,0,1-4.08.44,4.19,4.19,0,0,1-.48,0l-.65,0a3.67,3.67,0,0,0,1.2,2.38,3.79,3.79,0,0,0,2.59.86,11.82,11.82,0,0,0,5.89-1.8v4.2a11.15,11.15,0,0,1-2.9,1.26,11.8,11.8,0,0,1-3.14.38,10.37,10.37,0,0,1-3.62-.6,7.39,7.39,0,0,1-2.74-1.74A7.79,7.79,0,0,1,168,54.94a10,10,0,0,1-.6-3.58,11.31,11.31,0,0,1,.7-4,9.44,9.44,0,0,1,2-3.14,8.67,8.67,0,0,1,3-2,10.19,10.19,0,0,1,3.88-.72,7.29,7.29,0,0,1,4.74,1.44A4.68,4.68,0,0,1,183.5,46.72Zm-5.32.4a1.41,1.41,0,0,0-.54-1.1,2.13,2.13,0,0,0-1.39-.46,3.21,3.21,0,0,0-2.28.94,4.54,4.54,0,0,0-1.23,2.58,3,3,0,0,0,.64.08H174Q178.19,49.16,178.18,47.12Z"/><path class="cls-2" d="M203.14,46.72a4.46,4.46,0,0,1-.71,2.48,5.9,5.9,0,0,1-2,1.9,11.1,11.1,0,0,1-3.12,1.22,17,17,0,0,1-4.08.44,4.19,4.19,0,0,1-.48,0l-.65,0a3.67,3.67,0,0,0,1.2,2.38,3.79,3.79,0,0,0,2.59.86,11.82,11.82,0,0,0,5.89-1.8v4.2a11.15,11.15,0,0,1-2.9,1.26,11.8,11.8,0,0,1-3.14.38,10.37,10.37,0,0,1-3.62-.6,7.39,7.39,0,0,1-2.74-1.74,7.79,7.79,0,0,1-1.72-2.72,10,10,0,0,1-.6-3.58,11.31,11.31,0,0,1,.7-4,9.44,9.44,0,0,1,2-3.14,8.67,8.67,0,0,1,3-2,10.19,10.19,0,0,1,3.88-.72,7.29,7.29,0,0,1,4.74,1.44A4.68,4.68,0,0,1,203.14,46.72Zm-5.32.4a1.41,1.41,0,0,0-.54-1.1,2.13,2.13,0,0,0-1.39-.46,3.21,3.21,0,0,0-2.28.94,4.54,4.54,0,0,0-1.23,2.58,3,3,0,0,0,.64.08h.59Q197.83,49.16,197.82,47.12Z"/><path class="cls-2" d="M220.51,59.48c0-.16-.06-.34-.09-.56s0-.4-.08-.64-.05-.53-.08-.88a7.17,7.17,0,0,1-2.65,2,8.14,8.14,0,0,1-3.17.58,7.75,7.75,0,0,1-3.18-.62,6.93,6.93,0,0,1-2.43-1.72A7.7,7.7,0,0,1,207.27,55a10.08,10.08,0,0,1-.57-3.48,11.93,11.93,0,0,1,.66-4,10,10,0,0,1,1.84-3.18A8.41,8.41,0,0,1,212,42.18a8.75,8.75,0,0,1,3.6-.74,12.37,12.37,0,0,1,1.76.12,10.68,10.68,0,0,1,2,.52V31.6h5.32V53.4c0,.46,0,1,.06,1.72s.09,1.36.14,2,.12,1.54.2,2.36Zm-1.17-12.84a6,6,0,0,0-1.47-.4,13.3,13.3,0,0,0-1.44-.08,4,4,0,0,0-3.22,1.38A5.61,5.61,0,0,0,212,51.32a4.06,4.06,0,0,0,.84,2.74,2.8,2.8,0,0,0,2.28,1,4.73,4.73,0,0,0,1.65-.28,3,3,0,0,0,1.33-1A5,5,0,0,0,219,52a9.63,9.63,0,0,0,.33-2.74Z"/><path class="cls-2" d="M265.3,57.53A3.06,3.06,0,0,1,264.24,59a3.26,3.26,0,0,1-1.82.44,3,3,0,0,1-1.84-.48,3.51,3.51,0,0,1-1-1.63L256.14,47l-3.56,10.57a2.55,2.55,0,0,1-1,1.47,3.56,3.56,0,0,1-1.9.44,7.58,7.58,0,0,1-.84,0,2.36,2.36,0,0,1-.76-.26,2.28,2.28,0,0,1-.68-.62,4.4,4.4,0,0,1-.56-1.13l-5.6-15.54h5.4L248.94,49c.08.26.17.56.26.91l.3,1c.11.39.23.81.36,1.25.06-.31.14-.64.24-1s.17-.59.26-.92.18-.63.26-.91l2.24-7.5h6.48l2.4,7.85c.06.23.13.49.22.76s.18.54.26.8a4.59,4.59,0,0,1,.24.9c.08-.26.16-.54.24-.82.14-.52.28-1,.44-1.49l2.36-8h5.6Z"/><path class="cls-2" d="M287.1,59.48a6.21,6.21,0,0,0,0-.68A7.12,7.12,0,0,1,287,58c0-.29,0-.6-.07-.92a6.21,6.21,0,0,1-2.6,2.06,8.39,8.39,0,0,1-3.41.7,6.32,6.32,0,0,1-5.11-2.16A9.26,9.26,0,0,1,274,51.56a9.48,9.48,0,0,1,2.94-7.46c2-1.74,4.75-2.62,8.38-2.62.59,0,1.13,0,1.62,0s1,.08,1.46.14,1,.16,1.5.26,1.08.26,1.7.44V53.72c0,.62,0,1.26,0,1.94s.07,1.3.12,1.86.11,1.32.16,2Zm-.84-13a9.57,9.57,0,0,0-1.26-.2c-.38,0-.73,0-1.06,0a4.31,4.31,0,0,0-3.42,1.42,5.88,5.88,0,0,0-1.22,3.94,3.89,3.89,0,0,0,.74,2.56,2.52,2.52,0,0,0,2.07.88,3.68,3.68,0,0,0,1.61-.36,4,4,0,0,0,1.32-1,5,5,0,0,0,.9-1.56,6.07,6.07,0,0,0,.32-2Z"/><path class="cls-2" d="M298.38,59.48V45.68h-3.52v-3.8h3.52V37.44h5.24v4.44h4.52v3.8h-4.52v13.8Z"/><path class="cls-2" d="M325.42,46.72a4.46,4.46,0,0,1-.71,2.48,5.9,5.9,0,0,1-2,1.9,11.1,11.1,0,0,1-3.12,1.22,17,17,0,0,1-4.08.44,4.19,4.19,0,0,1-.48,0l-.65,0a3.67,3.67,0,0,0,1.2,2.38,3.77,3.77,0,0,0,2.59.86,11.82,11.82,0,0,0,5.89-1.8v4.2a11.15,11.15,0,0,1-2.9,1.26A11.8,11.8,0,0,1,318,60a10.37,10.37,0,0,1-3.62-.6,7.39,7.39,0,0,1-2.74-1.74,7.79,7.79,0,0,1-1.72-2.72,10,10,0,0,1-.6-3.58,11.31,11.31,0,0,1,.7-4,9.44,9.44,0,0,1,2-3.14,8.67,8.67,0,0,1,3-2,10.19,10.19,0,0,1,3.88-.72,7.29,7.29,0,0,1,4.74,1.44A4.68,4.68,0,0,1,325.42,46.72Zm-5.32.4a1.4,1.4,0,0,0-.55-1.1,2.09,2.09,0,0,0-1.38-.46,3.19,3.19,0,0,0-2.28.94,4.54,4.54,0,0,0-1.23,2.58,3,3,0,0,0,.64.08h.59Q320.11,49.16,320.1,47.12Z"/><path class="cls-2" d="M341.82,46.8c-.37-.08-.66-.13-.88-.16s-.45,0-.72,0a4.08,4.08,0,0,0-3.46,1.57,7.68,7.68,0,0,0-1.18,4.64v6.67h-5.32V47.93c0-.65,0-1.22,0-1.7a11.25,11.25,0,0,0-.1-1.35,10.38,10.38,0,0,0-.22-1.24c-.09-.4-.22-.86-.38-1.39h5c.08.33.16.61.23.84a3.73,3.73,0,0,1,.14.66q0,.31.09.66c0,.23,0,.51,0,.84a9.11,9.11,0,0,1,2.27-2.61,4.42,4.42,0,0,1,2.54-.76,3.51,3.51,0,0,1,.94.11,8.86,8.86,0,0,1,1.06.39Z"/><path class="cls-2" d="M359,59.48V45.68H355.5v-3.8H359V37.44h5.24v4.44h4.52v3.8h-4.52v13.8Z"/><path class="cls-2" d="M388.26,50.63a10.13,10.13,0,0,1-.66,3.79,7.54,7.54,0,0,1-1.87,2.77,8.17,8.17,0,0,1-2.9,1.71,12.51,12.51,0,0,1-7.53,0,8.12,8.12,0,0,1-2.91-1.71,7.84,7.84,0,0,1-1.89-2.77,9.93,9.93,0,0,1-.68-3.79,9.76,9.76,0,0,1,.66-3.7,7.76,7.76,0,0,1,1.85-2.75,8,8,0,0,1,2.91-1.71,12.71,12.71,0,0,1,7.59,0,8.1,8.1,0,0,1,2.9,1.68,7.31,7.31,0,0,1,1.87,2.75A10,10,0,0,1,388.26,50.63Zm-5.32,0a4,4,0,0,0-1.07-3A4,4,0,0,0,379,46.6a3.73,3.73,0,0,0-2.85,1.06,4.2,4.2,0,0,0-1,3,4.41,4.41,0,0,0,1,3.06A3.66,3.66,0,0,0,379,54.76a3.92,3.92,0,0,0,2.93-1A4.25,4.25,0,0,0,382.94,50.63Z"/><path class="cls-2" d="M126.77,108.53a3.12,3.12,0,0,1-1.06,1.51,3.29,3.29,0,0,1-1.82.44,3,3,0,0,1-1.84-.48,3.36,3.36,0,0,1-1-1.63L117.61,98l-3.56,10.57a2.64,2.64,0,0,1-1,1.47,3.59,3.59,0,0,1-1.9.44,7.3,7.3,0,0,1-.84,0,2.28,2.28,0,0,1-.76-.26,2.17,2.17,0,0,1-.68-.62,4.1,4.1,0,0,1-.56-1.13l-5.6-15.54h5.4l2.32,7.11c.08.26.16.56.26.91s.19.7.3,1,.22.81.36,1.25a6.64,6.64,0,0,1,.24-1c.08-.29.16-.59.26-.92l.26-.91,2.24-7.5h6.48l2.4,7.85a5.65,5.65,0,0,0,.22.76c.09.27.18.54.26.8a6.61,6.61,0,0,1,.24.9c.08-.26.16-.54.24-.82.13-.52.28-1,.44-1.49l2.36-8h5.6Z"/><path class="cls-2" d="M148.56,110.48a6.21,6.21,0,0,0,0-.68,7.12,7.12,0,0,1-.06-.76c0-.29,0-.6-.06-.92a6.24,6.24,0,0,1-2.61,2.06,8.39,8.39,0,0,1-3.41.7,6.33,6.33,0,0,1-5.11-2.16,9.26,9.26,0,0,1-1.82-6.16,9.48,9.48,0,0,1,2.94-7.46c2-1.74,4.75-2.62,8.37-2.62.59,0,1.13,0,1.62,0s1,.08,1.46.14,1,.16,1.5.26,1.08.26,1.7.44v11.36c0,.62,0,1.26.05,1.94s.06,1.3.12,1.86.1,1.32.16,2Zm-.83-13a10,10,0,0,0-1.27-.2c-.38,0-.73,0-1.05,0A4.28,4.28,0,0,0,142,98.62a5.83,5.83,0,0,0-1.22,3.94,3.89,3.89,0,0,0,.73,2.56,2.54,2.54,0,0,0,2.07.88,3.68,3.68,0,0,0,1.61-.36,4,4,0,0,0,1.32-1,5,5,0,0,0,.9-1.56,5.82,5.82,0,0,0,.33-2Z"/><path class="cls-2" d="M171.61,105.6a5,5,0,0,1-1.7,4,7,7,0,0,1-4.77,1.48,19.66,19.66,0,0,1-4-.4,11.58,11.58,0,0,1-3.21-1.08l.69-4.08a13.59,13.59,0,0,0,6.08,1.8,1.73,1.73,0,0,0,1.26-.38,1.19,1.19,0,0,0,.38-.86,1.61,1.61,0,0,0-.3-1,4.8,4.8,0,0,0-1.46-.94,22.89,22.89,0,0,1-2.82-1.44,9.15,9.15,0,0,1-1.92-1.5,4.84,4.84,0,0,1-1.08-1.66,5.41,5.41,0,0,1-.34-2,4.51,4.51,0,0,1,1.93-3.9,8.5,8.5,0,0,1,5-1.38,15.74,15.74,0,0,1,3,.26,14.51,14.51,0,0,1,3,1l-.64,4a9.59,9.59,0,0,0-2.75-1.1,12.34,12.34,0,0,0-2.63-.3,1.84,1.84,0,0,0-1.27.34,1.22,1.22,0,0,0-.35.9,1.33,1.33,0,0,0,.55,1.1,11.24,11.24,0,0,0,2.14,1.1,24.78,24.78,0,0,1,2.42,1.38,8.65,8.65,0,0,1,1.64,1.36,4.4,4.4,0,0,1,.91,1.48A5.57,5.57,0,0,1,171.61,105.6Z"/><path class="cls-2" d="M187.88,110.48v-9.94A5.39,5.39,0,0,0,187.7,99a2,2,0,0,0-.51-.88,1.62,1.62,0,0,0-.73-.41,4,4,0,0,0-.86-.1,2.42,2.42,0,0,0-1.33.41,4,4,0,0,0-1.12,1.1,5.83,5.83,0,0,0-.8,1.64,6.51,6.51,0,0,0-.31,2v7.75h-5.32V83.08H182v11.8a6.21,6.21,0,0,1,2.21-1.54,7.53,7.53,0,0,1,2.68-.46,8.53,8.53,0,0,1,2.31.32,5.73,5.73,0,0,1,2,1A5,5,0,0,1,192.65,96a6.2,6.2,0,0,1,.55,2.76v11.72Z"/><path class="cls-2" d="M224,110a8,8,0,0,1-.34-.92c-.06-.24-.14-.58-.22-1a7.81,7.81,0,0,1-5.64,2.44,5.92,5.92,0,0,1-2.38-.48,6,6,0,0,1-1.92-1.35,6,6,0,0,1-1.26-2.06,7.86,7.86,0,0,1-.44-2.69c0-1.09,0-2.1.08-3s.1-1.83.12-2.69,0-1.71,0-2.57-.09-1.77-.2-2.73h5.32c.08.88.13,1.72.14,2.53s0,1.61,0,2.41,0,1.61-.08,2.43-.06,1.7-.06,2.62a4.48,4.48,0,0,0,.25,1.64,2,2,0,0,0,.65.87,1.88,1.88,0,0,0,.81.33,5,5,0,0,0,.71.05,4.07,4.07,0,0,0,.85-.15,2.75,2.75,0,0,0,1.21-.73,5,5,0,0,0,1.07-1.7,8.23,8.23,0,0,0,.45-3V92.88h5.32v11.64a19.82,19.82,0,0,0,.24,3,10,10,0,0,0,.64,2.45Z"/><path class="cls-2" d="M236.36,110.48V96.68h-3.52v-3.8h3.52V88.44h5.24v4.44h4.52v3.8H241.6v13.8Z"/><path class="cls-2" d="M263.4,97.72a4.46,4.46,0,0,1-.71,2.48,5.85,5.85,0,0,1-2,1.9,10.91,10.91,0,0,1-3.11,1.22,17,17,0,0,1-4.08.44,4.19,4.19,0,0,1-.48,0l-.65,0a3.67,3.67,0,0,0,1.2,2.38,3.79,3.79,0,0,0,2.59.86,11.82,11.82,0,0,0,5.89-1.8v4.2a11.15,11.15,0,0,1-2.9,1.26A11.8,11.8,0,0,1,256,111a10.37,10.37,0,0,1-3.62-.6,7.39,7.39,0,0,1-2.74-1.74,7.79,7.79,0,0,1-1.72-2.72,10,10,0,0,1-.6-3.58,11.31,11.31,0,0,1,.7-4,9.44,9.44,0,0,1,2-3.14,8.67,8.67,0,0,1,3-2,10.19,10.19,0,0,1,3.88-.72,7.29,7.29,0,0,1,4.74,1.44A4.68,4.68,0,0,1,263.4,97.72Zm-5.32.4a1.4,1.4,0,0,0-.55-1.1,2.09,2.09,0,0,0-1.38-.46,3.17,3.17,0,0,0-2.28.94,4.54,4.54,0,0,0-1.23,2.58,3,3,0,0,0,.64.08h.59Q258.09,100.16,258.08,98.12Z"/><path class="cls-2" d="M279.12,110.48v-10a3.9,3.9,0,0,0-.26-1.62,2.21,2.21,0,0,0-.62-.87,1.59,1.59,0,0,0-.76-.35,4.59,4.59,0,0,0-.68-.06,4.35,4.35,0,0,0-.84.16,3,3,0,0,0-1.22.73,5,5,0,0,0-1.1,1.7,7.76,7.76,0,0,0-.48,3v7.28h-5.32V98.85a19.82,19.82,0,0,0-.24-3,9.82,9.82,0,0,0-.64-2.46h5.32a7,7,0,0,1,.34.92c.07.24.14.59.22,1a8.41,8.41,0,0,1,2.75-1.84,7.88,7.88,0,0,1,3-.6,5.86,5.86,0,0,1,2.34.47,5.46,5.46,0,0,1,1.86,1.31A5.92,5.92,0,0,1,284,96.72a7.91,7.91,0,0,1,.45,2.74v11Z"/><path class="cls-2" d="M303.56,105.6a5,5,0,0,1-1.69,4,7,7,0,0,1-4.77,1.48,19.76,19.76,0,0,1-4.06-.4,11.62,11.62,0,0,1-3.2-1.08l.68-4.08a13.66,13.66,0,0,0,6.08,1.8,1.7,1.7,0,0,0,1.26-.38,1.16,1.16,0,0,0,.38-.86,1.55,1.55,0,0,0-.3-1,4.67,4.67,0,0,0-1.46-.94,24.42,24.42,0,0,1-2.82-1.44,9.71,9.71,0,0,1-1.92-1.5,5.15,5.15,0,0,1-1.08-1.66,5.62,5.62,0,0,1-.34-2,4.51,4.51,0,0,1,1.94-3.9,8.5,8.5,0,0,1,5.05-1.38,15.82,15.82,0,0,1,3,.26,14.51,14.51,0,0,1,3,1l-.64,4a9.71,9.71,0,0,0-2.75-1.1,12.41,12.41,0,0,0-2.63-.3,1.82,1.82,0,0,0-1.27.34,1.22,1.22,0,0,0-.35.9,1.33,1.33,0,0,0,.55,1.1,11.39,11.39,0,0,0,2.13,1.1,25,25,0,0,1,2.43,1.38,9,9,0,0,1,1.64,1.36,4.37,4.37,0,0,1,.9,1.48A5.29,5.29,0,0,1,303.56,105.6Z"/><path class="cls-2" d="M314.84,88.05a2.17,2.17,0,0,1-.92,1.78,3.72,3.72,0,0,1-4.44,0,2.43,2.43,0,0,1-1-1.84,2.2,2.2,0,0,1,.88-1.83,3.55,3.55,0,0,1,2.32-.75,3.46,3.46,0,0,1,1.18.21,3,3,0,0,1,1,.56,2.81,2.81,0,0,1,.68.85A2.22,2.22,0,0,1,314.84,88.05Zm-6,22.43V92.88h5.32v17.6Z"/><path class="cls-2" d="M320.24,110.48V82.6h5.32v27.88Z"/><path class="cls-2" d="M344.44,105.6a5,5,0,0,1-1.69,4,7,7,0,0,1-4.77,1.48,19.76,19.76,0,0,1-4.06-.4,11.51,11.51,0,0,1-3.2-1.08l.68-4.08a13.66,13.66,0,0,0,6.08,1.8,1.7,1.7,0,0,0,1.26-.38,1.19,1.19,0,0,0,.38-.86,1.55,1.55,0,0,0-.3-1,4.8,4.8,0,0,0-1.46-.94,24.42,24.42,0,0,1-2.82-1.44,9.15,9.15,0,0,1-1.92-1.5,5.15,5.15,0,0,1-1.08-1.66,5.41,5.41,0,0,1-.34-2,4.51,4.51,0,0,1,1.93-3.9,8.53,8.53,0,0,1,5.06-1.38,15.82,15.82,0,0,1,3,.26,14.71,14.71,0,0,1,3,1l-.64,4a9.71,9.71,0,0,0-2.75-1.1,12.41,12.41,0,0,0-2.63-.3,1.87,1.87,0,0,0-1.28.34,1.21,1.21,0,0,0-.34.9,1.3,1.3,0,0,0,.55,1.1,11.39,11.39,0,0,0,2.13,1.1,25,25,0,0,1,2.43,1.38,9,9,0,0,1,1.64,1.36,4.37,4.37,0,0,1,.9,1.48A5.29,5.29,0,0,1,344.44,105.6Z"/><path class="cls-2" d="M355.76,108a2.15,2.15,0,0,1-.91,1.76,3.52,3.52,0,0,1-2.21.7,3.45,3.45,0,0,1-2.23-.75,2.31,2.31,0,0,1-.06-3.66,3.15,3.15,0,0,1,2.13-.75,3.52,3.52,0,0,1,2.33.8A2.41,2.41,0,0,1,355.76,108Z"/></svg>