<svg id="Layer_1" data-name="Layer 1" xmlns="http://www.w3.org/2000/svg" viewBox="0 0 490 140"><defs><style>.cls-1{fill:#ffdb27;stroke:#fff;stroke-miterlimit:10;stroke-width:4px;}.cls-2{fill:#323232;}</style></defs><path class="cls-1" d="M80.9,135H409.1C451,135,485,105.9,485,70h0c0-35.9-34-65-75.9-65H80.9C39,5,5,34.1,5,70H5C5,105.9,39,135,80.9,135Z"/><path class="cls-2" d="M67,111.62a8.65,8.65,0,0,1-1.74,3.68,6.3,6.3,0,0,1-3,1.93,15.43,15.43,0,0,1-4.42.56,13.18,13.18,0,0,1-2.57-.26c-.86-.18-1.76-.41-2.69-.7v-4c.88.07,1.71.13,2.5.17s1.58.07,2.35.07a5.79,5.79,0,0,0,2.15-.37A3.27,3.27,0,0,0,61,111.49a6,6,0,0,0,.85-2.22,19.12,19.12,0,0,0,.26-3.4v-2.16a6.87,6.87,0,0,1-5,2.16,5.84,5.84,0,0,1-2.3-.47,5.49,5.49,0,0,1-1.9-1.35,6.66,6.66,0,0,1-1.28-2.11,7.68,7.68,0,0,1-.48-2.8c0-.94,0-1.84,0-2.7s0-1.72,0-2.58,0-1.75,0-2.66-.06-1.89-.14-2.93h5.32c.08,1.06.12,2,.14,2.94s0,1.76,0,2.57,0,1.57,0,2.3,0,1.47,0,2.2a3.26,3.26,0,0,0,.59,2.19,2.13,2.13,0,0,0,1.69.68A3.24,3.24,0,0,0,61.24,100a4.22,4.22,0,0,0,1-3v-8.8h5.32v17.6A24.38,24.38,0,0,1,67,111.62Z"/><path class="cls-2" d="M91.18,97a10.1,10.1,0,0,1-.66,3.79,7.67,7.67,0,0,1-1.87,2.77,8.12,8.12,0,0,1-2.91,1.71,12.31,12.31,0,0,1-7.53,0,8.12,8.12,0,0,1-2.91-1.71,7.84,7.84,0,0,1-1.89-2.77A9.9,9.9,0,0,1,72.74,97a9.71,9.71,0,0,1,.65-3.69,7.59,7.59,0,0,1,4.76-4.47A11.8,11.8,0,0,1,82,88.27a12,12,0,0,1,3.76.56,8.06,8.06,0,0,1,2.91,1.68,7.42,7.42,0,0,1,1.87,2.75A10,10,0,0,1,91.18,97Zm-5.32,0a3.7,3.7,0,0,0-4-4,3.69,3.69,0,0,0-2.84,1.06,4.15,4.15,0,0,0-1,3,4.41,4.41,0,0,0,1,3.06,3.64,3.64,0,0,0,2.86,1.08,3.91,3.91,0,0,0,2.93-1.06A4.23,4.23,0,0,0,85.86,97Z"/><path class="cls-2" d="M108.26,105.39a7,7,0,0,1-.34-.92c-.07-.24-.14-.59-.22-1a7.88,7.88,0,0,1-5.64,2.44,5.7,5.7,0,0,1-2.38-.49A5.93,5.93,0,0,1,97.76,104,5.79,5.79,0,0,1,96.5,102a7.61,7.61,0,0,1-.44-2.68c0-1.09,0-2.11.08-3s.09-1.83.12-2.69,0-1.71,0-2.57-.1-1.76-.2-2.72h5.32c.08.87.12,1.71.14,2.52s0,1.62,0,2.41,0,1.61-.08,2.43-.06,1.7-.06,2.62a4.28,4.28,0,0,0,.25,1.64,1.87,1.87,0,0,0,.64.87,1.93,1.93,0,0,0,.81.33,5.2,5.2,0,0,0,.71.06,3.79,3.79,0,0,0,.86-.16,2.78,2.78,0,0,0,1.2-.73,4.78,4.78,0,0,0,1.07-1.7,8.2,8.2,0,0,0,.46-3V88.27h5.32V99.9a20,20,0,0,0,.24,3,9.85,9.85,0,0,0,.64,2.45Z"/><path class="cls-2" d="M149.37,95.79a11.89,11.89,0,0,1-.69,4.15,8.71,8.71,0,0,1-5.06,5.2,10.53,10.53,0,0,1-4,.73,20.39,20.39,0,0,1-4-.42,19.37,19.37,0,0,1-3.76-1.13V78.44h5.32V90.31a6.28,6.28,0,0,1,2.28-1.53,8,8,0,0,1,2.91-.51,7.39,7.39,0,0,1,2.86.53,6.07,6.07,0,0,1,2.22,1.52,6.85,6.85,0,0,1,1.43,2.38A8.86,8.86,0,0,1,149.37,95.79Zm-5.32,1a3.51,3.51,0,0,0-.8-2.45,2.9,2.9,0,0,0-2.26-.88,3.89,3.89,0,0,0-1.61.32,3.77,3.77,0,0,0-1.22.89,3.66,3.66,0,0,0-.77,1.29,4.49,4.49,0,0,0-.26,1.52v3a5.39,5.39,0,0,0,1.26.47,8,8,0,0,0,1.46.11,4.11,4.11,0,0,0,3.08-1.14A4.32,4.32,0,0,0,144.05,96.76Z"/><path class="cls-2" d="M166.41,93.19a8.14,8.14,0,0,0-.88-.16,5.2,5.2,0,0,0-.72,0,4.07,4.07,0,0,0-3.46,1.56,7.7,7.7,0,0,0-1.18,4.65v6.67h-5.32V94.31c0-.65,0-1.22,0-1.7a11.25,11.25,0,0,0-.1-1.35,9.88,9.88,0,0,0-.22-1.23c-.09-.41-.22-.87-.38-1.39h5.05c.09.32.16.6.23.84a4.6,4.6,0,0,1,.15.65c0,.21.05.43.08.66a6.74,6.74,0,0,1,0,.84A8.92,8.92,0,0,1,162,89a4.35,4.35,0,0,1,2.54-.76,3.56,3.56,0,0,1,.94.1,8.86,8.86,0,0,1,1.06.39Z"/><path class="cls-2" d="M181.81,105.39a8.8,8.8,0,0,1-.34-.92c-.06-.24-.14-.59-.22-1a7.85,7.85,0,0,1-5.64,2.44,5.76,5.76,0,0,1-2.38-.49,6.15,6.15,0,0,1-1.92-1.34,6.09,6.09,0,0,1-1.26-2.07,7.85,7.85,0,0,1-.44-2.68c0-1.09,0-2.11.08-3s.1-1.83.12-2.69,0-1.71,0-2.57-.09-1.76-.2-2.72h5.32c.08.87.13,1.71.14,2.52s0,1.62,0,2.41,0,1.61-.08,2.43-.06,1.7-.06,2.62a4.48,4.48,0,0,0,.25,1.64,2,2,0,0,0,.65.87,1.88,1.88,0,0,0,.81.33,5.2,5.2,0,0,0,.71.06,3.64,3.64,0,0,0,.85-.16,2.75,2.75,0,0,0,1.21-.73,4.78,4.78,0,0,0,1.06-1.7,8,8,0,0,0,.46-3V88.27h5.32V99.9a20,20,0,0,0,.24,3,10.3,10.3,0,0,0,.64,2.45Z"/><path class="cls-2" d="M205.49,101a5,5,0,0,1-1.69,4,7.06,7.06,0,0,1-4.77,1.48,20.48,20.48,0,0,1-4.06-.4,12.33,12.33,0,0,1-3.2-1.08l.68-4.08a13.66,13.66,0,0,0,6.08,1.8,1.74,1.74,0,0,0,1.26-.38,1.17,1.17,0,0,0,.38-.86,1.53,1.53,0,0,0-.3-1,4.33,4.33,0,0,0-1.46-.94,24.42,24.42,0,0,1-2.82-1.44,9.71,9.71,0,0,1-1.92-1.5A5.26,5.26,0,0,1,192.59,95a5.7,5.7,0,0,1-.34-2,4.51,4.51,0,0,1,1.94-3.9,8.5,8.5,0,0,1,5.05-1.38,15,15,0,0,1,3,.26,13.41,13.41,0,0,1,3,1l-.64,4a9.42,9.42,0,0,0-2.75-1.1,12.34,12.34,0,0,0-2.63-.3,1.79,1.79,0,0,0-1.27.34,1.19,1.19,0,0,0-.35.9,1.34,1.34,0,0,0,.55,1.1,12,12,0,0,0,2.13,1.1,25,25,0,0,1,2.43,1.38,8.59,8.59,0,0,1,1.64,1.36,4.27,4.27,0,0,1,.9,1.48A5.29,5.29,0,0,1,205.49,101Z"/><path class="cls-2" d="M221.77,105.87v-10a5.32,5.32,0,0,0-.18-1.54,2,2,0,0,0-.51-.89,1.6,1.6,0,0,0-.74-.41,3.89,3.89,0,0,0-.85-.09,2.41,2.41,0,0,0-1.33.4,4,4,0,0,0-1.12,1.1,5.83,5.83,0,0,0-.8,1.64,6.23,6.23,0,0,0-.31,2v7.75h-5.32V78.47h5.28v11.8a6.08,6.08,0,0,1,2.21-1.54,7.28,7.28,0,0,1,2.68-.46,8.52,8.52,0,0,1,2.31.31,5.9,5.9,0,0,1,2,1,5.12,5.12,0,0,1,1.44,1.81,6.25,6.25,0,0,1,.55,2.77v11.72Z"/><path class="cls-2" d="M261.65,111.62a8.77,8.77,0,0,1-1.75,3.68,6.27,6.27,0,0,1-3,1.93,15.53,15.53,0,0,1-4.42.56,13.28,13.28,0,0,1-2.58-.26c-.85-.18-1.75-.41-2.69-.7v-4c.88.07,1.72.13,2.51.17s1.57.07,2.35.07a5.73,5.73,0,0,0,2.14-.37,3.3,3.3,0,0,0,1.49-1.21,5.79,5.79,0,0,0,.84-2.22,19.12,19.12,0,0,0,.26-3.4v-2.16a6.85,6.85,0,0,1-5,2.16,5.84,5.84,0,0,1-2.3-.47,5.68,5.68,0,0,1-1.9-1.35,6.84,6.84,0,0,1-1.28-2.11,7.68,7.68,0,0,1-.48-2.8c0-.94,0-1.84,0-2.7s0-1.72,0-2.58,0-1.75,0-2.66-.06-1.89-.14-2.93h5.32c.08,1.06.13,2,.14,2.94s0,1.76,0,2.57,0,1.57,0,2.3,0,1.47,0,2.2a3.32,3.32,0,0,0,.59,2.19,2.15,2.15,0,0,0,1.7.68,3.22,3.22,0,0,0,2.45-1.11,4.22,4.22,0,0,0,1-3v-8.8h5.32v17.6A25,25,0,0,1,261.65,111.62Z"/><path class="cls-2" d="M285.81,97a10.1,10.1,0,0,1-.66,3.79,7.54,7.54,0,0,1-1.87,2.77,8.17,8.17,0,0,1-2.9,1.71,12.31,12.31,0,0,1-7.53,0,8.12,8.12,0,0,1-2.91-1.71,7.84,7.84,0,0,1-1.89-2.77,9.9,9.9,0,0,1-.68-3.79,9.71,9.71,0,0,1,.66-3.69,7.67,7.67,0,0,1,1.85-2.75,7.84,7.84,0,0,1,2.91-1.72,11.74,11.74,0,0,1,3.82-.58,12.08,12.08,0,0,1,3.77.56,8.1,8.1,0,0,1,2.9,1.68,7.31,7.31,0,0,1,1.87,2.75A10,10,0,0,1,285.81,97Zm-5.32,0a4,4,0,0,0-1.07-3A3.93,3.93,0,0,0,276.53,93a3.7,3.7,0,0,0-2.85,1.06,4.15,4.15,0,0,0-1,3,4.41,4.41,0,0,0,1,3.06,3.66,3.66,0,0,0,2.87,1.08,3.94,3.94,0,0,0,2.93-1.06A4.23,4.23,0,0,0,280.49,97Z"/><path class="cls-2" d="M302.89,105.39a8.8,8.8,0,0,1-.34-.92c-.07-.24-.14-.59-.22-1a7.85,7.85,0,0,1-5.64,2.44,5.73,5.73,0,0,1-2.38-.49,6.15,6.15,0,0,1-1.92-1.34,5.79,5.79,0,0,1-1.26-2.07,7.85,7.85,0,0,1-.44-2.68c0-1.09,0-2.11.08-3s.09-1.83.12-2.69,0-1.71,0-2.57-.09-1.76-.2-2.72H296c.08.87.13,1.71.14,2.52s0,1.62,0,2.41,0,1.61-.08,2.43-.06,1.7-.06,2.62a4.28,4.28,0,0,0,.25,1.64,1.83,1.83,0,0,0,1.46,1.2,5.08,5.08,0,0,0,.71.06,3.73,3.73,0,0,0,.85-.16,2.81,2.81,0,0,0,1.21-.73,4.78,4.78,0,0,0,1.06-1.7,8,8,0,0,0,.46-3V88.27h5.32V99.9a20,20,0,0,0,.24,3,9.85,9.85,0,0,0,.64,2.45Z"/><path class="cls-2" d="M325.93,93.19a8.6,8.6,0,0,0-.88-.16,5.2,5.2,0,0,0-.72,0,4.07,4.07,0,0,0-3.46,1.56,7.63,7.63,0,0,0-1.18,4.65v6.67h-5.32V94.31c0-.65,0-1.22,0-1.7s-.05-.93-.1-1.35A12.14,12.14,0,0,0,314,90c-.09-.41-.22-.87-.38-1.39h5.05c.08.32.16.6.23.84a4.49,4.49,0,0,1,.14.65c0,.21.06.43.08.66a6.53,6.53,0,0,1,.05.84,8.92,8.92,0,0,1,2.27-2.6,4.33,4.33,0,0,1,2.54-.76,3.61,3.61,0,0,1,.94.1,9.54,9.54,0,0,1,1.06.39Z"/><path class="cls-2" d="M343.13,105.87V92.07h-3.52v-3.8h3.52V83.83h5.24v4.44h4.52v3.8h-4.52v13.8Z"/><path class="cls-2" d="M370.17,93.11a4.59,4.59,0,0,1-.71,2.48,6,6,0,0,1-2,1.9,11.21,11.21,0,0,1-3.11,1.22,17.66,17.66,0,0,1-4.08.44l-.48,0a6.33,6.33,0,0,0-.65,0,3.72,3.72,0,0,0,1.2,2.38,3.82,3.82,0,0,0,2.59.86,11.85,11.85,0,0,0,5.89-1.8v4.2a12,12,0,0,1-2.9,1.26,12.28,12.28,0,0,1-3.14.38,10.37,10.37,0,0,1-3.62-.6,7.39,7.39,0,0,1-2.74-1.74,7.74,7.74,0,0,1-1.72-2.72,10.07,10.07,0,0,1-.6-3.58,11,11,0,0,1,.7-4,9.34,9.34,0,0,1,2-3.14,8.67,8.67,0,0,1,3-2,10.15,10.15,0,0,1,3.88-.72,7.32,7.32,0,0,1,4.74,1.44A4.68,4.68,0,0,1,370.17,93.11Zm-5.32.4a1.37,1.37,0,0,0-.55-1.1,2.05,2.05,0,0,0-1.38-.46,3.13,3.13,0,0,0-2.28.94,4.42,4.42,0,0,0-1.23,2.58,3.57,3.57,0,0,0,.64.08h.59Q364.86,95.55,364.85,93.51Z"/><path class="cls-2" d="M389.81,93.11a4.59,4.59,0,0,1-.71,2.48,6,6,0,0,1-2,1.9A11.21,11.21,0,0,1,384,98.71a17.66,17.66,0,0,1-4.08.44l-.48,0a6.33,6.33,0,0,0-.65,0,3.72,3.72,0,0,0,1.2,2.38,3.82,3.82,0,0,0,2.59.86,11.85,11.85,0,0,0,5.89-1.8v4.2a12,12,0,0,1-2.9,1.26,12.28,12.28,0,0,1-3.14.38,10.37,10.37,0,0,1-3.62-.6,7.39,7.39,0,0,1-2.74-1.74,7.74,7.74,0,0,1-1.72-2.72,10.07,10.07,0,0,1-.6-3.58,11,11,0,0,1,.7-4,9.34,9.34,0,0,1,2-3.14,8.67,8.67,0,0,1,3-2,10.15,10.15,0,0,1,3.88-.72A7.32,7.32,0,0,1,388,89.27,4.68,4.68,0,0,1,389.81,93.11Zm-5.32.4a1.37,1.37,0,0,0-.55-1.1,2.05,2.05,0,0,0-1.38-.46,3.13,3.13,0,0,0-2.28.94,4.36,4.36,0,0,0-1.23,2.58,3.57,3.57,0,0,0,.64.08h.59Q384.5,95.55,384.49,93.51Z"/><path class="cls-2" d="M394.69,105.87V92.07h-3.52v-3.8h3.52V83.83h5.24v4.44h4.52v3.8h-4.52v13.8Z"/><path class="cls-2" d="M418.85,105.87v-10a5.32,5.32,0,0,0-.18-1.54,2.15,2.15,0,0,0-.51-.89,1.65,1.65,0,0,0-.74-.41,4,4,0,0,0-.86-.09,2.4,2.4,0,0,0-1.32.4,4.06,4.06,0,0,0-1.13,1.1,6.1,6.1,0,0,0-.79,1.64,6.23,6.23,0,0,0-.31,2v7.75h-5.32V78.47H413v11.8a6,6,0,0,1,2.21-1.54,7.28,7.28,0,0,1,2.68-.46,8.52,8.52,0,0,1,2.31.31,5.9,5.9,0,0,1,2,1,5.12,5.12,0,0,1,1.44,1.81,6.25,6.25,0,0,1,.55,2.77v11.72Z"/><path class="cls-2" d="M436.85,103.4a2.17,2.17,0,0,1-.91,1.76,3.52,3.52,0,0,1-2.21.71,3.46,3.46,0,0,1-2.23-.76,2.31,2.31,0,0,1-.06-3.66,3.19,3.19,0,0,1,2.13-.74,3.52,3.52,0,0,1,2.33.79A2.41,2.41,0,0,1,436.85,103.4Z"/><path class="cls-2" d="M63.26,31.67v23.2H57V31.63H49.54V27H70.62v4.72Z"/><path class="cls-2" d="M81.38,54.39a7,7,0,0,1-.34-.92c-.07-.24-.14-.59-.22-1a7.88,7.88,0,0,1-5.64,2.44,5.7,5.7,0,0,1-2.38-.49A5.93,5.93,0,0,1,70.88,53,5.79,5.79,0,0,1,69.62,51a7.61,7.61,0,0,1-.44-2.68c0-1.09,0-2.11.08-3s.09-1.83.12-2.69,0-1.71,0-2.57-.1-1.76-.2-2.72H74.5c.08.87.12,1.71.14,2.52s0,1.62,0,2.41,0,1.61-.08,2.43-.06,1.7-.06,2.62a4.28,4.28,0,0,0,.25,1.64,1.87,1.87,0,0,0,.64.87,2,2,0,0,0,.81.33,5.2,5.2,0,0,0,.71.06,3.79,3.79,0,0,0,.86-.16,2.78,2.78,0,0,0,1.2-.73A4.78,4.78,0,0,0,80,47.56a8.2,8.2,0,0,0,.46-3V37.27h5.32V48.9a20,20,0,0,0,.24,3,9.85,9.85,0,0,0,.64,2.45Z"/><path class="cls-2" d="M104.42,42.19c-.38-.08-.67-.14-.88-.16a5.39,5.39,0,0,0-.72,0,4.06,4.06,0,0,0-3.46,1.56,7.63,7.63,0,0,0-1.18,4.65v6.67H92.86V43.31c0-.65,0-1.22,0-1.7s0-.93-.1-1.35-.13-.83-.22-1.23-.22-.87-.38-1.39h5c.08.32.15.6.22.84a4.6,4.6,0,0,1,.15.65c0,.21,0,.43.08.66a6.74,6.74,0,0,1,0,.84A8.78,8.78,0,0,1,100,38a4.33,4.33,0,0,1,2.54-.76,3.66,3.66,0,0,1,.94.1,10.34,10.34,0,0,1,1.06.39Z"/><path class="cls-2" d="M119.22,54.87v-10a4.11,4.11,0,0,0-.26-1.62,2.4,2.4,0,0,0-.62-.87,1.64,1.64,0,0,0-.76-.35,6.58,6.58,0,0,0-.68,0,4.11,4.11,0,0,0-.84.15,2.82,2.82,0,0,0-1.22.74,4.85,4.85,0,0,0-1.1,1.69,7.79,7.79,0,0,0-.48,3v7.29h-5.32V43.23a19.92,19.92,0,0,0-.24-3,10,10,0,0,0-.64-2.45h5.32a8,8,0,0,1,.34.92c.06.24.14.58.22,1a8.22,8.22,0,0,1,2.74-1.84,7.89,7.89,0,0,1,3-.6,5.84,5.84,0,0,1,2.33.46A5.46,5.46,0,0,1,122.85,39a6.11,6.11,0,0,1,1.23,2.06,7.93,7.93,0,0,1,.46,2.75v11Z"/><path class="cls-2" d="M160.89,46a10.1,10.1,0,0,1-.65,3.79,7.67,7.67,0,0,1-1.87,2.77,8.21,8.21,0,0,1-2.91,1.71,12.31,12.31,0,0,1-7.53,0A8.12,8.12,0,0,1,145,52.57a7.84,7.84,0,0,1-1.89-2.77,9.9,9.9,0,0,1-.68-3.79,9.71,9.71,0,0,1,.66-3.69,7.59,7.59,0,0,1,4.76-4.47,11.78,11.78,0,0,1,3.82-.58,12.08,12.08,0,0,1,3.77.56,8.15,8.15,0,0,1,2.91,1.68,7.42,7.42,0,0,1,1.87,2.75A10,10,0,0,1,160.89,46Zm-5.32,0a3.68,3.68,0,0,0-4-4,3.71,3.71,0,0,0-2.85,1.06,4.15,4.15,0,0,0-1,3,4.46,4.46,0,0,0,1,3.06,3.67,3.67,0,0,0,2.87,1.08,3.92,3.92,0,0,0,2.93-1.06A4.23,4.23,0,0,0,155.57,46Z"/><path class="cls-2" d="M178.53,31.91a7,7,0,0,0-1.44-.54,5.46,5.46,0,0,0-1.32-.14,3.6,3.6,0,0,0-1.64.32,2.25,2.25,0,0,0-1,1,5.64,5.64,0,0,0-.5,1.86,25,25,0,0,0-.14,2.84h4.24v3.88h-4.2V54.87h-5.32V41.07h-3.32v-3.8h3.24a23.45,23.45,0,0,1,.44-4.94,8.1,8.1,0,0,1,1.34-3.16,4.92,4.92,0,0,1,2.24-1.68,8.73,8.73,0,0,1,3.1-.5,13.63,13.63,0,0,1,4.76.8Z"/><path class="cls-2" d="M192.37,31.91a7,7,0,0,0-1.44-.54,5.46,5.46,0,0,0-1.32-.14,3.6,3.6,0,0,0-1.64.32,2.25,2.25,0,0,0-1,1,5.64,5.64,0,0,0-.5,1.86,25,25,0,0,0-.14,2.84h4.24v3.88h-4.2V54.87h-5.32V41.07h-3.32v-3.8H181a23.45,23.45,0,0,1,.44-4.94,8.1,8.1,0,0,1,1.34-3.16A4.92,4.92,0,0,1,185,27.49a8.73,8.73,0,0,1,3.1-.5,13.63,13.63,0,0,1,4.76.8Z"/><path class="cls-2" d="M207.45,54.87V41.07h-3.52v-3.8h3.52V32.83h5.24v4.44h4.52v3.8h-4.52v13.8Z"/><path class="cls-2" d="M231.61,54.87V44.92a5.32,5.32,0,0,0-.18-1.54,2,2,0,0,0-.51-.89,1.65,1.65,0,0,0-.74-.41,4,4,0,0,0-.85-.09,2.41,2.41,0,0,0-1.33.4,4.2,4.2,0,0,0-1.13,1.1,6.1,6.1,0,0,0-.79,1.64,6.23,6.23,0,0,0-.31,2v7.75h-5.32V27.47h5.28v11.8a6.08,6.08,0,0,1,2.21-1.54,7.28,7.28,0,0,1,2.68-.46,8.52,8.52,0,0,1,2.31.31,5.9,5.9,0,0,1,2,1,5.12,5.12,0,0,1,1.44,1.81,6.25,6.25,0,0,1,.55,2.77V54.87Z"/><path class="cls-2" d="M258.65,42.11a4.59,4.59,0,0,1-.71,2.48,5.94,5.94,0,0,1-2,1.9,11.21,11.21,0,0,1-3.11,1.22,17.53,17.53,0,0,1-4.08.44l-.48,0a6.33,6.33,0,0,0-.65,0,3.72,3.72,0,0,0,1.2,2.38,3.82,3.82,0,0,0,2.59.86,11.82,11.82,0,0,0,5.89-1.8v4.2a11.87,11.87,0,0,1-2.9,1.26,12.23,12.23,0,0,1-3.14.38,10.37,10.37,0,0,1-3.62-.6,7.39,7.39,0,0,1-2.74-1.74,7.89,7.89,0,0,1-1.72-2.72,10.07,10.07,0,0,1-.6-3.58,11.23,11.23,0,0,1,.7-4,9.34,9.34,0,0,1,2-3.14,8.67,8.67,0,0,1,3-2,10.19,10.19,0,0,1,3.88-.72,7.29,7.29,0,0,1,4.74,1.44A4.68,4.68,0,0,1,258.65,42.11Zm-5.32.4a1.37,1.37,0,0,0-.55-1.1A2,2,0,0,0,251.4,41a3.13,3.13,0,0,0-2.28.94,4.48,4.48,0,0,0-1.23,2.58,3.79,3.79,0,0,0,.64.08h.59Q253.34,44.55,253.33,42.51Z"/><path class="cls-2" d="M276.77,54.87V41.07h-3.52v-3.8h3.52V32.83H282v4.44h4.52v3.8H282v13.8Z"/><path class="cls-2" d="M301.25,54.87a6,6,0,0,0,0-.68c0-.22,0-.47-.07-.76s0-.6-.06-.92a6.44,6.44,0,0,1-2.6,2.06,8.56,8.56,0,0,1-3.41.7A6.32,6.32,0,0,1,290,53.11,9.28,9.28,0,0,1,288.13,47q0-4.85,2.94-7.46t8.38-2.62c.59,0,1.13,0,1.62,0s1,.07,1.46.14,1,.15,1.5.26a17.21,17.21,0,0,1,1.7.44V49.11c0,.61,0,1.26,0,1.94s.07,1.3.12,1.86.11,1.32.16,2Zm-.84-13a7.1,7.1,0,0,0-1.26-.2c-.38,0-.73,0-1.06,0A4.27,4.27,0,0,0,294.67,43,5.86,5.86,0,0,0,293.45,47a4,4,0,0,0,.73,2.56,2.57,2.57,0,0,0,2.08.88,3.68,3.68,0,0,0,1.61-.36,4,4,0,0,0,1.32-1,5,5,0,0,0,.9-1.56,6.11,6.11,0,0,0,.32-2Z"/><path class="cls-2" d="M329.05,45a13.29,13.29,0,0,1-.56,4,9.59,9.59,0,0,1-1.58,3.11,7.23,7.23,0,0,1-2.43,2,7.45,7.45,0,0,1-5.2.43,6.35,6.35,0,0,1-1.79-1V66.79h-5.6V42.54a10.17,10.17,0,0,0-.06-1c0-.39-.09-.81-.16-1.24s-.15-.86-.24-1.29a8.6,8.6,0,0,0-.34-1.2h5.42a3.63,3.63,0,0,1,.29.78,7.35,7.35,0,0,1,.17,1.1,8.41,8.41,0,0,1,2.41-1.84,6.3,6.3,0,0,1,2.76-.56,7,7,0,0,1,2.82.55,6.27,6.27,0,0,1,2.18,1.58,7.41,7.41,0,0,1,1.41,2.46A9.71,9.71,0,0,1,329.05,45Zm-5.32.89a3.8,3.8,0,0,0-.79-2.57,2.74,2.74,0,0,0-2.2-.92,3.16,3.16,0,0,0-2.58,1.17,4.93,4.93,0,0,0-1,3.17v2.31A4.23,4.23,0,0,0,320,50.15a3.44,3.44,0,0,0,2.7-1.12A4.55,4.55,0,0,0,323.73,45.92Z"/><path class="cls-2" d="M369.25,52.91a3.07,3.07,0,0,1-1.06,1.51,3.2,3.2,0,0,1-1.82.45,3,3,0,0,1-1.84-.49,3.43,3.43,0,0,1-1-1.63l-3.4-10.37L356.53,53a2.56,2.56,0,0,1-1,1.46,3.49,3.49,0,0,1-1.9.45,5.73,5.73,0,0,1-.84-.06,2.08,2.08,0,0,1-.76-.26,2,2,0,0,1-.68-.62,4.25,4.25,0,0,1-.56-1.13l-5.6-15.53h5.4l2.32,7.1c.08.26.17.57.26.92s.19.69.3,1,.23.81.36,1.25a6.64,6.64,0,0,1,.24-1l.26-.91c.09-.33.18-.64.26-.92l2.24-7.49h6.48l2.4,7.84a6.93,6.93,0,0,0,.22.76c.09.27.18.54.26.8a4.59,4.59,0,0,1,.24.9c.08-.26.16-.53.24-.82.13-.52.28-1,.44-1.48l2.36-8h5.6Z"/><path class="cls-2" d="M390.33,54.87V44.92a5.32,5.32,0,0,0-.18-1.54,2.15,2.15,0,0,0-.51-.89,1.65,1.65,0,0,0-.74-.41A4,4,0,0,0,388,42a2.4,2.4,0,0,0-1.32.4,4.06,4.06,0,0,0-1.13,1.1,6.1,6.1,0,0,0-.79,1.64,6.23,6.23,0,0,0-.31,2v7.75h-5.32V27.47h5.28v11.8a6,6,0,0,1,2.21-1.54,7.28,7.28,0,0,1,2.68-.46,8.52,8.52,0,0,1,2.31.31,5.9,5.9,0,0,1,2,1,5.12,5.12,0,0,1,1.44,1.81,6.25,6.25,0,0,1,.55,2.77V54.87Z"/><path class="cls-2" d="M417.37,42.11a4.59,4.59,0,0,1-.71,2.48,6,6,0,0,1-2,1.9,11.21,11.21,0,0,1-3.11,1.22,17.66,17.66,0,0,1-4.08.44l-.48,0a6.33,6.33,0,0,0-.65,0,3.72,3.72,0,0,0,1.2,2.38,3.82,3.82,0,0,0,2.59.86,11.85,11.85,0,0,0,5.89-1.8v4.2a12,12,0,0,1-2.9,1.26,12.28,12.28,0,0,1-3.14.38,10.37,10.37,0,0,1-3.62-.6,7.39,7.39,0,0,1-2.74-1.74,7.74,7.74,0,0,1-1.72-2.72,10.07,10.07,0,0,1-.6-3.58,11,11,0,0,1,.7-4,9.34,9.34,0,0,1,2-3.14,8.67,8.67,0,0,1,3-2,10.15,10.15,0,0,1,3.88-.72,7.32,7.32,0,0,1,4.74,1.44A4.68,4.68,0,0,1,417.37,42.11Zm-5.32.4a1.37,1.37,0,0,0-.55-1.1,2.05,2.05,0,0,0-1.38-.46,3.13,3.13,0,0,0-2.28.94,4.36,4.36,0,0,0-1.23,2.58,3.57,3.57,0,0,0,.64.08h.59Q412.05,44.55,412.05,42.51Z"/><path class="cls-2" d="M433.09,54.87v-10a4.11,4.11,0,0,0-.26-1.62,2.29,2.29,0,0,0-.62-.87,1.59,1.59,0,0,0-.76-.35,6.39,6.39,0,0,0-.68,0,4.11,4.11,0,0,0-.84.15,2.82,2.82,0,0,0-1.22.74,5,5,0,0,0-1.1,1.69,7.79,7.79,0,0,0-.48,3v7.29h-5.32V43.23a19.92,19.92,0,0,0-.24-3,9.61,9.61,0,0,0-.64-2.45h5.32a8,8,0,0,1,.34.92,10.3,10.3,0,0,1,.22,1,8.32,8.32,0,0,1,2.74-1.84,8,8,0,0,1,3-.6,5.8,5.8,0,0,1,2.33.46A5.46,5.46,0,0,1,436.72,39,6,6,0,0,1,438,41.1a7.93,7.93,0,0,1,.45,2.75v11Z"/></svg>