<svg id="Layer_1" data-name="Layer 1" xmlns="http://www.w3.org/2000/svg" viewBox="0 0 450 140"><defs><style>.cls-1{fill:#ffdb27;stroke:#fff;stroke-miterlimit:10;stroke-width:4px;}.cls-2{fill:#323232;}</style></defs><path class="cls-1" d="M74.58,135H375.42C413.85,135,445,105.9,445,70h0c0-35.9-31.15-65-69.58-65H74.58C36.15,5,5,34.1,5,70H5C5,105.9,36.15,135,74.58,135Z"/><path class="cls-2" d="M107.36,55.48H101.2l-5-16.63c-.13-.37-.26-.79-.4-1.27l-.36-1.35c-.13-.48-.25-1-.36-1.48-.13.56-.26,1.08-.4,1.55s-.26.9-.38,1.35-.24.86-.38,1.23L88.4,55.48H82.68l-8-27.92h6.64l3.84,16.09c.08.37.17.75.26,1.15s.18.78.26,1.15.2.84.28,1.23c.16-.55.3-1,.4-1.33s.2-.61.26-.85.14-.47.22-.7l.32-.89,5.4-15.85h6l4.6,15.93c.11.37.24.82.4,1.35s.31,1,.44,1.51.34,1.12.52,1.71c.14-.59.26-1.15.36-1.71s.22-1,.34-1.47a13.48,13.48,0,0,1,.38-1.31l4.64-16h6.68Z"/><path class="cls-2" d="M132.76,42.72a4.46,4.46,0,0,1-.71,2.48,5.85,5.85,0,0,1-2,1.9,10.91,10.91,0,0,1-3.11,1.22,17,17,0,0,1-4.08.44,4.19,4.19,0,0,1-.48,0l-.65,0a3.67,3.67,0,0,0,1.2,2.38,3.79,3.79,0,0,0,2.59.86,11.82,11.82,0,0,0,5.89-1.8v4.2a11.15,11.15,0,0,1-2.9,1.26,11.8,11.8,0,0,1-3.14.38,10.37,10.37,0,0,1-3.62-.6A7.39,7.39,0,0,1,119,53.66a7.79,7.79,0,0,1-1.72-2.72,10,10,0,0,1-.6-3.58,11.31,11.31,0,0,1,.7-4,9.44,9.44,0,0,1,2-3.14,8.67,8.67,0,0,1,3-2,10.19,10.19,0,0,1,3.88-.72A7.29,7.29,0,0,1,131,38.88,4.68,4.68,0,0,1,132.76,42.72Zm-5.32.4a1.4,1.4,0,0,0-.55-1.1,2.09,2.09,0,0,0-1.38-.46,3.17,3.17,0,0,0-2.28.94A4.54,4.54,0,0,0,122,45.08a3,3,0,0,0,.64.08h.59Q127.45,45.16,127.44,43.12Z"/><path class="cls-2" d="M160.92,55.48v-10a3.9,3.9,0,0,0-.26-1.62A2.21,2.21,0,0,0,160,43a1.59,1.59,0,0,0-.76-.35,4.59,4.59,0,0,0-.68-.06,4.35,4.35,0,0,0-.84.16,3,3,0,0,0-1.22.73,5,5,0,0,0-1.1,1.7,7.76,7.76,0,0,0-.48,3v7.28h-5.32V43.85a19.82,19.82,0,0,0-.24-3,9.82,9.82,0,0,0-.64-2.46h5.32a7,7,0,0,1,.34.92c.07.24.14.59.22,1a8.41,8.41,0,0,1,2.75-1.84,7.88,7.88,0,0,1,3-.6,5.86,5.86,0,0,1,2.34.47,5.66,5.66,0,0,1,1.86,1.31,5.92,5.92,0,0,1,1.23,2.06,7.91,7.91,0,0,1,.45,2.74v11Z"/><path class="cls-2" d="M188,42.72a4.54,4.54,0,0,1-.71,2.48,5.85,5.85,0,0,1-2,1.9,10.91,10.91,0,0,1-3.11,1.22,17,17,0,0,1-4.08.44,4.19,4.19,0,0,1-.48,0l-.65,0a3.67,3.67,0,0,0,1.2,2.38,3.77,3.77,0,0,0,2.59.86,11.82,11.82,0,0,0,5.89-1.8v4.2a11.15,11.15,0,0,1-2.9,1.26,11.8,11.8,0,0,1-3.14.38,10.37,10.37,0,0,1-3.62-.6,7.39,7.39,0,0,1-2.74-1.74,7.65,7.65,0,0,1-1.72-2.72,10,10,0,0,1-.6-3.58,11.31,11.31,0,0,1,.7-4,9.44,9.44,0,0,1,2-3.14,8.67,8.67,0,0,1,3-2,10.19,10.19,0,0,1,3.88-.72,7.32,7.32,0,0,1,4.74,1.44A4.68,4.68,0,0,1,188,42.72Zm-5.32.4a1.4,1.4,0,0,0-.55-1.1,2.09,2.09,0,0,0-1.38-.46,3.17,3.17,0,0,0-2.28.94,4.54,4.54,0,0,0-1.23,2.58,3,3,0,0,0,.64.08h.59Q182.65,45.16,182.64,43.12Z"/><path class="cls-2" d="M207.6,42.72a4.54,4.54,0,0,1-.71,2.48,5.85,5.85,0,0,1-2,1.9,10.91,10.91,0,0,1-3.11,1.22,17,17,0,0,1-4.08.44,4.19,4.19,0,0,1-.48,0l-.65,0a3.67,3.67,0,0,0,1.2,2.38,3.77,3.77,0,0,0,2.59.86,11.82,11.82,0,0,0,5.89-1.8v4.2a11.3,11.3,0,0,1-2.9,1.26,11.8,11.8,0,0,1-3.14.38,10.37,10.37,0,0,1-3.62-.6,7.39,7.39,0,0,1-2.74-1.74,7.65,7.65,0,0,1-1.72-2.72,10,10,0,0,1-.6-3.58,11.09,11.09,0,0,1,.7-4,9.44,9.44,0,0,1,2-3.14,8.67,8.67,0,0,1,3-2,10.15,10.15,0,0,1,3.88-.72,7.32,7.32,0,0,1,4.74,1.44A4.68,4.68,0,0,1,207.6,42.72Zm-5.32.4a1.4,1.4,0,0,0-.55-1.1,2.09,2.09,0,0,0-1.38-.46,3.17,3.17,0,0,0-2.28.94,4.54,4.54,0,0,0-1.23,2.58,3,3,0,0,0,.64.08h.59Q202.29,45.16,202.28,43.12Z"/><path class="cls-2" d="M225,55.48c0-.16-.05-.34-.08-.56s0-.4-.08-.64-.06-.53-.08-.88a7.25,7.25,0,0,1-2.65,2,8.18,8.18,0,0,1-3.17.58,7.83,7.83,0,0,1-3.19-.62,6.89,6.89,0,0,1-2.42-1.72A7.88,7.88,0,0,1,211.72,51a10.33,10.33,0,0,1-.56-3.48,11.93,11.93,0,0,1,.66-4,9.8,9.8,0,0,1,1.84-3.18,8.41,8.41,0,0,1,2.82-2.08,8.72,8.72,0,0,1,3.6-.74,12.37,12.37,0,0,1,1.76.12,10.68,10.68,0,0,1,2,.52V27.6h5.32V49.4c0,.46,0,1,.06,1.72s.09,1.36.14,2,.12,1.54.2,2.36ZM223.8,42.64a6.13,6.13,0,0,0-1.47-.4,13.3,13.3,0,0,0-1.44-.08,4,4,0,0,0-3.22,1.38,5.61,5.61,0,0,0-1.19,3.78,4.11,4.11,0,0,0,.83,2.74,2.83,2.83,0,0,0,2.29,1,4.67,4.67,0,0,0,1.64-.28,2.91,2.91,0,0,0,1.33-1,4.87,4.87,0,0,0,.9-1.78,9.63,9.63,0,0,0,.33-2.74Z"/><path class="cls-2" d="M269.76,53.53A3.12,3.12,0,0,1,268.7,55a3.26,3.26,0,0,1-1.82.44A3,3,0,0,1,265,55a3.51,3.51,0,0,1-1-1.63L260.6,43,257,53.57A2.55,2.55,0,0,1,256,55a3.59,3.59,0,0,1-1.9.44,7.58,7.58,0,0,1-.84,0,2.28,2.28,0,0,1-.76-.26,2.17,2.17,0,0,1-.68-.62,4.4,4.4,0,0,1-.56-1.13l-5.6-15.54h5.4L253.4,45c.08.26.17.56.26.91s.19.7.3,1,.23.81.36,1.25a6.64,6.64,0,0,1,.24-1c.08-.29.17-.59.26-.92l.26-.91,2.24-7.5h6.48l2.4,7.85a7.63,7.63,0,0,0,.22.76c.09.27.18.54.26.8a4.59,4.59,0,0,1,.24.9c.08-.26.16-.54.24-.82.13-.52.28-1,.44-1.49l2.36-8h5.6Z"/><path class="cls-2" d="M291.56,55.48c0-.18,0-.41,0-.68s0-.46-.07-.76,0-.6-.06-.92a6.24,6.24,0,0,1-2.61,2.06,8.31,8.31,0,0,1-3.4.7,6.32,6.32,0,0,1-5.11-2.16,9.26,9.26,0,0,1-1.83-6.16,9.48,9.48,0,0,1,2.94-7.46c2-1.74,4.75-2.62,8.37-2.62.6,0,1.14,0,1.63,0s1,.08,1.46.14,1,.16,1.5.26,1.08.26,1.7.44V49.72c0,.62,0,1.26,0,1.94s.07,1.3.12,1.86.11,1.32.16,2Zm-.84-13a9.57,9.57,0,0,0-1.26-.2c-.38,0-.73,0-1.06,0A4.29,4.29,0,0,0,285,43.62a5.88,5.88,0,0,0-1.22,3.94,3.89,3.89,0,0,0,.73,2.56,2.54,2.54,0,0,0,2.08.88,3.71,3.71,0,0,0,1.61-.36,4,4,0,0,0,1.32-1,5,5,0,0,0,.9-1.56,6.07,6.07,0,0,0,.32-2Z"/><path class="cls-2" d="M302.84,55.48V41.68h-3.52v-3.8h3.52V33.44h5.24v4.44h4.52v3.8h-4.52v13.8Z"/><path class="cls-2" d="M329.88,42.72a4.54,4.54,0,0,1-.71,2.48,5.85,5.85,0,0,1-2,1.9,10.91,10.91,0,0,1-3.11,1.22,17.07,17.07,0,0,1-4.08.44,4.19,4.19,0,0,1-.48,0l-.65,0A3.67,3.67,0,0,0,320,51.1a3.77,3.77,0,0,0,2.59.86,11.85,11.85,0,0,0,5.89-1.8v4.2a11.3,11.3,0,0,1-2.9,1.26,11.85,11.85,0,0,1-3.14.38,10.37,10.37,0,0,1-3.62-.6,7.39,7.39,0,0,1-2.74-1.74,7.65,7.65,0,0,1-1.72-2.72,10,10,0,0,1-.6-3.58,11.09,11.09,0,0,1,.7-4,9.44,9.44,0,0,1,2-3.14,8.67,8.67,0,0,1,3-2,10.15,10.15,0,0,1,3.88-.72,7.32,7.32,0,0,1,4.74,1.44A4.68,4.68,0,0,1,329.88,42.72Zm-5.32.4A1.4,1.4,0,0,0,324,42a2.09,2.09,0,0,0-1.38-.46,3.17,3.17,0,0,0-2.28.94,4.48,4.48,0,0,0-1.23,2.58,2.91,2.91,0,0,0,.64.08h.59Q324.57,45.16,324.56,43.12Z"/><path class="cls-2" d="M346.28,42.8c-.37-.08-.67-.13-.88-.16s-.45,0-.72,0a4.08,4.08,0,0,0-3.46,1.57A7.61,7.61,0,0,0,340,48.81v6.67h-5.32V43.93c0-.65,0-1.22,0-1.7s-.05-.93-.1-1.35-.13-.83-.22-1.24-.22-.86-.38-1.39h5.05c.08.33.16.61.23.84a4.91,4.91,0,0,1,.14.66c0,.21.06.43.08.66a6.53,6.53,0,0,1,.05.84,9.11,9.11,0,0,1,2.27-2.61,4.4,4.4,0,0,1,2.54-.76,3.57,3.57,0,0,1,.94.11,9.54,9.54,0,0,1,1.06.39Z"/><path class="cls-2" d="M363.48,55.48V41.68H360v-3.8h3.52V33.44h5.24v4.44h4.52v3.8h-4.52v13.8Z"/><path class="cls-2" d="M392.72,46.63a10.13,10.13,0,0,1-.66,3.79,7.67,7.67,0,0,1-1.87,2.77,8.12,8.12,0,0,1-2.91,1.71,12.48,12.48,0,0,1-7.52,0,8.12,8.12,0,0,1-2.91-1.71A7.84,7.84,0,0,1,375,50.42a9.93,9.93,0,0,1-.68-3.79,9.76,9.76,0,0,1,.66-3.7,7.63,7.63,0,0,1,1.85-2.75,7.79,7.79,0,0,1,2.91-1.71,12.67,12.67,0,0,1,7.58,0,8.06,8.06,0,0,1,2.91,1.68,7.42,7.42,0,0,1,1.87,2.75A10,10,0,0,1,392.72,46.63Zm-5.32,0a4,4,0,0,0-1.07-3,4,4,0,0,0-2.89-1.06,3.73,3.73,0,0,0-2.85,1.06,4.2,4.2,0,0,0-1,3,4.41,4.41,0,0,0,1,3.06,3.66,3.66,0,0,0,2.87,1.07,3.93,3.93,0,0,0,2.93-1A4.25,4.25,0,0,0,387.4,46.63Z"/><path class="cls-2" d="M114.8,106.16a11.88,11.88,0,0,1-2.86.32,9.54,9.54,0,0,1-3.52-.63,8.7,8.7,0,0,1-2.78-1.73,7.68,7.68,0,0,1-1.82-2.67,9.29,9.29,0,0,1-.64-3.48,11.32,11.32,0,0,1,.58-3.66,7.73,7.73,0,0,1,1.76-2.89,8.2,8.2,0,0,1,2.92-1.87,11.44,11.44,0,0,1,4.06-.67,9.24,9.24,0,0,1,3.06.42,10.91,10.91,0,0,1,2,.9l-.92,4.6c-.4-.18-.74-.35-1-.5s-.54-.26-.8-.36a4,4,0,0,0-.84-.2,8.55,8.55,0,0,0-1.1-.06,4.14,4.14,0,0,0-3.08,1.1,4,4,0,0,0-1.08,2.94,3.93,3.93,0,0,0,1.12,3,4.49,4.49,0,0,0,3.24,1.07,8.84,8.84,0,0,0,2.08-.24,11.6,11.6,0,0,0,2.12-.76l.36,4.35A14,14,0,0,1,114.8,106.16Z"/><path class="cls-2" d="M139.38,97.63a10.13,10.13,0,0,1-.66,3.79,7.54,7.54,0,0,1-1.87,2.77,8.17,8.17,0,0,1-2.9,1.71,12.51,12.51,0,0,1-7.53,0,8.12,8.12,0,0,1-2.91-1.71,7.84,7.84,0,0,1-1.89-2.77,9.93,9.93,0,0,1-.68-3.79,9.76,9.76,0,0,1,.66-3.7,7.54,7.54,0,0,1,4.76-4.46,12.71,12.71,0,0,1,7.59,0,8.1,8.1,0,0,1,2.9,1.68,7.31,7.31,0,0,1,1.87,2.75A10,10,0,0,1,139.38,97.63Zm-5.32,0a4,4,0,0,0-1.07-3,4,4,0,0,0-2.89-1.06,3.73,3.73,0,0,0-2.85,1.06,4.2,4.2,0,0,0-1,3,4.46,4.46,0,0,0,1,3.06,3.66,3.66,0,0,0,2.87,1.07,3.92,3.92,0,0,0,2.93-1.05A4.25,4.25,0,0,0,134.06,97.63Z"/><path class="cls-2" d="M162,97.63a10.13,10.13,0,0,1-.66,3.79,7.54,7.54,0,0,1-1.87,2.77,8.17,8.17,0,0,1-2.9,1.71,12.51,12.51,0,0,1-7.53,0,8.12,8.12,0,0,1-2.91-1.71,7.84,7.84,0,0,1-1.89-2.77,9.93,9.93,0,0,1-.68-3.79,9.76,9.76,0,0,1,.66-3.7,7.76,7.76,0,0,1,1.85-2.75A8,8,0,0,1,149,89.47a12.71,12.71,0,0,1,7.59,0,8.1,8.1,0,0,1,2.9,1.68,7.31,7.31,0,0,1,1.87,2.75A10,10,0,0,1,162,97.63Zm-5.32,0a4,4,0,0,0-1.07-3,4,4,0,0,0-2.89-1.06,3.73,3.73,0,0,0-2.85,1.06,4.2,4.2,0,0,0-1,3,4.41,4.41,0,0,0,1,3.06,3.66,3.66,0,0,0,2.87,1.07,3.92,3.92,0,0,0,2.93-1.05A4.25,4.25,0,0,0,156.66,97.63Z"/><path class="cls-2" d="M177.62,96.08l8.52,10.4h-7l-6.64-8.68v8.68h-5.32V78.6h5.32V94.68l6.48-5.8h7.64Z"/><path class="cls-2" d="M220.62,97.63a10.13,10.13,0,0,1-.66,3.79,7.54,7.54,0,0,1-1.87,2.77,8.12,8.12,0,0,1-2.91,1.71,12.48,12.48,0,0,1-7.52,0,8.12,8.12,0,0,1-2.91-1.71,7.84,7.84,0,0,1-1.89-2.77,9.93,9.93,0,0,1-.68-3.79,9.76,9.76,0,0,1,.66-3.7,7.76,7.76,0,0,1,1.85-2.75,8,8,0,0,1,2.91-1.71,12.67,12.67,0,0,1,7.58,0,8.06,8.06,0,0,1,2.91,1.68A7.31,7.31,0,0,1,220,93.88,10,10,0,0,1,220.62,97.63Zm-5.32,0a4,4,0,0,0-1.07-3,4,4,0,0,0-2.89-1.06,3.73,3.73,0,0,0-2.85,1.06,4.2,4.2,0,0,0-1,3,4.41,4.41,0,0,0,1,3.06,3.66,3.66,0,0,0,2.87,1.07,3.93,3.93,0,0,0,2.93-1.05A4.25,4.25,0,0,0,215.3,97.63Z"/><path class="cls-2" d="M237.7,106a8,8,0,0,1-.34-.92,10.3,10.3,0,0,1-.22-1,7.81,7.81,0,0,1-5.64,2.44,5.89,5.89,0,0,1-2.38-.48,6,6,0,0,1-1.92-1.35,5.66,5.66,0,0,1-1.26-2.06,7.86,7.86,0,0,1-.44-2.69c0-1.09,0-2.1.08-3s.09-1.83.12-2.69,0-1.71,0-2.57-.09-1.77-.2-2.73h5.32c.08.88.13,1.72.14,2.53s0,1.61,0,2.41,0,1.61-.08,2.43-.06,1.7-.06,2.62a4.28,4.28,0,0,0,.25,1.64,1.83,1.83,0,0,0,1.46,1.2,4.9,4.9,0,0,0,.71.05,4.17,4.17,0,0,0,.85-.15,2.81,2.81,0,0,0,1.21-.73,4.87,4.87,0,0,0,1.06-1.7,8,8,0,0,0,.46-3V88.88h5.32v11.64a19.82,19.82,0,0,0,.24,3A9.61,9.61,0,0,0,243,106Z"/><path class="cls-2" d="M260.74,93.8c-.37-.08-.67-.13-.88-.16s-.45,0-.72,0a4.08,4.08,0,0,0-3.46,1.57,7.61,7.61,0,0,0-1.18,4.64v6.67h-5.32V94.93c0-.65,0-1.22,0-1.7s0-.93-.1-1.35-.13-.83-.22-1.24-.22-.86-.38-1.39h5c.08.33.16.61.23.84a4.91,4.91,0,0,1,.14.66c0,.21.06.43.08.66a6.53,6.53,0,0,1,0,.84,9.11,9.11,0,0,1,2.27-2.61,4.4,4.4,0,0,1,2.54-.76,3.57,3.57,0,0,1,.94.11,9.54,9.54,0,0,1,1.06.39Z"/><path class="cls-2" d="M289.14,83.52A8.35,8.35,0,0,0,287.7,83a6,6,0,0,0-1.32-.14,3.71,3.71,0,0,0-1.64.32,2.3,2.3,0,0,0-1,1,5.54,5.54,0,0,0-.5,1.86,25.1,25.1,0,0,0-.14,2.84h4.24v3.88h-4.2v13.72h-5.32V92.68H274.5v-3.8h3.24a23.52,23.52,0,0,1,.44-4.94,8,8,0,0,1,1.34-3.16,5.07,5.07,0,0,1,2.24-1.68,8.92,8.92,0,0,1,3.1-.5,13.91,13.91,0,0,1,4.76.8Z"/><path class="cls-2" d="M307.14,97.63a10.13,10.13,0,0,1-.66,3.79,7.67,7.67,0,0,1-1.87,2.77,8.12,8.12,0,0,1-2.91,1.71,12.48,12.48,0,0,1-7.52,0,8.12,8.12,0,0,1-2.91-1.71,7.84,7.84,0,0,1-1.89-2.77,9.93,9.93,0,0,1-.68-3.79,9.76,9.76,0,0,1,.66-3.7,7.63,7.63,0,0,1,1.85-2.75,7.87,7.87,0,0,1,2.91-1.71,12.67,12.67,0,0,1,7.58,0,8.06,8.06,0,0,1,2.91,1.68,7.42,7.42,0,0,1,1.87,2.75A10,10,0,0,1,307.14,97.63Zm-5.32,0a4,4,0,0,0-1.07-3,4,4,0,0,0-2.89-1.06A3.73,3.73,0,0,0,295,94.66a4.2,4.2,0,0,0-1,3,4.41,4.41,0,0,0,1,3.06,3.66,3.66,0,0,0,2.87,1.07,3.93,3.93,0,0,0,2.93-1.05A4.29,4.29,0,0,0,301.82,97.63Z"/><path class="cls-2" d="M329.74,97.63a10.13,10.13,0,0,1-.66,3.79,7.67,7.67,0,0,1-1.87,2.77,8.12,8.12,0,0,1-2.91,1.71,12.48,12.48,0,0,1-7.52,0,8.12,8.12,0,0,1-2.91-1.71,7.84,7.84,0,0,1-1.89-2.77,10.8,10.8,0,0,1,0-7.49,7.63,7.63,0,0,1,1.85-2.75,7.79,7.79,0,0,1,2.91-1.71,12.67,12.67,0,0,1,7.58,0,8.06,8.06,0,0,1,2.91,1.68,7.42,7.42,0,0,1,1.87,2.75A10,10,0,0,1,329.74,97.63Zm-5.32,0a4,4,0,0,0-1.07-3,4,4,0,0,0-2.89-1.06,3.73,3.73,0,0,0-2.85,1.06,4.2,4.2,0,0,0-1,3,4.41,4.41,0,0,0,1,3.06,3.64,3.64,0,0,0,2.87,1.07,3.93,3.93,0,0,0,2.93-1.05A4.29,4.29,0,0,0,324.42,97.63Z"/><path class="cls-2" d="M347.86,106.48c0-.16-.05-.34-.08-.56s-.06-.4-.08-.64-.06-.53-.09-.88a7.22,7.22,0,0,1-2.64,2,8.21,8.21,0,0,1-3.17.58,7.79,7.79,0,0,1-3.19-.62,6.93,6.93,0,0,1-2.43-1.72,7.86,7.86,0,0,1-1.56-2.66,10.33,10.33,0,0,1-.56-3.48,11.93,11.93,0,0,1,.66-4,9.8,9.8,0,0,1,1.84-3.18,8.31,8.31,0,0,1,2.82-2.08,8.68,8.68,0,0,1,3.6-.74,12.48,12.48,0,0,1,1.76.12,10.89,10.89,0,0,1,2,.52V78.6H352v21.8c0,.46,0,1,.06,1.72s.09,1.36.14,2,.12,1.54.2,2.36ZM346.7,93.64a6.2,6.2,0,0,0-1.48-.4,13.11,13.11,0,0,0-1.43-.08,4,4,0,0,0-3.23,1.38,5.61,5.61,0,0,0-1.18,3.78,4.11,4.11,0,0,0,.83,2.74,2.82,2.82,0,0,0,2.29,1,4.67,4.67,0,0,0,1.64-.28,3,3,0,0,0,1.33-1,5,5,0,0,0,.9-1.78,9.63,9.63,0,0,0,.33-2.74Z"/><path class="cls-2" d="M364.18,104a2.18,2.18,0,0,1-.91,1.76,3.52,3.52,0,0,1-2.21.7,3.43,3.43,0,0,1-2.23-.75,2.31,2.31,0,0,1-.06-3.66,3.15,3.15,0,0,1,2.13-.75,3.54,3.54,0,0,1,2.33.8A2.41,2.41,0,0,1,364.18,104Z"/></svg>