<?xml version="1.0" encoding="utf-8"?>
<!-- Generator: Adobe Illustrator 25.2.3, SVG Export Plug-In . SVG Version: 6.00 Build 0)  -->
<svg version="1.1" id="Layer_1" xmlns="http://www.w3.org/2000/svg" xmlns:xlink="http://www.w3.org/1999/xlink" x="0px" y="0px"
	 viewBox="0 0 490 425" style="enable-background:new 0 0 490 425;" xml:space="preserve">
<style type="text/css">
	.st0{fill:#78EFE9;}
	.st1{fill:#0072AB;}
	.st2{fill:#74879E;}
	.st3{clip-path:url(#SVGID_2_);}
	.st4{fill:url(#SVGID_3_);}
	.st5{fill:#CADDDB;}
	.st6{opacity:0.36;fill:#8CA1A0;enable-background:new    ;}
	.st7{opacity:0.95;}
	.st8{fill:none;stroke:#A39FAA;stroke-miterlimit:10;}
	.st9{fill:#9CB9DB;}
	.st10{opacity:0.39;fill:#85A2B5;enable-background:new    ;}
	.st11{fill:#636A7A;}
	.st12{fill:#C29370;}
	.st13{fill:#B3784C;}
	.st14{fill:#D1AE94;}
	.st15{fill-rule:evenodd;clip-rule:evenodd;fill:#9FBE3F;}
	.st16{fill-rule:evenodd;clip-rule:evenodd;fill:#87AA3E;}
	.st17{fill-rule:evenodd;clip-rule:evenodd;fill:#B6D04C;}
	.st18{fill:#F9E7BF;}
	.st19{fill-rule:evenodd;clip-rule:evenodd;fill:#4F988F;}
	.st20{fill-rule:evenodd;clip-rule:evenodd;fill:#1B756B;}
	.st21{fill-rule:evenodd;clip-rule:evenodd;fill:#86BBB5;}
	.st22{fill:#1B756B;}
	.st23{fill-rule:evenodd;clip-rule:evenodd;fill:#CF5D4F;}
	.st24{fill-rule:evenodd;clip-rule:evenodd;fill:#BC4839;}
	.st25{fill-rule:evenodd;clip-rule:evenodd;fill:#E27064;}
	.st26{fill-rule:evenodd;clip-rule:evenodd;fill:#7CB9D5;}
	.st27{fill-rule:evenodd;clip-rule:evenodd;fill:#53A1C7;}
	.st28{fill-rule:evenodd;clip-rule:evenodd;fill:#A7D0E2;}
	.st29{fill:#407893;}
	.st30{fill-rule:evenodd;clip-rule:evenodd;fill:#EECE77;}
	.st31{fill-rule:evenodd;clip-rule:evenodd;fill:#E9C056;}
	.st32{fill-rule:evenodd;clip-rule:evenodd;fill:#F4E19F;}
	.st33{fill:#E9C056;}
	.st34{fill-rule:evenodd;clip-rule:evenodd;fill:#C29370;}
	.st35{fill-rule:evenodd;clip-rule:evenodd;fill:#B3784C;}
	.st36{fill-rule:evenodd;clip-rule:evenodd;fill:#D1AE94;}
	.st37{fill:#865A39;}
	.st38{fill-rule:evenodd;clip-rule:evenodd;fill:#7F4719;}
	.st39{opacity:0.46;fill-rule:evenodd;clip-rule:evenodd;fill:#383838;enable-background:new    ;}
	.st40{fill:#BC763C;}
	.st41{fill-rule:evenodd;clip-rule:evenodd;fill:#6D6E71;}
	.st42{fill-rule:evenodd;clip-rule:evenodd;fill:#EDEBEB;}
	.st43{fill:#6D6E71;}
	.st44{opacity:0.3;fill:#231F20;enable-background:new    ;}
	.st45{fill:#D68549;}
	.st46{fill:#77593D;}
	.st47{fill:#89513A;}
	.st48{fill:#312F33;}
	.st49{opacity:0.38;}
	.st50{fill:#5B66B2;}
	.st51{fill:#8C653D;}
	.st52{fill:#A66F42;}
	.st53{fill:#FAD2C6;stroke:#453423;stroke-miterlimit:10;}
	.st54{fill:#9BD9E7;stroke:#5E4E1F;stroke-miterlimit:10;}
	.st55{fill:none;}
	.st56{fill:#0A7777;}
	.st57{fill:none;stroke:#5E4E1F;stroke-miterlimit:10;}
	.st58{fill:#F8D0C5;stroke:#323232;stroke-miterlimit:10;}
	.st59{opacity:0.63;fill:#DA9C8D;enable-background:new    ;}
	.st60{opacity:0.22;fill:#0A2C2D;enable-background:new    ;}
	.st61{fill:#F8D0C5;stroke:#323232;stroke-width:0.75;stroke-miterlimit:10;}
	.st62{fill:#DA9C8D;}
	.st63{fill:#342517;}
	.st64{fill:#C37946;}
	.st65{fill:#D58349;}
	.st66{opacity:0.12;enable-background:new    ;}
	.st67{fill:#E99C48;}
	.st68{fill:#F7C172;}
	.st69{fill-rule:evenodd;clip-rule:evenodd;fill:#9285A6;}
	.st70{fill-rule:evenodd;clip-rule:evenodd;fill:#EBDFDE;}
	.st71{fill-rule:evenodd;clip-rule:evenodd;fill:#F6F7F6;}
	.st72{fill-rule:evenodd;clip-rule:evenodd;fill:#B7AFC5;}
	.st73{fill-rule:evenodd;clip-rule:evenodd;fill:#6C6384;}
	.st74{fill-rule:evenodd;clip-rule:evenodd;fill:#A58686;}
	.st75{fill-rule:evenodd;clip-rule:evenodd;fill:#BC9C9C;}
	.st76{fill-rule:evenodd;clip-rule:evenodd;fill:#846969;}
	.st77{fill:#FFFFFF;}
	.st78{fill:#DBDADA;}
	.st79{fill:#9FD2F1;}
	.st80{fill:#F0613F;}
	.st81{fill:#334156;}
	.st82{fill:#C44930;}
	.st83{fill:#8C3E36;}
	.st84{fill:#FFFFFF;stroke:#3D2D16;stroke-width:0.75;stroke-miterlimit:10;}
	.st85{fill:#3D2D16;}
	.st86{opacity:0.5;fill:#EAA698;enable-background:new    ;}
	.st87{fill:#7A2F2B;}
	.st88{fill:#F9988F;}
	.st89{fill:#F58778;}
	.st90{fill:#FFF7F4;}
	.st91{fill:#F48A71;}
	.st92{opacity:0.53;fill:#FFFFFF;enable-background:new    ;}
	.st93{opacity:0.33;fill:#FFFFFF;enable-background:new    ;}
	.st94{opacity:0.15;fill:#FFFFFF;enable-background:new    ;}
</style>
<polygon class="st0" points="359.8,13.6 130.2,13.6 15.3,212.5 130.2,411.4 359.8,411.4 474.7,212.5 "/>
<polygon class="st1" points="353.3,24.9 136.7,24.9 28.3,212.5 136.7,400.1 353.3,400.1 461.7,212.5 "/>
<polygon class="st2" points="351.5,28 138.5,28 32,212.5 138.5,397 351.5,397 458,212.5 "/>
<g>
	<defs>
		<polygon id="SVGID_1_" points="351.5,28 138.5,28 32,212.5 138.5,397 351.5,397 458,212.5 		"/>
	</defs>
	<clipPath id="SVGID_2_">
		<use xlink:href="#SVGID_1_"  style="overflow:visible;"/>
	</clipPath>
	<g class="st3">
		
			<linearGradient id="SVGID_3_" gradientUnits="userSpaceOnUse" x1="197.1151" y1="-140.25" x2="197.1151" y2="247.37" gradientTransform="matrix(1 0 0 -1 0 426)">
			<stop  offset="1.000000e-02" style="stop-color:#E6E7E8"/>
			<stop  offset="1" style="stop-color:#B2EBF2"/>
		</linearGradient>
		<rect x="-568.2" y="343" class="st4" width="1530.7" height="230.1"/>
		<polygon class="st5" points="976.1,588.5 -523.3,588.5 -523.3,302.2 -28.1,302.2 243.3,302.2 376.2,302.2 976.1,302.2 		"/>
		<polygon class="st6" points="-511.6,364.2 967.8,364.2 968.8,578.7 		"/>
		<g class="st7">
			<line class="st8" x1="-61.7" y1="640.6" x2="10.4" y2="324"/>
			<line class="st8" x1="177.8" y1="324" x2="235.4" y2="665.7"/>
			<line class="st8" x1="343.4" y1="324" x2="545.8" y2="640.6"/>
			<line class="st8" x1="-750.1" y1="347.1" x2="1413.6" y2="353"/>
			<line class="st8" x1="-737.7" y1="391.2" x2="1426" y2="397.1"/>
		</g>
		<rect x="-577.6" y="-257.7" class="st9" width="1545.4" height="599.7"/>
		<path class="st10" d="M-287.4,313.6c7.9-15.9,187-361.4,532.9-382.8c68.8-4.3,247.9-2.1,402.1,122.3
			c64.8,52.3,105,109.9,128.5,149.9c19.1,40.3,38.2,80.7,57.3,121l149.6-3l-14.2-575.1H-511.6c-2.5,187.6-3.7,288.4-4.2,346.4
			c-1.1,113.9-0.5,120.3-3.6,146.3c-6,51.8-13.1,67.3-4,82.3C-508,346.1-453.5,359.4-287.4,313.6z"/>
		<rect x="-523.3" y="327" class="st11" width="1506.4" height="37.3"/>
		<path class="st12" d="M31.6,32.7h2.7c0.8,0,1.4,0.6,1.4,1.4v45.1c0,0.8-0.6,1.4-1.4,1.4h-2.7c-0.8,0-1.4-0.6-1.4-1.4V34.1
			C30.2,33.3,30.8,32.7,31.6,32.7z"/>
		<path class="st13" d="M30.2,79.4V33.9c0-0.4,0.2-0.8,0.5-1c-0.2,7.4-1.1,44.5,2,47.7h-1.4C30.7,80.5,30.2,80,30.2,79.4z"/>
		<path class="st14" d="M31.8,34.2C31,35,30.4,61.5,31.5,69.1c1.2,8,1.5,9.5,2.2,9.8s1-2.9,0.8-11.7s0.1-31.1-0.2-32.6
			S32.6,32.6,31.8,34.2z"/>
		<path class="st12" d="M26.2,32.7h2.7c0.8,0,1.4,0.6,1.4,1.4v45.1c0,0.8-0.6,1.4-1.4,1.4h-2.7c-0.8,0-1.4-0.6-1.4-1.4V34.1
			C24.8,33.3,25.4,32.7,26.2,32.7z"/>
		<path class="st13" d="M24.8,79.4V33.9c0-0.4,0.2-0.8,0.5-1c-0.2,7.4-1.1,44.5,2,47.7H26C25.4,80.5,24.8,80.1,24.8,79.4
			C24.8,79.4,24.8,79.4,24.8,79.4z"/>
		<path class="st14" d="M26.4,34.2C25.7,35,25,61.5,26.1,69.1c1.2,8,1.5,9.5,2.2,9.8s1-2.9,0.8-11.7s0.1-31.1-0.2-32.6
			S27.2,32.6,26.4,34.2z"/>
		<path class="st12" d="M20.8,32.7h2.7c0.8,0,1.4,0.6,1.4,1.4v45.1c0,0.8-0.6,1.4-1.4,1.4h-2.7c-0.8,0-1.4-0.6-1.4-1.4V34.1
			C19.4,33.3,20,32.7,20.8,32.7z"/>
		<path class="st13" d="M19.4,79.4V33.9c0-0.4,0.2-0.8,0.5-1c-0.2,7.4-1.1,44.5,2,47.7h-1.4C20,80.5,19.4,80,19.4,79.4z"/>
		<path class="st14" d="M21,34.2c-0.7,0.8-1.4,27.3-0.3,34.9c1.2,8,1.5,9.5,2.2,9.8s1-2.9,0.8-11.7s0.1-31.1-0.2-32.6
			S21.8,32.6,21,34.2z"/>
		<path class="st15" d="M42.3,37.3l7.3,0.9c0.9,0.1,1.6,1,1.5,1.9l-4.8,38.9c-0.1,0.9-1,1.6-1.9,1.5l-7.3-0.9
			c-0.9-0.1-1.6-1-1.5-1.9l4.8-38.9C40.6,37.9,41.4,37.2,42.3,37.3C42.3,37.3,42.3,37.3,42.3,37.3z"/>
		<path class="st16" d="M42.4,75.2c2.6-1,4.4-5.3,5.6-9.6l-1.7,13.5c-0.1,0.9-1,1.6-1.9,1.5l-7.3-0.9c-0.9-0.1-1.6-1-1.5-1.9
			l0.4-3.3C37.3,75.8,39.3,76.3,42.4,75.2z"/>
		<path class="st17" d="M44.8,38.6c2.8,0.2,4.6,1.7,3.5,8.6s-1,18.1-3.1,21.3s-7.9,8.3-6.6-2c0.7-6.1,1.5-11.6,2.2-15.9
			C41.1,48.2,41.7,38.4,44.8,38.6z"/>
		<path class="st18" d="M47.5,54l-6.8-0.8c-0.3,0-0.6-0.3-0.5-0.7l1.1-8.8c0-0.3,0.3-0.6,0.7-0.5l6.8,0.8c0.3,0,0.6,0.3,0.5,0.7
			l-1.1,8.8C48.1,53.8,47.8,54,47.5,54z"/>
		
			<rect x="40.6" y="67.3" transform="matrix(0.1212 -0.9926 0.9926 0.1212 -35.4541 105.2731)" class="st18" width="2.2" height="10.7"/>
		<path class="st19" d="M58.5,37.8h-6.1c-0.8,0-1.4,0.6-1.4,1.3c0,0,0,0,0,0v40.1c0,0.8,0.7,1.3,1.4,1.3h6.1c0.8,0,1.4-0.5,1.4-1.3
			c0,0,0,0,0,0V39.1C60,38.4,59.3,37.8,58.5,37.8C58.6,37.8,58.6,37.8,58.5,37.8L58.5,37.8z"/>
		<path class="st20" d="M51.1,76.6v2.6c0,0.8,0.7,1.3,1.4,1.3h6.1c0.8,0,1.4-0.5,1.4-1.3c0,0,0,0,0,0V68.6c-0.6,3.5-1.6,7-3.6,8
			C54,77.8,52.2,77.6,51.1,76.6L51.1,76.6z"/>
		<path class="st21" d="M54.6,38.5c2.3-0.1,3.9,0.8,3.7,6.3s1,23.5-0.5,26.2s-5.6,7.2-5.6-0.9c0-4.8,0.1-9.2,0.2-12.5
			C52.5,55.8,52,38.7,54.6,38.5z"/>
		<rect x="51.1" y="41.8" class="st22" width="8.9" height="4.6"/>
		<rect x="51.1" y="68.9" class="st22" width="8.9" height="4.6"/>
		<path class="st23" d="M-6.1,37.9h7.3c0.9,0,1.7,0.8,1.7,1.7v39.2c0,0.9-0.8,1.7-1.7,1.7h-7.3c-0.9,0-1.7-0.8-1.7-1.7V39.6
			C-7.8,38.7-7.1,37.9-6.1,37.9z"/>
		<path class="st24" d="M-1.5,75.5c2.4-1.3,3.7-5.8,4.4-10.2v13.6c0,0.9-0.8,1.7-1.7,1.7h-7.3c-0.9,0-1.7-0.8-1.7-1.7v-3.4
			C-6.5,76.7-4.4,77-1.5,75.5z"/>
		<path class="st25" d="M-3.5,38.8c2.8-0.2,4.7,1.1,4.5,8.2s1.2,18-0.5,21.5s-6.8,9.1-6.8-1.2c0-6.2,0.1-11.7,0.3-16
			C-6.1,48.9-6.7,39.1-3.5,38.8L-3.5,38.8z"/>
		<path class="st18" d="M1,53.8h-6.9c-0.3,0-0.6-0.3-0.6-0.6v-8.9c0-0.3,0.3-0.6,0.6-0.6H1c0.3,0,0.6,0.3,0.6,0.6v8.9
			C1.6,53.5,1.3,53.8,1,53.8z"/>
		<rect x="-7.8" y="72" class="st18" width="10.7" height="2.2"/>
		<path class="st26" d="M18.1,38.9h-5.6c-0.7,0-1.3,0.6-1.3,1.3c0,0,0,0,0,0v39c0,0.7,0.6,1.3,1.3,1.3c0,0,0,0,0,0h5.6
			c0.7,0,1.3-0.6,1.3-1.3l0,0v-39C19.4,39.5,18.8,38.9,18.1,38.9C18.1,38.9,18.1,38.9,18.1,38.9z"/>
		<path class="st27" d="M11.2,76.7v2.6c0,0.7,0.6,1.3,1.3,1.3c0,0,0,0,0,0h5.6c0.7,0,1.3-0.6,1.3-1.3l0,0V68.9
			c-0.5,3.4-1.5,6.8-3.3,7.8C13.8,77.8,12.2,77.6,11.2,76.7L11.2,76.7z"/>
		<path class="st28" d="M14.5,39.6c2.1-0.1,3.6,0.8,3.4,6.2s0.9,22.9-0.4,25.5s-5.2,7-5.2-0.9c0-4.7,0.1-8.9,0.2-12.2
			C12.6,56.4,12.1,39.8,14.5,39.6L14.5,39.6z"/>
		<rect x="11.2" y="42.8" class="st29" width="8.2" height="4.5"/>
		<rect x="11.2" y="69.2" class="st29" width="8.2" height="4.5"/>
		<path class="st30" d="M9.9,38.9H4.4c-0.7,0-1.3,0.6-1.3,1.3v39c0,0.7,0.6,1.3,1.3,1.3h5.6c0.7,0,1.3-0.6,1.3-1.3l0,0v-39
			C11.2,39.5,10.7,38.9,9.9,38.9C9.9,38.9,9.9,38.9,9.9,38.9z"/>
		<path class="st31" d="M3.1,76.7v2.6c0,0.7,0.6,1.3,1.3,1.3h5.6c0.7,0,1.3-0.6,1.3-1.3l0,0V68.9c-0.5,3.4-1.5,6.8-3.3,7.8
			C5.7,77.8,4.1,77.6,3.1,76.7L3.1,76.7z"/>
		<path class="st32" d="M6.3,39.6c2.1-0.1,3.6,0.8,3.4,6.2s0.9,22.9-0.4,25.5s-5.2,7-5.2-0.9c0-4.7,0.1-8.9,0.2-12.2
			C4.4,56.4,4,39.8,6.3,39.6L6.3,39.6z"/>
		<rect x="3.1" y="42.8" class="st33" width="8.2" height="4.5"/>
		<rect x="3.1" y="69.2" class="st33" width="8.2" height="4.5"/>
		<path class="st34" d="M66.5,35.9h-5.3c-0.7,0.1-1.3,0.7-1.2,1.4v41.9c0,0.7,0.5,1.3,1.2,1.4h5.3c0.7,0,1.3-0.7,1.2-1.4V37.3
			C67.8,36.5,67.3,35.9,66.5,35.9L66.5,35.9z"/>
		<path class="st35" d="M60,76.4v2.8c0,0.7,0.5,1.3,1.2,1.4h5.3c0.7,0,1.3-0.7,1.2-1.4V68.1c-0.5,3.6-1.4,7.3-3.2,8.3
			C62.5,77.7,60.9,77.4,60,76.4L60,76.4z"/>
		<path class="st36" d="M63.1,36.6c2-0.2,3.4,0.9,3.3,6.6s0.9,24.6-0.4,27.4s-4.9,7.5-4.9-1c0-5,0.1-9.6,0.2-13.1
			C61.3,54.7,60.8,36.8,63.1,36.6L63.1,36.6z"/>
		<rect x="60" y="40.1" class="st37" width="7.8" height="4.8"/>
		<path class="st38" d="M61.9,110.3l2.5-25.7h-6.9l2.5,25.5l0,0c0.1,0.5,0.5,0.8,1,0.8C61.4,111,61.8,110.8,61.9,110.3L61.9,110.3z"
			/>
		<polygon class="st39" points="57.5,84.7 58.2,92 63.7,92 64.4,84.7 61,84.7 		"/>
		<rect x="-71.1" y="79.3" class="st40" width="152.7" height="9.3"/>
		<path class="st38" d="M60.8,86.7c0,0,16.8,1,20.1-6h0.6v7.9H-71.1v-2L60.8,86.7z"/>
		<path class="st41" d="M252.8,17.3c19.3,0,35-15.6,35-34.9c-0.1-19.3-15.7-34.9-35-34.9c-19.3,0-34.9,15.6-35,34.9
			C217.8,1.6,233.5,17.3,252.8,17.3L252.8,17.3z"/>
		<path class="st42" d="M252.8,14.3c17.7,0,32-14.3,32-32c0-17.6-14.4-31.9-32-31.9c-17.6,0-32,14.3-32,31.9
			C220.8,0,235.1,14.3,252.8,14.3L252.8,14.3z"/>
		<path class="st41" d="M237.5,8.8c-0.6-0.4-0.7-1.2-0.3-1.8c0.4-0.5,1-0.7,1.6-0.4c0.6,0.3,0.8,1.1,0.5,1.7c0,0,0,0,0,0
			C238.9,8.9,238.1,9.1,237.5,8.8C237.5,8.8,237.5,8.8,237.5,8.8z"/>
		<path class="st41" d="M252.8,12.9c-0.7-0.1-1.2-0.7-1.2-1.4c0.1-0.6,0.5-1.1,1.2-1.2c0.7,0.1,1.2,0.7,1.2,1.4
			C253.9,12.3,253.4,12.8,252.8,12.9z"/>
		<path class="st41" d="M268,8.8c-0.6,0.3-1.3,0.2-1.7-0.4c0,0,0,0,0,0c-0.4-0.6-0.2-1.4,0.5-1.8c0.6-0.3,1.4-0.1,1.8,0.5
			C268.8,7.7,268.6,8.4,268,8.8z"/>
		<path class="st43" d="M251.9-17.1c-0.3-0.5-0.2-1.1,0.3-1.4c0,0,0.1,0,0.1-0.1c0.5-0.3,1.1-0.1,1.4,0.4c0,0,0,0,0,0L266,2.9
			c0.3,0.5,0.2,1.1-0.3,1.4c0,0-0.1,0-0.1,0.1c-0.5,0.3-1.2,0.1-1.5-0.4L251.9-17.1z"/>
		<ellipse class="st44" cx="544" cy="369.2" rx="112.3" ry="9.9"/>
		<rect x="447.2" y="290.9" class="st45" width="191.9" height="51.6"/>
		<path class="st46" d="M507.3,336.5H454c-1-0.1-1.7-1-1.6-2v-35.7c-0.1-1,0.6-1.9,1.6-2h53.3c1,0.1,1.7,1,1.6,2v35.7
			C509,335.5,508.3,336.4,507.3,336.5z M454,297.7c-0.6,0.1-1.1,0.6-1,1.2c0,0,0,0,0,0v35.7c-0.1,0.6,0.4,1.1,1,1.2h53.3
			c0.6-0.1,1.1-0.6,1-1.2v-35.7c0.1-0.6-0.4-1.1-1-1.2c0,0,0,0,0,0L454,297.7z"/>
		<polygon class="st47" points="465.5,342.5 456.4,365.9 461.3,365.9 477.9,342.5 		"/>
		<path class="st48" d="M483.8,307.4c0,2.3-1.5,4.2-3.4,4.2s-3.4-1.9-3.4-4.2s1.5-4.2,3.4-4.2S483.8,305.1,483.8,307.4z"/>
		<g class="st49">
			<polygon class="st50" points="-5.6,394.1 189.6,394.1 198.7,448.1 -17.5,446.8 			"/>
			<polygon class="st50" points="369.1,364.2 388.3,394.1 594.1,394.8 556.8,363.5 			"/>
			<polygon class="st50" points="1.2,364.3 -5.6,394.1 -207,391.2 -184.9,363 			"/>
		</g>
		<rect x="181.4" y="214.6" class="st51" width="113.3" height="96.2"/>
		<path class="st52" d="M182.4,312.3v-101H175c-6.1,0-11,4.9-11,11v90.1L182.4,312.3z"/>
		<path class="st52" d="M293.7,312.3v-101h7.3c6.1,0,11,4.9,11,11v90.1L293.7,312.3z"/>
		<path class="st53" d="M248.3,425.9c2.7,29.1,5.2,55.8,6.7,73.6h26.7c0.7-18.1,2.3-44.9,3.9-73.6c0.6-10.9-8-20.3-18.6-20.1h-1.3
			C255.3,406,247.3,415.2,248.3,425.9z"/>
		<path class="st53" d="M237,424c-2.7,29.1-5.2,55.8-6.7,73.6h-26.7c-0.7-18.1-2.3-44.9-3.9-73.6c-0.6-11,8-20.3,18.6-20.1h1.3
			C230,404.1,237.9,413.3,237,424z"/>
		<path class="st54" d="M303.7,327.4l3.6,55.7c0,0-47.2,22.7-126.4-8.7l-9.5,6.9c6.3-27,9.5-54.5,9.7-82.2l-8.9,9.7l-6.5,7
			c-5.4-27.5-20.4-25.3-20.4-25.3s5.5-17.7,9.4-21.4c8.4-7.9,17.7-21.8,22.7-25.9c7.3-6,46.5-15.2,46.5-15.2s49.6-7.4,85,20.1
			l24.3,38.2l5.7,9.5c0,0-11,9.5-35,22L303.7,327.4z"/>
		<line class="st55" x1="178.2" y1="302.3" x2="179.8" y2="271.5"/>
		<polygon class="st56" points="177.2,302.3 179.8,271.5 179.2,302.4 		"/>
		<line class="st55" x1="308" y1="323.3" x2="307.6" y2="282.2"/>
		<polygon class="st56" points="307,323.3 307.6,282.2 309,323.3 		"/>
		<line class="st57" x1="241.7" y1="242.8" x2="240.9" y2="329.5"/>
		<circle class="st57" cx="247.7" cy="272.6" r="2.9"/>
		<path class="st58" d="M269.7,216.2c0,0-7.9,18.7-20.1,20.5c-1.2,0.2-6.5,9.5-7.8,9.3c-4-0.6-7.1-10.9-8.1-11.6
			c-11-8.4-16.4-11.6-16.8-18.5c-0.1-1.3-0.1-2-0.1-2c-0.2-2.6-5.4-15.4-1.9-21c2.9-4.6,17.4-0.2,17.4-0.2h29.7
			c0.1,2.7,5.7,4.4,7.5,9.5c1.7,4.8-0.4,13,0,13.8L269.7,216.2z"/>
		<path class="st59" d="M267.9,216.8c-3.5,2.8-8.7,5.8-21.7,6.7c-10.3,0.7-20.6-1.9-29.3-7.6c-0.1-1.3-0.1-2-0.1-2
			c-0.7-1.1-6-12.3-2.5-17.9c11.9-4.6,39.3-2,39.3-2l15.6,11C271,209.8,267.5,216,267.9,216.8z"/>
		<path class="st60" d="M241.3,246.6l13.6-6.5c0,0,15.1,5.4,15.9,4.3c5-7.2,8.4-15.3,9.9-23.9L251.8,234L241.3,246.6z"/>
		<path class="st54" d="M253.6,231.2l-12.3,15.4l13-11.5l15.3,4.5c0,0,8.2-4.4,11.1-19.2l-10.2-9.4
			C270.5,211.1,269.3,224.9,253.6,231.2z"/>
		<path class="st60" d="M241.3,246.6l-12.1-8.4c0,0-15.6,2.9-16.6,1.9c-5.6-5.4-6.3-25.1-6.3-25.1l25.8,16.8L241.3,246.6z"/>
		<path class="st54" d="M231.9,230.5l9.4,16.1L230.3,233l-15,1.4c0,0-7-2.3-9.1-19.4l10.3-7.3C216.5,207.8,214,222.4,231.9,230.5z"
			/>
		<path class="st61" d="M311.3,157.9c-4.1,9.9-13.4,14.3-21.3,11s-5.2-8.8-1.1-18.6s4.4-8.8,11.9-12.8
			C317.2,128.7,315.4,148.1,311.3,157.9z"/>
		<path class="st62" d="M303.8,141.5c1.2-0.5,2.5-0.5,3.6,0.2c1.4,0.9,1.7,2.9,1.6,4.5c-0.4,5.9-2.7,11.6-6.5,16.1
			c-0.6,0.8-1.3,1.4-2.1,1.9c-0.9,0.5-1.9,0.4-2.7-0.1c-0.8-0.8-1.1-1.9-0.8-3c0.6-2.7,2.9-4.5,4.8-6.5c0.5-0.5,1-1.1,1.3-1.8
			c0.3-0.7,0.1-1.5-0.4-2.1c-0.4-0.4-1-0.6-1.6-0.6c-1.2-0.1-2.4,0-3.5,0.1c-0.6-1.7,0.8-3.5,1.7-4.8
			C300.3,143.7,302,142.3,303.8,141.5z"/>
		<path class="st61" d="M171.6,168.4c4.9,9.2,13.3,12.3,19.4,7.9s3.2-9.4-1.7-18.6s-4.9-8.1-11.8-11
			C162.6,140.3,166.8,159.3,171.6,168.4z"/>
		<path class="st62" d="M175.6,151.2c-1-0.3-2.2-0.1-3,0.7c-1.1,1.1-1,3.1-0.7,4.7c1.1,5.6,3.7,10.9,7.7,15c0.5,0.7,1.2,1.2,2,1.6
			c0.8,0.3,1.7,0.1,2.3-0.5c0.5-0.9,0.6-2,0.2-3c-0.9-2.6-3.1-4.1-4.9-5.8c-0.5-0.5-1-1-1.3-1.6c-0.3-0.7-0.3-1.5,0-2.1
			c0.3-0.4,0.7-0.7,1.3-0.9c1-0.3,2-0.4,3-0.4c0.3-1.8-1.1-3.3-2.1-4.5C178.9,152.9,177.4,151.8,175.6,151.2z"/>
		<path class="st61" d="M299.9,119.8c-1.4-35.6-22-57.8-62.3-55.2c-39.1,2.5-60.6,24.2-59.2,59.8c0.7,16.4,6.3,44.6,6.3,45.5
			c0,32,40.2,50.3,63.4,47.7c16.4-1.8,51.9-27.7,49.6-54.9C297.6,161.8,300.5,136.3,299.9,119.8z"/>
		<path class="st62" d="M199.2,106.6c0,0,11.6,11.1,55.5,8.4l-1.6-6c0,0,6.5,6.1,32.4,9.2l13.2,32l-7.8-65.7l-93.2-2.3L184.4,98
			l1.9,18.1c0,0-6.4,29.2-4,41.5l6.3-22.4C188.7,135.2,200,140.4,199.2,106.6z"/>
		<path class="st63" d="M197.4,97.2c0,0-3.6,14.4,55.5,14.5c0,0-1.6-0.6-7.6-14.6c7.8,17.2,29.4,15.2,40.8,18.2l-2.7-16.6l15.2,51.5
			c0,0,3.8-12.3,4.9-19c0,0,1.6-17.2-2-29.1c2.3,2.6,3.9,5.7,4.7,9c0,0,2.4-32-22.5-52.2c0,0,4.3,0.9,13.6,5
			c0,0-18.1-27.4-52.9-26.9c-18.2,0.2-44.2,5.4-51.3,24.1c0,0-17-6.9-25.1,21.7c0,0,6.3-10,14.3-10.4c0,0-11.3,4.2-14.1,31.3
			c-2.7,25.6,4.6,39.4,14,56.7c0,0,1.8-22,6.3-37.8l1.3,9.6C189.7,132.3,197.5,132.8,197.4,97.2z"/>
		<path class="st64" d="M422.5,578.1c4.6,0,8.4-4.4,8.4-9.8V406.6c0-5.4-3.8-9.8-8.4-9.8s-8.4,4.4-8.4,9.8v161.7
			C414.1,573.7,417.8,578.1,422.5,578.1z"/>
		<path class="st47" d="M379,535.5c4.6,0,8.4-4.4,8.4-9.8V364c0-5.4-3.8-9.8-8.4-9.8s-8.4,4.4-8.4,9.8v161.7
			C370.6,531.1,374.4,535.5,379,535.5z"/>
		<path class="st47" d="M314.9,503.2c4.5,0.1,8.3-3.5,8.4-8v-133c-0.2-4.6-4.2-8.2-8.8-8c-4.3,0.2-7.8,3.7-8,8v133
			C306.6,499.8,310.4,503.3,314.9,503.2z"/>
		<path class="st47" d="M177.3,500.5c4.5,0.1,8.3-3.5,8.4-8v-133c-0.2-4.6-4-8.3-8.7-8.1c-4.4,0.2-8,3.7-8.1,8.1v133
			C169.1,497,172.8,500.6,177.3,500.5z"/>
		<path class="st64" d="M40.7,578.1c-4.6,0-8.4-4.4-8.4-9.8V406.6c0-5.4,3.8-9.8,8.4-9.8s8.4,4.4,8.4,9.8v161.7
			C49.1,573.7,45.4,578.1,40.7,578.1z"/>
		<path class="st47" d="M84.2,535.5c-4.6,0-8.4-4.4-8.4-9.8V364c0-5.4,3.8-9.8,8.4-9.8s8.4,4.4,8.4,9.8v161.7
			C92.6,531.1,88.8,535.5,84.2,535.5z"/>
		<path class="st65" d="M20.7,379.1h425.9l0,0v76.3c0,0.3-0.2,0.5-0.5,0.5H21.2c-0.3,0-0.5-0.2-0.5-0.5V379.1L20.7,379.1z"/>
		<polygon class="st66" points="20.7,396.5 446.5,392.2 446.5,379.1 20.7,379.1 		"/>
		<path class="st67" d="M468.3,372.9H-1.1v13.4c-0.1,1.6,1.2,2.9,2.8,3c0,0,0,0,0,0h463.7c1.6,0,2.9-1.3,2.9-2.9c0,0,0,0,0-0.1
			L468.3,372.9z"/>
		<path class="st68" d="M463.9,377.2H3.3c-2.5,0-4.5-2.1-4.5-4.7c0-0.7,0.2-1.4,0.5-2l33-48.1c0.7-1.6,2.3-2.5,4-2.5h397.6
			c1.7,0,3.2,1,4,2.5l30,48.1c1.1,2.3,0.2,5-2,6.1C465.2,377,464.5,377.2,463.9,377.2z"/>
		<path class="st69" d="M430.5,334.5L400.2,352l-65-19.8l32.9-15.4L430.5,334.5z M400.2,364.9l-65-20.2l3-1.4
			c-0.1,0.3-0.3,0.7-0.4,1l62.4,19.3l28.4-15.6c1.9-3.3,2-7.4,0.4-10.8l1-0.6c2.4,3.9,2.2,8-0.8,12.5L400.2,364.9z"/>
		<path class="st70" d="M400.2,354.2l28.8-17.1c1.6,3.5,1.5,7.5-0.4,10.8l-28.4,15.5C401.5,360.1,401.5,357,400.2,354.2z"/>
		<path class="st71" d="M337.8,335.1l62.4,19.1c1.3,2.8,1.3,5.9,0,9.3l-62.4-19.3c0.2-0.3,0.3-0.7,0.4-1
			C339.3,340.6,339.1,337.6,337.8,335.1z"/>
		<path class="st72" d="M335.2,332.2l65,19.8v2.2l-62.5-19.1l-2.5-0.8V332.2z M335.2,344.7l65,20.2v2l-65-20.5V344.7z"/>
		<path class="st73" d="M400.2,352l30.3-17.5c3.7,3.5,3.7,8.6,0,15.4l-30.3,17v-2l29-15.9c2.9-4.4,3.2-8.6,0.8-12.5l-1,0.6l-28.8,17
			L400.2,352z"/>
		<path class="st74" d="M430.5,319.1l-30.3,17.5l-65-19.8l32.9-15.4L430.5,319.1z M400.2,349.5l-65-20.2l3-1.4
			c-0.1,0.3-0.3,0.7-0.4,1l62.4,19.3l28.4-15.5c1.9-3.3,2-7.4,0.4-10.8l1-0.6c2.4,3.9,2.2,8-0.8,12.5L400.2,349.5z"/>
		<path class="st70" d="M400.2,338.8l28.8-17c1.6,3.5,1.5,7.5-0.4,10.8l-28.4,15.5C401.5,344.6,401.5,341.5,400.2,338.8z"/>
		<path class="st71" d="M337.8,319.6l62.4,19.1c1.3,2.8,1.3,5.9,0,9.3l-62.4-19.3c0.2-0.3,0.3-0.7,0.4-1
			C339.3,325.2,339.1,322.2,337.8,319.6z"/>
		<path class="st75" d="M335.2,316.8l65,19.8v2.2l-62.4-19.1l-2.5-0.8L335.2,316.8z M335.2,329.2l65,20.2v2l-65-20.5V329.2z"/>
		<path class="st76" d="M400.2,336.6l30.3-17.5c3.7,3.5,3.7,8.6,0,15.4l-30.3,17v-2l29-15.9c2.9-4.4,3.2-8.6,0.8-12.5l-1,0.6
			l-28.8,17L400.2,336.6z"/>
		<path class="st77" d="M172.1,353.2c-8.2-14.4-3.9-27.4-12.9-41.3c-2.3-3.5-5.5-32.5-8.1-48.9c19.9-5.2,63.3-2.8,86.2,36.8
			c0,0.4-11.3,51.5-12.3,56.9c-7.6-4-15.9-6.5-24.4-7.3C190.9,348.4,181.1,349.7,172.1,353.2z"/>
		<path class="st78" d="M225.1,357l-0.1-0.1c-7.6-4-15.9-6.5-24.4-7.3c-9.6-0.9-19.4,0.4-28.4,3.8c-4-7-5.1-13.8-6.1-20.2
			c-1.1-7.2-2.2-14-6.8-21.1c-1.6-2.5-3.6-17.1-5.6-31.3c-0.9-6.5-2.6-17.9-2.6-17.9h0.1c9.6-2.5,25.6-3.4,42.1,1.6
			c18.8,5.6,34.6,18.2,44.2,35.3c0,0.2-0.7,3.7-4.6,21.4C229.6,335.6,225.1,357,225.1,357z M194.1,349c2.1,0,4.3,0.1,6.4,0.3
			c8.5,0.8,16.8,3.2,24.4,7.3c0.7-3.5,12-55.6,12.2-56.6c-21.7-37.6-63.2-42.6-85.9-36.7c0.8,5,1.6,11.1,2.5,17.5
			c2,14.1,4,28.7,5.5,31.1c4.7,7.2,5.8,14.4,6.9,21.3c1,6.4,2.1,13.1,5.9,19.9C179.2,350.4,186.6,349,194.1,349L194.1,349z"/>
		<path class="st77" d="M159.7,324.5c-0.4-0.9-11.4-43-13-50.9c19.4-11,64.4-9.3,90.5,26.2c0,0.4-11.3,51.5-12.3,56.9
			C217.7,352.8,169.8,331,159.7,324.5z"/>
		<path class="st78" d="M225.1,357l-0.1-0.1c-2.5-1.3-9.6-4.7-18.5-8.9c-16.9-8-40.1-19-46.8-23.2c-0.4-0.8-11.3-42.7-13-51v-0.2
			l0.1-0.1c10.5-6,26.9-7.6,42.8-4.3c19.2,3.8,36.3,14.7,47.8,30.6c0,0.2-0.7,3.7-4.6,21.4C229.6,335.6,225.1,357,225.1,357z
			 M159.8,324.4c6.7,4.3,29.8,15.2,46.7,23.2c8.8,4.2,15.8,7.5,18.4,8.9c0.7-3.5,12-55.5,12.2-56.6c-11.5-15.7-28.5-26.6-47.6-30.4
			c-15.8-3.3-32.1-1.6-42.6,4.3C148.7,282.4,159.2,322.6,159.8,324.4z"/>
		<path class="st79" d="M144.8,287.3c0.7-0.9,0.9-1,1.8-1.9c32.6-9.1,61-0.7,79.2,14.4c0.7,5.8,3.7,66.3,2.5,73.8
			C202.2,365.1,168,281.7,144.8,287.3z"/>
		<path class="st80" d="M164.4,368.8c-5.2-23.2-14.2-56.4-19.6-81.5c27.5-9.4,58-4.1,80.7,14.2c0.7,5.6,4.9,64.9,3.7,72.2
			C203.1,365.4,187.7,363.4,164.4,368.8z"/>
		<path class="st77" d="M310.8,352.9c2.4-10.5,1.7-83.5,3.9-100c-18-4.6-69.1,7.7-77.4,47.3c0,0.4,14.7,51,15.9,56.3
			C260.3,352.6,302.1,349.7,310.8,352.9z"/>
		<path class="st78" d="M253,356.8v-0.2c-0.7-3.5-7.3-26.2-11.6-41.2c-3.7-12.9-4.3-15-4.3-15.2c2-9.4,6.5-18,13.1-24.9
			c6.3-6.5,13.7-11.8,22-15.5c16.4-7.6,33.7-9.3,42.4-7.1h0.1v0.2c-1,7.9-1.4,29.2-1.8,49.7c-0.4,23-0.8,44.8-2.1,50.3v0.2h-0.1
			c-8.3-3.1-50.2-0.4-57.6,3.6L253,356.8z M237.3,300.3c0.1,0.4,14.9,52,15.8,56.1c3.9-2.1,16.9-3.7,28.2-4.5
			c10.5-0.7,24.5-0.9,29.3,0.8c1.2-5.7,1.6-28.2,2-50c0.4-20.4,0.8-41.5,1.8-49.6c-8.7-2.2-25.9-0.5-42.1,7.1
			C253.4,269,241,283.2,237.3,300.3L237.3,300.3z"/>
		<path class="st77" d="M310.8,352.9c2.4-10.5,9.4-74.7,11.6-91.2c-20.1-5-66.4-0.6-85.1,38.5c0,0.4,14.7,51,15.9,56.3
			C260.3,352.6,302.1,349.7,310.8,352.9z"/>
		<path class="st78" d="M253,356.8v-0.2c-0.7-3.5-7.3-26.2-11.6-41.2c-3.7-12.9-4.3-15-4.3-15.2c10.4-21.6,28.6-31.5,42.1-35.9
			c17.3-5.6,34-5,43.1-2.7h0.1c0,0-1.8,14.8-3.1,25.9c-2.9,24.6-6.9,58.2-8.5,65.5v0.2h-0.1c-8.3-3.1-50.2-0.4-57.6,3.6L253,356.8z
			 M237.3,300.3c0.1,0.6,14.9,52,15.8,56.1c3.9-2.1,16.9-3.7,28.2-4.5c10.5-0.7,24.5-0.9,29.3,0.8c1.6-7.6,5.6-40.9,8.5-65.3
			c1.3-11,2.4-20.4,3.1-25.5C303.5,257.3,256.4,260.6,237.3,300.3L237.3,300.3z"/>
		<path class="st77" d="M323.7,322.1c0.4-0.9,3-42.1,3.8-49.7c-18.5-9-66-5.7-90.6,28.3c0,0.4,15.1,50.5,16.3,55.8
			C260.3,352.6,313.8,328.7,323.7,322.1z"/>
		<path class="st78" d="M253,356.8v-0.2c-0.8-3.5-7.6-26.4-12.1-41.6c-3.6-12.3-4.2-14.1-4.2-14.3c10.9-15,27.8-25.9,47.6-30.4
			c16.1-3.7,33-2.9,43.1,2c0,0-0.9,13-1.6,23.1c-1.1,16.3-1.9,26.3-2.1,26.8c-6.3,4.2-31,15.8-49,24.2c-10.2,4.8-19,8.9-21.6,10.3
			L253,356.8z M237,300.8c0.2,0.7,15.3,51.4,16.2,55.5c2.7-1.5,11-5.4,21.5-10.3c18-8.4,42.5-19.9,48.9-24.1
			c0.2-1.1,1.2-14.6,2-26.6c0.7-9.9,1.4-19.3,1.7-22.8c-10-4.8-26.9-5.6-42.9-1.9C264.7,275.2,247.8,285.9,237,300.8L237,300.8z"/>
		<path class="st81" d="M251,301.4c0,1.1-5.4,3.5-12.6,3.5s-13.1-2.3-13-3.4c0.1-0.8,5.8-2.8,13-2.8S251,300.8,251,301.4z"/>
		<path class="st79" d="M225.7,308.9c-0.1-3.6-0.3-7-0.3-9.4c9.6,2.6,16.9,2.8,25.6,0.2c0.1,1.6-0.6,8.5-0.4,10.4
			C244.4,313.1,230.9,314.2,225.7,308.9z"/>
		<path class="st82" d="M229.1,373.7c-0.8-19.7-2.8-48.3-3.7-72.2c9.5,2,16.9,2.5,25.6-0.1c0.7,5.1,3.2,64.9,4,72.4
			C248.8,376.8,234.4,378.8,229.1,373.7z"/>
		<path class="st79" d="M331.7,283.8c-0.2-0.6-0.3-1.2-0.5-1.8c-26.3-6.2-62.3,2.4-80.1,17.7c-0.5,5.4,1.2,11,1.9,18.7
			C284,311.1,322.9,283.4,331.7,283.8z"/>
		<path class="st80" d="M318.7,371.8c3.9-25.7,9.3-62.8,13-88c-26.3-6-62.8,2.8-80.7,17.6c0.2,5.2-1.4,66.6-0.7,74
			C281.3,368.4,310,368.6,318.7,371.8z"/>
		<path class="st61" d="M155.9,322.7c0,0,6.6,4.8,3.1,9.5c-2.8,3.8-16-5.1-19.7-10.8c-2-3-5-9.6-2.1-14.5c0,0-2.3-7.7,2.1-10.6
			c0,0-3.1-10.9,7.5-13.5h1.8L155.9,322.7z"/>
		<path class="st61" d="M139.2,314.4c0,0,3.8,8.4,17,9.1s9.5-8.2,9.5-8.2l-20.1-8.5"/>
		<path class="st61" d="M147.9,298.3c0,0,26.9,5,24,13.8c-2.1,6.5-22.8,2.9-29.6-3.2"/>
		<path class="st61" d="M144.4,298.7c4.7,3.5,10.3,5.7,16.1,6.5c9.4,1.1,11.8-3.5,8.3-7s-22-9.1-22-9.1"/>
		<path class="st61" d="M325.1,317.9c-1.3,2.9-2.7,5.6-4.2,8.3c-1.8,2.8,1.1,6.4,5.9,3.5s9.2-10.2,6.4-14.9S325.1,317.9,325.1,317.9
			z"/>
		<path class="st61" d="M336.5,306.1c0,0,3.2,4.4-3.4,10.3s-27.4,3.2-16.7-6.4S336.5,306.1,336.5,306.1z"/>
		<path class="st61" d="M337.9,295.5c0,0,3,6.9-2.3,11.6s-17,5.6-22.6,2.1s-0.7-9.1,3.6-9.4S337.9,295.5,337.9,295.5z"/>
		<path class="st61" d="M330.6,290.8c0,0-13.2-1.6-15.5,4.9s15.9,8.9,22,1.1s-5.4-13-5.4-13L330.6,290.8z"/>
		<path class="st63" d="M223.5,127.3c-4.6-0.6-20.4,1.6-23,11.7c0,0,11.9-6.5,22.9-6.5C223.4,132.5,225.9,127.6,223.5,127.3z"/>
		<path class="st63" d="M255.3,126.1c4.5-1.3,20.4-1.7,24.6,7.9c0,0-12.8-4.6-23.7-2.7C256.2,131.3,253,126.8,255.3,126.1z"/>
		<path class="st83" d="M232.4,171c1.6,0.8,3.2,1.5,4.8,2.1c0.8,0.3,1.6,0.5,2.4,0.7c0.4,0.1,0.8,0.2,1.2,0.2c0.2,0,0.4,0,0.5,0
			l0.6,0c1.6-0.3,3.2-0.9,4.6-1.7c1.5-0.8,3-1.8,4.6-2.7c-1,1.5-2.2,2.9-3.7,4c-1.5,1.2-3.3,2.1-5.2,2.4h-0.8c-0.3,0-0.5,0-0.8-0.1
			c-0.2,0-0.5-0.1-0.7-0.1c-0.2-0.1-0.5-0.1-0.7-0.2c-2.7-0.9-5-2.5-6.8-4.7L232.4,171z"/>
		
			<ellipse transform="matrix(9.011109e-02 -0.9959 0.9959 9.011109e-02 90.4335 405.5017)" class="st84" cx="267.1" cy="153.3" rx="13.3" ry="12.6"/>
		
			<ellipse transform="matrix(9.011109e-02 -0.9959 0.9959 9.011109e-02 86.5394 409.7282)" class="st85" cx="267.5" cy="157.5" rx="8.9" ry="8.4"/>
		
			<ellipse transform="matrix(9.011109e-02 -0.9959 0.9959 9.011109e-02 89.1212 399.1702)" class="st77" cx="263" cy="150.8" rx="2.5" ry="2.3"/>
		
			<ellipse transform="matrix(9.011109e-02 -0.9959 0.9959 9.011109e-02 42.042 354.1563)" class="st84" cx="214.8" cy="154.1" rx="13.3" ry="12.6"/>
		
			<ellipse transform="matrix(9.011109e-02 -0.9959 0.9959 9.011109e-02 37.3077 358.1819)" class="st85" cx="214.7" cy="158.7" rx="8.9" ry="8.4"/>
		
			<ellipse transform="matrix(9.011109e-02 -0.9959 0.9959 9.011109e-02 39.7339 346.7461)" class="st77" cx="209.6" cy="151.6" rx="2.4" ry="2.3"/>
		<path class="st86" d="M262,182.4c0.9-0.4,2-1.8,2.8-2.3c0.8-0.5,1.8-0.8,2.7-0.9c1.3-0.1,2.8,0.3,3,1.5c0,1-0.5,1.9-1.3,2.4
			c-1.4,1-3.1,1.5-4.8,1.5c-0.7,0.1-1.5-0.2-2-0.8c-0.4-0.6,0.1-1.6,0.8-1.5L262,182.4z"/>
		<path class="st86" d="M221.7,184.9c-0.6-0.6-1.5-2.4-2.3-2.9c-0.5-0.3-1-0.6-1.6-0.6c-1.2-0.1-2.3,0.6-2.7,1.8
			c-0.3,1.1-0.1,2.3,0.7,3.1c0.8,0.9,1.8,1.5,2.9,1.8c0.7,0.3,1.6,0.3,2.3,0.2c0.8-0.1,1.4-0.7,1.6-1.4
			C222.8,186,222.4,185.3,221.7,184.9c-0.7-0.4-1.4-0.6-2.2-0.7L221.7,184.9z"/>
		<path class="st87" d="M217.8,184c0.3,0.8,0.6,1.6,1,2.3c2.2,4.4,7.5,12.7,14.2,15.8c5,2.2,10.7,2.1,15.6-0.3
			c6.4-3,9.3-6.6,13-12.6c1.2-2,2.5-4.2,4-6.7c0,0,0.4-0.5-0.2-0.5c-0.3,0-0.7,0.1-1,0.2c-3.6,1-12.7,6.1-26.9,5.4
			c-10.9-0.5-16.8-2.9-19-4c-0.2-0.1-0.5,0-0.6,0.2C217.8,183.8,217.8,183.9,217.8,184z"/>
		<path class="st88" d="M218.8,186.3c2.2,4.5,7.5,12.7,14.2,15.8c5,2.2,10.7,2.1,15.6-0.3c6.4-3,9.3-6.6,13-12.6
			c-4.3,4.7-11.5,10.9-20.3,11.5C229.3,201.5,221.1,190,218.8,186.3z"/>
		<path class="st89" d="M217.8,183.7c7.5,4.2,16.1,6.2,24.7,5.7c13.1-0.6,20.5-5.8,22.9-7.5c-0.3,0-0.7,0.1-1,0.2
			c-3.6,1-12.7,6.1-26.9,5.4c-10.9-0.5-16.8-2.9-19-4C218.2,183.4,217.9,183.5,217.8,183.7z"/>
		<path class="st90" d="M260,184.7c-0.3,0.1-15.5,9.3-36.4,1.7c0,0,3,6.9,15.6,7.5C253.7,194.7,260,184.7,260,184.7z"/>
		<path class="st91" d="M241.3,200.5c3-0.2,6.7-1,8.1-2.3c-2.6-2.6-6-0.7-8.9-1.5c-6-1.7-8,0.4-8.8,1.6
			C233.5,199.7,237.2,200.7,241.3,200.5z"/>
	</g>
</g>
<path class="st92" d="M167.8,38.5c0.7,0.4,0.2,0.1-0.3-0.3c-0.5-0.4-1-0.8-1.6-1c-0.9-0.4-1.8-0.8-2.8-1.1c-2.2-0.4-4.5-0.7-6.8-0.7
	c-5.2-0.3-9.9,2-14.4,4.7c-4,2.5-7.5,5.7-10.4,9.4c-1.7,2.2-3,4.7-3.8,7.3c-0.4,1.2-0.7,2.4-0.7,3.6c0.1,1.1,0.3,2.1,0.5,3.2
	c0,1.4,1.1,2.6,2.5,2.6c0.5,0,0.9-0.1,1.3-0.3c0.6-0.3,2-0.4,2.8-0.8c0.8-0.4,1.5-0.8,2.2-1.3c0.4-0.3,3.5-2.7,1.2-1.3
	c1.5-0.8,2.9-1.8,4.2-2.9c1.1-1,2.3-1.9,3.6-2.7c1.6-1,3.1-2.1,4.7-3c3.7-2.3,5.9-2.8,9.6-5.4c2.3-1.7,6.3-2.8,8.1-5.4
	c1.3-0.9,1.6-2.6,0.7-3.9C168.4,38.9,168.1,38.7,167.8,38.5z"/>
<path class="st93" d="M288.8,386c5.6,1.8,11.9,1.6,17.7,1.5c2.9-0.1,5.9-0.3,8.8-0.8c3-0.4,6.4-0.9,9-2.2c1.8-0.9,2.5-3,1.7-4.8
	c-0.5-1.1-1.5-1.8-2.7-2c-2.8-0.4-5.6-0.5-8.4-0.3c-2.9,0-5.8,0.1-8.6,0.4L288.8,386z"/>
<path class="st93" d="M360.5,364.3c-0.1-0.2-0.3-0.4-0.4-0.5c-1-0.7-2.2-1-3.4-0.7c-4.3,0.8-7,3.3-10.3,5.6c-2.5,1.8-5.9,2.6-8.7,4
	c-3.3,1.5-6.5,3.3-7.5,6.6c-0.4,1.2,0,2.6,1,3.4c2.9,2.5,6.9,2.4,10.6,1.6c3.5-0.7,6.9-2,10.1-3.6c5.4-3,11.2-9.6,9-15.6
	C360.7,364.8,360.6,364.6,360.5,364.3z"/>
<path class="st94" d="M357.8,65.8c-5.4-3.3-11.2-5.8-17.3-7.3c-10.8-3-22-4.1-33.1-4.9c-17-1.9-34.1-2.8-51.2-2.8
	c-19.8-0.2-39.6,0.7-59.4,2.7c-16.1,1.6-32.5,3.8-48.2,8.2h-0.1c-0.1,0-0.2,0-0.2,0.1l-0.5,0.2c-5.2,1.5-10.5,3.5-12.9,9
	c-2.1,4.9-2,10.4,0.1,15.3c5,12,19.3,15.2,30.3,16.7c14.1,2,28.6,2,42.9,2.3s28.8,0.1,43.2-0.4c28.8-1,57.6-3.6,86.2-7.9
	c6.3-1,12.6-2.2,18.4-4.8c5.1-2.3,11-6,10.9-12.6C366.9,73.6,362.3,68.8,357.8,65.8z"/>
</svg>
