<?xml version="1.0" encoding="utf-8"?>
<!-- Generator: Adobe Illustrator 25.2.3, SVG Export Plug-In . SVG Version: 6.00 Build 0)  -->
<svg version="1.1" id="Layer_1" xmlns="http://www.w3.org/2000/svg" xmlns:xlink="http://www.w3.org/1999/xlink" x="0px" y="0px"
	 viewBox="0 0 490 425" style="enable-background:new 0 0 490 425;" xml:space="preserve">
<style type="text/css">
	.st0{fill:#78EFE9;}
	.st1{fill:#0072AB;}
	.st2{fill:#74879E;}
	.st3{clip-path:url(#SVGID_2_);}
	.st4{opacity:0.29;fill:#932216;enable-background:new    ;}
	.st5{fill:none;stroke:#F4F2F2;stroke-width:0.5;stroke-miterlimit:10;}
	.st6{fill:none;}
	.st7{fill:url(#SVGID_3_);}
	.st8{fill:url(#SVGID_4_);}
	.st9{fill:url(#SVGID_5_);}
	.st10{fill:#80E559;}
	.st11{opacity:0.5;fill:url(#SVGID_6_);enable-background:new    ;}
	.st12{fill:#73DD47;}
	.st13{opacity:0.3;}
	.st14{fill:#84E75A;}
	.st15{opacity:0.31;}
	.st16{fill:#5F8337;}
	.st17{opacity:0.5;fill:#5F8337;enable-background:new    ;}
	.st18{fill:#2BB51C;}
	.st19{fill:#1C8E16;}
	.st20{fill:#439C3D;}
	.st21{fill:#9B5334;}
	.st22{fill:#904E27;}
	.st23{fill:#CC773E;}
	.st24{fill:#7C3F29;}
	.st25{fill:#8C4D23;}
	.st26{fill:#723B17;}
	.st27{opacity:0.61;}
	.st28{fill:#666666;}
	.st29{fill:#1A1A1A;}
	.st30{fill:#E6E6E6;}
	.st31{fill:#C93140;}
	.st32{fill:#308C1F;}
	.st33{fill:#1D7C15;}
	.st34{fill:#4FB62B;}
	.st35{fill:#E89C15;}
	.st36{fill:#D3910D;}
	.st37{opacity:0.11;enable-background:new    ;}
	.st38{fill:#F9D1C6;stroke:#323232;stroke-width:0.5;stroke-miterlimit:10;}
	.st39{fill:#3096D2;stroke:#2C3581;stroke-miterlimit:10;}
	.st40{fill:#F6E982;stroke:#453323;stroke-width:0.5;stroke-miterlimit:10;}
	.st41{fill:#7595CC;stroke:#453323;stroke-width:0.5;stroke-miterlimit:10;}
	.st42{fill:#BCD0EB;stroke:#453323;stroke-width:0.5;stroke-miterlimit:10;}
	.st43{fill:#D3DAE5;}
	.st44{fill:#D4E4F4;stroke:#453323;stroke-width:0.5;stroke-miterlimit:10;}
	.st45{fill:#D6C76B;stroke:#453323;stroke-width:0.5;stroke-miterlimit:10;}
	.st46{opacity:0.16;fill:#910303;enable-background:new    ;}
	.st47{fill:none;stroke:#094745;stroke-width:0.75;stroke-miterlimit:10;}
	.st48{opacity:0.2;fill:#420000;enable-background:new    ;}
	.st49{opacity:0.3;fill:#2BB51C;enable-background:new    ;}
	.st50{fill:#342517;}
	.st51{fill:#DB9D8E;}
	.st52{fill:#FFFFFF;stroke:#3D2E17;stroke-miterlimit:10;}
	.st53{fill:#FEFFFE;}
	.st54{fill:#2D2B21;}
	.st55{fill:#F9D1C6;stroke:#49442E;stroke-width:2;stroke-miterlimit:10;}
	.st56{fill:#C4C4C4;}
	.st57{opacity:0.2;fill:#6D261D;enable-background:new    ;}
	.st58{fill:#864A30;stroke:#68321E;stroke-miterlimit:10;}
	.st59{fill:#FFBDA9;}
	.st60{opacity:5.000000e-02;enable-background:new    ;}
	.st61{fill:#C1BAB0;}
	.st62{fill:#E8E3DA;}
	.st63{fill:#F4F2EF;}
	.st64{fill:#330A0A;}
	.st65{fill:#540E0E;}
	.st66{fill:#EF8181;}
	.st67{fill:#231C1C;}
	.st68{fill:#FFFFFF;}
	.st69{fill:#F9FEFF;}
	.st70{fill:#C44949;}
	.st71{fill:#864A30;}
	.st72{fill:#F99300;}
	.st73{fill:#FCB600;}
	.st74{fill:#CC0A0A;}
	.st75{fill:#E55151;}
	.st76{fill:#F5968E;}
	.st77{fill:#951C27;}
	.st78{fill:#D26653;}
	.st79{fill:url(#SVGID_7_);}
	.st80{fill:#F9D1C6;}
	.st81{fill:#F6E982;}
	.st82{opacity:0.53;fill:#FFFFFF;enable-background:new    ;}
	.st83{opacity:0.33;fill:#FFFFFF;enable-background:new    ;}
	.st84{opacity:0.15;fill:#FFFFFF;enable-background:new    ;}
</style>
<polygon class="st0" points="346.9,23.1 117.2,23.1 2.4,222 117.2,420.9 346.9,420.9 461.7,222 "/>
<polygon class="st1" points="340.4,34.3 123.7,34.3 15.4,222 123.7,409.6 340.4,409.6 448.7,222 "/>
<polygon class="st2" points="338.5,37.5 125.5,37.5 19,222 125.5,406.4 338.5,406.4 445,222 "/>
<g>
	<defs>
		<polygon id="SVGID_1_" points="338.5,37.5 125.5,37.5 19,222 125.5,406.4 338.5,406.4 445,222 		"/>
	</defs>
	<clipPath id="SVGID_2_">
		<use xlink:href="#SVGID_1_"  style="overflow:visible;"/>
	</clipPath>
	<g class="st3">
		<path class="st4" d="M315.1,132.8c0,0,112.6,30.2,161.6,59.3S590.5,245,590.5,245l-167.3-1L315.1,132.8z"/>
		<line class="st5" x1="449" y1="325.8" x2="514.2" y2="325.8"/>
		<line class="st5" x1="448.4" y1="327.1" x2="513.5" y2="327.1"/>
		<line class="st5" x1="447.8" y1="328.3" x2="512.9" y2="328.3"/>
		<line class="st5" x1="447.8" y1="329.6" x2="512.9" y2="329.6"/>
		<line class="st5" x1="447.1" y1="330.8" x2="512.3" y2="330.8"/>
		<line class="st5" x1="446.5" y1="332.1" x2="511.7" y2="332.1"/>
		<line class="st5" x1="446.5" y1="333.3" x2="511.7" y2="333.3"/>
		<line class="st5" x1="445.9" y1="334.6" x2="511" y2="334.6"/>
		<line class="st6" x1="419" y1="282.2" x2="552" y2="281.1"/>
		
			<linearGradient id="SVGID_3_" gradientUnits="userSpaceOnUse" x1="94.2977" y1="-210.1895" x2="249.5577" y2="557.3505" gradientTransform="matrix(1 0 0 -1 0 426)">
			<stop  offset="0.2" style="stop-color:#C5F7FD"/>
			<stop  offset="0.34" style="stop-color:#B3F0FD"/>
			<stop  offset="0.66" style="stop-color:#8EE1FD"/>
			<stop  offset="0.83" style="stop-color:#80DBFD"/>
		</linearGradient>
		<rect x="-307.5" y="-75.5" class="st7" width="1015.3" height="376.9"/>
		
			<linearGradient id="SVGID_4_" gradientUnits="userSpaceOnUse" x1="227.1174" y1="398.9826" x2="265.9174" y2="437.8126" gradientTransform="matrix(1 0 0 -1 0 426)">
			<stop  offset="0.11" style="stop-color:#85DDFD"/>
			<stop  offset="0.82" style="stop-color:#D7EEF4"/>
		</linearGradient>
		<path class="st8" d="M227.2,10.6c0,0,0.6-4.8,7.7-8s13.1-5,19.3-1.3s4.9,12.3,3.6,13.3c-2.6,1.9-8,4.5-22.7,2
			C226.3,15.1,227.2,10.6,227.2,10.6z"/>
		
			<linearGradient id="SVGID_5_" gradientUnits="userSpaceOnUse" x1="488.735" y1="371.425" x2="529.565" y2="412.295" gradientTransform="matrix(1 0 0 -1 0 426)">
			<stop  offset="0.17" style="stop-color:#83DCFD"/>
			<stop  offset="0.9" style="stop-color:#D7EEF4"/>
		</linearGradient>
		<path class="st9" d="M488.2,31.4c0,0,0.8-6,11.1-10.2s19-6.4,28-1.6s7.1,15.6,5.2,16.8c-3.7,2.5-11.7,5.7-32.9,2.5
			C486.8,37.2,488.2,31.4,488.2,31.4z"/>
		<polygon class="st10" points="-299.5,350.9 728.4,329.4 728.4,528.2 -299.5,528.2 		"/>
		
			<linearGradient id="SVGID_6_" gradientUnits="userSpaceOnUse" x1="-60.395" y1="84.74" x2="-60.395" y2="104.3" gradientTransform="matrix(1 0 0 -1 0 426)">
			<stop  offset="0" style="stop-color:#09170A"/>
			<stop  offset="0.58" style="stop-color:#2D550C"/>
			<stop  offset="1" style="stop-color:#16623E"/>
		</linearGradient>
		<path class="st11" d="M-283.3,327.7c17.2,0.2,34.2,1.2,51.4,1.4c21.2,0.2,42.2-1.4,63.4-0.7c12,0.4,23.9,0.8,35.9,1.1
			c10.8,0.2,21.7,0.1,32.5,0.6c22.2,1,43.7,3.5,65.6,5.1c46.6,3.4,93.9,3.9,141.2,4.6c17,0.3,33.6,0.1,50.4-0.5
			c2.9-0.5,6.3-0.6,9.3-0.8c5.3-0.3,10.6-0.4,15.9-0.4c-2.9-0.1-5.4-0.1-7.4-0.1c-17.9,0-56.7,1.5-77.5,0.7s-29.8,0-59.6-1.1
			s-64.6-4.1-85.5-4.8s-44.7-3.7-63.6-4.1s-33.8,0.7-60.6-0.8s-51.7,1.1-79.5-0.4c-18.9-1-39-2-51.7-2.6v3
			C-296.5,327.6-289.7,327.6-283.3,327.7z"/>
		<path class="st12" d="M523.2,188.3c-33.3,8.7-67.5,22.6-101.2,24.9c-44,2.9-87.6,13.1-131.6,15.5c-45.2,2.4-88.9,1.9-134.1-3.4
			c-39.1-4.5-78.3-0.4-117.3-4.9c-40.1-4.6-79.5-20.2-119.5-24.3c-28.8-2.9-57.4-7.4-85.7-13.4c-23.7-5.1-46.4-18.2-69.9-23.3
			c-22.4-4.8-45.7-13-68.2-13.9v460.7h1012v-483c-28.9,8.9-57,20.2-84,33.8C591.2,173.3,556.6,179.7,523.2,188.3z"/>
		<g class="st13">
			<path class="st14" d="M633.4,271.4c-3.5,2.4-7.1,4.7-10.7,7c-14.5,9.4-30.2,16.8-46.7,22.1c-34.7,11-73.1,11.1-106.7,25
				c20.3,2.8,41.1,1.5,61.5-0.2c14.2-1.2,28.5-2,42.7-3.1c11-0.9,22.1-1.9,33.2-2c8.2-0.1,19.8-0.6,26.8,3.9
				c5.6,3.6,3.7,9.3-0.1,13.4c-6,6.7-15,11.6-23.4,15.6c-11.4,5.5-23.2,10-35.4,13.5c-11.6,3.4-23.6,6.1-35.8,6.9
				c-8.1,0.5-17.8,0.5-24.6-4c-0.3-0.1-0.4-0.5-0.3-0.8c0-0.1,0.1-0.2,0.2-0.2c7.5-7.8,22-7.8,28.4-16.4
				c-15.8-5.6-34.8-2.6-51.2-1.2c-20.6,1.7-41.5,4-62.2,4.6c-44.1,1.2-87.6-9.7-131.7-8.9c-23,0.4-45.9,1.4-68.9,1.6
				c-22.8,0.2-45.5,0.2-68.2-0.4c-16.8-0.5-33.6-0.2-50.3-1.2c-14.7-0.9-30.9-2.7-43.1-10.6c-0.3-0.1-0.4-0.5-0.3-0.8
				c0.1-0.2,0.3-0.3,0.4-0.3c1.4-0.4,2.8-0.7,4.2-0.9c9.7-1.5,19.4-0.4,29.1,0c11,0.4,22-0.7,32.9-1.8c11.1-1.1,22.1-2.4,33.3-3.1
				c5.3-0.3,10.6-0.5,15.9-0.5c-9.3-0.5-18.6-1.2-27.9-2c-39.1-3.4-78.3-0.3-117.4-3.6c-40.1-3.4-79.5-15.1-119.6-18.2
				c-28.9-2.2-57-5.4-85.7-10c-23.7-3.8-46.4-13.6-69.9-17.4c-22.4-3.6-45.7-9.7-68.2-10.4v8.1c4.6,0.3,9.2,0.8,13.8,1.4
				c43.3,5.3,84.7,18.6,126.7,28.6c10.5,2.5,21,4.9,31.7,6.5c10,1.4,20.1,2.3,30.2,2.6c16.5,0.7,34.7,1.5,49.1,9.5
				c0.3,0.1,0.4,0.5,0.3,0.8c-0.1,0.1-0.2,0.2-0.3,0.3c-8.5,3.7-18,5.1-27.4,5.6c-17.8,0.9-35.6-0.9-53.4-0.9
				c-20.3,0-40.1,4.2-59.8,8.2c-11.1,2.2-22.1,5-33.3,6.7c-7.2,1.1-14.6,1.7-21.8,2.6c-7.8,1-16.1,2.3-23.1,5.7
				c-1.9,0.8-3.7,1.9-5.4,3.1c-1.4,1.1-1.5,1.1-0.2,2.4c1.6,1.5,3.3,2.8,5.3,3.8c10.6,5.4,24.2,6.2,36.2,6.7
				c13.4,0.5,26.8,0.1,40.2,0c11.8-0.1,23.5,1,35.3,1.3c14.3,0.4,31.4,0.2,43.8,7.4c0.3,0.1,0.4,0.5,0.3,0.8c0,0,0,0,0,0.1
				c-3.3,5.3-8.3,6.1-14.6,6.6c-5.8,0.5-11.5,1.9-17.2,2.8c-4.9,0.7-9.9,1.4-14.8,1.9c-11.2,1.2-22.4,2-33.7,2.8
				c-22.9,1.6-45.5,4.3-68.2,7.5c-13.2,1.9-26.4,3.6-39.7,4.6v206.6H705.9V250.3C681.4,256,657.2,263,633.4,271.4z"/>
		</g>
		<g class="st15">
			<path class="st16" d="M712.7,424c-9.6,2.7-20.2,5.5-28.3,10c-1.9,1-4.9,2.7-4.7,4.5c0.5,3.3,6.8,5.7,10.4,7.3
				c7.6,3.4,21.2,8.3,17.6,15.8c-1.9,3.9-7.7,5.6-13.2,6.5c-8.4,1.4-17.1,2.4-25.6,3.5c-44.4,5.4-89.6,5.9-134.5,5.9h-69.9
				c-10.2,0-20.5,0.2-30.7,0c-8.7-0.2-17.5-0.8-25.5-3.3c-0.5-0.1-0.5-0.7,0-0.8c24.8-9.1,55-9.9,82.7-10.5
				c9.1-0.2,18.2-0.4,27.3-0.6c10.3-0.3,20.6-1.1,30.9-1.7c11.6-0.7,23.2-1.4,34.8-2.1c10.6-0.7,21.3-1.6,32-2
				c8.2-0.3,17.2-0.3,24.7-2.8c2-0.6,3.9-1.5,5.7-2.7c1.9-1.4,1.4-2-1.2-2.5c-3.7-0.7-7.5-0.9-11.2-0.6c-8,0.4-15.8,1.6-23.8,2.2
				c-11.7,0.8-23.4,1.2-35.1,1.2c-23.5,0-46.9-1.1-70.3-1.2c-21.3-0.1-42.5,0.2-63.7,0.7c-12,0.8-24,1.9-35.7,3.8
				c-11.1,1.8-22,4.2-33.1,6c-10.6,1.8-21.4,3.3-32.3,4.2c-21.6,1.8-43.8,1.5-65.5,0.7c-16.5-0.6-33-1.9-49.1-4.1
				c-46.7-1.8-93.4-5.1-140-1.9c18.4,4.3,38.1,5.8,57.4,6.7c18.4,0.9,36.9,1.7,55.3,2c18.1,0.3,36.2-0.1,54.2,0.7
				c16.3,0.8,33.2,2.4,47.6,7.9c0.5,0.2,0.4,0.6,0,0.8c-10.4,5.1-25,5.8-37.5,6.1c-15,0.3-30-0.4-44.9-1.1
				c-19.1-0.9-38.3-0.7-57.4-0.9c-22.4-0.3-44.8-0.6-67.2-1.3c-23.7-0.7-47.1-2.2-70.6-4c-23.2-1.8-46.4-3.5-69.8-3.8
				s-46.6,0-69.8-0.4c-9.8-0.1-19.7-0.1-29.5-0.4c-7.3-0.2-15-0.8-20.9-4c-0.2-0.1-0.3-0.3-0.2-0.5c0-0.1,0.1-0.2,0.2-0.2
				c8-5.5,21-6.8,31.9-7.5c15-1,30.2-0.6,45.3-0.4c18.2,0.3,36.4,0.1,54.6,0.3c11.9,0.1,23.8,0.1,35.7,0c9-0.1,18-0.4,27-0.2
				c8.1,0.2,16.2,0.6,24.3,0.3c7.5-0.3,15.6-1.1,21.8-4.1C47.5,450,21,448-5.4,447s-52.7-1.4-79-2.7c-23.8-1.1-47.4-4-71.3-4.7
				c-11.1-0.3-22.3,0.5-33.4,0.8c-13.5,0.4-27.2,0.8-40.6-0.3c-7.1-0.6-18.1-1.6-21.3-6.7c-0.1-0.2,0-0.4,0.2-0.5
				c13.9-7.4,34.4-8.1,51.5-9.3c23.8-1.6,47.2-5.2,71-7c10.3-0.8,20.1-1.7,29.6-4.5c7.6-2.3,14.7-5,22.8-6.4s18.2-2.3,24.7-6.1
				c1.1-0.6,0.8-0.6-0.3-1.1c-0.7-0.4-1.4-0.8-2.1-1.1c-1.2-0.6-2.5-1-3.8-1.4c-3-0.9-6-1.5-9.1-1.8c-14.5-1.5-29.2,0.5-43.7,0.9
				c-12.4,0.3-26.1-0.2-35.4-6.5c-0.3-0.3-0.2-0.6,0.1-0.8c7.6-3.6,17.3-5,26.4-6c10.2-1.1,20.4-1.6,30.7-2.4
				c9.4-0.7,18.8-1.7,28.3-2.4c11.3-0.8,22.8-1.6,33.9-3.4c8.2-1.3,16.5-2.9,23.7-5.8c4.9-1.9,13.9-5.7,13.4-10.2
				c-0.1-0.7-0.3-1.3-0.8-1.8c-27.6-3.7-55.2-8.4-83-10c-29.9-1.7-58.9-4.3-88.7-7.9c-24.5-3-48-10.7-72.3-13.7
				c-23.1-2.8-47.3-7.7-70.6-8.2v6.4c4.8,0.3,9.5,0.6,14.2,1.1c44.8,4.2,87.6,14.7,131.1,22.6c10.8,2,21.7,3.8,32.8,5.1
				c10.4,1.2,20.7,1.8,31.3,2.1c17.1,0.5,35.9,1.2,50.8,7.5c0.4,0.2,0.5,0.6,0,0.8c-8.8,2.9-18.7,4-28.4,4.4
				c-18.4,0.7-36.8-0.7-55.3-0.7c-21,0-41.5,3.3-61.8,6.4c-11.4,1.8-22.9,3.9-34.4,5.3c-7.5,0.9-15.1,1.3-22.6,2.1
				c-8.1,0.8-16.6,1.8-23.9,4.5c-1.9,0.6-3.8,1.5-5.5,2.5c-1.5,0.9-1.6,0.9-0.2,1.9c1.7,1.2,3.5,2.3,5.5,3c11,4.3,25,4.9,37.5,5.3
				c13.9,0.4,27.7,0.1,41.6,0c12.2-0.1,24.3,0.8,36.6,1c14.8,0.3,32.5,0.2,45.4,5.9c0.3,0.1,0.4,0.4,0.3,0.6
				c-3.3,4.1-8.5,4.8-15.1,5.2c-6,0.4-11.9,1.5-17.8,2.2c-5.1,0.6-10.2,1.1-15.4,1.5c-11.6,1-23.2,1.6-34.9,2.2
				c-23.7,1.3-47.1,3.4-70.6,5.9c-13.6,1.5-27.3,2.8-41.1,3.6v162.9H742.9V416.1C732.8,418.6,722.6,421.1,712.7,424z"/>
		</g>
		<path class="st17" d="M225.2,355.7c-1.1,0-2.6,0-4.1,0.1c-2.9,0.1-5.5,0.5-6.1,1.1c-0.1,0.1-0.1,0.1,0.1,0.2
			c2.8,1.3,8.4,0.9,12.3,0.7c1.4,0,9.2-0.2,8.8-1.3S227.5,355.7,225.2,355.7z"/>
		<path class="st17" d="M271.7,351.3c-1-0.9-6.7-0.5-8.5-0.5c-0.8,0-2.6,0-4.1,0.1l-1.3,0.1c-0.8,0-3.4,0.5-2,0.9
			c1.9,0.4,3.9,0.6,5.9,0.5c2,0,4-0.1,6-0.2c1.2,0,2.4-0.2,3.5-0.5C271.6,351.6,271.9,351.5,271.7,351.3z"/>
		<path class="st17" d="M250.4,395.8c-0.8,0-1.8,0-2.8,0.1c-2,0.1-3.8,0.3-4.3,0.8c-0.1,0,0,0.1,0.1,0.2c2,0.9,5.9,0.6,8.6,0.5
			c1,0,6.5-0.1,6.1-0.9S252,395.8,250.4,395.8z"/>
		<path class="st17" d="M283,398.3c-0.7-0.6-4.7-0.4-6-0.3c-0.5,0-1.8,0-2.9,0.1h-0.9c-0.6,0-2.4,0.3-1.4,0.6
			c1.4,0.3,2.8,0.4,4.1,0.3c1.4,0,2.8,0,4.2-0.2c0.8,0,1.7-0.1,2.5-0.3C283,398.6,283.2,398.4,283,398.3z"/>
		<path class="st17" d="M424.3,400c0,1.1-16.2,2.1-36.1,2.1s-36.1-0.9-36.1-2.1s16.2-2.1,36.1-2.1S424.3,398.8,424.3,400z"/>
		<path class="st18" d="M474.9,374c0,0,4.6-3.4,13.4-4.3s-9.5-4.5-16,4.3C472.3,374,469.4,377.9,474.9,374z"/>
		<path class="st18" d="M462.5,374.5c0,0,13.4-11,21.2-14s-7.5-3.2-18,6C465.8,366.5,460.6,372,462.5,374.5z"/>
		<path class="st18" d="M458.6,374.5c0,0,8.9-17.9,12.9-20.1s-6.4-3.4-12.9,11.1C458.6,365.5,456,373.3,458.6,374.5z"/>
		<path class="st18" d="M453.9,374.5c0,0,3.4-16.4,6.7-18.9S448.2,358.3,453.9,374.5z"/>
		<path class="st18" d="M451.9,374.5c0,0,0.2-13.7-6.9-15.8S449.1,367.6,451.9,374.5z"/>
		<path class="st18" d="M449.6,374.5c0,0-5.7-5.6-16.4-6S442.9,364.2,449.6,374.5z"/>
		<path class="st18" d="M448.7,374.5c-4.1-4-9.8-6.2-15.6-5.9C423.4,369.1,446.3,372.5,448.7,374.5z"/>
		<path class="st19" d="M-307.2,229.8c122.4,5,189.4,5.4,254.5,7c223.3,5.6,218-4.7,342.2,2.4c81.1,4.6,212.6-7.3,293.6-1.3
			c14.8,1.1,47.3,3.8,115.1,2.5c6.6-0.1,5.7,9.2,7.2,1.9c3.5-16.3,3-0.3,2.9,1.2c-0.4,8.5-3.2,2.8-2.6,6.8l-1007.3,0.6L-307.2,229.8
			z"/>
		<path class="st20" d="M-328.3,157.4c-0.6-7.5-18-13.6-6.2-19.3c21.9-10.6,69.8-13.7,127-6.9c106.1,12.7,151.4-7.4,253.1,7.9
			c18.2,2.8,32.5,4.8,60.1,3.3c35.4-1.9,10.1,5.6,89.9-4.4c18.2-2.3,36.7-1.5,54.7,2.5c39,8.6,84.9-1.3,120.7,2.5
			c15.9,1.6,124.2-10.9,133.3-11.9c198.1-20.6,195.9,16.5,195.7,18.6c0,0,10.8,1,21.7,1.4h0.1c0.1,0-9.8,61.1-9.8,61.1H-286
			L-328.3,157.4z"/>
		<polygon class="st21" points="-302.5,184.4 -302.5,240.8 172.2,240.8 172.2,187.3 		"/>
		<rect x="-302.5" y="179.7" class="st22" width="474.7" height="8.8"/>
		<rect x="-302.5" y="175.3" class="st23" width="474.7" height="8.8"/>
		<rect x="59.3" y="201.7" class="st24" width="8.9" height="4.9"/>
		<rect x="63.7" y="207.7" class="st24" width="8.9" height="4.9"/>
		<rect x="7.9" y="212.1" class="st24" width="8.9" height="4.9"/>
		<rect x="12.3" y="218.2" class="st24" width="8.9" height="4.9"/>
		<rect x="144.2" y="201.7" class="st24" width="8.9" height="4.9"/>
		<rect x="148.6" y="207.7" class="st24" width="8.9" height="4.9"/>
		<polygon class="st21" points="707.9,182.9 707.9,240.4 164.7,238.3 164.7,185.8 		"/>
		<rect x="164.7" y="183" class="st25" width="543.3" height="5"/>
		<rect x="172.2" y="174.2" class="st23" width="535.7" height="9.8"/>
		<rect x="487.2" y="215.5" class="st26" width="10.2" height="4.8"/>
		<rect x="482.1" y="221.4" class="st26" width="10.2" height="4.8"/>
		<rect x="385.8" y="197.5" class="st26" width="10.2" height="4.8"/>
		<rect x="380.7" y="203.4" class="st26" width="10.2" height="4.8"/>
		<rect x="283.8" y="199.9" class="st26" width="10.2" height="4.8"/>
		<rect x="278.7" y="205.8" class="st26" width="10.2" height="4.8"/>
		<rect x="342.5" y="210.1" class="st26" width="10.2" height="4.8"/>
		<rect x="337.5" y="216.1" class="st26" width="10.2" height="4.8"/>
		<rect x="186.6" y="199.9" class="st26" width="10.2" height="4.8"/>
		<rect x="181.5" y="205.8" class="st26" width="10.2" height="4.8"/>
		<g class="st27">
			<path class="st28" d="M8.8,161.5H2.3v-2.9c0.6-0.3,0.9-0.9,0.9-1.5c0-1-0.9-1.8-1.9-1.8c0,0,0,0,0,0c-1,0-1.9,0.8-1.9,1.8
				c0,0.6,0.4,1.2,0.9,1.5v2.9h-54.7v-2.9c0.6-0.3,0.9-0.9,0.9-1.5c0-1-0.9-1.8-1.9-1.8c-1,0-1.9,0.8-1.9,1.8c0,0,0,0,0,0
				c0,0.6,0.4,1.2,0.9,1.5v2.9H-111v-2.9c0.6-0.3,1-0.9,1-1.5c0-1-0.9-1.8-1.9-1.8c-1,0-1.9,0.8-1.9,1.8c0,0.7,0.4,1.3,1,1.5v2.9
				h-54.7v-2.9c0.6-0.3,0.9-0.9,0.9-1.5c0-1-0.9-1.8-1.9-1.8c0,0,0,0,0,0c-1,0-1.9,0.8-1.9,1.8c0,0.6,0.4,1.2,0.9,1.5v2.9h-54.7
				v-2.9c0.6-0.3,0.9-0.9,0.9-1.5c0-1-0.9-1.8-1.9-1.8c0,0,0,0,0,0c-1,0-1.9,0.8-1.9,1.8c0,0.6,0.4,1.2,0.9,1.5v2.9h-54.7v-2.9
				c0.6-0.3,0.9-0.9,0.9-1.5c0-1-0.9-1.8-1.9-1.8c-1,0-1.9,0.8-1.9,1.8c0,0,0,0,0,0c0,0.6,0.4,1.2,0.9,1.5v2.9h-54.7v-2.9
				c0.6-0.3,0.9-0.9,1-1.5c0-1-0.9-1.8-1.9-1.8c-1,0-1.9,0.8-1.9,1.8c0,0.6,0.4,1.2,1,1.5v2.9H-376v2.7h36.8v11.6h1.9v-11.6h54.7
				v11.6h1.9v-11.6h54.7v11.6h1.9v-11.6h54.7v11.6h1.9v-11.6h54.7v11.6h1.9v-11.6h54.7v11.6h1.9v-11.6H0.4v11.6h1.9v-11.6h6.5V161.5
				z"/>
			<path class="st29" d="M-53.4,161.5h-0.9v-2.9c0.6-0.3,0.9-0.9,0.9-1.5c0-0.7-0.4-1.4-1.1-1.6c0.1,0.2,0.2,0.5,0.2,0.7
				c0,1-0.8,1.8-1.8,1.8c0,0,0,0,0,0c-0.3,0-0.5-0.1-0.8-0.2c0.3,0.7,1,1.1,1.7,1.1c0.1,0,0.3,0,0.4,0v17h0.6v-11.7H0.4v-0.9h-53.8
				V161.5z"/>
		</g>
		<g class="st27">
			<path class="st28" d="M387.3,161.5h-6.5v-2.9c0.6-0.3,0.9-0.9,0.9-1.5c-0.1-1-1-1.8-2-1.7c-0.9,0.1-1.7,0.8-1.7,1.7
				c0,0.6,0.4,1.2,0.9,1.5v2.9h-54.7v-2.9c0.6-0.3,0.9-0.9,0.9-1.5c-0.1-1-1-1.8-2-1.7c-0.9,0.1-1.7,0.8-1.7,1.7
				c0,0.6,0.4,1.2,0.9,1.5v2.9h-54.7v-2.9c0.6-0.3,0.9-0.9,0.9-1.5c-0.1-1-1-1.8-2-1.7c-0.9,0.1-1.7,0.8-1.7,1.7
				c0,0.6,0.4,1.2,0.9,1.5v2.9H211v-2.9c0.6-0.3,0.9-0.9,0.9-1.5c0-1-0.8-1.9-1.9-1.9c-1,0-1.9,0.8-1.9,1.9c0,0.7,0.4,1.3,1,1.5v2.9
				h-54.8v-2.9c0.6-0.3,0.9-0.9,0.9-1.5c-0.1-1-1-1.8-2-1.7c-0.9,0.1-1.7,0.8-1.7,1.7c0,0.6,0.4,1.2,0.9,1.5v2.9H97.8v-2.9
				c0.6-0.3,0.9-0.9,0.9-1.5c-0.1-1-1-1.8-2-1.7c-0.9,0.1-1.7,0.8-1.7,1.7c0,0.6,0.4,1.2,0.9,1.5v2.9H41.2v-2.9
				c0.6-0.3,0.9-0.9,0.9-1.5c-0.1-1-1-1.8-2-1.7c-0.9,0.1-1.7,0.8-1.7,1.7c0,0.6,0.4,1.2,0.9,1.5v2.9H2.5v2.7h36.8v11.6h1.9v-11.6
				h54.7v11.6h1.9v-11.6h54.7v11.6h1.9v-11.6h54.7v11.6h1.9v-11.6h54.7v11.6h1.9v-11.6h54.7v11.6h1.9v-11.6h54.7v11.6h1.9v-11.6h6.5
				L387.3,161.5z"/>
			<path class="st30" d="M152.1,157.2c0.8,0.7,2.3-0.6,1.5-1.4S151.3,156.5,152.1,157.2z"/>
			<path class="st30" d="M208.7,157.2c0.8,0.7,2.3-0.6,1.5-1.4S207.9,156.5,208.7,157.2z"/>
			<path class="st30" d="M265.3,157.2c0.8,0.7,2.3-0.6,1.5-1.4S264.5,156.5,265.3,157.2z"/>
			<path class="st30" d="M95.5,157.2c0.8,0.7,2.3-0.6,1.5-1.4S94.7,156.5,95.5,157.2z"/>
			<path class="st29" d="M42.1,161.5h-0.9v-2.9c0.6-0.3,0.9-0.9,0.9-1.5c0-0.7-0.4-1.3-1.1-1.6c0.1,0.2,0.2,0.5,0.2,0.7
				c-0.1,1.1-1,1.8-2,1.8c-0.2,0-0.4-0.1-0.6-0.2c0.3,0.7,1,1.1,1.7,1.1c0.1,0,0.3,0,0.4,0v17h0.6v-11.6h54.7v-0.9H42.1V161.5z"/>
			<path class="st29" d="M155.3,163.3v-1.8h-0.9v-2.9c0.9-0.4,1.2-1.5,0.8-2.3c-0.2-0.4-0.5-0.7-0.9-0.8c0.1,0.2,0.2,0.5,0.2,0.7
				c-0.1,1-1,1.8-2,1.8c-0.2,0-0.4-0.1-0.6-0.2c0.3,0.7,1,1.1,1.7,1.1c0.1,0,0.3,0,0.4,0v17h0.6v-11.7h54.7v-0.9H155.3z"/>
			<path class="st29" d="M211.9,163.3v-1.8H211v-2.9c0.6-0.3,0.9-0.9,0.9-1.5c0-0.7-0.4-1.4-1.1-1.6c0.1,0.2,0.2,0.5,0.2,0.7
				c-0.1,1-1,1.8-2,1.8c-0.2,0-0.4-0.1-0.6-0.2c0.3,0.7,1,1.1,1.7,1.1c0.1,0,0.3,0,0.4,0v17h0.6v-11.7h54.7v-0.9H211.9z"/>
			<path class="st29" d="M268.5,163.3v-1.8h-0.9v-2.9c0.6-0.3,0.9-0.9,0.9-1.5c0-0.7-0.4-1.4-1.1-1.6c0.1,0.2,0.2,0.5,0.2,0.7
				c-0.1,1.1-1,1.8-2,1.8c-0.2,0-0.4-0.1-0.6-0.2c0.3,0.7,1,1.1,1.7,1.1c0.1,0,0.3,0,0.4,0v17h0.6v-11.7h54.7v-0.9H268.5z"/>
			<path class="st29" d="M325.1,161.5h-0.9v-2.9c0.9-0.4,1.2-1.5,0.8-2.3c-0.2-0.4-0.5-0.7-0.9-0.8c0.1,0.2,0.2,0.5,0.2,0.7
				c0,1-0.9,1.8-1.9,1.8c-0.3,0-0.5,0-0.8-0.2c0.3,0.7,1,1.1,1.7,1.1c0.1,0,0.2,0,0.4,0v17h0.6v-11.6h54.7v-0.9h-53.8V161.5z"/>
			<path class="st29" d="M98.7,163.3v-1.8h-0.9v-2.9c0.9-0.4,1.2-1.5,0.8-2.3c-0.2-0.4-0.5-0.7-0.9-0.8c0.1,0.2,0.2,0.5,0.2,0.7
				c0,1-0.8,1.8-1.8,1.8c0,0,0,0,0,0c-0.3,0-0.5-0.1-0.8-0.2c0.3,0.7,1,1.1,1.7,1.1c0.1,0,0.2,0,0.4,0v17h0.6v-11.7h54.7v-0.9H98.7z
				"/>
		</g>
		<g class="st27">
			<path class="st28" d="M765.8,161.5h-6.5v-2.9c0.6-0.3,1-0.9,1-1.5c0-1-0.8-1.9-1.9-1.9s-1.9,0.8-1.9,1.9c0,0.6,0.4,1.2,1,1.5v2.9
				h-54.8v-2.9c0.6-0.3,0.9-0.9,0.9-1.5c-0.1-1-1-1.8-2-1.7c-0.9,0.1-1.7,0.8-1.7,1.7c0,0.6,0.4,1.2,0.9,1.5v2.9h-54.7v-2.9
				c0.6-0.3,0.9-0.9,0.9-1.5c-0.1-1-1-1.8-2-1.7c-0.9,0.1-1.7,0.8-1.7,1.7c0,0.6,0.4,1.2,0.9,1.5v2.9h-54.7v-2.9
				c0.6-0.3,0.9-0.9,0.9-1.5c-0.1-1-1-1.8-2-1.7c-0.9,0.1-1.7,0.8-1.7,1.7c0,0.6,0.4,1.2,0.9,1.5v2.9h-54.7v-2.9
				c0.6-0.3,1-0.9,1-1.5c0-1-0.8-1.9-1.9-1.9s-1.9,0.8-1.9,1.9c0,0.7,0.4,1.3,1,1.5v2.9h-54.8v-2.9c0.6-0.3,0.9-0.9,0.9-1.5
				c-0.1-1-1-1.8-2-1.7c-0.9,0.1-1.7,0.8-1.7,1.7c0,0.6,0.4,1.2,0.9,1.5v2.9h-54.7v-2.9c0.6-0.3,0.9-0.9,0.9-1.5c-0.1-1-1-1.8-2-1.7
				c-0.9,0.1-1.7,0.8-1.7,1.7c0,0.6,0.4,1.2,0.9,1.5v2.9H381v2.7h36.8v11.6h1.9v-11.6h54.7v11.6h1.9v-11.6H531v11.6h1.9v-11.6h54.7
				v11.6h1.9v-11.6h54.7v11.6h1.9v-11.6h54.7v11.6h1.9v-11.6h54.7v11.6h1.9v-11.6h6.5L765.8,161.5z"/>
			<path class="st30" d="M474,157.2c0.8,0.7,2.3-0.6,1.5-1.4S473.2,156.5,474,157.2z"/>
			<path class="st29" d="M420.6,161.5h-0.9v-2.9c0.9-0.4,1.2-1.5,0.8-2.3c-0.2-0.4-0.5-0.7-0.9-0.8c0.1,0.2,0.2,0.5,0.2,0.7
				c0,1-0.9,1.8-1.9,1.8c-0.3,0-0.5,0-0.8-0.2c0.3,0.7,1,1.1,1.7,1.1c0.1,0,0.2,0,0.4,0v17h0.6v-11.6h54.7v-0.9h-53.8V161.5z"/>
			<path class="st29" d="M477.2,163.3v-1.8h-0.9v-2.9c0.9-0.4,1.2-1.5,0.8-2.3c-0.2-0.4-0.5-0.7-0.9-0.8c0.1,0.2,0.2,0.5,0.2,0.7
				c-0.1,1-1,1.8-2,1.8c-0.2,0-0.4-0.1-0.6-0.2c0.3,0.7,1,1.1,1.7,1.1c0.1,0,0.2,0,0.4,0v17h0.6v-11.6H531v-0.9H477.2z"/>
		</g>
		<rect x="166.4" y="171.2" class="st22" width="2.7" height="11.6"/>
		<ellipse class="st31" cx="167.6" cy="162.7" rx="7.6" ry="11.4"/>
		<rect x="404.4" y="170.5" class="st22" width="2.7" height="11.6"/>
		<ellipse class="st31" cx="405.6" cy="162" rx="7.6" ry="11.4"/>
		<path class="st20" d="M31.2,248.5h131.6c0.4-1.1,0.1-2.4-0.8-3.2c-3.3-3.6-11.8-3.1-11.8-3.1s8.4-4.3,3.2-7.2s-12.3-0.4-12.3-0.4
			s7-5.5-0.7-8.3c-0.3-0.1-0.6-0.2-1-0.3c-3.9-1.2-8.1-0.8-11.7,1.1c0,0-1.2-3-5.6-3.6c-2.7-0.5-5.6,0.1-7.8,1.8c0,0-2.2-4.1-10-3.9
			c-10.8,0.3-11.3,4.5-11.3,4.5c-2.2-2-5.2-3-8.1-2.8c-3.9,0.4-3.9,3.7-3.9,3.7s-4-5.4-16.9-3.8h-0.3c-13.1,1.7-9.5,8-9.5,8
			s-5.9-1.8-10.3-0.5c-0.7,0.2-1.4,0.5-2,0.9c-4.2,2.8,0.4,6.1,0.7,6.3c-0.3,0-8-0.9-11,2.9C29.1,243.6,29.5,246.5,31.2,248.5z"/>
		<path class="st20" d="M249.1,249.4h334.5v-17.9c-5.8-3.3-24.7-5.3-35.4-2.9c0,0,3.4-6.4-21.2-9.5s-42.1,2.1-42.1,2.1
			s-8-7.8-38.4-3.8c-9.8-4.5-34.8-4.1-37.4,1.7c0,0-18.9-7.2-47.7-5.4s-29.3,8.8-29.3,8.8s-0.8-0.1-2.3-0.4
			c-6-0.9-23.5-2.3-39.5,0.8c-18.3,3.5-18,7-16.4,9.8c0.4,0.7,0.9,1.3,1.4,1.9c0,0-19.4-0.6-29.6,6.6
			C240.9,244.5,244.4,247.4,249.1,249.4z"/>
		<path class="st32" d="M403.5,429.2c0,0,16.4-2.5,15.9-9.2S403.5,429.2,403.5,429.2z"/>
		<path class="st32" d="M400.3,431.9c0,0,9.1-16.9,15.9-21.1s-11.8-4.6-15.9,13V431.9z"/>
		<path class="st32" d="M399.6,429.6c0,0,4.6-13.1-12.5-13.8C379.4,415.5,399.6,429.6,399.6,429.6z"/>
		<path class="st18" d="M45.1,369.7c0,0,7.7-5.1,22.4-6.4s-15.8-6.7-26.8,6.4C40.7,369.7,35.8,375.5,45.1,369.7z"/>
		<path class="st18" d="M24.3,370.4c0,0,22.4-16.4,35.5-20.7s-12.6-4.7-30,8.9C29.8,358.6,21,366.8,24.3,370.4z"/>
		<path class="st18" d="M17.8,370.4c0,0,14.9-26.5,21.6-29.8s-10.7-5.1-21.6,16.5C17.8,357.2,13.4,368.6,17.8,370.4z"/>
		<path class="st18" d="M9.8,370.4c0,0,5.7-24.4,11.2-28S0.3,346.4,9.8,370.4z"/>
		<path class="st18" d="M6.6,370.4c0,0,0.3-20.3-11.5-23.4S1.9,360.3,6.6,370.4z"/>
		<path class="st18" d="M2.7,370.4c0,0-7.4-23.3-25.4-23.8S-8.5,355.2,2.7,370.4z"/>
		<path class="st18" d="M1.2,370.4c0,0-9.6-9.5-26-8.7S-2.8,367.5,1.2,370.4z"/>
		<path class="st18" d="M-3.1,276.9c0,0,5.9-3.9,17.2-4.9S2,266.8-6.4,276.9C-6.4,276.9-10.2,281.3-3.1,276.9z"/>
		<path class="st18" d="M-19,277.4c0,0,17.2-12.5,27.2-15.9s-9.6-3.6-23,6.8C-14.8,268.4-21.5,274.6-19,277.4z"/>
		<path class="st32" d="M394.9,281.6c0,0,5.4-3.6,15.9-4.5s-11.3-4.8-19,4.5C391.8,281.6,388.3,285.7,394.9,281.6z"/>
		<path class="st32" d="M380.1,282.1c0,0,15.9-11.6,25.2-14.7s-8.9-3.4-21.4,6.3C384,273.7,377.8,279.5,380.1,282.1z"/>
		<path class="st32" d="M375.5,282.1c0,0,10.6-18.9,15.4-21.2s-7.6-3.6-15.4,11.8C375.5,272.7,372.4,280.8,375.5,282.1z"/>
		<path class="st32" d="M369.8,282.1c0,0,4.1-17.3,8-19.9S363,265,369.8,282.1z"/>
		<path class="st32" d="M367.5,282.1c0,0,0.2-14.4-8.1-16.6S364.2,274.9,367.5,282.1z"/>
		<path class="st32" d="M364.8,282.1c0,0-5.3-16.5-18.1-16.9S356.8,271.2,364.8,282.1z"/>
		<path class="st32" d="M363.7,282.1c-5.1-4.4-11.8-6.6-18.5-6.2C333.5,276.4,360.9,280,363.7,282.1z"/>
		<path class="st33" d="M79.1,446c0,0,26.4-22,41.9-27.8s-14.8-6.3-35.4,11.9C85.6,430.1,75.3,441.1,79.1,446z"/>
		<path class="st33" d="M71.4,446c0,0,17.5-35.6,25.5-40s-12.6-6.8-25.5,22.2C71.4,428.2,66.3,443.5,71.4,446z"/>
		<path class="st33" d="M62.1,446c0,0,6.8-32.6,13.2-37.5S50.8,413.8,62.1,446z"/>
		<path class="st33" d="M58.2,446c0,0,0.3-27.2-13.5-31.4S52.7,432.3,58.2,446z"/>
		<path class="st33" d="M53.7,446c0,0-8.7-31.2-29.9-32S40.5,425.5,53.7,446z"/>
		<ellipse class="st34" cx="41" cy="374.8" rx="40.2" ry="7.5"/>
		<path class="st35" d="M152.9,195.4c-0.1-1.2-0.2-6-0.3-6.9l-15.7,0.6c0,0,0.2,6,0.2,7C139.2,198.1,151.1,197.6,152.9,195.4z"/>
		<path class="st36" d="M131.8,195.2c0.3,3.8,7.9,6.4,17,5.8s16.3-4.3,16-8.1s-7.9-6.4-17-5.8S131.6,191.3,131.8,195.2z"/>
		<path class="st37" d="M74.9,347.4c0,2.5,29.5,4.6,66,4.6s66-2.1,66-4.6s-29.5-4.6-66-4.6S74.9,344.9,74.9,347.4z"/>
		<path class="st38" d="M165.3,333.1c0.1,2.6,13.6,3.4,15.1,1.5c0.5-18.3,1.8-33.8,1.2-39.4c-0.6-6-6.2-19.5-10.1-28.1
			c-5.2,4.2-11.8,16.7-16.8,21.4c5.9,4.5,8.2,7.8,8.5,10.1C163.8,303.8,164.6,316.9,165.3,333.1z"/>
		<path class="st38" d="M92.4,276.4c-1.5-0.5-8.2,11.6-6.8,12.4c11.7,6.6,19.5,10.9,26.5,14.1c4.2,1.9,13.3,0.4,17-12
			C127.5,289.8,97.5,278.1,92.4,276.4z"/>
		<path class="st39" d="M170.3,251.6c0,0,10.3,29.9,13.7,39.7c-5.9,2.7-20.1,7.4-25.5,7.6c-0.9-1.5-7.3-15.5-10.2-21.4
			c-0.9-1.7-4.5-2.2-5.7-0.6c-4.1,5.7-8,11.6-11.6,17.7c-7.3-1.3-21.1-8.3-24.1-13.3c2.5-5.2,12.8-29.4,16.2-35.2L170.3,251.6z"/>
		<path class="st40" d="M164.1,336.2c0,0.5,16.7,1.1,16.8,0.5c1-4.8,1.8-9.7,2.1-12.2l-19.2-1C164,328.7,163.9,333.1,164.1,336.2z"
			/>
		<path class="st41" d="M186.4,332.2c-0.2-1.1-0.7-2.4-1.1-3.7c-0.3-0.9-8.6-1.1-8.7,1c0,0.5,0,1,0,1.5c-1.4,0-2.9-0.1-4.6-0.3
			c-3-0.2-5.9-0.6-8.9-1.2c-0.3,3.5-0.2,9.5-0.5,13.3c0,0,36.6,9.1,42.6,3.6C207,344.9,198.1,337.3,186.4,332.2z"/>
		<path class="st42" d="M162.9,340.4c0,0.9-0.1,1.7-0.1,2.4c0,0,36.6,9.1,42.6,3.6c0.2-0.3,0.3-0.7,0.1-1
			C195.2,347.4,172,342.5,162.9,340.4z"/>
		<path class="st43" d="M189,333.4c0.3,0.1,0.6-0.1,0.6-0.4c0,0,0,0,0,0c0.1-0.3-0.1-0.6-0.4-0.7c-2.3-0.5-4.8,0.4-6.2,2.3
			c-0.2,0.2-0.1,0.6,0.1,0.8c0.1,0.1,0.2,0.1,0.3,0.1c0.2,0,0.3-0.1,0.4-0.2C185.1,333.8,187.1,333,189,333.4z M191.8,335
			c0.3,0,0.5-0.1,0.6-0.4c0,0,0,0,0,0c0-0.3-0.1-0.6-0.4-0.6c-2.3-0.4-4.6,0.5-6.2,2.2c-0.2,0.2-0.2,0.6,0,0.8
			c0.1,0.1,0.2,0.2,0.3,0.2c0.2,0,0.3,0,0.4-0.2C187.8,335.4,189.8,334.7,191.8,335L191.8,335z M194.9,335.5
			c-2.4-0.4-4.8,0.4-6.5,2.1c-0.2,0.2-0.2,0.6,0,0.8c0.1,0.1,0.2,0.2,0.3,0.2c0.1,0,0.3,0,0.4-0.1c1.4-1.5,3.5-2.2,5.6-1.9
			c0.3,0.1,0.5-0.1,0.6-0.4c0,0,0,0,0,0C195.4,335.9,195.2,335.6,194.9,335.5C194.9,335.5,194.9,335.5,194.9,335.5L194.9,335.5z"/>
		<path class="st40" d="M90,275.6c-0.4-0.2-8.2,16.3-7.7,16.6c3.9,2.9,8.2,5,10.3,6.5l8.6-17.5C96.6,279,92.7,276.9,90,275.6z"/>
		<path class="st41" d="M83.8,299.9c1,0.3,2.4,0.4,3.7,0.6c0.9,0.1,4.7-8,2.8-9.2c-0.4-0.3-0.9-0.5-1.3-0.7c0.7-1.4,1.4-2.9,2.2-4.5
			c1.5-2.9,3.1-5.6,4.9-8.3c-2.9-1.9-8.2-4.6-11.5-6.7c0,0-23.8,32.5-21.5,41.1C63.8,314.7,74.4,309.2,83.8,299.9z"/>
		<path class="st42" d="M86.8,272.4c-0.7-0.4-1.4-0.9-2.1-1.2c0,0-23.8,32.5-21.5,41.1c0.1,0.3,0.4,0.5,0.8,0.6
			C66.7,301.6,81,280.6,86.8,272.4z"/>
		<path class="st43" d="M81.7,301.9c-0.2,0.3-0.1,0.6,0.1,0.8c0.2,0.2,0.5,0.2,0.7,0c0,0,0,0,0,0c1.5-2.1,1.7-4.9,0.6-7.3
			c-0.1-0.3-0.4-0.4-0.7-0.3c0,0,0,0,0,0c-0.1,0-0.2,0.1-0.2,0.2c-0.1,0.2-0.1,0.4,0,0.5C83.1,297.8,82.9,300.1,81.7,301.9z
			 M79.1,304c-0.2,0.3-0.1,0.6,0.2,0.8c0.2,0.2,0.5,0.1,0.7-0.1c0,0,0,0,0-0.1c1.3-2.2,1.6-4.9,0.7-7.3c-0.1-0.3-0.4-0.5-0.7-0.4
			c0,0,0,0,0,0c-0.1,0-0.2,0.1-0.3,0.3c-0.1,0.2-0.1,0.3,0,0.5C80.5,299.8,80.3,302.1,79.1,304z M77.3,306.8c1.3-2.3,1.7-5,0.9-7.5
			c0-0.3-0.3-0.5-0.6-0.4c-0.2,0-0.3,0.1-0.4,0.3c-0.1,0.1-0.1,0.3,0,0.5c0.7,2.2,0.4,4.5-0.7,6.5c-0.2,0.3-0.1,0.6,0.1,0.8
			C76.8,307.1,77.1,307.1,77.3,306.8C77.3,306.8,77.3,306.8,77.3,306.8L77.3,306.8z"/>
		<path class="st44" d="M173.5,260.3c-13.1,7.3-48.9,3.4-52.9,1.4c0,0,5.4-50.2,6.1-63.6c10.9-1.7,28.9-1.4,37.2-1.3
			C168.6,205.1,173.5,260.3,173.5,260.3z"/>
		<path class="st38" d="M136,186.8v14.5c0,3.1,4.7,5.6,10.4,5.6s10.4-2.6,10.4-5.7v-14.4H136z"/>
		<path class="st38" d="M70.3,174c-1.4,2.7-4.1,9.3-5.5,11.9c3.3,1.8,10.7,5.2,13.5,6.5c1.3-2.8,4.4-9.2,6.1-12.2
			C80.6,178.6,75.6,176.4,70.3,174z"/>
		<path class="st45" d="M83.8,179.4l-6.8-3.4c-1.2,1.5-6.4,12.7-6.5,14.1l6.9,2.9L83.8,179.4z"/>
		<path class="st40" d="M80.9,178c-2.6,3.6-5.4,11.3-6,13.8c-1.1,7.2,27.4,23.4,53.3,21.1c1.9-2.7,3.5-11,5.3-17.7
			C110,186.1,89.5,174.8,80.9,178z"/>
		<path class="st40" d="M110.3,263.8c5,3.3,15.6,5.3,22,4.4c2.9-2.8,4.9-37.8,5.1-65.9c-0.3,0-2.9-4.9-3.5-5.7
			c-4,0.1-11.4,0.3-14.7,0.9C111.2,227.6,104.9,260.3,110.3,263.8z"/>
		<path class="st45" d="M219,228l4.9,0.5c0.9-0.1,0.8,12.6,0,12.7l-5.2,0.3L219,228z"/>
		<path class="st40" d="M220.4,228.5c-1.8-4.6-15.8-3.4-19.1-5.3c-1-0.6-8.5-11.9-15.3-20.8c-2.8-3.6-10.1-4.7-12.9-5
			c-0.9,3.7,0.6,18.6,0.7,26.2c5.8,9.2,10.4,13.9,16.9,17.1c4.6,2.2,27.1,6.3,29.4,0.7C220.5,240.1,220.9,229.9,220.4,228.5z"/>
		<path class="st40" d="M179.5,264.9c-4,3.1-11.7,4.5-17.4,3.9c-3.8-0.7-4.1-23.4-4.5-31.7c-0.6-11.9-1.6-27.8-1.7-36.7
			c0.3-0.1,4.2-3.2,6.8-4.1c4.6,0.1,9.1,0.6,13.6,1.6C183,225.3,188,256.3,179.5,264.9z"/>
		<path class="st46" d="M168.8,200.3c-1.6,1.5-8.4,2.8-12.6,1.6c2-2.2,4.6-4.4,5.5-4.6C164.3,197.2,171.6,197.7,168.8,200.3z"/>
		<path class="st40" d="M166.1,198.5c-2.6,2.7-6.4,4-10.1,3.4c-1.9-7.9,8.7-8.4,1-11.9c1.2-0.5,2.5-0.8,3.8-1.1
			C163.8,189.2,169.1,194.9,166.1,198.5z"/>
		<path class="st46" d="M125.7,201.9c1.7,1.8,7,2.5,11.3,0.6c-5.5-6.5-3.4-8.9-4.3-8.9C125.1,192.5,122.7,198.6,125.7,201.9z"/>
		<path class="st40" d="M127.4,200.9c2,1.7,5.2,3,9.5,1.6c0.6-8.1-8.2-7.8-1.1-12.4c-1.5-0.2-2.9-0.2-4.4,0.1
			C128.6,191.1,123.9,197.8,127.4,200.9z"/>
		<path class="st45" d="M131.8,272.1c-6.7,0.5-16.5-1.3-21.5-4.1v-4.2c4.3,2.7,15.9,5.3,22,4.4L131.8,272.1z"/>
		<path class="st45" d="M127.8,245.6c-3.8,2.1-9.6,3.7-13,3.5l-0.3-1.8c4.3-0.2,8.6-1.3,12.4-3.3L127.8,245.6z"/>
		<path class="st45" d="M162.4,272.5c5.9,0.8,12.8,0,17-3.2l0.2-4.5c-3.7,2.8-12.3,4.3-17.7,3.7L162.4,272.5z"/>
		<path class="st45" d="M164.8,247.3c4,1.6,9.6,2.8,12.9,2.4l0.1-1.7c-4.2,0.1-8.3-0.7-12.2-2.2L164.8,247.3z"/>
		<path class="st47" d="M136.4,230.3c-0.1,0-0.2-0.1-0.3-0.1c-2-2-2-4.9-1.7-7.1c0.2-1.6,0.4-3.2,0.6-4.7c0.3-1.8,0.6-3.7,0.7-5.6
			c0.4-3.5-0.1-7-1.4-10.2c-0.1-0.2,0-0.4,0.2-0.5c0,0,0,0,0.1,0c0.2-0.1,0.5,0,0.6,0.2c1.4,3.3,1.9,7,1.5,10.5
			c-0.1,1.9-0.4,3.8-0.7,5.6c-0.2,1.5-0.5,3.1-0.6,4.7c-0.2,2.1-0.3,4.7,1.5,6.5c0.2,0.1,0.2,0.4,0,0.6c0,0,0,0,0,0
			C136.6,230.3,136.5,230.3,136.4,230.3z"/>
		<path class="st47" d="M160.4,229.2c0.1,0,0.2-0.1,0.3-0.2c1.8-2.2,1.4-5,1-7.3c-0.3-1.6-0.7-3.1-1.1-4.6c-0.5-1.8-1-3.6-1.3-5.5
			c-0.8-3.4-0.6-6.9,0.4-10.3c0.1-0.2,0-0.4-0.2-0.5c0,0,0,0-0.1,0c-0.2,0-0.5,0.1-0.5,0.3c-1,3.5-1.2,7.1-0.4,10.6
			c0.3,1.9,0.8,3.7,1.3,5.5c0.4,1.5,0.8,3,1.1,4.6c0.4,2.1,0.7,4.7-0.8,6.6c-0.1,0.2-0.1,0.4,0,0.5c0,0,0,0,0,0
			C160.2,229.2,160.3,229.2,160.4,229.2z"/>
		<path class="st48" d="M158.2,192.9c-0.9,4-6.6,6.1-12.8,4.8s-10.5-5.7-9.6-9.6s6.6-6.1,12.8-4.8S159,188.9,158.2,192.9z"/>
		<path class="st38" d="M193.7,153.7c-0.4,8.9-6.6,15.8-12.2,16.2s-7.9-6.3-8.5-14.7s3.5-15.5,9.1-15.8
			C189.8,138.8,194,145.3,193.7,153.7z"/>
		<ellipse class="st49" cx="292.1" cy="359" rx="105.6" ry="6.7"/>
		<path class="st50" d="M191.1,129.3c2.7,29.8-15.8,44.9-43.3,47.4s-49-9.1-51.6-38.9s16.9-38.5,44.5-41S188.4,99.5,191.1,129.3z"/>
		<path class="st38" d="M186.1,168.2c-1.3,12.9-15.7,23.8-27.6,24.7c-25,1.9-52.2-10.3-55.3-45.2s14.7-37.4,39.2-39.6
			c16.3-1.5,30-2.4,37.7,7.8C184.9,122.1,186.9,160.2,186.1,168.2z"/>
		<path class="st51" d="M126.9,169.5c0,1.3,1.9,2.2,4.2,2.2s4.1-1.1,4.1-2.4s-1.9-2.2-4.2-2.2S126.9,168.2,126.9,169.5z"/>
		<path class="st51" d="M173.5,163.8c0.2,1.1,1.9,1.8,3.9,1.5s3.4-1.5,3.2-2.6s-1.9-1.8-3.9-1.5S173.3,162.7,173.5,163.8z"/>
		<path class="st52" d="M164.1,146.8c-2.1,4.6-1.2,9.3,1.3,10.8c3.7,2.3,11.9,2.1,14.4-2.2s0.2-10.9-4.9-13.3
			C170.5,140.1,166.1,142.4,164.1,146.8z"/>
		<path class="st50" d="M165.4,149.6c-0.8,3,0.8,6.1,3.7,7.2c2.8,0.9,5.6-0.9,6.3-4c0.8-3-0.8-6.1-3.7-7.2
			C168.9,144.7,166.1,146.5,165.4,149.6z"/>
		<path class="st53" d="M165.8,149c-0.2,0.8,0.2,1.7,1,2c0.7,0.2,1.5-0.2,1.7-1c0-0.1,0-0.1,0-0.2c0.2-0.8-0.2-1.7-1-2
			c-0.7-0.2-1.5,0.2-1.7,0.9C165.8,148.9,165.8,148.9,165.8,149z"/>
		<path class="st52" d="M143.5,149.1c3.4,4,3.5,8.8,1.1,10.8c-3.6,3.1-12.7,4.9-16.6,1.3s-2.8-10.5,2.3-14.1
			C134.8,144.1,140.2,145.3,143.5,149.1z"/>
		<path class="st54" d="M130,153.4c-0.9,3.1,1,6.3,4.1,7.2c3.1,0.9,6.3-1,7.2-4.1c0.9-3.1-1-6.3-4.1-7.2
			C134.1,148.5,130.9,150.3,130,153.4C130,153.4,130,153.4,130,153.4z"/>
		<path class="st53" d="M130.4,152.9c-0.2,0.9,0.3,1.8,1.1,2c0.9,0.2,1.8-0.3,2-1.1c0.2-0.9-0.3-1.7-1.1-2
			C131.6,151.5,130.7,152,130.4,152.9C130.4,152.8,130.4,152.8,130.4,152.9z"/>
		<path class="st55" d="M159.1,162c-0.2,0-0.4-0.1-0.4-0.3c-0.5-1.6-2.1-2.4-3.7-2c-1.1,0.3-1.9,1.3-2.1,2.5c0,0.2-0.2,0.4-0.4,0.4
			c0,0,0,0,0,0c-0.2,0-0.4-0.2-0.4-0.4c0,0,0,0,0,0c0.2-2.1,2.1-3.6,4.1-3.4c1.5,0.2,2.8,1.2,3.2,2.7
			C159.5,161.7,159.4,161.9,159.1,162L159.1,162z"/>
		<path class="st50" d="M116.5,139.2c0.9,14.6-3.7,24.4-9.9,25S94.3,147.6,93.1,133c-1.5-16.7,6.8-24.2,12.9-25.8
			S115.5,122.5,116.5,139.2z"/>
		<path class="st38" d="M94.9,168.5c3.7,9.2,13.8,13.9,20.6,12.1s2.3-29.9-10.6-30.7C94.2,149.1,91.4,159.9,94.9,168.5z"/>
		<path class="st51" d="M102.6,167.1c1.1,3.9,6,6.7,9.3,5.2c1.3-0.6-2.8-14.3-4.9-14C103.4,158.7,101.5,163.1,102.6,167.1z"/>
		<path class="st50" d="M188.6,108.7c-0.5-1-0.9-1.9-1.4-2.7c0.9-0.7,1.6-1.5,2.1-2.5l-0.4-1.3c-0.3-0.1-0.6-0.3-0.8-0.6
			c-1-1.7-2-3.5-2.8-5.3c-0.4-0.9-0.9-1.8-1.2-2.8c-0.7-1-1.4-2-2-3.1c-1.1-0.4-2.3-0.8-3.5-1c-2-0.3-4.1-0.3-6.1,0.1
			c0.9-2.1,0.6-4.5-0.6-6.4c-2.4-3.5-8.1-3.6-12.8-0.3c-1,0.7-1.9,1.6-2.7,2.6c-0.4-2.3-1.6-4.5-3.2-6.2c-6.4-6.3-19.2-3.4-28.5,6.4
			c-4.5,4.6-7.5,10.4-8.7,16.8c-0.1-2.6-1.9-8.4-6.2-10.6c-0.1,0.3-0.3,0.5-0.6,0.6c-0.8,0.4-1.5,0.8-2.3,1.3l-0.6,0.4l-0.2,0.2
			l-0.1,0.1c-0.3,0.3-0.7,0.6-1,0.8s-0.7,0.7-1.1,1.1c-0.4,0.6-0.8,1.3-1.2,1.9c0.2,0.1,0.5,0.2,0.8,0.2c4.6,0.9,8,1.4,11.3,5
			c-7-2.2-16.3,0.3-21.4,8.7c-0.6,4-1.1,8-1.4,12c-0.1,2.5-0.2,4.9-0.3,7.4c0.2,1.8,0.3,3.6,0.5,5.4c1.6,4,3.8,6.9,6,7.4
			c5.6,1.2,12.4-4.3,15.7-13.9c0.2-0.5,0.3-0.9,0.4-1.4c0-0.1,0-0.1,0-0.2v-0.2c-0.3-0.3-0.4-0.8-0.3-1.2c0.1-0.4,0.2-0.9,0.3-1.3
			c0-1.7,0-3.3,0.1-5c-0.2-2.6-0.4-4.6,0.5-5c0.1-0.7,0.2-1.4,0.4-2.1c0.1-0.6,0.6-1,1.2-1c0-0.1,0-0.3,0-0.4c0-0.6,0.4-1.1,1-1.3
			c0.1,0,0.3,0,0.4,0c0.2-0.1,0.4-0.2,0.7-0.2c0.4,0,0.7,0.1,1,0.4c0.3,0.3,0.4,0.6,0.4,1v1.6c1,0.3,2,0.7,3,1.2
			c1.1,0.6,2.1,1.2,3.1,1.8l0,0c3.9,0.7,7.8,1.6,11.7,2.4c-0.3-1-0.8-1.9-1.4-2.7c0.4-0.2,0.8-0.4,1.2-0.6c3,1.1,6.2,1.5,9.4,1.2
			c1.9-0.1,3.8-0.5,5.6-1.1c0.1-0.2,0.3-0.4,0.4-0.6c0.2-0.2,0.4-0.4,0.7-0.6c0.3-0.2,0.7-0.3,1.1-0.3c0.2,0,0.4,0,0.6,0.1
			c0.1,0,0.2,0.1,0.4,0.1c3.7-1.9,6.3-4.8,7-7.9c0.9,3.6,3.7,7.4,7.8,10.1c4.5,2.9,9.4,3.8,13.1,2.7c3.4,5,5.8,10.5,7.6,9.6
			c0.1-0.1,0.2-0.1,0.3-0.2c0-2.7,0-5.3,0.1-8l-0.1-1c0-0.2,0-0.4,0.1-0.6c0-0.6,0-1.2,0-1.8c0-0.1,0-0.2,0.1-0.3
			C191,114.3,189.9,111.4,188.6,108.7z"/>
		<path class="st38" d="M234.4,222c-6.1,1.5-8.4,2.9-10.6,5.7c-3,3.7-2.3,8.7,0.4,11.9c1.4,1.8,4.9,3.2,12.3,4.1
			c0.2-3.9,5.1-11.6,4.5-17.9C238.1,226.7,235.8,223.2,234.4,222z"/>
		<path class="st56" d="M349.7,270h-0.1c-27.4-3.6-43.7-8.7-64.5-20.3c-5.8-3.2-11.3-7-16.7-10.6c-11.3-7.7-21-14.3-28.1-12.4
			c-8.7,2.4-8.1,11.1-7.4,20.4c0.6,8.1,1.1,16.4-4.6,21c-0.5,0.4-1.1,0.3-1.5-0.2c-0.4-0.5-0.3-1.1,0.2-1.5
			c4.9-3.9,4.3-11.6,3.8-19.2c-0.7-9.7-1.4-19.7,9-22.5c8.1-2.2,18.2,4.7,29.9,12.6c5.3,3.6,10.8,7.4,16.5,10.5
			c20.5,11.4,36.6,16.5,63.7,20c0.6,0,1,0.5,1,1.1C350.8,269.6,350.3,270.1,349.7,270L349.7,270z"/>
		<path class="st57" d="M227.7,232.3c-1.9,5.7,2.9,9.4,7.8,10c0-1.2,5.6-8.6,5.3-12.8c-1.6-4-6.4-1.6-6.6-3
			C233.8,229.8,231,232.3,227.7,232.3z"/>
		<path class="st38" d="M238.5,230.3c-3.2-0.3-5.8,0.6-5.9,2s2.4,2.9,5.6,3.2s5.8-0.6,5.9-2S241.7,230.6,238.5,230.3z"/>
		<path class="st38" d="M238.7,225.4c-3.2,0.1-5.6,1.3-5.5,2.7s2.8,2.5,6,2.5s5.6-1.3,5.5-2.7S241.8,225.3,238.7,225.4z"/>
		<path class="st38" d="M238.3,234.9c-3.1-0.7-5.9-0.2-6.2,1.2s2,3,5.1,3.7s5.9,0.2,6.2-1.2S241.4,235.6,238.3,234.9z"/>
		<path class="st38" d="M237.1,239c-2.5-1.2-5-1.2-5.7,0s0.9,3.1,3.4,4.3s5.1,1.2,5.7,0S239.6,240.2,237.1,239z"/>
		<path class="st38" d="M239.1,231.7c-1.5,0.7-3.9-0.9-5.3-3.5s-1.4-5.4,0.1-6.1s3.9,0.8,5.3,3.5S240.6,231,239.1,231.7z"/>
		<path class="st38" d="M55.6,182.7c-0.2,0.8-1.4,1.3-3.2,2.1c-1.5,0.7-3.9,1.7-4.5,2.8s0.6,1.9,2.5,1.7c3.3-0.3,10.6-1.1,14.2-1.8
			c6.2-0.8,11.1-6.5,10.2-12.3c-1.4-8.7-2.4-12-3.5-17.3c-0.3-1.3-2.7,0.4-3.1,2.2c-0.8,3.8,0.1,5-0.4,6.9s-2.2,1.8-3.9,1
			c-7.2-6.3-10.6-10.7-13.3-9.6c-2.1,1.2,2.3,6.2,7.5,11.6c-7.4-3.3-13.6-5.4-14.2-3.4c-0.7,2.4,5.7,5.4,11.2,8.7
			c-6.1,0.9-12.8,0.2-12.3,3.4C43.2,181.1,56.3,180.6,55.6,182.7z"/>
		<path class="st58" d="M328.3,234.4c1.8,6.8,17-3.3,15.6-8.6c-1.9-7.4-11-19.6-13.5-18.8C327.6,207.8,325.2,222.9,328.3,234.4z"/>
		<path class="st59" d="M332.1,227.2c1.3,5.4,10.8,1.4,9.7-2.8c-1.5-5.9-8.4-15.5-10.3-14.9C329.5,210.1,330.8,221.8,332.1,227.2z"
			/>
		<path class="st58" d="M350.5,227.6c0,7,12.6,2.5,12.9-3.1c0.4-7.7-3.5-21.9-5.5-21.8C355.5,202.8,350.5,217.7,350.5,227.6z"/>
		<path class="st59" d="M355.3,222.6c-0.3,5.5,6,4.4,6.3,0c0.3-6-1.8-17.2-3-17.1C357.2,205.5,355.6,217.1,355.3,222.6z"/>
		<ellipse class="st60" cx="299.1" cy="360" rx="77" ry="3.5"/>
		<path class="st61" d="M291.3,310c-3.3,5.6-7.6,10.5-12.7,14.4c-7.3,5.7-10.2,9.5-11.2,14.2c-1.3,6,9.5,14,8.4,17.9
			c-0.4,1.3-9.9,1.6-12.2,0.5c-2-0.9-2.5-3.7-4.8-7.1c-3.7-5.5-6.4-7.5-6.3-11.8c0.1-3.5,8.8-14.3,7.1-31.2
			C261.3,307,289.1,310,291.3,310z"/>
		<path class="st61" d="M319.6,306.8c-1.9,5.9-2.1,17.1-6.1,25.2c-2.2,4.5-13.2,11.8-13.7,14.3c-1.1,5.1,7.6,5.5,11.1,4.1
			c2.1-0.9,11.4-10.4,13.7-14c3.2-5,6-14.9,9-26.8C332,309,321.8,307.4,319.6,306.8z"/>
		<path class="st62" d="M360.1,259.9c-4.3-1.7-25.8-8.5-29.8-8.5c-8.9,13.1-12.9,16-23.1,16.9c-18.3,1.5-35.7-5.1-52.3-1.5
			c-11.6,2.5-18,16.6-18.9,27.3c12.5,14.5,23.1,23.5,24.5,24.6c2.8-1.6,6.1-5,15.4-3.8c13.7,1.7,25.2,8.9,40,10.8
			c23.3,2.9,40.1-9.2,43.9-22.3C362.9,293,359.9,278.1,360.1,259.9z"/>
		<path class="st63" d="M388.3,243.9c1.4,1.6,0.7,12.6-9.6,16.1c-0.9,0.3,1,10.4-2.2,13.1c-4.3,3.5-12.8,1.2-19.6-3.4
			c-4.9-3.4-30.3-9.4-31.8-10.6c4-7.4-0.4-19.9,6.4-30.1c5.2-7.8,25.6-11.6,35.3-4.8c7.8,5.5,7.4,14.9,12.1,18.3
			C383.3,242.4,386.5,241.9,388.3,243.9z"/>
		<path class="st58" d="M383.3,244.8c-3,0-10.1-0.1-14.2-1.5c-6.2-2.1-9.3-15.5-13.9-15.5c-5.9,0.1-10.2,11.3-10.8,17.3
			c-0.6,6.5-15.4,0.1-4.7,16.1c-3.1,1.2-14.1-0.5-15.6-1.7c4.1-12.4-0.3-20.4,6.5-30.6c5.2-7.8,26.4-11.7,36.1-4.9
			c3.2,2.3,5.7,5.5,6.9,9.3c-5.6-7-9.2-7.7-10.2-7.2c-1.8,0.9,4.2,14.7,6.7,16C374.3,244.3,381.7,244.6,383.3,244.8z"/>
		<path class="st64" d="M387.4,245.2c0.5,1.6-0.9,5.5-3.8,5.8s-6.4-1.8-6.7-4.6c-0.2-1.7,2.6-2,5.5-2.4S386.9,243.6,387.4,245.2z"/>
		<path class="st65" d="M377.4,260.4c-0.4,2.4,0.9,10.6-3.7,10.8c-9.1,0.2-12.2-12.1-15.6-15.6c5.4,5.3,12.4,8,17.1,3.8
			C375.7,260,376.4,260.7,377.4,260.4z"/>
		<path class="st66" d="M382.3,274c0.6,2.7,1,6.2-1,8.7c-1.4,1.7-5.7,2.1-7.3-0.1s0.9-7-8.5-15.7c1.2-2.4,4.8-2.8,7.8-1.3
			c0.8-0.6,1.9-0.8,2.8-0.3C377.8,266.1,381.1,269.4,382.3,274z"/>
		<path class="st67" d="M352.7,242.6c0.3,2.3,2.4,4,4.7,3.8c2.3-0.3,4-2.4,3.8-4.7c-0.2-2.1-2-3.8-4.2-3.8
			C354.5,238,352.6,240.1,352.7,242.6z"/>
		<path class="st68" d="M353,242.9c0.2,2.3,2.2,4,4.5,3.8s4-2.2,3.8-4.5c-0.2-2.2-1.9-3.8-4.1-3.9
			C354.8,238.5,352.9,240.5,353,242.9z"/>
		<path class="st67" d="M352.9,243c0.2,2,2,3.5,4.1,3.3c2-0.2,3.5-2,3.3-4.1c-0.2-1.9-1.8-3.3-3.6-3.3
			C354.5,239,352.8,240.8,352.9,243z"/>
		<path class="st69" d="M357.5,240.5c-0.1,0.5,0.3,0.9,0.8,1c0.5,0.1,0.9-0.3,1-0.8c0-0.1,0-0.1,0-0.2c0.1-0.5-0.3-0.9-0.8-1
			c-0.5-0.1-0.9,0.3-1,0.8C357.5,240.4,357.5,240.4,357.5,240.5z"/>
		<path class="st67" d="M370.9,239.6c0.6,2,2.1,3.4,3.3,3s1.7-2.3,1.1-4.3s-2.1-3.4-3.3-3S370.3,237.6,370.9,239.6z"/>
		<path class="st68" d="M370.9,239.8c0.6,1.9,2,3.2,3.2,2.9s1.7-2.2,1.1-4.2s-2-3.2-3.2-2.9S370.3,237.9,370.9,239.8z"/>
		<path class="st67" d="M370.8,239.8c0.5,1.8,1.8,2.9,2.9,2.6s1.5-2,1-3.8s-1.8-3-2.9-2.6S370.3,238,370.8,239.8z"/>
		<path class="st69" d="M372.5,237.1c0.1,0.4,0.4,0.7,0.7,0.6s0.4-0.5,0.2-0.9s-0.4-0.7-0.7-0.6S372.4,236.7,372.5,237.1z"/>
		<path class="st70" d="M378.8,274.7c0.2,0.9-0.5,0.9-0.7,0c-0.7-3.3-2.3-6.3-4.8-8.7C376.4,267.4,378.1,271,378.8,274.7z"/>
		<path class="st58" d="M253.3,274.3c-18.5,6.2-25.6,28.7-52.2,18.2c-14.3-5.6-18.4-24-15.2-23.4c13.8,6.6,39.3,10,68.5-2.1
			C254,269,253.5,274.2,253.3,274.3z"/>
		<path class="st71" d="M199.9,290.5c-2.2,0.1-6.1-0.9-10.3-3.8c5.6,7.5,17.9,15.1,36.4,5.4C225,290.8,200.8,290.4,199.9,290.5z"/>
		<path class="st58" d="M216.1,275c-8.9,0-22.8-3.2-28.6-8.4c2.8,4.9,7.5,7.1,9.1,7.3C201.1,275.6,212.5,276.3,216.1,275z"/>
		<path class="st63" d="M281.8,293.3c0,12.5-7.8,25.6-18.6,29.1c-19.4,6.2-25.7,13-28.6,15.7c-2.1,2-5.2,8-4.7,12.6s2.2,5.6,1.4,7.5
			c-0.7,1.6-12.2,1.4-12.7,0.3c-3.6-6.9,1.2-18.3,0.4-24c-0.5-3.5,14.4-15.7,17.1-25.5c1.4-4.9-0.5-33.7,20.3-38.3
			C273.2,267.1,281.8,280.8,281.8,293.3z"/>
		<path class="st63" d="M312.3,310.6c4,5.8,15,23.5,16.6,25.3c7.6,8.7,15.4,20.5,21.8,23c2.6,1,10.3,1.1,13.4,0.4
			c1.1-0.5,1.7-1.6,1.5-2.8c-0.6-2.5-4.7-4.7-7.5-7.5c-24.9-24-26.8-59.8-30-70.6C326.1,272.3,305.4,300.7,312.3,310.6z"/>
		<path class="st71" d="M329.1,293.3c-3.3,7.4-16.6,13.2-16.9,14.8c7.8,9,18.9,24,24.2,23.6c2.5-0.1,5-0.8,7.2-1.9
			C336.3,316.7,333.1,306.4,329.1,293.3z"/>
		<path class="st58" d="M335.8,253.4c-3-0.4-5.8-2.5-7.4-2.5c-5.6,14.3-11,16.5-21.2,17.4c-18.3,1.5-35.7-5.1-52.3-1.5
			c-11.3,2.5-17.6,15.8-18.8,26.4c9,3.3,17.8,7,26.3,11.3c23.6-4.8,68.8,29.7,76.8,1.8c3.6-12.7-10.8-27.5-5.9-30.6
			c4.5-2.9,12.7,3.7,15.7,2C354.8,274.2,338.8,263,335.8,253.4z"/>
		<path class="st71" d="M242.9,285.3c-1.8,0-3.6,0.2-5.4,0.6c-4.2,10.5-3.5,23.1-4.1,26.2c-0.4,1.8-0.9,3.6-1.6,5.4
			c3.4,2,7.2,3.1,11.1,3.1c11.1,0,25.6-13.9,25.6-23.7S254,285.3,242.9,285.3z"/>
		<path class="st72" d="M359.6,288.1l-3.7-5c-0.7,0-1.4-0.1-1.7,0.4l-3.8,5.1c-0.3,0.4-0.3,1,0.1,1.5l4.2,4.7c0.4,0.4,1,0.2,1.6,0.2
			l3.4-5.4C360,289.1,360,288.5,359.6,288.1z"/>
		<path class="st73" d="M360.5,288l-4.2-4.7c-0.3-0.3-0.7-0.4-1-0.1c-0.1,0-0.1,0.1-0.1,0.2l-3.8,5.1c-0.3,0.4-0.3,1,0.1,1.5
			l4.2,4.7c0.3,0.3,0.7,0.4,1,0.1c0.1,0,0.1-0.1,0.2-0.2l3.8-5.1C360.9,289,360.9,288.4,360.5,288z"/>
		<path class="st74" d="M356.3,283c-6.5,1.8-15.4,0.2-21.5-3.1c-7.8-4.3-13.3-10-14.9-16.2c0-0.5,0.1-1,0.4-1.4c1-1.6,2.8-4.5,4-6.2
			c0.4-0.6,1.7-0.4,1.8-0.2c-0.5,0.6-1,1.2-1.1,1.3c1.4,5.6,7.2,12.1,13.8,15.7c5.9,3.2,16.3,5.3,20.9,0.6c0.3-0.7,0.5-1.4,0.7-2
			c0.5,0.3,0.9,0.9,0.9,1.5c0,2.6,0,5.5-0.1,7.4C361.2,280.6,358.5,282.4,356.3,283z"/>
		<path class="st75" d="M336.4,272.7c-9.6-6.3-13.7-14.9-12.1-16.6c0.5-0.4,1.2-0.5,1.8-0.2c-0.5,0.6-1,1.2-1.1,1.3
			c1.4,5.6,7.2,12.1,13.8,15.7c5.9,3.2,16,5.1,20.9,0.6c0.3-0.7,0.5-1.4,0.7-2c0.8,0.4,1.1,1.4,0.8,2.2
			C355.7,279.3,344,277.6,336.4,272.7z"/>
		<path class="st76" d="M139.5,171.2c0,0,10.3-0.1,14-0.6s15.3-2.1,15.3-2.1s-5.5,13-13.2,14.5C148.4,184.4,139.5,171.2,139.5,171.2
			z"/>
		<path class="st77" d="M154.3,170.7c-4,0.2-15.5-0.2-15.5-0.2s10.2,10.3,16.3,10s14.5-12.9,14.5-12.9S158.3,170.5,154.3,170.7z"/>
		<path class="st78" d="M160.1,175.3c-1.2-0.1-2.3,0-3.4,0.1c-0.7,0-1.3,0.3-1.9,0.6c-1.8-0.5-3.6-0.4-5.4,0.1
			c-2.8,0.8-2.5,1-2.4,1.4c2.5,1.6,5.4,3.2,8,3.1c2.2-0.3,4.2-1.3,5.8-2.9c0.6-0.5,1.2-0.9,1.8-1.5
			C163.2,175.7,162.5,175.4,160.1,175.3z"/>
		<path class="st51" d="M168.8,165.2c0,0,0.3,4,2,4.3s-0.1-1.3-0.6-2C170,167.2,168.8,165.2,168.8,165.2z"/>
		<path class="st51" d="M139.4,168c0,0,0.4,4-1.3,4.6s-0.3-1.3,0.2-2C138.8,169.7,139.2,168.9,139.4,168z"/>
		
			<linearGradient id="SVGID_7_" gradientUnits="userSpaceOnUse" x1="570.8121" y1="-19.4366" x2="571.1221" y2="-26.7266" gradientTransform="matrix(1.42 -0.14 -0.17 -1.64 -660.41 214.34)">
			<stop  offset="0" style="stop-color:#E8D9D7"/>
			<stop  offset="0.4" style="stop-color:#EFE5E4"/>
			<stop  offset="1" style="stop-color:#FFFFFF"/>
		</linearGradient>
		<path class="st79" d="M142.3,170.8c0,0,1.2,5.6,12.4,4.6s10.9-6.6,10.9-6.6c-3.7,1.1-7.5,1.9-11.3,2.2
			C150.6,171.2,146.3,170.1,142.3,170.8z"/>
		<path class="st76" d="M138.8,170.5c0,0,8.1,2.6,15.1,1.7c14.7-1.9,15.7-4.7,15.7-4.7s-11.6,2.4-15.9,2.6
			C149.8,170.3,138.8,170.5,138.8,170.5z"/>
		<path class="st50" d="M139.5,133.2c-2.6-1-12.3-2.1-15.3,3.5c0,0,8-2.1,14.5-0.4C138.6,136.3,140.8,133.7,139.5,133.2z"/>
		<path class="st50" d="M161.2,132.2c2.2-1.9,11-5.9,15.8-1.1c0,0-8.4,0.3-14,4C163.1,135.1,160.1,133.1,161.2,132.2z"/>
		<path class="st51" d="M119.3,116.5c2.8,1.9,5.8,3.6,9,4.9c8.5,3.4,17.8,4.5,26.9,3.2l-0.9-3.6c0,0,6.1,1.7,21.8,4.3l8.9,14.9
			c-0.4-3.2-1-6.4-1.6-9.8c-1.4-7.6-3.3-15.2-5.5-22.6l-56.8-4.2l-8.4,8.9l0.8,10.7c0,0,0,25.6,1.2,32.8l1.8-6.5
			c0.6-4.7,1.1-9.6,1.5-14.6C118.6,128.6,119,122.5,119.3,116.5z"/>
		<path class="st50" d="M179.8,84.5c3.3,1,6.6,2.3,9.7,3.9c0,0-12.3-19.4-37.6-20.1c-13.2-0.3-32.2,2.5-37.9,15.1
			c0,0-12.1-5.2-18.9,14.2c0,0,4.9-6.7,10.6-6.8c0,0-8.3,2.6-11.2,21.2c-2.5,16,1.4,25.4,6.8,36.2l0,0c0.2,0,0.5,0.1,0.7,0.2
			c0.2,0,0.3,0.1,0.4,0.1c0.3-0.1,0.5-0.1,0.8,0c0,0,0.1,0,0.1,0c0.8-4.9,2.5-15.1,5.3-22.9l0.7,6.6c0,0,5.6,0.6,6.7-23.3
			c0.2,2.3,3.8,9.5,39.8,10.9c0,0-1.1-0.5-5.1-10.3c5.2,12,20.9,11.3,29.1,13.7l-1.5-11.4l9.5,35.9c1.6-4.3,3-8.6,4.1-13
			c0,0,1.7-11.8-0.6-20.1c1.6,1.8,2.7,4,3.1,6.3C194.6,121.1,197.3,99.1,179.8,84.5z"/>
		<path class="st80" d="M116.7,156c-0.8-0.4-4.6,1.4-4.6,1.4c0.5,2.3,3,19.7,4.6,21.6s3.4,2.4,3.8-1.5s-2.2-9.4-1.8-12
			S116.7,156,116.7,156z"/>
		<path class="st81" d="M108.3,210.1l10.3,2.9l5.8-14.4c0,0,1.9-1.9,1.7-3.5s-8.5-3.8-14.1-2.7S104.4,207.1,108.3,210.1z"/>
		<path class="st58" d="M134.3,260.5h24.9l0.6,3.5c0,0-20,2.1-26.1,0C133.8,260.5,134.3,260.5,134.3,260.5z"/>
		<polygon class="st48" points="163.3,298.6 181.2,292.5 181.7,295.2 163.5,301.3 		"/>
		<path class="st48" d="M107,281.4c5.7,6,13,10.3,21,12.5c-0.7,1-1.2,2-1.7,3.1c0,0-17-6.9-21.5-15.9l2.4,0.6"/>
		<path class="st71" d="M327.2,245.7l-1.1,10.1l1.1,0.1l-1.1,1.5c0,0,1.2,9.8,5.1,5.8s4.5-7.4,4.3-11s3.5-6.4,0.8-8.2
			S327.2,245.7,327.2,245.7z"/>
	</g>
</g>
<path class="st82" d="M154.9,48c0.7,0.4,0.2,0.1-0.3-0.3c-0.5-0.4-1-0.8-1.6-1c-0.9-0.4-1.8-0.8-2.8-1.1c-2.2-0.4-4.5-0.7-6.8-0.7
	c-5.2-0.3-9.9,2-14.4,4.7c-4,2.5-7.5,5.7-10.4,9.4c-1.7,2.2-3,4.7-3.8,7.3c-0.4,1.2-0.7,2.4-0.7,3.6c0.1,1.1,0.3,2.1,0.5,3.2
	c0,1.4,1.1,2.6,2.5,2.6c0.4,0,0.9-0.1,1.3-0.3c0.6-0.3,2-0.4,2.8-0.8c0.8-0.4,1.5-0.8,2.2-1.3c0.4-0.3,3.5-2.7,1.2-1.3
	c1.5-0.8,2.9-1.8,4.3-2.9c1.1-1,2.3-1.9,3.6-2.7c1.6-1,3.1-2.1,4.7-3c3.7-2.3,5.9-2.8,9.6-5.4c2.3-1.7,6.4-2.8,8.1-5.4
	c1.3-0.9,1.5-2.7,0.6-3.9C155.4,48.4,155.1,48.2,154.9,48z"/>
<path class="st83" d="M275.8,395.4c5.6,1.8,11.9,1.6,17.7,1.5c2.9-0.1,5.9-0.3,8.8-0.8c3.1-0.3,6.1-1,9-2.2c1.8-0.9,2.5-3,1.6-4.8
	c-0.5-1-1.5-1.8-2.6-2c-2.8-0.4-5.6-0.5-8.4-0.3c-2.9,0-5.8,0.1-8.6,0.4L275.8,395.4z"/>
<path class="st83" d="M347.5,373.8c-0.1-0.2-0.3-0.4-0.4-0.5c-1-0.7-2.2-1-3.4-0.7c-4.3,0.8-7.1,3.3-10.3,5.6
	c-2.5,1.8-5.9,2.6-8.7,4c-3.3,1.5-6.5,3.3-7.5,6.6c-0.4,1.2,0,2.6,1,3.4c2.9,2.5,6.9,2.4,10.6,1.6c3.5-0.7,6.9-2,10.1-3.6
	c5.4-3,11.2-9.6,9-15.6C347.7,374.3,347.6,374,347.5,373.8z"/>
<path class="st84" d="M344.9,75.3c-5.4-3.3-11.2-5.8-17.3-7.3c-10.8-3-22-4.1-33.1-4.9c-17-1.9-34.1-2.8-51.2-2.8
	c-19.8-0.1-39.6,0.8-59.4,2.7c-16.1,1.6-32.5,3.8-48.2,8.2h-0.1c-0.1,0-0.2,0-0.2,0.1l-0.5,0.2c-5.2,1.5-10.5,3.5-12.9,9
	c-2.1,4.9-2,10.4,0.1,15.3c5,12,19.3,15.2,30.3,16.7c14.1,2,28.6,2,42.9,2.3c14.4,0.2,28.8,0.1,43.2-0.4c28.8-1,57.6-3.6,86.2-7.9
	c6.3-0.9,12.6-2.2,18.4-4.8c5.1-2.3,11-6,10.9-12.6C353.9,83,349.3,78.2,344.9,75.3z"/>
</svg>
