<?xml version="1.0" encoding="utf-8"?>
<!-- Generator: Adobe Illustrator 25.2.3, SVG Export Plug-In . SVG Version: 6.00 Build 0)  -->
<svg version="1.1" id="Layer_1" xmlns="http://www.w3.org/2000/svg" xmlns:xlink="http://www.w3.org/1999/xlink" x="0px" y="0px"
	 viewBox="0 0 600 570" style="enable-background:new 0 0 600 570;" xml:space="preserve">
<style type="text/css">
	.st0{fill:#FF0000;}
</style>
<path class="st0" d="M4,118.5v333c0,62.4,50.6,113,113,113h350c60,0,109.6-47,112.8-106.9l16-299.5c3.3-60.7-42-113-102.5-118.6
	L127.3,6c-3.5-0.3-7-0.5-10.4-0.5C54.6,5.6,4,56.2,4,118.5z M20,118.5c0-53.6,43.5-97,97.1-96.9c2.9,0,5.8,0.1,8.7,0.4l366.1,33.5
	c51.9,4.8,90.8,49.7,88,101.7l-16,299.5c-2.8,51.5-45.3,91.8-96.8,91.8H117c-53.6,0-97-43.4-97-97V118.5z"/>
</svg>
