<svg id="Layer_1" data-name="Layer 1" xmlns="http://www.w3.org/2000/svg" viewBox="0 0 490 140"><defs><style>.cls-1{fill:#ffdb27;stroke:#fff;stroke-miterlimit:10;stroke-width:4px;}.cls-2{fill:#323232;}</style></defs><path class="cls-1" d="M80.9,135H409.1C451,135,485,105.9,485,70h0c0-35.9-34-65-75.9-65H80.9C39,5,5,34.1,5,70H5C5,105.9,39,135,80.9,135Z"/><path class="cls-2" d="M114.61,54.87h-6.16l-5-16.64c-.13-.37-.27-.79-.4-1.27s-.26-.93-.36-1.35-.26-1-.36-1.48c-.14.56-.27,1.08-.4,1.55s-.26.9-.38,1.36-.25.85-.38,1.23l-5.56,16.6H89.93L81.89,27h6.64L92.37,43c.08.37.16.76.26,1.15s.18.78.26,1.15.2.84.28,1.24c.16-.56.29-1,.4-1.33l.26-.86a7,7,0,0,1,.22-.69c.08-.23.18-.53.32-.9L99.77,27h6l4.6,15.92c.11.37.24.82.4,1.35s.3,1,.44,1.51.33,1.13.52,1.71q.19-.87.36-1.71c.1-.47.22-1,.34-1.47a11.15,11.15,0,0,1,.38-1.31l4.64-16h6.68Z"/><path class="cls-2" d="M137.05,54.87a6.22,6.22,0,0,0-.05-.68c0-.22-.05-.47-.06-.76s0-.6-.06-.92a6.4,6.4,0,0,1-2.61,2.06,8.53,8.53,0,0,1-3.41.7,6.33,6.33,0,0,1-5.11-2.16A9.33,9.33,0,0,1,123.93,47q0-4.85,2.94-7.46t8.37-2.62c.6,0,1.14,0,1.62,0a14.15,14.15,0,0,1,1.46.14c.49.06,1,.15,1.5.26a16.67,16.67,0,0,1,1.71.44V49.11c0,.61,0,1.26,0,1.94s.06,1.3.12,1.86.1,1.32.16,2Zm-.84-13a7.1,7.1,0,0,0-1.26-.2c-.38,0-.74,0-1.06,0A4.25,4.25,0,0,0,130.47,43,5.81,5.81,0,0,0,129.25,47a3.91,3.91,0,0,0,.73,2.56,2.57,2.57,0,0,0,2.08.88,3.64,3.64,0,0,0,1.6-.36A4,4,0,0,0,135,49a4.78,4.78,0,0,0,.89-1.56,5.86,5.86,0,0,0,.33-2Z"/><path class="cls-2" d="M148.33,54.87V41.07h-3.52v-3.8h3.52V32.83h5.24v4.44h4.52v3.8h-4.52v13.8Z"/><path class="cls-2" d="M175.37,42.11a4.59,4.59,0,0,1-.71,2.48,6.13,6.13,0,0,1-2,1.9,11.28,11.28,0,0,1-3.12,1.22,17.51,17.51,0,0,1-4.07.44l-.48,0a6.43,6.43,0,0,0-.65,0,3.72,3.72,0,0,0,1.2,2.38,3.82,3.82,0,0,0,2.59.86,11.85,11.85,0,0,0,5.89-1.8v4.2a12.21,12.21,0,0,1-2.9,1.26,12.34,12.34,0,0,1-3.14.38,10.33,10.33,0,0,1-3.62-.6,7.31,7.31,0,0,1-2.74-1.74,7.74,7.74,0,0,1-1.72-2.72,10.07,10.07,0,0,1-.6-3.58,11,11,0,0,1,.7-4,9.18,9.18,0,0,1,2-3.14,8.58,8.58,0,0,1,3-2,10.12,10.12,0,0,1,3.88-.72,7.32,7.32,0,0,1,4.74,1.44A4.71,4.71,0,0,1,175.37,42.11Zm-5.32.4a1.4,1.4,0,0,0-.55-1.1,2.07,2.07,0,0,0-1.38-.46,3.13,3.13,0,0,0-2.28.94,4.36,4.36,0,0,0-1.23,2.58,3.58,3.58,0,0,0,.63.08h.6C168.64,44.55,170.05,43.87,170.05,42.51Z"/><path class="cls-2" d="M191.77,42.19c-.38-.08-.67-.14-.88-.16a5.39,5.39,0,0,0-.72,0,4.06,4.06,0,0,0-3.46,1.56,7.63,7.63,0,0,0-1.18,4.65v6.67h-5.32V43.31c0-.65,0-1.22,0-1.7s-.05-.93-.1-1.35-.13-.83-.22-1.23-.22-.87-.38-1.39h5c.08.32.16.6.23.84a6.4,6.4,0,0,1,.14.65c0,.21.05.43.08.66a6.74,6.74,0,0,1,0,.84,8.93,8.93,0,0,1,2.28-2.6,4.33,4.33,0,0,1,2.54-.76,3.66,3.66,0,0,1,.94.1,10.34,10.34,0,0,1,1.06.39Z"/><path class="cls-2" d="M225.09,45a13.62,13.62,0,0,1-.56,4A9.59,9.59,0,0,1,223,52.14a7.23,7.23,0,0,1-2.43,2,7.45,7.45,0,0,1-5.2.43,6.35,6.35,0,0,1-1.79-1V66.79h-5.6V42.54a10.17,10.17,0,0,0-.06-1c0-.39-.1-.81-.16-1.24s-.15-.86-.24-1.29a10.23,10.23,0,0,0-.34-1.2h5.42a4.25,4.25,0,0,1,.29.78,9,9,0,0,1,.17,1.1,8.27,8.27,0,0,1,2.41-1.84,6.24,6.24,0,0,1,2.76-.56,7,7,0,0,1,2.82.55,6.47,6.47,0,0,1,2.18,1.58,7.41,7.41,0,0,1,1.41,2.46A9.71,9.71,0,0,1,225.09,45Zm-5.32.89a3.8,3.8,0,0,0-.8-2.57,2.72,2.72,0,0,0-2.19-.92,3.14,3.14,0,0,0-2.58,1.17,4.87,4.87,0,0,0-.95,3.17v2.31a4.21,4.21,0,0,0,2.83,1.07,3.44,3.44,0,0,0,2.7-1.12A4.55,4.55,0,0,0,219.77,45.92Z"/><path class="cls-2" d="M230.61,54.87V27h5.32V54.87Z"/><path class="cls-2" d="M254.44,54.87a6,6,0,0,0,0-.68,7.58,7.58,0,0,1-.06-.76c0-.3,0-.6-.06-.92a6.4,6.4,0,0,1-2.61,2.06,8.53,8.53,0,0,1-3.41.7,6.33,6.33,0,0,1-5.11-2.16A9.33,9.33,0,0,1,241.33,47q0-4.85,2.94-7.46t8.37-2.62c.6,0,1.14,0,1.62,0a14.15,14.15,0,0,1,1.46.14c.49.06,1,.15,1.5.26a17.35,17.35,0,0,1,1.71.44V49.11c0,.61,0,1.26,0,1.94s.06,1.3.12,1.86.1,1.32.16,2Zm-.83-13a7.24,7.24,0,0,0-1.26-.2c-.39,0-.74,0-1.06,0A4.25,4.25,0,0,0,247.87,43,5.81,5.81,0,0,0,246.65,47a3.91,3.91,0,0,0,.73,2.56,2.57,2.57,0,0,0,2.07.88,3.68,3.68,0,0,0,1.61-.36,4.08,4.08,0,0,0,1.33-1,5,5,0,0,0,.89-1.56,5.86,5.86,0,0,0,.33-2Z"/><path class="cls-2" d="M276.17,54.87v-10a4.11,4.11,0,0,0-.26-1.62,2.4,2.4,0,0,0-.62-.87,1.64,1.64,0,0,0-.76-.35,6.58,6.58,0,0,0-.68,0,4.11,4.11,0,0,0-.84.15,2.82,2.82,0,0,0-1.22.74,4.85,4.85,0,0,0-1.1,1.69,7.79,7.79,0,0,0-.48,3v7.29h-5.32V43.23a19.92,19.92,0,0,0-.24-3,10,10,0,0,0-.64-2.45h5.32a8,8,0,0,1,.34.92c.06.24.14.58.22,1a8.22,8.22,0,0,1,2.74-1.84,7.89,7.89,0,0,1,3-.6,5.84,5.84,0,0,1,2.33.46A5.46,5.46,0,0,1,279.8,39,6.11,6.11,0,0,1,281,41.1a7.7,7.7,0,0,1,.46,2.75v11Z"/><path class="cls-2" d="M288.44,54.87V41.07h-3.51v-3.8h3.51V32.83h5.25v4.44h4.52v3.8h-4.52v13.8Z"/><path class="cls-2" d="M314.09,50a5,5,0,0,1-1.7,4,7.06,7.06,0,0,1-4.77,1.48,20.38,20.38,0,0,1-4.05-.4,12.07,12.07,0,0,1-3.2-1.08l.68-4.08a13.63,13.63,0,0,0,6.08,1.8,1.77,1.77,0,0,0,1.26-.38,1.21,1.21,0,0,0,.38-.86,1.53,1.53,0,0,0-.3-1,4.44,4.44,0,0,0-1.46-.94,22.89,22.89,0,0,1-2.82-1.44,9.15,9.15,0,0,1-1.92-1.5A4.93,4.93,0,0,1,301.19,44a5.48,5.48,0,0,1-.34-2,4.51,4.51,0,0,1,1.93-3.9,8.5,8.5,0,0,1,5.05-1.38,15,15,0,0,1,3,.26,13.41,13.41,0,0,1,3,1l-.64,4a9.31,9.31,0,0,0-2.75-1.1,12.34,12.34,0,0,0-2.63-.3,1.79,1.79,0,0,0-1.27.34,1.18,1.18,0,0,0-.34.9,1.33,1.33,0,0,0,.54,1.1,11.87,11.87,0,0,0,2.14,1.1,23.65,23.65,0,0,1,2.42,1.38,8.29,8.29,0,0,1,1.64,1.36,4.31,4.31,0,0,1,.91,1.48A5.29,5.29,0,0,1,314.09,50Z"/><path class="cls-2" d="M353.88,52.91a3,3,0,0,1-1.06,1.51,3.18,3.18,0,0,1-1.82.45,3,3,0,0,1-1.84-.49,3.51,3.51,0,0,1-1-1.63l-3.4-10.37L341.16,53a2.56,2.56,0,0,1-1,1.46,3.47,3.47,0,0,1-1.9.45,5.73,5.73,0,0,1-.84-.06,2.15,2.15,0,0,1-.76-.26,2,2,0,0,1-.68-.62,4.25,4.25,0,0,1-.56-1.13l-5.6-15.53h5.4l2.32,7.1c.09.26.17.57.26.92l.3,1c.11.39.23.81.36,1.25a8.31,8.31,0,0,1,.25-1c.08-.28.16-.59.25-.91s.18-.64.26-.92l2.24-7.49h6.48l2.4,7.84c.06.24.13.49.22.76s.18.54.26.8a4.59,4.59,0,0,1,.24.9c.08-.26.16-.53.24-.82.14-.52.28-1,.44-1.48l2.36-8h5.61Z"/><path class="cls-2" d="M370,32.44a2.19,2.19,0,0,1-.92,1.78,3.7,3.7,0,0,1-4.44,0,2.43,2.43,0,0,1-1-1.83,2.2,2.2,0,0,1,.88-1.84A3.86,3.86,0,0,1,368,30a3.13,3.13,0,0,1,1,.56,2.81,2.81,0,0,1,.68.85A2.11,2.11,0,0,1,370,32.44Zm-6,22.43V37.27h5.32v17.6Z"/><path class="cls-2" d="M376.64,54.87V41.07h-3.52v-3.8h3.52V32.83h5.24v4.44h4.52v3.8h-4.52v13.8Z"/><path class="cls-2" d="M400.8,54.87V44.92a5.32,5.32,0,0,0-.18-1.54,2,2,0,0,0-.51-.89,1.6,1.6,0,0,0-.74-.41,3.89,3.89,0,0,0-.85-.09,2.41,2.41,0,0,0-1.33.4,4,4,0,0,0-1.12,1.1,5.83,5.83,0,0,0-.8,1.64,6.23,6.23,0,0,0-.31,2v7.75h-5.32V27.47h5.28v11.8a6.08,6.08,0,0,1,2.21-1.54,7.28,7.28,0,0,1,2.68-.46,8.52,8.52,0,0,1,2.31.31,5.9,5.9,0,0,1,2,1,5.12,5.12,0,0,1,1.44,1.81,6.25,6.25,0,0,1,.55,2.77V54.87Z"/><path class="cls-2" d="M111.11,105.87V78h5.32v27.88Z"/><path class="cls-2" d="M137.91,93.11a4.52,4.52,0,0,1-.72,2.48,6,6,0,0,1-2,1.9,11.41,11.41,0,0,1-3.12,1.22,17.51,17.51,0,0,1-4.07.44l-.48,0a6.43,6.43,0,0,0-.65,0,3.72,3.72,0,0,0,1.2,2.38,3.81,3.81,0,0,0,2.58.86,11.86,11.86,0,0,0,5.9-1.8v4.2a12.21,12.21,0,0,1-2.9,1.26,12.34,12.34,0,0,1-3.14.38,10.33,10.33,0,0,1-3.62-.6,7.31,7.31,0,0,1-2.74-1.74,7.74,7.74,0,0,1-1.72-2.72,10.07,10.07,0,0,1-.6-3.58,11,11,0,0,1,.7-4,9.18,9.18,0,0,1,2-3.14,8.58,8.58,0,0,1,3-2,10.12,10.12,0,0,1,3.88-.72,7.32,7.32,0,0,1,4.74,1.44A4.71,4.71,0,0,1,137.91,93.11Zm-5.32.4a1.4,1.4,0,0,0-.55-1.1,2.07,2.07,0,0,0-1.38-.46,3.17,3.17,0,0,0-2.29.94,4.41,4.41,0,0,0-1.22,2.58,3.58,3.58,0,0,0,.63.08h.59Q132.59,95.55,132.59,93.51Z"/><path class="cls-2" d="M154.79,82.91a7,7,0,0,0-1.44-.54,5.46,5.46,0,0,0-1.32-.14,3.55,3.55,0,0,0-1.64.32,2.2,2.2,0,0,0-1,1,5.41,5.41,0,0,0-.5,1.86,22.85,22.85,0,0,0-.14,2.84H153v3.88h-4.2v13.72h-5.32V92.07h-3.32v-3.8h3.24a22.8,22.8,0,0,1,.44-4.94,8,8,0,0,1,1.34-3.16,4.87,4.87,0,0,1,2.24-1.68,8.65,8.65,0,0,1,3.1-.5,13.71,13.71,0,0,1,4.76.8Z"/><path class="cls-2" d="M157.43,105.87V92.07h-3.52v-3.8h3.52V83.83h5.24v4.44h4.52v3.8h-4.52v13.8Z"/><path class="cls-2" d="M200.31,97a10.1,10.1,0,0,1-.66,3.79,7.67,7.67,0,0,1-1.87,2.77,8.12,8.12,0,0,1-2.91,1.71,12.31,12.31,0,0,1-7.53,0,8.12,8.12,0,0,1-2.91-1.71,7.84,7.84,0,0,1-1.89-2.77,9.9,9.9,0,0,1-.68-3.79,9.71,9.71,0,0,1,.66-3.69,7.59,7.59,0,0,1,4.76-4.47,11.8,11.8,0,0,1,3.83-.58,12,12,0,0,1,3.76.56,8.06,8.06,0,0,1,2.91,1.68,7.42,7.42,0,0,1,1.87,2.75A10,10,0,0,1,200.31,97ZM195,97a3.7,3.7,0,0,0-4-4,3.67,3.67,0,0,0-2.84,1.06,4.15,4.15,0,0,0-1,3,4.45,4.45,0,0,0,1,3.06,3.67,3.67,0,0,0,2.87,1.08,3.91,3.91,0,0,0,2.93-1.06A4.23,4.23,0,0,0,195,97Z"/><path class="cls-2" d="M215,103.26c-.21.46-.41.87-.6,1.2a2.87,2.87,0,0,1-.63.82,2.2,2.2,0,0,1-.82.45,4.15,4.15,0,0,1-1.15.14,3.05,3.05,0,0,1-1.85-.51,4.21,4.21,0,0,1-1.26-1.91l-6.29-15.18h5.52l3,8.1c.22.57.41,1.11.58,1.63a12.38,12.38,0,0,1,.39,1.32c.13-.36.3-.81.52-1.34L213,96.4l3.17-8.13h5.47Z"/><path class="cls-2" d="M240.14,93.11a4.51,4.51,0,0,1-.71,2.48,6,6,0,0,1-2,1.9,11.41,11.41,0,0,1-3.12,1.22,17.53,17.53,0,0,1-4.08.44l-.48,0a6.13,6.13,0,0,0-.64,0,3.66,3.66,0,0,0,1.19,2.38,3.84,3.84,0,0,0,2.59.86,11.82,11.82,0,0,0,5.89-1.8v4.2a11.87,11.87,0,0,1-2.9,1.26,12.23,12.23,0,0,1-3.14.38,10.37,10.37,0,0,1-3.62-.6,7.39,7.39,0,0,1-2.74-1.74,7.89,7.89,0,0,1-1.72-2.72,10.29,10.29,0,0,1-.6-3.58,11,11,0,0,1,.71-4,9.16,9.16,0,0,1,1.95-3.14,8.67,8.67,0,0,1,3-2,10.19,10.19,0,0,1,3.88-.72,7.29,7.29,0,0,1,4.74,1.44A4.68,4.68,0,0,1,240.14,93.11Zm-5.32.4a1.39,1.39,0,0,0-.54-1.1,2.08,2.08,0,0,0-1.39-.46,3.17,3.17,0,0,0-2.28.94,4.48,4.48,0,0,0-1.23,2.58,3.79,3.79,0,0,0,.64.08h.59Q234.83,95.55,234.82,93.51Z"/><path class="cls-2" d="M256.54,93.19a8.5,8.5,0,0,0-.87-.16,5.44,5.44,0,0,0-.73,0,4.09,4.09,0,0,0-3.46,1.56,7.7,7.7,0,0,0-1.18,4.65v6.67H245V94.31c0-.65,0-1.22,0-1.7a11.25,11.25,0,0,0-.1-1.35,12.13,12.13,0,0,0-.21-1.23c-.1-.41-.22-.87-.38-1.39h5c.09.32.16.6.23.84a4.6,4.6,0,0,1,.15.65c0,.21.05.43.08.66a6.74,6.74,0,0,1,0,.84,8.78,8.78,0,0,1,2.28-2.6,4.32,4.32,0,0,1,2.53-.76,3.56,3.56,0,0,1,.94.1,8.86,8.86,0,0,1,1.06.39Z"/><path class="cls-2" d="M294.7,103.91a3,3,0,0,1-1.06,1.51,3.18,3.18,0,0,1-1.82.45,3,3,0,0,1-1.84-.49,3.51,3.51,0,0,1-1-1.63l-3.4-10.37L282,104a2.56,2.56,0,0,1-1,1.46,3.47,3.47,0,0,1-1.9.45,5.73,5.73,0,0,1-.84-.06,2.15,2.15,0,0,1-.76-.26,2,2,0,0,1-.68-.62,4.25,4.25,0,0,1-.56-1.13l-5.6-15.53H276l2.32,7.1c.08.26.17.57.27.92s.19.69.29,1,.23.81.36,1.25c.06-.31.14-.64.24-1l.26-.91c.1-.33.18-.64.26-.92l2.24-7.49h6.48l2.4,7.84c.06.24.13.49.22.76s.18.54.26.8a4.59,4.59,0,0,1,.24.9l.25-.82c.13-.52.27-1,.43-1.48l2.36-8h5.6Z"/><path class="cls-2" d="M316.5,105.87a6,6,0,0,0,0-.68,7.58,7.58,0,0,1-.06-.76c0-.3,0-.6-.07-.92a6.31,6.31,0,0,1-2.6,2.06,8.56,8.56,0,0,1-3.41.7,6.33,6.33,0,0,1-5.11-2.16A9.28,9.28,0,0,1,303.38,98q0-4.85,2.94-7.46c2-1.75,4.76-2.62,8.38-2.62.59,0,1.13,0,1.62,0a14.42,14.42,0,0,1,1.46.14c.49.06,1,.15,1.5.26a17.21,17.21,0,0,1,1.7.44v11.36c0,.61,0,1.26,0,1.94s.07,1.3.12,1.86.11,1.32.16,2Zm-.84-13a7.1,7.1,0,0,0-1.26-.2c-.38,0-.73,0-1.06,0A4.24,4.24,0,0,0,309.93,94,5.81,5.81,0,0,0,308.7,98a3.91,3.91,0,0,0,.74,2.56,2.57,2.57,0,0,0,2.07.88,3.68,3.68,0,0,0,1.61-.36,4,4,0,0,0,1.32-1,5,5,0,0,0,.9-1.56,5.87,5.87,0,0,0,.32-2Z"/><path class="cls-2" d="M327.78,105.87V92.07h-3.52v-3.8h3.52V83.83H333v4.44h4.52v3.8H333v13.8Z"/><path class="cls-2" d="M354.82,93.11a4.51,4.51,0,0,1-.71,2.48,6,6,0,0,1-2,1.9A11.41,11.41,0,0,1,349,98.71a17.53,17.53,0,0,1-4.08.44l-.48,0a6.33,6.33,0,0,0-.65,0,3.72,3.72,0,0,0,1.2,2.38,3.84,3.84,0,0,0,2.59.86,11.82,11.82,0,0,0,5.89-1.8v4.2a11.87,11.87,0,0,1-2.9,1.26,12.23,12.23,0,0,1-3.14.38,10.37,10.37,0,0,1-3.62-.6,7.39,7.39,0,0,1-2.74-1.74,7.89,7.89,0,0,1-1.72-2.72,10.07,10.07,0,0,1-.6-3.58,11.23,11.23,0,0,1,.7-4,9.34,9.34,0,0,1,2-3.14,8.67,8.67,0,0,1,3-2,10.19,10.19,0,0,1,3.88-.72A7.29,7.29,0,0,1,353,89.27,4.68,4.68,0,0,1,354.82,93.11Zm-5.32.4a1.37,1.37,0,0,0-.55-1.1,2,2,0,0,0-1.38-.46,3.17,3.17,0,0,0-2.28.94,4.48,4.48,0,0,0-1.23,2.58,3.79,3.79,0,0,0,.64.08h.59Q349.51,95.55,349.5,93.51Z"/><path class="cls-2" d="M371.22,93.19a8.14,8.14,0,0,0-.88-.16,5.2,5.2,0,0,0-.72,0,4.07,4.07,0,0,0-3.46,1.56A7.7,7.7,0,0,0,365,99.2v6.67h-5.32V94.31c0-.65,0-1.22,0-1.7a11.25,11.25,0,0,0-.1-1.35,9.88,9.88,0,0,0-.22-1.23c-.09-.41-.22-.87-.38-1.39H364c.09.32.16.6.23.84a3.46,3.46,0,0,1,.14.65q0,.32.09.66c0,.23,0,.51,0,.84a8.92,8.92,0,0,1,2.27-2.6,4.35,4.35,0,0,1,2.54-.76,3.56,3.56,0,0,1,.94.1,8.86,8.86,0,0,1,1.06.39Z"/><path class="cls-2" d="M376.9,103.4a2.14,2.14,0,0,1-.91,1.76,3.5,3.5,0,0,1-2.21.71,3.43,3.43,0,0,1-2.22-.76,2.3,2.3,0,0,1-.07-3.66,3.21,3.21,0,0,1,2.13-.74,3.5,3.5,0,0,1,2.33.79A2.38,2.38,0,0,1,376.9,103.4Z"/></svg>