<?xml version="1.0" encoding="utf-8"?>
<!-- Generator: Adobe Illustrator 25.2.3, SVG Export Plug-In . SVG Version: 6.00 Build 0)  -->
<svg version="1.1" id="Layer_1" xmlns="http://www.w3.org/2000/svg" xmlns:xlink="http://www.w3.org/1999/xlink" x="0px" y="0px"
	 viewBox="0 0 600 570" style="enable-background:new 0 0 600 570;" xml:space="preserve">
<style type="text/css">
	.st0{fill:#EFEFEF;}
	.st1{clip-path:url(#SVGID_2_);}
	.st2{fill:#1E9AAF;}
	.st3{fill:#255D63;}
	.st4{fill:#198AA5;}
	.st5{fill:#307F95;}
	.st6{opacity:0.5;fill:none;stroke:#144747;stroke-width:0.75;stroke-miterlimit:10;enable-background:new    ;}
	.st7{fill:#1E5B6E;}
	.st8{fill:#898E90;}
	.st9{fill:#464949;}
	.st10{opacity:0.3;enable-background:new    ;}
	.st11{fill:#D12664;stroke:#951A46;stroke-width:0.75;stroke-miterlimit:10;}
	.st12{fill:#D73B81;}
	.st13{fill:#EC72AB;}
	.st14{fill:#C62567;}
	.st15{fill:#B11E57;}
	.st16{fill:#CC1B6C;}
	.st17{fill:#B11F5A;}
	.st18{fill:#D62970;}
	.st19{fill:#D12664;}
	.st20{fill:#A41E58;}
	.st21{opacity:0.2;fill:#151617;enable-background:new    ;}
	.st22{fill:#A7A8AC;}
	.st23{fill:#8C8E91;}
	.st24{fill:#C9CACF;stroke:#9C9B9F;stroke-width:0.25;stroke-miterlimit:10;}
	.st25{fill:#DEDEDD;stroke:#9C9B9F;stroke-width:0.25;stroke-miterlimit:10;}
	.st26{fill:#C3C3C3;}
	.st27{fill:#DEDEDD;}
	.st28{fill:#DA9E51;stroke:#905B24;stroke-width:0.25;stroke-miterlimit:10;}
	.st29{fill:#BB8844;}
	.st30{fill:#E7A855;}
	.st31{opacity:0.5;fill:#3970B7;enable-background:new    ;}
	.st32{fill:#72C9F1;}
	.st33{opacity:0.31;fill:#50B1E4;enable-background:new    ;}
	.st34{fill:#50B1E4;}
	.st35{opacity:0.28;fill:#50B1E4;enable-background:new    ;}
	.st36{opacity:0.5;}
	.st37{opacity:0.63;fill:#3970B7;enable-background:new    ;}
	.st38{fill:#3970B7;}
	.st39{opacity:0.5;fill:#D6EFFB;enable-background:new    ;}
	.st40{fill:#5A5F5F;}
	.st41{fill:#BBBAB9;}
	.st42{fill:#BBBAB9;stroke:#8B8B8A;stroke-width:0.5;stroke-miterlimit:10;}
	.st43{opacity:0.4;}
	.st44{fill:#FFFFFF;}
	.st45{fill:#A29DA0;}
	.st46{fill:#BBBAB9;stroke:#9C9B9F;stroke-width:0.5;stroke-miterlimit:10;}
	.st47{opacity:0.6;}
	.st48{opacity:0.6;fill:#BBBAB9;enable-background:new    ;}
	.st49{opacity:0.6;fill:#AAA9A8;enable-background:new    ;}
	.st50{fill:#C0BDBC;stroke:#9C9B9F;stroke-width:0.5;stroke-miterlimit:10;}
	.st51{opacity:0.4;fill:#FFFFFF;enable-background:new    ;}
	.st52{fill:#A1A1A1;stroke:#7B7A7A;stroke-width:0.5;stroke-miterlimit:10;}
	.st53{opacity:0.57;}
	.st54{fill:#515251;}
	.st55{fill:#114956;}
	.st56{fill:#165568;}
	.st57{fill:none;stroke:#206363;stroke-width:8;stroke-miterlimit:10;}
</style>
<path class="st0" d="M467,548.5H117c-53.6,0-97-43.4-97-97v-333c0.1-53.6,43.6-96.9,97.1-96.9c2.9,0,5.8,0.1,8.7,0.4l366.1,33.5
	c51.9,4.8,90.8,49.7,88,101.7l-16,299.5C561.1,508.1,518.6,548.4,467,548.5z"/>
<g>
	<defs>
		<path id="SVGID_1_" d="M467,548.5H117c-53.6,0-97-43.4-97-97v-333c0.1-53.6,43.6-96.9,97.1-96.9c2.9,0,5.8,0.1,8.7,0.4l366.1,33.5
			c51.9,4.8,90.8,49.7,88,101.7l-16,299.5C561.1,508.1,518.6,548.4,467,548.5z"/>
	</defs>
	<clipPath id="SVGID_2_">
		<use xlink:href="#SVGID_1_"  style="overflow:visible;"/>
	</clipPath>
	<g class="st1">
		<path class="st2" d="M-1.4,322.2h421.8l10.4-455.6c0,0-321.1-48-337.9-46.4s-112.6,44.1-114.1,39.6S-1.4,322.2-1.4,322.2z"/>
		<rect x="1.1" y="279.7" class="st3" width="388.7" height="27.5"/>
		<path class="st4" d="M400-133.4l-10.7,434.6c0,0,64.5,344.4,71,344.4s383.8,6.5,383.8,6.5l32.1-821.3c0,0-395.2,13.8-400.1,9.9
			S400-133.4,400-133.4z"/>
		<path class="st5" d="M2.8,307.7h288.6l102.6,1.6l114.2,342.9c0,0-533.6-6.2-534.9-2.2s-106.5-73-101.6-81.5S-82,430.1-83.7,416.7
			S2.8,307.7,2.8,307.7z"/>
		<line class="st6" x1="447.3" y1="425.5" x2="-1.4" y2="426.2"/>
		<line class="st6" x1="0.1" y1="535.4" x2="477" y2="525.7"/>
		<polyline class="st6" points="147.1,310 158.7,642.2 153.9,532.5 324.4,530.5 336.1,633.5 303.8,304.8 		"/>
		<polygon class="st7" points="1.1,428.2 149.4,426.2 153.9,532.5 0.7,537.4 		"/>
		<polygon class="st7" points="153.9,532.5 327,529 346.1,652.2 158.7,644.3 		"/>
		<polygon class="st7" points="303.8,304.8 315.4,422 315.4,428.2 423.6,432.3 390.1,300.5 		"/>
		<ellipse class="st8" cx="434" cy="134.4" rx="10.8" ry="38.8"/>
		<ellipse class="st9" cx="428" cy="134.4" rx="10.8" ry="38.8"/>
		<ellipse class="st10" cx="246.4" cy="529.3" rx="114.4" ry="15.1"/>
		<path class="st11" d="M133.8,332.3l29.5,183.8c0,9.8,39.7,21.8,88.7,21.8s88.7-12,88.7-21.8l29.5-183.8H133.8z"/>
		<path class="st12" d="M156.6,338.5c-0.3-2-0.2-4.1,0.1-6.1h-22.9l29.5,183.8c0,4.3,7.6,9,20.2,12.9
			C172.5,465.8,164.5,402.1,156.6,338.5z"/>
		<path class="st13" d="M157.6,437.4c-3.9-24.1-8.6-48.1-11.9-72.3c-1.5-10.9-2.5-21.8-3.3-32.8h-8.5l29.5,183.8
			c0,2.6,2.9,5.4,8,8.1C166.3,495.3,162.2,466.3,157.6,437.4z"/>
		<path class="st14" d="M304.6,332.3c3.8,34.7,3,69.2-0.1,104.5c-2.9,33.1-7.5,66.1-14.6,98.6c30-4,50.7-12.2,50.7-19.3l29.5-183.8
			H304.6z"/>
		<path class="st15" d="M135.6,343.8c31.5,8.3,139.1,31.9,233.1-2.1l1.5-9.3H133.8L135.6,343.8z"/>
		<path class="st15" d="M317.7,529.8c5.7-1.5,11.3-3.7,16.5-6.5c3-20.6,5.2-41.4,7.7-62.2c5-42.5,14.1-85.8,12.5-128.8h-25.6
			c4,35.5,5.7,70.9,2.2,107.2C328,469.8,323,499.8,317.7,529.8z"/>
		<path class="st16" d="M377.5,329c0,13.9-56.2,25.2-125.5,25.2S126.5,342.9,126.5,329c-7-22.5,56.2-25.2,125.5-25.2
			S384.5,307,377.5,329z"/>
		<ellipse class="st17" cx="252" cy="323.8" rx="125.5" ry="25.2"/>
		<ellipse class="st18" cx="252" cy="323.8" rx="116.8" ry="21.2"/>
		<path class="st19" d="M303.8,304.8c0.5,12.8-0.5,25.7-3.1,38.3c40.2-3.4,68.1-10.7,68.1-19.3C368.9,315.5,342.4,308.2,303.8,304.8
			z"/>
		<path class="st12" d="M324.4,307.1c1.3,11.1,1.3,22.2,0,33.3c27.1-3.9,44.4-9.9,44.4-16.6S351.5,311,324.4,307.1z"/>
		<path class="st15" d="M201.4,304.6c-39.2,3.4-66.3,10.7-66.3,19.1c0,8.7,28.8,16.2,69.9,19.4C203.4,330.4,202.2,317.5,201.4,304.6
			z"/>
		<path class="st20" d="M163.3,310c-17.5,3.7-28.1,8.5-28.1,13.8s10.8,10.2,28.6,13.9C162.4,328.5,162.2,319.2,163.3,310z"/>
		<path class="st21" d="M345.4,486.6c-18.3,8.4-39.2,8.3-52,7.2c-8.9-0.8-16.9-5.6-21.7-13.1l-69.2-105.9c-1.4-2.1-0.8-4.9,1.3-6.2
			c0,0,0.1,0,0.1-0.1l1-6.3c-4.6,0.5-8.2,5.1-8.8,7.9c-0.6,2.7-0.1,5.6,1.4,8l69.1,105.9c5.4,8.4,14.2,14.1,24.1,15.5
			c0.7,0.1,1.4,0.2,2,0.2c12.6,1.1,32.9,1.2,51.5-6.2L345.4,486.6z"/>
		<path class="st22" d="M212.8,352.9c-1.5-0.1-3.7-0.5-3.7-0.5l-2.2-0.9c-0.1,0.9-0.4,2.3-0.4,2.7c-0.2,1.9-0.5,3.8-0.9,5.7
			c-0.5,3.5-1.4,7-2.7,10.4c-0.7,1.6-1.5,3-2.5,4.4c4.4,2.6,11,0.1,11.9-6.8C212.9,363,213.1,357.9,212.8,352.9z"/>
		<path class="st23" d="M201.6,372.9c-0.4,0.6-0.8,1.3-1.2,1.8c4.2,2.5,10.5,0.3,11.8-6.1C209.1,370.8,205.4,372.3,201.6,372.9z"/>
		<path class="st24" d="M191.2,345.8c0,0,0.5,17.6,3.3,25.3s13.9,6.4,15.2-2.8s0-20.8,0-20.8l3.3-3.7l-16.8-1.4L191.2,345.8z"/>
		<path class="st25" d="M381.2,415.4c-5.9-9.9-12.5-21.3-19-33l-1.5,9.3c5.4,9.5,10.6,18.6,15.5,26.7c6.1,10.1,5.5,23-1.4,32.1
			c-17.2,22.7-48.6,27.8-65.7,28.8c-8.9,0.5-17.5-3.1-23.4-9.8l-83.9-94.6c-1.6-1.9-1.5-4.7,0.4-6.3c0,0,0.1-0.1,0.1-0.1l0.1-6.4
			c-4.5,1.2-7.3,6.3-7.6,9.1c-0.2,2.8,0.7,5.6,2.6,7.7l83.9,94.6c6.6,7.5,16.1,11.8,26.1,11.8c0.7,0,1.4,0,2-0.1
			c18.2-1,51.4-6.5,70.1-31.1C387.8,443.1,388.5,427.6,381.2,415.4z"/>
		<path class="st26" d="M377.3,446.4c6-9.3,6.2-21.3,0.5-30.8c-4.9-8.1-10.1-17.3-15.5-26.7l0.8-4.9c-0.3-0.5-0.6-1.1-0.9-1.6
			l-1.5,9.3c5.4,9.5,10.6,18.6,15.5,26.7C381.3,427,381.7,437.5,377.3,446.4z"/>
		<path class="st26" d="M381.1,451.3c-18.6,24.6-51.9,30-70.1,31.1c-0.7,0-1.4,0.1-2,0.1c-10,0-19.5-4.3-26.1-11.8L199,376
			c-1.9-2.1-2.8-4.9-2.6-7.7c0.1-0.9,0.3-1.7,0.7-2.5c-1.2,1.5-2,3.4-2.3,5.3c-0.2,2.8,0.7,5.6,2.6,7.7l83.9,94.6
			c6.6,7.5,16.1,11.8,26.1,11.8c0.7,0,1.4,0,2-0.1c18.2-1,51.4-6.5,70.1-31.1c1.1-1.5,2.1-3,2.9-4.6
			C382,450,381.5,450.6,381.1,451.3z"/>
		<path class="st27" d="M205.3,365.3c0,1.9-1.1,3.4-2.4,3.4s-2.4-1.5-2.4-3.4s1.1-3.3,2.4-3.3S205.3,363.5,205.3,365.3z"/>
		<path class="st28" d="M379,444.3c-7.7-4.1-11.6,8.1-17.3,7.9c-8.1-0.3-15.1-0.1-25.1,10.5c-4.5,3.7-8.3,1.8-13,2.9
			c-4,0.9-8.5,4.1-8.3,10.7c0.1,0.8,0.3,1.6,0.5,2.3c0.2-0.1,0.3,0,0.5,0c1.6,0,2.8,1.3,2.8,2.8c0,0.1,0,0.2,0,0.3
			c0.2,1.2-0.5,2.3-1.6,2.7c2.3,3.3,6.2,4.3,11.5,4.1c8.3-0.3,9.5-7,16.2-5.1s22.2-5.2,25-12.2c2.4-3.2,7.2-5.4,10-6.7
			C386.2,461.7,391,450.7,379,444.3z"/>
		<path class="st29" d="M378.6,462.3c-2.4,1.2-4.9,1.4-7.5,2.4s-4.2,3.3-5.9,5.4c-5,6.2-11.7,8.9-19.6,9.5c-2.1,0.1-3.7-0.4-5.7,0.4
			c-4.6,2-8.3,5.9-13.7,5.8c-2.7-0.1-5.2-1-7.3-2.6c-0.2,0.6-0.8,1.1-1.4,1.3c2.3,3.3,6.2,4.3,11.5,4.1c8.3-0.3,9.5-7,16.2-5.1
			s22.2-5.2,25-12.2c2.4-3.2,7.2-5.4,10-6.7c3.6-1.9,5.9-5.4,6.2-9.4c-0.1,1.8-4.8,5.3-6.3,6.3C379.6,461.8,379.1,462.1,378.6,462.3
			z"/>
		<path class="st30" d="M349.1,462.1c5.4-3.1,11.8-3.6,17.6-5.5c2.5-0.8,5.4-1.9,7.3-3.8c1-1.1,2.7-5.2-0.3-4.4
			c-0.6,0.2-1.1,0.5-1.5,0.9c-3.8,3.1-8.4,5-13.3,5.4c-4.1,0.5-8.5,1-11.9,3.4c-2.6,1.8-4.3,4.6-6.7,6.6c-3.2,2.6-7.4,3.8-11.4,4.8
			c-2,0.5-4.2,1.2-5.5,2.9c-0.5,0.6-0.8,1.6-0.1,2.1c0.5,0.3,1.1,0.3,1.6,0c6.1-1.9,12.3-3.8,17.5-7.4
			C344.6,465.4,346.7,463.5,349.1,462.1z"/>
		<path class="st31" d="M253,319.2c-57.3,0-103.6,5.8-103.6,12.9S195.8,345,253,345s103.6-5.8,103.6-12.9S310.3,319.2,253,319.2z"/>
		<path class="st32" d="M253,343.9c-56.3,0-102-5.4-102-12.1s45.7-12.1,102-12.1s102,5.4,102,12.1S309.4,343.9,253,343.9z"/>
		<path class="st33" d="M255.4,320.2c11.8,0.1,23.5,1,35.1,2.5c1.4,0.2,0.6,0.9-0.8,0.9c-9.8-0.1-19.6-0.8-29.4-0.6
			c5.5,0.7,10.3,1.8,15.3,2.9c1.1,0.3,0.8,0.9-0.8,0.9c-3.1,0-6.1-0.2-9.1-0.4c-0.1,0.2-0.8,0.5-1.8,0.4c-5.5-0.3-10.9-0.6-16.3-0.6
			c4.6,0.4,8.7,1.1,9.8,2.5c1.4,1.8-1.3,2.6-5.1,3.1c6-0.2,11.7-0.7,15.5-2.4c0.9-0.3,1.9-0.3,2.7,0.1c2,1.7-0.1,3.1-3.6,4.2
			c7-0.7,14.1-2.1,13.4-4.5c-0.1-0.5,2-0.6,2.7-0.2c4.4,2.2,1.9,4.3-3.1,5.7c1.6-0.1,3.1-0.3,4.7-0.5c2.4-0.3,6.5-0.8,7.6-1.6
			c2.1-1.4-2.1-3.3-3.9-4.6c-0.4-0.3,0.3-0.9,1.7-0.7c5.9,0.7,19.8,1.5,19.9,4.2c0,0.9-1,1.6-2.7,2.3c2.5-0.3,4.9-0.6,7.3-0.9
			c2.8-0.4,8-1,8.7-2.1c1.2-1.7-6.6-3.1-10.3-3.8c-1.5-0.3-0.5-0.9,1.1-0.9c14.9,0.8,28.6,5.5,15.5,9.9c-6.1,2-14.1,3.1-22.5,3.9
			c22.6-1,48.5-3.3,42.3-10.8c-0.3-0.3,0.5-0.5,1.3-0.6c-11.1-4.6-44.3-8-84.9-8.6C262.5,319.9,259,320,255.4,320.2z"/>
		<path class="st34" d="M220.1,339.2c-1.3-0.3,0.1-0.9,1.4-0.8c6.1,0.3,12.3,0.6,18.6,0.8c-6.9-0.4-13.8-1.4-20.6-3
			c-1.4-0.3-0.6-1,1.1-0.9c9.2,0.5,18.5,0.8,27.8,0.8c-7-0.1-14.1-0.8-21-2c-1.4-0.3-0.5-1,1.1-0.9c7,0.6,14,0.7,20.9,0.2
			c-8.9-0.1-19.1-0.5-21.9-3.2c-0.4-0.4,0.8-0.6,1.8-0.6c1.5,0.1,3,0.2,4.4,0.2c-4.5-0.5-7.3-1.3-5.4-2.9c-4,0.8-5.7,2.2-4.1,3.7
			c0.6,0.5-1.8,0.8-2.7,0.4c-3.5-1.6-4.2-2.9-2.4-3.9c-4.6,0.9-8.4,2-4.9,3.2c1.1,0.4-0.4,1.1-1.8,0.7l-0.3-0.1h-0.1
			c-4.9-1.2-6.4-2.9-3.8-4.3c-4.8,0.5-9.7,1.4-10.9,2.9c-1.7,2.2,3.4,3.6,8.7,4.7c1.2,0.2,0.8,0.9-0.8,0.9
			c-5.9-0.2-12.8-1.3-15.6-3.1c-1.9-1.1-1.8-2.1-0.7-3c-4.8,1.6-9,3.7-6.9,5.3c1.4,0.5,3,1,4.6,1.5c1.3,0.4-0.4,1-1.8,0.7
			c-1.9-0.2-3.8-0.8-5.5-1.8c-3.8-1.5-6.7-3.3-3.8-5s7.7-2.7,12.6-3.8c-14.7,1.3-34.8,6.8-17.6,10.2c1.6,0.3,0.2,1.1-1.5,0.8
			c-6.6-1.1-15-3-16.4-5.5c-0.3-0.5-0.4-1.2-0.3-1.8c-1,0.7-1.6,1.4-1.6,2.1c0,6.7,45.7,12.1,102,12.1c7.8,0,15.3-0.1,22.6-0.3
			C257.3,343.8,234.6,343,220.1,339.2z"/>
		<path class="st35" d="M207.7,321.5c1.8-0.1,2.7,0.8,0.8,0.9c-8.9,0.7-17.8,2-26.6,3.8c14.7-2.1,31.1-3.1,46.8-3.9
			c1.9-0.1,2.7,0.8,0.8,0.9c-10.6,0.5-21.1,2.2-31.3,4.9c3.5-0.6,7.3-1.2,11.1-1.7c3.4-0.8,6.8-1.2,10.3-1.4
			c1.5-0.1,2.8,0.6,1.1,0.9c-2.7,0.4-5.6,0.7-8.4,1.1c-3.6,0.7-6.1,1.6-1.1,2.5c1.1,0.2,2.2,0.3,3.3,0.5c-2.6-2.5,10.6-4.9,18.6-4.3
			c1.6,0.1,1.2,0.8,0,0.9c-4.7,0.6,6.3,2.2,7.4,2.3c2.5,0.3,5,0.3,7.6,0.1c-2.7-0.3-5.4-0.3-8.3-0.4c-1.5,0-2-0.6-0.8-0.9
			c7.1-1.6,24.4,0.6,23.5,3c4.1-0.7,7.8-1.8,2.9-3.1c-1-0.3-0.2-0.8,1-0.8c13.9,0,18.6,4.2,11.3,7.1c5.5-0.4,11.4-0.8,15.8-1.8
			c11.3-2.7-10.3-5-16.6-5.5c-1.7-0.1-1.2-0.9,0.4-0.9c8-0.3,36.8,1.3,39.7,4.8c5.6-3.7-22.9-5.1-31.3-5.7c-1.4-0.1-1.4-0.8,0-0.9
			c14.7-0.7,29.4,0.1,43.9,2.7c-7.1-1.4-15.8-2.1-23.5-3c-10.3-1.1-20.8-2-31.5-2.3c-4.6,0-9.3-0.1-13.9,0c-1.9,0-1.9-0.9,0-0.9
			c4.5-0.1,9-0.1,13.4,0c6.1,0,12.3,0.1,18.5,0.2c-12.1-0.6-25.4-0.9-39.4-0.9c-29.9,0-56.8,1.5-75.4,4
			C187.6,322.6,198.1,322,207.7,321.5z"/>
		<g class="st36">
			<path class="st37" d="M251.8,329.2c-3.5,0-7.1,0.3-10.7,0.3c-2,0-4-0.1-6-0.2c-1.5-0.1-9-0.6-6-1.7c0.2-0.1,0-0.2-0.3-0.1
				c-4.6,1.1,0.8,2.3,4.2,2.7c5.5,0.7,14.4,0.9,19.1-0.4C252.8,329.5,252.6,329.2,251.8,329.2z"/>
			<path class="st38" d="M264.5,329c-0.5-1.2-6.2-1.7-9.1-2c-6-0.5-11.9-0.6-17.9-0.5c-0.3,0-0.4,0.2-0.1,0.2c7,0,14,0.5,21,1.5
				c8,1.2,0.8,3-4.7,3.3c-3,0.2-5.9,0.2-8.9,0.4c-0.5,0-0.6,0.4,0,0.4C251.3,332.2,265.7,332.2,264.5,329z"/>
			<path class="st37" d="M260,324.6c-15-0.9-30.7-1-43.3,2.1c-9.5,2.4,0.1,4.5,7.1,5.7c0.4,0.1,0.9-0.1,0.5-0.2
				c-2.8-0.7-5.6-1.3-8.2-2.1c-6.9-2.2,9.1-4.2,12.7-4.7c9.5-1.3,20.9-1.1,31-0.7C260,324.7,260.2,324.6,260,324.6z"/>
			<path class="st37" d="M246.4,334.9c-7.9-0.2-15.9-0.3-23.7-0.8c-7.4-0.5-29.3-3.2-18.4-6.8c0.1,0,0-0.1-0.2-0.1
				c-6.2,1.7-2.8,4.1,2.7,5.5c10.3,2.7,26.7,2.7,39.3,2.5C246.6,335.2,246.9,334.9,246.4,334.9z"/>
			<path class="st37" d="M251.1,321.3c-16.2,0.3-32.3,0.7-48,2c-13.2,1.1-29,2.9-37.7,6.4c-6.5,2.6,1.3,5.7,7.8,7.4
				c9.9,2.5,24.3,2.9,36.4,3.1c0.6,0,0.9-0.3,0.3-0.4c-8.6-0.5-17.1-0.8-25.4-1.7c-5.1-0.5-10.2-1.5-15.1-3.1
				c-8.7-3-2.1-5.6,6.2-7.4c21.4-4.6,50.4-5.4,75.4-6.1C251.3,321.5,251.4,321.3,251.1,321.3z"/>
			<path class="st37" d="M270.7,324.4C270.6,324.4,270.6,324.4,270.7,324.4c11,0.5,21,1.4,31.1,2.9c4.1,0.5,8.3,1.3,12.3,2.4
				c6.1,1.8-3.9,3.4-8.2,4.1c-21.2,3.3-45.1,2.9-68.1,3.2c-0.8,0-1.2,0.5-0.2,0.5c15.7,0.2,31.2,0.2,46.7-0.7
				c9.7-0.6,23.4-1.7,30.8-4C331.4,327.9,277.4,324.7,270.7,324.4z"/>
			<path class="st38" d="M273.4,326.7c-0.1,0-0.3,0-0.1,0.1c5.5,1.1,20.4,2.3,14.9,5.3c-3.3,1.8-13,2.3-18.7,2.8
				c-0.6,0.1-0.8,0.5,0,0.4c6.9-0.3,18-0.9,21.1-3.2C294.9,328.6,279.9,327.9,273.4,326.7z"/>
			<path class="st37" d="M325.2,325.4c-13.7-2-29.1-2-43.7-3c-0.2,0-0.3,0.1-0.1,0.1c10.4,0.9,21.1,1.3,31.4,2.3
				c9.2,0.9,30.6,3.3,30.5,7.2c-0.1,4.3-22.4,6.1-32.4,7.1c-10.4,1-21,1.7-31.6,2.6c-0.5,0-0.5,0.3,0.1,0.3
				c15.7-1.1,31.7-2.1,46.7-4c7.5-0.9,18.6-3.1,19.4-6C346.5,328.5,333.6,326.7,325.2,325.4z"/>
		</g>
		<path class="st39" d="M234.3,322.9c-8.1-0.2-16.3,0.1-24.4,1c-13.7,0.9-28.4,2.3-37,5.8c-8.8,3.6,2.7,6.5,13.1,7.5
			c0.8,0.1,1.1-0.3,0.5-0.4c-4.5-1-10.3-2.4-10.7-4.3c-0.3-1.4,4.1-2.6,7-3.4c3.7-1,7.5-1.8,11.3-2.4c-8.3,2.6-4.3,6.6,8.1,7.4
			c0.8,0,1.4-0.3,0.6-0.4c-16.4-2.4-6.2-6,4.2-7.8c9.1-1.5,18.2-2.4,27.4-2.8C234.7,323,234.7,322.9,234.3,322.9z"/>
		<path class="st39" d="M234.4,333.9c-9-0.7-23.2-0.9-24.5-4.7c-1.1-3.1,11-4.4,18.4-4.8c0.8,0,0.6-0.4-0.2-0.4
			c-8.9,0.3-21.5,1.9-21.8,5.2c-0.3,3.9,19,5,27.9,4.9C234.7,334.1,234.8,334,234.4,333.9z"/>
		<path class="st39" d="M244.4,334.1c-1.9-0.1-3.8,0-5.6-0.1c-0.2,0-0.3,0.1-0.1,0.1c1.8,0.1,3.9,0.2,5.7,0.1
			C244.6,334.2,244.6,334.1,244.4,334.1z"/>
		<path class="st39" d="M250.9,326.1c-0.7,0-0.7,0.3,0,0.3c6.1,0,12.1,0.6,18.1,1.7c2.5,0.5,6.4,1.6,5.9,2.6
			c-1.1,2.4-13.3,2.9-19.2,3.2c-0.3,0-0.2,0.1,0.1,0.1c7.1,0.1,20.8-0.8,22.6-3.5C280.7,326.9,258,326,250.9,326.1z"/>
		<path class="st39" d="M333.9,331.4c-4.6-3.9-21.8-5.7-33.1-6.7c-16.9-1.6-35-1.9-52.5-1.7c-0.5,0-0.4,0.2,0,0.2
			c25.9,0.9,54.8,1.4,75.6,7.1c11.6,3.2-1.1,5.9-10.8,7c-13.3,1.5-28.3,1.2-41.3,2.8c-0.5,0.1-0.4,0.3,0.1,0.3
			c8.8,0.3,18.3-0.5,27-0.9c7.6-0.4,15.7-0.9,22.7-2C329.5,336.5,337.5,334.4,333.9,331.4z"/>
		<path class="st39" d="M268.4,340.1c-0.6,0.1-1.1,0.1-1.7,0.1c-0.2,0-0.2,0.1,0,0.1c0.6,0,1.2-0.1,1.8-0.1
			C268.6,340.1,268.5,340.1,268.4,340.1z"/>
		<path class="st39" d="M257,339.9c-19.5-0.1-37.5-0.6-56.4-2.1c-0.2,0-0.4,0.1-0.1,0.1c16.9,2.7,38.1,2.4,56.5,2.3
			C257.7,340.1,257.7,339.9,257,339.9z"/>
		<path class="st39" d="M192.2,323.1c-15.5,1.5-36.6,3.3-37.6,9.5c0,0.2,0.8,0.2,0.9,0c3.1-5.2,23.4-7.4,36.9-9.4
			C192.8,323.3,192.6,323.1,192.2,323.1z"/>
		<path class="st39" d="M346,328.3c-13.3-5.2-40.6-6.6-60.5-6.9c-0.4,0-0.5,0.2-0.1,0.2c21.8,1.1,41.2,3.1,59.6,7
			C345.8,328.9,346.5,328.5,346,328.3z"/>
		<path class="st39" d="M254.4,341.3c-10.9,0.1-21.9-0.1-32.8-0.1c-0.7,0-0.7,0.3,0,0.4c11,0.4,22,1.1,33.1,0.5
			C256.1,342,255.8,341.3,254.4,341.3z"/>
		<rect x="299" y="80.4" class="st8" width="11" height="37"/>
		<rect x="299" y="80.4" class="st40" width="5" height="37"/>
		<path class="st41" d="M299,85.3v-5h11v4.9C307.3,88,301.8,88.3,299,85.3z"/>
		<rect x="299" y="105.8" class="st41" width="11" height="11.6"/>
		<path class="st42" d="M307.2,79.1c0,3.4,2,3.6,7.6,4.4l19.8,1.8c4.3,0,7.7-2.8,7.7-6.2l0,0c0-3.4-3.5-6.2-7.7-6.2L315,75.2
			C310.2,75.9,307.2,75.7,307.2,79.1z"/>
		<path class="st41" d="M328.5,73.6l6.2-0.7c4.3,0,7.7,2.8,7.7,6.2s-3.5,6.2-7.7,6.2l-5.2-0.5C326.7,81.7,326.3,77.2,328.5,73.6z"/>
		<path class="st41" d="M311.8,75.6c1.2,2.3,1.2,5.1,0.2,7.5c-3.4-0.6-4.8-1.2-4.8-4C307.2,76.5,308.9,76,311.8,75.6z"/>
		<path class="st42" d="M328.2,78.3c-0.2,5.2,3.8,9.6,9,9.9c5.2,0.2,9.6-3.8,9.9-9c0.2-5.2-3.8-9.6-9-9.9c-0.1,0-0.3,0-0.4,0
			C332.5,69.2,328.3,73.3,328.2,78.3z"/>
		<g class="st43">
			<path class="st44" d="M337,71c-2.1,0-4.2,0.8-5.7,2.2c1.6-1.8,3.9-2.8,6.4-2.8c4.5-0.1,8.3,3.5,8.4,8c0,2.2-1,4.4-2.6,5.8
				c1.3-1.4,2-3.3,2-5.2C345.3,74.5,341.5,70.9,337,71z"/>
		</g>
		<path class="st42" d="M301.8,79.1c0,3.4-2,3.6-7.6,4.4l-19.8,1.8c-4.3,0-7.7-2.8-7.7-6.2l0,0c0-3.4,3.5-6.2,7.7-6.2l19.6,2.3
			C298.8,75.9,301.8,75.7,301.8,79.1L301.8,79.1z"/>
		<path class="st41" d="M280.6,73.6l-6.2-0.7c-4.3,0-7.7,2.8-7.7,6.2s3.5,6.2,7.7,6.2l5.2-0.5C282.3,81.7,282.7,77.2,280.6,73.6z"/>
		<path class="st41" d="M297.3,75.6c-1.1,2.3-1.2,5.1-0.2,7.5c3.4-0.6,4.8-1.2,4.8-4C301.8,76.5,300.1,76,297.3,75.6z"/>
		<path class="st42" d="M280.8,78.3c0.2,5.2-3.8,9.6-9,9.9c-5.2,0.2-9.6-3.8-9.9-9c-0.2-5.2,3.8-9.6,9-9.9c0.1,0,0.3,0,0.4,0
			C276.5,69.2,280.7,73.3,280.8,78.3z"/>
		<path class="st42" d="M297.1,79.3c-0.2,4,3,7.5,7,7.6c4,0.2,7.5-3,7.6-7s-3-7.5-7-7.6c-0.1,0-0.2,0-0.3,0
			C300.4,72.2,297.2,75.3,297.1,79.3z"/>
		<g class="st43">
			<path class="st44" d="M304,73.6c-1.7,0-3.3,0.6-4.5,1.7c1.3-1.4,3.1-2.2,5-2.2c3.5,0,6.4,2.8,6.5,6.3c0,1.7-0.7,3.4-2,4.6
				c1-1.1,1.6-2.6,1.6-4.1C310.5,76.4,307.6,73.5,304,73.6z"/>
		</g>
		<g class="st43">
			<path class="st44" d="M270.9,71c-2.1,0-4.2,0.8-5.7,2.2c1.6-1.8,3.9-2.8,6.4-2.8c4.5-0.1,8.3,3.5,8.4,8c0,2.2-1,4.4-2.6,5.8
				c1.3-1.4,2-3.3,2-5.2C279.2,74.5,275.4,70.9,270.9,71z"/>
		</g>
		<path class="st45" d="M287.1,117.4c0,5.8,5.1,10.4,11.4,10.4H311c6.3,0,11.4-4.7,11.4-10.4l0,0c0-5.7-5.1-10.4-11.4-10.4h-12.5
			C292.2,107,287.1,111.6,287.1,117.4z"/>
		<path class="st41" d="M269.3,158.7v13.5h-26.6v-13.5c0-15.4,6.2-24.3,11.3-29.1c10-9.3,22.8-9.4,26.2-9.2H427v26.6H279.9l-1.1-0.1
			c0,0-4.3,0-6.8,2.2S269.3,155.5,269.3,158.7z"/>
		<path class="st46" d="M269.3,158.7v13.5h-26.6v-13.5c0-15.4,6.2-24.3,11.3-29.1c10-9.3,22.8-9.4,26.2-9.2H427v26.6H279.9l-1.1-0.1
			c0,0-4.3,0-6.8,2.2S269.3,155.5,269.3,158.7z"/>
		<g class="st47">
			<path class="st41" d="M305.1,140.6l121.9-0.8v7.2H279.9l-1.1-0.1c0,0-4.3,0-6.8,2.2s-2.8,6.4-2.8,9.6v13.5h-6.5l0.3-18.5
				C263.4,134,305.1,140.6,305.1,140.6z"/>
		</g>
		<rect x="242.7" y="169.5" class="st48" width="26.6" height="2.7"/>
		<rect x="422.8" y="120.4" class="st48" width="4.2" height="26.6"/>
		<path class="st49" d="M280.3,120.4h51.2v26.6h-51.6l-1.1-0.1c-0.5,0-1,0-1.4,0.1v-26.6C278.6,120.3,279.6,120.3,280.3,120.4z"/>
		<path class="st50" d="M296.9,110.7h15.3c10.1,0,18.2,8.1,18.2,18.2v12.1c0,10.1-8.1,18.2-18.2,18.2h-15.3
			c-10.1,0-18.2-8.1-18.2-18.2v-12.1C278.7,118.9,286.8,110.7,296.9,110.7z"/>
		<path class="st51" d="M327.7,130.8c0-8.9-7.6-15.9-16.5-16.9c-2.6-0.3-16.3-1.1-11.7-1.1h13.3c8.8,0,15.9,7.1,15.8,15.9v10.6
			c0,2.6-0.6,5.1-1.8,7.4c0.6-1.7,0.9-3.4,0.9-5.2V130.8z"/>
		<path class="st48" d="M281.1,140.2c0,9,7.8,16.2,17.4,16.2h14.6c3.8,0,7.5-1.2,10.6-3.4c-3.3,3.3-7.8,5.1-12.4,5.1H297
			c-9.4,0-17-7.1-17-15.9v-10.6C280,128.9,281.1,140.2,281.1,140.2z"/>
		<path class="st8" d="M426.8,148.9c1.5,0,2.7-1.2,2.7-2.7c0,0,0,0,0,0v-24.8c0-1.5-1.2-2.7-2.7-2.7c0,0,0,0,0,0l0,0
			c-1.5,0-2.7,1.2-2.7,2.7v0v24.8C424.1,147.7,425.3,148.9,426.8,148.9L426.8,148.9z"/>
		<path class="st41" d="M241.3,173.8c0,1.5,1.2,2.7,2.7,2.7c0,0,0,0,0,0h24.9c1.5,0,2.7-1.2,2.7-2.7c0,0,0,0,0,0l0,0
			c0-1.5-1.2-2.7-2.7-2.7l0,0H244C242.5,171.1,241.3,172.3,241.3,173.8C241.3,173.8,241.3,173.8,241.3,173.8L241.3,173.8z"/>
		<path class="st52" d="M422.4,118.7h-16c-2.2,0-4,1.8-4,4v21c0,2.2,1.8,4,4,4h20.5L422.4,118.7z"/>
		<g class="st53">
			<rect x="411.4" y="118.7" class="st54" width="5.5" height="29"/>
		</g>
		<polygon class="st55" points="390.4,304.1 515.4,662.5 547.3,752.1 554.7,647.6 524.1,651.6 389.9,276.3 		"/>
		<polygon class="st56" points="390.4,301.5 476.3,655 508.2,744.5 515.6,640.1 512.4,630.5 390.9,279.9 		"/>
	</g>
</g>
<path class="st57" d="M467,548.5H117c-53.6,0-97-43.4-97-97v-333c0.1-53.6,43.6-96.9,97.1-96.9c2.9,0,5.8,0.1,8.7,0.4l366.1,33.5
	c51.9,4.8,90.8,49.7,88,101.7l-16,299.5C561.1,508.1,518.6,548.4,467,548.5z"/>
</svg>
