<?xml version="1.0" encoding="utf-8"?>
<!-- Generator: Adobe Illustrator 25.2.3, SVG Export Plug-In . SVG Version: 6.00 Build 0)  -->
<svg version="1.1" id="Layer_1" xmlns="http://www.w3.org/2000/svg" xmlns:xlink="http://www.w3.org/1999/xlink" x="0px" y="0px"
	 viewBox="0 0 600 570" style="enable-background:new 0 0 600 570;" xml:space="preserve">
<style type="text/css">
	.st0{fill:#EFEFEF;}
	.st1{clip-path:url(#SVGID_2_);}
	.st2{fill:url(#SVGID_3_);}
	.st3{fill:url(#SVGID_4_);}
	.st4{opacity:0.43;}
	.st5{fill:none;stroke:#FEFFEB;stroke-width:0.5;stroke-miterlimit:10;}
	.st6{fill:#426E72;}
	.st7{fill:#264547;}
	.st8{fill:#E5D2C1;}
	.st9{fill:#E8D75D;}
	.st10{fill:#DBDAD9;}
	.st11{fill:#C6B663;}
	.st12{opacity:0.15;fill:#EA3B48;enable-background:new    ;}
	.st13{fill:#CFCEDD;}
	.st14{fill:#DBD9ED;}
	.st15{fill:#EEEEFF;}
	.st16{fill:#FFFFFF;stroke:#DBD9ED;stroke-miterlimit:10;}
	.st17{fill:#A5A5A5;stroke:#767582;stroke-miterlimit:10;}
	.st18{fill:#B6B5C9;}
	.st19{fill:#FFD3CA;stroke:#D17D74;stroke-miterlimit:10;}
	.st20{fill:#EFC3BD;stroke:#D17D74;stroke-miterlimit:10;}
	.st21{fill:#D17D74;}
	.st22{fill:#EF8359;stroke:#323232;stroke-miterlimit:10;}
	.st23{fill:#224966;stroke:#323232;stroke-miterlimit:10;}
	.st24{fill:#CC6B4E;}
	.st25{opacity:0.15;enable-background:new    ;}
	.st26{opacity:0.18;fill:#6B1808;enable-background:new    ;}
	.st27{fill:#DB9D8E;}
	.st28{fill:#342517;}
	.st29{fill:#F9D1C6;}
	.st30{fill:#323232;}
	.st31{fill:#342516;}
	.st32{fill:#661E1B;}
	.st33{fill:#D26653;}
	.st34{fill:#FFFFFF;}
	.st35{fill:#F9988F;}
	.st36{fill:#F9F8F7;stroke:#7F430D;stroke-width:0.75;stroke-miterlimit:10;}
	.st37{fill:#FDEFEC;}
	.st38{fill:#C1E3EA;}
	.st39{fill:#D4F6FF;}
	.st40{fill:url(#SVGID_5_);}
	.st41{fill:url(#SVGID_6_);}
	.st42{fill:url(#SVGID_7_);}
	.st43{fill:url(#SVGID_8_);}
	.st44{fill:url(#SVGID_9_);}
	.st45{fill:url(#SVGID_10_);}
	.st46{fill:url(#SVGID_11_);}
	.st47{fill:url(#SVGID_12_);}
	.st48{fill:url(#SVGID_13_);}
	.st49{fill:url(#SVGID_14_);}
	.st50{fill:url(#SVGID_15_);}
	.st51{fill:url(#SVGID_16_);}
	.st52{fill:url(#SVGID_17_);}
	.st53{fill:url(#SVGID_18_);}
	.st54{fill:url(#SVGID_19_);}
	.st55{fill:url(#SVGID_20_);}
	.st56{fill:url(#SVGID_21_);}
	.st57{fill:url(#SVGID_22_);}
	.st58{fill:url(#SVGID_23_);}
	.st59{fill:url(#SVGID_24_);}
	.st60{fill:url(#SVGID_25_);}
	.st61{fill:url(#SVGID_26_);}
	.st62{fill:url(#SVGID_27_);}
	.st63{fill:url(#SVGID_28_);}
	.st64{fill:none;stroke:#206363;stroke-width:8;stroke-miterlimit:10;}
</style>
<path class="st0" d="M463,548.5H113c-53.6,0-97-43.4-97-97v-333c0.1-53.6,43.6-96.9,97.1-96.9c2.9,0,5.8,0.1,8.7,0.4l366.1,33.5
	c51.9,4.8,90.8,49.7,88,101.7l-16,299.5C557.1,508.1,514.6,548.4,463,548.5z"/>
<g>
	<defs>
		<path id="SVGID_1_" d="M463,548.5H113c-53.6,0-97-43.4-97-97v-333c0.1-53.6,43.6-96.9,97.1-96.9c2.9,0,5.8,0.1,8.7,0.4l366.1,33.5
			c51.9,4.8,90.8,49.7,88,101.7l-16,299.5C557.1,508.1,514.6,548.4,463,548.5z"/>
	</defs>
	<clipPath id="SVGID_2_">
		<use xlink:href="#SVGID_1_"  style="overflow:visible;"/>
	</clipPath>
	<g class="st1">
		
			<linearGradient id="SVGID_3_" gradientUnits="userSpaceOnUse" x1="840.8999" y1="1198.77" x2="362.3799" y2="-197.82" gradientTransform="matrix(1 0 0 -1 0 572)">
			<stop  offset="0" style="stop-color:#72EDED"/>
			<stop  offset="0.23" style="stop-color:#6FE9EA"/>
			<stop  offset="0.45" style="stop-color:#67DDE3"/>
			<stop  offset="0.68" style="stop-color:#58C9D6"/>
			<stop  offset="0.9" style="stop-color:#45ADC4"/>
			<stop  offset="0.99" style="stop-color:#3CA1BC"/>
		</linearGradient>
		<path class="st2" d="M-64.3-206.2c1.3,276.9,2.5,553.9,3.8,830.8l1231.1,7.6v-834.7L-64.3-206.2z"/>
		
			<linearGradient id="SVGID_4_" gradientUnits="userSpaceOnUse" x1="1208.0558" y1="843.4012" x2="-129.2161" y2="507.1109" gradientTransform="matrix(1 0 0 -1 0 572)">
			<stop  offset="2.000000e-02" style="stop-color:#72EDED"/>
			<stop  offset="0.26" style="stop-color:#6FE9EC"/>
			<stop  offset="0.5" style="stop-color:#67DDE7"/>
			<stop  offset="0.74" style="stop-color:#59C9E0"/>
			<stop  offset="0.98" style="stop-color:#45ADD6"/>
			<stop  offset="0.99" style="stop-color:#45ADD6"/>
		</linearGradient>
		<polyline class="st3" points="1223.7,-209.4 -68.1,-208.8 -68.1,307.8 1211.8,-208.8 		"/>
		<g class="st4">
			<polyline class="st5" points="-603.6,18.5 -77.5,74.5 1338.7,67.4 			"/>
			<polyline class="st5" points="-604.7,181.8 -63.9,195.7 1273.9,195.7 			"/>
			<polyline class="st5" points="-599.8,341.2 -599.8,361.4 -71.2,321.6 1310.6,320.6 			"/>
			<polyline class="st5" points="-596.3,534.8 -55.5,455 1242.6,455 			"/>
			<polyline class="st5" points="98.9,-206.2 98.9,582.9 -342.2,767.5 			"/>
			<polyline class="st5" points="300.4,-206.2 292.5,589.2 21.2,794.4 			"/>
			<polyline class="st5" points="499.5,-206.2 496.1,592.6 363.2,865 			"/>
		</g>
		<ellipse class="st6" cx="435.6" cy="115.6" rx="23.4" ry="22.9"/>
		<ellipse class="st7" cx="435.6" cy="115.6" rx="16.2" ry="15.8"/>
		<rect x="432.5" y="106.5" class="st8" width="246.3" height="17.1"/>
		<path class="st9" d="M466.8,107.9v127.6c-2,21.3-4,24.9,27.6,24.1s123.8,0.1,123.8,0.1s21.6,11.2,21.2-24.2
			c-0.4-34.7-11.1-118.4-5.1-127.6c1.3-7.9,5.1,0,5.1,0l-3.7-7.9H469.5C469.5,100,466.8,103.9,466.8,107.9z"/>
		<path class="st10" d="M466.8,230.3c0,0-14.1,37.3,25.1,29.2c39.2-0.3,124.4,0.1,124.4,0.1s26.8,10.8,23.1-29.3
			c-9.9,0-42.7,6.3-50.7,4.3s-43.4-3.5-51.1,0.8s-34.1-0.9-37.7-2.6S473.3,239.4,466.8,230.3z"/>
		<path class="st11" d="M534.6,100c0,0-72,23.4-67.9,60.2v-52.4l2.7-7.9L534.6,100z"/>
		<ellipse class="st12" cx="488.1" cy="160.9" rx="11.8" ry="10.7"/>
		<ellipse class="st12" cx="600.7" cy="120.3" rx="12.1" ry="11"/>
		<ellipse class="st12" cx="530.7" cy="185.5" rx="10.4" ry="9.4"/>
		<ellipse class="st12" cx="596.6" cy="170.3" rx="10.4" ry="9.4"/>
		<ellipse class="st12" cx="555.6" cy="150.4" rx="10.4" ry="9.4"/>
		<ellipse class="st12" cx="528.1" cy="120.3" rx="10.4" ry="9.4"/>
		<ellipse class="st12" cx="555.6" cy="213.8" rx="10.4" ry="9.4"/>
		<ellipse class="st12" cx="490.2" cy="213.8" rx="10.4" ry="9.4"/>
		<path class="st13" d="M416.8,647.3h-85.1V478.8c0,0,29,0.9,38.6,0.8c13.2-0.2,46.1-2,46.1-2L416.8,647.3z"/>
		<path class="st14" d="M463.6,373.1H182c0,1.1-0.1,2.1-0.2,3.2c-5.5,82.8,111.8,118.5,256.1,98.3c8.9-1.1,17.6-3.6,25.8-7.3V373.1z
			"/>
		<path class="st14" d="M267.8,373.1h281.7c0,1.1,0.2,2.1,0.2,3.2c5.5,82.8-111.9,118.5-256.2,98.3c-8.9-1.1-17.6-3.6-25.8-7.3
			V373.1z"/>
		<path class="st15" d="M391.9,298.5l16,1.1l-2.4,28.6l-16-1.1c-8.9-0.6-15.5-7.5-14.8-15.4S383,297.9,391.9,298.5z"/>
		<path class="st15" d="M390.6,312.8c-0.7,7.9,6,14.8,14.8,15.4s16.6-5.3,17.2-13.2s-6-14.8-14.8-15.4S391.3,304.9,390.6,312.8z"/>
		<path class="st15" d="M410.3,337.9c4.3,0,8-3,8.2-6.9c0.1-1.8,1.6-95.4,1.7-97.7c1.1-18.6-7.1-34.3-22.5-43.3
			c-14.1-8.2-32.2-9.3-46.3-3c-12.5,5.4-20.8,17.5-21.4,31.1c-0.2,4.1,3.3,7.5,7.8,7.7c4.8,0.1,8.5-2.9,8.7-7
			c0.5-8.8,4.8-15.3,12.4-18.7c8.9-4,20.6-3.2,29.8,2.2c10.5,6.1,15.8,16.8,15,30.1c-0.1,2.4-1.6,95.9-1.7,97.6
			c-0.3,4.1,3.2,7.5,7.8,7.8L410.3,337.9z"/>
		<path class="st16" d="M391.9,298.5l16,1.1l-2.4,28.6l-16-1.1c-8.9-0.6-15.5-7.5-14.8-15.4S383,297.9,391.9,298.5z"/>
		<path class="st14" d="M390.6,312.8c-0.7,7.9,6,14.8,14.8,15.4s16.6-5.3,17.2-13.2s-6-14.8-14.8-15.4S391.3,304.9,390.6,312.8z"/>
		<path class="st17" d="M410.3,337.9c4.3,0,8-3,8.2-6.9c0.1-1.8,1.6-95.4,1.7-97.7c1.1-18.6-7.1-34.3-22.5-43.3
			c-14.1-8.2-32.2-9.3-46.3-3c-12.5,5.4-20.8,17.5-21.4,31.1c-0.2,4.1,3.3,7.5,7.8,7.7c4.8,0.1,8.5-2.9,8.7-7
			c0.5-8.8,4.8-15.3,12.4-18.7c8.9-4,20.6-3.2,29.8,2.2c10.5,6.1,15.8,16.8,15,30.1c-0.1,2.4-1.6,95.9-1.7,97.6
			c-0.3,4.1,3.2,7.5,7.8,7.8L410.3,337.9z"/>
		<ellipse class="st15" cx="365.7" cy="371" rx="184.1" ry="44.2"/>
		<path class="st18" d="M202.3,370c0,18.5,71.8,33.5,160.5,33.5s160.5-15,160.5-33.5s-71.8-33.5-160.5-33.5S202.3,351.5,202.3,370z"
			/>
		<path class="st19" d="M275.2,371.5l-44.9-25.7l17.8-25.7c0,0,39.6,34.8,40.2,35.5L275.2,371.5z"/>
		<path class="st20" d="M271,378.4c0.1,1.9,5,17.2,5.6,17.9s10.4,5.1,8.4-8.2l-0.5-3.3c0,0,20.9,15,29.6,14c4.6-0.5-2-7.1-2-7.1
			s3.7,3.7,3.1-8.5s-14.9-21.6-14.9-21.6S270.3,359.6,271,378.4z"/>
		<path class="st21" d="M315.1,395.5c-0.7-1-1.4-1.8-2.3-2.6c-0.8-0.8-1.7-1.5-2.6-2.3c-1.8-1.4-3.7-2.8-5.5-4.2l-5.6-4.1l-2.8-2
			l-2.8-2.1c1,0.5,2,1.1,3.1,1.6l3,1.8c2,1.2,3.9,2.5,5.8,3.9c1.9,1.4,3.7,2.8,5.5,4.4C312.5,391.6,314,393.4,315.1,395.5z"/>
		<path class="st21" d="M293.9,390.9c-2.7-1.1-5.2-2.5-7.5-4.3c-2.3-1.8-4.4-3.7-6.3-6c2.4,1.6,4.6,3.4,6.9,5.1
			S291.6,389.2,293.9,390.9z"/>
		<path class="st21" d="M315.1,388.6c-0.2-0.5-0.4-1-0.6-1.6c-0.2-0.5-0.5-1-0.7-1.5c-0.2-0.5-0.5-1-0.8-1.4c-0.3-0.5-0.6-0.9-1-1.4
			c-1.3-1.8-2.8-3.4-4.5-4.9c-1.6-1.5-3.3-3-5-4.4c-0.9-0.7-1.8-1.4-2.7-2s-1.8-1.3-2.7-2c2,1,4,2.1,5.8,3.4
			c1.9,1.3,3.6,2.7,5.3,4.3c1.7,1.5,3.2,3.3,4.4,5.2C313.9,384.2,314.8,386.4,315.1,388.6z"/>
		<path class="st22" d="M240,364.9c-13,3.3-21.3-3.8-31.5-14.8c-1.1-26.1,17.8-51.2,19.3-50c19.6,16,30.2,28.9,35.8,33.6
			C261.8,340.3,247.2,358.7,240,364.9z"/>
		<path class="st23" d="M215.6,598.8c-6.7,1.4-40.5,3.6-49.7,2.5c-1.4-19.5-5.9-100.9-9.3-127.9c-1.2-10-9.2-8.6-9.5,0.2
			c-0.2,4.4-5.1,94.7-5.7,127.5c-13.7,2.3-37.5,2.6-50.1,0.4c0,0-7.1-181-4.2-207.4c23.9-1.3,104.2,3.4,129.5,7.8
			C219.4,429.5,216.8,559.1,215.6,598.8z"/>
		<path class="st22" d="M226.9,334.9c-3.9,37.3-8.6,83.3-8.1,125.7c-39.5,13-97.5,19.1-135.7-10.2c0,0-0.1-150.2,43-170.1
			c51.6-7.1,79.3,7.8,103.2,20.8"/>
		<path class="st24" d="M215.1,298.6c0.4-1.1,0.6-2.3,0.5-3.5c-15.5-7.2-44.3-13-63.7-15.6c-0.4,0.7-0.7,1.4-1,2.1
			c-3.5,13.3,8,27.9,25.7,32.5S211.5,311.9,215.1,298.6z"/>
		<path class="st25" d="M267.5,360.2c-25-6.9-60.7-23.5-71.9-29.6c-8.6-4.7-33.9-18.9-65.1-43.4c-21.7,8.5-31.2,42-9.5,64.4
			c9.9,10.1,30.2,27.7,38.5,33.2c3.1-3.7,9.3-9.6,13.3-14.7c18,10,66.9,14.8,97.7,15.8C272.3,385.9,269.9,360.9,267.5,360.2z"/>
		<path class="st19" d="M270.4,385.9c1.9,0.1-0.5-25-2.9-25.7c-25-6.9-45.6-13.2-70.9-23.5c-4.4-1.8-22.6-18.5-25.7-18.3
			c-9.1,7.3-19.2,13.9-30.1,24.7c15.6,14.7,29.8,22.8,36.4,25.5C189.3,373.5,239.6,384.9,270.4,385.9z"/>
		<path class="st19" d="M254.5,356.4l12.1,2.6c0,0,5.9-8.6,13.2-14s9.8-3.8,15.6-8.5s1.6,5.6,1.1,7c0,0,8.9-1.5,12.5-0.3
			s6.5,0.9,10.5,17.6c0,0,5,10-0.3,9.9c-0.1,0.1-0.1,0.3-0.1,0.4c-0.3,2.6,3.9,9.5-4.9,8c2.6,0.2-17.8-7.3-17.8-7.3
			s-6.7,7.9-27.7,15.3l-30-4.4"/>
		<path class="st21" d="M319.1,371.5c-1.1-1.6-2.6-2.9-4.4-3.8c-1.7-1-3.4-1.8-5.2-2.6c-1.8-0.8-3.6-1.5-5.5-2.1l-5.6-2
			c3.9,0.6,7.8,1.6,11.5,3.2c1.9,0.8,3.6,1.7,5.3,2.9C316.9,368.1,318.3,369.6,319.1,371.5z"/>
		<path class="st21" d="M319.2,361.1c-1.1-1.6-2.6-2.9-4.4-3.8c-1.7-1-3.4-1.8-5.2-2.6c-1.8-0.8-3.6-1.5-5.5-2.1l-5.6-2
			c4,0.6,7.8,1.6,11.5,3.2c1.9,0.8,3.6,1.7,5.3,2.9C317,357.7,318.4,359.3,319.2,361.1z"/>
		<path class="st22" d="M147.5,298.8c21.6,17.4,41.9,30.5,45.3,33.1c-6.4,11.5-24.4,34.2-34.3,46.2c-12.8-9-25.2-18.6-37-28.8
			c-30.8-27.6-17.3-60.6,4.4-69.1"/>
		<path class="st19" d="M214.3,259.7L205,299c-2,8.5-14.4,12.8-27.6,9.6s-22.4-12.5-20.4-21l9.3-39.3L214.3,259.7z"/>
		<path class="st26" d="M212.8,264.5c-15.8-3-33.5-5.6-47.5-6.7c-0.4,0.7-0.7,1.5-0.9,2.3c-2.9,14.2,10,28.8,28.9,32.7
			c4.2,0.8,8.4,1.1,12.6,0.8L212.8,264.5z"/>
		<path class="st19" d="M272.3,238.9c-7.8,10.1-20.3,12.5-28.7,6.6s-3.6-11.5,4.2-21.6s7.8-8.8,18-11.2
			C288,207.2,280.1,228.9,272.3,238.9z"/>
		<path class="st27" d="M268.2,218.1c1.5-0.3,3.1,0.2,4.3,1.2c1.4,1.4,1.2,3.7,0.6,5.6c-2,6.7-6.8,12.4-12.5,16.5
			c-0.9,0.7-2,1.3-3.1,1.6c-1.2,0.3-2.4-0.1-3.2-0.9c-0.7-1.1-0.7-2.5,0-3.6c1.5-2.9,4.8-4.4,7.6-6.1c0.8-0.4,1.5-1,2-1.7
			c0.5-0.7,0.6-1.7,0.2-2.5c-0.4-0.6-1-1-1.7-1.2c-1.4-0.4-2.8-0.7-4.3-0.8c-0.2-2.1,2-3.7,3.5-4.9
			C263.4,219.6,265.7,218.5,268.2,218.1z"/>
		<path class="st19" d="M263.1,162.7c-32.6-27.9,21.3-45.9-27.6-54.3c-47.5-8.2-79.6,10.6-88.4,51.6c-4.1,18.9-1.6,40-1.9,41.1
			c-13.9,47.4,21.8,78.9,50.6,83.8c12.6,2.2,26.7-1.5,39.4-8.3c15.6-8.2,29.1-22.5,35.4-56.4C270.8,219.2,290.3,186,263.1,162.7z"/>
		<path class="st27" d="M180.3,145.6c0,0,7.6,15.9,60.9,25.2l-0.2-7.3c0,0,1.4,10.4,31.4,21.3l-2.1,38.6l23.2-77.2l-110.8-28.9
			l-20.4,14.3l-3,21.2c0,0-18.6,40.3-19.4,55l2.2-2.1c8.4-7.8,15-17.2,19.4-27.8l0,0C161.4,178,171.3,184.4,180.3,145.6z"/>
		<path class="st28" d="M177.9,134.3c0,0-8.5,15.5,62.1,32.2c0,0-1.7-1.2-4.8-18.8c4.3,21.8,22.7,25.6,35.5,32.3l9.6-19.7l-10.1,63
			c0,0,10.1-17,13.4-24.4c0,0,10.5-20.4,9.7-35c1,4.7,1.6,9.4,1.8,14.2c0,0,18.4-31.6-21.1-67.6c0,0,9.5-0.6,19.4,6.8
			c0,0-15.9-26.8-57.7-36c-21.8-4.8-38.3-8.6-52.4,10.8c0,0-22.5-22.9-40.7,7.4c0,0,20.5-6.1,24.3,2.4c0,0-22.5-1.2-33.9,29
			c-10.8,28.5-7,51.1,4.5,76c0,0,20-14.8,21.4-41.7l4.2,11.1C163.1,176.1,176.4,170.3,177.9,134.3z"/>
		<path class="st19" d="M143,226.9c-12,7.2-21.9-2.4-24.1-14.4s0.2-34.7,15.3-22c5.6,3.7,9.3,9.8,10,16.5"/>
		<path class="st27" d="M130.2,194.6c-1.1-0.8-2.5-0.9-3.8-0.4c-1.7,0.9-2.3,3.1-2.7,5c-0.9,6.7,0.2,13.6,3.3,19.6
			c0.4,1,1,1.8,1.8,2.5c0.8,0.7,1.9,0.8,2.9,0.3c1-0.8,1.5-2,1.4-3.3c0-3.2-2-5.7-3.6-8.3c-0.5-0.7-0.8-1.5-0.9-2.3
			c-0.1-0.9,0.2-1.8,0.8-2.4c0.5-0.4,1.2-0.5,1.8-0.5c1.2,0.1,2.5,0.3,3.6,0.7c1-1.9-0.1-4.1-0.8-5.8
			C133.4,197.7,132.1,195.8,130.2,194.6z"/>
		<path class="st29" d="M213.5,231.2c8,9.5,17.5,3.1,18-0.9c0,0,1-4.2-3.1-8.9s-0.7-16.1-0.7-16.1"/>
		<path class="st30" d="M213.6,231.1c1.2,1.4,2.6,2.6,4.2,3.5c3.2,1.8,7.2,1.7,10.3-0.4c0.8-0.5,1.4-1.1,2-1.8
			c0.6-0.6,1-1.4,1.1-2.3l0,0c0.1-1,0.1-2.1-0.2-3.1c-0.3-1-0.7-2-1.2-2.9c-0.5-0.9-1.2-1.8-1.9-2.6c-0.7-0.9-1.2-2-1.5-3.1
			c-0.5-2.2-0.6-4.5-0.2-6.7c0.3-2.2,0.8-4.4,1.5-6.5h0.1c-0.5,2.1-0.8,4.3-0.9,6.5c-0.2,2.1,0,4.3,0.5,6.4c0.3,1,0.7,1.9,1.4,2.8
			c0.8,0.8,1.4,1.8,2,2.8c1.2,2,1.6,4.4,1.2,6.7l0,0c-0.2,1-0.7,1.9-1.4,2.6c-0.6,0.7-1.4,1.3-2.2,1.8c-1.6,1-3.5,1.5-5.4,1.6
			c-1.9,0-3.7-0.5-5.4-1.5c-1.6-1-3-2.2-4.2-3.7L213.6,231.1z"/>
		<path class="st31" d="M209.8,174.9c0,0,0.8-4.1-5.7-5s-16.2,5-17.4,9.4C186.7,179.3,200.9,171.3,209.8,174.9z"/>
		<path class="st31" d="M234.8,181.4c1.4-2.4,4.1-3.5,6.8-2.8c4.9,1,10.5,7.4,10.3,10.9C251.8,189.5,242,181,234.8,181.4z"/>
		<path class="st32" d="M185.8,238.3c1.5,5.7,6.6,23.7,19.4,28.5c7.7,2.9,13.1-2.7,18-6.5c1.3-1,2.5-2.1,3.7-3.1l0,0
			c0.6-0.5,1.2-1.1,1.9-1.6c1.6-1.4,3.3-2.7,5.1-3.8l0,0c0.4-0.3,0.9-0.5,1.3-0.7l0.5-0.3c0,0-13.3,4-46.2-12l-2.6-1.6l-1.1-0.6
			l-0.6-0.3C185.4,236.1,185.5,236.9,185.8,238.3z"/>
		<path class="st33" d="M218.7,262c-1.7-2.3-4.4-3.6-7.3-3.7c-4.1-2-8.8-2.3-13.2-1C198.2,257.3,207.5,267.4,218.7,262z"/>
		<path class="st34" d="M185.9,236.4c12.3,17.8,26.7,21.5,35.2,21c3.6-0.2,4.9-6.2,10.6-5.1c1.3-0.3,2.5-0.8,3.6-1.4l0.5-0.3
			c0,0-13.3,4-46.2-12l-2.6-1.6L185.9,236.4z"/>
		<path class="st35" d="M185.8,238.3c1.5,5.7,6.6,23.7,19.4,28.5c7.7,2.9,13.1-2.7,18-6.5C207.8,268.1,197.6,262.6,185.8,238.3z"/>
		<path class="st35" d="M187,237.1c23.1,18.9,40.2,16.7,47,14.6l0,0h0.1c0.4-0.3,0.8-0.5,1.1-0.7l0.5-0.3c0,0-13.3,4-46.2-12
			L187,237.1z"/>
		<path class="st33" d="M187.6,234.3c0,0-4.4-0.4-3.6,4.5C184,238.8,182.6,232.3,187.6,234.3z"/>
		<path class="st33" d="M235.3,249c0,0,2.4,1.3-0.1,4.4C235.2,253.4,239,250.6,235.3,249z"/>
		
			<ellipse transform="matrix(0.1182 -0.993 0.993 0.1182 -23.6117 372.8507)" class="st36" cx="198.1" cy="199.7" rx="13.4" ry="12.1"/>
		<ellipse transform="matrix(0.1182 -0.993 0.993 0.1182 -27.9716 378.4608)" class="st31" cx="199.1" cy="205" rx="8.2" ry="7.6"/>
		
			<ellipse transform="matrix(0.1224 -0.9925 0.9925 0.1224 -28.2367 369.4783)" class="st37" cx="194.8" cy="200.7" rx="1.4" ry="1.4"/>
		<ellipse transform="matrix(0.1181 -0.993 0.993 0.1181 6.8533 420.2117)" class="st36" cx="240" cy="206.2" rx="13.4" ry="11"/>
		<ellipse transform="matrix(0.1181 -0.993 0.993 0.1181 2.2908 425.5421)" class="st31" cx="240.7" cy="211.5" rx="8.2" ry="7"/>
		<ellipse transform="matrix(0.1182 -0.993 0.993 0.1182 3.0325 417.9461)" class="st37" cx="236.8" cy="207.3" rx="1.4" ry="1.3"/>
		<path class="st38" d="M311,362.9c4.2-1.7,9,0.3,10.8,4.5c1.1,2.6,0.7,5.6-0.9,7.9c1,0.7,1.8,1.7,2.3,2.9c1.5,3.6-0.3,7.7-3.8,9.2
			s-7.7-0.3-9.2-3.8l0,0c-0.3-0.7-0.5-1.5-0.5-2.3c-0.2,0.1-0.4,0.2-0.5,0.3c-4,1.6-8.6-0.3-10.3-4.3s0.3-8.6,4.3-10.3
			c1.2-0.5,2.5-0.7,3.8-0.5C307.9,364.8,309.3,363.6,311,362.9z"/>
		<path class="st39" d="M311.5,364.9c4-1.6,8.5,0.3,10.1,4.2c1,2.4,0.7,5.2-0.9,7.4c0.9,0.7,1.7,1.6,2.1,2.7
			c1.4,3.3-0.2,7.2-3.6,8.5s-7.2-0.2-8.5-3.6c-0.3-0.7-0.4-1.4-0.5-2.1l-0.5,0.2c-3.8,1.5-8-0.3-9.6-4s0.3-8,4-9.6
			c1.1-0.5,2.3-0.6,3.5-0.5C308.6,366.7,309.9,365.5,311.5,364.9z"/>
		
			<linearGradient id="SVGID_5_" gradientUnits="userSpaceOnUse" x1="892.1201" y1="-165.5851" x2="899.1002" y2="-165.5851" gradientTransform="matrix(-0.38 -0.93 0.93 -0.38 808.73 1135.5699)">
			<stop  offset="1.000000e-02" style="stop-color:#D4F6FF"/>
			<stop  offset="1" style="stop-color:#FFFFFF"/>
		</linearGradient>
		<path class="st40" d="M314.7,366.3c-1.8,0.7-2.6,2.8-1.9,4.5c0.7,1.8,2.8,2.6,4.5,1.9c1.8-0.7,2.6-2.8,1.9-4.5
			C318.5,366.4,316.5,365.6,314.7,366.3C314.7,366.3,314.7,366.3,314.7,366.3z"/>
		
			<linearGradient id="SVGID_6_" gradientUnits="userSpaceOnUse" x1="892.1201" y1="-178.5148" x2="898.2802" y2="-178.5148" gradientTransform="matrix(-0.38 -0.93 0.93 -0.38 808.73 1135.5699)">
			<stop  offset="1.000000e-02" style="stop-color:#D4F6FF"/>
			<stop  offset="1" style="stop-color:#FFFFFF"/>
		</linearGradient>
		<path class="st41" d="M303,372c-1.6,0.6-2.3,2.4-1.7,4c0.6,1.6,2.4,2.3,4,1.7s2.3-2.4,1.7-4c0,0,0,0,0,0
			C306.4,372.1,304.6,371.4,303,372z"/>
		
			<linearGradient id="SVGID_7_" gradientUnits="userSpaceOnUse" x1="879.5501" y1="-169.3716" x2="887.1801" y2="-169.3716" gradientTransform="matrix(-0.38 -0.93 0.93 -0.38 808.73 1135.5699)">
			<stop  offset="1.000000e-02" style="stop-color:#D4F6FF"/>
			<stop  offset="1" style="stop-color:#FFFFFF"/>
		</linearGradient>
		<path class="st42" d="M315.7,378.8c-1.9,0.8-2.9,3-2,5c0.8,1.9,3,2.9,5,2c1.9-0.8,2.8-3,2.1-4.9
			C319.9,378.9,317.7,378,315.7,378.8C315.7,378.8,315.7,378.8,315.7,378.8z"/>
		<path class="st38" d="M298.7,355c3.2-1.3,6.9,0.2,8.2,3.5c0.8,2,0.5,4.3-0.7,6c0.8,0.6,1.4,1.3,1.7,2.2c1.2,2.7-0.1,5.9-2.8,7
			c-2.7,1.2-5.9-0.1-7-2.8c-0.2-0.6-0.4-1.2-0.4-1.9c-0.1,0.1-0.3,0.1-0.4,0.2c-3,1.4-6.6,0.1-8-2.9c-1.4-3-0.1-6.6,2.9-8
			c0.2-0.1,0.3-0.1,0.5-0.2c0.9-0.4,1.9-0.5,2.9-0.4C296.3,356.5,297.4,355.5,298.7,355z"/>
		<path class="st39" d="M299,356.5c3-1.2,6.4,0.3,7.7,3.3c0.7,1.9,0.5,4-0.7,5.6c0.7,0.5,1.3,1.2,1.6,2c1,2.6-0.2,5.5-2.7,6.5
			c-2.6,1-5.5-0.2-6.5-2.7c-0.2-0.5-0.3-1.1-0.3-1.6l-0.4,0.2c-2.9,1.2-6.1-0.2-7.3-3.1s0.2-6.1,3.1-7.3l0,0
			c0.8-0.4,1.8-0.5,2.7-0.4C296.8,357.9,297.8,357,299,356.5z"/>
		
			<linearGradient id="SVGID_8_" gradientUnits="userSpaceOnUse" x1="906.8101" y1="-174.4949" x2="912.1301" y2="-174.4949" gradientTransform="matrix(-0.38 -0.93 0.93 -0.38 808.73 1135.5699)">
			<stop  offset="1.000000e-02" style="stop-color:#D4F6FF"/>
			<stop  offset="1" style="stop-color:#FFFFFF"/>
		</linearGradient>
		<path class="st43" d="M301.5,357.6c-1.4,0.6-2,2.1-1.5,3.5c0.6,1.4,2.1,2,3.5,1.5c1.4-0.6,2-2.1,1.5-3.5
			C304.4,357.7,302.8,357.1,301.5,357.6z"/>
		
			<linearGradient id="SVGID_9_" gradientUnits="userSpaceOnUse" x1="906.8101" y1="-184.4052" x2="911.5001" y2="-184.4052" gradientTransform="matrix(-0.38 -0.93 0.93 -0.38 808.73 1135.5699)">
			<stop  offset="1.000000e-02" style="stop-color:#D4F6FF"/>
			<stop  offset="1" style="stop-color:#FFFFFF"/>
		</linearGradient>
		<path class="st44" d="M292.5,362c-1.2,0.5-1.8,1.9-1.3,3.1c0.5,1.2,1.9,1.8,3.1,1.3c1.2-0.5,1.8-1.9,1.3-3.1c0,0,0,0,0,0
			C295.1,362.1,293.7,361.5,292.5,362C292.5,362,292.5,362,292.5,362z"/>
		
			<linearGradient id="SVGID_10_" gradientUnits="userSpaceOnUse" x1="897.2101" y1="-177.3949" x2="903.0302" y2="-177.3949" gradientTransform="matrix(-0.38 -0.93 0.93 -0.38 808.73 1135.5699)">
			<stop  offset="1.000000e-02" style="stop-color:#D4F6FF"/>
			<stop  offset="1" style="stop-color:#FFFFFF"/>
		</linearGradient>
		<path class="st45" d="M302.2,367.1c-1.5,0.6-2.2,2.3-1.6,3.8c0.6,1.5,2.3,2.2,3.8,1.6c1.5-0.6,2.2-2.3,1.6-3.8
			C305.4,367.2,303.7,366.5,302.2,367.1C302.2,367.1,302.2,367.1,302.2,367.1z"/>
		<path class="st38" d="M289.3,357.2c-0.8-4-4.6-6.6-8.6-5.8c-2.5,0.5-4.5,2.2-5.4,4.5c-1-0.4-2.2-0.5-3.2-0.3
			c-3.4,0.7-5.5,4.1-4.7,7.4c0.7,3.2,3.8,5.3,7.1,4.8c0.7-0.1,1.3-0.4,1.9-0.7c0,0.2,0,0.4,0.1,0.5c0.3,3.9,3.6,6.8,7.5,6.5
			c3.9-0.3,6.8-3.6,6.5-7.5c0-0.5-0.1-1.1-0.3-1.6c-0.2-1.1-0.7-2.2-1.4-3.1C289.4,360.5,289.6,358.8,289.3,357.2z"/>
		<path class="st39" d="M287.6,357.8c-0.7-3.7-4.3-6.1-8-5.4c-2.3,0.4-4.2,2-5.1,4.2c-1-0.4-2-0.5-3-0.3c-3.1,0.6-5.2,3.6-4.6,6.8
			s3.6,5.2,6.8,4.6l0,0c0.6-0.1,1.2-0.4,1.8-0.7c0,0.2,0,0.3,0.1,0.5c0.7,3.5,4,5.9,7.6,5.2s5.9-4,5.2-7.6c-0.2-1.1-0.7-2.1-1.4-3
			C287.7,360.8,287.9,359.3,287.6,357.8z"/>
		
			<linearGradient id="SVGID_11_" gradientUnits="userSpaceOnUse" x1="-3.2062" y1="557.7175" x2="2.9738" y2="557.7175" gradientTransform="matrix(0.98 -0.19 -0.19 -0.98 388.03 903.23)">
			<stop  offset="1.000000e-02" style="stop-color:#D4F6FF"/>
			<stop  offset="1" style="stop-color:#FFFFFF"/>
		</linearGradient>
		<path class="st46" d="M285,356.1c0.3,1.7-0.8,3.3-2.4,3.6c-1.7,0.3-3.3-0.8-3.6-2.4c-0.3-1.7,0.8-3.3,2.4-3.6c0,0,0,0,0,0
			C283.1,353.3,284.7,354.4,285,356.1C285,356.1,285,356.1,285,356.1z"/>
		
			<linearGradient id="SVGID_12_" gradientUnits="userSpaceOnUse" x1="-3.2062" y1="546.1901" x2="2.2433" y2="546.1901" gradientTransform="matrix(0.98 -0.19 -0.19 -0.98 388.03 903.23)">
			<stop  offset="1.000000e-02" style="stop-color:#D4F6FF"/>
			<stop  offset="1" style="stop-color:#FFFFFF"/>
		</linearGradient>
		<path class="st47" d="M286.5,367.5c0.3,1.5-0.7,2.9-2.2,3.2c-1.5,0.3-2.9-0.7-3.2-2.2c-0.3-1.5,0.7-2.9,2.2-3.2
			C284.8,365.1,286.2,366.1,286.5,367.5C286.5,367.5,286.5,367.5,286.5,367.5z"/>
		
			<linearGradient id="SVGID_13_" gradientUnits="userSpaceOnUse" x1="-14.3377" y1="554.3569" x2="-7.5777" y2="554.3569" gradientTransform="matrix(0.98 -0.19 -0.19 -0.98 388.03 903.23)">
			<stop  offset="1.000000e-02" style="stop-color:#D4F6FF"/>
			<stop  offset="1" style="stop-color:#FFFFFF"/>
		</linearGradient>
		<path class="st48" d="M275.3,361.4c0.3,1.8-0.9,3.6-2.7,4c-1.8,0.3-3.6-0.9-4-2.7c-0.3-1.8,0.8-3.6,2.6-3.9
			C273.1,358.4,274.9,359.5,275.3,361.4C275.3,361.4,275.3,361.4,275.3,361.4z"/>
		<path class="st38" d="M301.1,362.5c-0.6-3-3.5-5-6.5-4.4c-1.9,0.4-3.4,1.7-4.1,3.4c-0.8-0.3-1.6-0.4-2.5-0.2
			c-2.6,0.6-4.1,3.2-3.5,5.7c0.6,2.4,2.9,4,5.3,3.6c0.5-0.1,1-0.3,1.5-0.6c0,0.1,0,0.3,0.1,0.4c0.5,2.9,3.3,4.8,6.2,4.2
			c2.9-0.5,4.8-3.3,4.2-6.2c-0.2-0.9-0.5-1.7-1.1-2.4C301.2,365,301.4,363.7,301.1,362.5z"/>
		<path class="st39" d="M299.8,363c-0.5-2.8-3.2-4.7-6.1-4.2c-1.8,0.3-3.3,1.6-3.9,3.3c-0.7-0.3-1.5-0.4-2.3-0.2
			c-2.4,0.6-3.8,3-3.3,5.3c0.5,2.2,2.7,3.7,4.9,3.3c0.5-0.1,0.9-0.3,1.4-0.5c0,0.1,0,0.2,0.1,0.4c0.1,2.8,2.5,4.9,5.2,4.7
			s4.9-2.5,4.7-5.2c0-0.5-0.1-0.9-0.3-1.4c-0.1-0.8-0.5-1.5-1-2.2C299.9,365.3,300.1,364.1,299.8,363z"/>
		
			<linearGradient id="SVGID_14_" gradientUnits="userSpaceOnUse" x1="9.7938" y1="549.7806" x2="14.5021" y2="549.7806" gradientTransform="matrix(0.98 -0.19 -0.19 -0.98 388.03 903.23)">
			<stop  offset="1.000000e-02" style="stop-color:#D4F6FF"/>
			<stop  offset="1" style="stop-color:#FFFFFF"/>
		</linearGradient>
		<path class="st49" d="M297.8,361.7c0.2,1.3-0.6,2.5-1.9,2.8c-1.3,0.2-2.5-0.6-2.8-1.9c-0.2-1.3,0.6-2.5,1.9-2.8
			C296.4,359.6,297.6,360.4,297.8,361.7C297.8,361.7,297.8,361.7,297.8,361.7z"/>
		
			<linearGradient id="SVGID_15_" gradientUnits="userSpaceOnUse" x1="9.7938" y1="540.9652" x2="13.9538" y2="540.9652" gradientTransform="matrix(0.98 -0.19 -0.19 -0.98 388.03 903.23)">
			<stop  offset="1.000000e-02" style="stop-color:#D4F6FF"/>
			<stop  offset="1" style="stop-color:#FFFFFF"/>
		</linearGradient>
		<path class="st50" d="M299,370.4c0.2,1.1-0.5,2.2-1.6,2.4c-1.1,0.2-2.2-0.5-2.4-1.6c-0.2-1.1,0.5-2.2,1.6-2.4c0,0,0,0,0,0
			C297.7,368.6,298.8,369.3,299,370.4C299,370.4,299,370.4,299,370.4z"/>
		
			<linearGradient id="SVGID_16_" gradientUnits="userSpaceOnUse" x1="1.3038" y1="547.1557" x2="6.4538" y2="547.1557" gradientTransform="matrix(0.98 -0.19 -0.19 -0.98 388.03 903.23)">
			<stop  offset="1.000000e-02" style="stop-color:#D4F6FF"/>
			<stop  offset="1" style="stop-color:#FFFFFF"/>
		</linearGradient>
		<path class="st51" d="M290.4,365.7c0.3,1.4-0.6,2.8-2,3.1c-1.4,0.3-2.8-0.6-3.1-2c-0.3-1.4,0.6-2.8,2-3.1c0,0,0,0,0.1,0
			C288.8,363.5,290.1,364.4,290.4,365.7z"/>
		<path class="st38" d="M326.9,344.7c4.1,0.3,7.2,3.9,6.9,8c-0.2,2.5-1.7,4.8-3.9,6c0.5,1,0.8,2.1,0.7,3.3c-0.4,3.5-3.5,6-6.9,5.7
			c-3.4-0.3-5.9-3.2-5.7-6.6c0.1-0.7,0.2-1.4,0.5-2h-0.5c-3.9-0.3-6.9-3.7-6.6-7.6c0.3-3.9,3.7-6.9,7.6-6.6c1.2,0.1,2.3,0.5,3.3,1.1
			C323.5,345.1,325.2,344.6,326.9,344.7z"/>
		<path class="st39" d="M326.5,346.5c3.8,0.4,6.7,3.8,6.3,7.6c-0.2,2.3-1.5,4.3-3.6,5.4c0.5,0.9,0.7,2,0.6,3
			c-0.2,3.3-3.1,5.7-6.3,5.5c-3.3-0.2-5.7-3.1-5.4-6.3c0-0.6,0.2-1.3,0.5-1.9h-0.5c-3.6-0.3-6.4-3.4-6.1-7.1
			c0.3-3.6,3.4-6.4,7.1-6.1c1.1,0.1,2.1,0.4,3.1,1C323.4,346.8,324.9,346.4,326.5,346.5z"/>
		
			<linearGradient id="SVGID_17_" gradientUnits="userSpaceOnUse" x1="373.747" y1="453.2341" x2="380.047" y2="453.2341" gradientTransform="matrix(8.000000e-02 -1 1 8.000000e-02 -154.92 690.06)">
			<stop  offset="1.000000e-02" style="stop-color:#D4F6FF"/>
			<stop  offset="1" style="stop-color:#FFFFFF"/>
		</linearGradient>
		<path class="st52" d="M328.5,349c-1.7-0.1-3.2,1.2-3.4,2.9c-0.1,1.7,1.2,3.2,2.9,3.4c1.7,0.1,3.2-1.2,3.4-2.9
			C331.5,350.6,330.2,349.1,328.5,349C328.5,349,328.5,349,328.5,349z"/>
		
			<linearGradient id="SVGID_18_" gradientUnits="userSpaceOnUse" x1="373.747" y1="441.5254" x2="379.297" y2="441.5254" gradientTransform="matrix(8.000000e-02 -1 1 8.000000e-02 -154.92 690.06)">
			<stop  offset="1.000000e-02" style="stop-color:#D4F6FF"/>
			<stop  offset="1" style="stop-color:#FFFFFF"/>
		</linearGradient>
		<path class="st53" d="M316.7,348.8c-1.5-0.1-2.9,1-3,2.6s1,2.9,2.6,3c1.5,0.1,2.9-1,3-2.5C319.4,350.3,318.3,348.9,316.7,348.8
			C316.7,348.8,316.7,348.8,316.7,348.8z"/>
		
			<linearGradient id="SVGID_19_" gradientUnits="userSpaceOnUse" x1="362.407" y1="449.854" x2="369.287" y2="449.854" gradientTransform="matrix(8.000000e-02 -1 1 8.000000e-02 -154.92 690.06)">
			<stop  offset="1.000000e-02" style="stop-color:#D4F6FF"/>
			<stop  offset="1" style="stop-color:#FFFFFF"/>
		</linearGradient>
		<path class="st54" d="M324.2,359.4c-1.9-0.1-3.5,1.3-3.7,3.2c-0.1,1.9,1.3,3.5,3.2,3.7c1.9,0.1,3.5-1.3,3.7-3.2
			C327.6,361.2,326.1,359.6,324.2,359.4z"/>
		<path class="st38" d="M314.7,336.9c3-1,6.2,0.5,7.3,3.5c0.6,1.8,0.3,3.9-0.9,5.4c0.7,0.5,1.2,1.2,1.5,2.1c0.8,2.6-0.7,5.3-3.2,6
			c-2.4,0.7-5-0.5-5.9-2.8c-0.2-0.5-0.3-1-0.3-1.6l-0.4,0.1c-2.8,1-5.9-0.5-6.9-3.3c-1-2.8,0.5-5.9,3.3-6.9c0.8-0.3,1.7-0.4,2.6-0.2
			C312.5,338.2,313.5,337.4,314.7,336.9z"/>
		<path class="st39" d="M315,338.3c2.8-1,5.8,0.5,6.8,3.3c0.6,1.7,0.3,3.6-0.9,5c0.6,0.5,1.1,1.2,1.4,1.9c0.8,2.3-0.4,4.9-2.8,5.8
			s-4.9-0.4-5.8-2.8l0,0c-0.2-0.5-0.2-1-0.2-1.5l-0.4,0.1c-2.6,0.9-5.5-0.5-6.4-3.1s0.5-5.5,3.1-6.4l0,0c0.8-0.3,1.6-0.3,2.5-0.2
			C312.9,339.5,313.9,338.7,315,338.3z"/>
		
			<linearGradient id="SVGID_20_" gradientUnits="userSpaceOnUse" x1="863.3762" y1="-109.2692" x2="868.1762" y2="-109.2692" gradientTransform="matrix(-0.33 -0.94 0.94 -0.33 708.09 1124.36)">
			<stop  offset="1.000000e-02" style="stop-color:#D4F6FF"/>
			<stop  offset="1" style="stop-color:#FFFFFF"/>
		</linearGradient>
		<path class="st55" d="M317.1,339.4c-1.3,0.4-1.9,1.8-1.5,3.1c0.4,1.3,1.8,1.9,3.1,1.5c1.3-0.4,1.9-1.8,1.5-3.1
			C319.8,339.6,318.4,339,317.1,339.4C317.2,339.4,317.2,339.4,317.1,339.4z"/>
		
			<linearGradient id="SVGID_21_" gradientUnits="userSpaceOnUse" x1="863.3762" y1="-118.2622" x2="867.6062" y2="-118.2622" gradientTransform="matrix(-0.33 -0.94 0.94 -0.33 708.09 1124.36)">
			<stop  offset="1.000000e-02" style="stop-color:#D4F6FF"/>
			<stop  offset="1" style="stop-color:#FFFFFF"/>
		</linearGradient>
		<path class="st56" d="M308.9,342.9c-1.1,0.4-1.7,1.6-1.3,2.7c0.4,1.1,1.6,1.7,2.7,1.3c1.1-0.4,1.7-1.6,1.3-2.7c0,0,0,0,0,0
			C311.2,343.1,310,342.5,308.9,342.9z"/>
		
			<linearGradient id="SVGID_22_" gradientUnits="userSpaceOnUse" x1="854.7162" y1="-111.9231" x2="859.9662" y2="-111.9231" gradientTransform="matrix(-0.33 -0.94 0.94 -0.33 708.09 1124.36)">
			<stop  offset="1.000000e-02" style="stop-color:#D4F6FF"/>
			<stop  offset="1" style="stop-color:#FFFFFF"/>
		</linearGradient>
		<path class="st57" d="M317.4,348c-1.4,0.5-2.1,2-1.6,3.3c0.5,1.4,2,2.1,3.3,1.6c1.4-0.5,2.1-2,1.6-3.3c0,0,0,0,0,0
			C320.2,348.3,318.7,347.5,317.4,348z"/>
		<path class="st38" d="M307,345.5c-0.5-3.6-3.8-6.1-7.4-5.6c-2.2,0.3-4.2,1.8-5.1,3.8c-0.9-0.4-1.9-0.6-2.9-0.4
			c-3.1,0.5-5.2,3.3-4.7,6.4c0.5,3,3.2,5.1,6.2,4.7c0.6-0.1,1.2-0.3,1.8-0.6c0,0.2,0,0.3,0,0.5c0.5,3.4,3.6,5.8,7.1,5.4
			c3.4-0.5,5.8-3.6,5.4-7.1c-0.1-1-0.5-2-1.2-2.9C306.9,348.4,307.2,347,307,345.5z"/>
		<path class="st39" d="M305.5,345.9c-0.5-3.4-3.6-5.7-7-5.2c-2.1,0.3-3.9,1.6-4.8,3.6c-0.9-0.4-1.8-0.5-2.7-0.4
			c-2.9,0.4-4.9,3-4.5,5.9s3,4.9,5.9,4.5l0,0c0.6-0.1,1.1-0.3,1.6-0.5c0,0.1,0,0.3,0,0.4c0.4,3.2,3.4,5.4,6.6,5
			c3.2-0.4,5.4-3.4,5-6.6c-0.1-1-0.5-1.9-1.1-2.7C305.3,348.7,305.6,347.3,305.5,345.9z"/>
		
			<linearGradient id="SVGID_23_" gradientUnits="userSpaceOnUse" x1="76.7397" y1="521.9517" x2="82.3197" y2="521.9517" gradientTransform="matrix(0.9903 -0.1387 -0.1387 -0.9903 294.0341 872.6292)">
			<stop  offset="1.000000e-02" style="stop-color:#D4F6FF"/>
			<stop  offset="1" style="stop-color:#FFFFFF"/>
		</linearGradient>
		<path class="st58" d="M303.2,344.3c0.2,1.5-0.8,2.9-2.4,3.2s-2.9-0.8-3.2-2.4c-0.2-1.5,0.8-2.9,2.4-3.2c0,0,0,0,0,0
			C301.5,341.7,303,342.8,303.2,344.3C303.2,344.3,303.2,344.3,303.2,344.3z"/>
		
			<linearGradient id="SVGID_24_" gradientUnits="userSpaceOnUse" x1="76.7397" y1="511.5597" x2="81.6597" y2="511.5597" gradientTransform="matrix(0.9903 -0.1387 -0.1387 -0.9903 294.0341 872.6292)">
			<stop  offset="1.000000e-02" style="stop-color:#D4F6FF"/>
			<stop  offset="1" style="stop-color:#FFFFFF"/>
		</linearGradient>
		<path class="st59" d="M304,354.7c0.2,1.3-0.8,2.6-2.1,2.8c-1.3,0.2-2.6-0.8-2.8-2.1c-0.2-1.3,0.8-2.6,2.1-2.8
			C302.6,352.4,303.8,353.3,304,354.7C304,354.7,304,354.7,304,354.7z"/>
		
			<linearGradient id="SVGID_25_" gradientUnits="userSpaceOnUse" x1="66.6997" y1="518.9611" x2="72.7897" y2="518.9611" gradientTransform="matrix(0.9903 -0.1387 -0.1387 -0.9903 294.0341 872.6292)">
			<stop  offset="1.000000e-02" style="stop-color:#D4F6FF"/>
			<stop  offset="1" style="stop-color:#FFFFFF"/>
		</linearGradient>
		<path class="st60" d="M294.2,348.6c0.2,1.6-1,3.1-2.6,3.3c-1.6,0.2-3.1-1-3.3-2.6c-0.2-1.6,0.9-3.1,2.5-3.3
			C292.4,345.8,293.9,347,294.2,348.6z"/>
		<path class="st38" d="M316.6,343.8c-0.3-2.7-2.8-4.7-5.5-4.4c-1.8,0.2-3.4,1.4-4.1,3c-0.7-0.3-1.5-0.4-2.2-0.3
			c-2.3,0.4-3.9,2.7-3.4,5c0.4,2.2,2.4,3.7,4.6,3.5c0.5-0.1,0.9-0.2,1.3-0.4c0,0.1,0,0.2,0,0.4c0.4,2.6,2.9,4.4,5.5,3.9
			c2.6-0.4,4.4-2.9,3.9-5.5c-0.1-0.7-0.4-1.3-0.8-1.9C316.5,346,316.8,344.9,316.6,343.8z"/>
		<path class="st39" d="M315.4,344.1c-0.4-2.6-2.7-4.4-5.3-4c-1.6,0.2-3,1.3-3.6,2.7c-0.6-0.3-1.4-0.4-2.1-0.3
			c-2.2,0.4-3.6,2.5-3.1,4.7c0.4,2,2.2,3.4,4.2,3.2c0.4-0.1,0.9-0.2,1.3-0.4v0.3c0.4,2.4,2.7,4.1,5.2,3.7c2.3-0.4,4-2.5,3.7-4.9
			c-0.1-0.7-0.4-1.4-0.8-2C315.3,346.3,315.6,345.2,315.4,344.1z"/>
		
			<linearGradient id="SVGID_26_" gradientUnits="userSpaceOnUse" x1="88.6697" y1="521.8824" x2="92.9197" y2="521.8824" gradientTransform="matrix(0.9903 -0.1387 -0.1387 -0.9903 294.0341 872.6292)">
			<stop  offset="1.000000e-02" style="stop-color:#D4F6FF"/>
			<stop  offset="1" style="stop-color:#FFFFFF"/>
		</linearGradient>
		<path class="st61" d="M313.7,342.9c0.2,1.2-0.6,2.2-1.8,2.4c-1.2,0.2-2.2-0.6-2.4-1.8c-0.2-1.2,0.6-2.2,1.8-2.4c0,0,0,0,0,0
			C312.4,340.9,313.5,341.7,313.7,342.9C313.7,342.9,313.7,342.9,313.7,342.9z"/>
		
			<linearGradient id="SVGID_27_" gradientUnits="userSpaceOnUse" x1="88.6597" y1="513.949" x2="92.4197" y2="513.949" gradientTransform="matrix(0.9903 -0.1387 -0.1387 -0.9903 294.0341 872.6292)">
			<stop  offset="1.000000e-02" style="stop-color:#D4F6FF"/>
			<stop  offset="1" style="stop-color:#FFFFFF"/>
		</linearGradient>
		<path class="st62" d="M314.3,350.8c0.1,1-0.6,2-1.6,2.1c-1,0.1-2-0.6-2.1-1.6c-0.1-1,0.6-2,1.6-2.1c0,0,0,0,0,0
			C313.2,349.1,314.1,349.8,314.3,350.8C314.3,350.8,314.3,350.8,314.3,350.8z"/>
		
			<linearGradient id="SVGID_28_" gradientUnits="userSpaceOnUse" x1="81.003" y1="519.5869" x2="85.653" y2="519.5869" gradientTransform="matrix(0.9903 -0.1387 -0.1387 -0.9903 294.0341 872.6292)">
			<stop  offset="1.000000e-02" style="stop-color:#D4F6FF"/>
			<stop  offset="1" style="stop-color:#FFFFFF"/>
		</linearGradient>
		<path class="st63" d="M306.8,346.2c0.2,1.3-0.7,2.4-2,2.6s-2.4-0.7-2.6-2c-0.2-1.3,0.7-2.4,2-2.6
			C305.5,344,306.6,344.9,306.8,346.2C306.8,346.2,306.8,346.2,306.8,346.2z"/>
	</g>
</g>
<path class="st64" d="M463,548.5H113c-53.6,0-97-43.4-97-97v-333c0.1-53.6,43.6-96.9,97.1-96.9c2.9,0,5.8,0.1,8.7,0.4l366.1,33.5
	c51.9,4.8,90.8,49.7,88,101.7l-16,299.5C557.1,508.1,514.6,548.4,463,548.5z"/>
</svg>
