<?xml version="1.0" encoding="utf-8"?>
<!-- Generator: Adobe Illustrator 25.2.3, SVG Export Plug-In . SVG Version: 6.00 Build 0)  -->
<svg version="1.1" id="Layer_1" xmlns="http://www.w3.org/2000/svg" xmlns:xlink="http://www.w3.org/1999/xlink" x="0px" y="0px"
	 viewBox="0 0 490 425" style="enable-background:new 0 0 490 425;" xml:space="preserve">
<style type="text/css">
	.st0{fill:#78EFE9;}
	.st1{fill:#0072AB;}
	.st2{fill:#74879E;}
	.st3{clip-path:url(#SVGID_2_);}
	.st4{fill:url(#SVGID_3_);}
	.st5{fill:url(#SVGID_4_);}
	.st6{fill:url(#SVGID_5_);}
	.st7{fill:url(#SVGID_6_);}
	.st8{fill:none;stroke:#FEFFEB;stroke-width:0.25;stroke-miterlimit:10;}
	.st9{opacity:0.43;}
	.st10{fill:none;stroke:#FEFFEB;stroke-width:0.5;stroke-miterlimit:10;}
	.st11{fill:#426E72;}
	.st12{fill:#264547;}
	.st13{fill:#E5D2C1;}
	.st14{fill:#E9EAE5;}
	.st15{fill:#99AAA9;}
	.st16{fill:#C0C1BC;}
	.st17{fill:#E8D75D;}
	.st18{fill:#DBDAD9;}
	.st19{fill:#C6B663;}
	.st20{opacity:0.15;fill:#EA3B48;enable-background:new    ;}
	.st21{fill:none;}
	.st22{fill:#F9D1C6;stroke:#323232;stroke-width:2;stroke-miterlimit:10;}
	.st23{fill:#DB9D8E;}
	.st24{fill:#F9D1C6;stroke:#323232;stroke-miterlimit:10;}
	.st25{fill:#342517;}
	.st26{fill:#F9D1C6;}
	.st27{fill:#49442E;}
	.st28{fill:#F9D1C6;stroke:#323232;stroke-width:0.5;stroke-miterlimit:10;}
	.st29{fill:#60585E;stroke:#323232;stroke-width:0.75;stroke-miterlimit:10;}
	.st30{fill:none;stroke:#323232;stroke-width:0.75;stroke-miterlimit:10;}
	.st31{fill:#F9D1C6;stroke:#323232;stroke-width:0.75;stroke-miterlimit:10;}
	.st32{fill:#C1A0B6;stroke:#323232;stroke-width:0.75;stroke-miterlimit:10;}
	.st33{fill:#EAD0E3;stroke:#323232;stroke-width:0.75;stroke-miterlimit:10;}
	.st34{fill:#C9124F;stroke:#323232;stroke-width:0.75;stroke-miterlimit:10;}
	.st35{fill:#E2F763;stroke:#323232;stroke-width:0.75;stroke-miterlimit:10;}
	.st36{fill:#EFCEE8;}
	.st37{fill:#DBBDD5;}
	.st38{fill:#C9A9C3;}
	.st39{fill:#968F94;}
	.st40{fill:#C4C0C3;}
	.st41{fill:#C4BBC2;}
	.st42{fill:#D1A7C9;}
	.st43{fill:#8AC0ED;}
	.st44{fill:#2B1E1A;}
	.st45{fill:#E6EEF4;stroke:#627077;stroke-miterlimit:10;}
	.st46{fill:#8AC0ED;stroke:#323232;stroke-width:0.75;stroke-miterlimit:10;}
	.st47{opacity:0.58;fill:#8AC0ED;stroke:#323232;stroke-width:0.75;stroke-miterlimit:10;enable-background:new    ;}
	.st48{fill:#E2F763;}
	.st49{fill:#323232;}
	.st50{fill:#D8B4D1;}
	.st51{fill:#D6B6D0;}
	.st52{fill:#B5B0B4;}
	.st53{fill:none;stroke:#D3CBD1;stroke-width:7;stroke-miterlimit:10;}
	.st54{fill:none;stroke:#6D646B;stroke-width:7;stroke-miterlimit:10;}
	.st55{opacity:0.53;fill:#FFFFFF;enable-background:new    ;}
	.st56{opacity:0.33;fill:#FFFFFF;enable-background:new    ;}
	.st57{opacity:0.15;fill:#FFFFFF;enable-background:new    ;}
</style>
<polygon class="st0" points="359.8,13.6 130.2,13.6 15.3,212.5 130.2,411.4 359.8,411.4 474.7,212.5 "/>
<polygon class="st1" points="353.3,24.9 136.7,24.9 28.3,212.5 136.7,400.1 353.3,400.1 461.7,212.5 "/>
<polygon class="st2" points="351.5,28 138.5,28 32,212.5 138.5,397 351.5,397 458,212.5 "/>
<g>
	<defs>
		<polygon id="SVGID_1_" points="351.5,28 138.5,28 32,212.5 138.5,397 351.5,397 458,212.5 		"/>
	</defs>
	<clipPath id="SVGID_2_">
		<use xlink:href="#SVGID_1_"  style="overflow:visible;"/>
	</clipPath>
	<g class="st3">
		
			<linearGradient id="SVGID_3_" gradientUnits="userSpaceOnUse" x1="862.5294" y1="979.1403" x2="473.5393" y2="-156.1798" gradientTransform="matrix(1 0 0 -1 0 426)">
			<stop  offset="0" style="stop-color:#72EDED"/>
			<stop  offset="0.23" style="stop-color:#6FE9EA"/>
			<stop  offset="0.45" style="stop-color:#67DDE3"/>
			<stop  offset="0.68" style="stop-color:#58C9D6"/>
			<stop  offset="0.9" style="stop-color:#45ADC4"/>
			<stop  offset="0.99" style="stop-color:#3CA1BC"/>
		</linearGradient>
		<path class="st4" d="M126.7-211.2l3.1,675.4l1000.8,6.2v-678.6L126.7-211.2z"/>
		
			<linearGradient id="SVGID_4_" gradientUnits="userSpaceOnUse" x1="-959.2509" y1="670.9395" x2="143.6792" y2="154.1394" gradientTransform="matrix(1 0 0 -1 0 426)">
			<stop  offset="0.38" style="stop-color:#41AFB5"/>
			<stop  offset="0.76" style="stop-color:#3EABB6"/>
			<stop  offset="0.99" style="stop-color:#39A5B7"/>
		</linearGradient>
		<path class="st5" d="M127.2-216.2l-442.9-149l-8.6,898.2l454.4-96.9C129.2,218.7,128.2,1.3,127.2-216.2z"/>
		
			<linearGradient id="SVGID_5_" gradientUnits="userSpaceOnUse" x1="-653.1201" y1="585.6893" x2="162.0399" y2="456.3293" gradientTransform="matrix(1 0 0 -1 0 426)">
			<stop  offset="0.13" style="stop-color:#41B5C4"/>
			<stop  offset="0.48" style="stop-color:#40B1C2"/>
			<stop  offset="0.81" style="stop-color:#3DA5BE"/>
			<stop  offset="0.99" style="stop-color:#3A9CBA"/>
		</linearGradient>
		<path class="st6" d="M-307.1-371.2l431.8,156.5l-0.6,444.9L-307.1-371.2z"/>
		
			<linearGradient id="SVGID_6_" gradientUnits="userSpaceOnUse" x1="1161.0024" y1="690.2521" x2="73.903" y2="416.8698" gradientTransform="matrix(1 0 0 -1 0 426)">
			<stop  offset="2.000000e-02" style="stop-color:#72EDED"/>
			<stop  offset="0.26" style="stop-color:#6FE9EC"/>
			<stop  offset="0.5" style="stop-color:#67DDE7"/>
			<stop  offset="0.74" style="stop-color:#59C9E0"/>
			<stop  offset="0.98" style="stop-color:#45ADD6"/>
			<stop  offset="0.99" style="stop-color:#45ADD6"/>
		</linearGradient>
		<polyline class="st7" points="1173.7,-213.8 123.6,-213.4 123.6,206.6 1164.1,-213.4 		"/>
		<line class="st8" x1="130" y1="-219.7" x2="130" y2="439.4"/>
		<g class="st9">
			<polyline class="st10" points="-311.7,-28.6 115.9,16.9 1267.2,11.1 			"/>
			<polyline class="st10" points="-312.6,104.2 127,115.5 1214.5,115.5 			"/>
			<polyline class="st10" points="-308.7,233.7 -308.7,250.1 121.1,217.8 1244.4,217 			"/>
			<polyline class="st10" points="-305.8,391.2 133.9,326.3 1189.1,326.3 			"/>
			<polyline class="st10" points="259.4,-211.2 259.4,430.3 -99.2,580.3 			"/>
			<polyline class="st10" points="423.2,-211.2 416.7,435.3 196.2,602.2 			"/>
			<polyline class="st10" points="585,-211.2 582.2,438.1 474.2,659.5 			"/>
			<line class="st10" x1="-2.5" y1="-254.9" x2="10.7" y2="460.6"/>
		</g>
		<ellipse class="st11" cx="437.9" cy="50.3" rx="19" ry="18.6"/>
		<ellipse class="st12" cx="437.9" cy="50.3" rx="13.1" ry="12.9"/>
		<rect x="435.3" y="43" class="st13" width="200.2" height="13.9"/>
		<path class="st14" d="M-5.8,233.2c0,0,22.6-6.1,22.3,19.7l-0.3,20.6c0,0-11.4,3.6-19.4,0l0.4-16.4c0,0-1.4-2.2-3.1-4.3
			C-7.7,250.5-16.8,240.4-5.8,233.2z"/>
		<path class="st15" d="M-3.1,273.5c0,0,5.4,3.9,19.4,0c-0.3,3,0,3.8,0,3.8s-13.9,4.6-19.4,0L-3.1,273.5z"/>
		<path class="st16" d="M-2.7,257.1c0,0,9.8,15.5,18.9,16.4c-7.8,1.6-12.5,2.9-19.4,0L-2.7,257.1z"/>
		<path class="st17" d="M463.2,44.1v103.8c-1.6,17.3-3.3,20.2,22.4,19.6s100.6,0.1,100.6,0.1s17.6,9.1,17.3-19.6
			c-0.3-28.2-9-96.3-4.1-103.8c1.1-6.4,4.1,0,4.1,0l-3-6.4H465.4C464.1,39.5,463.4,41.8,463.2,44.1z"/>
		<path class="st18" d="M463.2,143.6c0,0-11.5,30.4,20.4,23.8c31.9-0.3,101.1,0.1,101.1,0.1s21.8,8.8,18.8-23.8
			c-8,0-34.7,5.1-41.2,3.5s-35.3-2.9-41.5,0.6s-27.7-0.7-30.7-2.1S468.5,151,463.2,143.6z"/>
		<path class="st19" d="M518.4,37.6c0,0-58.5,19-55.2,49V44.1l2.2-6.4H518.4z"/>
		<ellipse class="st20" cx="480.5" cy="87.1" rx="9.6" ry="8.7"/>
		<ellipse class="st20" cx="482.3" cy="130.2" rx="8.4" ry="7.7"/>
		<path class="st14" d="M29.1-191.4v181l75.8,11.7V-162L29.1-191.4z M95.7-15.6L40.9-24v-148.8l54.8,20.1V-15.6z"/>
		<polygon class="st21" points="113,1.1 98.6,1.1 21.7,-10.9 29.1,-10.7 36.6,-10.5 		"/>
		<path class="st22" d="M317.5,184.5c0,0-4.1,23-34.9,16.4c-1.6-0.3-3.1-0.8-4.5-1.4c-19.2-9,34.8-38.9,34.8-38.9
			s-5.8,13.8-0.8,20.6C313.3,182.9,315.3,184.1,317.5,184.5z"/>
		<path class="st23" d="M312,181.1c-3.4,5.4-12.1,12.8-34,18.3c-19.2-9,34.8-38.9,34.8-38.9S307,174.3,312,181.1z"/>
		<path class="st22" d="M225.7,158.2c5.8,7.4,14.9,9.2,21.1,4.8s2.7-8.4-3.1-15.8s-5.8-6.4-13.2-8.3
			C214.2,134.9,219.9,150.8,225.7,158.2z"/>
		<path class="st23" d="M228.6,142.9c-1.1-0.2-2.3,0.1-3.1,0.9c-1,1.1-0.9,2.7-0.4,4.1c1.4,4.9,5,9.1,9.2,12.1
			c0.7,0.5,1.4,0.9,2.3,1.2c1.1,0.4,2.3-0.2,2.7-1.3c0.2-0.7,0.1-1.5-0.3-2c-1.1-2.1-3.5-3.2-5.6-4.5c-0.6-0.3-1.1-0.8-1.5-1.3
			c-0.4-0.5-0.4-1.2-0.1-1.8c0.3-0.4,0.8-0.7,1.3-0.9c1-0.3,2.1-0.5,3.1-0.6c0.1-1.6-1.4-2.8-2.6-3.6
			C232.2,144,230.5,143.2,228.6,142.9z"/>
		<path class="st24" d="M232.4,102.2c24-20.5-15.7-33.7,20.3-39.9c34.9-6,58.4,7.8,64.9,37.9c3,13.9,1.2,29.4,1.4,30.1
			c10.2,34.8-16,57.9-37.2,61.5c-9.2,1.6-19.6-1.1-28.9-6.1c-11.4-6-21.4-16.5-26-41.4C226.8,143.7,212.4,119.3,232.4,102.2z"/>
		<path class="st25" d="M277.2,109.8c3.5,0,15.2,3.1,16.1,10.6c0,0-8.3-5.8-16.6-6.8C276.7,113.6,275.4,109.8,277.2,109.8z"/>
		<path class="st25" d="M246.1,115.8c-3.5,0.4-14.7,4.7-14.7,12.4c0,0,7.5-6.8,15.6-8.6C247.1,119.5,247.9,115.6,246.1,115.8z"/>
		<path class="st23" d="M293.3,89.6c0,0-5.5,11.7-44.7,18.5l0.1-5.4c0,0-1,7.7-23,15.6l1.6,28.3l-17-56.7l81.4-21.2l15,10.5
			l2.2,15.6c0,0,13.6,29.6,14.2,40.4l-1.6-1.5c-6.2-5.7-11-12.6-14.3-20.4l0,0C307.1,113.4,299.8,118.1,293.3,89.6z"/>
		<path class="st25" d="M295,81.3c0,0,6.2,11.4-45.6,23.7c0,0,1.2-0.8,3.6-13.8c-3.2,16-16.7,18.8-26.1,23.7l-7.1-14.5l7.4,46.3
			c0,0-7.4-12.5-9.9-17.9c0,0-7.8-15-7.1-25.7c-0.8,3.4-1.2,6.9-1.3,10.4c0,0-13.5-23.2,15.5-49.6c-5.2,0.1-10.1,1.8-14.2,5
			c0,0,11.7-19.7,42.4-26.5c16-3.5,28.2-6.3,38.4,7.9c0,0,16.5-16.8,29.9,5.5c0,0-15-4.5-17.9,1.8c0,0,16.5-0.9,24.9,21.3
			c7.9,20.9,5.2,37.5-3.3,55.8c0,0-14.7-10.9-15.7-30.6l-3.1,8.1C305.8,112,296.1,107.7,295,81.3z"/>
		<path class="st26" d="M272.7,153.2c0,0,0.3,4.5-6.3,5.5c-12.1,1.8-6.7-13-6.7-13"/>
		<path class="st27" d="M272.7,153.2c0.3,1.3,0,2.6-0.8,3.6c-0.8,1-1.9,1.8-3.2,2.3l-0.9,0.3c-0.3,0.1-0.6,0.1-0.9,0.2
			c-0.6,0.1-1.2,0.2-1.9,0.2c-1.3,0.1-2.6-0.1-3.8-0.7c-0.6-0.3-1.2-0.7-1.7-1.2c-0.5-0.5-0.8-1.1-1.1-1.7c-0.5-1.2-0.7-2.4-0.6-3.7
			c0.1-2.4,0.7-4.7,1.8-6.9c-0.5,2.2-0.7,4.5-0.6,6.8c0.1,1.1,0.3,2.1,0.8,3.1c0.4,0.9,1.2,1.5,2.1,1.9c1.8,0.7,4.2,0.3,6.2-0.2
			C270.2,156.8,272,155.2,272.7,153.2z"/>
		<path class="st28" d="M320.6,149.3c8.8,5.3,16.1-1.8,17.7-10.6s-0.1-25.5-11.2-16.2c-4.2,2.7-6.9,7.2-7.4,12.1"/>
		<path class="st23" d="M330,125.6c0.8-0.6,1.9-0.7,2.8-0.3c1.2,0.6,1.7,2.2,2,3.7c0.7,4.9-0.2,10-2.4,14.4
			c-0.3,0.7-0.7,1.3-1.3,1.9c-0.6,0.5-1.4,0.6-2.1,0.2c-0.7-0.6-1.1-1.5-1-2.4c0-2.3,1.5-4.2,2.6-6.1c0.3-0.5,0.6-1.1,0.7-1.7
			c0.1-0.6-0.1-1.3-0.6-1.7c-0.4-0.3-0.9-0.4-1.3-0.4c-0.9,0.1-1.8,0.2-2.7,0.5c-0.7-1.4,0-3,0.6-4.2
			C327.7,127.9,328.7,126.5,330,125.6z"/>
		<path class="st25" d="M263,175.7c0,0,21-3.4,20.6-20.2C283.6,155.5,287.4,173.6,263,175.7z"/>
		<path class="st29" d="M326.6,417.6c0,0-9.7,0.9-11.5,8c0,0-18.6,9.2-22.1,18c0,0-0.1,3.4,10.7,4.9s22.3,0.9,28.5-3.4
			c4.3-2.8,9-5.1,13.9-6.7c0,0,0.3-6.5-2.8-11.2c0,0,4.5-2.2,1.1-7.6S326.6,417.6,326.6,417.6z"/>
		<path class="st30" d="M320.4,422.6c0,0,1.8,4.3,11.5,3.2s10.1-4.6,10.1-4.6"/>
		<path class="st31" d="M350.4,385.4C350.4,385.4,350.4,385.4,350.4,385.4c0,0.5,0,0.9-0.1,1.3c-0.1,0.9-0.3,1.9-0.5,2.8
			c-2.8,13.5-8.1,30.8-8.1,30.8c-3.6,9-18.2,4.4-18.2,4.4s-0.3-19.3-0.6-35.3c-0.2-8-0.4-15.4-0.5-19c-0.2-3.4-0.7-6.8-1.4-10.1
			c-0.8-3.8-1.9-7.6-3.3-11.2l23.3,2.8c1.8,3.5,3.7,7.4,5.3,11.4C348.9,370.3,351,377.8,350.4,385.4z"/>
		<path class="st32" d="M350.3,386.7c-0.1,0.9-0.3,1.9-0.5,2.8c-0.6,3.2-1.5,6.5-2.3,9.9c-2.7,10.8-5.8,21-5.8,21
			c-3.6,9-18.2,4.4-18.2,4.4s-0.2-12.4-0.4-25.6c-0.1-3.3-0.1-6.6-0.2-9.7c1.2,1.5,5,4.3,15.2,3.5
			C347.6,392.1,349.8,388.6,350.3,386.7z"/>
		<path class="st33" d="M350.3,386.7c-0.1,0.9-0.3,1.9-0.5,2.8c-0.6,3.2-1.5,6.5-2.3,9.9c-13.4,5.2-20.9,2.4-24.5-0.2
			c-0.1-3.3-0.1-6.6-0.2-9.7c1.2,1.5,5,4.3,15.2,3.5C347.6,392.1,349.8,388.6,350.3,386.7z"/>
		<path class="st23" d="M346.1,363.4c-9.1,1.4-19.1-1.1-25.2-3c-0.8-3.8-1.9-7.6-3.3-11.2l23.3,2.8
			C342.6,355.5,344.5,359.3,346.1,363.4z"/>
		<path class="st29" d="M353,422.1c0,0-9.7,0.8-11.5,8c0,0-18.6,9.2-22.1,18c0,0-0.1,3.4,10.7,4.9s22.3,0.8,28.5-3.4
			c4.3-2.8,9-5.1,13.9-6.7c0,0,0.3-6.5-2.8-11.2c0,0,4.5-2.3,1.1-7.6S353,422.1,353,422.1z"/>
		<path class="st31" d="M376.9,389.8C376.9,389.8,376.9,389.9,376.9,389.8c0,0.5,0,0.9-0.1,1.3c-0.1,0.9-0.3,1.9-0.5,2.8
			c-2.8,13.5-8.1,30.8-8.1,30.8c-3.6,9-18.2,4.4-18.2,4.4s-0.3-19.3-0.6-35.3c-0.2-8-0.4-15.4-0.5-19c-0.2-3.4-0.7-6.8-1.4-10.1
			c-0.8-3.8-1.9-7.6-3.3-11.2l23.3,2.8c1.8,3.5,3.7,7.4,5.3,11.4C375.4,374.8,377.5,382.3,376.9,389.8z"/>
		<path class="st32" d="M376.8,391.1c-0.1,0.9-0.3,1.9-0.5,2.8c-0.7,3.2-1.5,6.5-2.3,9.9c-2.7,10.8-5.8,21-5.8,21
			c-3.6,9-18.2,4.4-18.2,4.4s-0.2-12.4-0.4-25.6c-0.1-3.3-0.1-6.6-0.2-9.7c1.2,1.5,5,4.3,15.2,3.5
			C374,396.6,376.3,393.1,376.8,391.1z"/>
		<path class="st33" d="M376.8,391.1c-0.1,0.9-0.3,1.9-0.5,2.8c-0.7,3.2-1.5,6.5-2.3,9.9c-13.4,5.2-20.9,2.4-24.5-0.2
			c-0.1-3.3-0.1-6.6-0.2-9.7c1.2,1.5,5,4.3,15.2,3.5C374,396.6,376.3,393.1,376.8,391.1z"/>
		<path class="st23" d="M372.6,367.9c-9.1,1.4-19.1-1.1-25.2-3c-0.8-3.8-1.9-7.6-3.3-11.2l23.3,2.8C369.1,360,371,363.8,372.6,367.9
			z"/>
		<path class="st34" d="M302.3,290.2c0,0,3.4,15,2.1,36.2c0,0-1.1,14.6-3.1,22c0,0,10.1,10.5,33.9,8.5l-0.3-0.4
			c0,0,4.2,4.2,20.5,4.5s24.6-7,24.6-7s-1,0.3-2.5-9.7s2.2-49.1-1-60.4s0.6,0.6,0.6,0.6L302.3,290.2z"/>
		<path class="st30" d="M324.2,312.9c0,0,10.9,2.4,17.5,10.8"/>
		<path class="st31" d="M231.4,197.3c0,0-2.7,49.6,28,55.7c0,0,10.7-2.9,18.7-19.1c0,0-3.2-13.5-15.6-14.3l-4,4.2
			c0,0-7.4-9.5-9.5-25.4c-1.2-4.5-2.2-9.1-2.9-13.7"/>
		<path class="st31" d="M246.2,189.6c0,0,5.9-8.4-1.7-13s-10.4-7.4-14.1-12c0,0-4.1-2.5-6.3,1.4s1.3,8.1,5.3,9.9
			c0,0-1.1,5.5-7.9,1.1s-14.4-12.2-22-10.2c0,0-2.4,1.3-1.3,3.4c0,0-6.7,2.8-1.6,10.2c0,0-2.1,5,6,9.3c0,0,0.1,5.8,16.4,8.8
			s18.4-3.5,18.4-3.5"/>
		<path class="st31" d="M202.8,189.6c0,0-1-2.8,2.6-4.5s10.5,4.6,15.6,5.2"/>
		<path class="st31" d="M196.4,181.4c0.4-2.1,2.2-3.7,4.4-3.6c3.8-0.1,13.4,7.9,20.7,9.7"/>
		<path class="st31" d="M196.9,170.9c0,0,2.1-2.1,5.9,0.6s14.1,9.4,18.3,9.9"/>
		<path class="st35" d="M275.8,203.6c-6.1,4.2-11.3,9.5-15.4,15.8l2.5,2.1l15.1,17.8l8.7-10.4"/>
		<path class="st35" d="M274.4,211.3c0,0,26.1,44,24.7,66.2c0,0-0.3,1.8-3.5,3.1s2,3,5.2,5.3s-5.5,1.3-0.7,4.9
			c0,0,18.8,10.1,50.6,4.8s25.4-11.1,25.8-15.1c0,0,7.4-1.5,4.8-5.7s-6.9-28-15.4-42.6s-13.7-43.2-26.5-53.8c0,0-5.3-10.2-25,4.8
			c0,0-3.5,11.1-21.3,11.9c0,0-12.2-0.8-20,9.4"/>
		<path class="st35" d="M344.6,183.9c0,0,8,9.9,9,57.4c0,0-24-5.1-30.7-4.4l-0.6-30.1"/>
		<path class="st31" d="M283.8,208.5c0,0,5.5,0,13.9,18.9s17.5,28.4,28.4,35.5s18.9,12.4,22.3,5.7s6.5-18.7,4.4-30.3
			c0,0-7.4-1.9-11.1-0.4c0,0-5-6.3-19.4-14.7s-20.6-25-20.6-25"/>
		<path class="st31" d="M289.8,213.1c-2.8-3.2-5-2.8-5-2.8c-9,1.7-20.7-5.5-24.3-11.4s-0.7-8.8-0.7-8.8c-3.5-9,2.8-10,2.8-10
			c0.8-5.5,4.6-3.6,4.6-3.6c1.4-4.5,4.1-1.7,4.1-1.7s4.1,13.2,22.2,16.2c0,0,3.9-0.8,0.1-6.2s-9.8-5.3-6.5-10.4s12.8,6,12.8,6
			s5.6,8.3,1.5,16.1c0,0,0.2,2,2.8,7.1"/>
		<path class="st31" d="M268.4,174.3c0,0-2.9,4.5,1.7,10.2c3,3.6,6.6,6.7,10.6,9"/>
		<path class="st31" d="M263.6,177.2c0,0-3.8,6.4,5.3,14s9.3,6.3,9.3,6.3"/>
		<path class="st31" d="M258.7,186.1c0,0-0.7,5.2,6.5,10.4s9.1,6.3,9.1,6.3"/>
		<path class="st36" d="M267.1,259.2c0,29.8-30.4,62.8-73.1,62.8s-81.9-31.7-81.9-61.4c0-0.7,0-1.4,0-2s0.1-1.2,0.2-1.8
			c2.9-8.5,36.4-15.2,77.3-15.2c42,0,76.1,7.1,77.5,15.9v0.8C267.1,258.6,267.1,258.9,267.1,259.2z"/>
		<path class="st31" d="M258.6,223.8c0,0,6.3,2,5.8,13.5"/>
		<path class="st37" d="M267.1,258c0,0.1,0,0.2,0,0.3c-0.8,8.9-35.2,16.1-77.5,16.1c-41.8,0-75.9-7-77.5-15.8c0-0.2,0-0.4,0-0.6
			c0-0.4,0.1-0.8,0.2-1.2c2.9-8.5,36.4-15.2,77.3-15.2c42,0,76.1,7.1,77.5,15.9C267.1,257.6,267.1,257.8,267.1,258z"/>
		<path class="st38" d="M251.4,255.3c0,5.4-25.3,9.8-56.6,9.8c-9.8,0-19-0.4-27-1.2c-4.5-0.4-8.7-1-12.3-1.6
			c-10.6-1.8-17.2-4.3-17.2-7.1s6.6-5.3,17.2-7c3.7-0.6,7.8-1.1,12.3-1.6c8-0.8,17.2-1.2,27-1.2
			C226.1,245.5,251.4,249.9,251.4,255.3z"/>
		<path class="st39" d="M120.5,246v14.3c0,0.9,4.6,1.7,10.4,1.7s10.4-0.8,10.4-1.7V246H120.5z"/>
		<ellipse class="st40" cx="130.9" cy="246" rx="10.4" ry="1.7"/>
		<path class="st41" d="M169.1,200.2c0-6.3-5.1-11.5-11.5-11.5h-21c-6.3,0-11.5,5.1-11.5,11.5l0,0l0,0v45.7l0,0
			c0,0.5,2.6,0.9,5.8,0.9c3.2,0,5.8-0.4,5.8-0.9l0,0v-44.1c0-0.9,0.7-1.7,1.6-1.7c0,0,0,0,0,0h14c1.5,0,2.7,1.2,2.7,2.7c0,0,0,0,0,0
			v10h14L169.1,200.2L169.1,200.2z"/>
		<path class="st39" d="M154.3,211.5h16.2c0.8,0,1.4,0.6,1.4,1.4v0.8c0,0.8-0.6,1.4-1.4,1.4h-16.2c-0.8,0-1.4-0.6-1.4-1.4v-0.8
			C153,212.1,153.6,211.5,154.3,211.5z"/>
		<polyline class="st36" points="142.6,273.9 142.6,448.2 112.9,443.7 112.2,265.3 		"/>
		<path class="st42" d="M142.8,271c0,0,3.8,29.4,20.9,46v120.5l-21,10.6L142.8,271z"/>
		<path class="st43" d="M168.1,215.2v48.7c-4.5-0.4-8.7-1-12.3-1.6v-47.1H168.1z"/>
		<path class="st44" d="M292.5,133.8c-2.3,2.5-5.5,3.9-8.9,3.7c-5.8,0-10.5-3.6-10.5-7.9c0-0.2,0-0.5,0-0.7
			c0.5,4.1,5.4,7.3,11.3,7.3C287.3,136.1,290.1,135.3,292.5,133.8z"/>
		<path class="st44" d="M237.3,144.8c2.7,1.3,5.9,1.2,8.6-0.1c4.6-2.2,6.8-7.1,5-10.9c-0.1-0.2-0.2-0.4-0.3-0.6
			c1.3,3.7-1.2,8.3-5.9,10.6C242.4,144.9,239.8,145.2,237.3,144.8z"/>
		<path class="st45" d="M252.4,177.6c-0.8,0-1.6,0.2-2.4,0.7c0-0.4,0.1-0.8,0.1-1.2c0-3.9-2.5-7-5.5-7c-2.3,0-4.2,1.7-5.1,4.2
			c-0.9-1.4-2.4-2.2-4.1-2.2c-3.1,0-5.5,3.1-5.5,7c0,0.3,0,0.6,0,0.9c-0.9-1.5-2.5-2.5-4.3-2.6c-3.1,0-5.5,3.1-5.5,7s2.5,7,5.5,7
			c1.2,0,2.4-0.5,3.2-1.3c0.7,2.8,2.8,4.7,5.2,4.7c0.3,0,0.7,0,1-0.1c0.2,3.7,3.9,6.6,8.3,6.6c4.6,0,8.3-3.1,8.3-7
			c0-1.1-0.3-2.1-0.8-3c0.5,0.2,1,0.2,1.5,0.3c3.1,0,5.5-3.1,5.5-7S255.5,177.6,252.4,177.6z"/>
		<path class="st45" d="M295.4,182.4c-0.4,0-0.8,0.1-1.1,0.3c0-0.2,0-0.4,0-0.6c0-1.9-1.2-3.4-2.6-3.4c-1.2,0.1-2.1,0.9-2.4,2
			c-0.4-0.7-1.2-1-1.9-1.1c-1.5,0-2.6,1.5-2.6,3.4c0,0.2,0,0.3,0,0.5c-0.4-0.7-1.2-1.2-2.1-1.2c-1.5,0-2.6,1.5-2.6,3.4
			s1.2,3.4,2.6,3.4c0.6,0,1.1-0.2,1.5-0.6c0.2,1.2,1.3,2.2,2.5,2.3c0.2,0,0.3,0,0.5,0c0.3,1.9,2,3.3,4,3.2c2.2,0,4-1.5,4-3.4
			c0-0.5-0.1-1-0.4-1.4c0.2,0.1,0.5,0.1,0.7,0.1c1.5,0,2.6-1.5,2.6-3.4S296.8,182.4,295.4,182.4z"/>
		<path class="st45" d="M301.2,163.9c-0.2,0-0.5,0.1-0.7,0.2c0-0.1,0-0.2,0-0.3c0.1-1-0.6-1.9-1.5-2c0,0,0,0,0,0
			c-0.7,0.1-1.3,0.6-1.4,1.3c-0.3-0.4-0.7-0.6-1.1-0.6c-1,0.1-1.6,1-1.5,1.9c0,0.1,0,0.2,0,0.3c-0.3-0.4-0.7-0.7-1.2-0.7
			c-1.1,0.3-1.7,1.3-1.5,2.4c0.2,0.7,0.7,1.3,1.5,1.5c0.3,0,0.7-0.1,0.9-0.4c0.1,0.7,0.7,1.3,1.5,1.3c0.1,0,0.2,0,0.3,0
			c0.3,1.3,1.5,2.1,2.8,1.8c0.9-0.2,1.6-1,1.8-1.9c0-0.3-0.1-0.6-0.2-0.8c0.1,0,0.3,0.1,0.4,0.1c1.1-0.2,1.8-1.3,1.5-2.4
			C302.5,164.7,301.9,164.1,301.2,163.9L301.2,163.9z"/>
		<path class="st46" d="M224.2,205.1c0,0-5.6,6.7-1.4,13.7S230.4,214.1,224.2,205.1z"/>
		<path class="st47" d="M238.2,245.3c-4.8-0.8-9.7-1-14.6-0.5c-0.8,0-1.6,0.3-2.2,0.8c-1,1-0.3,2.9,0.9,3.6c1.3,0.6,2.7,1,4.1,1.1
			c1.4,0.3,2.9,0.8,3.5,2.1c0.3,0.8,0.3,1.7,0,2.5c-0.3,1.1-0.8,2.1-1.6,3c-0.4,0.4-0.7,0.9-0.9,1.4c-0.4,1.5,1.7,2.7,3.2,2.1
			s2.3-2.2,3-3.5s1.9-2.9,3.4-3.1c1,1.5-1,3.7,0.1,5.1c0.6,0.8,1.8,0.8,2.8,0.6l13.2-1.6c-0.6,2.1-3.2,2.8-5.3,3.2s-4.7,1.3-5.1,3.4
			c5.8,2,12.1-1,17.5-4c1.3-0.7,2.8-1.7,2.8-3.2c0-2-2.4-3-4.4-3.3s-4.4-1.4-4.3-3.4c0.1-0.5,0.2-1,0.1-1.6c-0.2-0.6-0.8-1-1.4-1.3
			c-6.5-3-13.5-4.6-20.6-4.8"/>
		<path class="st47" d="M186.2,255.4c-0.4,1-0.8,2.2-0.1,3.1c0.3,0.4,0.8,0.6,1.2,0.8c1.7,0.6,3.5,0.8,5.3,0.6c0.5,0,1-0.2,1.5-0.5
			c0.8-0.7,1.2-1.7,1-2.8c-0.1-2-1.9-8.3-4.4-8.5S187,253.5,186.2,255.4z"/>
		<path class="st46" d="M266.8,192.5c0,0-12.2,12.8-1.7,14C275,207.6,266.8,192.5,266.8,192.5z"/>
		<path class="st48" d="M299.1,277.4c0,0,2.5,11.5,38.1,11.8"/>
		<path class="st49" d="M299.6,277.3c0.3,0.7,0.7,1.4,1.2,2c0.3,0.3,0.5,0.6,0.8,0.9c0.3,0.3,0.6,0.6,0.9,0.8c1.3,1.1,2.8,2,4.3,2.7
			c3.1,1.4,6.4,2.5,9.8,3.2c3.4,0.7,6.8,1.2,10.2,1.5c1.7,0.1,3.5,0.4,5.2,0.4l5.2,0.2l-5.2-0.1c-1.7,0-3.5-0.2-5.2-0.3
			c-3.5-0.2-6.9-0.7-10.3-1.3c-3.4-0.6-6.8-1.6-10-3c-1.6-0.7-3.1-1.6-4.5-2.7c-0.4-0.3-0.7-0.6-1-0.9c-0.3-0.3-0.6-0.6-0.9-1
			c-0.6-0.7-1.1-1.5-1.4-2.4L299.6,277.3z"/>
		<path class="st50" d="M188.1,275.8c0,0,58,3.1,77.7-12.3c0,0-6.5,51.3-68.4,56.9c0,0,37.8-17.9,27.8-28.9S188.1,275.8,188.1,275.8
			z"/>
		<path class="st51" d="M139.6,318.6v126.2l-24-4.2C115.6,440.6,137,427.1,139.6,318.6z"/>
		<polygon class="st52" points="128.8,248 128.8,261.5 134,261.5 134,248 		"/>
		<path class="st53" d="M128.8,246.5v-46.4c0-3.1,2.5-5.6,5.6-5.6h24c3.1,0,5.6,2.5,5.6,5.6v0v10.8"/>
		<path class="st54" d="M135.9,246v-43.4c0-1.2,1-2.2,2.2-2.2c0,0,0,0,0,0h15.1c1.2,0,2.2,1,2.2,2.2c0,0,0,0,0,0v8.8"/>
	</g>
</g>
<path class="st55" d="M167.8,38.5c0.7,0.4,0.2,0.1-0.3-0.3c-0.5-0.4-1-0.8-1.6-1c-0.9-0.4-1.8-0.8-2.8-1.1c-2.2-0.4-4.5-0.7-6.8-0.7
	c-5.2-0.3-9.9,2-14.4,4.7c-4,2.5-7.5,5.7-10.4,9.4c-1.7,2.2-3,4.7-3.8,7.3c-0.4,1.2-0.7,2.4-0.7,3.6c0.1,1.1,0.3,2.1,0.5,3.2
	c0,1.4,1.1,2.6,2.5,2.6c0.5,0,0.9-0.1,1.3-0.3c0.6-0.3,2-0.4,2.8-0.8c0.8-0.4,1.5-0.8,2.2-1.3c0.4-0.3,3.5-2.7,1.2-1.3
	c1.5-0.8,2.9-1.8,4.2-2.9c1.1-1,2.3-1.9,3.6-2.7c1.6-1,3.1-2.1,4.7-3c3.7-2.3,5.9-2.8,9.6-5.4c2.3-1.7,6.3-2.8,8.1-5.4
	c1.3-0.9,1.6-2.6,0.7-3.9C168.4,38.9,168.1,38.7,167.8,38.5z"/>
<path class="st56" d="M288.8,386c5.6,1.8,11.9,1.6,17.7,1.5c2.9-0.1,5.9-0.3,8.8-0.8c3-0.4,6.4-0.9,9-2.2c1.8-0.9,2.5-3,1.7-4.8
	c-0.5-1.1-1.5-1.8-2.7-2c-2.8-0.4-5.6-0.5-8.4-0.3c-2.9,0-5.8,0.1-8.6,0.4L288.8,386z"/>
<path class="st56" d="M360.5,364.3c-0.1-0.2-0.3-0.4-0.4-0.5c-1-0.7-2.2-1-3.4-0.7c-4.3,0.8-7,3.3-10.3,5.6c-2.5,1.8-5.9,2.6-8.7,4
	c-3.3,1.5-6.5,3.3-7.5,6.6c-0.4,1.2,0,2.6,1,3.4c2.9,2.5,6.9,2.4,10.6,1.6c3.5-0.7,6.9-2,10.1-3.6c5.4-3,11.2-9.6,9-15.6
	C360.7,364.8,360.6,364.6,360.5,364.3z"/>
<path class="st57" d="M357.8,65.8c-5.4-3.3-11.2-5.8-17.3-7.3c-10.8-3-22-4.1-33.1-4.9c-17-1.9-34.1-2.8-51.2-2.8
	c-19.8-0.2-39.6,0.7-59.4,2.7c-16.1,1.6-32.5,3.8-48.2,8.2h-0.1c-0.1,0-0.2,0-0.2,0.1l-0.5,0.2c-5.2,1.5-10.5,3.5-12.9,9
	c-2.1,4.9-2,10.4,0.1,15.3c5,12,19.3,15.2,30.3,16.7c14.1,2,28.6,2,42.9,2.3s28.8,0.1,43.2-0.4c28.8-1,57.6-3.6,86.2-7.9
	c6.3-1,12.6-2.2,18.4-4.8c5.1-2.3,11-6,10.9-12.6C366.9,73.6,362.3,68.8,357.8,65.8z"/>
</svg>
