<?xml version="1.0" encoding="utf-8"?>
<!-- Generator: Adobe Illustrator 25.2.3, SVG Export Plug-In . SVG Version: 6.00 Build 0)  -->
<svg version="1.1" id="Layer_1" xmlns="http://www.w3.org/2000/svg" xmlns:xlink="http://www.w3.org/1999/xlink" x="0px" y="0px"
	 viewBox="0 0 490 425" style="enable-background:new 0 0 490 425;" xml:space="preserve">
<style type="text/css">
	.st0{fill:#78EFE9;}
	.st1{fill:#0072AB;}
	.st2{fill:#74879E;}
	.st3{clip-path:url(#SVGID_2_);}
	.st4{fill:url(#SVGID_3_);}
	.st5{fill:url(#SVGID_4_);}
	.st6{fill:#73DD47;}
	.st7{opacity:0.3;}
	.st8{fill:#84E75A;}
	.st9{opacity:0.5;fill:#5F8337;enable-background:new    ;}
	.st10{fill:#1C8E16;}
	.st11{fill:#709B6D;}
	.st12{fill:#CC773E;}
	.st13{fill:#904E27;}
	.st14{fill:#7C3F29;}
	.st15{fill:#8C4D23;}
	.st16{fill:#723B17;}
	.st17{opacity:0.61;}
	.st18{fill:#666666;}
	.st19{fill:#1A1A1A;}
	.st20{fill:#E6E6E6;}
	.st21{fill:#439C3D;}
	.st22{fill:#2BB51C;}
	.st23{fill:#308C1F;}
	.st24{opacity:0.22;enable-background:new    ;}
	.st25{fill:#935838;}
	.st26{fill:#73C140;}
	.st27{fill:#E2A861;}
	.st28{opacity:0.15;fill:#632006;enable-background:new    ;}
	.st29{fill:#CE8842;}
	.st30{fill:#FFC200;}
	.st31{fill:#FFEB97;}
	.st32{fill:#F9DAD2;stroke:#7F430D;stroke-width:0.75;stroke-miterlimit:10;}
	.st33{fill:#F94367;stroke:#323232;stroke-miterlimit:10;}
	.st34{fill:#FFF8B3;stroke:#323232;stroke-miterlimit:10;}
	.st35{fill:#FF3B61;stroke:#323232;stroke-miterlimit:10;}
	.st36{fill:#C61738;stroke:#323232;stroke-miterlimit:10;}
	.st37{fill:#EDC4BC;}
	.st38{fill:#B0F4F7;}
	.st39{fill:#A4F3F7;}
	.st40{fill:#342516;}
	.st41{fill:#FE66CA;stroke:#80059E;stroke-miterlimit:10;}
	.st42{fill:#D848AC;}
	.st43{fill:#FFFA71;stroke:#9B9527;stroke-width:2;stroke-miterlimit:10;}
	.st44{fill:#F9DAD2;}
	.st45{fill:#7F430D;}
	.st46{fill:#EAB8AD;}
	.st47{fill:#E8D860;stroke:#BAA83A;stroke-miterlimit:10;}
	.st48{fill:#FF3B61;}
	.st49{opacity:0.11;fill:#66000C;enable-background:new    ;}
	.st50{opacity:0.15;fill:#66000C;enable-background:new    ;}
	.st51{fill:#FF7189;}
	.st52{fill:#843313;}
	.st53{fill:#54C9DD;}
	.st54{fill:#9B3D0A;}
	.st55{fill:#FFA95C;}
	.st56{fill:#BA5817;}
	.st57{opacity:0.15;fill:#990000;enable-background:new    ;}
	.st58{opacity:0.28;fill:#F9DAD2;stroke:#7F430D;stroke-width:0.75;stroke-miterlimit:10;enable-background:new    ;}
	.st59{fill:#BA8313;}
	.st60{fill:#F86909;}
	.st61{fill:#E8BAB1;}
	.st62{fill:#A55819;}
	.st63{fill:#EF4B3B;}
	.st64{fill:#FE66CA;stroke:#AF1086;stroke-width:0.75;stroke-miterlimit:10;}
	.st65{fill:#FFFA71;}
	.st66{fill:#CC0098;}
	.st67{fill:#E852BB;stroke:#AF1086;stroke-width:0.75;stroke-miterlimit:10;}
	.st68{fill:#FFFFFF;stroke:#3D2D16;stroke-width:0.5;stroke-miterlimit:10;}
	.st69{fill:#3D2D16;}
	.st70{fill:#FFFFFF;}
	.st71{fill:#8C3D35;}
	.st72{fill:#F9988F;}
	.st73{fill:#F58778;}
	.st74{fill:#FFF7F4;}
	.st75{fill:#D26653;}
	.st76{opacity:0.53;fill:#FFFFFF;enable-background:new    ;}
	.st77{opacity:0.33;fill:#FFFFFF;enable-background:new    ;}
	.st78{opacity:0.15;fill:#FFFFFF;enable-background:new    ;}
</style>
<polygon class="st0" points="359.8,13.6 130.2,13.6 15.3,212.5 130.2,411.4 359.8,411.4 474.7,212.5 "/>
<polygon class="st1" points="353.3,24.9 136.7,24.9 28.3,212.5 136.7,400.1 353.3,400.1 461.7,212.5 "/>
<polygon class="st2" points="351.5,28 138.5,28 32,212.5 138.5,397 351.5,397 458,212.5 "/>
<g>
	<defs>
		<polygon id="SVGID_1_" points="353.3,24.9 136.7,24.9 28.3,212.5 136.7,400.1 353.3,400.1 461.7,212.5 		"/>
	</defs>
	<clipPath id="SVGID_2_">
		<use xlink:href="#SVGID_1_"  style="overflow:visible;"/>
	</clipPath>
	<g class="st3">
		
			<linearGradient id="SVGID_3_" gradientUnits="userSpaceOnUse" x1="136.0305" y1="-111.3201" x2="267.7005" y2="539.59" gradientTransform="matrix(1 0 0 -1 0 426)">
			<stop  offset="0.2" style="stop-color:#C5F7FD"/>
			<stop  offset="0.34" style="stop-color:#B3F0FD"/>
			<stop  offset="0.66" style="stop-color:#8EE1FD"/>
			<stop  offset="0.83" style="stop-color:#80DBFD"/>
		</linearGradient>
		<rect x="-204.7" y="-66.3" class="st4" width="861.1" height="319.6"/>
		
			<linearGradient id="SVGID_4_" gradientUnits="userSpaceOnUse" x1="470.502" y1="381.948" x2="505.132" y2="416.598" gradientTransform="matrix(1 0 0 -1 0 426)">
			<stop  offset="0.17" style="stop-color:#83DCFD"/>
			<stop  offset="0.9" style="stop-color:#D7EEF4"/>
		</linearGradient>
		<path class="st5" d="M470,24.5c0,0,0.7-5.1,9.5-8.6s16.1-5.4,23.7-1.4s6,13.2,4.4,14.3c-3.1,2.1-9.9,4.8-27.9,2.2
			C468.9,29.3,470,24.5,470,24.5z"/>
		<path class="st6" d="M498.3,175.4c-28.3,7.3-57.3,19.2-85.8,21.1c-37.3,2.5-74.3,11.1-111.6,13.1c-38.3,2.1-75.4,1.6-113.7-2.8
			c-33.1-3.8-66.4-0.4-99.5-4.1c-34-3.9-67.4-17.2-101.4-20.6c-24.4-2.4-48.7-6.2-72.7-11.4c-20.1-4.3-39.3-15.5-59.3-19.7
			c-18.9-4.1-38.7-11-57.8-11.8v390.7h858.2V120.2c-24.5,7.6-48.3,17.1-71.2,28.6C556,162.7,526.6,168.1,498.3,175.4z"/>
		<g class="st7">
			<path class="st8" d="M591.8,245.9c-3,2-6,4-9.1,6c-12.3,8-25.6,14.3-39.6,18.8c-29.4,9.3-62,9.4-90.5,21.2
				c17.2,2.4,34.9,1.2,52.2-0.2c12.1-1,24.2-1.7,36.2-2.6c9.4-0.8,18.8-1.6,28.2-1.7c7-0.1,16.8-0.5,22.7,3.3
				c4.8,3.1,3.1,7.9-0.1,11.4c-5.1,5.7-12.7,9.8-19.9,13.3c-9.7,4.7-19.7,8.5-30,11.4c-9.8,2.8-20,5.2-30.4,5.8
				c-6.8,0.4-15.1,0.4-20.9-3.4c-0.2-0.1-0.3-0.4-0.2-0.7c0-0.1,0.1-0.1,0.1-0.1c6.4-6.6,18.6-6.6,24.1-13.9
				c-13.4-4.8-29.5-2.2-43.4-1c-17.5,1.5-35.1,3.4-52.8,3.9c-37.4,1-74.2-8.1-111.7-7.5c-19.5,0.3-38.9,1.1-58.4,1.4
				c-19.3,0.2-38.6,0.1-57.9-0.4c-14.2-0.4-28.5-0.2-42.7-1c-12.5-0.8-26.2-2.3-36.5-9c-0.3-0.1-0.4-0.4-0.3-0.6
				c0.1-0.2,0.3-0.4,0.5-0.4c1.2-0.3,2.4-0.6,3.6-0.8c8.2-1.3,16.5-0.3,24.7,0c9.3,0.4,18.6-0.6,27.9-1.5c9.4-0.9,18.8-2,28.2-2.7
				c4.5-0.3,9-0.4,13.5-0.4c-7.9-0.5-15.8-1-23.7-1.7c-33.2-2.9-66.4-0.3-99.5-3.1c-34-2.9-67.4-12.8-101.4-15.4
				c-24.5-1.9-48.3-4.6-72.7-8.5c-20.1-3.2-39.3-11.6-59.3-14.7c-19-3-38.7-8.3-57.9-8.8v6.9c3.9,0.3,7.8,0.7,11.7,1.1
				c36.7,4.5,71.8,15.8,107.5,24.3c8.9,2.1,17.8,4.1,26.9,5.5c8.5,1.2,17.1,2,25.6,2.2c14,0.6,29.4,1.3,41.6,8
				c0.2,0.1,0.4,0.4,0.2,0.7c0,0.1-0.1,0.2-0.2,0.2c-7.2,3.2-15.3,4.3-23.2,4.7c-15.1,0.8-30.2-0.7-45.3-0.7
				c-17.2,0-34,3.5-50.7,6.9c-9.4,1.9-18.8,4.2-28.2,5.7c-6.1,1-12.4,1.4-18.5,2.2c-6.6,0.9-13.6,2-19.6,4.8
				c-1.6,0.7-3.1,1.6-4.5,2.7c-1.2,1-1.3,1-0.2,2c1.3,1.3,2.8,2.4,4.5,3.2c9,4.6,20.5,5.3,30.7,5.7c11.4,0.4,22.7,0.1,34.1,0
				c10-0.1,19.9,0.8,30,1.1c12.2,0.3,26.7,0.2,37.2,6.3c0.2,0.1,0.4,0.4,0.2,0.6c0,0,0,0,0,0.1c-2.8,4.5-7,5.1-12.4,5.6
				c-4.9,0.4-9.7,1.6-14.6,2.4c-4.2,0.6-8.4,1.1-12.6,1.6c-9.5,1-19,1.7-28.6,2.4c-19.5,1.4-38.6,3.6-57.9,6.4
				c-11.2,1.6-22.4,3-33.7,3.9V534h858.4V228C632.4,232.8,611.9,238.8,591.8,245.9z"/>
		</g>
		<path class="st9" d="M245.6,317.4c-0.9,0-2.2,0-3.5,0.1c-2.4,0.1-4.6,0.4-5.2,1c-0.1,0.1-0.1,0.1,0.1,0.2
			c2.4,1.1,7.2,0.8,10.4,0.6c1.2,0,7.8-0.2,7.4-1.1S247.5,317.4,245.6,317.4z"/>
		<path class="st9" d="M285,313.6c-0.8-0.8-5.7-0.4-7.2-0.4c-0.7,0-2.2,0-3.5,0.1h-1.1c-0.7,0-2.9,0.4-1.7,0.8
			c1.6,0.4,3.3,0.5,5,0.4c1.7,0,3.4-0.1,5.1-0.2c1,0,2-0.1,3-0.4C284.9,314,285.2,313.8,285,313.6z"/>
		<path class="st9" d="M14.2,345.7c-0.9,0-2.2,0-3.5,0.1c-2.4,0.1-4.6,0.4-5.2,1c-0.1,0.1,0,0.1,0.1,0.2c2.4,1.1,7.2,0.8,10.4,0.6
			c1.2,0,7.8-0.2,7.5-1.1S16.1,345.7,14.2,345.7z"/>
		<path class="st9" d="M53.8,348.7c-0.8-0.8-5.7-0.4-7.3-0.4c-0.7,0-2.2,0-3.5,0.1c-0.4,0-0.7,0-1.1,0.1c-0.7,0-2.9,0.4-1.7,0.8
			c1.6,0.3,3.3,0.5,5,0.4c1.7,0,3.4-0.1,5.1-0.2c1,0,2-0.1,3-0.4C53.7,349,54,348.9,53.8,348.7z"/>
		<path class="st9" d="M266.9,351.4c-0.6,0-1.5,0-2.4,0.1c-1.7,0.1-3.2,0.3-3.6,0.7c0,0,0,0.1,0,0.1c1.7,0.8,5,0.5,7.3,0.4
			c0.8,0,5.5-0.1,5.2-0.8S268.3,351.4,266.9,351.4z"/>
		<path class="st9" d="M294.6,353.5c-0.6-0.5-4-0.3-5.1-0.3c-0.5,0-1.5,0-2.4,0.1h-0.8c-0.5,0-2,0.3-1.2,0.5
			c1.2,0.2,2.3,0.3,3.5,0.3c1.2,0,2.4,0,3.5-0.1c0.7,0,1.4-0.1,2.1-0.3C294.5,353.7,294.7,353.6,294.6,353.5z"/>
		<path class="st9" d="M414.4,354.9c0,1-13.7,1.8-30.6,1.8s-30.6-0.8-30.6-1.8s13.7-1.8,30.6-1.8S414.4,353.9,414.4,354.9z"/>
		<path class="st10" d="M-205.9,210.6c103.8,4.3,160.6,4.6,215.9,5.9c189.3,4.8,184.9-3.9,290.2,2c68.8,3.9,180.3-6.2,249-1.1
			c12.6,0.9,40.1,3.2,97.6,2.1c5.6-0.1,4.8,7.8,6.1,1.6c3-13.8,2.5-0.3,2.5,1c-0.3,7.2-2.7,2.4-2.2,5.8l-854.2,0.5L-205.9,210.6z"/>
		<path class="st11" d="M-223.8,149.2c-0.5-6.4-15.3-11.6-5.3-16.4c18.6-8.9,59.2-11.7,107.7-5.8c89.9,10.8,128.4-6.3,214.6,6.7
			c15.4,2.3,27.6,4.1,51,2.8c30-1.6,8.5,4.8,76.3-3.7c15.5-1.9,31.1-1.2,46.3,2.1c33.1,7.3,72-1.1,102.4,2.1
			c13.4,1.4,105.4-9.2,113-10c168-17.4,166.2,14,166,15.8c0,0,9.2,0.8,18.4,1.2h0.1c0,0-8.3,51.8-8.3,51.8H-188L-223.8,149.2z"/>
		<polygon class="st12" points="-202,172.1 -202,220 200.6,220 200.6,174.6 		"/>
		<rect x="-202" y="168.1" class="st13" width="402.6" height="7.4"/>
		<rect x="-202" y="164.4" class="st12" width="402.6" height="7.4"/>
		<rect x="29.2" y="184.7" class="st14" width="7.5" height="4.1"/>
		<rect x="33" y="189.9" class="st14" width="7.5" height="4.1"/>
		<rect x="104.8" y="186.8" class="st14" width="7.5" height="4.1"/>
		<rect x="108.6" y="191.9" class="st14" width="7.5" height="4.1"/>
		<rect x="61.3" y="195.6" class="st14" width="7.5" height="4.1"/>
		<rect x="65.1" y="200.8" class="st14" width="7.5" height="4.1"/>
		<rect x="176.9" y="186.8" class="st14" width="7.5" height="4.1"/>
		<rect x="180.6" y="191.9" class="st14" width="7.5" height="4.1"/>
		<polygon class="st12" points="654.9,170.8 654.9,219.6 194.2,217.8 194.2,173.3 		"/>
		<rect x="194.3" y="170.9" class="st15" width="460.7" height="4.2"/>
		<rect x="200.7" y="163.5" class="st12" width="454.3" height="8.3"/>
		<rect x="467.8" y="198.5" class="st16" width="8.6" height="4.1"/>
		<rect x="463.5" y="203.5" class="st16" width="8.6" height="4.1"/>
		<rect x="381.8" y="183.2" class="st16" width="8.6" height="4.1"/>
		<rect x="377.5" y="188.3" class="st16" width="8.6" height="4.1"/>
		<rect x="295.3" y="185.2" class="st16" width="8.6" height="4.1"/>
		<rect x="290.9" y="190.3" class="st16" width="8.6" height="4.1"/>
		<rect x="345.1" y="193.9" class="st16" width="8.6" height="4.1"/>
		<rect x="340.8" y="199" class="st16" width="8.6" height="4.1"/>
		<rect x="212.8" y="185.2" class="st16" width="8.6" height="4.1"/>
		<rect x="208.5" y="190.3" class="st16" width="8.6" height="4.1"/>
		<g class="st17">
			<path class="st18" d="M62,152.7h-5.5v-2.5c0.5-0.3,0.8-0.8,0.8-1.3c0-0.9-0.7-1.6-1.6-1.6c-0.9,0-1.6,0.7-1.6,1.6
				c0,0.6,0.3,1.1,0.8,1.3v2.5H8.5v-2.5c0.5-0.3,0.8-0.8,0.8-1.3c0-0.9-0.7-1.5-1.6-1.5c-0.9,0-1.6,0.7-1.6,1.5
				c0,0.6,0.3,1.1,0.8,1.3v2.5h-46.4v-2.5c0.5-0.3,0.8-0.8,0.8-1.3c0-0.9-0.7-1.5-1.6-1.5c-0.9,0-1.6,0.7-1.6,1.5
				c0,0.6,0.3,1.1,0.8,1.3v2.5h-46.4v-2.5c0.5-0.3,0.8-0.8,0.8-1.3c0-0.9-0.7-1.5-1.6-1.5c-0.9,0-1.6,0.7-1.6,1.5
				c0,0.6,0.3,1.1,0.8,1.3v2.5h-46.4v-2.5c0.5-0.3,0.8-0.8,0.8-1.3c0-0.9-0.7-1.5-1.6-1.5c-0.9,0-1.6,0.7-1.6,1.5
				c0,0.6,0.3,1.1,0.8,1.3v2.5h-46.4v-2.5c0.5-0.3,0.8-0.8,0.8-1.3c0-0.9-0.7-1.5-1.6-1.5c-0.9,0-1.6,0.7-1.6,1.5
				c0,0.5,0.3,1.1,0.8,1.3v2.5h-46.4v-2.5c0.5-0.3,0.8-0.8,0.8-1.3c0-0.9-0.7-1.5-1.6-1.5c-0.9,0-1.6,0.7-1.6,1.5
				c0,0.6,0.3,1.1,0.8,1.3v2.5h-31.2v2.3h31.2v9.8h1.6V155h46.4v9.8h1.6V155h46.4v9.8h1.6V155h46.4v9.8h1.6V155h46.4v9.8h1.6V155
				H6.9v9.8h1.6V155h46.4v9.8h1.6V155H62V152.7z"/>
			<path class="st19" d="M-38.7,154.2v-1.5h-0.8v-2.5c0.5-0.3,0.8-0.8,0.8-1.3c0-0.6-0.4-1.1-0.9-1.4c0.1,0.2,0.1,0.4,0.1,0.6
				c0,0.9-0.7,1.5-1.6,1.5c0,0,0,0,0,0c-0.2,0-0.5,0-0.7-0.1c0.3,0.6,0.8,0.9,1.5,0.9c0.1,0,0.2,0,0.3,0v14.4h0.5V155H6.9v-0.8
				L-38.7,154.2z"/>
			<path class="st19" d="M9.3,152.7H8.5v-2.5c0.5-0.3,0.8-0.8,0.8-1.3c0-0.6-0.4-1.1-0.9-1.4c0.1,0.2,0.1,0.4,0.1,0.6
				c0,0.9-0.7,1.5-1.6,1.5c0,0,0,0,0,0c-0.2,0-0.5,0-0.7-0.1c0.3,0.6,0.8,0.9,1.5,0.9c0.1,0,0.2,0,0.3,0v14.4h0.5V155h46.4v-0.8H9.3
				V152.7z"/>
		</g>
		<g class="st17">
			<path class="st18" d="M383,152.7h-5.5v-2.5c0.5-0.3,0.8-0.8,0.8-1.3c0-0.9-0.7-1.6-1.6-1.6s-1.6,0.7-1.6,1.6l0,0
				c0,0.6,0.3,1.1,0.8,1.3v2.5h-46.4v-2.5c0.5-0.3,0.8-0.8,0.8-1.3c0-0.9-0.7-1.6-1.6-1.6s-1.6,0.7-1.6,1.6l0,0
				c0,0.6,0.3,1.1,0.8,1.3v2.5h-46.4v-2.5c0.5-0.3,0.8-0.8,0.8-1.3c0-0.9-0.7-1.6-1.6-1.6s-1.6,0.7-1.6,1.6l0,0
				c0,0.6,0.3,1.1,0.8,1.3v2.5h-46.4v-2.5c0.5-0.3,0.8-0.8,0.8-1.3c0-0.9-0.7-1.6-1.6-1.6c-0.9,0-1.6,0.7-1.6,1.6
				c0,0.5,0.3,1.1,0.8,1.3v2.5h-46.4v-2.5c0.5-0.3,0.8-0.8,0.8-1.3c0-0.9-0.7-1.6-1.6-1.6c-0.9,0-1.6,0.7-1.6,1.6
				c0,0.6,0.3,1.1,0.8,1.3v2.5h-46.4v-2.5c0.5-0.3,0.8-0.8,0.8-1.3c0-0.9-0.7-1.6-1.6-1.6c-0.9,0-1.6,0.7-1.6,1.6
				c0,0.6,0.3,1.1,0.8,1.3v2.5H89.5v-2.5c0.5-0.3,0.8-0.8,0.8-1.3c0-0.9-0.7-1.6-1.6-1.6c-0.9,0-1.6,0.7-1.6,1.6
				c0,0.6,0.3,1.1,0.8,1.3v2.5H56.7v2.3h31.2v9.8h1.6V155h46.4v9.8h1.6V155h46.4v9.8h1.6V155h46.4v9.8h1.6V155h46.4v9.8h1.6V155
				h46.4v9.8h1.6V155h46.4v9.8h1.6V155h5.5V152.7z"/>
			<path class="st20" d="M183.6,149c0.7,0.6,1.9-0.5,1.3-1.2S182.9,148.4,183.6,149z"/>
			<path class="st20" d="M231.6,149c0.7,0.6,1.9-0.5,1.3-1.2S230.9,148.4,231.6,149z"/>
			<path class="st20" d="M279.6,149c0.7,0.6,1.9-0.5,1.3-1.2S278.9,148.4,279.6,149z"/>
			<path class="st20" d="M135.6,149c0.7,0.6,1.9-0.5,1.3-1.2S134.9,148.4,135.6,149z"/>
			<path class="st19" d="M90.3,152.7h-0.8v-2.5c0.5-0.3,0.8-0.8,0.8-1.3c0-0.6-0.4-1.1-0.9-1.4c0.1,0.2,0.1,0.4,0.1,0.6
				c0,0.9-0.7,1.5-1.6,1.5c0,0,0,0,0,0c-0.2,0-0.5,0-0.7-0.1c0.3,0.6,0.8,0.9,1.5,0.9c0.1,0,0.2,0,0.3,0v14.4h0.5V155h46.4v-0.8
				H90.3V152.7z"/>
			<path class="st19" d="M186.3,154.2v-1.5h-0.8v-2.4c0.7-0.4,1-1.3,0.6-2c-0.2-0.3-0.4-0.6-0.8-0.7c0.1,0.2,0.1,0.4,0.1,0.6
				c0,0.9-0.7,1.5-1.6,1.5c0,0,0,0,0,0c-0.2,0-0.4,0-0.7-0.1c0.3,0.5,0.8,0.9,1.5,0.9c0.1,0,0.2,0,0.3,0v14.4h0.5V155h46.4v-0.8
				L186.3,154.2z"/>
			<path class="st19" d="M234.3,154.2v-1.5h-0.8v-2.4c0.7-0.4,1-1.3,0.6-2c-0.2-0.3-0.4-0.6-0.8-0.7c0.1,0.2,0.1,0.4,0.1,0.6
				c0,0.9-0.7,1.5-1.6,1.5c0,0,0,0,0,0c-0.2,0-0.4,0-0.6-0.1c0.3,0.6,0.8,0.9,1.4,0.9c0.1,0,0.2,0,0.3,0v14.4h0.5V155h46.4v-0.8
				L234.3,154.2z"/>
			<path class="st19" d="M282.3,154.2v-1.5h-0.8v-2.5c0.7-0.4,1-1.3,0.6-2c-0.2-0.3-0.4-0.6-0.8-0.7c0.1,0.2,0.1,0.4,0.1,0.6
				c0,0.9-0.7,1.5-1.6,1.5c0,0,0,0,0,0c-0.2,0-0.5,0-0.7-0.1c0.3,0.6,0.8,0.9,1.5,0.9h0.3v14.4h0.5V155h46.4v-0.8L282.3,154.2z"/>
			<path class="st19" d="M330.3,152.7h-0.8v-2.5c0.7-0.4,1-1.3,0.6-2c-0.2-0.3-0.4-0.6-0.8-0.7c0.1,0.2,0.1,0.4,0.1,0.6
				c0,0.9-0.7,1.5-1.6,1.5c0,0,0,0,0,0c-0.2,0-0.5,0-0.7-0.1c0.3,0.6,0.8,0.9,1.5,0.9c0.1,0,0.2,0,0.3,0v14.4h0.5V155h46.4v-0.8
				h-45.6V152.7z"/>
			<path class="st19" d="M138.3,154.2v-1.5h-0.8v-2.5c0.5-0.3,0.8-0.8,0.8-1.3c0-0.6-0.4-1.1-0.9-1.4c0.1,0.2,0.1,0.4,0.1,0.6
				c0,0.9-0.7,1.5-1.6,1.5c0,0,0,0,0,0c-0.2,0-0.5,0-0.7-0.1c0.3,0.6,0.8,0.9,1.5,0.9c0.1,0,0.2,0,0.3,0v14.4h0.5V155h46.4v-0.8
				L138.3,154.2z"/>
		</g>
		<g class="st17">
			<path class="st18" d="M704,152.7h-5.5v-2.5c0.5-0.3,0.8-0.8,0.8-1.3c0-0.9-0.7-1.6-1.6-1.6c-0.9,0-1.6,0.7-1.6,1.6l0,0
				c0,0.5,0.3,1.1,0.8,1.3v2.5h-46.4v-2.5c0.5-0.3,0.8-0.8,0.8-1.3c0-0.9-0.7-1.6-1.6-1.6c-0.9,0-1.6,0.7-1.6,1.6l0,0
				c0,0.5,0.3,1.1,0.8,1.3v2.5h-46.4v-2.5c0.5-0.3,0.8-0.8,0.8-1.3c0-0.9-0.7-1.6-1.6-1.6c-0.9,0-1.6,0.7-1.6,1.6l0,0
				c0,0.6,0.3,1.1,0.8,1.3v2.5h-46.4v-2.5c0.5-0.3,0.8-0.8,0.8-1.3c0-0.9-0.7-1.6-1.6-1.6c-0.9,0-1.6,0.7-1.6,1.6l0,0
				c0,0.6,0.3,1.1,0.8,1.3v2.5h-46.4v-2.5c0.5-0.3,0.8-0.8,0.8-1.3c0-0.9-0.7-1.6-1.6-1.6s-1.6,0.7-1.6,1.6l0,0
				c0,0.6,0.3,1.1,0.8,1.3v2.5h-46.4v-2.5c0.5-0.3,0.8-0.8,0.8-1.3c0-0.9-0.7-1.6-1.6-1.6s-1.6,0.7-1.6,1.6l0,0
				c0,0.6,0.3,1.1,0.8,1.3v2.5h-46.4v-2.5c0.5-0.3,0.8-0.8,0.8-1.3c0-0.9-0.7-1.6-1.6-1.6s-1.6,0.7-1.6,1.6l0,0
				c0,0.6,0.3,1.1,0.8,1.3v2.5h-31.2v2.3h31.2v9.8h1.6V155h46.4v9.8h1.6V155h46.4v9.8h1.6V155h46.4v9.8h1.6V155h46.4v9.8h1.6V155
				h46.4v9.8h1.6V155h46.4v9.8h1.6V155h5.5V152.7z"/>
			<path class="st20" d="M456.6,149c0.7,0.6,1.9-0.5,1.3-1.2S455.9,148.4,456.6,149z"/>
			<path class="st19" d="M411.3,152.7h-0.8v-2.5c0.7-0.4,1-1.3,0.6-2c-0.2-0.3-0.4-0.6-0.8-0.7c0.1,0.2,0.1,0.4,0.1,0.6
				c0,0.9-0.7,1.5-1.6,1.5c0,0,0,0,0,0c-0.2,0-0.5,0-0.7-0.1c0.3,0.6,0.8,0.9,1.5,0.9h0.3v14.4h0.5V155h46.4v-0.8h-45.6V152.7z"/>
			<path class="st19" d="M459.3,154.2v-1.5h-0.8v-2.5c0.7-0.4,1-1.3,0.6-2c-0.2-0.3-0.4-0.6-0.8-0.7c0.1,0.2,0.2,0.4,0.1,0.6
				c0,0.9-0.7,1.5-1.6,1.5c0,0,0,0,0,0c-0.2,0-0.5,0-0.7-0.1c0.3,0.6,0.8,0.9,1.5,0.9c0.1,0,0.2,0,0.3,0v14.4h0.5V155h46.4v-0.8
				L459.3,154.2z"/>
		</g>
		<path class="st21" d="M81.1,226.5h111.6c0.4-1,0.1-2.1-0.7-2.7c-2.8-3.1-10-2.6-10-2.6s7.1-3.7,2.7-6.1s-10.4-0.4-10.4-0.4
			s5.9-4.6-0.6-7l-0.8-0.3c-3.3-1-6.9-0.7-9.9,0.9c0,0-1-2.5-4.7-3.1c-2.3-0.4-4.7,0.1-6.6,1.5c0,0-1.9-3.5-8.5-3.3
			c-9.1,0.3-9.6,3.9-9.6,3.9c-1.9-1.7-4.4-2.5-6.9-2.4c-3.3,0.4-3.3,3.1-3.3,3.1s-3.4-4.6-14.3-3.2h-0.3c-11.1,1.4-8,6.8-8,6.8
			s-5-1.5-8.7-0.4c-0.6,0.2-1.2,0.4-1.7,0.8c-3.6,2.3,0.4,5.2,0.5,5.3c-0.3,0-6.8-0.8-9.4,2.4C79.3,222.3,79.6,224.8,81.1,226.5z"/>
		<path class="st21" d="M330.1,224.8h283.7v-49.9c-4.9-9.3-20.9-14.8-30-8.2c0,0,2.8-18-17.9-26.5s-35.7,5.8-35.7,5.8
			s-6.8-21.7-32.6-10.4c-8.3-12.5-29.5-11.3-31.7,4.6c0,0-16-19.9-40.5-15.2s-24.8,24.4-24.8,24.4s-0.7-0.4-1.9-1
			c-5.1-2.5-19.9-6.4-33.5,2.2c-15.5,9.9-15.2,19.6-13.9,27.3c0.3,1.7,0.7,3.4,1.2,5.2c0,0-16.5-1.6-25.1,18.3
			C323.1,211.2,326.1,219.3,330.1,224.8z"/>
		<path class="st22" d="M92.8,329.3c0,0,6.5-4.3,19-5.4s-13.4-5.7-22.7,5.4C89.1,329.3,85,334.2,92.8,329.3z"/>
		<path class="st22" d="M75.2,329.9c0,0,19-13.9,30.1-17.6s-10.7-4-25.5,7.6C79.9,319.9,72.4,326.8,75.2,329.9z"/>
		<path class="st22" d="M69.7,329.9c0,0,12.6-22.5,18.3-25.3s-9.1-4.3-18.4,14C69.7,318.6,66,328.3,69.7,329.9z"/>
		<path class="st22" d="M62.9,329.9c0,0,4.9-20.7,9.5-23.7S54.8,309.5,62.9,329.9z"/>
		<path class="st22" d="M60.2,329.9c0,0,0.2-17.2-9.7-19.9S56.2,321.3,60.2,329.9z"/>
		<path class="st22" d="M56.9,329.9c0,0-6.3-19.7-21.5-20.2S47.4,316.9,56.9,329.9z"/>
		<path class="st22" d="M55.6,329.9c-6.1-5.2-14-7.9-22.1-7.4C19.6,323.1,52.2,327.4,55.6,329.9z"/>
		<path class="st22" d="M52,250.5c0,0,5-3.3,14.6-4.1s-10.3-4.4-17.4,4.1C49.2,250.5,46,254.3,52,250.5z"/>
		<path class="st22" d="M38.5,251c0,0,14.5-10.6,23.1-13.5s-8.2-3.1-19.5,5.8C42.1,243.3,36.4,248.6,38.5,251z"/>
		<path class="st22" d="M34.3,251c0,0,9.7-17.3,14.1-19.4s-7-3.3-14.1,10.8C34.3,242.4,31.4,249.8,34.3,251z"/>
		<path class="st22" d="M29.1,251c0,0,3.7-15.8,7.3-18.2S22.9,235.4,29.1,251z"/>
		<path class="st22" d="M27,251c0,0,0.2-13.2-7.5-15.2S24,244.4,27,251z"/>
		<path class="st22" d="M24.5,251c0,0-4.8-15.1-16.5-15.5S17.2,241.1,24.5,251z"/>
		<path class="st22" d="M23.5,251c-4.7-4-10.8-6-16.9-5.7C-4.1,245.8,20.9,249.1,23.5,251z"/>
		<path class="st23" d="M389.5,254.5c0,0,4.6-3.1,13.5-3.8s-9.5-4.1-16.1,3.8C386.9,254.5,383.9,258,389.5,254.5z"/>
		<path class="st23" d="M377,255c0,0,13.5-9.9,21.4-12.5s-7.6-2.9-18.1,5.4C380.3,247.8,375,252.8,377,255z"/>
		<path class="st23" d="M373,255c0,0,9-16,13-18s-6.5-3.1-13,10C373,247,370.4,253.9,373,255z"/>
		<path class="st23" d="M368.2,255c0,0,3.5-14.7,6.8-16.9S362.5,240.5,368.2,255z"/>
		<path class="st23" d="M366.3,255c0,0,0.2-12.2-6.9-14.1S363.5,248.8,366.3,255z"/>
		<path class="st23" d="M364,255c0,0-4.4-14-15.3-14.4S357.2,245.8,364,255z"/>
		<path class="st23" d="M363,255c-4.4-3.7-10-5.6-15.7-5.3C337.5,250.1,360.6,253.2,363,255z"/>
		<ellipse class="st24" cx="153.2" cy="376.8" rx="37.3" ry="12.6"/>
		<ellipse class="st24" cx="304.4" cy="354.6" rx="68.7" ry="12.8"/>
		<path class="st25" d="M44.8,265.3l2.5,48.5c-0.6,1.5-8.8,2.4-10.9-0.1c0-8.8,0.1-11,0.2-21.6c-6.9-1.8-27.9-17-35.9-35.6
			c-0.4-1.7,1.2-2,2-0.4c4.8,9.5,16.5,19.5,21.3,23.3c3.8,2.9,8.3,5.8,12.6,7.5c0.3-29.6,0.9-60.8,1.4-72c0-5.6,3.8-8.5,4.5-0.4
			l2,45.1c1.3-0.6,2.6-1.3,3.8-2.2c3.5-2.5,6.4-5.6,8.6-9.2c5.1-7.6,6.5-16.9,6.7-20.2c0-1.1,2.2-1.3,2.3-0.1
			c0.5,7.3-1,14.7-4.3,21.2C58.5,255.2,53.7,261.7,44.8,265.3z"/>
		<path class="st26" d="M15.8,188c-3.8,3.5-1.5,11.6,5.1,18s15,8.8,18.7,5.3s1.5-11.5-5.1-18S19.6,184.5,15.8,188z"/>
		<path class="st26" d="M58.6,187.4c-3.5-2.4-10.3,0.9-15.2,7.4s-6.1,13.7-2.7,16.1s10.3-1,15.3-7.4S62.1,189.8,58.6,187.4z"/>
		<path class="st26" d="M96.4,238.7c-1.7-5.8-10.7-8.6-20.1-6.2s-15.7,9.1-14.1,15s10.7,8.6,20.1,6.2S98.1,244.6,96.4,238.7z"/>
		<path class="st26" d="M37,248.2c3.9-5.4-0.1-14.4-8.9-20.1s-19-5.9-22.9-0.4s0.1,14.4,8.9,20.1S33.2,253.6,37,248.2z"/>
		<path class="st27" d="M62.8,380.9H17.4c-4.3,0.1-7.9-3.1-8.4-7.3L4.3,324c-0.3-4.5,3.1-8.5,7.6-8.8c0.3,0,0.5,0,0.8,0h54.8
			c4.5-0.1,8.3,3.5,8.4,8c0,0.3,0,0.5,0,0.8l-4.7,49.5C70.7,377.8,67.1,380.9,62.8,380.9z"/>
		<path class="st28" d="M63.9,320.9L58,359.8c-1.6,10.9-8.3,18.9-19.9,18.3l-28.2-1.8H9.8c1.4,2.9,4.4,4.7,7.6,4.7h45.4
			c4.3,0.1,7.9-3.1,8.4-7.3l4.7-49.6C76,322.9,64.3,321.8,63.9,320.9z"/>
		<path class="st29" d="M-6.1,308.3h92.3c0.3,0,0.5,0.2,0.5,0.5V326c0,0.3-0.2,0.5-0.5,0.5H-6.1c-0.3,0-0.5-0.2-0.5-0.5v-17.2
			C-6.6,308.5-6.3,308.3-6.1,308.3z"/>
		<path class="st25" d="M148.4,314.3L146,362c0.6,1.4,8.6,2.4,10.7-0.1c0-8.7-1.1-86.2-1.6-97.2c0-5.5-3.7-8.3-4.5-0.4l-2,44.4
			c-1.3-0.6-2.6-1.3-3.8-2.1c-3.4-2.4-6.3-5.5-8.5-9.1c-2.6-4.2-6.3-2-4.7,0.8C135.2,304.3,139.7,310.8,148.4,314.3z"/>
		<path class="st26" d="M103,289.4c1.6-5.5,10-8.1,18.8-5.8s14.7,8.6,13.2,14s-10,8.1-18.8,5.8S101.4,294.9,103,289.4z"/>
		<path class="st26" d="M156.1,297.5c-3.8-5.3,0.1-14.2,8.7-19.7s18.7-5.8,22.5-0.4s-0.1,14.2-8.7,19.7S159.8,302.9,156.1,297.5z"/>
		<path class="st27" d="M134.5,380.9H173c3.6,0.1,6.7-2.6,7.2-6.2l4-42c0.3-3.9-2.7-7.2-6.5-7.4c-0.2,0-0.4,0-0.6,0h-46.5
			c-3.9-0.1-7.1,3-7.2,6.8c0,0.2,0,0.4,0,0.6l4,42C127.7,378.2,130.8,380.9,134.5,380.9z"/>
		<path class="st28" d="M133.5,329.9l5,33c1.4,9.3,7.1,16,16.9,15.5l24-1.6h0.1c-1.2,2.5-3.7,4-6.5,4h-38.6
			c-3.6,0.1-6.7-2.6-7.2-6.2l-4-42C123.2,331.6,133.2,330.7,133.5,329.9z"/>
		<path class="st29" d="M192.9,334.7h-78.3c-0.3,0-0.5-0.2-0.5-0.5v-14.5c0-0.3,0.2-0.5,0.5-0.5h78.3c0.3,0,0.5,0.2,0.5,0.5v14.5
			C193.4,334.5,193.2,334.7,192.9,334.7z"/>
		<path class="st30" d="M131.8,248.4c-8.6-1.1-14.9-6.4-14.2-12s8.4-9.1,17-8s14.9,6.4,14.2,12S140.4,249.5,131.8,248.4z"/>
		<path class="st30" d="M154.4,263.1c-3.7,7.5-11.1,11.5-16.3,9.1s-6.5-10.4-2.8-17.9s11.1-11.5,16.3-9.1S158.1,255.6,154.4,263.1z"
			/>
		<path class="st30" d="M141,224.6c-1.6-8.1,1.8-15.5,7.6-16.5s11.7,4.8,13.3,12.9s-1.8,15.5-7.6,16.5S142.5,232.7,141,224.6z"/>
		<path class="st30" d="M176.5,250c6.3,5.7,8.1,13.6,4.1,17.6s-12.4,2.7-18.7-3s-8.1-13.6-4.1-17.6S170.3,244.3,176.5,250z"/>
		<path class="st30" d="M167.4,225.5c7.6-3.9,16.1-3.1,18.9,1.8s-1.1,12.1-8.8,16s-16.1,3.1-18.9-1.8S159.8,229.5,167.4,225.5z"/>
		<path class="st31" d="M164,246.3c-2.7,5.1-8.9,7.2-14.1,4.8c-5-2.1-7.4-7.9-5.2-13c0.1-0.2,0.1-0.3,0.2-0.5
			c2.7-5.1,8.9-7.2,14.1-4.8c5,2.1,7.4,8,5.2,13C164.2,246,164.1,246.2,164,246.3z"/>
		<path class="st30" d="M2.3,271.1c-0.9,7.5-6,13.1-11.3,12.5s-8.9-7.2-8-14.7s6-13.1,11.3-12.5S3.2,263.6,2.3,271.1z"/>
		<path class="st30" d="M17.4,253.5c7.2,3.1,11.3,9.5,9,14.1s-9.9,5.9-17.1,2.7s-11.3-9.5-9-14.1S10.1,250.4,17.4,253.5z"/>
		<path class="st30" d="M1.9,234.9c5.4-5.6,12.9-7.3,16.9-3.8s2.8,10.8-2.6,16.3s-12.9,7.3-16.9,3.8S-3.5,240.5,1.9,234.9z"/>
		<path class="st31" d="M5.4,253.9c-0.8,5.2-5.6,8.8-10.8,8.1c-5.1-0.4-9-5-8.5-10.1c0,0,0-0.1,0-0.1c0.8-5.2,5.6-8.8,10.8-8.1
			c5.1,0.4,9,5,8.5,10.1C5.4,253.8,5.4,253.8,5.4,253.9z"/>
		<path class="st32" d="M272.7,327.5c2.7,1,13.9,2,17.4,2.1c1-11.3,5.9-56.1,8-70.8c0.5-3.6,8.8-3.9,9.6,0c0.5,2.4,8.3,57,10.3,71
			c5.8,0.4,11.7-0.3,17.3-2.1c0,0-4.8-95.4-5.4-110c-9.6-1.5-44.1-1.7-54.4-0.1C273.8,232.6,273.9,306,272.7,327.5z"/>
		<path class="st32" d="M237.7,229.4c-0.9,0.8-10.8-9-10-9.9c7.6-7.9,37.1-45.9,38.6-48c0,0,4.5,16,1.2,25
			C264.5,204.9,258.2,210.4,237.7,229.4z"/>
		<path class="st33" d="M291.7,320.8c-1.1-0.1-2.1,0.8-2.1,1.9c0,0,0,0,0,0.1l2.5,0.2c0.1-0.4,0.2-1,0.3-1.8
			C292.1,321,292,320.8,291.7,320.8z M275.6,319.9c-1.1-0.1-2.1,0.8-2.1,1.9c0,0,0,0,0,0l4,0.2C277.5,320.9,276.7,320,275.6,319.9
			C275.6,319.9,275.6,319.9,275.6,319.9z M271.6,319.7c-0.5,0-1.1,0.2-1.5,0.5c0,0.6,0,1.2,0,1.4l3.3,0.2
			C273.6,320.7,272.7,319.8,271.6,319.7C271.6,319.7,271.6,319.7,271.6,319.7L271.6,319.7z M279.7,320.1c-1.1-0.1-2.1,0.8-2.1,1.9
			c0,0,0,0,0,0l4,0.2C281.6,321.2,280.8,320.2,279.7,320.1C279.7,320.1,279.6,320.1,279.7,320.1L279.7,320.1z M283.7,320.4
			c-1.1-0.1-2.1,0.8-2.1,1.9c0,0,0,0,0,0l4,0.2C285.6,321.4,284.8,320.4,283.7,320.4C283.7,320.4,283.7,320.4,283.7,320.4
			L283.7,320.4z M287.7,320.6c-1.1-0.1-2.1,0.8-2.1,1.9c0,0,0,0,0,0l4,0.2C289.6,321.6,288.8,320.7,287.7,320.6
			C287.7,320.6,287.7,320.6,287.7,320.6L287.7,320.6z"/>
		<path class="st34" d="M292.1,322.9l-22-1.3c0,1.4-0.3,6.5-0.4,11.7c-11.9,6.6-26,11.2-25.1,17.2c1.3,7.9,29.8,2,40.6,0.1
			c2.9-0.4,5.2-2.8,5.4-5.8c0-2.3-0.3-4.6-0.9-6.9C290.6,333,291.5,326.9,292.1,322.9z"/>
		<path class="st35" d="M290.7,337c-0.3-0.3-0.9-0.2-1.1,0.1c-3.3,1.7-6.7,3.1-10.3,4.2c-1.1,0.4-2.3,0.6-3.5,0.9
			c-1.1-3.4-4-7.5-6.7-9.1c-0.5-0.3-1.2-0.2-1.6,0.4c0,0,0,0.1,0,0.1c-0.3,0.6-0.1,1.3,0.4,1.7c2.1,1.3,4.4,4.5,5.5,7.3
			c-7.2,0.9-12.7,0.8-15.4-3.8c-8.4,4.9-17.1,6.5-16.9,12.1c0.3,6.9,49.7,0.4,49.7,0.4C290.8,347,290.8,340.7,290.7,337z"/>
		<path class="st36" d="M291,348.6c0,0.9,0,1.8,0,2.6c0,0-42.7,7.8-49.4,1.6c-0.3-0.5-0.4-1.1-0.4-1.7
			C253.1,353.9,280.1,350.3,291,348.6z"/>
		<path class="st33" d="M270,324.8c8.9,0.9,12.7,1,21.6,1.2c0-0.3,0.1-0.6,0.1-0.9c-8.9-0.2-12.7-0.3-21.7-1.2
			C270,324.2,270,324.5,270,324.8z"/>
		<path class="st33" d="M315.3,321.1c0.1,0.7,0.2,1.4,0.3,1.8l2.5-0.2c0-1.1-1-2-2.1-1.9c0,0,0,0-0.1,0
			C315.6,320.8,315.5,321,315.3,321.1z M330.1,322l4-0.2c-0.1-1.1-1-1.9-2.1-1.9C330.9,320,330.1,320.9,330.1,322z M334.1,321.8
			l3.3-0.2c0-0.2,0-0.8,0-1.4c-0.4-0.4-0.9-0.5-1.5-0.5C334.9,319.8,334.1,320.7,334.1,321.8L334.1,321.8z M326.1,322.3l4-0.2
			c-0.1-1.1-1-1.9-2.1-1.9C326.9,320.2,326,321.2,326.1,322.3z M322.1,322.5l4-0.2c-0.1-1.1-1-1.9-2.1-1.9
			C322.9,320.4,322,321.4,322.1,322.5z M318.1,322.7l4-0.2c-0.1-1.1-1-1.9-2.1-1.9S318,321.6,318.1,322.7z"/>
		<path class="st34" d="M337.9,333.3c-0.1-5.2-0.4-10.3-0.4-11.7l-22,1.3c0.6,4,1.5,10.1,2.2,14.9c-0.5,2.3-0.8,4.6-0.9,6.9
			c0.2,3,2.5,5.4,5.4,5.8c10.8,2,39.4,7.9,40.6-0.1C363.9,344.5,349.8,339.9,337.9,333.3z"/>
		<path class="st35" d="M316.9,337c0.3-0.3,0.9-0.2,1.1,0.1c3.3,1.7,6.7,3.1,10.3,4.2c1.1,0.4,2.3,0.6,3.5,0.9
			c1.1-3.4,4-7.5,6.7-9.1c0.5-0.3,1.2-0.2,1.6,0.4c0,0,0,0.1,0,0.1c0.3,0.6,0.1,1.3-0.4,1.7c-2.1,1.3-4.4,4.5-5.5,7.3
			c7.2,0.9,12.7,0.8,15.4-3.8c8.4,4.9,17.1,6.5,16.9,12.1c-0.3,6.9-49.7,0.4-49.7,0.4C316.9,347,316.8,340.7,316.9,337z"/>
		<path class="st36" d="M316.7,348.6c0,0.9,0,1.8,0,2.6c0,0,42.7,7.8,49.4,1.6c0.3-0.5,0.5-1.1,0.4-1.7
			C354.5,353.9,327.5,350.3,316.7,348.6z"/>
		<path class="st33" d="M337.6,324.8c-8.9,0.9-12.7,1-21.6,1.2c0-0.3-0.1-0.6-0.1-0.9c8.9-0.2,12.7-0.3,21.7-1.2
			C337.6,324.2,337.6,324.5,337.6,324.8z"/>
		<path class="st37" d="M256.7,201.9c2.8-1,5.8-1.3,8.6-0.8c-2.6,4.4-6.9,8.9-14.6,16.2c-1.5-0.8-10.3-8.4-11.7-10.9
			c0.4-0.6,0.8-1.1,1.3-1.6c2.6-1.6,5.7-2.6,8.4-2c1.1,0.3,2.2,0.9,3,1.7C253.1,203.4,254.9,202.5,256.7,201.9z"/>
		<path class="st38" d="M177.9,296.6c-0.9,2.2-1.4,4.5-1.7,6.9c-0.2,3.3-3.7,2.7-3.9,0.5C172.1,301.3,175.5,298.3,177.9,296.6z"/>
		<path class="st38" d="M173.1,290.8c-1.4,0.7-2.4,2.8-3.2,4.2c-0.9,1.6-3.4,0.6-2.3-1.3C169,292,171,291,173.1,290.8z"/>
		<path class="st38" d="M185.6,283.6c-1.3,0.9-1.9,3.1-2.5,4.6c-0.7,1.8-3.3,1.2-2.4-0.9C181.7,285.5,183.5,284.1,185.6,283.6z"/>
		<path class="st38" d="M186,276c-1.4,0.7-2.4,2.8-3.2,4.2c-1,1.6-3.4,0.6-2.3-1.3C181.8,277.2,183.8,276.1,186,276z"/>
		<path class="st38" d="M180.7,271c-1.4,0.7-2.4,2.8-3.2,4.2c-1,1.6-3.4,0.6-2.3-1.3C176.5,272.2,178.5,271.1,180.7,271z"/>
		<path class="st38" d="M162.9,302.1c-1.4,2.3-2.6,4.8-3.5,7.3c-0.9,3-4.1,3-3.9,0.3C155.9,305.8,161,303,162.9,302.1z"/>
		<path class="st38" d="M166.2,309.9c-0.6,1.8-0.9,3.7-0.9,5.6c0.2,3.6-3.1,2.8-2.9,0.8C162.7,314,164.3,312.2,166.2,309.9z"/>
		<path class="st38" d="M174.6,279.7c-2.3,0.4-5.5,3.4-7.4,6.3c-1.8,2.7-5.3,1-3.4-2.1C166,280.3,171.3,279.3,174.6,279.7z"/>
		<circle class="st39" cx="169.2" cy="273.3" r="1.5"/>
		<circle class="st38" cx="187.1" cy="300.2" r="2.1"/>
		<path class="st38" d="M153.3,316.9c0,0.8,0.7,1.5,1.5,1.5c0.8,0,1.5-0.7,1.5-1.5c0-0.8-0.7-1.5-1.5-1.5c0,0,0,0,0,0
			C154,315.3,153.3,316,153.3,316.9z"/>
		<path class="st38" d="M174,311.1c0,0.7,0.5,1.2,1.2,1.2s1.2-0.5,1.2-1.2s-0.5-1.2-1.2-1.2S174,310.4,174,311.1L174,311.1z"/>
		<path class="st40" d="M353.3,98.3c-3.4,26.3,12.3,39.6-9,58.2c-8.3,7.2-26.9,7.4-35.2,6.3c-17.6-2.3-15.9-37.1-12.7-62.2
			s13.6-58.6,31.2-56.3S356.9,70.5,353.3,98.3z"/>
		<path class="st40" d="M302.3,137.3c0.7,9.1-4.6,30-18.8,28.1s-33.6-7.7-31.1-26.8c0.7-5.2,4.3-16.6,2.5-26.3
			c-3-16,12.2-22,22.6-20.6C291.6,93.5,300.7,118.1,302.3,137.3z"/>
		<path class="st41" d="M348.2,182.2c0.9,1.7-2.7,5.3-8.1,8s-12.3,6.7-13.2,5s4.7-8.6,10-11.2S347.3,180.5,348.2,182.2z"/>
		<path class="st41" d="M280.8,214.1c0,0-20.3,14.4-22.1,52.3c0,0,16,26.9,55.2,19.4s47-27.3,47-27.3l-3.6-7.9
			c-6.9-15.2-16.9-28.8-29.4-39.8l0,0L280.8,214.1z"/>
		<polygon class="st42" points="284.2,218.5 274.9,254.7 288.6,221.1 		"/>
		<path class="st42" d="M314.9,217.9c7.7,12.2,14.4,25,20,38.4c0,0-7.6-26.8-16.4-41.5"/>
		<path class="st43" d="M330.4,209c0.5,3.6-9.5,10.7-24.9,13s-28.9-0.8-29.4-4.3s11.3-7.2,26.6-9.5S329.9,205.4,330.4,209z"/>
		<path class="st41" d="M286.8,157.1c0,0-9.9-0.1-18.8,9.7c-3.8,4.2-10.2,13.4-13.9,17.2l0.2,0.1c6.3,3.9,11.1,9.7,13.7,16.6l0,0
			l47.2-37.8l-11.3-18.8"/>
		<path class="st41" d="M272.7,181.8c-0.2-1.1,6.1,18.4,4.5,30.1c-0.4,3.2,0.1,10.7,26,7.3c24.5-3.2,28.9-12.9,28.4-15
			c-4.1-16.6-17.1-46.8-17.1-46.8"/>
		<path class="st44" d="M263.1,125.4c-2.1,1-7.8-0.1-11.5-4.5c-11.8-14-3.9-19.8-0.3-19.7c1.6,0.1,10.1,1.4,11.8,10"/>
		<path class="st45" d="M263.1,125.4c-1.1,0.4-2.2,0.6-3.4,0.4c-1.1-0.1-2.3-0.4-3.3-0.9c-2.1-0.9-4-2.3-5.5-4.2
			c-1.5-1.7-2.8-3.6-3.9-5.6c-1.2-2-1.9-4.3-2.1-6.6c-0.1-1.2,0.1-2.4,0.6-3.5c0.5-1.1,1.2-2.1,2.2-2.8c0.9-0.8,2.1-1.2,3.3-1.3
			c1.2,0.1,2.3,0.3,3.4,0.7c2.2,0.7,4.2,1.9,5.8,3.6c1.5,1.7,2.5,3.8,2.9,6.1c-0.5-2.2-1.6-4.2-3.2-5.9c-1.6-1.6-3.6-2.7-5.7-3.3
			c-1-0.3-2.1-0.5-3.2-0.5c-1.1,0.1-2.1,0.5-2.9,1.2c-0.9,0.7-1.5,1.5-1.9,2.5c-0.4,1-0.6,2.1-0.5,3.2c0.2,2.2,0.9,4.3,2,6.3
			c1.1,2,2.4,3.8,3.8,5.6c1.4,1.8,3.1,3.2,5.1,4.1c1,0.5,2.1,0.8,3.2,1.1C260.9,125.8,262.1,125.7,263.1,125.4z"/>
		<path class="st46" d="M260.1,114.6c0,0-1-8.9-8.1-9.3s-1,13.8,6,16.4c0,0,2.6,0.6-0.4-4.2S260.1,114.6,260.1,114.6z"/>
		<path class="st47" d="M259,122.7c0,0,4.9,7.9,0.5,9.9s-3.7-7.3-3.7-7.8l0,0c0.1,0.4,1.9,6.6,2.5,2.3L259,122.7z"/>
		<path class="st32" d="M306.3,225.3c-1.1,0.5-7.8-11.8-6.7-12.4c6.5-3.5,20-9.1,29-19.3c3.2-3.6,6.3-15,16.1-11.2
			c0,0,6.8,12.7,0.8,20.3C339.9,209.9,332,213.3,306.3,225.3z"/>
		<path class="st32" d="M282.3,211c-0.2-0.8,8.5-2.9,11.4-3.8c3.5-1,5.8-0.8,11.8,2.2c-0.4,0.6,0.8,4-0.3,4.8s-4.8-1.3-8.4-1.5
			C292.5,212.4,284,217.3,282.3,211z"/>
		<path class="st48" d="M289.7,253.5c4.9-4.3,8-11.4,8.7-19.6c0.8-10-2.2-19.7-8.4-26.6c-6-6.7-12.2-7.4-16.4-6.9
			c-7.8,1-13.8,7-16.5,11.8l6.5,3.5c2-3.5,6.1-7.3,10.7-7.9c3.5-0.4,6.9,1.1,9.9,4.5c4.8,5.4,7.2,13.1,6.6,21.2
			c-0.5,6.1-2.8,11.5-6.1,14.4L289.7,253.5z"/>
		<polygon class="st48" points="253.6,283.5 254.6,266.5 199.3,263.9 198.3,271.4 		"/>
		<path class="st49" d="M198.3,271.4l47.1,10.4l2.5-4.9c0,0-39.6-5.8-40.4-5.8c0-1.7-0.3-5.7-0.9-6.9l-6.8-0.2L198.3,271.4z"/>
		<path class="st48" d="M217,232.6L217,232.6c0-0.1-0.1-0.2-0.2-0.3c-1.7-2.3,6.3-10.7,17.5-19.2s22.2-12.5,24.5-10.1l41,47.1
			c3.5,4.8-5.2,17.1-19.3,27.4s-28.5,14.9-32,10.1L217,232.6z"/>
		<path class="st50" d="M217,232.6L217,232.6c0-0.1-0.1-0.2-0.2-0.3c1.6-1.5,18.2-6.8,23.4-8c-2.7,3.7-9.8,9.2-12.9,11.1
			c8.3,15,25.1,42.8,41.6,38.4c7.6-0.6,21.2-7.6,23.3-21.3c0.6-3.8-1.8-10.2-3-14.6l10.7,12.3c3.5,4.8-5.2,17.1-19.3,27.4
			s-28.5,14.9-32,10.1L217,232.6z"/>
		<path class="st51" d="M217.2,233.4c2.1,2.8,13-1.6,24.5-10s19.1-17.5,17.1-20.4s-13.1,1.7-24.6,10.1S215.2,230.5,217.2,233.4z"/>
		<path class="st52" d="M219.3,231.4c1.5,2.1,11-2.3,21.2-9.7s17.2-15.1,15.7-17.2s-11,2.3-21.2,9.7S217.8,229.3,219.3,231.4z"/>
		<path class="st53" d="M219.3,231.4c1.5,2.1,11-2.3,21.2-9.7c6.1-4.4,11.1-9,13.7-12.4c1.8-2.3-12.1,4.1-18,5.3
			C230.8,215.7,217.8,229.3,219.3,231.4z"/>
		<path class="st48" d="M217.1,233.2c2.5,3.4,13.3-1.6,24.6-9.9c-1.4-1.1-8-9.1-4.1-12.7c-1.9-1.2-6.2,1.8-8.7,3.6
			C217.5,222.7,214.6,229.9,217.1,233.2z"/>
		<path class="st50" d="M199.7,264.1l5.2,0.1c0.1,1,0.1,2.1,0.1,3.1c-0.1,1.8-0.5,3.6-1.1,5.3l-5.6-1.3L199.7,264.1z"/>
		<path class="st48" d="M188.8,264.9c-1,6.5,1.6,12.4,5.8,13.1s8.6-4.1,9.6-10.6s-1.6-12.4-5.8-13.1S189.8,258.3,188.8,264.9z"/>
		
			<rect x="182.3" y="263.6" transform="matrix(0.1578 -0.9875 0.9875 0.1578 -98.7566 415.7119)" class="st48" width="24" height="4.4"/>
		<path class="st51" d="M184.4,264.2c-1.1,6.6,1.6,12.4,5.8,13.1s8.6-4.1,9.6-10.6s-1.6-12.4-5.8-13.1S185.5,257.6,184.4,264.2z"/>
		<path class="st54" d="M184.4,264.2c-1,6.2,1.4,11.7,5.3,12.3s7.9-3.9,8.9-10.1s-1.4-11.7-5.3-12.3S185.4,258,184.4,264.2z"/>
		<path class="st55" d="M184.4,263.9c-1,6.1,1.4,11.6,5.3,12.2s7.9-3.8,8.8-9.9s-1.4-11.6-5.3-12.2S185.3,257.8,184.4,263.9z"/>
		<path class="st56" d="M189.4,264.9c-0.1,0.8,0.2,1.4,0.7,1.5s1-0.5,1.1-1.2s-0.2-1.4-0.6-1.5S189.5,264.1,189.4,264.9z"/>
		<path class="st56" d="M194.1,262.6c-0.1,0.8,0.2,1.4,0.7,1.5s1-0.5,1.1-1.2s-0.2-1.4-0.6-1.5S194.2,261.8,194.1,262.6z"/>
		<path class="st56" d="M186.4,261.3c-0.1,0.8,0.2,1.4,0.6,1.5s1-0.5,1.1-1.2s-0.2-1.4-0.6-1.5S186.5,260.6,186.4,261.3z"/>
		<path class="st56" d="M193.1,269c-0.1,0.8,0.2,1.4,0.7,1.5s1-0.5,1.1-1.2s-0.2-1.4-0.6-1.5S193.2,268.2,193.1,269z"/>
		<path class="st56" d="M185.4,267.7c-0.1,0.8,0.2,1.4,0.6,1.5s1-0.5,1.1-1.2s-0.2-1.4-0.6-1.5S185.5,267,185.4,267.7z"/>
		<path class="st56" d="M188.4,271.3c-0.1,0.8,0.2,1.4,0.6,1.5s1-0.5,1.1-1.2s-0.2-1.4-0.7-1.5S188.5,270.5,188.4,271.3z"/>
		<path class="st56" d="M190.5,258.3c-0.1,0.8,0.2,1.4,0.7,1.5s1-0.5,1.1-1.2s-0.2-1.4-0.7-1.5S190.6,257.6,190.5,258.3z"/>
		<path class="st57" d="M188.8,274.7c3.9,0.6,7.9-3.8,8.8-9.9c0.5-2.9,0.2-5.9-1.1-8.6c1.8,2.3,2.6,6,1.9,10
			c-1,6.1-4.9,10.5-8.8,9.9c-1.9-0.4-3.5-1.8-4.2-3.6C186.2,273.6,187.4,274.4,188.8,274.7z"/>
		<path class="st58" d="M297.1,211.2c0.3,0.9-2.3,2.6-5.9,3.9s-6.8,1.5-7.1,0.6s2.3-2.6,5.9-3.9S296.8,210.3,297.1,211.2z"/>
		<path class="st58" d="M296.2,227.2c0.7-0.2,1.4-0.4,2.1-0.6c0.2,1.7,0.3,3.3,0.3,5c0,0.1,0,0.2,0,0.3c-0.2,0.1-0.3,0.2-0.5,0.2
			c-2.8,1-5.4,1.2-6.8,0.8c0-0.5,0.1-0.9,0.2-1.4s-0.1-1.1-0.1-1.7C292.8,228.8,294.4,227.8,296.2,227.2z"/>
		<path class="st32" d="M306,209.6c-3.2-1.5-6.1-1.7-7.6-0.8c-3.3,1.9-7.5,3.4-12.5,5.5c-1.5,0.6-5.3,3.3-2.1,5.8
			c-0.4,0.4-0.6,1.4,0.5,3c0.8,1.1,2,1.2,2.1,2c0.4,3.2,2.8,2.4,3.2,3.4c0.5,1.4,1.8,2.4,3.3,2.6c3.2,0.2,12.7-3.4,16.8-7.6"/>
		<path class="st32" d="M297.4,226.2c0,0-5.8,1.8-7.6,2.4c-0.1,0-0.3,0-0.3-0.2c0-0.1,0-0.3,0.1-0.3c0,0,0,0,0,0
			c1.8-0.6,6.6-2.1,7.6-2.4c0.1,0,0.3,0,0.3,0.2C297.5,226,297.5,226.1,297.4,226.2z"/>
		<path class="st32" d="M294.5,222.1l-8.1,2.9c-0.1,0-0.3,0-0.3-0.2c0-0.1,0-0.3,0.1-0.3c0,0,7.3-2.5,8.1-2.9c0.1,0,0.3,0,0.3,0.1
			C294.7,221.8,294.6,222,294.5,222.1z"/>
		<path class="st32" d="M292.5,217.3c0,0-7.6,2.5-8.6,2.9c-0.1,0.1-0.3,0-0.3-0.1c0,0,0,0,0,0c-0.1-0.1,0-0.3,0.1-0.3c0,0,0,0,0,0
			c1-0.4,8-2.7,8.6-2.9c0.1-0.1,0.3,0,0.3,0.1c0,0,0,0,0,0C292.6,217.1,292.6,217.3,292.5,217.3z"/>
		<path class="st41" d="M308,153.8c0,0,13.5-6.1,28.3,12.3c3.4,4.3,5.4,7.3,11.4,15.3c0,0-9.5,0.9-18.9,11.9"/>
		<path class="st43" d="M283.6,182.1c-0.1,0.3-0.1,0.7-0.1,1.1c0,0.9,0.3,1.9,0.7,2.7c0.7,1.2,3.8,3.2,5,2.2
			c-1.4,1.1-2.6,1.3-2.9,3.6c-0.1,0.7-0.1,1.5,0,2.2c0.1,0.4,0.1,0.7,0.3,1.1c0.2,0.7,0.5,1.3,0.9,1.9c0.3,0.4,0.6,0.8,0.9,1.1
			c0.2,0.2,0.5,0.4,0.7,0.6c2.9,1.8,6.8,0.1,8-3.5c-0.2,0.6,1,2.8,1.3,3.3c0.9,1.2,2.1,2.2,3.6,2.6c0.4,0.1,0.9,0.2,1.3,0.2
			c0.3,0,0.7,0,1-0.1c1.1-0.3,2-0.9,2.5-1.9l0,0c0.1-0.2,0.3-0.4,0.4-0.6l0.1-0.3c1.5-3.1,0.3-7-2.9-8.1c2.5-0.6,5-1.7,5.4-3.8
			c0.1-0.3,0.1-0.7,0.1-1c-0.1-0.9-0.4-1.8-0.8-2.5c-0.2-0.3-0.4-0.6-0.6-0.9c-0.2-0.3-0.5-0.6-0.8-0.8c-1.7-1.3-4.1-1.2-5.6,0.3
			c1.3-1.7,1.3-5.1,0.2-6.9c-0.5-0.8-1.1-1.4-1.9-1.9c-0.4-0.2-0.7-0.4-1.1-0.5l0,0c-1-0.4-2-0.5-3.1-0.4c-0.3,0-0.6,0.1-0.9,0.2
			c-0.2,0-0.3,0.1-0.4,0.2c-3.4,1.7-2.6,6.2-1.8,9.5c-1.6-2.8-5.4-3.8-7.8-2c-0.3,0.2-0.5,0.5-0.8,0.7l-0.1,0.1
			C284,180.9,283.8,181.5,283.6,182.1z"/>
		<path class="st59" d="M292.3,188.6c-0.9-3.1,0.3-6.7,3.9-7.3c3.3-0.5,6.2,2.2,6.4,5.9c0.2,3.3-2.1,6.4-5.2,6.1
			C294.9,193,292.9,191.1,292.3,188.6z"/>
		<path class="st60" d="M293,188.4c-0.7-2.6,0.2-5.7,3.4-6.2c2.8-0.4,5.3,1.9,5.4,5c0.1,2.8-1.8,5.4-4.4,5.2
			C295.3,192.2,293.5,190.6,293,188.4z"/>
		<path class="st32" d="M308.4,158.8c-2.2,3.3-7.1,6.5-11.4,6.9c-3.8,0.3-7.4-2-9.7-4.7c-1.2-1.3-2-3-2.3-4.7
			c-0.4-4,8.5-6.3,14.4-6.8s9.9,1.9,10.3,5.9C309.6,156.5,309.2,157.7,308.4,158.8z"/>
		<path class="st61" d="M307.8,158.5c-8.7,3.7-15.5,3.2-20.6,1.9c-1.2-1.3-2-3-2.3-4.7c-0.4-4,8.1-6.1,14-6.6s9.6,1.2,9.9,5.1
			C309,155.7,308.6,157.2,307.8,158.5z"/>
		<path class="st32" d="M331.1,122.8c-2.9,12.6-9.7,22.8-20.7,29c-7.1,4.1-15.1,6.3-23.3,6.4c-5,0-8.7-3.4-14.6-7.5
			c-8.5-5.9-16.9-16.2-16.8-39.2c0.1-13.4-6.1-21.9,0.1-32.6c7.8-13.7,29.4-26.5,42.3-24.8C321,57,336.4,99.3,331.1,122.8z"/>
		<path class="st61" d="M326.7,116.3c0,0,5.4-14.5-8.7-24.3s-9.4-20.3-9.4-20.3s-8.8,12.4-22.1,10.5l1.7-3.5c0,0-10.1,7.4-22.6,4.8
			c0,0,4.7-4.1,5.3-8.3c0,0-18,10.4-18.3,27.1c0,0-6.4-12.4,3.1-25.9S289,53.7,311.1,62S340,97.7,340,97.7L326.7,116.3z"/>
		<path class="st40" d="M311.1,64.2c0,0-4.5,14.8-22.3,16.8c0,0,4.9-6.2,5.6-11.3c0,0-4.9,12.9-26.8,12.9c0,0,6.3-4.3,5.4-10.6
			c-4.9,2.9-9.4,6.4-13.5,10.4c-7.6,7.8-4.3,16.8-4.1,24c0,0-14.3-13.8-12.4-31.7s12.9-31.6,44.4-39.2s55.3,11.8,61.9,26.6
			s1.4,40.7,1.4,40.7l-23.4,14.9c0,0,3.7-14.4-6-24.7C311.1,82.3,308.8,82.6,311.1,64.2z"/>
		<path class="st40" d="M298.9,91.4L298.9,91.4c0.6,1.9,2.4,3.2,4.4,3.3c2.6,0.1,6.3,0.6,8.8,2.7C312.2,97.4,312.6,91.7,298.9,91.4z
			"/>
		<path class="st40" d="M271.7,90.2L271.7,90.2c-0.3,2-1.8,3.6-3.8,3.9c-2.7,0.4-6.4,1.4-8.5,3.8C259.4,98,258.1,92.3,271.7,90.2z"
			/>
		<path class="st44" d="M279.5,112.6c0,0,1.1,4.9-2,8.5s1.8,9.1,8.3,4.5"/>
		<path class="st62" d="M279.5,112.6c0.5,1.9,0.5,3.9-0.1,5.8c-0.3,1-0.8,1.9-1.4,2.7c-0.2,0.2-0.3,0.4-0.4,0.6
			c-0.2,0.4-0.4,0.8-0.5,1.2c-0.1,0.2-0.1,0.4-0.1,0.6c0,0.9,0.4,1.7,1,2.3c0.7,0.6,1.5,1,2.4,1.2c1.9,0.1,3.8-0.4,5.4-1.4
			c-1.5,1.3-3.5,2.1-5.5,2c-1-0.1-2-0.5-2.8-1.2c-0.8-0.7-1.3-1.8-1.3-2.8c0-1.1,0.5-2.1,1.2-2.8c0.6-0.7,1.1-1.5,1.4-2.4
			C279.5,116.4,279.7,114.5,279.5,112.6z"/>
		<path class="st63" d="M245.6,63.6c0,0,22.1-31.9,67.2-16.4c0,0,31.7,11.8,28.5,57.5c0,0,2.5,2,3.1-1.8c0,0,4-42.3-28.4-56.9
			C284.3,31.8,251,48.9,245.6,63.6"/>
		<path class="st64" d="M338.6,62.4c-2.6,4.4-2,9.8-7.7,5.7s-5.8-15.3-5.8-15.3s9.3-4.5,15.1-0.4S341.2,58,338.6,62.4z"/>
		<path class="st64" d="M311.3,42.9c-2.5,4.4-7.3,6-1.5,10.1s15.1-0.4,15.1-0.4s0-11.2-5.8-15.3S313.8,38.5,311.3,42.9z"/>
		<ellipse transform="matrix(0.9915 -0.1302 0.1302 0.9915 -2.5559 41.6966)" class="st65" cx="317.6" cy="40.4" rx="1" ry="1.1"/>
		<ellipse transform="matrix(0.9918 -0.1281 0.1281 0.9918 -3.1321 41.461)" class="st65" cx="320.8" cy="45.1" rx="1" ry="1.1"/>
		<ellipse transform="matrix(0.9918 -0.1281 0.1281 0.9918 -3.3898 40.7119)" class="st65" cx="314.8" cy="46.7" rx="1" ry="1.1"/>
		<path class="st65" d="M318.1,51.7c-0.3,0.5-0.9,0.6-1.4,0.4c0,0,0,0-0.1,0c-0.5-0.4-0.6-1-0.3-1.6c0.3-0.5,0.9-0.6,1.4-0.4
			c0,0,0,0,0.1,0C318.2,50.5,318.4,51.2,318.1,51.7z"/>
		<ellipse transform="matrix(0.9918 -0.1281 0.1281 0.9918 -3.8884 40.4608)" class="st65" cx="312.6" cy="50.5" rx="1" ry="1.1"/>
		<path class="st65" d="M323.1,47.3c-0.3,0.5-0.2,1.2,0.3,1.6c0.2,0.2,0.5,0.2,0.8,0.2c-0.1-0.7-0.2-1.4-0.4-2.2
			C323.5,46.9,323.3,47,323.1,47.3z"/>
		<path class="st65" d="M322.1,42.6c0.2,0.1,0.3,0.2,0.5,0.2c-0.2-0.6-0.5-1.2-0.8-1.8l0,0C321.5,41.6,321.6,42.3,322.1,42.6z"/>
		<path class="st65" d="M314.1,54.2L314.1,54.2c0.6,0.1,1.2,0.1,1.8,0.1c-0.1-0.2-0.2-0.3-0.4-0.5C315.1,53.6,314.5,53.7,314.1,54.2
			C314.1,54.2,314.1,54.2,314.1,54.2z"/>
		<path class="st65" d="M321.2,52.6c-0.5-0.3-1.1-0.2-1.4,0.3c0,0,0,0,0,0c-0.2,0.3-0.2,0.7-0.1,1c0.7-0.2,1.4-0.3,2-0.5
			C321.7,53.1,321.5,52.8,321.2,52.6z"/>
		<path class="st65" d="M314.4,41.1c0.3-0.5,0.2-1.2-0.3-1.6c-0.3-0.2-0.6-0.2-0.9-0.1c-0.2,0.5-0.4,1-0.6,1.5
			c0.1,0.2,0.2,0.3,0.4,0.5C313.4,41.7,314,41.6,314.4,41.1C314.4,41.1,314.4,41.1,314.4,41.1z"/>
		<path class="st65" d="M315.2,37.7c0.5,0.3,1.1,0.2,1.4-0.3c0,0,0,0,0-0.1c0.2-0.3,0.2-0.6,0.1-0.9c-0.7-0.3-1.4-0.2-2,0.3
			C314.7,37.1,314.9,37.4,315.2,37.7z"/>
		<path class="st65" d="M309.7,47c0.5,0.3,1.1,0.2,1.4-0.3c0,0,0,0,0-0.1c0.3-0.5,0.2-1.2-0.3-1.6c-0.2-0.1-0.3-0.2-0.5-0.2
			c-0.4,0.4-0.7,0.8-1,1.2C309.3,46.5,309.4,46.8,309.7,47z"/>
		<path class="st65" d="M308.9,50.5c0.3-0.5,0.2-1.2-0.3-1.5c-0.3-0.2-0.7-0.2-1-0.1c-0.1,0.8,0.1,1.6,0.6,2.1
			C308.5,50.9,308.7,50.7,308.9,50.5z"/>
		<ellipse transform="matrix(0.9918 -0.1281 0.1281 0.9918 -4.235 43.6574)" class="st65" cx="337.3" cy="54.8" rx="1" ry="1.1"/>
		<ellipse transform="matrix(0.9918 -0.1281 0.1281 0.9918 -4.1951 43.0644)" class="st65" cx="332.7" cy="54.1" rx="1" ry="1.1"/>
		<ellipse transform="matrix(0.9918 -0.1281 0.1281 0.9918 -4.9844 43.2809)" class="st65" cx="334" cy="60.4" rx="1" ry="1.1"/>
		<path class="st65" d="M328.5,59.2c-0.3,0.5-0.2,1.2,0.3,1.6c0.5,0.3,1.1,0.2,1.4-0.3c0,0,0,0,0,0c0.3-0.5,0.2-1.2-0.3-1.6
			C329.5,58.5,328.9,58.7,328.5,59.2C328.5,59.1,328.5,59.1,328.5,59.2z"/>
		<ellipse transform="matrix(0.9918 -0.1281 0.1281 0.9918 -5.4818 43.0298)" class="st65" cx="331.8" cy="64.1" rx="1" ry="1.1"/>
		<path class="st65" d="M330.1,52.3c-0.3,0.5-0.9,0.6-1.4,0.3c0,0,0,0,0,0c-0.2-0.2-0.4-0.4-0.5-0.8c0.6-0.2,1.3-0.4,2-0.5
			C330.3,51.7,330.2,52,330.1,52.3z"/>
		<path class="st65" d="M334.3,51.3c-0.2-0.1-0.3-0.3-0.4-0.5c0.6,0,1.2,0,1.8,0.1l0,0C335.5,51.5,334.9,51.7,334.3,51.3
			C334.4,51.4,334.4,51.4,334.3,51.3z"/>
		<path class="st65" d="M328.1,64.2L328.1,64.2c-0.3-0.6-0.6-1.2-0.8-1.8c0.2,0,0.4,0.1,0.5,0.2C328.2,62.9,328.4,63.6,328.1,64.2z"
			/>
		<path class="st65" d="M326.5,56.4c0.5,0.4,0.6,1,0.3,1.6c-0.2,0.3-0.4,0.5-0.7,0.5c-0.2-0.8-0.3-1.5-0.4-2.2
			C325.9,56.1,326.2,56.2,326.5,56.4z"/>
		<path class="st65" d="M338.8,58.5c0.3-0.5,0.9-0.6,1.4-0.3c0,0,0,0,0,0c0.3,0.2,0.4,0.5,0.5,0.8c-0.3,0.4-0.7,0.8-1,1.2
			c-0.2,0-0.4-0.1-0.5-0.2C338.7,59.7,338.5,59,338.8,58.5z"/>
		<path class="st65" d="M341.3,56.3c-0.5-0.4-0.6-1-0.3-1.5c0.1-0.3,0.4-0.4,0.7-0.5c0.5,0.6,0.8,1.4,0.6,2.1
			C342,56.6,341.6,56.5,341.3,56.3z"/>
		<path class="st65" d="M335.8,65.7c-0.5-0.4-0.6-1-0.3-1.6c0.3-0.5,0.9-0.6,1.4-0.4c0,0,0,0,0.1,0c0.2,0.1,0.3,0.3,0.4,0.5
			c-0.2,0.5-0.4,1.1-0.6,1.6C336.4,65.9,336.1,65.9,335.8,65.7z"/>
		<path class="st65" d="M333.3,67.9c0.3-0.5,0.9-0.6,1.4-0.4c0,0,0,0,0.1,0c0.3,0.2,0.5,0.6,0.5,1c-0.6,0.4-1.3,0.5-2,0.2
			C333.1,68.5,333.1,68.2,333.3,67.9z"/>
		<path class="st66" d="M316.8,44.2c-1.3,1.4,4.8,5.4,4.8,5.4S318.2,42.8,316.8,44.2z"/>
		<path class="st66" d="M315.8,49c-0.4,1.3,5.5,1.9,5.5,1.9S316.1,47.7,315.8,49z"/>
		<path class="st66" d="M335.3,57.3c-0.6,1.9-6.5-2.7-6.5-2.7S335.9,55.4,335.3,57.3z"/>
		<path class="st66" d="M331.7,60.3c-0.9,0.9-3.8-4.7-3.8-4.7S332.6,59.5,331.7,60.3z"/>
		<path class="st67" d="M321.7,51.9c-0.5,0.9-0.3,2.1,0.6,2.8l2.1,1.5c0.8,0.6,1.9,0.4,2.4-0.4c0-0.1,0.1-0.1,0.1-0.2l1.3-2.3
			c0.5-0.9,0.3-2.1-0.6-2.8l-2.1-1.6c-0.8-0.6-1.9-0.4-2.4,0.4c0,0.1-0.1,0.1-0.1,0.2L321.7,51.9z"/>
		<path class="st44" d="M329.8,126.8c2.2,0.8,7.8-0.7,11.1-5.3c10.7-14.8,2.4-20.1-1.3-19.6c-1.6,0.2-9.9,2.1-11.1,10.9"/>
		<path class="st45" d="M329.8,126.8c1.1,0.2,2.2,0.2,3.3-0.2c1.1-0.3,2.1-0.7,3.1-1.3c1.9-1.1,3.6-2.7,4.8-4.5
			c1.3-1.8,2.4-3.8,3.4-5.8c1-2,1.5-4.2,1.5-6.4c0-1.1-0.3-2.2-0.8-3.1c-0.5-1-1.2-1.8-2.1-2.4c-0.9-0.6-1.9-0.9-3-0.9
			c-1.1,0.1-2.2,0.4-3.2,0.8c-2.1,0.8-4,2.1-5.5,3.8c-1.4,1.7-2.4,3.8-2.7,6.1c0.2-2.3,1.1-4.5,2.5-6.3c1.5-1.8,3.4-3.2,5.5-4
			c1.1-0.5,2.2-0.8,3.4-0.9c1.2,0,2.4,0.3,3.4,1c1,0.6,1.8,1.6,2.4,2.6c0.5,1.1,0.8,2.2,0.9,3.4c0,2.3-0.5,4.6-1.5,6.7
			c-1,2.1-2.1,4.1-3.5,5.9c-1.3,1.9-3.1,3.5-5.1,4.6c-1,0.5-2.1,0.9-3.2,1.2C332.1,127.2,330.9,127.2,329.8,126.8z"/>
		<path class="st46" d="M332,115.8c0,0,0.3-9,7.4-9.9s2,13.7-4.7,16.8c0,0-2.5,0.8,0.1-4.3S332,115.8,332,115.8z"/>
		<path class="st47" d="M333.7,123.7c0,0-4.3,8.3,0.2,9.9s3.1-7.6,3-8.1l0,0c-0.1,0.4-1.4,6.7-2.3,2.5L333.7,123.7z"/>
		<ellipse class="st68" cx="301.2" cy="111.1" rx="8.2" ry="9"/>
		<ellipse class="st69" cx="301.7" cy="111.3" rx="4.9" ry="5.4"/>
		
			<ellipse transform="matrix(0.1862 -0.9825 0.9825 0.1862 140.662 386.7573)" class="st70" cx="303.8" cy="108.5" rx="1.4" ry="1.1"/>
		<ellipse class="st68" cx="268" cy="111.4" rx="7.7" ry="8.8"/>
		<ellipse class="st69" cx="268.6" cy="111.9" rx="4.7" ry="5.3"/>
		
			<ellipse transform="matrix(0.1188 -0.9929 0.9929 0.1188 130.1268 364.5446)" class="st70" cx="270.4" cy="109" rx="1.4" ry="1.1"/>
		<path class="st71" d="M302.1,133.1c-0.1,0.3-2.1,1.7-2.4,2.2c-1.5,2.1-4.9,7.3-9.3,8.7c-3.2,1.1-6.7,1-9.9-0.1
			c-4.1-1.5-4.6-4.9-7.1-8.7c-0.6-0.9-3.4-2.4-3.1-2.3c2.3,0.5,8.1,3,17.3,2.8c7-0.2,10.9-1.3,12.4-1.8c0.1-0.1,0.3,0,0.4,0.1
			C300.4,134.1,302.1,133.1,302.1,133.1z"/>
		<path class="st72" d="M300.4,134.2c-1.4,2.4-3.9,9.4-8.2,10.8c-3,1-9.1,1.3-12.1-0.5c-4.2-2.6-6.5-8.4-7-9.9
			c2.7,2.3,3.6,8,12.4,8.6C295.9,144,298.8,136,300.4,134.2z"/>
		<path class="st73" d="M302.1,133.4c-5.7,2.2-11.7,3.3-17.8,3.2c-8.4-0.4-12.5-2.8-14-3.7c0.8,1.4-0.3-0.1,0,0
			c5.5,1.4,11.2,1.9,16.8,1.7c7-0.2,13.6-1,15-1.5C302.3,133,302,133.3,302.1,133.4z"/>
		<path class="st74" d="M274.2,134.7c0.2,0.1,10.1,3.6,23.8,0.1c0,0-2.8,4-11,4.3C277.7,139.4,274.2,134.7,274.2,134.7z"/>
		<path class="st75" d="M285.9,143.2c-1.9-0.1-4.7-0.7-5.6-1.3c1.6-1.1,4.4-1.5,5.6-0.8c0,0,0.1,0.1,0.1,0.1
			c1.9-0.3,3.9,0.2,5.4,1.4C290.3,143.1,288.5,143.3,285.9,143.2z"/>
		<path class="st46" d="M270.9,131.1c0,0-2.6,1.3-0.8,3.4"/>
		<path class="st46" d="M301.4,131.5c0,0,3.5,0.3,1.9,3.1C303.3,134.6,303.7,132.7,301.4,131.5z"/>
	</g>
</g>
<path class="st76" d="M167.2,35.5c0.7,0.4,0.2,0.1-0.3-0.3c-0.5-0.4-1-0.8-1.6-1c-0.9-0.4-1.8-0.8-2.8-1.1c-2.2-0.4-4.5-0.7-6.8-0.7
	c-5.2-0.3-9.9,2-14.4,4.7c-4,2.5-7.5,5.7-10.4,9.4c-1.7,2.2-3,4.7-3.8,7.3c-0.4,1.2-0.7,2.4-0.7,3.6c0.1,1.1,0.3,2.1,0.6,3.2
	c0,1.4,1.1,2.6,2.4,2.6c0.5,0,0.9-0.1,1.3-0.3c0.6-0.3,2-0.4,2.8-0.8c0.8-0.4,1.5-0.8,2.2-1.3c0.4-0.3,3.5-2.7,1.2-1.3
	c1.5-0.8,2.9-1.8,4.3-2.9c1.1-1,2.3-1.9,3.6-2.7c1.6-1,3.1-2.1,4.7-3c3.7-2.3,5.9-2.8,9.6-5.4c2.3-1.7,6.3-2.8,8.1-5.4
	c1.3-0.9,1.6-2.6,0.7-3.9C167.7,36,167.5,35.7,167.2,35.5z"/>
<path class="st77" d="M288.1,383c5.6,1.8,11.9,1.6,17.7,1.5c2.9-0.1,5.9-0.3,8.8-0.8c3-0.4,6.4-0.9,9-2.2c1.8-0.9,2.5-3,1.7-4.8
	c-0.5-1.1-1.5-1.8-2.7-2c-2.8-0.4-5.6-0.5-8.4-0.3c-2.9,0-5.8,0.1-8.6,0.4L288.1,383z"/>
<path class="st77" d="M359.8,361.4c-0.1-0.2-0.3-0.4-0.4-0.5c-1-0.7-2.2-1-3.4-0.7c-4.3,0.8-7,3.3-10.3,5.6
	c-2.5,1.8-5.9,2.6-8.7,3.9c-3.3,1.5-6.5,3.3-7.5,6.6c-0.4,1.2,0,2.6,1,3.4c2.9,2.5,6.9,2.4,10.6,1.6c3.5-0.7,6.9-2,10.1-3.6
	c5.4-3,11.2-9.6,9-15.6C360,361.8,359.9,361.6,359.8,361.4z"/>
<path class="st78" d="M357.1,62.9c-5.4-3.3-11.2-5.8-17.3-7.3c-10.8-3-22-4.1-33.1-4.9c-17-1.9-34.1-2.8-51.1-2.8
	c-19.8-0.1-39.6,0.7-59.4,2.7c-16.2,1.6-32.5,3.8-48.2,8.3H148c-0.1,0-0.2,0-0.2,0.1l-0.6,0.2c-5.1,1.5-10.5,3.5-12.9,9
	c-2,4.9-2,10.4,0.1,15.3c5,12,19.3,15.2,30.3,16.7c14.1,2,28.6,2,42.9,2.3c14.4,0.2,28.8,0.1,43.2-0.4c28.8-1,57.6-3.6,86.1-7.9
	c6.3-1,12.6-2.2,18.4-4.8c5.1-2.3,11-6,10.9-12.6C366.2,70.6,361.6,65.8,357.1,62.9z"/>
</svg>
