<?xml version="1.0" encoding="utf-8"?>
<!-- Generator: Adobe Illustrator 25.2.3, SVG Export Plug-In . SVG Version: 6.00 Build 0)  -->
<svg version="1.1" id="Layer_1" xmlns="http://www.w3.org/2000/svg" xmlns:xlink="http://www.w3.org/1999/xlink" x="0px" y="0px"
	 viewBox="0 0 490 425" style="enable-background:new 0 0 490 425;" xml:space="preserve">
<style type="text/css">
	.st0{fill:#78EFE9;}
	.st1{fill:#0072AB;}
	.st2{fill:#74879E;}
	.st3{clip-path:url(#SVGID_2_);}
	.st4{opacity:0.29;fill:#932216;enable-background:new    ;}
	.st5{fill:none;stroke:#F4F2F2;stroke-width:0.5;stroke-miterlimit:10;}
	.st6{fill:none;}
	.st7{fill:url(#SVGID_3_);}
	.st8{fill:url(#SVGID_4_);}
	.st9{fill:url(#SVGID_5_);}
	.st10{fill:#80E559;}
	.st11{opacity:0.5;fill:url(#SVGID_6_);enable-background:new    ;}
	.st12{fill:#73DD47;}
	.st13{opacity:0.3;}
	.st14{fill:#84E75A;}
	.st15{opacity:0.31;}
	.st16{fill:#5F8337;}
	.st17{opacity:0.5;fill:#5F8337;enable-background:new    ;}
	.st18{fill:#2BB51C;}
	.st19{fill:#1C8E16;}
	.st20{fill:#709B6D;}
	.st21{fill:#CC773E;}
	.st22{fill:#904E27;}
	.st23{fill:#7C3F29;}
	.st24{fill:#8C4D23;}
	.st25{fill:#723B17;}
	.st26{opacity:0.61;}
	.st27{fill:#666666;}
	.st28{fill:#1A1A1A;}
	.st29{fill:#E6E6E6;}
	.st30{fill:#C93140;}
	.st31{fill:#439C3D;}
	.st32{fill:#308C1F;}
	.st33{fill:#176713;}
	.st34{fill:#4FB62B;}
	.st35{fill:#AFD24D;}
	.st36{opacity:0.24;fill:#616849;enable-background:new    ;}
	.st37{fill:#82CFF7;stroke:#5DA3C1;stroke-miterlimit:10;}
	.st38{fill:#B3E0F4;}
	.st39{fill:url(#SVGID_7_);}
	.st40{fill:#52A2E7;}
	.st41{fill:#3476B7;}
	.st42{opacity:0.35;fill:#4A97CC;enable-background:new    ;}
	.st43{fill:#5393B7;stroke:#4C2606;stroke-width:0.5;stroke-miterlimit:10;}
	.st44{fill:#81C0EA;stroke:#4C2606;stroke-width:0.5;stroke-miterlimit:10;}
	.st45{fill:#D3E7F2;stroke:#4C2606;stroke-width:0.5;stroke-miterlimit:10;}
	.st46{fill:#DAB4AA;stroke:#323232;stroke-miterlimit:10;}
	.st47{fill:#587AB1;}
	.st48{fill:none;stroke:#323232;stroke-miterlimit:10;}
	.st49{opacity:0.76;fill:#1B3F72;enable-background:new    ;}
	.st50{fill:#FACC35;stroke:#323232;stroke-miterlimit:10;}
	.st51{fill:#BE9030;}
	.st52{fill:#4C3409;}
	.st53{fill:#FBD3C7;stroke:#453323;stroke-width:0.75;stroke-miterlimit:10;}
	.st54{fill:#453323;}
	.st55{fill:#DD9F8F;}
	.st56{fill:#F9D1C6;stroke:#323232;stroke-miterlimit:10;}
	.st57{fill:#DB9D8E;}
	.st58{fill:#F5968E;}
	.st59{fill:#951C27;}
	.st60{fill:#D26653;}
	.st61{fill:url(#SVGID_8_);}
	.st62{fill:#342517;}
	.st63{fill:#FFFFFF;stroke:#3D2E17;stroke-width:0.75;stroke-miterlimit:10;}
	.st64{fill:#2D2B21;}
	.st65{fill:#FFFFFF;}
	.st66{fill:#F9D1C6;}
	.st67{fill:#49442E;}
	.st68{fill:#323232;}
	.st69{fill:#FBD3C7;}
	.st70{fill:url(#SVGID_9_);}
	.st71{fill:url(#SVGID_10_);}
	.st72{fill:url(#SVGID_11_);}
	.st73{fill-rule:evenodd;clip-rule:evenodd;fill:#1E4D82;}
	.st74{fill-rule:evenodd;clip-rule:evenodd;fill:#497EB2;stroke:#357DC4;stroke-miterlimit:10;}
	.st75{fill-rule:evenodd;clip-rule:evenodd;fill:#3D709B;stroke:#357DC4;stroke-miterlimit:10;}
	.st76{fill-rule:evenodd;clip-rule:evenodd;fill:#306487;stroke:#357DC4;stroke-miterlimit:10;}
	.st77{fill-rule:evenodd;clip-rule:evenodd;fill:#9CCAFF;}
	.st78{fill-rule:evenodd;clip-rule:evenodd;fill:#DBECFF;}
	.st79{fill-rule:evenodd;clip-rule:evenodd;fill:#76A9E3;}
	.st80{fill:#211505;}
	.st81{fill:#664422;}
	.st82{fill:#ECE9D6;stroke:#B2AC8D;stroke-miterlimit:10;}
	.st83{fill:#A17127;}
	.st84{fill:#774E18;}
	.st85{fill:#F9F8F7;}
	.st86{fill:#222544;}
	.st87{fill:none;stroke:#61689B;stroke-miterlimit:10;}
	.st88{fill:#664422;stroke:#3F3A25;stroke-miterlimit:10;}
	.st89{fill:#7A552C;stroke:#686248;stroke-miterlimit:10;}
	.st90{fill:#956B39;}
	.st91{fill:#D3B497;}
	.st92{fill:#543614;}
	.st93{fill:#825638;stroke:#492C17;stroke-miterlimit:10;}
	.st94{opacity:0.7;}
	.st95{fill:#684229;}
	.st96{fill:#825638;}
	.st97{fill:#A77144;stroke:#754623;stroke-miterlimit:10;}
	.st98{fill:#8E5A33;stroke:#754623;stroke-miterlimit:10;}
	.st99{fill:#EFE7DF;stroke:#A8795A;stroke-miterlimit:10;}
	.st100{fill:#F2C3B7;}
	.st101{fill:#C67A6D;}
	.st102{fill:#E29181;}
	.st103{fill:#A77144;}
	.st104{fill:#F6AC7C;}
	.st105{fill:#EFE7DF;}
	.st106{fill:#E5D9CF;}
	.st107{fill:#D3C5BA;}
	.st108{opacity:0.8;fill:#825638;enable-background:new    ;}
	.st109{fill:#164A75;}
	.st110{fill:#186FB7;}
	.st111{fill:#308BE5;}
	.st112{fill:#DEE5B5;}
	.st113{fill:#991010;}
	.st114{fill:#3F2F2D;}
	.st115{fill:#F4EDED;}
	.st116{fill:#DD0E0E;}
	.st117{fill:#DEE5B5;stroke:#A4AA6A;stroke-miterlimit:10;}
	.st118{opacity:0.53;fill:#FFFFFF;enable-background:new    ;}
	.st119{opacity:0.33;fill:#FFFFFF;enable-background:new    ;}
	.st120{opacity:0.15;fill:#FFFFFF;enable-background:new    ;}
</style>
<polygon class="st0" points="359.8,13.6 130.2,13.6 15.3,212.5 130.2,411.4 359.8,411.4 474.7,212.5 "/>
<polygon class="st1" points="353.3,24.9 136.7,24.9 28.3,212.5 136.7,400.1 353.3,400.1 461.7,212.5 "/>
<polygon class="st2" points="351.5,28 138.5,28 32,212.5 138.5,397 351.5,397 458,212.5 "/>
<g>
	<defs>
		<polygon id="SVGID_1_" points="351.5,28 138.5,28 32,212.5 138.5,397 351.5,397 458,212.5 		"/>
	</defs>
	<clipPath id="SVGID_2_">
		<use xlink:href="#SVGID_1_"  style="overflow:visible;"/>
	</clipPath>
	<g class="st3">
		<path class="st4" d="M324.3,146.5c0,0,94.4,25.3,135.5,49.7s95.4,44.3,95.4,44.3L415,239.7L324.3,146.5z"/>
		<line class="st5" x1="436.5" y1="308.3" x2="491.2" y2="308.3"/>
		<line class="st5" x1="436" y1="309.4" x2="490.6" y2="309.4"/>
		<line class="st5" x1="435.5" y1="310.4" x2="490.1" y2="310.4"/>
		<line class="st5" x1="435.5" y1="311.4" x2="490.1" y2="311.4"/>
		<line class="st5" x1="435" y1="312.5" x2="489.6" y2="312.5"/>
		<line class="st5" x1="434.4" y1="313.5" x2="489.1" y2="313.5"/>
		<line class="st5" x1="434.4" y1="314.6" x2="489.1" y2="314.6"/>
		<line class="st5" x1="433.9" y1="315.6" x2="488.5" y2="315.6"/>
		<line class="st6" x1="411.4" y1="271.7" x2="522.9" y2="270.8"/>
		
			<linearGradient id="SVGID_3_" gradientUnits="userSpaceOnUse" x1="139.1328" y1="-142.5086" x2="269.3028" y2="501.0114" gradientTransform="matrix(1 0 0 -1 0 426)">
			<stop  offset="0.2" style="stop-color:#C5F7FD"/>
			<stop  offset="0.34" style="stop-color:#B3F0FD"/>
			<stop  offset="0.66" style="stop-color:#8EE1FD"/>
			<stop  offset="0.83" style="stop-color:#80DBFD"/>
		</linearGradient>
		<rect x="-197.8" y="-28.2" class="st7" width="851.3" height="316"/>
		
			<linearGradient id="SVGID_4_" gradientUnits="userSpaceOnUse" x1="469.8384" y1="345.1216" x2="504.0684" y2="379.3816" gradientTransform="matrix(1 0 0 -1 0 426)">
			<stop  offset="0.17" style="stop-color:#83DCFD"/>
			<stop  offset="0.9" style="stop-color:#D7EEF4"/>
		</linearGradient>
		<path class="st8" d="M469.4,61.5c0,0,0.6-5.1,9.3-8.5s15.9-5.3,23.5-1.3s5.9,13,4.3,14.1c-3.1,2.1-9.8,4.8-27.6,2.1
			C468.2,66.3,469.4,61.5,469.4,61.5z"/>
		
			<linearGradient id="SVGID_5_" gradientUnits="userSpaceOnUse" x1="-24.2339" y1="363.0239" x2="-0.3939" y2="386.8839" gradientTransform="matrix(1 0 0 -1 0 426)">
			<stop  offset="0.17" style="stop-color:#83DCFD"/>
			<stop  offset="0.9" style="stop-color:#D7EEF4"/>
		</linearGradient>
		<path class="st9" d="M-24.6,49.5c0,0,0.5-3.5,6.5-5.9s11.1-3.7,16.4-0.9s4.1,9.1,3,9.8c-2.2,1.5-6.8,3.3-19.2,1.5
			C-25.4,52.8-24.6,49.5-24.6,49.5z"/>
		<polygon class="st10" points="-191.1,329.3 670.8,311.3 670.8,478 -191.1,478 		"/>
		
			<linearGradient id="SVGID_6_" gradientUnits="userSpaceOnUse" x1="9.425" y1="104.77" x2="9.425" y2="121.16" gradientTransform="matrix(1 0 0 -1 0 426)">
			<stop  offset="0" style="stop-color:#09170A"/>
			<stop  offset="0.58" style="stop-color:#2D550C"/>
			<stop  offset="1" style="stop-color:#16623E"/>
		</linearGradient>
		<path class="st11" d="M-177.4,309.9c14.4,0.2,28.7,1,43.1,1.1c17.8,0.1,35.4-1.1,53.2-0.6c10,0.3,20.1,0.7,30.1,0.9
			c9.1,0.2,18.2,0.1,27.2,0.5c18.6,0.8,36.7,2.9,55,4.3c39.1,2.9,78.7,3.3,118.4,3.9c14.3,0.2,28.2,0.1,42.3-0.4
			c2.4-0.4,5.3-0.5,7.8-0.7c4.4-0.2,8.9-0.3,13.3-0.3c-2.4,0-4.5-0.1-6.2-0.1c-15,0-47.5,1.2-65,0.6s-25,0-50-0.9s-54.2-3.4-71.7-4
			s-37.5-3.1-53.3-3.4s-28.3,0.6-50.8-0.6s-43.3,0.9-66.7-0.3c-15.8-0.8-32.8-1.7-43.3-2.1v2.6
			C-188.5,309.8-182.8,309.8-177.4,309.9z"/>
		<path class="st12" d="M498.7,193c-27.9,7.2-56.6,18.9-84.8,20.8c-36.9,2.4-73.4,11-110.4,13c-37.9,2-74.6,1.6-112.4-2.8
			c-32.8-3.8-65.6-0.4-98.4-4.1c-33.6-3.8-66.6-17-100.2-20.4c-24.1-2.4-48.1-6.2-71.8-11.2c-19.9-4.3-38.9-15.3-58.6-19.5
			c-18.7-4-38.3-10.9-57.2-11.6v386.2h848.5v-405c-24.2,7.5-47.7,17-70.4,28.4C555.8,180.4,526.7,185.8,498.7,193z"/>
		<g class="st13">
			<path class="st14" d="M591.1,262.7c-3,2-6,4-9,5.9c-12.2,7.9-25.3,14.1-39.1,18.5c-29.1,9.2-61.3,9.3-89.5,20.9
				c17,2.4,34.5,1.2,51.6-0.2c11.9-1,23.9-1.7,35.8-2.6c9.3-0.8,18.5-1.6,27.8-1.7c6.9-0.1,16.6-0.5,22.5,3.3c4.7,3,3,7.8-0.1,11.3
				c-5.1,5.6-12.5,9.7-19.6,13.1c-9.5,4.6-19.5,8.4-29.7,11.3c-9.7,2.8-19.8,5.1-30,5.8c-6.8,0.4-15,0.4-20.6-3.4
				c-0.3-0.2-0.4-0.5-0.1-0.8c6.3-6.5,18.4-6.5,23.8-13.8c-13.3-4.7-29.1-2.1-42.9-1c-17.3,1.5-34.8,3.4-52.2,3.9
				c-37,1-73.4-8.1-110.4-7.4c-19.3,0.3-38.5,1.1-57.7,1.3c-19.1,0.2-38.1,0.1-57.2-0.4c-14-0.4-28.2-0.2-42.2-1
				c-12.3-0.8-25.9-2.3-36.1-8.9c-0.2-0.1-0.3-0.4-0.2-0.7c0.1-0.1,0.2-0.2,0.4-0.3c1.2-0.3,2.3-0.6,3.5-0.8
				c8.1-1.3,16.3-0.3,24.4,0c9.2,0.4,18.4-0.6,27.6-1.5c9.3-0.9,18.6-2,27.9-2.6c4.5-0.3,8.9-0.4,13.3-0.4c-7.8-0.5-15.6-1-23.4-1.7
				c-32.8-2.8-65.6-0.3-98.4-3.1C57.6,303,24.5,293.2-9,290.6c-24.3-1.9-47.8-4.5-71.8-8.4c-19.9-3.2-38.9-11.4-58.6-14.6
				c-18.7-3-38.3-8.2-57.2-8.7v6.8c3.9,0.3,7.7,0.7,11.5,1.1c36.3,4.5,71,15.6,106.3,24c8.8,2.1,17.6,4.1,26.6,5.4
				c8.4,1.2,16.8,1.9,25.3,2.2c13.8,0.6,29.1,1.3,41.2,7.9c0.2,0.1,0.4,0.4,0.2,0.6c0,0.1-0.1,0.2-0.2,0.2C7,310.5-1,311.6-8.8,312
				c-14.9,0.8-29.9-0.7-44.8-0.7c-17,0-33.6,3.5-50.1,6.8c-9.3,1.9-18.6,4.2-27.9,5.6c-6.1,1-12.2,1.4-18.3,2.2
				c-6.5,0.9-13.5,1.9-19.4,4.8c-1.6,0.7-3.1,1.6-4.5,2.6c-1.2,0.9-1.3,1-0.2,2c1.3,1.3,2.8,2.4,4.4,3.2c8.9,4.5,20.3,5.2,30.4,5.6
				c11.2,0.4,22.5,0.1,33.7,0c9.9-0.1,19.7,0.8,29.6,1.1c12,0.3,26.4,0.2,36.8,6.2c0.2,0.1,0.3,0.4,0.2,0.7c0,0,0,0,0,0
				c-2.7,4.4-6.9,5.1-12.2,5.5c-4.8,0.4-9.6,1.6-14.4,2.3c-4.1,0.6-8.3,1.1-12.4,1.6c-9.4,1-18.8,1.7-28.3,2.4
				c-19.2,1.4-38.2,3.6-57.2,6.3c-11.1,1.5-22.1,3-33.3,3.9v173.3h848.7V245C631.3,249.7,611,255.6,591.1,262.7z"/>
		</g>
		<g class="st15">
			<path class="st16" d="M657.6,390.6c-8,2.3-16.9,4.6-23.7,8.4c-1.6,0.9-4.1,2.2-3.9,3.8c0.4,2.7,5.7,4.8,8.8,6.1
				c6.4,2.8,17.8,7,14.7,13.3c-1.6,3.2-6.5,4.7-11.1,5.5c-7,1.2-14.3,2-21.4,2.9c-37.2,4.6-75.1,5-112.8,5h-58.6
				c-8.6,0-17.2,0.2-25.7,0c-7.3-0.1-14.7-0.6-21.4-2.8c-0.4-0.1-0.4-0.6,0-0.7c20.8-7.6,46.1-8.3,69.3-8.8
				c7.6-0.2,15.3-0.3,22.9-0.5c8.7-0.3,17.3-0.9,25.9-1.5c9.7-0.6,19.4-1.1,29.2-1.7c8.9-0.5,17.9-1.4,26.8-1.6
				c6.8-0.3,14.5-0.3,20.7-2.4c1.7-0.5,3.3-1.3,4.8-2.2c1.6-1.1,1.2-1.7-1-2.1c-3.1-0.6-6.3-0.7-9.4-0.5c-6.7,0.3-13.3,1.4-20,1.8
				c-9.8,0.7-19.6,1-29.4,1c-19.7,0-39.3-0.9-59-1c-17.8-0.1-35.6,0.2-53.4,0.6c-10.1,0.7-20.1,1.6-29.9,3.2
				c-9.3,1.5-18.4,3.5-27.7,5c-8.9,1.5-17.9,2.7-27,3.5c-18.1,1.5-36.7,1.3-54.9,0.6c-13.8-0.5-27.6-1.6-41.2-3.5
				c-39.1-1.5-78.4-4.2-117.4-1.6c15.4,3.6,31.9,4.8,48.1,5.6c15.4,0.8,30.9,1.4,46.3,1.7c15.1,0.3,30.3-0.1,45.5,0.6
				c13.7,0.6,27.8,2,39.9,6.6c0.4,0.2,0.4,0.5,0,0.7c-8.8,4.3-21,4.9-31.5,5.1c-12.6,0.3-25.1-0.4-37.7-0.9
				c-16-0.7-32.1-0.6-48.1-0.8c-18.8-0.2-37.6-0.5-56.3-1c-19.8-0.6-39.4-1.9-59.2-3.4c-19.4-1.5-38.9-2.9-58.5-3.1s-39,0-58.5-0.3
				c-8.2-0.1-16.5-0.1-24.7-0.3c-6.1-0.2-12.6-0.7-17.5-3.4c-0.3-0.1-0.2-0.4,0-0.6c6.7-4.6,17.6-5.7,26.7-6.3
				c12.6-0.8,25.3-0.5,38-0.3c15.3,0.3,30.5,0.1,45.8,0.2c10,0.1,19.9,0.1,29.9,0c7.5-0.1,15.1-0.4,22.6-0.1
				c6.8,0.2,13.6,0.5,20.4,0.2c6.3-0.3,13-0.9,18.2-3.5c-21.2-4.5-43.4-6.2-65.6-7s-44.2-1.2-66.2-2.3c-19.9-1-39.8-3.4-59.7-3.9
				c-9.3-0.3-18.7,0.4-28,0.7c-11.3,0.3-22.8,0.7-34-0.3c-6-0.5-15.2-1.3-17.9-5.6c-0.1-0.1,0-0.3,0.1-0.4
				c11.7-6.2,28.9-6.8,43.2-7.8c20-1.4,39.6-4.4,59.5-5.9c8.6-0.6,16.9-1.4,24.8-3.8c6.4-1.9,12.3-4.2,19.1-5.4s15.2-1.9,20.7-5.1
				c0.9-0.5,0.6-0.5-0.2-1c-0.6-0.3-1.2-0.6-1.8-0.9c-1-0.4-2.1-0.8-3.2-1.1c-2.5-0.7-5-1.2-7.6-1.5c-12.1-1.3-24.5,0.4-36.6,0.7
				c-10.4,0.3-21.9-0.2-29.7-5.4c-0.3-0.2-0.2-0.5,0.1-0.6c6.4-3,14.5-4.2,22.1-5c8.5-0.9,17.1-1.4,25.7-2c7.9-0.6,15.8-1.4,23.7-2
				c9.5-0.7,19.1-1.4,28.4-2.8c6.8-1,13.8-2.4,19.9-4.8c4.1-1.6,11.7-4.8,11.3-8.6c-0.1-0.6-0.3-1.1-0.6-1.5
				c-23.2-3.1-46.3-7-69.6-8.4c-25.1-1.5-49.4-3.6-74.3-6.6c-20.5-2.5-40.2-9-60.7-11.5c-19.4-2.4-39.6-6.4-59.2-6.8v5.4
				c4,0.2,8,0.5,11.9,0.9c37.6,3.5,73.5,12.3,109.9,18.9c9.1,1.7,18.2,3.2,27.5,4.3c8.7,1,17.4,1.5,26.2,1.8
				c14.3,0.5,30.1,1,42.6,6.2c0.4,0.1,0.4,0.5,0,0.7c-7.4,2.5-15.6,3.4-23.8,3.7c-15.5,0.6-30.9-0.6-46.3-0.6
				c-17.6,0-34.8,2.8-51.8,5.4c-9.6,1.5-19.2,3.3-28.9,4.5c-6.3,0.8-12.6,1.1-18.9,1.7c-6.8,0.7-13.9,1.5-20,3.7
				c-1.6,0.5-3.2,1.2-4.6,2.1c-1.2,0.7-1.3,0.8-0.2,1.6c1.4,1,2.9,1.9,4.6,2.5c9.2,3.6,21,4.1,31.4,4.5c11.6,0.3,23.2,0.1,34.9,0
				c10.2-0.1,20.4,0.6,30.7,0.9c12.4,0.2,27.3,0.1,38,4.9c0.3,0.1,0.4,0.3,0.2,0.5c-2.8,3.5-7.2,4-12.7,4.4c-5,0.3-10,1.3-14.9,1.8
				c-4.3,0.5-8.6,0.9-12.9,1.3c-9.7,0.8-19.5,1.3-29.2,1.9c-19.9,1.1-39.5,2.8-59.2,5c-11.4,1.2-22.9,2.4-34.5,3.1v136.5h878V384
				C674.4,386.1,666,388.2,657.6,390.6z"/>
		</g>
		<path class="st17" d="M248.9,333.4c-0.9,0-2.2,0-3.4,0.1c-2.4,0.1-4.6,0.4-5.1,1c-0.1,0.1,0,0.1,0.1,0.2c2.4,1.1,7.1,0.8,10.3,0.6
			c1.2,0,7.7-0.1,7.4-1.1S250.8,333.3,248.9,333.4z"/>
		<path class="st17" d="M287.9,329.6c-0.8-0.7-5.6-0.4-7.1-0.4c-0.7,0-2.2,0-3.4,0.1h-1c-0.7,0-2.8,0.4-1.7,0.8
			c1.6,0.3,3.3,0.5,5,0.4c1.7,0,3.4-0.1,5-0.2c1,0,2-0.2,2.9-0.4C287.8,330,288,329.8,287.9,329.6z"/>
		<path class="st17" d="M20.1,361.3c-0.9,0-2.2,0-3.4,0.1c-2.4,0.1-4.6,0.4-5.1,1c-0.1,0.1-0.1,0.1,0.1,0.2
			c2.4,1.1,7.1,0.8,10.3,0.6c1.2,0,7.8-0.2,7.4-1.1S22,361.3,20.1,361.3z"/>
		<path class="st17" d="M59.3,364.3c-0.8-0.7-5.6-0.4-7.2-0.4c-0.7,0-2.2,0-3.4,0.1l-1.1,0c-0.7,0-2.8,0.4-1.7,0.8
			c1.6,0.4,3.3,0.5,5,0.4c1.7,0,3.4,0,5-0.2c1,0,2-0.1,2.9-0.4C59.2,364.6,59.5,364.5,59.3,364.3z"/>
		<path class="st17" d="M270,367c-0.6,0-1.5,0-2.4,0.1c-1.7,0.1-3.2,0.3-3.6,0.7c0,0,0,0.1,0.1,0.1c1.6,0.7,5,0.5,7.2,0.4
			c0.8,0,5.4-0.1,5.1-0.8S271.3,367,270,367z"/>
		<path class="st17" d="M297.4,369.1c-0.5-0.5-3.9-0.3-5-0.3c-0.5,0-1.5,0-2.4,0.1h-0.7c-0.5,0-2,0.3-1.2,0.5
			c1.1,0.2,2.3,0.3,3.5,0.3c1.2,0,2.4,0,3.5-0.1c0.7,0,1.3-0.1,2-0.3C297.3,369.3,297.5,369.2,297.4,369.1z"/>
		<path class="st17" d="M415.8,370.4c0,1-13.6,1.7-30.3,1.7s-30.3-0.8-30.3-1.7s13.5-1.8,30.3-1.8S415.8,369.5,415.8,370.4z"/>
		<path class="st18" d="M458.3,348.7c0,0,3.8-2.9,11.2-3.6s-7.9-3.8-13.4,3.6C456.1,348.7,453.6,352,458.3,348.7z"/>
		<path class="st18" d="M447.9,349.1c0,0,11.2-9.2,17.8-11.7s-6.3-2.7-15,5C450.6,342.4,446.2,347,447.9,349.1z"/>
		<path class="st18" d="M444.6,349.1c0,0,7.5-15,10.8-16.8s-5.4-2.9-10.8,9.3C444.6,341.6,442.4,348.1,444.6,349.1z"/>
		<path class="st18" d="M440.6,349.1c0,0,2.9-13.8,5.6-15.8S435.8,335.5,440.6,349.1z"/>
		<path class="st18" d="M439,349.1c0,0,0.1-11.5-5.8-13.2S436.6,343.3,439,349.1z"/>
		<path class="st18" d="M437.1,349.1c0,0-4.8-4.7-13.8-5S431.5,340.5,437.1,349.1z"/>
		<path class="st18" d="M436.3,349.1c-3.5-3.4-8.2-5.2-13-4.9C415,344.6,434.3,347.4,436.3,349.1z"/>
		<path class="st19" d="M-197.5,227.7c102.6,4.2,158.8,4.5,213.4,5.9c187.2,4.7,182.8-3.9,286.9,2c68,3.8,178.3-6.1,246.2-1.1
			c12.5,0.9,39.7,3.2,96.5,2.1c5.5-0.1,4.7,7.7,6,1.6c2.9-13.6,2.5-0.3,2.4,1c-0.3,7.1-2.7,2.3-2.1,5.7l-844.5,0.5L-197.5,227.7z"/>
		<path class="st20" d="M-215.2,167.1c-0.5-6.3-15.1-11.4-5.2-16.2c18.4-8.9,58.5-11.5,106.5-5.8C-25,155.9,13,139,98.2,151.8
			c15.3,2.3,27.3,4,50.4,2.8c29.7-1.6,8.4,4.7,75.4-3.7c15.3-1.9,30.8-1.2,45.9,2.1c32.7,7.2,71.2-1,101.2,2.1
			c13.3,1.4,104.2-9.1,111.8-9.9c166.1-17.2,164.3,13.8,164.1,15.6c0,0,9,0.8,18.2,1.2h0.1c0,0-8.2,51.2-8.2,51.2h-836.7
			L-215.2,167.1z"/>
		<polygon class="st21" points="-193.6,189.7 -193.6,237 204.4,237 204.4,192.2 		"/>
		<rect x="-193.6" y="185.8" class="st22" width="398" height="7.3"/>
		<rect x="-193.6" y="182.1" class="st21" width="398" height="7.3"/>
		<rect x="35" y="202.2" class="st23" width="7.4" height="4.1"/>
		<rect x="38.7" y="207.3" class="st23" width="7.4" height="4.1"/>
		<rect x="109.8" y="204.2" class="st23" width="7.4" height="4.1"/>
		<rect x="113.5" y="209.3" class="st23" width="7.4" height="4.1"/>
		<rect x="66.7" y="213" class="st23" width="7.4" height="4.1"/>
		<rect x="70.4" y="218" class="st23" width="7.4" height="4.1"/>
		<rect x="181" y="204.2" class="st23" width="7.4" height="4.1"/>
		<rect x="184.7" y="209.3" class="st23" width="7.4" height="4.1"/>
		<polygon class="st21" points="653.6,188.5 653.6,236.7 198.1,234.9 198.1,190.9 		"/>
		<rect x="198.1" y="188.5" class="st24" width="455.5" height="4.2"/>
		<rect x="204.5" y="181.2" class="st21" width="449.1" height="8.2"/>
		<rect x="468.6" y="215.8" class="st25" width="8.5" height="4"/>
		<rect x="464.3" y="220.8" class="st25" width="8.5" height="4"/>
		<rect x="383.5" y="200.7" class="st25" width="8.5" height="4"/>
		<rect x="379.3" y="205.7" class="st25" width="8.5" height="4"/>
		<rect x="298" y="202.7" class="st25" width="8.5" height="4"/>
		<rect x="293.7" y="207.7" class="st25" width="8.5" height="4"/>
		<rect x="347.3" y="211.3" class="st25" width="8.5" height="4"/>
		<rect x="343" y="216.3" class="st25" width="8.5" height="4"/>
		<rect x="216.5" y="202.7" class="st25" width="8.5" height="4"/>
		<rect x="212.2" y="207.7" class="st25" width="8.5" height="4"/>
		<g class="st26">
			<path class="st27" d="M67.4,170.5H62v-2.4c0.5-0.3,0.8-0.7,0.8-1.3c-0.1-0.9-0.8-1.5-1.7-1.5c-0.8,0.1-1.4,0.7-1.5,1.5
				c0,0.5,0.3,1,0.8,1.3v2.4H14.5v-2.4c0.5-0.3,0.8-0.7,0.8-1.3c0-0.9-0.7-1.6-1.6-1.6c-0.9,0-1.6,0.7-1.6,1.6c0,0.5,0.3,1,0.8,1.3
				v2.4H-33v-2.4c0.5-0.3,0.8-0.7,0.8-1.3c0-0.9-0.7-1.5-1.6-1.5c0,0,0,0,0,0c-0.9,0-1.6,0.6-1.6,1.5c0,0,0,0,0,0
				c0,0.5,0.3,1,0.8,1.3v2.4h-45.9v-2.4c0.5-0.3,0.8-0.7,0.8-1.3c0-0.9-0.7-1.5-1.6-1.5c0,0,0,0,0,0c-0.9,0-1.6,0.6-1.6,1.5
				c0,0,0,0,0,0c0,0.5,0.3,1,0.8,1.3v2.4h-45.9v-2.4c0.5-0.3,0.8-0.7,0.8-1.3c0-0.9-0.7-1.5-1.6-1.5c0,0,0,0,0,0
				c-0.9,0-1.6,0.6-1.6,1.5c0,0,0,0,0,0c0,0.5,0.3,1,0.8,1.3v2.4h-45.9v-2.4c0.5-0.3,0.8-0.7,0.8-1.3c0-0.9-0.7-1.5-1.6-1.5
				c0,0,0,0,0,0c-0.9,0-1.6,0.6-1.6,1.5c0,0,0,0,0,0c0,0.5,0.3,1,0.8,1.3v2.4h-45.9v-2.4c0.5-0.3,0.8-0.7,0.8-1.3
				c0-0.9-0.7-1.5-1.6-1.5c0,0,0,0,0,0c-0.9,0-1.6,0.6-1.6,1.5c0,0,0,0,0,0c0,0.5,0.3,1,0.8,1.3v2.4h-30.8v2.2h30.8v9.7h1.6v-9.7
				h45.9v9.7h1.6v-9.7h45.9v9.7h1.6v-9.7H-82v9.7h1.6v-9.7h45.9v9.7h1.6v-9.7h45.9v9.7h1.6v-9.7h45.9v9.7H62v-9.7h5.5L67.4,170.5z"
				/>
			<path class="st28" d="M-32.2,172v-1.5H-33v-2.4c0.5-0.3,0.8-0.7,0.8-1.3c0-0.6-0.4-1.1-0.9-1.4c0.1,0.2,0.1,0.4,0.1,0.6
				c0,0.9-0.7,1.5-1.6,1.5c0,0,0,0,0,0c-0.2,0-0.4,0-0.7-0.1c0.3,0.5,0.8,0.9,1.4,0.9c0.1,0,0.2,0,0.3,0v14.2h0.5v-9.7h45.9V172
				H-32.2z"/>
			<path class="st28" d="M15.3,170.5h-0.8v-2.4c0.7-0.4,1-1.2,0.6-1.9c-0.2-0.3-0.4-0.6-0.8-0.7c0.1,0.2,0.1,0.4,0.1,0.6
				c0,0.9-0.7,1.5-1.6,1.5c0,0,0,0,0,0c-0.2,0-0.4,0-0.6-0.1c0.3,0.5,0.8,0.9,1.4,0.9c0.1,0,0.2,0,0.3,0v14.2h0.5v-9.7h45.9V172
				H15.3V170.5z"/>
		</g>
		<g class="st26">
			<path class="st27" d="M384.8,170.5h-5.5v-2.4c0.5-0.3,0.8-0.7,0.8-1.3c0-0.9-0.7-1.6-1.6-1.6c-0.9,0-1.6,0.7-1.6,1.6
				c0,0.5,0.3,1,0.8,1.3v2.4h-45.9v-2.4c0.5-0.3,0.8-0.7,0.8-1.3c0-0.9-0.7-1.6-1.6-1.6c-0.9,0-1.6,0.7-1.6,1.6c0,0.5,0.3,1,0.8,1.3
				v2.4h-45.9v-2.4c0.5-0.3,0.8-0.7,0.8-1.3c-0.1-0.9-0.8-1.5-1.7-1.5c-0.8,0.1-1.4,0.7-1.5,1.5c0,0.5,0.3,1,0.8,1.3v2.4H237v-2.4
				c0.5-0.3,0.8-0.7,0.8-1.3c0-0.9-0.7-1.6-1.6-1.6s-1.6,0.7-1.6,1.6c0,0.5,0.3,1,0.8,1.3v2.4h-45.9v-2.4c0.5-0.3,0.8-0.7,0.8-1.3
				c0-0.9-0.7-1.6-1.6-1.6s-1.6,0.7-1.6,1.6c0,0.5,0.3,1,0.8,1.3v2.4H142v-2.4c0.5-0.3,0.8-0.7,0.8-1.3c-0.1-0.9-0.8-1.5-1.7-1.5
				c-0.8,0.1-1.4,0.7-1.5,1.5c0,0.5,0.3,1,0.8,1.3v2.4H94.6v-2.4c0.5-0.3,0.8-0.7,0.8-1.3c0-0.9-0.7-1.6-1.6-1.6s-1.6,0.7-1.6,1.6
				c0,0.5,0.3,1,0.8,1.3v2.4H62.2v2.2H93v9.7h1.6v-9.7h45.9v9.7h1.6v-9.7h45.9v9.7h1.6v-9.7h45.9v9.7h1.7v-9.7h45.9v9.7h1.6v-9.7
				h45.9v9.7h1.6v-9.7h45.9v9.7h1.6v-9.7h5.5L384.8,170.5z"/>
			<path class="st29" d="M187.6,166.9c0.7,0.6,1.9-0.5,1.2-1.1S186.9,166.3,187.6,166.9z"/>
			<path class="st29" d="M235.1,166.9c0.7,0.6,1.9-0.5,1.2-1.1S234.4,166.3,235.1,166.9z"/>
			<path class="st29" d="M282.5,166.9c0.7,0.6,1.9-0.5,1.3-1.1S281.9,166.3,282.5,166.9z"/>
			<path class="st29" d="M140.2,166.9c0.7,0.6,1.9-0.5,1.3-1.1S139.5,166.3,140.2,166.9z"/>
			<path class="st28" d="M95.4,170.5h-0.8v-2.4c0.7-0.4,1-1.2,0.6-1.9c-0.2-0.3-0.4-0.6-0.8-0.7c0.1,0.2,0.1,0.4,0.1,0.6
				c0,0.9-0.8,1.5-1.7,1.5c-0.2,0-0.4-0.1-0.6-0.1c0.3,0.5,0.8,0.9,1.4,0.9c0.1,0,0.2,0,0.3,0v14.2h0.5v-9.7h45.9V172H95.4V170.5z"
				/>
			<path class="st28" d="M190.3,172v-1.5h-0.8v-2.4c0.5-0.3,0.8-0.7,0.8-1.3c0-0.6-0.4-1.1-0.9-1.4c0.1,0.2,0.1,0.4,0.1,0.6
				c0,0.8-0.7,1.5-1.6,1.5c-0.2,0-0.4,0-0.6-0.1c0.3,0.5,0.8,0.9,1.4,0.9c0.1,0,0.2,0,0.3,0v14.2h0.5v-9.7h45.9V172H190.3z"/>
			<path class="st28" d="M237.7,172v-1.5H237v-2.4c0.5-0.3,0.8-0.7,0.8-1.3c0-0.6-0.4-1.1-0.9-1.4c0.1,0.2,0.1,0.4,0.1,0.6
				c0,0.8-0.7,1.5-1.6,1.5c-0.2,0-0.4,0-0.6-0.1c0.3,0.5,0.8,0.9,1.4,0.9c0.1,0,0.2,0,0.3,0v14.2h0.5v-9.7h45.9V172H237.7z"/>
			<path class="st28" d="M285.2,172v-1.5h-0.8v-2.4c0.7-0.4,1-1.2,0.6-1.9c-0.2-0.3-0.4-0.6-0.8-0.7c0.1,0.2,0.1,0.4,0.1,0.6
				c0,0.9-0.7,1.5-1.6,1.5c0,0,0,0,0,0c-0.2,0-0.4,0-0.6-0.1c0.3,0.5,0.8,0.9,1.4,0.9c0.1,0,0.2,0,0.3,0v14.2h0.5v-9.7h45.9V172
				H285.2z"/>
			<path class="st28" d="M332.6,170.5h-0.8v-2.4c0.7-0.4,1-1.2,0.6-1.9c-0.2-0.3-0.4-0.6-0.8-0.7c0.1,0.2,0.1,0.4,0.1,0.6
				c0,0.9-0.7,1.5-1.6,1.5c0,0,0,0,0,0c-0.2,0-0.4,0-0.6-0.1c0.3,0.5,0.8,0.9,1.4,0.9c0.1,0,0.2,0,0.3,0v14.2h0.5v-9.7h45.9V172
				h-45.1V170.5z"/>
			<path class="st28" d="M142.8,172v-1.5H142v-2.4c0.7-0.4,1-1.2,0.6-2c-0.2-0.3-0.4-0.6-0.8-0.7c0.1,0.2,0.1,0.4,0.1,0.6
				c0,0.9-0.7,1.5-1.6,1.5c0,0,0,0,0,0c-0.2,0-0.4,0-0.6-0.1c0.3,0.5,0.8,0.9,1.4,0.9c0.1,0,0.2,0,0.3,0v14.2h0.5v-9.7h45.9V172
				H142.8z"/>
		</g>
		<g class="st26">
			<path class="st27" d="M702.1,170.5h-5.5v-2.4c0.5-0.3,0.8-0.7,0.8-1.3c0-0.9-0.7-1.6-1.6-1.6c-0.9,0-1.6,0.7-1.6,1.6
				c0,0.5,0.3,1,0.8,1.3v2.4h-45.9v-2.4c0.5-0.3,0.8-0.7,0.8-1.3c0-0.9-0.7-1.6-1.6-1.6c-0.9,0-1.6,0.7-1.6,1.6c0,0.5,0.3,1,0.8,1.3
				v2.4h-45.9v-2.4c0.5-0.3,0.8-0.7,0.8-1.3c-0.1-0.9-0.8-1.5-1.7-1.5c-0.8,0.1-1.4,0.7-1.5,1.5c0,0.5,0.3,1,0.8,1.3v2.4h-45.9v-2.4
				c0.5-0.3,0.8-0.7,0.8-1.3c0-0.9-0.7-1.6-1.6-1.6c-0.9,0-1.6,0.7-1.6,1.6c0,0.5,0.3,1,0.8,1.3v2.4h-45.9v-2.4
				c0.5-0.3,0.8-0.7,0.8-1.3c0-0.9-0.7-1.6-1.6-1.6c-0.9,0-1.6,0.7-1.6,1.6c0,0.5,0.3,1,0.8,1.3v2.4h-45.9v-2.4
				c0.5-0.3,0.8-0.7,0.8-1.3c-0.1-0.9-0.8-1.5-1.7-1.5c-0.8,0.1-1.4,0.7-1.5,1.5c0,0.5,0.3,1,0.8,1.3v2.4h-45.9v-2.4
				c0.5-0.3,0.8-0.7,0.8-1.3c0-0.9-0.7-1.6-1.6-1.6c-0.9,0-1.6,0.7-1.6,1.6c0,0.5,0.3,1,0.8,1.3v2.4h-30.9v2.2h30.9v9.7h1.6v-9.7
				h45.9v9.7h1.6v-9.7h45.9v9.7h1.6v-9.7h45.9v9.7h1.6v-9.7h45.9v9.7h1.6v-9.7h45.9v9.7h1.6v-9.7h45.9v9.7h1.6v-9.7h5.5L702.1,170.5
				z"/>
			<path class="st29" d="M457.5,166.9c0.7,0.6,1.9-0.5,1.3-1.1S456.8,166.3,457.5,166.9z"/>
			<path class="st28" d="M412.7,170.5h-0.8v-2.4c0.7-0.4,1-1.2,0.6-1.9c-0.2-0.3-0.4-0.6-0.8-0.7c0.1,0.2,0.1,0.4,0.1,0.6
				c0,0.9-0.7,1.5-1.6,1.5c0,0,0,0,0,0c-0.2,0-0.4,0-0.6-0.1c0.3,0.5,0.8,0.9,1.4,0.9c0.1,0,0.2,0,0.3,0v14.2h0.5v-9.7h45.9V172
				h-45.1V170.5z"/>
			<path class="st28" d="M460.2,172v-1.5h-0.8v-2.4c0.7-0.4,1-1.2,0.6-1.9c-0.2-0.3-0.4-0.6-0.8-0.7c0.1,0.2,0.1,0.4,0.1,0.6
				c0,0.9-0.7,1.5-1.6,1.5c0,0,0,0,0,0c-0.2,0-0.4,0-0.6-0.1c0.3,0.5,0.8,0.9,1.4,0.9c0.1,0,0.2,0,0.3,0v14.2h0.5v-9.7h45.9V172
				H460.2z"/>
		</g>
		<rect x="199.6" y="178.6" class="st22" width="2.3" height="9.7"/>
		<ellipse class="st30" cx="200.6" cy="171.5" rx="6.4" ry="9.6"/>
		<rect x="399.2" y="178.1" class="st22" width="2.3" height="9.7"/>
		<ellipse class="st30" cx="400.1" cy="170.9" rx="6.4" ry="9.6"/>
		<path class="st31" d="M86.2,243.5h110.4c0.4-1,0.1-2-0.7-2.7c-2.8-3-9.9-2.6-9.9-2.6s7-3.6,2.7-6s-10.3-0.4-10.3-0.4
			s5.9-4.6-0.6-6.9c-0.3-0.1-0.5-0.2-0.8-0.3c-3.3-1-6.8-0.6-9.8,0.9c0,0-1-2.5-4.7-3c-2.3-0.4-4.7,0.1-6.6,1.5c0,0-1.9-3.4-8.4-3.3
			c-9,0.3-9.5,3.8-9.5,3.8c-1.9-1.6-4.3-2.5-6.8-2.3c-3.3,0.4-3.3,3.1-3.3,3.1s-3.4-4.5-14.2-3.2h-0.3c-11,1.4-8,6.7-8,6.7
			s-4.9-1.5-8.6-0.4c-0.6,0.2-1.2,0.4-1.7,0.8c-3.5,2.3,0.4,5.1,0.5,5.2c-0.3,0-6.7-0.8-9.3,2.4C84.4,239.4,84.8,241.8,86.2,243.5z"
			/>
		<path class="st31" d="M332.4,241.8h280.5v-49.3c-4.8-9.1-20.7-14.6-29.7-8.1c0,0,2.8-17.8-17.7-26.2s-35.3,5.7-35.3,5.7
			s-6.7-21.4-32.2-10.3c-8.2-12.4-29.2-11.2-31.4,4.6c0,0-15.8-19.7-40-15s-24.5,24.1-24.5,24.1s-0.7-0.4-1.9-1
			c-5-2.5-19.7-6.4-33.1,2.1c-15.4,9.8-15,19.4-13.7,27c0.3,1.7,0.7,3.4,1.1,5.2c0,0-16.3-1.6-24.8,18.1
			C325.5,228.4,328.5,236.3,332.4,241.8z"/>
		<path class="st32" d="M398.4,395c0,0,13.7-2,13.3-7.7S398.4,395,398.4,395z"/>
		<path class="st32" d="M395.7,397.3c0,0,7.6-14.1,13.3-17.7s-9.9-3.9-13.3,10.9V397.3z"/>
		<path class="st32" d="M395.1,395.3c0,0,3.8-11-10.5-11.6C378.2,383.5,395.1,395.3,395.1,395.3z"/>
		<path class="st18" d="M97.9,345.1c0,0,6.4-4.3,18.8-5.4s-13.3-5.6-22.4,5.4C94.2,345.1,90.1,350,97.9,345.1z"/>
		<path class="st18" d="M80.5,345.7c0,0,18.8-13.7,29.8-17.4s-10.5-4-25.2,7.5C85.1,335.8,77.7,342.6,80.5,345.7z"/>
		<path class="st18" d="M75,345.7c0,0,12.5-22.3,18.2-25s-9-4.3-18.2,13.9C75,334.6,71.3,344.2,75,345.7z"/>
		<path class="st18" d="M68.3,345.7c0,0,4.8-20.4,9.4-23.5S60.3,325.6,68.3,345.7z"/>
		<path class="st18" d="M65.6,345.7c0,0,0.2-17-9.6-19.6S61.7,337.2,65.6,345.7z"/>
		<path class="st18" d="M62.4,345.7c0,0-6.2-19.5-21.3-20S53,332.9,62.4,345.7z"/>
		<path class="st18" d="M61.1,345.7c-6.1-5.2-13.9-7.8-21.8-7.3C25.5,339,57.7,343.3,61.1,345.7z"/>
		<path class="st18" d="M57.5,267.2c0,0,4.9-3.3,14.4-4.1s-10.2-4.3-17.2,4.1C54.7,267.2,51.5,271,57.5,267.2z"/>
		<path class="st18" d="M44.2,267.7c0,0,14.4-10.5,22.8-13.3s-8.1-3-19.3,5.7C47.7,260.1,42.1,265.4,44.2,267.7z"/>
		<path class="st18" d="M40,267.7c0,0,9.6-17,13.9-19.1S47,245.3,40,259.2C40,259.2,37.2,266.5,40,267.7z"/>
		<path class="st18" d="M34.9,267.7c0,0,3.7-15.6,7.2-18S28.7,252.3,34.9,267.7z"/>
		<path class="st18" d="M32.8,267.7c0,0,0.2-13-7.4-15S29.8,261.2,32.8,267.7z"/>
		<path class="st18" d="M30.3,267.7c0,0-4.7-14.9-16.3-15.3S23.1,257.9,30.3,267.7z"/>
		<path class="st18" d="M29.3,267.7c-4.6-4-10.6-6-16.7-5.6C2.1,262.6,26.8,265.8,29.3,267.7z"/>
		<path class="st32" d="M391.1,271.2c0,0,4.6-3,13.4-3.8s-9.4-4-16,3.8C388.5,271.2,385.6,274.7,391.1,271.2z"/>
		<path class="st32" d="M378.8,271.6c0,0,13.4-9.8,21.2-12.4s-7.5-2.8-17.9,5.3C382,264.6,376.8,269.5,378.8,271.6z"/>
		<path class="st32" d="M374.9,271.6c0,0,8.9-15.8,12.9-17.8s-6.4-3-12.9,9.9C374.9,263.7,372.3,270.5,374.9,271.6z"/>
		<path class="st32" d="M370.2,271.6c0,0,3.4-14.5,6.7-16.7S364.5,257.3,370.2,271.6z"/>
		<path class="st32" d="M368.2,271.6c0,0,0.2-12.1-6.8-14S365.4,265.6,368.2,271.6z"/>
		<path class="st32" d="M365.9,271.6c0,0-4.4-13.9-15.1-14.2S359.3,262.5,365.9,271.6z"/>
		<path class="st32" d="M365,271.6c-4.3-3.7-9.9-5.5-15.5-5.2C339.7,266.9,362.6,269.9,365,271.6z"/>
		<path class="st33" d="M495.2,376.7c0,0,0.2-12.1-6.8-14S492.5,370.6,495.2,376.7z"/>
		<path class="st33" d="M493,376.7c0,0-4.4-13.9-15.1-14.2S486.3,367.6,493,376.7z"/>
		<path class="st33" d="M492,376.7c-4.3-3.7-9.9-5.5-15.5-5.2C466.8,371.9,489.6,374.9,492,376.7z"/>
		<ellipse class="st34" cx="38.4" cy="312.4" rx="14.5" ry="3.1"/>
		<ellipse class="st35" cx="228.9" cy="361.7" rx="201.6" ry="59.8"/>
		<ellipse class="st36" cx="235.3" cy="361" rx="173.7" ry="46.9"/>
		<path class="st37" d="M231.9,273.8l27.9-24.8c3.1-2.7,7.7-2.8,10.9-0.2l5.3,4.3c3.6,2.9,4.1,8.2,1.2,11.8
			c-0.1,0.1-0.2,0.2-0.3,0.4L251,292.9c-3.2,3.5-8.6,4-11.9,0.6l-7.5-7.6c-3.3-3.3-3.2-8.6,0-11.9
			C231.7,274,231.8,273.9,231.9,273.8z"/>
		<path class="st37" d="M254.2,289.6c-6.4,17.5-21,13-26.6,7.4s-8.6-20.8,5.9-24.8"/>
		<path class="st38" d="M229.2,290.5c0,0-1.5-7.6,10.3-16.5s30.3-24.9,30.3-24.9c1.6,0.5,2.9,1.6,3.9,3l-31.1,26.2
			c0,0-9.9,8.2-8.2,18.3L229.2,290.5z"/>
		
			<linearGradient id="SVGID_7_" gradientUnits="userSpaceOnUse" x1="257.3605" y1="164.45" x2="249.7905" y2="68.84" gradientTransform="matrix(1 0 0 -1 0 426)">
			<stop  offset="0.1" style="stop-color:#286BAD"/>
			<stop  offset="0.13" style="stop-color:#3476B3"/>
			<stop  offset="0.23" style="stop-color:#5B96C7"/>
			<stop  offset="0.33" style="stop-color:#7BB1D7"/>
			<stop  offset="0.44" style="stop-color:#94C6E4"/>
			<stop  offset="0.55" style="stop-color:#A5D4ED"/>
			<stop  offset="0.67" style="stop-color:#B0DDF2"/>
			<stop  offset="0.81" style="stop-color:#B3E0F4"/>
		</linearGradient>
		<path class="st39" d="M234.2,295.2c0,0,9.8-1.2,19.5-11.3s23.9-27.9,23.9-27.9s3.2,2-0.2,7.9l-23.2,24.9c0,0-7.1,19.7-21.4,10.8
			L234.2,295.2z"/>
		<path class="st40" d="M233,290.8c2.8,3.2,3.3,6.8,1.6,8.6c-4.5,4.8-5.6,0.3-8.3-2.8s-6.9-5-1.6-8.6
			C226.7,286.6,230.3,287.6,233,290.8z"/>
		
			<ellipse transform="matrix(0.7539 -0.657 0.657 0.7539 -138.0261 222.3762)" class="st37" cx="227.8" cy="295.4" rx="4.4" ry="7.6"/>
		<path class="st37" d="M233,300.2c-1.1,1-3.3,0.3-5.5-1.5c-0.5-0.5-1.1-1-1.5-1.5c-2.5-2.9-3.4-6.2-2.1-7.4s4.5,0.2,7,3.1
			c0.4,0.4,0.7,0.9,1,1.3C233.6,296.7,234.1,299.2,233,300.2z"/>
		<path class="st41" d="M233,300.2c-1.1,1-3.3,0.3-5.5-1.5l4.4-4.5C233.6,296.7,234.1,299.2,233,300.2z"/>
		<path class="st42" d="M232.9,272.7c0,0,3.6-1.1,11.9,6.9s8.3,11.7,8.3,11.7s-0.1-5.4-7.6-12.7S232.9,272.7,232.9,272.7z"/>
		<path class="st43" d="M98.3,271.7c-2.9-8.4-15.9-7.9-20.4-4.4c0,0-4.9,2.4-6.6,31.9l-1.6,16.2c0,0-2,8.2,5.3,10.9
			c5.3,1.9,18,3.8,22.9,0.2S98.3,271.7,98.3,271.7z"/>
		<path class="st44" d="M95.9,269.8c-23.2-11.1-23.9,25.3-26.7,42.9c-0.6,8.8,17.5,12,26.3,8.8s4-43.5,4-43.5"/>
		<path class="st43" d="M100.9,278.6c0,0,3-5.3-3.4-8.1C85,263.4,68,286.7,83.9,294.9C82.5,285.3,87.6,271.4,100.9,278.6z"/>
		<path class="st45" d="M84.1,295.3c0,0-5.6-2.7-6.6-7.3c-7.5,5.3-1.8,18,9.3,15.8L84.1,295.3z"/>
		<path class="st44" d="M79.5,302.9c0,0-3.9-0.9-6.9,3.7"/>
		<path class="st46" d="M142.4,344.2c-21.2,14.5-38.2-2-51-31.5c-8.2-19.3-10.9-31.7-1.7-36.4c0,0,5.7-2.5,8.9,1.4l9.9,11.1
			C108.5,288.7,152.6,312.2,142.4,344.2z"/>
		<path class="st46" d="M196.7,333.2c-3.1,17.9-29.9,16.2-39.8,0C150.6,323.5,196.9,323.5,196.7,333.2z"/>
		<path class="st47" d="M196.7,284.5l1.8,47.3c-12.7,13-44,10.8-53.4-2.9l3.5-41.8L196.7,284.5z"/>
		<path class="st48" d="M196.7,284.5c0,0,3.1,41.6,1.8,47.3c-12.2,12.9-39,10-50.7,0.2"/>
		<path class="st47" d="M167.6,295c0,0-2.3,20-3.1,19.9s-10.9,5.1-13.6,4.3c0,0-2,22.2-4.3,24.1s-33.6,2-45.9-24.1l4.4-51L167.6,295
			z"/>
		<path class="st48" d="M165.3,295.3l-4.6,20.3c0,0-5.9,3.6-9.8,3.5c0,0-1.3,19.5-4.3,24.1c0,0-14.2,5.6-32.1-7.8
			c-12.7-9.5-13.8-16.3-13.8-16.3l4.4-51"/>
		<path class="st48" d="M119.3,283.5c0,0-8.1,10-16.1,7.5"/>
		<path class="st49" d="M196.7,298.9c-32.5,16.8-68.4-0.9-91.5-18.3l0.6-9.2l90.2,13.6L196.7,298.9z"/>
		<path class="st50" d="M107.7,217.2l-4.8,54.1c0.9,11.2,19.8,20.6,30.9,24.6c24.7,8.7,46.5,1.8,57.4-3.3c4.4-2.1,7.1-6.6,6.7-11.5
			c-2-27.7,2.3-68.4,2.3-68.4c3.6-2.1,3.1-4.3,3.1-4.3l7.6-24.8l-13.5-16.9c-37.1-10.3-28.4-11.9-66.8-3.8l-23,30.2L107.7,217.2z"/>
		<path class="st51" d="M197.4,242.9c0,0-53.5,14-91.2-15.6l-0.8,8.9c0,0,33.8,25.7,91.5,14.3L197.4,242.9z"/>
		<path class="st52" d="M239.6,195.9c0,0,0.6,2.5-0.5,4.1l-3.6-3.8L239.6,195.9z"/>
		<path class="st53" d="M239.6,255.7c-5.8-31-16.5-32.1-23.4-37.9c0,0,6.6-19.2,19-22.7c15.1,17.3,20.5,14.5,24,54.6"/>
		<path class="st54" d="M227.2,215.2c-0.8,1.8-1.2,3.7-1.2,5.6c0,0.9,0.2,1.9,0.4,2.8c0.2,0.9,0.5,1.9,0.8,2.8h-0.1
			c-0.7-0.8-1.2-1.7-1.5-2.6c-0.3-1-0.4-2-0.3-3C225.5,218.8,226.1,216.9,227.2,215.2L227.2,215.2z"/>
		<path class="st55" d="M223.3,221.9c0,0-2.9-1.9-3.9-2.8s4.8-15.8,10.7-21.1l5.4-1.8l4.1,4.4C239.6,200.6,229.3,206.2,223.3,221.9z
			"/>
		<path class="st53" d="M258.3,248.8c4.4,2.5,1.8,20.8-9,17.7c-4.8-1.3-5.7-1.1-8.4-0.1s-2.4,1.7-6.4,4.5c-1.6,1.1-2.4-0.2-2.8-1.8
			c-0.5-1.9-0.4-5.7,0.6-7.4c2.6-4.8,6.5-8.2,9.9-8.4"/>
		<path class="st53" d="M88,198.3c0,0-21,21.2-14.5,27.3l7.7,7.6c0,0,22.2-12.2,21.8-13.1S105.5,200.1,88,198.3z"/>
		<path class="st56" d="M187.5,175.8c-1.4,12.8-41.4,7.8-36.6-11.8C154.4,155.6,187.9,166.1,187.5,175.8z"/>
		<path class="st50" d="M189.7,171.4l15.1-2.1c13.6,7.2,33.5,26.5,33.5,26.5c-13.8,7.8-18.4,25.3-18.4,25.3s-12.9-7.4-19-13.6"/>
		<path class="st51" d="M237.1,195.6c0,0-11.1,5.1-17.6,24.3l-6.6-4.1c3.2-10.4,10.3-19.1,19.9-24.3L237.1,195.6z"/>
		<path class="st56" d="M223.9,145.5c-5.3,6.9-13.7,8.6-19.4,4.5s-2.5-7.9,2.8-14.8s5.3-6,12.1-7.7
			C234.5,123.8,229.2,138.6,223.9,145.5z"/>
		<path class="st57" d="M221.1,131.3c10.3-0.4-4.5,20.6-9.4,16.5c-1.8-4.1,4.5-5.4,6.5-7.8c1.4-2.5-2.3-2.9-3.9-3.1
			C214.6,133.9,218.4,131.9,221.1,131.3z"/>
		<path class="st56" d="M217.6,93.4C195.6,74.3,232.1,62,199,56.2c-32.1-5.6-53.8,7.3-59.7,35.3c-2.7,13-1.1,27.4-1.3,28.1
			c-10.7,43.7,30.2,69.7,60.9,51.7c10.5-5.6,19.7-15.4,23.9-38.6C222.8,132,236,109.3,217.6,93.4z"/>
		<path class="st58" d="M165.5,145.1c3.9,1.8,29.5,6,33.5,6.1C185,170,172.7,167.9,165.5,145.1z"/>
		<path class="st59" d="M182.2,149.1c-4.5-1-17.3-5.1-17.3-5.1c11.2,19.9,17.9,22.3,35.3,6.2C200.1,150.2,186.7,150.1,182.2,149.1z"
			/>
		<path class="st60" d="M187.3,156.4c-0.7-0.4-5.4-1.5-6.1-0.8c-2.4-1.6-9-2.4-9.1-0.7c4.1,5.3,9.4,8.4,15.3,4.6
			C189.9,158.2,192,158.1,187.3,156.4z"/>
		<path class="st57" d="M200,147.2c0,0-0.9,4.8,0.9,5.8s0.3-1.6,0-2.5C200.7,149.9,200,147.2,200,147.2z"/>
		<path class="st57" d="M166.4,141.2c-0.6,6.3-6.2,6.3-1.9,2.8C165.2,143.1,165.8,142.2,166.4,141.2z"/>
		
			<linearGradient id="SVGID_8_" gradientUnits="userSpaceOnUse" x1="1136.5807" y1="-208.653" x2="1136.9607" y2="-217.683" gradientTransform="matrix(1.41 0.22 0.26 -1.63 -1365.05 -452.47)">
			<stop  offset="0" style="stop-color:#E8D9D7"/>
			<stop  offset="0.4" style="stop-color:#EFE5E4"/>
			<stop  offset="1" style="stop-color:#FFFFFF"/>
		</linearGradient>
		<path class="st61" d="M168.8,145.4c-0.9,8.7,24.6,14.2,26.6,4.9c-4.5,0.2-8.9-0.1-13.3-1C177.9,148.6,173.4,145.9,168.8,145.4z"/>
		<path class="st58" d="M164.9,144c0,0,8.3,5.7,16.3,6.8c17,2.3,18.9-0.6,18.9-0.6s-13.6-0.7-18.5-1.9
			C177.2,147.3,164.9,144,164.9,144z"/>
		<path class="st62" d="M173.9,100.1c-3.3-0.3-14.2,1.4-15.8,8.3c0,0,8.2-4.6,15.9-4.7C173.9,103.6,175.5,100.3,173.9,100.1z"/>
		<path class="st62" d="M205,106c3.2,0.4,13.5,4.4,13.5,11.5c0,0-6.9-6.3-14.4-8C204.2,109.5,203.4,105.8,205,106z"/>
		<path class="st57" d="M161.6,81.7c0,0,5.1,10.9,41.2,17.2l-0.1-5c0,0,0.9,7.1,21.2,14.6l-1.4,26.4L238.1,82l-74.9-19.8l-13.8,9.8
			l-2.1,14.5c0,0-12.5,27.6-13.1,37.6l2.4,0.8c5.7-5.4,9.2-14,12.2-21.2C148.9,103.8,155.6,108.2,161.6,81.7z"/>
		<path class="st62" d="M160.1,73.9c0,0-5.8,10.6,42,22c0,0-1.1-0.8-3.3-12.8c2.9,14.9,15.4,17.5,24,22.1l6.5-13.5l-6.8,43.1
			c5-10.1,14.6-21.2,15.6-40.7c0.7,3.2,1.1,6.4,1.2,9.7c0,0,16-28.5-11.9-46.1c0,0,4-0.5,10.7,4.5C235.8,46.7,185,16.9,161,42.6
			c0,0-13.3-10.3-25.6,10.5c0,0,12-5.6,15.7-2.1c0,0-12.1-2.6-21.2,20.4c-7.6,19.3-1.1,37.1,6.6,54.1c6.5-9,10.2-19.6,10.8-30.7
			l2.8,7.6C150.2,102.5,159.1,98.5,160.1,73.9z"/>
		<path class="st63" d="M177.6,119.5c0.7,13.6-20,14.8-21.2,1.3C155.7,107.2,176.5,106,177.6,119.5z"/>
		<path class="st64" d="M174.6,126.2c0.1,4.1-12.3,6.7-12.3,0.8C161.5,118.9,174.5,118.1,174.6,126.2z"/>
		<path class="st65" d="M167.2,122.8c0.3,0.9-0.2,1.9-1.1,2.3c-0.9,0.3-1.9-0.2-2.3-1.1c0-0.1-0.1-0.2-0.1-0.3
			c-0.3-0.9,0.2-1.9,1.1-2.3c0.9-0.3,1.9,0.2,2.3,1.1C167.2,122.6,167.2,122.7,167.2,122.8z"/>
		<path class="st63" d="M214.9,127.7c-1.6,13.8-22,11.8-20.9-2.2C195.7,111.7,216.1,113.8,214.9,127.7z"/>
		<path class="st64" d="M211.8,132.8c0.1,4.1-12.3,6.7-12.3,0.8C198.8,125.5,211.7,124.7,211.8,132.8z"/>
		<path class="st65" d="M204.4,129.4c0.3,0.9-0.3,1.9-1.2,2.2c-0.9,0.3-1.9-0.3-2.2-1.2c0,0,0-0.1,0-0.1c-0.3-0.9,0.3-1.9,1.2-2.2
			C203.2,127.8,204.2,128.4,204.4,129.4C204.4,129.3,204.4,129.3,204.4,129.4z"/>
		<path class="st66" d="M179.2,136.9c3.2,6.1,19.1,6.9,14-4.2"/>
		<path class="st67" d="M179.2,136.9c1.3,1.4,2.9,2.3,4.7,2.8c1.7,0.5,3.5,0.7,5.3,0.5c1.6,0,3.1-0.8,4-2.2c0.4-0.8,0.5-1.6,0.5-2.5
			c0-0.9-0.2-1.9-0.4-2.8c0.6,0.8,1.1,1.7,1.4,2.7c0.3,1,0.3,2.2,0,3.2c-0.4,1.1-1.1,2-2.1,2.6c-0.9,0.6-2,0.9-3.1,1
			c-2.1,0.2-4.1-0.2-6-1.1C181.5,140.4,180,138.8,179.2,136.9z"/>
		<path class="st56" d="M136.5,137.3c-19.4,12.2-23-38.6-5.9-25c0,0,6.3,4.9,7.2,12.8"/>
		<path class="st57" d="M127.8,115.2c-7.8-2.8-4.1,15.7-0.9,18.3c1.5,1.2,3-0.4,2.9-2.1c0-2.2-1.4-3.9-2.4-5.7c-2-3.2,1-4.2,3.6-3
			C131.9,120,129.9,116.7,127.8,115.2z"/>
		<path class="st50" d="M139.6,161.3c-21.6-2.2-44.5,25.8-52.6,36.3c0,0,15.1,10.7,20.1,25.7"/>
		<path class="st51" d="M101.1,210.5c0,0-8.3-10.3-13.1-13l4.1-4.5c0,0,12.2,10.7,13.9,17.3L101.1,210.5z"/>
		<path class="st68" d="M125.7,186.3c0.5,3.8,0.4,7.5-0.2,11.3c-0.3,1.9-0.9,3.8-1.7,5.5c-0.9,1.8-2.3,3.2-4.1,4l-0.1-0.1
			c1.4-1.2,2.5-2.7,3.3-4.3c0.8-1.7,1.4-3.4,1.8-5.2c0.4-1.8,0.7-3.7,0.8-5.5C125.7,190,125.7,188.2,125.7,186.3L125.7,186.3z"/>
		<path class="st53" d="M88.3,209.3c8.7,2.5,19,2,27.7,0c20.6,18.7-29.3,51.4-43.4,15.3"/>
		<path class="st53" d="M110.1,212.8c0,0,9.3-8.1,12.7-12.8c0,0,13.9,9.1,16.8,16.7c3.1,8-6.5,4.3-6.5,4.3s3.5,7.7-4.2,6.4
			c0,0,1.9,7.9-5.6,6.6c0,0-2.2,6-7.8,1.9c-4.3,1-8.7,0.3-12.5-1.9"/>
		<path class="st54" d="M115.4,235.3c-1.3-0.4-2.4-1-3.4-1.9c-0.5-0.4-1-0.8-1.4-1.4c-0.4-0.5-0.7-1.1-0.9-1.8h0.1
			c0.5,0.4,1,0.9,1.4,1.3c0.4,0.4,0.8,1,1.3,1.4c0.4,0.5,0.9,0.9,1.4,1.3C114.3,234.7,114.9,235,115.4,235.3L115.4,235.3z"/>
		<path class="st69" d="M133.1,221c-2.1-2.3-4.7-4.1-7.6-5.3"/>
		<path class="st54" d="M133,221.1c-1.1-1.1-2.4-2-3.7-2.8c-0.6-0.4-1.3-0.7-2-1.1s-1.3-0.8-1.9-1.3v-0.1c0.8,0.1,1.6,0.3,2.3,0.7
			c0.7,0.4,1.4,0.8,2,1.3C130.9,218.7,132.1,219.8,133,221.1L133,221.1z"/>
		<path class="st69" d="M128.9,227.4c-1.7-2.1-3.7-3.9-5.9-5.4"/>
		<path class="st54" d="M128.9,227.5c-0.9-1-1.9-1.9-2.9-2.7c-0.5-0.4-1.1-0.8-1.6-1.2c-0.5-0.5-1-1-1.4-1.5v-0.1
			c0.7,0.2,1.3,0.6,1.8,1c0.5,0.4,1,0.9,1.5,1.4C127.3,225.3,128.1,226.3,128.9,227.5L128.9,227.5z"/>
		<path class="st69" d="M123.3,234.1c-1.4-1.9-3-3.6-4.9-5.1"/>
		<path class="st54" d="M123.3,234.1c-0.8-0.9-1.6-1.7-2.4-2.5c-0.4-0.4-0.9-0.7-1.3-1.2c-0.4-0.4-0.8-0.9-1.1-1.4V229
			c0.6,0.2,1.1,0.5,1.6,0.9c0.5,0.4,0.9,0.8,1.2,1.3C122,232,122.7,233,123.3,234.1L123.3,234.1z"/>
		<path class="st55" d="M96.2,210.3c0,0-7.3-7.4-10.3-8.9l2.1-2.3c0,0,8.3,6.4,11.3,11.4C98.3,210.5,97.2,210.4,96.2,210.3z"/>
		<path class="st53" d="M249.9,266.6c0,0,13.6,5.3,8.8,18.2c0,0,5.8,5.5,7.8-5c0,0,4.3,3.8,5.8-5.3c0,0,3-0.3,3.5-6.1
			c0,0,10.9-9.3-18.2-21.4"/>
		<path class="st53" d="M266.5,279.7c0,0,1.8-10.1-5-14.6"/>
		<path class="st53" d="M272.1,275.7c0,0,0.8-11.4-6-13.9"/>
		<path class="st53" d="M275.9,268.4c-0.8-3.3-2.4-6.4-4.7-9"/>
		
			<linearGradient id="SVGID_9_" gradientUnits="userSpaceOnUse" x1="243.582" y1="136.1557" x2="195.592" y2="68.9257" gradientTransform="matrix(1 0 0 -1 0 426)">
			<stop  offset="0.1" style="stop-color:#286BAD"/>
			<stop  offset="0.13" style="stop-color:#3476B3"/>
			<stop  offset="0.23" style="stop-color:#5B96C7"/>
			<stop  offset="0.33" style="stop-color:#7BB1D7"/>
			<stop  offset="0.44" style="stop-color:#94C6E4"/>
			<stop  offset="0.55" style="stop-color:#A5D4ED"/>
			<stop  offset="0.67" style="stop-color:#B0DDF2"/>
			<stop  offset="0.81" style="stop-color:#B3E0F4"/>
		</linearGradient>
		<path class="st70" d="M231.5,300.2c0,0-8.1,0.2-8.4,36.3c0,0-4.3,5.5-2.7-14c0,0-4.1,1.8-1.9-8.2c1-4.5,2.6-8.8,4.5-13
			c1.7-3.6,5.1-6.1,9.1-6.5l0,0C232.1,294.7,235.2,300.2,231.5,300.2z"/>
		
			<linearGradient id="SVGID_10_" gradientUnits="userSpaceOnUse" x1="231.9311" y1="115.7492" x2="222.5211" y2="102.5692" gradientTransform="matrix(1 0 0 -1 0 426)">
			<stop  offset="0.1" style="stop-color:#286BAD"/>
			<stop  offset="0.13" style="stop-color:#3476B3"/>
			<stop  offset="0.23" style="stop-color:#5B96C7"/>
			<stop  offset="0.33" style="stop-color:#7BB1D7"/>
			<stop  offset="0.44" style="stop-color:#94C6E4"/>
			<stop  offset="0.55" style="stop-color:#A5D4ED"/>
			<stop  offset="0.67" style="stop-color:#B0DDF2"/>
			<stop  offset="0.81" style="stop-color:#B3E0F4"/>
		</linearGradient>
		<path class="st71" d="M227.8,309.9c0,0-2.8,6.7,0,9.7S231.2,313.8,227.8,309.9z"/>
		
			<linearGradient id="SVGID_11_" gradientUnits="userSpaceOnUse" x1="220.497" y1="130.6293" x2="213.237" y2="120.4593" gradientTransform="matrix(1 0 0 -1 0 426)">
			<stop  offset="0.1" style="stop-color:#286BAD"/>
			<stop  offset="0.13" style="stop-color:#3476B3"/>
			<stop  offset="0.23" style="stop-color:#5B96C7"/>
			<stop  offset="0.33" style="stop-color:#7BB1D7"/>
			<stop  offset="0.44" style="stop-color:#94C6E4"/>
			<stop  offset="0.55" style="stop-color:#A5D4ED"/>
			<stop  offset="0.67" style="stop-color:#B0DDF2"/>
			<stop  offset="0.81" style="stop-color:#B3E0F4"/>
		</linearGradient>
		<path class="st72" d="M219.5,296.6c0,0-6.4,1.9-3.4,5S219.5,296.6,219.5,296.6z"/>
		<path class="st73" d="M196.8,383.5c-0.4-1.9,0.6-3.9,2.7-4c0.7,0,1.7-0.6,2.8-0.2c15.8,5.5,24.8,10.2,43.8,10.5
			c15.5,0.3,33.3-4.2,44-10c3-1.6,5.4-0.7,6.9-0.9c2.5-0.4,4.3,2.3,3.8,4.6C296.5,404.8,200.9,404.8,196.8,383.5L196.8,383.5z"/>
		<path class="st74" d="M197.6,382.3c-0.4-2,0.3-2.3,1.4-3.6c3.4-3.8,4.9-15.4,6.9-21.3c1.1-3.2,2.7-8.9,5.4-11
			c13.1-10.5,62.1-10.5,75.1,0c2.6,2.1,4.3,7.8,5.4,11c2,5.9,3.5,17.4,6.9,21.3c1.2,1.3,1.9,1.6,1.4,3.6
			C295.9,402.8,201.8,402.8,197.6,382.3L197.6,382.3z"/>
		<path class="st75" d="M289.3,350.6c1,2.3,1.8,4.6,2.5,6.9c2,5.9,3.5,17.4,6.9,21.3c1.2,1.3,1.9,1.6,1.4,3.6
			c-4,19.7-91.1,20.4-101.6,2.3c11,11.9,50,12.8,66.3,9.4c7.2-1.5,11.3-3.4,0-2.6c-12.6,0.9-24.6,1-34.1-1.9
			c12.8,1.5,34.9,1.1,49.5-5.3C293.4,378.5,291.4,364.6,289.3,350.6L289.3,350.6z"/>
		<path class="st76" d="M248.9,340.1c18.9,0,34.3,4.2,34.3,9.4s-15.3,9.4-34.3,9.4s-34.3-4.2-34.3-9.4S229.9,340.1,248.9,340.1z"/>
		<path class="st77" d="M281.5,352.4c-4.5,3.8-17.4,6.5-32.6,6.5s-28.1-2.7-32.6-6.5c4.4-3.8,17.4-6.5,32.6-6.5
			C264.1,345.9,277,348.6,281.5,352.4z"/>
		<path class="st78" d="M232.8,357.9c-2.2-0.3-4.3-0.7-6.2-1.2c-3.9-1.5-6.4-3.5-2.4-5.6c6.9-3.6,20.4-3.1,26.9-3.3
			c-3.8,0.3-18.7,0.4-21.8,4.4C227.4,354.8,229.9,356.5,232.8,357.9L232.8,357.9z"/>
		<path class="st79" d="M278,354.5c-1.5,0.6-2.9,1.2-4.5,1.6c0.3-0.5,0.4-1,0.3-1.5c-0.9-5-11-5.9-15.6-6.6c5,0.1,16.7,1.2,19.5,5.7
			C277.9,353.9,278,354.2,278,354.5L278,354.5z"/>
		<path class="st80" d="M177,377.7l-1.3,2l8.1,1.3c0,0,0,2.5-7.4,0.5c0,0,5.6,1.3,6.4,3s-8.1-2-8.1-2l2,4.1c0,0-1.8,2.8-3.6-4.1
			l-1.8-2l3-4.1L177,377.7z"/>
		<polygon class="st81" points="181.8,371.6 177,377.7 172.9,377.4 174.9,371.3 		"/>
		<path class="st80" d="M183.1,371.9l8,2.1c0,0,1.7-1-3.6-2.9c0,0,8.2,1.7,5-0.4l-2.7-0.8l4-1.3
			C193.8,368.7,189.8,366.2,183.1,371.9z"/>
		<path class="st82" d="M194.3,319.4c0,0,4.3,11.9,5.4,21s3.5,28.1-23.6,34c0,0-14.9,4.8-9.9-21c0,0-12.7-33,11.7-39.4l0.8-0.2
			C178.8,313.8,187.6,307.5,194.3,319.4z"/>
		<path class="st83" d="M194.6,326.9c0.3,1.4,1.2,1.6,1.2,1.6c4.9,2.7,8.1-0.1,8.1-0.1l-0.1-0.1l-3.2-2.4l0,0l0.3-0.1
			c0.7-0.2,1.4-0.4,2-0.6c2.5-1,3-2.3,3-2.3l-6.6-0.6c-2.2-0.3-4.2,1.2-4.5,3.4C194.5,326.1,194.5,326.5,194.6,326.9z"/>
		<path class="st84" d="M200.8,325.9c0.7-0.2,1.4-0.4,2-0.6C202,325.5,201.4,325.7,200.8,325.9z"/>
		<path class="st84" d="M197.9,326.5c1.8,1.1,3.8,1.7,5.8,1.8l-3.2-2.4C199.7,326.2,198.8,326.4,197.9,326.5z"/>
		<ellipse class="st80" cx="186.6" cy="327" rx="3.1" ry="4"/>
		<ellipse class="st85" cx="185.5" cy="324.2" rx="1" ry="1.2"/>
		<path class="st80" d="M183.6,319.5c-2.1,0-3.8,1.6-3.9,3.6C179.6,323.1,177.7,317.3,183.6,319.5z"/>
		<path class="st86" d="M161.7,363.5c0,0-11.7,8.1-19.1,13.9c0,0-1.9,3.6,2.8,4.6c0,0-0.3,2.5,1.8,2.8c1.5,0.1,2.9,0,4.3-0.5
			c0,0-0.5,2.7,1.4,3.1s1.6-1.1,10.4-19.5C163.4,367.9,166.4,363.5,161.7,363.5z"/>
		<line class="st87" x1="145.4" y1="382.1" x2="161.3" y2="365.8"/>
		<line class="st87" x1="151.6" y1="384.2" x2="161.6" y2="366.4"/>
		<path class="st88" d="M171.6,332.6c0,0-24.4,15.6-15.6,37.4c0,0,15.4,10.8,22.7,0.4S171.6,332.6,171.6,332.6z"/>
		<path class="st89" d="M154.7,324.7l1.8-1.4c-1.7,20.8,5,30.5,5,30.5s12.3,5.6,19.9-1.5s5.4-8.9,5.8-13.2s-10.2,1.3-15.1-4.5
			s-3.2-18,9.1-18.2s14.9,7.8,14.9,7.8c0-0.7-0.1-1.4-0.3-2.1c-0.8-4.4-4.4-14.3-18.8-14.1c-21.6,0.3-24,9.7-24,9.7
			c2.2-1.3,4.6-2.3,7.1-3c-3.2,3.2-5.8,7.2-7.4,11.5L154.7,324.7z"/>
		<path class="st86" d="M152.8,326.1l1.9-1.5c4-4.3,9.9-7.9,18.2-9.6c13.2-2.6,19.7,1.8,22.9,7c-0.8-4.4-4.3-14.3-18.8-14.1
			c-21.6,0.3-24,9.7-24,9.7c2.2-1.3,4.6-2.3,7.1-3C156.9,318,154.4,321.9,152.8,326.1z"/>
		<path class="st90" d="M161,364.2c0.3,3.8,10.1,14.6,17.1,8.8c1.5-1.3,2.6-2.9,3.4-4.7c6.6-14.5-3.4-19.2-3.4-19.2
			c-9.4-1.2-15,6.5-16.6,11.8C161.1,361.9,161,363,161,364.2z"/>
		<path class="st91" d="M161.4,361.3c0.3,3,10,10.4,16.5,11.7c0.5,0.1,2.3-2.4,2.2-2.6c-3.7-1.2-13.8-5.6-17.3-12.9
			C162.1,358.6,161.6,359.9,161.4,361.3z"/>
		<path class="st92" d="M161,364.2c0.3,3.8,10.1,14.6,17.1,8.8c-3.7-1.2-13-4.9-16.6-12.1C161.1,361.9,161,363,161,364.2z"/>
		<path class="st93" d="M399.8,311.4l0.4,3.2c0,0-9.2-8.2-7.3-17.5s6.3-9.7,9.6-13.7s3-10.7-1.6-13.4s-12.3-0.4-15,6.7l-0.1-4.9
			c0,0-9.2,10.9-8,23.1c1.1,11.9,11.4,21,17,26.9c0.7,0.8,3.2,4.2,3.1,7.8c0,0.1,0,0.2,0,0.2c-0.2,5.5-4.4,11-13.4,10.1l-2.9,9.2
			l0.9-0.3c0,0,21,0.7,23.5-15.4S399.8,311.4,399.8,311.4z"/>
		<g class="st94">
			<path class="st95" d="M397.6,287.8c0,0-1.3-5.9-9.4-6.4c-1.2,0.1-2.3,0.5-3.3,1.1c1.3-0.2,2.6,0.1,3.7,0.7c1.6,1.1,6,4,6.7,7.4
				L397.6,287.8z"/>
			<path class="st95" d="M400.5,285.3c0,0,1.6-9.4-7-10.1c0,0,4.3-1.3,7.4,1.5c1.8,1.5,2.6,3.9,2,6.1
				C402.2,283.8,401.4,284.6,400.5,285.3z"/>
			<path class="st95" d="M393.2,295.4c0,0-5.2-1.8-7.6-1.3s-4.3,2.1-4.5,2.9c1.4-0.6,3-1,4.5-1.1c1.5,0.1,6.9,2.8,6.9,2.8
				L393.2,295.4z"/>
			<path class="st95" d="M393.5,304.9c0,0-3.9-2-6.2-0.9c0,0,6,1.9,7.9,4.4L393.5,304.9z"/>
			<path class="st95" d="M400.2,314.6c0,0-4.9-0.8-6.7-2.2s-2.5-2.1-2.5-2.1c2.2,1,4.6,1.7,7,2.1L400.2,314.6z"/>
			<path class="st95" d="M391.5,318.5c0,0,5.1-0.2,7.6,0.9c1.5,0.7,2.8,1.7,3.8,2.9c-2.7-1.1-5.7-1.5-8.6-1L391.5,318.5z"/>
			<path class="st95" d="M400.9,326.5c0,0,4.9,1.5,5.3,3.9c0,0-0.1,2.3-0.2,3C405.9,333.4,402.2,327,400.9,326.5z"/>
			<path class="st95" d="M400.2,335.6c0.8,2.2,1.2,4.6,1.1,6.9c0,0-1.9,1.9-2.6,2C399.5,341.6,400,338.6,400.2,335.6z"/>
		</g>
		<path class="st96" d="M350.7,351l-22.5,0.1c0,0-0.6-7.7,16.7-7.8c0,0-6.1-6.5-7.1-11.9s35-0.6,35-0.6l-2,19.5L350.7,351z"/>
		<path class="st97" d="M372.7,298.8c-13.3-14.9-21.4-19.5-30-30.5s-29.4-6.4-28,0.3c-0.2-0.2-0.3-0.3-0.3-0.3s-3,23.9,0.2,32.6
			c2,5.2,5.9,10.7,9.5,15.4l0.2-0.2c0,0,17.9,18.3,25,23.3c3.8,2.5,7.9,4.5,12.2,6.1c1.1,0.2,2.2,0.4,3.3,0.5
			c14.6,2,21.2-20.6,21.2-20.6S386,313.7,372.7,298.8z"/>
		<path class="st96" d="M347.5,291.4c0,0,10.4,20.2-5.4,38.7l-1,0.9l-4.7-9.6L347.5,291.4z"/>
		<path class="st98" d="M314.9,270.9c0,0-7.6,3.2-8.5,20.2v4.1c0,0-9.4-8.2-13.8-10.7s-12.2-4.6-17.8-0.7c0,0,3.4,9.6,14.2,9
			c0,0,17,21.5,20.5,23.2s11.6,0.4,15.9-7S314.9,270.9,314.9,270.9z"/>
		<path class="st96" d="M330.6,270.1c4.5,1.5,9.3,1.7,14,0.7l-1.8-2.5L330.6,270.1z"/>
		<path class="st97" d="M346.9,267c0.3-1.2,0.2-2.5,0-3.7l1,0.9c0.4-2.4,0.4-4.9,0-7.3l0.3-0.5l0,0c10.7-17.9,1.2-30.3,1.2-30.3
			l-0.8,0.1c-2.7,0.5-9.9,9.4-9.9,9.4l0,0c-3.6-2.5-7.8-4-12.2-4.3l-7.5-12c-4.8-0.8-8.4,18.8-8.4,18.8s-7.7,3-8.5,6.9
			c-0.7,3.3,2.2,10.7,3.1,12.8c2,4,5.3,7.4,9.3,9.5c6.9,3.3,19.8,3.5,26.5,2.6c1.7-0.3,3.3-1,4.7-2l-0.2-1.5L346.9,267z"/>
		<path class="st99" d="M310.7,246.1c1.4,0,2.8-0.2,4.1-0.7c1.5-0.8,4.6-3.9,7.1-2.5s2.4,5.7,2.4,5.7s0.5,3.5,2.2,5s9.6,4.3,7.9,8.8
			c-0.4,1.3-1.1,2.5-2.1,3.5c-1.4,1.2-1.6,4.5-1.6,4.5s-10.1,0-13.4-0.9s-6.3-1.8-9.2-7.2s-3.9-9.9-2.9-13.5
			C305.3,248.6,305.8,245.8,310.7,246.1z"/>
		<path class="st96" d="M331.4,232.1c0,0-4.4,1.2-9.6,9.5c0,0,5.5-6.6,12.2-8.6C334,233,332.1,232.3,331.4,232.1z"/>
		<path class="st96" d="M335.6,233.7c0,0-6.1,3.2-9.7,7.3c0,0,8.9-5.6,11.8-6.2C337.6,234.9,336,233.9,335.6,233.7z"/>
		<path class="st96" d="M327,231.3c0,0-4.3,3.3-5.9,7c0,0,5.6-6,8-6.7C328.4,231.4,327.7,231.3,327,231.3z"/>
		<path class="st96" d="M337.5,256.9c0,0,3.7-1,10.6,1.3c0,0,0.2,2.5,0.1,3.2C348.3,261.4,339.2,257.4,337.5,256.9z"/>
		<path class="st96" d="M337.6,261.2c0,0,3.1-1.2,9.4,3.1c0.1,0.9,0.1,1.8-0.1,2.7C346.9,267.1,340.1,262.3,337.6,261.2z"/>
		<path class="st96" d="M303.5,242.5c1,0.6,1.8,1.3,2.6,2.2c0.2-1.3-0.2-2.6-1.1-3.5C304.5,241.6,304,242.1,303.5,242.5z"/>
		<path class="st96" d="M302.1,246c1,0.7,2,1.5,2.9,2.4c-0.2-1.8-1.1-3.4-2.4-4.7C302.3,244.4,302.1,245.2,302.1,246z"/>
		<path class="st96" d="M335.5,238.9c-1.7,1.8-4,3-6.5,3.2c1.5,0.1,2.9,0.1,4.4,0C334.4,241.9,335.5,238.9,335.5,238.9z"/>
		<path class="st96" d="M319.8,236.1c0,0-0.6,2.1,0.1,3.2c0,0-1.2-1.1-1.1-1.5C319,237.2,319.4,236.6,319.8,236.1z"/>
		<path class="st100" d="M348.4,226.2c0,0-5.6,2.7-11.4,12.2c0,0,6.4,7.1,7.8,14.7C344.8,253.1,355.8,239,348.4,226.2z"/>
		<path class="st100" d="M320.5,233.9c-0.7-3.2-2.5-12.5-1.4-14.6l0,0c-4.8-0.8-8.4,18.8-8.4,18.8
			C313.9,236.4,317.1,235,320.5,233.9z"/>
		<path class="st63" d="M314.2,237.1c0,0-2,0.2-3.4,2.9s0.4,4.9,1.3,5s2.9-0.2,4.6-2.1C316.6,243,316.8,238.6,314.2,237.1z"/>
		<path class="st64" d="M316.3,240.1c-0.3-1.2-1-2.3-2.1-2.9c0,0-2,0.2-3.4,2.9c-0.7,1.1-0.7,2.4-0.2,3.6
			C311.5,243.8,314,243.8,316.3,240.1z"/>
		<path class="st65" d="M313.7,239.5c-0.2,0.3-0.5,0.4-0.8,0.2c0,0,0,0,0,0c-0.3-0.2-0.4-0.5-0.2-0.8c0.2-0.3,0.5-0.4,0.8-0.2
			S313.9,239.2,313.7,239.5C313.7,239.5,313.7,239.5,313.7,239.5z"/>
		<path class="st101" d="M311,255.1c-0.1,0.1-0.2,8,2.6,8.3s4.6-2.4,5.3-4.3c0,0-3.3-1.7-3.9-7.4C313.9,253.1,312.5,254.2,311,255.1
			z"/>
		<path class="st65" d="M298.1,248.9c0,0,8.4,1.2,12.5,2.3C306.6,249.6,302.3,248.8,298.1,248.9z"/>
		<path class="st65" d="M300.7,254.2c2.7-0.8,5.5-1.3,8.4-1.6C309.1,252.6,304.3,251.8,300.7,254.2z"/>
		<path class="st65" d="M319.7,257c6.6,3,12.9,6.5,18.9,10.6C333.2,262.7,326.7,259,319.7,257z"/>
		<path class="st65" d="M319.1,253.5c0,0,17,2.9,32,9.1C351,262.6,332,253.8,319.1,253.5z"/>
		<path class="st65" d="M318.3,255.2c0,0,15.3,3.7,26.2,10C344.5,265.2,332.2,257.4,318.3,255.2z"/>
		<path class="st65" d="M296.8,243.2c0,0,10.2,4.8,15.4,7.7C307.4,247.6,302.2,245,296.8,243.2z"/>
		<path class="st63" d="M325.7,247.8c-0.3,2.2,0.9,4.3,2.9,5.2c3.5,1.6,8.1,1.3,10-4c0,0-1.1-3.3-6.1-4.5
			C329.8,243.8,326.9,245.2,325.7,247.8z"/>
		<path class="st64" d="M326.9,251.8c6.3,0.4,7.6-5.5,7.8-6.5c-0.7-0.3-1.4-0.6-2.2-0.7c-2.8-0.7-5.7,0.7-6.8,3.3
			C325.5,249.2,326,250.7,326.9,251.8z"/>
		<path class="st65" d="M330.2,246.3c-0.2,0.3-0.7,0.4-1,0.2s-0.4-0.7-0.2-1c0.2-0.3,0.6-0.4,1-0.2
			C330.3,245.5,330.4,245.9,330.2,246.3C330.2,246.3,330.2,246.3,330.2,246.3z"/>
		<path class="st102" d="M318.8,259.1c-1.2-0.8-2.2-1.9-2.8-3.2c-2,0.4-3.8,1.6-4.9,3.3l0,0c0.3,2,1,4,2.4,4.2
			C316.4,263.8,318.1,261,318.8,259.1z"/>
		<polygon class="st65" points="311.5,255.1 311.9,256.2 312.9,253.7 		"/>
		<polygon class="st65" points="316.5,257 315.9,258.8 317.2,257.9 		"/>
		<path class="st103" d="M306.8,255.2c0,0,4.1,1.4,8-4.2l0.3,0.5C315.1,251.6,311.4,257.6,306.8,255.2z"/>
		<path class="st103" d="M314.7,252c0,0,0,7.3,7.1,8.2c-3.8-1-6.4-4.4-6.5-8.3"/>
		<path class="st104" d="M314,248.5c0,0-1.4-0.7-1.1-1.3s2.4,0,3.8,0.4s3.3,1.4,3.1,2.1s-2.1,0.1-2.1,0.1s-1,3.4-3,2.6
			S314,248.5,314,248.5z"/>
		<path class="st96" d="M362.9,346.6c0,0-4.9-2.1-6-2.5c-4-4.4-6.1-10.1-6-16c0.3-9.8,6.9-15.5,10.2-16.7s3.2,16.7,3.2,16.9
			S362.9,346.6,362.9,346.6z"/>
		<path class="st97" d="M364.3,347c0,0-19.7-2.2-20.9,8.3c0,0,27.4,0.8,38.6,0.6c0,0,6.2-19,4-30.4c-1.7-9.6-9.9-16.6-19.7-16.8
			C358.7,308.7,339.6,330.9,364.3,347z"/>
		<path class="st105" d="M314.1,266.3c0,0-0.7,9-0.7,12.1c0,1.7,0.1,3.4,0.4,5.1l-1.8-1.7c0.5,1.8,0.9,3.6,1.1,5.4
			c-0.3-0.3-0.7-0.5-1.1-0.8c0.5,1.3,0.9,2.7,1,4.1c-0.2,3.8,0.1,7.5,0.9,11.2l-0.9-0.3c0.5,0.8,0.9,1.7,1.2,2.6
			c0.3,1.1,6.3,11.9,13.6,17.5s16.2,13.5,16.2,13.5s-2.8-5.7-4.4-9.6s-8.2-20.5-8.1-25.7c0.2-4.3,1.4-8.5,3.5-12.2
			c-1.1,0.4-2.1,1-3,1.9c0.3-1.1,0.7-2.2,1.3-3.3l-1.4,0.4c0.4-1.7,1-3.3,1.7-4.8c-1,0.2-1.9,0.8-2.4,1.6c-0.7-4.7-0.9-9.5-0.6-14.3
			c0.6-7.9-16.8-2.8-16.8-2.8"/>
		<path class="st97" d="M350.3,300.4c0.8,11.3-4.8,29.6-30.4,56.3c-5.6,1-11.3,1.1-16.9,0.3c0,0,0.4-9,12.6-8.5
			c0,0,6.1-7.8,12.5-36.7c2.9-13,5.7-19.6,8.2-23"/>
		<path class="st105" d="M343.3,355.3c0,0,8.6,0.3,18.2,0.5c0.4-3.9-2.1-7.6-5.8-8.7C350.1,347.6,343.9,349.5,343.3,355.3z"/>
		<path class="st105" d="M317,346.1c-0.4,0.8-0.9,1.6-1.4,2.4c-12.2-0.5-12.6,8.5-12.6,8.5c5.6,0.8,11.3,0.7,16.9-0.3
			c1.5-1.6,3-3.2,4.4-4.8C323,348.3,319.3,346.8,317,346.1z"/>
		<path class="st106" d="M274.8,283.7c0,0,3.4,9.6,14.2,9c0,0,1.4,1.8,3.5,4.4c2.3-3,2.7-7.4,2.5-11.1c-0.9-0.6-1.8-1.2-2.5-1.6
			C288.1,281.9,280.3,279.8,274.8,283.7z"/>
		<path class="st106" d="M346,355.4c0.5-2.3,2.1-4.2,4.4-5c0,0-3,2.5-3.2,5H346z"/>
		<path class="st106" d="M305.6,357.3c0,0,0.6-4.2,4.2-5.4c-1.4,1.6-2.4,3.5-3,5.5C306.8,357.4,305.9,357.3,305.6,357.3z"/>
		<path class="st107" d="M277.2,287.7c2.1-1.4,4.6-1.9,7.1-1.6c-2.6-1.1-5.6-0.9-8,0.5L277.2,287.7z"/>
		<path class="st108" d="M345,294.4c-8.2,1.6-12.5,5.1-14.2,7c-0.5,1.4-0.9,3-1.4,4.8C333.8,302.9,345,294.4,345,294.4z"/>
		<path class="st108" d="M341.6,307.1c-5,0.6-11.1,3.5-13.7,4.9l-0.1,0.3c-0.3,1.1-0.5,2.2-0.7,3.2
			C333.9,313.4,341.6,307.1,341.6,307.1z"/>
		<path class="st108" d="M324.4,326.5c7.2-0.8,15-5.4,15-5.4c-4.8,0.4-9.5,1.2-14.2,2.3C325,324.5,324.7,325.5,324.4,326.5z"/>
		<path class="st108" d="M349.1,275.6c-3.3,2.2-7,3.4-10.9,3.6c0,0,5.7,2.9,13.4-1.2C350.8,277.2,349.9,276.4,349.1,275.6z"/>
		<path class="st108" d="M360.4,286.3c-0.8-0.8-1.6-1.5-2.4-2.3c-3.5,2.4-8.6,5.4-12.9,5.4c2.9,0.7,5.8,0.6,8.6-0.3
			C356.1,288.4,358.3,287.4,360.4,286.3z"/>
		<path class="st108" d="M368,293.8c-3.1,2.2-8.6,5.5-13.5,5.5c1.9,0.8,3.9,1.2,6,1.3c2-0.1,7.4-2,10.6-3.5
			C370,295.9,369,294.8,368,293.8z"/>
		<path class="st108" d="M378.8,306.8c-2.4,2-7.1,5.4-12.9,5.7c2.2,0.8,4.5,1.1,6.9,0.9c2.9-0.6,5.7-1.4,8.4-2.5
			C380.5,309.5,379.8,308.2,378.8,306.8z"/>
		<path class="st108" d="M363.8,326.4c0,0,8.9,4.2,14.2,3.6c2.2-0.2,5.4-0.6,8.5-1c0-1-0.1-2.1-0.2-3.1c-0.1-0.9-0.3-1.8-0.5-2.7
			c-3.4,1.1-6.8,2-10.3,2.7C371.6,326.5,367.7,326.6,363.8,326.4z"/>
		<path class="st108" d="M385.6,340.3c-2.8,0.3-7.2,0.6-9.7,0.8c-2.5,0.2-5,0.7-7.4,1.5c2.2,0.7,4.5,1.1,6.9,1.3h9.6
			C385.2,342.7,385.4,341.5,385.6,340.3z"/>
		<path class="st97" d="M314.4,268.3c0,0,13.9,2.6,21.5,2.1"/>
		<path class="st109" d="M284.7,343l1.4,3.8c0,0-1.9-1.5-6.3,1.4s5.2-0.5,5.2-0.5s-5.4,0.8-3.5,3.2l4.7-2.5l-2,2.8l6.5-2l-2-1.5
			l-1.6-2.5l2.5-4.5L284.7,343z"/>
		<path class="st109" d="M272,336.4l1.4,3.8c0,0-1.9-1.5-6.3,1.4s5.2-0.5,5.2-0.5s-5.4,0.8-3.5,3.2l4.7-2.5l-2,2.8l6.5-2l-2-1.5
			l-1.6-2.5l2.5-4.5L272,336.4z"/>
		<path class="st110" d="M304.9,322.5c4.4-0.8,7.6-4.6,7.7-9.1c0.6-8.1,8.8-7.9,5.7-1s0.4,0.5,0.4,0.5s7.6-6.2,6.4,0.7s-5.1,7-5.1,7
			s11.6-4.3,8.2-0.1s-11.4,8.9-20.1,8.4S304.9,322.5,304.9,322.5z"/>
		<path class="st111" d="M256,307.1c0,0-8.3,12.1,3.3,22.1c11.6,10,12.4-4.7,12.4-4.7l-5.1-13l-10.5-5"/>
		<path class="st112" d="M256.3,286.1c0,0-7.6,9.1,0.4,23.3c0,0-4.7,25.3,19.8,32s30.9-14.7,30.9-14.7l-16.8-3.1l6.6-19
			c0,0-0.1-20.3-8.2-21.8s-15.4-3.7-15.4-3.7S261.1,273.1,256.3,286.1z"/>
		<path class="st111" d="M254,290.1c0,0,4.1-9.5,11.9-9.6s3.6,14.5,3.6,14.5c3.9-4.2,9.4-6.6,15.1-6.6c9.7,0,12.8,15.7,1.5,24.5
			s-12.2,14.8-3.3,23c0,0,2.3,6.1,6.5,7c0,0,9.2-2.9,15.9-9.1s9.6-7.6,4.7-12.3l-7.6,0.1l-4.3-10c0,0,4.5-22.8-0.9-31.7
			c0,0,6.7-7.4,3.8-11.1s-8.8,1.3-7.5,8.9l-3.3-11.2c0,0-7.6-0.1,1.8,10.6c0,0-2.3-5.6-13.3-4.7C267.3,273.5,256.5,277.3,254,290.1z
			"/>
		<path class="st110" d="M287.4,317.6c0,0-8.5,5.1-3.1,14.6s19.2-2.9,19.2-2.9s3.9-2.3-2.5-5s0.3-1.4,0.3-1.4l-5.6-3.3l4.5,0.6
			C300.1,320.3,293.8,313,287.4,317.6z"/>
		<path class="st113" d="M266.3,302.5l-1,5.1c0.5,0.5,1.2,0.6,1.9,0.3c0.6-0.3,1.2-0.6,1.6-1.1l2.2-2c0.7-0.8,1.4-1.6,2-2.4
			c0.3-0.6-1.2,0.1-1.6-0.4c-0.4-0.6-1-1-1.6-1.4c-0.5-0.4-1.1-0.6-1.7-0.7c-0.6,0.1-1.2,0.5-1.5,1c-0.3,0.5-0.5,1.1-0.6,1.7"/>
		<ellipse class="st114" cx="280.8" cy="296.9" rx="3.7" ry="3.6"/>
		<ellipse class="st115" cx="283.3" cy="295.7" rx="1" ry="0.9"/>
		<ellipse class="st114" cx="264.1" cy="290.8" rx="3.2" ry="3.6"/>
		<ellipse class="st115" cx="266.4" cy="289.6" rx="0.9" ry="0.9"/>
		<path class="st116" d="M264.1,297.1c0,0,1-2.3,4.6-2.1s4.5,7.3,4.5,7.3s-5.6,1-7,4s-6.7-2.9-2.1-9"/>
		<path class="st117" d="M256.6,309.4c0,0,5.1,8,16.7,7.4"/>
	</g>
</g>
<path class="st118" d="M167.8,38.5c0.7,0.4,0.2,0.1-0.3-0.3c-0.5-0.4-1-0.8-1.6-1c-0.9-0.4-1.8-0.8-2.8-1.1
	c-2.2-0.4-4.5-0.7-6.8-0.7c-5.2-0.3-9.9,2-14.4,4.7c-4,2.5-7.5,5.7-10.4,9.4c-1.7,2.2-3,4.7-3.8,7.3c-0.4,1.2-0.7,2.4-0.7,3.6
	c0.1,1.1,0.3,2.1,0.5,3.2c0,1.4,1.1,2.6,2.5,2.6c0.5,0,0.9-0.1,1.3-0.3c0.6-0.3,2-0.4,2.8-0.8c0.8-0.4,1.5-0.8,2.2-1.3
	c0.4-0.3,3.5-2.7,1.2-1.3c1.5-0.8,2.9-1.8,4.2-2.9c1.1-1,2.3-1.9,3.6-2.7c1.6-1,3.1-2.1,4.7-3c3.7-2.3,5.9-2.8,9.6-5.4
	c2.3-1.7,6.3-2.8,8.1-5.4c1.3-0.9,1.6-2.6,0.7-3.9C168.4,38.9,168.1,38.7,167.8,38.5z"/>
<path class="st119" d="M288.8,386c5.6,1.8,11.9,1.6,17.7,1.5c2.9-0.1,5.9-0.3,8.8-0.8c3-0.4,6.4-0.9,9-2.2c1.8-0.9,2.5-3,1.7-4.8
	c-0.5-1.1-1.5-1.8-2.7-2c-2.8-0.4-5.6-0.5-8.4-0.3c-2.9,0-5.8,0.1-8.6,0.4L288.8,386z"/>
<path class="st119" d="M360.5,364.3c-0.1-0.2-0.3-0.4-0.4-0.5c-1-0.7-2.2-1-3.4-0.7c-4.3,0.8-7,3.3-10.3,5.6c-2.5,1.8-5.9,2.6-8.7,4
	c-3.3,1.5-6.5,3.3-7.5,6.6c-0.4,1.2,0,2.6,1,3.4c2.9,2.5,6.9,2.4,10.6,1.6c3.5-0.7,6.9-2,10.1-3.6c5.4-3,11.2-9.6,9-15.6
	C360.7,364.8,360.6,364.6,360.5,364.3z"/>
<path class="st120" d="M357.8,65.8c-5.4-3.3-11.2-5.8-17.3-7.3c-10.8-3-22-4.1-33.1-4.9c-17-1.9-34.1-2.8-51.2-2.8
	c-19.8-0.2-39.6,0.7-59.4,2.7c-16.1,1.6-32.5,3.8-48.2,8.2h-0.1c-0.1,0-0.2,0-0.2,0.1l-0.5,0.2c-5.2,1.5-10.5,3.5-12.9,9
	c-2.1,4.9-2,10.4,0.1,15.3c5,12,19.3,15.2,30.3,16.7c14.1,2,28.6,2,42.9,2.3s28.8,0.1,43.2-0.4c28.8-1,57.6-3.6,86.2-7.9
	c6.3-1,12.6-2.2,18.4-4.8c5.1-2.3,11-6,10.9-12.6C366.9,73.6,362.3,68.8,357.8,65.8z"/>
</svg>
