<?xml version="1.0" encoding="utf-8"?>
<!-- Generator: Adobe Illustrator 25.2.3, SVG Export Plug-In . SVG Version: 6.00 Build 0)  -->
<svg version="1.1" id="Layer_1" xmlns="http://www.w3.org/2000/svg" xmlns:xlink="http://www.w3.org/1999/xlink" x="0px" y="0px"
	 viewBox="0 0 160 160" style="enable-background:new 0 0 160 160;" xml:space="preserve">
<style type="text/css">
	.st0{opacity:0.5;enable-background:new    ;}
	.st1{opacity:0.91;fill:url(#SVGID_1_);enable-background:new    ;}
	.st2{clip-path:url(#SVGID_3_);}
	.st3{fill:#73DD47;}
	.st4{fill:#77CE49;}
	.st5{fill:#42605E;}
	.st6{fill:#2BB51C;}
	.st7{fill:#897F77;}
	.st8{fill:#CCC2C2;}
	.st9{fill:#848483;}
	.st10{fill:#B7A192;}
	.st11{fill:#ADACAC;}
	.st12{fill:#B2B0AD;}
	.st13{opacity:0.4;fill:#8E8E8D;enable-background:new    ;}
	.st14{fill:#70706F;}
	.st15{fill:none;stroke:#5B5B5B;stroke-width:0.5;stroke-miterlimit:10;}
	.st16{fill:none;stroke:#FFFFFF;stroke-width:0.5;stroke-miterlimit:10;}
	.st17{fill:url(#SVGID_4_);}
	.st18{fill:url(#SVGID_5_);}
	.st19{fill:url(#SVGID_6_);}
	.st20{fill:url(#SVGID_7_);}
	.st21{fill:url(#SVGID_8_);}
	.st22{fill:#6D3F1F;}
	.st23{opacity:0.3;enable-background:new    ;}
	.st24{fill:#1E70AF;stroke:#184059;stroke-miterlimit:10;}
	.st25{fill:#166493;}
	.st26{fill:#1E70AF;}
	.st27{fill-rule:evenodd;clip-rule:evenodd;fill:#EA9860;stroke:#A55925;stroke-width:0.75;stroke-miterlimit:10;}
	.st28{fill-rule:evenodd;clip-rule:evenodd;fill:#422813;}
	.st29{fill-rule:evenodd;clip-rule:evenodd;fill:#DD8B52;}
	.st30{fill-rule:evenodd;clip-rule:evenodd;fill:#DC8347;}
	.st31{opacity:0.3;fill:#8D3D24;enable-background:new    ;}
	.st32{opacity:0.3;fill-rule:evenodd;clip-rule:evenodd;fill:#8D3D24;enable-background:new    ;}
	.st33{fill:#331F00;}
	.st34{fill-rule:evenodd;clip-rule:evenodd;fill:#88512B;}
	.st35{fill:#DD8B52;}
	.st36{fill-rule:evenodd;clip-rule:evenodd;fill:#331F00;}
	.st37{fill:#88512B;}
	.st38{fill:#659AFF;stroke:#3F5E8E;stroke-miterlimit:10;}
	.st39{fill:#FFFFFF;}
	.st40{fill:#422813;}
	.st41{fill:#DC8347;}
	.st42{fill:#1C7CC6;}
	.st43{fill:#97CBFF;}
	.st44{fill:#5BA5FC;}
	.st45{fill:#351F10;}
	.st46{fill:#575903;}
	.st47{fill:#2D2216;}
	.st48{fill:#2A3F54;}
	.st49{fill:#99A4BC;}
	.st50{fill:#ABECFF;}
	.st51{fill-rule:evenodd;clip-rule:evenodd;fill:#A3653B;}
	.st52{fill:#006F88;stroke:#003488;stroke-miterlimit:10;}
	.st53{fill:#2297AA;stroke:#04869B;stroke-linejoin:round;}
	.st54{fill-rule:evenodd;clip-rule:evenodd;fill:#1C7CC6;stroke:#2E4566;stroke-miterlimit:10;}
	.st55{fill:#647C8C;}
	.st56{fill:#2A3F54;stroke:#171F26;stroke-miterlimit:10;}
	.st57{fill:#90A5B2;}
	.st58{fill:#FFCC0C;stroke:#917417;stroke-miterlimit:10;}
	.st59{fill:#6D5403;}
	.st60{fill:#263949;}
	.st61{fill:#564539;}
	.st62{fill:#080806;}
	.st63{fill:#0A0A09;}
	.st64{fill:#1F211A;}
	.st65{fill:#C1C6C1;}
	.st66{fill:#E0E0E0;}
	.st67{fill:#A5A5A5;}
	.st68{fill:#ED5A11;stroke:#663708;stroke-miterlimit:10;}
	.st69{fill:#8D8D8D;}
	.st70{fill:#171715;}
	.st71{fill:#F0E6D0;}
	.st72{fill:#676767;}
	.st73{fill:#B5B4B4;}
	.st74{fill:#A0A0A0;}
	.st75{fill:#898989;}
	.st76{fill:#6C6D6D;}
	.st77{fill:#7E817F;}
	.st78{fill:#8E4F15;}
	.st79{fill:#B54615;}
	.st80{fill:#A79D8A;}
	.st81{fill:#D3C6A7;}
	.st82{fill:#B4AC99;}
	.st83{fill:#FF9566;}
	.st84{fill:#929190;}
	.st85{fill:#FF7E45;stroke:#663708;stroke-miterlimit:10;}
	.st86{fill:#70522B;}
	.st87{fill:#511707;}
	.st88{opacity:0.7;fill:#70522B;enable-background:new    ;}
	.st89{opacity:0.59;fill:#ABE7FF;enable-background:new    ;}
	.st90{fill:#FFE400;}
	.st91{fill:#FFC100;}
	.st92{fill:#FFCB00;}
	.st93{fill:#FFC300;}
	.st94{fill:#FFA800;}
	.st95{fill:#FFAF00;}
	.st96{fill:#FFC900;}
	.st97{fill:#FFA600;}
	.st98{fill:#FFC200;}
	.st99{fill:#FFF000;}
	.st100{fill:#FFE800;}
	.st101{fill:#FFEF00;}
	.st102{clip-path:url(#SVGID_10_);}
	.st103{fill:#FFF0A5;}
	.st104{fill:#FFCE51;}
	.st105{fill:#FCAF17;}
	.st106{fill:#DD941A;}
	.st107{fill:#FFE539;}
	.st108{fill:#8CC6EC;}
	.st109{fill:#AAD4F1;}
	.st110{fill:#5DA5DF;}
	.st111{fill:#095DA3;}
	.st112{fill:#F4E12F;stroke:#597C15;stroke-width:0.5;stroke-miterlimit:10;}
	.st113{fill-rule:evenodd;clip-rule:evenodd;fill:#EA9860;}
	.st114{fill:#A55925;}
	.st115{opacity:0.2;fill:url(#SVGID_11_);enable-background:new    ;}
	.st116{opacity:0.5;fill:#4ECECE;enable-background:new    ;}
	.st117{opacity:0.6;fill:#FDFFFF;enable-background:new    ;}
	.st118{opacity:0.6;}
</style>
<circle class="st0" cx="82.5" cy="82.5" r="75"/>
<g id="_01-4">
	
		<radialGradient id="SVGID_1_" cx="2868.1956" cy="999.1228" r="24.87" gradientTransform="matrix(3.5 0 0 -3.48 -9950.0498 3556.25)" gradientUnits="userSpaceOnUse">
		<stop  offset="0" style="stop-color:#FFFFFF"/>
		<stop  offset="0.61" style="stop-color:#D3F9FC"/>
		<stop  offset="0.93" style="stop-color:#48E5FF"/>
	</radialGradient>
	<path class="st1" d="M152.4,77.8c0.2,41.4-33.2,75.1-74.7,75.3c-41.4,0.2-75.1-33.2-75.3-74.7S35.7,3.3,77.1,3.2c0.1,0,0.2,0,0.3,0
		C118.8,3.1,152.3,36.5,152.4,77.8C152.4,77.8,152.4,77.8,152.4,77.8z"/>
	<g>
		<defs>
			<ellipse id="SVGID_2_" cx="77.7" cy="77" rx="74.8" ry="74.5"/>
		</defs>
		<clipPath id="SVGID_3_">
			<use xlink:href="#SVGID_2_"  style="overflow:visible;"/>
		</clipPath>
		<g class="st2">
			<path class="st3" d="M189.8,109.3c0,18.9-44.3,52.9-113.4,45.7c-66.2-6.8-103.8-22.8-103.8-41.7S9.9,86.6,76.4,86.6
				S189.8,90.4,189.8,109.3z"/>
			<path class="st4" d="M195,122.8c0,15.1-51.3,50.6-120.4,44.9C8.4,162.2-33.9,129-33.9,113.8S17,118,83.5,118S195,107.7,195,122.8
				z"/>
			<rect x="-39.8" y="72" class="st5" width="222" height="24.3"/>
			<path class="st6" d="M108.2,138.5c1.7-0.9,3.5-1.5,5.4-1.5c3.6-0.3-3.8-1.6-6.5,1.5C107.2,138.5,106,139.9,108.2,138.5z"/>
			<path class="st6" d="M103.1,137.8c-0.1,0.2,0.1,0.5,0.3,0.6c0.1,0,0.3,0,0.4-0.1c1.5-1,5.5-3.8,8-4.6c3.2-1-3-1.1-7.2,2.1l0,0
				C103.9,136.4,103.4,137.1,103.1,137.8z"/>
			<path class="st6" d="M101.2,137.9c0,0.2,0.2,0.4,0.5,0.4c0.1,0,0.2-0.1,0.3-0.2c0.9-1.6,3.6-5.9,4.9-6.6c1.6-0.8-2.6-1.2-5.2,4
				c0,0,0,0,0,0.1C101.3,136.3,101.2,137.1,101.2,137.9z"/>
			<path class="st6" d="M99.3,137.1c0.1,0.2,0.3,0.4,0.5,0.3c0.2,0,0.3-0.2,0.3-0.3c0.5-1.8,1.4-4.6,2.3-5.2
				C103.6,131.1,98.6,132.6,99.3,137.1z"/>
			<path class="st6" d="M98,137.1c0.2,0.2,0.4,0.2,0.6,0.1c0.1-0.1,0.2-0.2,0.2-0.4c-0.3-1.5-0.9-3.3-2.6-3.8
				C93.9,132.4,96.3,134.9,98,137.1z"/>
			<path class="st6" d="M96.3,137c0.2,0.1,0.5,0.1,0.6-0.1c0.1-0.1,0.1-0.3,0-0.5c-1-1.6-2.6-3.4-5-3.4
				C88.3,132.9,93,134.3,96.3,137z"/>
			<path class="st6" d="M93.8,137.7c0.2,0,0.5-0.1,0.5-0.4c0-0.2-0.1-0.4-0.3-0.5c-0.9-0.2-1.8-0.3-2.7-0.3
				C89,136.7,91.3,137.2,93.8,137.7z"/>
			<path class="st6" d="M40.5,142.2c1.7-0.9,3.5-1.5,5.4-1.5c3.6-0.3-3.8-1.6-6.5,1.5C39.5,142.2,38.3,143.6,40.5,142.2z"/>
			<path class="st6" d="M35.4,141.4c-0.1,0.2,0,0.5,0.3,0.5c0.1,0,0.3,0,0.4-0.1c1.5-1,5.5-3.8,8-4.6c3.2-1.1-3-1.1-7.2,2.1l0,0
				C36.2,140,35.7,140.7,35.4,141.4z"/>
			<path class="st6" d="M33.5,141.6c0,0.2,0.2,0.4,0.5,0.4c0.1,0,0.3-0.1,0.4-0.2c0.9-1.6,3.5-5.9,4.9-6.6c1.6-0.8-2.6-1.2-5.2,4
				c0,0,0,0,0,0.1C33.6,139.9,33.5,140.7,33.5,141.6z"/>
			<path class="st6" d="M31.6,140.8c0,0.2,0.3,0.4,0.5,0.3c0.2,0,0.3-0.1,0.3-0.3c0.5-1.8,1.4-4.6,2.3-5.2
				C35.9,134.8,30.9,136.2,31.6,140.8z"/>
			<path class="st6" d="M30.3,140.8c0.2,0.2,0.4,0.2,0.6,0.1c0.1-0.1,0.2-0.2,0.2-0.4c-0.3-1.5-0.9-3.3-2.6-3.8
				C26.2,136.1,28.6,138.5,30.3,140.8z"/>
			<path class="st6" d="M28.6,140.6c0.2,0.1,0.5,0.1,0.6-0.1c0.1-0.1,0.1-0.3,0-0.5c-1-1.6-2.6-3.4-5-3.4
				C20.6,136.5,25.3,138,28.6,140.6z"/>
			<path class="st6" d="M26.1,141.3c0.2,0.1,0.5-0.1,0.5-0.3c0.1-0.2-0.1-0.5-0.3-0.5c-0.9-0.2-1.8-0.3-2.6-0.3
				C21.3,140.3,23.6,140.8,26.1,141.3z"/>
			<rect x="-39.8" y="-29.8" class="st7" width="256" height="103.5"/>
			<polyline class="st8" points="-0.4,86.8 157.7,86.8 156.2,114 -40,113.8 -39.9,102 -17.8,102 -0.4,86.8 -0.4,86.8 			"/>
			<rect x="-40.3" y="110.8" class="st9" width="256.2" height="3"/>
			<polygon class="st10" points="157.7,86.8 -0.4,86.8 -0.4,-6.1 157.7,-6.1 			"/>
			<polygon class="st11" points="158,86.9 156.6,110.9 217.9,110.9 218.7,88.2 			"/>
			<path class="st12" d="M216.8,88.4L158,86.9l3-13.2l4.9-0.1l0.6-1.3c4.6-0.1,8.4,0,10.8,0c8.7,0,16.2,0.3,26.1,0.4h1.9l11.7,0.1
				c-0.1,13.7-0.2,27.4-0.3,41.1"/>
			<polygon class="st13" points="22.5,104.8 36.3,92.2 122.9,90.4 142.8,100.4 89.2,108.3 			"/>
			<polygon class="st14" points="55,113.8 55,110.8 57.3,102.1 55.3,110.8 55.2,113.8 			"/>
			<polyline class="st15" points="215.9,96.7 157.1,96.1 -13.9,97.3 			"/>
			<polyline class="st16" points="215.9,96.6 157.1,96 -13.9,97.2 			"/>
			<line class="st15" x1="-40" y1="105.1" x2="239.1" y2="105.1"/>
			<line class="st16" x1="-40.1" y1="104.9" x2="238.9" y2="104.9"/>
			
				<linearGradient id="SVGID_4_" gradientUnits="userSpaceOnUse" x1="141.67" y1="61.45" x2="162.59" y2="61.45" gradientTransform="matrix(1 0 0 -1 0 162)">
				<stop  offset="0" style="stop-color:#7A8634"/>
				<stop  offset="0.83" style="stop-color:#6B772C"/>
			</linearGradient>
			<path class="st17" d="M143.8,92.7h13.1l5.7,15.7l-20.9-0.2C142.4,103,143.1,97.9,143.8,92.7z"/>
			
				<linearGradient id="SVGID_5_" gradientUnits="userSpaceOnUse" x1="142.06" y1="62.72" x2="162.19" y2="62.72" gradientTransform="matrix(1 0 0 -1 0 162)">
				<stop  offset="0" style="stop-color:#96A343"/>
				<stop  offset="4.000000e-02" style="stop-color:#9BAA47"/>
				<stop  offset="0.14" style="stop-color:#A4B44F"/>
				<stop  offset="0.25" style="stop-color:#A7B851"/>
				<stop  offset="0.51" style="stop-color:#A7B851"/>
				<stop  offset="0.95" style="stop-color:#96A343"/>
			</linearGradient>
			<path class="st18" d="M143.8,92.2h13.1c1.8,4.7,3.5,9.5,5.3,14.2l-20.1-0.4C142.7,101.4,143.3,96.8,143.8,92.2z"/>
			
				<linearGradient id="SVGID_6_" gradientUnits="userSpaceOnUse" x1="2153.8298" y1="64.165" x2="2181.1499" y2="64.165" gradientTransform="matrix(-1 0 0 -1 2166.1499 162)">
				<stop  offset="0" style="stop-color:#7A8634"/>
				<stop  offset="0.83" style="stop-color:#6B772C"/>
			</linearGradient>
			<path class="st19" d="M12.3,91L-1,90.4l-14,14.8l22-0.2L12.3,91z"/>
			
				<linearGradient id="SVGID_7_" gradientUnits="userSpaceOnUse" x1="2153.8298" y1="65.05" x2="2180.0698" y2="65.05" gradientTransform="matrix(-1 0 0 -1 2166.1499 162)">
				<stop  offset="0" style="stop-color:#96A343"/>
				<stop  offset="4.000000e-02" style="stop-color:#9BAA47"/>
				<stop  offset="0.14" style="stop-color:#A4B44F"/>
				<stop  offset="0.25" style="stop-color:#A7B851"/>
				<stop  offset="0.51" style="stop-color:#A7B851"/>
				<stop  offset="0.95" style="stop-color:#96A343"/>
			</linearGradient>
			<path class="st20" d="M12.3,90L-1,90.4l-12.9,13.5H6.4L12.3,90z"/>
			
				<linearGradient id="SVGID_8_" gradientUnits="userSpaceOnUse" x1="157.71" y1="82.545" x2="169.94" y2="82.545" gradientTransform="matrix(1 0 0 -1 0 162)">
				<stop  offset="0" style="stop-color:#96A343"/>
				<stop  offset="4.000000e-02" style="stop-color:#9BAA47"/>
				<stop  offset="0.14" style="stop-color:#A4B44F"/>
				<stop  offset="0.25" style="stop-color:#A7B851"/>
				<stop  offset="0.51" style="stop-color:#A7B851"/>
				<stop  offset="0.95" style="stop-color:#96A343"/>
			</linearGradient>
			<path class="st21" d="M159.8,72h5.9h4.2l-2,14.9h-10.2C158.4,81.9,159.1,76.9,159.8,72z"/>
			<rect x="159.9" y="70.5" class="st22" width="17.5" height="1.7"/>
			<ellipse class="st23" cx="66.3" cy="123.2" rx="85.6" ry="13.1"/>
			<path class="st24" d="M117.9,55.2c0,0-3,5.9-3.8,7.2s-4.6,2.3-6.7,2.1c-0.4,0-4.3-0.4-4.9-0.6c-1.3-0.4-0.8-1-1.4-1.6
				c-1-0.9-0.8-1.3-0.3-2.1c0.4-0.6-0.1-1.1,0.7-1.3c2.7-0.5,7.9,1,8.9-0.3c1.3-1.8,4.6-13.8,4.6-13.8L117.9,55.2z"/>
			<path class="st25" d="M98.9,60.7c-0.3,1.3,0.5,2.5,1.8,2.8l1.4,0.3c1.3,0.2,2.5-0.6,2.7-1.9c0,0,0,0,0,0l0,0
				c0.3-1.3-0.5-2.5-1.8-2.8c0,0,0,0,0,0l-0.6-0.2C101.2,58.7,99.2,59.4,98.9,60.7L98.9,60.7z"/>
			<polygon class="st26" points="118.5,37.9 117.3,38.5 118.4,39.6 			"/>
			<path class="st27" d="M120.2,42.6c0,0,0,0.9,0-0.6c0-0.6-1.3-1.2-1.3-1.4c-0.3-0.8-2.4-4.3-2.4-4.3l-3.4,6.4l5.1,3.3L120.2,42.6z
				"/>
			<path class="st27" d="M106.2,34.1c-0.1-0.8,1.2-3,2-3.8s3.1-2.5,4.9-2.3s3.5,5.4,3.5,5.4l-0.6,5.4c-0.5,1.4-1.1,2.8-1.9,4.1
				c-0.6,0.7-2.9,2-3.3,1.3c-0.3-0.5-0.7-1-1.2-1.3c-0.5-0.3-1.4-0.7-1.3-1c0-0.1,0-0.4,0.2-0.5s0.4-0.5,0.1-0.5
				c-0.2,0-0.6-0.4-0.7-0.4s-0.1-0.1-0.1-0.2c0.1-0.4,0.2-0.7,0.3-1.1c0-0.6-1.6-0.3-1.7-0.9s0.6-0.7,0.9-1.1
				c0.1-0.4,0.1-0.8,0.1-1.2C107.2,35.4,106.2,34.5,106.2,34.1z"/>
			<path class="st28" d="M114.5,34.5l-2.1-0.7c-0.1-0.3-0.4-2.4-0.4-2.4c0.5-0.4,1.4-0.5,1.9-0.9c0.3-0.2,0.6-0.3,0.8-0.5l0.7-0.3
				c0.7-0.4,1.5-0.7,2.3-0.9c0.4-0.1,0.8-0.2,1.2-0.2c0.8,0.6,1.3,1.5,1.3,2.5c-0.2,1.7-0.7,3.4-1.5,5c-0.6,0.9-1.3,1.7-2,2.5
				l-1.7-2.2c0,0-0.7,0.4-0.7,0.3C114.3,36.1,114.3,35.3,114.5,34.5z"/>
			<path class="st29" d="M115.3,35.4c0,0,1.3-2.4,1.8-1.3c0.4,0.9-0.6,4.2-1.7,4S115.3,35.4,115.3,35.4z"/>
			<path class="st30" d="M108.1,37.7c0,0,0.7,0.5,0.6,0.9s-0.3,0.4-0.3,0.4s0.1-0.1,0.1-0.3C108.4,38.3,108.3,38,108.1,37.7z"/>
			<path class="st31" d="M114,42.8c0.8-1.3,1.4-2.7,1.9-4.2l0.1-0.7h0.1l0.6,0.8l0.2-0.2c-0.2,1-0.5,1.9-0.8,2.8
				c-0.4,0.8-0.8,1.7-1.3,2.4l-1.1-0.7C113.8,43,113.9,42.9,114,42.8z"/>
			<path class="st32" d="M115.9,35.4c0,0,0.4-0.8,0.7-0.7c0.3,0.1,0.4,0.4,0.4,0.7c-0.1,0.2,0-0.3-0.3-0.4S115.9,35.4,115.9,35.4z"
				/>
			<polygon class="st33" points="106.9,33.7 105.9,34.2 106.2,34.7 107.4,34.5 			"/>
			<polygon class="st34" points="107.7,35.7 107.2,35.7 107.1,35.9 107.6,35.9 			"/>
			<polygon class="st35" points="108.2,34.2 108.8,35.7 109.9,35.5 110.9,36 110.8,34.4 109.2,33.7 			"/>
			<polygon class="st36" points="110.9,34.4 108.2,34.2 108.3,33.2 111,34 			"/>
			<path class="st37" d="M111,36v-0.2c-0.4-0.3-0.9-0.5-1.4-0.6c-0.4-0.1-0.8,0.2-1,0.5l0.1,0.1c0,0,0.1,0.6,0.6,0.7S111,36,111,36z
				"/>
			<path class="st38" d="M119.9,72.4c-2.6-7.1-3.5-17.5-4-24.1c-0.1-0.8-0.1-1.5,0.1-2.3c0.1-0.9,1.3-1.1,1.7-2
				c0.4-1.1,0-2.8,0.6-3.5c0.3-0.4,0.8-0.7,1.3-0.8c1.2-0.3,4.9,1.2,5.8,1.9c1.9,1.6,3.8,3.8,4.3,6.3c0.9,5,2.9,13.1,4.6,19
				c0,0,0.6,6.4-0.4,6.6C131,74.1,119.9,72.4,119.9,72.4z"/>
			<path class="st39" d="M109.6,35.5c0.4,0.1,0.8,0.3,1.2,0.5v0.1c0,0-0.4,0.2-0.7,0.3l-0.2,0.1c-0.2,0.1-0.3,0.1-0.5,0.1
				c0,0-0.1,0-0.1,0c-0.1,0-0.1-0.1-0.2-0.2c-0.1-0.1-0.1-0.3-0.2-0.4C109,35.6,109.3,35.5,109.6,35.5z"/>
			<path class="st40" d="M107.8,39.1c0.5-0.1,1.1-0.1,1.7,0c0.8,0.5,1.5,1.1,2.2,1.9c1-0.7,1.8-1.6,2.4-2.6c0.1-0.6,0.2-1.1,0.2-1.7
				c0-0.3,0-0.7,0.1-1l0.7,0.5l1,1.7c-0.1,1.2-0.4,2.3-0.9,3.4c-0.8,1.4-2.1,2.5-3.7,3.1c-1,0.3-2.5-1-2.2-1.8c0,0,1.8-1,1.7-1.2
				s-1-1.5-2.2-1.4c-0.3,0-1.2-0.1-1.2-0.1L107.8,39.1z"/>
			<path class="st39" d="M107.1,36.4L107.1,36.4c-0.1-0.2-0.1-0.4,0-0.5c0.1-0.1,0.3-0.2,0.5-0.1l0,0c0,0,0,0.1,0,0.1V36l-0.1,0.2
				l0,0c0,0,0,0.1,0,0.1s0,0.1-0.1,0.2c0,0,0,0.1,0,0.1l0,0l-0.1-0.1c0,0-0.1-0.1-0.1-0.1l0,0L107.1,36.4z"/>
			<path class="st41" d="M107.2,37c0.3-0.3,0.4-0.7,0.5-1.1c0-0.4-0.1-0.8-0.3-1.2c0.1,0.4,0.2,0.9,0.1,1.3
				C107.5,36.3,107.4,36.7,107.2,37z"/>
			<path class="st39" d="M107.2,35.8c0.1-0.1,0.3-0.1,0.4,0l0,0c0,0,0,0.1,0,0.1c0,0,0,0,0,0.1v0.1v0.1l0,0l-0.1,0.2
				c0,0,0,0.1,0,0.1l-0.1,0.1l0,0l-0.1-0.1l0,0c0,0-0.1-0.1-0.1-0.1l0,0l0,0l0,0c0-0.1,0-0.3,0-0.4c0,0,0-0.1,0-0.2L107.2,35.8z"/>
			<polygon class="st26" points="115.2,44 114.9,46.2 117,47 116.6,45 			"/>
			<path class="st42" d="M116.7,45.3L117,47c0,0,0.7,3.9,0.9,4.5c0.2,0.3,2,7.2,3.7,12.1c0.7,2,1.5,4,2.4,6l1.5,0.6
				c0,0-3-5.4-3.4-7.7c-0.8-3.9-1.9-7.8-3.4-11.5c-0.3-0.9-1.1-4.3-1.1-4.3l-0.1-0.7L116.7,45.3z"/>
			<polygon class="st42" points="114.9,46.2 115.9,47.8 116,46.5 			"/>
			<path class="st43" d="M118.5,37.9c0,0-1,4.1-1.3,4.8c-0.4,1-0.8,2.5-0.8,2.5l2.4,1.8c0,0,0.2-1.5,0.5-3.2c0.2-1.5,0.3-3,0.3-4.6
				L118.5,37.9z"/>
			<path class="st44" d="M117.2,47c0,0.1,0.1,0.2,0.2,0.2c0,0,0,0,0,0c0.1,0,0.2-0.1,0.2-0.2c0-0.1-0.1-0.2-0.2-0.2c0,0,0,0,0,0
				C117.2,46.8,117.2,46.9,117.2,47C117.2,47,117.2,47,117.2,47z"/>
			<path class="st44" d="M117.7,49.6c0,0.1,0.1,0.2,0.2,0.2c0,0,0,0,0,0c0.1,0,0.2-0.1,0.2-0.2c0-0.1,0-0.2-0.1-0.2c0,0,0,0,0,0
				C117.8,49.4,117.7,49.5,117.7,49.6z"/>
			<path class="st44" d="M119.1,54.4c0,0.1,0.1,0.2,0.2,0.2c0,0,0,0,0,0c0.1,0,0.2-0.1,0.2-0.2c0-0.1,0-0.2-0.1-0.2c0,0,0,0,0,0
				C119.1,54.2,119.1,54.3,119.1,54.4z"/>
			<path class="st44" d="M118.4,52.3c0,0.1,0,0.2,0.1,0.2c0,0,0,0,0,0c0.1,0,0.2-0.1,0.2-0.2c0-0.1-0.1-0.2-0.2-0.2
				C118.5,52.1,118.4,52.2,118.4,52.3z"/>
			<path class="st45" d="M111,43.8c1.6-0.5,2.9-1.6,3.7-3.1c0.4-0.9,0.7-1.9,0.8-2.9l-0.3-1.5c0.4,0.5,0.7,1.1,1,1.7
				c0.1,1.2-0.3,2.4-0.9,3.4c-0.8,1.4-2.1,2.5-3.7,3.1c-0.9,0.1-1.8-0.4-2.2-1.3C109.8,43.7,110.4,43.9,111,43.8z"/>
			<path class="st46" d="M109.5,35.8c0.3,0,0.5,0.2,0.5,0.5c0,0,0,0,0,0c0,0,0,0.1,0,0.1h-0.1h-0.2c0.1-0.1,0.1-0.1,0.1-0.2
				c0-0.2-0.1-0.3-0.3-0.3c0,0,0,0,0,0c-0.2,0-0.3,0.1-0.3,0.3c0,0,0,0,0,0c0,0,0,0.1,0,0.1c0,0-0.1-0.1-0.1-0.1l-0.1-0.1
				C109,35.9,109.2,35.8,109.5,35.8z"/>
			<path class="st47" d="M109.2,36.5c0,0-0.1,0-0.1-0.1c0,0,0-0.1,0-0.1c0-0.2,0.1-0.3,0.3-0.3c0,0,0,0,0,0c0.2,0,0.3,0.1,0.3,0.3
				c0,0,0,0,0,0c0,0.1,0,0.1-0.1,0.2C109.5,36.5,109.4,36.5,109.2,36.5L109.2,36.5z"/>
			<path class="st46" d="M107.4,36.1h0.1l0,0c0,0,0,0.1,0,0.1l0,0v0.1h-0.1c-0.1,0-0.2,0.1-0.3,0.2c0-0.1,0-0.1,0-0.2
				C107.2,36.1,107.3,36.1,107.4,36.1z"/>
			<path class="st47" d="M107.4,36.5v0.1l0,0l0,0c0,0-0.1,0-0.1-0.1l0,0c0,0-0.1-0.1-0.1-0.1l0,0l0,0l0,0l0,0
				c0.1-0.1,0.2-0.2,0.3-0.2h0.1v0.1L107.4,36.5z"/>
			<path class="st48" d="M132.8,60.5c0,0-5.5,1.1-6.9-0.9s-3.7-8.3-3.7-8.3l-6,2c0.3,3,0.7,6.1,1.3,9.1c0.7,3,1.7,10,2.1,10.4
				c0.9,1,14.9,0.6,14.9,0.6c0.1-2.1,0-4.3-0.4-6.4C133.9,64.8,133.4,62.6,132.8,60.5z"/>
			<path class="st49" d="M123.4,70C123.4,70,123.4,70,123.4,70l-0.3-0.1c0,0,0-0.1,0-0.1l0,0c0,0,0.1,0,0.1,0L123.4,70
				C123.5,69.9,123.5,70,123.4,70z"/>
			<path class="st50" d="M120.6,52.5l0.7-2.5l-1.7,0.3L120.6,52.5l-0.3,0l-1-2.3l2.2-0.4l-0.7,2.7C120.8,52.5,120.7,52.6,120.6,52.5
				z"/>
			<path class="st39" d="M120.2,52.3c-0.1,0.2,0,0.4,0.2,0.5c0,0,0,0,0,0l0,0c0.2,0.1,0.4,0,0.5-0.2c0,0,0,0,0,0l0,0
				c0.1-0.2,0-0.4-0.2-0.5c0,0,0,0,0,0l0,0C120.5,52,120.3,52.1,120.2,52.3L120.2,52.3z"/>
			<path class="st48" d="M125,40.6c0,0-3.2-0.5-3.3,3.7c0,1.8-0.7,5.9-0.7,5.9l-1.4,0.2c0,0,0.5-5.8,0.6-6.5c0.4-1.3,1-2.6,1.6-3.8
				L125,40.6z"/>
			<polygon class="st39" points="109.6,40.5 108.4,41.5 108.2,40.6 			"/>
			<path class="st24" d="M129.2,57.5c-2.1-4.6-3.7-5.5-5.3-8.1c-0.7-1.1-2.2-6-1.4-7.7c0.6-1.3,1.6-1.7,4-0.4
				c3.2,1.7,10.3,17.6,7.6,17.9C132.3,59.1,130.6,58.5,129.2,57.5z"/>
			<path class="st27" d="M113.2,62.8c0.4-0.3,3.2,0.1,3.2,0.1l2.8,1.3c0,0,1.1,2,0.6,2.5c-0.5,0.4-1.1,0.8-1.8,1
				c-0.4,0.1-0.9,0.1-1.3,0c-0.6-0.4-1.1-0.8-1.6-1.3c0,0,0,1.1,0,1.3s0,0.5-0.2,0.6s-0.6,0.1-0.8,0.1c0,0-0.1-0.1-0.1-0.1
				c-0.1,0-0.2,0-0.2-0.1l-0.3-0.2l-0.2-0.2c0,0-0.1,0-0.1-0.1s-0.8-0.5-0.8-0.5c-0.2-0.2-0.4-0.4-0.5-0.6c-0.1-0.6,0-0.7,0-0.7
				c-0.1,0-0.1-0.1-0.2-0.2C111.4,65.1,112,63.9,113.2,62.8z"/>
			<path class="st27" d="M95.6,58.1c0.4-0.3,3.2,0.1,3.2,0.1l2.8,1.3c0,0,1.1,2,0.6,2.5c-0.5,0.4-1.1,0.8-1.8,1
				c-0.4,0.1-0.9,0.1-1.3,0c-0.6-0.4-1.1-0.8-1.6-1.3c0,0,0,1.1,0,1.3s0,0.5-0.2,0.6s-0.6,0.1-0.8,0.1c0,0-0.1-0.1-0.1-0.1
				c-0.1,0-0.2,0-0.2-0.1c-0.1-0.1-0.2-0.2-0.3-0.3l-0.2-0.2c0,0-0.1,0-0.1-0.1s-0.8-0.5-0.8-0.5c-0.2-0.2-0.4-0.4-0.6-0.6
				c-0.1-0.6,0-0.7,0-0.7c-0.1,0-0.1-0.1-0.2-0.2C93.8,60.5,94.3,59.2,95.6,58.1z"/>
			<path class="st51" d="M115.3,65c0,0-1.5,0.6-1.4,1.3s0.4,1.9,0.4,1.9c-0.3-0.7-0.5-1.4-0.6-2.2C113.8,65.4,115.2,65.1,115.3,65z"
				/>
			<path class="st51" d="M113.8,64.8c0,0-0.9,1-0.8,1.6s0.2,1.1,0.2,1.1s-0.6-1-0.5-1.3c0-0.2,0.2-0.4,0.3-0.6
				C113.3,65.4,113.6,65.1,113.8,64.8z"/>
			<path class="st51" d="M112,65.9c-0.1,0-0.1-0.1-0.2-0.1v-0.1c0-0.2,0.1-0.4,0.3-0.6c0.2-0.3,0.5-0.5,0.8-0.7
				C112.5,64.7,112.2,65.3,112,65.9z"/>
			<path class="st24" d="M130.7,56.8c-1.5,0.7-2.9,1.5-4.3,2.4c-2.3,1.5-4.6,3.1-6.7,4.9c-0.6,0.6,1.1,1.7,1.4,2.1
				c0.8,1.4,4.5,0.4,8.3-2.1c1.8-1.3,3.5-2.7,5-4.4c0.7-0.7,0.9-1.8,0.6-2.7"/>
			<path class="st52" d="M106.2,33.8c0,0-2.6,0.4-3.3-0.1c-0.4-0.3-0.8-0.7-0.9-1.3l5-0.9L106.2,33.8z"/>
			<path class="st52" d="M120.4,31.3l-6.9-0.5c-2.6-0.2-5.3,0.2-7.7,1.3c0,0,0.3-7.6,7.2-8.1C121.9,23.3,120.3,31.1,120.4,31.3z"/>
			<path class="st53" d="M114,30.7c0,0-2.1,2.5-6.6,2.3c-1.5-0.1-2.7-1-3.8-0.9s-1.6,0.3-1.6,0.3l3.8-1.6c1.2-0.5,2.4-0.8,3.7-0.9
				C111,29.9,112.6,30.2,114,30.7z"/>
			<path class="st54" d="M121.1,62.6l-2.6,0.9c0.2,0.7,0.3,1.3,0.4,2c0.1,1,0.3,2,0.3,2l3-0.4c-0.1-0.9-0.3-1.8-0.5-2.6
				C121.3,63.3,121.1,62.6,121.1,62.6z"/>
			<path class="st55" d="M120.8,113.3c0,0,0.3,1.6,0,2s3.3,1.3,3.3,1.3c0-0.8,0-1.5,0-2.3c0,0-1.3-0.4-1.6-0.5L120.8,113.3z"/>
			<path class="st56" d="M134.6,91.4c-0.3-3.3,0.3-11.2,0.3-12.1s0-6.5-0.1-8l-9-0.1h-6.7c0,0-0.1,23.6,0.9,41.4l4.6,0.8l1.8-34.2
				h0.7c1.7,12.1,3.3,34.5,3.3,34.5c1.6,0.5,3.2,0.8,4.8,1.1C135.1,114.7,135.5,101.1,134.6,91.4z"/>
			<path class="st57" d="M130.8,113.9c0,0,0.3,1.6,0,1.9s3.3,1.3,3.3,1.3c0-0.8,0-1.5,0-2.3c0,0-1.3-0.4-1.6-0.5L130.8,113.9z"/>
			<path class="st58" d="M115.4,119.2c1.5-0.7,2.8-1.6,4-2.7l-0.4-7.6l6.2-0.3l-0.4,10.1l0,0l0.1,2.3l-7.4,0.7l-4.2-0.1
				C113.3,121.4,113,120.2,115.4,119.2z"/>
			<path class="st58" d="M130.1,117.5c0-0.1,0.1-0.4,0.3-0.7l-0.8-8.6l6.1,0.1l-0.6,8.7l0.4,0.8c0.3,0.7,1.3,4,1.3,4
				c-1.2,0.7-2.5,1-3.9,1.1c-1.4,0-2.8-0.3-4.1-0.9C128.8,121.9,130,117.8,130.1,117.5z"/>
			<path class="st59" d="M132.8,122.2c-1.3,0-2.7-0.3-3.9-0.8l-0.2,0.6c1.3,0.6,2.7,0.9,4.1,0.9c1.4-0.1,2.8-0.4,4-1.1l-0.2-0.6
				C135.5,121.8,134.2,122.2,132.8,122.2z"/>
			<path class="st59" d="M124.9,121.4v-0.8c0,0-5.8,0.3-7.7,0.6c-1.4,0.1-2.8,0.1-4.2-0.1v0.5c1.7,0.1,1.8,0.2,3.5,0.2
				c0.4,0,4.3-0.1,5.8-0.1C123.1,121.7,124.9,121.4,124.9,121.4z"/>
			<path class="st60" d="M119,71.4h2.6c-0.3,1.1-0.7,2.1-1.2,3.2c-0.4,0.7-0.9,1.4-1.4,2L119,71.4z"/>
			<path class="st60" d="M128.7,71.4h3.6l0.1,5.8c-0.9-0.8-1.7-1.6-2.4-2.5C129.4,73.7,129,72.5,128.7,71.4z"/>
			<polygon class="st61" points="134.8,71.3 119,71.4 119,70.1 134.8,70.1 			"/>
			<rect x="126" y="69.9" class="st48" width="0.6" height="1.7"/>
			<rect x="132.6" y="70" class="st60" width="0.6" height="1.7"/>
			<rect x="121.6" y="70" class="st48" width="0.6" height="1.7"/>
			<polygon class="st62" points="5.7,112.1 48.5,111.2 47.2,72.1 7.6,73.6 			"/>
			<path class="st63" d="M87.9,86.3c2.2-0.1,4.5-0.1,6.7,0c0.2,0,0.4,0.1,0.6,0.2h5c7.1,1.7,12.1,9.2,12.1,18.2
				c0,10.1-5.5,18.1-13.9,18.4h-7.2c-8.7,0-15.8-8.3-15.8-18.6C75.5,95.5,80.7,87.2,87.9,86.3z"/>
			<path class="st62" d="M17.8,111.7c0-9.1,5.9-16.6,13.2-18.3h6.3c7.1,1.7,14,9.4,14,18.5c0,10.2-7.4,18-15.9,18.3h-7.2l0.8-1.3
				C22.2,125.9,17.8,119.2,17.8,111.7z"/>
			<path class="st64" d="M24.9,93.2c1.7-0.2,6.8,0,6.8,0c7.1,1.8,12.5,9.3,12.5,18.3c0,10.3-7.1,18.7-15.9,18.7s-15.9-8.4-15.9-18.7
				C12.4,102.5,17.6,94.1,24.9,93.2z"/>
			<path class="st65" d="M25,100.3c1.4-0.3,2.8-0.3,4.2,0c4.4,1.1,7.7,5.7,7.7,11.3c0,6.4-4.4,11.5-9.7,11.5s-9.8-5.2-9.8-11.5
				C17.3,106.1,20.1,101.6,25,100.3z"/>
			<path class="st66" d="M26.2,108.4c0.4-0.1,0.8-0.1,1.2,0c1.4,0.5,2.3,1.8,2.2,3.3c0.1,1.7-1.1,3.2-2.8,3.3
				c-1.9-0.3-3.1-2.1-2.8-4C24.2,109.8,25,108.8,26.2,108.4L26.2,108.4z"/>
			<polygon class="st67" points="28.2,101.6 26,101.6 26.5,107.4 27.6,107.5 			"/>
			<polygon class="st67" points="24.9,121.8 27.2,122 27,116.3 25.9,116.1 			"/>
			<polygon class="st67" points="35.9,113.2 36,110.9 30.4,111.2 30.3,112.4 			"/>
			<polygon class="st67" points="18.3,109.9 18,112.3 23.1,112.2 23.3,111 			"/>
			<polygon class="st67" points="34.5,105.7 32.9,104 29.4,108.5 30.1,109.4 			"/>
			<polygon class="st67" points="19.3,117.5 20.8,119.2 24.5,115 23.7,114.1 			"/>
			<polygon class="st67" points="32.7,119.6 34.2,117.9 29.9,114.2 29.1,115 			"/>
			<polygon class="st67" points="21.3,103.7 19.6,105.3 23.7,109.1 24.5,108.3 			"/>
			<path class="st67" d="M26.2,113.5c0,0.3,0.3,0.5,0.6,0.5c0.3,0,0.5-0.3,0.5-0.6c0-0.3-0.3-0.5-0.6-0.5
				C26.4,112.9,26.2,113.1,26.2,113.5C26.2,113.5,26.2,113.5,26.2,113.5z"/>
			<path class="st67" d="M26,110.1c0,0.3,0.3,0.6,0.6,0.5s0.6-0.3,0.5-0.6c0-0.3-0.3-0.5-0.6-0.5C26.3,109.5,26,109.7,26,110.1
				C26,110.1,26,110.1,26,110.1z"/>
			<path class="st67" d="M24.5,111.9c0,0.3,0.2,0.6,0.5,0.6c0,0,0,0,0,0c0.3,0,0.6-0.2,0.6-0.5c0-0.3-0.2-0.6-0.5-0.6
				C24.8,111.3,24.5,111.6,24.5,111.9C24.5,111.9,24.5,111.9,24.5,111.9z"/>
			<path class="st67" d="M27.7,111.5c0,0.3,0.2,0.6,0.5,0.6c0,0,0,0,0,0c0.3,0,0.6-0.3,0.6-0.6s-0.3-0.6-0.6-0.6
				C27.9,111,27.7,111.2,27.7,111.5C27.7,111.5,27.7,111.5,27.7,111.5z"/>
			<path class="st68" d="M-101.8,60.5c1.4-1.4,12-1.1,12.3-1.3l57.4-0.4l5.3-26.1c21.3-1.6,62.7-2.4,71.3,1.9
				c7.7,3.9,24.5,20.5,29.4,23.3c1.4,0.8,3,1.3,4.6,1.6c3.7,0.8,9.3,1.4,20.8,4.3c3.9,1,17.3,6.4,18.3,7.8
				c3.3,4.5,6.5,11.1,7.1,13.9c0.4,1.7-3.3,15.3-4.6,19.8c-0.7,2.4-2.3,4.6-4.4,6c-1.2,0.6-2.5,1.1-3.9,1.4l-66.7-0.5
				c-1-1.9-1.6-4-1.5-6.2c0-12.5-5.7-21.5-15.8-21.8c-10.6-0.3-17.7,2-19.5,16.9c-0.5,3.8-0.8,7.7-0.7,11.6h-22.4l-47.5-0.1h-1.1
				c-0.3-0.7,1.3-27.2-16.8-26.9c-15.1,0.2-13.7,24.2-13.7,25c0.1,0.6-0.5,1.1-0.8,1.1c-1.2-0.2-11.3-8.8-12.6-10.3
				c-2.7-3.2-1.3-16.6-0.2-28.2C-106.7,62.9-106,64.8-101.8,60.5z"/>
			<path class="st69" d="M-24.2,35l20.4-0.3c2.7,4,11.4,23.6,11.4,23.6l-35.1-0.2L-24.2,35z"/>
			<path class="st69" d="M1.4,35.7c0.2-0.4,0.2-0.6,0.4-0.9l41.6-0.2c9,3.3,30.5,24,30.5,24l-61.5,0.1c0,0-8.3-15.1-11.6-22
				C1,36.3,1.2,36,1.4,35.7z"/>
			<path class="st70" d="M64.7,99.5c3.2-1.2,6.5-2.2,9.9-2.9c11.3-2.1,47.8,0.2,47.8,0.2c-0.5,3.1-1.3,6.1-2.6,9
				c-10.7,0-51.8-0.2-55.6-0.2C59.9,105.6,58.1,102,64.7,99.5z"/>
			<path class="st70" d="M45,74.4c4.6-4.9,24.2,0.7,31.4,1.8s14.2,1,28.8,0.7c12.4-0.3,12.4-1.9,14.4-2.5c1.8,2.7,3.3,5.6,4.4,8.6
				c0.4,1,0.6,2,0.8,3H78.8C74,85.1,54.9,84.5,48,81.5C46,80.6,43.6,75.9,45,74.4z"/>
			<path class="st71" d="M48.5,75.3c4.2-3.4,20.1,0.7,26.4,1.8c1.5,0.3,4.9,1.3,3.9,4.9c-0.6,2.3-3,2.1-5,2.2
				c-7,0.2-18.6-1.7-22.8-3.7C49.3,79.7,47.2,76.3,48.5,75.3z"/>
			<path class="st71" d="M116.2,80.9c-1.4-3.5,1.9-4.9,3.4-5.3l0.7-0.2c1.4,2.1,2.6,4.4,3.4,6.8c-0.8,0.1-1.6,0.3-2.3,0.3
				C119.3,82.7,117,83.1,116.2,80.9z"/>
			<path class="st72" d="M82.4,80.4c0,0.5,0.4,0.9,0.9,0.9h29.5c0.5,0,0.9-0.4,0.9-0.9c0,0,0,0,0,0l0,0c0-0.5-0.4-0.9-0.9-0.9
				c0,0,0,0,0,0H83.3C82.8,79.5,82.4,79.9,82.4,80.4C82.4,80.4,82.4,80.4,82.4,80.4z"/>
			<path class="st72" d="M84.3,83.3c0,0.5,0.3,0.9,0.8,0.9h27c0.5,0,0.8-0.4,0.8-0.9l0,0c0-0.5-0.3-0.9-0.8-0.9h-27
				C84.6,82.4,84.3,82.8,84.3,83.3z"/>
			<path class="st73" d="M89.7,101.1c0,1.7,1,3.2,2.1,3.2h16.1c1.2,0,2.1-1.4,2.1-3.2l0,0c0-1.7-0.9-3.2-2.1-3.2H91.8
				C90.6,97.9,89.7,99.4,89.7,101.1z"/>
			<path class="st72" d="M72.3,99.8c1.1,0.5,1.8,1.7,1.6,2.9c-0.2,1-1,1.7-2,1.9c-0.5,0.1-6.8,0.1-7.2-0.7s0.3-2.7,2.8-3.5
				S71.3,99.4,72.3,99.8z"/>
			<path class="st74" d="M67.6,57.4c0,0-19-19.5-24.1-20.4S1.1,37.1,1.1,37.1l9.6,19.4L67.6,57.4z"/>
			<polygon class="st69" points="23.9,36.5 28.6,58.5 25,58.6 21.6,36.4 			"/>
			<path class="st75" d="M37.9,57.3c0,0-3.4-5.5-6.2-5.7s-12.8-1.2-15.4,1.7c-0.6,0.7,0.2,3.4,0.2,3.8S37.9,57.3,37.9,57.3z"/>
			<path class="st76" d="M20.7,36.3h5.6l-0.6-1.7l0.7-0.1l0.8,1.7h3.6c0.7,0,1.3,0.6,1.3,1.3c0,0.7-0.6,1.3-1.3,1.3h-10
				c-0.7,0-1.3-0.6-1.3-1.3C19.4,36.9,20,36.4,20.7,36.3L20.7,36.3z"/>
			<path class="st77" d="M12,58.7c-0.6-1.3-1.2-2.5-2-3.7c2.1,1,6.8,2,12.2,1.8c2.8-0.1,37,0.8,42.1-0.2c2.5-0.5,3.2-2.2,3.3-3.3
				c4.6,3.7,4.6,3.7,8.2,5.3L12,58.7z"/>
			<path class="st77" d="M-18.7,56.3c0-0.7,0.2-1.3,0.7-1.9c1.8-1.6,6.4-2.1,11-2.1c4.1,0,8.2,0.2,10,0.3c0.4,0,0.8,0.1,1.1,0.2
				c2,3.3,3.5,5.9,3.5,5.9h-21.1c-1.7,0.1-3.5,0-5.2-0.3C-18.7,57.7-18.7,57-18.7,56.3z"/>
			<path class="st76" d="M-29.4,58.6h37c0,0-6.8-16.9-9.9-22.1c-0.4-0.7-0.9-1.3-1.5-1.8c-0.6-0.2-1.2-0.4-1.8-0.3l-19.4,0.2
				L-29.4,58.6z M-26.9,57.4l0.9-4.9l2.1-16.8l17.2-0.2c0.7-0.1,1.4,0,2,0.3c0.8,0.6,1.3,1.5,1.8,2.4c3,5.5,8.1,19.3,8.1,19.3H-26.9
				z"/>
			<path class="st78" d="M1.8,55.9c0,0-1.2-3.4-2.1-4.4s-9-1.3-10.7-0.4s-2.7,5.2-1.3,7.2s11.5,0.9,12.4,1c0.7,0.2,1.5,0.4,2.1,0.7
				l7.4-0.2l-3-5.2L1.8,55.9z"/>
			<path class="st76" d="M43.4,34.5c0.8,0.3,1.6,0.7,2.4,1.1c0,0-43.1-1.6-44.1-0.2c-0.8,1.1,8,20.2,11.1,21.8
				c2.9,1.5,60.1-0.1,60.1-0.1c1.5,0.8,3.2,1.5,3.2,1.5s-46.3,2.5-61.7,0.8c-0.8-0.1-1.7-0.4-2.4-0.8c-4.2-3.4-8-15-11.1-21.8
				c-0.4-0.9-0.7-1.5-0.4-2.1c0.3-0.4,14.3-1.2,24.1-1C29.3,34,43.4,34.5,43.4,34.5z"/>
			<path class="st79" d="M119.4,106.4c-0.6,2.2-2,4-3.9,5.3c-1.1,0.5-2.2,0.9-3.3,1.1l-43.5,2.4c0,0-11-0.2-14.2-0.5
				c-2.5-0.2-7.6-0.9-9.6-2.4c-0.9-0.7-1.4-6.2-1.4-10c0,0,1.4,2,8.8,3.9c14.6,3.8,60.3,2.7,60.3,2.7
				C114.9,108.2,117.2,107.4,119.4,106.4z"/>
			<path class="st80" d="M48.2,75.3c0.6-0.5,1.3-0.8,2.1-1c-0.2,0.1-0.4,0.2-0.6,0.4c-1.3,1,0.9,4.4,2.6,5.2
				c4.2,1.9,15.8,3.9,22.8,3.7c0.8,0,1.7-0.1,2.5-0.2c-1,0.7-2.6,0.7-4,0.7c-7,0.2-18.6-1.7-22.8-3.7C49,79.7,46.9,76.4,48.2,75.3z"
				/>
			<path class="st81" d="M94.4,81.3c0,1,2,1.8,4.5,1.8s4.5-0.8,4.5-1.8s-2-1.8-4.5-1.8S94.4,80.4,94.4,81.3z"/>
			<path class="st82" d="M95.7,81.3c0,0.7,1.4,1.3,3.2,1.3s3.2-0.6,3.2-1.3s-1.4-1.3-3.2-1.3S95.7,80.6,95.7,81.3z"/>
			<path class="st72" d="M117.6,101.5c-0.2-1.2,0.4-2.5,1.6-2.9c0.9-0.1,1.9,0.1,2.8,0.5c-0.2,1.7-0.6,3.3-1.3,4.8h-1.6
				C118.2,103.4,117.6,102.5,117.6,101.5z"/>
			<path class="st83" d="M43.7,74.8l-138.9-4.3c0.7-0.6,1.1-1.4,1.4-2.3c0.1-1-1.1-1.6-0.9-1.7c1.3-1.3,138.8,5.8,140.2,6.4
				C45.5,73,44,74.7,43.7,74.8z"/>
			<path class="st79" d="M-14.8,103.3H8.1C8,108.1,8,111.2,8,112.7h-23.1l-47.6-0.5l-1.2-0.1c-0.1-0.5-0.2-4.4-0.2-9.7l1.7,0.1
				L-14.8,103.3z"/>
			<path class="st84" d="M-65.1,112.6c0,1.3,1,2.3,2.3,2.3c0,0,0,0,0,0L6,114.5c1.3,0,2.3-1,2.3-2.3c0,0,0,0,0,0l0,0
				c0-1.3-1-2.3-2.3-2.3c0,0,0,0,0,0l-68.7,0.4C-64,110.3-65,111.3-65.1,112.6L-65.1,112.6z"/>
			<path class="st84" d="M62.3,112.7c0,1.4,1.2,2.6,2.6,2.6h54.4c1.4,0,2.6-1.2,2.6-2.6l0,0c0-1.4-1.2-2.6-2.6-2.6H64.9
				C63.4,110.1,62.3,111.2,62.3,112.7z"/>
			<path class="st85" d="M-78.4,79.1c17,0,16.6,20.3,16.3,21.4l46.8,0.4l22,1C6.8,101,7,99.3,7.4,97c0.7-4.9,4.2-21.7,18.8-21.5
				c20.6,0.2,18.6,27.8,17.8,27.9c-0.7,0-1.4-10.1-5.7-15c-2.9-3.3-8.4-4.2-13.1-4.2c-10.6,0-14.8,6.4-16.3,13.5
				c-0.3,1.4-0.6,2.9-0.6,4.3l0,0L8,103.3l-39.7-0.7l-32-0.1c-0.2,0.1-0.4,0.1-0.5,0c0,0-2.3-8.8-5.4-12.2c-2.6-3-6.4-4.8-10.4-4.9
				c-9,0-12.3,8.5-13.3,15.1c-0.4,2.8-0.9,5.3-0.9,5.3S-100.6,79.1-78.4,79.1z"/>
			<path class="st78" d="M44.5,108.5c0.3-3.9,0.3-7.7,0-11.6c-0.2-3.2-0.7-6.3-1.6-9.3c-0.7-2.7-2.1-5.2-4.1-7.2
				c-6.6-5.8-11-5.4-13.1-5.3c-0.3,0-0.5,0-0.8,0c-2.5,0.2-4.9,1-7.1,2.2C14,79.3,11,82.8,9.6,87c-1.6,4.6-2.9,9.3-3.9,14l-67.6-0.9
				c0-2.9-0.4-5.7-1-8.5c-0.6-2.1-1.5-4.2-2.7-6.1c-1.2-2.2-3.1-4.1-5.3-5.2c-4.3-2-9.3-2.3-13.8-0.7c-3.1,1.1-5.9,3.1-7.8,5.7
				c-2.1,2.7-2.8,8.5-2.9,10.3s1,9.7,1,10l0.5-0.1c0-0.1-1.1-8.1-1-9.9s0.8-7.5,2.8-10c1.9-2.6,4.5-4.6,7.6-5.6
				c4.4-1.6,9.3-1.3,13.6,0.7c5,2.2,7.5,10.1,7.7,11c0.6,2.8,0.9,5.7,1,8.6v0.2l68.5,0.9v-0.2c0,0,0.7-4.4,3.9-14.2
				c1.3-4.1,4.2-7.5,8-9.5c2.1-1.2,4.5-1.9,6.9-2.2c0.2,0,0.5,0,0.8,0c2.1-0.2,6.4-0.5,12.8,5.2c3.8,3.3,5,10.6,5.5,16.2
				c0.3,3.8,0.3,7.7,0,11.5L44.5,108.5z"/>
			<path class="st79" d="M5.9,107.7c0-0.1,0.2-5.6,0.3-7.5c0-0.8,2.9-14.7,4.4-17.9c1.7-3.4,3.1-6.9,4.3-10.4
				c1.5-5.1-2.3-8.3-2.4-8.6l0,0l-4.1-5.7l-0.4,0.3l4.1,5.7c0.2,0.4,3.8,3.5,2.4,8.2c-1.2,3.5-2.7,7-4.3,10.3
				c-1.6,3.6-4.4,17.2-4.5,18.1c-0.1,1.8-0.3,7.4-0.3,7.5L5.9,107.7z"/>
			<path class="st79" d="M47,73.4l0.4-0.8c-2.6-1.6-5.3-3.1-8.1-4.4C32.6,65.5,11.9,61.2,11,61l-0.2,0.9c0.2,0.1,21.5,4.5,28.2,7.1
				C41.1,69.8,47,73.4,47,73.4z"/>
			<path class="st83" d="M123.8,90.8l-7.3,0.1c-0.7,0-36.2,0-37.8,0.1s-19.9-2.6-22-3.2s-1-1.5,4-1.3s14,2.3,19,2s36.3,0,36.3,0
				l8.5-0.3L123.8,90.8z"/>
			<path class="st86" d="M103.3,67c-1.1-0.2-2.2-0.6-3.1-1.2c0,0-0.5-1,1.9-0.8s4.4,1.4,3.2,1.8C104.6,67,103.9,67.1,103.3,67z"/>
			<path class="st86" d="M101.9,67.8c-0.4-0.1-0.9-0.2-1.2-0.5c0,0-0.2-0.4,0.7-0.3s1.7,0.5,1.2,0.7
				C102.4,67.8,102.2,67.9,101.9,67.8z"/>
			<path class="st87" d="M8.5,101.8c0-1.5,0.2-2.9,0.6-4.3C10.6,90.4,14.8,84,25.4,84c4.8,0,10.2,0.8,13.1,4.2
				c3.5,4,4.7,11.5,5.3,14.1c0,0-0.1-0.1-0.1-0.1c0,1.6,0.1,3.3,0.2,4.9c-1.4-7-6.1-12.5-12-14c0,0-5.1-0.2-6.8,0
				c-7.3,0.9-12.5,9.3-12.5,18.3c0,0.2,0,0.3,0,0.4L8.3,112c0-1.7,0-4.5,0.1-8.8L8.5,101.8z"/>
			<path class="st88" d="M0.6,36.9c3.2,6.8,7,18.4,11.2,21.8c0.7,0.4,1.5,0.7,2.3,0.8C29.5,61.2,76,58.7,76,58.7
				c-1.2-0.4-2.3-1-3.4-1.5c0,0-0.3-0.2-0.5-0.3C67.5,52.5,53.6,40,45.4,35.6l0,0l-0.8-0.4c-0.5-0.2-1-0.5-1.5-0.7l0,0
				c0,0-14.1-0.5-18.8-0.7c-9.8-0.2-23.9,0.5-24.1,1C-0.2,35.5,0.2,36,0.6,36.9z M5.2,39.1c0,0,16.9-0.9,27,3.1c-1-2.3-1.7-4-1.7-4
				s15.2,2.6,23.7,6.5c7.6,3.5,15.5,12.3,15.5,12.3c-1-0.2-9.8,0.8-14.1,0.8c-2.4,0-6.2,0.1-9.6-0.1c-3.8,0.3-8.6,0.7-11.6,0.7
				c-6,0-18.6,0.4-20.7-2.3S5.2,39.1,5.2,39.1z"/>
			<path class="st89" d="M67.4,53.1c0.5,1.7,9.5,5.9,5.1,5.9s-4.9-2-10.2,0s12.6,8.7,24,12.3s-4.5,2.7-18.8-5s-6.9-2.7-9.6-2.3
				c-2.7,0.4-19,0.8-13.3-3s-0.9-1.5-1.1-6.5s0-6.8,4.9-4.1s4.9,8.9,6.7,4.1s-6.8-7.9-2.8-8.8S66.1,48.4,67.4,53.1z"/>
			<path class="st89" d="M80.6,62.3c0,0,20.8,4.6,22.1,8.5s-9.7-1.8-9.7-1.8s-1.1-0.2,2.9,5.2c3.4,4.5-6.8,0.1-6.8,0.1L72.5,65
				c1.3-0.8,2.7-1.6,4.1-2.3C77.9,62.3,79.3,62.2,80.6,62.3z"/>
			<ellipse class="st23" cx="80.1" cy="141.1" rx="14.2" ry="2.2"/>
			<path class="st90" d="M67.3,121l3.1,19c0,1.3,4.3,2.4,9.6,2.4s9.7-1.1,9.7-2.4l3.1-19.5L67.3,121z"/>
			<path class="st91" d="M80.1,142.5c-5.4,0-9.7-1.1-9.7-2.5l-3.1-19l0,0l0,0l25.5-0.4l0,0l0,0c0,0,0,0,0,0.1l-3,19.4
				C89.8,141.4,85.5,142.5,80.1,142.5L80.1,142.5z M67.4,121l3.1,19c0,1.3,4.4,2.4,9.6,2.4s9.6-1.1,9.6-2.4l3.1-19.4L67.4,121z"/>
			<path class="st92" d="M75.8,133c-0.7,0.1-1.4,0.3-1.9,0.8l0.6,7.4h-0.3c-0.9-0.1-1.8-0.3-2.6-0.8l-1.2-7.4
				c-0.1-0.1-0.2-0.1-0.3-0.1h-0.1c-0.3,0-0.5,0.2-0.7,0.4l1.1,6.6c0,1.3,4.4,2.4,9.6,2.4c1.2,0,2.5-0.1,3.7-0.2
				c4.8-0.7,5.4-5.6,5.4-5.6l0.5-3.4c-0.5,0.1-0.9,0.4-1.2,0.8c-0.3,0.7-0.9,1.1-1.7,1.2c-0.7-0.1-1.3-0.4-1.7-0.9
				c-0.7-1.1-2.2-1.4-3.3-0.7c-0.3,0.2-0.5,0.4-0.7,0.6c-0.4,0.4-0.9,0.6-1.5,0.6c-0.8,0-1.5-0.4-2-1
				C77.2,133.4,76.6,133.1,75.8,133z"/>
			<path class="st91" d="M89.7,140c0,1-2.3,1.8-5.5,2.2C87.5,141.8,89.7,140.9,89.7,140z M89.7,140L89.7,140z M90.7,133.8l-1,6.2
				l0,0L90.7,133.8z M69.4,133.3C69.4,133.3,69.4,133.4,69.4,133.3l1,6.7c0,1.3,4.3,2.4,9.6,2.4c1.1,0,2.2,0,3.2-0.1
				c0.1-0.1,0.3-0.1,0.4-0.1h0.1c-1.2,0.1-2.5,0.2-3.7,0.2c-5.2,0-9.6-1.1-9.6-2.4L69.4,133.3L69.4,133.3z"/>
			<path class="st93" d="M67.5,121.5l0.5,3.2c0-0.5,0.1-1.8,1.2-1.8c0.2,0,0.3,0,0.5,0.1c3.3,0.9,6.8,1.3,10.2,1.2
				c2.7,0,5.4-0.2,8.1-0.7c0.1,0,0.2-0.1,0.3-0.1c0.2,0,0.3,0.1,0.4,0.3c0.1,0.5,0.5,0.9,1,0.9c0.1,0,0.2,0,0.3,0l0,0
				c0.1,0,0.8,0.1,0.5,2.3l-0.9,6.2h0.1c0.3,0,0.7,0.2,0.9,0.5l1.9-12.1c-0.5,0.2-1,0.4-1.4,0.6c0,0.1,0.1,0.3,0.1,0.4
				c0,0.7-0.4,1.3-0.8,1.3s-0.8-0.6-0.8-1.3l0,0c-3.1,0.7-6.3,1-9.5,1C74.6,123.6,69.9,122.8,67.5,121.5L67.5,121.5z"/>
			<path class="st94" d="M84.2,142.2l-0.9,0.1l0,0L84.2,142.2z M89.7,140L89.7,140z M89.7,140L89.7,140z M92.7,121.5L92.7,121.5
				l-2,12.1c0,0,0,0.1,0,0.1L92.7,121.5L92.7,121.5z M67.4,121.5L68,125l0,0v-0.2L67.4,121.5L67.4,121.5L67.4,121.5z"/>
			<path class="st95" d="M89.8,133.2h-0.1l-0.5,3.4c0,0-0.6,4.9-5.4,5.6c3.4-0.4,5.9-1.2,5.9-2.2l1-6.3
				C90.5,133.4,90.1,133.2,89.8,133.2L89.8,133.2z"/>
			<path class="st94" d="M90.7,133.7l-1,6.3c0,1-2.4,1.8-5.9,2.2h-0.1c-0.1,0-0.3,0.1-0.4,0.1l0.9-0.1c3.2-0.4,5.5-1.2,5.5-2.2l0,0
				L90.7,133.7C90.8,133.8,90.8,133.7,90.7,133.7L90.7,133.7z"/>
			<path class="st96" d="M90.7,122.7c0,0.7-0.4,1.3-0.8,1.3s-0.8-0.6-0.8-1.3s0.4-1.3,0.8-1.3S90.7,122,90.7,122.7z"/>
			<path class="st91" d="M89.9,124c-0.5,0-0.9-0.6-0.9-1.3s0.4-1.3,0.9-1.3s0.9,0.6,0.9,1.3S90.4,124,89.9,124z M89.9,121.5
				c-0.4,0-0.8,0.5-0.8,1.2s0.3,1.2,0.8,1.2s0.8-0.5,0.8-1.2S90.3,121.5,89.9,121.5L89.9,121.5z"/>
			<path class="st90" d="M93.5,118c-2.2-1.4-7.4-2.4-13.4-2.4s-11.3,1-13.4,2.4h-1.1v1.7l0,0c0.4,2.1,6.7,3.8,14.5,3.8
				c3.2,0,6.4-0.3,9.5-1l0,0c0,0.7,0.4,1.3,0.8,1.3s0.8-0.6,0.8-1.3c0-0.2,0-0.3-0.1-0.4c2.2-0.7,3.5-1.6,3.5-2.6V118H93.5z"/>
			<path class="st91" d="M90.4,123.9c-0.5,0-0.9-0.6-0.9-1.3c-3.1,0.7-6.3,1-9.4,0.9c-7.8,0-14.2-1.7-14.6-3.8l0,0c0,0,0,0,0-0.1
				V118c0,0,0-0.1,0.1-0.1h1.1c2.3-1.5,7.6-2.4,13.5-2.4s11.2,1,13.5,2.4h1.1c0,0,0.1,0,0.1,0.1v1.5c0,1-1.2,1.9-3.4,2.6
				c0,0.1,0,0.3,0,0.4C91.3,123.3,90.9,123.9,90.4,123.9z M89.6,122.6L89.6,122.6c0.1,0.7,0.4,1.2,0.8,1.2s0.8-0.5,0.8-1.2
				c0-0.1,0-0.3-0.1-0.4c0,0,0-0.1,0-0.1c2.2-0.7,3.4-1.6,3.4-2.5v-1.4h-1.1c-2.3-1.5-7.5-2.4-13.4-2.4s-11.2,1-13.4,2.4h-1.1v1.6
				l0,0c0.4,2.1,6.7,3.7,14.5,3.7c3.2,0,6.4-0.3,9.5-1 M89.6,122.4C89.6,122.4,89.6,122.4,89.6,122.4L89.6,122.4L89.6,122.4z"/>
			<path class="st90" d="M94.7,118c0,2.2-6.5,4-14.6,4s-14.6-1.8-14.6-4s6.5-4,14.6-4S94.7,115.8,94.7,118z"/>
			<path class="st91" d="M80.1,122.1c-8.1,0-14.6-1.8-14.6-4s6.6-4,14.6-4s14.6,1.8,14.6,4S88.2,122.1,80.1,122.1z M80.1,114.1
				c-8,0-14.5,1.8-14.5,3.9s6.5,3.9,14.5,3.9s14.5-1.8,14.5-3.9S88.1,114.1,80.1,114.1z"/>
			<path class="st97" d="M80.1,114.3c-7.3,0-13.2,1.5-13.2,3.3c0,0.7,0.9,1.4,2.4,1.9c3.5,1,7.2,1.5,10.9,1.4
				c3.7,0.1,7.4-0.4,10.9-1.4c1.5-0.5,2.4-1.2,2.4-1.9C93.4,115.8,87.5,114.3,80.1,114.3L80.1,114.3z"/>
			<path class="st98" d="M80.1,121c-3.7,0.1-7.4-0.4-10.9-1.4c-1.6-0.6-2.4-1.3-2.4-2c0-1.9,5.8-3.4,13.3-3.4s13.3,1.5,13.3,3.4
				c0,0.7-0.8,1.4-2.4,2C87.4,120.6,83.8,121.1,80.1,121z M80.1,114.3c-7.3,0-13.2,1.5-13.2,3.3c0,0.7,0.8,1.3,2.3,1.8
				c3.5,1,7.2,1.5,10.8,1.4c3.7,0.1,7.3-0.4,10.8-1.4c1.5-0.6,2.3-1.2,2.3-1.8C93.3,115.8,87.3,114.3,80.1,114.3z"/>
			<path class="st98" d="M80.1,121C80,121,80,121,80.1,121c-0.1-0.1,0-0.1,0-0.1c0,0,0,0,0,0c3.7,0.1,7.3-0.4,10.8-1.4
				c0,0,0.1,0,0.1,0s0,0.1,0,0.1c0,0,0,0-0.1,0C87.4,120.6,83.7,121.1,80.1,121z"/>
			<path class="st99" d="M69.2,124.4l1.4,8.7c0.3,0.2,0.5,0.4,0.8,0.6c0.4,0.4,0.8,0.6,1.4,0.7c0.4,0,0.8-0.2,1.2-0.5l0.1-0.1
				l-0.8-8.6C73.2,125.1,71.1,124.8,69.2,124.4L69.2,124.4z"/>
			<path class="st100" d="M70.6,133.1l1.2,7.4c0.8,0.4,1.7,0.7,2.6,0.8h0.3l-0.6-7.4l-0.1,0.1c-0.3,0.3-0.7,0.5-1.2,0.5
				c-0.5-0.1-1-0.3-1.4-0.7C71.1,133.4,70.8,133.2,70.6,133.1L70.6,133.1z"/>
			<path class="st101" d="M66.4,117.5c0,0-0.9,2.2,6.9,3.3c0,0,2.4,0.2-0.1,0.2C70.4,121,64.7,119.3,66.4,117.5z"/>
			<path class="st97" d="M91.1,122.6c0,0.4-0.2,0.8-0.5,0.8s-0.5-0.3-0.5-0.8s0.2-0.8,0.5-0.8S91.1,122.2,91.1,122.6z"/>
			<path class="st95" d="M90.8,119.5l-0.2,0.1c-2.1,0.6-4.4,1-6.6,1.2h-0.1l-0.3,0.1c2.5-0.1,5-0.5,7.4-1.3L90.8,119.5L90.8,119.5z"
				/>
			<g>
				<defs>
					<path id="SVGID_9_" d="M65.7,121.1h0.7c0.3,0.2,0.6,0.4,0.9,0.5c0,0-2.7,12.3,5.1,11s17.1-10.9,18.1-10.7s0.6,1.1,0.1,2.2
						s-7.6,12.2-18.9,11c0,0-4.9,0.5-5.9-4.2C65.2,127.6,65.2,124.3,65.7,121.1z"/>
				</defs>
				<clipPath id="SVGID_10_">
					<use xlink:href="#SVGID_9_"  style="overflow:visible;"/>
				</clipPath>
				<g class="st102">
					<path class="st103" d="M72.4,134.6c-1,0-2-0.2-3-0.5c-5.4-2.2-2.8-12.6-2.6-13.1c0-0.2,0.2-0.3,0.4-0.3c0,0,0,0,0,0
						c0.2,0.1,0.3,0.3,0.2,0.5c0,0.1-2.6,10.2,2.2,12.2c5.2,2.1,16.2-2.7,20.6-10.7c0.1-0.2,0.2-0.2,0.4-0.2c0,0,0,0,0.1,0
						c0.2,0.1,0.2,0.3,0.1,0.5C86.9,130,78.3,134.6,72.4,134.6z"/>
					<path class="st104" d="M72.4,134.6c-1,0-2.1-0.2-3.1-0.5c-5.5-2.2-2.8-12.7-2.7-13.2c0-0.2,0.3-0.3,0.5-0.3c0,0,0,0,0,0
						c0.2,0.1,0.3,0.3,0.3,0.5c0,0.1-2.6,10.2,2.2,12.1c0.9,0.3,1.9,0.5,2.9,0.5c5.5,0,13.8-4.3,17.6-11.2c0.1-0.2,0.3-0.3,0.5-0.2
						c0,0,0,0,0,0c0.2,0.1,0.2,0.4,0.1,0.6C86.8,130.2,78.2,134.6,72.4,134.6z M67,120.8c-0.1,0-0.2,0.1-0.2,0.2
						c-0.1,0.4-2.8,10.8,2.6,13c1,0.4,2,0.5,3,0.5c5.7,0,14.3-4.4,18.2-11.5c0.1-0.1,0-0.3-0.1-0.4c-0.1-0.1-0.3,0-0.3,0.1
						c0,0,0,0,0,0c-3.8,7-12.2,11.3-17.7,11.3c-1,0-2-0.2-2.9-0.5c-4.9-2-2.3-12.2-2.3-12.3C67.3,121,67.3,120.8,67,120.8L67,120.8z
						"/>
					<path class="st39" d="M72.5,134.2c-1,0-2-0.2-3-0.5c-5.2-2.1-2.5-12.6-2.5-12.7 M67.1,121C67.1,121,67.1,121,67.1,121
						c0,0.2-2.7,10.6,2.4,12.6c1,0.4,2,0.5,3,0.5c5.8,0,14.2-4.5,17.9-11.4 M90.4,122.8c-3.7,6.9-12.2,11.4-18,11.4L90.4,122.8z"/>
				</g>
			</g>
			<path class="st105" d="M68.3,132.3c1.2,1,2.9,1.5,4.5,1.3l0.4,0.2c-0.2,0.1-0.3,0.3-0.2,0.5c0.1,0.4,0.3,0.4,0.3,0.4l-0.2,0.3
				c0,0-3.3,0.6-5.5-1.5V133C67.7,132.7,68,132.3,68.3,132.3z"/>
			<path class="st106" d="M72,135c-1.7,0.1-3.3-0.5-4.5-1.6c0,0,0-0.1,0-0.1V133c0.1-0.4,0.4-0.8,0.8-0.9c0,0,0.1,0,0.1,0
				c1.1,0.9,2.4,1.3,3.8,1.3c0.2,0,0.4,0,0.6,0l0,0l0.4,0.2c0,0,0,0.1,0,0.1c0,0,0,0.1-0.1,0.1s-0.2,0.1-0.2,0.4s0.2,0.3,0.2,0.3
				c0,0,0.1,0,0.1,0.1c0,0,0,0.1,0,0.1l-0.2,0.2c0,0,0,0-0.1,0C72.6,134.9,72.3,135,72,135z M67.6,133.3c1.2,1.1,2.8,1.6,4.4,1.6
				c0.3,0,0.7,0,1-0.1l0.1-0.1c-0.1-0.1-0.2-0.2-0.3-0.4c0-0.2,0-0.3,0.1-0.5l-0.2-0.1h-0.6c-1.4,0.1-2.8-0.4-3.9-1.3
				c-0.3,0.1-0.6,0.4-0.6,0.7L67.6,133.3z"/>
			<path class="st107" d="M68.2,132.6c1.1,0.8,2.5,1.3,3.8,1.4c2.1,0-0.6,1-2.6,0S68.1,132.6,68.2,132.6z"/>
			<path class="st108" d="M91,119.6c-3.5-1-7.2-1.5-10.9-1.4c-3.7-0.1-7.3,0.4-10.9,1.4c3.5,1,7.2,1.5,10.8,1.4
				C83.8,121.1,87.5,120.6,91,119.6z"/>
			<path class="st108" d="M80.1,121c3.7,0.1,7.4-0.4,10.9-1.4L80.1,121z"/>
			<path class="st109" d="M79.2,118.2c-3.2-0.1-6.5,0.4-9.6,1.3c1.5,0.5,3.1,0.8,4.7,1C75.4,118.8,79.2,118.3,79.2,118.2L79.2,118.2
				L79.2,118.2z"/>
			<path class="st110" d="M85.9,118.5c1.1,0.3,2.2,0.9,0.3,1.6l4.4-0.6h0.1C89.2,119.1,87.5,118.8,85.9,118.5L85.9,118.5z"/>
			<path class="st111" d="M85.5,118.4l0.4,0.1c1.6,0.2,3.3,0.5,4.8,1h-0.1l0,0l0.2-0.1C89.1,118.9,87.3,118.5,85.5,118.4L85.5,118.4
				z"/>
			<path class="st110" d="M90.6,119.6L90.6,119.6l-4.4,0.6c-0.7,0.3-1.5,0.4-2.2,0.6C86.2,120.6,88.4,120.2,90.6,119.6z"/>
			<path class="st112" d="M85.6,64.1c0.9,1.3,12.6,3.3,15.7,5.2c3.6,2.3,1-2.2,0.3-3.6c-0.5-0.9-1.3-1.6-2.2-1.9
				c0,0,0.2,1.4,1.3-0.2s-2.1-3.4-4.7-3.9c-4.1-0.8-19.3,0.3-15.3,1C86.6,61.9,84.8,62.7,85.6,64.1z"/>
			<path class="st113" d="M98.8,59c0,0-2.5-0.5-2.7,0.2c-0.6,1.8,0.7,1.7,2.5,1.2c0.4,0.9,1,1.6,1.8,2.1"/>
			<path class="st114" d="M98.8,59c-0.6,0-1.1,0-1.7,0.1c-0.2,0-0.5,0.1-0.7,0.2c0,0,0,0-0.1,0l0,0c0,0,0,0,0,0.1
				c0,0.1,0,0.2-0.1,0.4c0,0.5,0.1,0.6,0.6,0.6c0.5,0,1-0.1,1.5-0.2l0.3-0.1l0.1,0.3c0.1,0.2,0.1,0.4,0.2,0.6
				c0.1,0.2,0.2,0.4,0.4,0.6c0.3,0.4,0.6,0.8,0.9,1.1c-0.4-0.2-0.8-0.5-1.2-0.8c-0.2-0.2-0.3-0.4-0.5-0.5c-0.2-0.2-0.3-0.4-0.4-0.7
				l0.4,0.2c-0.6,0.2-1.1,0.3-1.7,0.3c-0.4,0-0.7-0.1-1-0.4c-0.2-0.3-0.3-0.7-0.3-1.1c0-0.2,0.1-0.3,0.1-0.5c0,0,0-0.1,0.1-0.1
				c0-0.1,0.1-0.1,0.1-0.2c0.1-0.1,0.2-0.1,0.3-0.2c0.3-0.1,0.6-0.1,0.9-0.1C97.7,58.6,98.3,58.8,98.8,59z"/>
		</g>
	</g>
	
		<radialGradient id="SVGID_11_" cx="2735.6279" cy="998.6128" r="20.27" gradientTransform="matrix(3.67 0 0 -3.48 -9970.0703 3556.25)" gradientUnits="userSpaceOnUse">
		<stop  offset="0" style="stop-color:#FFFFFF"/>
		<stop  offset="0.43" style="stop-color:#D3F9FC"/>
	</radialGradient>
	<path class="st115" d="M152.5,79.6c0,39-33.3,70.6-74.5,70.6S3.6,118.6,3.6,79.6S36.9,9,78,9S152.5,40.6,152.5,79.6z"/>
	<path class="st116" d="M82.3,142.7c-41.1,0-74.4-31.6-74.4-70.6c0-10.1,2.3-20,6.6-29.1c-0.8,1.2-1.6,2.4-2.3,3.7
		C6,57.1,2.7,69,2.7,81.1c0,39,33.3,70.6,74.5,70.6c30.2,0,56.1-17,67.9-41.5C131.8,129.7,108.7,142.7,82.3,142.7z"/>
	<path class="st117" d="M23,54.2c3-10.9,11.9-21.4,30.2-28.1c2.1-0.8,3.1-3.1,2.3-5.2c-0.2-0.5-0.5-0.9-0.9-1.3l-0.3-0.4
		c-1-1-2.5-1.4-3.9-1c-6.9,2.1-24.7,12.2-30.6,35.1c-0.2,0.7,0.1,1.4,0.7,1.8l0,0c0.8,0.5,1.8,0.3,2.3-0.5
		C22.9,54.5,23,54.3,23,54.2z"/>
	<circle class="st117" cx="20.5" cy="60" r="2.5"/>
</g>
<g class="st118">
	<path d="M128.4,23.1c-30-27.9-77-26.3-105,3.8C10.7,40.5,3.6,58.4,3.5,77.1c0,2.3,0.1,4.5,0.3,6.8c0,0.2,0,0.5,0.1,0.7v0.1
		c1.3,18.8,10.4,36.3,25,48.2c28.5,29.5,75.5,30.2,105,1.7s30.2-75.5,1.7-105C133.3,27.2,130.9,25.1,128.4,23.1L128.4,23.1z"/>
</g>
</svg>
