<?xml version="1.0" encoding="utf-8"?>
<!-- Generator: Adobe Illustrator 25.2.3, SVG Export Plug-In . SVG Version: 6.00 Build 0)  -->
<svg version="1.1" id="Layer_1" xmlns="http://www.w3.org/2000/svg" xmlns:xlink="http://www.w3.org/1999/xlink" x="0px" y="0px"
	 viewBox="0 0 160 160" style="enable-background:new 0 0 160 160;" xml:space="preserve">
<style type="text/css">
	.st0{opacity:0.3;enable-background:new    ;}
	.st1{opacity:0.91;fill:url(#SVGID_1_);enable-background:new    ;}
	.st2{clip-path:url(#SVGID_3_);}
	.st3{clip-path:url(#SVGID_5_);}
	.st4{fill:#E5E5B1;}
	.st5{fill:#9B2A55;stroke:#323232;stroke-miterlimit:10;}
	.st6{fill:#707375;}
	.st7{fill:#858889;}
	.st8{fill:#4C4E51;}
	.st9{fill:#306068;}
	.st10{fill:#6BA3B2;}
	.st11{fill:#FFFFFF;stroke:#552168;stroke-miterlimit:10;}
	.st12{fill:#FFFFFF;}
	.st13{fill:#E5BBB1;stroke:#5E432E;stroke-miterlimit:10;}
	.st14{fill:#8BBFD1;}
	.st15{fill:#565A63;}
	.st16{fill:#44474F;}
	.st17{fill:#334872;}
	.st18{fill:#283A56;}
	.st19{fill:#686868;}
	.st20{fill:#23334C;}
	.st21{fill:#313338;}
	.st22{fill:#EA5B28;}
	.st23{fill:#F2961D;}
	.st24{fill:#EFD01B;}
	.st25{fill:#7C7C7C;}
	.st26{fill:#353535;}
	.st27{fill:#474747;}
	.st28{opacity:0.29;fill:#FFFFFF;enable-background:new    ;}
	.st29{fill:#EAC583;}
	.st30{fill:#ED7E5D;}
	.st31{fill:#EFE1A5;}
	.st32{opacity:0.6;fill:#FFFFFF;enable-background:new    ;}
	.st33{fill:#70B4F2;}
	.st34{fill:#C2E0F2;stroke:#453323;stroke-width:0.75;stroke-miterlimit:10;}
	.st35{fill:#EBF3F7;}
	.st36{fill:#99D3FF;}
	.st37{opacity:0.58;fill:#9DCFF4;enable-background:new    ;}
	.st38{fill:#9DCFF4;}
	.st39{fill:#DFECF4;}
	.st40{fill:#88B8D1;stroke:#453323;stroke-width:0.75;stroke-miterlimit:10;}
	.st41{fill:none;stroke:#453323;stroke-width:0.75;stroke-miterlimit:10;}
	.st42{fill:#72A2B7;}
	.st43{fill:#E6F5FF;}
	.st44{fill:#56A1D8;}
	.st45{opacity:0.38;fill:#EDF2F9;stroke:#5E432E;stroke-miterlimit:10;enable-background:new    ;}
	.st46{fill:#422B27;stroke:#453323;stroke-width:0.75;stroke-miterlimit:10;}
	.st47{fill:#704B48;stroke:#453323;stroke-width:0.75;stroke-miterlimit:10;}
	.st48{fill:#FBD3C7;stroke:#5E432E;stroke-miterlimit:10;}
	.st49{fill:#FFF7F5;stroke:#99755B;stroke-width:0.75;stroke-miterlimit:10;}
	.st50{fill:#CC8B81;}
	.st51{opacity:0.1;fill:url(#SVGID_6_);enable-background:new    ;}
	.st52{opacity:0.5;fill:#4ECECE;enable-background:new    ;}
	.st53{opacity:0.6;fill:#FDFFFF;enable-background:new    ;}
	.st54{opacity:0.6;}
</style>
<circle class="st0" cx="82.2" cy="81.8" r="74.3"/>
<g id="_01-4">
	
		<radialGradient id="SVGID_1_" cx="-17313.2695" cy="-3949.0901" r="584.26" gradientTransform="matrix(0.15 0 0 -0.15 2626.48 -507.32)" gradientUnits="userSpaceOnUse">
		<stop  offset="0" style="stop-color:#FFFFFF"/>
		<stop  offset="0.61" style="stop-color:#D3F9FC"/>
		<stop  offset="0.93" style="stop-color:#48E5FF"/>
	</radialGradient>
	<path class="st1" d="M152,77.6c0.2,41-32.9,74.4-73.9,74.5S3.7,119.2,3.5,78.2S36.5,3.9,77.5,3.7c0.1,0,0.2,0,0.3,0
		C118.7,3.6,151.9,36.7,152,77.6C152,77.6,152,77.6,152,77.6z"/>
	<g>
		<defs>
			<ellipse id="SVGID_2_" cx="77.9" cy="76.8" rx="74.1" ry="73.8"/>
		</defs>
		<clipPath id="SVGID_3_">
			<use xlink:href="#SVGID_2_"  style="overflow:visible;"/>
		</clipPath>
		<g class="st2">
			<g>
				<defs>
					<rect id="SVGID_4_" x="-21.8" y="2.7" width="199" height="156.4"/>
				</defs>
				<clipPath id="SVGID_5_">
					<use xlink:href="#SVGID_4_"  style="overflow:visible;"/>
				</clipPath>
				<g class="st3">
					<rect x="-23.9" y="3.4" class="st4" width="202.6" height="162.7"/>
					<polygon class="st5" points="105.4,-7.8 101.1,28.9 109.2,129.7 -12.2,160 -24.5,132.3 -9.4,73.7 3.5,23.6 -2.5,-17.3 					"/>
					<path class="st6" d="M179,118.3v41.5c0,0,0,0.1-0.1,0.1c0,0,0,0,0,0H-10.6c-0.1,0-0.1-0.2,0-0.2l0,0l0,0L1.5,146l14.4-16.3
						L26,118.2c0,0,0,0,0,0L179,118.3C179,118.2,179,118.2,179,118.3z"/>
					<polygon class="st7" points="179,118.2 179,129.7 15.9,129.7 26,118.2 26,118.2 					"/>
					<polygon class="st8" points="179,146 179,159.9 -11.7,159.9 -10.6,159.7 1.5,146 					"/>
					<ellipse class="st9" cx="70.7" cy="133.7" rx="40.1" ry="9.8"/>
					<ellipse class="st10" cx="71.6" cy="130.5" rx="36.2" ry="8.8"/>
					<path class="st11" d="M1.7,20.6c0,0,26.3,8.4,50.4,8.7c0,0,43,1.6,48.5-6.4c0,0,3.3,3,0.1,9.1c0,0-24.2,7.3-48,2.8
						c0,0-33.4,1.6-51.1-7.7C1.7,27-4.4,24.1,1.7,20.6z"/>
					<path class="st12" d="M57.6,31.8c0,0-12.8,0.7-8.6,18.8s12.8-15.6,12.8-15.6l-3.4,0.3c0,0-3.9,14.6-6.8,17S37.9,32.8,57.6,31.8
						z"/>
					<path class="st12" d="M58.8,28.9c0,0,24.1,8.7,19.2,19.9s-12.5,3-19.9-16.5c0,0,13.2,23.8,16,17.1S72.3,38.5,58.8,28.9z"/>
					<path class="st12" d="M46,22.6c0.5,0.1,0.4-0.6,0.2-1.1c-0.1-0.8,0.3-1.6,1.1-1.9c0.8-0.2,1.6-0.2,2.4,0c3.3,0.9,6,3.3,7.3,6.5
						c0.9-1.9,1.9-3.7,3.2-5.3c1.3-1.6,3.2-2.7,5.3-3c0.3-0.1,0.7,0,1,0.2c0.3,0.3,0.6,0.7,0.7,1.1c0.5,1.6,1,3.3,0.3,4.8
						c-0.5,0.9-1.2,1.6-2,2.2l-5.3,4.4c1.6-0.9,3.4-1.4,5.2-1.6c1.1,1.2,0.3,3.4-1.2,4.2c-3.1,1.6-7.3,0.3-9.6-1.8
						S49.1,23.6,46,22.6z"/>
					<path class="st13" d="M11.6,33.2c0,0,6,11.5,4.2,18s-6.2-4.8-5.5-13S11.6,33.2,11.6,33.2z"/>
					<ellipse class="st14" cx="69.5" cy="128.6" rx="27.3" ry="8.1"/>
					<rect x="47.8" y="124.3" class="st15" width="44.5" height="4.8"/>
					<path class="st15" d="M92.3,129.2c0,2.7-8.1,5.3-22.4,5.3c-12.3,0-22.1-2.6-22.1-5.3s10-4.8,22.3-4.8S92.3,126.5,92.3,129.2z"
						/>
					<path class="st16" d="M93.3,124.3c0,2.7-10.3,6-23.3,6s-23.7-3.3-23.7-6s10.5-4.8,23.5-4.8S93.3,121.7,93.3,124.3z"/>
					<path class="st17" d="M16.2,88.3c-6.8-2.7-13.8-5.4-21.2-6c-2.2-0.2-4.8,0-6.1,1.6c-1.5,1.7-0.5,4.6,1.7,5.6
						c1.6,0.8,3.4,0.7,5.2,0.8c2,0.2,3.9,0.5,5.9,1c9.5,2.2,18.9,4.7,28.3,7.4c1.2,0.4,2.8,0.7,3.6-0.2c2.4-2.7-3.6-4.9-5.3-5.5
						L16.2,88.3z"/>
					<path class="st18" d="M25,96.6c-10.4-5.4-22.3-7.1-33.8-9.4c-0.9-0.1-1.8-0.5-2.5-1.1c-0.1-0.2-0.3-0.3-0.4-0.5
						c-0.1,1.7,0.8,3.3,2.4,4c1.6,0.8,3.4,0.7,5.2,0.8c2,0.2,3.9,0.5,5.9,1c7.6,1.8,15.1,3.7,22.6,5.8C24.5,97,24.7,96.8,25,96.6z"
						/>
					<path class="st19" d="M22.8,98.4c-0.3-0.2-0.6-0.4-0.8-0.7c-0.2-0.3-0.3-0.7-0.4-1.1c0.1-1.9,1.4-3.6,3.3-4
						c1.9-0.4,3.8-0.2,5.5,0.6c1.7,0.6,3.4,1.4,4.9,2.3c1.5,0.9,2.9,2.4,2.6,4.1c-0.3,1.5-1.8,2.3-3.2,2.8
						C30.1,104,26.5,100.9,22.8,98.4z"/>
					<path class="st17" d="M113.5,107.2c-0.2,5.4-3.4,10.3-8.3,12.7c-6.3,2.9-17.3,5.7-36.3,5.7s-29.8-2.7-35.8-5.5
						c-4.6-2.3-7.7-6.7-8.1-11.8l-0.8-6.6l89.7-0.9L113.5,107.2z"/>
					<path class="st20" d="M113.5,104.3c-0.2,5.4-3.4,10.3-8.3,12.7c-6.3,2.9-17.3,7.1-36.4,7.1s-29.7-4.1-35.8-6.9
						c-4.6-2.3-7.7-6.7-8.1-11.8l-0.4-3.7h-0.3l0.8,6.6c0.5,5.1,3.6,9.6,8.1,11.8c6,2.8,16.8,6.8,35.8,6.8s30.1-4.2,36.4-7.1
						c4.9-2.4,8-7.3,8.3-12.7l0.4-6.3h-0.2L113.5,104.3z"/>
					<path class="st21" d="M49.1,127.8c0,0.8-0.2,1.4-0.5,1.4s-0.5-0.6-0.5-1.4s0.2-1.4,0.5-1.4S49.1,127,49.1,127.8z"/>
					<path class="st21" d="M53.1,129.4c0,0.8-0.2,1.4-0.5,1.4s-0.5-0.6-0.5-1.4s0.2-1.4,0.5-1.4S53.1,128.6,53.1,129.4z"/>
					<path class="st21" d="M58,130.5c0,0.8-0.2,1.4-0.5,1.4s-0.5-0.6-0.5-1.4s0.2-1.4,0.5-1.4S58,129.7,58,130.5z"/>
					<path class="st21" d="M62.9,131.1c0,0.8-0.2,1.4-0.5,1.4s-0.5-0.6-0.5-1.4s0.2-1.4,0.5-1.4S62.9,130.3,62.9,131.1z"/>
					<path class="st21" d="M67.4,131.9c0,0.8-0.2,1.4-0.5,1.4s-0.5-0.6-0.5-1.4s0.2-1.4,0.5-1.4S67.4,131.1,67.4,131.9z"/>
					<path class="st21" d="M71.3,131.8c0,0.8-0.2,1.4-0.5,1.4s-0.5-0.6-0.5-1.4s0.2-1.4,0.5-1.4S71.3,131,71.3,131.8z"/>
					<path class="st21" d="M75.4,131.4c0,0.8-0.2,1.4-0.5,1.4s-0.5-0.6-0.5-1.4s0.2-1.4,0.5-1.4S75.4,130.6,75.4,131.4z"/>
					<path class="st21" d="M79.8,130.9c0,0.8-0.2,1.4-0.5,1.4s-0.5-0.6-0.5-1.4s0.2-1.4,0.5-1.4S79.8,130.1,79.8,130.9z"/>
					<path class="st21" d="M84.3,130.5c0,0.8-0.2,1.4-0.5,1.4s-0.5-0.6-0.5-1.4s0.2-1.4,0.5-1.4S84.3,129.7,84.3,130.5z"/>
					<path class="st21" d="M88.1,129.2c0,0.8-0.2,1.4-0.5,1.4s-0.5-0.6-0.5-1.4s0.2-1.4,0.5-1.4S88.1,128.5,88.1,129.2z"/>
					<path class="st21" d="M92.2,128.1c0,0.8-0.2,1.4-0.5,1.4s-0.5-0.6-0.5-1.4s0.2-1.4,0.5-1.4S92.2,127.3,92.2,128.1z"/>
					<path class="st22" d="M43.6,125.9c-0.5-0.9-0.8-2-1-3c0.3,0.3,0.6,0.5,1,0.5c1.6,0.2,3.1,0.9,4.4,2c0.4,0.4,0.7,0.9,0.8,1.4
						c0.3,0.8-0.2,1.6-0.9,1.9c-0.3,0.1-0.7,0.1-1,0C45.5,128.1,44.3,127.2,43.6,125.9z"/>
					<path class="st23" d="M45.2,126.6l-0.8-1.6c0.4,0.2,0.8,0.3,1.3,0.4c0.8,0.2,1.5,0.5,2.1,1c0.3,0.2,0.5,0.5,0.6,0.8
						c0.2,0.5,0,1.1-0.5,1.3c-0.2,0.1-0.3,0.1-0.5,0.1C46.4,128.3,45.5,127.6,45.2,126.6z"/>
					<path class="st24" d="M45.7,126.3c0.5,0.4,3.5,0.9,2.7,2.2C47.5,129.6,46.1,126.6,45.7,126.3z"/>
					<path class="st22" d="M68.9,127.6c0.3-0.8,0.7-1.6,1.3-2.2c0,0.3,0.2,0.6,0.5,0.9c1.1,1.2,2.1,2.5,2.2,3.8
						c0.1,0.4-0.1,0.9-0.3,1.2c-0.8,0.8-2,0.8-2.7,0c-0.1-0.1-0.2-0.2-0.3-0.3C68.8,130,68.6,128.7,68.9,127.6z"/>
					<path class="st23" d="M69.7,128.9c0.2-0.4,0.3-0.9,0.5-1.3c0.2,0.4,0.5,0.7,0.8,1c0.5,0.5,0.8,1.2,1,1.9c0.1,0.3,0.1,0.5,0,0.8
						c-0.3,0.7-1.3,0.6-1.9,0C69.5,130.7,69.3,129.7,69.7,128.9z"/>
					<path class="st24" d="M70.3,129.1c0.1,0.5,2.2,2.7,0.7,2.8C69.3,132,70.4,129.5,70.3,129.1z"/>
					<path class="st22" d="M63.1,128.1c-0.4-1-0.6-2-0.6-3.1c0.2,0.3,0.5,0.5,0.9,0.6c1.6,0.4,3,1.3,4.1,2.5
						c0.3,0.4,0.6,0.9,0.6,1.5c0.2,0.8-0.4,1.6-1.2,1.7c-0.3,0.1-0.7,0-1-0.2C64.6,130.6,63.6,129.5,63.1,128.1z"/>
					<path class="st23" d="M64.6,129.1c-0.2-0.6-0.4-1.1-0.6-1.7c0.4,0.3,0.8,0.4,1.2,0.6c0.8,0.3,1.4,0.7,2,1.3
						c0.2,0.2,0.4,0.5,0.5,0.8c0.2,0.5-0.2,1.1-0.7,1.2c-0.2,0.1-0.4,0.1-0.5,0C65.5,130.9,64.8,130.1,64.6,129.1z"/>
					<path class="st24" d="M65.1,128.8c0.4,0.5,3.3,1.4,2.4,2.5S65.5,129.2,65.1,128.8z"/>
					<path class="st22" d="M58.8,127.8c-0.4-1-0.7-2-0.9-3c0.2,0.3,0.5,0.5,0.9,0.6c1.5,0.4,2.9,1.2,4,2.3c0.4,0.4,0.6,0.9,0.7,1.4
						c0.3,1.3-0.7,2.1-1.8,1.6C60.4,130.2,59.3,129.1,58.8,127.8z"/>
					<path class="st23" d="M60.2,128.7l-0.7-1.6c0.4,0.2,0.8,0.4,1.2,0.5c0.7,0.3,1.4,0.7,1.9,1.2c0.2,0.2,0.4,0.5,0.6,0.8
						c0.3,0.8-0.3,1.5-1,1.3C61.2,130.5,60.5,129.7,60.2,128.7z"/>
					<path class="st24" d="M60.6,128.4c0.5,0.5,3.2,1.3,2.4,2.4S61,128.8,60.6,128.4z"/>
					<path class="st22" d="M53.9,127.3c-0.3-1-0.4-2.1-0.5-3.1c0.2,0.3,0.5,0.6,0.8,0.7c1.5,0.6,2.7,1.6,3.6,2.8
						c0.3,0.5,0.5,1,0.5,1.5c0.1,1.3-1,2-2,1.4C55.2,129.8,54.3,128.6,53.9,127.3z"/>
					<path class="st23" d="M55.3,128.3l-0.5-1.7c0.3,0.3,0.7,0.5,1.1,0.7c0.7,0.4,1.3,0.9,1.8,1.5c0.2,0.3,0.4,0.5,0.5,0.9
						c0.2,0.9-0.5,1.4-1.2,1.1C56,130.2,55.4,129.3,55.3,128.3z"/>
					<path class="st24" d="M55.7,128.1c0.4,0.5,3,1.7,2.1,2.7S56,128.5,55.7,128.1z"/>
					<path class="st22" d="M48.7,126.3c-0.4-1-0.7-2-0.9-3c0.2,0.3,0.5,0.5,0.9,0.5c1.5,0.4,2.9,1.2,4,2.3c0.4,0.4,0.6,0.9,0.7,1.4
						c0.3,1.3-0.7,2.1-1.8,1.6C50.3,128.6,49.3,127.6,48.7,126.3z"/>
					<path class="st23" d="M50.1,127.1l-0.7-1.6c0.4,0.2,0.8,0.4,1.2,0.5c0.7,0.3,1.4,0.7,1.9,1.2c0.2,0.2,0.4,0.5,0.6,0.8
						c0.3,0.8-0.2,1.5-1,1.3C51.1,128.9,50.4,128.1,50.1,127.1z"/>
					<path class="st24" d="M50.6,126.8c0.4,0.4,3.2,1.2,2.4,2.3S50.9,127.2,50.6,126.8z"/>
					<path class="st22" d="M96.7,125.8c0.6-0.9,1-1.8,1.3-2.8c-0.3,0.2-0.6,0.4-1,0.4c-1.6,0-3.2,0.6-4.5,1.5
						c-0.4,0.3-0.8,0.8-0.9,1.3c-0.3,0.8,0,1.6,0.8,1.9c0.3,0.1,0.6,0.2,1,0.1C94.7,127.9,95.9,127,96.7,125.8z"/>
					<path class="st23" d="M95,126.4c0.3-0.5,0.6-1,1-1.5c-0.4,0.2-0.9,0.3-1.3,0.3c-0.8,0.1-1.5,0.4-2.2,0.8
						c-0.3,0.2-0.5,0.4-0.7,0.7c-0.3,0.5-0.1,1.1,0.4,1.4c0.2,0.1,0.3,0.1,0.5,0.1C93.7,128,94.6,127.3,95,126.4z"/>
					<path class="st24" d="M94.6,126c-0.5,0.4-3.6,0.6-2.8,1.9C92.5,129.3,94.2,126.3,94.6,126z"/>
					<path class="st22" d="M83.1,127.8c0.5-1,0.8-2,1-3c-0.2,0.3-0.6,0.5-0.9,0.5c-1.5,0.3-2.9,1.1-4,2.2c-0.4,0.4-0.6,0.9-0.8,1.4
						c-0.3,1.3,0.7,2.2,1.8,1.7C81.5,130,82.5,129,83.1,127.8z"/>
					<path class="st23" d="M81.7,128.6c0.3-0.5,0.5-1.1,0.8-1.6c-0.4,0.2-0.8,0.4-1.2,0.5c-0.7,0.2-1.4,0.6-2,1.2
						c-0.2,0.2-0.4,0.5-0.6,0.8c-0.3,0.8,0.2,1.5,1,1.3C80.6,130.4,81.4,129.6,81.7,128.6z"/>
					<path class="st24" d="M81.2,128.3c-0.4,0.4-3.2,1.2-2.5,2.3S80.9,128.7,81.2,128.3z"/>
					<path class="st22" d="M87.4,127.2c0.3-1,0.5-2,0.6-3.1c-0.2,0.3-0.5,0.5-0.8,0.6c-1.5,0.5-2.8,1.4-3.8,2.7
						c-0.3,0.4-0.5,1-0.6,1.5c-0.1,1.3,0.9,2.1,2,1.4C86.1,129.7,87,128.5,87.4,127.2z"/>
					<path class="st23" d="M86.1,128.2c0.2-0.6,0.4-1.1,0.6-1.7c-0.3,0.3-0.7,0.5-1.1,0.6c-0.7,0.3-1.3,0.8-1.8,1.4
						c-0.2,0.2-0.4,0.5-0.5,0.8c-0.3,0.9,0.4,1.4,1.1,1.1C85.2,130.1,85.9,129.2,86.1,128.2z"/>
					<path class="st24" d="M85.6,127.9c-0.4,0.5-3.1,1.6-2.2,2.6S85.3,128.4,85.6,127.9z"/>
					<path class="st22" d="M91.7,126.4c0.5-0.9,0.9-1.9,1.1-2.9c-0.2,0.3-0.6,0.4-0.9,0.5c-1.6,0.2-3,0.9-4.2,2
						c-0.4,0.4-0.7,0.8-0.8,1.4c-0.3,1.2,0.5,2.2,1.7,1.8C89.9,128.6,91,127.7,91.7,126.4z"/>
					<path class="st23" d="M90.2,127.2l0.8-1.6c-0.4,0.2-0.8,0.3-1.2,0.4c-0.7,0.2-1.4,0.6-2,1.1c-0.3,0.2-0.5,0.5-0.6,0.7
						c-0.4,0.8,0.1,1.5,0.9,1.3C89.1,128.9,89.9,128.2,90.2,127.2z"/>
					<path class="st24" d="M89.8,126.9c-0.5,0.4-3.3,1-2.6,2.2C87.9,130.2,89.4,127.2,89.8,126.9z"/>
					<path class="st22" d="M78.8,127.8c0.4-1,0.6-2,0.6-3.1c-0.2,0.3-0.5,0.5-0.9,0.6c-1.6,0.4-3,1.3-4.1,2.5
						c-0.3,0.4-0.6,0.9-0.6,1.5c-0.2,0.8,0.3,1.6,1.1,1.7c0.4,0.1,0.7,0,1.1-0.2C77.3,130.3,78.3,129.2,78.8,127.8z"/>
					<path class="st23" d="M77.3,128.8c0.2-0.6,0.4-1.1,0.6-1.7c-0.4,0.2-0.8,0.4-1.2,0.6c-0.8,0.3-1.4,0.7-2,1.3
						c-0.2,0.2-0.4,0.5-0.5,0.8c-0.1,0.5,0.2,1.1,0.7,1.2c0.2,0.1,0.4,0,0.6,0C76.4,130.6,77.1,129.8,77.3,128.8z"/>
					<path class="st24" d="M76.8,128.5c-0.4,0.5-3.3,1.4-2.3,2.5S76.4,128.9,76.8,128.5z"/>
					<path class="st25" d="M113.9,100.9c0,6.1-16.3,11.9-45,11.9c-25.2,0-44.7-5-44.7-11S43.8,90.7,69,90.7S113.9,94.8,113.9,100.9z
						"/>
					<ellipse class="st26" cx="69" cy="101.5" rx="43" ry="10.1"/>
					<path class="st27" d="M69.8,100c-17.6,0-32.7,2.5-39.3,6c7.1,3.3,21.6,5.6,38.4,5.6c17.6,0,32.7-2.5,39.3-6
						C101.2,102.3,86.7,100,69.8,100z"/>
					<path class="st28" d="M43.3,90.8c1.4-4,4.1-7.8,3.8-12.1c-0.2-2.7-1.7-5.2-2-7.9c-0.2-2.5,0.5-4.9,2.2-6.8
						c-1.3,1.8-1,4.3-0.1,6.3s2.3,3.8,3,5.9c1.2,3.3,0.8,6.9-1.1,9.8c-1,1.4-2.2,2.6-3.1,4c-2,3.3-0.7,5.8-0.2,9.1
						C42,98.8,42.5,93.1,43.3,90.8z"/>
					<path class="st28" d="M60,92.2c-0.2-1.8-0.1-3.6,0.3-5.4c0.4-2.2,1-4.3,1.7-6.4c0.6-1.5,0.9-3.1,1-4.7c0-2.4-1.4-4.4-2.2-6.7
						c-1.4-4-0.8-8.4,1.4-11.9c-1.2,2.3-1.5,5-0.8,7.5c0.8,2,1.8,4,3,5.8c1.4,2.3,2.1,5,2,7.7c-0.3,2.2-1.1,4.3-2.2,6.2
						c-1.1,1.9-1.9,4-2.3,6.2c-0.3,2.2,0.5,4.4,2.2,5.9C61.9,96.6,60.4,94.2,60,92.2z"/>
					<path class="st28" d="M76.8,90c-0.3-2.5-1.3-4.8-1.8-7.2s-0.3-5.3,1.5-7c-1.1,1.6-0.8,3.7,0,5.5s1.9,3.3,2.5,5.2
						c0.7,2.4,0.5,4.9-0.6,7.1c-1.1,2.2-2.9,3.9-5.1,4.9C75.6,96,77.3,93.5,76.8,90z"/>
					<path class="st28" d="M93.3,89.2c0.6-1.6,1.4-3,2.3-4.4c0.9-1.4,1.3-3.1,1.2-4.8c0.7,1.6,0.7,3.4,0.1,5
						c-0.4,0.9-0.8,1.8-1.3,2.6c-1.7,3.8-1.5,8.2,0.5,11.8C92.6,98.1,92.3,92.2,93.3,89.2z"/>
					<ellipse class="st29" cx="69" cy="105.6" rx="39.6" ry="6"/>
					<path class="st30" d="M43.6,106.3c0,0.4,0.2,0.7,0.5,0.9c0.6,0.3,1.3,0.5,2,0.5c1.2,0.1,2.5,0.1,3.7-0.1c1.1-0.1,2.2-0.4,3.2-1
						c-1.3-0.1-2.7-0.3-4-0.5c-0.8-0.2-1.6-0.4-1.8-0.9s0.3-0.8-0.4-0.9c-0.5,0.1-1,0.2-1.4,0.4C44.1,104.9,43.6,105.5,43.6,106.3z"
						/>
					<path class="st30" d="M76,102.7c0.1-0.3-0.1-0.7-0.3-0.9c-0.6-0.3-1.2-0.5-1.9-0.6c-1.2-0.2-2.4-0.2-3.7-0.2
						c-1.2,0-2.3,0.3-3.4,0.8c1.3,0.2,2.6,0.4,3.9,0.8c0.7,0.2,1.6,0.5,1.6,1s-0.4,0.8,0.2,1c0.5,0,1-0.1,1.5-0.3
						C75.3,104,75.9,103.5,76,102.7z"/>
					<path class="st30" d="M89.2,107.3c0.1,0.2,0.2,0.3,0.6,0.4c0.7,0.1,1.3,0.1,2,0c1.2-0.1,2.4-0.2,3.6-0.5c1-0.2,2-0.4,3-0.9
						c-1.3,0.1-2.7,0.2-4,0.2c-0.6,0.1-1.3,0-1.9-0.2c-0.2-0.2,0.2-0.4-0.5-0.4c-0.5,0.1-0.9,0.2-1.3,0.3
						C89.5,106.5,89.1,106.9,89.2,107.3z"/>
					<path class="st31" d="M51.5,101.7c2.6-1,5.5-1.2,8.2-0.5c1,0.3,1.8,0.8,1.8,1.4s-0.6,1-1.4,1.3c-0.8,0.2-1.7,0.4-2.6,0.4
						c-2,0.1-5.3,0.4-7.2-0.2S50.2,102.2,51.5,101.7z"/>
					<path class="st31" d="M82.4,106.5c0.6,0,1.1,0.2,1.6,0.4c0.5,0.2,0.8,0.6,0.6,0.9c-1.1,0.3-2.2,0.4-3.3,0.3
						c-1.1,0-2.2,0.3-3.3,0.3c-2.2,0.2-4.3,0.1-6.4-0.4c0.3-0.9,3.3-1.4,4.7-1.6C78.3,106.2,80.3,106.2,82.4,106.5z"/>
					<path class="st31" d="M91.7,100.4c0.4,0.1,0.8,0.2,1.2,0.5c0.3,0.2,0.4,0.6,0,0.8c-0.2,0.1-0.4,0.1-0.7,0.1
						c-1.8,0.1-13.7-0.1-12.8-2.1c0.4-0.9,3.1-0.5,4.2-0.4C86.4,99.3,89,99.7,91.7,100.4z"/>
					<path class="st31" d="M62.5,107.8c0.5,0.1,1.1,0.3,0.9,0.6s-0.4,0.3-0.7,0.3c-0.9,0.2-6.5,1.3-6.3-0.2
						C56.6,107.3,61.4,107.5,62.5,107.8z"/>
					<path class="st31" d="M32.8,104.3c0.3-0.7,1.5-1,2.6-1.1c0.8-0.1,1.7-0.2,2.5-0.2c1-0.1,1.9,0.1,2.8,0.4c0.7,0.3,1.2,0.8,1,1.3
						c-0.3,0.3-0.6,0.5-1,0.6C38.9,105.8,31.7,106.7,32.8,104.3z"/>
					<path class="st31" d="M88,104.2c1.4-0.5,3-0.6,4.5-0.3c1.5,0.2,3,0.4,4.5,0.4c1.2-0.2,2.4-0.1,3.6,0.1c0.1,0,0.2,0.1,0.3,0.2
						c0.1,0.1-0.1,0.3-0.3,0.3c-0.2,0-0.5,0-0.7,0c-2-0.1-4-0.3-6-0.4c-0.9-0.1-1.9,0-2.8,0.1c-0.6,0.1-1.1,0.3-1.7,0.4
						c-0.7,0.1-1.4,0.2-2.1,0.3c-1.7,0.1-3.5,0.1-5.2,0c-1.5-0.2-3-0.2-4.5,0c-0.2,0-0.6,0-0.6-0.1c0,0,0-0.1,0.1-0.1
						c1.3-0.9,4.2-0.6,5.9-0.4c0.8,0.2,1.7,0.2,2.5,0.2C86.3,104.9,87.2,104.6,88,104.2z"/>
					<path class="st31" d="M59.1,105.8c0.3,0.2,0.7,0.3,1.1,0.3c0.9,0,1.7,0,2.6,0c1.3,0,2.6,0.3,3.9,0.9c0.1,0,0.3,0.1,0.4,0.3
						c0.1,0.2-0.1,0.4-0.4,0.5c-0.6,0.3-1.5,0.6-1.6,1.1c0,0.1,0,0.2,0.1,0.3c0.1,0,0.2,0.1,0.3,0.1c1.9,0.2,3.9,0,5.7,0.4
						c0.4,0,0.7,0.2,0.9,0.4c0.1,0.1,0.1,0.2,0.2,0.3c0.2,0.1,0.4,0.1,0.6,0.1c0.8,0,1.5,0,2.3-0.2c0.3-0.1,0.6-0.2,0.4-0.4
						c-0.1,0-0.1-0.1-0.2-0.1c-0.7,0-1.3,0-2-0.1c-0.2-0.1-0.3-0.2-0.5-0.3c-1-0.5-2.4-0.4-3.7-0.4c-0.4,0-0.9-0.1-1.3-0.3
						c-0.3-0.3,0.1-0.6,0.4-0.9s0.8-0.5,0.7-0.9s-0.8-0.6-1.4-0.7c-1.7-0.3-3.5-0.6-5.3-0.8c-0.2,0-0.3,0-0.5-0.1
						c-0.2-0.2,0.1-0.4,0.5-0.5c1-0.2,1.9-0.3,2.9-0.3c0.2,0,0.5-0.1,0.6-0.2s-0.2-0.3-0.4-0.3c-0.7-0.1-1.4-0.1-2,0.1l-3.2,0.7
						C59.7,104.7,58.6,105.4,59.1,105.8z"/>
					<path class="st31" d="M39.3,106.9c0.8-0.2,1.6-0.5,2.3-0.9c0.4,0.2,0.6,0.5,0.4,0.8c-0.2,0.3-0.5,0.5-0.9,0.7
						c-0.8,0.3-1.6,0.4-2.5,0.3c-0.8,0-1.6-0.2-2.4-0.4c-0.1,0-0.1,0-0.2-0.1c-0.5-0.4,1-0.2,1.2-0.2
						C37.9,107.1,38.6,107.1,39.3,106.9z"/>
					<path class="st31" d="M49.4,108.7c0,0.1,0.1,0.1,0.2,0.2c0.5,0.2,1.1,0.3,1.6,0.2c0.6,0,1.3,0.1,1.4,0.4c0,0.1,0.1,0.2,0.2,0.3
						c0.1,0.1,0.2,0.1,0.3,0.1c0.7,0.1,1.4,0.1,2.2,0c0.2,0,0.4-0.1,0.7-0.1c0.2-0.1,0.3-0.3,0.2-0.4c-0.1-0.1-0.1-0.1-0.2-0.1
						c-0.4-0.2-0.8-0.2-1.2-0.3c-0.3,0-0.7,0-1-0.1c-0.3-0.1-0.6-0.3-0.5-0.4c0.1-0.1,0.2-0.2,0.3-0.2l0.5-0.3
						c0.7-0.3-1.9-0.2-2.3-0.2C51.2,107.9,49.3,108.2,49.4,108.7z"/>
					<path class="st32" d="M51.3,102.8c-0.1,0.1-0.2,0.2-0.1,0.4s0.5,0.4,1,0.4c0.2,0,0.4,0,0.6,0c0.3-0.1,0.4-0.4,0.6-0.6
						c0.5-0.4,1.1-0.6,1.8-0.7c0.3,0,0.6-0.1,0.9-0.3c0.7-0.7-1.5-0.8-2.1-0.6C53,101.6,52.1,102.1,51.3,102.8z"/>
					<path class="st32" d="M83.4,99.2c-0.3,0-0.5,0.1-0.6,0.2s0.3,0.4,0.7,0.4c0.3,0,0.7,0,1-0.1c1.3-0.2,2.9,0.3,4.3,0.2
						c0.1,0,0.2,0,0.2-0.1s-0.1-0.1-0.2-0.1C87,99.3,85.2,99.1,83.4,99.2z"/>
					<path class="st32" d="M35.1,103.7c-0.3,0.1-0.7,0.3-0.9,0.5c-0.3,0.2-0.3,0.5-0.1,0.8c0,0,0,0,0,0c0.3,0.3,0.7,0.4,1.1,0.3
						c0.1,0,0.2-0.1,0.3-0.2c0.1-0.1,0.1-0.2,0.1-0.4c0.1-0.4,0.4-0.6,0.8-0.8c0.5-0.2,1-0.2,1.5-0.2c0.2-0.1,0.1-0.3-0.1-0.3
						c-0.2-0.1-0.4-0.1-0.6-0.1C36.4,103.3,35.7,103.4,35.1,103.7z"/>
					<path class="st32" d="M57.8,108.2c-0.2,0.1-0.4,0.3-0.3,0.4c0.2,0.1,0.4,0.2,0.7,0.1c0.2-0.1,0.4-0.2,0.6-0.3
						c0.5-0.2,1.3-0.1,1.8-0.3c0.1,0,0.3-0.1,0.2-0.2s-1.2-0.1-1.5-0.1C58.8,107.9,58.3,108,57.8,108.2z"/>
					<path class="st32" d="M74.4,107.3c-0.2,0.1-0.3,0.1-0.3,0.3s0.4,0.2,0.7,0.2c1-0.1,2-0.4,3-0.5s2.1,0.1,3.1,0
						c0.2,0,0.3-0.1,0.3-0.2s-0.2-0.1-0.3-0.2C78.8,106.5,76.6,106.7,74.4,107.3z"/>
					<path class="st33" d="M80.4,102c0,0-4.8-6.7-5.7-3.7s5.6,4.4,5.6,4.4L80.4,102z"/>
					<path class="st33" d="M90.3,103.2c0,0,8.4-1.4,4.8-2.7s-5.2,2.6-5.2,2.6"/>
					<path class="st33" d="M84.1,103.9c0,0,0.8-1-4.6,0.2s-3.6-2.2-9.5-1.4s-4.9,4.1,3,4.5s7.8,2,7.8,2s-2.6-4.1,6.2-2.8
						s0.5-1.7,0.5-1.7S89.8,99.7,84.1,103.9z"/>
					<path class="st34" d="M152.6,57.7c0,0.6-0.1,1.1-0.1,1.6c-0.8,5.6-3.9,9.6-5.7,10.6s-19.7,0.4-27.2-1.4l-0.3-0.1
						c-1.2-0.3-2.3-0.6-3.3-1c-2.2-0.8-4.3-1.7-6.4-2.8c-1.3-0.6-2.4-1.2-3.6-1.7c-0.9-0.4-1.8-0.7-2.7-0.9
						c-4.9-1.4-14.2,0.4-14.2,0.4s-1.6,0.7-3.3-3.9c-0.3-0.9-0.6-1.8-0.8-2.7c-1.9-7.5,2.5-13.8,5.5-12c2.1,1.2,10.9,3.4,12.1,1
						c0.9-1.6,2.5-1.7,3.9-2.5c2.6-1.5,5.7-1.8,8.4-0.6c0,0,6.9,1,14.6,1.4c6,0.3,12.6,1.6,15,1.9C150,45.6,152.9,51.3,152.6,57.7z"
						/>
					<path class="st35" d="M92.4,48.1c2.5,0.6,5.1,0.8,7.6,0.6l0.1,2.2c0,0-5.1,0.8-7.5-0.9L92.4,48.1z"/>
					<path class="st36" d="M152.5,59.3c-0.1,0.5-0.2,1-0.3,1.4c-0.5,2.5-1.6,4.9-3.2,7c-0.6,0.8-1.4,1.6-2.3,2.1
						c-2,1-19.7,0.4-27.2-1.4l-0.3-0.1c-1.2-0.3-2.3-0.6-3.3-1c-2.2-0.8-4.3-1.7-6.4-2.8c-1.3-0.6-2.4-1.2-3.6-1.7
						c-0.9-0.4-1.8-0.7-2.7-0.9c-4.9-1.4-14.2,0.4-14.2,0.4s-0.5,0.2-1.3-0.4c-1-1-1.6-2.2-2-3.5c0.3-0.4,0.7-0.8,1.1-1.1
						c0.9-0.6,1.9-1,3-1.1l18.5,0.9L152.5,59.3z"/>
					<path class="st37" d="M149,67.8c-0.6,0.8-1.4,1.6-2.3,2.1c-2,1-19.7,0.4-27.2-1.4l-0.3-0.1c-1.2-0.3-2.3-0.6-3.3-1
						c-2.2-0.8-4.3-1.7-6.4-2.8c-1.3-0.6-2.4-1.2-3.6-1.7c-0.9-0.4-1.8-0.7-2.7-0.9c-4.9-1.4-14.2,0.4-14.2,0.4s-0.5,0.2-1.3-0.4
						c1.5-0.4,13-3.5,20.1,0c4.8,2.3,9.8,4.1,14.9,5.4C137.6,69.9,146.6,68.3,149,67.8z"/>
					<path class="st38" d="M152.5,59.3c-0.1,0.5-0.2,1-0.3,1.4l-1.8-0.1c0,0-32.8-2-52.4-2.7c-3.7,0-7.3-0.3-11-0.7
						c0.9-0.6,1.9-1,3-1.1l18.5,0.9L152.5,59.3z"/>
					<path class="st39" d="M152.5,59.3c0,0.5-0.1,1-0.1,1.5v0.2h-0.2c-2.7,0.1-5.5,0-8.2,0l-8.2-0.1l-16.3-0.4
						c-5.4-0.1-10.9-0.3-16.3-0.5l-8.2-0.3c-1.4,0-2.7-0.1-4.1-0.2c-1.4-0.1-2.8-0.2-4.2-0.4l-4.4-0.7l3.7-2.6
						c0.6-0.4,1.2-0.7,1.8-0.9c0.3-0.1,0.7-0.2,1-0.3c0.4-0.1,0.7-0.1,1.1-0.2h0.2c5.2,0.3,10.4,0.5,15.6,0.8l7.9,0.5
						c2.7,0.2,5.3,0.4,8,0.7l15.7,1.4L152.5,59.3z M152.4,59.4l-31.2-1.5l-15.6-0.8L90,56.4l0,0c-1,0.1-2,0.5-2.9,1.1L87,57.1
						c2.7,0.4,5.4,0.5,8.1,0.6l8.2,0.3c5.4,0.2,10.9,0.5,16.3,0.8l16.3,0.9c5.4,0.3,10.9,0.7,16.3,0.9l-0.1,0.1
						C152.2,60.3,152.3,59.8,152.4,59.4z"/>
					<path class="st40" d="M89.7,43.4c-0.3-0.1-0.7-0.2-1.1-0.2c-0.2,0-0.5,0-0.7,0.1c-2.5,0.6-4.4,4.7-4.4,9.7
						c0,4.6,1.7,8.4,3.9,9.5c0.4,0.2,0.8,0.3,1.2,0.3c0.5,0,1-0.1,1.4-0.4c2.2-1.2,3.7-4.9,3.7-9.4C93.7,48.2,92,44.3,89.7,43.4z
						 M85.8,52.8c0-3.7,1.1-6.9,2.7-8.5c1.7,1,2.9,4.5,2.9,8.7c0,4-1.2,7.5-2.7,8.6C87,59.9,85.8,56.6,85.8,52.8z"/>
					<path class="st41" d="M89.1,44.7c0,0-1.9-2.1-3.9,1"/>
					<path class="st40" d="M89.2,61.1c0,0-1.9,2-3.9-0.9"/>
					<path class="st42" d="M83.8,60.9l0.3,0.3C84,61.1,83.8,61,83.8,60.9z"/>
					<path class="st42" d="M93.7,52.9c0,4.5-1.6,8.3-3.7,9.4c-0.4,0.2-0.9,0.4-1.4,0.4c-0.4,0-0.9-0.1-1.2-0.3
						c0.4,0.1,0.8,0.1,1.3,0.1c3.5,0,5.6-8.2,3.9-14.2s-4.6-5.1-4.6-5.1l0,0c0.2-0.1,0.5-0.1,0.7-0.1c0.4,0,0.7,0.1,1.1,0.2
						C92,44.3,93.7,48.2,93.7,52.9z"/>
					<path class="st36" d="M89.6,56.2l-1.2,5.7c-0.6,0.2-1.1,0.6-1.5,1.1c-0.7,1-1.4,2.9-1.4,6.3c-0.1,5.7,2.1,25.2,0.1,31.9
						c-0.5,1.6-1.2,2.5-2.3,2.2c-5.6-1.4-4.8-23.8-2.8-35.4S89.6,56.2,89.6,56.2z"/>
					<path class="st43" d="M82.3,64.2c0,0-2.1,14.2-2.5,22.5C79.8,86.7,79,70.9,82.3,64.2z"/>
					<path class="st44" d="M85.6,101.3c-0.3-0.7-0.3-1.5,0-2.2c1.4-4.3-0.9-21.9-0.4-30.2c0.2-4.6,1.1-5.8,1.8-5.9
						c-0.7,1-1.4,2.9-1.4,6.3C85.4,75,87.6,94.6,85.6,101.3z"/>
					<path class="st38" d="M90.1,57.5c-3.1,0.3-5.9,2.1-7.5,4.8c-2.5,4.6-0.4,0.1-0.4,0.1s1.7-5.5,7.4-6.2"/>
					<path class="st33" d="M81.2,60.4c0,0-5.1,3.1-4.7,5.9C76.9,69,80.9,64.4,81.2,60.4z"/>
					<path class="st45" d="M134,44.6c0,0-12-1-9.7,1.7c4,4.6,23,15.2,19.9,24c1.1,0.1,2.2-0.1,3.1-0.7c1.7-1,9.4-18.3-2.8-23.6
						L134,44.6z"/>
					<path class="st46" d="M5,42.7c0,0,31.3,26.9,37.1,30.5c2.6,0.6,5.2,1.4,7.7,2.6C54,77.7,67,84.4,75,91c0,0,2,7.3-11.2,6
						c0,0-3.5,1.5-22.9-15.1c0,0-0.8-1.1-4.7-5.7s-36-28.9-36-28.9S-2,40,5,42.7z"/>
					<path class="st47" d="M6,41.7c0,0,31.3,26.9,37.2,30.5c2.6,0.6,5.2,1.4,7.7,2.6c4.1,1.9,17.2,8.6,25.3,15.1c0,0,2,7.3-11.2,6
						c0,0-3.5,1.5-22.9-15.1c0,0-0.8-1.1-4.7-5.7s-36-28.9-36-28.9S-1,38.9,6,41.7z"/>
					<path class="st48" d="M-38.1,9.4c0,0,24.4,16.9,26.9,21c-1.8,4.5-1.2,9.7,1.7,13.7c0,0,2.8,9.6,7,7.6c0,0,2.3,5.3,5.6,2.4
						c0.5,2.1,2.2,3.6,4.3,3.8c3.6,0.3,3.2-4.8,3.2-4.8l0.1-9.6l1.1-2.5c0,0,4.4,9.5,6.9,14.7s4.3,6.6,7,4.9c0,0,0.6,0-1.6-7.4
						S19.3,39,17.9,33.3s-2.8-4.2-8.7-9.9S-6.7,7.7-20.4-0.8"/>
					<path class="st48" d="M3.1,54.1C2.7,50.1,2.7,46.2,3,42.2"/>
					<path class="st49" d="M24.7,55.5c0,0-2.2-2.2-3,0.8c0,0,0.3,3.3,1.9,4.2c0,0,2.2,1.2,2.2-0.5L24.7,55.5z"/>
					<path class="st29" d="M61.6,86.2c0,0-3.6-1.3-3.9,1.7s4.9-2.3,4.1,6.4s2.4,12.4,3.2,3.6c0,0,1.1-3.9,1.9-0.4s2.6-0.9,2.6-0.9
						s5.8,0.2-1.5-5.6S67.8,83,61.6,86.2z"/>
					<path class="st48" d="M127-15.4c0,0-7.8,28.6-11.4,37.4s-8.8,8.1-13.1,23.3l8.5-2.4l-0.3-0.4l-1.1-1c0,0,3.4,2,5.1,7.4
						c1,3.9,1.5,7.8,1.4,11.8l-3.5,5.4c-0.6,1-0.6,2.2,0,3.2c0.6,0.8,1.6,1.3,2.6,1.3c1.8,0.1,3.6-0.6,4.8-2
						c0.1-0.2,0.3-0.3,0.4-0.5c0,0-1.1,3.7,3.9,3c1.4-0.4,2.4-1.4,2.9-2.7c0,0,0.1,2.7,3.7,2.3c0,0,1.9-0.1,3.8-3.4
						c0,0,2.8,2.5,5.9-2.8s2.4-7.2,2.4-7.2s0.8-7.8-5.2-28.7c0,0-1.8-2.3,1.5-11.7s18-32.2,18-32.2L127-15.4z"/>
					<path class="st50" d="M119.2,69.2c0,0,2.9-2.5,3.8-8.2V46.7c0,0,1.3,10.5,0.8,14.9c0,0-0.1,3-3.3,8.3c0,0-0.6-0.4-0.1-1.8
						L119.2,69.2z"/>
					<path class="st50" d="M126.6,69.5c0,0,3.2-5.5,3.4-7.4c0.2-2.5-0.6-15.4-0.6-15.4s1.3,13,1.4,15.5c0.1,2.5-3.2,7.1-3.2,7.1
						l-0.3-1L126.6,69.5z"/>
					<path class="st50" d="M134.1,68.5c0,0,2.8-3.8,2.8-7.5s-0.7-14.7-0.7-14.7s1.3,11.6,1.2,14.9c-0.1,2.3-0.8,4.5-1.9,6.4
						l-0.5-0.2L134.1,68.5z"/>
				</g>
			</g>
		</g>
	</g>
	
		<radialGradient id="SVGID_6_" cx="-16434.7598" cy="-3961.1699" r="476.18" gradientTransform="matrix(0.15 0 0 -0.15 2629.3899 -507.32)" gradientUnits="userSpaceOnUse">
		<stop  offset="0" style="stop-color:#FFFFFF"/>
		<stop  offset="0.43" style="stop-color:#D3F9FC"/>
	</radialGradient>
	<path class="st51" d="M152,79.4c0,38.6-33,69.9-73.7,69.9S4.6,118,4.6,79.4s33-69.9,73.7-69.9S152,40.8,152,79.4z"/>
	<path class="st52" d="M82.6,141.9c-40.7,0-73.7-31.3-73.7-69.9c0-10,2.2-19.8,6.6-28.8c-0.8,1.2-1.6,2.4-2.3,3.6
		C7,57.1,3.7,68.8,3.7,80.9c0,38.6,33,69.9,73.7,69.9c29.9,0,55.6-16.9,67.2-41.1C131.6,129,108.6,141.9,82.6,141.9z"/>
	<path class="st53" d="M23,54.7c3-10.9,11.9-21.4,30.2-28.1c2.1-0.8,3.1-3.1,2.3-5.2c-0.2-0.5-0.5-0.9-0.9-1.3l-0.3-0.4
		c-1-1-2.5-1.4-3.9-1c-6.9,2.1-24.7,12.2-30.6,35.1c-0.2,0.7,0.1,1.4,0.7,1.8l0,0c0.8,0.5,1.8,0.3,2.3-0.4C22.9,55,23,54.9,23,54.7z
		"/>
	<circle class="st53" cx="20.5" cy="60.5" r="2.5"/>
</g>
<g class="st54">
	<path d="M129.3,23.5C99.3-5,51.8-3.9,23.2,26.1C10,39.9,2.6,58.3,2.5,77.5c0,2.3,0.1,4.6,0.3,6.8c0,0.3,0,0.5,0.1,0.8
		c0,0,0,0.1,0,0.1c1.4,19.1,10.5,36.7,25.3,48.8c28.4,30.1,75.9,31.5,106,3.1s31.5-75.9,3.1-106C134.8,28.3,132.1,25.8,129.3,23.5
		L129.3,23.5z"/>
</g>
</svg>
