<?xml version="1.0" encoding="utf-8"?>
<!-- Generator: Adobe Illustrator 25.2.3, SVG Export Plug-In . SVG Version: 6.00 Build 0)  -->
<svg version="1.1" id="Layer_1" xmlns="http://www.w3.org/2000/svg" xmlns:xlink="http://www.w3.org/1999/xlink" x="0px" y="0px"
	 viewBox="0 0 160 160" style="enable-background:new 0 0 160 160;" xml:space="preserve">
<style type="text/css">
	.st0{opacity:0.5;enable-background:new    ;}
	.st1{opacity:0.91;fill:url(#SVGID_1_);enable-background:new    ;}
	.st2{clip-path:url(#SVGID_3_);}
	.st3{fill:url(#SVGID_4_);}
	.st4{fill:url(#SVGID_5_);}
	.st5{fill:url(#SVGID_6_);}
	.st6{fill:#6BC93A;}
	.st7{opacity:0.3;}
	.st8{fill:#84E75A;}
	.st9{opacity:0.5;fill:#5F8337;enable-background:new    ;}
	.st10{fill:#2BB51C;}
	.st11{fill:#85B780;}
	.st12{fill:#76B7A4;}
	.st13{fill:#9B5334;}
	.st14{fill:#904E27;}
	.st15{fill:#CC773E;}
	.st16{fill:#7C3F29;}
	.st17{fill:#8C4D23;}
	.st18{fill:#723B17;}
	.st19{opacity:0.61;}
	.st20{fill:#666666;}
	.st21{fill:#E6E6E6;}
	.st22{fill:#1A1A1A;}
	.st23{fill:#1D7C15;}
	.st24{fill:#D67F42;}
	.st25{fill:#C1723D;}
	.st26{fill:#FB975B;}
	.st27{fill:#934B1B;}
	.st28{fill:#BBEF60;}
	.st29{fill:#27423A;}
	.st30{fill:#BFFF33;}
	.st31{fill:#699A59;}
	.st32{fill:#9DBF6A;}
	.st33{fill:none;stroke:#27423A;stroke-width:0.5;stroke-miterlimit:10;}
	.st34{fill:#F9D1C6;stroke:#BA5817;stroke-miterlimit:10;}
	.st35{fill:#EF852E;stroke:#60561A;stroke-miterlimit:10;}
	.st36{fill:#A32F07;}
	.st37{fill:#F9D1C6;stroke:#897F33;stroke-miterlimit:10;}
	.st38{fill:#F9D1C6;}
	.st39{fill:#BA5817;}
	.st40{fill:#D3978C;}
	.st41{fill:#FFFFFF;}
	.st42{fill:#4F4726;}
	.st43{fill:#2B2716;}
	.st44{fill:#240D00;}
	.st45{fill:#F5968E;}
	.st46{fill:#721F33;}
	.st47{fill:#F4EDEF;}
	.st48{fill:#E03859;}
	.st49{fill:#D26653;}
	.st50{fill:#897F33;}
	.st51{fill:#82CFF7;stroke:#5DA3C1;stroke-miterlimit:10;}
	.st52{fill:#B3E0F4;}
	.st53{fill:url(#SVGID_7_);}
	.st54{fill:#52A2E7;}
	.st55{fill:#3476B7;}
	.st56{opacity:0.35;fill:#4A97CC;enable-background:new    ;}
	.st57{fill:url(#SVGID_8_);}
	.st58{fill:url(#SVGID_9_);}
	.st59{fill:#218B8E;stroke:#0C4C4C;stroke-miterlimit:10;}
	.st60{fill:#E9F1F4;stroke:#AF3A75;stroke-miterlimit:10;}
	.st61{fill:#73D3F4;stroke:#AF3A75;stroke-miterlimit:10;}
	.st62{fill:#D5F0F7;stroke:#AF3A75;stroke-miterlimit:10;}
	.st63{opacity:0.2;fill:url(#SVGID_10_);enable-background:new    ;}
	.st64{opacity:0.5;fill:#4ECECE;enable-background:new    ;}
	.st65{opacity:0.6;fill:#FDFFFF;enable-background:new    ;}
	.st66{opacity:0.6;}
</style>
<circle class="st0" cx="82.3" cy="82.2" r="74.3"/>
<g id="_01-5">
	
		<radialGradient id="SVGID_1_" cx="-825.3818" cy="264.4245" r="259.7592" gradientTransform="matrix(0.33 0 0 -0.33 352.37 165.66)" gradientUnits="userSpaceOnUse">
		<stop  offset="0" style="stop-color:#FFFFFF"/>
		<stop  offset="0.61" style="stop-color:#D3F9FC"/>
		<stop  offset="0.93" style="stop-color:#48E5FF"/>
	</radialGradient>
	<path class="st1" d="M152.1,78.1c0.2,41-32.9,74.4-73.9,74.5S3.8,119.7,3.6,78.7C3.5,37.7,36.6,4.3,77.6,4.2c0.1,0,0.2,0,0.3,0
		C118.8,4.1,152,37.2,152.1,78.1C152.1,78.1,152.1,78.1,152.1,78.1z"/>
	<g>
		<defs>
			<ellipse id="SVGID_2_" cx="78.1" cy="77.3" rx="74.1" ry="73.8"/>
		</defs>
		<clipPath id="SVGID_3_">
			<use xlink:href="#SVGID_2_"  style="overflow:visible;"/>
		</clipPath>
		<g class="st2">
			
				<linearGradient id="SVGID_4_" gradientUnits="userSpaceOnUse" x1="27.1474" y1="-45.0295" x2="74.3674" y2="188.4105" gradientTransform="matrix(1 0 0 -1 0 162)">
				<stop  offset="0.2" style="stop-color:#C5F7FD"/>
				<stop  offset="0.34" style="stop-color:#B3F0FD"/>
				<stop  offset="0.66" style="stop-color:#8EE1FD"/>
				<stop  offset="0.83" style="stop-color:#80DBFD"/>
			</linearGradient>
			<rect x="-95.1" y="-9.4" class="st3" width="308.8" height="114.6"/>
			
				<linearGradient id="SVGID_5_" gradientUnits="userSpaceOnUse" x1="67.5275" y1="140.2525" x2="79.3275" y2="152.0625" gradientTransform="matrix(1 0 0 -1 0 162)">
				<stop  offset="0.11" style="stop-color:#85DDFD"/>
				<stop  offset="0.82" style="stop-color:#D7EEF4"/>
			</linearGradient>
			<path class="st4" d="M67.6,16.8c0,0,0.2-1.4,2.3-2.4s4-1.5,5.9-0.4c1.3,0.9,1.8,2.6,1.1,4c-0.8,0.6-2.4,1.4-6.9,0.6
				C67.3,18.1,67.6,16.8,67.6,16.8z"/>
			
				<linearGradient id="SVGID_6_" gradientUnits="userSpaceOnUse" x1="147.109" y1="131.861" x2="159.529" y2="144.291" gradientTransform="matrix(1 0 0 -1 0 162)">
				<stop  offset="0.17" style="stop-color:#83DCFD"/>
				<stop  offset="0.9" style="stop-color:#D7EEF4"/>
			</linearGradient>
			<path class="st5" d="M146.9,23.1c0,0,0.2-1.8,3.4-3.1s5.8-1.9,8.5-0.5s2.1,4.7,1.6,5.1c-1.1,0.8-3.6,1.7-10,0.8
				C146.5,24.8,146.9,23.1,146.9,23.1z"/>
			<path class="st6" d="M157.6,70.8c-10.1,2.6-20.5,6.9-30.8,7.6c-13.4,0.9-26.6,4-40,4.7c-13.6,0.8-27.2,0.5-40.8-1
				c-11.9-1.4-23.8-0.1-35.7-1.5c-12.2-1.4-24.2-6.2-36.4-7.4c-8.8-0.9-17.5-2.2-26.1-4.1c-7.2-1.5-14.1-5.5-21.3-7.1
				c-6.8-1.5-13.9-4-20.8-4.2v140.1h307.8V51c-8.8,2.7-17.3,6.1-25.5,10.3C178.3,66.2,167.8,68.2,157.6,70.8z"/>
			<g class="st7">
				<path class="st8" d="M191.1,96.1c-1.1,0.7-2.2,1.4-3.3,2.1c-4.4,2.9-9.2,5.1-14.2,6.8c-10.6,3.3-22.2,3.4-32.4,7.6
					c6.2,0.9,12.5,0.4,18.7-0.1c4.3-0.4,8.7-0.6,13-0.9c3.4-0.3,6.7-0.6,10.1-0.6c2.5,0,6-0.2,8.1,1.2c1.7,1.1,1.1,2.8,0,4.1
					c-2.1,2-4.5,3.6-7.1,4.7c-3.5,1.7-7.1,3-10.8,4.1c-3.5,1.1-7.2,1.8-10.9,2.1c-2.4,0.2-5.4,0.2-7.5-1.2c-0.1,0-0.1-0.2-0.1-0.2
					c0,0,0,0,0.1-0.1c2.3-2.4,6.7-2.4,8.6-5c-4.8-1.7-10.6-0.8-15.6-0.3c-6.3,0.5-12.6,1.2-18.9,1.4c-13.4,0.4-26.6-2.9-40-2.7
					c-7,0.1-14,0.4-21,0.5s-13.8,0.1-20.8-0.1c-5.1-0.1-10.2-0.1-15.3-0.4c-4.5-0.3-9.4-0.8-13.1-3.2c-0.1-0.1-0.1-0.2-0.1-0.3
					c0,0,0.1-0.1,0.1-0.1c0.4-0.1,0.8-0.2,1.3-0.3c2.9-0.3,5.9-0.3,8.9,0c3.3,0.1,6.7-0.1,10-0.5c3.4-0.3,6.7-0.7,10.1-1
					c1.6-0.1,3.2-0.1,4.8-0.2c-2.8-0.2-5.7-0.4-8.5-0.6c-11.9-1-23.8-0.1-35.7-1.1c-12.2-1-24.2-4.6-36.4-5.5
					c-8.8-0.7-17.3-1.7-26.1-3c-7.2-1.2-14.1-4.1-21.3-5.3c-6.8-1.1-13.9-3-20.8-3.2v2.5c1.4,0.1,2.8,0.2,4.2,0.4
					c13.2,1.6,25.8,5.6,38.5,8.7c3.2,0.8,6.4,1.5,9.6,2c3,0.4,6.1,0.7,9.2,0.8c5,0.2,10.5,0.5,14.9,2.9c0.1,0,0.1,0.2,0.1,0.2
					c0,0,0,0.1-0.1,0.1c-2.7,1.1-5.5,1.6-8.3,1.7c-5.4,0.3-10.8-0.3-16.3-0.3c-6.2,0-12.2,1.3-18.2,2.5c-3.4,0.7-6.7,1.5-10.1,2
					c-2.2,0.3-4.4,0.5-6.6,0.8c-2.4,0.2-4.8,0.8-7,1.7c-0.6,0.3-1.1,0.6-1.6,0.9c-0.4,0.3-0.5,0.3-0.1,0.7c0.5,0.5,1,0.9,1.6,1.2
					c3.2,1.7,7.4,1.9,11,2c4.1,0.2,8.2,0,12.2,0c3.6,0,7.2,0.3,10.8,0.4c4.3,0.1,9.6,0.1,13.3,2.3c0.1,0,0.1,0.1,0.1,0.2
					c0,0,0,0,0,0c-1,1.6-2.5,1.9-4.4,2c-1.8,0.1-3.5,0.6-5.2,0.8c-1.5,0.2-3,0.4-4.5,0.6c-3.4,0.4-6.8,0.6-10.3,0.9
					c-7,0.5-13.8,1.3-20.8,2.3c-4,0.6-8,1.1-12.1,1.4v62.8h307.8V89.7C205.7,91.4,198.3,93.5,191.1,96.1z"/>
			</g>
			<path class="st9" d="M67,121.7h-1.3c-0.6,0-1.3,0.1-1.9,0.3c0,0,0,0,0,0.1c1.2,0.3,2.5,0.4,3.7,0.2c0.4,0,2.8-0.1,2.7-0.4
				S67.7,121.7,67,121.7z"/>
			<path class="st9" d="M81.1,120.4c-0.3-0.3-2-0.2-2.6-0.1c-0.2,0-0.8,0-1.2,0.1h-0.4c-0.3,0-1,0.2-0.6,0.3
				c0.6,0.1,1.2,0.2,1.8,0.2c0.6,0,1.2,0,1.8-0.1c0.4,0,0.7-0.1,1.1-0.1C81.1,120.5,81.2,120.4,81.1,120.4z"/>
			<path class="st9" d="M74.6,133.9h-0.9c-0.4,0-0.9,0.1-1.3,0.3l0,0c0.9,0.2,1.7,0.3,2.6,0.2c0.3,0,2,0,1.9-0.3
				S75.1,133.9,74.6,133.9z"/>
			<path class="st9" d="M84.6,134.7c-0.6-0.1-1.2-0.2-1.8-0.1h-0.9h-0.3c-0.2,0-0.7,0.1-0.4,0.2c0.4,0.1,0.8,0.1,1.3,0.1
				c0.4,0,0.8,0,1.3-0.1C84,134.8,84.2,134.8,84.6,134.7C84.5,134.8,84.6,134.7,84.6,134.7z"/>
			<path class="st10" d="M142.9,127.3c1.2-0.8,2.6-1.2,4.1-1.3c2.7-0.3-2.9-1.4-4.9,1.3C142.1,127.3,141.2,128.5,142.9,127.3z"/>
			<path class="st10" d="M139.1,127.4c0,0,4.1-3.3,6.4-4.2s-2.3-1-5.5,1.8C140.1,125,138.5,126.7,139.1,127.4z"/>
			<path class="st10" d="M138,127.4c0,0,2.7-5.4,3.9-6.1s-1.9-1-3.9,3.4C138,124.7,137.2,127.1,138,127.4z"/>
			<path class="st10" d="M136.5,127.4c0,0,1-5,2-5.7S134.8,122.5,136.5,127.4z"/>
			<path class="st10" d="M135.9,127.4c0,0,0.1-4.2-2.1-4.8S135.1,125.3,135.9,127.4z"/>
			<path class="st10" d="M135.2,127.4c-1.4-1.2-3.2-1.8-5-1.8C127,125.5,133.2,124.3,135.2,127.4z"/>
			<path class="st10" d="M134.9,127.4c-1.3-1.2-3-1.9-4.7-1.8C127.2,125.8,134.2,126.8,134.9,127.4z"/>
			<path class="st11" d="M-94.9,83.4c37.2,1.5,57.6,1.6,77.4,2.1c67.9,1.7,66.3-1.4,104.1,0.7c24.7,1.4,64.7-2.2,89.3-0.4
				c4.5,0.3,14.4,1.2,35,0.8c2,0,1.7,2.8,2.2,0.6c1.1-4.9,0.9-0.1,0.9,0.4c-0.1,2.6-1,0.8-0.8,2.1l-306.3,0.2L-94.9,83.4z"/>
			<path class="st12" d="M-101.4,61.4c-0.2-2.3-5.5-4.2-1.9-5.9c6.7-3.2,21.2-4.2,38.6-2.1c32.3,3.9,46-2.3,77,2.4
				c6,1.1,12.2,1.4,18.3,1c10.8-0.6,3.1,1.7,27.3-1.3c5.5-0.7,11.2-0.4,16.6,0.8c11.9,2.6,25.8-0.4,36.7,0.8
				c4.8,0.5,37.8-3.3,40.5-3.6c60.2-6.3,59.6,5,59.5,5.7c0,0,3.3,0.3,6.6,0.4l0,0l-3,18.6H-88.5L-101.4,61.4z"/>
			<polygon class="st13" points="-93.5,69.6 -93.5,86.8 50.8,86.8 50.8,70.5 			"/>
			<rect x="-93.5" y="68.2" class="st14" width="144.4" height="2.7"/>
			<rect x="-93.5" y="66.9" class="st15" width="144.4" height="2.7"/>
			<rect x="16.5" y="74.9" class="st16" width="2.7" height="1.5"/>
			<rect x="17.8" y="76.7" class="st16" width="2.7" height="1.5"/>
			<rect x="0.9" y="78.1" class="st16" width="2.7" height="1.5"/>
			<rect x="2.2" y="79.9" class="st16" width="2.7" height="1.5"/>
			<rect x="42.3" y="74.9" class="st16" width="2.7" height="1.5"/>
			<rect x="43.7" y="76.7" class="st16" width="2.7" height="1.5"/>
			<polygon class="st13" points="213.8,69.2 213.8,86.7 48.5,86 48.5,70 			"/>
			<rect x="48.6" y="69.2" class="st17" width="165.2" height="1.5"/>
			<rect x="50.8" y="66.5" class="st15" width="162.9" height="3"/>
			<rect x="156.6" y="73.4" class="st18" width="3.1" height="1.4"/>
			<rect x="155" y="75.2" class="st18" width="3.1" height="1.4"/>
			<rect x="146.6" y="79.1" class="st18" width="3.1" height="1.4"/>
			<rect x="145.1" y="80.9" class="st18" width="3.1" height="1.4"/>
			<rect x="115.8" y="73.6" class="st18" width="3.1" height="1.4"/>
			<rect x="114.3" y="75.4" class="st18" width="3.1" height="1.4"/>
			<rect x="84.8" y="74.3" class="st18" width="3.1" height="1.4"/>
			<rect x="83.2" y="76.1" class="st18" width="3.1" height="1.4"/>
			<rect x="102.7" y="77.4" class="st18" width="3.1" height="1.4"/>
			<rect x="101.1" y="79.3" class="st18" width="3.1" height="1.4"/>
			<rect x="55.2" y="74.3" class="st18" width="3.1" height="1.4"/>
			<rect x="53.7" y="76.1" class="st18" width="3.1" height="1.4"/>
			<g class="st19">
				<path class="st20" d="M1.1,62.7h-2v-0.9c0.2-0.1,0.3-0.3,0.3-0.5c0-0.3-0.3-0.5-0.6-0.5c0,0,0,0,0,0c-0.3,0-0.6,0.2-0.6,0.5
					c0,0,0,0,0,0c0,0.2,0.1,0.4,0.3,0.5v0.9h-16.6v-0.9c0.2-0.1,0.3-0.3,0.3-0.5c0-0.3-0.3-0.5-0.6-0.5c-0.3,0-0.6,0.2-0.6,0.5
					c0,0,0,0,0,0c0,0.2,0.1,0.4,0.3,0.5v0.9h-16.6v-0.9c0.2-0.1,0.3-0.3,0.3-0.5c0-0.3-0.3-0.5-0.6-0.5c0,0,0,0,0,0
					c-0.3,0-0.6,0.2-0.6,0.5c0,0,0,0,0,0c0,0.2,0.1,0.4,0.3,0.5v0.9h-16.6v-0.9c0.2-0.1,0.3-0.3,0.3-0.5c0-0.3-0.3-0.5-0.6-0.5
					c-0.3,0-0.6,0.2-0.6,0.5c0,0,0,0,0,0c0,0.2,0.1,0.4,0.3,0.5v0.9h-16.6v-0.9c0.2-0.1,0.3-0.3,0.3-0.5c0-0.3-0.3-0.5-0.6-0.5
					c0,0,0,0,0,0c-0.3,0-0.6,0.2-0.6,0.5c0,0,0,0,0,0c0,0.2,0.1,0.4,0.3,0.5v0.9h-16.6v-0.9c0.2-0.1,0.3-0.3,0.3-0.5
					c0-0.3-0.3-0.5-0.6-0.5c-0.3,0-0.6,0.2-0.6,0.5c0,0,0,0,0,0c0,0.2,0.1,0.4,0.3,0.5v0.9h-16.6v-0.9c0.2-0.1,0.3-0.3,0.3-0.5
					c0-0.3-0.3-0.6-0.6-0.5c0,0,0,0,0,0c-0.3,0-0.6,0.2-0.6,0.5c0,0,0,0,0,0c0,0.2,0.1,0.4,0.3,0.5v0.9h-11.2v0.8h11.2V67h0.6v-3.5
					h16.6V67h0.6v-3.5h16.6V67h0.6v-3.5h16.6V67h0.6v-3.5h16.6V67h0.6v-3.5h16.6V67h0.6v-3.5h16.6V67h0.6v-3.5h2L1.1,62.7z"/>
			</g>
			<g class="st19">
				<path class="st20" d="M116.3,62.7h-2v-0.9c0.2-0.1,0.3-0.3,0.3-0.5c0-0.3-0.3-0.5-0.6-0.5c0,0,0,0,0,0c-0.3,0-0.6,0.2-0.6,0.5
					c0,0,0,0,0,0c0,0.2,0.1,0.4,0.3,0.5v0.9H97.1v-0.9c0.2-0.1,0.3-0.3,0.3-0.5c0-0.3-0.3-0.5-0.7-0.5c-0.3,0-0.5,0.2-0.5,0.5
					c0,0.2,0.1,0.4,0.3,0.5v0.9H79.8v-0.9c0.2-0.1,0.3-0.3,0.3-0.5c0-0.3-0.3-0.6-0.6-0.6c-0.3,0-0.6,0.3-0.6,0.6
					c0,0.2,0.1,0.4,0.3,0.5v0.9H62.6v-0.9c0.2-0.1,0.3-0.3,0.3-0.5c0-0.3-0.3-0.5-0.7-0.5c-0.3,0-0.5,0.2-0.5,0.5
					c0,0.2,0.1,0.4,0.3,0.5v0.9H45.4v-0.9c0.2-0.1,0.3-0.3,0.3-0.5c0-0.3-0.3-0.6-0.6-0.6c-0.3,0-0.6,0.3-0.6,0.6
					c0,0.2,0.1,0.4,0.3,0.5v0.9H28.2v-0.9c0.2-0.1,0.3-0.3,0.3-0.5c0-0.3-0.3-0.5-0.7-0.5c-0.3,0-0.5,0.2-0.5,0.5
					c0,0.2,0.1,0.4,0.3,0.5v0.9H11v-0.9c0.2-0.1,0.3-0.3,0.3-0.5c0-0.3-0.3-0.6-0.6-0.6c-0.3,0-0.6,0.3-0.6,0.6
					c0,0.2,0.1,0.4,0.3,0.5v0.9H-0.8v0.8h11.2V67H11v-3.5h16.6V67h0.6v-3.5h16.6V67h0.6v-3.5h16.6V67h0.6v-3.5h16.6V67h0.6v-3.5
					h16.6V67h0.6v-3.5h16.6V67h0.6v-3.5h2L116.3,62.7z"/>
				<path class="st21" d="M44.7,61.3c0.3,0.2,0.7-0.2,0.5-0.4S44.5,61.1,44.7,61.3z"/>
				<path class="st21" d="M62,61.3c0.3,0.2,0.7-0.2,0.5-0.4S61.7,61.1,62,61.3z"/>
				<path class="st21" d="M79.2,61.3c0.3,0.2,0.7-0.2,0.4-0.4S78.9,61.1,79.2,61.3z"/>
				<path class="st21" d="M27.5,61.3c0.3,0.2,0.7-0.2,0.5-0.4S27.3,61.1,27.5,61.3z"/>
				<path class="st22" d="M11.3,62.7H11v-0.9c0.2-0.1,0.3-0.3,0.3-0.5c0-0.2-0.1-0.4-0.3-0.5c0,0.1,0,0.1,0.1,0.2
					c0,0.3-0.3,0.6-0.6,0.5c0,0,0,0,0,0c-0.1,0-0.2,0-0.2,0c0.1,0.2,0.3,0.3,0.5,0.3h0.1V67H11v-3.5h16.6v-0.3H11.3V62.7z"/>
				<path class="st22" d="M45.7,63.2v-0.5h-0.3v-0.9c0.2-0.1,0.3-0.3,0.3-0.5c0-0.2-0.1-0.4-0.3-0.5c0,0.1,0,0.2,0,0.2
					c0,0.3-0.3,0.6-0.6,0.5c0,0,0,0,0,0c-0.1,0-0.2,0-0.2,0c0.1,0.2,0.3,0.3,0.5,0.3h0.1V67h0.2v-3.5h16.6v-0.3L45.7,63.2z"/>
				<path class="st22" d="M62.9,63.2v-0.5h-0.3v-0.9c0.3-0.1,0.4-0.4,0.3-0.7c-0.1-0.2-0.2-0.3-0.3-0.3c0,0.1,0,0.2,0,0.2
					c0,0.3-0.3,0.5-0.6,0.5c-0.1,0-0.2,0-0.2,0c0.1,0.2,0.3,0.3,0.5,0.3h0.1V67h0.2v-3.5h16.6v-0.3H62.9z"/>
				<path class="st22" d="M80.1,63.2v-0.5h-0.3v-0.9c0.2-0.1,0.3-0.3,0.3-0.5c0-0.2-0.1-0.4-0.3-0.5c0,0.1,0,0.1,0,0.2
					c0,0.3-0.3,0.6-0.6,0.5c0,0,0,0,0,0c-0.1,0-0.2,0-0.2,0c0.1,0.2,0.3,0.3,0.5,0.3h0.1V67h0.2v-3.5h16.7v-0.3H80.1z"/>
				<path class="st22" d="M97.3,62.7h-0.3v-0.9c0.2-0.1,0.3-0.3,0.3-0.5c0-0.2-0.1-0.4-0.3-0.5c0,0.1,0,0.1,0,0.2
					c0,0.3-0.3,0.5-0.6,0.5c-0.1,0-0.2,0-0.2,0c0.1,0.2,0.3,0.3,0.5,0.3h0.1V67H97v-3.5h16.7v-0.3H97.3V62.7z"/>
				<path class="st22" d="M28.5,63.2v-0.5h-0.3v-0.9c0.2-0.1,0.3-0.3,0.3-0.5c0-0.2-0.1-0.4-0.3-0.5c0,0.1,0,0.1,0,0.2
					c0,0.3-0.3,0.5-0.6,0.5c-0.1,0-0.2,0-0.2,0c0.1,0.2,0.3,0.3,0.5,0.3H28V67h0.2v-3.5h16.7v-0.3H28.5z"/>
			</g>
			<g class="st19">
				<path class="st20" d="M231.4,62.7h-2v-0.9c0.2-0.1,0.3-0.3,0.3-0.5c0-0.3-0.3-0.5-0.7-0.5c-0.3,0-0.5,0.2-0.5,0.5
					c0,0.2,0.1,0.4,0.3,0.5v0.9h-16.6v-0.9c0.2-0.1,0.3-0.3,0.3-0.5c0-0.3-0.3-0.5-0.7-0.5c-0.3,0-0.5,0.2-0.5,0.5
					c0,0.2,0.1,0.4,0.3,0.5v0.9H195v-0.9c0.2-0.1,0.3-0.3,0.3-0.5c0-0.3-0.3-0.5-0.7-0.5c-0.3,0-0.5,0.2-0.5,0.5
					c0,0.2,0.1,0.4,0.3,0.5v0.9h-16.7v-0.9c0.2-0.1,0.3-0.3,0.3-0.5c0-0.3-0.3-0.5-0.7-0.5c-0.3,0-0.5,0.2-0.5,0.5
					c0,0.2,0.1,0.4,0.3,0.5v0.9h-16.6v-0.9c0.2-0.1,0.3-0.3,0.3-0.5c0-0.3-0.3-0.5-0.6-0.5c0,0,0,0,0,0c-0.3,0-0.6,0.2-0.6,0.5
					c0,0,0,0,0,0c0,0.2,0.1,0.4,0.3,0.5v0.9h-16.6v-0.9c0.2-0.1,0.3-0.3,0.3-0.5c0-0.3-0.3-0.5-0.7-0.5c-0.3,0-0.5,0.2-0.5,0.5
					c0,0.2,0.1,0.4,0.3,0.5v0.9h-16.6v-0.9c0.2-0.1,0.3-0.3,0.3-0.5c0-0.3-0.3-0.6-0.6-0.6c-0.3,0-0.6,0.3-0.6,0.6
					c0,0.2,0.1,0.4,0.3,0.5v0.9h-11.2v0.8h11.2V67h0.6v-3.5h16.6V67h0.6v-3.5H160V67h0.6v-3.5h16.6V67h0.6v-3.5h16.6V67h0.6v-3.5
					h16.6V67h0.6v-3.5h16.6V67h0.6v-3.5h2L231.4,62.7z"/>
				<path class="st21" d="M159.9,61.3c0.3,0.2,0.7-0.2,0.4-0.4S159.6,61.1,159.9,61.3z"/>
				<path class="st21" d="M142.6,61.3c0.3,0.2,0.7-0.2,0.5-0.4S142.4,61.1,142.6,61.3z"/>
				<path class="st22" d="M126.4,62.7h-0.3v-0.9c0.3-0.1,0.4-0.4,0.3-0.7c-0.1-0.2-0.2-0.3-0.3-0.3c0,0.1,0.1,0.1,0.1,0.2
					c0,0.3-0.3,0.6-0.6,0.5c0,0,0,0,0,0c-0.1,0-0.2,0-0.2,0c0.1,0.2,0.3,0.3,0.5,0.3h0.1V67h0.2v-3.5h16.6v-0.3h-16.4V62.7z"/>
				<path class="st22" d="M160.8,63.2v-0.5h-0.3v-0.9c0.2-0.1,0.3-0.3,0.3-0.5c0-0.2-0.1-0.4-0.3-0.5c0,0.1,0.1,0.1,0.1,0.2
					c0,0.3-0.3,0.6-0.6,0.5c0,0,0,0,0,0c-0.1,0-0.2,0-0.2,0c0.1,0.2,0.3,0.3,0.5,0.3h0.1V67h0.2v-3.5h16.6v-0.3L160.8,63.2z"/>
				<path class="st22" d="M143.6,63.2v-0.5h-0.3v-0.9c0.2-0.1,0.3-0.3,0.3-0.5c0-0.2-0.1-0.4-0.3-0.5c0,0.1,0,0.1,0,0.2
					c0,0.3-0.3,0.5-0.6,0.5c-0.1,0-0.2,0-0.2,0c0.1,0.2,0.3,0.3,0.5,0.3h0.1V67h0.2v-3.5H160v-0.3H143.6z"/>
			</g>
			<path class="st11" d="M8,89.1h40c0.1-0.4,0-0.8-0.3-1c-1-1.1-3.6-1-3.6-1s2.5-1.3,1-2.2c-1.2-0.5-2.5-0.5-3.8-0.1
				c0,0,2.1-1.7-0.2-2.5l-0.3-0.1c-1.2-0.4-2.5-0.2-3.6,0.3c-0.3-0.6-1-1.1-1.7-1.1c-0.8-0.2-1.7,0-2.4,0.5c0,0-0.7-1.3-3-1.2
				c-3.3,0.1-3.5,1.4-3.5,1.4c-0.7-0.6-1.6-0.9-2.5-0.8c-0.6,0-1.2,0.5-1.2,1.1c0,0-1.3-1.6-5.2-1.1h-0.1c-4,0.5-2.9,2.4-2.9,2.4
				c-1-0.3-2.1-0.4-3.1-0.2c-0.2,0.1-0.4,0.2-0.6,0.3c-1.3,0.8,0.1,1.8,0.2,1.9c-0.1,0-2.4-0.3-3.4,0.9C7.5,87.3,7.4,88.4,8,89.1z"
				/>
			<path class="st11" d="M74.2,89.4H176v-5.4c-1.8-1-7.5-1.6-10.8-0.9c0,0,1-2-6.4-2.9c-4.3-0.6-8.6-0.4-12.8,0.6
				c0,0-2.4-2.4-11.7-1.1c-3-1.4-10.6-1.2-11.4,0.5c-4.7-1.5-9.6-2-14.5-1.7c-8.8,0.5-8.9,2.7-8.9,2.7L98.8,81c-4-0.5-8-0.4-12,0.2
				c-5.6,1.1-5.4,2.1-5,3c0.1,0.2,0.3,0.4,0.4,0.6c0,0-5.9-0.2-9,2C71.7,87.9,72.8,88.8,74.2,89.4z"/>
			<ellipse class="st23" cx="91.8" cy="139.3" rx="31.3" ry="5.5"/>
			<ellipse class="st23" cx="20.2" cy="140.9" rx="14.8" ry="3.2"/>
			<ellipse class="st23" cx="42.5" cy="134.5" rx="14.8" ry="3.2"/>
			<path class="st24" d="M33.2,120.2l3,12.3c0,0,2.5,2.4,7.5,2s5.8-1.8,5.8-1.8l3.2-12.4L33.2,120.2z"/>
			<path class="st25" d="M42.3,132c-3.9-1.8-4.9-9.1-0.3-9.2c3.6-0.2,7.1-0.7,10.6-1.5l0.3-1H33.2l3,12.3c0,0,2.5,2.4,7.5,2
				c3.4-0.3,4.9-1.1,5.5-1.5C46.8,133.3,44.4,132.9,42.3,132z"/>
			<ellipse class="st24" cx="43.2" cy="119.4" rx="11" ry="2.2"/>
			<polygon class="st24" points="31.8,115.6 32.2,119.4 54.3,119.4 54.8,115.6 			"/>
			<ellipse class="st26" cx="43.3" cy="115.6" rx="11.5" ry="2.2"/>
			<ellipse class="st27" cx="43.3" cy="115.5" rx="10.2" ry="1.7"/>
			<path class="st28" d="M41.1,95.7c0.6,0.7,1,1.6,1.3,2.5c-0.8-0.4-1.6-1-2.2-1.7c-0.6-0.7-1.1-1.6-1.3-2.5
				C39.8,94.4,40.5,95,41.1,95.7z"/>
			<path class="st29" d="M38.6,89.2L38.6,89.2c-0.2,3.6-0.2,7.2,0.1,10.8c0.3,3.1,0.9,6.2,1.9,9.2c0.9,3,2.6,5.7,4.8,7.8l0,0
				c-2.2-2.2-3.9-4.8-4.8-7.8c-1-3-1.7-6.1-2-9.2C38.3,96.4,38.3,92.8,38.6,89.2z"/>
			<path class="st29" d="M33.3,99.9c0,0,0.1,0.1,0.4,0.4c0.9,1,3.3,3.8,5.8,4.5v0.1c-2.5-0.8-4.9-3.5-5.8-4.6
				C33.5,100.2,33.4,100.1,33.3,99.9L33.3,99.9z"/>
			<path class="st29" d="M48.5,92.2c-2.3,1.9-6.9,6.1-9.3,11.3h-0.1c0.5-1.2,1.2-2.3,1.9-3.4c2.1-3,4.6-5.7,7.4-8L48.5,92.2"/>
			<path class="st29" d="M45,89.4L45,89.4c-0.8,2.4-1.3,4.9-1.3,7.4h-0.1C43.6,94.3,44.1,91.8,45,89.4z"/>
			<path class="st29" d="M49.5,94.7c-0.5-0.8-0.8-1.6-1-2.6c0.8,0.5,1.5,1.2,2,1.9c0.5,0.8,0.8,1.6,1,2.6
				C50.7,96.2,50,95.5,49.5,94.7z"/>
			<path class="st30" d="M50.6,92.3c-0.7,0.1-1.5,0.1-2.2-0.1c0.6-0.4,1.3-0.7,2.1-0.8c0.7-0.1,1.5-0.1,2.2,0.1
				C52.1,91.9,51.4,92.2,50.6,92.3z"/>
			<path class="st30" d="M39.2,84.5c0.1,1.6-0.1,3.2-0.6,4.7c-1.6-2.8-1.8-6.1-0.8-9.2C38.6,81.4,39.1,82.9,39.2,84.5z"/>
			<path class="st28" d="M40.7,86.4c-0.5,1.1-1.2,2-2.1,2.8c0-2.4,1.1-4.6,2.8-6.2C41.4,84.2,41.2,85.3,40.7,86.4z"/>
			<path class="st28" d="M37.3,86c0.7,1,1.1,2.1,1.4,3.2c-2.1-1.2-3.5-3.2-4-5.6C35.7,84.2,36.6,85,37.3,86z"/>
			<path class="st28" d="M47.1,91.6c-0.3,1.1-0.8,2.2-1.5,3.1c-0.2-1.2-0.2-2.3,0.1-3.5c0.3-1.1,0.8-2.2,1.5-3.1
				C47.4,89.2,47.4,90.4,47.1,91.6z"/>
			<path class="st31" d="M36.3,99.7c0.3,1.1,0.4,2.3,0.3,3.5c-0.8-0.9-1.4-1.9-1.7-3c-0.3-1.1-0.4-2.3-0.3-3.5
				C35.3,97.6,35.9,98.6,36.3,99.7z"/>
			<path class="st31" d="M30.9,98.7c0.9,0.3,1.7,0.7,2.5,1.3c-1.9,0.3-3.8-0.3-5.3-1.6C29.1,98.3,30,98.4,30.9,98.7z"/>
			<path class="st30" d="M43.1,94.8c0,1.2-0.2,2.3-0.7,3.4c-1-2.2-1-4.6-0.1-6.8C42.9,92.5,43.1,93.7,43.1,94.8z"/>
			<path class="st28" d="M46.2,86.4c-0.2,1.2-0.6,2.3-1.2,3.3c-0.6-2.3-0.2-4.8,1.1-6.7C46.4,84,46.4,85.2,46.2,86.4z"/>
			<path class="st29" d="M44.1,86.9c0.5,0.8,0.8,1.7,0.9,2.7c-0.8-0.6-1.4-1.3-1.9-2.1c-0.5-0.8-0.8-1.7-0.9-2.7
				C43,85.4,43.6,86.1,44.1,86.9z"/>
			<path class="st31" d="M38.3,105.8c0.8,0.5,1.4,1.2,1.9,2c-0.9-0.2-1.8-0.5-2.5-1c-0.8-0.5-1.4-1.2-1.9-2
				C36.7,104.9,37.5,105.2,38.3,105.8z"/>
			<path class="st31" d="M38,107.5c0.7-0.1,1.5,0,2.2,0.3c-1.3,0.7-2.9,0.9-4.3,0.4C36.5,107.8,37.3,107.5,38,107.5z"/>
			<path class="st29" d="M37,89.9c0.7,1,1.1,2.1,1.4,3.2c-1-0.6-1.9-1.4-2.6-2.3c-0.7-1-1.1-2.1-1.4-3.2C35.4,88.2,36.3,89,37,89.9z
				"/>
			<path class="st31" d="M42.8,102.9c-0.3-0.9-0.4-1.8-0.3-2.7c1.3,1.4,1.9,3.2,1.7,5.1C43.6,104.6,43.1,103.8,42.8,102.9z"/>
			<path class="st30" d="M44,101.8c-0.6-0.4-1.2-0.9-1.6-1.5c1.5,0.2,2.8,1,3.7,2.3C45.4,102.4,44.6,102.2,44,101.8z"/>
			<path class="st29" d="M37,95.3c0.6,0.6,1.1,1.2,1.4,2c-1.6-0.5-2.9-1.7-3.5-3.3C35.7,94.3,36.4,94.7,37,95.3z"/>
			<path class="st31" d="M43.8,113c-1-0.6-1.9-1.4-2.6-2.3c2.4,0.2,4.6,1.4,6,3.3C46,113.9,44.8,113.6,43.8,113z"/>
			<path class="st31" d="M43.8,110.4c-0.9,0.2-1.9,0.1-2.8-0.1c1.6-1.1,3.6-1.5,5.4-1C45.6,109.8,44.7,110.2,43.8,110.4z"/>
			<path class="st28" d="M43.5,101.1c-0.9-0.1-1.8-0.4-2.6-0.8c0.9-0.3,1.8-0.4,2.7-0.3c0.9,0.1,1.8,0.4,2.6,0.8
				C45.4,101.1,44.5,101.2,43.5,101.1z"/>
			<path class="st28" d="M43,99.5c-0.6,0.4-1.3,0.7-2.1,0.8c0.4-0.6,0.9-1.2,1.5-1.6c0.6-0.4,1.3-0.7,2.1-0.8
				C44.1,98.6,43.6,99.1,43,99.5z"/>
			<path class="st32" d="M33.9,101.2c1,0,1.9,0.1,2.8,0.5c-0.9,0.4-1.8,0.7-2.7,0.7c-0.9,0-1.9-0.1-2.8-0.5
				C32,101.5,32.9,101.3,33.9,101.2z"/>
			<path class="st33" d="M27.2,99.3c0,0,6.9,6.5,15.1,9.8"/>
			<path class="st33" d="M32.5,110c0.1-0.1,5-0.1,7.6-1.9"/>
			<path class="st33" d="M35.5,91.4c0,0-0.4,9,3.4,16.1"/>
			<path class="st33" d="M31.2,94.3c1.3,2.2,3,4.1,5.1,5.6"/>
			<path class="st32" d="M38.1,91.1c-0.9,0.4-1.8,0.5-2.7,0.5c0.6-0.7,1.4-1.2,2.2-1.6c0.9-0.4,1.8-0.5,2.7-0.5
				C39.7,90.2,39,90.7,38.1,91.1z"/>
			<path class="st32" d="M36.9,89.9c-0.4,0.7-0.8,1.2-1.4,1.7c0.1-1.5,0.8-2.9,2-3.8C37.4,88.5,37.2,89.2,36.9,89.9z"/>
			<path class="st32" d="M23.8,95.9c1.3,0.9,2.5,2,3.4,3.3c-3.2-0.5-6-2.3-7.8-5C20.9,94.5,22.4,95.1,23.8,95.9z"/>
			<path class="st32" d="M26.2,95.9c0.6,1,0.9,2.2,1,3.3c-1.9-1.4-3.1-3.6-3.2-6C24.9,94,25.6,94.9,26.2,95.9z"/>
			<path class="st32" d="M23.8,98.4c1.2,0.1,2.3,0.3,3.4,0.8c-1.1,0.4-2.3,0.7-3.4,0.6c-1.2-0.1-2.3-0.4-3.4-0.9
				C21.4,98.6,22.6,98.4,23.8,98.4z"/>
			<path class="st28" d="M34.2,94c0.7,0.9,1.3,2,1.6,3.1c-2.1-1.1-3.7-3-4.3-5.3C32.5,92.3,33.5,93.1,34.2,94z"/>
			<path class="st32" d="M34.1,107.6c1.1,0.4,2.1,1,3,1.8c-2.4,0.2-4.7-0.7-6.4-2.3C31.9,107,33,107.2,34.1,107.6z"/>
			<path class="st29" d="M30,111.1c0.8-0.5,1.6-0.9,2.6-1.1c-0.5,0.8-1.1,1.5-1.9,2.1c-0.8,0.6-1.7,0.9-2.6,1.2
				C28.6,112.4,29.3,111.7,30,111.1z"/>
			<path class="st32" d="M34.4,99.1c0.9,0.7,1.7,1.6,2.3,2.6c-1.1-0.3-2.2-0.8-3.2-1.4c-0.9-0.7-1.7-1.6-2.3-2.6
				C32.3,97.9,33.4,98.4,34.4,99.1z"/>
			<path class="st29" d="M29.5,91.5c0.8,0.9,1.4,1.9,1.8,3c-2.2-0.9-3.9-2.7-4.7-5C27.7,90,28.7,90.7,29.5,91.5z"/>
			<path class="st28" d="M28.7,93.5c0.9,0.1,1.8,0.4,2.7,0.9c-1.8,0.6-3.8,0.3-5.5-0.7C26.8,93.5,27.7,93.4,28.7,93.5z"/>
			<path class="st32" d="M40.1,109.6c0.9-0.3,1.8-0.4,2.7-0.3c-0.7,0.6-1.5,1.1-2.4,1.4c-0.9,0.3-1.8,0.4-2.7,0.3
				C38.5,110.3,39.3,109.9,40.1,109.6z"/>
			<path class="st32" d="M41.3,110.8c0.4-0.6,0.9-1.2,1.6-1.6c-0.1,0.7-0.4,1.4-0.8,2.1c-0.4,0.6-0.9,1.2-1.6,1.6
				C40.7,112.2,40.9,111.5,41.3,110.8z"/>
			<path class="st29" d="M26.8,101c1.2,0.1,2.3,0.3,3.4,0.8c-1.1,0.4-2.3,0.7-3.4,0.6c-1.2-0.1-2.3-0.3-3.4-0.8
				C24.4,101.2,25.6,101,26.8,101z"/>
			<path class="st32" d="M40.6,104.3c-0.9-0.3-1.7-0.8-2.4-1.4c1.9-0.2,3.7,0.4,5.1,1.7C42.4,104.7,41.5,104.6,40.6,104.3z"/>
			<path class="st29" d="M40.4,102.6c-0.7,0.3-1.5,0.4-2.2,0.3c1.1-1.1,2.5-1.6,4-1.6C41.7,101.9,41.1,102.3,40.4,102.6z"/>
			<path class="st32" d="M31.1,104.2c0.8-0.1,1.7-0.1,2.5,0.1c-1.4,0.9-3.1,1.2-4.8,0.8C29.5,104.7,30.2,104.4,31.1,104.2z"/>
			<path class="st32" d="M39.6,102.6c-0.6,0.7-1.4,1.2-2.3,1.6c0.3-0.9,0.8-1.7,1.4-2.3c0.6-0.7,1.4-1.2,2.2-1.6
				C40.7,101.1,40.2,101.9,39.6,102.6z"/>
			<path class="st32" d="M38,102c-0.1,0.7-0.3,1.5-0.6,2.1c-0.5-1.4-0.4-3,0.3-4.3C37.9,100.5,38,101.3,38,102z"/>
			<path class="st24" d="M8.4,127.3l3.3,13.3c0,0,2.8,2.6,8.1,2.1s6.4-2,6.4-2l3.5-13.5L8.4,127.3z"/>
			<path class="st25" d="M18.2,140.1c-4.2-2-5.4-9.9-0.4-10c3.9-0.2,7.7-0.8,11.5-1.6l0.3-1.1H8.4l3.3,13.3c0,0,2.8,2.6,8.1,2.1
				c3.7-0.3,5.4-1.1,6-1.6C23.2,141.5,20.6,141.1,18.2,140.1z"/>
			<ellipse class="st24" cx="19.3" cy="126.4" rx="12" ry="2.4"/>
			<polygon class="st24" points="6.8,122.3 7.3,126.5 31.3,126.4 31.9,122.3 			"/>
			<ellipse class="st26" cx="19.4" cy="122.3" rx="12.5" ry="2.4"/>
			<ellipse class="st27" cx="19.3" cy="122.2" rx="11.1" ry="1.8"/>
			<path class="st29" d="M9.4,115.7c0,0,11.2-13.2,9.1-16.5s-4,2.4-4,2.4s2.3-9.5-0.7-9.7S11,96.3,11,96.3s-0.1-7.6-3.5-7.3
				s-0.4,7.7-0.4,7.7s-3-5.6-4.6-2.5s5,10.4,5,10.4s-4.8-4.8-5.7-1.1C0.7,108,9.4,115.7,9.4,115.7z"/>
			<path class="st33" d="M8,116.5c0,0,4.5-9.8,2.2-16.9"/>
			<path class="st29" d="M24.2,111.9c0,0,9.6-7.7,8.7-10.4s-3.1,1.2-3.1,1.2s2.9-6.3,0.8-6.9S28,98.5,28,98.5s1-5.3-1.5-5.6
				s-1.3,5.4-1.3,5.4s-1.3-4.3-2.9-2.4s2.1,8,2.1,8s-2.7-4-3.8-1.5C19.2,105.3,24.2,111.9,24.2,111.9z"/>
			<path class="st33" d="M23.1,112.3c0,0,4.5-6.3,3.9-11.6"/>
			<path class="st30" d="M23,121.3c0,0-0.5-18.2,3.4-19.6s1.6,4.6,1.6,4.6s4.3-9.3,7-7.5s-0.6,5.4-0.6,5.4s5.1-6.2,7.7-3.7
				s-4.7,6.6-4.7,6.6s6.1-2.7,5.5,1s-10.9,5.3-10.9,5.3s7.1-0.8,5.4,2.9C35.2,120.6,23,121.3,23,121.3z"/>
			<path class="st33" d="M23.5,122.9c0,0,2.8-11.1,9.3-15.4"/>
			<path class="st31" d="M24.6,123.3c0,0-11.7-11.1-10.1-14.4s4,1.9,4,1.9s-3.1-8.6-0.3-9.1s3,3.8,3,3.8s-0.6-7,2.5-7.1
				s1.1,7.1,1.1,7.1s2.2-5.5,4-2.8s-3.6,10.2-3.6,10.2s4-5,5.2-1.6C31.8,115.3,24.6,123.3,24.6,123.3z"/>
			<path class="st33" d="M25.9,124c0,0-5.2-8.7-3.7-15.5"/>
			<path class="st30" d="M13.9,120.6c0,0,2.5-14.8-0.6-16.4s-1.9,3.6-1.9,3.6s-2.5-8.1-4.8-6.9s-0.1,4.5-0.1,4.5s-3.5-5.6-5.9-3.9
				s3.1,5.9,3.1,5.9s-4.7-2.8-4.6,0.2s8.3,5.5,8.3,5.5s-5.7-1.4-4.7,1.7C4,118.7,13.9,120.6,13.9,120.6z"/>
			<path class="st33" d="M13.2,121.8c0,0-1-9.4-5.9-13.6"/>
			<path class="st28" d="M15.1,123.4c0,0-7.6-11.2-5.8-13.7s2.9,2.3,2.9,2.3s-1-7.6,1.3-7.5s1.8,3.6,1.8,3.6s0.7-5.9,3.3-5.4
				s-0.3,6.1-0.3,6.1s2.8-4.1,3.8-1.6s-4.8,7.7-4.8,7.7s4.2-3.4,4.5-0.3C22.5,118.1,15.1,123.4,15.1,123.4z"/>
			<path class="st33" d="M16.1,124.2c0,0-2.7-8.1-0.3-13.4"/>
			<path class="st29" d="M23.6,121.7c0,0,6.8-1.7,6.9-3.2s-1.9-0.2-1.9-0.2s3-2.5,2.1-3.3s-1.9,0.8-1.9,0.8s1.8-2.5,0.6-3.2
				s-2,2.4-2,2.4s0.4-2.5-0.9-1.9s-0.9,4.6-0.9,4.6s-0.4-2.7-1.6-1.7C22.6,117.1,23.6,121.7,23.6,121.7z"/>
			<path class="st33" d="M23,121.7c0,0,3.8-2.2,4.8-5"/>
			<path class="st34" d="M67.3,76.8c4.8-1.8,9.2-4.7,12.7-8.4l5.2,6.7c-4.1,3.5-9.3,5.5-14.7,5.7L67.3,76.8z"/>
			<path class="st35" d="M99,60.5c0,0-2.2,3-6.1,8.1c-1.5,1.9-3.1,3.7-5,5.2c-0.9,0.7-1.9,1.4-2.9,2c-2.7-1.7-4.5-4.5-5.1-7.7
				c0.9-1,1.8-2,2.6-3.1c2.9-3.8,5.8-8.5,5.8-8.5L99,60.5z"/>
			<path class="st36" d="M87.9,73.4c-1,0.7-2,1.3-3.1,1.8c-2.6-1.5-4.3-4.1-4.6-7.1c0.8-0.8,1.6-1.7,2.3-2.7
				C82.7,67.3,83.7,70.6,87.9,73.4z"/>
			<path class="st35" d="M85.9,64.7c0,0,1.9,8.4,2.8,15.6S90,93.1,90,93.1s14.4,7.8,27.6-3.7c0,0-6.4-24.1-9.8-31.5
				c0,0-4.3-8.7-12.7-7.2c-8,1.4-6.3,8.2-6.3,8.2"/>
			<ellipse transform="matrix(0.6784 -0.7347 0.7347 0.6784 -10.576 85.8511)" class="st36" cx="92.8" cy="55" rx="6.7" ry="3"/>
			<path class="st37" d="M88.4,52.8c0,0,1.3,0.6,0.8,3.7s5.9,1.2,7.6-5.9c0,0-1.5-2.4-0.5-6.6S87.3,46.8,88.4,52.8z"/>
			<path class="st34" d="M68.6,45.1c-0.7-1.4-2.1-2.4-3.7-2.5c-2.7-0.3-2.1,3.9,0.3,6.4c2.5,2.5,4.9,2.1,5.5,0.7"/>
			<path class="st38" d="M69,48.5c0,0-3.5-3.9-5-1.9"/>
			<path class="st39" d="M69,48.5c-0.4-0.3-0.8-0.6-1.2-0.9c-0.4-0.3-0.8-0.5-1.3-0.7c-0.4-0.2-0.8-0.3-1.2-0.4
				c-0.4-0.1-0.9-0.1-1.2,0.1L64,46.5c0.2-0.6,0.8-1,1.4-1c0.6,0.1,1.1,0.3,1.6,0.7C67.8,46.8,68.4,47.6,69,48.5L69,48.5z"/>
			<path class="st38" d="M66.7,46.4c0,0-1,0.8,0.2,3.2"/>
			<path class="st39" d="M66.8,46.5c-0.1,0.2-0.2,0.5-0.2,0.8c0,0.3,0.1,0.5,0.2,0.7c0.1,0.2,0.3,0.4,0.3,0.7c0,0.3,0,0.6-0.1,0.9
				h-0.1c-0.3-0.1-0.6-0.3-0.8-0.6C66,48.7,65.9,48.3,66,48c-0.1-0.6,0.2-1.3,0.7-1.7L66.8,46.5z"/>
			<path class="st34" d="M98.9,33.9c2.2,9.8-2.4,18.7-10.2,22.4S70.2,59,66.2,45.2c-1-3.5-2.9-9.5-4.5-11.5
				c-2.9-3.6-3.9-2.5,3.6-8.2C87.1,8.7,96.8,24.4,98.9,33.9z"/>
			<path class="st40" d="M87.6,20.9c0,0-12.8,11-22.5,13.3l-0.3,7l-6.6-13.3L71.6,18l17.3-2l8.2,11l0.4,10.2
				c-1.1-2.8-2.9-5.2-5.1-7.2C88.8,27.2,87.6,20.9,87.6,20.9z"/>
			
				<ellipse transform="matrix(0.9003 -0.4352 0.4352 0.9003 -7.7442 40.7943)" class="st41" cx="85.2" cy="37.3" rx="4.1" ry="4.1"/>
			<path class="st42" d="M89,35.5c1,2.1,0.3,4.7-1.8,5.9c-2.2,1.3-5,0.6-6.3-1.5s-0.6-5,1.5-6.3c0.2-0.1,0.5-0.3,0.8-0.4
				C85.5,32.4,88,33.4,89,35.5z M88.9,35.5c-0.5-1-1.3-1.7-2.3-2c-1-0.3-2.1-0.3-3.1,0.2c-0.9,0.5-1.7,1.3-2,2.3
				c-0.7,2.1,0.4,4.4,2.4,5.1c0,0,0,0,0,0c2.1,0.7,4.3-0.4,5-2.4C89.4,37.6,89.3,36.5,88.9,35.5L88.9,35.5z"/>
			<ellipse transform="matrix(0.9003 -0.4352 0.4352 0.9003 -8.7259 40.8462)" class="st43" cx="84.8" cy="39.5" rx="2.1" ry="2"/>
			<ellipse transform="matrix(0.9003 -0.4352 0.4352 0.9003 -7.9859 40.65)" class="st41" cx="84.8" cy="37.8" rx="0.6" ry="0.6"/>
			
				<ellipse transform="matrix(0.9003 -0.4352 0.4352 0.9003 -11.2623 35.6766)" class="st41" cx="72.3" cy="42.4" rx="3.5" ry="3.9"/>
			<path class="st42" d="M75.5,40.9c0.4,0.9,0.6,1.9,0.4,2.9c-0.2,1.1-0.8,2-1.7,2.6c-1,0.6-2.2,0.7-3.3,0.3
				c-2.3-0.9-3.6-3.4-2.8-5.8c0.4-1.1,1.2-2,2.3-2.4c1-0.4,2.2-0.3,3.1,0.3C74.3,39.2,75,40,75.5,40.9z M75.4,40.9
				c-0.4-0.9-1.1-1.6-2-2c-1.6-0.7-3.5,0-4.3,1.6c-0.1,0.2-0.2,0.4-0.2,0.6c-0.5,1.9,0.5,3.9,2.3,4.7c1.6,0.8,3.5,0.1,4.3-1.5
				c0.1-0.2,0.2-0.4,0.2-0.6C75.9,42.8,75.8,41.8,75.4,40.9z"/>
			<ellipse transform="matrix(0.9003 -0.4352 0.4352 0.9003 -12.0408 35.9099)" class="st43" cx="72.4" cy="44.2" rx="2" ry="1.9"/>
			
				<ellipse transform="matrix(0.9003 -0.4352 0.4352 0.9003 -11.3727 35.8759)" class="st41" cx="72.6" cy="42.8" rx="0.5" ry="0.5"/>
			<path class="st42" d="M76.2,40.6c0.5,0.2,1,0.5,1.3,0.9c0.4,0.4,0.8,0.9,1,1.4c0.3,0.6,0.3,1.2,0.3,1.8c-0.1,0.7-0.4,1.3-0.8,1.8
				l0.1-0.9c0,0.1,0.1,0.3,0.2,0.4c0.1,0.1,0.3,0.2,0.5,0.3c0.3,0.1,0.5,0.1,0.8,0.1c0.3,0,0.6-0.1,0.9-0.1l0.1,0.1
				c-0.5,0.4-1.1,0.6-1.8,0.7c-0.7,0-1.3-0.4-1.6-1l0,0l0,0c0.3-0.4,0.5-0.8,0.6-1.3c0.1-0.5,0-1-0.1-1.4c-0.3-0.9-0.8-1.8-1.5-2.5
				L76.2,40.6z"/>
			<path class="st43" d="M79.9,31.7c-0.7-0.7-0.7-1.7,0-2.4c0.2-0.2,0.3-0.3,0.5-0.4c1.7-1,4.7-0.6,7,0.7c0.1,0.1,0.2,0.3,0.1,0.4
				c-0.1,0.1-0.2,0.2-0.3,0.1C85.4,30.1,82.2,30,79.9,31.7z"/>
			<path class="st43" d="M71.1,34.5c0,0-0.4-2.1-2.2-1.4c-1.6,0.6-2.8,3-2.9,5.5c0,0.3,0.4,0.5,0.5,0.2
				C67.2,37.5,68.8,35.1,71.1,34.5z"/>
			<path class="st44" d="M87.9,19.1c0,0-8.3,5.6-13.5,4.6c-1.1,2.2-3.2,3.6-5.6,3.8c0,0,1.3,2.8-4.4,5.1c0,0-0.1,7.7,0.9,9.9
				c0,0-7.6-5.1-8.2-12.5s2-13.8,11.6-19.4S88.6,9,91.5,11.9l-1.9-4.1c0,0,2.6,1.4,2.8,3.9c0,0,0.6-1.4,3.3-0.6c0,0-2.3,1-2.1,2.2
				c2.4,0.8,4.4,2.3,5.6,4.5c2.5,3.7,4.5,11.5,2.6,15.5c0,0-3.2,1-3.2,3.6c0,0-1.1,2.1-1.6-1.7s-7.4-7.6-9.2-15.6L87.9,19.1z"/>
			<path class="st34" d="M97.6,37.8c0,0-0.6-2.5,2.2-5.3s5.5,0.5,4.7,4.5s-3.9,6.2-5.6,5.8"/>
			<path class="st38" d="M99.8,40.4c0,0,0.8-6,4.2-6.1"/>
			<path class="st39" d="M99.8,40.4c0.1-1.4,0.4-2.7,0.9-3.9c0.2-0.7,0.6-1.3,1.2-1.8c0.6-0.5,1.4-0.6,2.1-0.5v0.1
				c-0.5,0.3-1,0.6-1.4,1.1c-0.4,0.4-0.8,0.9-1.2,1.4C100.7,38,100.2,39.2,99.8,40.4L99.8,40.4z"/>
			<path class="st38" d="M100.7,36.9c0,0,1.8-0.4,2.3,2.3"/>
			<path class="st39" d="M100.7,36.9c0.3-0.1,0.7-0.2,1-0.1c0.4,0.1,0.7,0.3,0.9,0.5c0.3,0.2,0.5,0.5,0.6,0.8c0.1,0.3,0,0.7-0.2,1
				H103c-0.3-0.2-0.5-0.4-0.7-0.7c-0.2-0.2-0.2-0.5-0.3-0.7C101.8,37.3,101.3,36.9,100.7,36.9L100.7,36.9z"/>
			<path class="st44" d="M87.7,19.4c0,0-10.8,12.1-23.5,13.6c-12.6,1.5,13.4-16.2,13.4-16.2l12-1L87.7,19.4z"/>
			<path class="st45" d="M87.4,45.2c0,0,0.7,6.3-3.4,8.3c0,0-4.8,1.9-8-4C80.3,50.4,84.8,48.7,87.4,45.2z"/>
			<path class="st46" d="M87.4,45.1c0,0,0.4,5.2-3.7,7.2c-2.9,0.9-6-0.2-7.6-2.8C80.4,50.3,84.8,48.6,87.4,45.1z"/>
			<path class="st47" d="M86.3,46.4c-0.4,1.5-1.4,2.8-2.7,3.6c-1.9,1-4.2,0.8-5.9-0.5C80.8,49.7,83.9,48.6,86.3,46.4z"/>
			<path class="st45" d="M87.5,45c-1.4,1.6-3.1,2.8-5.1,3.5c-2,0.7-4.1,1-6.3,1C76.1,49.5,83.5,51.2,87.5,45z"/>
			<path class="st48" d="M86.9,44.7c0.5,0.3,0.9,0.7,1.1,1.2C87.9,45.3,87.5,44.8,86.9,44.7z"/>
			<path class="st48" d="M76.3,48.5c-0.2,0.5-0.3,1.1-0.2,1.7C75.8,49.7,75.9,49,76.3,48.5z"/>
			<path class="st49" d="M86.1,50.3c-1-0.4-2.1-0.1-2.8,0.7c0,0-1.3-0.2-2.8,1.6C82.6,53.2,85,52.2,86.1,50.3z"/>
			<path class="st34" d="M70.1,75.6c0,0-5.1,1.7-7,3.2c-0.4,0.4-0.4,1,0,1.4c0.7,0.7,3.4-1.4,2.9,0.5s-1.4,6-1.4,6s-0.3,1.7,2.6,0.8
				c0,0,0.9,1,2.8-0.5c0,0,1.6,1.1,3.3-1.6l1.9-6.1"/>
			<path class="st38" d="M66.7,87.6c0,0,0.8,0,1.1-1.8s0.3-2.7,0.3-2.7"/>
			<path class="st50" d="M66.7,87.1c-0.1,0,0.1,0,0.2-0.1c0.1-0.1,0.2-0.2,0.3-0.4c0.2-0.3,0.3-0.7,0.4-1.1l0.6-2.4l-0.1,2.5
				c0,0.4-0.1,0.9-0.2,1.3c-0.1,0.2-0.2,0.5-0.4,0.7c-0.2,0.3-0.5,0.5-0.9,0.5L66.7,87.1z"/>
			<path class="st38" d="M69.7,87.3c0,0,0.5-0.3,0.8-1.7c0.2-0.8,0.3-1.7,0.3-2.6"/>
			<path class="st50" d="M69.4,86.8C69.4,86.9,69.4,86.8,69.4,86.8c0.1,0,0.2-0.1,0.2-0.2c0.1-0.1,0.2-0.3,0.3-0.4
				c0.2-0.3,0.3-0.7,0.4-1c0.2-0.7,0.4-1.5,0.4-2.2c0.1,0.8,0.1,1.5,0,2.3c0,0.4-0.1,0.8-0.2,1.2c-0.1,0.2-0.1,0.4-0.2,0.6
				c-0.1,0.1-0.1,0.2-0.2,0.3c-0.1,0.1-0.2,0.3-0.3,0.3L69.4,86.8z"/>
			<path class="st38" d="M72.9,86.1c0.7-1.1,0.9-2.3,0.7-3.6"/>
			<path class="st50" d="M72.5,85.8c0.2-0.2,0.3-0.4,0.5-0.6c0.1-0.3,0.3-0.5,0.3-0.8c0.2-0.6,0.3-1.2,0.3-1.8
				c0.2,0.6,0.2,1.3,0.2,1.9c0,0.3-0.1,0.7-0.1,1c-0.1,0.3-0.2,0.7-0.4,1L72.5,85.8z"/>
			<path class="st51" d="M58.6,86.5l11.7-10.4c1.3-1.1,3.2-1.2,4.6-0.1l2.2,1.8c1.5,1.2,1.7,3.4,0.5,5c0,0.1-0.1,0.1-0.1,0.1
				L66.6,94.5c-1.2,1.4-3.3,1.6-4.8,0.5c-0.1-0.1-0.1-0.1-0.2-0.2l-3.2-3.2c-1.4-1.4-1.4-3.6,0-5C58.5,86.6,58.5,86.5,58.6,86.5z"/>
			<path class="st51" d="M67.9,93.1c-2.7,7.4-8.8,5.5-11.2,3.1s-3.6-8.7,2.5-10.4"/>
			<path class="st52" d="M57.4,93.5c0,0-0.6-3.2,4.3-6.9s12.7-10.4,12.7-10.4c0.7,0.2,1.2,0.7,1.6,1.3L63,88.4c0,0-4.2,3.5-3.5,7.7
				L57.4,93.5z"/>
			
				<linearGradient id="SVGID_7_" gradientUnits="userSpaceOnUse" x1="69.2598" y1="80.6292" x2="66.0898" y2="40.4892" gradientTransform="matrix(1 0 0 -1 0 162)">
				<stop  offset="0.1" style="stop-color:#286BAD"/>
				<stop  offset="0.13" style="stop-color:#3476B3"/>
				<stop  offset="0.23" style="stop-color:#5B96C7"/>
				<stop  offset="0.33" style="stop-color:#7BB1D7"/>
				<stop  offset="0.44" style="stop-color:#94C6E4"/>
				<stop  offset="0.55" style="stop-color:#A5D4ED"/>
				<stop  offset="0.67" style="stop-color:#B0DDF2"/>
				<stop  offset="0.81" style="stop-color:#B3E0F4"/>
			</linearGradient>
			<path class="st53" d="M59.5,95.5c0,0,4.1-0.5,8.2-4.7s10-11.8,10-11.8s1.3,0.8-0.1,3.3L68,92.8c0,0-3,8.3-9,4.5L59.5,95.5z"/>
			<path class="st54" d="M59,93.6c1.2,1.3,1.4,2.9,0.7,3.6c-1.9,2-2.3,0.1-3.5-1.2s-2.9-2.1-0.7-3.6C56.4,91.9,57.9,92.3,59,93.6z"
				/>
			<ellipse transform="matrix(0.7539 -0.657 0.657 0.7539 -48.8139 60.8724)" class="st51" cx="56.8" cy="95.6" rx="1.9" ry="3.2"/>
			<path class="st51" d="M59,97.6c-0.5,0.4-1.4,0.1-2.3-0.7c-0.2-0.2-0.5-0.4-0.7-0.6c-1-1.2-1.4-2.6-0.9-3.1s1.9,0.1,2.9,1.3
				c0.2,0.2,0.3,0.4,0.4,0.6C59.3,96.1,59.5,97.2,59,97.6z"/>
			<path class="st55" d="M59,97.6c-0.5,0.4-1.4,0.1-2.3-0.7l1.8-1.9C59.3,96.1,59.5,97.2,59,97.6z"/>
			<path class="st56" d="M59,86c0,0,1.5-0.5,5,2.9s3.5,4.9,3.5,4.9s-0.1-2.3-3.2-5.3S59,86,59,86z"/>
			<path class="st34" d="M77,84.7c0,0,11.1-0.2,18.5-6.4c-3-1.2-5.6-3.4-7.1-6.2c0,0-6.9,6.1-14,6.5c-1.2,0.5-2,1.6-2.1,2.8
				C72.3,85.2,77,84.7,77,84.7"/>
			<path class="st34" d="M74.4,78.5c-2.5,0.5-5.1,0.5-7.7,0.1c-0.5,0.2-0.7,0.8-0.5,1.3c0.3,0.9,0.8,1.3,2.8,1.2
				c5.3-0.1,2.7,7.1,1.7,8.2c-2.8,3.4-2.1,4.4,4.5-0.7c1.6-1.2,2.6-2.9,3.1-4.8"/>
			<path class="st38" d="M74.8,87.3c-0.3,1.4-1.1,2.7-2.4,3.5"/>
			<path class="st39" d="M74.8,87.3c0.1,0.4,0.1,0.8,0,1.2c-0.1,0.4-0.3,0.7-0.5,1.1c-0.5,0.7-1.1,1.1-1.9,1.2
				c0.1-0.3,0.3-0.7,0.5-1c0.2-0.3,0.4-0.6,0.6-0.8C73.9,88.4,74.3,87.9,74.8,87.3z"/>
			<path class="st38" d="M76.7,86.5c-0.5,1.4-1.6,2.5-2.9,3.1"/>
			<path class="st39" d="M76.7,86.5c0.1,0.4,0,0.8-0.2,1.2c-0.2,0.4-0.4,0.7-0.7,1c-0.6,0.6-1.3,0.9-2.1,0.9
				c0.2-0.3,0.4-0.6,0.7-0.9c0.2-0.3,0.5-0.5,0.7-0.7C75.7,87.5,76.1,87.1,76.7,86.5z"/>
			<path class="st35" d="M106,68.7l-6.4,6.8l-3.2,3.4c-4.1-0.9-7.4-3.7-9-7.6c0,0,1.1-1.3,2.6-3.2c2.3-2.9,5.7-7.2,7.2-9.5"/>
			<path class="st36" d="M99.3,75.5l-3,3.4c-3.9-1-7.1-3.8-8.5-7.6c0,0,1-1.3,2.5-3.2C92.3,71.6,95.5,74.2,99.3,75.5z"/>
			
				<linearGradient id="SVGID_8_" gradientUnits="userSpaceOnUse" x1="48.11" y1="55.19" x2="59.014" y2="55.19" gradientTransform="matrix(1 0 0 -1 0 162)">
				<stop  offset="0" style="stop-color:#FFFFFF"/>
				<stop  offset="0.43" style="stop-color:#B3E0F4"/>
				<stop  offset="0.83" style="stop-color:#3476B7"/>
			</linearGradient>
			<path class="st57" d="M59,97.6c0,0-7.9,8.7-7.4,18.8c0,0-0.2,0.3-3.1,0.6c-1.1-2.4-0.7-9.6,8.5-20.2"/>
			
				<linearGradient id="SVGID_9_" gradientUnits="userSpaceOnUse" x1="-486.0233" y1="710.1273" x2="-463.7133" y2="710.1273" gradientTransform="matrix(0.75 -0.36 -0.38 -0.78 670.21 495.96)">
				<stop  offset="8.000000e-02" style="stop-color:#286BAD"/>
				<stop  offset="0.12" style="stop-color:#3675B2"/>
				<stop  offset="0.3" style="stop-color:#739EC9"/>
				<stop  offset="0.47" style="stop-color:#A5C1DD"/>
				<stop  offset="0.63" style="stop-color:#CCDCEC"/>
				<stop  offset="0.78" style="stop-color:#E8EFF6"/>
				<stop  offset="0.9" style="stop-color:#F9FBFD"/>
				<stop  offset="1" style="stop-color:#FFFFFF"/>
			</linearGradient>
			<path class="st58" d="M51,104.4c-3.1,3.3-4.3,7.9-3.3,12.3c0,0-0.3,1.4-1.3-0.4s-0.4-8.6,4.8-12.3"/>
			<path class="st59" d="M90,93.1c0,0-0.5,2.4-3.1,15.5c0,0-0.8,2.7,1.4,13.5c0.6,3.1,1.4,6.1,2.4,9l0,0c0,0,5.8,2.2,8.7-0.8
				c0,0-0.7-9.2-1.6-17.6l4-6.6c0.6,4,1.9,7.8,3.9,11.3c3.4,6,5.4,16.1,5.4,16.1c2.5,1.9,5.8,2.1,8.5,0.7
				c-0.3-5.6-0.9-11.1-1.8-16.6c-1.5-8.7,0.8-18.4-1.3-27.7C116.4,89.8,104.5,99.6,90,93.1z"/>
			<path class="st59" d="M101.8,106.1c0,0-2.5-0.7-3.8-5.7"/>
			<path class="st60" d="M88.1,133.1c0,0-1.1-4.3,2.6-5.1c0,0,3.2,0.1,3.1,4.6c0,0,4.5,1.3,5.6-1.5c0,0,0.5,3.8-0.2,5.4
				s-2.4,2.1-5.6,3.2s-6.2,4.8-12.5,2.4c-1.5-0.6-2.3-2.4-1.6-3.9c0,0,0,0,0,0c0.3-0.6,0.7-1.2,1.2-1.7
				C83.7,133.8,85.6,133.8,88.1,133.1z"/>
			<path class="st61" d="M88.2,131.4c0,0-1.1-4.3,2.6-5.1c0,0,3.2,0.1,3,4.7c0,0,4.5,1.3,5.6-1.5c0,0,0.4,3.8-0.2,5.4
				s-2.4,2.2-5.6,3.2s-6.2,4.8-12.5,2.4c-1.5-0.6-2.3-2.4-1.6-3.9c0,0,0,0,0,0c0.3-0.6,0.7-1.2,1.2-1.7
				C83.7,132,85.6,132,88.2,131.4z"/>
			<path class="st62" d="M87.7,131c1.4,0.3,2.6,1.1,3.4,2.3l-1.3,0.6c-1-1.2-2.4-2-4-2.2l0,0C86.2,131,87,130.8,87.7,131L87.7,131z"
				/>
			<path class="st62" d="M85.2,132.1c0,0,3,1,4.2,2.6l-1.5,0.6c0,0-2.5-2.2-4.9-2.2C83,133.1,83.1,131.4,85.2,132.1z"/>
			<path class="st60" d="M109.8,135.8c0,0-0.9-2.4,1.9-4.4c0,0,4.2-1.3,4.2,4.3c0,0,2.3,0.1,3.2-3.3c0,0,0.4-2.2,1,1.9s0.7,4.3-1,6
				s-3.1,5.4-7.8,5.4s-7.1-1.2-6.6-4.3S109.8,135.8,109.8,135.8z"/>
			<path class="st61" d="M109.8,133.9c0,0-0.9-2.4,1.9-4.4c0,0,4.2-1.3,4.2,4.3c0,0,2.3,0.1,3.2-3.3c0,0,0.4-2.2,1,1.9s0.7,4.3-1,6
				s-3.1,5.4-7.8,5.4s-7.1-1.2-6.6-4.3S109.8,133.9,109.8,133.9z"/>
			<path class="st62" d="M108.3,134.7c0,0,2.3-1,5.9,1.8c0,0,2.6-0.1-0.2-1.7S107.1,132.9,108.3,134.7z"/>
			<path class="st62" d="M107,135.9c0,0,2.3-1,5.9,1.8c0,0,2.6-0.1-0.2-1.7S105.8,134.2,107,135.9z"/>
		</g>
	</g>
	
		<radialGradient id="SVGID_10_" cx="-776.5529" cy="259.2046" r="211.64" gradientTransform="matrix(0.35 0 0 -0.33 348.33 165.66)" gradientUnits="userSpaceOnUse">
		<stop  offset="0" style="stop-color:#FFFFFF"/>
		<stop  offset="0.43" style="stop-color:#D3F9FC"/>
	</radialGradient>
	<path class="st63" d="M152.2,79.9c0,38.6-33,69.9-73.7,69.9S4.7,118.5,4.7,79.9S37.7,10,78.4,10S152.2,41.3,152.2,79.9z"/>
	<path class="st64" d="M82.7,142.3C42,142.3,9,111,9,72.4c0-10,2.2-19.8,6.6-28.8c-0.8,1.2-1.6,2.4-2.3,3.6
		C7.1,57.5,3.9,69.3,3.8,81.3c0,38.6,33,69.9,73.7,69.9c29.9,0,55.6-16.9,67.2-41.1C131.7,129.5,108.8,142.3,82.7,142.3z"/>
	<path class="st65" d="M23.2,55.2c3-10.9,11.9-21.4,30.2-28.1c2.1-0.8,3.1-3.1,2.3-5.2c-0.2-0.5-0.5-0.9-0.9-1.3l-0.4-0.4
		c-1-1-2.5-1.4-3.9-1c-6.9,2.1-24.7,12.2-30.5,35.1c-0.2,0.7,0.1,1.4,0.7,1.8l0,0c0.8,0.5,1.8,0.3,2.3-0.4
		C23.1,55.5,23.1,55.3,23.2,55.2z"/>
	<circle class="st65" cx="20.6" cy="61" r="2.5"/>
</g>
<g class="st66">
	<path d="M128.3,24.1c-30-27.9-77-26.3-105,3.8C10.6,41.5,3.5,59.4,3.4,78.1c0,2.3,0.1,4.5,0.3,6.8c0,0.2,0,0.5,0,0.7
		c0,0,0,0.1,0,0.1c1.3,18.8,10.4,36.3,25,48.2c28.5,29.5,75.5,30.3,105,1.8s30.3-75.5,1.8-105C133.3,28.3,130.8,26.1,128.3,24.1
		L128.3,24.1z"/>
</g>
</svg>
