<?xml version="1.0" encoding="utf-8"?>
<!-- Generator: Adobe Illustrator 25.2.3, SVG Export Plug-In . SVG Version: 6.00 Build 0)  -->
<svg version="1.1" id="Layer_1" xmlns="http://www.w3.org/2000/svg" xmlns:xlink="http://www.w3.org/1999/xlink" x="0px" y="0px"
	 viewBox="0 0 490 425" style="enable-background:new 0 0 490 425;" xml:space="preserve">
<style type="text/css">
	.st0{fill:#78EFE9;}
	.st1{fill:#0072AB;}
	.st2{fill:#74879E;}
	.st3{clip-path:url(#SVGID_2_);}
	.st4{fill:#BDCBE0;}
	.st5{fill:#CEDAE6;}
	.st6{fill:none;stroke:#D3C9D1;stroke-width:2;stroke-miterlimit:10;}
	.st7{opacity:0.75;fill:none;stroke:#DDDDDD;stroke-width:2;stroke-miterlimit:10;enable-background:new    ;}
	.st8{fill:#8CACC3;}
	.st9{fill:#C1E9F4;}
	.st10{fill:#E86A4D;}
	.st11{fill:#DB5B46;}
	.st12{fill:#6D2C21;}
	.st13{opacity:0.3;}
	.st14{fill:#983B39;stroke:#EF9595;stroke-width:0.5;stroke-miterlimit:10;}
	.st15{fill:#E0E5DF;}
	.st16{fill:#983B39;}
	.st17{fill:#3F493F;}
	.st18{fill-rule:evenodd;clip-rule:evenodd;fill:#F4EDEE;}
	.st19{fill-rule:evenodd;clip-rule:evenodd;fill:#C0CACE;}
	.st20{fill:#A6A8AB;}
	.st21{fill-rule:evenodd;clip-rule:evenodd;fill:#808184;}
	.st22{fill-rule:evenodd;clip-rule:evenodd;fill:#231F20;}
	.st23{fill-rule:evenodd;clip-rule:evenodd;fill:#6D6E70;}
	.st24{fill-rule:evenodd;clip-rule:evenodd;fill:#626366;}
	.st25{fill-rule:evenodd;clip-rule:evenodd;fill:#58595B;}
	.st26{fill-rule:evenodd;clip-rule:evenodd;fill:#4D4D4F;}
	.st27{fill-rule:evenodd;clip-rule:evenodd;fill:#404041;}
	.st28{fill:#FFFFFF;}
	.st29{fill:#BBBDBF;}
	.st30{fill:#E6E7E8;}
	.st31{fill:#8C8C8C;}
	.st32{fill-rule:evenodd;clip-rule:evenodd;fill:#AAAAAA;}
	.st33{fill-rule:evenodd;clip-rule:evenodd;fill:#7C7C7C;}
	.st34{fill-rule:evenodd;clip-rule:evenodd;fill:#C9C9C9;}
	.st35{fill-rule:evenodd;clip-rule:evenodd;fill:#333333;}
	.st36{fill-rule:evenodd;clip-rule:evenodd;fill:#5E5D5E;}
	.st37{fill:#E52940;}
	.st38{fill-rule:evenodd;clip-rule:evenodd;fill:#F24E71;}
	.st39{fill-rule:evenodd;clip-rule:evenodd;fill:#D12845;}
	.st40{fill-rule:evenodd;clip-rule:evenodd;fill:#E57089;}
	.st41{fill-rule:evenodd;clip-rule:evenodd;fill:#8E1730;}
	.st42{fill-rule:evenodd;clip-rule:evenodd;fill:#BA243D;}
	.st43{fill:#C1C2B4;}
	.st44{fill:#332C38;}
	.st45{fill:#A64700;}
	.st46{fill:#89C433;}
	.st47{fill:#739B43;}
	.st48{fill:#4D5050;}
	.st49{fill:#337100;}
	.st50{fill:#3E8A00;}
	.st51{fill:#FCDFC7;}
	.st52{fill:#87AED9;}
	.st53{fill:#98B7D9;}
	.st54{fill:#596F87;}
	.st55{fill:#CCECFF;}
	.st56{fill:#131014;}
	.st57{opacity:0.2;}
	.st58{fill:#3E4051;}
	.st59{fill:#191B2D;}
	.st60{fill:#636675;}
	.st61{fill:#505366;}
	.st62{fill:#333644;}
	.st63{fill:#0D5E82;}
	.st64{fill:#268EAA;}
	.st65{fill:#CC413E;}
	.st66{fill:#D3534B;}
	.st67{fill:#535557;}
	.st68{fill:#212328;}
	.st69{clip-path:url(#SVGID_4_);}
	.st70{opacity:5.000000e-02;fill:#FFFFFF;enable-background:new    ;}
	.st71{opacity:0.15;fill:#FFFFFF;enable-background:new    ;}
	.st72{opacity:0.3;enable-background:new    ;}
	.st73{fill:#218780;}
	.st74{opacity:0.3;fill:#212328;enable-background:new    ;}
	.st75{fill:#919598;}
	.st76{opacity:0.4;fill:#FFFFFF;enable-background:new    ;}
	.st77{fill:#55585E;}
	.st78{fill:#D6D6D6;}
	.st79{clip-path:url(#SVGID_6_);}
	.st80{opacity:0.25;fill:#FFFFFF;enable-background:new    ;}
	.st81{fill:#14635B;}
	.st82{fill:#204A87;}
	.st83{fill:#1A3D6F;}
	.st84{fill:#39629D;}
	.st85{fill:#D7E9F0;}
	.st86{fill:#EAF3F7;}
	.st87{opacity:0.2;fill:#2A4F51;enable-background:new    ;}
	.st88{fill:#161717;}
	.st89{fill:#246182;}
	.st90{fill:#282828;}
	.st91{fill:#1F5266;}
	.st92{opacity:0.4;fill:#F2F2F2;enable-background:new    ;}
	.st93{opacity:0.29;}
	.st94{fill:#2D2C2C;}
	.st95{fill:url(#SVGID_7_);}
	.st96{fill:#D6D8D9;}
	.st97{fill:#666666;}
	.st98{opacity:0.2;fill-rule:evenodd;clip-rule:evenodd;fill:#1C1C1C;enable-background:new    ;}
	.st99{fill-rule:evenodd;clip-rule:evenodd;fill:#888989;}
	.st100{fill-rule:evenodd;clip-rule:evenodd;fill:#717272;}
	.st101{fill-rule:evenodd;clip-rule:evenodd;fill:#A2A5A5;}
	.st102{clip-path:url(#SVGID_9_);}
	.st103{fill:#929497;}
	.st104{fill-rule:evenodd;clip-rule:evenodd;fill:#CDCECD;}
	.st105{clip-path:url(#SVGID_11_);}
	.st106{fill-rule:evenodd;clip-rule:evenodd;fill:#929497;}
	.st107{fill-rule:evenodd;clip-rule:evenodd;fill:#B7B9BB;}
	.st108{fill-rule:evenodd;clip-rule:evenodd;fill:#BBBDBF;}
	.st109{fill-rule:evenodd;clip-rule:evenodd;fill:#E6E7E8;}
	.st110{fill-rule:evenodd;clip-rule:evenodd;fill:#FFFFFF;}
	.st111{fill-rule:evenodd;clip-rule:evenodd;fill:#A6A8AB;}
	.st112{clip-path:url(#SVGID_13_);}
	.st113{fill-rule:evenodd;clip-rule:evenodd;fill:#D0D2D3;}
	.st114{clip-path:url(#SVGID_15_);}
	.st115{fill:#846A66;}
	.st116{fill:#775956;}
	.st117{fill:#06F3F9;stroke:#63490A;stroke-miterlimit:10;}
	.st118{fill:#63490A;}
	.st119{fill:#F8E38D;stroke:#756316;stroke-miterlimit:10;}
	.st120{fill:#F9DAD2;stroke:#7F430D;stroke-width:0.75;stroke-miterlimit:10;}
	.st121{fill:#EAB8AD;}
	.st122{fill:#C9930E;stroke:#63490A;stroke-miterlimit:10;}
	.st123{fill:#EE1B22;stroke:#910C16;stroke-miterlimit:10;}
	.st124{fill:#EFD8D9;stroke:#910C16;stroke-width:0.75;stroke-miterlimit:10;}
	.st125{fill:#F2E7E8;}
	.st126{opacity:0.13;fill:#323232;enable-background:new    ;}
	.st127{fill:#342516;}
	.st128{fill:#EFE940;stroke:#47430F;stroke-miterlimit:10;}
	.st129{fill:#7F430D;}
	.st130{fill:#F4FF51;}
	.st131{fill:#73750B;}
	.st132{fill:#421111;}
	.st133{fill:#46470B;}
	.st134{fill:#F9988F;}
	.st135{fill:#FF9033;stroke:#AF5817;stroke-width:0.25;stroke-miterlimit:10;}
	.st136{fill:#F5711F;}
	.st137{fill:#FF821A;}
	.st138{fill:#FFB433;}
	.st139{fill:#FF9933;}
	.st140{fill:#F06E10;}
	.st141{opacity:0.3;fill:#98CC00;enable-background:new    ;}
	.st142{clip-path:url(#SVGID_17_);}
	.st143{fill:#232818;}
	.st144{fill:#879399;stroke:#5E2C0B;stroke-width:0.25;stroke-miterlimit:10;}
	.st145{fill:#C2CACF;}
	.st146{fill:#13160D;}
	.st147{fill:#9BA6AB;}
	.st148{fill:#D5DCE0;}
	.st149{fill:#C0E673;}
	.st150{fill:#56F4F4;stroke:#63490A;stroke-miterlimit:10;}
	.st151{fill:#EE1B22;}
	.st152{fill:#910C16;}
	.st153{fill:#DEA644;stroke:#BC3B4A;stroke-width:0.25;stroke-miterlimit:10;}
	.st154{fill:#FEED91;stroke:#B3C161;stroke-width:0.25;stroke-miterlimit:10;}
	.st155{fill:#DEA644;}
	.st156{fill:#FEED91;stroke:#C1D372;stroke-width:0.25;stroke-miterlimit:10;}
	.st157{opacity:0.33;}
	.st158{fill:#E0B770;}
	.st159{fill:#A5837C;}
	.st160{fill:#756316;}
	.st161{fill:#FF5151;}
	.st162{fill:#D4D4D4;}
	.st163{fill:#494949;}
	.st164{fill:#DEDEDE;}
	.st165{fill:#4EA43E;}
	.st166{fill:#D30F00;stroke:#B71515;stroke-width:0.75;stroke-miterlimit:10;}
	.st167{fill:#749405;stroke:#B71515;stroke-width:0.25;stroke-miterlimit:10;}
	.st168{fill:#EA2900;}
	.st169{opacity:0.34;fill:#323232;enable-background:new    ;}
	.st170{fill:#B16E6E;}
	.st171{fill:#AFD66E;}
	.st172{fill:#EDEDED;}
	.st173{fill:#479138;}
	.st174{fill:#451D47;}
	.st175{fill:#9AB00F;stroke:#870C06;stroke-width:0.5;stroke-miterlimit:10;}
	.st176{fill:#5B2A5E;}
	.st177{opacity:0.53;fill:#FFFFFF;enable-background:new    ;}
	.st178{opacity:0.33;fill:#FFFFFF;enable-background:new    ;}
</style>
<polygon class="st0" points="359.8,13.6 130.2,13.6 15.3,212.5 130.2,411.4 359.8,411.4 474.7,212.5 "/>
<polygon class="st1" points="353.3,24.9 136.7,24.9 28.3,212.5 136.7,400.1 353.3,400.1 461.7,212.5 "/>
<polygon class="st2" points="351.5,28 138.5,28 32,212.5 138.5,397 351.5,397 458,212.5 "/>
<g>
	<defs>
		<polygon id="SVGID_1_" points="351.5,28 138.5,28 32,212.5 138.5,397 351.5,397 458,212.5 		"/>
	</defs>
	<clipPath id="SVGID_2_">
		<use xlink:href="#SVGID_1_"  style="overflow:visible;"/>
	</clipPath>
	<g class="st3">
		<polygon class="st4" points="-46.3,366 95.7,248.5 514.9,249.7 514.9,386 -46,386 		"/>
		<path class="st5" d="M-13.2,404.4h549.5v-83.2C536.3,321.1,208.6,263.3-13.2,404.4z"/>
		<line class="st6" x1="77" y1="394.6" x2="186.9" y2="265.5"/>
		<line class="st7" x1="201.7" y1="394.6" x2="265.3" y2="270.8"/>
		<line class="st7" x1="311.7" y1="394.6" x2="347.2" y2="265.5"/>
		<line class="st7" x1="419.2" y1="270.8" x2="406.8" y2="397.1"/>
		<line class="st7" x1="496.6" y1="394.6" x2="490.1" y2="267.6"/>
		<line class="st7" x1="514.9" y1="321" x2="52.6" y2="316.9"/>
		<line class="st7" x1="-10.3" y1="368" x2="514.9" y2="377.5"/>
		<path class="st8" d="M-46,13.8V386l156.3-121.3V13.8H-46z M40.2,184.9L9.4,201V59.9l30.8-0.1V184.9z"/>
		<rect x="110.3" y="14.1" class="st9" width="404.6" height="260.1"/>
		<polygon class="st10" points="395.6,289.2 84.7,284.4 84.3,191.4 396.3,198 		"/>
		<polygon class="st11" points="395.9,196.6 404,174.2 404.5,274.8 395.6,289.2 		"/>
		<polygon class="st11" points="392.1,285.6 294.1,285.6 294.1,200.3 392.1,200.1 		"/>
		<polygon class="st11" points="289.6,285.6 262.4,285.6 262.4,200.3 290.4,200.3 		"/>
		<polygon class="st11" points="257.8,285.6 230,285.6 230.6,200.3 258.6,200.3 		"/>
		<rect x="164.9" y="214.2" class="st12" width="2.8" height="15.9"/>
		<rect x="164.9" y="254.4" class="st12" width="2.8" height="15.9"/>
		<polygon class="st11" points="224.9,285.6 165.9,284.3 165.9,199.3 224.9,200.2 		"/>
		<g class="st13">
			<path d="M219.2,229l1.3,0.1c0.5,0,0.9,0.6,0.9,1.3l-0.1,18.1c0,0.7-0.4,1.3-0.9,1.3h-1.1c-0.5,0-0.9-0.6-0.9-1.3v-18.3
				C218.3,229.5,218.7,228.9,219.2,229z"/>
		</g>
		<path class="st14" d="M219.8,228l1.3,0.1c0.5,0,0.9,0.6,0.9,1.3l-0.1,18.1c0,0.7-0.4,1.3-0.9,1.3h-1.2c-0.5,0-0.9-0.6-0.9-1.3
			v-18.2C218.9,228.6,219.3,228,219.8,228z"/>
		<g class="st13">
			<path d="M237.3,206.2l0.1-1.2c0-0.5,0.5-0.9,1-0.8h13.3c0.5,0,0.9,0.4,0.9,0.9c0,0,0,0,0,0v1.1c0,0.5-0.4,0.9-0.9,0.9h-13.4
				C237.7,207.1,237.3,206.7,237.3,206.2C237.3,206.2,237.3,206.2,237.3,206.2z"/>
		</g>
		<path class="st14" d="M236.6,205.7l0.1-1.2c0.1-0.5,0.5-0.9,1-0.8l13.3,0.1c0.5,0,0.9,0.4,0.9,0.9c0,0,0,0,0,0v1.1
			c0,0.5-0.4,0.9-0.9,0.9c0,0,0,0,0,0h-13.4C237,206.6,236.6,206.2,236.6,205.7C236.6,205.7,236.6,205.7,236.6,205.7z"/>
		<g class="st13">
			<path d="M269.6,206.2l0.1-1.2c0-0.5,0.5-0.9,1-0.8H284c0.5,0,0.9,0.4,0.9,0.9c0,0,0,0,0,0v1.1c0,0.5-0.4,0.9-0.9,0.9c0,0,0,0,0,0
				h-13.4C270,207.1,269.6,206.7,269.6,206.2C269.6,206.2,269.6,206.2,269.6,206.2z"/>
		</g>
		<path class="st14" d="M268.9,205.7l0.1-1.2c0-0.5,0.5-0.9,1-0.8c0,0,0,0,0,0l13.3,0.1c0.5,0,0.9,0.4,0.9,0.9c0,0,0,0,0,0v1.1
			c0,0.5-0.4,0.9-0.9,0.9h-13.4C269.3,206.6,268.9,206.2,268.9,205.7C268.9,205.7,268.9,205.7,268.9,205.7z"/>
		<polygon class="st15" points="83.2,191.9 110.6,171.3 409.8,171.4 396.4,194.8 		"/>
		<path class="st16" d="M398.3,197.6c0,1.1-0.6,1.9-1.4,1.9l-313.4,0.2c-1,0-1.8-1.2-1.8-2.5l0.1-3.1c0.1-1.3,0.8-2.3,1.8-2.3
			l313.4-0.3c0.8,0,1.3,1,1.3,2.1L398.3,197.6z"/>
		<rect x="303.8" y="273.6" class="st17" width="60.7" height="15.6"/>
		<polygon class="st18" points="370.8,177.4 317.5,177.4 302.2,191.6 366.1,191.6 		"/>
		<polygon class="st19" points="366.1,277 302.2,276.2 302.2,191.6 366.1,191.6 		"/>
		<rect x="302.2" y="209.3" class="st20" width="64" height="4.3"/>
		<path class="st21" d="M324.1,184.8c-1.8,0-4.5-0.5-5.8-0.3s-1,1.5-1,2c0,1,3,1.8,6.8,1.8s6.8-0.8,6.8-1.8c0-0.4,0.3-1.6-0.7-1.9
			C329,184.3,326.3,184.8,324.1,184.8z"/>
		<path class="st22" d="M324.1,187c-3.6,0-6.5-0.8-6.5-1.8s2.9-1.8,6.5-1.8s6.5,0.8,6.5,1.8S327.7,187,324.1,187z"/>
		<path class="st21" d="M349.2,184.6c-1.8,0-4.8-0.6-6-0.3c-1.4,0.3-1.1,1.6-1.1,2.1c0,1,3.2,1.9,7.1,1.9s7.1-0.8,7.1-1.9
			c0-0.4,0.3-1.6-0.7-2C354.3,184.1,351.4,184.6,349.2,184.6z"/>
		<path class="st22" d="M349.2,186.9c-3.7,0-6.8-0.8-6.8-1.9s3-1.9,6.8-1.9s6.8,0.9,6.8,1.9S352.9,186.9,349.2,186.9z"/>
		<path class="st21" d="M329,178.7c-1.8,0-4.5-0.5-5.7-0.3c-1.4,0.3-1,1.5-1,2c0,1,3,1.8,6.8,1.8s6.8-0.8,6.8-1.8
			c0-0.4,0.3-1.6-0.7-1.9C333.9,178.3,331.2,178.7,329,178.7z"/>
		<path class="st22" d="M329,181c-3.6,0-6.5-0.8-6.5-1.8s2.9-1.8,6.5-1.8s6.5,0.8,6.5,1.8S332.6,181,329,181z"/>
		<path class="st21" d="M353.3,179c-1.8,0-4.5-0.5-5.8-0.3s-1,1.5-1,2c0,1,3,1.8,6.8,1.8s6.8-0.8,6.8-1.8c0-0.4,0.3-1.6-0.7-1.9
			C358.2,178.5,355.5,179,353.3,179z"/>
		<path class="st22" d="M353.3,181.2c-3.6,0-6.5-0.8-6.5-1.8s2.9-1.8,6.5-1.8s6.5,0.8,6.5,1.8S356.9,181.2,353.3,181.2z"/>
		<path class="st23" d="M319.5,179v-1.4c0-0.6,0.2-1.2,0.5-1.6c0.4-0.4,0.8-1.1,1.4-1.1h45.2c0.5,0,1,0.7,1.3,1.1
			c0.4,0.5,0.6,1,0.6,1.6v1.4h1.1v-1.4c0-0.9-0.3-1.9-0.9-2.6c-0.5-0.7-1.3-1.1-2.1-1.1h-45.2c-0.8,0-1.6,0.4-2.1,1.1
			c-0.6,0.7-0.9,1.7-0.9,2.6v1.4H319.5z"/>
		<path class="st24" d="M316.6,181.8v-1.6c0-0.7,0.2-1.3,0.6-1.8c0.4-0.5,0.9-1.3,1.4-1.3h46.6c0.5,0,1,0.8,1.4,1.3
			c0.4,0.5,0.6,1.2,0.6,1.8v1.6h1.1v-1.6c0-1-0.3-2-0.9-2.9c-0.5-0.7-1.3-1.2-2.2-1.2h-46.6c-0.9,0-1.7,0.5-2.2,1.2
			c-0.6,0.8-0.9,1.8-0.9,2.9v1.6H316.6z"/>
		<path class="st25" d="M313.6,184.6v-1.8c0-0.7,0.2-1.4,0.6-2c0.4-0.5,1-1.5,1.5-1.5h48.1c0.6,0,1,1,1.4,1.5c0.4,0.6,0.6,1.3,0.6,2
			v1.8h1.2v-1.8c0-1.1-0.3-2.2-0.9-3.1c-0.5-0.8-1.3-1.3-2.2-1.3h-48.1c-0.9,0-1.7,0.5-2.2,1.3c-0.6,0.9-0.9,2-0.9,3.1v1.8H313.6z"
			/>
		<path class="st26" d="M310.7,187.5v-1.9c0-0.8,0.2-1.6,0.6-2.2c0.4-0.6,1-1.6,1.6-1.6h49.5c0.6,0,1,1.1,1.4,1.6
			c0.4,0.7,0.6,1.4,0.6,2.2v1.9h1.1v-1.9c0-1.2-0.3-2.4-1-3.4c-0.5-0.8-1.3-1.4-2.3-1.4h-49.5c-1,0.1-1.8,0.6-2.3,1.4
			c-0.7,1-1,2.2-1,3.4v1.9H310.7z"/>
		<path class="st27" d="M307.8,190.3v-2.1c0-0.9,0.2-1.7,0.6-2.4c0.4-0.6,1.1-1.8,1.7-1.8h51c0.6,0,1,1.2,1.4,1.8
			c0.4,0.7,0.7,1.6,0.6,2.4v2.1h1.1v-2.1c0-1.3-0.3-2.6-1-3.6c-0.5-0.9-1.4-1.5-2.3-1.5h-51c-1,0.1-1.9,0.6-2.4,1.5
			c-0.7,1.1-1,2.4-1,3.6v2.1H307.8z"/>
		<polygon class="st23" points="355,220.6 313.2,220.6 308.6,226.2 308.6,247.8 313.2,253.4 355,253.4 359.7,247.8 359.7,226.2 		
			"/>
		<rect x="299.9" y="211.9" class="st20" width="63.9" height="4.3"/>
		<polygon class="st23" points="363.8,211.9 299.9,211.9 302.3,209.4 306.6,209.4 305.5,210.5 358.6,210.5 359.6,209.4 366.2,209.4 
					"/>
		<polygon class="st25" points="363.8,211.9 366,209.4 366,213.8 363.8,216.3 		"/>
		<rect x="299.9" y="211.9" class="st28" width="63.9" height="1.1"/>
		<rect x="302.2" y="207.8" class="st29" width="64" height="1.5"/>
		<rect x="302.2" y="191.6" class="st30" width="64" height="1.8"/>
		<ellipse class="st31" cx="312.2" cy="199.9" rx="3.8" ry="4.8"/>
		<path class="st32" d="M316,199.9c0,2.6-1.6,4.8-3.6,4.8h-0.2c1.9-0.1,3.4-2.2,3.4-4.8s-1.5-4.7-3.4-4.8h0.2
			C314.4,195.1,316,197.3,316,199.9z"/>
		<path class="st33" d="M312.2,204.7H312c-2,0-3.6-2.2-3.6-4.8s1.6-4.8,3.6-4.8h0.2c-1.9,0.1-3.4,2.2-3.4,4.8
			S310.3,204.6,312.2,204.7z"/>
		<path class="st34" d="M312.2,201.2c-0.5,0-0.9-1.5-0.9-3.3s0.4-3.3,0.9-3.3s0.9,1.5,0.9,3.3S312.7,201.2,312.2,201.2z"/>
		<path class="st35" d="M312.2,200.8c-0.5,0-0.9-1.5-0.9-3.3s0.4-3.3,0.9-3.3s0.9,1.5,0.9,3.3S312.7,200.8,312.2,200.8z"/>
		<path class="st36" d="M312.2,201c-0.5,0-0.9-1.5-0.9-3.3s0.4-3.3,0.9-3.3s0.9,1.5,0.9,3.3S312.7,201,312.2,201z"/>
		<ellipse class="st31" cx="321.7" cy="199.9" rx="3.8" ry="4.8"/>
		<path class="st32" d="M325.5,199.9c0,2.6-1.6,4.8-3.6,4.8h-0.2c1.9-0.1,3.4-2.2,3.4-4.8s-1.5-4.7-3.4-4.8h0.2
			C323.9,195.1,325.5,197.3,325.5,199.9z"/>
		<path class="st33" d="M321.7,204.7h-0.2c-2,0-3.6-2.2-3.6-4.8s1.6-4.8,3.6-4.8h0.2c-1.9,0.1-3.4,2.2-3.4,4.8
			S319.8,204.6,321.7,204.7z"/>
		<path class="st34" d="M321.7,201.2c-0.5,0-0.9-1.5-0.9-3.3s0.4-3.3,0.9-3.3s0.9,1.5,0.9,3.3S322.2,201.2,321.7,201.2z"/>
		<path class="st35" d="M321.7,200.8c-0.5,0-0.9-1.5-0.9-3.3s0.4-3.3,0.9-3.3s0.9,1.5,0.9,3.3S322.2,200.8,321.7,200.8z"/>
		<path class="st36" d="M321.7,201c-0.5,0-0.9-1.5-0.9-3.3s0.4-3.3,0.9-3.3s0.9,1.5,0.9,3.3S322.2,201,321.7,201z"/>
		<ellipse class="st31" cx="331.2" cy="199.9" rx="3.8" ry="4.8"/>
		<path class="st32" d="M335,199.9c0,2.6-1.6,4.8-3.6,4.8h-0.2c1.9-0.1,3.4-2.2,3.4-4.8s-1.5-4.7-3.4-4.8h0.2
			C333.4,195.1,335,197.3,335,199.9z"/>
		<path class="st33" d="M331.2,204.7H331c-2,0-3.6-2.2-3.6-4.8s1.6-4.8,3.6-4.8h0.2c-1.9,0.1-3.4,2.2-3.4,4.8
			S329.3,204.6,331.2,204.7z"/>
		<path class="st34" d="M331.2,201.2c-0.5,0-0.9-1.5-0.9-3.3s0.4-3.3,0.9-3.3s0.9,1.5,0.9,3.3S331.7,201.2,331.2,201.2z"/>
		<path class="st35" d="M331.2,200.8c-0.5,0-0.9-1.5-0.9-3.3s0.4-3.3,0.9-3.3s0.9,1.5,0.9,3.3S331.7,200.8,331.2,200.8z"/>
		<path class="st36" d="M331.2,201c-0.5,0-0.9-1.5-0.9-3.3s0.4-3.3,0.9-3.3s0.9,1.5,0.9,3.3S331.7,201,331.2,201z"/>
		<ellipse class="st31" cx="340.7" cy="199.9" rx="3.8" ry="4.8"/>
		<path class="st32" d="M344.5,199.9c0,2.6-1.6,4.8-3.6,4.8h-0.2c1.9-0.1,3.4-2.2,3.4-4.8s-1.5-4.7-3.4-4.8h0.2
			C342.9,195.1,344.5,197.3,344.5,199.9z"/>
		<path class="st33" d="M340.7,204.7h-0.2c-2,0-3.6-2.2-3.6-4.8s1.6-4.8,3.6-4.8h0.2c-1.9,0.1-3.4,2.2-3.4,4.8
			S338.8,204.6,340.7,204.7z"/>
		<path class="st34" d="M340.7,201.2c-0.5,0-0.9-1.5-0.9-3.3s0.4-3.3,0.9-3.3s0.9,1.5,0.9,3.3S341.2,201.2,340.7,201.2z"/>
		<path class="st35" d="M340.7,200.8c-0.5,0-0.9-1.5-0.9-3.3s0.4-3.3,0.9-3.3s0.9,1.5,0.9,3.3S341.2,200.8,340.7,200.8z"/>
		<path class="st36" d="M340.7,201c-0.5,0-0.9-1.5-0.9-3.3s0.4-3.3,0.9-3.3s0.9,1.5,0.9,3.3S341.2,201,340.7,201z"/>
		<ellipse class="st37" cx="357.9" cy="200.2" rx="3.8" ry="4.8"/>
		<path class="st38" d="M361.6,200.2c0,2.7-1.6,4.8-3.6,4.8h-0.2c1.9-0.1,3.4-2.2,3.4-4.8s-1.5-4.7-3.4-4.8h0.1
			C360,195.4,361.6,197.5,361.6,200.2z"/>
		<path class="st39" d="M357.9,205h-0.2c-2,0-3.6-2.1-3.6-4.8s1.6-4.8,3.6-4.8h0.2c-1.9,0.1-3.4,2.2-3.4,4.8S355.9,204.9,357.9,205z
			"/>
		<path class="st40" d="M357.9,201.4c-0.5,0-0.9-1.5-0.9-3.3s0.4-3.3,0.9-3.3s0.9,1.5,0.9,3.3S358.3,201.4,357.9,201.4z"/>
		<path class="st41" d="M357.9,201c-0.5,0-0.9-1.5-0.9-3.3s0.4-3.3,0.9-3.3s0.9,1.5,0.9,3.3S358.3,201,357.9,201z"/>
		<path class="st42" d="M357.9,201.3c-0.5,0-0.9-1.5-0.9-3.3s0.4-3.3,0.9-3.3s0.9,1.5,0.9,3.3S358.3,201.3,357.9,201.3z"/>
		<g class="st13">
			<path d="M370,206.2l0.1-1.2c0-0.5,0.5-0.9,1-0.8h13.3c0.5,0,0.9,0.4,0.9,0.9c0,0,0,0,0,0v1.1c0,0.5-0.4,0.9-0.9,0.9c0,0,0,0,0,0
				H371C370.5,207.1,370.1,206.8,370,206.2C370,206.2,370,206.2,370,206.2z"/>
		</g>
		<path class="st14" d="M369.3,205.7l0.1-1.2c0.1-0.5,0.5-0.9,1-0.8l13.3,0.1c0.5,0,0.9,0.4,0.9,0.9c0,0,0,0,0,0v1.1
			c0,0.5-0.4,0.9-0.9,0.9c0,0,0,0,0,0h-13.4C369.7,206.6,369.3,206.2,369.3,205.7C369.3,205.7,369.3,205.7,369.3,205.7z"/>
		<rect x="91.4" y="214.2" class="st12" width="3.2" height="15.9"/>
		<rect x="91.4" y="254.4" class="st12" width="3.2" height="15.9"/>
		<polygon class="st11" points="159.8,285.6 92.5,284.3 92.5,199.8 159.8,200.2 		"/>
		<g class="st13">
			<path d="M153.1,229l1.5,0.1c0.6,0.1,1.1,0.7,1,1.3l-0.1,18.1c0,0.7-0.5,1.2-1.1,1.3c0,0,0,0,0,0h-1.4c-0.7,0-1.2-0.6-1.1-1.3
				c0,0,0,0,0,0v-18.3C151.9,229.6,152.4,229,153.1,229C153.1,229,153.1,229,153.1,229z"/>
		</g>
		<path class="st14" d="M153.8,228l1.5,0.1c0.6,0.1,1.1,0.7,1,1.3l-0.1,18.1c0,0.7-0.5,1.2-1.1,1.3h-1.4c-0.7,0-1.2-0.6-1.1-1.3
			v-18.2C152.6,228.6,153.1,228.1,153.8,228C153.7,228,153.8,228,153.8,228z"/>
		<path class="st43" d="M264.9,74.1h51c0.2,0,0.4,0.2,0.4,0.4v0.7c0,0.2-0.2,0.4-0.4,0.4h-51c-0.2,0-0.4-0.2-0.4-0.4v-0.7
			C264.5,74.3,264.6,74.1,264.9,74.1z"/>
		<path class="st44" d="M265.1,72.3h50.5c0.5,0,0.8,0.4,0.8,0.8v1.3c0,0.5-0.4,0.8-0.8,0.8h-50.5c-0.5,0-0.8-0.4-0.8-0.8v-1.3
			C264.3,72.7,264.7,72.3,265.1,72.3z"/>
		<path class="st45" d="M268.6,77.4c-0.7,0-1.3-0.6-1.2-1.3c0,0,0,0,0,0c0-0.6,0.4-1.2,1-1.3v-1.6c0-0.1,0-0.2,0.2-0.3
			c0.1,0,0.2,0,0.3,0.2c0,0,0,0.1,0,0.1V75c0,0.1-0.1,0.2-0.2,0.2c0,0,0,0,0,0c-0.5,0-0.8,0.4-0.8,0.9c0,0.5,0.3,0.9,0.7,0.9
			c0.5,0,0.9-0.3,0.9-0.7c0-0.1,0-0.1,0-0.2c0-0.1,0-0.2,0.2-0.3c0.1,0,0.2,0,0.3,0.2c0,0,0,0.1,0,0.1
			C269.9,76.8,269.3,77.4,268.6,77.4z"/>
		<path class="st43" d="M280.7,90.1l0.3-13.1c0-0.2-0.1-0.5-0.3-0.6c-0.1-0.1-0.3-0.1-0.4-0.1c-0.3,0-0.6,0.2-0.7,0.4
			c0,0.1,0,0.2,0,0.3l0.1,6.1l0,0l0.1,7l-1.3,1.6c-0.1,0.1-0.1,0.2-0.1,0.3l0.2,4.2c0,0.3,0.3,0.5,0.5,0.5h0.1v-3
			c0-0.1,0.1-0.2,0.2-0.2l0,0h0.1h0.1l0,0l0,0c0,0,0,0,0,0.1v3h0.6v-3c0-0.1,0.1-0.2,0.2-0.2l0,0h0.1h0.1l0,0l0,0c0,0,0,0,0,0.1v3
			h0.5v-3c0-0.1,0.1-0.2,0.2-0.2l0,0l0,0c0,0,0.1,0,0.1,0l0,0c0,0,0,0,0,0l0,0l0,0c0,0,0,0,0,0.1v3h0.2c0.3,0,0.5-0.2,0.5-0.5
			l0.2-4.2c0-0.1,0-0.2-0.1-0.3L280.7,90.1z"/>
		<path class="st45" d="M280.3,77.5c-0.7,0-1.3-0.7-1.2-1.4c0-0.6,0.5-1.1,1-1.2v-1.6c0-0.1,0-0.2,0.2-0.3c0.1,0,0.2,0,0.3,0.2
			c0,0,0,0.1,0,0.1v1.8c0,0.1-0.1,0.2-0.2,0.2c0,0,0,0,0,0c-0.5,0.1-0.8,0.5-0.8,1c0,0.4,0.4,0.7,0.8,0.8c0.5,0,0.8-0.4,0.8-0.9
			c0,0,0,0,0,0c0-0.1,0-0.2,0.2-0.3c0.1,0,0.2,0,0.3,0.2c0,0,0,0.1,0,0.1C281.6,76.9,281,77.5,280.3,77.5z"/>
		<path class="st46" d="M282.3,91.7l-1.3-1.6l0.1-7l0.1-6.1c0-0.4-0.3-0.7-0.7-0.7h-0.1c-0.4,0-0.7,0.3-0.7,0.7c0,0,0,0,0,0l0.1,6.1
			l0.1,7l-1.3,1.6c-0.1,0.1-0.1,0.2-0.1,0.3l0.2,4.2c0,0.3,0.3,0.5,0.5,0.5h0.1v-3c0-0.1,0.1-0.2,0.2-0.2l0,0c0,0,0.1,0,0.1,0
			c0,0,0.1,0,0.1,0.1l0,0l0,0v3h0.5v-3c0-0.1,0.1-0.2,0.2-0.2l0,0c0,0,0.1,0,0.1,0l0,0l0,0l0,0l0,0v3h0.5v-3c0-0.1,0.1-0.2,0.2-0.2
			l0,0l0,0c0,0,0.1,0,0.1,0l0,0l0,0l0,0l0,0l0,0v3h0.2c0.3,0,0.5-0.2,0.5-0.5l0.2-4.2C282.2,91.6,282.2,91.7,282.3,91.7z M280.9,78
			h-0.6c0-0.3-0.1-0.5,0-0.8c0-1,0.4-0.7,0.4-0.7C280.9,76.7,280.9,78,280.9,78z"/>
		<g>
			<path class="st47" d="M279.8,93.6L279.8,93.6C279.8,93.5,279.8,93.5,279.8,93.6c0,0,0,0.1,0,0.2v3h0.2v-3
				C280,93.6,279.9,93.6,279.8,93.6z"/>
			<path class="st47" d="M279,96.2l-0.2-4.2c0-0.1,0-0.2,0.1-0.3l1.3-1.6L279.9,77c0-0.4,0.3-0.7,0.7-0.7h-0.1
				c-0.4,0-0.7,0.3-0.7,0.7c0,0,0,0,0,0l0.3,13.1l-1.3,1.6c-0.1,0.1-0.1,0.2-0.1,0.3l0.2,4.2c0,0.3,0.3,0.5,0.5,0.5h0.1
				C279.2,96.7,279,96.5,279,96.2z"/>
			<path class="st47" d="M281.8,93.7c0-0.1-0.1-0.2-0.2-0.2l0,0l0,0c0,0-0.1,0-0.1,0c0.1,0,0.1,0.1,0.1,0.2v3h0.2V93.7z"/>
			<path class="st47" d="M280.7,93.6L280.7,93.6L280.7,93.6c0,0,0,0.1,0,0.2v3h0.2v-3C280.9,93.6,280.8,93.5,280.7,93.6z"/>
		</g>
		<path class="st48" d="M280.6,76.2L280.6,76.2c-0.5,0-0.8,0.3-0.8,0.7c0,0,0,0,0,0l0.1,6.1h1.3l0.1-6.1
			C281.3,76.6,281,76.2,280.6,76.2z M280.3,78.1c0-0.3-0.1-0.5,0-0.8c0-1,0.4-0.7,0.4-0.7c0.2,0.1,0.3,1.4,0.3,1.4L280.3,78.1z"/>
		<path class="st48" d="M280.6,76.2h-0.1c-0.4,0-0.7,0.3-0.7,0.7c0,0,0,0,0,0l0.1,6.1h0.2l-0.1-6.1
			C279.9,76.6,280.2,76.3,280.6,76.2z"/>
		<path class="st45" d="M281.3,76c-0.1,0-0.2,0.1-0.2,0.2c0,0,0,0,0,0c0,0.5-0.4,0.9-0.8,0.9c0,0,0,0.4,0,0.4c0.7,0,1.3-0.6,1.3-1.3
			c0,0,0,0,0,0C281.6,76.1,281.5,76,281.3,76C281.3,76,281.3,76,281.3,76z"/>
		<g>
			<path class="st43" d="M310.7,77.3c-0.1,0-0.2,0.1-0.2,0.2c0,0,0,0,0,0c0,0.5-0.4,0.8-0.9,0.8c-0.5,0-0.8-0.4-0.8-0.9
				c0-0.4,0.4-0.8,0.8-0.8c0.1,0,0.2-0.1,0.2-0.2c0,0,0,0,0,0v-0.9h-0.4v0.7c-0.7,0.1-1.2,0.7-1.2,1.4c0.1,0.7,0.7,1.2,1.4,1.2
				c0.7-0.1,1.2-0.6,1.2-1.3C310.9,77.5,310.9,77.4,310.7,77.3C310.7,77.4,310.7,77.4,310.7,77.3z"/>
		</g>
		<path class="st45" d="M310.7,78.9c-0.7,0-1.3-0.6-1.2-1.3c0,0,0,0,0,0c0-0.6,0.4-1.2,1-1.3v-1.6c0-0.1,0.1-0.2,0.2-0.2
			c0.1,0,0.2,0.1,0.2,0.2c0,0,0,0,0,0v1.8c0,0.1-0.1,0.2-0.2,0.2c0,0,0,0,0,0c-0.5,0-0.9,0.3-0.9,0.8c0,0.5,0.3,0.9,0.8,0.9
			c0.5,0,0.9-0.3,0.9-0.8c0,0,0,0,0-0.1c0-0.1,0.1-0.2,0.2-0.2c0.1,0,0.2,0.1,0.2,0.2c0,0,0,0,0,0C311.9,78.3,311.3,78.8,310.7,78.9
			z"/>
		<path class="st43" d="M316,89.7c0.1-0.2,0.1-0.4,0.2-0.6s0.1-0.4,0.2-0.6s0.1-0.4,0.2-0.6c0.5-1.7,0.8-2.9,0.8-2.9l-0.7-0.3
			l-0.9-0.4l-5.8-3l0.2-2.5h-1l0.2,2.7L309,82l0,0l-0.2,0.2c-0.8,0.8-1.8,1.8-2.8,3c-0.2,0.3-0.5,0.6-0.7,0.9s-0.7,0.9-1,1.3
			l-0.2,0.3l-0.1,0.1c-0.2,0.3-0.4,0.6-0.5,0.8c-0.3,0.5-0.6,1-0.8,1.6c0,0.1,0,0.1,0,0.2v0.1v0.1c0,0.1,0,0.1,0,0.2v0.1
			c0,0,0,0.1,0,0.2c0,0.1,0,0.1,0.1,0.2c0,0.1,0.1,0.1,0.1,0.2c0.1,0.1,0.1,0.1,0.2,0.2h0c0.1,0,0.1,0.1,0.2,0.1l0.2,0.1
			c0.1,0,0.2,0,0.3,0c0.1,0,0.2,0,0.2,0h0.3l0.2-0.1l0.3-0.1c0.2-0.1,0.4-0.2,0.6-0.3l0.3-0.2l0.3-0.2l0.3-0.2l0.2-0.2
			c0.2-0.2,0.4-0.3,0.4-0.3s-0.2,0.4-0.4,0.9c0,0.1-0.1,0.2-0.1,0.2s-0.1,0.2-0.1,0.3v0.1c0,0.1-0.1,0.1-0.1,0.2v0.1
			c0,0.1,0,0.2-0.1,0.2l0,0c-0.1,0.4-0.2,0.8-0.3,1.3c-0.1,0.5-0.2,1-0.2,1.5c0,0.2,0,0.3,0,0.3c0,0.5,0,1.1,0.2,1.6c0,0,0,0,0,0.1
			c0,0.1,0,0.2,0.1,0.2c0,0.1,0,0.2,0.1,0.3l0.1,0.2c0,0.1,0,0.1,0.1,0.2c0,0,0,0.1,0.1,0.1l0.1,0.3l0.2,0.2v0.1l0.2,0.2
			c0.1,0.1,0.2,0.2,0.3,0.3c0.1,0.1,0.2,0.2,0.4,0.3h0c0.1,0.1,0.2,0.1,0.4,0.2c0,0,0.1,0,0.1,0c0.2,0.1,0.3,0.1,0.5,0.2l0.3,0.1
			h0.3h0.2h0.3h0.3l0.3-0.1l0.3-0.1c0.5-0.2,0.9-0.5,1.3-0.9c0.8-0.8,1.5-1.7,2-2.6l0.3-0.5c0.4-0.7,0.8-1.5,1.1-2.3
			c0.1-0.2,0.1-0.3,0.2-0.5c0.3-0.8,0.6-1.6,0.9-2.3l0.2-0.5L316,89.7z"/>
		<path class="st49" d="M310.4,80.8c0,0-8.7,8.2-7.1,9.8c1.4,1.4,4-1.1,4-1.1s-3.9,7.8,1.3,9.4s9.6-14.3,9.6-14.3L310.4,80.8z"/>
		<path class="st50" d="M310.8,80.7c0,0-7.1,7-5.8,8.4c1.1,1.2,3.3-0.9,3.3-0.9s-3.1,6.7,1.1,8.3s7.8-12.3,7.8-12.3L310.8,80.7z"/>
		<path class="st51" d="M305.4,90l-0.2,0.9c0.2-0.1,0.4-0.2,0.6-0.3l0.1-0.5L305.4,90z"/>
		<path class="st51" d="M306.8,86.6l0.6-2.4l-0.2-0.1l-0.4,0.4l-0.5,1.9L306.8,86.6z"/>
		<polygon class="st51" points="305.5,89.4 306,89.6 306.6,87.1 306.1,87 		"/>
		<polygon class="st51" points="310.8,82 310.3,81.9 309.7,84.3 310.2,84.4 		"/>
		<polygon class="st51" points="309.4,87.9 308.9,87.8 308.3,90.2 308.8,90.3 		"/>
		<polygon class="st51" points="311,81.5 311,81.1 310.6,80.9 310.5,81.4 		"/>
		<polygon class="st51" points="309.5,87.4 310.1,85 309.6,84.8 309,87.3 		"/>
		<polygon class="st51" points="308.7,90.9 308.2,90.7 307.6,93.2 308.1,93.3 		"/>
		<polygon class="st51" points="307.9,93.8 307.5,93.7 306.9,96.1 307.4,96.3 		"/>
		<path class="st51" d="M306.7,96.6l-0.2,0.8c0.1,0.2,0.2,0.3,0.4,0.5l0.3-1.2L306.7,96.6z"/>
		<polygon class="st51" points="312.3,88.2 312.9,85.7 312.4,85.6 311.8,88 		"/>
		<polygon class="st51" points="309.6,96.9 310.1,97 310.7,94.6 310.2,94.4 		"/>
		<polygon class="st51" points="313,85.2 313.6,82.8 313.1,82.7 312.5,85.1 		"/>
		<path class="st51" d="M309.5,97.4l-0.4,1.7c0.2,0,0.3,0,0.5,0l0.4-1.5L309.5,97.4z"/>
		<polygon class="st51" points="310.9,91.5 310.3,93.9 310.8,94.1 311.4,91.6 		"/>
		<polygon class="st51" points="312.1,88.7 311.6,88.6 311.1,91 311.5,91.1 		"/>
		<polygon class="st51" points="315.7,86 316.3,83.7 315.8,83.5 315.3,85.8 		"/>
		<polygon class="st51" points="314.5,88.8 315,88.9 315.6,86.5 315.1,86.4 		"/>
		<path class="st51" d="M313,95.2l-0.5,1.9c0.3-0.3,0.5-0.7,0.8-1l0.2-0.8L313,95.2z"/>
		<polygon class="st51" points="313.1,94.7 313.6,94.8 314.2,92.4 313.7,92.3 		"/>
		<polygon class="st51" points="313.8,91.8 314.3,91.9 314.9,89.5 314.4,89.3 		"/>
		<path class="st51" d="M306.9,96.1l-0.9-0.2c0,0.2,0.1,0.4,0.1,0.6l0.6,0.2L306.9,96.1z"/>
		<polygon class="st51" points="307.4,96.3 307.2,96.8 309.5,97.4 309.6,96.9 		"/>
		<path class="st51" d="M310,97.5l1.7,0.5c0.2-0.1,0.3-0.3,0.4-0.4l-2-0.6L310,97.5z"/>
		<polygon class="st51" points="306.9,96.1 306.7,96.6 307.2,96.8 307.4,96.3 		"/>
		<polygon class="st51" points="306.9,96.1 306.7,96.6 307.2,96.8 307.4,96.3 		"/>
		<polygon class="st51" points="310.1,97 309.6,96.9 309.5,97.4 310,97.5 		"/>
		<polygon class="st51" points="310.1,97 309.6,96.9 309.5,97.4 310,97.5 		"/>
		<path class="st51" d="M313.5,95.4l0.3,0.1L314,95l-0.4-0.1L313.5,95.4z"/>
		<polygon class="st51" points="310.3,93.9 308.1,93.3 307.9,93.8 310.2,94.4 		"/>
		<polygon class="st51" points="310.8,94.1 310.7,94.6 313,95.2 313.1,94.7 		"/>
		<path class="st51" d="M307.6,93.2l-1.4-0.4c0,0.2-0.1,0.3-0.1,0.5l1.4,0.4L307.6,93.2z"/>
		<polygon class="st51" points="308.1,93.3 307.6,93.2 307.5,93.7 307.9,93.8 		"/>
		<polygon class="st51" points="308.1,93.3 307.6,93.2 307.5,93.7 307.9,93.8 		"/>
		<polygon class="st51" points="310.3,93.9 310.2,94.4 310.7,94.6 310.8,94.1 		"/>
		<polygon class="st51" points="310.3,93.9 310.2,94.4 310.7,94.6 310.8,94.1 		"/>
		<polygon class="st51" points="313,95.2 313.5,95.4 313.6,94.8 313.1,94.7 		"/>
		<polygon class="st51" points="313,95.2 313.5,95.4 313.6,94.8 313.1,94.7 		"/>
		<polygon class="st51" points="311.4,91.6 313.7,92.3 313.8,91.8 311.5,91.1 		"/>
		<path class="st51" d="M308.3,90.2l-1.2-0.3l-0.2,0.5l1.3,0.3L308.3,90.2z"/>
		<path class="st51" d="M305.5,89.4l-2.1-0.6c-0.1,0.2-0.2,0.3-0.2,0.5l2.2,0.6L305.5,89.4z"/>
		<path class="st51" d="M305.9,90.1l0.5,0.1c0.2-0.1,0.4-0.3,0.5-0.4l-0.9-0.3L305.9,90.1z"/>
		<path class="st51" d="M314.2,92.4l1,0.3c0.1-0.2,0.1-0.3,0.2-0.5l-1.1-0.3L314.2,92.4z"/>
		<polygon class="st51" points="311.1,91 308.8,90.3 308.7,90.9 310.9,91.5 		"/>
		<polygon class="st51" points="305.4,90 305.9,90.1 306,89.6 305.5,89.4 		"/>
		<polygon class="st51" points="305.4,90 305.9,90.1 306,89.6 305.5,89.4 		"/>
		<polygon class="st51" points="308.8,90.3 308.3,90.2 308.2,90.7 308.7,90.9 		"/>
		<polygon class="st51" points="308.8,90.3 308.3,90.2 308.2,90.7 308.7,90.9 		"/>
		<polygon class="st51" points="311.5,91.1 311.1,91 310.9,91.5 311.4,91.6 		"/>
		<polygon class="st51" points="311.5,91.1 311.1,91 310.9,91.5 311.4,91.6 		"/>
		<polygon class="st51" points="313.7,92.3 314.2,92.4 314.3,91.9 313.8,91.8 		"/>
		<polygon class="st51" points="313.7,92.3 314.2,92.4 314.3,91.9 313.8,91.8 		"/>
		<path class="st51" d="M314.9,89.5l1.5,0.4c0.1-0.2,0.1-0.3,0.2-0.5l-1.6-0.4L314.9,89.5z"/>
		<path class="st51" d="M306.3,86.5l-1-0.3l-0.4,0.4l1.2,0.3L306.3,86.5z"/>
		<polygon class="st51" points="306.8,86.6 306.6,87.1 308.9,87.8 309,87.3 		"/>
		<polygon class="st51" points="312.1,88.7 314.4,89.3 314.5,88.8 312.3,88.2 		"/>
		<polygon class="st51" points="311.8,88 309.5,87.4 309.4,87.9 311.6,88.6 		"/>
		<polygon class="st51" points="306.3,86.5 306.1,87 306.6,87.1 306.8,86.6 		"/>
		<polygon class="st51" points="306.3,86.5 306.1,87 306.6,87.1 306.8,86.6 		"/>
		<polygon class="st51" points="309.5,87.4 309,87.3 308.9,87.8 309.4,87.9 		"/>
		<polygon class="st51" points="309.5,87.4 309,87.3 308.9,87.8 309.4,87.9 		"/>
		<polygon class="st51" points="312.3,88.2 311.8,88 311.6,88.6 312.1,88.7 		"/>
		<polygon class="st51" points="312.3,88.2 311.8,88 311.6,88.6 312.1,88.7 		"/>
		<polygon class="st51" points="314.4,89.3 314.9,89.5 315,88.9 314.5,88.8 		"/>
		<polygon class="st51" points="314.4,89.3 314.9,89.5 315,88.9 314.5,88.8 		"/>
		<path class="st51" d="M315.6,86.5l1.9,0.5l0.2-0.5l-1.9-0.5L315.6,86.5z"/>
		<polygon class="st51" points="315.1,86.4 315.3,85.8 313,85.2 312.9,85.7 		"/>
		<path class="st51" d="M309.6,84.8l0.1-0.5l-2.2-0.6l-0.1,0.1l-0.1,0.4L309.6,84.8z"/>
		<polygon class="st51" points="312.5,85.1 310.2,84.4 310.1,85 312.4,85.6 		"/>
		<path class="st51" d="M307.5,83.8l-0.3,0.3l0.2,0.1L307.5,83.8z"/>
		<path class="st51" d="M307.5,83.8l-0.3,0.3l0.2,0.1L307.5,83.8z"/>
		<polygon class="st51" points="310.2,84.4 309.7,84.3 309.6,84.8 310.1,85 		"/>
		<polygon class="st51" points="310.2,84.4 309.7,84.3 309.6,84.8 310.1,85 		"/>
		<polygon class="st51" points="312.4,85.6 312.9,85.7 313,85.2 312.5,85.1 		"/>
		<polygon class="st51" points="312.4,85.6 312.9,85.7 313,85.2 312.5,85.1 		"/>
		<polygon class="st51" points="315.6,86.5 315.7,86 315.3,85.8 315.1,86.4 		"/>
		<polygon class="st51" points="315.6,86.5 315.7,86 315.3,85.8 315.1,86.4 		"/>
		<path class="st51" d="M310.5,81.4l-0.5-0.1c-0.1,0.1-0.3,0.3-0.4,0.4l0.8,0.2L310.5,81.4z"/>
		<polygon class="st51" points="315.4,83.3 313.7,82.4 313.6,82.8 		"/>
		<polygon class="st51" points="310.8,82 313.1,82.7 313.2,82.2 312.9,82 311,81.5 		"/>
		<polygon class="st51" points="311,81.5 310.5,81.4 310.3,81.9 310.8,82 		"/>
		<polygon class="st51" points="311,81.5 310.5,81.4 310.3,81.9 310.8,82 		"/>
		<polygon class="st51" points="313.6,82.8 313.7,82.4 313.2,82.2 313.1,82.7 		"/>
		<polygon class="st51" points="313.6,82.8 313.7,82.4 313.2,82.2 313.1,82.7 		"/>
		<polygon class="st49" points="310.4,81.3 310.2,78.2 311.2,78.2 310.8,81.6 		"/>
		<path class="st45" d="M299.3,77.4c-0.7,0-1.3-0.6-1.3-1.3c0,0,0,0,0,0c0-0.6,0.4-1.2,1-1.3v-1.6c0-0.1,0.1-0.2,0.2-0.2
			c0.1,0,0.2,0.1,0.2,0.2c0,0,0,0,0,0V75c0,0.1-0.1,0.2-0.2,0.2c0,0,0,0,0,0c-0.5,0-0.8,0.4-0.8,0.9c0,0.5,0.3,0.9,0.7,0.9
			c0.5,0,0.9-0.3,0.9-0.7c0-0.1,0-0.1,0-0.2c0-0.1,0.1-0.2,0.2-0.2c0.1,0,0.2,0.1,0.2,0.2c0,0,0,0,0,0
			C300.5,76.8,299.9,77.4,299.3,77.4z"/>
		<path class="st43" d="M301.4,95.8l-0.4-2.1l-0.4-2.7l-1.2-0.9l0.1-9l-0.1,2.5l0.1-3.2h0.1l0.3-4.1c-0.4-0.2-0.8-0.2-1.2,0l0.1,4.1
			h0.1l-0.2,7.9v1.8l-1.3,1.1l0.6,5.1l3.1-0.4L301.4,95.8L301.4,95.8z M299.8,95.7l-0.4,0.1c-0.3-1.4-0.4-2.8-0.5-4.3
			C299.2,91.3,299.7,94.8,299.8,95.7L299.8,95.7z M298.8,95.8L298.8,95.8l-0.4,0.1c-0.3-1.4-0.4-2.8-0.4-4.3l0,0
			C298.3,91.6,298.7,94.9,298.8,95.8L298.8,95.8z M299,91.4L299,91.4C299,91.4,299,91.4,299,91.4L299,91.4z M299.9,91.3
			C299.9,91.3,299.9,91.3,299.9,91.3c0.3,0,0.8,3.3,0.9,4.2l-0.4,0.1C300.2,94.7,299.7,91.4,299.9,91.3L299.9,91.3z M300.8,95.5
			L300.8,95.5L300.8,95.5z M299.2,76.5c0.1,0.1,0.2,0.2,0.2,0.4c0,0.1,0,0.3-0.1,0.4c-0.1-0.1-0.2-0.2-0.2-0.4
			C299.1,76.7,299.1,76.6,299.2,76.5L299.2,76.5z"/>
		<polygon class="st52" points="299.3,78.4 299.3,90.3 299.8,90.3 299.8,78.4 		"/>
		<path class="st53" d="M301.2,90.6l-1.4-0.8h-0.5l-1.3,1l0.7,5l3.4-0.5L301.2,90.6z M299.2,95.4c-0.2-0.9-0.7-4.1-0.5-4.2
			s0.8,3.3,0.9,4.1L299.2,95.4z M300.2,95.3c-0.1-0.7-0.7-4.1-0.5-4.3s0.8,3.5,0.9,4.2L300.2,95.3z M301.2,95.1
			c-0.2-0.8-0.8-4.1-0.6-4.2s0.9,3.3,1,4.1L301.2,95.1z"/>
		<polygon class="st54" points="302.1,95.3 298.8,95.7 298.1,90.9 299.3,89.8 299.4,80.1 299.3,80.1 299.2,89.7 298,90.8 
			298.7,95.8 		"/>
		<polygon class="st55" points="302.1,95.3 301.1,90.6 299.8,89.8 299.8,81 299.9,89.8 301.2,90.6 		"/>
		<path class="st44" d="M298.9,76.3l0.3,4h0.8l0.2-4C299.7,76.1,299.3,76.1,298.9,76.3z M299.6,77.2c-0.1,0-0.2-0.2-0.2-0.4
			s0.1-0.4,0.2-0.4s0.2,0.2,0.2,0.4S299.7,77.2,299.6,77.2L299.6,77.2z"/>
		<polygon class="st44" points="298.9,76.3 299.1,76.2 299.4,80.2 299.9,80.3 299.1,80.3 		"/>
		<path class="st54" d="M299.6,95.4L299.6,95.4c-0.1-0.9-0.7-4.1-0.9-4c0,0,0,0,0-0.1C298.9,91.1,299.5,94.5,299.6,95.4z"/>
		<path class="st54" d="M300.6,95.2L300.6,95.2c-0.2-0.8-0.7-4.2-1-4.1c0,0,0,0,0-0.1C299.9,90.9,300.5,94.5,300.6,95.2z"/>
		<path class="st54" d="M301.5,95L301.5,95c-0.1-0.9-0.7-4.1-1-4.1c0,0,0,0,0-0.1C300.8,90.8,301.4,94.2,301.5,95z"/>
		<path class="st56" d="M299.6,77.2L299.6,77.2c0-0.1,0.1-0.2,0.1-0.4c0-0.1-0.1-0.3-0.2-0.3h0.1c0.1,0,0.2,0.2,0.2,0.4
			S299.7,77.2,299.6,77.2z"/>
		<path class="st45" d="M300.3,75.9c-0.1,0-0.2,0.1-0.2,0.2c0,0.4-0.3,0.8-0.7,0.8c0,0,0,0.4,0,0.4c0.7,0,1.2-0.6,1.2-1.2
			c0,0,0,0,0,0C300.5,76,300.4,75.9,300.3,75.9z"/>
		<g>
			<polygon class="st43" points="267.4,89.3 267.4,84.3 268.3,84.3 268.5,89.6 			"/>
			<g class="st13">
				<path class="st43" d="M267.4,84.3v5h0.1c0-1,0-3.9,0.5-5.1L267.4,84.3z"/>
			</g>
			<path class="st43" d="M266.7,88.8c-4.1,0.8-6.8,4.7-6.1,8.8c0,0.1,0,0.2,0.1,0.4c0.9,4.9,6.7,6.6,9.9,4.7c2.9-1.7,5.6-6.8,2.6-11
				C270.7,88.2,268.3,88.4,266.7,88.8z"/>
			<path class="st43" d="M266.4,89.2c-2.2,0.5-6.3,2.8-5.3,8.7c0.8,4.7,6.4,6.4,9.5,4.6c2.7-1.6,5.1-6.6,2.3-10.5
				C270.5,88.7,267.9,88.8,266.4,89.2z"/>
			<path class="st43" d="M266.6,90.6c-1.7,0.4-5,2.2-4.2,6.9c0.6,2.9,3.5,4.7,6.4,4.1c0.4-0.1,0.8-0.2,1.2-0.4
				c2.2-1.3,4.1-5.3,1.8-8.4C269.9,90.2,267.9,90.3,266.6,90.6z"/>
			<g class="st57">
				<path class="st43" d="M263.3,97.9c-0.9-5,2.5-7,4.5-7.5c-0.4,0-0.8,0-1.1,0.1c-1.7,0.4-5,2.2-4.2,6.9c0.3,1.6,1.3,2.9,2.7,3.6
					C264.2,100.2,263.5,99.1,263.3,97.9z"/>
			</g>
			<path class="st43" d="M267.2,77.4c-0.1,0.9-0.3,8.5-0.3,8.5h1.8c0,0,0.4-7.9-0.1-9.2S267.3,76.5,267.2,77.4z M268.3,78.4h-0.6
				c0,0-0.2-1.4,0.2-1.5S268.3,78.4,268.3,78.4L268.3,78.4z"/>
			<path class="st43" d="M267,81.4c0,0.1,0,0.3,0,0.4c0.2,0,0.5,0,0.7,0c0.4,0,0.8,0.1,1.2,0.2v-0.4c-0.3-0.1-0.7-0.1-1-0.2
				C267.6,81.4,267.3,81.4,267,81.4z"/>
			<path class="st43" d="M267,80.7c0,0.1,0,0.3,0,0.4c0.3,0,0.7,0,1,0.1s0.6,0.1,0.9,0.2v-0.4C268.3,80.7,267.7,80.6,267,80.7z"/>
			<g class="st13">
				<path class="st43" d="M267.2,77.4c-0.1,0.9-0.3,8.5-0.3,8.5h0.2c0-1.3-0.1-7.9,0.8-9.8C267.5,76.5,267.2,76.9,267.2,77.4z"/>
			</g>
		</g>
		<polygon class="st58" points="268.1,89.2 268.1,84.1 269,84.2 269.2,89.5 		"/>
		<g class="st13">
			<path class="st59" d="M268.1,84.1v5h0.1c0-0.9,0-3.9,0.5-5.1L268.1,84.1z"/>
		</g>
		<path class="st60" d="M267.3,88.7c-4.1,0.8-6.8,4.7-6.1,8.8c0,0.1,0,0.2,0.1,0.3c0.9,5,6.7,6.6,9.9,4.7c2.9-1.7,5.6-6.8,2.6-10.9
			C271.4,88.1,269,88.3,267.3,88.7z"/>
		<path class="st61" d="M267.1,89c-2.2,0.5-6.3,2.8-5.3,8.7c0.8,4.7,6.4,6.4,9.5,4.6c2.7-1.6,5.1-6.6,2.3-10.5
			C271.2,88.6,268.6,88.7,267.1,89z"/>
		<path class="st62" d="M267.3,90.4c-1.7,0.4-5,2.2-4.2,6.9c0.6,2.9,3.5,4.7,6.4,4.1c0.4-0.1,0.8-0.2,1.2-0.4
			c2.2-1.3,4.1-5.3,1.8-8.4C270.6,90.1,268.5,90.2,267.3,90.4z"/>
		<g class="st57">
			<path class="st59" d="M264,97.8c-0.9-5,2.5-7,4.5-7.5c-0.4,0-0.8,0-1.1,0.1c-1.7,0.4-5,2.2-4.2,6.9c0.3,1.5,1.3,2.9,2.7,3.6
				C264.8,100.1,264.2,99,264,97.8z"/>
		</g>
		<path class="st63" d="M267.8,77.3c-0.1,1-0.3,8.5-0.3,8.5l1.8,0.1c0,0,0.4-7.9-0.1-9.2S268,76.4,267.8,77.3z M268.9,78.3h-0.6
			c0,0-0.2-1.4,0.2-1.5S269,78.3,268.9,78.3L268.9,78.3z"/>
		<path class="st64" d="M267.7,81.3c0,0.1,0,0.3,0,0.4c0.3,0,0.5,0,0.7,0c0.4,0,0.8,0.1,1.1,0.2c0-0.1,0-0.3,0-0.4
			c-0.3-0.1-0.7-0.1-1-0.2C268.3,81.3,268,81.3,267.7,81.3z"/>
		<path class="st64" d="M267.7,80.6c0,0.1,0,0.3,0,0.4c0.3,0,0.7,0,1,0.1c0.3,0,0.6,0.1,0.9,0.2c0-0.1,0-0.3,0-0.4
			C269,80.6,268.3,80.5,267.7,80.6z"/>
		<g class="st13">
			<path class="st63" d="M267.8,77.3c-0.1,1-0.3,8.5-0.3,8.5h0.2c0-1.3-0.1-7.9,0.8-9.8C268.2,76.3,267.9,76.8,267.8,77.3z"/>
		</g>
		<path class="st45" d="M269.6,75.9c-0.1,0-0.2,0.1-0.2,0.2c0,0,0,0,0,0c0,0.5-0.4,0.9-0.8,0.9c0,0,0,0.4,0,0.4
			c0.7,0,1.3-0.6,1.3-1.3c0,0,0,0,0,0C269.9,76,269.8,75.9,269.6,75.9C269.7,75.9,269.7,75.9,269.6,75.9z"/>
		<path class="st45" d="M289.2,77.4c-0.7,0-1.3-0.6-1.2-1.3c0-0.6,0.4-1.2,1-1.3v-1.6c0-0.1,0.1-0.2,0.2-0.2c0.1,0,0.2,0.1,0.2,0.2
			c0,0,0,0,0,0V75c0,0.1-0.1,0.2-0.2,0.2c0,0,0,0,0,0c-0.5,0-0.8,0.4-0.8,0.9c0,0.5,0.4,0.8,0.8,0.8s0.8-0.4,0.8-0.8
			c0-0.1,0.1-0.2,0.2-0.2c0.1,0,0.2,0.1,0.2,0.2c0,0,0,0,0,0C290.5,76.8,289.9,77.4,289.2,77.4C289.2,77.4,289.2,77.4,289.2,77.4z"
			/>
		<path class="st43" d="M289.6,90.6c-0.2-0.2-0.4-0.4-0.4-0.7l0.3-11.9v-1.2c0-0.3-0.2-0.6-0.5-0.6h-0.3h-0.1h0h-0.1h0h-0.1l0,0
			c0,0,0,0,0,0.1l0,0c0,0,0,0,0,0.1l0,0l0,0c0,0,0,0.1,0,0.1l0,0c0,0,0,0.1,0,0.1l0.1,6.1l0,0l0.1,7c0,0.3-0.1,0.6-0.4,0.7
			c-0.1,0.1-0.2,0.1-0.3,0.2c-0.5,0.6-0.8,1.3-0.9,2c0,0.2,0,0.5,0,0.7c0,1.8,0.9,3.2,2,3.2s2-1.4,2-3.2
			C291,92.2,290.5,91.2,289.6,90.6z"/>
		<path class="st65" d="M291.2,93.6c0.1-1.1-0.4-2.2-1.2-3c-0.2-0.2-0.4-0.4-0.4-0.7l0.1-7l0.1-6.1c0-0.3-0.2-0.5-0.4-0.6h-0.1h-0.1
			c-0.4,0-0.6,0.3-0.7,0.6c0,0,0,0,0,0l0.3,13.1c0,0.3-0.1,0.6-0.4,0.7c-0.9,0.8-1.3,1.9-1.2,3c0,1.8,0.9,3.2,2,3.2h0.1
			C290.4,96.7,291.2,95.3,291.2,93.6z M289.5,76.6c0.2,0.1,0.2,1.2,0.2,1.2h-0.5c0-0.2,0-0.4,0-0.7
			C289.2,76.4,289.5,76.6,289.5,76.6L289.5,76.6z"/>
		<path class="st66" d="M287.5,93.6c-0.1-1.1,0.3-2.2,1.2-3c0.2-0.2,0.4-0.4,0.4-0.7l-0.3-13.1c0-0.3,0.2-0.6,0.5-0.6h-0.1
			c-0.4,0-0.7,0.2-0.7,0.6c0,0,0,0,0,0.1l0.3,13.1c0,0.3-0.2,0.6-0.4,0.7c-0.8,0.8-1.3,1.9-1.2,3c0,1.8,0.9,3.2,2,3.2h0.1
			C288.3,96.7,287.5,95.3,287.5,93.6z"/>
		<path class="st67" d="M289.5,76.2L289.5,76.2h-0.2c-0.4,0-0.6,0.3-0.7,0.6c0,0,0,0,0,0l0.1,6.1h1.1l0.1-6.1
			C289.9,76.5,289.7,76.3,289.5,76.2z M289.6,77.8h-0.5c0-0.2,0-0.4,0-0.7c0.1-0.8,0.4-0.5,0.4-0.5
			C289.7,76.7,289.6,77.8,289.6,77.8z"/>
		<path class="st67" d="M289.3,76.1L289.3,76.1c-0.4,0-0.7,0.3-0.7,0.6c0,0,0,0,0,0l0.1,6.1h0.2l-0.1-6.1
			C288.8,76.5,289,76.2,289.3,76.1z"/>
		<path class="st66" d="M290.7,93.6c0,0,0.2,1.6-0.5,2.3c-0.4,0.4-1,0.4-1.4,0.2c0.5,0.1,1-0.1,1.3-0.4
			C290.4,95,290.6,94.3,290.7,93.6z"/>
		<path class="st45" d="M290.2,75.9c-0.1,0-0.2,0.1-0.2,0.2c0,0.5-0.3,0.9-0.8,0.9c0,0,0,0,0,0v0.4c0.7,0,1.3-0.6,1.3-1.3
			c0,0,0,0,0,0C290.5,76,290.4,75.9,290.2,75.9C290.3,75.9,290.3,75.9,290.2,75.9z"/>
		<path class="st68" d="M341.6,183.9L341.6,183.9v-1.4l16.1-0.2v1.6c0,1.3-3.1,1.7-7,1.7h-3C344,185.7,341.6,185.1,341.6,183.9z"/>
		<g>
			<defs>
				<path id="SVGID_3_" d="M341.6,183.9L341.6,183.9v-1.4l16.1-0.2v1.6c0,1.3-3.1,1.7-7,1.7h-3C344,185.7,341.6,185.1,341.6,183.9z"
					/>
			</defs>
			<clipPath id="SVGID_4_">
				<use xlink:href="#SVGID_3_"  style="overflow:visible;"/>
			</clipPath>
			<g class="st69">
				<rect x="342.3" y="181.4" class="st70" width="10.3" height="6.1"/>
				<rect x="343.4" y="181.4" class="st71" width="4" height="6.1"/>
				<rect x="354.9" y="181.4" class="st72" width="4" height="6.1"/>
			</g>
		</g>
		<path class="st73" d="M340,171.1l1.2,11.2c0,0.2,0.1,0.4,0.2,0.6l0,0c0.5,0.9,1.9,1.5,7,1.5h2.4c3.9,0,6-0.5,6.9-1.2
			c0.3-0.2,0.4-0.6,0.5-0.9l1.3-11.6L340,171.1z"/>
		<path class="st74" d="M348.5,184.4h2.4c3.9,0,6-0.5,6.9-1.2c0.3-0.2,0.4-0.6,0.5-0.9l1.3-11.6
			C359.5,170.6,357.5,182.3,348.5,184.4z"/>
		<path class="st75" d="M352.1,163.6c0-0.8-0.9-1.6-2.4-1.6s-2.4,0.9-2.4,1.6H352.1z"/>
		<path class="st76" d="M352.1,163.6c-0.8-0.1-1.6-0.2-2.4-0.2c-0.8,0-1.5,0-2.3,0.2H352.1z"/>
		<path class="st77" d="M347.4,163.6c0.5,0.7,0.8,1.5,0.8,2.4c0,1.2,3.2,1,3.2,0c0-0.9,0.3-1.7,0.8-2.4H347.4z"/>
		<path class="st78" d="M359.5,169.1l-0.8-0.8c-1-1.1-2.4-1.9-3.9-2.2l0,0c-1.4-0.3-2.9-0.5-4.4-0.4h-1.8c-0.2,0-0.4,0-0.6,0
			c-3.9,0.2-5.3,1-7.5,3l-0.5,0.5L359.5,169.1z"/>
		<g>
			<defs>
				<path id="SVGID_5_" d="M359.5,169.1l-0.8-0.8c-1-1.1-2.4-1.9-3.9-2.2l0,0c-1.4-0.3-2.9-0.5-4.4-0.4h-1.8c-0.2,0-0.4,0-0.6,0
					c-3.9,0.2-5.3,1-7.5,3l-0.5,0.5L359.5,169.1z"/>
			</defs>
			<clipPath id="SVGID_6_">
				<use xlink:href="#SVGID_5_"  style="overflow:visible;"/>
			</clipPath>
			<g class="st79">
				<path class="st70" d="M342.8,175.8c-0.7-1.6-3.9-7.8,9.2-10c3.8-0.6-9.3-3.2-9.3-3.2s-6.1,5.5-6.1,6S342.8,175.8,342.8,175.8z"
					/>
				<path class="st74" d="M346.5,165.8c5.7,0,9.8,0.3,11.1,5s5.1-5.4,5.1-5.5s-11.8-2.4-11.8-2.4L346.5,165.8z"/>
			</g>
		</g>
		<path class="st68" d="M363,171.1h-3.5l-0.4,3.1h0.2c0,0,0.5-1.3,1.2-1.6c0.8-0.2,1.6-0.3,2.5-0.2V171.1z"/>
		<path class="st68" d="M336.5,171.1h3.5l0.4,3.1h-0.2c0,0-0.5-1.3-1.2-1.6c-0.8-0.2-1.6-0.3-2.5-0.2L336.5,171.1z"/>
		<rect x="336.5" y="171.1" class="st80" width="3.9" height="0.3"/>
		<rect x="359" y="171.1" class="st80" width="3.9" height="0.3"/>
		<rect x="339.9" y="169.9" class="st81" width="19.7" height="1.4"/>
		<rect x="341" y="169.9" class="st70" width="11.9" height="1.4"/>
		<rect x="341.6" y="169.9" class="st71" width="8.9" height="1.4"/>
		<polygon class="st74" points="359.6,171.4 356.9,171.4 356.8,169.9 359.6,169.9 		"/>
		<polygon class="st74" points="359.3,172.4 340.1,171.7 340,171.4 359.4,171.4 		"/>
		<polygon class="st75" points="359.8,169.1 339.8,169.1 339.8,169.9 359.8,169.9 		"/>
		<polygon class="st74" points="359.8,169.1 357.3,169.1 357.3,169.9 359.8,169.9 		"/>
		<polygon class="st71" points="351.1,169.1 341.4,169.1 341.4,169.9 351.1,169.9 		"/>
		<polygon class="st76" points="359.5,169.1 341.2,168.2 340.2,169.1 359.5,169.1 		"/>
		<polygon class="st71" points="347,169.1 343.6,169.1 343.6,169.9 346.9,169.9 		"/>
		<polygon class="st68" points="339.8,169.9 359.6,169.9 359.6,170.2 		"/>
		<ellipse class="st72" cx="273.2" cy="184.1" rx="10.6" ry="1.5"/>
		<g id="g4742">
			<path id="path4650" class="st82" d="M262.6,173.9c-0.1,0.4,0,0.9,0.2,1.3c0.1,0.3,0.3,0.5,0.6,0.7v6.2c0.1,0.6,0.3,1.3,0.6,1.8
				c-0.4,0.4,11.2,2.6,18.2,0c0.4-0.4,0.7-1,0.8-1.6v-6.4c0.3-0.1,0.5-0.4,0.6-0.7c0.2-0.4,0.2-0.8,0.2-1.3L262.6,173.9L262.6,173.9
				z"/>
			<path id="path4660" class="st83" d="M281.9,173.9c0.1,0.4,0.1,0.7,0.1,1.1c0,0.2,0,0.4-0.1,0.6l-9.2,0.1l9.3,0.4
				c0.2,1,0.1,2-0.1,2.9c-0.2,0.9-0.6,1.7-1.2,2.4c-0.6,0.6-1.3,1.1-2.1,1.3c-0.7,0.2-1.5,0.3-2.3,0.4c-2.8,0.3-5.7,0.3-8.5-0.2
				c-1.5-0.3-3-0.8-4.4-1.5v0.7c0.1,0.6,0.3,1.2,0.6,1.7c7.2,2.4,16.1,0.6,16.1,0.6c0.7-0.2,1.3-0.4,2-0.6c0.2-0.1,0.3-0.2,0.5-0.4
				c0.3-0.4,0.4-0.9,0.4-1.5v-6.2c0.3-0.1,0.5-0.4,0.6-0.7c0.2-0.4,0.2-0.8,0.2-1.3H281.9z"/>
			<path id="path4668" class="st84" d="M274.2,174.6c0,0.3-2.4,0.5-5.3,0.5s-5.3-0.2-5.3-0.5s2.4-0.5,5.3-0.5l0,0
				C271.9,174.1,274.2,174.4,274.2,174.6z"/>
			<path id="ellipse4670" class="st84" d="M272.5,179.1c0,1.5-1.9,2.8-4.3,2.8l0,0c-2.4,0-4.3-1.2-4.3-2.8l0,0
				c0-1.6,1.9-2.8,4.3-2.8S272.5,177.5,272.5,179.1z"/>
			<path id="path4676" class="st85" d="M272.4,170c-2,0-3.9,0.4-5.7,1.2c-0.8,0.4-1.6,0.8-2.3,1.3c-0.4,0-0.8,0.2-1,0.5
				c-0.2,0.3-0.4,0.6-0.5,0.9l10.3,0.1l10.3-0.1c-0.1-0.3-0.2-0.7-0.5-0.9c-0.2-0.3-0.6-0.5-1-0.5c-0.7-0.5-1.5-0.9-2.3-1.3
				c-1.8-0.8-3.7-1.2-5.7-1.2H272.4z"/>
			<path id="path4688" class="st86" d="M272.4,170c-2,0-3.9,0.4-5.7,1.2c-0.8,0.4-1.6,0.8-2.3,1.3c0.9,0.5,1.9,0.8,2.9,1.1
				c0.6,0.2,1.3,0.3,1.9,0.4h3.5c0.9-0.1,1.8-0.2,2.8-0.4c1-0.2,1.9-0.5,2.8-0.8h-6.2l6.2-0.2c-0.1-0.7-0.3-1.5-0.7-2.1
				c-1.2-0.3-2.4-0.5-3.6-0.5L272.4,170L272.4,170z"/>
			<path id="ellipse4697" class="st28" d="M271,170.2c-0.2,0-0.4,0-0.6,0.1c-0.9,0.1-1.6,0.5-1.6,0.8l0,0c0,0.3,0.8,0.4,1.7,0.3l0,0
				c0.9-0.1,1.6-0.5,1.6-0.8l0,0C272,170.3,271.6,170.2,271,170.2z M268.3,171.2c-0.2,0-0.3,0-0.5,0.1c-0.4,0.1-0.7,0.3-0.7,0.5l0,0
				c0,0.1,0.4,0.1,0.7,0s0.7-0.3,0.7-0.5S268.5,171.2,268.3,171.2L268.3,171.2z"/>
			<path id="path4706" class="st83" d="M273.2,167.9c-0.3,0-0.6,0.1-0.8,0.4c-0.2,0.2-0.3,0.4-0.4,0.6c0.1,0.1,0.2,0.2,0.3,0.3
				c0.1,0.1,0.2,0.2,0.4,0.3l-0.3,0.4v0.2h1.6v-0.2l-0.3-0.4c0.1-0.1,0.3-0.2,0.4-0.3c0.1-0.1,0.2-0.2,0.3-0.3
				c-0.1-0.2-0.2-0.4-0.4-0.6C273.9,168,273.5,167.9,273.2,167.9L273.2,167.9z"/>
			<path id="path4717" class="st82" d="M273.2,167.9c-0.3,0-0.6,0.1-0.8,0.4c-0.2,0.2-0.3,0.4-0.4,0.6c0.1,0.1,0.2,0.2,0.3,0.3
				c0.1,0.1,0.2,0.2,0.4,0.3l-0.3,0.4v0.1c0.2,0,0.4,0.1,0.6,0.1c0.3,0,0.5-0.1,0.8-0.1l-0.2-0.4c0.1-0.2,0.2-0.4,0.1-0.7
				c0-0.2-0.1-0.5-0.2-0.6c0-0.1-0.1-0.1-0.2-0.2L273.2,167.9L273.2,167.9z"/>
			<path id="path4725" class="st28" d="M273.5,168.8c-0.2,0-0.5,0-0.7,0l0,0c-0.2,0-0.5,0-0.7,0l0,0c0.2,0,0.5,0,0.7,0l0,0
				C273,168.8,273.3,168.8,273.5,168.8z"/>
			<path id="ellipse4727" class="st28" d="M273.4,169.8c-0.2,0-0.3,0-0.5,0l0,0c-0.2,0-0.3,0-0.5,0l0,0c0.2,0,0.3,0,0.5,0l0,0
				C273.1,169.7,273.3,169.7,273.4,169.8z"/>
			<path id="path4729" class="st28" d="M272.9,168L272.9,168c-0.2,0-0.3,0.1-0.2,0.1s0.1,0.1,0.2,0.1l0,0c0.1,0,0.2-0.1,0.2-0.1l0,0
				C273,168,273,168,272.9,168z M272.7,168.2L272.7,168.2c-0.1,0-0.2,0.1-0.2,0.1l0,0c0,0,0.1,0,0.1,0S272.7,168.2,272.7,168.2
				L272.7,168.2C272.7,168.2,272.7,168.2,272.7,168.2z"/>
		</g>
		<path class="st87" d="M-45.8,239.2c0,0,48.8-289,155.3-102.5c0,0,183.6-175.1,405.4-3.8V13.5H-46L-45.8,239.2z"/>
		<polygon class="st72" points="499.1,292.7 498.1,277.4 414.7,274 400.2,292.2 		"/>
		<rect x="404.1" y="75.2" class="st88" width="93.9" height="200.8"/>
		<path class="st89" d="M406.5,126.9h88.6c1.6,0,3,1.7,3,3.7L497.5,267h-93.9c-0.5-0.1-0.8-0.5-0.8-1c0,0,0,0,0,0V131.4
			C402.9,128.9,404.5,126.9,406.5,126.9z"/>
		<path class="st89" d="M403.9,53.3l94.8-0.1l-0.3,67.3c0,2.3,0.1,4.5-2.3,4.1h-88.2c-2,0-3.7-2.1-3.7-4.6L403.9,53.3z"/>
		<polygon class="st90" points="412.3,290.5 418.7,280 483.1,279.3 487.9,290.7 490,276 410.8,276 		"/>
		<path class="st89" d="M412.3,290.5l-9.3,0.2v-19h95.2v19h-10.1c0,0,1.2-8-4.4-10.8l-67.6,0.7C415.9,280.6,412.2,283.4,412.3,290.5
			z"/>
		<path class="st91" d="M403.7,53.5c0,0,4.3-4.6,6.4-4.7l83.6-0.6c0.9,0,1.8,0.5,2.3,1.3l2.6,3.7L403.7,53.5z"/>
		<path class="st92" d="M402.9,266.9h3.9l-0.8-139.7h-0.7c-1.2,0.1-2.1,1.2-2.1,2.4L402.9,266.9z"/>
		<path class="st92" d="M407.7,124.5L406,53.4c0,0-2.1,0.1-2.3,0l0.5,66.8C404.3,124.2,407.7,124.6,407.7,124.5z"/>
		<g class="st93">
			<polygon class="st94" points="416.6,85.2 416.6,115.4 411.1,115.4 411.2,85 			"/>
		</g>
		<polygon class="st94" points="415.9,81.3 415.8,111.6 410.4,111.6 410.5,81.1 		"/>
		<g class="st93">
			<polygon class="st94" points="416.6,152.3 416.6,197 411.1,197 411.2,152 			"/>
		</g>
		<polygon class="st94" points="415.9,146.6 415.8,191.3 410.4,191.3 410.5,146.3 		"/>
		<rect x="404.2" y="267" class="st88" width="93.9" height="4.7"/>
		
			<linearGradient id="SVGID_7_" gradientUnits="userSpaceOnUse" x1="3076.01" y1="269.175" x2="3084.7002" y2="269.175" gradientTransform="matrix(-1 0 0 -1 3244.8401 426)">
			<stop  offset="0" style="stop-color:#E8EBEB"/>
			<stop  offset="1" style="stop-color:#F3F5F5"/>
		</linearGradient>
		<rect x="160.1" y="144.4" class="st95" width="8.7" height="24.8"/>
		<path class="st28" d="M168.8,144.4l-1.4,1.6h-5.8v21.7l-1.4,1.6v-24.9H168.8z"/>
		<path class="st96" d="M162.1,150.6c0.1,1.3,1.2,2.3,2.5,2.2c1.3-0.1,2.3-1.2,2.2-2.5c-0.1-1.3-1.1-2.2-2.4-2.2
			C163.1,148.1,162.1,149.2,162.1,150.6C162.1,150.6,162.1,150.6,162.1,150.6z"/>
		<rect x="165.6" y="149.7" class="st97" width="0.7" height="1.6"/>
		<rect x="162.7" y="149.7" class="st97" width="0.7" height="1.6"/>
		<ellipse class="st96" cx="164.5" cy="156.9" rx="2.4" ry="2.5"/>
		<rect x="165.6" y="156.1" class="st97" width="0.7" height="1.6"/>
		<rect x="162.7" y="156.1" class="st97" width="0.7" height="1.6"/>
		<path class="st97" d="M152.7,173.1c4,1.9,8.4,0,9.9-1.2c0.8-0.7,1.4-5.3,1.5-6.1c-1.2-0.2-2-1.3-2-2.5c-0.1-1.3,0.8-2.5,2.2-2.6
			c1.3-0.1,2.5,0.8,2.6,2.2c0,0.1,0,0.3,0,0.4c0.1,1.2-0.7,2.2-1.8,2.5c-0.1,1-0.6,5.8-1.9,6.8c-1.2,0.9-2.6,1.6-4.1,2
			c-2.2,0.5-4.6,0.2-6.7-0.7L152.7,173.1z"/>
		<polygon class="st98" points="144.2,176.9 157.9,176.4 150.4,185.2 94,185.5 101.5,179.6 		"/>
		<path class="st99" d="M97.8,142.7l9.1-4.2h48.6l-7,4.7C148.5,143.3,109.3,145.6,97.8,142.7z"/>
		<polygon class="st100" points="147,144.3 149.3,184.4 155.6,177.6 155.5,138.5 		"/>
		<path class="st101" d="M148.6,142.6H98.1c-1,0.1-1.6,1-1.5,2v37.9c-0.1,1,0.6,1.9,1.5,2h50.5c1-0.1,1.6-1,1.5-2v-37.9
			C150.3,143.7,149.6,142.8,148.6,142.6z"/>
		<g>
			<defs>
				<path id="SVGID_8_" d="M148.6,142.6H98.1c-1,0.1-1.6,1-1.5,2v37.9c-0.1,1,0.6,1.9,1.5,2h50.5c1-0.1,1.6-1,1.5-2v-37.9
					C150.3,143.7,149.6,142.8,148.6,142.6z"/>
			</defs>
			<clipPath id="SVGID_9_">
				<use xlink:href="#SVGID_8_"  style="overflow:visible;"/>
			</clipPath>
			<g class="st102">
				<rect x="108.7" y="140.8" class="st103" width="0.6" height="46.9"/>
				<path class="st104" d="M129.9,176.8H97.8v0.9c0,2.6,1.6,4.7,3.7,4.7h24.1C128,182.5,129.9,179.9,129.9,176.8L129.9,176.8z"/>
				<g>
					<defs>
						<path id="SVGID_10_" d="M129.9,176.8H97.8v0.9c0,2.6,1.6,4.7,3.7,4.7h24.1C128,182.5,129.9,179.9,129.9,176.8L129.9,176.8z"/>
					</defs>
					<clipPath id="SVGID_11_">
						<use xlink:href="#SVGID_10_"  style="overflow:visible;"/>
					</clipPath>
					<g class="st105">
						<path class="st106" d="M112.8,183.5L112.8,183.5c0.5-2.6,2.3-4.5,4.3-4.5h24.1c2,0,3.6,2,3.6,4.5l0,0v-0.9
							c0-2.6-1.6-4.7-3.6-4.7h-24.1C114.7,177.9,112.8,180.4,112.8,183.5z"/>
					</g>
				</g>
				<path class="st21" d="M108,176.8h-0.5v0.9c0,2.6,0.6,4.7,1.4,4.7h0.2c-0.6-0.6-1-2.5-1-4.7V176.8z"/>
				<path class="st107" d="M129.9,176.8H97.8v-0.3c-0.1-0.7,0.4-1.4,1.2-1.5h29.6C129.4,175.2,130,176,129.9,176.8L129.9,176.8z"/>
				<path class="st21" d="M108,176.8h-0.5v-0.3c0-0.8,0.6-1.5,1.4-1.6h0.2c-0.6,0.3-1,0.9-1,1.5V176.8z"/>
			</g>
		</g>
		<path class="st25" d="M142.3,145.9h-27.9c-1,0.1-1.7,1-1.6,2v23.9c-0.1,1,0.6,1.9,1.6,2h27.9c2.6,0,4.7-2.7,4.7-6.1V152
			C147,148.7,144.9,145.9,142.3,145.9z"/>
		<path class="st108" d="M102.6,171.9c-2,0.2-3.7-1.3-3.9-3.3c-0.2-2,1.3-3.7,3.3-3.9c2-0.2,3.7,1.3,3.9,3.3c0,0.1,0,0.2,0,0.3
			C106,170.2,104.5,171.8,102.6,171.9z"/>
		<path class="st109" d="M102.6,171.5c-1.8,0.1-3.3-1.2-3.5-2.9c-0.1-1.8,1.2-3.3,2.9-3.5c1.8-0.1,3.3,1.2,3.5,2.9
			c0,0.1,0,0.2,0,0.3C105.6,170,104.3,171.4,102.6,171.5z"/>
		<path class="st110" d="M102.6,165.1c0.3,0,0.5,0,0.8,0.1c1.2,0.9,0.6,4.9,0,6.2c-0.3,0.1-0.5,0.1-0.8,0.1
			c-1.8-0.2-3.1-1.7-2.9-3.5C99.9,166.5,101.1,165.3,102.6,165.1z"/>
		<path class="st110" d="M102.4,169.1c-0.5,0-0.9-1.2-0.9-2.6s0.4-2.6,0.9-2.6s0.9,1.2,0.9,2.6S102.9,169.1,102.4,169.1z"/>
		<path class="st111" d="M102.6,164c-0.4,0-0.8,1.2-0.8,2.6s0.3,2.6,0.8,2.6s0.8-1.2,0.8-2.6S103,164,102.6,164z"/>
		<g>
			<defs>
				<ellipse id="SVGID_12_" cx="102.6" cy="166.6" rx="0.8" ry="2.6"/>
			</defs>
			<clipPath id="SVGID_13_">
				<use xlink:href="#SVGID_12_"  style="overflow:visible;"/>
			</clipPath>
			<g class="st112">
				<path class="st113" d="M102.5,169.1c-0.2,0-0.3-1.2-0.3-2.6s0.2-2.6,0.3-2.6s0.3,1.2,0.3,2.6S102.7,169.1,102.5,169.1z"/>
			</g>
		</g>
		<path class="st108" d="M102.6,161.3c-2.1,0.3-4.1-1.2-4.4-3.3c-0.3-2.1,1.2-4.1,3.3-4.4c2.1-0.3,4.1,1.2,4.4,3.3
			c0,0.2,0,0.4,0,0.5C106.1,159.5,104.6,161.2,102.6,161.3z"/>
		<path class="st109" d="M102.6,160.9c-1.9,0.3-3.6-1-3.9-2.9c-0.3-1.9,1-3.6,2.9-3.9c1.9-0.3,3.6,1,3.9,2.9c0,0.2,0,0.3,0,0.5
			C105.7,159.2,104.3,160.7,102.6,160.9z"/>
		<path class="st110" d="M102.6,154.1c0.3,0,0.5,0,0.8,0.1c1.2,1,0.6,5.2,0,6.5c-0.2,0.1-0.5,0.1-0.8,0.1c-1.9-0.2-3.2-2-2.9-3.8
			C99.9,155.5,101.1,154.3,102.6,154.1L102.6,154.1z"/>
		<path class="st110" d="M102.4,158.4c-0.5,0-0.9-1.2-0.9-2.8s0.4-2.8,0.9-2.8s0.9,1.2,0.9,2.8S102.9,158.4,102.4,158.4z"/>
		<path class="st111" d="M102.6,152.9c-0.4,0-0.8,1.2-0.8,2.8s0.3,2.8,0.8,2.8s0.8-1.2,0.8-2.8S103,152.9,102.6,152.9z"/>
		<g>
			<defs>
				<ellipse id="SVGID_14_" cx="102.6" cy="155.6" rx="0.8" ry="2.8"/>
			</defs>
			<clipPath id="SVGID_15_">
				<use xlink:href="#SVGID_14_"  style="overflow:visible;"/>
			</clipPath>
			<g class="st114">
				<path class="st113" d="M102.5,158.4c-0.2,0-0.3-1.2-0.3-2.8s0.2-2.8,0.3-2.8s0.3,1.2,0.3,2.8S102.7,158.4,102.5,158.4z"/>
			</g>
		</g>
		<path class="st25" d="M105.3,145.9H100c-0.6,0.1-1,0.6-0.9,1.2v2.1c-0.1,0.6,0.3,1.1,0.9,1.2h5.3c0.6-0.1,1-0.6,0.9-1.2v-2.1
			C106.2,146.5,105.9,146,105.3,145.9z"/>
		<rect x="24.8" y="348.1" class="st115" width="429.9" height="44.4"/>
		<rect x="24.8" y="348.1" class="st116" width="429.9" height="16.2"/>
		<path class="st117" d="M145.2,195.7c0,0-3.7-6.1,16.8-8.7c0,0,11.8-2.6,14.8-5.8s45,2.8,53.3,31.5c0,0,11.1,29.7-11.1,64.4
			c0,0-11.9,19.6,11.3,70.1c0.4,0.9,3.9-0.6,4.3,0.3l-3,0.4l-111.8,0.8c0,0,11.6-28.3,16-44.2c0,0-3.4-15.8,4.7-34.5
			S145.2,195.7,145.2,195.7z"/>
		<path class="st118" d="M168.4,275.8c-2.5,0-5.1-0.4-7.5-1.3c-2.4-0.8-4.7-2-6.7-3.6c-1-0.8-1.9-1.7-2.8-2.6c-0.8-1-1.5-2-2.2-3.2
			c-0.6-1.1-1.1-2.3-1.6-3.5c-0.2-0.6-0.4-1.2-0.5-1.8c-0.1-0.6-0.3-1.2-0.4-1.9c0.8,2.4,1.8,4.6,3.1,6.8c0.7,1,1.4,2,2.2,2.9
			c0.8,0.9,1.7,1.7,2.7,2.5c1.9,1.5,4.1,2.8,6.4,3.7c1.2,0.5,2.3,0.9,3.5,1.2C166,275.4,167.2,275.6,168.4,275.8z"/>
		<path class="st119" d="M213.4,197c-2.8,6.3-11.2,14.3-24,8.7s-20.7-16.6-18-22.9s13.3-5.4,26.1,0.1S216.2,190.7,213.4,197z"/>
		<path class="st120" d="M213.5,187.4l-2.3,8.6c-1.2,1.9-3,3.4-5.2,4.2c-0.6,0.3-1.2,0.5-1.8,0.7c-2.2,0.7-4.4,1.2-6.7,1.4
			c-17.9,0.1-23.3-18.2-23.3-18.2c1.5-0.9,2.9-2.1,4.1-3.4c1.6-1.7,2.7-3.8,3.4-6c0.8-2.5,1-5.2,0.5-7.8
			C182.3,143.5,213.5,187.4,213.5,187.4z"/>
		<path class="st121" d="M206.3,200.4c-0.6,0.3-1.2,0.5-1.8,0.7c-15.5-0.4-23.2-14-25.9-20.2c1.6-1.7,2.7-3.8,3.4-6l6.8-4.2
			L206.3,200.4z"/>
		<path class="st117" d="M253.8,319l-0.3,2.2l-2.2,15c-5.4-10.9-14.2-15.6-18.5-14.4l-2.7,1.3l0.4-8.9l1.3-30.9l-7-9.4l0.7-13
			l-7.4-64c12.5,2.7,16.7,15.8,16.7,15.8c7.8,22.8,14.8,39.1,21.8,58.6C263.7,290.7,253.8,319,253.8,319z"/>
		
			<ellipse transform="matrix(0.5575 -0.8302 0.8302 0.5575 -169.2804 346.7021)" class="st122" cx="240.6" cy="332.1" rx="5.8" ry="12.4"/>
		<path class="st123" d="M170.1,224.1c0,0,8,7.3,33,7.4s22.3-1.3,22.3-1.3s0.2,12.5,1.9,17.6s7.3,15.8-1.6,29.3s-3.8,17.2,0.3,30.1
			s5.3,21.7,6.6,33.3s-101.5,7.8-101.5,7.8s0-13.1,12.5-50.8c0,0,14.7-32.6,14.9-50.7S170.1,224.1,170.1,224.1z"/>
		<path class="st123" d="M157.2,187.4c1.8-1.5,4.1-2.2,6.4-1.9c5.6,12.9,9,26.6,10.2,40.5c0,0-2.4,6.4-7.6,0.5
			C166.3,226.5,167.6,214.6,157.2,187.4z"/>
		<path class="st123" d="M213.8,199.6c0,0.9,4.6,19.4,5.1,31.6c0,0,0.7,4.1,3.9,3.5c0,0,2.6,0,2.6-4.6c0-7.2-4.4-32.6-7.7-34.3
			S214,193.3,213.8,199.6z"/>
		<path class="st120" d="M185.5,318.2c0,0,5,5.8,3.9,11.8c-1.8,1.1-4.1,0.5-5.1-1.2c-0.2-0.2-0.3-0.5-0.4-0.8
			C182,323.8,185.5,318.2,185.5,318.2z"/>
		<path class="st124" d="M300.5,392.5H74.7l21.3-36.3c3.1-6.3,8.6-10.1,14.6-10l148.3,1.2c5.1,0,9.9,2.9,13.1,7.8L300.5,392.5z"/>
		<path class="st125" d="M289.3,392.1H84.8l19.2-33.9c2.6-4.8,7.7-7.9,13.2-7.9l134.3,1c4.7,0.1,9.1,2.4,11.8,6.1L289.3,392.1z"/>
		<ellipse class="st126" cx="203.9" cy="367.4" rx="21.9" ry="7.4"/>
		<ellipse class="st127" cx="179.8" cy="150.9" rx="19.7" ry="26.4"/>
		<ellipse class="st127" cx="173.1" cy="90.9" rx="31.9" ry="37"/>
		
			<ellipse transform="matrix(0.8137 -0.5813 0.5813 0.8137 -7.6667 117.6686)" class="st128" cx="179.7" cy="70.8" rx="20.2" ry="10.1"/>
		<path class="st120" d="M244.6,181.2c2,2.8,5,2.5,7.5,1.6c2.5-1,4.7-2.6,6.6-4.6c10.5-11,12-23.8,5.2-23.4
			c-7.1,0.5-14.9,15.3-14.9,15.3"/>
		<path class="st121" d="M265.9,162.9c0.3,0.3-3.7-7.2-13,7.1c0,0,2.2,1.8-0.1,3.4s-5.3,2.5-3.7,3.3s3.9,1.9,6.8-1.1
			c0,0,2.3-2.9,1.4-5.5S265.7,162.6,265.9,162.9z"/>
		<path class="st129" d="M255.9,175.6c-0.8,1.3-2.2,2.2-3.8,2.3c-0.8,0-1.5-0.2-2.2-0.5c-0.3-0.2-0.6-0.4-1-0.6
			c-0.2-0.1-0.3-0.3-0.4-0.5c0-0.2,0.1-0.4,0.3-0.6c0.6-0.5,1.2-0.9,1.8-1.2c0.6-0.4,1.2-0.8,1.8-1.2c0.5-0.3,0.9-0.8,1-1.4
			c-0.1-0.6-0.4-1.2-0.8-1.6l-0.3-0.2l0.2-0.3c0.8-1.2,1.7-2.4,2.6-3.6c0.9-1.1,1.9-2.2,3-3.2c1.1-1,2.4-1.7,3.9-2.1
			c0.8-0.1,1.5,0,2.2,0.4c0.6,0.4,1.1,0.9,1.6,1.5v0.1c-0.2-0.1-0.3-0.3-0.4-0.4l-0.4-0.4c-0.3-0.2-0.6-0.4-0.9-0.6
			c-0.6-0.3-1.3-0.4-2-0.3c-1.4,0.4-2.6,1.1-3.6,2.1c-2,2-3.8,4.3-5.3,6.8l-0.1-0.5c0.3,0.3,0.6,0.6,0.8,0.9
			c0.2,0.4,0.3,0.8,0.3,1.3c-0.1,0.8-0.7,1.6-1.5,1.9c-1.3,0.8-2.7,1.2-3.8,2.1c-0.1,0.1-0.2,0.3-0.2,0.4s0.2,0.2,0.3,0.3
			c0.3,0.1,0.7,0.3,1,0.4c0.6,0.2,1.3,0.3,2,0.3c1.4-0.2,2.7-0.8,3.7-1.7L255.9,175.6z"/>
		
			<ellipse transform="matrix(0.4264 -0.9045 0.9045 0.4264 -20.9875 327.643)" class="st130" cx="247.8" cy="180.4" rx="2.6" ry="1.9"/>
		<path class="st131" d="M246.2,179.6c-0.3,0.5-0.3,1.1-0.2,1.7c0.1,0.5,0.4,0.9,0.9,1.1c0.4,0.1,0.9-0.1,1.2-0.4
			c0.4-0.3,0.6-0.7,0.8-1.1c0.2-0.4,0.3-0.9,0.4-1.4c0.1-0.4-0.1-0.9-0.4-1.2c-0.5-0.3-1-0.3-1.5,0
			C246.9,178.6,246.5,179.1,246.2,179.6z M246.1,179.6c0.2-0.5,0.6-1,1.1-1.4c0.6-0.6,1.6-0.5,2.2,0.1c0.3,0.3,0.4,0.7,0.4,1.1
			c0,0.6-0.1,1.2-0.3,1.8c-0.3,0.6-0.7,1-1.1,1.4c-0.7,0.6-1.6,0.5-2.2-0.1c-0.3-0.3-0.4-0.7-0.4-1.1
			C245.8,180.7,245.9,180.1,246.1,179.6L246.1,179.6z"/>
		<path class="st120" d="M179.8,121c0,0-11.9,39.7,3.5,60.4c14.3,19.2,25.8,21.4,25.8,21.4s11.8,5.7,32.8-9.3
			c11.4-8.2,15.7-26.1,18.9-35.3c4.2-12.1,10-14.9,9.8-21.6c0,0,22.2-52.7-27-67.7S171.7,99.1,179.8,121z"/>
		<path class="st127" d="M209.4,147.4c-0.2,0.6,3.6,8.2,8.8,1.4L209.4,147.4z"/>
		<path class="st127" d="M245.6,155c-0.2,0.6,3.4,9.7,9.6,2.7L245.6,155z"/>
		<path class="st121" d="M247.4,105.1l-0.8,0.2c-5.3,1.1-34.1,7.3-45.3,14.5c0,0-10.9,3.9-24.5,25.1c0,0,1.6-47.2,3.1-47.6
			s79-0.8,79-0.8l10.3,44.4l-6.8,12.5C262.4,153.4,270.8,130.1,247.4,105.1z"/>
		<path class="st132" d="M206.5,126.7c1.7-0.9,3.5-1.7,5.3-2.3c1.8-0.6,3.8-0.9,5.7-0.9c1,0,2,0,2.9,0.2c1,0.2,2,0.5,2.8,1.1
			c1.9,1.2,3.2,3,3.8,5.1l-0.2,0.1c-0.8-0.6-1.6-1.2-2.3-1.6c-0.7-0.5-1.5-0.9-2.3-1.2c-1.6-0.7-3.2-1.3-4.9-1.6
			c-0.9-0.1-1.8-0.2-2.7-0.1c-0.9,0-1.8,0.1-2.7,0.2c-1.8,0.2-3.7,0.6-5.4,1.2L206.5,126.7z"/>
		<path class="st132" d="M263.7,144.3c-0.4-1.7-1.1-3.4-1.9-5c-0.8-1.6-1.8-3-3.1-4.3c-0.6-0.6-1.3-1.2-2-1.7
			c-0.8-0.5-1.7-0.8-2.6-1c-2.1-0.3-4.2,0.1-6,1.2v0.2c0.9,0.1,1.8,0.1,2.6,0.3c0.8,0.1,1.6,0.3,2.3,0.6c1.5,0.5,2.9,1.1,4.3,2
			c0.7,0.5,1.3,1,1.8,1.6c0.6,0.6,1.1,1.2,1.6,1.9c1,1.4,1.9,2.8,2.7,4.3L263.7,144.3z"/>
		<path class="st133" d="M243.7,151.9c1,0.9,2.1,1.8,3.3,2.6c0.5,0.3,1.1,0.7,1.6,0.9c0.5,0.3,1,0.5,1.6,0.6l0.4,0.1l0.4,0.1
			c0.3,0.1,0.6,0.1,0.9,0.1l0.9,0.1c0.3,0,0.6,0,0.9,0h0.5c0.2,0,0.3,0,0.5,0h1.1c0.8-0.1,1.5-0.1,2.3-0.1l0.1,0.2
			c-0.7,0.3-1.3,0.6-2,0.9l-1,0.3l-0.5,0.2l-0.6,0.1c-1.5,0.3-3,0.3-4.4-0.2c-1.4-0.5-2.7-1.3-3.7-2.4c-0.5-0.5-1-1.1-1.4-1.7
			c-0.4-0.6-0.8-1.3-1-2L243.7,151.9z"/>
		<path class="st133" d="M223.2,146.4c-0.3,0.4-0.6,0.7-1,1c-0.4,0.3-0.8,0.5-1.2,0.7c-0.4,0.2-0.8,0.4-1.3,0.6s-0.9,0.3-1.3,0.4
			c-0.5,0.1-0.9,0.2-1.4,0.2l-1.4,0.1c-0.9,0-1.8-0.1-2.7-0.3c-1.8-0.5-3.5-1.3-4.9-2.5c-0.7-0.6-1.3-1.3-1.9-2
			c-0.5-0.7-1-1.5-1.3-2.4l0.1-0.1c0.6,0.6,1.2,1.2,1.8,1.7c0.6,0.5,1.3,1,2,1.4c1.4,0.9,2.9,1.5,4.5,1.9c1.6,0.4,3.3,0.6,4.9,0.5
			c0.8-0.1,1.6-0.2,2.4-0.4c0.4-0.1,0.8-0.2,1.2-0.3c0.4-0.1,0.7-0.3,1.1-0.5L223.2,146.4z"/>
		<path class="st129" d="M224.1,164.2c-0.2,2,0.4,4,1.8,5.6c0.7,0.7,1.6,1.2,2.5,1.4c1,0.2,2,0.3,2.9,0.2c1-0.1,1.9-0.5,2.6-1.1
			c0.7-0.7,1.3-1.5,1.6-2.4c0.6-1.9,0.8-3.9,0.6-5.9l0,0c-0.3-1.8-0.4-3.6-0.2-5.4c0.2-1.8,0.6-3.6,1.4-5.2c0.8-1.6,1.8-3.2,3-4.5
			c1.2-1.3,2.7-2.4,4.3-3.3c-1.5,1-2.8,2.2-4,3.5c-1.1,1.3-2.1,2.8-2.7,4.5c-1.3,3.3-1.7,6.8-1,10.3l0,0l0,0c0.2,2.1,0,4.2-0.7,6.2
			c-0.4,1-1,1.9-1.8,2.6c-0.8,0.7-1.9,1.1-3,1.2c-1,0.1-2.1,0-3.1-0.3c-1-0.3-2-0.8-2.7-1.6C224.3,168.3,223.7,166.3,224.1,164.2z"
			/>
		<path class="st134" d="M209.6,173.4c1.8,1.7,3.6,3.2,5.4,4.7c0.9,0.7,1.9,1.4,2.9,2.1c1,0.7,2,1.3,3,1.8c2.1,1.1,4.3,1.8,6.6,2.1
			c1.2,0.1,2.4,0.1,3.5,0c1.2-0.1,2.4-0.4,3.6-0.7c-1,0.7-2.2,1.3-3.4,1.6c-1.2,0.4-2.5,0.6-3.8,0.6c-2.6,0-5.2-0.7-7.4-1.9
			c-2.2-1.2-4.2-2.6-6-4.4C212.2,177.4,210.7,175.5,209.6,173.4z"/>
		<path class="st134" d="M215.5,183c0.8,0.9,1.5,1.6,2.3,2.4c0.4,0.4,0.8,0.7,1.2,1c0.4,0.3,0.8,0.6,1.2,0.8
			c0.8,0.5,1.6,0.8,2.5,0.9c0.4,0,0.8,0,1.3-0.2c0.4-0.1,0.8-0.3,1.2-0.6c-0.3,0.4-0.7,0.8-1.1,1.1c-0.4,0.3-0.8,0.4-1.3,0.5
			c-1,0.1-2-0.2-2.8-0.7c-0.9-0.6-1.8-1.3-2.5-2.2C216.7,185.1,216,184.1,215.5,183z"/>
		<path class="st134" d="M234.2,180.1c0.6,0.2,1.2,0.6,1.6,1.2c0.5,0.6,0.7,1.3,0.5,2.1c-0.2,0.7-0.6,1.3-1.2,1.7
			c-0.3,0.2-0.6,0.3-0.9,0.5c-0.3,0.1-0.6,0.2-0.9,0.3c0.2-0.2,0.4-0.5,0.7-0.7l0.6-0.6c0.3-0.4,0.6-0.9,0.7-1.4
			C235.6,182.2,235,181.1,234.2,180.1z"/>
		<path class="st134" d="M211.2,170.5c-0.7,0.7-1.4,1.5-1.8,2.4c-0.2,0.4-0.2,0.9-0.2,1.3c0.1,0.5,0.2,1,0.4,1.5
			c-0.5-0.3-0.9-0.8-1.1-1.3c-0.3-0.6-0.3-1.3,0-1.9c0.2-0.6,0.6-1.1,1.1-1.4C210,170.8,210.6,170.6,211.2,170.5z"/>
		<path class="st127" d="M247.4,103.3c0,0-12.7,0-47.7,13.3c0,0-20.7,8.1-23.5,30.4c0,0-5.3,22.6-14.6,4.8
			c-40.4-76.9,42.7-107.6,75-99.4c0,0,39.4,11.8,44.7,62.6c0,0.2,0,0.4,0,0.6c-0.3,2.8-1.6,24.6-19.1,39.3
			C262.3,155,272.9,127.7,247.4,103.3z"/>
		<path class="st120" d="M178.7,148.4c0,0,0.4-16.7-6.9-20.8c-6.9-3.8-12.8,8-8.1,22.8c0.8,2.7,2.3,5.3,4.3,7.3
			c2.1,2.1,5.2,3.8,8.9,2.5"/>
		<path class="st121" d="M165,133.6c-0.4,0.1,8.1-4.3,9.6,12.8c0,0-3.4,0.4-1.9,3s4.2,4.9,2,4.8s-5.2-0.3-6.5-4.4
			c0,0-0.7-3.7,1.7-5.4S165.4,133.4,165,133.6z"/>
		<path class="st129" d="M168.2,149.6c0.6,1.5,1.6,2.7,3,3.4c0.7,0.3,1.4,0.6,2.2,0.7c0.4,0.1,0.8,0.1,1.2,0.2s0.9,0.1,0.8-0.3
			c-0.1-0.4-0.3-0.7-0.5-1c-0.2-0.3-0.5-0.6-0.7-1c-0.5-0.6-1-1.2-1.5-1.9c-0.3-0.3-0.5-0.7-0.6-1.1c-0.2-0.5-0.1-1,0.2-1.4
			c0.3-0.4,0.6-0.7,1.1-0.9c0.4-0.2,0.8-0.3,1.3-0.4l-0.3,0.4c-0.1-1.6-0.3-3.1-0.6-4.6c-0.3-1.5-0.7-3-1.3-4.4
			c-0.5-1.4-1.5-2.6-2.8-3.5c-0.7-0.4-1.4-0.6-2.2-0.6c-0.4,0-0.8,0-1.1,0.1c-0.4,0.1-0.8,0.2-1.2,0.2v-0.1c0.7-0.2,1.5-0.4,2.3-0.5
			c0.8,0,1.6,0.1,2.4,0.5c1.4,0.8,2.5,2,3.2,3.5c0.7,1.4,1.2,3,1.5,4.5c0.3,1.5,0.6,3.1,0.7,4.7v0.4l-0.4,0.1
			c-0.7,0.1-1.3,0.4-1.8,0.9c-0.4,0.5-0.1,1.2,0.3,1.9s0.8,1.4,1.3,2c0.5,0.7,0.9,1.4,1.2,2.1c0,0.1,0,0.3-0.1,0.4
			c-0.1,0.1-0.2,0.2-0.3,0.2c-0.2,0-0.4,0-0.6,0c-0.4,0-0.8,0-1.2,0c-0.8,0-1.7-0.2-2.4-0.6c-1.5-0.8-2.5-2.3-2.8-4L168.2,149.6z"/>
		
			<ellipse transform="matrix(7.706703e-02 -0.997 0.997 7.706703e-02 3.1694 319.0871)" class="st130" cx="173.9" cy="157.8" rx="2.6" ry="2.2"/>
		<path class="st131" d="M176.2,158c0,0.7-0.3,1.3-0.7,1.8c-0.4,0.6-1.1,1-1.8,1c-0.8,0-1.5-0.4-2-1c-1-1.3-0.8-3.1,0.3-4.3
			c0.6-0.6,1.4-0.8,2.2-0.7c0.7,0.1,1.3,0.6,1.6,1.3C176.2,156.7,176.3,157.4,176.2,158z M176.1,158c0-0.6-0.1-1.3-0.5-1.8
			c-0.3-0.5-0.9-0.9-1.6-0.9c-0.6,0-1.2,0.2-1.6,0.7c-0.8,1-1,2.4-0.3,3.5c0.3,0.5,0.9,0.9,1.5,0.9c0.6,0,1.2-0.2,1.7-0.7
			C175.8,159.2,176.1,158.6,176.1,158z"/>
		<path class="st135" d="M198.6,358c0-1.5-2.7-2.8-6.1-2.9s-6.2,1.1-6.2,2.6c0,0.4,0,2-0.1,2.4c0,1.5,2.7,2.9,6.1,2.9
			s6.2-1.1,6.2-2.6C198.6,360,198.6,358.4,198.6,358z"/>
		<path class="st136" d="M197.1,356.1l-0.1,6.1c1-0.5,1.6-1.1,1.6-1.8l0.1-2.4C198.7,357.3,198.1,356.6,197.1,356.1z"/>
		<path class="st137" d="M192.4,360.6c3.4,0.1,6.2-1.1,6.2-2.6s-2.7-2.8-6.1-2.9s-6.2,1.1-6.2,2.6S189.1,360.6,192.4,360.6z"/>
		<path class="st138" d="M192.5,360.2c3,0.1,5.5-1,5.5-2.3s-2.4-2.5-5.4-2.6s-5.5,1-5.5,2.3S189.4,360.2,192.5,360.2z"/>
		<path class="st139" d="M192.5,358.5c1.2,0,2.1-0.4,2.1-0.9s-0.9-1-2.1-1s-2.1,0.4-2.1,0.9S191.3,358.5,192.5,358.5z"/>
		<path class="st139" d="M218.6,338.7c-3.5,2.6-8,6.4-12.8,10.7l8.3,11.2c5.4-3.3,10.4-6.5,13.9-9.1c8.5-6.3,7.6-10,4.9-13.5
			S227.1,332.4,218.6,338.7z"/>
		<path class="st135" d="M218.6,338.7c-3.4,2.6-7.4,6.5-12.8,10.7l8.3,11.2c5.4-3.3,10.4-6.5,13.9-9.1c8.5-6.3,7.6-10,4.9-13.5
			S227,332.3,218.6,338.7z"/>
		<path class="st136" d="M232.7,337.4c2.4,3.4,2.8,7.1-5.4,13.3c-3.5,2.6-8.3,5.8-13.6,9.1l0.5,0.7c5.4-3.3,10.4-6.5,13.9-9.1
			c8.5-6.3,7.6-10,4.9-13.5C232.9,337.7,232.8,337.6,232.7,337.4z"/>
		<path class="st139" d="M218.4,340.3c-1.7,1.1-3.5,3.2-5.5,4.8c-1,0.9-1.5,3-2.6,3.9s-2.3,1-3.5,1.5l2.9,3.9c0.6,0,1.2,0,1.8-0.1
			c2-0.7,4.9-3.5,5.9-4.9c1.4-2,0.6-3.7,1.1-4.1s3.3,0.9,4.1,0.3c4.1-3,9.2-6.3,8.2-8.1C229.1,334.7,227.2,334.5,218.4,340.3z"/>
		<path class="st140" d="M224.2,339.5c-0.1,0.2-1,0-2-0.5s-1.6-1.2-1.5-1.4s1,0,2,0.5S224.4,339.3,224.2,339.5z"/>
		<path class="st140" d="M221.9,349.7c-0.2,0.2-0.9-0.4-1.6-1.3s-1-1.7-0.8-1.9s0.9,0.4,1.6,1.3S222.1,349.5,221.9,349.7z"/>
		<path class="st140" d="M227.9,350.8c-0.3,0.1-0.8-0.6-1.2-1.7s-0.5-2-0.3-2s0.8,0.7,1.2,1.7S228.1,350.7,227.9,350.8z"/>
		<path class="st140" d="M232.7,345.8c-0.3,0.1-0.7-0.7-1-1.8s-0.3-2-0.1-2.1s0.7,0.7,1,1.8S233,345.8,232.7,345.8z"/>
		<path class="st141" d="M231.8,338.8c1.4,1.6,2.3,3.6,2.7,5.6c1-2.5,0.1-4.6-1.4-6.6s-3.2-3.5-5.9-3.3
			C229,335.6,230.6,337,231.8,338.8z"/>
		<path class="st135" d="M212.6,353c-2.3-3.1-5.3-4.7-6.7-3.7s-0.7,4.4,1.6,7.5s5.3,4.7,6.7,3.7S214.9,356.1,212.6,353z"/>
		<path class="st138" d="M212.2,353.3c-2.1-2.8-4.7-4.2-5.9-3.3s-0.6,3.9,1.5,6.6s4.7,4.2,5.9,3.3S214.2,356.1,212.2,353.3z"/>
		<path class="st139" d="M210.6,354.5c-0.8-1.1-1.8-1.6-2.3-1.3s-0.2,1.5,0.6,2.6s1.8,1.6,2.3,1.3S211.4,355.6,210.6,354.5z"/>
		<path class="st136" d="M213.9,351.6c1,1.5,1.8,3.1,2.4,4.8c-0.4-1.7-1-3.2-1.9-4.7c-2.2-3.3-5.1-5.1-6.6-4.1
			c-0.1,0.1-0.2,0.2-0.3,0.3C209.1,347.1,211.7,348.7,213.9,351.6z"/>
		<path class="st135" d="M210.1,368.2c-0.1-1.7-3.3-3-7.1-2.8s-6.9,1.7-6.8,3.5c0,0.5,0.1,2.2,0.1,2.7c0.1,1.7,3.3,3,7.1,2.8
			s6.9-1.7,6.8-3.5C210.3,370.4,210.2,368.6,210.1,368.2z"/>
		<path class="st136" d="M208.3,366.1l0.3,6.9c1.1-0.6,1.8-1.4,1.7-2.2l-0.1-2.7C210.1,367.4,209.4,366.6,208.3,366.1z"/>
		<path class="st137" d="M203.3,371.6c3.9-0.2,6.9-1.7,6.8-3.5s-3.3-3-7.1-2.8s-6.9,1.7-6.8,3.5S199.5,371.8,203.3,371.6z"/>
		<path class="st138" d="M203.3,371.2c3.4-0.1,6.2-1.5,6.1-3s-2.9-2.6-6.3-2.5s-6.2,1.5-6.1,3S199.9,371.3,203.3,371.2z"/>
		<path class="st139" d="M203.2,369.2c1.3-0.1,2.4-0.6,2.4-1.2s-1.1-1-2.4-1s-2.4,0.6-2.4,1.2S201.9,369.3,203.2,369.2z"/>
		<path class="st135" d="M198.8,364.3c0-1.7-3-3.2-6.9-3.3s-7,1.3-7,3c0,0.5-0.1,2.2-0.1,2.7c0,1.7,3,3.2,6.9,3.3s7-1.3,7-3
			C198.7,366.6,198.8,364.8,198.8,364.3z"/>
		<path class="st136" d="M197,362.2l-0.1,6.9c1.1-0.5,1.8-1.3,1.9-2.1l0.1-2.7C198.8,363.5,198.1,362.8,197,362.2z"/>
		<path class="st137" d="M191.8,367.4c3.9,0.1,7-1.3,7-3s-3-3.2-6.9-3.3s-7,1.3-7,3S187.9,367.3,191.8,367.4z"/>
		<path class="st138" d="M191.8,366.9c3.4,0.1,6.2-1.1,6.3-2.6s-2.7-2.8-6.2-2.9s-6.2,1.1-6.3,2.6S188.3,366.8,191.8,366.9z"/>
		<path class="st139" d="M191.8,364.9c1.3,0,2.4-0.4,2.4-1s-1.1-1.1-2.4-1.1s-2.4,0.4-2.4,1S190.4,364.9,191.8,364.9z"/>
		<g>
			<defs>
				<path id="SVGID_16_" d="M174.6,320.5c4,2.4,23.3,14.9,23.3,14.9c18.6,12,30.8,19.4,35.1,25.8c-4.9,0-10.3-1.6-16.7-4.7
					c0,0,0,0,0,0l-0.1-0.6c0.1,0.2,0.1,0.4,0.1,0.5c-0.1-0.6-0.2-1.1-0.4-1.6l0,0c-0.4-1.1-0.9-2.1-1.4-3.1
					c-2.2-3.3-5.1-5.1-6.6-4.1c-0.1,0.1-0.2,0.1-0.3,0.2l-1.7,1.5c0,0-0.3,0.5-0.6,1.1c0,0,0,0.1-0.1,0.1c-3.7-2.2-7.6-4.6-11.9-7.4
					l0.7-1.1l0,0c-1.6-5.6-9.5-4.5-12.3-6.8c-2.9-2.5-3.4-4.6-8.4-7.2c-0.8-0.3-1.6-0.3-2.4,0c-1.2,0.3-2.3,1.3-3-2.8
					C167.2,320.9,171.3,318.6,174.6,320.5z"/>
			</defs>
			<clipPath id="SVGID_17_">
				<use xlink:href="#SVGID_16_"  style="overflow:visible;"/>
			</clipPath>
			<g class="st142">
				<path class="st143" d="M198.5,334.8c0,0-19.3-12.6-23.3-14.9c-3.3-1.9-7.4,0.3-6.6,4.6c0.7,4.1,1.8,3.1,3,2.8
					c0.8-0.3,1.6-0.3,2.4,0c5,2.6,5.5,4.8,8.4,7.2c2.7,2.3,13.8,2.5,15.4,8.1c0.5-0.8,0.3-2.1,0.9-3.3
					C199.7,337.5,198.5,334.8,198.5,334.8z"/>
				<path class="st144" d="M197.8,335.5l-0.8,8.4c17.9,11.5,26.1,17.4,36,17.4C228.6,354.9,216.4,347.4,197.8,335.5z"/>
				<path class="st145" d="M197.4,341.6c16.6,10.7,25.2,17.1,34.7,18.6c0.3,0.3,0.4,0.6,0.7,0.9c-9.8-0.1-17.8-5.8-35.7-17.3
					L197.4,341.6z"/>
				<path class="st146" d="M170.9,328c-1.2,0.3-2.3,1.3-3-2.8c-0.3-1.5,0.1-3,1.2-4.1c-2.7,6.5,4.7,5.5,5,5.7c5,2.6,5.5,4.8,8.4,7.2
					c2.7,2.3,13,2,14.6,7.5c0,0.7-0.1,1.4-0.2,1.8c-1.6-5.6-12.6-5.7-15.3-8c-2.9-2.5-3.4-4.6-8.4-7.2
					C172.5,327.7,171.7,327.7,170.9,328z"/>
				<path class="st147" d="M200.8,337.5l3.2,2.1l2.1,10.1c-1-0.6-2.1-1.5-3.1-2.1L200.8,337.5z M212.6,345.1c-2-1.3-4.1-2.7-6.4-4.2
					l2.1,11.5c2.2,1.2,4.3,2.4,6.3,3.4L212.6,345.1z"/>
				<path class="st148" d="M202.1,344.8c1.1,0.7,2.1,1.3,3.2,1.9l0.5,2.7c-0.5-0.3-2.7-1.7-3.2-2.1L202.1,344.8z"/>
				<path class="st149" d="M172,321.4c-1.5-0.1-2.7,0.9-2.6,0.4s1.4-1.4,2.9-1.3s2.8,1,2.8,1.5S173.4,321.5,172,321.4z"/>
				<path class="st148" d="M172.7,324c-0.5-0.2-0.6-0.8-0.4-1.3c0.2-0.5,0.8-0.6,1.3-0.4c0,0,0.1,0.1,0.1,0.1
					c0.4,0.3,0.6,0.8,0.3,1.3c0,0,0,0,0,0C173.7,324.1,173.1,324.3,172.7,324z"/>
				<path class="st148" d="M182.7,330.5c-0.4-0.3-0.5-0.9-0.3-1.3c0.3-0.4,0.9-0.6,1.3-0.3s0.6,0.9,0.3,1.3l0,0
					C183.7,330.6,183.1,330.7,182.7,330.5z"/>
				<path class="st148" d="M192.7,336.9c-0.4-0.3-0.6-0.9-0.3-1.3s0.9-0.6,1.3-0.3l0,0c0.4,0.3,0.6,0.9,0.3,1.3
					S193.1,337.2,192.7,336.9z"/>
			</g>
		</g>
		<path class="st135" d="M211.7,361.5c0.2-1.7-2.8-3.5-6.6-3.9s-7.1,0.7-7.3,2.4l-0.3,2.7c-0.2,1.7,2.8,3.5,6.6,3.9s7.1-0.7,7.3-2.4
			L211.7,361.5z"/>
		<path class="st136" d="M210.1,359.2l-0.7,6.9c1.2-0.5,1.9-1.1,2-1.9l0.3-2.7C211.8,360.7,211.2,359.9,210.1,359.2z"/>
		<path class="st137" d="M204.4,363.9c3.8,0.4,7.1-0.7,7.3-2.4s-2.8-3.5-6.6-3.9s-7.1,0.7-7.3,2.4S200.6,363.5,204.4,363.9z"/>
		<path class="st138" d="M204.5,363.5c3.4,0.4,6.3-0.6,6.5-2.1s-2.5-3-5.9-3.4s-6.3,0.6-6.5,2.1S201.1,363.1,204.5,363.5z"/>
		<path class="st139" d="M204.6,361.5c1.3,0.1,2.4-0.2,2.5-0.8s-1-1.2-2.3-1.3s-2.4,0.2-2.5,0.8S203.3,361.4,204.6,361.5z"/>
		
			<ellipse transform="matrix(0.6119 -0.7909 0.7909 0.6119 -180.3529 249.3395)" class="st122" cx="163.9" cy="308.5" rx="14" ry="6.3"/>
		<path class="st120" d="M155.9,308.2c0,0,1.9-0.2,2.3,2.7s-0.4,12.9,5.2,18.5c0.7,0.7,1.8,1,2.9,0.7c0,0,0.8,6.1,6.6,5
			c0,0,0.4,4.4,4,4.1s3.2-3.1,3.2-3.1s0.7,4.7,4.3,4.1s2.7-5,2.6-7.5s-0.4-12.4-1.3-14.6s-6.8-12.2-12.6-16.8s-7.6-5.7-10.8-6.2
			S151.6,303.2,155.9,308.2z"/>
		<polygon class="st129" points="179.8,337.1 179.2,328.5 180.5,337 		"/>
		<polygon class="st129" points="172.5,335.6 172,327.3 173.1,335.6 		"/>
		<path class="st129" d="M166,330.9c0-0.3,0-0.5,0-0.8v-0.7v-1.4l0.1-2.9l0.2,2.9l0.1,1.4l0.1,0.7c0,0.2,0.1,0.5,0.1,0.6L166,330.9z
			"/>
		<path class="st117" d="M158.6,224.8c0,0.1,0,0.2,0,0.4c-7.7,19.6-18.7,53.3-20,57.3c-0.1,0.2,0,0.5,0.2,0.6
			c5.6,4,14.1,7.6,21.1,10.1c4.1,1.5,7.7,2.6,9.8,3.2c0.3,0.1,0.5,0.4,0.4,0.7c-0.1,0.2-0.2,0.3-0.4,0.4
			c-10.7,3.3-13.7,18.7-14.2,22c0,0.3-0.3,0.5-0.6,0.5c0,0,0,0-0.1,0c-4-1-7.6-2.1-11-3.3c-41-13.7-40.2-33.1-40.2-34.2v-0.1
			c17-77.1,41-90.2,45-91.9c0.3-0.1,0.6,0,0.7,0.3c0,0,0,0,0,0.1"/>
		<path class="st150" d="M170.4,297.3c-11.6,2.8-14.5,19.6-14.9,22.4c0,0.2-0.2,0.3-0.4,0.3c0,0,0,0,0,0c-4-1-7.6-2.1-11-3.2
			c-0.1-0.1-0.2-0.2-0.2-0.4c0.2-17.6,10.8-22.1,16-23.2c0.1,0,0.1,0,0.2,0c4.6,1.6,8.4,2.8,10.4,3.4c0.2,0,0.3,0.2,0.3,0.4
			C170.7,297.2,170.6,297.3,170.4,297.3z"/>
		<path class="st151" d="M156.8,272.1c0,0,8.2,7.5,26.9,3.2c0,0,12.8-3.1,19.6,1.5s13.8,8.1,22.6,0"/>
		<path class="st152" d="M156.8,272.1c2.5,1.7,5.4,2.8,8.4,3.3c2.9,0.6,5.9,0.8,8.9,0.5c1.5-0.1,3-0.3,4.5-0.5s3-0.5,4.4-0.8
			c3-0.7,6.1-1.1,9.2-1.2c3.2-0.1,6.3,0.4,9.3,1.6c0.7,0.3,1.5,0.7,2.1,1.2c0.6,0.4,1.2,0.9,1.9,1.3c1.2,0.8,2.5,1.5,3.9,2.2
			c2.6,1.4,5.6,1.8,8.5,1.3c2.9-0.7,5.6-2.1,7.9-4.1l0.1,0.1c-2.2,2.1-4.9,3.7-7.9,4.5c-3,0.6-6.2,0.3-8.9-1.1
			c-1.4-0.6-2.7-1.4-4-2.2c-1.2-0.9-2.5-1.7-3.9-2.3c-2.9-1.1-5.9-1.5-8.9-1.4c-6.1-0.1-11.9,2.3-18.1,2.3c-3.1,0.1-6.1-0.2-9.1-0.8
			C162,275.3,159.2,274,156.8,272.1L156.8,272.1z"/>
		<ellipse class="st126" cx="134.1" cy="373.2" rx="16.1" ry="5"/>
		<path class="st153" d="M125.3,361.1c-1.6,1.8-2.4,4.2-2,6.6c0.8,3.8,5.2,5.1,8,4.9s7.1-3.2,7.9-4.8L125.3,361.1z"/>
		<path class="st154" d="M139.3,367.8l-14-6.7c0,0-2.3,6.7,3,9.9C133.5,374.2,139.3,367.8,139.3,367.8z"/>
		<path class="st153" d="M133.7,370.5c4.9-0.1,9.6-2.1,14-5.4c1.1,1,1.8,4.9,0.2,7.1c-1.6,2.4-5.9,5.8-9.8,4.3
			C135.8,375.3,134.2,373.1,133.7,370.5z"/>
		<path class="st154" d="M147.7,365.1l-14,5.4c0,0,4.3,6.5,10.7,3.6C150.9,371,147.7,365.1,147.7,365.1z"/>
		<ellipse class="st126" cx="164" cy="381.5" rx="13.8" ry="3.5"/>
		<ellipse class="st126" cx="256.1" cy="383.4" rx="13.8" ry="3.5"/>
		<path class="st153" d="M159.7,361c0,0,13-2.5,17.6,3.7s1.6,14.4-2.8,16.5s-13.6,1.5-13.6,1.5C148.2,383.4,151.3,362,159.7,361z"/>
		<path class="st155" d="M178.6,368.5c-0.1,0.1-0.2,0.3-0.3,0.4c-1,1.2-2.2,2.4-3.3,3.5c-1.3,1.2-2.9,1.8-4.7,1.7
			c-1.3-0.1-2.6-0.5-3.9-0.8s-1.2-0.1-2.2,0.7c-1.9,1.5-4.4,2.2-6.8,2c-1.8-0.1-3.6-0.8-5-1.9c0.3,4.7,2.8,8.7,8.3,8.5
			c0,0,8.9,0.7,13.3-1.5C177.4,379.2,179.9,373.8,178.6,368.5z"/>
		<path class="st156" d="M159.7,361.2c9.2-0.9,13.2,21.4,0.9,21.4S151.8,362,159.7,361.2z"/>
		<g class="st157">
			<path class="st158" d="M171.7,378.2c0.2-0.4,0.7-0.6,1.1-0.5c0.2,0.1,0.4,0.2,0.6,0.4c0.1,0.2,0.2,0.4,0.1,0.6
				c-0.1-0.1-0.3-0.2-0.4-0.3c-0.1-0.1-0.3-0.1-0.4-0.2c-0.1,0-0.3,0-0.4,0C172.1,378.2,171.9,378.2,171.7,378.2z"/>
			<path class="st158" d="M175.9,374.8c-0.1-0.1-0.1-0.3,0-0.5c0.2-0.3,0.5-0.5,0.8-0.4c0.2,0,0.3,0.1,0.4,0.3l-0.4,0.1l-0.3,0.1
				c-0.1,0-0.2,0.1-0.3,0.1L175.9,374.8z"/>
			<path class="st158" d="M171.9,371.1c0-0.2,0.2-0.4,0.4-0.5c0.2-0.1,0.4-0.2,0.6-0.1c0.2,0,0.5,0.2,0.6,0.4c0.1,0.2,0.1,0.4,0,0.6
				c-0.1-0.1-0.2-0.3-0.3-0.4c-0.1-0.1-0.2-0.1-0.3-0.1c-0.1,0-0.3,0-0.4,0L171.9,371.1z"/>
			<path class="st158" d="M175.7,370.2c-0.1-0.2-0.1-0.3-0.1-0.5c0.1-0.2,0.2-0.3,0.3-0.4c0.1-0.1,0.2-0.1,0.3-0.1
				c0.1,0,0.1,0,0.2,0h0.2c0.1,0,0.2,0.1,0.2,0.2c0,0.1,0,0.2,0,0.3c-0.1-0.1-0.2-0.1-0.4-0.1c-0.1,0-0.2,0.1-0.2,0.1
				c-0.1,0.1-0.2,0.1-0.3,0.2C175.9,370,175.8,370.1,175.7,370.2z"/>
			<path class="st158" d="M169.9,377.3c-0.1-0.1-0.2-0.4-0.1-0.6c0.1-0.2,0.2-0.4,0.4-0.5c0.3-0.2,0.7-0.3,1-0.2
				c-0.1,0.1-0.2,0.2-0.4,0.4l-0.4,0.3c-0.1,0.1-0.2,0.1-0.3,0.2C170,377,169.9,377.1,169.9,377.3z"/>
			<path class="st158" d="M166.3,362.2c0.1-0.2,0.3-0.4,0.5-0.4c0.2-0.1,0.5-0.1,0.7-0.1c0.2,0.1,0.4,0.2,0.6,0.4
				c0.1,0.2,0.1,0.4,0.1,0.6c-0.1-0.1-0.3-0.3-0.4-0.4c-0.1-0.1-0.2-0.2-0.4-0.2c-0.2,0-0.3,0-0.5,0L166.3,362.2z"/>
			<path class="st158" d="M173.9,365.9c-0.1-0.2,0-0.4,0.1-0.6c0.3-0.3,0.8-0.5,1.2-0.3c0.2,0.1,0.3,0.3,0.4,0.5
				c-0.1-0.1-0.3-0.1-0.5-0.1c-0.1,0-0.3,0-0.4,0c-0.1,0-0.3,0.1-0.4,0.1C174.1,365.7,174,365.8,173.9,365.9z"/>
			<path class="st158" d="M177.3,367.8c0.2-0.1,0.4-0.1,0.6,0c0.2,0.1,0.3,0.2,0.4,0.4c0.1,0.2,0.1,0.4,0.1,0.5
				c0,0.2-0.1,0.4-0.2,0.5c-0.1-0.1-0.1-0.3-0.2-0.5c-0.1-0.1-0.1-0.3-0.1-0.4c0-0.1-0.1-0.2-0.2-0.3
				C177.5,368,177.4,367.9,177.3,367.8z"/>
			<path class="st158" d="M168.9,380.6c0,0.2,0.1,0.3,0.2,0.4c0.1,0.1,0.2,0.1,0.3,0.2c0.1,0.1,0.3,0.1,0.4,0.2
				c0.2,0.1,0.3,0.1,0.5,0.2c-0.2,0.1-0.3,0.2-0.5,0.2c-0.2,0-0.4,0-0.6-0.1c-0.2-0.1-0.4-0.3-0.5-0.5
				C168.7,381,168.8,380.8,168.9,380.6z"/>
		</g>
		<path class="st159" d="M247,103c2-4.2,3.5-8.7,4.3-13.3c0.9-4.6,0.9-9.4,0.2-14c-0.7-4.7-2.4-9.1-5-13.1c-2.6-3.9-6-7.3-9.8-10.1
			c3.9,2.7,7.3,6.1,10,10c1.3,2,2.4,4.1,3.3,6.2c0.9,2.2,1.6,4.5,2,6.9c0.8,4.7,0.8,9.5,0,14.2c-0.7,4.7-2.1,9.3-4.1,13.7L247,103z"
			/>
		<path class="st160" d="M174.1,185c-0.2-0.5-0.1-1.1,0.1-1.7c0.2-0.5,0.5-0.9,0.8-1.3c0.3-0.4,0.7-0.7,1.1-0.9
			c0.4-0.3,0.8-0.5,1.2-0.7c-0.4,0.3-0.7,0.6-1,0.9c-0.3,0.3-0.6,0.6-0.8,1c-0.2,0.4-0.4,0.7-0.5,1.2c-0.1,0.3,0,0.7,0.1,1
			L174.1,185z"/>
		<path class="st120" d="M248.2,331.5v0.1c0.6,2,0.8,4.2,0.5,6.3c-0.2,2.4-0.3,4.8-0.2,7.2c0,1.6-0.3,3.1-1.1,4.5
			c-1,2-2.3,3.8-3.8,5.4c-2.6,2.2-3.7,0.6-3.7,0.6s0-0.3,0-0.4c0.2-3.5,3.3-5.3,3.7-7s0-9.6,0-9.6l-1.5,5c-0.5,1.7-1.4,3.4-2.6,4.7
			c-1.7,2.1-3.5,4-5.5,5.9c-1.9,1.6-4.8,1.6-5.1-0.3s3.8-5,6.7-8.5c2-2.4,3-5.5,2.6-8.7c-0.3-1.2-0.6,0.1-3.7,3.4
			c-2.4,2.8-4.4,5.8-6.2,9c0,0-2.1,4.3-4.1,3.4c-1.1-0.5-1.6-1.8-1.1-2.8c0-0.1,0.1-0.1,0.1-0.2c0,0-2,3.6-3.3,0.5s0.6-7.6,3.5-15
			s7.8-12.5,10.2-13.1s3.2,0.2,3.2,0.2l6.2,2.9L248.2,331.5z"/>
		<path class="st129" d="M222.7,350.4c0.7-2.1,1.4-4.1,2.2-6.1s1.7-4,2.6-5.9c1-1.9,2-3.8,3.2-5.6c0.6-0.9,1.2-1.8,1.9-2.6
			c0.6-0.9,1.4-1.6,2.3-2.3c-0.8,0.7-1.6,1.5-2.2,2.3c-0.6,0.9-1.3,1.7-1.8,2.6c-1.1,1.8-2.2,3.7-3.1,5.6c-0.9,1.9-1.7,3.9-2.4,5.9
			s-1.4,4-2,6.1L222.7,350.4z"/>
		<path class="st150" d="M253.5,321.2l-2.2,15c-5.4-10.9-14.2-15.6-18.5-14.4l-2.7,1.3l0.4-8.9c1.8-1,5.9-2.5,12.7-0.3
			C249.5,316.1,252.3,319.3,253.5,321.2z"/>
		<path class="st161" d="M104.8,382.6c0.1-6.9,11.5-4.4,14.9-3.7c5.5,1.1,10,8.3,13.7,4.6s2.7-7.5,0.1-8.1c3.3-0.6,7.5,3,3.1,9.9
			s-10.8,4.7-14.3,3.7c-3.5-1.1-7.2-1.4-10.8-0.9C108.1,388.4,105.1,386,104.8,382.6C104.8,382.6,104.8,382.6,104.8,382.6z"/>
		<g>
			<path class="st162" d="M105.9,384.8c0.2,0.3,0.3,0.9,0.6,1.5c-1-1-1.6-2.3-1.7-3.7c-0.1-1.6,0.8-3.1,2.2-3.8
				c-1.9,1.9-0.1,0.9-1.1,3.3c0.8-1.1,2.7,0,4.2,0c-0.7,0.5-3.6,1-3.6,1.9s1.1,2,2.4,3C107.4,386.7,105.6,384.3,105.9,384.8z"/>
		</g>
		<g>
			<path class="st163" d="M107.1,380.2c2.3-1.6,7.4-3,9.6-0.5s-1.7,3.2-3.8,2.5s-5.3-0.5-6.5,0.4S105.4,381.3,107.1,380.2z"/>
		</g>
		<g>
			<path class="st162" d="M136.6,385.3c-4.4,6.9-10.8,4.7-14.3,3.7c-3.5-1.1-7.2-1.4-10.8-0.9c-2.2,0.3-4.4-0.7-5.7-2.6
				c2.9,3.2,7.8-2.6,10.5-0.7s9.2,5.4,13.5,3.4c4.4-2,13.4-8.8,4.3-12.6c-0.2-0.1-0.4-0.2-0.6-0.2
				C136.8,374.8,141,378.4,136.6,385.3z"/>
		</g>
		<g>
			<path class="st164" d="M136.6,385.3c-4.4,6.9-10.8,4.7-14.3,3.7c-3.5-1.1-7.2-1.4-10.8-0.9c-2.1,0.3-4.2-0.6-5.5-2.4
				c0.1-0.2,0.1-0.4,0.1-0.4c1.6,2.7,3.4,1.2,8.6,1.1s10.2,3.9,14.7,2.9c4.5-1,14.1-11.3,4.1-13.9
				C136.8,374.8,141,378.4,136.6,385.3z"/>
		</g>
		<path class="st165" d="M107.2,378c-1.5,0.9-2.4,1.5-2.7,3.6c-5.8,4.9-6.8-5.4-4.7-6.9c-1.3-0.2-2.5-0.2-3.2,1.2s1.7,10.6,7.6,8.2
			c0.5,1.6,1.9,2.9,3.6,3.3c-1.5-0.9-1.7-2.6-2-3.1s1.5,1.9,3,2.2c-1.3-1-2.4-2.2-2.4-3s2.9-1.5,3.6-1.9c-1.5,0-3.4-1.1-4.2,0
			C106.9,379.1,104.8,380.5,107.2,378z"/>
		<g>
			<path class="st164" d="M99.9,382c-1.6-1.7-1.7-6-0.5-7.3h0.5C98.6,375.7,98.4,380,99.9,382z"/>
			<path class="st164" d="M98.7,382.6c1.2,1.6,3.4,2.1,5.3,1.3c0,0.1,0.1,0.2,0.1,0.3C102.1,385.1,99.9,384.4,98.7,382.6z"/>
			<path class="st164" d="M106,381.1c-0.2,0.1-0.3,0.2-0.4,0.4c0.9-2.1-0.3-1.6,0.5-2.7c0.4-0.3,0.8-0.5,1.2-0.7
				C105,380.2,106.5,379.4,106,381.1z"/>
			<path class="st164" d="M106.2,383.3c0-0.7,2.1-1.3,3.1-1.7c0.2,0,0.4,0.1,0.7,0.1c-0.7,0.5-3.6,1-3.6,1.9c0.1,0.5,0.3,1,0.7,1.4
				C106.6,384.5,106.3,383.9,106.2,383.3z"/>
			<path class="st164" d="M107.3,387.2c0.1,0.1,0.3,0.2,0.4,0.3c-1.1-0.3-2.1-0.9-2.8-1.8C105.6,386.4,106.4,386.9,107.3,387.2z"/>
			<path class="st164" d="M105.8,384.4c0.3,0.8,0.7,1.6,1.1,2.3c-0.6-0.8-1-1.6-1.3-2.5c-0.3-0.5,1.4,1.7,2.9,2.2l0.4,0.3
				C107.3,386.3,105.4,383.9,105.8,384.4z"/>
		</g>
		<g>
			<path class="st163" d="M120.6,380.9c-0.5-0.9-1.3-0.9-1.7-0.3s0.3,1.4,1,1.5S121.1,381.7,120.6,380.9z"/>
		</g>
		<g>
			<path class="st164" d="M100.9,383.3c2.6-0.5,2.6,0.1,3.8-1.3C104.3,383.5,101.8,383.4,100.9,383.3z"/>
		</g>
		<path class="st166" d="M270.7,374.5c-1.4,6.3-5.9,10.7-13.2,10.7s-12.6-4.8-13.3-12c-0.6-6.7,3.3-12.1,13.7-12.1
			C267.3,361,272.4,366.6,270.7,374.5z"/>
		<path class="st167" d="M257.5,358.5c-0.2,0.1-1.8,0.5-1.8,0.8s1,2.5,1,2.6c-1.1-0.3-2.2-0.5-3.3-0.7c-1.5,0-2.9,0.4-4.2,1.1
			c-0.2,0.2,3-0.4,3.6-0.2c0.6,0.3,1.1,0.6,1.6,1c-0.9,0-1.7,0.6-1.9,1.5c-0.3,1.1-0.4,2.1-0.4,3.2c0.1,0,0.9-2.4,2.1-3.1
			c0.5-0.3,2.4-1.3,2.8-1.1s1.8,0.5,2.2,1.6c0.3,1-0.3,3.5-0.2,3.5s1.7-2.7,1.7-3.7c-0.1-1.4-1.4-1.8-1.3-1.9s1.8-0.8,2.3-0.5
			c1.3,0.7,2.6,1.3,3.9,1.9c0.4,0-2.8-2.9-3.4-3.1c-1.3-0.3-2.6-0.2-3.8,0.4C258.5,360.9,258.1,358.3,257.5,358.5z"/>
		
			<ellipse transform="matrix(1 -4.712372e-03 4.712372e-03 1 -1.7492 1.2544)" class="st168" cx="265.3" cy="371.8" rx="2.6" ry="4.5"/>
		
			<ellipse transform="matrix(1 -4.712372e-03 4.712372e-03 1 -1.7144 1.4967)" class="st169" cx="316.7" cy="364.6" rx="34.6" ry="12"/>
		<path class="st170" d="M287.2,352.4c-1.4,0.7-1.9,1.3-1.7,1.9s-0.5,1.3-0.3,1.9s0.9,0.2,0.6,1.1s-0.7,1-0.5,1.7s1.3,1.4,1.3,1.4
			l1.9-6.7L287.2,352.4z"/>
		<path class="st171" d="M367.2,341.8c-5.1-3.6-11.7,3.2-21.2,4.1s-37.8-6-44.8-5.3s-13,6.7-14.7,14.3s4.6,18.7,19.7,18.5
			c12.6-0.2,25.1-2.2,37.1-6C351.1,364.7,380.3,351,367.2,341.8z"/>
		<g>
			<path class="st172" d="M339.1,359.9c18.7-5.4,23.3-16.7,28.6-15.6c0.7,0.1,1.5,0.3,2.2,0.5c4.4,9-19.7,20.1-26.7,22.5
				c-12,3.8-24.5,5.8-37.1,6c-12,0.2-18.4-6.9-19.7-13.5c-0.1-1.1-0.2-1.8-0.2-1.8C287.9,363.8,320.5,365.4,339.1,359.9z"/>
		</g>
		<path class="st173" d="M370,347.3c0,0,2.8-5.7,5-6.1c-0.1-1.1-2.4-6.1-4.1-5.4c-0.1,1.3-1,4.8-6,5.6
			C366.4,346.5,370,347.3,370,347.3z"/>
		<path class="st165" d="M374.9,341.1c0.2,0.6-0.5-0.5-1.3-0.5s-2.1-1.3-2.3-2.1s-0.7-1.9-0.5-2.6s0.3-0.6,1.1-0.1s2.2,2.8,2.6,3.4
			C374.8,339.8,374.9,340.5,374.9,341.1z"/>
		<path class="st173" d="M370.4,346.5c-0.4,0.7-0.3,1.3-0.5,1.2s-0.4-0.8-1-0.8c-0.6,0-1.2-0.4-1.5-0.9c-0.2-0.5-0.4-1.1-1.1-1.3
			c-0.7-0.2-1.2-0.8-1.2-1.5c0.1-0.6,0.1-0.8-0.2-1s-0.9-1.2,0-0.9s2.6,2.6,2.9,3C368.6,345.1,369.5,345.8,370.4,346.5z"/>
		<g>
			<path class="st164" d="M373.1,341.6c-1.5,0.7-2.8,4.3-3.2,4.7s-0.4-0.3-0.2-0.9S371.5,341.9,373.1,341.6z"/>
		</g>
		<g>
			<path class="st164" d="M370.9,338.6c-0.4,1.7-5,4.8-5.3,4.4s0.2-1.1-0.3-1.2S367.6,342.5,370.9,338.6z"/>
		</g>
		<g>
			<path class="st164" d="M370.9,341.2c-0.5,1-2.6,5-3,4.5s0.7-0.8-0.2-0.8S371.5,340,370.9,341.2z"/>
		</g>
		<g>
			<path class="st172" d="M366,349c1.1-2.1,2.9-3,4.5-2.5c1,8.6-20.6,18.6-27.2,20.8c-12,3.8-24.5,5.8-37.1,6
				c-8.2,0.1-13.8-3.1-16.9-7.3C321.8,380.1,364.1,352.8,366,349z"/>
		</g>
		<g>
			<path class="st163" d="M326.8,350.2c-1.7-1.8-1.3-3.6,0.4-4s3,1.6,2.8,3.3S328.4,352,326.8,350.2z"/>
		</g>
		<g>
			<path class="st163" d="M318.1,346.4c-5.9-2.9-18.1-4.6-22.5,1.8s5,6.9,9.6,4.6s12.2-2.9,15.2-1.1S322.4,348.5,318.1,346.4z"/>
		</g>
		
			<ellipse transform="matrix(1 -4.712372e-03 4.712372e-03 1 -1.7816 1.6096)" class="st169" cx="340.7" cy="378.9" rx="34.6" ry="12"/>
		<path class="st174" d="M377.8,360.8c-4.2-4.1-12.3-0.7-17.1,0.8c-5,1.6-9.9,4-15.3,3.7s-10.7-2.1-16-3.1c-6-1.1-12.7-1.5-15.9,4.8
			c-2.7,5.4-2,11.3,2.5,15.6c3.2,3.1,7.7,4.6,12.1,5.2c5.5,0.6,11.1,0.3,16.5-0.7c0.9-0.2,1.9-0.4,2.8-0.6
			c9.2-2.5,17.7-6.9,25.2-12.8c2.8-2.3,7.3-6.7,6.3-10.8C378.8,362,378.4,361.3,377.8,360.8z"/>
		<path class="st175" d="M370.7,358.9c0.7-0.8,1.8-1.6,4.4-1.4s2.8,1.7,3.2,1.5s4.5-3.3,5.5-3s3.3,5.6,2.5,5.9s-6,0.1-5.9,0.5
			s1.6,1.7,0.1,4.9c-1.2,2.6-4.4,3-4.5,3s3.5-4.3,2.2-5.2c-0.6-0.5-7.5,2.4-8.1,1.3s3.4-5.4,3.8-6.1
			C374.4,359.2,373.1,358.9,370.7,358.9z"/>
		<path class="st176" d="M322.6,363l-0.9,0.1c-1.4,0.1-2.8,0.5-4,1.1c-0.8,0.4-1.5,1.1-1.7,2c0,1.2,0.7,2.2,1.7,2.8
			c1.4,0.9,3.1,1.1,4.7,0.7c4-1,7.4-2.3,10.6-1.6s7.2,1.9,7.7,0.9c1.1-2.1-5.8-3.9-6.9-4.2C330.3,363.8,326.4,362.8,322.6,363z"/>
		<path class="st176" d="M367.8,361.1c-0.3,0-0.6,0-0.9,0.1c-2,0.4-4,0.9-5.9,1.6c-1.3,0.3-2.5,0.8-3.7,1.5
			c-0.8,0.5-2.2,1.9-0.6,2.3c1,0.2,2,0.2,3,0c2-0.3,3.9-0.9,5.7-1.9c0.9-0.5,1.7-1,2.5-1.6c0.5-0.3,1-0.8,1.3-1.2
			C369.6,361.1,368.6,361,367.8,361.1z"/>
		<path class="st160" d="M138.5,283.3c-2.6-0.3-5.1-0.4-7.7-0.3c-2.6,0.1-5.2,0.5-7.7,1.1c2.5-0.8,5-1.4,7.6-1.6
			c2.6-0.3,5.2-0.3,7.9-0.2L138.5,283.3z"/>
		<path class="st160" d="M231.7,282.9c2.5-0.6,5.1-1.1,7.8-1.3c2.6-0.3,5.2-0.2,7.8,0.1c-2.6-0.2-5.2-0.1-7.8,0.4
			c-2.6,0.4-5.1,1-7.5,1.8L231.7,282.9z"/>
	</g>
</g>
<path class="st177" d="M167.8,38.5c0.7,0.4,0.2,0.1-0.3-0.3c-0.5-0.4-1-0.8-1.6-1c-0.9-0.4-1.8-0.8-2.8-1.1
	c-2.2-0.4-4.5-0.7-6.8-0.7c-5.2-0.3-9.9,2-14.4,4.7c-4,2.5-7.5,5.7-10.4,9.4c-1.7,2.2-3,4.7-3.8,7.3c-0.4,1.2-0.7,2.4-0.7,3.6
	c0.1,1.1,0.3,2.1,0.5,3.2c0,1.4,1.1,2.6,2.5,2.6c0.5,0,0.9-0.1,1.3-0.3c0.6-0.3,2-0.4,2.8-0.8c0.8-0.4,1.5-0.8,2.2-1.3
	c0.4-0.3,3.5-2.7,1.1-1.3c1.5-0.8,2.9-1.8,4.3-2.9c1.1-1,2.3-1.9,3.6-2.7c1.6-1,3.1-2.1,4.7-3c3.7-2.3,5.9-2.8,9.6-5.4
	c2.3-1.7,6.3-2.8,8.1-5.4c1.3-0.9,1.6-2.6,0.7-3.9C168.4,38.9,168.1,38.7,167.8,38.5z"/>
<path class="st178" d="M288.8,386c5.6,1.8,11.9,1.6,17.7,1.5c2.9-0.1,5.9-0.3,8.8-0.8c3-0.4,6.4-0.9,9-2.2c1.8-0.9,2.5-3,1.7-4.8
	c-0.5-1.1-1.5-1.8-2.7-2c-2.8-0.4-5.6-0.5-8.4-0.3c-2.9,0-5.8,0.1-8.6,0.4L288.8,386z"/>
<path class="st178" d="M360.5,364.3c-0.1-0.2-0.3-0.4-0.4-0.5c-1-0.7-2.2-1-3.4-0.7c-4.3,0.8-7,3.3-10.3,5.6c-2.5,1.8-5.9,2.6-8.7,4
	c-3.3,1.5-6.5,3.3-7.5,6.6c-0.4,1.2,0,2.6,1,3.4c2.9,2.5,6.9,2.4,10.6,1.6c3.5-0.7,6.9-2,10.1-3.6c5.4-3,11.2-9.6,9-15.6
	C360.7,364.8,360.6,364.6,360.5,364.3z"/>
<path class="st71" d="M357.8,65.8c-5.4-3.3-11.2-5.8-17.3-7.3c-10.8-3-22-4.1-33.1-4.9c-17-1.9-34.1-2.8-51.2-2.8
	c-19.8-0.2-39.6,0.7-59.4,2.7c-16.1,1.6-32.5,3.8-48.2,8.2h-0.1c-0.1,0-0.2,0-0.2,0.1l-0.5,0.2c-5.2,1.5-10.5,3.5-12.9,9
	c-2,4.9-2,10.4,0.1,15.3c5,12,19.3,15.2,30.3,16.7c14.1,2,28.6,2,42.9,2.3c14.4,0.2,28.8,0.1,43.2-0.4c28.8-1,57.6-3.6,86.2-7.9
	c6.3-1,12.6-2.2,18.4-4.8c5.1-2.3,11-6,10.9-12.6C366.9,73.6,362.3,68.8,357.8,65.8z"/>
</svg>
