<?xml version="1.0" encoding="utf-8"?>
<!-- Generator: Adobe Illustrator 25.2.3, SVG Export Plug-In . SVG Version: 6.00 Build 0)  -->
<svg version="1.1" id="Layer_1" xmlns="http://www.w3.org/2000/svg" xmlns:xlink="http://www.w3.org/1999/xlink" x="0px" y="0px"
	 viewBox="0 0 490 425" style="enable-background:new 0 0 490 425;" xml:space="preserve">
<style type="text/css">
	.st0{fill:#78EFE9;}
	.st1{fill:#0072AB;}
	.st2{fill:#74879E;}
	.st3{clip-path:url(#SVGID_2_);}
	.st4{fill:#BABABA;}
	.st5{fill:#F9F7F7;stroke:#BFBFBF;stroke-width:0.75;stroke-miterlimit:10;}
	.st6{fill:url(#SVGID_3_);}
	.st7{fill:#CADDDB;}
	.st8{opacity:0.36;fill:#8CA1A0;enable-background:new    ;}
	.st9{opacity:0.95;}
	.st10{fill:none;stroke:#A39FAA;stroke-miterlimit:10;}
	.st11{fill:#9CB9DB;}
	.st12{opacity:0.39;fill:#85A2B5;enable-background:new    ;}
	.st13{fill:#636A7A;}
	.st14{opacity:0.38;}
	.st15{fill:#5B66B2;}
	.st16{opacity:0.12;enable-background:new    ;}
	.st17{fill:#FFE744;}
	.st18{fill:#FFC926;}
	.st19{fill:#FFD400;}
	.st20{fill:#30B6EC;}
	.st21{fill:#0E98CE;}
	.st22{fill:#00A6E0;}
	.st23{fill:#BA35A1;}
	.st24{fill:#E877D5;}
	.st25{fill:#BF59B7;}
	.st26{fill:#E249D0;}
	.st27{fill:#FF7795;}
	.st28{fill:#D85977;}
	.st29{fill:#F4517C;}
	.st30{fill:#FF5050;}
	.st31{fill:#BA1E1E;}
	.st32{fill:#EA2D2D;}
	.st33{fill:#FFB600;}
	.st34{fill:#A66DC6;}
	.st35{fill:#7D4FA8;}
	.st36{fill:#4040C1;}
	.st37{fill:#FF9053;}
	.st38{fill:#ED5E0F;}
	.st39{fill:#FF7610;}
	.st40{fill:#E8546D;}
	.st41{fill:#6E2CA8;}
	.st42{fill:#AA56F4;}
	.st43{fill:#9A47D6;}
	.st44{fill:#AA5AFF;}
	.st45{fill:#5252DD;}
	.st46{fill:#D63664;}
	.st47{fill:#E53366;}
	.st48{opacity:0.11;enable-background:new    ;}
	.st49{fill:#2A535E;}
	.st50{opacity:0.22;enable-background:new    ;}
	.st51{fill:#FCC6A5;}
	.st52{fill:#28AFC6;}
	.st53{fill:#FFFFFF;}
	.st54{fill:#B22909;}
	.st55{fill:#F44D19;}
	.st56{fill:#0E8599;}
	.st57{fill:#FF5AF3;}
	.st58{fill:#E6A680;}
	.st59{fill-rule:evenodd;clip-rule:evenodd;fill:#E6A680;}
	.st60{fill-rule:evenodd;clip-rule:evenodd;fill:#242222;}
	.st61{fill-rule:evenodd;clip-rule:evenodd;fill:#FCC6A5;}
	.st62{fill-rule:evenodd;clip-rule:evenodd;fill:#3F1D1D;stroke:#3F1D1D;stroke-width:0.7;stroke-miterlimit:10;}
	.st63{fill-rule:evenodd;clip-rule:evenodd;fill:#5F0000;}
	.st64{clip-path:url(#SVGID_5_);}
	.st65{fill-rule:evenodd;clip-rule:evenodd;fill:#350000;}
	.st66{fill-rule:evenodd;clip-rule:evenodd;fill:#FF9999;}
	.st67{fill-rule:evenodd;clip-rule:evenodd;fill:#FFFFFF;}
	.st68{fill-rule:evenodd;clip-rule:evenodd;fill:#F9F9F9;stroke:#000000;stroke-width:0.18;stroke-miterlimit:10;}
	.st69{fill-rule:evenodd;clip-rule:evenodd;}
	.st70{fill-rule:evenodd;clip-rule:evenodd;fill:#F7F9F9;stroke:#000000;stroke-width:0.18;stroke-miterlimit:10;}
	.st71{fill-rule:evenodd;clip-rule:evenodd;fill:#F7A193;}
	.st72{fill:#3F1D1D;}
	.st73{opacity:0.53;fill:#FFFFFF;enable-background:new    ;}
	.st74{opacity:0.33;fill:#FFFFFF;enable-background:new    ;}
	.st75{opacity:0.15;fill:#FFFFFF;enable-background:new    ;}
</style>
<polygon class="st0" points="359.8,13.6 130.2,13.6 15.3,212.5 130.2,411.4 359.8,411.4 474.7,212.5 "/>
<polygon class="st1" points="353.3,24.9 136.7,24.9 28.3,212.5 136.7,400.1 353.3,400.1 461.7,212.5 "/>
<polygon class="st2" points="351.5,28 138.5,28 32,212.5 138.5,397 351.5,397 458,212.5 "/>
<g>
	<defs>
		<polygon id="SVGID_1_" points="351.5,28 138.5,28 32,212.5 138.5,397 351.5,397 458,212.5 		"/>
	</defs>
	<clipPath id="SVGID_2_">
		<use xlink:href="#SVGID_1_"  style="overflow:visible;"/>
	</clipPath>
	<g class="st3">
		<path class="st4" d="M590.6,50.9c-2.6-65.1-56.2-116.5-121.3-116.5c-4.4,0-8.8,0.2-13.1,0.7c-74.5-70.7-189.1-77.4-271.3-15.8
			c-1.8-0.1-3.6-0.2-5.4-0.2c-37.7,0-70.9,24.9-81.5,61.2C53.1-33.5,5.6-8.4-8.2,36.4c-4.7,15.3-5,31.7-0.8,47.2
			c-6,4.7-11.6,10.1-16.4,16.1c-17.2,17.8-27.4,39.7-27.4,63.4c0,49.9,45.1,91.9,106.2,104.1c8.9,46,53.3,76.2,99.4,67.3
			c10.1-1.9,19.7-5.7,28.4-11c28.2,17.8,64.6,28.6,104.3,28.6c33.7,0,65-7.7,91-21c38.9,20.1,86.7,7.3,110.4-29.5
			c26.8-8.4,45.6-28.3,45.6-51.6c0-1.5-0.1-2.9-0.3-4.4c37.6-4.3,69.8-21.2,88.9-44.7c17.2-17.8,27.4-39.7,27.4-63.4
			C648.4,102,625.6,70.5,590.6,50.9z"/>
		<path class="st5" d="M578.2,41.8C575.6-23.3,522-74.7,456.9-74.7c-4.4,0-8.8,0.2-13.1,0.7c-74.5-70.7-189.1-77.4-271.3-15.8
			c-1.8-0.1-3.6-0.2-5.4-0.2c-37.7,0-70.9,24.9-81.5,61.2C40.8-42.6-6.7-17.5-20.6,27.3c-4.7,15.3-5,31.7-0.8,47.2
			c-6,4.7-11.5,10.1-16.4,16.1C-55,108.3-65.2,130.2-65.2,154c0,49.9,45.1,91.9,106.2,104c8.8,46,53.3,76.2,99.3,67.3
			c10.1-1.9,19.7-5.7,28.5-11.1c28.2,17.8,64.6,28.6,104.3,28.6c33.7,0,65-7.7,91-21c38.9,20.1,86.7,7.3,110.3-29.5
			c26.8-8.4,45.6-28.4,45.6-51.5c0-1.5-0.1-2.9-0.3-4.4c37.6-4.4,69.8-21.2,88.9-44.7c17.2-17.8,27.4-39.7,27.4-63.4
			C636,92.8,613.3,61.4,578.2,41.8z"/>
		
			<linearGradient id="SVGID_3_" gradientUnits="userSpaceOnUse" x1="141.94" y1="5.05" x2="141.94" y2="421.13" gradientTransform="matrix(1 0 0 -1 0 426)">
			<stop  offset="1.000000e-02" style="stop-color:#E6E7E8"/>
			<stop  offset="1" style="stop-color:#B2EBF2"/>
		</linearGradient>
		<rect x="-679.6" y="181.3" class="st6" width="1643.1" height="247"/>
		<polygon class="st7" points="978.2,444.8 -631.4,444.8 -631.4,137.5 -99.8,137.5 191.5,137.5 334.2,137.5 978.2,137.5 		"/>
		<polygon class="st8" points="-618.8,204.1 969.3,204.1 970.3,434.3 		"/>
		<g class="st9">
			<line class="st10" x1="121.2" y1="160.9" x2="183" y2="527.7"/>
			<line class="st10" x1="299" y1="160.9" x2="516.3" y2="500.8"/>
			<line class="st10" x1="862.3" y1="484.2" x2="477.5" y2="160.9"/>
			<line class="st10" x1="-898.5" y1="292.8" x2="1414.1" y2="295.5"/>
			<line class="st10" x1="-959.5" y1="364.3" x2="1355.9" y2="364.3"/>
			<line class="st10" x1="-874.8" y1="185.7" x2="1447.8" y2="192.1"/>
			<line class="st10" x1="-861.5" y1="233" x2="1461.1" y2="239.4"/>
		</g>
		<rect x="-689.7" y="-463.5" class="st11" width="1658.9" height="643.7"/>
		<path class="st12" d="M-378.2,149.8c8.5-17,200.7-387.9,572-410.9c73.9-4.6,266.1-2.3,431.7,131.2C695.2-73.7,738.3-11.9,763.5,31
			c20.5,43.3,41,86.6,61.5,129.9l160.6-3.2l-15.2-617.3H-618.8c-2.7,201.4-3.9,309.6-4.5,371.9c-1.2,122.2-0.6,129.1-3.8,157.1
			c-6.5,55.6-14.1,72.2-4.3,88.3C-614.9,184.6-556.4,198.9-378.2,149.8z"/>
		<rect x="-631.4" y="164.1" class="st13" width="1617" height="40"/>
		<g class="st14">
			<polygon class="st15" points="-75.6,236.2 133.9,236.2 143.7,294.1 -88.5,292.8 			"/>
			<polygon class="st15" points="383.3,292.8 429.5,364.3 719.5,364.3 635.9,294.6 			"/>
			<polygon class="st15" points="155.5,364.3 167.3,434.3 473.1,436.5 429.5,364.3 			"/>
			<polygon class="st15" points="326.6,204.1 347.1,236.2 568.1,236.9 528,203.3 			"/>
		</g>
		<polygon class="st16" points="42.8,349.6 184.5,341.4 197.3,342 188.1,352.8 		"/>
		<polygon class="st17" points="42.8,316.8 52.7,308.6 85.6,308.6 75.6,316.8 		"/>
		<polygon class="st18" points="75.6,349.6 85.6,341.4 85.6,308.6 75.6,316.8 		"/>
		<rect x="42.8" y="316.8" class="st19" width="32.8" height="32.8"/>
		<polygon class="st20" points="75.8,316.8 85.7,308.6 118.5,308.6 108.6,316.8 		"/>
		<polygon class="st21" points="108.6,349.6 118.5,341.4 118.5,308.6 108.6,316.8 		"/>
		<rect x="75.8" y="316.8" class="st22" width="32.8" height="32.8"/>
		<polygon class="st23" points="65.1,308.7 55.5,316.9 55.5,284.6 65.1,276.4 		"/>
		<polygon class="st24" points="52.4,276.4 42.9,284.6 108.8,284.6 118.3,276.4 		"/>
		<polygon class="st25" points="118.3,308.7 108.8,316.9 108.8,284.6 118.3,276.4 		"/>
		<path class="st26" d="M42.9,284.6v32.3h12.7c0-11,9.2-19.9,20.5-19.9s20.5,8.9,20.5,19.9h12.4v-32.3H42.9z"/>
		<polygon class="st27" points="108.7,316.9 118.6,308.7 151.5,308.7 141.5,316.9 		"/>
		<polygon class="st28" points="141.5,349.8 151.5,341.5 151.5,308.7 141.5,316.9 		"/>
		<rect x="108.7" y="316.9" class="st29" width="32.8" height="32.8"/>
		<polygon class="st30" points="141.7,316.8 151.6,308.5 184.5,308.5 174.5,316.8 		"/>
		<polygon class="st31" points="174.5,349.6 184.5,341.4 184.5,308.5 174.5,316.8 		"/>
		<rect x="141.7" y="316.8" class="st32" width="32.8" height="32.8"/>
		<polygon class="st18" points="131,308.6 121.5,316.9 121.5,284.5 131,276.3 		"/>
		<polygon class="st17" points="118.3,276.4 108.8,284.6 174.8,284.6 184.3,276.4 		"/>
		<polygon class="st33" points="184.3,308.6 174.8,316.9 174.8,284.6 184.3,276.4 		"/>
		<path class="st19" d="M108.8,284.6v32.3h12.7c0-11,9.2-19.9,20.5-19.9s20.5,8.9,20.5,19.9h12.4v-32.3H108.8z"/>
		<polygon class="st34" points="75.9,251.8 85.9,243.6 118.7,243.6 108.8,251.8 		"/>
		<polygon class="st35" points="108.8,284.6 118.7,276.4 118.7,243.6 108.8,251.8 		"/>
		<rect x="75.9" y="251.8" class="st36" width="32.9" height="32.8"/>
		<polygon class="st37" points="108.8,251.7 118.7,243.4 151.5,243.4 141.5,251.7 		"/>
		<polygon class="st38" points="141.5,284.6 151.5,276.3 151.5,243.4 141.5,251.7 		"/>
		<rect x="108.8" y="251.7" class="st39" width="32.7" height="32.9"/>
		<polygon class="st40" points="98,210.4 88.6,218.8 88.6,251.8 98,243.4 		"/>
		<polygon class="st31" points="150.7,210.4 141.3,218.8 141.3,251.8 150.7,243.4 		"/>
		<path class="st31" d="M85.4,243.5v-32.9H98c-0.2,11.2,8.6,20.4,19.8,20.7c11.2,0.2,20.4-8.6,20.7-19.8c0-0.3,0-0.6,0-0.9h12.2
			v32.9L85.4,243.5z"/>
		<path class="st32" d="M76.1,251.7v-32.9h12.5c0,11.2,9.1,20.3,20.3,20.3s20.3-9.1,20.3-20.3h12.2v32.9L76.1,251.7z"/>
		<polygon class="st41" points="98,210.4 88.6,218.8 88.6,185.8 98,177.5 		"/>
		<polygon class="st42" points="85.5,177.6 76.1,185.9 141.3,185.9 150.7,177.6 		"/>
		<polygon class="st41" points="150.7,210.4 141.3,218.8 141.3,185.8 150.7,177.6 		"/>
		<path class="st43" d="M76.1,185.9v32.9h12.5c0-11.2,9.1-20.3,20.3-20.3s20.3,9.1,20.3,20.3l0,0h12.2v-32.9H76.1z"/>
		<path class="st44" d="M184.2,276.5L184.2,276.5c0.1-9.5-7.5-17.3-17-17.3c0,0,0,0,0,0c-4.1-0.3-8.3,0.6-11.9,2.5
			c-6.6,3.7-11.7,11.7-12.9,17.7c-0.1,0.3,5.9-2.3,5.9-2.3l26.7,7.4L184.2,276.5z"/>
		<path class="st43" d="M174.9,284.5c0.2-9.2-7.1-16.9-16.3-17.1s-16.9,7.1-17.1,16.3c0,0.3,0,0.5,0,0.8H174.9z"/>
		<polygon class="st19" points="75.2,185.8 108.2,185.8 108.2,152.9 		"/>
		<polygon class="st33" points="117.6,177.4 108.2,185.8 108.2,152.8 117.6,144.6 		"/>
		<polygon class="st16" points="380.1,302.3 334.9,300.2 346.5,289.9 392.5,289.9 		"/>
		<polygon class="st45" points="334.9,259.3 347,249.2 387,289.5 374.9,299.6 		"/>
		<polygon class="st36" points="374.9,299.7 334.9,299.7 334.9,259.3 		"/>
		<polygon class="st37" points="384.1,272.3 396.4,262.1 437.1,262.1 424.8,272.3 		"/>
		<polygon class="st16" points="429.3,315.1 384.1,313 395.7,302.8 441.6,302.8 		"/>
		<polygon class="st38" points="424.8,313 437.1,302.8 437.1,262.1 424.8,272.3 		"/>
		<rect x="384.1" y="272.3" class="st39" width="40.7" height="40.7"/>
		<polygon class="st16" points="382,344.1 297.7,342 309.3,331.6 394.5,331.6 		"/>
		<polygon class="st46" points="324.9,331.4 313.2,341.8 313.2,300.9 324.9,290.6 		"/>
		<polygon class="st27" points="309.3,290.6 297.7,301 378.6,301 390.3,290.6 		"/>
		<polygon class="st47" points="390.3,331.4 378.6,341.8 378.6,301 390.3,290.6 		"/>
		<path class="st29" d="M297.7,301v40.8h15.6c0-13.9,11.2-25.1,25.1-25.1c13.9,0,25.1,11.2,25.1,25.1c0,0,0,0,0,0h15.2V301H297.7z"
			/>
		<path class="st48" d="M238.7,304c0.8-0.2,11.2,5.4,17.8,6.9c8.2,1.8,25.4-6.8,21.9-10.3c-7.6-7.4-32.4-14.3-37.2-12
			c-8.9,4.3-32.5,11.1-32.9,18.1c-0.2,3.5,10.3,6.6,13.5,5.3C225.8,310.2,237,304.5,238.7,304z"/>
		<path class="st48" d="M288.5,287.8c0,3-19.5,5.5-43.5,5.5s-43.5-2.4-43.5-5.5s19.5-5.4,43.5-5.4S288.5,284.8,288.5,287.8z"/>
		<path class="st49" d="M303.5,246.3c-3.8-2.1-11.2-3.5-19.6,2.2c-5.1,0.3-69.5,2.4-74.6,2.1c-8.4-5.7-15.9-4.5-19.6-2.2
			c-6.2,4-8.5,11.9-5.4,18.6c3.6,7.9,27,21.6,34.2,21.9c7,0.3,48.5,0.3,55.5,0c7.3-0.3,31.4-15,35-22.9
			C312.9,257.4,308.1,248.9,303.5,246.3z"/>
		<path class="st50" d="M289.3,246c-0.4-0.7-2.7-3.3-3.1-4.1c-13.3,0.3-63.8,1.7-78.1,2.1c-0.2,1.5-0.6,4.1-0.9,5.3
			C216,259.1,250.9,272.9,289.3,246z"/>
		<path class="st51" d="M156.8,142.3c-1.4-1.5,9.4-12.9,10.8-11.7c20.2,17.1,36.4,25.3,60,35.8c-4.1,6.3-8.2,12.4-12.4,18.6
			C192.5,171.8,174.9,162,156.8,142.3z"/>
		<path class="st52" d="M196.1,150.1c-3.4,6-10.2,20.2-13.3,26.6c14,7.9,26.6,13.3,27.7,13.3c12.1-0.4,22.2-23,23.1-24.2
			C226.2,163,209.9,156.5,196.1,150.1z"/>
		<path class="st52" d="M207.1,249.4c20.7,12.7,57.4,11.3,82.2-3.4c0,0-6.7-67.4-9.4-83.3c-11.9-1.4-24-1.8-36-1
			c-11.7,0.7-23.3,2.3-31.6,3.5C209.2,185.2,211,219.9,207.1,249.4z"/>
		<path class="st51" d="M245.9,275.4c0.4,0.3-8.6,17.8-9.2,17.6c-3.7-1.5-32.4-14.6-48.1-21.7c-5.5-2.5-7.3-9.9-4.1-16.3
			c3.4-6.8,10.8-9.8,16.1-6.6C216,257.6,243.6,274,245.9,275.4z"/>
		<path class="st53" d="M264.5,284.3l-13.3,21.6c-3.7-2.7-25.7-17.4-29.3-19.4l13.5-19.3c1.7,1.2,6.3,4.5,8.6,6.2
			C245.6,274.6,263.8,283.3,264.5,284.3z"/>
		<path class="st54" d="M257.9,310.9c11.7-0.5,18.9-13.4,15.2-20.3c-0.9-1.7-3.8-3.8-5.1-4.8c-5.7,1.2-16.6,18.1-15.4,22.4
			C253.4,308.8,256.9,310.8,257.9,310.9z"/>
		<path class="st55" d="M253.5,308.6c11.8,0.4,22.1-13.4,14.5-22.8c-3.2-2.4-8-4.4-18.8-9.6c-1-0.5-5.2-3.5-6.3-4.3
			c-6.7,1.8-15.3,14.9-12.9,20c1.2,0.8,3,2,5,3.4C245.4,303,251.3,308.5,253.5,308.6z"/>
		<path class="st53" d="M250.1,281.9c0-0.3-0.3-0.5-0.6-0.5c0,0-0.1,0-0.1,0c-1.8,0.3-4.1,2-5.9,4.4l-0.2,0.2
			c-1.6,2-2.5,4.5-2.4,7.1c0,0.3,0.3,0.5,0.6,0.5c0,0,0,0,0.1,0c0.3-0.1,0.6-0.4,0.6-0.8c0-2.2,0.8-4.4,2.2-6.1
			c0-0.1,0.1-0.2,0.2-0.2c1.6-2.1,3.6-3.6,5-3.9C249.9,282.5,250.2,282.2,250.1,281.9z M253.8,283.9c0-0.3-0.3-0.5-0.6-0.5
			c0,0-0.1,0-0.1,0c-3.8,0.7-9.2,7.4-8.9,12.2c0,0.3,0.3,0.5,0.6,0.5c0,0,0.1,0,0.1,0c0.3-0.1,0.6-0.4,0.6-0.7
			c-0.3-4,4.6-10.1,7.8-10.7c0.2,0,0.3-0.1,0.4-0.3C253.7,284.2,253.8,284.1,253.8,283.9L253.8,283.9z M248.5,298.9
			c0.2,0,0.3-0.1,0.4-0.3c0.1-0.1,0.1-0.3,0.1-0.5c-0.2-4.1,4.9-10.6,8.2-11.3c0.3-0.1,0.6-0.4,0.5-0.8c0-0.3-0.3-0.5-0.6-0.5
			c0,0-0.1,0-0.1,0c-3.8,0.9-9.5,7.8-9.3,12.7C247.9,298.6,248.1,298.9,248.5,298.9C248.5,298.9,248.5,298.9,248.5,298.9
			L248.5,298.9z"/>
		<path class="st51" d="M229,281.4c-0.6,0.3,8.2,18.6,8.9,18.4c4.6-1.8,40.9-17.2,60.7-25.6c6.7-2.8,9.9-10.6,7.1-17.3
			c0-0.1-0.1-0.2-0.2-0.3c-3.1-6.8-11.1-9.7-17.9-6.6c-0.3,0.1-0.5,0.3-0.8,0.4C267.1,260.9,232,279.8,229,281.4z"/>
		<path class="st53" d="M212.8,284l9.6,23.6c4.1-2,28.4-13,32.3-14.4L244.6,272c-1.9,1-7,3.5-9.5,4.7
			C233.3,277.6,213.8,283.2,212.8,284z"/>
		<path class="st54" d="M215,311.5c-11.5-2.5-16.5-16.4-11.6-22.6c1.2-1.5,4.4-3.1,5.9-3.9c5.4,2.1,13.4,20.6,11.4,24.8
			C219.8,310.1,216,311.6,215,311.5z"/>
		<path class="st55" d="M219.7,310c-11.8-1.5-19.6-17-10.5-25c3.6-1.8,8.6-3,20.2-6.4c1.1-0.4,5.8-2.6,7-3.2
			c6.4,2.9,12.6,17.3,9.4,22c-1.3,0.6-3.3,1.4-5.6,2.6C228.7,305.8,221.9,310.3,219.7,310z"/>
		<path class="st53" d="M228,284.9c1.4,0.5,3.1,2.3,4.3,4.7c0,0.1,0.1,0.2,0.1,0.2c1.1,2,1.5,4.2,1.2,6.5c-0.1,0.2-0.1,0.3,0,0.5
			c0.1,0.2,0.2,0.3,0.4,0.3c0.3,0.1,0.6,0,0.7-0.3c0,0,0,0,0-0.1c0.4-2.5,0-5.2-1.3-7.4l-0.1-0.3c-1.4-2.7-3.3-4.8-5.1-5.4
			c-0.3-0.1-0.6,0.1-0.7,0.3c0,0,0,0,0,0.1C227.5,284.4,227.7,284.7,228,284.9z M223.7,285.9c0.1,0.2,0.2,0.3,0.4,0.3
			c3,1.1,6.8,8,5.9,11.9c-0.1,0.3,0.1,0.7,0.4,0.8c0.3,0.1,0.6,0,0.7-0.3c0,0,0-0.1,0-0.1c1.1-4.7-3.1-12.2-6.7-13.5
			c-0.3-0.1-0.6,0-0.7,0.3c0,0,0,0.1,0,0.1C223.6,285.6,223.6,285.8,223.7,285.9L223.7,285.9z M227,300.7c1.1-4.8-3.4-12.7-7-14.1
			c-0.3-0.1-0.6,0-0.7,0.3c0,0,0,0.1,0,0.1c-0.1,0.3,0.1,0.7,0.4,0.8c3.1,1.3,7.1,8.5,6.2,12.5c0,0.2,0,0.3,0.1,0.5
			c0.1,0.2,0.2,0.3,0.4,0.3C226.6,301.2,226.9,301.1,227,300.7C227,300.7,227,300.7,227,300.7z"/>
		<path class="st56" d="M263.3,164.5c0-1-0.2-2.1-0.5-3.1c-10.3-0.2-27.2,0.8-35.8,1.7c-0.2,0-0.8,1.1-0.8,1.1
			c0,8.1,6.3,15.1,17.2,15S263.3,172.6,263.3,164.5z"/>
		<polygon class="st57" points="141.7,113.5 152.1,104.9 186.7,139.1 176.2,147.6 		"/>
		<polygon class="st26" points="176.3,147.7 141.7,147.7 141.7,113.5 		"/>
		<path class="st51" d="M139.6,123.2c4.7-0.2,8.4,1.4,8.4,3.5s-3.8,3.9-8.5,4s-8.4-1.4-8.4-3.5S134.9,123.3,139.6,123.2z"/>
		<path class="st51" d="M139.9,116.1c4.6,0.4,8.1,2.4,7.7,4.5s-4.4,3.4-9,3s-8.1-2.4-7.7-4.5S135.2,115.7,139.9,116.1z"/>
		<path class="st51" d="M139,130.1c4.6-0.7,8.7,0.5,9,2.7s-3.2,4.5-7.8,5.2s-8.7-0.5-9-2.7S134.4,130.8,139,130.1z"/>
		<path class="st51" d="M141.6,136.3c4-1.6,8-1.3,8.9,0.6s-1.7,4.7-5.7,6.3s-8,1.3-8.9-0.6S137.6,137.9,141.6,136.3z"/>
		<path class="st52" d="M311,202.6c-5,5.4-22.7,9.1-32.8,11.1c-1.8-11.3,1.6-50.4,1.7-50.9c3.1,1.1,7.5,3.3,9.3,5.1
			C291.5,170.2,307.7,197.2,311,202.6z"/>
		<path class="st51" d="M230.4,207.7c-2.1,0.3-4.2,0.1-6.1-0.7c-1.9-0.8-3-1.9-2.4-3.1c2.3-4.5,17.4-3.8,19.8-2.3l0,0
			C242,204.1,234.8,207,230.4,207.7z"/>
		<path class="st51" d="M300.1,227.7c-8.1,3.1-30.9,1.6-47.4-0.7c-4.7,1.1-11.4,2.5-13.1,2.4s-8.9-0.6-8.8-1.4
			c0.5-4.2,6.2-2.7,7.9-3.2c3-0.9,5.1-2.4,4.9-2.8c-4.7,1.5-5.1,2.1-6.8,2.3c-5.1,0.4-10.4,0.8-10.4-0.5c0-3.3,5.9-3.8,8.4-4.2
			c5-1.6,6.5-1.9,6.8-2.7c-0.4-0.3-5.6,0.3-8.3,0.8c-6.8,1.9-9.9,5-12.3,0.9c-0.9-1.5,7.6-5.5,10.1-6.5c3.1-1,8.9-2.1,8.4-2.8
			c-3,0.2-5.9,0.8-8.7,1.6c-3.9,1.6-11,5.6-13.7,1.7c-0.9-1.3,1.7-2.7,7.3-5.6c1.9,0.8,4,1,6.1,0.7c4.4-0.7,11.6-3.6,11.3-6
			c4.8,1.9,9.2,4.8,13,8.4c18-0.1,46.6-3.9,51.4-4.1C306,205.9,312.6,223,300.1,227.7z"/>
		<path class="st51" d="M230.4,207.7c-2.1,0.3-4.2,0.1-6.1-0.7c1.5-0.8,3.1-1.6,5-2.6c3.9-1.3,8-2.2,12.1-2.8c0.1,0,0.2,0.1,0.3,0.1
			C242,204.1,234.8,207,230.4,207.7z"/>
		<path class="st58" d="M258.9,162c-3.4,3.2-7.8,5.2-12.5,5.7c-6.3,0.8-12.1-1-15.8-4.2v-0.2v-1.9c9.4,1.5,19,1,28.2-1.4L258.9,162z
			"/>
		<path class="st51" d="M259,163.8c0.1,4.9-6.1,9.1-13.9,9.4s-14.3-3.6-14.4-8.5v-1.1c3.7,3.2,9.5,4.9,15.8,4.2
			c4.7-0.5,9.1-2.5,12.5-5.7v0.1L259,163.8z"/>
		<path class="st59" d="M216.8,134.1c-1.3-2.7-3.1-5.2-5.3-7.2c-6.3-6.3-17.4-3.2-19.2,5.6c-1.9,9.6,4.5,19.3,13.7,22.2
			c3.9,1.2,8.1,1.2,12,0.1L216.8,134.1z"/>
		<path class="st60" d="M192.9,103.1c0.4-0.6-0.1,1.6,0,2.3c0.3,1.9,0.7,3.8,1.1,5.6c1.8,8.1,4.2,14.9,10.1,20.6
			c0.2,0.2,1.3,1.6,1.6,1.5c0.1,0-1.2-3.1-1.2-3.3c-1.1-3.3-2.2-6.6-3-9.9c-1.4-5.5-2.2-11.1-2.4-16.8c-0.1-2.1,0.8-5.3,0.4-7.3"/>
		<path class="st61" d="M200.2,129c-2.7-7-3.2-15.1-3.8-24c-1.9-29.2,20.2-38.7,46.9-40.4s46.7,12.9,49,40.5
			c0.9,11.7-7.8,41.6-25.2,52.3c-23.7,14.4-52.2,12.9-63.7-3.2C198.3,147,197.5,138,200.2,129z"/>
		<path class="st59" d="M271.3,150c-1.2,1.3-2.4,2.5-3.8,3.6c-3,2.4-6.2,4.7-9.6,6.6c-5.2,3.1-10.9,5.4-16.9,6.6
			c0,0,11.9-0.2,28.2-10.8c1.8-1.2,6.8-5.9,6.9-6.8C274.6,149.8,273,150,271.3,150z"/>
		<path class="st59" d="M196.6,107.1c-0.1-0.9-0.1-1.8-0.2-2.7c-2.5-29.9,20.2-40,47.9-42.3c15.5-1.3,28.9,2.7,38.2,11.4
			c7.3,6.9,12.1,16.6,13.4,29.1c0.6,6.4-1.5,18.2-6.3,29.4c-6-1.7-11.7-5.5-11.5-7.6c0-0.3,0.1-0.6,0.1-0.9c-1.6,2.8-4,5-7,6.3
			c-0.2,0.1-1.4,0.8-1.6,0.6s0.6-1.6,0.6-1.9c1.7-4,2.5-8.3,2.3-12.6c-0.1-3.8-2.5-11.2-5.4-14.7s-3.4-8.9-3.5-9.3
			c-2.6,5.6-0.3,11.9-0.6,11.7c-6.6-4.5-5.5-18.8-5.5-18.8c-6.5,2.1-10.2,8.9-16.7,10.7c-11.8,3.3-23.6,0.9-35.9,4.2
			C201.2,100.7,198.1,103.4,196.6,107.1z"/>
		<path class="st62" d="M196.3,65.8c4.8-4,10.3-7.1,16.2-8.9c2.1-0.7,4.3-1.2,6.5-1.6c1.1-0.2,2.2-0.3,3.3-0.5
			c2.2-0.2,4.6,0.1,2.6-1c-3.9-2.1-9.1-6.1-9.8-11.2c0,0,0-0.1,0-0.1s1.2,1,1.2,1.1c1.4,1.3,2.8,2.4,4.4,3.3c5,2.8,10.4,3.6,16,3.4
			l2.6-0.1c10.1-0.6,19.9-1.2,28.9,4.5c1.8,1.1,3.5,2.4,5,3.9c0.2,0.2,2.4,3.4,2.4,3.4c0.2-1.5,0.1-3.1-0.4-4.6
			c-0.7-2.2-1.6-4.4-2.7-6.6c1-0.2,3.6,2.6,4.3,3.1c3.8,2.8,6.8,9.9,7.8,11.1c0,0.1,0.1,0,0.2,0c6.4-0.5,10.8,2.5,15.8,6.8
			c1.3,1.1-9.7,0.1-9.1,2.4c0.5,1.1,1.2,2.2,2,3.2c2.2,3.7,3.8,7.7,4.7,11.9c3.1,12.2,2.4,25.2-2,37c-0.8,2.1-1.4,5.1-2.8,6.8l1-1.8
			c0-0.3-1.3-0.4-1.5-0.4c-7.6-1.2-15.4-5.2-15.1-7.9c0-0.3,0.1-0.6,0.1-0.9c-1.6,2.9-4.1,5.1-7.1,6.4c-0.2,0.1-1.4,0.8-1.6,0.6
			s0.6-1.7,0.6-1.9c1.8-4.6,2.6-9.4,2.5-14.3c-0.1-3.3-1.1-6.6-2.8-9.5c-2.2-4.1-5-7.6-5.7-12.7c0-0.4-0.1-0.7-0.1-1.1
			c-2.6,3.9-2,11.2-2,11.2s-5.2-5.3-2.8-18.5c0,0,0,0,0-0.1c-6.6,2.2-12.8,8.5-19.4,10.3c-11.9,3.3-23.8,0.9-36.1,4.3
			c-11.8,3.3-9.9,18.3-10.2,17.9c-8.2-11.3-5.4-18.6-5.2-22.8c0-0.3,0-0.5,0-0.8c-2.1,1.9-4.5,3.3-7.1,4.2c0,0,3-4.1,6.2-15.6
			C189.2,73,191.4,69.9,196.3,65.8z"/>
		<path class="st61" d="M272.7,128.5c0.9-2.9,2.4-5.5,4.3-7.8c5.5-7.1,16.9-5.4,19.7,3.1c3.1,9.3-2,19.7-10.8,23.8
			c-3.7,1.7-7.9,2.3-12,1.7L272.7,128.5z"/>
		<path class="st59" d="M282.9,121c4.4-1.2,9,1.2,10.5,5.6c2.4,7.2-1.5,15.3-8.4,18.5c-2.4,1.1-4.9,1.6-7.5,1.5
			c1.5-0.2,2.9-0.7,4.2-1.3c6.9-3.2,10.8-11.3,8.4-18.5C289,123.6,286.2,121.4,282.9,121z"/>
		<path class="st59" d="M228.6,131.5c-1-0.2-2,0-2.8,0.6c-1,0.9-1.3,2.3-0.9,3.5c0.4,1.4,1.8,2.5,4.1,2.1c0.3,0,0.5-0.3,0.4-0.6
			c0,0,0,0,0,0c0-0.3-0.3-0.5-0.6-0.4c0,0,0,0,0,0c-1,0.2-2-0.1-2.6-0.8c-0.8-0.9-0.7-2.2,0.1-3c0.6-0.5,1.3-0.7,2-0.5
			c0.3,0.1,0.5-0.1,0.6-0.4c0,0,0,0,0,0C229.1,131.8,228.9,131.6,228.6,131.5z"/>
		<path class="st63" d="M249,142.7c-0.1-0.8-0.4-1.5-1-2c-0.6-0.5-1.4-0.8-2.1-0.7c-3.5,0.2-6.4,1-13.7,1.6s-9.6,0.1-13.2,0.4
			c-1.6,0.1-2.8,1.5-2.7,3.1c0.1,0.9,0.1,1.9,0.2,2.9c0.2,3.1,1.7,6,4,8.1c2.4,2.1,5.4,2.7,8.6,2.8c3.1,0.1,6.2,0,9.3-0.5
			c3.1-0.6,5.9-1.6,8-4c2.1-2.5,3-5.8,2.8-9.1C249.1,144.5,249,143.6,249,142.7z"/>
		<g>
			<defs>
				<path id="SVGID_4_" d="M249,142.7c-0.1-0.8-0.4-1.5-1-2c-0.6-0.5-1.4-0.8-2.1-0.7c-3.5,0.2-6.4,1-13.7,1.6s-9.6,0.1-13.2,0.4
					c-1.6,0.1-2.8,1.5-2.7,3.1c0.1,0.9,0.1,1.9,0.2,2.9c0.2,3.1,1.7,6,4,8.1c2.4,2.1,5.4,2.7,8.6,2.8c3.1,0.1,6.2,0,9.3-0.5
					c3.1-0.6,5.9-1.6,8-4c2.1-2.5,3-5.8,2.8-9.1C249.1,144.5,249,143.6,249,142.7z"/>
			</defs>
			<clipPath id="SVGID_5_">
				<use xlink:href="#SVGID_4_"  style="overflow:visible;"/>
			</clipPath>
			<g class="st64">
				<path class="st65" d="M238.2,138.1c7.6-1.4,14.9,3.7,16.3,11.3c1.4,7.6-3.7,14.9-11.3,16.3c-7.5,1.4-14.6-3.5-16.2-10.9
					C225.5,147.1,230.5,139.7,238.2,138.1z"/>
				<path class="st66" d="M236.2,149.8c7.3-0.5,13.6,3.6,14,9.1s-5.2,10.5-12.5,11.1s-13.6-3.6-14-9.1S228.9,150.3,236.2,149.8z"/>
				<path class="st67" d="M244.3,135.4l-24.8,1.8c0,0,0.3,3.5,0.4,5.6c0.1,1.1,0.8,2,1.9,2.2c5.1,1.1,12.7,0.9,21.4-1.8
					c1-0.3,1.6-1.2,1.5-2.2C244.6,138.9,244.3,135.4,244.3,135.4z"/>
			</g>
		</g>
		<path class="st68" d="M209.2,117.2c-2.5,0.3-4.3,3.2-3.9,6.4s2.8,5.5,5.4,5.2s4.3-3.2,3.8-6.4S211.7,116.9,209.2,117.2z"/>
		<path class="st69" d="M209,119.7c-2,0.2-3.4,2.3-3.1,4.8s2,4.3,4,4.2s3.4-2.3,3.1-4.8S211,119.5,209,119.7z"/>
		<path class="st67" d="M210.3,118.3c-0.9,0.3-1.5,1.2-1.2,2.2c0.2,0.9,1.1,1.5,2.1,1.3c0,0,0,0,0,0c0.9-0.3,1.5-1.2,1.2-2.2
			C212.2,118.6,211.3,118.1,210.3,118.3C210.3,118.3,210.3,118.3,210.3,118.3z"/>
		<path class="st70" d="M249.1,114.3c-3,0-5.4,3-5.4,6.5s2.6,6.4,5.6,6.4s5.4-3,5.4-6.5S252.1,114.3,249.1,114.3z"/>
		<path class="st69" d="M248.4,117c-2.3,0.1-4.1,2.4-3.9,5.2s2.2,4.8,4.5,4.7s4.1-2.4,3.9-5.2S250.7,116.9,248.4,117z"/>
		<path class="st67" d="M250.4,115.5c-1.1,0.3-1.6,1.5-1.3,2.5s1.5,1.6,2.5,1.3c1-0.3,1.6-1.4,1.3-2.5
			C252.6,115.8,251.5,115.2,250.4,115.5C250.4,115.5,250.4,115.5,250.4,115.5z"/>
		<path class="st71" d="M257.4,133.8c-3.6,0.8-6.3,3.1-5.8,5.1s3.8,2.9,7.4,2.1s6.3-3.1,5.8-5.1S261,132.9,257.4,133.8z"/>
		<path class="st71" d="M207.6,137.1c-3.4-0.4-6.3,0.9-6.5,2.9s2.3,4,5.6,4.4s6.3-0.9,6.5-2.9S211,137.4,207.6,137.1z"/>
		<path class="st72" d="M254.9,107.2c-2-0.8-4.1-1.2-6.3-1.2c-1,0-2,0.1-3,0.3c-1.1,0.2-2.2,0.5-3.3,0.9c0.5-1.2,1.3-2.3,2.5-2.9
			c2.4-1.4,5.3-1.4,7.7,0C253.5,104.9,254.4,105.9,254.9,107.2z"/>
		<path class="st72" d="M215.4,111.3c-2.1-0.5-4.2-0.7-6.4-0.5c-1,0.1-2,0.3-2.9,0.6c-1.1,0.4-2.2,0.8-3.2,1.3
			c0.3-1.3,1.1-2.4,2.1-3.2c2.2-1.7,5.1-2,7.6-0.8C213.8,109.2,214.8,110.2,215.4,111.3z"/>
	</g>
</g>
<path class="st73" d="M167.8,38.5c0.7,0.4,0.2,0.1-0.3-0.3c-0.5-0.4-1-0.8-1.6-1c-0.9-0.4-1.8-0.8-2.8-1.1c-2.2-0.4-4.5-0.7-6.8-0.7
	c-5.2-0.3-9.9,2-14.4,4.7c-4,2.5-7.5,5.7-10.4,9.4c-1.7,2.2-3,4.7-3.8,7.3c-0.4,1.2-0.7,2.4-0.7,3.6c0.1,1.1,0.3,2.1,0.5,3.2
	c0,1.4,1.1,2.6,2.5,2.6c0.5,0,0.9-0.1,1.3-0.3c0.6-0.3,2-0.4,2.8-0.8c0.8-0.4,1.5-0.8,2.2-1.3c0.4-0.3,3.5-2.7,1.2-1.3
	c1.5-0.8,2.9-1.8,4.2-2.9c1.1-1,2.3-1.9,3.6-2.7c1.6-1,3.1-2.1,4.7-3c3.7-2.3,5.9-2.8,9.6-5.4c2.3-1.7,6.3-2.8,8.1-5.4
	c1.3-0.9,1.6-2.6,0.7-3.9C168.4,38.9,168.1,38.7,167.8,38.5z"/>
<path class="st74" d="M288.8,386c5.6,1.8,11.9,1.6,17.7,1.5c2.9-0.1,5.9-0.3,8.8-0.8c3-0.4,6.4-0.9,9-2.2c1.8-0.9,2.5-3,1.7-4.8
	c-0.5-1.1-1.5-1.8-2.7-2c-2.8-0.4-5.6-0.5-8.4-0.3c-2.9,0-5.8,0.1-8.6,0.4L288.8,386z"/>
<path class="st74" d="M360.5,364.3c-0.1-0.2-0.3-0.4-0.4-0.5c-1-0.7-2.2-1-3.4-0.7c-4.3,0.8-7,3.3-10.3,5.6c-2.5,1.8-5.9,2.6-8.7,4
	c-3.3,1.5-6.5,3.3-7.5,6.6c-0.4,1.2,0,2.6,1,3.4c2.9,2.5,6.9,2.4,10.6,1.6c3.5-0.7,6.9-2,10.1-3.6c5.4-3,11.2-9.6,9-15.6
	C360.7,364.8,360.6,364.6,360.5,364.3z"/>
<path class="st75" d="M357.8,65.8c-5.4-3.3-11.2-5.8-17.3-7.3c-10.8-3-22-4.1-33.1-4.9c-17-1.9-34.1-2.8-51.2-2.8
	c-19.8-0.2-39.6,0.7-59.4,2.7c-16.1,1.6-32.5,3.8-48.2,8.2h-0.1c-0.1,0-0.2,0-0.2,0.1l-0.5,0.2c-5.2,1.5-10.5,3.5-12.9,9
	c-2.1,4.9-2,10.4,0.1,15.3c5,12,19.3,15.2,30.3,16.7c14.1,2,28.6,2,42.9,2.3s28.8,0.1,43.2-0.4c28.8-1,57.6-3.6,86.2-7.9
	c6.3-1,12.6-2.2,18.4-4.8c5.1-2.3,11-6,10.9-12.6C366.9,73.6,362.3,68.8,357.8,65.8z"/>
</svg>
