<?xml version="1.0" encoding="utf-8"?>
<!-- Generator: Adobe Illustrator 25.2.3, SVG Export Plug-In . SVG Version: 6.00 Build 0)  -->
<svg version="1.1" id="Layer_1" xmlns="http://www.w3.org/2000/svg" xmlns:xlink="http://www.w3.org/1999/xlink" x="0px" y="0px"
	 viewBox="0 0 490 425" style="enable-background:new 0 0 490 425;" xml:space="preserve">
<style type="text/css">
	.st0{fill:#78EFE9;}
	.st1{fill:#0072AB;}
	.st2{fill:#74879E;}
	.st3{clip-path:url(#SVGID_2_);}
	.st4{opacity:0.29;fill:#932216;enable-background:new    ;}
	.st5{fill:none;stroke:#F4F2F2;stroke-width:0.5;stroke-miterlimit:10;}
	.st6{fill:none;}
	.st7{fill:url(#SVGID_3_);}
	.st8{fill:#80E559;}
	.st9{opacity:0.5;fill:url(#SVGID_4_);enable-background:new    ;}
	.st10{fill:#73DD47;}
	.st11{opacity:0.3;}
	.st12{fill:#84E75A;}
	.st13{opacity:0.31;}
	.st14{fill:#5F8337;}
	.st15{opacity:0.5;fill:#5F8337;enable-background:new    ;}
	.st16{fill:#2BB51C;}
	.st17{fill:#1C8E16;}
	.st18{fill:#439C3D;}
	.st19{fill:#9B5334;}
	.st20{fill:#904E27;}
	.st21{fill:#CC773E;}
	.st22{fill:#7C3F29;}
	.st23{fill:#8C4D23;}
	.st24{fill:#723B17;}
	.st25{opacity:0.61;}
	.st26{fill:#666666;}
	.st27{fill:#1A1A1A;}
	.st28{fill:#E6E6E6;}
	.st29{fill:#C93140;}
	.st30{fill:#308C1F;}
	.st31{fill:#4FB62B;}
	.st32{fill:#EAC25E;stroke:#000000;stroke-width:0.75;stroke-miterlimit:10;}
	.st33{fill:#FFFFFF;}
	.st34{font-family:'MyriadPro-Regular';}
	.st35{font-size:31.35px;}
	.st36{font-size:40.91px;}
	.st37{font-size:38.23px;}
	.st38{font-size:38.1573px;}
	.st39{font-size:44.94px;}
	.st40{font-size:44.9732px;}
	.st41{fill:#E7D760;stroke:#BAA73B;stroke-miterlimit:10;}
	.st42{fill:#F9DAD2;stroke:#7F430D;stroke-width:0.75;stroke-miterlimit:10;}
	.st43{fill:#342516;}
	.st44{fill:#E8BAB1;}
	.st45{fill:#F9DAD2;}
	.st46{fill:#7F430D;}
	.st47{fill:#EAB8AD;}
	.st48{fill:#E8D860;stroke:#BAA83A;stroke-miterlimit:10;}
	.st49{fill:#A55819;}
	.st50{fill:#EF4B3B;}
	.st51{fill:#FFFFFF;stroke:#3D2D16;stroke-width:0.5;stroke-miterlimit:10;}
	.st52{fill:#3D2D16;}
	.st53{fill:#8C3D35;}
	.st54{fill:#F9988F;}
	.st55{fill:#F58778;}
	.st56{fill:#FFF7F4;}
	.st57{fill:#D26653;}
	.st58{fill:#FE66CA;stroke:#323232;stroke-miterlimit:10;}
	.st59{fill:#B29D9E;stroke:#1C170F;stroke-miterlimit:10;}
	.st60{fill:#8F494A;stroke:#1C170F;stroke-miterlimit:10;}
	.st61{fill:#FAF079;stroke:#9A9435;stroke-width:2;stroke-miterlimit:10;}
	.st62{fill:#B8832C;}
	.st63{fill:#F16A21;}
	.st64{fill:#F4F2DC;stroke:#9A9435;stroke-width:0.25;stroke-miterlimit:10;}
	.st65{fill:#FFFA71;stroke:#9B9527;stroke-width:0.25;stroke-miterlimit:10;}
	.st66{fill:#D848AC;}
	.st67{fill:none;stroke:#1C170F;stroke-width:0.25;stroke-miterlimit:10;}
	.st68{opacity:0.53;fill:#FFFFFF;enable-background:new    ;}
	.st69{opacity:0.33;fill:#FFFFFF;enable-background:new    ;}
	.st70{opacity:0.15;fill:#FFFFFF;enable-background:new    ;}
</style>
<polygon class="st0" points="359.8,13.6 130.2,13.6 15.3,212.5 130.2,411.4 359.8,411.4 474.7,212.5 "/>
<polygon class="st1" points="353.3,24.9 136.7,24.9 28.3,212.5 136.7,400.1 353.3,400.1 461.7,212.5 "/>
<polygon class="st2" points="351.5,28 138.5,28 32,212.5 138.5,397 351.5,397 458,212.5 "/>
<g>
	<defs>
		<polygon id="SVGID_1_" points="351.5,28 138.5,28 32,212.5 138.5,397 351.5,397 458,212.5 		"/>
	</defs>
	<clipPath id="SVGID_2_">
		<use xlink:href="#SVGID_1_"  style="overflow:visible;"/>
	</clipPath>
	<g class="st3">
		<path class="st4" d="M350.1-15.4c0,0,109.2,29.9,156.8,58.8s110.4,52.4,110.4,52.4l-162.3-1L350.1-15.4z"/>
		<line class="st5" x1="480" y1="175.9" x2="543.2" y2="175.9"/>
		<line class="st5" x1="479.4" y1="177.1" x2="542.6" y2="177.1"/>
		<line class="st5" x1="478.8" y1="178.4" x2="542" y2="178.4"/>
		<line class="st5" x1="478.8" y1="179.6" x2="542" y2="179.6"/>
		<line class="st5" x1="478.2" y1="180.8" x2="541.4" y2="180.8"/>
		<line class="st5" x1="477.6" y1="182.1" x2="540.8" y2="182.1"/>
		<line class="st5" x1="477.6" y1="183.3" x2="540.8" y2="183.3"/>
		<line class="st5" x1="477" y1="184.6" x2="540.2" y2="184.6"/>
		<line class="st6" x1="450.9" y1="132.7" x2="579.9" y2="131.6"/>
		
			<linearGradient id="SVGID_3_" gradientUnits="userSpaceOnUse" x1="134.4032" y1="-53.6506" x2="287.1332" y2="701.3994" gradientTransform="matrix(1 0 0 -1 0 426)">
			<stop  offset="0.2" style="stop-color:#C5F7FD"/>
			<stop  offset="0.34" style="stop-color:#B3F0FD"/>
			<stop  offset="0.66" style="stop-color:#8EE1FD"/>
			<stop  offset="0.83" style="stop-color:#80DBFD"/>
		</linearGradient>
		<rect x="-254.1" y="-221.9" class="st7" width="985.2" height="373.5"/>
		<polygon class="st8" points="-246.3,200.7 751.1,179.4 751.1,376.5 -246.3,376.5 		"/>
		
			<linearGradient id="SVGID_4_" gradientUnits="userSpaceOnUse" x1="-14.295" y1="234.81" x2="-14.295" y2="254.2" gradientTransform="matrix(1 0 0 -1 0 426)">
			<stop  offset="0" style="stop-color:#09170A"/>
			<stop  offset="0.58" style="stop-color:#2D550C"/>
			<stop  offset="1" style="stop-color:#16623E"/>
		</linearGradient>
		<path class="st9" d="M-230.5,177.7c16.6,0.2,33.2,1.2,49.8,1.4c20.6,0.2,40.9-1.3,61.5-0.7c11.6,0.4,23.2,0.8,34.9,1.1
			c10.5,0.2,21,0.1,31.5,0.6c21.5,1,42.4,3.4,63.7,5c45.2,3.4,91.1,3.8,137,4.6c16.5,0.3,32.6,0.1,48.9-0.5c3-0.4,6-0.7,9.1-0.8
			c5.1-0.3,10.3-0.4,15.4-0.4c-2.8-0.1-5.3-0.1-7.2-0.1c-17.4,0-55,1.5-75.2,0.7s-28.9,0-57.9-1.1s-62.7-4-83-4.8
			s-43.4-3.7-61.7-4.1s-32.8,0.7-58.8-0.7s-50.1,1.1-77.1-0.4c-18.3-1-37.9-2-50.2-2.5v3C-243.4,177.7-236.8,177.7-230.5,177.7z"/>
		<path class="st10" d="M552,39.6c-32.3,8.6-65.5,22.4-98.1,24.6c-42.7,2.9-85,13-127.7,15.3c-43.9,2.4-86.4,1.9-130.1-3.3
			c-38-4.5-76-0.4-113.9-4.8c-38.9-4.5-77.1-20-116-24.1C-61.8,44.4-89.6,40-117,34c-23-5-45-18-67.8-23C-206.5,6.2-229.1-2-251-2.8
			v456.5h982V-24.9c-28.1,8.8-55.3,20-81.5,33.5C618,24.7,584.4,31,552,39.6z"/>
		<g class="st11">
			<path class="st12" d="M658.9,122c-3.4,2.3-6.9,4.7-10.4,7c-14.1,9.3-29.3,16.6-45.3,21.9c-33.7,10.9-71,11-103.5,24.7
				c19.7,2.8,39.9,1.4,59.7-0.2c13.8-1.2,27.6-2,41.4-3.1c10.7-0.9,21.5-1.9,32.2-2c8-0.1,19.2-0.6,26,3.9c5.5,3.6,3.5,9.2-0.1,13.3
				c-5.9,6.7-14.5,11.4-22.7,15.5c-11,5.4-22.5,9.9-34.3,13.4c-11.2,3.3-22.9,6-34.8,6.8c-7.8,0.5-17.3,0.5-23.8-4
				c-0.3-0.1-0.4-0.5-0.3-0.8c0-0.1,0.1-0.2,0.2-0.2c7.3-7.7,21.3-7.7,27.5-16.3c-15.4-5.6-33.7-2.5-49.7-1.1
				c-20,1.7-40.2,4-60.4,4.6c-42.8,1.2-84.9-9.5-127.8-8.8c-22.3,0.4-44.5,1.3-66.8,1.6c-22.1,0.2-44.1,0.2-66.2-0.4
				c-16.3-0.5-32.6-0.2-48.8-1.2c-14.3-0.9-30-2.7-41.8-10.5c-0.3-0.1-0.4-0.5-0.3-0.8c0.1-0.2,0.2-0.3,0.4-0.3
				c1.3-0.4,2.7-0.7,4.1-0.9c9.4-1.5,18.9-0.4,28.3,0c10.6,0.4,21.3-0.7,31.9-1.8c10.7-1.1,21.5-2.4,32.3-3.1
				c5.2-0.3,10.3-0.5,15.4-0.5c-9-0.5-18-1.1-27.1-2c-37.9-3.4-75.9-0.3-113.9-3.6c-38.9-3.4-77.1-15-116-18
				c-28.1-2.2-55.3-5.4-83.1-9.9c-23-3.8-45-13.5-67.8-17.2c-21.7-3.5-44.3-9.7-66.2-10.3v8c4.5,0.3,8.9,0.8,13.3,1.3
				c42,5.3,82.2,18.4,123,28.4c10.2,2.5,20.4,4.8,30.8,6.4c9.7,1.4,19.5,2.3,29.3,2.6c16,0.7,33.7,1.5,47.6,9.4
				c0.3,0.1,0.4,0.5,0.3,0.8c-0.1,0.1-0.1,0.2-0.3,0.3c-8.2,3.7-17.5,5-26.6,5.5c-17.3,0.9-34.5-0.8-51.8-0.8
				c-19.7,0-38.9,4.1-58,8.1c-10.7,2.2-21.5,4.9-32.3,6.7c-7,1.1-14.1,1.6-21.2,2.6c-7.6,1-15.6,2.3-22.4,5.6
				c-1.8,0.8-3.6,1.9-5.2,3.1c-1.4,1.1-1.5,1.1-0.2,2.4c1.5,1.5,3.2,2.8,5.1,3.8c10.3,5.4,23.5,6.2,35.1,6.7c13,0.5,26,0.1,39,0
				c11.4-0.1,22.8,1,34.3,1.3c13.9,0.4,30.5,0.2,42.6,7.4c0.3,0.1,0.4,0.5,0.3,0.8c0,0,0,0,0,0c-3.2,5.2-8,6-14.2,6.5
				c-5.6,0.4-11.1,1.9-16.7,2.7c-4.8,0.7-9.6,1.3-14.4,1.9c-10.9,1.2-21.8,2-32.7,2.8c-22.3,1.6-44.2,4.3-66.2,7.4
				c-12.8,1.8-25.6,3.5-38.6,4.6v204.8h982.1V101.1C705.5,106.7,682,113.7,658.9,122z"/>
		</g>
		<g class="st13">
			<path class="st14" d="M735.9,273.1c-9.3,2.7-19.5,5.5-27.5,9.9c-1.8,1-4.8,2.6-4.5,4.5c0.5,3.2,6.6,5.6,10.1,7.2
				c7.4,3.4,20.6,8.2,17,15.7c-1.8,3.8-7.5,5.5-12.8,6.5c-8.1,1.4-16.6,2.4-24.8,3.5c-43,5.4-86.9,5.9-130.5,5.9H495
				c-9.9,0-19.9,0.2-29.8,0c-8.5-0.2-17-0.7-24.8-3.3c-0.2-0.1-0.4-0.3-0.3-0.5c0-0.2,0.2-0.3,0.3-0.3c24.1-9,53.4-9.8,80.3-10.5
				c8.8-0.2,17.7-0.4,26.5-0.6c10-0.3,20-1.1,30-1.7c11.3-0.7,22.5-1.4,33.8-2c10.3-0.6,20.7-1.6,31-2c7.9-0.3,16.7-0.3,24-2.8
				c2-0.6,3.8-1.5,5.5-2.6c1.9-1.3,1.3-2-1.2-2.5c-3.6-0.7-7.2-0.9-10.9-0.6c-7.8,0.4-15.4,1.6-23.1,2.2c-11.3,0.8-22.7,1.2-34,1.2
				c-22.8,0-45.5-1.1-68.3-1.2c-20.6-0.1-41.2,0.2-61.8,0.7c-11.6,0.8-23.2,1.9-34.6,3.8c-10.8,1.8-21.3,4.1-32.1,5.9
				c-10.3,1.7-20.8,3.2-31.3,4.1c-21,1.8-42.5,1.5-63.6,0.7c-16-0.6-31.9-1.9-47.7-4.1c-45.3-1.8-90.7-5-135.9-1.9
				c17.9,4.2,36.9,5.7,55.7,6.6c17.8,0.9,35.8,1.7,53.6,2c17.5,0.3,35.1-0.1,52.6,0.7c15.8,0.8,32.2,2.4,46.2,7.8
				c0.5,0.2,0.4,0.6,0,0.8c-10.1,5-24.3,5.8-36.4,6c-14.5,0.3-29.1-0.4-43.6-1.1c-18.5-0.9-37.1-0.7-55.7-0.9
				c-21.7-0.3-43.5-0.6-65.2-1.2c-22.9-0.7-45.7-2.2-68.5-4c-22.5-1.8-45-3.4-67.7-3.7s-45.2,0-67.7-0.4c-9.5-0.1-19.1-0.1-28.6-0.4
				c-7.1-0.2-14.6-0.8-20.2-4c-0.2-0.1-0.3-0.3-0.2-0.5c0-0.1,0.1-0.1,0.2-0.2c7.8-5.4,20.4-6.8,30.9-7.5c14.6-1,29.3-0.6,43.9-0.4
				c17.7,0.3,35.3,0.1,53,0.3c11.5,0.1,23.1,0.1,34.6,0c8.7-0.1,17.5-0.4,26.2-0.2c7.9,0.2,15.8,0.6,23.6,0.3
				c7.3-0.3,15.1-1.1,21.1-4.1C90.4,299,64.7,297,39.1,296s-51.1-1.4-76.6-2.7c-23.1-1.1-46-4-69.1-4.6c-10.8-0.3-21.7,0.5-32.4,0.8
				c-13.1,0.4-26.4,0.8-39.4-0.3c-6.9-0.6-17.6-1.5-20.7-6.6c-0.1-0.2,0-0.4,0.2-0.5c13.5-7.4,33.4-8,50-9.2
				c23.1-1.6,45.8-5.1,68.9-6.9c10-0.8,19.5-1.6,28.7-4.5c7.4-2.3,14.2-4.9,22.1-6.3s17.6-2.3,24-6c1-0.6,0.8-0.6-0.2-1.1
				c-0.7-0.4-1.3-0.8-2.1-1.1c-1.2-0.6-2.4-1-3.6-1.4c-2.9-0.9-5.8-1.4-8.8-1.8c-14-1.5-28.4,0.5-42.4,0.8
				c-12.1,0.3-25.3-0.2-34.3-6.4c-0.3-0.2-0.2-0.6,0.1-0.8c7.4-3.6,16.8-4.9,25.6-5.9c9.9-1.1,19.8-1.6,29.7-2.4
				c9.2-0.7,18.3-1.7,27.4-2.3c11-0.8,22.1-1.6,32.9-3.3c7.9-1.2,16-2.9,23-5.7c4.8-1.9,13.5-5.7,13-10.1c-0.1-0.7-0.3-1.3-0.7-1.8
				c-26.8-3.7-53.6-8.4-80.6-9.9c-29-1.7-57.2-4.2-86-7.8c-23.8-3-46.6-10.6-70.2-13.6c-22.4-2.8-45.9-7.6-68.5-8.1v6.3
				c4.6,0.3,9.2,0.6,13.8,1.1c43.5,4.2,85,14.5,127.2,22.4c10.5,2,21.1,3.8,31.8,5c10.1,1.2,20.1,1.7,30.3,2.1
				c16.6,0.5,34.8,1.2,49.3,7.4c0.4,0.2,0.5,0.6,0,0.8c-8.5,2.9-18.1,4-27.5,4.4c-17.9,0.7-35.8-0.7-53.6-0.7
				c-20.3,0-40.3,3.3-60,6.4c-11.1,1.8-22.2,3.9-33.4,5.3c-7.3,0.9-14.6,1.3-21.9,2.1c-7.8,0.8-16.1,1.8-23.2,4.4
				c-1.9,0.6-3.7,1.5-5.4,2.4c-1.4,0.9-1.5,0.9-0.2,1.9c1.6,1.2,3.4,2.3,5.3,3c10.7,4.2,24.3,4.9,36.3,5.3c13.4,0.4,26.9,0.1,40.4,0
				c11.9-0.1,23.6,0.8,35.5,1c14.4,0.3,31.6,0.2,44,5.8c0.3,0.2,0.4,0.4,0.2,0.6c-3.2,4.1-8.3,4.7-14.6,5.1
				c-5.8,0.4-11.5,1.5-17.3,2.2c-4.9,0.6-9.9,1.1-14.9,1.5c-11.2,0.9-22.5,1.6-33.8,2.2c-23,1.3-45.7,3.4-68.5,5.9
				c-13.3,1.4-26.5,2.8-39.9,3.6v161.4H765.1V265.3C755.3,267.8,745.5,270.3,735.9,273.1z"/>
		</g>
		<path class="st15" d="M262.9,205.5c-1.1,0-2.5,0-4,0.1c-2.8,0.1-5.3,0.4-5.9,1.1c-0.1,0.1-0.1,0.2,0.1,0.2
			c2.7,1.2,8.2,0.9,11.9,0.7c1.4-0.1,9-0.2,8.5-1.3S265,205.5,262.9,205.5z"/>
		<path class="st15" d="M307.9,201.1c-0.9-0.9-6.5-0.5-8.3-0.4c-0.8,0-2.5,0-4,0.1l-1.2,0.1c-0.8,0-3.3,0.5-2,0.9
			c1.9,0.4,3.8,0.6,5.7,0.5c2,0,3.9-0.1,5.8-0.2c1.1,0,2.3-0.2,3.4-0.4C307.8,201.5,308.1,201.3,307.9,201.1z"/>
		<path class="st15" d="M-2,238.6c-1.1,0-2.5,0-4,0.1c-2.8,0.1-5.3,0.4-5.9,1.1c-0.1,0.1-0.1,0.2,0.1,0.2c2.7,1.3,8.2,0.9,11.9,0.7
			c1.4-0.1,9-0.2,8.5-1.3S0.2,238.5-2,238.6z"/>
		<path class="st15" d="M43.4,242.1c-0.9-0.9-6.5-0.5-8.3-0.4c-0.8,0-2.5,0-4,0.1l-1.2,0.1c-0.8,0-3.3,0.5-1.9,0.9
			c1.9,0.4,3.8,0.6,5.7,0.5c2,0,3.9-0.1,5.8-0.2c1.1,0,2.3-0.2,3.4-0.4C43.3,242.4,43.6,242.3,43.4,242.1z"/>
		<path class="st15" d="M287.3,245.3c-0.7,0-1.8,0-2.8,0.1c-2,0.1-3.7,0.3-4.2,0.8c0,0.1,0,0.1,0.1,0.2c1.9,0.9,5.7,0.6,8.3,0.5
			c1,0,6.3-0.1,6-0.9S288.8,245.3,287.3,245.3z"/>
		<path class="st15" d="M318.9,247.7c-0.6-0.6-4.5-0.4-5.8-0.3c-0.5,0-1.8,0-2.8,0.1h-0.9c-0.5,0-2.3,0.3-1.4,0.6
			c1.3,0.3,2.7,0.4,4,0.3c1.3,0,2.7,0,4-0.2c0.8,0,1.6-0.1,2.4-0.3C318.9,248,319.1,247.9,318.9,247.7z"/>
		<path class="st15" d="M456,249.4c0,1.1-15.7,2.1-35,2.1s-35-0.9-35-2.1s15.7-2.1,35-2.1S456,248.2,456,249.4z"/>
		<path class="st16" d="M489.3,224.1c0,0,8.6-17.7,12.5-19.9s-6.2-3.4-12.5,11C489.3,215.3,486.8,222.9,489.3,224.1z"/>
		<path class="st16" d="M484.7,224.1c0,0,3.3-16.3,6.5-18.7S479.2,208.1,484.7,224.1z"/>
		<path class="st16" d="M482.8,224.1c0,0,0.2-13.5-6.6-15.6S480.1,217.3,482.8,224.1z"/>
		<path class="st16" d="M480.6,224.1c0,0-5.5-5.6-16-5.9S474.1,213.9,480.6,224.1z"/>
		<path class="st16" d="M479.7,224.1c-4-4-9.5-6.1-15.1-5.8C455.1,218.8,477.4,222.2,479.7,224.1z"/>
		<path class="st17" d="M-253.7,80.7c118.7,5,183.8,5.3,247,6.9c216.6,5.6,211.5-4.6,332,2.3c78.7,4.5,206.3-7.2,284.9-1.2
			c14.4,1.1,45.9,3.8,111.6,2.5c6.4-0.1,5.5,9.1,7,1.9c3.4-16.1,2.9-0.3,2.8,1.2c-0.3,8.4-3.1,2.8-2.5,6.8l-977.4,0.6L-253.7,80.7z"
			/>
		<path class="st18" d="M-274.3,9c-0.5-7.4-17.5-13.5-6.1-19.1c21.3-10.4,67.8-13.6,123.2-6.8C-54.2-4.3-10.2-24.3,88.4-9.1
			c17.7,2.7,31.6,4.8,58.3,3.3c34.4-1.9,9.8,5.6,87.3-4.3c17.7-2.3,35.7-1.4,53.1,2.5c37.8,8.5,82.3-1.2,117.1,2.5
			C419.6-3.5,524.8-16,533.5-16.9C725.7-37.3,723.7-0.5,723.4,1.5c0,0,10.5,1,21.1,1.4h0.1l-9.5,60.5h-968.3L-274.3,9z"/>
		<polygon class="st19" points="-249.2,35.7 -249.2,91.7 211.4,91.7 211.4,38.6 		"/>
		<rect x="-249.2" y="31.1" class="st20" width="460.6" height="8.7"/>
		<rect x="-249.2" y="26.7" class="st21" width="460.6" height="8.7"/>
		<rect x="15.3" y="50.5" class="st22" width="8.6" height="4.8"/>
		<rect x="19.6" y="56.5" class="st22" width="8.6" height="4.8"/>
		<rect x="101.8" y="52.9" class="st22" width="8.6" height="4.8"/>
		<rect x="106.1" y="58.9" class="st22" width="8.6" height="4.8"/>
		<rect x="52" y="63.2" class="st22" width="8.6" height="4.8"/>
		<rect x="56.3" y="69.2" class="st22" width="8.6" height="4.8"/>
		<rect x="184.2" y="52.9" class="st22" width="8.6" height="4.8"/>
		<rect x="188.5" y="58.9" class="st22" width="8.6" height="4.8"/>
		<polygon class="st19" points="731.2,34.2 731.2,91.2 204.1,89.2 204.1,37.1 		"/>
		<rect x="204.1" y="34.3" class="st23" width="527.1" height="4.9"/>
		<rect x="211.4" y="25.7" class="st21" width="519.8" height="9.7"/>
		<rect x="418.6" y="48.7" class="st24" width="9.9" height="4.7"/>
		<rect x="413.7" y="54.6" class="st24" width="9.9" height="4.7"/>
		<rect x="319.7" y="51.1" class="st24" width="9.9" height="4.7"/>
		<rect x="314.7" y="57" class="st24" width="9.9" height="4.7"/>
		<rect x="376.7" y="61.2" class="st24" width="9.9" height="4.7"/>
		<rect x="371.8" y="67.1" class="st24" width="9.9" height="4.7"/>
		<rect x="225.4" y="51.1" class="st24" width="9.9" height="4.7"/>
		<rect x="220.4" y="57" class="st24" width="9.9" height="4.7"/>
		<g class="st25">
			<path class="st26" d="M52.8,13.1h-6.3v-2.9c0.6-0.3,0.9-0.9,0.9-1.5c0-1-0.8-1.8-1.8-1.8c-1,0-1.8,0.8-1.8,1.8
				c0,0.6,0.4,1.2,0.9,1.5v2.9H-8.4v-2.9c0.6-0.3,0.9-0.9,0.9-1.5c0-1-0.8-1.8-1.8-1.8c-1,0-1.8,0.8-1.8,1.8c0,0.6,0.4,1.2,0.9,1.5
				v2.9h-53.1v-2.9c0.6-0.3,0.9-0.9,0.9-1.5c0-1-0.8-1.8-1.8-1.8c-1,0-1.8,0.8-1.8,1.8c0,0.6,0.4,1.2,0.9,1.5v2.9h-53.1v-2.9
				c0.6-0.3,0.9-0.9,0.9-1.5c0-1-0.8-1.8-1.8-1.8c-1,0-1.8,0.8-1.8,1.8c0,0.6,0.4,1.2,0.9,1.5v2.9h-53.1v-2.9
				c0.6-0.3,0.9-0.9,0.9-1.5c0-1-0.8-1.8-1.8-1.8c-1,0-1.8,0.8-1.8,1.8c0,0,0,0,0,0c0,0.6,0.4,1.2,0.9,1.5v2.9h-53.1v-2.9
				c0.6-0.3,0.9-0.9,0.9-1.5c0-1-0.8-1.8-1.8-1.8c-1,0-1.8,0.8-1.8,1.8c0,0.6,0.4,1.2,0.9,1.5v2.9H-283v-2.9
				c0.6-0.3,0.9-0.9,0.9-1.5c0-1-0.8-1.8-1.8-1.8c-1,0-1.8,0.8-1.8,1.8c0,0.6,0.4,1.2,0.9,1.5v2.9h-35.7v2.7h35.7v11.5h1.8V15.7
				h53.1v11.5h1.8V15.7h53.1v11.5h1.8V15.7h53.1v11.5h1.8V15.7h53.1v11.5h1.8V15.7h53.1v11.5h1.8V15.7h53.1v11.5h1.8V15.7h6.3V13.1z
				"/>
			<path class="st27" d="M-7.5,13.1h-0.9v-2.9c0.6-0.3,0.9-0.9,0.9-1.5c0-0.7-0.4-1.4-1.1-1.6c0.1,0.2,0.2,0.5,0.2,0.7
				c0,1-0.8,1.8-1.8,1.8c-0.3,0-0.5,0-0.8-0.1c0.3,0.6,1,1,1.7,1c0.1,0,0.2,0,0.4,0v16.8h0.6V15.7h53.1v-0.9H-7.5V13.1z"/>
		</g>
		<g class="st25">
			<path class="st26" d="M420.1,13.1h-6.3v-2.9c0.6-0.3,0.9-0.9,0.9-1.5c0-1-0.8-1.8-1.8-1.8c-1,0-1.8,0.8-1.8,1.8
				c0,0.6,0.4,1.2,0.9,1.5v2.9h-53.1v-2.9c0.6-0.3,0.9-0.9,0.9-1.5c0-1-0.8-1.8-1.8-1.8c-1,0-1.8,0.8-1.8,1.8c0,0.6,0.4,1.2,0.9,1.5
				v2.9h-53.1v-2.9c0.6-0.3,0.9-0.9,0.9-1.5c-0.1-1-1-1.8-2-1.7c-0.9,0.1-1.6,0.8-1.7,1.7c0,0.6,0.4,1.2,0.9,1.5v2.9H249v-2.9
				c0.6-0.3,0.9-0.9,0.9-1.5c0-1-0.8-1.8-1.8-1.8s-1.8,0.8-1.8,1.8c0,0.6,0.4,1.2,0.9,1.5v2.9h-53.1v-2.9c0.6-0.3,0.9-0.9,0.9-1.5
				c0-1-0.8-1.8-1.8-1.8s-1.8,0.8-1.8,1.8c0,0.6,0.4,1.2,0.9,1.5v2.9h-53.1v-2.9c0.6-0.3,0.9-0.9,0.9-1.5c0-1-0.8-1.8-1.8-1.8
				s-1.8,0.8-1.8,1.8c0,0.6,0.4,1.2,0.9,1.5v2.9H84.3v-2.9c0.6-0.3,0.9-0.9,0.9-1.5c0-1-0.8-1.8-1.8-1.8s-1.8,0.8-1.8,1.8
				c0,0.6,0.3,1.2,0.9,1.5v2.9H46.7v2.7h35.7v11.5h1.8V15.7h53.1v11.5h1.8V15.7h53.1v11.5h1.8V15.7h53.1v11.5h1.8V15.7h53.1v11.5
				h1.8V15.7H357v11.5h1.8V15.7H412v11.5h1.8V15.7h6.3L420.1,13.1z"/>
			<path class="st28" d="M191.9,8.8c0.8,0.7,2.2-0.6,1.4-1.4S191.1,8.1,191.9,8.8z"/>
			<path class="st28" d="M246.9,8.8c0.8,0.7,2.2-0.6,1.4-1.4S246.1,8.1,246.9,8.8z"/>
			<path class="st28" d="M301.8,8.8c0.8,0.7,2.2-0.6,1.4-1.3S301,8.1,301.8,8.8z"/>
			<path class="st28" d="M137,8.8c0.8,0.7,2.2-0.6,1.4-1.3S136.2,8.1,137,8.8z"/>
			<path class="st27" d="M85.2,13.1h-0.9v-2.9c0.6-0.3,0.9-0.9,0.9-1.5c0-0.7-0.4-1.4-1.1-1.6c0.1,0.2,0.2,0.5,0.2,0.7
				c0,1-0.8,1.8-1.8,1.8c-0.3,0-0.5-0.1-0.8-0.2c0.3,0.6,1,1,1.7,1c0.1,0,0.2,0,0.4,0v16.9h0.6V15.7h53.1v-0.9H85.2V13.1z"/>
			<path class="st27" d="M195,14.8v-1.8h-0.9v-2.9c0.8-0.5,1.2-1.5,0.7-2.4c-0.2-0.4-0.5-0.6-0.9-0.8c0.1,0.2,0.2,0.5,0.2,0.7
				c0,1-0.8,1.8-1.8,1.8c-0.3,0-0.5-0.1-0.8-0.2c0.3,0.6,1,1,1.7,1c0.1,0,0.2,0,0.4,0v16.8h0.6V15.7h53.1v-0.9H195z"/>
			<path class="st27" d="M249.9,14.8v-1.8H249v-2.9c0.6-0.3,0.9-0.9,0.9-1.5c0-0.7-0.4-1.3-1.1-1.6c0.1,0.2,0.2,0.5,0.2,0.7
				c0,1-0.8,1.8-1.8,1.8c-0.3,0-0.5-0.1-0.8-0.2c0.3,0.6,1,1,1.7,1c0.1,0,0.2,0,0.4,0v16.8h0.6V15.7h53.1v-0.9H249.9z"/>
			<path class="st27" d="M304.9,14.8v-1.8h-0.9v-2.9c0.6-0.3,0.9-0.9,0.9-1.5c0-0.7-0.4-1.4-1.1-1.6c0.1,0.2,0.2,0.5,0.2,0.7
				c0,1-0.8,1.8-1.8,1.8c-0.3,0-0.5-0.1-0.8-0.2c0.3,0.6,1,1,1.7,1c0.1,0,0.2,0,0.4,0v16.9h0.5V15.7H357v-0.9H304.9z"/>
			<path class="st27" d="M359.8,13.1h-0.9v-2.9c0.6-0.3,0.9-0.9,0.9-1.5c0-0.7-0.4-1.4-1.1-1.6c0.1,0.2,0.2,0.5,0.2,0.7
				c0,1-0.8,1.8-1.8,1.8c0,0,0,0,0,0c-0.3,0-0.5-0.1-0.8-0.2c0.3,0.6,1,1,1.7,1c0.1,0,0.2,0,0.4,0v16.8h0.5V15.7H412v-0.9h-52.2
				V13.1z"/>
			<path class="st27" d="M140.1,14.8v-1.8h-0.9v-2.9c0.6-0.3,0.9-0.9,0.9-1.5c0-0.7-0.4-1.4-1.1-1.6c0.1,0.2,0.2,0.5,0.2,0.7
				c0,1-0.8,1.8-1.8,1.8c-0.3,0-0.5-0.1-0.8-0.2c0.3,0.6,1,1,1.7,1c0.1,0,0.2,0,0.4,0v16.9h0.5V15.7h53.1v-0.9H140.1z"/>
		</g>
		<g class="st25">
			<path class="st26" d="M787.4,13.1h-6.3v-2.9c0.6-0.3,0.9-0.9,0.9-1.5c0-1-0.8-1.8-1.8-1.8c-1,0-1.8,0.8-1.8,1.8
				c0,0.6,0.3,1.2,0.9,1.5v2.9h-53.1v-2.9c0.6-0.3,0.9-0.9,0.9-1.5c0-1-0.8-1.8-1.8-1.8c-1,0-1.8,0.8-1.8,1.8c0,0.6,0.4,1.2,0.9,1.5
				v2.9h-53.1v-2.9c0.6-0.3,0.9-0.9,0.9-1.5c0-1-0.8-1.8-1.8-1.8c-1,0-1.8,0.8-1.8,1.8c0,0.6,0.4,1.2,0.9,1.5v2.9h-53.1v-2.9
				c0.6-0.3,0.9-0.9,0.9-1.5c0-1-0.8-1.8-1.8-1.8c-1,0-1.8,0.8-1.8,1.8c0,0.6,0.4,1.2,0.9,1.5v2.9h-53.1v-2.9
				c0.6-0.3,0.9-0.9,0.9-1.5c0-1-0.8-1.8-1.8-1.8c-1,0-1.8,0.8-1.8,1.8c0,0.6,0.4,1.2,0.9,1.5v2.9h-53.1v-2.9
				c0.6-0.3,0.9-0.9,0.9-1.5c-0.1-1-1-1.8-2-1.7c-0.9,0.1-1.6,0.8-1.7,1.7c0,0.6,0.4,1.2,0.9,1.5v2.9h-53.1v-2.9
				c0.6-0.3,0.9-0.9,0.9-1.5c0-1-0.8-1.8-1.8-1.8c-1,0-1.8,0.8-1.8,1.8c0,0.6,0.4,1.2,0.9,1.5v2.9H414v2.7h35.7v11.5h1.8V15.7h53.1
				v11.5h1.8V15.7h53.1v11.5h1.8V15.7h53.1v11.5h1.8V15.7h53.1v11.5h1.8V15.7h53.1v11.5h1.8V15.7h53.1v11.5h1.8V15.7h6.3L787.4,13.1
				z"/>
			<path class="st27" d="M452.4,13.1h-0.9v-2.9c0.6-0.3,0.9-0.9,0.9-1.5c0-0.7-0.4-1.4-1.1-1.6c0.1,0.2,0.2,0.5,0.2,0.7
				c0,1-0.8,1.8-1.8,1.8c-0.3,0-0.5-0.1-0.8-0.2c0.3,0.6,1,1,1.7,1c0.1,0,0.2,0,0.4,0v16.9h0.5V15.7h53.1v-0.9h-52.2V13.1z"/>
		</g>
		<rect x="205.8" y="22.6" class="st20" width="2.6" height="11.5"/>
		<ellipse class="st29" cx="206.9" cy="14.2" rx="7.4" ry="11.3"/>
		<rect x="436.8" y="21.9" class="st20" width="2.6" height="11.5"/>
		<ellipse class="st29" cx="437.9" cy="13.5" rx="7.4" ry="11.3"/>
		<path class="st18" d="M74.6,99.3h127.7c0.4-1.1,0.1-2.4-0.8-3.2c-3.2-3.6-11.4-3.1-11.4-3.1s8.1-4.3,3.1-7.1s-12-0.4-12-0.4
			s6.8-5.4-0.7-8.2c-0.3-0.1-0.6-0.2-0.9-0.3c-3.8-1.2-7.8-0.8-11.3,1c0,0-1.2-3-5.4-3.6c-2.7-0.5-5.4,0.1-7.6,1.7
			c0,0-2.2-4.1-9.7-3.8c-10.4,0.3-11,4.5-11,4.5c-2.2-1.9-5-2.9-7.9-2.8c-3.8,0.4-3.8,3.7-3.8,3.7s-3.9-5.3-16.4-3.7h-0.3
			c-12.7,1.7-9.2,7.9-9.2,7.9s-5.7-1.8-10-0.5c-0.7,0.2-1.3,0.5-1.9,0.9c-4.1,2.7,0.4,6,0.6,6.2c-0.3,0-7.7-0.9-10.7,2.8
			C72.5,94.4,73,97.2,74.6,99.3z"/>
		<path class="st18" d="M286,100.1h324.7V82.3c-5.6-3.3-23.9-5.3-34.4-2.9c0,0,3.3-6.4-20.5-9.4s-40.8,2-40.8,2s-7.8-7.7-37.3-3.7
			c-9.5-4.5-33.8-4-36.3,1.7c0,0-18.3-7.1-46.3-5.4s-28.4,8.7-28.4,8.7s-0.8-0.2-2.2-0.4c-5.8-0.9-22.8-2.3-38.3,0.8
			c-17.8,3.5-17.4,7-15.9,9.7c0.4,0.6,0.8,1.3,1.3,1.9c0,0-18.9-0.6-28.7,6.5C278,95.3,281.5,98.2,286,100.1z"/>
		<path class="st30" d="M435.8,278.3c0,0,15.9-2.4,15.4-9.1S435.8,278.3,435.8,278.3z"/>
		<path class="st30" d="M432.8,281c0,0,8.8-16.7,15.4-21s-11.5-4.6-15.4,12.9V281z"/>
		<path class="st30" d="M432.1,278.8c0,0,4.5-13-12.1-13.7C412.5,264.8,432.1,278.8,432.1,278.8z"/>
		<path class="st16" d="M88.1,219.4c0,0,7.4-5.1,21.7-6.3s-15.4-6.6-26,6.3C83.8,219.4,79.1,225.1,88.1,219.4z"/>
		<path class="st16" d="M67.9,220.1c0,0,21.7-16.2,34.5-20.5s-12.2-4.7-29.2,8.8C73.2,208.4,64.7,216.5,67.9,220.1z"/>
		<path class="st16" d="M61.6,220.1c0,0,14.4-26.3,21-29.6s-10.4-5.1-21,16.4C61.6,207,57.3,218.3,61.6,220.1z"/>
		<path class="st16" d="M53.9,220.1c0,0,5.6-24.1,10.9-27.8S44.6,196.3,53.9,220.1z"/>
		<path class="st16" d="M50.7,220.1c0,0,0.3-20.1-11.1-23.2S46.2,210,50.7,220.1z"/>
		<path class="st16" d="M47,220.1c0,0-7.2-23-24.7-23.6S36.1,205,47,220.1z"/>
		<path class="st16" d="M45.5,220.1c-7-6.1-16-9.2-25.3-8.6C4.3,212.2,41.6,217.2,45.5,220.1z"/>
		<path class="st16" d="M41.3,127.4c0,0,5.7-3.9,16.7-4.8s-11.8-5.1-19.9,4.8C38.1,127.4,34.5,131.8,41.3,127.4z"/>
		<path class="st16" d="M25.9,127.9c0,0,16.6-12.4,26.4-15.7s-9.3-3.6-22.3,6.8C30,118.9,23.5,125.2,25.9,127.9z"/>
		<path class="st16" d="M21,127.9c0,0,11.1-20.2,16.1-22.6s-8-3.9-16.1,12.6C21,117.8,17.8,126.5,21,127.9z"/>
		<path class="st16" d="M15.2,127.9c0,0,4.3-18.5,8.3-21.3S8.1,109.7,15.2,127.9z"/>
		<path class="st16" d="M12.7,127.9c0,0,0.2-15.4-8.5-17.8S9.3,120.2,12.7,127.9z"/>
		<path class="st16" d="M9.9,127.9c0,0-5.5-17.7-18.9-18.1S1.5,116.3,9.9,127.9z"/>
		<path class="st16" d="M8.7,127.9c-5.3-4.7-12.3-7-19.4-6.6C-22.8,121.8,5.8,125.7,8.7,127.9z"/>
		<path class="st30" d="M427.5,132c0,0,5.3-3.6,15.5-4.5s-10.9-4.7-18.5,4.5C424.5,132,421.1,136.1,427.5,132z"/>
		<path class="st30" d="M413.2,132.6c0,0,15.4-11.6,24.5-14.6s-8.7-3.3-20.7,6.3C416.9,124.2,410.9,130,413.2,132.6z"/>
		<path class="st30" d="M408.6,132.6c0,0,10.3-18.7,14.9-21s-7.4-3.6-14.9,11.7C408.6,123.2,405.6,131.3,408.6,132.6z"/>
		<path class="st30" d="M403.2,132.6c0,0,4-17.2,7.7-19.7S396.6,115.7,403.2,132.6z"/>
		<path class="st30" d="M400.9,132.6c0,0,0.2-14.3-7.9-16.5S397.7,125.4,400.9,132.6z"/>
		<path class="st30" d="M398.3,132.6c0,0-5.1-16.4-17.5-16.8S390.6,121.8,398.3,132.6z"/>
		<path class="st30" d="M397.2,132.6c-5-4.3-11.4-6.5-18-6.2C368,126.9,394.5,130.5,397.2,132.6z"/>
		<ellipse class="st31" cx="84.1" cy="224.4" rx="39.1" ry="7.4"/>
		<ellipse class="st31" cx="19.3" cy="180.7" rx="16.8" ry="3.7"/>
		<ellipse class="st31" cx="320" cy="414.5" rx="8.9" ry="9"/>
		<polygon class="st32" points="235.5,299.2 172.9,331.5 120.4,302.7 188.4,275.6 		"/>
		<polygon class="st32" points="187.9,275.3 235.2,298.8 298.1,266.5 252.8,245.4 		"/>
		<polygon class="st32" points="249.1,244.6 296.4,266.4 356.2,235 313.1,214.6 		"/>
		<polygon class="st32" points="235.2,298.8 296.4,266.4 345.3,288.8 284.8,325.1 		"/>
		<polygon class="st32" points="180.3,325.1 113.9,354.8 192.6,405.8 258.5,369.2 		"/>
		<polyline class="st32" points="68.3,325.1 5.7,287.6 69.8,262.8 131.9,297 65.7,323.4 		"/>
		<polygon class="st32" points="187.6,329.1 120.4,358.7 64.1,322.4 128.9,295.2 		"/>
		<polygon class="st32" points="187.9,275.3 255.9,246.9 195.2,221.4 131.8,245.4 		"/>
		<text transform="matrix(-0.4397 -0.7274 0.8558 -0.5173 319.9902 237.1393)" class="st33 st34 st35">1</text>
		<text transform="matrix(-0.3119 -0.453 0.8236 -0.5671 260.5505 268.391)" class="st33 st34 st36">2</text>
		<text transform="matrix(-0.2155 -0.313 0.8236 -0.5671 298.1101 288.0208)" class="st33 st34 st37">3</text>
		<path class="st33" d="M201.2,239.2c-2.8,1.4-4.2,2.1-6.9,3.6c1,1.5,1.5,2.3,2.5,3.8c-0.9,0.5-1.3,0.7-2.1,1.2
			c-5.8,1.6-11.4,3.8-16.7,6.5l-0.9-1.1c4.4-3.7,9.1-7,14-9.9c-0.3-0.4-0.5-0.7-0.8-1.1c1-0.6,1.6-0.9,2.6-1.6l0.8,1.1
			c2.7-1.6,4.1-2.3,6.9-3.7L201.2,239.2z M191.7,244.4c-3.2,1.9-4.8,3-7.7,5.1c-1.2,0.8-2.3,1.7-3.4,2.5l0,0
			c1.4-0.7,2.5-1.2,3.7-1.8c3.6-1.4,5.4-2.1,9.2-3.2l0.1-0.1C192.8,246,192.4,245.4,191.7,244.4z"/>
		<text transform="matrix(-0.1966 -0.3252 0.8558 -0.5173 203.1501 364.4507)" class="st33 st34 st37">6</text>
		<text transform="matrix(-0.2304 -0.3006 0.7915 -0.6112 131.779 321.9198)" class="st33 st34 st38">7</text>
		<text transform="matrix(-0.2604 -0.5516 0.9043 -0.4269 79.5201 290.4409)" class="st33 st34 st39">8</text>
		<text transform="matrix(-0.2189 -0.3582 0.8557 -0.5174 194.0099 296.6504)" class="st33 st34 st40">5</text>
		<path class="st41" d="M284.1,103.3c0,0-3,6.2,0.7,7.2s2.5-5.8,2.5-5.8s-1,5.8-2.1,2.2L284.1,103.3z"/>
		<path class="st42" d="M272.8,131.1l23.4,17.6l20.2,16.1c0,0,2,1.3,3.6-2.5s4.7-3.7,4.7-3.7h7.9c0,0,1.8,0.1,1.2,1
			s-6.7,4.8-7.3,5.2s-2,7.8-4.3,8.1s-10.2-0.4-15.7-4s-28.9-15.1-28.9-15.1s-8.4-6.2-8.5-12.2S270,130.9,272.8,131.1z"/>
		<path class="st43" d="M288.3,87.3c-2.4,18.4,8.6,27.7-6.3,40.7c-5.8,5.1-18.8,5.1-24.6,4.4c-12.3-1.6-11.1-25.9-8.9-43.5
			S258,48,270.3,49.6S290.7,68,288.3,87.3z"/>
		<path class="st43" d="M252.6,114.6c0.5,6.3-3.2,20.9-13.2,19.7s-23.4-5.4-21.7-18.7c0.5-3.7,3-11.6,1.7-18.4
			c-2.1-11.2,8.6-15.3,15.8-14.4C245.1,84,251.5,101.2,252.6,114.6z"/>
		<path class="st42" d="M256.8,129.6c-1.6,2.3-8.1,4.9-11.1,5.1c-2.6,0.2-2-1.7-3.6-3.6c-0.8-0.9-1.4-2.1-1.6-3.3
			c-0.3-2.8,5.9-4.4,10-4.8s6.9,1.3,7.2,4.1C257.7,128,257.4,128.9,256.8,129.6z"/>
		<path class="st44" d="M256.5,129.4c-4.5,2.1-9.6,2.5-14.4,1.3c-0.8-0.9-1.4-2.1-1.6-3.3c-0.3-2.8,5.6-4.3,9.8-4.6s6.7,0.8,6.9,3.6
			C257.3,127.5,257,128.5,256.5,129.4z"/>
		<path class="st45" d="M225.3,106.3c-1.5,0.7-5.4,0-8-3.1c-8.3-9.7-2.8-13.8-0.2-13.7c1.1,0.1,7,1,8.3,7"/>
		<path class="st46" d="M225.3,106.3c-0.7,0.3-1.6,0.4-2.4,0.3c-0.8-0.1-1.6-0.3-2.4-0.6c-1.5-0.6-2.8-1.6-3.9-2.9
			c-1-1.2-1.9-2.5-2.7-3.9c-0.8-1.4-1.3-3-1.4-4.7c-0.1-1.7,0.6-3.4,2-4.5c0.7-0.5,1.5-0.9,2.4-0.9c0.8,0,1.6,0.2,2.4,0.5
			c1.6,0.5,3,1.4,4.1,2.6c1.1,1.2,1.8,2.7,2,4.3c-0.4-1.5-1.1-2.9-2.3-4.1c-1.1-1.1-2.5-1.9-4-2.3c-0.7-0.2-1.5-0.3-2.2-0.3
			c-0.7,0-1.4,0.3-2,0.8c-1.2,0.9-1.8,2.4-1.7,3.9c0.1,1.5,0.6,3,1.4,4.3c0.8,1.4,1.6,2.7,2.6,3.9c1,1.2,2.2,2.2,3.5,2.9
			c0.7,0.3,1.4,0.6,2.2,0.8C223.8,106.5,224.5,106.5,225.3,106.3z"/>
		<path class="st47" d="M223.2,98.8c0,0-0.7-6.2-5.7-6.5s-0.7,9.7,4.2,11.5c0,0,1.8,0.4-0.3-3S223.2,98.8,223.2,98.8z"/>
		<path class="st48" d="M222.4,104.4c0,0,3.4,5.5,0.4,6.9s-2.6-5.1-2.6-5.5l0,0c0.1,0.3,1.4,4.6,1.8,1.7L222.4,104.4z"/>
		<path class="st42" d="M272.7,104.5c-2,8.8-6.8,15.9-14.5,20.3c-4.9,2.9-10.5,4.4-16.2,4.5c-3.5,0-6.1-2.3-10.2-5.3
			c-5.9-4.1-11.8-11.3-11.7-27.3c0-9.3-4.2-15.3,0.1-22.8c5.5-9.6,20.6-18.5,29.5-17.3C265.7,58.5,276.5,88.1,272.7,104.5z"/>
		<path class="st44" d="M269.7,100c2.1-6.4-0.4-13.4-6.1-17c-9.8-6.8-6.5-14.1-6.5-14.1s-6.1,8.7-15.4,7.3l1.2-2.4
			c0,0-7,5.2-15.8,3.4c0,0,3.3-2.9,3.7-5.8c0,0-12.6,7.3-12.8,18.9c0,0-4.5-8.7,2.2-18.1s23.1-15.8,38.6-10S279,87,279,87L269.7,100
			z"/>
		<path class="st43" d="M258.8,63.5c0,0-3.1,10.4-15.6,11.8c0,0,3.4-4.3,3.9-7.9c0,0-3.4,9-18.7,9c0,0,4.4-3,3.7-7.4
			c-3.4,2-6.6,4.5-9.4,7.3c-5.3,5.4-3,11.7-2.9,16.7c0,0-10-9.6-8.7-22.1s9-22.1,31-27.3s38.6,8.2,43.3,18.6s1,28.4,1,28.4
			L270.1,101c0,0,2.6-10-4.2-17.2C258.7,76.2,257.1,76.4,258.8,63.5z"/>
		<path class="st43" d="M250.3,82.6L250.3,82.6c0.4,1.3,1.7,2.2,3.1,2.3c1.9,0.1,4.4,0.4,6.2,1.9C259.5,86.8,259.8,82.8,250.3,82.6z
			"/>
		<path class="st43" d="M231.2,81.8L231.2,81.8c-0.2,1.4-1.2,2.5-2.6,2.7c-1.9,0.3-4.4,1-6,2.7C222.6,87.1,221.8,83.2,231.2,81.8z"
			/>
		<path class="st45" d="M236.7,97.4c0.4,2.1-0.1,4.2-1.4,5.9c-2.1,2.5,1.3,6.3,5.8,3.1"/>
		<path class="st49" d="M236.7,97.4c0.4,1.3,0.4,2.8,0,4.1c-0.2,0.7-0.6,1.3-1,1.9c-0.4,0.4-0.6,1-0.6,1.6c0.1,1.2,1.1,2.2,2.3,2.4
			c1.3,0.1,2.6-0.2,3.8-0.9c-1,1-2.4,1.5-3.8,1.5c-0.7-0.1-1.4-0.4-2-0.9c-0.6-0.5-0.9-1.3-0.9-2.1c0-0.8,0.3-1.5,0.8-2.1
			c0.4-0.5,0.8-1.1,1-1.7C236.6,100,236.8,98.7,236.7,97.4z"/>
		<path class="st50" d="M213,63.1c0,0,15.4-22.3,46.9-11.5c0,0,22.1,8.2,19.9,40.2c0,0,1.8,1.4,2.2-1.3c0,0,2.8-29.6-19.8-39.7
			C240.1,40.9,216.8,52.9,213,63.1"/>
		<path class="st45" d="M271.8,107.3c1.5,0.6,5.4-0.5,7.8-3.7c7.5-10.3,1.7-14-0.9-13.7c-1.1,0.1-6.9,1.5-7.7,7.6"/>
		<path class="st46" d="M271.8,107.3c0.8,0.1,1.6,0.1,2.3-0.2c0.7-0.2,1.5-0.5,2.1-0.9c1.3-0.8,2.4-1.9,3.3-3.2
			c0.9-1.3,1.7-2.6,2.3-4c0.7-1.4,1-2.9,1-4.4c0-1.5-0.7-3-1.9-3.8c-0.6-0.4-1.3-0.6-2-0.6c-0.8,0.1-1.5,0.2-2.2,0.5
			c-1.5,0.5-2.8,1.4-3.8,2.6c-1,1.2-1.7,2.6-2,4.2c0.1-1.6,0.7-3.2,1.7-4.5c1-1.3,2.3-2.3,3.9-2.9c0.8-0.3,1.6-0.5,2.4-0.7
			c0.9,0,1.7,0.2,2.4,0.7c1.4,1,2.3,2.6,2.3,4.3c0,1.6-0.4,3.3-1.1,4.8c-0.7,1.5-1.5,2.8-2.5,4.1c-0.9,1.4-2.2,2.5-3.6,3.2
			c-0.7,0.4-1.5,0.6-2.3,0.8C273.4,107.6,272.6,107.5,271.8,107.3z"/>
		<path class="st47" d="M273.3,99.6c0,0,0.2-6.3,5.2-6.9s1.4,9.6-3.3,11.8c0,0-1.8,0.6,0.1-3S273.3,99.6,273.3,99.6z"/>
		<path class="st48" d="M274.5,105.2c0,0-3,5.8,0.1,6.9s2.2-5.3,2.1-5.7l0,0c-0.1,0.3-1,4.7-1.6,1.8L274.5,105.2z"/>
		<ellipse class="st51" cx="251.9" cy="96.3" rx="5.7" ry="6.3"/>
		<ellipse class="st52" cx="252.2" cy="96.4" rx="3.4" ry="3.8"/>
		<ellipse transform="matrix(0.1862 -0.9825 0.9825 0.1862 113.6047 326.109)" class="st33" cx="253.7" cy="94.5" rx="1" ry="0.8"/>
		<ellipse class="st51" cx="228.7" cy="96.5" rx="5.4" ry="6.2"/>
		<ellipse class="st52" cx="229.1" cy="96.9" rx="3.3" ry="3.7"/>
		
			<ellipse transform="matrix(0.1188 -0.9929 0.9929 0.1188 108.8471 312.3052)" class="st33" cx="230.4" cy="94.8" rx="1" ry="0.7"/>
		<path class="st53" d="M252.5,111.7c-0.1,0.2-1.5,1.2-1.7,1.5c-1.1,1.5-3.4,5.1-6.5,6.1c-2.2,0.8-4.7,0.8-6.9,0
			c-2.9-1-3.2-3.4-4.9-6.1c-0.4-0.6-2.4-1.6-2.1-1.6c3.9,1.3,8,2,12.1,1.9c2.9,0,5.8-0.4,8.6-1.2c0.1,0,0.2,0,0.3,0.1
			C251.3,112.4,252.5,111.7,252.5,111.7z"/>
		<path class="st54" d="M251.3,112.4c-1,1.7-2.7,6.6-5.8,7.6c-2.1,0.7-6.4,0.9-8.4-0.4c-3-1.8-4.5-5.9-4.9-6.9
			c1.9,1.6,2.5,5.6,8.6,6C248.2,119.3,250.2,113.7,251.3,112.4z"/>
		<path class="st55" d="M252.5,111.9c-4,1.6-8.2,2.3-12.5,2.2c-5.9-0.3-8.7-2-9.8-2.6c0.6,0.9-0.2,0,0,0c3.8,0.9,7.8,1.4,11.8,1.2
			c3.5,0,7-0.4,10.5-1.1C252.6,111.7,252.4,111.8,252.5,111.9z"/>
		<path class="st56" d="M233,112.8c0.1,0,7.1,2.5,16.6,0.1c0,0-2,2.8-7.7,3C235.4,116.1,233,112.8,233,112.8z"/>
		<path class="st57" d="M241.1,118.7c-1.3,0-2.7-0.4-3.9-0.9c1.1-0.8,2.6-1,3.9-0.6c0,0,0.1,0.1,0.1,0c1.3-0.2,2.7,0.1,3.8,1
			C243.8,118.7,242.4,118.9,241.1,118.7z"/>
		<path class="st47" d="M230.7,110.3c0,0-1.8,0.9-0.6,2.3"/>
		<path class="st47" d="M252,110.5c0,0,2.4,0.2,1.4,2.2C253.3,112.7,253.6,111.4,252,110.5z"/>
		<path class="st42" d="M233.4,132c0,0-21.9,20.7-22.8,22.2s-17.4,17.4-17.4,17.4s-2.2,2.1-4.1,0c-1.3-1.4-2.7-2.7-4.3-3.9l-9.1,1.2
			c0.4,1.9,2,3.3,3.9,3.6l2,0.4c0,0,5.7,5.4,7.5,6.7s4.8,2.9,10.3-1.5s32.2-25.9,32.2-25.9L233.4,132z"/>
		<path class="st58" d="M241.5,131.1h-8.1c0,0-2.3,21.5-1.8,26s1.2,20.4-0.1,24s-10.6,20.8-22.6,27c-3.4,10.6,8.6,18.1,14.9,12.8
			s12.4,1.9,14.9,7.4s8.4,0.6,12.1-3.6s13-2.3,17.1-0.9c1,0.4,2.1,0.4,3.1,0.2c3.1-0.8,6.1-4.2,8.3-9.9c3-7.6,11.4-5.6,16.6-5.1
			s11.9-9.1,12.2-14.9c0,0-16.9,0.1-23.5-15.9s-8.1-25.3-8.1-25.3s-10.8-7.6-6.1-20.3c1-0.7,2-1.2,3.1-1.5l-15.7-3.7
			c0,0-1.8,6.1-12.1,7.3C245.7,134.7,244.5,135.3,241.5,131.1z"/>
		<path class="st42" d="M271.5,224c0,0,3.3,16.9,17.7,6.7c8.2-7.9,8.6-10,8.6-10c1.1,2,1.4,4.4,1,6.6c1.6,1.8,2.8,2.4,3.5-5.3
			c0.8-8.1,1.3-11.9-4.8-10.1c-6.1,3.6-10.4,6.7-10.4,6.7s-2.9,3-2.3-4.8v-4.8C284.7,208.9,270.9,213.7,271.5,224z"/>
		<path class="st59" d="M299,229.8c0,0-1.7,1.5-0.4,4.2s6.4,5.3,7.5-6.3s-0.1-15.9-4-16.1c2.4,4.9-0.9,15.7-1.2,17
			C300.2,231,300,231.4,299,229.8z"/>
		<path class="st60" d="M297.8,220.7c0,0-1.7,10.6-0.4,13.3s6.4,5.3,7.5-6.3s-0.1-15.9-4-16.1c2.4,4.9-0.9,15.7-1.2,17
			C299,231,298.8,222.4,297.8,220.7z"/>
		<path class="st42" d="M257.9,222c0,0-4.6,39.2-7,41.8s-8.6,6.4-15.2,5.4s4.8-7,4.8-7l1.3-31.6C241.7,230.6,254.6,218.9,257.9,222z
			"/>
		<path class="st59" d="M252.6,263.1c0,0-9.2,8.9-16.4,7.3c-3.7-3.2,2.8-8.6,2.8-8.6l1.6-1.2c0,0-10.7,6.6-10.7,9.7
			c0,3.6,4.1,7.6,14.5,2.4C251.3,270.2,256.4,264.3,252.6,263.1z"/>
		<path class="st60" d="M251.8,261.9c0,0-8.9,9-15.8,7.4c-3.5-3.2,4.4-7,4.4-7l-0.2-2.7c0,0-10.3,6.6-10.3,9.7
			c0,3.6,3.9,7.6,13.9,2.4C250.6,269,255.4,263.1,251.8,261.9z"/>
		<path class="st61" d="M258.3,153.1c0,0.2-0.1,0.4-0.2,0.6c-0.2,0.5-0.6,1-1.1,1.3c-0.7,0.5-3,0.7-3.6-0.2c0.6,1,1.2,1.5,0.9,2.8
			c-0.1,0.4-0.3,0.8-0.5,1.2c-0.1,0.2-0.3,0.4-0.4,0.5c-0.3,0.3-0.6,0.6-1,0.8c-0.2,0.2-0.5,0.3-0.8,0.4c-0.2,0.1-0.4,0.1-0.6,0.1
			c-2.1,0.1-3.9-1.6-4-3.7c0-0.1,0-0.3,0-0.4c0,0.4-1.2,1.3-1.6,1.5c-0.8,0.4-1.8,0.6-2.8,0.5c-0.3,0-0.6-0.1-0.8-0.2
			c-0.2-0.1-0.4-0.2-0.6-0.3c-0.6-0.4-0.9-1-1.1-1.7l0,0c0-0.1-0.1-0.3-0.1-0.4s0-0.1,0-0.2c-0.2-1.8,1.1-3.5,2.9-3.7
			c0.2,0,0.5,0,0.7,0c-1.4-1-2.6-2.3-2.4-3.6c0-0.2,0.1-0.4,0.2-0.6c0.3-0.5,0.6-0.9,1.1-1.2c0.2-0.1,0.4-0.2,0.6-0.3
			c0.2-0.1,0.5-0.2,0.7-0.2c1.4-0.2,2.7,0.5,3.3,1.7c-0.3-1.5,0.3-3,1.5-3.9c0.5-0.3,1-0.5,1.6-0.5c0.3,0,0.5,0,0.8,0l0,0
			c0.7,0.1,1.3,0.3,1.9,0.6c0.2,0.1,0.3,0.2,0.5,0.4c0.1,0.1,0.2,0.1,0.2,0.2c1.6,1.9,0.1,4.2-1.2,5.8c1.7-1.1,4-0.7,5.1,1
			c0.1,0.2,0.2,0.4,0.3,0.6v0.1C258.3,152.3,258.3,152.7,258.3,153.1z"/>
		<path class="st62" d="M251.6,154.3c1.3-1.3,1.2-3.4-0.1-4.7c-0.2-0.2-0.4-0.3-0.6-0.4c-1.7-1.1-3.9-0.6-5,1.1
			c-0.1,0.1-0.2,0.3-0.2,0.4c-0.9,1.7-0.3,3.7,1.4,4.7c0.1,0.1,0.2,0.1,0.3,0.2C248.9,156.1,250.6,155.6,251.6,154.3z"/>
		<path class="st63" d="M251.2,154c1.1-1.1,1-2.9-0.1-4c-0.1-0.1-0.3-0.3-0.5-0.4c-1.4-0.9-3.3-0.5-4.2,0.9
			c-0.1,0.1-0.1,0.2-0.2,0.3c-0.8,1.4-0.3,3.2,1.2,4c0.1,0,0.2,0.1,0.3,0.1C248.9,155.5,250.3,155.1,251.2,154z"/>
		<path class="st64" d="M237.7,202.1c0,0.1-0.1,0.2-0.1,0.3c-0.1,0.2-0.3,0.4-0.5,0.6c-0.3,0.2-1.4,0.3-1.6-0.1
			c0.3,0.5,0.6,0.7,0.4,1.3c0,0.2-0.1,0.4-0.2,0.6c-0.1,0.1-0.1,0.2-0.2,0.3c-0.1,0.1-0.3,0.3-0.5,0.4c-0.1,0.1-0.2,0.1-0.4,0.2
			l-0.3,0.1c-1,0-1.8-0.7-1.8-1.7c0-0.1,0-0.1,0-0.2c0,0.2-0.6,0.6-0.7,0.7c-0.4,0.2-0.8,0.3-1.3,0.2c-0.1,0-0.3-0.1-0.4-0.1
			c-0.1,0-0.2-0.1-0.3-0.2c-0.3-0.2-0.4-0.5-0.5-0.8l0,0v-0.2c0,0,0-0.1,0-0.1c-0.1-0.8,0.5-1.6,1.3-1.7c0.1,0,0.2,0,0.3,0
			c-0.6-0.5-1.2-1.1-1.1-1.6c0-0.1,0.1-0.2,0.1-0.3c0.1-0.2,0.3-0.4,0.5-0.5c0.1-0.1,0.2-0.1,0.3-0.2c0.1,0,0.2-0.1,0.3-0.1
			c0.6-0.1,1.2,0.2,1.5,0.8c-0.1-0.7,0.1-1.4,0.7-1.8c0.2-0.1,0.5-0.2,0.7-0.2h0.4c0.3,0,0.6,0.1,0.9,0.3c0.1,0,0.2,0.1,0.2,0.2
			c0,0,0.1,0.1,0.1,0.1c0.8,0.9,0.1,1.9-0.5,2.6c0.8-0.5,1.8-0.3,2.4,0.5c0.1,0.1,0.1,0.2,0.1,0.3c0,0,0,0,0,0.1
			C237.8,201.7,237.8,201.9,237.7,202.1z"/>
		<path class="st63" d="M234.8,202.8c0.5-0.5,0.5-1.2,0.1-1.7c-0.1-0.1-0.2-0.2-0.4-0.3c-0.8-0.5-1.8-0.2-2.3,0.6
			c-0.4,0.6-0.1,1.4,0.5,1.8c0.1,0.1,0.2,0.1,0.3,0.1C233.6,203.5,234.3,203.3,234.8,202.8z"/>
		<path class="st64" d="M266.8,190.6c0,0.1,0,0.2-0.1,0.3c-0.1,0.2-0.3,0.4-0.5,0.6c-0.3,0.2-1.4,0.3-1.6-0.1
			c0.3,0.5,0.6,0.7,0.4,1.3c0,0.2-0.1,0.4-0.2,0.6c-0.1,0.1-0.1,0.2-0.2,0.3c-0.1,0.1-0.3,0.3-0.5,0.4c-0.1,0.1-0.2,0.1-0.4,0.2
			l-0.3,0.1c-1,0-1.8-0.8-1.8-1.7c0-0.1,0-0.1,0-0.2c0,0.2-0.6,0.6-0.7,0.7c-0.4,0.2-0.8,0.3-1.3,0.2c-0.1,0-0.2-0.1-0.4-0.1
			c-0.1,0-0.2-0.1-0.3-0.2c-0.3-0.2-0.4-0.5-0.5-0.8l0,0c0-0.1,0-0.1,0-0.2c0,0,0-0.1,0-0.1c-0.1-0.8,0.5-1.6,1.4-1.7
			c0.1,0,0.2,0,0.3,0c-0.6-0.5-1.2-1-1.1-1.6c0-0.1,0-0.2,0.1-0.3c0.1-0.2,0.3-0.4,0.5-0.5c0.1-0.1,0.2-0.1,0.3-0.2
			c0.1,0,0.2-0.1,0.3-0.1c0.6-0.1,1.2,0.2,1.5,0.8c-0.1-0.7,0.1-1.4,0.7-1.8c0.2-0.1,0.5-0.2,0.7-0.2c0.1,0,0.2,0,0.4,0l0,0
			c0.3,0,0.6,0.1,0.9,0.3l0.2,0.2c0,0,0.1,0.1,0.1,0.1c0.8,0.9,0,1.9-0.5,2.6c0.8-0.5,1.8-0.3,2.4,0.5c0.1,0.1,0.1,0.2,0.1,0.3
			c0,0,0,0,0,0.1C266.8,190.2,266.8,190.4,266.8,190.6z"/>
		<path class="st63" d="M263.9,191.3c0.5-0.5,0.5-1.2,0.1-1.7c-0.1-0.1-0.2-0.2-0.4-0.3c-0.8-0.5-1.8-0.2-2.3,0.6
			c-0.4,0.6-0.1,1.4,0.5,1.8c0.1,0,0.2,0.1,0.3,0.1C262.7,192,263.4,191.8,263.9,191.3z"/>
		<path class="st64" d="M285.6,195.3c0.1,0.1,0.1,0.2,0.2,0.3c0.1,0.2,0.2,0.5,0.2,0.8c0,0.4-0.6,1.1-1,1c0.5,0.2,0.9,0.1,1.2,0.7
			c0.1,0.2,0.2,0.4,0.3,0.6c0,0.1,0,0.2,0.1,0.3c0,0.2,0,0.4,0,0.6c0,0.1,0,0.2-0.1,0.4c0,0.1-0.1,0.1-0.1,0.2
			c-0.5,0.7-1.8,0.6-2.5-0.2c0.1,0.3,0.2,0.7,0.1,1c-0.1,0.4-0.3,0.7-0.6,1c-0.1,0.1-0.2,0.1-0.3,0.2c-0.1,0-0.2,0.1-0.3,0.1
			c-0.3,0-0.6-0.1-0.9-0.3l0,0l-0.2-0.1l-0.1-0.1c-0.7-0.5-0.9-1.4-0.5-2.1c0-0.1,0.1-0.1,0.1-0.2c-0.7,0.2-1.4,0-1.9-0.5
			c-0.1-0.1-0.1-0.2-0.1-0.3c-0.1-0.2-0.1-0.5-0.1-0.7c0-0.1,0-0.2,0-0.3c0-0.1,0.1-0.2,0.1-0.3c0.3-0.5,1-0.7,1.5-0.4
			c-0.6-0.4-1-1-1-1.8c0-0.2,0.1-0.5,0.3-0.6c0.1-0.1,0.1-0.2,0.2-0.2l0,0c0.2-0.2,0.5-0.3,0.7-0.4h0.3h0.1c1.1,0.2,1.5,1.4,1.7,2.3
			c0.1-0.7,0.7-1.3,1.4-1.2c0.1,0,0.2,0,0.3,0.1l0.3,0.1h0C285.3,195.1,285.5,195.2,285.6,195.3z"/>
		<path class="st63" d="M284.4,197.7c-0.1-0.8-0.8-1.4-1.6-1.3c-0.1,0-0.1,0-0.2,0c-0.7,0.2-1.2,0.9-1,1.6c0,0.1,0.1,0.2,0.1,0.3
			c0.3,0.8,1.1,1.2,1.8,0.9c0,0,0,0,0.1,0C284.2,199,284.6,198.3,284.4,197.7z"/>
		<path class="st64" d="M255.9,211.2c0,0.1,0,0.2-0.1,0.3c-0.1,0.2-0.3,0.4-0.5,0.6c-0.3,0.2-1.4,0.3-1.6-0.1
			c0.3,0.5,0.6,0.7,0.4,1.3c-0.1,0.2-0.1,0.4-0.3,0.6c-0.1,0.1-0.1,0.2-0.2,0.3c-0.1,0.1-0.3,0.3-0.5,0.4c-0.1,0.1-0.2,0.1-0.4,0.2
			c-0.1,0-0.2,0-0.3,0c-1,0-1.8-0.7-1.8-1.7c0-0.1,0-0.1,0-0.2c0,0.2-0.6,0.6-0.7,0.7c-0.4,0.2-0.8,0.3-1.3,0.2
			c-0.1,0-0.3-0.1-0.4-0.1l-0.3-0.1c-0.3-0.2-0.4-0.5-0.5-0.8l0,0c0-0.1,0-0.1,0-0.2v-0.1c-0.1-0.8,0.5-1.6,1.3-1.7
			c0.1,0,0.2,0,0.3,0c-0.6-0.5-1.2-1-1.1-1.6c0-0.1,0-0.2,0.1-0.3c0.1-0.2,0.3-0.4,0.5-0.5c0.1-0.1,0.2-0.1,0.3-0.1
			c0.1-0.1,0.2-0.1,0.3-0.1c0.6-0.1,1.2,0.2,1.5,0.8c-0.1-0.7,0.1-1.4,0.7-1.8c0.2-0.1,0.5-0.2,0.7-0.2c0.1,0,0.2,0,0.4,0l0,0
			c0.3,0,0.6,0.1,0.9,0.3c0.1,0,0.2,0.1,0.2,0.2c0,0,0.1,0.1,0.1,0.1c0.8,0.9,0.1,1.9-0.5,2.6c0.8-0.5,1.8-0.3,2.4,0.5
			c0.1,0.1,0.1,0.2,0.1,0.3v0.1C255.9,210.8,255.9,211,255.9,211.2z"/>
		<path class="st63" d="M253,211.9c0.5-0.5,0.5-1.2,0.1-1.7c-0.1-0.1-0.2-0.2-0.4-0.3c-0.8-0.5-1.8-0.2-2.3,0.6c0,0,0,0,0,0
			c-0.4,0.6-0.2,1.4,0.5,1.8c0.1,0.1,0.2,0.1,0.3,0.1C251.8,212.6,252.5,212.4,253,211.9z"/>
		<path class="st64" d="M245.6,169.4c0,0.1,0,0.2-0.1,0.3c-0.1,0.2-0.3,0.4-0.5,0.6c-0.3,0.2-1.4,0.3-1.6-0.1
			c0.3,0.5,0.6,0.7,0.4,1.3c0,0.2-0.1,0.4-0.2,0.6c-0.1,0.1-0.1,0.2-0.2,0.3c-0.1,0.1-0.3,0.3-0.5,0.4c-0.1,0.1-0.2,0.1-0.4,0.2
			l-0.3,0.1c-1,0-1.8-0.8-1.8-1.7c0-0.1,0-0.1,0-0.2c0,0.2-0.6,0.6-0.7,0.7c-0.4,0.2-0.8,0.3-1.3,0.2c-0.1,0-0.3-0.1-0.4-0.1
			c-0.1,0-0.2-0.1-0.3-0.1c-0.3-0.2-0.4-0.5-0.5-0.8l0,0v-0.2c0,0,0-0.1,0-0.1c-0.1-0.8,0.5-1.6,1.4-1.7c0.1,0,0.2,0,0.3,0
			c-0.6-0.5-1.2-1-1.1-1.6c0-0.1,0.1-0.2,0.1-0.3c0.1-0.2,0.3-0.4,0.5-0.6c0.1-0.1,0.2-0.1,0.3-0.1c0.1-0.1,0.2-0.1,0.3-0.1
			c0.6-0.1,1.2,0.2,1.5,0.8c-0.1-0.7,0.1-1.4,0.7-1.8c0.3-0.2,0.7-0.3,1.1-0.2l0,0c0.3,0,0.6,0.1,0.9,0.3c0.1,0,0.2,0.1,0.2,0.2
			l0.1,0.1c0.8,0.9,0.1,1.9-0.5,2.6c0.8-0.5,1.8-0.3,2.4,0.5c0.1,0.1,0.1,0.2,0.1,0.3c0,0,0,0,0,0.1
			C245.6,169,245.6,169.2,245.6,169.4z"/>
		<path class="st63" d="M242.7,170.1c0.5-0.5,0.5-1.2,0.1-1.7c-0.1-0.1-0.2-0.2-0.4-0.3c-0.8-0.5-1.8-0.2-2.3,0.6
			c-0.4,0.6-0.1,1.4,0.5,1.8c0.1,0.1,0.2,0.1,0.3,0.1C241.5,170.8,242.2,170.6,242.7,170.1z"/>
		<path class="st64" d="M273.5,167c0,0.1-0.1,0.2-0.1,0.3c-0.1,0.2-0.3,0.4-0.5,0.6c-0.3,0.2-1.4,0.3-1.6-0.1
			c0.3,0.5,0.6,0.7,0.4,1.3c0,0.2-0.1,0.4-0.2,0.6c-0.1,0.1-0.1,0.2-0.2,0.3c-0.1,0.1-0.3,0.3-0.5,0.4c-0.1,0.1-0.2,0.1-0.4,0.2
			l-0.3,0.1c-1,0-1.8-0.8-1.8-1.7c0-0.1,0-0.1,0-0.2c0,0.2-0.6,0.6-0.7,0.7c-0.4,0.2-0.8,0.3-1.3,0.2c-0.1,0-0.3-0.1-0.4-0.1
			c-0.1,0-0.2-0.1-0.3-0.1c-0.3-0.2-0.4-0.5-0.5-0.8l0,0c0-0.1,0-0.1,0-0.2c0,0,0-0.1,0-0.1c-0.1-0.8,0.5-1.6,1.4-1.7
			c0.1,0,0.2,0,0.3,0c-0.6-0.5-1.2-1.1-1.1-1.6c0-0.1,0-0.2,0.1-0.3c0.1-0.2,0.3-0.4,0.5-0.6c0.1-0.1,0.2-0.1,0.3-0.1
			c0.1,0,0.2-0.1,0.3-0.1c0.6-0.1,1.2,0.2,1.5,0.8c-0.1-0.7,0.1-1.4,0.7-1.8c0.2-0.1,0.5-0.2,0.7-0.2h0.4c0.3,0,0.6,0.1,0.9,0.3
			c0.1,0.1,0.2,0.1,0.2,0.2c0,0,0.1,0.1,0.1,0.1c0.8,0.9,0,1.9-0.5,2.6c0.8-0.5,1.8-0.3,2.4,0.5c0.1,0.1,0.1,0.2,0.1,0.3l0,0
			C273.5,166.6,273.5,166.8,273.5,167z"/>
		<path class="st63" d="M270.5,167.7c0.5-0.5,0.5-1.2,0.1-1.7c-0.1-0.1-0.2-0.2-0.4-0.3c-0.8-0.5-1.8-0.2-2.3,0.6
			c-0.4,0.6-0.1,1.4,0.5,1.8c0.1,0.1,0.2,0.1,0.3,0.1C269.3,168.4,270,168.2,270.5,167.7z"/>
		<path class="st65" d="M232.2,179.1c0,0,25.1,7.1,51.1-4.6c-0.5-0.5-0.8-1.2-0.9-1.9c0,0-26.5,12.6-50.3,4.2
			C231.9,179.7,232.2,179.1,232.2,179.1z"/>
		<polygon class="st66" points="245.8,181.2 241.5,212.5 247.1,181.1 		"/>
		<polygon class="st66" points="265.2,180 273.5,204.6 267.7,179.1 		"/>
		<polygon class="st66" points="235.2,179.8 225,196.8 237.3,180.1 		"/>
		<path class="st44" d="M274,132c0,0-6.7,8.3,4.9,22.4c-2.2-1.3-11-7.7-9.4-18.6c0.9-2.9,1-4.8,4-4.8C274.2,132.3,274,132,274,132z"
			/>
		<path class="st44" d="M233.4,132l-1.8,20.3l-2,1.6c0,0,0.6-17.6,1.5-19.8C233,131.7,233.4,132,233.4,132z"/>
		<path class="st44" d="M241.6,232.3c0,0,13.7-10.8,16-8.3l0.4-1.7c0,0-2.6-3.1-10,3.3l-6.3,5.1L241.6,232.3z"/>
		<path class="st44" d="M271.5,224c0,0,2.4-10.4,13.3-12.4v-2.7c0,0-10.3,3.6-12.7,10.9C271.8,221.2,271.6,222.6,271.5,224z"/>
		<path class="st67" d="M321.1,162.9c0,0,0.6-3.6,7.3-4.2"/>
		<path class="st67" d="M321.1,168.9c0,0,1.7-4.9,3.3-5.4s2.2,1.4,2.2,1.4"/>
		<path class="st67" d="M322.3,163.5c2.6-2.7,6-4.4,9.7-4.9"/>
		<path class="st67" d="M182.6,173.8c0,0-0.8-2.5,2-1.3s3.4,2.4,3.4,2.4"/>
		<path class="st67" d="M176.6,170.7c0,0,5.2-0.7,6.8,0"/>
		<path class="st67" d="M176.1,169.8c0,0,6.9-1.4,8.4-0.5"/>
	</g>
</g>
<path class="st68" d="M167.8,38.5c0.7,0.4,0.2,0.1-0.3-0.3c-0.5-0.4-1-0.8-1.6-1c-0.9-0.4-1.8-0.8-2.8-1.1c-2.2-0.4-4.5-0.7-6.8-0.7
	c-5.2-0.3-9.9,2-14.4,4.7c-4,2.5-7.5,5.7-10.4,9.4c-1.7,2.2-3,4.7-3.8,7.3c-0.4,1.2-0.7,2.4-0.7,3.6c0.1,1.1,0.3,2.1,0.5,3.2
	c0,1.4,1.1,2.6,2.5,2.6c0.5,0,0.9-0.1,1.3-0.3c0.6-0.3,2-0.4,2.8-0.8c0.8-0.4,1.5-0.8,2.2-1.3c0.4-0.3,3.5-2.7,1.2-1.3
	c1.5-0.8,2.9-1.8,4.2-2.9c1.1-1,2.3-1.9,3.6-2.7c1.6-1,3.1-2.1,4.7-3c3.7-2.3,5.9-2.8,9.6-5.4c2.3-1.7,6.3-2.8,8.1-5.4
	c1.3-0.9,1.6-2.6,0.7-3.9C168.4,38.9,168.1,38.7,167.8,38.5z"/>
<path class="st69" d="M288.8,386c5.6,1.8,11.9,1.6,17.7,1.5c2.9-0.1,5.9-0.3,8.8-0.8c3-0.4,6.4-0.9,9-2.2c1.8-0.9,2.5-3,1.7-4.8
	c-0.5-1.1-1.5-1.8-2.7-2c-2.8-0.4-5.6-0.5-8.4-0.3c-2.9,0-5.8,0.1-8.6,0.4L288.8,386z"/>
<path class="st69" d="M360.5,364.3c-0.1-0.2-0.3-0.4-0.4-0.5c-1-0.7-2.2-1-3.4-0.7c-4.3,0.8-7,3.3-10.3,5.6c-2.5,1.8-5.9,2.6-8.7,4
	c-3.3,1.5-6.5,3.3-7.5,6.6c-0.4,1.2,0,2.6,1,3.4c2.9,2.5,6.9,2.4,10.6,1.6c3.5-0.7,6.9-2,10.1-3.6c5.4-3,11.2-9.6,9-15.6
	C360.7,364.8,360.6,364.6,360.5,364.3z"/>
<path class="st70" d="M357.8,65.8c-5.4-3.3-11.2-5.8-17.3-7.3c-10.8-3-22-4.1-33.1-4.9c-17-1.9-34.1-2.8-51.2-2.8
	c-19.8-0.2-39.6,0.7-59.4,2.7c-16.1,1.6-32.5,3.8-48.2,8.2h-0.1c-0.1,0-0.2,0-0.2,0.1l-0.5,0.2c-5.2,1.5-10.5,3.5-12.9,9
	c-2.1,4.9-2,10.4,0.1,15.3c5,12,19.3,15.2,30.3,16.7c14.1,2,28.6,2,42.9,2.3s28.8,0.1,43.2-0.4c28.8-1,57.6-3.6,86.2-7.9
	c6.3-1,12.6-2.2,18.4-4.8c5.1-2.3,11-6,10.9-12.6C366.9,73.6,362.3,68.8,357.8,65.8z"/>
</svg>
