<?xml version="1.0" encoding="utf-8"?>
<!-- Generator: Adobe Illustrator 25.2.3, SVG Export Plug-In . SVG Version: 6.00 Build 0)  -->
<svg version="1.1" id="Layer_1" xmlns="http://www.w3.org/2000/svg" xmlns:xlink="http://www.w3.org/1999/xlink" x="0px" y="0px"
	 viewBox="0 0 490 425" style="enable-background:new 0 0 490 425;" xml:space="preserve">
<style type="text/css">
	.st0{fill:#78EFE9;}
	.st1{fill:#0072AB;}
	.st2{fill:#74879E;}
	.st3{clip-path:url(#SVGID_2_);}
	.st4{opacity:0.2;fill:#2A7C7C;enable-background:new    ;}
	.st5{fill:#292941;stroke:#031626;stroke-miterlimit:10;}
	.st6{fill:#965017;stroke:#562C0A;stroke-miterlimit:10;}
	.st7{fill:none;stroke:#562C0A;stroke-width:2;stroke-miterlimit:10;}
	.st8{fill:#542807;}
	.st9{fill:#1F6599;stroke:#092F6D;stroke-miterlimit:10;}
	.st10{fill:#7F35AF;stroke:#340D72;stroke-miterlimit:10;}
	.st11{fill:#935DC6;stroke:#340D72;stroke-miterlimit:10;}
	.st12{fill:#7F35AF;}
	.st13{fill:#340D72;}
	.st14{fill:none;stroke:#340D72;stroke-miterlimit:10;}
	.st15{fill:#A478D6;stroke:#340D72;stroke-width:0.75;stroke-miterlimit:10;}
	.st16{fill:#F9DAD2;}
	.st17{fill:#7F430D;}
	.st18{fill:#EAB8AD;}
	.st19{fill:#2D1513;stroke:#330904;stroke-miterlimit:10;}
	.st20{fill:#3F2322;stroke:#330904;stroke-miterlimit:10;}
	.st21{fill:#231312;stroke:#330904;stroke-miterlimit:10;}
	.st22{fill:#FEFF99;}
	.st23{fill:#4F1812;stroke:#330904;stroke-miterlimit:10;}
	.st24{fill:#F9DAD2;stroke:#7F430D;stroke-width:0.75;stroke-miterlimit:10;}
	.st25{fill:#F4FF51;}
	.st26{fill:#73750B;}
	.st27{fill:#421111;}
	.st28{fill:#FFFFFF;stroke:#3D2D16;stroke-width:0.5;stroke-miterlimit:10;}
	.st29{fill:#3D2D16;}
	.st30{fill:#FFFFFF;}
	.st31{fill:#8C3D35;}
	.st32{fill:#FFF7F4;}
	.st33{fill:#D26653;}
	.st34{fill:#F9988F;}
	.st35{fill:#2B1D0B;}
	.st36{fill:#BC7D71;}
	.st37{fill:#FFE8AF;}
	.st38{fill:#FFF4DE;}
	.st39{fill:#FFD341;}
	.st40{fill:#65503D;}
	.st41{opacity:0.53;fill:#FFFFFF;enable-background:new    ;}
	.st42{opacity:0.33;fill:#FFFFFF;enable-background:new    ;}
	.st43{opacity:0.15;fill:#FFFFFF;enable-background:new    ;}
</style>
<polygon class="st0" points="359.8,13.6 130.2,13.6 15.3,212.5 130.2,411.4 359.8,411.4 474.7,212.5 "/>
<polygon class="st1" points="353.3,24.9 136.7,24.9 28.3,212.5 136.7,400.1 353.3,400.1 461.7,212.5 "/>
<polygon class="st2" points="351.5,28 138.5,28 32,212.5 138.5,397 351.5,397 458,212.5 "/>
<g>
	<defs>
		<polygon id="SVGID_1_" points="351.5,28 138.5,28 32,212.5 138.5,397 351.5,397 458,212.5 		"/>
	</defs>
	<clipPath id="SVGID_2_">
		<use xlink:href="#SVGID_1_"  style="overflow:visible;"/>
	</clipPath>
	<g class="st3">
		<rect x="-6.3" y="-12.5" class="st4" width="502" height="458"/>
		<g id="_01">
			<path class="st5" d="M178.8,417l14.5,224c0,0-4.7,4-2.9,9c2.9,7.8,16,0.2,35.9,12.9c4.6,3,12.7-2.1,7-12.3l-0.5-185.9
				c3.1,0.2,6.3,0.2,9.5,0l14.3,174.9c0,0-10.5,15.7,5.2,14.9c12.9-0.6,19.6-6.6,28.5-0.3c0,0,10.1-8.9,1.5-15l4-220.8
				c0-2.3-5.4-16.1-7.3-17.4l-30.4-7.4C258.2,393.7,187.7,386.5,178.8,417z"/>
			<path class="st6" d="M173,405.7c0,0-1.9,4.2-0.2,11.3c1.5,6.3,51.2,15.8,61.3,15.5c22-0.4,43.8-3.5,65.1-9.2c0,0,2.1-6.8-0.2-11
				l-44,5.4C255,417.8,196.4,418.3,173,405.7z"/>
			<path class="st7" d="M218.2,418c0,0-3,7.9,0,13.5c0.9,1.8,23.4,3.7,25.9,0.9c0,0,3.1-9.4-1.6-13.3
				C242.6,419.2,230.7,415.2,218.2,418z"/>
			<circle class="st8" cx="255.8" cy="425.8" r="1.9"/>
			<circle class="st8" cx="233" cy="426.3" r="1.9"/>
			<circle class="st8" cx="207.8" cy="422.9" r="1.9"/>
			<circle class="st8" cx="186.8" cy="418.4" r="1.9"/>
			<circle class="st8" cx="275" cy="423.9" r="1.9"/>
			<circle class="st8" cx="292.5" cy="420.3" r="1.9"/>
			<path class="st9" d="M209.9,225.1l-12.3,2.6c0,0-14.2,2-17.4,9.6s-48.6,65.8-48.6,65.8s-8.5,13.1-6.8,16.1s35.2,3,35.2,3
				l14.3-11.5l12.6-11.8"/>
			<path class="st10" d="M266.3,222.8l-57.4,2.4l-13.4,2.8l-13.9,8.3c-3.7,2.1-7.3,4.5-10.7,7.1l-11.6,10.6
				c-6.2,6-13.8,16.6-18,22.1L131,290.4l38,10.7c0,0,0.8,95.1,0.5,96.9c-0.6,3-4.9,5.3-1.2,9c3.1,3.1,16.9,10.4,59.8,14
				s73.6-7.5,73.6-7.5s6.9-1.4,3.5-7.3c-0.5-0.7-1.2-1.3-2-1.6l-2.8-95.6l40,0.8c0,0,1.9-18.5-9.7-38S297.5,228,266.3,222.8"/>
			<path class="st11" d="M136.3,286.9c0,0-7.4,0.7-16.7,12c-9.9,12-10.9,32.6-0.9,40.5s26.4,6,37.2-2.4s16.3-24.2,13.5-30
				C164.9,297.5,136.3,286.9,136.3,286.9z"/>
			<path class="st11" d="M301.9,305.7c5.2-8,14.3-12.7,23.8-12.2c16.7,0.5,21.9,10.3,23.8,21.1c2.8,15-9.4,31.3-30.7,26.6
				S301.9,305.7,301.9,305.7z"/>
			<path class="st12" d="M300.2,310.1c0,0,1.4-16.4-2.5-30.5c-0.1-0.4-0.2-0.7-0.3-1.1"/>
			<path class="st13" d="M300.1,310.1c0.1-2.6,0.1-5.3,0-8s-0.2-5.3-0.5-7.9s-0.7-5.3-1.1-7.9c-0.1-1.3-0.4-2.6-0.6-3.9l-0.7-3.9
				h0.1c0.5,1.2,0.9,2.5,1.3,3.8s0.7,2.6,0.9,3.9c0.5,2.6,0.8,5.3,0.9,8C300.8,299.5,300.7,304.8,300.1,310.1L300.1,310.1z"/>
			<path class="st14" d="M234.2,256.4c0,0-7.7,60-7.6,107.1S228,421,228,421"/>
			<circle class="st15" cx="235" cy="307.8" r="2.4"/>
			<circle class="st15" cx="231.8" cy="371" r="2.4"/>
			<circle class="st15" cx="231.8" cy="403.4" r="2.4"/>
			<path class="st16" d="M223.2,219.2c15.1-16.1,34.7-3.2,34.7-3.2l-0.6,14.5c5.5,23.9-19.7,32.3-29.7,28.2
				c-7.3-3-3.9-22.1-3.9-22.1c0.1-4.8-0.5-9.6-1.8-14.2"/>
			<path class="st17" d="M222.9,218.9c2.2-2.4,4.8-4.3,7.7-5.8c2.9-1.4,6.1-2.2,9.3-2.4c3.2-0.1,6.4,0.2,9.5,1.1
				c3.1,0.9,6.1,2.2,8.8,3.9l0.2,0.1v0.2l-0.8,14.5v-0.1c0.7,3,0.9,6.1,0.6,9.2c-0.3,3.1-1.4,6.1-3,8.7c-3.4,5.2-8.7,9-14.7,10.5
				c-3,0.9-6.1,1.2-9.1,0.9c-1.5-0.1-3.1-0.6-4.4-1.3c-1.3-0.9-2.3-2.2-2.8-3.7c-1-2.9-1.4-6-1.3-9.1c0-3.1,0.3-6.1,0.8-9.1l0,0
				c0-1.2,0.1-2.4,0-3.6s-0.2-2.4-0.3-3.6c-0.3-2.4-0.8-4.7-1.4-7c0.7,2.3,1.2,4.6,1.5,7c0.2,1.2,0.3,2.4,0.4,3.6
				c0.1,1.2,0.1,2.4,0,3.6l0,0c-0.5,3-0.7,6.1-0.7,9.1c-0.1,3.1,0.3,6.1,1.3,9c0.5,1.4,1.4,2.7,2.7,3.5c1.3,0.7,2.8,1.1,4.3,1.2
				c3,0.3,6.1,0,9-0.9c5.8-1.7,11.3-5.2,14.4-10.4c1.6-2.6,2.6-5.5,2.9-8.5c0.3-3,0.1-6.1-0.6-9v-0.1l0.4-14.5l0.2,0.4
				c-2.7-1.6-5.6-2.9-8.6-3.7c-3-0.9-6.1-1.2-9.3-1.1c-3.1,0.2-6.1,1-8.9,2.4c-2.8,1.4-5.3,3.3-7.4,5.6L222.9,218.9z"/>
			<path class="st18" d="M223.4,217.1c-0.4,1.4-0.5,2.9-0.5,4.4c0.2,2.2,0.5,5.1,0.5,5.1s15.9,7.8,32.7-8.9c0.4-0.4,0.5-8.8,0.5-8.8
				l-1.8-5L223.4,217.1z"/>
			<path class="st19" d="M274,225.1c0,0,16.1,169,20.1,178.2s2.4,24.9,2.4,24.9l10.5-4.4c0,0,2.6-16.8-6.6-26.5
				c-1.9-15.2-19-170.4-19-170.4L274,225.1z"/>
			<polygon class="st20" points="296.5,428.2 294.6,499 307.4,498.9 307.1,423.9 			"/>
			<path class="st21" d="M307.4,361l-2.3,45.2l2,17.7c0,0,11.7-31.1,8.9-64s-10.9-6.2-10.9-6.2L307.4,361z"/>
			<polygon class="st20" points="307.1,423.9 314.6,393.3 316.4,460 307.4,498.9 			"/>
			<path class="st22" d="M222,241c0,0,13.8,7.1,32.4-1.5l-10.3,18l-18.2,2.3L222,241z"/>
			<path class="st12" d="M228.5,248l5.7,8.4l7.1-7.9l11.8-7.6l7.7-3.6l5.8,8.8c0,0-19,22.6-19.9,22.6s-31.9-4.5-31.9-4.5l2.9-22.2
				C222.2,241.3,226.7,243.7,228.5,248z"/>
			<polyline class="st14" points="242,248.8 234.2,256.4 227.7,246.6 			"/>
			<line class="st14" x1="234.2" y1="256.4" x2="232.6" y2="270.2"/>
			<circle class="st15" cx="238.2" cy="263.3" r="2.4"/>
			<path class="st11" d="M228.5,248c0,0-9.1-19.2-4.6-28.7c0,0,2.2-10.6-14,5.8c-10.4,10.5-5.4,23.4-5.4,23.4l10.2-7.4
				C214.7,241.1,226.7,244.7,228.5,248z"/>
			<path class="st11" d="M245.6,246.1c0,0,12.5-9.7,11-23.2c0,0-2.5-13,4.1-9.5c5.7,3.1,14.3,17,10.6,35l-13.7-7.5L245.6,246.1z"/>
			<path class="st23" d="M179.3,118.6c0,0-12.5,16.4,10.1,49.4l4.8,5.9l-2.1-51.3L179.3,118.6z"/>
			<path class="st24" d="M198,192.1c-3,2.2-6.1,1.1-8.4-0.6c-2.3-1.7-4.2-4-5.6-6.5c-7.8-14.1-5.5-27.6,1.5-25.1
				c7.4,2.6,11.2,19.8,11.2,19.8"/>
			<path class="st18" d="M181,167.4c-0.4,0.2,6-6.2,11.6,11c0,0-2.9,1.2-0.9,3.5s4.9,4.1,2.9,4.5s-4.7,0.8-6.8-3.1
				c0,0-1.5-3.6,0.2-6S181.4,167.1,181,167.4z"/>
			<path class="st17" d="M181,167.3c0.6-0.5,1.3-0.9,2.1-1.1c0.8-0.2,1.7-0.1,2.4,0.2c1.5,0.7,2.7,1.8,3.5,3.2
				c0.8,1.4,1.5,2.8,2.1,4.3c0.6,1.5,1.1,2.9,1.7,4.4l0.1,0.1l-0.2,0.1c-0.7,0.3-1.2,0.8-1.4,1.5c0,0.7,0.3,1.4,0.8,1.8
				c0.5,0.6,1.1,1.1,1.7,1.6c0.6,0.5,1.2,1.1,1.7,1.8c0.1,0.1,0.1,0.3,0.1,0.4c0,0.2,0,0.4-0.2,0.6c-0.2,0.2-0.5,0.4-0.8,0.4
				l-1.2,0.2c-0.8,0.1-1.7,0-2.5-0.3c-1.5-0.6-2.7-1.9-3.3-3.4h0.1c0.8,1.3,2,2.4,3.4,2.9c0.7,0.2,1.5,0.2,2.2,0.1
				c0.4-0.1,0.8-0.1,1.1-0.2c0.1,0,0.2-0.1,0.3-0.1c0,0,0,0.1,0,0c0-0.1,0-0.1-0.1-0.1c-0.4-0.6-0.9-1.1-1.5-1.6
				c-0.6-0.6-1.1-1.1-1.6-1.7c-0.7-0.6-1-1.5-0.9-2.4c0.3-0.8,1-1.5,1.8-1.8l-0.1,0.2c-0.4-1.5-0.9-3-1.6-4.4
				c-0.6-1.4-1.4-2.7-2.3-4c-0.8-1.3-1.9-2.3-3.2-3.1c-0.7-0.3-1.4-0.4-2.1-0.3c-0.4,0.1-0.7,0.2-1.1,0.3
				C181.7,167.1,181.4,167.3,181,167.3L181,167.3z"/>
			<ellipse transform="matrix(0.982 -0.1891 0.1891 0.982 -32.4696 40.2807)" class="st25" cx="194.9" cy="190.3" rx="2" ry="2.8"/>
			<path class="st26" d="M196.9,190c0.1,0.6,0.1,1.3-0.1,1.9c-0.2,0.7-0.7,1.3-1.4,1.5c-0.8,0.2-1.6-0.1-2.2-0.7
				c-0.5-0.5-0.9-1.2-1-2c-0.1-0.7,0-1.5,0.3-2.2c0.3-0.7,1.1-1.2,1.9-1.3c0.7,0,1.4,0.4,1.8,1C196.6,188.7,196.8,189.4,196.9,190z
				 M196.8,190c-0.1-0.6-0.4-1.2-0.8-1.7c-0.4-0.5-1-0.8-1.6-0.7c-0.6,0.1-1.1,0.6-1.3,1.1c-0.2,0.6-0.3,1.2-0.2,1.8
				c0.1,0.6,0.4,1.2,0.8,1.7c0.4,0.5,1,0.8,1.6,0.7c0.6-0.1,1.1-0.5,1.3-1.1C196.9,191.3,196.9,190.6,196.8,190L196.8,190z"/>
			<path class="st24" d="M284,148.8c0,0-1,40.1-20.1,60.4c-14.1,15-35.4,14.6-35.4,14.6c-13.2-1.2-25.2-8.5-32.1-19.9
				c-7.9-12.9-11.1-35.3-11.7-45.5c-0.8-13.4-0.7-15.1-0.6-18.6c0,0,2.6-47,49-46.7C289.6,93.5,285.3,133.1,284,148.8z"/>
			<path class="st27" d="M254.8,148.1c-1.5-1.5-3.2-2.7-4.9-3.8c-1.8-1.1-3.7-2-5.8-2.5c-1-0.3-2.1-0.5-3.2-0.7
				c-1.1-0.1-2.2,0-3.3,0.3c-2.3,0.6-4.2,2-5.6,4l0.1,0.2c1.1-0.4,2-0.7,2.9-1c0.9-0.3,1.9-0.4,2.8-0.6c1.9-0.3,3.8-0.3,5.7-0.1
				c1,0.1,1.9,0.4,2.9,0.6c1,0.3,1.9,0.6,2.8,1c1.9,0.8,3.7,1.7,5.4,2.8L254.8,148.1z"/>
			<path class="st27" d="M191.2,150c1-1.6,2.2-3.2,3.5-4.5c1.3-1.4,2.9-2.5,4.6-3.4c0.9-0.5,1.8-0.9,2.7-1.2c1-0.3,2-0.4,3.1-0.3
				c2.3,0.3,4.4,1.3,5.9,3l-0.1,0.2c-1-0.2-2-0.4-2.9-0.5c-0.9-0.1-1.8-0.1-2.6-0.1c-1.7,0-3.5,0.3-5.1,0.8
				c-0.8,0.3-1.6,0.7-2.4,1.1c-0.8,0.4-1.6,0.9-2.3,1.4c-1.5,1.1-2.9,2.3-4.1,3.6L191.2,150z"/>
			
				<ellipse transform="matrix(4.152684e-02 -0.9991 0.9991 4.152684e-02 70.0763 399.7578)" class="st28" cx="243.4" cy="163.4" rx="11.6" ry="9.6"/>
			
				<ellipse transform="matrix(4.152684e-02 -0.9991 0.9991 4.152684e-02 65.759 402.4124)" class="st29" cx="242.6" cy="166.9" rx="8" ry="7.1"/>
			
				<ellipse transform="matrix(4.152684e-02 -0.9991 0.9991 4.152684e-02 73.6416 394.604)" class="st30" cx="242.5" cy="158.9" rx="1.9" ry="1.5"/>
			
				<ellipse transform="matrix(4.152684e-02 -0.9991 0.9991 4.152684e-02 31.9826 360.4355)" class="st28" cx="203.9" cy="163.5" rx="12.1" ry="9.6"/>
			
				<ellipse transform="matrix(4.152684e-02 -0.9991 0.9991 4.152684e-02 28.1359 365.378)" class="st29" cx="204.5" cy="168" rx="8.3" ry="7.2"/>
			
				<ellipse transform="matrix(4.152684e-02 -0.9991 0.9991 4.152684e-02 37.3231 359.1411)" class="st30" cx="205.9" cy="160.1" rx="2" ry="1.6"/>
			<path class="st31" d="M208.4,192c0,0,18.3,0.1,30.7-1.9c0,0,3.1,13.7-13.7,16.5C225.4,206.5,208.4,210.1,208.4,192z"/>
			<path class="st32" d="M211.6,192.3c0,0-1.5,3.8,3.5,4.6s21.1-0.3,21.4-4.4L211.6,192.3z"/>
			<path class="st33" d="M214.4,203.3c0,0,2.9-2.1,8.6-2.2s8.8-0.4,10.5,0.4s-7.7,3.4-7.7,3.4S214.9,204.9,214.4,203.3z"/>
			<path class="st32" d="M212.4,203.4c1-0.8,2.2-1,3.4-0.6c1.8,0.7,4.3,1.9,10.6,0.7c5.5-1,6.5-2.4,7.6-2.5s1.8,0.8,1.3,1.2
				c-3.1,2.8-7.1,4.4-11.2,4.6C217,207.3,213.1,204.4,212.4,203.4z"/>
			<path class="st34" d="M208.6,194.7c0,0,0.2,11.9,13.2,12.1s16.4-8.7,16.4-8.7c0.6-1.5,1-3.1,1.1-4.7V192c0.1,1,0.1,2.1,0,3.1
				c-0.2,1.8-1.3,7.8-9,11.3c-4.9,2.2-10.6,2.2-15.6,0.1C214.7,206.5,208.9,203.2,208.6,194.7z"/>
			<path class="st35" d="M204.4,186.9c0,0,25.8-1.7,37-0.6c0,0,6.5,4,8.4,7.3c0,0-2,3.1-4.9,2.3l-6-4.1c0,0-18.4,6.8-32.7,1.2
				c-1.5,1.1-2.8,2.3-4.1,3.6c-0.8,0.8-5.1-1.6-2-5.3L204.4,186.9z"/>
			<path class="st16" d="M221.2,171.3c0,0-0.7,4-3.1,4.3s-5.8,4.1-4.3,8.9c2.2,7,12.6,4.5,13.3,1.1l1.1-3.4"/>
			<path class="st36" d="M215.5,177.1c-1,1.8-1.6,3.9-1.8,6c-0.1,1,0.2,1.9,0.6,2.8c0.5,0.8,1.3,1.3,2.2,1.6
				c0.9,0.3,1.9,0.5,2.9,0.5c1,0,1.9,0,2.9-0.2c1.9-0.3,3.7-1.4,4.7-3.1h0.2c-0.1,1.2-0.5,2.3-1.4,3.2c-0.8,0.9-1.9,1.5-3.1,1.8
				c-1.2,0.3-2.3,0.3-3.5,0.1c-1.1-0.2-2.2-0.5-3.3-0.9c-1.1-0.5-2.1-1.3-2.7-2.4c-0.5-1.1-0.7-2.3-0.5-3.4c0.4-2.2,1.2-4.2,2.5-6
				L215.5,177.1z"/>
			<path class="st18" d="M185.7,132.6c0,0,16.9,8.1,44.7,4.3c25.2-3.5,27.8-4.9,27.8-4.9s-3.5,20,8.8,24.1c0,0,7.4,18.1,10.5,20.1
				l7.9-31.9l-8.8-25.9l-53.3-13.1l-36.2,20.7L185.7,132.6z"/>
			<path class="st23" d="M262,127.1c0,0,9.1-15.9,17.5-21.1s17.3,12.5,17,21.5c-0.5,10.8-5.6,31.6-5.6,31.6l-2.3,17.2l-10.3,2.7
				c0,0-8.1-13.9-6-24.1C272.3,154.9,256.3,156.1,262,127.1z"/>
			<path class="st23" d="M281.4,104.3c0,0-18.6-27.5-57.8-21.6s-43.1,24.7-45.7,31c-3.6,8.9-0.8,16,17.4,19.9s60.2-2.6,66.6-6.4
				C262,127.1,281.4,110.7,281.4,104.3z"/>
			<path class="st24" d="M277.7,178.2c0,0,4.6-17,13.5-19c8.4-1.9,11.1,11.9,1.7,25.4c-1.7,2.6-4,4.7-6.7,6.1
				c-2.9,1.5-6.6,2.3-10.2-0.1"/>
			<path class="st18" d="M296.7,167.2c0.4,0.2-7.3-6.8-14.1,10.1c0,0,3.5,1.4,1.1,3.6s-5.9,3.8-3.6,4.3s5.6,1.2,8.3-2.6
				c0,0,1.8-3.5-0.2-6S296.2,166.9,296.7,167.2z"/>
			<path class="st17" d="M288.5,182.5c-0.8,1.6-2.3,2.8-4.1,3.2c-0.9,0.2-1.8,0.1-2.7-0.1c-0.4-0.1-0.9-0.2-1.3-0.3
				c-0.2-0.1-0.4-0.1-0.6-0.2c-0.1-0.1-0.2-0.1-0.3-0.2c-0.1-0.1-0.1-0.3-0.1-0.4c0.2-0.4,0.5-0.7,0.9-1l1-0.8
				c0.7-0.6,1.3-1.1,2-1.7s1.2-1.2,0.9-1.8c-0.4-0.7-1-1.2-1.7-1.4l-0.4-0.2l0.1-0.3c0.6-1.6,1.4-3.1,2.2-4.6c0.8-1.5,1.8-2.9,3-4.2
				c1.2-1.3,2.7-2.2,4.4-2.6c0.9-0.1,1.7-0.1,2.6,0.2c0.8,0.3,1.5,0.7,2.3,1.1v0.1c-0.4-0.2-0.8-0.3-1.2-0.5
				c-0.4-0.2-0.8-0.3-1.2-0.4c-0.8-0.2-1.6-0.2-2.4-0.1c-1.6,0.4-3,1.3-4.1,2.6c-1.1,1.3-2,2.6-2.8,4.1c-0.8,1.5-1.5,3-2.1,4.6
				l-0.2-0.5c0.4,0.2,0.8,0.4,1.2,0.7c0.4,0.3,0.7,0.7,0.9,1.2c0.2,0.5,0.1,1.1-0.3,1.5c-0.3,0.4-0.6,0.7-1,1
				c-0.7,0.5-1.4,1-2.2,1.5c-0.4,0.2-0.7,0.5-1.1,0.8s-0.7,0.5-0.8,0.9c0,0.1,0.1,0.3,0.3,0.3c0.2,0.1,0.4,0.1,0.6,0.1
				c0.4,0.1,0.9,0.1,1.3,0.2c0.8,0.1,1.7,0.1,2.5-0.1C285.9,184.8,287.4,183.8,288.5,182.5L288.5,182.5z"/>
			<path class="st24" d="M189.2,310.3c0,0-55,2.1-56.4,2.3c-8.2,1-17.8,4.5-24.5,10.9s-2.9,9.6-0.7,14c2.7,5.3,15.6,14.3,30.6,10.2
				s47.5-19.1,55-23.7l10.8-6.7"/>
			<path class="st37" d="M245.6,292.3c4.1-2,13.5,0.7,18.3,4.8c-2.7-2.4-6.2-3.7-9.8-3.7c-2.4-0.2-4.8,0.4-6.8,1.7
				c-0.7,0.5-1.2,1.1-1.7,1.8c0-0.2,0-0.3,0-0.5C245.6,295,245.6,293.7,245.6,292.3z"/>
			<path class="st38" d="M224.2,291.8L224.2,291.8"/>
			<path class="st38" d="M243.7,303c-1.7-2.2-4.3-3.4-7-3.4c-2.3-0.1-4.6,0.4-6.6,1.4c-1.8,0.9-3.4,2.2-4.6,3.8
				c-0.7,0.9-1.3,1.9-1.8,3c-0.4,0.9-0.8,1.9-1,2.9c-0.6,2.4-0.7,4.8-0.5,7.2c0.3,2.2,0.9,4.4,1.8,6.5c0.9,2.3,1.9,5.1,0.7,9
				c0.5-1.5,0.4-3.2-0.3-4.7c-1-1.9-1.8-3.8-2.6-5.8c-0.8-2.6-1.2-5.2-1.1-7.9c0.1-2.4,0.6-4.8,1.5-7.1c0.8-2.2,2.1-4.2,3.6-6
				c1.4-1.6,3.3-2.8,5.3-3.4c2.1-0.6,4.3-0.6,6.4-0.2c1.6,0.3,3.1,1.1,4.3,2.3l-0.3-0.3c-3-2.8-7.1-3.7-10-4.9s-4.7-2.6-6.9-3.4
				l-0.3-0.1c-4.3-5.9-6.9-7-10.8-8.6s-9.1-3.5-18,1.7c0.9-2.2,3.8-3.7,7.1-4.5c3-0.7,6.1-0.6,9.1,0.1c0.7,0.2,1.3,0.4,2,0.7
				c4.2,1.7,7.9,4.4,10.7,7.9c0.1-1.5,0.2-2.9,0.3-4.4c0.3-2.5,0.7-4.9,1.2-7.4c0.5-2.4,1.2-4.7,2-7c0.4-1.1,0.9-2.2,1.4-3.3
				s1-2.1,1.6-3.1c0.4-0.8,0.9-1.5,1.4-2.2l0.2-0.2c0.2-0.3,0.5-0.6,0.7-0.9c0.1-0.1,0.2-0.2,0.3-0.3l0.1-0.2l0.4-0.5l0.3-0.3
				l0.2-0.2v0l0,0l0.1,0l0.1-0.1l0,0c0.4-0.3,0.7-0.6,1.1-0.8s0.7-0.5,1.1-0.7s0.6-0.3,0.8-0.4c0.3-0.1,0.5-0.2,0.8-0.3l0.6-0.2
				l0.5-0.1c0.3-0.1,0.6-0.1,0.8-0.1h1c0.3,0,0.7,0.1,1,0.2h0.2l0.2,0c0.3,0.1,0.6,0.2,0.9,0.3c0.3,0.1,0.6,0.3,0.9,0.5
				c0.3,0.2,0.6,0.4,0.9,0.6c0.2,0.2,0.5,0.4,0.7,0.5c0.2,0.2,0.4,0.4,0.6,0.5c0.2,0.2,0.4,0.4,0.5,0.6l0.1,0.1l0.2,0.3l0.1,0.2
				c0,0,0,0.1,0.1,0.1l0.1,0.2c0.2,0.3,0.3,0.7,0.4,1c0,0.1,0,0.1,0,0.2c0,0.1,0,0.1,0,0.2v0.1c0.1,0.8,0.1,0.9,0.1,1
				c0,0.1,0,0.1,0,0.2v0.6c0,0.1,0,0.2,0,0.4c0,0.7,0,1.3-0.1,2c0,0,0,0.1,0,0.1v0.1c0,0.1,0,0.1,0,0.2s0,0.2,0,0.4l-0.1,0.5
				c0,0.1,0,0.3-0.1,0.5s-0.1,0.6-0.1,0.9c-0.1,0.7-0.3,1.5-0.4,2.2c-0.2,1.4-0.4,2.7-0.6,4.1c-0.1,0.4-0.1,0.8-0.2,1.2
				c-0.2,1.8-0.4,3.6-0.6,5.3s-0.3,3.6-0.4,5.3s-0.2,3.5-0.2,5.3c0,1.4,0,2.8,0,4.1c0,0.1,0,0.3,0,0.5
				C244.3,298.7,243.7,300.8,243.7,303z"/>
			<path class="st39" d="M243.7,303c0.4-4.2,1.8-6.5,3.6-7.8c2-1.3,4.4-1.9,6.8-1.7c3.1,0,6,1,8.5,2.7c3.3,2.5,5.9,5.8,7.6,9.5
				c2,4.1,3.2,8.7,1.3,14.4c-1-0.5-0.9-2.5-1.3-5.4c-0.4-1.6-0.8-3.3-1.4-4.9c-0.5-1.6-1.1-3.2-1.8-4.7c-1.6-3-3.9-5.7-6.7-7.7
				c-1.5-1-3.1-1.7-4.9-2c-0.3-0.1-0.7-0.1-1-0.1c-0.7-0.1-1.3-0.1-2,0c-0.3,0.1-0.7,0.1-1,0.3c-0.3,0.1-0.6,0.2-0.9,0.4
				c-0.3,0.2-0.6,0.4-0.8,0.7c-0.2,0.2-0.4,0.5-0.6,0.8c-0.2,0.3-0.3,0.7-0.5,1c-0.4,1.3-0.6,2.6-0.5,4c0.1,1.4,0.3,2.7,0.6,4
				c0.1,0.3,0.1,0.6,0.2,1s0.2,0.8,0.3,1.2s0.3,1,0.5,1.6c0.4,1.1,0.7,2.1,1.1,3.1c0.3,0.8,0.6,1.5,0.9,2.2s0.6,1.4,0.9,2.1
				s0.6,1.2,0.9,1.9c0.2,0.5,0.4,0.9,0.5,1.2c0.3,0.7,0.6,1.4,0.9,2.1c0.4,0.9,0.7,1.7,1,2.5c0.4,1,0.7,2,1,3c0,0.1,0.1,0.2,0.1,0.3
				s0.1,0.3,0.1,0.4l0.1,0.4c0,0.2,0.1,0.3,0.1,0.5s0.1,0.3,0.1,0.4c0,0.2,0.1,0.4,0.1,0.6c0,0.4,0,0.9,0,1.3c0,0.1,0,0.1,0,0.2
				c-0.1-0.2-0.2-0.4-0.3-0.6c-0.3-0.4-0.5-0.9-0.7-1.3c-0.1-0.3-0.4-0.6-0.7-0.7c-0.3-0.1-0.5,0-0.9,0.4s-0.8,0.8-1.3,1.4
				c-0.6,0.5-1.1,1-1.6,1.5c-0.3,0.3-0.4,0.8-0.3,1.2c0.2,0.3,0.3,0.7,0.4,1.1c0.1,0.4,0,0.9,0.1,1.1s0.3,0.2,0.8,0.3s1,0.1,1.5,0.1
				l-0.3,0.1c-0.1,0.1-0.3,0.1-0.4,0.2c-0.2,0.1-0.5,0.2-0.7,0.3h-0.2l-0.5,0.1c-0.2,0-0.4,0.1-0.6,0.1c-0.3,0-0.6,0.1-0.9,0.1h-1
				c-0.8,0-1.6,0-2.5-0.1c-0.4,0-0.7-0.1-1.1-0.2s-0.9-0.2-1.3-0.3c-0.6-0.1-1.2-0.3-1.8-0.5c-0.4-0.1-0.8-0.3-1.1-0.4
				s-0.7-0.3-1.1-0.5s-0.8-0.4-1.2-0.7l-0.1-0.1c-0.8-0.4-1.5-0.9-2.2-1.5c-0.7-0.6-1.4-1.2-2.1-1.8c-0.3-0.3-0.6-0.6-0.8-0.9
				c-0.4-0.5-0.9-1-1.3-1.5s-1-1.3-1.5-2c-0.7-1-1.3-2-1.9-3c-0.4-0.6-0.7-1.2-1-1.8s-0.6-1.2-0.9-1.8s-0.6-1.2-0.9-1.9
				s-0.5-1.2-0.8-1.9c-0.5-1.2-1-2.5-1.4-3.8c-0.1-0.3-0.2-0.6-0.3-0.9c-0.4-1.4-0.8-2.8-1.2-4.2c-0.1-0.2-0.1-0.5-0.2-0.7
				c0.5-1.1,1.1-2.1,1.8-3c1.2-1.6,2.8-2.9,4.6-3.8c2.1-1,4.3-1.5,6.6-1.4C239.4,299.6,242,300.8,243.7,303z"/>
			<path class="st39" d="M224.2,291.8c-4.3-5.9-6.9-7-10.8-8.6s-9.1-3.5-18,1.7c6.5-1.3,18.6,0.6,24.3,6.3
				C221.3,291.1,222.8,291.3,224.2,291.8z"/>
			<path class="st40" d="M258.2,333.4c-0.1-0.5-0.3-1-0.6-1.4c-0.3-0.4-0.5-0.9-0.7-1.3c-0.1-0.3-0.4-0.6-0.7-0.7
				c-0.3-0.1-0.5,0-0.9,0.4s-0.8,0.8-1.3,1.4c-0.6,0.5-1.1,1-1.6,1.5c-0.3,0.3-0.4,0.8-0.3,1.2c0.2,0.3,0.3,0.7,0.4,1.1
				c0.1,0.4,0,0.9,0.1,1.1s0.3,0.2,0.8,0.3c0.6,0.1,1.2,0.1,1.8,0.1c0.4,0,0.8-0.2,1.1-0.5c0.3-0.3,0.4-0.6,0.7-0.9
				c0.3-0.3,0.6-0.6,0.9-0.9C258,334.4,258.2,333.9,258.2,333.4z"/>
			<path class="st16" d="M185.5,285.4c0,0,7.4-14.4,10-16.3s19,0.4,21.6,2.5s-0.8,5.3-8.7,4.3s-10,2.8-10,2.8l-4.4,8.4L185.5,285.4z
				"/>
			<path class="st17" d="M183.9,287.4c2.8-4.9,5.6-9.7,8.6-14.5c0.7-1.2,1.5-2.4,2.4-3.5c0.6-0.5,1.3-0.8,2-0.9
				c0.7-0.1,1.4-0.2,2.1-0.3c2.8-0.1,5.6,0,8.4,0.5c2.8,0.4,5.6,0.9,8.3,1.7c0.7,0.2,1.4,0.5,2,1c0.3,0.2,0.6,0.5,0.8,0.9
				c0.2,0.4,0.2,0.9,0.1,1.3c-0.3,0.8-0.8,1.4-1.4,1.8c-0.6,0.4-1.3,0.7-2,0.9c-0.7,0.2-1.4,0.3-2.2,0.3c-0.7,0-1.4-0.1-2.1-0.2
				c-1.4-0.1-2.8-0.2-4.2-0.1c-1.4,0-2.8,0.1-4.2,0.4c-0.7,0.1-1.3,0.3-2,0.5c-0.7,0.2-1.3,0.5-1.8,1l-0.1,0
				c0.5-0.5,1.1-0.9,1.8-1.2c0.6-0.3,1.3-0.5,2-0.6c1.4-0.3,2.8-0.5,4.2-0.5c1.4-0.1,2.8-0.1,4.2,0c0.7,0,1.4,0.2,2.1,0.1
				c0.7,0,1.3-0.1,2-0.3c0.6-0.2,1.2-0.4,1.8-0.8c0.5-0.3,0.9-0.8,1.1-1.4c0.1-0.6-0.2-1.1-0.7-1.4c-0.6-0.4-1.2-0.7-1.8-0.9
				c-2.7-0.8-5.4-1.4-8.1-1.8c-2.7-0.5-5.5-0.6-8.3-0.6c-0.7,0-1.4,0.1-2.1,0.2c-0.7,0.1-1.3,0.3-1.8,0.8c-0.9,1.1-1.7,2.2-2.4,3.4
				c-3.1,4.7-5.9,9.5-8.8,14.4L183.9,287.4z"/>
			<path class="st16" d="M185,314.2c0,0-2.7-18.8-3.6-21.8c-1.2-3.6,2.3-7.4,4.5-9.5c0.9-0.9,1.6-1.5,1.7-1.6
				c0.3-0.5,13.4-4.6,13.4-4.6s12.3,0.7,14.6,1.7c2.9,1.5,5.6,3.2,8.3,5.1c0,0,3.4,6-7.3,3.7c-6.1-1.4-12.4-1.8-18.6-1.4l4,6.8
				l-0.6,9.9c0,0,9.4,14.4-3.4,17"/>
			<path class="st17" d="M200.6,300.8c1,1.7,1.9,3.5,2.7,5.3c0.4,0.9,0.8,1.8,1.1,2.8c0.2,0.5,0.3,1,0.4,1.5c0,0.3,0.1,0.5,0.1,0.8
				v0.7c0.1,1,0,2-0.2,3c-0.2,1-0.6,2-1.3,2.8c-0.7,0.8-1.5,1.4-2.5,1.8c-0.5,0.2-0.9,0.4-1.4,0.5c-0.5,0.1-1,0.2-1.5,0.3v-0.1
				c0.9-0.3,1.8-0.8,2.6-1.3c0.8-0.5,1.6-1.1,2.1-1.8c1.1-1.6,1.6-3.5,1.5-5.4V311c0-0.2,0-0.5,0-0.7c-0.1-0.5-0.2-0.9-0.4-1.3
				c-0.3-0.9-0.6-1.9-1-2.8c-0.7-1.8-1.6-3.6-2.5-5.4L200.6,300.8z"/>
			<path class="st16" d="M193.8,286.6c0,0,11.4-0.8,14.1,0.8s7.1,3.9,8.1,5c1,2.9,1,6.1,0,9c0,0-1.6,1.9-2.5,0.6
				c-0.9-1.8-1.7-3.7-2.3-5.7c0,0-7.1-2.8-12.2-0.8"/>
			<path class="st16" d="M197.6,303.7c0,0,9.2-3.6,9.8-2.7c1.6,2.1,5.4,2.8,6,0.9c0.8-2.8-2.3-5.7-2.3-5.7
				c-6.3-3.9-14.1-0.7-14.1-0.7"/>
			<path class="st17" d="M191.1,279.9l9.8-3.2l0,0c4.1,0.2,8.1,0.4,12.2,1c0.5,0.1,1,0.2,1.5,0.3c0.3,0.1,0.5,0.1,0.8,0.2
				c0.2,0.1,0.5,0.2,0.7,0.4c0.9,0.5,1.8,1,2.6,1.5c1.7,1.1,3.5,2.1,5.2,3.2h0.1l0,0c0.5,0.6,0.8,1.4,0.8,2.2c0,0.4-0.1,0.8-0.4,1.2
				c-0.3,0.3-0.6,0.6-0.9,0.8c-0.7,0.3-1.4,0.5-2.2,0.6c-0.7,0-1.5,0-2.2,0c-1.4-0.1-2.9-0.3-4.3-0.6c-0.7-0.1-1.4-0.3-2.1-0.5
				c-0.7-0.2-1.4-0.3-2.1-0.4c-2.8-0.3-5.7-0.5-8.5-0.4c-1.4,0-2.9,0-4.3,0.1c-0.7,0-1.4,0.1-2.1,0.1c-0.7,0-1.4,0.2-2.1,0.4v-0.1
				c0.7-0.2,1.4-0.4,2.1-0.5c0.7-0.1,1.4-0.2,2.1-0.3c1.4-0.1,2.9-0.2,4.3-0.3c2.9-0.2,5.8-0.1,8.6,0.2c0.7,0.1,1.5,0.2,2.2,0.4
				c0.7,0.2,1.4,0.4,2.1,0.5c1.4,0.3,2.8,0.5,4.2,0.6c0.7,0.1,1.4,0.1,2.1,0.1c0.7,0,1.3-0.2,1.9-0.5c0.6-0.2,1-0.8,1-1.4
				c0-0.7-0.2-1.3-0.6-1.8l0.1,0.1c-1.7-1.1-3.4-2.2-5.1-3.3c-0.9-0.5-1.7-1.1-2.6-1.6c-0.9-0.5-1.8-0.7-2.8-0.8
				c-2-0.3-4-0.5-6.1-0.7s-4.1-0.4-6.1-0.5l0,0L191.1,279.9L191.1,279.9z"/>
			<path class="st17" d="M192.7,286.9c2.5-0.3,5.1-0.6,7.6-0.6c1.3,0,2.6,0,3.8,0.1c1.3,0,2.6,0.4,3.8,0.9l0,0
				c1.7,0.8,3.4,1.7,5.1,2.7c0.8,0.5,1.6,1,2.4,1.6c0.8,0.6,1.4,1.5,1.6,2.5c0.3,1.9,0.2,3.9-0.3,5.8c-0.1,0.5-0.2,0.9-0.4,1.4
				c-0.1,0.5-0.4,1-0.7,1.4c-0.2,0.3-0.5,0.4-0.8,0.5c-0.3,0-0.6-0.1-0.9-0.3c-0.2-0.1-0.4-0.3-0.6-0.5l-0.1-0.1
				c-0.1-0.1-0.1-0.1-0.2-0.2c-0.1-0.1-0.2-0.3-0.2-0.4c-0.2-1-0.2-1.9-0.5-2.8c-0.3-0.9-0.7-1.6-1.4-2.3c-1.5-1.1-3.2-1.7-5.1-1.8
				c-3.8-0.2-7.6,0.2-11.2,1.3v-0.1c3.6-1.4,7.4-2,11.3-1.8c1,0.1,1.9,0.2,2.9,0.5c1,0.3,1.9,0.7,2.6,1.4c0.7,0.7,1.3,1.6,1.6,2.6
				c0.2,0.9,0.4,1.9,0.5,2.8c0,0.1,0,0.2,0.1,0.2c0,0,0,0,0,0.1l0.1,0.1c0.2,0.1,0.4,0.3,0.5,0.4c0.4,0.2,0.5,0.3,0.8,0
				c0.5-0.8,0.8-1.6,1-2.5c0.5-1.8,0.6-3.7,0.3-5.5c-0.1-0.4-0.3-0.9-0.5-1.3c-0.3-0.4-0.6-0.7-0.9-1c-0.7-0.6-1.5-1.1-2.3-1.6
				c-1.6-1-3.3-1.9-5-2.7l0,0c-1.1-0.5-2.4-0.8-3.6-0.9c-1.3-0.1-2.5-0.2-3.8-0.1c-2.5,0-5.1,0.2-7.6,0.5L192.7,286.9z"/>
			<path class="st17" d="M193.1,296.6c1.1-0.8,2.3-1.4,3.7-1.7c1.3-0.3,2.7-0.5,4-0.5c2.7-0.1,5.4,0.1,8.1,0.5h0.1h0.1
				c1,0.8,1.8,1.8,2.6,2.8c0.4,0.5,0.8,1,1.1,1.6c0.3,0.6,0.6,1.2,0.6,1.9c0,0.4-0.1,0.7-0.2,1.1c-0.1,0.3-0.4,0.6-0.6,0.9
				c-0.3,0.3-0.7,0.4-1.1,0.4c-0.4,0-0.7,0-1.1-0.1c-1.2-0.5-2.3-1.3-3.2-2.3l0.2,0.1c-0.8-0.1-1.6-0.1-2.4,0
				c-0.8,0.1-1.6,0.2-2.4,0.5c-1.6,0.5-2.8,1.7-3.5,3.2h-0.1c0.2-0.8,0.7-1.6,1.3-2.2c0.6-0.6,1.3-1.1,2.1-1.4
				c0.8-0.3,1.6-0.5,2.5-0.6c0.9-0.1,1.7-0.2,2.6,0h0.1l0.1,0.1c0.8,0.9,1.8,1.6,2.9,2c0.5,0.2,1,0.2,1.4-0.1
				c0.4-0.4,0.6-0.9,0.6-1.4c-0.2-1.2-0.7-2.3-1.5-3.2c-0.8-1-1.6-1.9-2.5-2.7l0.1,0.1c-2.6-0.5-5.3-0.7-8-0.7c-1.3,0-2.7,0.1-4,0.4
				C195.5,295.4,194.3,295.9,193.1,296.6L193.1,296.6z"/>
			<path class="st17" d="M190.2,280.3c-0.8,0.2-1.6,0.5-2.4,0.9c-0.6,0.5-1.3,1.1-1.9,1.7c-1.2,1.1-2.3,2.4-3.3,3.9
				c-1,1.4-1.4,3-1.3,4.7c0.1,1.7,0.4,3.4,0.6,5c0.5,3.4,1.2,6.7,1.7,10s1.1,6.7,1.6,10.1h-0.1c-0.9-3.3-1.6-6.6-2.2-10
				s-1.1-6.7-1.6-10.1c-0.2-1.7-0.4-3.4-0.5-5.1c-0.1-0.9,0.1-1.8,0.3-2.6c0.3-0.8,0.7-1.6,1.2-2.3c1-1.4,2.1-2.7,3.4-3.8
				c0.6-0.6,1.3-1.1,2-1.6c0.8-0.4,1.6-0.7,2.4-0.9L190.2,280.3z"/>
			<path class="st37" d="M224.5,333.3c-9.8-4.4-13.3-8.5-15.4-12.6c-2-3.7-2.9-7.9-2.7-12.1c0.2-3.8,1.4-7.4,3.5-10.6
				c1.7-2.7,4.3-4.8,7.3-6c2.4-0.9,5-0.9,7.4,0c2.2,0.8,4,2.2,6.9,3.4s6.9,2.1,10,4.9l0.3,0.3c-1.2-1.2-2.7-2-4.3-2.3
				c-2.1-0.4-4.3-0.4-6.4,0.2c-2.1,0.6-3.9,1.8-5.3,3.4c-1.5,1.8-2.8,3.8-3.6,6c-0.9,2.2-1.4,4.6-1.5,7.1c0,2.7,0.3,5.4,1.1,7.9
				c0.8,2,1.6,3.9,2.6,5.8C224.9,330,225,331.7,224.5,333.3z"/>
			<path class="st24" d="M261.6,308.8c0,0,18.6,7.9,46.7,10.9s31.4,11.1,34.3,14.4s6,13.4-6.8,23.5c-12.5,9.8-36.6-4.5-36.6-4.5
				s-30.5-15.8-36.3-20.4C262.9,332.6,242.4,313.5,261.6,308.8z"/>
			<path class="st16" d="M251.9,295.9c0,0,1.8-0.1,5.6,4.1s12.8,13.1,12.8,13.1s7,7.9-1.2,5.7s-21-17.1-21-17.1L251.9,295.9z"/>
			<path class="st16" d="M250,299.4c0,0-2.8-0.5-17.4,0s-17,8.5-12.6,8.8s11-1.3,11-1.3l10,1.8c0,0,2.8,0.8-2.7,1
				c-4.1,0.1-16.5,0.9-17.3,1.2c-3.4,1.1-7.3,1.7-7.3,5.3s5.6,1.7,8.9,1.7s-9,0-3.7,4.1c3.5,2.7,12.9,4.3,12.9,4.3s-8.9-1.3-7.2,3.2
				c1.4,3.6,17.7,8.4,24.5,8.1c6-0.5,11.9-1.3,17.8-2.4l9.6-2.3l-9.2-20.6L250,299.4z"/>
			<path class="st17" d="M251.8,299.4l-9.6,0.1l0,0c-2.4-0.2-4.7-0.2-7.1-0.1c-2.4,0-4.7,0.3-7,0.9c-2.3,0.5-4.5,1.2-6.7,2.1
				c-1,0.4-1.9,1.1-2.6,2c-0.5,0.9-0.7,2.1-0.3,3.1v-0.1c0,0,0.1,0.1,0.2,0.1s0.2,0.1,0.3,0.2c0.2,0.1,0.5,0.2,0.7,0.2
				c0.5,0.1,1,0.2,1.5,0.2c1.1,0,2.1,0,3.2-0.2c1.1-0.1,2.1-0.3,3.2-0.5s2.1-0.5,3.2-0.7h0.1h0.1l5,1l5,1.1l0,0l4,1.2v0.1l-4.1-0.9
				l0,0l-5-0.8l-5-0.8h0.2c-1.1,0.3-2.1,0.6-3.2,0.8s-2.2,0.4-3.3,0.6c-1.2,0.2-2.3,0.2-3.5,0.2c-0.6,0-1.1-0.1-1.7-0.3
				c-0.3-0.1-0.6-0.2-0.9-0.3c-0.3-0.2-0.6-0.4-0.9-0.7l0,0v-0.1c-0.3-1.3-0.1-2.6,0.5-3.8c0.8-1,1.8-1.8,3-2.3
				c2.2-0.8,4.6-1.5,6.9-2c2.3-0.5,4.7-0.8,7.1-0.8c2.4,0,4.8,0.1,7.1,0.3l0,0L251.8,299.4L251.8,299.4z"/>
			<path class="st17" d="M241.7,309.5c-2.7,0.3-5.3,0.5-8,0.7c-2.7,0.2-5.3,0.3-8,0.3c-1.3,0-2.6,0.1-3.9,0.4
				c-1.3,0.3-2.6,0.7-3.8,1.2c-1.2,0.5-2.3,1.1-3.3,2c-0.9,0.8-1.2,2.1-0.6,3.2v0.2c0,0,0.1,0.2,0.2,0.2c0.1,0.1,0.3,0.2,0.4,0.3
				c0.3,0.1,0.7,0.2,1,0.3c0.8,0.1,1.6,0.1,2.3,0.1c0.4,0,0.8-0.1,1.2-0.1s0.8-0.1,1.2-0.2c0.8-0.1,1.6-0.3,2.4-0.5h0.2
				c3.1,0.1,6.3,0.4,9.4,0.5c0.8,0,1.6,0.1,2.4,0.2s1.6,0.2,2.3,0.3c1.5,0.3,3.1,0.4,4.7,0.3v0.1c-0.8,0.2-1.6,0.2-2.4,0.2
				c-0.8,0-1.6-0.1-2.4-0.1s-1.6-0.1-2.3-0.2s-1.6,0-2.4-0.1c-3.1-0.1-6.3-0.2-9.4-0.3h0.1c-0.8,0.2-1.6,0.3-2.4,0.4
				c-0.8,0.1-1.6,0.2-2.5,0.3c-0.8,0.1-1.7,0-2.5-0.1c-0.4-0.1-0.9-0.2-1.3-0.4c-0.5-0.2-0.9-0.7-1-1.2v0.2
				c-0.4-0.7-0.5-1.5-0.3-2.2c0.2-0.7,0.6-1.4,1.1-1.9c1-0.9,2.2-1.6,3.5-2.1c1.3-0.5,2.6-0.9,3.9-1.1c1.3-0.3,2.7-0.4,4.1-0.3
				c2.7,0.1,5.3,0.1,8-0.1C236.3,309.8,239,309.6,241.7,309.5L241.7,309.5z"/>
			<path class="st17" d="M220.3,318.3c-0.5,0.1-1,0.3-1.4,0.6c-0.4,0.2-0.8,0.6-0.9,1.1c0,0.5,0.2,0.9,0.6,1.2
				c0.4,0.3,0.8,0.6,1.2,0.9c1.8,1,3.7,1.8,5.7,2.3c2,0.5,4,0.8,6.1,1.2s4.1,0.6,6.2,0.9v0.1c-2.1,0.2-4.2,0.2-6.3,0
				c-2.1-0.3-4.2-0.7-6.2-1.4c-2-0.6-4-1.5-5.8-2.7c-0.4-0.3-0.9-0.6-1.2-1c-0.4-0.4-0.7-1-0.6-1.5c0.2-0.5,0.6-1,1.1-1.2
				C219.3,318.6,219.8,318.4,220.3,318.3L220.3,318.3z"/>
			<path class="st17" d="M230.8,326c-1.2-0.2-2.4-0.2-3.6,0.1c-1.2,0.2-2.1,1-2.7,2c-0.1,0.6,0,1.1,0.4,1.5c0.4,0.5,0.8,0.9,1.3,1.2
				c1,0.7,2,1.3,3.1,1.8c1.1,0.5,2.2,0.9,3.4,1.3c0.6,0.2,1.2,0.3,1.8,0.5l1.7,0.5c2.3,0.7,4.6,1.3,7,1.6c4.7,0.6,9.6,0.5,14.3-0.5
				c4.8-0.8,9.5-1.5,14.3-2.4v0.1c-2.3,0.8-4.6,1.4-7,2c-2.4,0.5-4.7,1-7.1,1.4c-7.2,1.4-14.7,0.9-21.6-1.6l-1.7-0.6
				c-0.6-0.2-1.1-0.3-1.7-0.5c-1.2-0.4-2.3-0.8-3.4-1.4c-1.1-0.5-2.1-1.1-3.1-1.8c-0.5-0.4-0.9-0.8-1.3-1.3
				c-0.4-0.5-0.6-1.2-0.4-1.8c0.6-1.1,1.7-1.9,2.9-2.1C228.4,325.7,229.6,325.7,230.8,326L230.8,326z"/>
			<path class="st17" d="M251.7,295.9c1.1,0.1,2.2,0.5,3.1,1.3c0.9,0.7,1.7,1.5,2.5,2.3l4.8,4.7c1.6,1.6,3.3,3.1,4.8,4.8
				c0.8,0.8,1.5,1.7,2.2,2.5s1.4,1.8,2.1,2.7l-0.1,0.1c-0.9-0.7-1.7-1.5-2.5-2.3s-1.6-1.5-2.5-2.3c-1.6-1.6-3.1-3.3-4.6-4.9
				l-4.6-4.9c-0.7-0.8-1.5-1.6-2.3-2.4c-0.8-0.8-1.8-1.3-2.9-1.4L251.7,295.9z"/>
		</g>
	</g>
</g>
<path class="st41" d="M167.8,38.5c0.7,0.4,0.2,0.1-0.3-0.3c-0.5-0.4-1-0.8-1.6-1c-0.9-0.4-1.8-0.8-2.8-1.1c-2.2-0.4-4.5-0.7-6.8-0.7
	c-5.2-0.3-9.9,2-14.4,4.7c-4,2.5-7.5,5.7-10.4,9.4c-1.7,2.2-3,4.7-3.8,7.3c-0.4,1.2-0.7,2.4-0.7,3.6c0.1,1.1,0.3,2.1,0.5,3.2
	c0,1.4,1.1,2.6,2.5,2.6c0.5,0,0.9-0.1,1.3-0.3c0.6-0.3,2-0.4,2.8-0.8c0.8-0.4,1.5-0.8,2.2-1.3c0.4-0.3,3.5-2.7,1.2-1.3
	c1.5-0.8,2.9-1.8,4.2-2.9c1.1-1,2.3-1.9,3.6-2.7c1.6-1,3.1-2.1,4.7-3c3.7-2.3,5.9-2.8,9.6-5.4c2.3-1.7,6.3-2.8,8.1-5.4
	c1.3-0.9,1.6-2.6,0.7-3.9C168.4,38.9,168.1,38.7,167.8,38.5z"/>
<path class="st42" d="M288.8,386c5.6,1.8,11.9,1.6,17.7,1.5c2.9-0.1,5.9-0.3,8.8-0.8c3-0.4,6.4-0.9,9-2.2c1.8-0.9,2.5-3,1.7-4.8
	c-0.5-1.1-1.5-1.8-2.7-2c-2.8-0.4-5.6-0.5-8.4-0.3c-2.9,0-5.8,0.1-8.6,0.4L288.8,386z"/>
<path class="st42" d="M360.5,364.3c-0.1-0.2-0.3-0.4-0.4-0.5c-1-0.7-2.2-1-3.4-0.7c-4.3,0.8-7,3.3-10.3,5.6c-2.5,1.8-5.9,2.6-8.7,4
	c-3.3,1.5-6.5,3.3-7.5,6.6c-0.4,1.2,0,2.6,1,3.4c2.9,2.5,6.9,2.4,10.6,1.6c3.5-0.7,6.9-2,10.1-3.6c5.4-3,11.2-9.6,9-15.6
	C360.7,364.8,360.6,364.6,360.5,364.3z"/>
<path class="st43" d="M357.8,65.8c-5.4-3.3-11.2-5.8-17.3-7.3c-10.8-3-22-4.1-33.1-4.9c-17-1.9-34.1-2.8-51.2-2.8
	c-19.8-0.2-39.6,0.7-59.4,2.7c-16.1,1.6-32.5,3.8-48.2,8.2h-0.1c-0.1,0-0.2,0-0.2,0.1l-0.5,0.2c-5.2,1.5-10.5,3.5-12.9,9
	c-2.1,4.9-2,10.4,0.1,15.3c5,12,19.3,15.2,30.3,16.7c14.1,2,28.6,2,42.9,2.3s28.8,0.1,43.2-0.4c28.8-1,57.6-3.6,86.2-7.9
	c6.3-1,12.6-2.2,18.4-4.8c5.1-2.3,11-6,10.9-12.6C366.9,73.6,362.3,68.8,357.8,65.8z"/>
</svg>
