<svg id="Layer_1" data-name="Layer 1" xmlns="http://www.w3.org/2000/svg" xmlns:xlink="http://www.w3.org/1999/xlink" width="160" height="160" viewBox="0 0 160 160">
  <defs>
    <style>
      .cls-1, .cls-69, .cls-70 {
        fill: none;
      }

      .cls-2, .cls-23 {
        opacity: 0.3;
      }

      .cls-3 {
        opacity: 0.91;
        fill: url(#radial-gradient);
      }

      .cls-4 {
        clip-path: url(#clip-path);
      }

      .cls-5 {
        fill: #a0d8d0;
      }

      .cls-6 {
        fill: #859e7b;
      }

      .cls-7 {
        fill: url(#linear-gradient);
      }

      .cls-8 {
        fill: url(#linear-gradient-2);
      }

      .cls-9 {
        fill: #202658;
      }

      .cls-10 {
        fill: #121011;
      }

      .cls-11 {
        fill: #1b1e28;
      }

      .cls-12 {
        fill: url(#linear-gradient-3);
      }

      .cls-13 {
        fill: url(#linear-gradient-4);
      }

      .cls-14 {
        fill: #ce9373;
      }

      .cls-15 {
        fill: url(#linear-gradient-5);
      }

      .cls-16 {
        fill: url(#linear-gradient-6);
      }

      .cls-17 {
        fill: #8b4e29;
      }

      .cls-18 {
        fill: #c87942;
      }

      .cls-19 {
        fill: #d1a787;
      }

      .cls-20 {
        fill: url(#linear-gradient-7);
      }

      .cls-21 {
        fill: url(#linear-gradient-8);
      }

      .cls-22 {
        fill: url(#linear-gradient-9);
      }

      .cls-23 {
        fill: #0c0d0f;
      }

      .cls-24 {
        fill: url(#linear-gradient-10);
      }

      .cls-25 {
        fill: #485672;
      }

      .cls-26 {
        opacity: 0.11;
      }

      .cls-27 {
        fill: #4f4e4e;
      }

      .cls-28 {
        fill: #449f90;
      }

      .cls-29 {
        fill: #afddd6;
      }

      .cls-30 {
        fill: #8fd1c5;
      }

      .cls-31 {
        fill: #6d1549;
      }

      .cls-32 {
        fill: #81235e;
      }

      .cls-33 {
        fill: url(#linear-gradient-11);
      }

      .cls-34 {
        fill: #af5286;
      }

      .cls-35 {
        fill: #88406e;
      }

      .cls-36 {
        fill: url(#linear-gradient-12);
      }

      .cls-37 {
        fill: #0c8479;
      }

      .cls-38 {
        fill: #9f5f32;
      }

      .cls-39 {
        fill: #29306e;
      }

      .cls-40 {
        fill: #9d527e;
      }

      .cls-41 {
        fill: #b7749d;
      }

      .cls-42, .cls-66, .cls-67 {
        fill: #f1ad85;
      }

      .cls-42, .cls-66, .cls-69, .cls-70 {
        stroke: #77442a;
      }

      .cls-42, .cls-66, .cls-69, .cls-70, .cls-71, .cls-72 {
        stroke-miterlimit: 10;
      }

      .cls-42, .cls-70 {
        stroke-width: 0.5px;
      }

      .cls-43 {
        fill: #eaecec;
      }

      .cls-44 {
        fill: #64bcad;
      }

      .cls-45 {
        fill: #9f3f23;
      }

      .cls-46 {
        fill: #f16623;
      }

      .cls-47 {
        fill: #cb5428;
      }

      .cls-48 {
        fill: url(#linear-gradient-13);
      }

      .cls-49 {
        fill: url(#linear-gradient-14);
      }

      .cls-50 {
        fill: #00a69c;
      }

      .cls-51, .cls-75 {
        fill: #fff;
      }

      .cls-52 {
        fill: #d6c8ae;
      }

      .cls-53 {
        fill: #7c1a51;
      }

      .cls-54 {
        fill: url(#linear-gradient-15);
      }

      .cls-55 {
        fill: url(#linear-gradient-16);
      }

      .cls-56 {
        fill: #9e6da3;
      }

      .cls-57 {
        fill: #805983;
      }

      .cls-58 {
        fill: url(#linear-gradient-17);
      }

      .cls-59 {
        fill: #c04927;
      }

      .cls-60 {
        fill: #e98056;
      }

      .cls-61 {
        fill: url(#linear-gradient-18);
      }

      .cls-62 {
        fill: #f19776;
      }

      .cls-63 {
        fill: url(#linear-gradient-19);
      }

      .cls-64 {
        fill: url(#linear-gradient-20);
      }

      .cls-65 {
        fill: url(#linear-gradient-21);
      }

      .cls-66, .cls-69 {
        stroke-width: 0.75px;
      }

      .cls-68 {
        fill: #77442a;
      }

      .cls-71 {
        fill: #264426;
        stroke: #162b17;
      }

      .cls-71, .cls-72 {
        stroke-width: 0.25px;
      }

      .cls-72 {
        fill: #2f5c2d;
        stroke: #223d20;
      }

      .cls-73, .cls-74 {
        fill: #dddad9;
      }

      .cls-73 {
        opacity: 0.54;
      }

      .cls-75 {
        opacity: 0.33;
      }

      .cls-76 {
        opacity: 0.53;
      }

      .cls-77 {
        fill: #b1e5e0;
      }

      .cls-78 {
        opacity: 0.1;
        fill: url(#radial-gradient-2);
      }

      .cls-79 {
        fill: #4ecece;
        opacity: 0.5;
      }

      .cls-80 {
        fill: #fdffff;
        opacity: 0.6;
      }

      .cls-81 {
        opacity: 0.6;
      }
    </style>
    <radialGradient id="radial-gradient" cx="5841.38" cy="-351.15" r="584.26" gradientTransform="translate(-782.93 129.91) scale(0.15 0.15)" gradientUnits="userSpaceOnUse">
      <stop offset="0" stop-color="#fff"/>
      <stop offset="0.61" stop-color="#d3f9fc"/>
      <stop offset="0.93" stop-color="#48e5ff"/>
    </radialGradient>
    <clipPath id="clip-path">
      <ellipse class="cls-1" cx="78.32" cy="77.53" rx="74.11" ry="73.78"/>
    </clipPath>
    <linearGradient id="linear-gradient" x1="27.59" y1="30.63" x2="42.17" y2="30.63" gradientUnits="userSpaceOnUse">
      <stop offset="0" stop-color="#293b8f"/>
      <stop offset="1" stop-color="#252962"/>
    </linearGradient>
    <linearGradient id="linear-gradient-2" x1="17.01" y1="48.43" x2="37.32" y2="27.53" gradientUnits="userSpaceOnUse">
      <stop offset="0" stop-color="#293b8f"/>
      <stop offset="1" stop-color="#151945"/>
    </linearGradient>
    <linearGradient id="linear-gradient-3" x1="2.13" y1="-31.69" x2="1.22" y2="50.79" xlink:href="#linear-gradient"/>
    <linearGradient id="linear-gradient-4" x1="20.87" y1="6.09" x2="-27.03" y2="-39.41" gradientUnits="userSpaceOnUse">
      <stop offset="0" stop-color="#f8c4a0"/>
      <stop offset="0.66" stop-color="#d79f7e"/>
      <stop offset="1" stop-color="#c48b6b"/>
    </linearGradient>
    <linearGradient id="linear-gradient-5" x1="18.94" y1="-22.35" x2="17.17" y2="-69.72" xlink:href="#linear-gradient"/>
    <linearGradient id="linear-gradient-6" x1="19.4" y1="-3.79" x2="29.93" y2="11.47" xlink:href="#linear-gradient"/>
    <linearGradient id="linear-gradient-7" x1="118.54" y1="92.26" x2="120.23" y2="141.39" gradientUnits="userSpaceOnUse">
      <stop offset="0.01" stop-color="#88cbbf"/>
      <stop offset="1" stop-color="#3c8d80"/>
    </linearGradient>
    <linearGradient id="linear-gradient-8" x1="114.81" y1="139.18" x2="116.93" y2="123.68" gradientUnits="userSpaceOnUse">
      <stop offset="0.01" stop-color="#adddd7"/>
      <stop offset="1" stop-color="#46a99a"/>
    </linearGradient>
    <linearGradient id="linear-gradient-9" x1="63.39" y1="51.78" x2="36.88" y2="163.47" xlink:href="#linear-gradient-8"/>
    <linearGradient id="linear-gradient-10" x1="3.55" y1="76.62" x2="9.02" y2="109.04" gradientUnits="userSpaceOnUse">
      <stop offset="0.01" stop-color="#63baad"/>
      <stop offset="1" stop-color="#449f90"/>
    </linearGradient>
    <linearGradient id="linear-gradient-11" x1="54.11" y1="140.14" x2="53.9" y2="151.09" gradientUnits="userSpaceOnUse">
      <stop offset="0" stop-color="#fff"/>
      <stop offset="1" stop-color="#918f8f"/>
    </linearGradient>
    <linearGradient id="linear-gradient-12" x1="116.01" y1="136.07" x2="123.6" y2="136.07" gradientUnits="userSpaceOnUse">
      <stop offset="0.01" stop-color="#d4c9b3"/>
      <stop offset="1" stop-color="#00a69c"/>
    </linearGradient>
    <linearGradient id="linear-gradient-13" x1="74.26" y1="123.67" x2="93.91" y2="183.46" xlink:href="#linear-gradient-11"/>
    <linearGradient id="linear-gradient-14" x1="79.02" y1="156.22" x2="73.35" y2="140.41" xlink:href="#linear-gradient-11"/>
    <linearGradient id="linear-gradient-15" x1="51.85" y1="125.18" x2="71.5" y2="184.97" xlink:href="#linear-gradient-11"/>
    <linearGradient id="linear-gradient-16" x1="59.04" y1="152.91" x2="67.46" y2="136.21" xlink:href="#linear-gradient-11"/>
    <linearGradient id="linear-gradient-17" x1="110.67" y1="130.96" x2="111.41" y2="137.22" xlink:href="#linear-gradient-11"/>
    <linearGradient id="linear-gradient-18" x1="-153.81" y1="433.62" x2="-131.39" y2="501.86" gradientTransform="matrix(1.06, -0.2, 0.18, 0.98, 153.3, -342.17)" xlink:href="#linear-gradient-11"/>
    <linearGradient id="linear-gradient-19" x1="31.94" y1="16.67" x2="28.71" y2="25.09" xlink:href="#linear-gradient-2"/>
    <linearGradient id="linear-gradient-20" x1="34.94" y1="18.52" x2="28.55" y2="35.18" xlink:href="#linear-gradient-2"/>
    <linearGradient id="linear-gradient-21" x1="51.04" y1="-53.56" x2="16.79" y2="35.78" xlink:href="#linear-gradient-2"/>
    <radialGradient id="radial-gradient-2" cx="5396.86" cy="-339.06" r="476.18" gradientTransform="translate(-757.01 129.91) scale(0.15 0.15)" gradientUnits="userSpaceOnUse">
      <stop offset="0" stop-color="#fff"/>
      <stop offset="0.43" stop-color="#d3f9fc"/>
    </radialGradient>
  </defs>
  <g>
    <g>
      <circle class="cls-2" cx="82.61" cy="82.48" r="74.27"/>
      <g id="_01" data-name="01">
        <path class="cls-3" d="M152.36,78.36A74.24,74.24,0,1,1,78.12,4.41,74.1,74.1,0,0,1,152.36,78.36Z"/>
        <g class="cls-4">
          <g>
            <rect class="cls-5" x="-226.77" y="-89.4" width="358.11" height="238.7"/>
            <rect class="cls-6" x="-222.08" y="-84.27" width="376.15" height="238.74"/>
            <path class="cls-7" d="M28.22,8.17s5.43,11,9,20.11c0,0,4.94,16.55,4.94,19s-5,6.1-7.4,5.8S25.49,17.94,28.22,8.17Z"/>
            <path class="cls-8" d="M30.36,14.52l1.25.82s3.73,8.26,4.68,15.07.92,8.73,6.15,8.21-2.38,7.29-7.52,9.09S30.05,53,27.85,48.92,30.36,14.52,30.36,14.52Z"/>
            <path class="cls-9" d="M39.38,58.8c-2.11-2.52,1.68-4.63,3.79-6.73.42-.42,1.26-1.85,0-2.11-5.17,1.36-7-1.85-7.53-5.76a60.57,60.57,0,0,0-4.79,5.94L24.38,68.26c5.6.22,12-3.89,16.94-8.25A2.92,2.92,0,0,1,39.38,58.8Z"/>
            <path class="cls-10" d="M-27.66,97.17l-1.66.65s-1.09.86-.15,3.44l.89,2.7s-.52,13.7,0,23.69L26.06,118l8.37-11,2.38-10.53Z"/>
            <path class="cls-11" d="M-23.63,89l2.52.91s-8.32,1.15-6.8,2.77c0,0-4.23,4.44-1.94,6.07,8.4,6,2.43,43.14,9.7,44.84,4.94,1.16,25.09-3.81,32.31-3.5,19.15.81,16.51-39.41,19.57-42.33s.89-8.06-1.38-8.9S-23.63,89-23.63,89Z"/>
            <path class="cls-12" d="M33,84.9l0-.14v-.07a3.42,3.42,0,0,1,0-.45A2.12,2.12,0,0,1,33,83.8a2.93,2.93,0,0,1-.06-.65c0-3.26.46-19.23.52-32.44,0-2.23,1.27-7.31,1.17-9.11-.72-12.44.57-16.1-1.58-16.83,0,0-.14-1-1.14-6.88s1-12-7.29-14.5C16.94,1.08-14.18-2.76-14.18-2.76l-1.29,1.53s-4.31-.33-4.86,1.69A41.53,41.53,0,0,0-31.91,12.32c-5.15,7.91,2.57,41.21,2.79,45.61,0,.39,2.48,3.71,2.46,4.26l3.75,6.26-3.72,21.93.21,2.42c6.49,2.44,18,8,35.27,6.92,1.42-.09,7.47-1,8.74-1.09l1.69-6.89,1,6.64c26-2.76,12-9.71,11.63-12.57C31.68,84.47,32.23,84.6,33,84.9Z"/>
            <path class="cls-13" d="M-5.63-21.44s-1.12,8.14-2.17,12l.47,2.53s-.17,3,1.59,4.47S10.92,4.27,10.92,4.27s-1.12,4.83,0,5.38,2.3,3,2.3,3,.25-3.07.41-5.27a26.27,26.27,0,0,0,0-3.91S17.44,1,17.86-2.76s-.58-5.33-.58-5.33l-1.17-2.22-.33-5.18Z"/>
            <path class="cls-14" d="M1.59-1.71C-1-7-.3-13.68-.3-13.68l-5.64-5a13.49,13.49,0,0,0-1.85-3c.13,1.06,1,8.64,0,12.21l.47,2.53s-.17,3,1.59,4.47C-5-1.83-1.85-.52,1.51.79A2.27,2.27,0,0,0,1.59-1.71Z"/>
            <path class="cls-15" d="M25.56-3.34c-1.1-2.49-9.45-7-9.45-7s.07,1,.16,2.28l.81,2.84.11,1.42-.37,1h0c-.39,2-3.19,6.19-3.19,6.19S19.89,5,21,6.17s2.48,5.57,4.86,7.47C25.89,13.64,26.65-.85,25.56-3.34Z"/>
            <path class="cls-16" d="M25.56-3.34a4,4,0,0,0-.79-1.08L21,6.16h0c1.14,1.17,2.48,5.57,4.86,7.47C25.89,13.64,26.65-.85,25.56-3.34Z"/>
            <rect class="cls-17" x="118.87" y="1.97" width="46.34" height="99.68"/>
            <polygon class="cls-18" points="-175.35 149.34 151.57 86.2 151.57 149.34 -175.35 149.34"/>
            <polygon class="cls-19" points="142.1 116.89 101.07 103.96 -8.42 127.95 -1.68 130.94 99.73 108.58 137.79 119.7 142.1 116.89"/>
            <polygon class="cls-19" points="5.65 140.76 2.74 143.24 20.8 149.34 29.07 149.34 5.65 140.76"/>
            <polygon class="cls-20" points="138.83 118.59 101.46 108.27 101.33 108.3 99.98 116.56 101.33 149.29 138.83 149.29 138.83 118.59"/>
            <polyline class="cls-21" points="137.51 124.18 138.44 121.02 101.18 108.27 101.07 108.3 97.52 111.06 101.07 112.35"/>
            <polygon class="cls-22" points="-16.74 133.12 30.95 149.29 101.07 149.29 101.07 108.3 -16.74 133.12"/>
            <path class="cls-17" d="M118.87,109.68l38.88,13.1,2-41.87a223,223,0,0,1-40.86-9Z"/>
            <path class="cls-23" d="M120,75h2.74s1.12.37,1.24,3.46,0,19.52,0,19.52-1.08,1.24-2,1.24a24.73,24.73,0,0,1-3.1,0Z"/>
            <path class="cls-24" d="M23.8,124.57l-40.54,8.55L31,149.3H45.64C35.9,143.85,28,135.89,23.8,124.57Z"/>
            <g>
              <path class="cls-25" d="M78.41,37l3.44.59a17.43,17.43,0,0,1,34.6,3V76.84H120V40.52A20.92,20.92,0,0,0,78.41,37Z"/>
              <path class="cls-26" d="M99.65,23.11a17.44,17.44,0,0,1,16.8,17.41V76.84h1.24V40.52a17.45,17.45,0,0,0-17.43-17.43Z"/>
              <rect class="cls-27" x="109.56" y="83.54" width="1.28" height="7.79" transform="translate(220.4 174.86) rotate(-180)"/>
              <rect class="cls-25" x="104.34" y="81.44" width="2.19" height="1.8" transform="translate(210.86 164.69) rotate(-180)"/>
              <path class="cls-25" d="M104,74.34h2.91a0,0,0,0,1,0,0V80a1.46,1.46,0,0,1-1.46,1.46h0A1.46,1.46,0,0,1,104,80V74.34A0,0,0,0,1,104,74.34Z" transform="translate(210.86 155.78) rotate(-180)"/>
              <path class="cls-25" d="M113.27,77.32V98c0,.45,2.21.81,4.93.81s4.9-.35,4.94-.8V77.32a1.23,1.23,0,0,0-1.23-1.23h-7.42A1.22,1.22,0,0,0,113.27,77.32Z"/>
              <path class="cls-25" d="M103.06,83.24h2.75A4.19,4.19,0,0,1,110,87.43v0a4.19,4.19,0,0,1-4.19,4.19h-2.75a0,0,0,0,1,0,0V83.24a0,0,0,0,1,0,0Z" transform="translate(213.05 174.86) rotate(-180)"/>
              <rect class="cls-25" x="110.49" y="83.24" width="2.77" height="8.37" transform="translate(223.76 174.86) rotate(-180)"/>
              <rect class="cls-26" x="110.49" y="89.65" width="2.77" height="1.97"/>
              <path class="cls-26" d="M105,84.69V83.24h-.36l0,0-.21.11-.39.26a5.21,5.21,0,0,1-.56.34v0h0a.22.22,0,0,1,0,.08l-.16.39,0-.1c-.09.23-.18.46-.26.7v5.07a.24.24,0,0,1,.13.13c.1.22.2.44.31.66a.2.2,0,0,1,.1.07l.16.17c.24.16.47.31.72.45H110v-2A5,5,0,0,1,105,84.69Z"/>
              <path class="cls-26" d="M105.17,78.53V74.4l-.13,0-.19.09a.36.36,0,0,1-.27,0,2,2,0,0,0-.19.22.92.92,0,0,0-.13.21v0a.41.41,0,0,1-.27.26v6.15h2.91v-1.2A1.71,1.71,0,0,1,105.17,78.53Z"/>
              <path class="cls-26" d="M78.41,37l1.19.21,0-.21a20.93,20.93,0,0,1,20-17.34H99A20.91,20.91,0,0,0,78.41,37Z"/>
              <path class="cls-25" d="M76.37,41.51l5.65,1,.62-3.46a1.56,1.56,0,0,0-1.26-1.81l-2.59-.46A1.56,1.56,0,0,0,77,38.05Z"/>
              <path class="cls-26" d="M81.14,40.51a3.25,3.25,0,0,1-2.65-3.63l-.16,0-.06,0h0l-.1,0-.21.11-.22.13-.1.07-.07,0a2.57,2.57,0,0,0-.33.33s0,0-.06,0l0,.1,0,0v0a.32.32,0,0,0,0,.09.32.32,0,0,1-.08.14,0,0,0,0,0,0,0l-.6,3.35,5.65,1,.32-1.79Z"/>
            </g>
            <path class="cls-28" d="M79,139.74c0,4-10.75,7.3-24,7.3s-24-3.27-24-7.3,10.75-7.29,24-7.29S79,135.71,79,139.74Z"/>
            <path class="cls-29" d="M110.23,132.38s-5.57-2.77-14.55-.83L38,144.65l-.13,1.77L33,145.77l-7.83,1.78,4.07,1.79H131.35V139.25Z"/>
            <path class="cls-30" d="M95.68,133,28,148.32l3,1H131.35v-8.7l-21.12-6.87S104.66,131,95.68,133Z"/>
            <g>
              <path class="cls-31" d="M54,137.84c-13.26,0-24,3.26-24,7.29,0,1.55,1.59,3,4.3,4.17H73.74c2.7-1.19,4.3-2.62,4.3-4.17C78,141.1,67.29,137.84,54,137.84Z"/>
              <path class="cls-32" d="M54,137.32c-13.26,0-24,3.27-24,7.3,0,1.78,2.1,3.41,5.59,4.68H72.44c3.49-1.27,5.6-2.9,5.6-4.68C78,140.59,67.29,137.32,54,137.32Z"/>
              <path class="cls-33" d="M54,139c-11.09,0-20.08,2.53-20.08,5.65,0,1.91,3.38,3.59,8.55,4.62H65.55c5.17-1,8.55-2.71,8.55-4.62C74.1,141.56,65.11,139,54,139Z"/>
              <path class="cls-34" d="M62.1,141.39c0,.65-1.58,1.17-3.53,1.17S55,142,55,141.39s1.58-1.16,3.53-1.16S62.1,140.75,62.1,141.39Z"/>
              <path class="cls-34" d="M52.37,142.87c0,.17-.49.31-1.08.31s-1.09-.14-1.09-.31.49-.31,1.09-.31S52.37,142.7,52.37,142.87Z"/>
              <path class="cls-34" d="M50.74,146.79c0,.74-2.35,1.34-5.24,1.34s-5.24-.6-5.24-1.34,2.35-1.35,5.24-1.35S50.74,146,50.74,146.79Z"/>
              <path class="cls-34" d="M66.15,147.23c0,.43-1.38.77-3.07.77s-3.07-.34-3.07-.77,1.37-.78,3.07-.78S66.15,146.8,66.15,147.23Z"/>
              <path class="cls-35" d="M54,149.34c-9.31,0-16.61-2.12-16.61-4.82s7.3-4.82,16.61-4.82,16.62,2.12,16.62,4.82S63.34,149.34,54,149.34Zm0-9.22c-8.78,0-16.19,2-16.19,4.4s7.41,4.4,16.19,4.4,16.2-2,16.2-4.4S62.8,140.12,54,140.12Z"/>
            </g>
            <path class="cls-36" d="M122.59,131c-1.16-.69-3.87,0-3.87,0L116,140.25s.63,2.09,3.21.84,3.79-6.38,4.16-7.75S123.75,131.66,122.59,131Z"/>
            <path class="cls-37" d="M121.45,132s1,0,1.31,0,.34.52,0,1.69-1.38,4.67-2.45,5.91-2,1.75-1.9,1.24S121.45,132,121.45,132Z"/>
            <polygon class="cls-38" points="27.5 145.97 -8.75 133.86 101.07 110.14 141.14 122.69 140.65 118.57 101.25 106.66 -21.47 133.16 26.95 149.34 37.1 149.34 27.5 145.97"/>
            <path class="cls-39" d="M47.58,44.56c-1.14-1.18-.57-2.91-.57-3.94s1.1-4.18-4.33-2c-2.37,1-4.92,3.27-7,5.57l-.21,2.13-5.37,6.53s1.37,7.89,5.16,8.1a13.26,13.26,0,0,0,6.1-1c4.68-4.11,8.13-8.43,8.55-9.56C50.73,48.12,48.73,45.75,47.58,44.56Z"/>
            <g>
              <ellipse class="cls-40" cx="80.23" cy="96.09" rx="26.33" ry="20.15" transform="translate(-8.29 7.58) rotate(-5.14)"/>
              <ellipse class="cls-41" cx="80.7" cy="96.05" rx="19" ry="14.54" transform="translate(-8.29 7.62) rotate(-5.14)"/>
              <path class="cls-42" d="M35.45,64.47S57.13,81.84,60.83,82.61c3.16-2,12-5.77,14.48-5.66s4.46-.55,7.07,1.52,5,3.37,8.16,1c2.18-1.52,1.2-1.2,1.2-1.2s1.74-.22-2.5-2a49.94,49.94,0,0,1-9-6.74c-.22-.44-1.42-2-3.81-.22a21.68,21.68,0,0,1-5.66,3.37c-1.2.33-3.7-2-5.88-4.35S48.92,51.8,48.92,51.8"/>
              <path class="cls-43" d="M86,74.21s-2.25,3.35,5.87,3.35A62,62,0,0,1,86,74.21Z"/>
            </g>
            <path class="cls-44" d="M104.22,141.55c0,4-10.75,7.29-24,7.29s-24-3.26-24-7.29,10.75-7.3,24-7.3S104.22,137.52,104.22,141.55Z"/>
            <path class="cls-44" d="M126.51,145.59c0,2-6.93,3.58-15.46,3.58s-15.46-1.61-15.46-3.58,6.92-3.59,15.46-3.59S126.51,143.61,126.51,145.59Z"/>
            <path class="cls-45" d="M102.48,141.48c0-4-10.75-7.29-24-7.29s-24,3.27-24,7.29c0,3.41,7.69,6.27,18.08,7.07a77.26,77.26,0,0,0,9.63.14h0C93.68,148.15,102.48,145.13,102.48,141.48Z"/>
            <path class="cls-46" d="M78.27,133.46c-13.26,0-24,3.26-24,7.29,0,3.41,7.69,6.27,18.08,7.07l-.32-.6,7.19-2L82,148h0c11.51-.54,20.32-3.56,20.32-7.21C102.29,136.72,91.54,133.46,78.27,133.46Z"/>
            <path class="cls-47" d="M102.29,141.07c0-4-10.75-7.29-24-7.29s-24,3.26-24,7.29c0,3.41,7.69,6.27,18.08,7.07a77.25,77.25,0,0,0,9.63.14h0C93.48,147.74,102.29,144.72,102.29,141.07Z"/>
            <path class="cls-48" d="M99.73,140.05c0,3.12-9,5.65-20.08,5.65s-20.08-2.53-20.08-5.65,9-5.64,20.08-5.64S99.73,136.94,99.73,140.05Z"/>
            <path class="cls-49" d="M92.53,137.88c0,2.58-9,4.68-20.08,4.68s-20.08-2.1-20.08-4.68,9-4.69,20.08-4.69S92.53,135.29,92.53,137.88Z"/>
            <path class="cls-47" d="M79.65,144.87c-9.32,0-16.62-2.11-16.62-4.82s7.3-4.82,16.62-4.82,16.61,2.12,16.61,4.82S89,144.87,79.65,144.87Zm0-9.22c-8.78,0-16.2,2-16.2,4.4s7.42,4.4,16.2,4.4,16.19-2,16.19-4.4S88.43,135.65,79.65,135.65Z"/>
            <path class="cls-50" d="M125.94,144.87c0,2-6.92,3.59-15.45,3.59S95,146.85,95,144.87s6.92-3.58,15.46-3.58S125.94,142.9,125.94,144.87Z"/>
            <path class="cls-51" d="M110.51,147.62a45,45,0,0,1-10.18-1c-3-.74-3.68-1.14-3.68-1.72s.65-1,3.68-1.71a45,45,0,0,1,10.18-1,45.14,45.14,0,0,1,10.19,1c3,.74,3.67,1,3.67,1.71,0,.46-.65,1-3.67,1.72A45.14,45.14,0,0,1,110.51,147.62Z"/>
            <path class="cls-52" d="M118.44,145.82c0,.77-3.61,1.4-8.07,1.4s-8.08-.63-8.08-1.4,3.61-1.4,8.08-1.4S118.44,145.05,118.44,145.82Z"/>
            <g>
              <path class="cls-31" d="M81.32,142c0,4-10.75,7.3-24,7.3s-24-3.27-24-7.3,10.75-7.29,24-7.29S81.32,138,81.32,142Z"/>
              <path class="cls-40" d="M79.24,140.75c0,.21,2.05,1.14,2,1.34-1,3.75-11.34,6.69-23.93,6.69-13.27,0-24-3.26-24-7.29s10.75-7.3,24-7.3S79.24,136.72,79.24,140.75Z"/>
              <path class="cls-53" d="M59.83,134.23c-4.55.86-7.46,2.17-7.46,3.65,0,2.58,9,4.68,20.08,4.68,1.69,0,3.19-.18,4.75-.27,1.36-.08,2.8-.06,4-.2a2.08,2.08,0,0,0,.09-.6C81.32,137.72,71.91,134.62,59.83,134.23Z"/>
              <path class="cls-54" d="M76.09,140.41l.82-.08c-2-2.53-10-4.43-19.6-4.43-11.09,0-20.08,2.53-20.08,5.65s9,5.64,20.08,5.64c10.19,0,18.6-2.13,19.89-4.9Z"/>
              <path class="cls-55" d="M57.31,135.9h-.74c-2.45,1.5-3.77,3-3.52,4.32.63,3.38,11.31,4.26,24.15,2.06a1.65,1.65,0,0,0,.18-.74C77.38,138.43,68.39,135.9,57.31,135.9Z"/>
              <path class="cls-34" d="M65.38,138.26c0,.65-1.58,1.17-3.53,1.17s-3.52-.52-3.52-1.17,1.58-1.16,3.52-1.16S65.38,137.62,65.38,138.26Z"/>
              <path class="cls-34" d="M55.65,139.74c0,.17-.48.31-1.08.31s-1.08-.14-1.08-.31.48-.31,1.08-.31S55.65,139.57,55.65,139.74Z"/>
              <path class="cls-34" d="M54,143.66c0,.74-2.34,1.34-5.24,1.34s-5.24-.6-5.24-1.34,2.35-1.35,5.24-1.35S54,142.91,54,143.66Z"/>
              <path class="cls-34" d="M69.43,144.1c0,.43-1.37.77-3.07.77s-3.07-.34-3.07-.77,1.38-.78,3.07-.78S69.43,143.67,69.43,144.1Z"/>
              <path class="cls-34" d="M57.31,146.37c-9.32,0-16.62-2.12-16.62-4.82s7.3-4.82,16.62-4.82,16.61,2.11,16.61,4.82S66.62,146.37,57.31,146.37Zm0-9.22c-8.78,0-16.2,2-16.2,4.4s7.42,4.4,16.2,4.4,16.19-2,16.19-4.4S66.08,137.15,57.31,137.15Z"/>
            </g>
            <g>
              <path class="cls-56" d="M107.94,146.28c-12.74-3.35-9.17-16.87-9.17-16.87l11.92,1.72,12,1.4s-.41,13.77-13.52,13.84Z"/>
              <path class="cls-57" d="M122.66,132.53c-.09.87-5.53.88-12.15,0s-11.92-2.24-11.82-3.1,5.54-.87,12.16,0S122.76,131.67,122.66,132.53Z"/>
              <path class="cls-58" d="M118,132.55a60.53,60.53,0,0,1-7.38-.56c-5.6-.72-10-1.91-9.94-2.29.28-.26.94-.26,2.77-.26a60.3,60.3,0,0,1,7.38.55c5.6.72,9.64,1.72,9.94,2.29C120.54,132.55,119.79,132.55,118,132.55Z"/>
            </g>
            <g>
              <path class="cls-59" d="M108.22,126.78c-.84-4.51-14.55-5.76-30.63-2.78S49.17,133.06,50,137.58c.71,3.82,10.62,5.3,23.39,3.87a102.73,102.73,0,0,0,11.7-2h0C98.93,136.25,109,130.88,108.22,126.78Z"/>
              <path class="cls-60" d="M107.9,126.37c-.84-4.52-14.55-5.77-30.63-2.79s-28.42,9.06-27.59,13.58c.71,3.83,10.63,5.31,23.39,3.87a102.73,102.73,0,0,0,11.7-2h0C98.61,135.83,108.66,130.46,107.9,126.37Z"/>
              <path class="cls-61" d="M103.29,127.15c.65,3.5-9.72,8.35-23.16,10.84s-24.86,1.68-25.51-1.81,9.72-8.36,23.16-10.85S102.64,123.65,103.29,127.15Z"/>
              <path class="cls-62" d="M80,137.07c-11.29,2.1-20.58,1.36-21.14-1.67s7.84-7.05,19.13-9.15,20.58-1.36,21.14,1.68S91.25,135,80,137.07ZM78,126.73c-10.64,2-19.21,5.9-18.71,8.57s9.9,3.27,20.54,1.3,19.21-5.9,18.71-8.58S88.68,124.75,78,126.73Z"/>
            </g>
            <path class="cls-63" d="M33.23,24.77a28.33,28.33,0,0,1-9.33,1.4S28.84,25.38,33.23,24.77Z"/>
            <path class="cls-64" d="M23.9,29.33s.18,7.9,1,9.29S30.11,42,32.85,42c0,0-4.94-1.19-6.7-3.34S23.9,29.33,23.9,29.33Z"/>
            <path class="cls-65" d="M13.22,12.61s2,3.25,1.31,5.77,1.84,19.87,1.27,28.88.14,13.21.84,14.27,3.52,1.15,1.28,2.24S16,66.52,16,66.52a6.93,6.93,0,0,1-.41-2.46c.14-.84.75-1.19.41-1.57a6.47,6.47,0,0,1-.84-3.69c0-2-.56-12.56-.35-17.75s-1-13.33-1.11-18.53.22-5.26,0-6.73S13.22,12.61,13.22,12.61Z"/>
            <path class="cls-26" d="M113.27,77.32V98c0,.45,2.21.81,4.93.81s4.9-.35,4.94-.8V96.8a7.9,7.9,0,0,1-7.91-7.9V76.09h-.74A1.22,1.22,0,0,0,113.27,77.32Z"/>
            <g>
              <path class="cls-66" d="M4.18,84.76l38.3,21.74s3.54,3.43,9.32-2.36c4.6-1.78,8.91-4.26,10-4.11s3.24,4.17,3.24,4.17l-1,2.93.28,2.56a47.53,47.53,0,0,0,4.31-4.13,3.66,3.66,0,0,0,.15-1.82S70.9,99.31,71,98.85,72.58,96,72.64,95c1.17.32,1.52-1.17,1.52-1.17s1.57-5.33,1.56-5.84S73,84.17,71.34,83.31c-1.58-1.28-1.76-1.93-3.88-.39,0,0-10.64,7.69-12,8.29s-5.34,3.43-6.71,4.33c-1.77-.27-4.26-2.7-4.26-2.7L17.89,67.9"/>
              <path class="cls-66" d="M68.5,104.38s-1.88-7.73-3.66-9.93"/>
              <path class="cls-66" d="M70.71,99.43A8.64,8.64,0,0,0,69.18,94a40,40,0,0,0-3.49-4.42"/>
              <g>
                <path class="cls-67" d="M72.46,95a8.45,8.45,0,0,0-1.59-4.49,36.36,36.36,0,0,0-3.72-3.36"/>
                <path class="cls-68" d="M72.46,95a22.67,22.67,0,0,0-.74-2.33,6.52,6.52,0,0,0-1.19-2c-1.08-1.18-2.28-2.29-3.38-3.55a15.92,15.92,0,0,1,3.94,3,5.38,5.38,0,0,1,1.18,2.3A7.36,7.36,0,0,1,72.46,95Z"/>
              </g>
              <polyline class="cls-69" points="69.2 89.6 71.78 88.48 70.49 90.3"/>
              <path class="cls-70" d="M45.89,101.78a6.66,6.66,0,0,1,1.17-6.08"/>
              <path class="cls-71" d="M40.1,113.93S43,118,44.51,118.57s4.7,1.15,9.21-.52S64,113.5,63.91,112.9c-.36-1.5-1.72-8.14-5.78-7.44s-7.12,1.26-14.7,6A27.76,27.76,0,0,0,40.1,113.93Z"/>
              <path class="cls-72" d="M45.88,107s-4.72,5.2-5.36,6.44a65.07,65.07,0,0,1,6-3.88A28.35,28.35,0,0,1,52.05,107c2.76-.91,4.77-1.58,6.86-.86,3.51,1.2,4.74,5.44,5,6.2l-.13-5.25,1.11-2.54s.17-.08-.45-1.05a37.4,37.4,0,0,1-1.78-3.64S50.56,103.84,45.88,107Z"/>
              <path class="cls-72" d="M70.19,100.75s8.07-1.24,6.34-4.17l-2.66-2.15L72.64,95l-2.54,5.59"/>
            </g>
            <path class="cls-39" d="M-3.06,89.59s2.24,3.17,3,2.17S21.59,70,22.45,69.07,8.65,54.43,8,54.93s-3,5.13-3.79,6.15S-.63,65.68-1.48,67-4.94,87.55-3.06,89.59Z"/>
            <path class="cls-73" d="M85.15,91.16s-2.55,7.12-1.57,7.61,1.86.09,2.12-7.61"/>
            <path class="cls-73" d="M83.36,100.75s-1.72,1.8-1.12,2.39,3.07.33,2.29-.66A12.68,12.68,0,0,1,83.36,100.75Z"/>
            <path class="cls-74" d="M112.87,123.3a2.28,2.28,0,0,0-3.75,1.84v0a.66.66,0,0,0-.2.06,2.28,2.28,0,0,0-2,1.44.76.76,0,0,0-.16-.06,1.39,1.39,0,1,0-.84,2.66,1.4,1.4,0,0,0,.91,1.75,1.38,1.38,0,0,0,.83,0,1.39,1.39,0,0,0,2.65,0,.85.85,0,0,0,.06-.31,2.14,2.14,0,0,0,.55.26,2,2,0,0,0,.31.07,1.39,1.39,0,0,0,1.25.65,1.46,1.46,0,0,0,.51-.12,1.44,1.44,0,0,0,.5.28,1.39,1.39,0,0,0,.91,1.75,1.35,1.35,0,0,0,.82,0,1.4,1.4,0,0,0,2.66,0,1.7,1.7,0,0,0,.06-.31,2,2,0,0,0,.55.26,2.28,2.28,0,1,0,1.37-4.35h0a1,1,0,0,0-.67-1.11,1,1,0,0,0-1,.31,2.49,2.49,0,0,0-.84-.48,2.37,2.37,0,0,0-1.12-.06,1,1,0,0,0,.07-.18,1.07,1.07,0,0,0,.06-.3,3.1,3.1,0,0,0,.55.26,2.29,2.29,0,1,0,1.38-4.36h0a1,1,0,0,0-1.72-.79,2.33,2.33,0,0,0-.84-.48A2.29,2.29,0,0,0,112.87,123.3Z"/>
            <path class="cls-75" d="M97.79,141.83c-1.11,0-2.21.06-3.32.16l-6.75,3.12a21.59,21.59,0,0,0,6.81.58,27.54,27.54,0,0,0,3.39-.3,12.24,12.24,0,0,0,3.47-.84"/>
            <g class="cls-76">
              <g>
                <path class="cls-77" d="M66,108.6c-.62,2.91-1.06,5.17-1.26,6.37-.06.37-.2,1.27.24,1.63a.58.58,0,0,0,.44.13c.24-.06.36-.38.41-.51.46-1.27.63-7.53.63-7.53h0Z"/>
                <path class="cls-77" d="M66.15,115.89s-1,2.7-.57,3.19,1,.54,1-.55A10.54,10.54,0,0,0,66.15,115.89Z"/>
                <path class="cls-77" d="M64.84,119s-1,2.7-.57,3.19,1,.54,1-.55A11.06,11.06,0,0,0,64.84,119Z"/>
                <path class="cls-77" d="M56.73,117.46s-1,2.7-.57,3.2,1,.54,1-.56A10.64,10.64,0,0,0,56.73,117.46Z"/>
                <path class="cls-77" d="M56.73,120.05s-1,2.7-.57,3.2,1,.53,1-.56A10.54,10.54,0,0,0,56.73,120.05Z"/>
              </g>
            </g>
          </g>
        </g>
        <path class="cls-78" d="M152.43,80.13c0,38.61-33,69.91-73.74,69.91S5,118.74,5,80.13,38,10.22,78.69,10.22,152.43,41.52,152.43,80.13Z"/>
        <path class="cls-79" d="M83,142.56c-40.72,0-73.73-31.3-73.73-69.9a66.65,66.65,0,0,1,6.55-28.83c-.8,1.19-1.58,2.4-2.3,3.64A66.72,66.72,0,0,0,4.11,81.56c0,38.61,33,69.91,73.74,69.91,29.88,0,55.61-16.86,67.19-41.1C131.93,129.74,109,142.56,83,142.56Z"/>
        <g>
          <path class="cls-80" d="M22.44,53.4c3-10.9,11.88-21.44,30.17-28.1A4,4,0,0,0,54,18.79l-.36-.35a4,4,0,0,0-3.94-1c-6.87,2.07-24.7,12.2-30.55,35.1a1.65,1.65,0,0,0,.71,1.8l0,0A1.66,1.66,0,0,0,22.44,53.4Z"/>
          <circle class="cls-80" cx="19.88" cy="59.26" r="2.5"/>
        </g>
      </g>
    </g>
    <circle class="cls-81" cx="79.62" cy="79.74" r="76.5"/>
  </g>
</svg>
