<?xml version="1.0" encoding="utf-8"?>
<!-- Generator: Adobe Illustrator 25.2.3, SVG Export Plug-In . SVG Version: 6.00 Build 0)  -->
<svg version="1.1" id="Layer_1" xmlns="http://www.w3.org/2000/svg" xmlns:xlink="http://www.w3.org/1999/xlink" x="0px" y="0px"
	 viewBox="0 0 600 570" style="enable-background:new 0 0 600 570;" xml:space="preserve">
<style type="text/css">
	.st0{fill:#EFEFEF;}
	.st1{clip-path:url(#SVGID_2_);}
	.st2{fill:url(#SVGID_3_);}
	.st3{opacity:0.36;fill:none;stroke:#FEFFEB;stroke-miterlimit:10;enable-background:new    ;}
	.st4{fill:url(#SVGID_4_);}
	.st5{fill:url(#SVGID_5_);}
	.st6{fill:url(#SVGID_6_);}
	.st7{fill:url(#SVGID_7_);}
	.st8{opacity:0.57;fill:#A8B0B2;enable-background:new    ;}
	.st9{fill:url(#SVGID_8_);}
	.st10{fill:none;stroke:#FEFFEB;stroke-width:0.25;stroke-miterlimit:10;}
	.st11{opacity:0.43;}
	.st12{fill:none;stroke:#FEFFEB;stroke-width:0.5;stroke-miterlimit:10;}
	.st13{fill:#D3F0F4;}
	.st14{fill:#426E72;}
	.st15{fill:#264547;}
	.st16{fill:#E5D2C1;}
	.st17{fill:#E9EAE5;}
	.st18{fill:#99AAA9;}
	.st19{fill:#C0C1BC;}
	.st20{fill:#E8D75D;}
	.st21{fill:#DBDAD9;}
	.st22{fill:#C6B663;}
	.st23{opacity:0.15;fill:#EA3B48;enable-background:new    ;}
	.st24{fill:#383C54;}
	.st25{fill:#878686;}
	.st26{fill:url(#SVGID_9_);}
	.st27{fill:#D5DADB;}
	.st28{fill:url(#SVGID_10_);}
	.st29{fill:#AA9D87;}
	.st30{fill:none;}
	.st31{opacity:0.22;enable-background:new    ;}
	.st32{fill:#9B2454;stroke:#323232;stroke-miterlimit:10;}
	.st33{fill:#F9DAD2;stroke:#4C2606;stroke-miterlimit:10;}
	.st34{fill:#B26B51;}
	.st35{fill:#E7D760;stroke:#BAA73B;stroke-miterlimit:10;}
	.st36{fill:#F9D1C6;stroke:#323232;stroke-miterlimit:10;}
	.st37{fill:#7F527D;stroke:#323232;stroke-miterlimit:10;}
	.st38{fill:#936393;}
	.st39{fill:#E8D1E8;}
	.st40{fill:#D8A99E;}
	.st41{fill:#F75E95;stroke:#323232;stroke-miterlimit:10;}
	.st42{fill:#F4C3D7;stroke:#323232;stroke-miterlimit:10;}
	.st43{fill:#342516;}
	.st44{fill:#951C27;}
	.st45{fill:#F4EAE9;stroke:#664138;stroke-miterlimit:10;}
	.st46{fill:#F5968E;}
	.st47{fill:#F4756E;}
	.st48{fill:#C7EEF2;stroke:#323232;stroke-miterlimit:10;}
	.st49{fill:#ED865D;stroke:#323232;stroke-miterlimit:10;}
	.st50{fill:#9ACED6;stroke:#323232;stroke-miterlimit:10;}
	.st51{fill:#F4C9AB;}
	.st52{fill:#6B4B36;}
	.st53{fill:none;stroke:#323232;stroke-miterlimit:10;}
	.st54{fill:#F79FC3;stroke:#323232;stroke-miterlimit:10;}
	.st55{fill:#F9988F;}
	.st56{fill:#F9F6F2;stroke:#323232;stroke-miterlimit:10;}
	.st57{fill:#3D2D16;stroke:#3D2D16;stroke-miterlimit:10;}
	.st58{fill:#F9F6F2;}
	.st59{fill:#3D2D16;}
	.st60{fill:#FFFFFF;stroke:#99807C;stroke-miterlimit:10;}
	.st61{fill:#F71C46;stroke:#323232;stroke-miterlimit:10;}
	.st62{fill:#EF4B3B;}
	.st63{fill:#FE66CA;stroke:#AF1086;stroke-width:2;stroke-miterlimit:10;}
	.st64{fill:#FFFA71;}
	.st65{fill:#CC0098;}
	.st66{fill:#E852BB;stroke:#AF1086;stroke-width:2;stroke-miterlimit:10;}
	.st67{fill:#EFCEE8;}
	.st68{fill:#DBBDD5;}
	.st69{fill:#C9A9C3;}
	.st70{fill:#968F94;}
	.st71{fill:#C4C0C3;}
	.st72{fill:#C4BBC2;}
	.st73{fill:#D1A7C9;}
	.st74{opacity:0.58;fill:#8AC0ED;enable-background:new    ;}
	.st75{fill:#D8B4D1;}
	.st76{fill:#D6B6D0;}
	.st77{fill:#B5B0B4;}
	.st78{fill:none;stroke:#D3CBD1;stroke-width:7;stroke-miterlimit:10;}
	.st79{fill:none;stroke:#6D646B;stroke-width:7;stroke-miterlimit:10;}
	.st80{fill:none;stroke:#206363;stroke-width:8;stroke-miterlimit:10;}
</style>
<path class="st0" d="M133,548.5h350c53.6,0,97-43.4,97-97v-333c-0.1-53.6-43.6-96.9-97.1-96.9c-2.9,0-5.8,0.1-8.7,0.4L108.1,55.5
	c-51.9,4.8-90.8,49.7-88,101.7l16,299.5C38.9,508.1,81.4,548.5,133,548.5z"/>
<g>
	<defs>
		<path id="SVGID_1_" d="M133,548.5h350c53.6,0,97-43.4,97-97v-333c-0.1-53.6-43.6-96.9-97.1-96.9c-2.9,0-5.8,0.1-8.7,0.4
			L108.1,55.5c-51.9,4.8-90.8,49.7-88,101.7l16,299.5C38.9,508.1,81.4,548.5,133,548.5z"/>
	</defs>
	<clipPath id="SVGID_2_">
		<use xlink:href="#SVGID_1_"  style="overflow:visible;"/>
	</clipPath>
	<g class="st1">
		
			<linearGradient id="SVGID_3_" gradientUnits="userSpaceOnUse" x1="976.9247" y1="1165.1218" x2="529.7247" y2="-140.0481" gradientTransform="matrix(1 0 0 -1 0 572)">
			<stop  offset="0" style="stop-color:#72EDED"/>
			<stop  offset="0.23" style="stop-color:#6FE9EA"/>
			<stop  offset="0.45" style="stop-color:#67DDE3"/>
			<stop  offset="0.68" style="stop-color:#58C9D6"/>
			<stop  offset="0.9" style="stop-color:#45ADC4"/>
			<stop  offset="0.99" style="stop-color:#3CA1BC"/>
		</linearGradient>
		<path class="st2" d="M131-200.1c1.2,258.8,2.4,517.7,3.6,776.5l1150.4,7.1v-780.1L131-200.1z"/>
		<line class="st3" x1="136.4" y1="542.9" x2="1352.3" y2="544.8"/>
		
			<linearGradient id="SVGID_4_" gradientUnits="userSpaceOnUse" x1="-1117.4202" y1="810.7897" x2="150.5199" y2="216.6797" gradientTransform="matrix(1 0 0 -1 0 572)">
			<stop  offset="0.38" style="stop-color:#41AFB5"/>
			<stop  offset="0.76" style="stop-color:#3EABB6"/>
			<stop  offset="0.99" style="stop-color:#39A5B7"/>
		</linearGradient>
		<path class="st4" d="M131.6-205.8l-509.1-171.3l-9.9,1032.7L135,544.2C133.9,294.2,132.7,44.2,131.6-205.8z"/>
		
			<linearGradient id="SVGID_5_" gradientUnits="userSpaceOnUse" x1="-765.4808" y1="712.8052" x2="171.6293" y2="564.0952" gradientTransform="matrix(1 0 0 -1 0 572)">
			<stop  offset="0.13" style="stop-color:#41B5C4"/>
			<stop  offset="0.48" style="stop-color:#40B1C2"/>
			<stop  offset="0.81" style="stop-color:#3DA5BE"/>
			<stop  offset="0.99" style="stop-color:#3A9CBA"/>
		</linearGradient>
		<path class="st5" d="M-367.7-384l496.4,179.9L128,307.3L-367.7-384z"/>
		
			<linearGradient id="SVGID_6_" gradientUnits="userSpaceOnUse" x1="1320.0544" y1="833.0193" x2="70.3128" y2="518.7363" gradientTransform="matrix(1 0 0 -1 0 572)">
			<stop  offset="2.000000e-02" style="stop-color:#72EDED"/>
			<stop  offset="0.26" style="stop-color:#6FE9EC"/>
			<stop  offset="0.5" style="stop-color:#67DDE7"/>
			<stop  offset="0.74" style="stop-color:#59C9E0"/>
			<stop  offset="0.98" style="stop-color:#45ADD6"/>
			<stop  offset="0.99" style="stop-color:#45ADD6"/>
		</linearGradient>
		<polyline class="st6" points="1334.6,-203.1 127.4,-202.5 127.4,280.3 1323.6,-202.5 		"/>
		
			<linearGradient id="SVGID_7_" gradientUnits="userSpaceOnUse" x1="1255.7998" y1="125.0211" x2="360.7097" y2="-100.0789" gradientTransform="matrix(1 0 0 -1 0 572)">
			<stop  offset="2.000000e-02" style="stop-color:#E9EAE5"/>
			<stop  offset="0.12" style="stop-color:#E0E4E0"/>
			<stop  offset="0.44" style="stop-color:#C7D4D1"/>
			<stop  offset="0.74" style="stop-color:#B8C9C8"/>
			<stop  offset="0.98" style="stop-color:#B3C6C5"/>
		</linearGradient>
		<path class="st7" d="M1297,550.8l-1162.6-6l-502.6,105.6l1665.3-8.7L1297,550.8z"/>
		<path class="st8" d="M52.3,535.4l-8.8,2.2l9.2,0.4C52.4,537.1,52.3,536.3,52.3,535.4z"/>
		<path class="st8" d="M125.3,544.9c0.4,4.2,0,8.1-3.7,11c-0.9,0.7-1.9,1.3-3,1.7c63,2.3,141.9,4.9,173.8,4.5
			c17.7,39.3,92.5,40.9,136,0.2L824,571l-7.5,15.9c-1,2.1,0,4.5,2.1,5.5c0.6,0.3,1.2,0.4,1.8,0.4l363.5,3.2c3.3,0,6.3-2,7.4-5.1
			l14.6-40.5L125.3,544.9z"/>
		
			<linearGradient id="SVGID_8_" gradientUnits="userSpaceOnUse" x1="-329.94" y1="-26.259" x2="1335.3699" y2="-26.259" gradientTransform="matrix(1 0 0 -1 0 572)">
			<stop  offset="0" style="stop-color:#6F929B"/>
			<stop  offset="0.14" style="stop-color:#7D96A5"/>
			<stop  offset="0.48" style="stop-color:#999EB9"/>
			<stop  offset="0.77" style="stop-color:#ABA2C5"/>
			<stop  offset="0.99" style="stop-color:#B1A4C9"/>
		</linearGradient>
		<path class="st9" d="M136.4,542.9c117.8,30.6,237.1,55,357.4,73c306.3,45.7,580.2,44.3,805.4,25.3L-366.1,650L136.4,542.9z"/>
		<line class="st10" x1="134.8" y1="-209.9" x2="134.8" y2="547.9"/>
		<g class="st11">
			<polyline class="st12" points="-373,9.9 118.6,62.2 1442.2,55.6 			"/>
			<polyline class="st12" points="-374,162.5 131.4,175.6 1381.6,175.6 			"/>
			<polyline class="st12" points="-369.5,311.5 -369.5,330.3 124.6,293.1 1415.9,292.3 			"/>
			<polyline class="st12" points="-366.2,492.5 139.2,417.9 1352.3,417.9 			"/>
			<polyline class="st12" points="283.5,-200.1 283.5,537.4 -128.7,709.9 			"/>
			<polyline class="st12" points="471.9,-200.1 464.4,543.2 210.9,735 			"/>
			<polyline class="st12" points="657.9,-200.1 654.7,546.4 530.5,801 			"/>
		</g>
		<polygon class="st13" points="15.8,-147.2 72.3,-126 72.3,37.7 15.8,30.6 		"/>
		<ellipse class="st14" cx="488.8" cy="100.7" rx="21.9" ry="21.4"/>
		<ellipse class="st15" cx="488.8" cy="100.7" rx="15.1" ry="14.8"/>
		<rect x="485.8" y="92.2" class="st16" width="230.1" height="16"/>
		<path class="st17" d="M-21.3,310.8c0,0,26-7,25.7,22.6L4,357.2c0,0-13.1,4.2-22.3,0l0.5-18.8c0,0-1.6-2.5-3.6-4.9
			C-23.5,330.7-33.9,319.2-21.3,310.8z"/>
		<path class="st18" d="M-18.3,357.2c0,0,6.2,4.5,22.3,0c-0.4,3.5,0,4.4,0,4.4s-16,5.2-22.3,0V357.2z"/>
		<path class="st19" d="M-17.7,338.4c0,0,11.3,17.8,21.7,18.8c-8.9,1.9-14.3,3.3-22.3,0L-17.7,338.4z"/>
		<path class="st20" d="M517.8,93.4v119.3c-1.9,19.9-3.8,23.2,25.8,22.5s115.7,0.1,115.7,0.1s20.2,10.5,19.8-22.6
			c-0.3-32.4-10.4-110.7-4.8-119.3c1.3-7.4,4.8,0,4.8,0l-3.5-7.4H520.4C520.4,86,517.8,89.7,517.8,93.4z"/>
		<path class="st21" d="M517.8,207.9c0,0-13.2,34.9,23.5,27.3c36.6-0.3,116.3,0.1,116.3,0.1s25,10.1,21.6-27.4
			c-9.3,0-39.9,5.9-47.4,4s-40.5-3.3-47.7,0.7s-31.9-0.8-35.3-2.4S523.9,216.3,517.8,207.9z"/>
		<path class="st22" d="M581.3,86c0,0-67.3,21.9-63.4,56.3V93.4l2.5-7.4H581.3z"/>
		<ellipse class="st23" cx="537.8" cy="142.9" rx="11" ry="10"/>
		<ellipse class="st23" cx="577.6" cy="166" rx="9.7" ry="8.8"/>
		<ellipse class="st23" cx="600.8" cy="133.2" rx="9.7" ry="8.8"/>
		<ellipse class="st23" cx="575.2" cy="105.1" rx="9.7" ry="8.8"/>
		<ellipse class="st23" cx="600.8" cy="192.4" rx="9.7" ry="8.8"/>
		<ellipse class="st23" cx="539.8" cy="192.4" rx="9.7" ry="8.8"/>
		<polygon class="st24" points="93.1,-137.5 24.4,-161.3 24.4,22.8 98.1,36.1 100.2,-135.4 		"/>
		<polygon class="st25" points="90.2,-138 90.2,24.3 96,27.7 96,-129.8 		"/>
		
			<linearGradient id="SVGID_9_" gradientUnits="userSpaceOnUse" x1="64.4407" y1="609.2" x2="56.6907" y2="511.0299" gradientTransform="matrix(1 0 0 -1 0 572)">
			<stop  offset="0" style="stop-color:#AECCD3"/>
			<stop  offset="0.44" style="stop-color:#D0DDDD"/>
		</linearGradient>
		<polygon class="st26" points="69.4,-14.7 90.2,28.8 32.4,15.3 32.4,-23.7 69.4,-16.1 		"/>
		<polygon class="st27" points="90.2,28.8 85.9,30.2 32.4,18.5 32.4,15.3 		"/>
		
			<linearGradient id="SVGID_10_" gradientUnits="userSpaceOnUse" x1="64.4407" y1="634.7" x2="56.6907" y2="536.53" gradientTransform="matrix(1 0 0 -1 0 572)">
			<stop  offset="0" style="stop-color:#AECCD3"/>
			<stop  offset="0.44" style="stop-color:#D0DDDD"/>
		</linearGradient>
		<polygon class="st28" points="69.4,-40.2 90.2,3.3 32.4,-10.2 32.4,-49.2 69.4,-41.6 		"/>
		<polygon class="st27" points="90.2,3.3 85.9,4.7 32.4,-6.9 32.4,-10.2 		"/>
		<polygon class="st29" points="18.8,-177.3 14.6,-177.3 14.6,30.2 18.8,30.7 		"/>
		<path class="st17" d="M18.8-177.3V30.7L106,44.2v-187.6L18.8-177.3z M95.3,24.8l-63-9.7v-171l63,23.2V24.8z"/>
		<polygon class="st30" points="115.2,44.1 98.7,44.1 10.3,30.2 18.8,30.5 27.4,30.7 		"/>
		<ellipse class="st31" cx="399.7" cy="581.8" rx="82.7" ry="20"/>
		<path class="st32" d="M364.5,328.8c0.2-5.8-1.4-11.6-4.7-16.4c-3.4-4.9-8-8.8-13.4-11.3c-1.9,14.7,18.1,28,18.1,28"/>
		<path class="st33" d="M339.4,215.5c-3.1-3.6-7.1-6.9-11.2-5.9s-5.7,5.3-4.1,12.2s3.5,10.4,9.1,14.2s8.6,5.7,13.6,1.5
			C346.9,229.7,341.1,217.9,339.4,215.5z"/>
		<path class="st34" d="M345.2,235.2c-0.7,0.2-1.4,0.2-2.1,0c-0.7-0.2-1.4-0.4-2-0.8c-1.4-0.7-2.5-1.7-3.2-3.1
			c-0.7-1.3-1-2.9-0.7-4.4c0.1-0.8,0.4-1.6,0.9-2.3c-0.4-0.5-0.7-0.9-1.1-1.4c-1-1.2-2-2.3-3.1-3.4c-1-1.1-2.2-2-3.6-2.6
			c-0.7-0.2-1.4-0.1-2,0.2c-0.6,0.4-1,1-1,1.8c-0.2-0.8,0.2-1.6,0.9-2.1c0.7-0.5,1.5-0.7,2.3-0.5c1.5,0.5,2.9,1.4,3.9,2.6
			c1.1,1.1,2.1,2.3,3.1,3.6c0.3,0.4,0.6,0.9,0.9,1.3c0,0.1,0.1,0.1,0.1,0.2s-0.1,0.3-0.2,0.4c-0.3,0.7-0.5,1.4-0.6,2.2
			c-0.1,1.4,0.1,2.8,0.8,4c0.6,1.2,1.6,2.2,2.8,2.9c0.6,0.3,1.2,0.6,1.9,0.9C343.8,235.2,344.5,235.3,345.2,235.2z M333.7,231.7
			c1.3,0.8,2.7,1.5,4.1,2.2c-1.5-0.4-3-1-4.4-1.7c-1.5-0.7-2.7-1.8-3.6-3.2c-0.8-1.4-1.3-3-1.2-4.7c0-1.6,0.3-3.1,0.7-4.6
			c-0.1,1.5-0.2,3.1-0.1,4.6c0,1.5,0.5,3,1.3,4.3C331.3,229.9,332.4,231,333.7,231.7L333.7,231.7z"/>
		<path class="st35" d="M344.9,234.7c0,0,5.5,9.2,0.2,11.2s-4.8-8.7-4.8-8.7s2.4,8.9,3.5,3.2L344.9,234.7z"/>
		<path class="st36" d="M317.6,275.9c0,0-0.9,27.6,7,46.6s8.8,20.1,18.1,18.3c14.1-2.8,22-13.9,22-13.9s-4.9-22.5-16-25.5l-5.1,3
			c0,0-10-23.6-6.7-34.8C336.9,269.6,319,265.9,317.6,275.9z"/>
		<path class="st36" d="M343.6,304.4c0,0,3.7,2.3,5.6,12.5"/>
		<path class="st32" d="M486.7,291.2c0,0-9.7,5.1-13.7,14.1c-2.4,5.5-3.2,11.5-2.3,17.4c13.4-6.3,16.7-31.3,16.7-31.3"/>
		<path class="st36" d="M412.9,562.7l-23.2,6.5l-7.6-16c0.5-0.7,0.9-1.4,1.3-2c0.4-0.7,0.8-1.5,1.1-2.2c2.9-6.2,1.3-9.7,1.3-9.7
			s23.2-7.9,23.6,1.6c0.1,2.5,0.3,4.8,0.4,6.8c0.5,6,1,10.1,1,10.1l1,2.3L412.9,562.7z"/>
		<path class="st37" d="M415.9,565c-16,12.3-48.9,14.6-61.7,12.1c-6.4-1.3-8-4.2-8-6.9c0.1-1.8,0.6-3.5,1.5-5
			c4.9-12.8,18.5-19,33.9-14.6c0.6,0.2,1.2,0.3,1.7,0.5c13.3,4.7,10.3,15,10.3,15c12.1-1.3,16.8-4.8,18.1-6.1
			c0.1-0.1,0.3-0.3,0.4-0.4l-1.4-1.9l5,0.5v4.2L415.9,565z"/>
		
			<ellipse transform="matrix(0.9821 -0.1884 0.1884 0.9821 -98.3238 78.7522)" class="st38" cx="365.1" cy="556.6" rx="12.2" ry="5.3"/>
		<path class="st39" d="M415.6,564.5c-15.9,12.3-48.7,14.6-61.4,12.1c-6.3-1.3-8-4.2-8-6.9c2.5,3,11.3,8.2,42.1,3
			c1.9-0.3,3.7-0.8,5.5-1.3c5.2-1.7,16.3-5.5,21.8-9.4L415.6,564.5z"/>
		<path class="st40" d="M409.3,547.8c-9,4.4-19.5,2.6-24.5,1.3c2.8-6.2,1.3-9.7,1.3-9.7s22.4-7.9,22.9,1.6
			C409,543.4,409.1,545.7,409.3,547.8z"/>
		<path class="st36" d="M446.8,566.2l-23.2,6.5l-7.6-16c0.5-0.7,0.9-1.4,1.3-2s0.8-1.5,1.1-2.2c2.9-6.2,1.3-9.7,1.3-9.7
			s23.2-7.9,23.6,1.6c0.1,2.5,0.3,4.8,0.4,6.8c0.5,6,1,10.1,1,10.1l1,2.3L446.8,566.2z"/>
		<path class="st37" d="M449.8,568.5c-16,12.3-48.9,14.6-61.7,12.1c-6.4-1.3-8-4.2-8-6.9c0.1-1.8,0.6-3.5,1.5-5
			c4.9-12.8,18.5-19,33.9-14.6c0.6,0.2,1.2,0.4,1.7,0.6c13.3,4.7,10.3,15,10.3,15c12.1-1.3,16.8-4.8,18.1-6.1
			c0.3-0.3,0.4-0.4,0.4-0.4l-1.4-1.9l5,0.5v4.2L449.8,568.5z"/>
		
			<ellipse transform="matrix(0.9821 -0.1884 0.1884 0.9821 -98.3727 85.194)" class="st38" cx="398.9" cy="560" rx="12.2" ry="5.3"/>
		<path class="st39" d="M449.5,568c-15.9,12.3-48.7,14.6-61.4,12.1c-6.3-1.3-8-4.2-8-6.9c2.5,3,11.2,8.2,42,3
			c1.9-0.3,3.7-0.8,5.5-1.3c5.2-1.7,16.3-5.5,21.8-9.4L449.5,568z"/>
		<path class="st40" d="M443.1,551.2c-9,4.4-19.5,2.6-24.5,1.3c2.8-6.2,1.3-9.7,1.3-9.7s22.4-7.9,22.9,1.6
			C442.8,546.8,443,549.2,443.1,551.2z"/>
		<path class="st41" d="M458.1,482.7c-0.4,10.3-0.5,18.9,0.2,24c2.8,20.2-7.3,27.1-7.3,27.1c1.7,10.4-3.1,4.9-5.6,11.1
			s-12.2,4.5-12.2,4.5c-14.3,2.8-24-0.3-24-0.3c-9.4,1.6-19,0.5-27.8-3.2c-2.1-0.7-0.7-7-0.7-7l-0.8-1.1c-7.7-10.3,0-4.6-4-18
			c-0.2-0.6-0.4-1.3-0.5-1.9c-2.1-8.6-2.1-19.5-1.4-28.6l0,0c0.4-5.7,1.1-10.7,1.6-14c1.1-7.4,3.6-30.2,4.9-46.5
			c0.3-3.7,0.5-7.1,0.6-9.9c0.3-7.5,1-15.9,1.5-22.4s1-11.3,1-11.3s70.6-20.2,76.2,3.5c3,12.6,1.6,39.6,0.1,65
			C459.2,464,458.6,474,458.1,482.7C458.1,482.7,458.1,482.7,458.1,482.7z"/>
		<path class="st42" d="M459.7,453.9c-0.6,10.2-1.2,20.2-1.6,28.9l0,0c-0.1,0.3-0.2,0.5-0.4,0.7c-1,2.2-3.1,3.7-5.5,3.9
			c-2.7-0.1-5-2-5.7-4.6c-0.6-2.6,0-5.4,1.7-7.5c-3.1,2.1-7.8,2.4-10.3-0.3s-1.9-7.3,0.7-9.9s6.5-3.4,10.1-3
			c-3.1-5.3-3.4-13.1,3.3-14.7C459.3,446.9,457,452.1,459.7,453.9z"/>
		<path class="st42" d="M398.6,499.6c-1.8,3-5,4.8-8.5,4.8c4.1,2,5.2,8.4,1.9,11.5s-9.7,1.8-11.5-2.4c-0.3,2.5-2.7,4.2-5.2,4.4
			c-2.1-8.6-2.1-19.5-1.4-28.6l0,0c2.2-5.1,4.5-13.7,11.2-12.1c2.6,0.6,4.2,3.4,4.5,6s-0.7,5.3-1.6,7.8c2-2.7,6.5-3,9.1-0.8
			C399.6,492.7,400.2,496.6,398.6,499.6z"/>
		<path class="st42" d="M400.2,417.4c-1.1,3.3-5.1,5.7-8.4,4.4c0.7,3.5-1.4,7-4.7,8.1c-2.3,0.7-4.7,0.3-6.7-1
			c0.3-3.7,0.5-7.1,0.6-9.9c0.3-7.5,1-15.9,1.5-22.4h0.1c5.2-1.8,15,1.7,10.4,8.6c1.9-0.6,3.7,0.8,4.9,2.4
			C400.1,410.3,401.3,414.1,400.2,417.4z"/>
		<path class="st41" d="M411.6,437.5c0,0-0.6,43.5-3.8,64.3c0,0-1.7,7,0.4,17.4c2.1,10.4,8.3,10.8,3.1,14.3s3.5,4.5,1.7,8.7
			c0,0-4.9,2.4-3.8,7"/>
		<path class="st41" d="M403.6,431.9c0,0,10.1-2.1,15,9"/>
		<path class="st41" d="M441.6,395.1c0,0-2.4,10.4,18.1,25"/>
		<path class="st43" d="M420.9,119.1c0,0,25.3,5.6,25.5,6.6c1.6,5.6-0.2-10.6,10.1,17.5c7.7,20.9,4.4,70.7,30.1,100.6
			c0.2,0.2,0-0.3,0,0c-3.1,16.7-32.4,53.6-69.9,37.6c0,0-28.2,15.7-54.3,6.3s-20-42.8-32.9-65.4s-27.8-47.7-22.6-71
			S399,78.8,420.9,119.1z"/>
		<path class="st41" d="M487.4,291.4c-12.1,4.9-16.7,31.3-16.7,31.3l-8.7-5.4l-9-8.5l2.8,18.1c5.8,21.3,9.1,43.3,9.7,65.4l-5.3,3
			c-67.9,10-79.5-8.1-79.5-8.1c0.5-41-6.3-66.5-6.3-66.5l-2.7,2.2l-7.2,5.9c-2.5-23.2-18.2-27.7-18.2-27.7s4.6-3.8,10.4-8.8
			c2.8-2.4,5.8-5.1,8.8-7.8c9-8.4,20.9-13.9,20.9-13.9c18.3-10.2,46.1-8.6,46.1-8.6c3.4,0.7,6.7,1.5,10,2.6c0.7,0.2,1.4,0.5,2,0.7
			l0,0c1.6,0.6,3.2,1.2,4.8,1.8c4,1.7,7.9,3.5,11.7,5.6c5.6,3.1,11,6.6,16.2,10.4C480.6,285.6,484.1,288.4,487.4,291.4z"/>
		<path class="st44" d="M363.6,238.8c1.1,4.1,9.5,9.6,16.2,12c4.7,1.8,9.8,2.5,14.8,1.9c9.1-1.1,15.5-8.4,18.6-14.5
			c1.1-2,1.6-4.3,1.4-6.6c-0.5-3.9-5.1-5.9-9.7-6.7s-8.6-0.3-17.9,1.9c-7.7,1.8-15.6,4.5-20,7.1c-2.3,1.4-3.7,2.7-3.6,3.9
			C363.4,238.2,363.5,238.5,363.6,238.8z"/>
		<path class="st45" d="M365.5,234.9c19.6,10.1,46.3-5.9,41.9-9.9c-4.4-0.7-11.2-0.5-20.5,1.7C379.3,228.6,370,232.3,365.5,234.9z"
			/>
		<path class="st46" d="M363.5,238.3c1.2-1.2,5.6-3.9,22.3-8.1c23.1-5.8,28.7,0.8,28.7,0.8c-0.9-7.7-15.5-9.4-34.3-4.9
			c-11.7,2.8-17.1,7.5-16.9,11.1C363.4,237.6,363.4,238,363.5,238.3z"/>
		<path class="st46" d="M363.6,238.8c3.7,7.9,15.6,16.8,29.9,15.3c9.2-0.9,22.7-14.2,21.1-23.2c-2.2,6.8-7.5,17.6-18.9,20
			C380.3,254.3,371.6,245.6,363.6,238.8z"/>
		<path class="st47" d="M407.2,241c0,0-7.6-2.8-13.8,2.1c0,0-10.4-0.9-12.6,5.5C380.9,248.6,397.6,251.9,407.2,241z"/>
		<ellipse class="st48" cx="421.5" cy="330.6" rx="6.9" ry="6.5"/>
		<path class="st49" d="M476.8,383.2L457,399.4l-1.9-4.7l-1.4-3.4l-25.2-33.6l-14-18.1c-1.2-1.5-1.3-3.6-0.2-5.2
			c0.2-0.4,0.5-0.7,0.8-1.1c2.6-3.6,6.2-6.3,10.3-8c0.6-0.2,1.2-0.5,1.8-0.6c1.3-0.4,2.8,0.2,3.4,1.4c2.6,5.3,10.3,19.5,19.4,26.9
			c7.9,6.4,16,18.6,20.2,25.5c0.8,1.2,1.8,2.1,2.9,2.9C474.4,382.2,475.5,382.8,476.8,383.2z"/>
		<path class="st50" d="M414.7,328.9l-5.5-7.8c0,0,1-4.2,4.9-4.2l5.9,7.1c0,0-3.9,2-5.3,4.6"/>
		<path class="st51" d="M417.4,339.1c0,0,4.8-8.7,11.8-9.5c0,0,7.4,12.6,11.4,15.9s-9.6,11.7-9.6,11.7S421.6,344.9,417.4,339.1z"/>
		<path class="st52" d="M476.8,383.2L457,399.4l-1.9-4.7l18.2-13.2C474.4,382.2,475.6,382.8,476.8,383.2z"/>
		<path class="st36" d="M464.2,366.7c0,0,33.1-9.6,48.8-35.3c2.5-4.1,2.3-9.3-0.4-13.2c-7.2-10.5-16.5-19.4-27.4-26.1
			c0,0-12.3,3.6-14.2,28.9l7.8,6.4c0,0-6.1,17.7-27,25.4"/>
		<path class="st36" d="M468.9,363.9c0,0-5,9.7-21.2,14c0,0-3.5,1.2-0.5,5.1c0,0,3.1,5.9-3.9,5.1c-2.8-0.5-5.4-2-7.2-4.2
			c0,0-4.4,1.9-5.3-6.5c0,0-3.2,1.6-5.6-5.8c0,0-5.8,0.2-1.9-10.9s20.4-14.4,35.5-10.7"/>
		<path class="st36" d="M436.2,385c0,0-2.6-10.1,8-15.6"/>
		<path class="st36" d="M430.8,377.4c-0.6-5.8,2.5-11.4,7.8-13.9"/>
		<path class="st36" d="M425.4,372.5c0,0-0.3-12.4,7.7-15.1"/>
		<line class="st53" x1="476.9" y1="331.4" x2="482.3" y2="320.8"/>
		<path class="st54" d="M487.4,291.4c-12.1,4.9-16.7,31.3-16.7,31.3l-8.7-5.4c-1.7-17.9,9.4-29.6,15-34.3
			C480.6,285.6,484.1,288.4,487.4,291.4z"/>
		<path class="st54" d="M371.7,322.9l-7.2,5.9c-2.5-23.2-18.2-27.8-18.2-27.8s4.6-3.8,10.4-8.8C360.8,296.1,372.8,308.6,371.7,322.9
			z"/>
		<line class="st53" x1="375.5" y1="324.5" x2="370.3" y2="299.4"/>
		<line class="st53" x1="453.4" y1="309.9" x2="450.8" y2="291.2"/>
		<path class="st36" d="M414.4,279.6c-18.4,5.6-23.3-3.8-23.3-3.8c-0.1-3,0-6,0.5-8.9c0.9-5.7,2.6-11.2,5-16.5
			c-1.7-23.6,29.7-24.4,25-12.9c-2.5,6.3-2.6,13.3-0.2,19.7c0.7,1.9,1.6,3.8,2.8,5.5C435.8,281.8,414.4,279.6,414.4,279.6z"/>
		<path class="st40" d="M421.7,237.5c-2.5,6.3-2.6,13.3-0.2,19.6c-7.8,7.9-22.8,9.5-29.9,9.7c0.9-5.7,2.6-11.2,5-16.5
			C395,226.7,426.4,225.9,421.7,237.5z"/>
		<path class="st54" d="M432,268.8c0,7-11.2,15.3-22.6,15.3s-20.7-5.7-20.7-12.7c0.1-2.4,1-4.6,2.7-6.3c-0.1,0.3-0.2,0.6-0.3,1
			c-1,5.3,5.9,10.1,15.5,10.7s18.2-3.2,19.2-8.5c0.3-2-0.4-4.1-1.8-5.5c-0.3-0.8-0.5-1.6-0.5-2.4C427,262.7,432,265.4,432,268.8z"/>
		<path class="st33" d="M329,135.3c0,0-20,36.9,6.4,83.5c2.2,8.7,5.8,16.9,10.7,24.4c6.2,9.2,15.6,15.9,26.3,18.8
			c7.6,2.1,17.6,3.7,27.7,2c12.6-2.2,25.2-12,33.9-24.8c8.1-12,11.4-26.6,9.3-41c-2.8-19.9-12.6-66.8-40.8-79.1
			C361.2,101,329,135.3,329,135.3z"/>
		<path class="st55" d="M373.7,236.7c0,0,18.4-18.7,36.9-4.2c0,0-6.4-4.2-21.7-1.2C365.2,236,373.7,236.7,373.7,236.7z"/>
		<path class="st40" d="M325.7,196.9c0,0,1.2-21.2,10.4-36.1c0,0,25.9,14.1,43,10.6l-9.6-14.6c0,0,10.8,3.6,17.7,2.4l-4-10.6
			c0,0,10.4,8.9,34.3,7.8c0,0,13.4-1.6,21.4,26.4l-9-34.8L389,129l-43.3,2.6l-15.3,14.3l-11.6,33l6.8,18.8"/>
		<ellipse class="st56" cx="398.4" cy="192" rx="14.3" ry="14.6"/>
		<ellipse class="st57" cx="396.1" cy="198.7" rx="7.3" ry="7.4"/>
		<ellipse class="st58" cx="401.1" cy="193.9" rx="1.7" ry="1.7"/>
		<ellipse class="st56" cx="353.8" cy="208" rx="14.3" ry="14.6"/>
		<ellipse class="st57" cx="351.5" cy="214.7" rx="7.3" ry="7.4"/>
		<ellipse class="st58" cx="356.5" cy="209.8" rx="1.7" ry="1.7"/>
		<path class="st59" d="M386,165.8c6.6-4,15.1-3.2,20.8,2.1c0,0,0-6.2-11.4-8.6C395.4,159.2,387.2,158.4,386,165.8z"/>
		<path class="st59" d="M351.4,173.6c0,0-12.5-0.5-15.8,13c0,0-3.6-5.5,4.3-13.8C340,172.9,346.1,167.7,351.4,173.6z"/>
		<path class="st33" d="M375.4,217.5c0,0,0.2,8.6,8.6,8.1s8.8-10,8.8-10"/>
		<path class="st60" d="M409.5,240.6c1.2-1.3,1.8-2.9,1.8-4.6c-0.2-4.1-3.6-7.3-7.7-7.1c-1.3,0-2.6,0.3-3.8,0.9
			c-1.4-1.2-3.2-1.8-5.1-1.8c-3.8-0.1-7,2.6-7.6,6.4c-0.5-0.1-1-0.1-1.4-0.1c-2.2,0-4.3,0.5-6.2,1.7c-2-1.4-4.3-2.1-6.7-2
			c-4.8,0-8.7,2.5-8.7,5.6c0,2.7,3.1,5,7.1,5.5c-2.3,1-3.8,2.7-3.8,4.6c0,3.1,3.9,5.6,8.7,5.6h0.4c1,4.8,5.7,7.8,10.4,6.8
			c3.2-0.7,5.8-3.1,6.6-6.3c1,0.4,2,0.6,3,0.6c3.4,0.1,6.4-2.1,7.4-5.4h0.6c4.8,0,8.7-2.5,8.7-5.6
			C413.4,243.3,411.9,241.6,409.5,240.6z"/>
		<path class="st61" d="M298.8,265.7c0,0,1-4.2,11-8.4s45.9-11.8,51.6-14.8c0-1.7,1.1-3.3,2.6-4c4.7-2,20.2-5.6,24.9-7.3
			c0,0,5.7,2.8,2.4,7.5c0,0,1,3.1-26.6,9.9c0,0-5.6,0.2-23.8,8.5C322.6,265.6,300.4,272.9,298.8,265.7z"/>
		<path class="st36" d="M323.8,284.3c-20-1.4-12.5-21.7-12.5-21.7c5.7-11.5,25-6.4,25-6.4l3.8,15.6l-4.7,9.4"/>
		<path class="st36" d="M310.8,250.7c0,0-6.4-0.1-5.2,7.6c1.1,7.3,7,13.7,12,9.9c0.5-0.5,0.9-1.2,1-1.9c0,0,3.6,0.5,2.7-3.2
			c0,0,6.1,4.2,8.2-3.1l8.6-4.2c0,0,1.9-9.6-2.1-13.3s-7.6-0.7-8.4,2.9c0,0-2.4-4.5-6.4-3c-1.6,1-2.7,2.6-3,4.4
			C318.3,246.7,312.8,242.4,310.8,250.7z"/>
		<path class="st36" d="M311.3,249.1c0,0-3.3,12.4,8.4,17"/>
		<path class="st36" d="M319.4,244.2c-2.8,6.3-1.9,13.6,2.4,19"/>
		<path class="st36" d="M327.3,245c0,0,1.5,1.6,0.6,10"/>
		<path class="st36" d="M335.3,278.4c15.3-12,12.4-24.5,6.1-26.8s-17.4,0.5-19.1,5.6c-1.7,5,2.6,4.9,2.6,4.9
			c5.9-1.2,9.9-2.1,9.9-2.1c-11.7,4.5-6.1,13-6.1,13"/>
		<path class="st60" d="M422.4,253.7c0.2,2.6-1.8,4.8-4.3,4.9c-2.6,0.2-4.8-1.8-4.9-4.3c0-0.2,0-0.4,0-0.6c0-2.7-5.5-7.6-2.9-7.6
			S422.4,251,422.4,253.7z"/>
		<path class="st60" d="M428,243.8c0,2.7-4.2,2.3-6.7,2.3c-2.7-0.2-4.7-2.5-4.6-5.2c0.2-2.4,2.1-4.4,4.6-4.6
			C423.8,236.3,428,241.1,428,243.8z"/>
		<path class="st43" d="M336.4,155.1c0,0,8.9,10.2,38.1,14.1l-14.1-21.6c0,0,5.2,9.8,24.5,8.8l-7.3-13.7c0,0,19.3,11.8,38.6,11.3
			s23.8,34.3,23.8,34.3s4.9,8.3,14.8,5.4s8.9-81.7-42.3-101.7s-95.5,14.1-104.3,46.9c0,0-12,38,17.6,61.2c2.1,1.6,0-3.1,0-3.1
			S317,176.7,336.4,155.1z"/>
		<path class="st33" d="M438.5,186.4c1.1-7.4,4.8-10.3,8.7-11.3c5.1-1.2,9.3,2.3,11.6,10.4s2.3,12.9-1.6,20s-6,10.7-14,9.2"/>
		<path class="st34" d="M443.8,211.4c0.9-0.1,1.7-0.6,2.3-1.2c0.6-0.6,1.2-1.2,1.8-1.9c1.1-1.4,1.7-3.2,1.7-5c0-1.8-0.6-3.6-1.8-5
			c-0.7-0.8-1.5-1.5-2.4-1.9c0.1-0.7,0.2-1.4,0.4-2c0.4-1.8,0.9-3.5,1.4-5.3c0.6-1.7,1.1-3.5,2.4-4.7c0.6-0.6,1.4-0.9,2.3-0.9
			c0.9,0,1.8,0.5,2.2,1.3c-0.3-0.9-1.2-1.6-2.1-1.7c-1-0.1-2,0.2-2.8,0.8c-1.5,1.3-2.2,3.2-2.8,4.9c-0.6,1.8-1,3.6-1.3,5.4
			c-0.1,0.6-0.1,1.3-0.2,1.9c0,0.1,0,0.2,0,0.3l0.4,0.3c0.7,0.6,1.4,1.2,1.9,2c0.9,1.3,1.4,2.9,1.4,4.6c0,1.6-0.5,3.3-1.4,4.6
			c-0.5,0.7-1,1.4-1.5,2C445.3,210.6,444.6,211.1,443.8,211.4z M454.3,201.3c-1,1.6-2.1,3.1-3.2,4.6c1.4-1.3,2.7-2.7,3.8-4.2
			c1.2-1.6,1.9-3.4,2.1-5.4c0.1-2-0.4-3.9-1.4-5.6c-1-1.6-2.1-3.1-3.5-4.5c1.1,1.5,2,3.1,2.9,4.8c0.8,1.6,1.2,3.4,1.1,5.2
			C455.8,198,455.2,199.8,454.3,201.3z"/>
		<path class="st35" d="M451,208.1c0,0-0.6,12.6,6.3,11.8s0.1-11.8,0.1-11.8s2.5,10.6-2,5.3L451,208.1z"/>
		<path class="st62" d="M306.4,151.3c0.4-9.3,3-18.4,7.6-26.5c4.7-8.2,11.3-15.3,19.3-20.5c4-2.6,8.2-4.9,12.6-6.6
			c2.2-1,4.4-1.7,6.7-2.5c1.1-0.4,2.3-0.7,3.4-1s2.3-0.7,3.4-0.9l3.5-0.8c1.2-0.3,2.3-0.4,3.5-0.6s2.2-0.4,3.5-0.6s2.5-0.3,3.7-0.4
			c4.8-0.3,9.7-0.2,14.5,0.4c9.8,1.1,19.2,4.1,27.9,8.7c4.3,2.4,8.4,5.4,12,8.8c0.9,0.9,1.8,1.8,2.6,2.7c0.4,0.5,0.9,0.9,1.3,1.4
			l1.2,1.4c0.8,1,1.6,1.9,2.3,2.9l2.1,3.1c0.7,1,1.3,2.1,1.9,3.2l1.8,3.2l1.5,3.3c0.5,1.1,1,2.2,1.4,3.3c0.9,2.2,1.6,4.5,2.3,6.8
			l1,3.4c0.3,1.1,0.5,2.3,0.8,3.5c1.8,9.2,2.3,18.6,1.4,27.9l-1.2,0.1c-2.3-8.7-5.1-17.2-8.4-25.6c-0.7-2.1-1.7-4-2.6-6
			s-1.9-3.9-2.9-5.8c-0.5-1-1-1.9-1.6-2.8l-1.6-2.7l-1.8-2.6c-0.6-0.9-1.2-1.7-1.8-2.5l-1.9-2.5c-0.7-0.8-1.4-1.6-2-2.3l-1-1.2
			c-0.3-0.4-0.7-0.7-1.1-1.1c-0.7-0.7-1.4-1.5-2.1-2.2s-1.5-1.4-2.3-2.1s-1.6-1.3-2.4-2l-1.2-1l-1.2-0.9c-0.8-0.6-1.6-1.3-2.5-1.8
			c-7-4.7-14.9-7.9-23.1-9.4c-4.2-0.8-8.4-1.2-12.7-1.2c-1,0-2.1,0-3.1,0.1l-3.2,0.3c-1.1,0.1-2.2,0.2-3.3,0.4L361,101
			c-1.1,0.1-2.1,0.4-3.2,0.6s-2.1,0.4-3.2,0.7c-2.1,0.6-4.2,1.1-6.3,1.8c-4.1,1.3-8.1,3.1-11.9,5.2c-7.7,4.2-14.2,10.2-19.2,17.4
			c-2.5,3.7-4.6,7.6-6.3,11.8c-1.7,4.1-2.8,8.5-3.4,12.9L306.4,151.3z"/>
		<path class="st63" d="M452.6,138.7c-5.6,5.9-6.2,14.3-14.6,6.4s-5.1-25-5.1-25s16.9-4.3,25.3,3.7S458.1,132.8,452.6,138.7z"/>
		<path class="st63" d="M412.8,101.1c-5.6,5.9-14,7-5.5,15s25.3,3.7,25.3,3.7s3.3-17.1-5.1-25S418.3,95.2,412.8,101.1z"/>
		<circle class="st64" cx="424.7" cy="100.4" r="1.8"/>
		<circle class="st64" cx="427.9" cy="107.3" r="1.8"/>
		<circle class="st64" cx="417.5" cy="108" r="1.8"/>
		<path class="st64" d="M421.4,116.6c-0.7,0.7-1.8,0.7-2.5,0.1c-0.7-0.7-0.7-1.8-0.1-2.5s1.8-0.7,2.5-0.1c0,0,0,0,0,0
			C422.1,114.7,422.1,115.8,421.4,116.6z"/>
		<circle class="st64" cx="412.7" cy="113.1" r="1.8"/>
		<path class="st64" d="M431.2,111.3c-0.7,0.7-0.7,1.8,0,2.4c0.4,0.3,0.8,0.5,1.3,0.5c0-1.1,0.1-2.2,0-3.5
			C432,110.8,431.5,111,431.2,111.3z"/>
		<path class="st64" d="M431,103.9c0.2,0.2,0.5,0.4,0.9,0.4c-0.2-1-0.5-2-0.9-3h0c-0.7,0.7-0.7,1.8,0,2.5
			C430.9,103.9,431,103.9,431,103.9z"/>
		<path class="st64" d="M414.1,119.2L414.1,119.2c1,0.3,2,0.5,3,0.7c-0.1-0.3-0.2-0.6-0.5-0.8C415.9,118.5,414.8,118.5,414.1,119.2
			C414.1,119.2,414.1,119.2,414.1,119.2z"/>
		<path class="st64" d="M426.5,118.9c-0.7-0.7-1.8-0.7-2.4,0c-0.4,0.4-0.5,0.9-0.5,1.4c1.2,0,2.4-0.1,3.5-0.2
			C427,119.7,426.8,119.2,426.5,118.9z"/>
		<path class="st64" d="M418.5,99.3c0.7-0.7,0.6-1.8-0.1-2.5c-0.4-0.4-0.9-0.5-1.4-0.4c-0.5,0.7-0.9,1.4-1.4,2.2
			c0.1,0.3,0.2,0.6,0.5,0.8C416.7,100.1,417.8,100,418.5,99.3C418.5,99.3,418.5,99.3,418.5,99.3z"/>
		<path class="st64" d="M420.8,94.3c0.7,0.7,1.8,0.6,2.5-0.1c0.3-0.4,0.5-0.9,0.5-1.4c-1-0.6-2.3-0.7-3.4-0.2
			C420.2,93.3,420.4,93.9,420.8,94.3z"/>
		<path class="st64" d="M408.8,107c0.7,0.7,1.8,0.6,2.5-0.1c0.7-0.7,0.6-1.8-0.1-2.5c-0.2-0.2-0.5-0.4-0.8-0.4
			c-0.7,0.6-1.4,1.1-2.1,1.6C408.2,106.1,408.4,106.6,408.8,107z"/>
		<path class="st64" d="M406.5,112c0.7-0.7,0.6-1.8-0.1-2.5c0,0,0,0,0,0c-0.4-0.4-1-0.6-1.6-0.4c-0.4,1.1-0.3,2.4,0.4,3.4
			C405.7,112.6,406.2,112.4,406.5,112z"/>
		<circle class="st64" cx="452.6" cy="126.8" r="1.8"/>
		<circle class="st64" cx="445.1" cy="124.5" r="1.8"/>
		<circle class="st64" cx="445.4" cy="134.4" r="1.8"/>
		<path class="st64" d="M436.7,130.9c-0.7,0.7-0.6,1.8,0.1,2.5c0.7,0.7,1.8,0.6,2.5-0.1s0.6-1.8-0.1-2.5c0,0,0,0,0,0
			C438.4,130.2,437.3,130.2,436.7,130.9z"/>
		<circle class="st64" cx="440.6" cy="139.5" r="1.8"/>
		<path class="st64" d="M441.3,120.9c-0.7,0.7-1.8,0.7-2.5,0.1c-0.3-0.3-0.5-0.8-0.5-1.3c1-0.1,2.2-0.2,3.5-0.2
			C441.9,120,441.7,120.5,441.3,120.9z"/>
		<path class="st64" d="M448.7,120.7c-0.2-0.2-0.4-0.5-0.5-0.8c1,0.2,2,0.4,3,0.7c0,0,0,0,0,0.1
			C450.6,121.3,449.5,121.4,448.7,120.7C448.8,120.7,448.8,120.7,448.7,120.7z"/>
		<path class="st64" d="M434.4,138.4L434.4,138.4c-0.4-0.9-0.6-1.9-0.9-2.9c0.9,0.2,1.5,1.1,1.3,2.1
			C434.8,137.9,434.7,138.2,434.4,138.4L434.4,138.4z"/>
		<path class="st64" d="M434.1,126.1c0.7,0.7,0.7,1.8,0.1,2.5c-0.4,0.4-0.9,0.6-1.4,0.5c0-1.2,0-2.4,0-3.5
			C433.2,125.6,433.7,125.7,434.1,126.1z"/>
		<path class="st64" d="M454,132.9c0.7-0.7,1.8-0.7,2.5-0.1c0.4,0.4,0.6,0.9,0.5,1.4c-0.7,0.5-1.4,1-2.1,1.6
			c-0.3-0.1-0.6-0.2-0.8-0.4C453.4,134.7,453.3,133.6,454,132.9z"/>
		<path class="st64" d="M458.9,130.3c-0.7-0.7-0.7-1.7-0.1-2.4c0,0,0,0,0,0c0.3-0.4,0.8-0.6,1.3-0.5c0.7,1,0.8,2.3,0.4,3.4
			C460,130.9,459.3,130.7,458.9,130.3z"/>
		<path class="st64" d="M446.9,143c-0.7-0.6-0.8-1.7-0.2-2.5c0.6-0.7,1.7-0.8,2.5-0.2c0,0,0.1,0.1,0.1,0.1c0.2,0.2,0.4,0.5,0.5,0.8
			c-0.5,0.8-1,1.5-1.4,2.2C447.8,143.5,447.3,143.4,446.9,143z"/>
		<path class="st64" d="M442,145.6c0.6-0.7,1.7-0.8,2.5-0.1c0.5,0.4,0.7,1,0.5,1.7c-1.1,0.5-2.4,0.4-3.5-0.2
			C441.6,146.4,441.7,146,442,145.6z"/>
		<path class="st65" d="M421.6,104.7c-2.7,1.8,6.5,9.7,6.5,9.7S424.3,103,421.6,104.7z"/>
		<path class="st65" d="M418.5,111.8c-1,1.9,8.5,4.5,8.5,4.5S419.4,109.9,418.5,111.8z"/>
		<path class="st65" d="M448.5,130.1c-1.6,2.8-10-5.9-10-5.9S450.1,127.3,448.5,130.1z"/>
		<path class="st65" d="M441.6,133.6c-1.9,1.1-5-8.3-5-8.3S443.5,132.5,441.6,133.6z"/>
		<path class="st66" d="M427.4,117.9l2.9-3.1c1.2-1.2,3.1-1.3,4.4-0.1l3.1,2.9c1.2,1.2,1.3,3.1,0.1,4.4l-2.9,3.1
			c-1.2,1.2-3.1,1.3-4.4,0.1l-3.1-2.9C426.3,121.1,426.2,119.1,427.4,117.9z"/>
		<path class="st42" d="M452,275.8c0,0,5.6,11.8-3.8,10.4c-9.2-1.4-4.7-9.4-4.5-9.7c-0.4,0.3-9.4,7.1-10.4-1.4c-1-8.7,8-5.9,8-5.9
			c-0.5-3.4,0.1-4.5,1.1-4.6c0.7,0,1.4,0.3,2,0.7l0,0c1.3,0.8,2.4,1.8,3.5,2.9c0.4-0.4,0.9-0.7,1.3-1c4,1.7,7.9,3.5,11.7,5.6
			l0.2,0.3C462.1,281.7,452,275.8,452,275.8z"/>
		<path class="st42" d="M406.7,312.3c0,0.3-0.1,0.5-0.2,0.8c-0.3,0.7-0.8,1.2-1.4,1.6c-0.9,0.6-3.9,0.9-4.6-0.2
			c0.8,1.3,1.6,1.9,1.2,3.6c-0.1,0.6-0.4,1.1-0.7,1.6c-0.5,0.7-1.1,1.3-1.8,1.8c-0.3,0.2-0.6,0.3-1,0.5c-0.2,0.1-0.5,0.1-0.7,0.2
			c-2.8,0.3-5.3-2.4-5.1-5.4c0,0.5-1.6,1.7-2,1.9c-1.1,0.6-2.3,0.8-3.5,0.6c-0.4-0.1-0.7-0.2-1-0.3c-0.3-0.1-0.5-0.3-0.8-0.4
			c-0.7-0.5-1.2-1.3-1.4-2.2l0,0c0-0.2-0.1-0.4-0.1-0.6v-0.3c-0.3-2.4,1.4-4.5,3.7-4.8c0.3,0,0.6,0,0.9,0c-1.8-1.3-3.3-3-3-4.6
			c0-0.3,0.1-0.5,0.3-0.7c0.5-0.9,1.2-1.5,2.1-2c0.3-0.1,0.6-0.2,0.9-0.3c1.8-0.3,3.5,0.6,4.3,2.2c-0.3-1.9,0.4-3.8,1.9-5
			c0.6-0.4,1.3-0.6,2-0.7c0.3,0,0.7,0,1,0l0,0c0.9,0.1,1.7,0.3,2.5,0.8c0.3,0.2,0.6,0.5,0.9,0.8c2.1,2.4,0.1,5.4-1.5,7.4
			c2.2-1.4,5.1-0.8,6.6,1.3c0.1,0.2,0.3,0.5,0.4,0.8v0.1C406.8,311.2,406.8,311.7,406.7,312.3z"/>
		<path class="st42" d="M423.1,364.7c-0.1,0.4-0.2,0.7-0.3,1.1c-0.4,0.9-1,1.7-1.9,2.3c-1.3,0.9-5.4,1.2-6.2-0.3
			c1,1.8,2.2,2.6,1.6,4.9c-0.2,0.8-0.5,1.5-0.9,2.1c-0.2,0.3-0.5,0.7-0.7,1c-0.5,0.6-1.1,1.1-1.8,1.5c-0.7,0.5-1.5,0.7-2.4,0.8
			c-3.8,0.4-7.2-3.3-7-7.3c0,0.7-2.1,2.3-2.7,2.6c-1.5,0.8-3.2,1.1-4.9,0.9c-0.5-0.1-1-0.2-1.5-0.4c-0.4-0.2-0.7-0.4-1-0.6
			c-1-0.7-1.6-1.8-1.9-3l0,0c0-0.3-0.1-0.5-0.1-0.8V369c-0.3-3.7,2.5-7,6.4-6.6c-2.5-1.8-4.5-4-4.1-6.3c0.1-0.3,0.2-0.7,0.4-1
			c0.7-1.1,1.7-2.1,2.9-2.7c0.4-0.2,0.8-0.3,1.2-0.4c2.4-0.4,4.8,0.8,5.8,3c-0.7-2.3,0.8-5.6,2.6-6.9c0.8-0.5,1.8-0.8,2.8-0.9
			c0.5,0,0.9,0,1.4,0l0,0c1.2,0.1,2.4,0.5,3.4,1.1c0.3,0.2,0.6,0.4,0.9,0.6c0.1,0.1,0.3,0.3,0.4,0.4c2.9,3.3,0.2,7.4-2,10.1
			c2.8-1.9,7.3-1.1,9.1,1.8c0.2,0.3,0.4,0.7,0.5,1.1c0,0.1,0.1,0.1,0.1,0.2C423.3,363.3,423.3,364,423.1,364.7z"/>
		<path class="st67" d="M334.4,317.1c0,41.1-42,86.7-101,86.7s-113-43.7-113-84.8c0-1,0-1.9,0.1-2.8s0.1-1.7,0.2-2.5
			c4-11.7,50.3-21,106.8-21c57.9,0,105.1,9.7,107,21.9c0,0.4,0,0.8,0,1.2S334.4,316.6,334.4,317.1z"/>
		<path class="st68" d="M334.4,315.3c0,0.1,0,0.3,0,0.4c-1,12.3-48.5,22.2-107,22.2c-57.7,0-104.8-9.7-107-21.8
			c-0.1-0.9-0.1-1.7,0.2-2.5c4-11.7,50.3-21,106.7-21c57.9,0,105.1,9.7,107,21.9C334.4,314.8,334.4,315.1,334.4,315.3z"/>
		<path class="st69" d="M312.7,311.7c0,7.5-35,13.5-78.1,13.5c-13.5,0-26.2-0.6-37.3-1.6c-6.2-0.6-12-1.3-17-2.2
			c-14.7-2.5-23.8-5.9-23.8-9.7s9.1-7.3,23.8-9.7c5.1-0.9,10.8-1.6,17-2.2c11.1-1,23.8-1.6,37.3-1.6
			C277.8,298.1,312.7,304.2,312.7,311.7z"/>
		<path class="st70" d="M132,298.8v19.7c0,1.3,6.4,2.3,14.3,2.3s14.3-1,14.3-2.3v-19.7H132z"/>
		<ellipse class="st71" cx="146.3" cy="298.8" rx="14.3" ry="2.3"/>
		<path class="st72" d="M199.1,235.6c0-8.8-7.1-15.9-15.9-15.9h-29c-8.8,0-15.9,7.1-15.9,15.9l0,0v63.1l0,0c0,0.7,3.6,1.3,7.9,1.3
			s7.9-0.6,7.9-1.3l0,0v-60.8c0-1.3,1-2.3,2.3-2.3l0,0h19.3c2.1,0,3.8,1.7,3.8,3.8v13.8H199v-17.6H199.1z"/>
		<path class="st70" d="M175.4,251.2h23c0.9,0,1.6,0.7,1.6,1.6v1.7c0,0.9-0.7,1.6-1.6,1.6h-23c-0.9,0-1.6-0.7-1.6-1.6v-1.7
			C173.8,251.9,174.5,251.2,175.4,251.2z"/>
		<polyline class="st67" points="162.5,337.3 162.5,578 121.5,571.8 120.5,325.5 		"/>
		<path class="st73" d="M162.7,333.3c0,0,5.3,40.7,28.8,63.5v166.5l-29,14.7L162.7,333.3z"/>
		<path class="st74" d="M294.5,297.9c-6.6-1.1-13.4-1.4-20.1-0.7c-1.1,0-2.2,0.4-3,1c-1.4,1.4-0.5,4,1.2,5s3.7,1.1,5.7,1.5
			s4,1.1,4.8,3c0.4,1.1,0.4,2.4,0.1,3.5c-0.4,1.5-1.2,3-2.2,4.2c-0.6,0.5-1,1.2-1.3,1.9c-0.6,2.1,2.4,3.7,4.4,2.9s3.1-3,4.2-4.9
			s2.5-3.9,4.7-4.2c1.3,2-1.3,5.2,0.2,7.1c0.9,1.1,2.5,1,3.9,0.9l18.2-2.1c-0.9,2.9-4.4,3.8-7.3,4.4s-6.4,1.7-7.1,4.7
			c8.1,2.8,16.7-1.4,24.2-5.6c1.8-1,3.8-2.4,3.9-4.4c0.1-2.8-3.3-4.1-6-4.6s-6.1-1.9-5.9-4.7c0.2-0.7,0.2-1.4,0.2-2.1
			c-0.2-0.9-1.1-1.4-2-1.8c-8.9-4.1-18.6-6.4-28.5-6.6"/>
		<path class="st75" d="M225.2,339.9c0,0,80.1,4.3,107.2-17c0,0-8.9,70.8-94.4,78.6c0,0,52.3-24.8,38.3-39.9
			S225.2,339.9,225.2,339.9z"/>
		<path class="st76" d="M158.3,399.1v174.2l-33.1-5.8C125.2,567.5,154.8,549,158.3,399.1z"/>
		<polygon class="st77" points="143.4,301.6 143.4,320.3 150.5,320.2 150.5,301.6 		"/>
		<path class="st78" d="M143.4,299.5v-64.1c0-4.3,3.5-7.7,7.7-7.7h33.1c4.3,0,7.8,3.4,7.8,7.7c0,0,0,0,0,0.1v14.9"/>
		<path class="st79" d="M153.2,298.9v-60c0-1.7,1.4-3.1,3.1-3.1h0h20.9c1.7,0,3.1,1.4,3.1,3.1v0v12.2"/>
	</g>
</g>
<path class="st80" d="M133,548.5h350c53.6,0,97-43.4,97-97v-333c-0.1-53.6-43.6-96.9-97.1-96.9c-2.9,0-5.8,0.1-8.7,0.4L108.1,55.5
	c-51.9,4.8-90.8,49.7-88,101.7l16,299.5C38.9,508.1,81.4,548.5,133,548.5z"/>
</svg>
