<svg id="Layer_1" data-name="Layer 1" xmlns="http://www.w3.org/2000/svg" xmlns:xlink="http://www.w3.org/1999/xlink" width="510" height="510" viewBox="0 0 510 510">
  <defs>
    <style>
      .cls-1, .cls-68, .cls-69 {
        fill: none;
      }

      .cls-2, .cls-22 {
        opacity: 0.3;
      }

      .cls-3 {
        opacity: 0.91;
        fill: url(#radial-gradient);
      }

      .cls-4 {
        clip-path: url(#clip-path);
      }

      .cls-5 {
        fill: #a0d8d0;
      }

      .cls-6 {
        fill: #859e7b;
      }

      .cls-7 {
        fill: url(#linear-gradient);
      }

      .cls-8 {
        fill: url(#linear-gradient-2);
      }

      .cls-9 {
        fill: #202658;
      }

      .cls-10 {
        fill: #121011;
      }

      .cls-11 {
        fill: #1b1e28;
      }

      .cls-12 {
        fill: url(#linear-gradient-3);
      }

      .cls-13 {
        fill: url(#linear-gradient-4);
      }

      .cls-14 {
        fill: url(#linear-gradient-5);
      }

      .cls-15 {
        fill: url(#linear-gradient-6);
      }

      .cls-16 {
        fill: #8b4e29;
      }

      .cls-17 {
        fill: #c87942;
      }

      .cls-18 {
        fill: #d1a787;
      }

      .cls-19 {
        fill: url(#linear-gradient-7);
      }

      .cls-20 {
        fill: url(#linear-gradient-8);
      }

      .cls-21 {
        fill: url(#linear-gradient-9);
      }

      .cls-22 {
        fill: #0c0d0f;
      }

      .cls-23 {
        fill: url(#linear-gradient-10);
      }

      .cls-24 {
        fill: #485672;
      }

      .cls-25 {
        opacity: 0.11;
      }

      .cls-26 {
        fill: #4f4e4e;
      }

      .cls-27 {
        fill: #449f90;
      }

      .cls-28 {
        fill: #afddd6;
      }

      .cls-29 {
        fill: #8fd1c5;
      }

      .cls-30 {
        fill: #6d1549;
      }

      .cls-31 {
        fill: #81235e;
      }

      .cls-32 {
        fill: url(#linear-gradient-11);
      }

      .cls-33 {
        fill: #af5286;
      }

      .cls-34 {
        fill: #88406e;
      }

      .cls-35 {
        fill: url(#linear-gradient-12);
      }

      .cls-36 {
        fill: #0c8479;
      }

      .cls-37 {
        fill: #9f5f32;
      }

      .cls-38 {
        fill: #29306e;
      }

      .cls-39 {
        fill: #9d527e;
      }

      .cls-40 {
        fill: #b7749d;
      }

      .cls-41, .cls-65, .cls-66 {
        fill: #f1ad85;
      }

      .cls-41, .cls-65, .cls-68, .cls-69 {
        stroke: #77442a;
      }

      .cls-41, .cls-65, .cls-68, .cls-69, .cls-70, .cls-71 {
        stroke-miterlimit: 10;
      }

      .cls-41, .cls-69 {
        stroke-width: 0.5px;
      }

      .cls-42 {
        fill: #eaecec;
      }

      .cls-43 {
        fill: #64bcad;
      }

      .cls-44 {
        fill: #9f3f23;
      }

      .cls-45 {
        fill: #f16623;
      }

      .cls-46 {
        fill: #cb5428;
      }

      .cls-47 {
        fill: url(#linear-gradient-13);
      }

      .cls-48 {
        fill: url(#linear-gradient-14);
      }

      .cls-49 {
        fill: #00a69c;
      }

      .cls-50, .cls-74 {
        fill: #fff;
      }

      .cls-51 {
        fill: #d6c8ae;
      }

      .cls-52 {
        fill: #7c1a51;
      }

      .cls-53 {
        fill: url(#linear-gradient-15);
      }

      .cls-54 {
        fill: url(#linear-gradient-16);
      }

      .cls-55 {
        fill: #9e6da3;
      }

      .cls-56 {
        fill: #805983;
      }

      .cls-57 {
        fill: url(#linear-gradient-17);
      }

      .cls-58 {
        fill: #c04927;
      }

      .cls-59 {
        fill: #e98056;
      }

      .cls-60 {
        fill: url(#linear-gradient-18);
      }

      .cls-61 {
        fill: #f19776;
      }

      .cls-62 {
        fill: url(#linear-gradient-19);
      }

      .cls-63 {
        fill: url(#linear-gradient-20);
      }

      .cls-64 {
        fill: url(#linear-gradient-21);
      }

      .cls-65, .cls-68 {
        stroke-width: 0.75px;
      }

      .cls-67 {
        fill: #77442a;
      }

      .cls-70 {
        fill: #264426;
        stroke: #162b17;
      }

      .cls-70, .cls-71 {
        stroke-width: 0.25px;
      }

      .cls-71 {
        fill: #2f5c2d;
        stroke: #223d20;
      }

      .cls-72, .cls-73 {
        fill: #dddad9;
      }

      .cls-72 {
        opacity: 0.54;
      }

      .cls-74 {
        opacity: 0.33;
      }

      .cls-75 {
        opacity: 0.53;
      }

      .cls-76 {
        fill: #b1e5e0;
      }

      .cls-77 {
        opacity: 0.1;
        fill: url(#radial-gradient-2);
      }

      .cls-78 {
        fill: #4ecece;
        opacity: 0.5;
      }

      .cls-79 {
        fill: #fdffff;
        opacity: 0.6;
      }
    </style>
    <radialGradient id="radial-gradient" cx="-2151.92" cy="554.34" r="584.26" gradientTransform="translate(1284.21 -17.18) scale(0.48 0.48)" gradientUnits="userSpaceOnUse">
      <stop offset="0" stop-color="#fff"/>
      <stop offset="0.61" stop-color="#d3f9fc"/>
      <stop offset="0.93" stop-color="#48e5ff"/>
    </radialGradient>
    <clipPath id="clip-path">
      <ellipse class="cls-1" cx="248.26" cy="246.11" rx="242.18" ry="241.11"/>
    </clipPath>
    <linearGradient id="linear-gradient" x1="82.47" y1="92.82" x2="130.11" y2="92.82" gradientUnits="userSpaceOnUse">
      <stop offset="0" stop-color="#293b8f"/>
      <stop offset="1" stop-color="#252962"/>
    </linearGradient>
    <linearGradient id="linear-gradient-2" x1="47.89" y1="151.01" x2="114.28" y2="82.71" gradientUnits="userSpaceOnUse">
      <stop offset="0" stop-color="#293b8f"/>
      <stop offset="1" stop-color="#151945"/>
    </linearGradient>
    <linearGradient id="linear-gradient-3" x1="-0.73" y1="-110.83" x2="-3.7" y2="158.7" xlink:href="#linear-gradient"/>
    <linearGradient id="linear-gradient-4" x1="60.52" y1="12.62" x2="-96.04" y2="-136.06" gradientUnits="userSpaceOnUse">
      <stop offset="0" stop-color="#f8c4a0"/>
      <stop offset="0.66" stop-color="#d79f7e"/>
      <stop offset="1" stop-color="#c48b6b"/>
    </linearGradient>
    <linearGradient id="linear-gradient-5" x1="54.21" y1="-80.31" x2="48.41" y2="-235.11" xlink:href="#linear-gradient"/>
    <linearGradient id="linear-gradient-6" x1="55.72" y1="-19.67" x2="90.12" y2="30.21" xlink:href="#linear-gradient"/>
    <linearGradient id="linear-gradient-7" x1="379.68" y1="294.23" x2="385.22" y2="454.78" gradientUnits="userSpaceOnUse">
      <stop offset="0.01" stop-color="#88cbbf"/>
      <stop offset="1" stop-color="#3c8d80"/>
    </linearGradient>
    <linearGradient id="linear-gradient-8" x1="367.51" y1="447.56" x2="374.45" y2="396.91" gradientUnits="userSpaceOnUse">
      <stop offset="0.01" stop-color="#adddd7"/>
      <stop offset="1" stop-color="#46a99a"/>
    </linearGradient>
    <linearGradient id="linear-gradient-9" x1="199.46" y1="161.93" x2="112.85" y2="526.94" xlink:href="#linear-gradient-8"/>
    <linearGradient id="linear-gradient-10" x1="3.9" y1="243.11" x2="21.79" y2="349.06" gradientUnits="userSpaceOnUse">
      <stop offset="0.01" stop-color="#63baad"/>
      <stop offset="1" stop-color="#449f90"/>
    </linearGradient>
    <linearGradient id="linear-gradient-11" x1="169.14" y1="450.71" x2="168.45" y2="486.48" gradientUnits="userSpaceOnUse">
      <stop offset="0" stop-color="#fff"/>
      <stop offset="1" stop-color="#918f8f"/>
    </linearGradient>
    <linearGradient id="linear-gradient-12" x1="371.42" y1="437.42" x2="396.22" y2="437.42" gradientUnits="userSpaceOnUse">
      <stop offset="0.01" stop-color="#d4c9b3"/>
      <stop offset="1" stop-color="#00a69c"/>
    </linearGradient>
    <linearGradient id="linear-gradient-13" x1="235" y1="396.87" x2="299.22" y2="592.27" xlink:href="#linear-gradient-11"/>
    <linearGradient id="linear-gradient-14" x1="250.55" y1="503.25" x2="232.03" y2="451.57" xlink:href="#linear-gradient-11"/>
    <linearGradient id="linear-gradient-15" x1="161.75" y1="401.83" x2="225.96" y2="597.21" xlink:href="#linear-gradient-11"/>
    <linearGradient id="linear-gradient-16" x1="185.25" y1="492.43" x2="212.77" y2="437.84" xlink:href="#linear-gradient-11"/>
    <linearGradient id="linear-gradient-17" x1="353.98" y1="420.71" x2="356.39" y2="441.17" xlink:href="#linear-gradient-11"/>
    <linearGradient id="linear-gradient-18" x1="107.13" y1="367.75" x2="180.41" y2="590.75" gradientTransform="matrix(1.06, -0.2, 0.18, 0.98, 36.99, 26.41)" xlink:href="#linear-gradient-11"/>
    <linearGradient id="linear-gradient-19" x1="96.68" y1="47.2" x2="86.13" y2="74.72" xlink:href="#linear-gradient-2"/>
    <linearGradient id="linear-gradient-20" x1="106.5" y1="53.25" x2="85.63" y2="107.69" xlink:href="#linear-gradient-2"/>
    <linearGradient id="linear-gradient-21" x1="159.11" y1="-182.31" x2="47.19" y2="109.67" xlink:href="#linear-gradient-2"/>
    <radialGradient id="radial-gradient-2" cx="-2122.28" cy="566.42" r="476.18" gradientTransform="translate(1323.43 -17.18) scale(0.51 0.48)" gradientUnits="userSpaceOnUse">
      <stop offset="0" stop-color="#fff"/>
      <stop offset="0.43" stop-color="#d3f9fc"/>
    </radialGradient>
  </defs>
  <g>
    <circle class="cls-2" cx="262.28" cy="262.28" r="242.72"/>
    <g id="_01" data-name="01">
      <path class="cls-3" d="M490.21,248.8c0,133.44-108.61,241.64-242.61,241.64S5,382.24,5,248.8,113.61,7.15,247.6,7.15,490.21,115.34,490.21,248.8Z"/>
      <g class="cls-4">
        <g>
          <rect class="cls-5" x="-748.76" y="-299.43" width="1170.31" height="780.05"/>
          <rect class="cls-6" x="-733.45" y="-282.67" width="1229.23" height="780.21"/>
          <path class="cls-7" d="M84.53,19.44s17.76,36,29.44,65.7c0,0,16.14,54.08,16.14,62s-16.24,19.92-24.18,19S75.62,51.36,84.53,19.44Z"/>
          <path class="cls-8" d="M91.54,40.17l4.08,2.68s12.18,27,15.27,49.24,3,28.56,20.11,26.83-7.79,23.84-24.56,29.72-15.92,17.36-23.12,4S91.54,40.17,91.54,40.17Z"/>
          <path class="cls-9" d="M121,184.89c-6.89-8.25,5.5-15.13,12.38-22,1.38-1.38,4.13-6,0-6.88-16.88,4.44-22.86-6-24.61-18.84a196.74,196.74,0,0,0-15.65,19.42L72,215.79c18.29.74,39.1-12.71,55.36-27A9.47,9.47,0,0,1,121,184.89Z"/>
          <path class="cls-10" d="M-98.07,310.29l-5.44,2.1s-3.55,2.84-.5,11.26l2.91,8.81s-1.69,44.76,0,77.41L77.47,378.42l27.37-36L112.6,308Z"/>
          <path class="cls-11" d="M-84.91,283.56l8.25,3s-27.19,3.76-22.24,9.07c0,0-13.81,14.5-6.34,19.83,27.47,19.6,7.94,141,31.7,146.54,16.13,3.78,82-12.45,105.6-11.45C94.63,453.2,86,321.75,96,312.19s2.91-26.32-4.5-29.08S-84.91,283.56-84.91,283.56Z"/>
          <path class="cls-12" d="M100.12,270.17c0-.15-.07-.3-.09-.45a.13.13,0,0,1,0-.06l0-.17a10.43,10.43,0,0,1-.12-1.48,6.55,6.55,0,0,1,.15-1.41,10.63,10.63,0,0,1-.19-2.15c0-10.64,1.49-62.83,1.69-106,0-7.31,4.16-23.88,3.82-29.77-2.34-40.66,1.87-52.62-5.14-55,0,0-.47-3.35-3.74-22.48S99.66,12,72.62,3.81C47.66-3.73-54-16.28-54-16.28l-4.22,5s-14.07-1.09-15.88,5.53c0,0-21,12.92-37.85,38.76s8.42,134.68,9.12,149c.06,1.27,8.12,12.15,8,13.92l12.25,20.48-12.16,71.66L-94,296c21.18,8,58.68,26.05,115.24,22.61,4.64-.28,24.41-3.2,28.56-3.55l5.53-22.53,3.15,21.7c85.06-9,39.3-31.74,38-41.06C95.85,268.77,97.64,269.19,100.12,270.17Z"/>
          <path class="cls-13" d="M-26.09-77.35s-3.65,26.62-7.1,39.18l1.53,8.3S-32.2-20-26.44-15.28,28,6.68,28,6.68s-3.66,15.77,0,17.58S35.53,34,35.53,34s.79-10,1.32-17.22A83.06,83.06,0,0,0,36.85,4s12.45-8,13.84-20.23-1.9-17.43-1.9-17.43L45-41,43.89-57.9Z"/>
          <path class="cls-14" d="M75.83-18.19C72.25-26.33,45-41,45-41s.22,3.37.53,7.46l2.64,9.26.36,4.65-1.21,3.31h0C46-9.76,36.85,4,36.85,4S57.3,9.08,61,12.9s8.09,18.18,15.89,24.4C76.93,37.3,79.4-10.06,75.83-18.19Z"/>
          <path class="cls-15" d="M75.83-18.19a13.25,13.25,0,0,0-2.56-3.53L61,12.84l.07.06c3.73,3.83,8.09,18.18,15.89,24.4C76.93,37.3,79.4-10.06,75.83-18.19Z"/>
          <rect class="cls-16" x="380.77" y="-0.84" width="151.45" height="325.74"/>
          <polygon class="cls-17" points="-580.72 480.77 487.65 274.43 487.65 480.77 -580.72 480.77"/>
          <polygon class="cls-18" points="456.68 374.72 322.61 332.46 -35.2 410.87 -13.18 420.64 318.21 347.56 442.62 383.91 456.68 374.72"/>
          <polygon class="cls-18" points="10.77 452.72 1.27 460.84 60.3 480.77 87.32 480.77 10.77 452.72"/>
          <polygon class="cls-19" points="446.01 380.28 323.88 346.57 323.46 346.64 319.05 373.65 323.46 480.62 446.01 480.62 446.01 380.28"/>
          <polyline class="cls-20" points="441.71 398.53 444.74 388.2 322.95 346.57 322.61 346.64 311 355.68 322.61 359.9"/>
          <polygon class="cls-21" points="-62.38 427.75 93.47 480.62 322.61 480.62 322.61 346.64 -62.38 427.75"/>
          <path class="cls-16" d="M380.77,351.15,507.84,394l6.46-136.81c-48.58-6.53-94.1-16.31-133.53-29.58Z"/>
          <path class="cls-22" d="M384.3,237.72h9s3.63,1.22,4,11.31,0,63.8,0,63.8-3.54,4-6.42,4a77.16,77.16,0,0,1-10.12,0Z"/>
          <path class="cls-23" d="M70.1,399.83-62.38,427.75,93.47,480.62h48C109.63,462.82,84,436.81,70.1,399.83Z"/>
          <g>
            <path class="cls-24" d="M248.54,113.48l11.25,1.94a57,57,0,0,1,113.09,9.74V243.83H384.3V125.16a68.38,68.38,0,0,0-135.76-11.68Z"/>
            <path class="cls-25" d="M318,68.24a57,57,0,0,1,54.92,56.92V243.83h4V125.16a57,57,0,0,0-57-57C319.29,68.2,318.62,68.21,318,68.24Z"/>
            <rect class="cls-26" x="350.36" y="265.72" width="4.17" height="25.47" transform="translate(704.89 556.91) rotate(-180)"/>
            <rect class="cls-24" x="333.28" y="258.88" width="7.16" height="5.89" transform="translate(673.71 523.65) rotate(-180)"/>
            <path class="cls-24" d="M332.1,235.68h9.52a0,0,0,0,1,0,0v19.41a3.79,3.79,0,0,1-3.79,3.79h-1.94a3.79,3.79,0,0,1-3.79-3.79V235.68A0,0,0,0,1,332.1,235.68Z" transform="translate(673.71 494.56) rotate(-180)"/>
            <path class="cls-24" d="M362.46,245.4v67.46c0,1.47,7.22,2.66,16.13,2.66s16-1.17,16.13-2.63V245.4a4,4,0,0,0-4-4H366.47A4,4,0,0,0,362.46,245.4Z"/>
            <path class="cls-24" d="M329.11,264.77h17.25a5.4,5.4,0,0,1,5.4,5.4v16.56a5.4,5.4,0,0,1-5.4,5.4H329.11a0,0,0,0,1,0,0V264.77a0,0,0,0,1,0,0Z" transform="translate(680.87 556.91) rotate(-180)"/>
            <rect class="cls-24" x="353.4" y="264.77" width="9.06" height="27.37" transform="translate(715.85 556.91) rotate(-180)"/>
            <rect class="cls-25" x="353.39" y="285.71" width="9.06" height="6.43"/>
            <path class="cls-25" d="M335.54,269.48v-4.71h-1.17l-.11.05c-.23.11-.46.24-.68.37-.43.26-.84.54-1.26.82a14.94,14.94,0,0,1-1.83,1.12l0,.08,0,0a.66.66,0,0,1-.05.25c-.18.42-.36.85-.53,1.27l.12-.3c-.31.74-.61,1.5-.86,2.26V287.3a.92.92,0,0,1,.44.43c.32.72.64,1.44,1,2.14a1.09,1.09,0,0,1,.33.23c.17.19.36.38.54.57.76.51,1.53,1,2.34,1.47h18V285.7A16.22,16.22,0,0,1,335.54,269.48Z"/>
            <path class="cls-25" d="M336,249.36V235.88a3.06,3.06,0,0,0-.43.13,6.25,6.25,0,0,0-.63.33,1.31,1.31,0,0,1-.87.13,7.07,7.07,0,0,0-.65.69,4.57,4.57,0,0,0-.42.71v0a1.29,1.29,0,0,1-.91.85v20.12h9.51V255A5.6,5.6,0,0,1,336,249.36Z"/>
            <path class="cls-25" d="M248.54,113.48l3.91.68.12-.68A68.4,68.4,0,0,1,318,56.81c-.68,0-1.37,0-2.06,0a68.41,68.41,0,0,0-67.38,56.7Z"/>
            <path class="cls-24" d="M243.19,113.58H262a0,0,0,0,1,0,0v11.49a5.09,5.09,0,0,1-5.09,5.09h-8.57a5.09,5.09,0,0,1-5.09-5.09V113.58a0,0,0,0,1,0,0Z" transform="matrix(-0.98, -0.18, 0.18, -0.98, 479.86, 286.16)"/>
            <path class="cls-25" d="M257.48,125.13a10.62,10.62,0,0,1-8.65-11.89l-.53.17-.2.09h0l-.32.14L247,114c-.25.13-.49.27-.73.42l-.32.22-.21.16a7.66,7.66,0,0,0-1.08,1,.94.94,0,0,1-.19.14l-.19.35s0,0,0,.11,0,.08-.05.13a2.81,2.81,0,0,0-.08.31.94.94,0,0,1-.27.45l0,.08-2,11,18.47,3.29,1-5.86Z"/>
          </g>
          <path class="cls-27" d="M250.32,449.4c0,13.17-35.13,23.84-78.48,23.84S93.36,462.57,93.36,449.4s35.14-23.83,78.48-23.83S250.32,436.24,250.32,449.4Z"/>
          <path class="cls-28" d="M352.53,425.33s-18.21-9-47.53-2.7l-188.56,42.8-.43,5.78-15.75-2.11-25.6,5.81L88,480.77H421.55v-33Z"/>
          <path class="cls-29" d="M305,427.2,83.65,477.44l9.82,3.33H421.55V452.35l-69-22.45S334.32,420.86,305,427.2Z"/>
          <g>
            <path class="cls-30" d="M168.85,443.18c-43.34,0-78.48,10.67-78.48,23.83,0,5.06,5.21,9.75,14.06,13.61H233.28c8.85-3.86,14.05-8.55,14.05-13.61C247.33,453.85,212.2,443.18,168.85,443.18Z"/>
            <path class="cls-31" d="M168.85,441.5c-43.34,0-78.48,10.67-78.48,23.83,0,5.82,6.88,11.15,18.28,15.29h120.4c11.41-4.14,18.28-9.47,18.28-15.29C247.33,452.17,212.2,441.5,168.85,441.5Z"/>
            <path class="cls-32" d="M168.85,447.09c-36.23,0-65.61,8.25-65.61,18.44,0,6.24,11,11.75,27.93,15.09h75.37c16.88-3.34,27.93-8.85,27.93-15.09C234.47,455.34,205.09,447.09,168.85,447.09Z"/>
            <path class="cls-33" d="M195.25,454.8c0,2.1-5.16,3.81-11.53,3.81s-11.53-1.71-11.53-3.81,5.17-3.82,11.53-3.82S195.25,452.69,195.25,454.8Z"/>
            <path class="cls-33" d="M163.45,459.63c0,.56-1.58,1-3.54,1s-3.54-.46-3.54-1,1.58-1,3.54-1S163.45,459.07,163.45,459.63Z"/>
            <path class="cls-33" d="M158.12,472.42c0,2.43-7.66,4.4-17.12,4.4s-17.12-2-17.12-4.4S131.54,468,141,468,158.12,470,158.12,472.42Z"/>
            <path class="cls-33" d="M208.47,473.87c0,1.4-4.49,2.53-10,2.53s-10-1.13-10-2.53,4.49-2.54,10-2.54S208.47,472.47,208.47,473.87Z"/>
            <path class="cls-34" d="M168.85,480.77c-30.44,0-54.29-6.92-54.29-15.75s23.85-15.76,54.29-15.76,54.3,6.92,54.3,15.76S199.3,480.77,168.85,480.77Zm0-30.13c-28.68,0-52.92,6.58-52.92,14.38s24.24,14.38,52.92,14.38,52.93-6.59,52.93-14.38S197.54,450.64,168.85,450.64Z"/>
          </g>
          <path class="cls-35" d="M392.93,420.73c-3.79-2.25-12.64,0-12.64,0l-8.87,30.33s2.07,6.83,10.5,2.74S394.3,433,395.51,428.48,396.71,423,392.93,420.73Z"/>
          <path class="cls-36" d="M389.2,424.07s3.1-.12,4.3,0,1.09,1.69.12,5.53-4.5,15.25-8,19.32-6.51,5.7-6.23,4S389.2,424.07,389.2,424.07Z"/>
          <polygon class="cls-37" points="82.19 469.77 -36.3 430.18 322.6 352.67 453.55 393.69 451.94 380.23 323.18 341.28 -77.86 427.9 80.39 480.77 113.56 480.77 82.19 469.77"/>
          <path class="cls-38" d="M147.81,138.36c-3.74-3.88-1.87-9.52-1.87-12.87s3.61-13.68-14.15-6.51c-7.74,3.13-16.07,10.67-23,18.18l-.68,7L90.55,165.46s4.47,25.8,16.86,26.47,19.9-3.09,19.93-3.1c15.31-13.42,26.59-27.55,27.95-31.24C158.09,150,151.55,142.23,147.81,138.36Z"/>
          <g>
            <ellipse class="cls-39" cx="254.51" cy="306.75" rx="86.06" ry="65.84" transform="translate(-26.48 24.06) rotate(-5.14)"/>
            <ellipse class="cls-40" cx="256.04" cy="306.62" rx="62.09" ry="47.5" transform="translate(-26.46 24.19) rotate(-5.14)"/>
            <path class="cls-41" d="M108.18,203.4s70.84,56.79,82.94,59.28c10.31-6.4,39.12-18.85,47.3-18.49s14.58-1.78,23.11,5,16.36,11,26.68,3.2c7.11-5,3.91-3.91,3.91-3.91s5.69-.72-8.18-6.41c-13.52-7.82-28.81-20.62-29.52-22.05s-4.62-6.4-12.45-.71c-8.18,6.05-14.58,10-18.49,11s-12.09-6.4-19.2-14.23S152.19,162,152.19,162"/>
            <path class="cls-42" d="M273.33,235.23s-7.37,11,19.18,11A198.29,198.29,0,0,1,273.33,235.23Z"/>
          </g>
          <path class="cls-43" d="M332.9,455.3c0,13.16-35.13,23.84-78.48,23.84s-78.48-10.68-78.48-23.84,35.14-23.84,78.48-23.84S332.9,442.14,332.9,455.3Z"/>
          <path class="cls-43" d="M405.73,468.5c0,6.46-22.62,11.71-50.52,11.71S304.69,475,304.69,468.5s22.62-11.71,50.52-11.71S405.73,462,405.73,468.5Z"/>
          <path class="cls-44" d="M327.23,455.09c0-13.16-35.14-23.83-78.48-23.83s-78.48,10.67-78.48,23.83c0,11.14,25.13,20.49,59.1,23.11,12.95,1.37,31.46.45,31.46.45h0C298.44,476.88,327.23,467,327.23,455.09Z"/>
          <path class="cls-45" d="M248.11,428.87c-43.35,0-78.48,10.67-78.48,23.84,0,11.13,25.13,20.48,59.1,23.1l-1-2,23.48-6.42,9,8.84h0c37.61-1.77,66.4-11.64,66.4-23.55C326.59,439.54,291.45,428.87,248.11,428.87Z"/>
          <path class="cls-46" d="M326.59,453.75c0-13.17-35.14-23.84-78.48-23.84s-78.48,10.67-78.48,23.84c0,11.13,25.13,20.48,59.1,23.1,12.94,1.37,31.46.45,31.46.45h0C297.8,475.53,326.59,465.66,326.59,453.75Z"/>
          <path class="cls-47" d="M318.22,450.42c0,10.18-29.38,18.44-65.62,18.44S187,460.6,187,450.42,216.36,432,252.6,432,318.22,440.23,318.22,450.42Z"/>
          <path class="cls-48" d="M294.68,443.31c0,8.45-29.38,15.3-65.61,15.3s-65.62-6.85-65.62-15.3S192.83,428,229.07,428,294.68,434.85,294.68,443.31Z"/>
          <path class="cls-46" d="M252.6,466.17c-30.45,0-54.3-6.92-54.3-15.75s23.85-15.76,54.3-15.76,54.3,6.92,54.3,15.76S283.05,466.17,252.6,466.17Zm0-30.13c-28.68,0-52.92,6.58-52.92,14.38s24.24,14.38,52.92,14.38,52.92-6.59,52.92-14.38S281.29,436,252.6,436Z"/>
          <path class="cls-49" d="M403.89,466.17c0,6.47-22.62,11.71-50.52,11.71s-50.51-5.24-50.51-11.71,22.61-11.71,50.51-11.71S403.89,459.71,403.89,466.17Z"/>
          <path class="cls-50" d="M353.46,475.13c-12.61,0-24.43-1.19-33.29-3.36-9.87-2.41-12-3.72-12-5.6s2.14-3.18,12-5.6c8.86-2.16,20.68-3.36,33.29-3.36s24.43,1.2,33.29,3.36c9.87,2.42,12,3.3,12,5.6,0,1.48-2.14,3.19-12,5.6C377.89,473.94,366.06,475.13,353.46,475.13Z"/>
          <path class="cls-51" d="M379.38,469.26c0,2.53-11.82,4.58-26.4,4.58s-26.39-2-26.39-4.58,11.81-4.58,26.39-4.58S379.38,466.73,379.38,469.26Z"/>
          <g>
            <path class="cls-30" d="M258.06,456.79c0,13.16-35.13,23.83-78.48,23.83S101.1,470,101.1,456.79,136.24,433,179.58,433,258.06,443.62,258.06,456.79Z"/>
            <path class="cls-39" d="M251.28,452.71c0,.66,6.69,3.72,6.52,4.37-3.3,12.24-37.06,21.86-78.22,21.86-43.34,0-78.48-10.67-78.48-23.83s35.14-23.84,78.48-23.84S251.28,439.54,251.28,452.71Z"/>
            <path class="cls-52" d="M187.83,431.4c-14.87,2.81-24.38,7.1-24.38,11.91,0,8.45,29.38,15.3,65.62,15.3,5.52,0,10.41-.58,15.54-.88,4.43-.26,9.15-.2,13.17-.66a7.73,7.73,0,0,0,.28-2C258.06,442.79,227.3,432.65,187.83,431.4Z"/>
            <path class="cls-53" d="M241,451.59l2.71-.25c-6.45-8.28-32.68-14.48-64.08-14.48-36.23,0-65.61,8.25-65.61,18.44s29.38,18.44,65.61,18.44c33.31,0,60.79-7,65-16Z"/>
            <path class="cls-54" d="M179.58,436.86h-2.39c-8,4.91-12.31,9.84-11.52,14.14,2.05,11,37,13.89,78.94,6.72a5.57,5.57,0,0,0,.59-2.43C245.2,445.11,215.82,436.86,179.58,436.86Z"/>
            <path class="cls-33" d="M206,444.57c0,2.11-5.16,3.81-11.53,3.81s-11.53-1.7-11.53-3.81,5.17-3.82,11.53-3.82S206,442.46,206,444.57Z"/>
            <path class="cls-33" d="M174.18,449.4c0,.56-1.58,1-3.54,1s-3.54-.46-3.54-1,1.58-1,3.54-1S174.18,448.84,174.18,449.4Z"/>
            <path class="cls-33" d="M168.85,462.2c0,2.42-7.66,4.39-17.12,4.39s-17.12-2-17.12-4.39,7.66-4.4,17.12-4.4S168.85,459.77,168.85,462.2Z"/>
            <path class="cls-33" d="M219.2,463.64c0,1.4-4.49,2.53-10,2.53s-10-1.13-10-2.53,4.49-2.53,10-2.53S219.2,462.24,219.2,463.64Z"/>
            <path class="cls-33" d="M179.58,471.06c-30.44,0-54.29-6.93-54.29-15.76s23.85-15.76,54.29-15.76,54.3,6.93,54.3,15.76S210,471.06,179.58,471.06Zm0-30.14c-28.68,0-52.92,6.59-52.92,14.38s24.24,14.38,52.92,14.38,52.93-6.58,52.93-14.38S208.27,440.92,179.58,440.92Z"/>
          </g>
          <g>
            <path class="cls-55" d="M345.05,470.75c-41.64-10.93-30-55.12-30-55.12l39,5.64,39.13,4.58s-1.34,45-44.18,45.21Z"/>
            <path class="cls-56" d="M393.17,425.85c-.3,2.82-18.09,2.85-39.73.06s-38.92-7.33-38.62-10.15,18.1-2.84,39.74-.06S393.48,423,393.17,425.85Z"/>
            <path class="cls-57" d="M377.77,425.89a200.3,200.3,0,0,1-24.11-1.81c-18.31-2.36-32.74-6.26-32.49-7.5.91-.85,3.06-.85,9.05-.85a198,198,0,0,1,24.11,1.8c18.32,2.36,31.5,5.61,32.5,7.5C386.23,425.89,383.77,425.89,377.77,425.89Z"/>
          </g>
          <g>
            <path class="cls-58" d="M346,407.06c-2.74-14.77-47.55-18.85-100.08-9.1S153,427.58,155.74,442.35c2.31,12.49,34.72,17.32,76.43,12.63,16-1.37,38.23-6.57,38.23-6.57h0C315.62,438,348.45,420.43,346,407.06Z"/>
            <path class="cls-59" d="M344.91,405.69c-2.74-14.77-47.55-18.84-100.08-9.1S151.94,426.21,154.68,441c2.31,12.49,34.72,17.32,76.44,12.63,16-1.37,38.22-6.57,38.22-6.57h0C314.56,436.6,347.39,419.05,344.91,405.69Z"/>
            <path class="cls-60" d="M329.86,408.25c2.12,11.42-31.76,27.29-75.68,35.44s-81.25,5.49-83.37-5.94,31.77-27.3,75.69-35.44S327.74,396.82,329.86,408.25Z"/>
            <path class="cls-61" d="M253.62,440.67c-36.9,6.85-67.25,4.45-69.09-5.46s25.63-23,62.53-29.89,67.25-4.44,69.09,5.47S290.52,433.83,253.62,440.67Zm-6.28-33.81c-34.76,6.45-62.76,19.29-61.14,28s32.36,10.68,67.13,4.23,62.77-19.29,61.15-28S282.11,400.41,247.34,406.86Z"/>
          </g>
          <path class="cls-62" d="M100.89,73.66s-15,5.29-30.47,4.6C70.42,78.26,86.55,75.67,100.89,73.66Z"/>
          <path class="cls-63" d="M70.42,88.58s.57,25.83,3.33,30.34,17,10.94,25.91,10.94c0,0-16.15-3.91-21.9-10.94S70.42,88.58,70.42,88.58Z"/>
          <path class="cls-64" d="M35.53,34s6.57,10.6,4.27,18.86,6,64.91,4.15,94.37.44,43.15,2.73,46.62,11.51,3.75,4.2,7.32-6.29,9-6.29,9-1.81-5.33-1.35-8.06,2.47-3.87,1.35-5.13-2.72-5.61-2.72-12-1.84-41-1.15-58-3.15-43.57-3.64-60.54.72-17.2,0-22Z"/>
          <path class="cls-25" d="M362.46,245.4v67.46c0,1.47,7.22,2.66,16.13,2.66s16-1.17,16.13-2.63v-3.81a25.83,25.83,0,0,1-25.83-25.83V241.39h-2.42A4,4,0,0,0,362.46,245.4Z"/>
          <g>
            <path class="cls-65" d="M6,269.73l125.17,71S142.72,352,161.58,333c15-5.81,29.13-13.9,32.71-13.42s10.61,13.64,10.61,13.64l-3.31,9.56.91,8.39s13-11.35,14.1-13.51.48-5.95.48-5.95,6.94-14.47,7.3-16,5.11-9.3,5.31-12.76c3.83,1.05,5-3.84,5-3.84s5.12-17.4,5.08-19.07-9-12.32-14.29-15.12c-5.18-4.19-5.75-6.3-12.71-1.28,0,0-34.77,25.11-39.32,27.08C169,293,156,302,151.5,305c-5.78-.88-13.94-8.85-13.94-8.85L50.78,214.62"/>
            <path class="cls-65" d="M216.18,333.83s-6.16-25.26-12-32.45"/>
            <path class="cls-65" d="M223.39,317.66a28.2,28.2,0,0,0-5-17.88A133,133,0,0,0,207,285.33"/>
            <g>
              <path class="cls-66" d="M229.11,303.27s-.48-9.48-5.19-14.65a116.33,116.33,0,0,0-12.16-11"/>
              <path class="cls-67" d="M229.11,303.27a41,41,0,0,0-1.8-7.79,18.88,18.88,0,0,0-3.87-6.83c-1.78-2-3.74-3.8-5.7-5.62s-4-3.6-6-5.38c2.21,1.53,4.31,3.21,6.37,4.94a75,75,0,0,1,5.86,5.56,18.39,18.39,0,0,1,3.86,7.15A30.06,30.06,0,0,1,229.11,303.27Z"/>
            </g>
            <polyline class="cls-68" points="218.45 285.53 226.9 281.89 222.68 287.84"/>
            <path class="cls-69" d="M142.28,325.35a21.84,21.84,0,0,1,3.82-19.89"/>
            <path class="cls-70" d="M123.36,365.05s9.33,13.31,14.41,15.17,15.35,3.75,30.11-1.71,33.45-14.86,33.28-16.82c-1.17-4.91-5.61-26.61-18.88-24.33-13.59,2.36-23.27,4.11-48,19.67C124.74,363.55,123.36,365.05,123.36,365.05Z"/>
            <path class="cls-71" d="M142.24,342.5s-15.42,17-17.5,21.05a207.33,207.33,0,0,1,19.72-12.69c7-4,11.47-6.46,18-8.6,9-3,15.59-5.14,22.41-2.8,11.46,3.93,15.48,17.79,16.17,20.28l-.42-17.16,3.62-8.32s.57-.24-1.47-3.42-5.81-11.9-5.81-11.9S157.56,332.07,142.24,342.5Z"/>
            <path class="cls-71" d="M221.68,322s26.37-4.07,20.74-13.65l-8.69-7-4,1.7-8.3,18.29"/>
          </g>
          <path class="cls-38" d="M-17.7,285.52s7.33,10.35,9.73,7.09,70.84-71.12,73.64-74.17-45.11-47.83-47.35-46.2S8.56,189,5.93,192.33s-15.67,15-18.45,19.24S-23.82,278.84-17.7,285.52Z"/>
          <path class="cls-72" d="M270.57,290.62s-8.34,23.28-5.11,24.9,6.05.27,6.93-24.9"/>
          <path class="cls-72" d="M264.72,322s-5.6,5.88-3.64,7.78,10,1.1,7.47-2.13A41.55,41.55,0,0,1,264.72,322Z"/>
          <path class="cls-73" d="M361.18,395.67a7.45,7.45,0,0,0-12.27,6v0a2.88,2.88,0,0,0-.65.2,7.47,7.47,0,0,0-6.47,4.72,2.85,2.85,0,0,0-.51-.2,4.56,4.56,0,1,0-2.75,8.7,4.56,4.56,0,0,0,5.68,5.73,4.56,4.56,0,0,0,8.67-.08,4.6,4.6,0,0,0,.19-1,7.3,7.3,0,0,0,2.81,1.09,4.56,4.56,0,0,0,5.73,1.71,4.67,4.67,0,0,0,1.63.92,4.56,4.56,0,0,0,5.68,5.73,4.56,4.56,0,0,0,8.67-.08,4.52,4.52,0,0,0,.2-1,7.2,7.2,0,0,0,1.79.85,7.46,7.46,0,1,0,4.49-14.22h0a3.19,3.19,0,0,0-5.62-2.58,7.4,7.4,0,0,0-6.39-1.78,4,4,0,0,0,.43-1.59,7.45,7.45,0,1,0,6.29-13.36h0a3.19,3.19,0,0,0-5.62-2.59,7.42,7.42,0,0,0-11.9,2.81Z"/>
          <path class="cls-74" d="M311.88,456.23c-3.61,0-7.23.18-10.83.5L279,466.94c7,2.22,14.94,2,22.27,1.9a93.25,93.25,0,0,0,11.07-1c3.74-.52,8-1.16,11.34-2.75"/>
          <g class="cls-75">
            <g>
              <path class="cls-76" d="M207.84,347.64c-2,9.49-3.46,16.87-4.11,20.82-.2,1.19-.65,4.15.78,5.3a1.81,1.81,0,0,0,1.42.44c.81-.2,1.19-1.25,1.33-1.65,1.51-4.17,2.07-24.63,2.07-24.64h0Z"/>
              <path class="cls-76" d="M208.5,371.45s-3.28,8.82-1.88,10.44,3.18,1.76,3.27-1.82A35.2,35.2,0,0,0,208.5,371.45Z"/>
              <path class="cls-76" d="M204.21,381.75s-3.29,8.82-1.88,10.43,3.18,1.76,3.27-1.81A35.2,35.2,0,0,0,204.21,381.75Z"/>
              <path class="cls-76" d="M177.71,376.6s-3.28,8.82-1.87,10.43,3.18,1.77,3.27-1.81A35.52,35.52,0,0,0,177.71,376.6Z"/>
              <path class="cls-76" d="M177.71,385.05s-3.28,8.82-1.87,10.44,3.18,1.76,3.27-1.82A35.52,35.52,0,0,0,177.71,385.05Z"/>
            </g>
          </g>
        </g>
      </g>
      <path class="cls-77" d="M490.44,254.6c0,126.18-107.9,228.46-241,228.46S8.5,380.78,8.5,254.6s107.87-228.47,241-228.47S490.44,128.41,490.44,254.6Z"/>
      <path class="cls-78" d="M263.39,458.62c-133.07,0-240.95-102.29-240.95-228.45A217.64,217.64,0,0,1,43.84,136c-2.62,3.88-5.16,7.83-7.52,11.88A218.13,218.13,0,0,0,5.74,259.26c0,126.18,107.87,228.47,241,228.47,97.65,0,181.72-55.11,219.58-134.3C423.45,416.7,348.59,458.62,263.39,458.62Z"/>
      <g>
        <path class="cls-79" d="M65.63,167.25c9.76-35.63,38.83-70.07,98.61-91.84a12.91,12.91,0,0,0,4.62-21.27L167.7,53a12.94,12.94,0,0,0-12.87-3.22C132.38,56.5,74.12,89.62,55,164.45a5.44,5.44,0,0,0,2.33,5.89l.12.08A5.44,5.44,0,0,0,65.63,167.25Z"/>
        <circle class="cls-79" cx="57.29" cy="186.37" r="8.17"/>
      </g>
    </g>
  </g>
</svg>
