<?xml version="1.0" encoding="utf-8"?>
<!-- Generator: Adobe Illustrator 25.2.3, SVG Export Plug-In . SVG Version: 6.00 Build 0)  -->
<svg version="1.1" id="Layer_1" xmlns="http://www.w3.org/2000/svg" xmlns:xlink="http://www.w3.org/1999/xlink" x="0px" y="0px"
	 viewBox="0 0 510 510" style="enable-background:new 0 0 510 510;" xml:space="preserve">
<style type="text/css">
	.st0{opacity:0.3;enable-background:new    ;}
	.st1{opacity:0.91;fill:url(#SVGID_1_);enable-background:new    ;}
	.st2{clip-path:url(#SVGID_3_);}
	.st3{fill:#8CACC3;}
	.st4{fill:#C1E9F4;}
	.st5{fill:#E86A4D;}
	.st6{fill:#DB5B46;}
	.st7{fill:#6D2C21;}
	.st8{opacity:0.3;}
	.st9{fill:#983B39;stroke:#EF9595;stroke-width:0.5;stroke-miterlimit:10;}
	.st10{fill:#E0E5DF;}
	.st11{fill:#983B39;}
	.st12{fill:#3F493F;}
	.st13{fill-rule:evenodd;clip-rule:evenodd;fill:#F4EDEE;}
	.st14{fill-rule:evenodd;clip-rule:evenodd;fill:#C0CACE;}
	.st15{fill:#A6A8AB;}
	.st16{fill-rule:evenodd;clip-rule:evenodd;fill:#808184;}
	.st17{fill-rule:evenodd;clip-rule:evenodd;fill:#231F20;}
	.st18{fill-rule:evenodd;clip-rule:evenodd;fill:#6D6E70;}
	.st19{fill-rule:evenodd;clip-rule:evenodd;fill:#626366;}
	.st20{fill-rule:evenodd;clip-rule:evenodd;fill:#58595B;}
	.st21{fill-rule:evenodd;clip-rule:evenodd;fill:#4D4D4F;}
	.st22{fill-rule:evenodd;clip-rule:evenodd;fill:#404041;}
	.st23{fill:#FFFFFF;}
	.st24{fill:#BBBDBF;}
	.st25{fill:#E6E7E8;}
	.st26{fill:#8C8C8C;}
	.st27{fill-rule:evenodd;clip-rule:evenodd;fill:#AAAAAA;}
	.st28{fill-rule:evenodd;clip-rule:evenodd;fill:#7C7C7C;}
	.st29{fill-rule:evenodd;clip-rule:evenodd;fill:#C9C9C9;}
	.st30{fill-rule:evenodd;clip-rule:evenodd;fill:#333333;}
	.st31{fill-rule:evenodd;clip-rule:evenodd;fill:#5E5D5E;}
	.st32{fill:#E52940;}
	.st33{fill-rule:evenodd;clip-rule:evenodd;fill:#F24E71;}
	.st34{fill-rule:evenodd;clip-rule:evenodd;fill:#D12845;}
	.st35{fill-rule:evenodd;clip-rule:evenodd;fill:#E57089;}
	.st36{fill-rule:evenodd;clip-rule:evenodd;fill:#8E1730;}
	.st37{fill-rule:evenodd;clip-rule:evenodd;fill:#BA243D;}
	.st38{opacity:0.2;fill:#2A4F51;enable-background:new    ;}
	.st39{fill:#F9D1C6;stroke:#F4C7BD;stroke-width:0.25;stroke-miterlimit:10;}
	.st40{fill:#E02D2D;}
	.st41{fill:#F74646;}
	.st42{fill:#E5E4CF;}
	.st43{fill:#FFFEF3;}
	.st44{fill:#E8BAB1;}
	.st45{fill:#FF635F;}
	.st46{fill:#F9D1C6;}
	.st47{fill:#FAA181;}
	.st48{fill:#F4C7BD;}
	.st49{fill:#FFDBBB;}
	.st50{fill:#381A12;}
	.st51{fill:#FFAD8D;}
	.st52{fill:#CE6C4E;}
	.st53{fill:#DB9D8E;}
	.st54{fill:#A02727;}
	.st55{fill:#631111;}
	.st56{fill:#E2D0D0;}
	.st57{fill:#F27F7C;}
	.st58{fill:#E8524A;}
	.st59{fill:#C13A36;}
	.st60{fill:#F2E2E2;}
	.st61{fill:#342517;}
	.st62{fill:#F9D1C6;stroke:#CEA6A1;stroke-width:0.5;stroke-miterlimit:10;}
	.st63{fill:#D1F2F2;}
	.st64{fill:#A2CCCC;}
	.st65{fill:#007982;}
	.st66{opacity:0.8;fill:#C3DCDD;enable-background:new    ;}
	.st67{fill:#77C6C4;}
	.st68{opacity:0.5;fill:#FFFFFF;enable-background:new    ;}
	.st69{fill:#D3A7A3;}
	.st70{fill:none;stroke:#D3A7A3;stroke-width:0.5;stroke-miterlimit:10;}
	.st71{fill:#F9F8F7;stroke:#7F430D;stroke-width:0.75;stroke-miterlimit:10;}
	.st72{fill:#342516;}
	.st73{fill:#FDEFEC;}
	.st74{fill:#51290F;}
	.st75{fill:#8E4F24;}
	.st76{fill:#E9F1F4;}
	.st77{fill:#BCDBED;}
	.st78{fill:#CFE0E5;}
	.st79{fill:#F5FDFF;}
	.st80{fill:#CFEFFF;}
	.st81{fill:#ABCDDD;}
	.st82{opacity:0.1;fill:url(#SVGID_4_);enable-background:new    ;}
	.st83{opacity:0.5;fill:#4ECECE;enable-background:new    ;}
	.st84{opacity:0.6;fill:#FDFFFF;enable-background:new    ;}
</style>
<circle class="st0" cx="263.1" cy="263.1" r="241.9"/>
<g id="_01">
	
		<radialGradient id="SVGID_1_" cx="2934.5356" cy="291.6201" r="80.24" gradientTransform="matrix(3.5 0 0 -3.48 -10013.1104 1262.1)" gradientUnits="userSpaceOnUse">
		<stop  offset="0" style="stop-color:#FFFFFF"/>
		<stop  offset="0.61" style="stop-color:#D3F9FC"/>
		<stop  offset="0.93" style="stop-color:#48E5FF"/>
	</radialGradient>
	<path class="st1" d="M488.6,248c0,133-108.3,240.9-241.8,240.9S5,381,5,248S113.3,7.1,246.8,7.1S488.6,115,488.6,248z"/>
	<g>
		<defs>
			<ellipse id="SVGID_2_" cx="247.5" cy="245.3" rx="241.4" ry="240.3"/>
		</defs>
		<clipPath id="SVGID_3_">
			<use xlink:href="#SVGID_2_"  style="overflow:visible;"/>
		</clipPath>
		<g class="st2">
			<path class="st3" d="M-221.6-9.7V579L25.6,387.1V-9.7H-221.6z M-85.2,260.8l-48.8,25.5V63.1l48.8-0.2V260.8z"/>
			<rect x="25.6" y="-9.3" class="st4" width="640" height="411.4"/>
			<polygon class="st5" points="476.8,425.7 -14.9,418.1 -15.5,271.2 477.9,281.6 			"/>
			<polygon class="st6" points="477.4,279.4 490.1,243.9 491,403 476.8,425.7 			"/>
			<polygon class="st6" points="471.3,420.1 316.4,420.2 316.4,285.1 471.3,284.9 			"/>
			<polygon class="st6" points="309.3,420.1 266.1,420.1 266.1,285.3 310.4,285.3 			"/>
			<polygon class="st6" points="259,420.2 215,420.2 215.8,285.3 260.1,285.3 			"/>
			<rect x="112" y="307.1" class="st7" width="4.4" height="25.1"/>
			<rect x="112" y="370.7" class="st7" width="4.4" height="25.1"/>
			<polygon class="st6" points="206.8,420.2 113.6,418.1 113.6,283.6 206.8,285.1 			"/>
			<g class="st8">
				<path d="M197.9,330.5l2,0.1c0.8,0.1,1.4,1,1.4,2.1l-0.1,28.6c0,1.1-0.7,2-1.5,2h-1.8c-0.8,0-1.5-0.9-1.5-2v-28.8
					C196.4,331.4,197.1,330.5,197.9,330.5z"/>
			</g>
			<path class="st9" d="M198.8,329l2,0.1c0.8,0,1.4,1,1.3,2.1l-0.1,28.6c0,1.1-0.7,2-1.5,2h-1.8c-0.8,0-1.5-0.9-1.5-2V331
				C197.3,329.9,198,329,198.8,329z"/>
			<g class="st8">
				<path d="M226.5,294.5l0.1-2c0.1-0.8,0.8-1.4,1.5-1.3l21,0.1c0.8,0,1.5,0.6,1.5,1.4c0,0,0,0,0,0v1.8c0,0.8-0.7,1.4-1.5,1.4
					c0,0,0,0,0,0H228c-0.8,0-1.5-0.5-1.5-1.3C226.5,294.6,226.5,294.6,226.5,294.5z"/>
			</g>
			<path class="st9" d="M225.4,293.7l0.1-2c0.1-0.8,0.8-1.4,1.5-1.3l21,0.1c0.8,0,1.5,0.6,1.5,1.4c0,0,0,0,0,0v1.8
				c0,0.8-0.7,1.4-1.5,1.4c0,0,0,0,0,0h-21.1C226.1,295.2,225.4,294.5,225.4,293.7C225.4,293.7,225.4,293.7,225.4,293.7z"/>
			<g class="st8">
				<path d="M277.6,294.5l0.1-2c0.1-0.8,0.8-1.4,1.5-1.3l21,0.1c0.8,0,1.5,0.6,1.5,1.4c0,0,0,0,0,0v1.8c0,0.8-0.7,1.4-1.5,1.4
					c0,0,0,0,0,0h-21.1C278.3,296,277.6,295.4,277.6,294.5C277.6,294.6,277.6,294.6,277.6,294.5z"/>
			</g>
			<path class="st9" d="M276.4,293.7l0.1-2c0.1-0.8,0.8-1.4,1.5-1.3l21,0.1c0.8,0,1.5,0.6,1.5,1.4c0,0,0,0,0,0v1.8
				c0,0.8-0.7,1.4-1.5,1.4c0,0,0,0,0,0h-21.1C277.1,295.2,276.5,294.5,276.4,293.7C276.4,293.7,276.4,293.7,276.4,293.7z"/>
			<polygon class="st10" points="-17.2,272 26.1,239.4 499.3,239.5 478.1,276.6 			"/>
			<path class="st11" d="M481.2,281c0,1.7-1,3-2.2,3l-495.7,0.4c-1.6,0-2.9-1.8-2.8-4l0.2-4.9c0.1-2,1.3-3.6,2.8-3.6l495.6-0.4
				c1.2,0,2.1,1.6,2.1,3.2V281z"/>
			<rect x="331.7" y="401.1" class="st12" width="96" height="24.6"/>
			<polygon class="st13" points="437.6,249 353.4,249 329.2,271.5 430.2,271.5 			"/>
			<polygon class="st14" points="430.2,406.4 329.1,405.2 329.1,271.5 430.2,271.5 			"/>
			<rect x="329.1" y="299.4" class="st15" width="101.1" height="6.8"/>
			<path class="st16" d="M363.9,260.6c-2.8,0-7.2-0.9-9.1-0.4c-2.1,0.5-1.6,2.4-1.6,3.2c0,1.6,4.8,2.8,10.7,2.8s10.7-1.3,10.7-2.8
				c0-0.7,0.5-2.5-1-3C371.5,259.8,367.2,260.6,363.9,260.6z"/>
			<path class="st17" d="M363.9,264.1c-5.6,0-10.2-1.3-10.2-2.8s4.6-2.8,10.2-2.8s10.3,1.3,10.3,2.8S369.5,264.1,363.9,264.1z"/>
			<path class="st16" d="M403.5,260.3c-2.9,0-7.5-0.9-9.5-0.4c-2.3,0.5-1.7,2.5-1.7,3.4c0,1.6,5,3,11.2,3s11.2-1.3,11.2-3
				c0-0.7,0.5-2.6-1.1-3.1C411.5,259.5,407,260.3,403.5,260.3z"/>
			<path class="st17" d="M403.5,264c-5.9,0-10.7-1.3-10.7-3s4.8-3,10.7-3s10.8,1.3,10.8,3S409.4,264,403.5,264z"/>
			<path class="st16" d="M371.6,251.1c-2.8,0-7.2-0.9-9.1-0.4c-2.1,0.5-1.6,2.4-1.6,3.2c0,1.6,4.8,2.8,10.7,2.8s10.7-1.3,10.7-2.8
				c0-0.7,0.5-2.5-1-3C379.3,250.3,375,251.1,371.6,251.1z"/>
			<path class="st17" d="M371.6,254.6c-5.6,0-10.3-1.3-10.3-2.8s4.6-2.8,10.3-2.8s10.3,1.3,10.3,2.8S377.3,254.6,371.6,254.6z"/>
			<path class="st16" d="M410,251.5c-2.8,0-7.2-0.9-9.1-0.4c-2.1,0.5-1.6,2.4-1.6,3.2c0,1.6,4.8,2.8,10.7,2.8s10.7-1.3,10.7-2.8
				c0-0.7,0.5-2.5-1-3C417.7,250.7,413.4,251.5,410,251.5z"/>
			<path class="st17" d="M410,255c-5.6,0-10.3-1.3-10.3-2.8s4.6-2.8,10.3-2.8s10.3,1.3,10.3,2.8S415.7,255,410,255z"/>
			<path class="st18" d="M356.5,251.4v-2.3c0-0.9,0.3-1.9,0.9-2.6c0.5-0.7,1.3-1.8,2.1-1.8H431c0.8,0,1.6,1.1,2.1,1.8
				c0.6,0.7,0.9,1.7,0.9,2.6v2.3h1.8v-2.3c0-1.5-0.5-2.9-1.4-4.1c-0.8-1.1-2-1.7-3.4-1.7h-71.5c-1.3,0-2.6,0.7-3.4,1.7
				c-0.9,1.2-1.4,2.6-1.4,4.1v2.3H356.5z"/>
			<path class="st19" d="M351.9,256v-2.5c0-1,0.3-2.1,0.9-2.9c0.6-0.8,1.4-2.1,2.3-2.1h73.7c0.9,0,1.6,1.3,2.2,2.1
				c0.6,0.8,0.9,1.9,0.9,2.9v2.5h1.8v-2.5c0-1.6-0.5-3.2-1.4-4.5c-0.8-1.1-2.1-1.8-3.5-1.9H355c-1.4,0-2.7,0.7-3.4,1.9
				c-1,1.3-1.5,2.9-1.4,4.5v2.5H351.9z"/>
			<path class="st20" d="M347.3,260.4v-2.8c0-1.2,0.3-2.3,1-3.2c0.6-0.8,1.5-2.4,2.4-2.4h76.1c0.9,0,1.6,1.5,2.2,2.4
				c0.6,0.9,1,2.1,1,3.2v2.8h1.8v-2.8c0-1.8-0.5-3.5-1.5-5c-0.8-1.2-2.1-2-3.5-2.1h-76.1c-1.4,0.1-2.8,0.8-3.5,2.1
				c-1,1.5-1.5,3.2-1.5,5v2.8H347.3z"/>
			<path class="st21" d="M342.6,264.9v-3c0-1.3,0.3-2.5,1-3.5c0.6-0.9,1.6-2.6,2.5-2.6h78.3c0.9,0,1.6,1.7,2.2,2.6
				c0.7,1.1,1,2.3,1,3.5v3h1.8v-3c0-1.9-0.5-3.8-1.5-5.4c-0.8-1.3-2.1-2.1-3.6-2.2H346c-1.5,0.1-2.9,0.9-3.6,2.2
				c-1,1.6-1.5,3.5-1.5,5.4v3H342.6z"/>
			<path class="st22" d="M338,269.4v-3.3c0-1.4,0.3-2.7,1-3.9c0.6-1,1.7-2.9,2.7-2.9h80.6c1,0,1.6,1.9,2.3,2.9c0.7,1.2,1,2.5,1,3.9
				v3.3h1.8v-3.3c0-2-0.5-4-1.5-5.8c-0.7-1.4-2.1-2.3-3.7-2.4h-80.6c-1.6,0.1-3,1-3.7,2.4c-1,1.7-1.6,3.7-1.5,5.8v3.3H338z"/>
			<polygon class="st18" points="412.7,317.4 346.6,317.4 339.3,326.2 339.3,360.3 346.6,369.1 412.7,369.1 420,360.3 420,326.2 			
				"/>
			<rect x="325.5" y="303.6" class="st15" width="101" height="6.8"/>
			<polygon class="st18" points="426.5,303.6 325.5,303.6 329.3,299.5 336.1,299.5 334.4,301.3 418.3,301.3 420,299.5 430.4,299.5 
							"/>
			<polygon class="st20" points="426.5,303.6 430.1,299.7 430.1,306.5 426.5,310.4 			"/>
			<rect x="325.5" y="303.6" class="st23" width="101" height="1.7"/>
			<rect x="329.1" y="297" class="st24" width="101.1" height="2.4"/>
			<rect x="329.1" y="271.4" class="st25" width="101.1" height="2.8"/>
			<ellipse class="st26" cx="344.9" cy="284.6" rx="6" ry="7.6"/>
			<path class="st27" d="M350.9,284.6c0,4.2-2.6,7.6-5.7,7.6h-0.3c3-0.2,5.4-3.5,5.4-7.6s-2.4-7.4-5.4-7.6h0.3
				C348.4,277,350.9,280.4,350.9,284.6z"/>
			<path class="st28" d="M344.9,292.2h-0.3c-3.1,0-5.7-3.4-5.7-7.6s2.6-7.6,5.7-7.6h0.3c-3,0.2-5.4,3.5-5.4,7.6
				S341.9,292,344.9,292.2z"/>
			<path class="st29" d="M344.9,286.6c-0.8,0-1.4-2.4-1.4-5.3s0.6-5.3,1.4-5.3s1.4,2.4,1.4,5.3S345.7,286.6,344.9,286.6z"/>
			<path class="st30" d="M344.9,286c-0.8,0-1.4-2.4-1.4-5.3s0.6-5.3,1.4-5.3s1.4,2.4,1.4,5.3S345.7,286,344.9,286z"/>
			<path class="st31" d="M344.9,286.3c-0.8,0-1.4-2.4-1.4-5.3s0.6-5.3,1.4-5.3s1.4,2.4,1.4,5.3S345.7,286.3,344.9,286.3z"/>
			<ellipse class="st26" cx="360" cy="284.6" rx="6" ry="7.6"/>
			<path class="st27" d="M366,284.6c0,4.2-2.6,7.6-5.7,7.6H360c3-0.2,5.4-3.5,5.4-7.6s-2.4-7.4-5.4-7.6h0.3
				C363.4,277,366,280.4,366,284.6z"/>
			<path class="st28" d="M359.9,292.2h-0.3c-3.2,0-5.7-3.4-5.7-7.6s2.6-7.6,5.7-7.6h0.3c-3,0.2-5.4,3.5-5.4,7.6
				S356.9,292,359.9,292.2z"/>
			<path class="st29" d="M360,286.6c-0.8,0-1.4-2.4-1.4-5.3s0.6-5.3,1.4-5.3s1.4,2.4,1.4,5.3S360.7,286.6,360,286.6z"/>
			<path class="st30" d="M360,286c-0.8,0-1.4-2.4-1.4-5.3s0.6-5.3,1.4-5.3s1.4,2.4,1.4,5.3S360.7,286,360,286z"/>
			<path class="st31" d="M360,286.3c-0.8,0-1.4-2.4-1.4-5.3s0.6-5.3,1.4-5.3s1.4,2.4,1.4,5.3S360.7,286.3,360,286.3z"/>
			<ellipse class="st26" cx="375" cy="284.6" rx="6" ry="7.6"/>
			<path class="st27" d="M381,284.6c0,4.2-2.6,7.6-5.7,7.6H375c3-0.2,5.4-3.5,5.4-7.6s-2.4-7.4-5.4-7.6h0.3
				C378.4,277,381,280.4,381,284.6z"/>
			<path class="st28" d="M375,292.2h-0.3c-3.2,0-5.7-3.4-5.7-7.6s2.5-7.6,5.7-7.6h0.3c-3,0.2-5.4,3.5-5.4,7.6S372,292,375,292.2z"/>
			<path class="st29" d="M375,286.6c-0.8,0-1.4-2.4-1.4-5.3s0.6-5.3,1.4-5.3s1.4,2.4,1.4,5.3S375.7,286.6,375,286.6z"/>
			<path class="st30" d="M375,286c-0.8,0-1.4-2.4-1.4-5.3s0.6-5.3,1.4-5.3s1.4,2.4,1.4,5.3S375.7,286,375,286z"/>
			<path class="st31" d="M375,286.3c-0.8,0-1.4-2.4-1.4-5.3s0.6-5.3,1.4-5.3s1.4,2.4,1.4,5.3S375.7,286.3,375,286.3z"/>
			<ellipse class="st26" cx="390" cy="284.6" rx="6" ry="7.6"/>
			<path class="st27" d="M396,284.6c0,4.2-2.6,7.6-5.7,7.6H390c3-0.2,5.4-3.5,5.4-7.6s-2.4-7.4-5.4-7.6h0.3
				C393.4,277,396,280.4,396,284.6z"/>
			<path class="st28" d="M390,292.2h-0.3c-3.1,0-5.7-3.4-5.7-7.6s2.6-7.6,5.7-7.6h0.3c-3,0.2-5.4,3.5-5.4,7.6S387,292,390,292.2z"/>
			<path class="st29" d="M390,286.6c-0.8,0-1.4-2.4-1.4-5.3s0.6-5.3,1.4-5.3s1.4,2.4,1.4,5.3S390.8,286.6,390,286.6z"/>
			<path class="st30" d="M390,286c-0.8,0-1.4-2.4-1.4-5.3s0.6-5.3,1.4-5.3s1.4,2.4,1.4,5.3S390.8,286,390,286z"/>
			<path class="st31" d="M390,286.3c-0.8,0-1.4-2.4-1.4-5.3s0.6-5.3,1.4-5.3s1.4,2.4,1.4,5.3S390.8,286.3,390,286.3z"/>
			<ellipse class="st32" cx="417.2" cy="285" rx="6" ry="7.6"/>
			<path class="st33" d="M423.2,285c0,4.2-2.6,7.6-5.7,7.6h-0.3c3-0.2,5.4-3.5,5.4-7.6s-2.4-7.4-5.4-7.6h0.3
				C420.6,277.4,423.2,280.8,423.2,285z"/>
			<path class="st34" d="M417.2,292.6h-0.3c-3.2,0-5.7-3.4-5.7-7.6s2.5-7.6,5.7-7.6h0.3c-3,0.2-5.4,3.5-5.4,7.6
				S414.1,292.4,417.2,292.6z"/>
			<path class="st35" d="M417.2,287c-0.8,0-1.4-2.4-1.4-5.3s0.6-5.3,1.4-5.3s1.4,2.4,1.4,5.3S417.9,287,417.2,287z"/>
			<path class="st36" d="M417.2,286.4c-0.8,0-1.4-2.4-1.4-5.3s0.6-5.3,1.4-5.3s1.4,2.4,1.4,5.3S417.9,286.4,417.2,286.4z"/>
			<path class="st37" d="M417.2,286.7c-0.8,0-1.4-2.4-1.4-5.3s0.6-5.3,1.4-5.3s1.4,2.4,1.4,5.3S417.9,286.7,417.2,286.7z"/>
			<g class="st8">
				<path d="M436.4,294.5l0.1-2c0.1-0.8,0.8-1.4,1.5-1.3l21,0.1c0.8,0,1.4,0.6,1.5,1.4c0,0,0,0,0,0v1.8c0,0.8-0.7,1.4-1.4,1.4
					c0,0,0,0,0,0h-21.1C437.1,296,436.4,295.4,436.4,294.5C436.4,294.6,436.4,294.6,436.4,294.5z"/>
			</g>
			<path class="st9" d="M435.3,293.7l0.1-2c0.1-0.8,0.8-1.4,1.5-1.3l21,0.1c0.8,0,1.4,0.6,1.5,1.4c0,0,0,0,0,0v1.8
				c0,0.8-0.7,1.4-1.5,1.4c0,0,0,0,0,0h-21.1C436,295.2,435.3,294.5,435.3,293.7C435.3,293.7,435.2,293.7,435.3,293.7z"/>
			<rect x="-4.3" y="307.1" class="st7" width="5" height="25.1"/>
			<rect x="-4.3" y="370.7" class="st7" width="5" height="25.1"/>
			<polygon class="st6" points="103.9,420.2 -2.5,418.1 -2.5,284.4 103.9,285.1 			"/>
			<g class="st8">
				<path d="M93.3,330.5l2.4,0.1c1,0.2,1.7,1.1,1.6,2.1l-0.1,28.6c0.1,1-0.7,1.9-1.8,2h-2.2c-1-0.1-1.8-1-1.8-2v-28.8
					c-0.1-1,0.6-1.9,1.7-2C93.2,330.5,93.3,330.5,93.3,330.5z"/>
			</g>
			<path class="st9" d="M94.4,329l2.4,0.1c1,0.2,1.7,1.1,1.6,2.1l-0.1,28.6c0.1,1-0.7,1.9-1.8,2h-2.2c-1-0.1-1.8-1-1.8-2V331
				C92.5,330,93.3,329.1,94.4,329C94.3,329,94.4,329,94.4,329z"/>
			<path class="st38" d="M-221.2,346.8c0,0,77.2-457.1,245.6-162.1c0,0,290.5-276.9,641.2-6V-10.2h-887.2L-221.2,346.8z"/>
			<path class="st39" d="M305.6,300.8c24.2,12.1,39.1,23.2,50.9,38.7s8.3,29.7-0.3,33.6c-14.8,6.9-47.6,2.4-73.5-30.2"/>
			<path class="st40" d="M295,279.7c6.3,3.6,12.7,8.8,19.9,14.9c5.4,4.6,13.5,11.1,16.1,14.9s-0.6,4-12.9,14.4
				c-21.3,17.8-22.4,37.5-27.5,37.7s-16.6-12-23.5-17.1"/>
			<path class="st41" d="M269.5,276.3c5.9-4,26,2.9,39.2,15.9c13.6,13.3,18.9,16,20.4,18.8s-5.2,3.1-17.5,15.2
				c-12.5,12.4-13.3,19-16.1,19.8s-23.3-15.9-31.5-31C259.2,303.4,256,285.6,269.5,276.3z"/>
			<path class="st42" d="M328.6,306.7c3.7-1.7,5.8,5.1,8.8,7.4s4.9,6,2.4,6.9c-8.8,0.1-19.2,9.3-25.9,26.8
				c-6.9,18-3.1,25.5-7.6,26.7s-16.8-6.2-17.1-9.7S296.7,315.5,328.6,306.7z"/>
			<path class="st43" d="M327.5,308.3c4.4-0.9,5.8,4.8,7.8,6.3s2.7,3.5-2.6,5.1s-19.5,12-24.4,32.9c-1.8,3.7-12.8,3.4-12.6-4.8
				S310.3,311.8,327.5,308.3z"/>
			<path class="st44" d="M171.3,240.7c12,7,17.7,32.5,4.3,38c-16,7.6-9.3,26.1,34.4,25.1s44.7-25.2,29-31
				c-13.3-4.9-11.7-30.8-6.3-35.4"/>
			<path class="st40" d="M292.5,333.1c1.1,12,2.8,48.9,5.9,78.8c2.3,22.1,8,57.9,9.6,75.7c0.6,6.3,2.7,12.9,2,14.7
				c-2.9,6.9-19.7,20.6-64.4,20.1s-88-21.8-97.5-17.9c-10.7,4.4,1.9-38.5-1.3-71c-0.5-4.9-10.7-59.6-16.1-74.8
				c-6.1-34.5,0.3-49.4,7.6-60.2c4.4-6.5,17.6-12.8,26.9-16c5.5-3.7,11.8-5.6,14.1-5.3c6.3,0.2,8.1,12.4,26.9,13.7
				c20.4,1.4,29.3-9.4,29-20.5c1.4-1.9,10.7-2,15.3-0.8c12.7,0.2,24.7,0.7,30,3.5"/>
			<path class="st41" d="M193.4,510.7c44.4,18.1,102.4,10.1,113.4-7.3c2-2.7,1.9-9.3-1.6-9.6c-21.4,25.4-83.5,22.2-113.6,7
				c-13.7-5.4-22.4-8.8-26.8-8.1s-3.8,7.4,1.7,8.4S179.9,505,193.4,510.7z"/>
			<path class="st41" d="M168.4,286.3c-4.7-0.3-21.7,6.2-23.4,10.3c-2.2,15.7,21.4,95.8,26.7,107.7c7.3,16.2,18.6,40.9,30.3,56.4
				c-2.8,3.8-16.3-14.8-22.3-22c-1.4,14.9-0.8,28.9-9.2,49.8c22.2,8.1,41.4,21.6,81.8,20.5s51.7-15.4,53-18.9
				c-1.5-13.6-9.6-76-12-96.4c-1.5-12.8-0.7-46.3-3.2-75.3c-1.7-20.3-8.8-35.7-5.5-41.9c-9.5-8.5-32.3-4.7-32.3-4.7
				c1.2,16.2-6.3,28.4-28.7,35.1C203,313.1,177.3,304.4,168.4,286.3z"/>
			<path class="st43" d="M226,363.2c-4.8-6.9-13.8-9.5-21.6-6.2c-9.6,4.1-6.9,42.8,5.6,50.3s21.6-5.1,20.2-11.5s-8.7-13-10.2-10.1
				s-1.3,9.3-7.1,9.9s-12.7-24.8-3.4-29.4s7.4,5,10.7,5.6S228.7,367.3,226,363.2z"/>
			<path class="st43" d="M236.5,363.8c-7.2-1.7-12.4,9.5-9.6,20.6c2,8.2,6.5,15.4,13.4,12.8C250.2,393.5,253.7,367.8,236.5,363.8z
				 M235,385.2c-4.3-5.4-0.4-14.4,4.5-14.1c4.2,0.2,6.8,6.5,4.7,13C242.6,388.8,237.1,387.9,235,385.2z"/>
			<path class="st43" d="M251.1,402.6c10,5.5,18.9-3.8,19.8-18.9c0.8-12.9-11-24-18.6-20.4c-7.1,3.3-5.7,10.4-5.2,17.5
				C247.9,391.8,244.7,399.1,251.1,402.6z M253.2,394c-1.6-2.9-1.7-16.2,0.9-16.9c5.2-1.4,10.1,3.5,8.1,12.8
				C261.5,393.6,256,398.7,253.2,394L253.2,394z"/>
			<path class="st43" d="M262.6,354.1c-0.3,3.8,7.1,7.2,9.6,23.9c1.7,10.9-2.4,17.3-0.2,19.6s14.1,0.6,17.5-3.8s3.9-17.6,1.1-18.6
				s-2.6,5.6-4,8.3s-7.6,6.5-8.6,3.4s3.1-26.9-0.8-31.6S262.8,352,262.6,354.1z"/>
			<path class="st43" d="M232,425.5c2.4-1,12.2-1.1,13.1,1.1s2.5,7.6,0.1,10s-11,3.5-12.7-0.5S230.4,426.1,232,425.5z"/>
			<path class="st43" d="M250.5,425c-0.6,1.9,0.2,9.5,2.2,11.1s13.1-2.1,13.7-5.4s0.6-9.8-2.8-9.8S251.3,422.6,250.5,425z"/>
			<path class="st43" d="M212.4,413.5c8.8,16.9,55.9,12,69.1-11.1c6.2,0.6,8.5-3.7,2.8-5.7s-7.3,2-6.7,5s-9.8,14.9-33.4,18.1
				s-30.2-5.3-29.2-7.9s0.7-10.1-6.1-4.5S209.9,415,212.4,413.5z"/>
			<path class="st41" d="M182,279.7c-1.7-1.9-12.3,1.1-12,5.1c0.5,6.7,15.2,25.6,50.4,20c32.6-5.2,31.6-29.6,29.1-32.5
				s-13.3-2.6-13.6,0c-0.4,3.2,0.5,16.5-19.9,19.4C194.9,294.7,188.5,287.1,182,279.7z"/>
			<path class="st45" d="M237.5,274.3c-0.6,22.2-43.2,25.7-57.3,5.2c-9.9-1.3-1.4,18.6,24.6,23.4c20.9,3.9,35.1-4.8,38.2-14.2
				C247.6,275.3,237.7,268.8,237.5,274.3z"/>
			<path class="st46" d="M278,147.5c4.4-0.6,12.5-15.2,23.5-8.1c6.8,4.4,4,33.4-13.6,37.4c-7.3,1.6-12.1-8.7-12.1-9"/>
			<path class="st47" d="M284.9,160.8c0.2-11.2,10.1-16.1,14.5-17.5c-5.8,7.4-8.1,26.2-7,29.5"/>
			<path class="st48" d="M222.9,260.1c-26.1,0-53.8-9-76-24.7c-23.4-16.6-38-38.4-41.2-61.5c-4.5-33,2.5-61.2,20.2-81.6
				c17.4-20,44.3-31.5,73.7-31.5c26.7,0,51.1,9.9,65.4,26.4c22.6,23.2,27.2,57.3,29.4,73.7c0.4,2.8,0.7,5,1,6.5
				c4.6,22.1,0.2,44.1-12.5,61.9c-11.5,16.2-29.1,27.6-45.9,29.9C232.4,259.8,227.7,260.1,222.9,260.1z"/>
			<path class="st46" d="M130.1,196c-6.9-3.5-30.5-17-39-3.5c-6.5,10.3,14,36.6,32.3,35.5c9.4-0.5,11.8-13.5,11.7-13.9"/>
			<path class="st46" d="M145.2,156.4c0.2,35.8,31.6,107.1,100.5,95c30.8-5.4,58-49.8,46.3-91.7c-3.6-12.8-3.5-26.3-15.5-48.2
				c-5.8-3.7-13.3-7.9-13.3-7.9c4,5.3,0.8,14.6-3.9,15.1c-6.9,0.7-21.3-5-27.9-11.8c2.4,10.2,0.7,18.3-6.3,21.7
				c-12.6,6.1-49.8-13.2-59.7-15.1C152.5,122.2,145.2,145.7,145.2,156.4z"/>
			<path class="st49" d="M235.4,179.3c1.3-3.4,6.2-2.9,5,2.1S233.7,183.6,235.4,179.3z"/>
			<path class="st50" d="M179,126.5c4.2-1.9,15.2,1.9,15.7,4.5s-14.7,0.3-31.9,17.2C161.6,140.8,174.7,128.4,179,126.5z"/>
			<path class="st51" d="M244.4,183.9c3.6,0.5,4.1,2.1,8,2.9c5.2,1,2.1,4.8-3.1,6c-5.3,1.4-10.6,2.3-16.1,2.7
				c-5.4,0.3-4.2-4-0.3-5.8C235.9,188.4,240.1,183.4,244.4,183.9z"/>
			<path class="st52" d="M248,188.9c0.8-1.2,6.7-1,6.2,0.2C253.3,191.3,246.5,191.3,248,188.9z"/>
			<path class="st51" d="M227.5,183.7c-4.8,4.2-4.2,12.4,4.8,11.7c2.9,0-0.5-2.3-0.5-2.3C227.3,192.3,226.7,189.7,227.5,183.7z"/>
			<path class="st52" d="M237.2,190.7c-1.3-1-7.3,1.7-6.3,2.8C232.4,195.2,239.4,192.5,237.2,190.7z"/>
			<path class="st53" d="M123.4,204.7c-13-9.6-25.8-9.9-29.5-3.5c7.9,0.2,22.6,5.4,23.8,9.2c-3.1,6,4.7,8.9,7.9,7.9
				C115.5,213.1,123.4,204.7,123.4,204.7z"/>
			<path class="st47" d="M207.8,210.2c-4.3,4.6,2.2,6.7,9.1,4.1C213.7,213.2,212.7,204.9,207.8,210.2z"/>
			<path class="st47" d="M276.9,196.2c4.4,4.6,0.4,6.4-6.8,5.4C273,199.7,273,192,276.9,196.2z"/>
			<path class="st54" d="M271.6,201.3c0.9,0-1.5,4.6-4.9,13.5c-1.7,4.5-5.5,7.5-10.8,10c-9.7,4.6-21.9,3.8-28.3-0.9
				c-4.5-3.4-11.9-8.6-15-10c-1-0.4,0.8-0.1,1.9-0.7C227.1,208.4,248.7,209.9,271.6,201.3z"/>
			<path class="st55" d="M258.6,207.9c2.8,4.1-11,19.4-22.1,17.1s-16-11.2-14.8-13.8C227.5,211.1,256.2,204.3,258.6,207.9z"/>
			<path class="st56" d="M263.7,203.1c0,4-3.8,8.9-16.5,11c-15.3,2.5-20,1.1-26.1-1.6C232.3,209,250.5,206.4,263.7,203.1z"/>
			<path class="st57" d="M249.9,224.6c-10.4,2.1-20.4,0.3-28.3-5.4c5.8,5.1,15.9,13.4,28.1,10.9c12.2-2.6,18.2-14.5,19.5-21.2
				C267.6,211.7,260.3,222.5,249.9,224.6z"/>
			<path class="st58" d="M251,203.4c-3.9,2.5-3.5,0.3-10.2,1.6c-5,1-16.5,6-26.4,7.2c9.7,1.5,22.2-0.9,34.3-3.1
				c8-1.4,15.8-4.1,23-7.9C263.8,203.2,255.9,200.3,251,203.4z"/>
			<path class="st59" d="M210,211c-2.4,3.4,6.4,3.7,11.6,1.8c-1.7-0.1-5.6,0.1-8.4-1.1C210.9,210.7,210.8,210.1,210,211z"/>
			<path class="st59" d="M266.5,204c3.3-1.7,5.8-2.7,6.6-4.8c0.5-1.3,1.4-2.2,2.1-1.3c2,2.6-2.2,2.3-5.6,8"/>
			<path class="st60" d="M261.6,206.5c0.7,5.4-24.6,12.1-31.6,6.2C238.8,213.6,258,208.6,261.6,206.5z"/>
			<path class="st50" d="M251.1,112.6c-3.6,0.6-9.4,13-6.3,11.8c15.1-6.2,24.6-0.2,25-2C270.8,118.5,255.6,111.8,251.1,112.6z"/>
			<path class="st61" d="M98.1,147.3c-4.4,15.1-5.5,31.4,5.1,39.4c0,0,18.6,0.5,31.1,19.1c0,0,4.2,2,10.2-1.5
				c-11.9-21.2-17.9-63.4,0.2-82.4c-8.8,3.1-22,20.3-22,33.6"/>
			<path class="st61" d="M210,83.9c12.8,3.5,14.3,26.4,14.2,34c6.9-9.7,7.4-28.1-12-36"/>
			<path class="st61" d="M228.1,38.4c-62.1-18.2-122,14-124.2,46.2c-26.9-2.9-27.5,79.3-1.2,102c0,0,18.2-12.1,41.8,17.7
				c-32.1-47.8-7.9-83.7,7.7-98.6c0,0-4.9-7.3-12.8-9.8c19.7,0.5,58.9,28.5,69.5,26.1c8.2-1.8,16.3-25.2,6.5-38
				c0,0,32.3,28.8,39.2,25.7c5.9-2.6,5.4-16.8-11.4-26.5c0,0,29.6,4.9,40.4,36.1C299,101.5,286.5,55.6,228.1,38.4z"/>
			<path class="st61" d="M110.6,87c-8.6-7-6.9-19-4.8-22.4c-6.5-1-9.2,10.8-5.6,15.4c-12.7-5.9-17.8,4.3-18.7,10.1
				c5.8-5.7,18.2-4.9,21.1-1.4"/>
			<path class="st61" d="M145.1,103.9c-20.1,11.7-29.8,60.8-17,86.3c-11.9-11.4-24.8-38.4-23.1-54.4c-6.8,9.9-12.9,25.4-6.8,36.9
				c-6.4-7.4-29.7-41.5-1.7-75c7.2-3.8,17.9-0.1,17.9-0.1c-11.9,7.3-16.2,20.5-18.2,37.4c7.1-17.2,18.7-30.6,27.1-32.9
				S145.1,103.9,145.1,103.9z"/>
			<path class="st62" d="M244.5,366.8c-4.7-13.2-45.4-38.8-52.2-46.8c-19.4,3-31.7,22.5-32.2,35.1c8,17.1,48.1,52.4,82.9,52.4"/>
			<path class="st40" d="M172,298.1c6.3,3.6,12.7,8.8,19.9,14.9c5.4,4.6,13.5,11.1,16.1,14.9s-0.6,4-12.9,14.4
				c-21.3,17.8-22.4,37.5-27.5,37.7s-16.6-12-23.5-17.1"/>
			<path class="st41" d="M146.6,294.7c5-5.1,26,2.9,39.2,15.9c13.6,13.3,18.9,16,20.4,18.8s-5.2,3.1-17.4,15.2
				c-12.5,12.4-13.3,19-16.1,19.8s-23.3-15.9-31.5-31.1C136.3,321.9,135.2,306.4,146.6,294.7z"/>
			<path class="st42" d="M205.6,325.1c3.7-1.7,5.8,5.1,8.8,7.4s4.9,6,2.4,6.9c-8.8,0.1-19.2,9.3-25.9,26.8
				c-6.9,18-3.1,25.5-7.6,26.7s-16.8-6.2-17.1-9.7S173.8,333.9,205.6,325.1z"/>
			<path class="st43" d="M204.6,326.8c4.4-0.9,5.8,4.8,7.8,6.3s2.7,3.5-2.6,5.1s-19.5,12-24.4,32.9c-1.8,3.7-12.8,3.4-12.6-4.8
				S187.4,330.3,204.6,326.8z"/>
			<path class="st62" d="M344,375.8c10.5-0.4,20.2-3,26.3-12.1c11.2-16.9,5.6-82.5,2.5-96.7l-27.5-2.7c0,0-19.8,50-14.9,71"/>
			<path class="st62" d="M337.7,265c0.5,1-13.3-39.6,4.3-46.4c6.7-2.6,22.1-11.9,30.5-2.1c11.7,13.8,8.5,32,0.6,51.7"/>
			<path class="st63" d="M259.4,238.9c14.1,13.8,57.8-39.3,41.9-49.6C284.4,178.4,247,226.7,259.4,238.9z"/>
			<path class="st64" d="M259.5,239.7c15,14.3,59-39.4,42.1-50.2C283.8,178,246.3,227,259.5,239.7z"/>
			<path class="st65" d="M266.1,238.6c2.5-5,91.9,12.6,92.3,16.4s-20.9,30.1-29.8,29.1S264.4,242.1,266.1,238.6z"/>
			<path class="st66" d="M260.7,241.6c0,0,54.9,37,65.1,41.8c13.1,6.1,41.8-30.6,32.5-41.3s-43-41.8-56.2-52.3
				C285.5,176.5,243.8,228,260.7,241.6z"/>
			<path class="st67" d="M326.7,281.4c10,9.7,41.8-29.2,30.4-36.4C345,237.4,317.8,272.8,326.7,281.4z"/>
			<path class="st68" d="M285.3,194.3c2.6,2.2,58.3,46.2,58.8,46c0.7-0.3,0.5-1.3,4.4-0.9c-3.3-3-55.3-46.3-57.5-47.5
				S283,192.3,285.3,194.3z"/>
			<path class="st62" d="M367.7,233.6c-16.3,1.9-21.4-2.4-36.8-15.9s3-21,13.1-19.1s21,9.9,28.4,17.9"/>
			<path class="st62" d="M222.6,362.9c2-22.4,35.1-69.2,35.9-75.7c0.6-4.5-3.8-32.8,1.3-45.5c3.5-8.6,24.1-15.6,33.9-13.7
				s22.2,11.9,21.4,21.7s-17,13.6-14.4,24.6c1.7,6.9,5.8,11.7-12.5,25.9c-8.2,30.6-12.8,93-40.7,107.5c-6.6,1.1-17.4-1.6-17.4-1.6"
				/>
			<path class="st69" d="M298.6,229.8c-3-0.2-6.1,0.1-9,0.7c-2.9,0.7-5.8,1.7-8.5,3.1c-2.7,1.3-5.3,3-7.7,4.8
				c-0.6,0.5-1.2,0.9-1.8,1.4c-0.6,0.5-1.1,1-1.7,1.6c-1.1,1-2.1,2.2-2.8,3.6c0.7-1.3,1.6-2.6,2.7-3.6c0.5-0.6,1.1-1.1,1.6-1.6
				s1.2-1,1.8-1.5c2.4-1.9,4.9-3.5,7.6-4.9c2.7-1.4,5.6-2.5,8.5-3.2c3-0.7,6-1,9.1-0.9L298.6,229.8z"/>
			<path class="st69" d="M306.9,234.8c-2.8,0.5-5.5,1.3-8.1,2.5c-2.6,1.2-5.1,2.6-7.4,4.2c-2.4,1.6-4.6,3.4-6.6,5.4
				c-2.2,1.9-3.9,4.2-5.1,6.8c1.2-2.6,2.9-4.9,5-6.9c4.1-4,8.8-7.4,14-9.9c2.6-1.3,5.3-2.2,8.2-2.7L306.9,234.8z"/>
			<path class="st69" d="M313.9,243.5c-4.6,1-8.8,3-12.4,6c-1.8,1.5-3.5,3.1-5,4.9c-1.6,1.7-2.8,3.8-3.6,6c0.8-2.2,2-4.2,3.5-6
				c1.5-1.8,3.1-3.5,4.9-5c3.6-3.1,7.9-5.3,12.5-6.4L313.9,243.5z"/>
			<path class="st70" d="M329.5,216.4c-2.1-10.1,16.5-15.1,23.4-14.7"/>
			<path class="st70" d="M336.7,222.7c5-9.4,19.2-15.7,26.9-14.2"/>
			<path class="st70" d="M346.2,229.8c3.5-7.3,18-11.6,24-9.7"/>
			
				<ellipse transform="matrix(0.9271 -0.3748 0.3748 0.9271 -46.4978 85.1793)" class="st71" cx="195.8" cy="162.1" rx="17.6" ry="18"/>
			
				<ellipse transform="matrix(0.9265 -0.3764 0.3764 0.9265 -48.3453 87.7899)" class="st72" cx="200.5" cy="167.6" rx="11.1" ry="11"/>
			
				<ellipse transform="matrix(0.9268 -0.3756 0.3756 0.9268 -48.1298 84.2743)" class="st73" cx="192.1" cy="165.6" rx="2.1" ry="1.9"/>
			
				<ellipse transform="matrix(0.9527 -0.304 0.304 0.9527 -33.657 85.6455)" class="st71" cx="258.2" cy="150.9" rx="16.1" ry="18"/>
			
				<ellipse transform="matrix(0.9527 -0.3039 0.3039 0.9527 -35.2742 87.0794)" class="st72" cx="262.2" cy="156.9" rx="10.3" ry="11"/>
			<ellipse class="st73" cx="254.5" cy="154" rx="1.9" ry="1.9"/>
			<polygon class="st74" points="-203.7,495 -199.5,626 630.4,626 629.4,496.8 			"/>
			<polygon class="st75" points="-43.8,417.3 -203.7,495 629.4,496.8 538.9,421.5 			"/>
			<ellipse class="st0" cx="326" cy="477.2" rx="38.4" ry="10.6"/>
			<path class="st76" d="M370.4,430.4c-3.2-32.6-20.4-46.2-19.5-61.4s3.7-22.5,3.7-22.5h-7.4c-21.8-1.5-25.6-16.4-32.1-20.8
				c-7.2-4.9-27.8-2.3-27.8-2.3c2.7,5.1,5.1,10.4,7.2,15.7c2,5.5,5.4,15.1,6.6,24.7c0.2,1.6,0.3,3.3,0.4,5.1
				c1,15.2-16.3,28.8-19.5,61.4s15.8,48.9,30.6,48.9l13.6-0.2l13.6,0.2C354.6,479.4,373.5,463,370.4,430.4z"/>
			<path class="st77" d="M348.7,384.7c-1.9-4-3.2-8.2-4-12.5l-18.8,0.1l-18.9-0.1c-0.8,4.3-2.2,8.5-4.1,12.5
				c-3,5.9-15.6,30.7-15.6,51.7s12.8,36,25.8,36h25.5c13,0,25.7-15,25.8-36S351.7,390.7,348.7,384.7z"/>
			<path class="st76" d="M350.9,369c2.4-11.1,23.8-19.7,34.5-5.8s-12.5,48.4-12.5,54.5s1.4,10.7-3,9.7s-5.2-10.8-3.8-17
				s12.9-19.9,13.1-32.8s-10.6-14.4-16.2-11.1s-5.7,7.4-5.2,9.5s-2.8,7.8-6.1,4.9S350.9,369,350.9,369z"/>
			<path class="st78" d="M314.6,479.4c0,0-15.7,0.6-24.4-12.8s-8.5-24.7-8.3-34.3s4.5-25.8,11.7-39.6s8.3-18.9,7.9-23.7
				s-0.4-10-4.9-23.7c-2.4-7.6-5.5-14.9-9.3-21.8c5.4-0.8,10.9-1,16.3-0.7c8.8,0.5,11.5,2.5,13.5,4.4s8.6,14.1,19.9,17.4
				c3.2,1.1,6.5,1.7,9.8,1.9c2.6,0.2,5.2,0.2,7.8,0c0,0-5,1.6-18.5-1.6s-18-15.3-20.8-17.8s-7.8-3.7-16.1-3.7s-10.3,0.6-10.3,0.6
				c3.5,7,6.5,14.1,9,21.5c4.5,12.9,5,20.9,4.6,27.6s-18,37.7-18.7,59s5.3,30.1,10.1,36.7S307,479,314.6,479.4z"/>
			<path class="st78" d="M353.5,381.8c0,0,3.2,0.1,4.2-2.4s0.1-4.4,0.7-7.2s6.1-8.8,13.8-6.6s7.5,11.9,6.5,16.5s-2.1,8.5-6.3,15.6
				s-5.5,10.4-6.1,12.7c1.6-3.4,3.4-6.7,5.4-9.8c4.1-6.8,7.5-13.5,8.3-19.7s-0.1-14.3-7.4-16.4s-13.2,2.8-14.5,5.7s-0.8,5.9-1,7.9
				C356.9,380,355.4,381.5,353.5,381.8z"/>
			<path class="st78" d="M341.6,479.4c0,0,20.5-3.8,25.7-22.1s2.7-29.8,2.7-29.8s0.1,18.2-4,29.7S353.1,475.9,341.6,479.4z"/>
			<path class="st78" d="M354.6,346.5c0,0-3.7,12.7-3.7,22.5c0,0,2.6-11.1,16.4-12.8s21,6.8,21,16s-3.1,15.6-7,25.6
				S373,414,373,417.3s2.6,11.4-3,10.2c1.3-0.1,2.2-1.1,2.2-2.4c0,0,0,0,0,0c0-2.3-0.7-6.1-0.3-8.7s9.8-17.6,13.6-32.8
				s0.3-20.7-4.5-24s-12.1-3.5-18.1-1.7c-4.6,1.4-8.4,4.8-10.3,9.2c-0.8,1.8-1.3,3.7-1.5,5.7c0,0-1.1-1.1-0.6-9.1
				c0.4-5.5,1.1-10.9,2.2-16.3l-2.1-0.3L354.6,346.5z"/>
			<path class="st78" d="M353.9,381.6c0,0,4.5,9.3,7.4,15.7c1.8,4.1,3.3,8.3,4.6,12.6v0.6c0,0-9.7-23.7-13-28.9H353.9z"/>
			<path class="st79" d="M295.1,325.4c0,0,7.8,13.4,11.3,26.8s2.8,19.7,2.8,19.7s12.7,0.2,14.7-0.4s-0.1-16.1-4-28
				s-8.8-16.2-13.6-18S295.1,325.4,295.1,325.4z"/>
			<path class="st80" d="M309.6,372.3c0,0,0,4.8-2.9,12.3s-12.8,30.5-11.8,50.8s10.3,32,21.8,33.3c6.4,0.8,12.8,0.9,19.3,0.3
				c0,0-14.4,1.2-21.9-18.3s-0.6-44.1,3.5-56.2s5.6-19.3,5.9-22.2L309.6,372.3z"/>
			<path class="st81" d="M313.3,472.4H338c0,0,20.9-0.1,25.2-26.4s-10.6-52.6-13.5-59.3s-4-9.6-5-14.4h-9.8c0.7,4.8,2.1,9.5,4.1,14
				c3.2,7.1,14.3,21,16.4,46.5s-9.5,36.5-17.9,38S313.3,472.4,313.3,472.4z"/>
		</g>
	</g>
	
		<radialGradient id="SVGID_4_" cx="2800.2441" cy="289.9601" r="65.4" gradientTransform="matrix(3.67 0 0 -3.48 -10036.3896 1262.1)" gradientUnits="userSpaceOnUse">
		<stop  offset="0" style="stop-color:#FFFFFF"/>
		<stop  offset="0.43" style="stop-color:#D3F9FC"/>
	</radialGradient>
	<path class="st82" d="M488.9,253.8c0,125.8-107.5,227.7-240.2,227.7S8.5,379.6,8.5,253.8S116,26.1,248.7,26.1
		S488.9,128,488.9,253.8z"/>
	<path class="st83" d="M262.5,457.2c-132.6,0-240.2-102-240.2-227.7c0-32.5,7.3-64.6,21.3-93.9c-2.6,3.9-5.1,7.8-7.5,11.8
		c-20,33.6-30.5,72-30.5,111.1c0,125.8,107.5,227.7,240.2,227.7c97.3,0,181.1-54.9,218.9-133.9C422.1,415.4,347.5,457.2,262.5,457.2
		z"/>
	<path class="st84" d="M71.3,171.6c9.6-35.2,38.3-69.2,97.3-90.6c6.6-2.4,10-9.8,7.5-16.4c-0.6-1.7-1.7-3.3-3-4.6l-1.1-1.1
		c-3.3-3.3-8.2-4.5-12.7-3.2C137.2,62.3,79.7,95,60.8,168.8c-0.6,2.2,0.4,4.6,2.3,5.8l0.1,0.1c2.5,1.6,5.8,0.9,7.4-1.6
		C70.9,172.7,71.2,172.1,71.3,171.6z"/>
	<circle class="st84" cx="63.1" cy="190.5" r="8.1"/>
</g>
</svg>
