<?xml version="1.0" encoding="utf-8"?>
<!-- Generator: Adobe Illustrator 25.2.3, SVG Export Plug-In . SVG Version: 6.00 Build 0)  -->
<svg version="1.1" id="Layer_1" xmlns="http://www.w3.org/2000/svg" xmlns:xlink="http://www.w3.org/1999/xlink" x="0px" y="0px"
	 viewBox="0 0 510 510" style="enable-background:new 0 0 510 510;" xml:space="preserve">
<style type="text/css">
	.st0{opacity:0.3;enable-background:new    ;}
	.st1{opacity:0.91;fill:url(#SVGID_1_);enable-background:new    ;}
	.st2{clip-path:url(#SVGID_3_);}
	.st3{fill:#1E9AAF;}
	.st4{fill:#255D63;}
	.st5{fill:#198AA5;}
	.st6{fill:#307F95;}
	.st7{opacity:0.5;fill:none;stroke:#144747;stroke-width:0.75;stroke-miterlimit:10;enable-background:new    ;}
	.st8{fill:#1E5B6E;}
	.st9{fill:#898E90;}
	.st10{fill:#464949;}
	.st11{fill:#D12664;stroke:#951A46;stroke-width:0.75;stroke-miterlimit:10;}
	.st12{fill:#D73B81;}
	.st13{fill:#EC72AB;}
	.st14{fill:#C62567;}
	.st15{fill:#B11E57;}
	.st16{fill:#CC1B6C;}
	.st17{fill:#B11F5A;}
	.st18{fill:#D62970;}
	.st19{fill:#D12664;}
	.st20{fill:#A41E58;}
	.st21{opacity:0.2;fill:#151617;enable-background:new    ;}
	.st22{fill:#A7A8AC;}
	.st23{fill:#8C8E91;}
	.st24{fill:#C9CACF;stroke:#9C9B9F;stroke-width:0.25;stroke-miterlimit:10;}
	.st25{fill:#DEDEDD;stroke:#9C9B9F;stroke-width:0.25;stroke-miterlimit:10;}
	.st26{fill:#C3C3C3;}
	.st27{fill:#DEDEDD;}
	.st28{fill:#DA9E51;stroke:#905B24;stroke-width:0.25;stroke-miterlimit:10;}
	.st29{fill:#BB8844;}
	.st30{fill:#E7A855;}
	.st31{opacity:0.5;fill:#3970B7;enable-background:new    ;}
	.st32{fill:#72C9F1;}
	.st33{opacity:0.31;fill:#50B1E4;enable-background:new    ;}
	.st34{fill:#50B1E4;}
	.st35{opacity:0.28;fill:#50B1E4;enable-background:new    ;}
	.st36{opacity:0.5;}
	.st37{opacity:0.63;fill:#3970B7;enable-background:new    ;}
	.st38{fill:#3970B7;}
	.st39{opacity:0.5;fill:#D6EFFB;enable-background:new    ;}
	.st40{fill:#5A5F5F;}
	.st41{fill:#BBBAB9;}
	.st42{fill:#BBBAB9;stroke:#8B8B8A;stroke-width:0.5;stroke-miterlimit:10;}
	.st43{opacity:0.4;}
	.st44{fill:#FFFFFF;}
	.st45{fill:#A29DA0;}
	.st46{fill:#BBBAB9;stroke:#9C9B9F;stroke-width:0.5;stroke-miterlimit:10;}
	.st47{opacity:0.6;}
	.st48{opacity:0.6;fill:#BBBAB9;enable-background:new    ;}
	.st49{opacity:0.6;fill:#AAA9A8;enable-background:new    ;}
	.st50{fill:#C0BDBC;stroke:#9C9B9F;stroke-width:0.5;stroke-miterlimit:10;}
	.st51{opacity:0.4;fill:#FFFFFF;enable-background:new    ;}
	.st52{fill:#A1A1A1;stroke:#7B7A7A;stroke-width:0.5;stroke-miterlimit:10;}
	.st53{opacity:0.57;}
	.st54{fill:#515251;}
	.st55{fill:#114956;}
	.st56{fill:#165568;}
	.st57{opacity:0.1;fill:url(#SVGID_4_);enable-background:new    ;}
	.st58{opacity:0.5;fill:#4ECECE;enable-background:new    ;}
	.st59{opacity:0.6;fill:#FDFFFF;enable-background:new    ;}
</style>
<circle class="st0" cx="262.3" cy="262.3" r="242.7"/>
<g id="_01-4">
	
		<radialGradient id="SVGID_1_" cx="-4004.2732" cy="582.1979" r="584.3168" gradientTransform="matrix(0.48 0 0 -0.48 2176.6201 528.25)" gradientUnits="userSpaceOnUse">
		<stop  offset="0" style="stop-color:#FFFFFF"/>
		<stop  offset="0.61" style="stop-color:#D3F9FC"/>
		<stop  offset="0.93" style="stop-color:#48E5FF"/>
	</radialGradient>
	<path class="st1" d="M490.2,248.8c0,133.4-108.6,241.6-242.6,241.6S5,382.2,5,248.8S113.6,7.2,247.6,7.2S490.2,115.3,490.2,248.8z"
		/>
	<g>
		<defs>
			<ellipse id="SVGID_2_" cx="248.3" cy="246.1" rx="242.2" ry="241.1"/>
		</defs>
		<clipPath id="SVGID_3_">
			<use xlink:href="#SVGID_2_"  style="overflow:visible;"/>
		</clipPath>
		<g class="st2">
			<path class="st3" d="M5.3,266.5h367.5l9.1-397c0,0-279.8-41.8-294.4-40.5s-98.1,38.5-99.4,34.5S5.3,266.5,5.3,266.5z"/>
			<rect x="7.4" y="229.4" class="st4" width="338.7" height="23.9"/>
			<path class="st5" d="M354.9-130.5l-9.3,378.7c0,0,56.2,300.1,61.8,300.1s334.4,5.6,334.4,5.6l28-715.6c0,0-344.3,12.1-348.6,8.7
				S354.9-130.5,354.9-130.5z"/>
			<path class="st6" d="M8.8,253.9h251.5l89.4,1.4l99.5,298.7c0,0-464.9-5.4-466-1.8s-92.8-63.6-88.6-71S-65,360.5-66.5,348.8
				S8.8,253.9,8.8,253.9z"/>
			<line class="st7" x1="396.1" y1="356.5" x2="5.3" y2="357.1"/>
			<line class="st7" x1="6.5" y1="452.2" x2="422" y2="443.7"/>
			<polyline class="st7" points="134.6,255.8 144.7,545.3 140.5,449.7 289.1,448 299.3,537.7 271.2,251.3 			"/>
			<polygon class="st8" points="7.4,358.8 136.6,357.1 140.5,449.7 7.1,454 			"/>
			<polygon class="st8" points="140.5,449.7 291.4,446.6 308,553.9 144.7,547.1 			"/>
			<polygon class="st8" points="271.2,251.3 281.2,353.4 281.2,358.8 375.5,362.4 346.3,247.5 			"/>
			<ellipse class="st9" cx="384.6" cy="102.8" rx="9.4" ry="33.8"/>
			<ellipse class="st10" cx="379.3" cy="102.8" rx="9.4" ry="33.8"/>
			<ellipse class="st0" cx="221.1" cy="446.9" rx="99.7" ry="13.2"/>
			<path class="st11" d="M123,275.3l25.8,160.1c0,8.6,34.6,19,77.2,19s77.3-10.4,77.3-19L329,275.3H123z"/>
			<path class="st12" d="M142.9,280.6c-0.2-1.8-0.2-3.6,0.1-5.4H123l25.8,160.1c0,3.7,6.6,7.8,17.6,11.3
				C156.7,391.6,149.8,336.1,142.9,280.6z"/>
			<path class="st13" d="M143.7,366.8c-3.4-21-7.5-41.9-10.4-63c-1.3-9.5-2.2-19-2.9-28.6H123l25.8,160.1c0,2.3,2.5,4.7,6.9,7
				C151.3,417.3,147.8,392,143.7,366.8z"/>
			<path class="st14" d="M271.8,275.3c3.3,30.2,2.6,60.3,0,91c-2.4,28.9-6.6,57.6-12.7,85.9c26.1-3.5,44.2-10.6,44.2-16.8L329,275.3
				H271.8z"/>
			<path class="st15" d="M124.6,285.3c27.5,7.2,121.2,27.8,203.1-1.9l1.3-8.1H123L124.6,285.3z"/>
			<path class="st15" d="M283.3,447.3c5-1.3,9.8-3.2,14.4-5.7c2.6-18,4.6-36.1,6.7-54.2c4.3-37,12.3-74.8,10.9-112.2h-22.3
				c3.5,31,5,61.8,1.9,93.4C292.2,395,287.8,421.2,283.3,447.3z"/>
			<path class="st16" d="M335.3,272.4c0,12.1-49,21.9-109.3,21.9s-109.3-9.8-109.3-21.9c-6.1-19.6,48.9-21.9,109.3-21.9
				S341.5,253.2,335.3,272.4z"/>
			<ellipse class="st17" cx="226" cy="267.8" rx="109.3" ry="21.9"/>
			<ellipse class="st18" cx="226" cy="267.8" rx="101.8" ry="18.5"/>
			<path class="st19" d="M271.2,251.3c0.4,11.2-0.5,22.4-2.7,33.4c35-2.9,59.3-9.4,59.3-16.8C327.8,260.6,304.7,254.3,271.2,251.3z"
				/>
			<path class="st12" d="M289.1,253.3c1.1,9.6,1.1,19.4,0,29c23.6-3.4,38.7-8.6,38.7-14.5S312.7,256.7,289.1,253.3z"/>
			<path class="st15" d="M182,251.2c-34.2,3-57.8,9.3-57.8,16.7c0,7.6,25.1,14.1,60.9,16.9C183.7,273.6,182.6,262.4,182,251.2z"/>
			<path class="st20" d="M148.7,255.8c-15.2,3.2-24.5,7.4-24.5,12s9.4,8.9,24.9,12.1C147.9,271.9,147.8,263.8,148.7,255.8z"/>
			<path class="st21" d="M307.4,409.7c-15.9,7.3-34.2,7.3-45.3,6.3c-7.7-0.7-14.7-4.9-18.9-11.4l-60.2-92.2
				c-1.2-1.8-0.7-4.2,1.1-5.4c0,0,0.1,0,0.1-0.1l0.9-5.5c-4,0.5-7.1,4.5-7.7,6.9c-0.5,2.4-0.1,4.9,1.2,6.9l60.2,92.2
				c4.7,7.3,12.4,12.3,21,13.5c0.6,0.1,1.2,0.2,1.8,0.2c11,1,28.6,1,44.8-5.4L307.4,409.7z"/>
			<path class="st22" d="M191.8,293.2c-1.3-0.1-3.2-0.4-3.2-0.4l-1.9-0.8c-0.1,0.8-0.3,2-0.4,2.3c-0.2,1.7-0.5,3.3-0.8,5
				c-0.4,3.1-1.2,6.1-2.4,9c-0.6,1.4-1.3,2.6-2.2,3.8c3.8,2.2,9.5,0.1,10.4-5.9C192,301.9,192.1,297.6,191.8,293.2z"/>
			<path class="st23" d="M182.1,310.6c-0.3,0.6-0.7,1.1-1.1,1.6c3.7,2.1,9.1,0.2,10.3-5.3C188.6,308.8,185.4,310.1,182.1,310.6z"/>
			<path class="st24" d="M173,287c0,0,0.4,15.3,2.9,22s12.1,5.5,13.2-2.4s0-18.1,0-18.1l2.9-3.2l-14.6-1.2L173,287z"/>
			<path class="st25" d="M338.5,347.7c-5.2-8.6-10.9-18.6-16.6-28.8l-1.3,8.1c4.7,8.2,9.3,16.2,13.5,23.3c5.3,8.7,4.8,19.7-1.2,28
				c-15,19.8-42.3,24.2-57.3,25.1c-7.7,0.4-15.3-2.7-20.4-8.5l-73.1-82.4c-0.7-0.8-1.1-1.8-1-2.9c0.1-1.1,0.6-2,1.4-2.7l0.1-5.6
				c-3.9,1.1-6.4,5.5-6.6,7.9c-0.2,2.4,0.6,4.9,2.2,6.7l73.1,82.4c5.7,6.5,14,10.3,22.7,10.3c0.6,0,1.2,0,1.8,0
				c15.8-0.9,44.8-5.6,61-27.1C344.3,371.8,344.9,358.3,338.5,347.7z"/>
			<path class="st26" d="M335.2,374.7c5.3-8.1,5.4-18.5,0.4-26.8c-4.2-7.1-8.8-15-13.5-23.3l0.7-4.3l-0.8-1.4l-1.3,8.1
				c4.7,8.2,9.3,16.2,13.5,23.3C338.6,357.7,339,366.9,335.2,374.7z"/>
			<path class="st26" d="M338.5,378.9c-16.2,21.4-45.2,26.2-61,27.1c-0.6,0-1.2,0-1.8,0c-8.7,0-17-3.8-22.7-10.3l-73.1-82.4
				c-1.6-1.8-2.4-4.2-2.3-6.7c0.1-0.8,0.3-1.5,0.6-2.2c-1.1,1.3-1.8,2.9-2,4.6c-0.2,2.4,0.6,4.9,2.2,6.7l73.1,82.4
				c5.7,6.5,14,10.3,22.7,10.3c0.6,0,1.2,0,1.8,0c15.8-0.9,44.8-5.6,61-27.1c1-1.3,1.8-2.6,2.5-4
				C339.2,377.8,338.9,378.4,338.5,378.9z"/>
			<path class="st27" d="M185.3,304c0,1.6-1,2.9-2.1,2.9s-2.2-1.3-2.2-2.9s1-2.9,2.1-2.9S185.3,302.4,185.3,304z"/>
			<path class="st28" d="M336.7,372.9c-6.7-3.6-10.1,7.1-15.1,6.9c-7.1-0.3-13.2-0.1-21.8,9.1c-4,3.3-7.3,1.6-11.3,2.5
				c-3.5,0.8-7.4,3.6-7.2,9.3c0.1,0.7,0.2,1.3,0.4,2c0.1,0,0.3,0,0.4,0c1.4,0,2.5,1.1,2.5,2.5c0,0.1,0,0.2,0,0.3
				c0.2,1-0.4,2.1-1.4,2.3c2,2.9,5.4,3.7,10,3.5c7.2-0.3,8.3-6.1,14.1-4.4s19.3-4.5,21.8-10.6c2.1-2.8,6.3-4.7,8.7-5.8
				C342.9,388,347.1,378.4,336.7,372.9z"/>
			<path class="st29" d="M336.3,388.5c-2.1,1-4.3,1.2-6.5,2.1s-3.6,2.8-5.1,4.7c-4.4,5.4-10.2,7.8-17.1,8.2
				c-1.8,0.1-3.2-0.4-4.9,0.4c-4,1.7-7.3,5.2-11.9,5.1c-2.3-0.1-4.5-0.9-6.4-2.3c-0.2,0.5-0.7,1-1.2,1.1c2,2.9,5.4,3.7,10,3.5
				c7.2-0.3,8.3-6.1,14.1-4.4s19.3-4.5,21.8-10.6c2.1-2.8,6.3-4.7,8.7-5.8c3.1-1.6,5.1-4.7,5.4-8.2c-0.1,1.6-4.2,4.6-5.5,5.5
				C337.2,388.1,336.7,388.3,336.3,388.5z"/>
			<path class="st30" d="M310.6,388.4c4.7-2.7,10.3-3.1,15.3-4.8c2.2-0.7,4.7-1.7,6.4-3.3c0.9-0.9,2.3-4.5-0.3-3.8
				c-0.5,0.2-0.9,0.4-1.3,0.8c-3.3,2.7-7.4,4.3-11.6,4.7c-3.6,0.5-7.4,0.8-10.4,3c-2.2,1.6-3.7,4-5.9,5.7c-2.8,2.3-6.4,3.3-9.9,4.2
				c-1.8,0.5-3.7,1-4.8,2.5c-0.4,0.5-0.7,1.4-0.1,1.8c0.4,0.2,0.9,0.2,1.4,0c5.3-1.6,10.7-3.3,15.3-6.5
				C306.7,391.3,308.5,389.6,310.6,388.4z"/>
			<path class="st31" d="M226.9,263.9c-49.9,0-90.3,5-90.3,11.2s40.4,11.2,90.3,11.2s90.3-5,90.3-11.2S276.8,263.9,226.9,263.9z"/>
			<path class="st32" d="M226.9,285.4c-49.1,0-88.9-4.7-88.9-10.5s39.8-10.5,88.9-10.5s88.9,4.7,88.9,10.5S276,285.4,226.9,285.4z"
				/>
			<path class="st33" d="M229,264.7c10.2,0.1,20.5,0.8,30.6,2.1c1.2,0.2,0.5,0.8-0.7,0.8c-8.6,0-17.1-0.7-25.6-0.5
				c4.8,0.6,8.9,1.6,13.3,2.5c1,0.2,0.7,0.8-0.6,0.8c-2.7,0-5.3-0.2-7.9-0.4c-0.1,0.2-0.6,0.4-1.6,0.3c-4.8-0.3-9.5-0.5-14.2-0.5
				c4,0.4,7.6,1,8.6,2.2c1.2,1.5-1.1,2.2-4.5,2.7c5.2-0.2,10.2-0.6,13.5-2c0.8-0.3,1.6-0.3,2.4,0.1c1.8,1.5-0.1,2.7-3.2,3.7
				c6.1-0.6,12.3-1.8,11.7-3.9c-0.1-0.4,1.8-0.5,2.4-0.2c3.8,1.9,1.7,3.7-2.7,5c1.4-0.1,2.7-0.3,4.1-0.4c2.1-0.3,5.6-0.6,6.7-1.4
				c1.8-1.2-1.9-2.9-3.4-4c-0.4-0.3,0.3-0.7,1.5-0.6c5.1,0.6,17.3,1.3,17.3,3.6c0,0.8-0.9,1.4-2.4,2c2.2-0.2,4.3-0.5,6.4-0.8
				c2.4-0.4,6.9-0.9,7.6-1.9c1-1.5-5.8-2.7-9-3.3c-1.3-0.3-0.4-0.8,1-0.7c13,0.7,24.9,4.8,13.5,8.6c-5.4,1.8-12.3,2.7-19.6,3.4
				c19.7-0.9,42.3-2.9,36.9-9.4c-0.2-0.3,0.5-0.5,1.2-0.5c-9.7-4-38.6-7-74-7.5C235.2,264.5,232.1,264.6,229,264.7z"/>
			<path class="st34" d="M198.2,281.3c-1.1-0.3,0.1-0.7,1.3-0.7c5.3,0.3,10.7,0.5,16.2,0.7c-6-0.4-12-1.2-17.9-2.6
				c-1.2-0.3-0.5-0.8,1-0.8c8,0.4,16.1,0.7,24.2,0.6c-6.1-0.1-12.3-0.6-18.3-1.7c-1.2-0.2-0.4-0.9,1-0.8c6.1,0.6,12.2,0.6,18.2,0.2
				c-7.8-0.1-16.7-0.4-19.1-2.8c-0.3-0.3,0.7-0.6,1.6-0.5l3.8,0.2c-3.9-0.4-6.4-1.2-4.7-2.5c-3.5,0.6-5,1.9-3.6,3.2
				c0.5,0.5-1.6,0.7-2.3,0.3c-3.1-1.4-3.6-2.5-2.1-3.4c-4,0.7-7.3,1.8-4.3,2.8c1,0.3-0.3,0.9-1.6,0.6l-0.3-0.1l0,0
				c-4.3-1.1-5.6-2.5-3.3-3.8c-4.2,0.4-8.5,1.2-9.5,2.5c-1.5,1.9,2.9,3.2,7.6,4.1c1,0.2,0.7,0.8-0.6,0.8c-5.1-0.1-11.1-1.2-13.6-2.7
				c-1.6-1-1.5-1.8-0.6-2.6c-4.2,1.4-7.8,3.2-6.1,4.6c1.2,0.5,2.6,0.9,4,1.3c1.1,0.3-0.3,0.9-1.6,0.6c-1.7-0.2-3.3-0.7-4.8-1.5
				c-3.4-1.3-5.8-2.8-3.3-4.4s6.7-2.4,11-3.3c-12.8,1.2-30.4,6-15.4,8.9c1.4,0.3,0.2,1-1.3,0.7c-5.7-1-13-2.6-14.3-4.8
				c-0.3-0.5-0.4-1-0.2-1.6c-0.9,0.6-1.3,1.2-1.3,1.8c0,5.8,39.8,10.5,88.9,10.5c6.8,0,13.4-0.1,19.7-0.3
				C230.6,285.3,210.9,284.6,198.2,281.3z"/>
			<path class="st35" d="M187.4,265.9c1.6-0.1,2.3,0.6,0.7,0.8c-7.8,0.6-15.5,1.8-23.2,3.4c12.9-1.8,27.1-2.7,40.8-3.4
				c1.6-0.1,2.3,0.7,0.7,0.8c-9.2,0.4-18.4,1.9-27.3,4.3c3.1-0.5,6.3-1,9.6-1.5c3-0.7,6-1.1,9-1.2c1.3-0.1,2.4,0.5,1,0.7
				c-2.4,0.3-4.9,0.6-7.4,1c-3.2,0.6-5.3,1.4-0.9,2.2c0.9,0.2,1.9,0.3,2.9,0.4c-2.2-2.2,9.2-4.2,16.2-3.7c1.4,0.1,1.1,0.6,0,0.8
				c-4.1,0.5,5.5,1.9,6.4,2c2.2,0.2,4.4,0.2,6.6,0.1c-2.3-0.2-4.7-0.3-7.3-0.4c-1.3,0-1.7-0.5-0.6-0.8c6.2-1.4,21.2,0.6,20.4,2.6
				c3.6-0.6,6.8-1.6,2.5-2.7c-0.9-0.2-0.1-0.7,0.9-0.7c12.1,0,16.2,3.7,9.9,6.2c4.6-0.2,9.2-0.7,13.7-1.6c9.9-2.4-8.9-4.3-14.4-4.8
				c-1.5-0.1-1-0.8,0.4-0.8c6.9-0.2,32.1,1.1,34.5,4.2c4.9-3.2-19.9-4.5-27.3-5c-1.2-0.1-1.2-0.7,0-0.8c12.8-0.7,25.6,0.1,38.2,2.3
				c-6.2-1.2-13.8-1.9-20.5-2.6c-9-1-18.1-1.7-27.4-2c-4,0-8.1,0-12.1-0.1c-1.7,0-1.6-0.8,0-0.8c3.9-0.1,7.8-0.1,11.7,0
				c5.3,0,10.7,0.1,16.1,0.2c-10.6-0.5-22.1-0.8-34.3-0.8c-26,0-49.5,1.3-65.7,3.4C169.9,266.8,179.1,266.3,187.4,265.9z"/>
			<g class="st36">
				<path class="st37" d="M225.8,272.5c-3.1,0-6.2,0.2-9.3,0.2c-1.7,0-3.5-0.1-5.2-0.2c-1.3-0.1-7.8-0.6-5.3-1.5
					c0.2-0.1,0-0.2-0.2-0.1c-4,0.9,0.7,2,3.6,2.3c4.8,0.6,12.5,0.8,16.7-0.3C226.7,272.8,226.5,272.5,225.8,272.5z"/>
				<path class="st38" d="M236.9,272.4c-0.4-1-5.4-1.5-8-1.8c-5.2-0.4-10.4-0.6-15.6-0.4c-0.3,0-0.4,0.1,0,0.1
					c6.1,0,12.3,0.5,18.3,1.3c7,1,0.7,2.6-4.1,2.9c-2.6,0.1-5.2,0.2-7.7,0.3c-0.5,0-0.6,0.3,0,0.3
					C225.4,275.2,238,275.1,236.9,272.4z"/>
				<path class="st37" d="M232.9,268.5c-13.1-0.8-26.8-0.9-37.7,1.9c-8.3,2.1,0.1,3.9,6.2,5c0.4,0.1,0.8-0.1,0.4-0.2
					c-2.4-0.6-4.9-1.1-7.1-1.8c-6-1.9,8-3.7,11.1-4.1c8.3-1.1,18.3-0.9,27-0.6C233,268.6,233.1,268.5,232.9,268.5z"/>
				<path class="st37" d="M221.1,277.5c-6.9-0.2-13.8-0.3-20.6-0.7c-6.4-0.4-25.6-2.8-16-5.9c0.1,0,0-0.1-0.2-0.1
					c-5.4,1.5-2.4,3.5,2.4,4.8c9,2.3,23.3,2.3,34.2,2.1C221.3,277.8,221.6,277.5,221.1,277.5z"/>
				<path class="st37" d="M225.3,265.7c-14.1,0.3-28.1,0.6-41.8,1.7c-11.5,0.9-25.3,2.5-32.8,5.6c-5.7,2.3,1.2,5,6.8,6.4
					c8.6,2.2,21.1,2.5,31.8,2.7c0.5,0,0.8-0.3,0.2-0.3c-7.5-0.4-14.9-0.7-22.1-1.5c-4.5-0.4-8.9-1.3-13.1-2.7
					c-7.6-2.6-1.9-4.9,5.4-6.5c18.7-4,43.9-4.6,65.7-5.3C225.4,265.8,225.5,265.7,225.3,265.7z"/>
				<path class="st37" d="M242.3,268.4C242.2,268.4,242.2,268.4,242.3,268.4c9.6,0.4,18.3,1.2,27.1,2.5c3.6,0.5,7.2,1.2,10.7,2.1
					c5.3,1.6-3.4,3-7.1,3.5c-18.4,2.9-39.3,2.6-59.3,2.8c-0.7,0-1,0.4-0.1,0.4c13.6,0.2,27.2,0.2,40.7-0.6
					c8.4-0.5,20.4-1.5,26.9-3.5C295.2,271.4,248.1,268.6,242.3,268.4z"/>
				<path class="st38" d="M244.6,270.4c-0.1,0-0.2,0-0.1,0.1c4.8,1,17.8,2,13,4.6c-2.8,1.5-11.4,2-16.3,2.5c-0.5,0-0.7,0.4,0,0.4
					c6-0.3,15.7-0.8,18.4-2.8C263.4,272,250.3,271.4,244.6,270.4z"/>
				<path class="st37" d="M289.8,269.3c-12-1.8-25.4-1.7-38-2.6c-0.2,0-0.3,0.1-0.1,0.1c9,0.8,18.4,1.1,27.4,2
					c8,0.8,26.6,2.9,26.5,6.3c-0.1,3.8-19.5,5.3-28.2,6.1c-9,0.9-18.3,1.5-27.5,2.3c-0.4,0-0.4,0.3,0.1,0.2
					c13.7-0.9,27.6-1.9,40.7-3.5c6.5-0.8,16.2-2.7,16.9-5.2C308.3,271.9,297.1,270.4,289.8,269.3z"/>
			</g>
			<path class="st39" d="M210.6,267c-7.1-0.2-14.2,0.1-21.3,0.9c-11.9,0.8-24.8,2-32.2,5.1c-7.6,3.1,2.4,5.7,11.4,6.5
				c0.7,0.1,1-0.2,0.4-0.3c-3.9-0.9-9-2-9.3-3.7c-0.3-1.2,3.6-2.3,6.1-3c3.2-0.9,6.5-1.6,9.8-2.1c-7.3,2.3-3.8,5.8,7.1,6.4
				c0.7,0,1.2-0.3,0.5-0.4c-14.3-2-5.4-5.2,3.7-6.8c7.9-1.3,15.8-2.1,23.8-2.4C210.9,267.2,210.9,267,210.6,267z"/>
			<path class="st39" d="M210.7,276.7c-7.8-0.6-20.2-0.8-21.3-4.1c-0.9-2.7,9.6-3.8,16.1-4.2c0.7,0,0.5-0.4-0.1-0.4
				c-7.8,0.2-18.8,1.7-19,4.6c-0.3,3.4,16.5,4.4,24.3,4.3C210.9,276.9,211,276.7,210.7,276.7z"/>
			<path class="st39" d="M219.3,276.9c-1.6,0-3.3,0-4.9-0.1c-0.2,0-0.3,0.1-0.1,0.1C215.9,276.9,217.7,277,219.3,276.9
				C219.5,276.9,219.5,276.9,219.3,276.9z"/>
			<path class="st39" d="M225.1,269.9c-0.6,0-0.6,0.3,0,0.3c5.3,0,10.5,0.5,15.7,1.5c2.2,0.4,5.6,1.4,5.2,2.3
				c-1,2.1-11.6,2.5-16.8,2.8c-0.2,0-0.2,0.1,0.1,0.1c6.2,0.1,18.2-0.7,19.7-3C251,270.6,231.2,269.8,225.1,269.9z"/>
			<path class="st39" d="M297.3,274.5c-4-3.4-19-4.9-28.8-5.9c-15.2-1.3-30.5-1.8-45.8-1.5c-0.4,0-0.4,0.2,0,0.2
				c22.5,0.8,47.8,1.3,65.8,6.2c10.1,2.8-0.9,5.1-9.4,6.1c-11.5,1.3-24.7,1.1-36,2.5c-0.5,0.1-0.4,0.3,0.1,0.3
				c7.7,0.2,16-0.4,23.5-0.8c6.6-0.3,13.7-0.8,19.8-1.7C293.5,278.9,300.5,277.1,297.3,274.5z"/>
			<path class="st39" d="M240.3,282.1c-0.5,0.1-1,0.1-1.5,0.1c-0.1,0-0.1,0.1,0,0.1c0.5,0,1.1,0,1.6-0.1
				C240.5,282.1,240.4,282,240.3,282.1z"/>
			<path class="st39" d="M230.4,281.8c-17-0.1-32.7-0.5-49.1-1.9c-0.2,0-0.3,0.1-0.1,0.1c14.7,2.4,33.2,2.1,49.2,2
				C231,282.1,231,281.8,230.4,281.8z"/>
			<path class="st39" d="M173.9,267.3c-13.5,1.3-31.9,2.9-32.7,8.3c0,0.1,0.7,0.2,0.8,0c2.7-4.5,20.4-6.5,32.1-8.2
				C174.4,267.4,174.2,267.2,173.9,267.3z"/>
			<path class="st39" d="M307.9,271.8c-11.6-4.6-35.4-5.8-52.7-6c-0.4,0-0.4,0.2-0.1,0.2c19,1,35.9,2.7,51.9,6.1
				C307.7,272.3,308.4,272,307.9,271.8z"/>
			<path class="st39" d="M228.1,283.1c-9.5,0.1-19.1-0.1-28.6-0.1c-0.6,0-0.6,0.3,0,0.3c9.6,0.4,19.2,0.9,28.9,0.4
				C229.6,283.7,229.3,283.1,228.1,283.1z"/>
			<rect x="267" y="55.8" class="st9" width="9.6" height="32.2"/>
			<rect x="267" y="55.8" class="st40" width="4.4" height="32.2"/>
			<path class="st41" d="M267,60.1v-4.3h9.6V60C274.2,62.4,269.4,62.7,267,60.1z"/>
			<rect x="267" y="77.9" class="st41" width="9.6" height="10.1"/>
			<path class="st42" d="M274.1,54.7c0,3,1.8,3.2,6.6,3.8l17.3,1.6c3.7,0,6.7-2.4,6.7-5.4l0,0c0-3-3-5.4-6.7-5.4l-17.1,2
				C276.7,51.8,274.1,51.6,274.1,54.7L274.1,54.7z"/>
			<path class="st41" d="M292.6,49.9l5.4-0.6c3.7,0,6.7,2.4,6.7,5.4s-3,5.4-6.7,5.4l-4.5-0.4C291.1,56.9,290.7,53,292.6,49.9z"/>
			<path class="st41" d="M278.1,51.6c1,2,1.1,4.4,0.2,6.5c-3-0.5-4.1-1.1-4.1-3.5C274.1,52.4,275.5,52,278.1,51.6z"/>
			<path class="st42" d="M292.4,54c-0.2,4.5,3.3,8.4,7.9,8.6c4.5,0.2,8.4-3.3,8.6-7.9s-3.3-8.4-7.9-8.6c-0.1,0-0.2,0-0.4,0
				C296.2,46,292.5,49.5,292.4,54C292.4,53.9,292.4,54,292.4,54z"/>
			<g class="st43">
				<path class="st44" d="M300,47.6c-1.8,0-3.6,0.7-5,1.9c1.4-1.6,3.5-2.5,5.6-2.5c3.9-0.1,7.2,3,7.3,7c0,0,0,0,0,0
					c0,1.9-0.8,3.8-2.3,5.1c1.1-1.2,1.7-2.9,1.7-4.5C307.3,50.6,304,47.5,300,47.6C300,47.6,300,47.6,300,47.6z"/>
			</g>
			<path class="st42" d="M269.4,54.7c0,3-1.8,3.2-6.6,3.8l-17.3,1.6c-3.7,0-6.7-2.4-6.7-5.4l0,0c0-3,3-5.4,6.7-5.4l17.1,2
				C266.8,51.8,269.4,51.6,269.4,54.7L269.4,54.7z"/>
			<path class="st41" d="M250.9,49.9l-5.4-0.6c-3.7,0-6.7,2.4-6.7,5.4s3,5.4,6.7,5.4l4.5-0.4C252.4,56.9,252.8,53,250.9,49.9z"/>
			<path class="st41" d="M265.4,51.6c-1,2-1.1,4.4-0.1,6.5c3-0.5,4.1-1.1,4.1-3.5C269.4,52.4,268,52,265.4,51.6z"/>
			<path class="st42" d="M251.1,54c0.2,4.5-3.3,8.4-7.9,8.6c-4.5,0.2-8.4-3.3-8.6-7.9s3.3-8.4,7.9-8.6c0.1,0,0.2,0,0.4,0
				C247.3,46,251,49.5,251.1,54C251.1,54,251.1,54,251.1,54z"/>
			<path class="st42" d="M265.3,54.8c-0.2,3.5,2.6,6.5,6.1,6.7c3.5,0.2,6.5-2.6,6.7-6.1c0.2-3.5-2.6-6.5-6.1-6.7c-0.1,0-0.2,0-0.3,0
				C268.2,48.7,265.4,51.4,265.3,54.8z"/>
			<g class="st43">
				<path class="st44" d="M271.3,49.9c-1.4,0-2.8,0.5-3.9,1.5c1.1-1.2,2.7-2,4.4-1.9c3.1-0.1,5.7,2.4,5.7,5.5c0,1.5-0.7,3-1.8,4
					c0.9-1,1.4-2.2,1.4-3.6C276.9,52.3,274.4,49.8,271.3,49.9C271.3,49.9,271.3,49.9,271.3,49.9z"/>
			</g>
			<g class="st43">
				<path class="st44" d="M242.5,47.6c-1.8,0-3.6,0.7-5,1.9c1.4-1.6,3.4-2.5,5.5-2.5c3.9-0.1,7.2,3,7.3,7c0,0,0,0,0,0
					c0,1.9-0.8,3.8-2.3,5.1c1.1-1.2,1.7-2.9,1.8-4.5C249.7,50.6,246.4,47.5,242.5,47.6z"/>
			</g>
			<path class="st45" d="M256.6,88c0,5,4.4,9.1,9.9,9.1h10.9c5.5,0,9.9-4,9.9-9.1l0,0c0-5-4.4-9.1-9.9-9.1h-10.9
				C261,78.9,256.6,82.9,256.6,88z"/>
			<path class="st41" d="M241.1,124v11.7h-23.2V124c0-13.4,5.4-21.2,9.9-25.4c8.7-8,19.8-8.2,22.8-8h127.9v23.2H250.3h-0.9
				c0,0-3.8,0-5.9,2S241.1,121.2,241.1,124z"/>
			<path class="st46" d="M241.1,124v11.7h-23.2V124c0-13.4,5.4-21.2,9.9-25.4c8.7-8,19.8-8.2,22.8-8h127.9v23.2H250.3h-0.9
				c0,0-3.8,0-5.9,2S241.1,121.2,241.1,124z"/>
			<g class="st47">
				<path class="st41" d="M272.3,108.2l106.2-0.7v6.2H250.3h-0.9c0,0-3.8,0-5.9,2s-2.4,5.6-2.4,8.3v11.7h-5.6l0.3-16.1
					C235.9,102.5,272.3,108.2,272.3,108.2z"/>
			</g>
			<rect x="217.9" y="133.4" class="st48" width="23.2" height="2.4"/>
			<rect x="374.8" y="90.6" class="st48" width="3.7" height="23.2"/>
			<path class="st49" d="M250.6,90.6h44.6v23.2h-44.9h-0.9c-0.4,0-0.8,0-1.3,0.1V90.6C249.2,90.6,250.1,90.6,250.6,90.6z"/>
			<path class="st50" d="M265.1,82.2h13.3c8.8,0,15.9,7.1,15.9,15.9v10.6c0,8.8-7.1,15.9-15.9,15.9h-13.3c-8.8,0-15.9-7.1-15.9-15.9
				V98.1C249.2,89.3,256.3,82.2,265.1,82.2z"/>
			<path class="st51" d="M292,99.7c0-7.8-6.6-13.8-14.4-14.7c-2.3-0.3-14.2-0.9-10.2-0.9H279c7.6,0,13.8,6.2,13.8,13.8c0,0,0,0,0,0
				v9.2c0,2.3-0.5,4.5-1.6,6.5c0.5-1.5,0.8-3,0.8-4.5L292,99.7z"/>
			<path class="st48" d="M251.3,107.9c0,7.8,6.8,14.2,15.2,14.2h12.8c3.3,0,6.5-1.1,9.2-3c-2.9,2.9-6.8,4.5-10.8,4.5h-12.4
				c-8.2,0-14.8-6.2-14.8-13.9v-9.3C250.4,98,251.3,107.9,251.3,107.9z"/>
			<path class="st9" d="M378.3,115.5c1.3,0,2.4-1.1,2.4-2.3c0,0,0,0,0,0V91.5c0-1.3-1.1-2.3-2.4-2.3l0,0l0,0c-1.3,0-2.4,1.1-2.4,2.3
				c0,0,0,0,0,0v21.7C375.9,114.4,377,115.5,378.3,115.5L378.3,115.5z"/>
			<path class="st41" d="M216.7,137.2c0,1.3,1.1,2.4,2.3,2.4h0h21.6c1.3,0,2.4-1.1,2.4-2.3v0l0,0c0-1.3-1.1-2.4-2.3-2.4h0H219
				C217.7,134.8,216.6,135.9,216.7,137.2L216.7,137.2L216.7,137.2z"/>
			<path class="st52" d="M374.4,89.1h-13.9c-1.9,0-3.5,1.5-3.5,3.5c0,0,0,0,0,0v18.3c0,1.9,1.6,3.5,3.5,3.5l0,0h17.9L374.4,89.1z"/>
			<g class="st53">
				<rect x="364.9" y="89.1" class="st54" width="4.8" height="25.3"/>
			</g>
			<polygon class="st55" points="346.5,250.7 455.5,563 483.3,641 489.8,550 463.1,553.5 346.2,226.5 			"/>
			<polygon class="st56" points="346.6,248.4 421.4,556.4 449.2,634.4 455.7,543.4 452.9,535.1 347,229.6 			"/>
		</g>
	</g>
	
		<radialGradient id="SVGID_4_" cx="-3803.9307" cy="570.1146" r="476.2267" gradientTransform="matrix(0.51 0 0 -0.48 2174.22 528.25)" gradientUnits="userSpaceOnUse">
		<stop  offset="0" style="stop-color:#FFFFFF"/>
		<stop  offset="0.43" style="stop-color:#D3F9FC"/>
	</radialGradient>
	<path class="st57" d="M490.4,254.6c0,126.2-107.9,228.5-241,228.5S8.5,380.8,8.5,254.6s107.9-228.5,241-228.5
		S490.4,128.4,490.4,254.6z"/>
	<path class="st58" d="M263.4,458.6c-133.1,0-240.9-102.3-240.9-228.4c0-32.6,7.3-64.8,21.4-94.2c-2.6,3.9-5.2,7.8-7.5,11.9
		c-20,33.7-30.6,72.2-30.6,111.4c0,126.2,107.9,228.5,241,228.5c97.7,0,181.7-55.1,219.6-134.3C423.5,416.7,348.6,458.6,263.4,458.6
		z"/>
	<path class="st59" d="M65.6,167.3c9.8-35.6,38.8-70.1,98.6-91.8c6.7-2.5,10.1-9.9,7.6-16.6c-0.7-1.8-1.7-3.4-3-4.7l-1.2-1.1
		c-3.4-3.4-8.3-4.6-12.9-3.2C132.4,56.5,74.1,89.6,55,164.4c-0.6,2.3,0.4,4.6,2.3,5.9l0.1,0.1c2.5,1.6,5.9,0.9,7.5-1.7
		C65.3,168.3,65.5,167.8,65.6,167.3z"/>
	<circle class="st59" cx="57.3" cy="186.4" r="8.2"/>
</g>
</svg>
