<svg xmlns="http://www.w3.org/2000/svg" viewBox="0 0 680 750"><defs><style>.cls-1{isolation:isolate;}.cls-2{fill:#f4c8ab;}.cls-3{fill:#ddad92;}.cls-4{fill:#53506f;}.cls-22,.cls-4,.cls-5{stroke:#232338;}.cls-11,.cls-22,.cls-4,.cls-5,.cls-6,.cls-7{stroke-miterlimit:10;}.cls-5{fill:#a7a7d1;}.cls-6{fill:#513725;stroke:#381b05;}.cls-7{fill:#2b1026;stroke:#890e6c;}.cls-8{fill:#23220c;}.cls-9{fill:#8a812a;}.cls-10{fill:#d0e2ec;}.cls-11,.cls-18{fill:#f4c9ab;}.cls-11{stroke:#965e38;stroke-width:0.75px;}.cls-12{fill:#ddaa87;}.cls-13{fill:#ea9653;}.cls-14{fill:#542d19;}.cls-15{fill:#f7eee8;}.cls-16{fill:#e07a5f;}.cls-17{fill:#ad7b59;}.cls-19{fill:#965e38;}.cls-20{fill:#d89f79;}.cls-21{fill:#f4f42a;}.cls-22{fill:#6b698c;}.cls-23{fill:#36344f;}.cls-24{opacity:0.05;mix-blend-mode:multiply;}</style></defs><g class="cls-1"><g id="Layer_1" data-name="Layer 1"><path class="cls-2" d="M670.07,337.39l-6.29.12s-1.63,4.49-4.09,4.65-15.65-.67-18.08,0c0,0-.88,3.39-2.77,3.78,0,0-17-.63-23.13,2.5-1.12.58-2.52,1.4-4.12,2.35-2.73,1.66-6.06,3.76-9.72,5.83q-1.61.92-3.27,1.83l-.06,0c-.76.4-1.51.8-2.28,1.19s-1.56.77-2.34,1.14a61.33,61.33,0,0,1-7.28,2.95l-1,.31c-.78.24-1.57.45-2.35.64-12.41,3-42.92,5.69-48.44,14-2.72,4.1-9.35,21.8-17.53,42.19a.3.3,0,0,0,0,.08c-3.51,8.75-7.31,18-11.19,26.86-5.37,12.22-10.9,23.73-16.12,32.28-16.72,27.36-43.88,69.3-68.45,61.8-.34-.11-.68-.21-1-.33-.66-.23-1.3-.46-1.92-.73l-.91-.41a7.32,7.32,0,0,1-.69-.33c-.28-.14-.55-.28-.82-.44a3.45,3.45,0,0,1-.43-.23l-.62-.37c-.27-.16-.53-.32-.78-.5l-.76-.53c-6-4.37-8.81-11-8.5-18.89.51-12.61,9.18-28.36,26.26-42.84,14.09-11.93,27.91-29,40-47,4.9-7.33,9.52-14.83,13.73-22.22h0c11.92-20.91,20.71-40.94,24.07-53.85,1.87-7.22,12.53-27.54,39.47-30.74,14.69-1.73,26.09-8,28.91-12,3.72-5.24,12.39,3.71,8.45,10.8-5.82,10.49-17.33,10.37-17.33,10.37s9.05,4.63,31.3,1.32,36.87-5.59,50.55-6.44C666.88,325.55,672.7,331.21,670.07,337.39Z"/><path class="cls-3" d="M611.59,350.82c-2.73,1.66-6.06,3.76-9.72,5.83q-1.61.93-3.27,1.83l-.06,0c-.76.4-1.51.8-2.28,1.19s-1.56.77-2.34,1.14a61.33,61.33,0,0,1-7.28,2.95l-1,.31c-.78.24-1.57.45-2.35.64-12.41,3-42.92,5.69-48.44,14-2.72,4.1-9.35,21.8-17.53,42.19a.3.3,0,0,0,0,.08c-3.51,8.75-7.31,18-11.19,26.86-5.37,12.22-10.9,23.73-16.12,32.28-16.72,27.36-43.88,69.3-68.45,61.8-.34-.11-.68-.21-1-.33-.66-.23-1.3-.46-1.92-.73l-.91-.41a7.32,7.32,0,0,1-.69-.33c-.28-.14-.55-.28-.82-.44a3.45,3.45,0,0,1-.43-.23l-.62-.37c-.27-.16-.53-.32-.78-.5l-.76-.53c-.47-.35-.92-.72-1.36-1.1a21.24,21.24,0,0,1-7.57-15.33c.31.31-.21-3.15.1-2.82l.33.36c33.67,35.68,75.2-36.82,84.07-48.2,2.79-3.55,7.45-13.42,12.59-25.42,3.56-8.3,7.33-17.61,10.86-26.57a.11.11,0,0,1,0-.06c7.72-19.58,14.25-37.44,14.72-39.27,1-3.89.48-16.17,11.73-15.34C550.82,365.17,595.49,354.72,611.59,350.82Z"/><path class="cls-4" d="M531.9,396.79s-4,13.2-11.35,31.67c-17.54,44.44-53.92,119.39-98,114.08l-.64-.1c-8.31-1.52-24.21-14-41.56-32.33-4.51-4.77-9.14-10-13.74-15.45-4.75-5.67-9.48-11.68-14.1-17.94-2-2.67-3.94-5.41-5.87-8.18-.56-.8-1.12-1.62-1.66-2.42-3.78-5.52-7.4-11.17-10.81-16.9-12.28-20.59-21.75-42.17-25-61.89-.35-2.14-.62-4.26-.83-6.35a148.68,148.68,0,0,1,.7-34.18c.06-.5.13-1,.2-1.5s.15-1,.23-1.48c.8-5.18,1.84-9.93,2.94-14.22.24-.91.49-1.81.73-2.66a111.22,111.22,0,0,1,8.5-22.16h0s26.09,2.48,47.95,46.15c15.08,30.11,59.76,104.47,61.07,106.4,7.39-7,27.36-27.7,45.89-52.31,6-7.94,11.82-16.28,17-24.7l.81.34h0l3.93,1.7,2.35,1,1.37.58,2.83,1.21L526,394.26l5.37,2.31Z"/><path class="cls-3" d="M643,342.23s.66-6-9.89-6.06-36.43,1-36.43,1,35.66-3.06,41.89-1.82c8.79,1.75,7.19,6.68,7.19,6.68Z"/><path class="cls-3" d="M663.69,337.43s1.41-10.37-21.28-7.41-39,4.49-39,4.49,48.57-8.43,57.28-4.86,5.36,7.64,5.36,7.64Z"/><path class="cls-3" d="M621.22,347h0a17.53,17.53,0,0,0-4.42,1.36c-1.3.67-3,1.68-4.93,2.87-12,2.4-33.42,7.09-33.42,7.09C587.44,354.24,621.22,347,621.22,347Z"/><path class="cls-3" d="M577.63,310.43c3.49-4.93,11.62,3.48,7.93,10.13a18.94,18.94,0,0,1-13.3,9.39c-1.83.25-3,.33-3,.33-7.47-2.75-12.71-6.94-28.11-6.52l.08,0a46.44,46.44,0,0,1,9.24-2C564.28,320.06,575,314.17,577.63,310.43Z"/><path class="cls-5" d="M531.9,396.79s-4,13.2-11.35,31.67l-2-1.06-5-2.63c-11.78-6.23-26.45-14-34.93-18.62L476.55,405c6-7.94,11.82-16.28,17-24.7l.81.34h0l3.93,1.7,2.35,1,1.37.58,2.83,1.21,21.17,9,5.38,2.28,0,.1Z"/><path class="cls-6" d="M175.5,632.42s-36.14,54.21-34.42,111.86l253,.86s-6.88-59.37-29.25-118.74-3.44.86-3.44.86Z"/><path class="cls-7" d="M215.08,648.77s91.21,19.79,139.39-10.33l-2.58-42.16L228,610.05Z"/><polygon class="cls-6" points="327.8 617.79 327.15 652.86 335.33 651.35 335.97 616.07 327.8 617.79"/><polygon class="cls-6" points="286.5 622.96 287.36 657.38 278.32 656.73 278.32 621.24 286.5 622.96"/><path class="cls-8" d="M247.49,150.57c0,52.28-12.41,108.36-48.76,105.84-61.95-4.3-86.9-60.45-86.9-112.72s33.26-87.76,69.69-87.76S247.49,98.3,247.49,150.57Z"/><ellipse class="cls-8" cx="161.04" cy="66.26" rx="55.97" ry="51.83" transform="translate(0.32 133.28) rotate(-45)"/><path class="cls-9" d="M217.09,29.4c20.24,20.24,18.45,67.19-3.41,89.05s-65.26,18.52-85.5-1.72-7.52-57.44,14.34-79.3S196.85,9.16,217.09,29.4Z"/><path class="cls-10" d="M230.86,614.64s82.6,18.36,119.88-4.59l13.77-170.37s-8-87.76-48.76-111.28-116.44,1.72-116.44,1.72S175.21,357.08,230.86,614.64Z"/><path class="cls-11" d="M288.22,391.49c-58.51-4.58-90.06-91.77-90.06-91.77a92.08,92.08,0,0,0,3.11-27c-.48-12.83-3.68-20.6-3.68-20.6a7.79,7.79,0,0,1,.34-2.14c4.45-15.22,52.75-8.9,65.91,10.46a17.55,17.55,0,0,1,2.58,15.2c-4,14.08,5,20,12.21,22.42a34.05,34.05,0,0,0,7.87,1.67l21.79,31.54C326.65,396.66,288.22,391.49,288.22,391.49Z"/><path class="cls-12" d="M201.6,290.54c5.38,7-9.07,39.53,14.34,31,14.92-5.45,48.76-20.08,57.08-24.38-7.75-8-12.54-11.54-8.89-25.24,1.46-5.53,1.08-4.39-1.68-8.69L223.61,248l-21.67,5"/><path class="cls-4" d="M259.27,619.27c-9.14,38-25.11,72.35-49.07,98.63,0,0-37.28,2.29-74.56-47,0,0,53.91-48.76,59.08-94.08,1.84-16.13-2.43-32.69-9.34-49.8-10.8-26.76-28.07-54.86-38.52-84.68q-1.22-3.51-2.33-7.05c-.72-2.35-1.39-4.69-2-7-14.34-54.5-21.8-96.37-21.8-96.37a46.88,46.88,0,0,1,7.68-7.62l.21-.17.64-.52c9.3-7.54,27.21-18.85,58.51-28.11,3.66-1.09,7.51-2.13,11.54-3.16,0,0,.14.23.39.68,1.23,2.22,5.37,9.72,11,21.09,1.71,3.45,3.57,7.27,5.52,11.4,4.1,8.6,8.62,18.6,13.23,29.61,1.14,2.69,2.28,5.46,3.41,8.27v0c5.76,14.22,11.51,29.89,16.63,46.31,4.11,13.19,7.79,26.86,10.73,40.69,1.51,7.13,2.83,14.29,3.89,21.46,1.78,12,3.07,24.25,3.84,36.51C270.32,546,267.72,584.15,259.27,619.27Z"/><path class="cls-11" d="M317.09,270.74s-11.91,18.59-34.57,20S212.32,286.5,182.19,239a296.6,296.6,0,0,1-17.61-49.95c-.52-2.17-3.6-3.06-4-5.28l-11.08-24.69S165.13,56.94,234.69,46.37c0,0,108.21-13.83,112.59,37,.58,6.73,3.13,11.47.54,21.88a92.6,92.6,0,0,0-1.4,9.49,160.79,160.79,0,0,0-.85,18.5c.06,9.69-3.34,26.09-.85,39.36C351.66,209.61,346.07,240.07,317.09,270.74Z"/><path d="M261.67,149.73a44.78,44.78,0,0,0-5.47-5.26,48.11,48.11,0,0,0-6.3-4.37,35.38,35.38,0,0,0-14.39-4.81,32.8,32.8,0,0,0-7.66.23l-1.94.23-1.93.32c-1.29.18-2.55.49-3.83.75a44,44,0,0,0-7.42,2.41,24.63,24.63,0,0,0-3.43,1.85,11.15,11.15,0,0,0-2.9,2.62,11,11,0,0,1,2.75-2.82,23.39,23.39,0,0,1,3.36-2.11,44.28,44.28,0,0,1,7.37-3c1.28-.34,2.55-.74,3.85-1l1.93-.45,2-.36a30.76,30.76,0,0,1,8-.57A37.53,37.53,0,0,1,251.08,138a49.4,49.4,0,0,1,6.8,4.36,46.91,46.91,0,0,1,6.07,5.44Z"/><path d="M300.27,141.87a35.79,35.79,0,0,1,4.89-3.78,40.66,40.66,0,0,1,5.34-2.92,31.54,31.54,0,0,1,11.76-2.85,27,27,0,0,1,6,.5,28.14,28.14,0,0,1,5.71,1.82,36.09,36.09,0,0,1,9.75,6.7,35.27,35.27,0,0,0-10-6,26.91,26.91,0,0,0-5.62-1.41,26.24,26.24,0,0,0-5.74-.12,29.66,29.66,0,0,0-10.86,3.38,36.77,36.77,0,0,0-4.83,3.06,33.07,33.07,0,0,0-4.23,3.7Z"/><path class="cls-13" d="M247,232.14s18.53,29.79,37.67,30.85S316,228.79,316,228.79,295.91,240.31,247,232.14Z"/><path class="cls-14" d="M249.22,233.37S265.38,255,284.51,256s32.1-28.3,32.1-28.3S300.12,246.77,249.22,233.37Z"/><path class="cls-15" d="M253.5,234.08s7.12,10.75,18.93,12,23.62,2.29,33.19-5.64l7.33-9.35S286.89,247.12,253.5,234.08Z"/><path class="cls-13" d="M247,232.14s24.43,5.29,39.09,4.05,26.06-2.29,31.15-9.69c0,0-8.14,13.57-33.59,13.22S247,232.14,247,232.14Z"/><path class="cls-16" d="M269,250.77a14.57,14.57,0,0,1,13.14-.74s9-3.35,16.7,1.24C298.83,251.27,286.3,262.58,269,250.77Z"/><path class="cls-17" d="M247.8,228.79s-5.7.7-2.65,6.7C245.15,235.49,244.54,231.08,247.8,228.79Z"/><path class="cls-17" d="M317.64,230.26s4-3.58-2.65-6.69C315,223.57,318.59,226.72,317.64,230.26Z"/><path class="cls-18" d="M295.53,167.56s-4,12.3,4.88,27c.66,1.12,1.33,2.23,1.91,3.38l1.69,3.35a8.06,8.06,0,0,1-3.69,10.85l-.22.12c-7.44,3.79-17,2.73-20.16-5.12"/><path class="cls-19" d="M295.56,167.57a33.17,33.17,0,0,0,.88,17.75,40.9,40.9,0,0,0,3.64,8.2c.74,1.29,1.57,2.56,2.28,3.91s1.38,2.66,2.06,4a8.22,8.22,0,0,1-1.18,8.83,10.28,10.28,0,0,1-3.78,2.7,19,19,0,0,1-4.37,1.39,15.61,15.61,0,0,1-9-.78,11.12,11.12,0,0,1-3.77-2.58,11.47,11.47,0,0,1-2.37-3.85l.07,0a11.08,11.08,0,0,0,6.25,6,15.52,15.52,0,0,0,8.72.54,21.11,21.11,0,0,0,4.2-1.39,9.34,9.34,0,0,0,3.52-2.49,7.77,7.77,0,0,0,1.77-3.87,7.56,7.56,0,0,0-.59-4.22c-.63-1.34-1.32-2.71-2-4s-1.48-2.6-2.22-3.92a42.21,42.21,0,0,1-3.56-8.33,33.27,33.27,0,0,1-.59-17.89Z"/><path class="cls-8" d="M285,70.22s-82.32,3.9-124.43,113.56L119,142S102.74,87.41,162.17,40,266.25,6.09,266.25,6.09,369.88,14,365.83,110.54c-2,46.53-21.77,60.29-21.77,60.29S355.75,92.89,285,70.22Z"/><path class="cls-18" d="M163.39,186.36s-6.44-14.57-17.52-19.27-25.76,15-10,35.49,38.38,29.85,38.63,15"/><path class="cls-19" d="M163.35,186.38a49.83,49.83,0,0,0-8.83-12.9,28.57,28.57,0,0,0-6.08-4.89,14.13,14.13,0,0,0-1.72-.91l-.88-.43-.91-.32a8.76,8.76,0,0,0-3.81-.24A10.72,10.72,0,0,0,137.5,168a14.6,14.6,0,0,0-3,2.38,18.35,18.35,0,0,0-4,6.58,22.28,22.28,0,0,0-1.22,7.64,26.14,26.14,0,0,0,1.33,7.63,38.46,38.46,0,0,0,8,13.23,75.32,75.32,0,0,0,11.24,10.84,55.57,55.57,0,0,0,6.43,4.43,33.18,33.18,0,0,0,7.08,3.21,15.63,15.63,0,0,0,3.81.72,8.1,8.1,0,0,0,3.75-.59,5.3,5.3,0,0,0,2.67-2.63,10.07,10.07,0,0,0,.84-3.78h.07a10.25,10.25,0,0,1-.72,3.86,5.59,5.59,0,0,1-2.72,2.85,8.36,8.36,0,0,1-3.91.69,16.26,16.26,0,0,1-3.92-.67,33.59,33.59,0,0,1-7.26-3.13,57.83,57.83,0,0,1-6.58-4.38A76.34,76.34,0,0,1,138,205.9a39.07,39.07,0,0,1-8-13.53,26.57,26.57,0,0,1-1.3-7.81,22.77,22.77,0,0,1,1.3-7.8,18.69,18.69,0,0,1,4.16-6.72,14.82,14.82,0,0,1,3.14-2.43,11.17,11.17,0,0,1,3.77-1.29,9,9,0,0,1,4,.29l.94.34.89.44a13.8,13.8,0,0,1,1.73,1,28.6,28.6,0,0,1,6.09,5,50.2,50.2,0,0,1,8.74,13Z"/><path class="cls-20" d="M137.67,186.85a29.16,29.16,0,0,1,4.64-7.71l0-.06.08,0a9,9,0,0,1,6.38.85,15.43,15.43,0,0,1,5,4.07,19.45,19.45,0,0,1,4.6,12l0,.75-.7-.28a7.35,7.35,0,0,0-4.22-.53,4,4,0,0,0-1.84.88,3.39,3.39,0,0,0-1.05,1.69,2.2,2.2,0,0,0,.35,1.83,3.49,3.49,0,0,0,1.66,1.14,10.17,10.17,0,0,0,4.38.22,22.47,22.47,0,0,1,2.34-.13,3.85,3.85,0,0,1,2.38.71,4.52,4.52,0,0,1,1.48,4.46,5,5,0,0,1-2.94,3.56,5.94,5.94,0,0,1-4.55.13,6.06,6.06,0,0,0,4.43-.37,4.69,4.69,0,0,0,2.57-3.42,3.93,3.93,0,0,0-1.38-3.84,3.12,3.12,0,0,0-2-.51,19.73,19.73,0,0,0-2.26.2,10.23,10.23,0,0,1-4.75-.19,4.31,4.31,0,0,1-2.09-1.43,3.14,3.14,0,0,1-.53-2.56,4.54,4.54,0,0,1,3.58-3.31,8,8,0,0,1,4.81.56l-.68.46a18.56,18.56,0,0,0-4.28-11.43,15.66,15.66,0,0,0-4.69-4,8.56,8.56,0,0,0-5.95-1l.13-.07A31.06,31.06,0,0,0,137.67,186.85Z"/><ellipse class="cls-21" cx="167.12" cy="217.04" rx="6.31" ry="5.76"/><path class="cls-18" d="M285,73.74s-3.19-35.07-15.7-61.27S278,29.17,278,29.17s9.78,24.63,3.91,44.18"/><path class="cls-4" d="M357.06,709.86c-11.15-11.15-14.87-54-15.49-95.29-.49-33,1-65.07,2.29-79.09.55-6,1.13-11.73,1.62-17.57.71-8.25,1.22-16.72,1.16-26.5a320.69,320.69,0,0,0-2.89-39.88c-.81-6.35-1.82-13.2-3.07-20.67-1.2-7.18-2.61-14.91-4.28-23.3-.26-1.3-.53-2.58-.81-3.86a200.3,200.3,0,0,0-12.89-38.94l-.06-.14A210.16,210.16,0,0,0,311,342.31c-.24-.42-.49-.85-.76-1.28a224,224,0,0,0-13.59-19.89A199.89,199.89,0,0,0,273.9,296c-1.84-1.68-2.89-2.54-2.89-2.54,7.38,1.36,14.91,2.95,21.85,4.5,14,3.09,25.56,6,28.48,6.78l.72.19,36.72,41.88c11.91,24.22,19.4,49.05,22.7,61.19,1.31,4.82,2,7.65,2,7.65C394.58,452,378,482.19,374,488.81c-.55.89-.87,1.35-.87,1.35-.91,13.94-1.2,26.83-1,38.7,1.08,78,22.26,112.17,22.26,112.17C404.66,685.19,357.06,709.86,357.06,709.86Z"/><path class="cls-22" d="M198.16,286s-15.49,2.3-16.06,37.29l13.76.57s-6.31,17.21,4,43,56.79,81.46,64.82,133.08L267,519.42s-2.29-90.64-37.28-162.91Z"/><path class="cls-22" d="M268.14,291.11s54.5,51.06,66.54,107.27c0,0,10.9,61.95,11.47,97.52,0,0,9.76-80.31-4-119.32s-37.86-63.1-37.86-63.1S315.18,299.72,268.14,291.11Z"/><path class="cls-4" d="M120.72,330.69s37-2.58,49,59.37"/><path class="cls-6" d="M283.06,746s8.6-14.63,15.48-38.72l25-21.51"/><path class="cls-8" d="M269.86,69.69S215.92,143.12,161.45,146c0,0,75.09-5.74,107.35-83.75Z"/><path class="cls-11" d="M153.83,639.81,170.48,606s8.5,2.92,22.32-5.1,47.17-16.25,58.81-10.21c13.81,7.17,41.8,41.92,37.2,66.71,0,0-2.84,6.8-9.1-4s-15.23-24.54-15.23-24.54,1.42,9.84-4.84,14.58c0,0,2.12,13.48-7.32,14,0,0,.35,15.92-11.1,16,0,0-5.2,1.21-3.31-10.09s-8.86-16-18.07-16-23.15,12.64-43,10.21S153.83,639.81,153.83,639.81Z"/><path class="cls-11" d="M264.83,630.58s-3.18-15.07-16.41-24.91"/><path class="cls-11" d="M259.76,647s.47-5.35-4.85-11.3-15.47-15.07-15.47-15.07"/><path class="cls-11" d="M251.49,662.9s3.78-9.36-7-18.84-13.34-10.93-13.34-10.93"/><path class="cls-23" d="M146.63,441.91l11.18-15.06s2.15,40,5.59,53.35Z"/><path class="cls-24" d="M374.27,489c-.55.89-.87,1.35-.87,1.35-.91,13.95-1.2,26.83-1,38.71-4.32-1.88-9.05-4-14.28-6.2-3.82-1.59-7.92-3.2-12.32-4.75a175.88,175.88,0,0,0-44.92-9.65,208.55,208.55,0,0,0-32.59,0c-.53,0-1,.08-1.56.13-.23,0-.47,0-.7.05a297.53,297.53,0,0,0-54,10.09c-9.55,2.66-18.43,5.57-26.34,8.41-10.8-26.77-28.07-54.87-38.52-84.68q-2.09,2.79-4.1,5.63l-.69-13.49,2.47.8c1.95.62,4,1.28,6.26,1.95l.67.2c2.51.75,5.19,1.52,8,2.29a326.69,326.69,0,0,0,41.12,8.46,292.81,292.81,0,0,0,47.35,2.78c3.62-.09,7.31-.25,11-.5l1.27-.09a242.56,242.56,0,0,0,72.33-16.13c2.43-.93,4.84-1.93,7.27-3L341,431l1.19-.52c2.55-1.14,5-2.29,7.49-3.49q6.42-3.12,12.37-6.48c7.06-4,13.63-8.15,19.75-12.41,1.31,4.81,2,7.64,2,7.64C394.87,452.16,378.33,482.33,374.27,489Z"/><path class="cls-4" d="M154.08,432.5c-.72.78-1.44,1.57-2.15,2.37-.13.16-.27.31-.41.47-2.57,2.92-5.07,5.93-7.51,9-1.33,1.69-2.65,3.39-3.94,5.11-1.39,1.87-2.76,3.74-4.11,5.63v0c-27.1,38.08-43.26,80.64-43.26,80.64C106,555,134.15,576.1,154.15,589.68,167,598.4,176.45,604,176.45,604l-21.8,45.32S145,643.9,131.2,636c-20.71-11.83-50.78-29.24-71.77-42.32-35-21.8-60.56-32.47-45.88-70,59.37-151.72,107.84-193,107.84-193l.22.69"/><path class="cls-4" d="M92.71,535.74s-15.49-14.34-43.6-3.44"/><path class="cls-5" d="M176.45,604l-21.8,45.32S145,643.9,131.2,636a303.25,303.25,0,0,1,23-46.32C167,598.39,176.45,604,176.45,604Z"/></g></g></svg>