<?xml version="1.0" encoding="utf-8"?>
<!-- Generator: Adobe Illustrator 25.2.3, SVG Export Plug-In . SVG Version: 6.00 Build 0)  -->
<svg version="1.1" id="Layer_1" xmlns="http://www.w3.org/2000/svg" xmlns:xlink="http://www.w3.org/1999/xlink" x="0px" y="0px"
	 viewBox="0 0 160 160" style="enable-background:new 0 0 160 160;" xml:space="preserve">
<style type="text/css">
	.st0{opacity:0.5;enable-background:new    ;}
	.st1{opacity:0.91;fill:url(#SVGID_1_);enable-background:new    ;}
	.st2{clip-path:url(#SVGID_3_);}
	.st3{fill:url(#SVGID_4_);}
	.st4{fill:url(#SVGID_5_);}
	.st5{fill:url(#SVGID_6_);}
	.st6{fill:url(#SVGID_7_);}
	.st7{fill:none;stroke:#FEFFEB;stroke-width:0.25;stroke-miterlimit:10;}
	.st8{opacity:0.43;}
	.st9{fill:none;stroke:#FEFFEB;stroke-width:0.5;stroke-miterlimit:10;}
	.st10{fill:#426E72;}
	.st11{fill:#264547;}
	.st12{fill:#E5D2C1;}
	.st13{fill:#E8D75D;}
	.st14{fill:#DBDAD9;}
	.st15{fill:#C6B663;}
	.st16{opacity:0.15;fill:#EA3B48;enable-background:new    ;}
	.st17{fill:#383C54;}
	.st18{fill:#878686;}
	.st19{fill:url(#SVGID_8_);}
	.st20{fill:#D5DADB;}
	.st21{fill:#E9EAE5;}
	.st22{fill:none;}
	.st23{fill:#9B2454;stroke:#323232;stroke-miterlimit:10;}
	.st24{fill:#F9DAD2;stroke:#4C2606;stroke-miterlimit:10;}
	.st25{fill:#B26B51;}
	.st26{fill:#E7D760;stroke:#BAA73B;stroke-miterlimit:10;}
	.st27{fill:#F9D1C6;stroke:#323232;stroke-miterlimit:10;}
	.st28{fill:#F75E95;stroke:#323232;stroke-miterlimit:10;}
	.st29{fill:#F4C3D7;stroke:#323232;stroke-miterlimit:10;}
	.st30{fill:#342516;}
	.st31{fill:#951C27;}
	.st32{fill:#F4EAE9;stroke:#664138;stroke-miterlimit:10;}
	.st33{fill:#F5968E;}
	.st34{fill:#F4756E;}
	.st35{fill:#C7EEF2;stroke:#323232;stroke-miterlimit:10;}
	.st36{fill:#ED865D;stroke:#323232;stroke-miterlimit:10;}
	.st37{fill:#9ACED6;stroke:#323232;stroke-miterlimit:10;}
	.st38{fill:#F4C9AB;}
	.st39{fill:#6B4B36;}
	.st40{fill:none;stroke:#323232;stroke-miterlimit:10;}
	.st41{fill:#F79FC3;stroke:#323232;stroke-miterlimit:10;}
	.st42{fill:#D8A99E;}
	.st43{fill:#F9988F;}
	.st44{fill:#F9F6F2;stroke:#323232;stroke-miterlimit:10;}
	.st45{fill:#3D2D16;stroke:#3D2D16;stroke-miterlimit:10;}
	.st46{fill:#F9F6F2;}
	.st47{fill:#3D2D16;}
	.st48{fill:#FFFFFF;stroke:#99807C;stroke-miterlimit:10;}
	.st49{fill:#F71C46;stroke:#323232;stroke-miterlimit:10;}
	.st50{fill:#EF4B3B;}
	.st51{fill:#FE66CA;stroke:#AF1086;stroke-width:2;stroke-miterlimit:10;}
	.st52{fill:#FFFA71;}
	.st53{fill:#CC0098;}
	.st54{fill:#E852BB;stroke:#AF1086;stroke-width:2;stroke-miterlimit:10;}
	.st55{fill:#EFCEE8;}
	.st56{fill:#DBBDD5;}
	.st57{fill:#C9A9C3;}
	.st58{fill:#968F94;}
	.st59{fill:#C4C0C3;}
	.st60{fill:#C4BBC2;}
	.st61{fill:#D1A7C9;}
	.st62{opacity:0.58;fill:#8AC0ED;enable-background:new    ;}
	.st63{fill:#D8B4D1;}
	.st64{fill:#D6B6D0;}
	.st65{fill:#B5B0B4;}
	.st66{fill:none;stroke:#D3CBD1;stroke-width:7;stroke-miterlimit:10;}
	.st67{fill:none;stroke:#6D646B;stroke-width:7;stroke-miterlimit:10;}
	.st68{opacity:0.2;fill:url(#SVGID_9_);enable-background:new    ;}
	.st69{opacity:0.5;fill:#4ECECE;enable-background:new    ;}
	.st70{opacity:0.6;fill:#FDFFFF;enable-background:new    ;}
	.st71{opacity:0.6;}
</style>
<circle class="st0" cx="82.2" cy="82.2" r="74.3"/>
<g id="_01-2">
	
		<radialGradient id="SVGID_1_" cx="205.92" cy="158.75" r="71.45" gradientTransform="matrix(1.2 0 0 -1.2 -170.46 268.56)" gradientUnits="userSpaceOnUse">
		<stop  offset="0" style="stop-color:#FFFFFF"/>
		<stop  offset="0.61" style="stop-color:#D3F9FC"/>
		<stop  offset="0.93" style="stop-color:#48E5FF"/>
	</radialGradient>
	<path class="st1" d="M151.9,78c0.2,41-32.9,74.3-73.8,74.5c-41,0.2-74.3-32.9-74.5-73.8C3.3,37.7,36.4,4.3,77.4,4.2
		c0.1,0,0.2,0,0.3,0C118.6,4.1,151.8,37.1,151.9,78C151.9,78,151.9,78,151.9,78z"/>
	<g>
		<defs>
			<ellipse id="SVGID_2_" cx="77.9" cy="77.2" rx="74" ry="73.7"/>
		</defs>
		<clipPath id="SVGID_3_">
			<use xlink:href="#SVGID_2_"  style="overflow:visible;"/>
		</clipPath>
		<g class="st2">
			
				<linearGradient id="SVGID_4_" gradientUnits="userSpaceOnUse" x1="284.6063" y1="353.0413" x2="143.0163" y2="-60.2087" gradientTransform="matrix(1 0 0 -1 0 162)">
				<stop  offset="0" style="stop-color:#72EDED"/>
				<stop  offset="0.23" style="stop-color:#6FE9EA"/>
				<stop  offset="0.45" style="stop-color:#67DDE3"/>
				<stop  offset="0.68" style="stop-color:#58C9D6"/>
				<stop  offset="0.9" style="stop-color:#45ADC4"/>
				<stop  offset="0.99" style="stop-color:#3CA1BC"/>
			</linearGradient>
			<path class="st3" d="M16.2-66.4c0.4,81.8,0.8,163.7,1.1,245.5l365.4,2.3V-65.3L16.2-66.4z"/>
			
				<linearGradient id="SVGID_5_" gradientUnits="userSpaceOnUse" x1="-379.5316" y1="240.9766" x2="22.2984" y2="52.6966" gradientTransform="matrix(1 0 0 -1 0 162)">
				<stop  offset="0.38" style="stop-color:#41AFB5"/>
				<stop  offset="0.76" style="stop-color:#3EABB6"/>
				<stop  offset="0.99" style="stop-color:#39A5B7"/>
			</linearGradient>
			<path class="st4" d="M16.4-68.2l-161.7-54.2c-1,108.8-2.1,217.6-3.1,326.5l165.9-35.2L16.4-68.2z"/>
			
				<linearGradient id="SVGID_6_" gradientUnits="userSpaceOnUse" x1="-268.2904" y1="209.7875" x2="29.0596" y2="162.5975" gradientTransform="matrix(1 0 0 -1 0 162)">
				<stop  offset="0.13" style="stop-color:#41B5C4"/>
				<stop  offset="0.48" style="stop-color:#40B1C2"/>
				<stop  offset="0.81" style="stop-color:#3DA5BE"/>
				<stop  offset="0.99" style="stop-color:#3A9CBA"/>
			</linearGradient>
			<path class="st5" d="M-142.1-124.6L15.5-67.7L15.3,94L-142.1-124.6z"/>
			
				<linearGradient id="SVGID_7_" gradientUnits="userSpaceOnUse" x1="393.7421" y1="248.0714" x2="-2.961" y2="148.3106" gradientTransform="matrix(1 0 0 -1 0 162)">
				<stop  offset="2.000000e-02" style="stop-color:#72EDED"/>
				<stop  offset="0.26" style="stop-color:#6FE9EC"/>
				<stop  offset="0.5" style="stop-color:#67DDE7"/>
				<stop  offset="0.74" style="stop-color:#59C9E0"/>
				<stop  offset="0.98" style="stop-color:#45ADD6"/>
				<stop  offset="0.99" style="stop-color:#45ADD6"/>
			</linearGradient>
			<polyline class="st6" points="398.5,-67.3 15.1,-67.2 15.1,85.5 394.9,-67.2 			"/>
			<line class="st7" x1="17.4" y1="-69.5" x2="17.4" y2="170.1"/>
			<g class="st8">
				<polyline class="st9" points="-143.8,0 12.3,16.5 432.6,14.4 				"/>
				<polyline class="st9" points="-144.1,48.2 16.4,52.3 413.4,52.3 				"/>
				<polyline class="st9" points="-142.7,95.3 -142.7,101.3 14.2,89.5 424.3,89.2 				"/>
				<polyline class="st9" points="-141.6,152.5 18.8,129 404.1,129 				"/>
				<polyline class="st9" points="64.7,-66.4 64.7,166.7 -66.2,221.3 				"/>
				<polyline class="st9" points="124.5,-66.4 122.1,168.6 41.6,229.2 				"/>
				<polyline class="st9" points="183.5,-66.4 182.5,169.6 143.1,250.1 				"/>
			</g>
			<ellipse class="st10" cx="129.8" cy="28.7" rx="6.9" ry="6.8"/>
			<ellipse class="st11" cx="129.8" cy="28.7" rx="4.8" ry="4.7"/>
			<rect x="128.9" y="26" class="st12" width="73.1" height="5.1"/>
			<path class="st13" d="M139.1,26.4v37.7c-0.6,6.3-1.2,7.3,8.2,7.1s36.7,0,36.7,0s6.4,3.3,6.3-7.2c-0.1-10.3-3.3-35-1.5-37.7
				c0.4-2.3,1.5,0,1.5,0l-1.1-2.3h-49.3C139.4,24.7,139.1,25.5,139.1,26.4z"/>
			<path class="st14" d="M139.1,62.6c0,0-4.2,11,7.4,8.6c11.6-0.1,36.9,0,36.9,0s8,3.2,6.9-8.7c-2.9,0-12.7,1.9-15.1,1.3
				s-12.9-1-15.2,0.2s-10.1-0.3-11.2-0.8S141,65.2,139.1,62.6z"/>
			<path class="st15" d="M159.2,24c0,0-21.4,7-20.1,17.8V26.4l0.8-2.3H159.2z"/>
			<ellipse class="st16" cx="145.4" cy="42" rx="3.5" ry="3.2"/>
			<ellipse class="st16" cx="158.1" cy="49.3" rx="3.1" ry="2.8"/>
			<ellipse class="st16" cx="157.3" cy="30.1" rx="3.1" ry="2.8"/>
			<ellipse class="st16" cx="146" cy="57.7" rx="3.1" ry="2.8"/>
			<polygon class="st17" points="4.2,-46.6 -17.6,-54.2 -17.6,4.1 5.8,8.3 6.5,-46 			"/>
			<polygon class="st18" points="3.3,-46.8 3.3,4.5 5.1,5.6 5.1,-44.2 			"/>
			
				<linearGradient id="SVGID_8_" gradientUnits="userSpaceOnUse" x1="-4.9087" y1="176.9099" x2="-7.3587" y2="145.8799" gradientTransform="matrix(1 0 0 -1 0 162)">
				<stop  offset="0" style="stop-color:#AECCD3"/>
				<stop  offset="0.44" style="stop-color:#D0DDDD"/>
			</linearGradient>
			<polygon class="st19" points="-3.3,-7.8 3.3,5.9 -15.1,1.7 -15.1,-10.6 -3.3,-8.2 			"/>
			<polygon class="st20" points="3.3,5.9 1.9,6.4 -15.1,2.7 -15.1,1.7 			"/>
			<path class="st21" d="M-19.4-59.2V6.6l27.7,4.2v-59.3L-19.4-59.2z M4.9,4.7l-20-3.1v-54.1l20,7.3V4.7z"/>
			<polygon class="st22" points="11.2,10.8 6,10.8 -22.1,6.4 -19.4,6.5 -16.7,6.6 			"/>
			<path class="st23" d="M90.4,100.8c0.1-1.8-0.4-3.7-1.5-5.2c-1.1-1.6-2.5-2.8-4.3-3.6C84,96.7,90.4,100.8,90.4,100.8"/>
			<path class="st24" d="M82.4,65c-1-1.1-2.3-2.2-3.6-1.9S77,64.8,77.6,67c0.2,1.9,1.3,3.5,2.9,4.5c1.8,1.2,2.7,1.8,4.3,0.5
				C84.8,69.5,82.9,65.7,82.4,65z"/>
			<path class="st25" d="M84.2,71.2c-0.2,0.1-0.4,0.1-0.7,0c-0.2-0.1-0.4-0.1-0.7-0.2c-0.4-0.2-0.8-0.6-1-1
				c-0.2-0.4-0.3-0.9-0.2-1.4c0-0.3,0.1-0.5,0.3-0.7l-0.3-0.4c-0.3-0.4-0.7-0.7-1-1.1c-0.3-0.4-0.7-0.6-1.1-0.8
				c-0.2-0.1-0.4,0-0.6,0.1c-0.2,0.1-0.3,0.3-0.3,0.6c0-0.3,0.1-0.5,0.3-0.7c0.2-0.2,0.5-0.2,0.7-0.2c0.5,0.2,0.9,0.4,1.3,0.8
				c0.4,0.3,0.7,0.7,1,1.1c0.1,0.1,0.2,0.3,0.3,0.4v0.1c0,0.1-0.1,0.1-0.1,0.2c-0.1,0.2-0.2,0.4-0.2,0.7c0,0.4,0,0.9,0.3,1.3
				c0.2,0.4,0.5,0.7,0.9,0.9c0.2,0.1,0.4,0.2,0.6,0.3C83.8,71.2,84,71.3,84.2,71.2z M80.6,70.1c0.4,0.3,0.9,0.5,1.3,0.7
				c-0.5-0.1-0.9-0.3-1.4-0.5c-0.5-0.2-0.9-0.6-1.2-1c-0.3-0.5-0.4-1-0.4-1.5c0-0.5,0.1-1,0.2-1.5c0,0.5,0,1,0,1.5
				c0,0.5,0.2,0.9,0.4,1.4C79.9,69.5,80.2,69.9,80.6,70.1z"/>
			<path class="st26" d="M84.1,71.1c0,0,1.8,2.9,0.1,3.6s-1.5-2.8-1.5-2.8s0.8,2.8,1.1,1L84.1,71.1z"/>
			<path class="st27" d="M75.5,84.1c0,0-0.3,8.7,2.2,14.7s2.8,6.4,5.8,5.8c2.8-0.6,5.3-2.2,7-4.4c0,0-1.5-7.1-5.1-8.1l-1.6,1
				c0,0-3.2-7.5-2.1-11C81.6,82.1,75.9,80.9,75.5,84.1z"/>
			<path class="st27" d="M83.7,93.1c0,0,1.2,0.7,1.8,4"/>
			<path class="st23" d="M129.2,88.9c-1.9,1-3.4,2.6-4.3,4.5c-0.7,1.7-1,3.6-0.7,5.5c4.3-2,5.3-9.9,5.3-9.9"/>
			<path class="st28" d="M120.1,149.5c-0.2,2.5-0.2,5.1,0.1,7.6c0.9,6.4-2.3,8.6-2.3,8.6c0.6,3.3-1,1.5-1.8,3.5s-3.9,1.4-3.9,1.4
				c-2.5,0.6-5.1,0.5-7.6-0.1c-3,0.5-6,0.2-8.8-1c-0.7-0.2-0.2-2.2-0.2-2.2l-0.3-0.4c-2.4-3.3,0-1.4-1.3-5.7
				c-0.1-0.2-0.1-0.4-0.2-0.6c-0.6-3-0.7-6-0.4-9.1l0,0c0.1-1.8,0.3-3.4,0.5-4.4c0.4-2.3,1.2-9.5,1.6-14.7c0.1-1.2,0.2-2.2,0.2-3.1
				c0.1-2.3,0.3-5,0.5-7.1s0.3-3.6,0.3-3.6s22.4-6.4,24.2,1.1c0.9,4,0.5,12.5,0,20.6C120.4,143.5,120.2,146.7,120.1,149.5
				L120.1,149.5z"/>
			<path class="st29" d="M120.6,140.3c-0.2,3.2-0.4,6.4-0.5,9.1l0,0c0,0.1-0.1,0.2-0.1,0.2c-0.3,0.7-1,1.2-1.8,1.2
				c-0.9,0-1.6-0.6-1.8-1.4c-0.2-0.8,0-1.7,0.5-2.4c-1,0.7-2.3,0.7-3.3-0.1c-0.7-0.9-0.7-2.3,0.2-3.1c0.9-0.8,2.1-1.1,3.2-0.9
				c-1-1.7-1.1-4.1,1-4.6C120.5,138.1,119.7,139.8,120.6,140.3z"/>
			<path class="st29" d="M101.2,154.8c-0.6,1-1.6,1.5-2.7,1.5c1.1,0.5,1.6,1.8,1.1,3c-0.5,1.1-1.8,1.6-3,1.1c-0.5-0.2-1-0.7-1.2-1.2
				c-0.2,0.8-0.8,1.4-1.7,1.4c-0.6-3-0.7-6-0.4-9.1l0,0c0.7-1.6,1.4-4.4,3.6-3.8c0.8,0.3,1.4,1,1.4,1.9c0,0.8-0.2,1.7-0.5,2.5
				c0.7-0.9,2-1,2.9-0.3C101.6,152.6,101.7,153.8,101.2,154.8z"/>
			<path class="st29" d="M101.7,128.8c-0.4,1.1-1.5,1.7-2.7,1.4c0.2,1.1-0.4,2.2-1.5,2.6c-0.7,0.2-1.5,0.1-2.1-0.3
				c0.1-1.2,0.2-2.2,0.2-3.1c0.1-2.3,0.3-5,0.5-7.1l0,0c1.6-0.6,4.7,0.5,3.3,2.7c0.6-0.1,1.2,0.2,1.6,0.7
				C101.7,126.5,102,127.7,101.7,128.8z"/>
			<path class="st28" d="M105.3,135.2c0,0-0.2,13.8-1.2,20.4c-0.3,1.8-0.3,3.7,0.1,5.5c0.7,3.3,2.7,3.4,1,4.5s1.1,1.4,0.6,2.8
				c0,0-1.6,0.8-1.2,2.2"/>
			<path class="st28" d="M102.8,133.4c2.1-0.3,4.1,0.9,4.8,2.9"/>
			<path class="st28" d="M114.8,121.8c0,0-0.8,3.3,5.8,7.9"/>
			<path class="st30" d="M108.3,34.5c0,0,8,1.8,8.1,2.1c0.5,1.8-0.1-3.4,3.2,5.5c2.4,6.6,1.4,22.3,9.6,31.8c0.1,0.1,0-0.1,0,0
				c-1,5.3-10.3,16.9-22.2,11.9c0,0-8.9,5-17.2,2s-6.4-13.5-10.4-20.7S70.4,52,72.1,44.7S101.3,21.8,108.3,34.5z"/>
			<path class="st28" d="M129.4,89c-3.8,1.5-5.3,9.9-5.3,9.9l-2.8-1.7l-2.8-2.7l0.9,5.7c1.8,6.7,2.9,13.7,3.1,20.7l-1.7,0.9
				c-21.6,3.2-25.3-2.6-25.3-2.6c0.1-13-2-21-2-21L92.7,99l-2.3,1.9c-0.8-7.4-5.8-8.8-5.8-8.8s1.5-1.2,3.3-2.8
				c0.9-0.8,1.8-1.6,2.8-2.5c2-1.8,4.2-3.2,6.6-4.4c5.8-3.2,14.7-2.7,14.7-2.7c1.1,0.2,2.1,0.5,3.2,0.8l0.6,0.2l0,0
				c0.5,0.2,1,0.4,1.5,0.6c1.3,0.5,2.5,1.1,3.7,1.8c1.8,1,3.5,2.1,5.1,3.3C127.3,87.2,128.4,88,129.4,89z"/>
			<path class="st31" d="M90.1,72.4c0.3,1.3,3,3,5.2,3.8c1.5,0.6,3.1,0.8,4.7,0.6c2.9-0.3,4.9-2.7,5.9-4.6c0.4-0.6,0.5-1.4,0.4-2.1
				c-0.2-1.2-1.6-1.9-3.1-2.1s-2.7-0.1-5.7,0.6c-2.2,0.5-4.3,1.2-6.3,2.2C90.4,71.2,90,71.6,90,72C90,72.1,90,72.2,90.1,72.4z"/>
			<path class="st32" d="M90.7,71.1c6.2,3.2,14.7-1.9,13.3-3.1c-2.2-0.2-4.4-0.1-6.5,0.5C95.2,69.1,92.9,70,90.7,71.1z"/>
			<path class="st33" d="M90.1,72.2c0.4-0.4,1.8-1.3,7.1-2.6c7.3-1.8,9.1,0.3,9.1,0.3c-0.3-2.4-4.9-3-10.9-1.6
				c-3.7,0.9-5.4,2.4-5.4,3.5C90,72,90,72.1,90.1,72.2z"/>
			<path class="st33" d="M90.1,72.4c1.2,2.5,5,5.3,9.5,4.8c2.9-0.3,7.2-4.5,6.7-7.3c-0.7,2.2-2.4,5.6-6,6.3
				C95.4,77.3,92.6,74.5,90.1,72.4z"/>
			<path class="st34" d="M104,73c-1.5-0.5-3.1-0.2-4.4,0.7c0,0-3.3-0.3-4,1.7C95.6,75.4,100.9,76.5,104,73z"/>
			<ellipse class="st35" cx="108.5" cy="101.4" rx="2.2" ry="2.1"/>
			<path class="st36" d="M126,118l-6.3,5.1l-0.6-1.5l-0.4-1.1l-8-10.6l-4.4-5.7c-0.4-0.5-0.4-1.1-0.1-1.7c0.1-0.1,0.2-0.2,0.3-0.3
				c0.8-1.1,2-2,3.3-2.5l0.6-0.2c0.4-0.1,0.9,0.1,1.1,0.4c0.8,1.7,3.3,6.2,6.2,8.5c2.5,2,5.1,5.9,6.4,8.1c0.2,0.4,0.6,0.7,0.9,0.9
				C125.2,117.7,125.6,117.9,126,118z"/>
			<path class="st37" d="M106.3,100.8l-1.8-2.5c0.2-0.7,0.8-1.3,1.6-1.4l1.9,2.3C107.3,99.6,106.8,100.1,106.3,100.8"/>
			<path class="st38" d="M107.2,104.1c0,0,1.5-2.8,3.8-3c0,0,2.3,4,3.6,5s-3,3.7-3,3.7S108.5,105.9,107.2,104.1z"/>
			<path class="st39" d="M126,118l-6.3,5.1l-0.6-1.5l5.8-4.2C125.2,117.7,125.6,117.9,126,118z"/>
			<path class="st27" d="M122,112.8c0,0,10.5-3,15.5-11.2c0.8-1.3,0.7-2.9-0.1-4.2c-2.3-3.3-5.2-6.1-8.7-8.3c0,0-3.9,1.2-4.5,9.1
				l2.5,2c-1.6,3.8-4.7,6.7-8.6,8"/>
			<path class="st27" d="M123.5,111.9c0,0-1.6,3.1-6.7,4.4c0,0-1.1,0.4-0.1,1.6c0,0,1,1.9-1.3,1.6c-0.9-0.2-1.7-0.6-2.3-1.3
				c0,0-1.4,0.6-1.7-2c0,0-1,0.5-1.8-1.8c0,0-1.8,0.1-0.6-3.4s6.5-4.6,11.3-3.4"/>
			<path class="st27" d="M113.1,118.6c-0.4-2.1,0.6-4.1,2.5-5"/>
			<path class="st27" d="M111.4,116.2c-0.2-1.8,0.8-3.6,2.5-4.4"/>
			<path class="st27" d="M109.7,114.6c0,0-0.1-3.9,2.4-4.8"/>
			<line class="st40" x1="126.1" y1="101.6" x2="127.8" y2="98.3"/>
			<path class="st41" d="M129.4,89c-3.8,1.5-5.3,9.9-5.3,9.9l-2.8-1.7c-0.3-4.2,1.5-8.3,4.8-10.9C127.3,87.2,128.4,88.1,129.4,89z"
				/>
			<path class="st41" d="M92.7,98.9l-2.3,1.9c-0.8-7.3-5.8-8.8-5.8-8.8s1.5-1.2,3.3-2.8C89.2,90.5,93,94.4,92.7,98.9z"/>
			<line class="st40" x1="93.9" y1="99.4" x2="92.2" y2="91.5"/>
			<line class="st40" x1="118.6" y1="94.8" x2="117.8" y2="88.9"/>
			<path class="st27" d="M106.2,85.2c-5.9,1.8-7.4-1.2-7.4-1.2c0-0.9,0-1.9,0.2-2.8c0.3-1.8,0.8-3.6,1.6-5.2c-0.6-7.5,9.4-7.7,8-4.1
				c-0.8,2-0.8,4.2,0,6.2c0.2,0.6,0.5,1.2,0.9,1.7C113,85.9,106.2,85.2,106.2,85.2z"/>
			<path class="st42" d="M108.6,71.9c-0.8,2-0.8,4.2,0,6.2c-2.5,2.5-7.2,3-9.5,3.1c0.3-1.8,0.8-3.6,1.6-5.2
				C100.1,68.5,110.1,68.3,108.6,71.9z"/>
			<path class="st41" d="M111.8,81.8c0,2.2-3.6,4.8-7.2,4.8s-6.6-1.8-6.6-4c0-0.8,0.3-1.5,0.9-2c0,0.1-0.1,0.2-0.1,0.3
				c-0.3,1.7,1.9,3.2,4.9,3.4s5.8-1,6.1-2.7c0.1-0.6-0.1-1.3-0.6-1.7c-0.1-0.2-0.2-0.5-0.2-0.8C110.2,79.9,111.8,80.8,111.8,81.8z"
				/>
			<path class="st24" d="M79.1,39.6c0,0-6.3,11.7,2,26.4c0.7,2.7,1.9,5.3,3.4,7.7c2,2.9,4.9,5.1,8.4,6c2.8,0.8,5.8,1.1,8.8,0.6
				c4-0.7,8-3.8,10.8-7.8c2.6-3.8,3.7-8.4,3-13c-0.9-6.3-4-21.1-13-25C89.3,28.8,79.1,39.6,79.1,39.6z"/>
			<path class="st43" d="M93.3,71.7c0,0,5.8-5.9,11.7-1.3c0,0-2-1.3-6.9-0.4C90.6,71.4,93.3,71.7,93.3,71.7z"/>
			<path class="st42" d="M78.1,59.1c0,0,0.4-6.7,3.3-11.4c0,0,8.2,4.5,13.6,3.3l-3-4.6c0,0,3.4,1.2,5.6,0.8l-1.3-3.3
				c0,0,3.3,2.8,10.9,2.5c0,0,4.3-0.5,6.8,8.4l-2.9-11l-13-6l-13.8,0.8L79.6,43l-3.7,10.5l2.1,5.9"/>
			<ellipse class="st44" cx="101.2" cy="57.5" rx="4.5" ry="4.6"/>
			<ellipse class="st45" cx="100.4" cy="59.7" rx="2.3" ry="2.3"/>
			<ellipse class="st46" cx="102" cy="58.1" rx="0.5" ry="0.5"/>
			<ellipse class="st44" cx="87" cy="62.6" rx="4.5" ry="4.6"/>
			<ellipse class="st45" cx="86.3" cy="64.7" rx="2.3" ry="2.3"/>
			<ellipse class="st46" cx="87.8" cy="63.2" rx="0.5" ry="0.5"/>
			<path class="st47" d="M97.2,49.3c2.1-1.3,4.8-1,6.6,0.7c0,0,0-2-3.6-2.7C100.2,47.2,97.6,46.9,97.2,49.3z"/>
			<path class="st47" d="M86.2,51.7c-2.4,0-4.5,1.7-5,4.1c0,0-1.1-1.7,1.4-4.3C83.7,50.6,85.3,50.7,86.2,51.7z"/>
			<path class="st24" d="M93.8,65.6c0,1.4,1.1,2.6,2.5,2.6c0.1,0,0.1,0,0.2,0c2.6-0.2,2.8-3.2,2.8-3.2"/>
			<path class="st48" d="M104.7,72.9c0.4-0.4,0.6-0.9,0.6-1.4c0-1.3-1.1-2.3-2.4-2.3c0,0,0,0,0,0c-0.4,0-0.8,0.1-1.2,0.3
				c-0.5-0.4-1-0.6-1.6-0.6c-1.2,0-2.2,0.8-2.4,2h-0.4c-0.7,0-1.4,0.2-2,0.5c-0.6-0.4-1.4-0.7-2.1-0.7c-1.5,0-2.8,0.8-2.8,1.8
				s1,1.6,2.3,1.7c-0.7,0.2-1.1,0.8-1.2,1.5c0,1,1.2,1.8,2.8,1.8h0.1c0.2,1.3,1.5,2.3,2.8,2.2c1.3,0,2.4-0.8,2.7-2
				c0.3,0.1,0.7,0.2,1,0.2c1.1,0,2-0.7,2.3-1.8h0.2c1.5,0,2.8-0.8,2.8-1.8C105.9,73.7,105.4,73.1,104.7,72.9z"/>
			<path class="st49" d="M69.5,80.9c0,0,0.3-1.3,3.5-2.6s14.6-3.7,16.4-4.7c0-0.5,0.3-1,0.8-1.3c1.5-0.6,6.4-1.8,7.9-2.3
				c0,0,1.8,0.9,0.8,2.4c0,0,0.3,1-8.4,3.1c0,0-1.8,0.1-7.6,2.7S70,83.1,69.5,80.9z"/>
			<path class="st27" d="M77.5,86.7c-6.4-0.4-4-6.9-4-6.9c1.8-3.6,8-2,8-2l1.2,4.9l-1.5,3"/>
			<path class="st27" d="M73.3,76.1c0,0-2,0-1.7,2.4s2.2,4.3,3.8,3.1c0.2-0.2,0.3-0.4,0.3-0.6c0,0,1.2,0.2,0.9-1
				c0.7,0.6,1.7,0.5,2.3-0.2c0.2-0.2,0.3-0.5,0.4-0.8l2.7-1.3c0,0,0.6-3-0.7-4.2s-2.4-0.2-2.7,0.9c0,0-0.8-1.4-2-1
				c-0.5,0.3-0.9,0.8-1,1.4C75.7,74.8,74,73.5,73.3,76.1z"/>
			<path class="st27" d="M73.5,75.6c0,0-1,3.9,2.7,5.4"/>
			<path class="st27" d="M76.1,74c-0.9,2-0.6,4.3,0.8,6"/>
			<path class="st27" d="M78.6,74.3c0,0,0.5,0.5,0.2,3.2"/>
			<path class="st27" d="M81.1,84.9c4.9-3.8,3.9-7.8,1.9-8.5s-5.5,0.2-6.1,1.8s0.8,1.5,0.8,1.5l3.1-0.7c-3.7,1.4-1.9,4.1-1.9,4.1"/>
			<path class="st48" d="M108.8,77.1c0,0.8-0.7,1.5-1.5,1.5s-1.5-0.7-1.5-1.5c0-0.8-1.7-2.4-0.9-2.4S108.8,76.2,108.8,77.1z"/>
			<path class="st48" d="M110.6,73.9c0,0.8-1.3,0.7-2.1,0.7c-0.9,0-1.5-0.7-1.5-1.5s0.7-1.5,1.5-1.5
				C109.2,71.6,110.6,73.1,110.6,73.9z"/>
			<path class="st30" d="M81.4,45.9c0,0,2.8,3.2,12.1,4.5l-4.5-6.8c0,0,1.7,3.1,7.8,2.8L94.5,42c0,0,6.1,3.7,12.3,3.6
				s7.6,10.8,7.6,10.8c1,1.6,2.9,2.3,4.7,1.7c3.2-0.9,2.8-25.8-13.4-32.2s-30.3,4.4-33.1,14.8c0,0-3.8,12,5.6,19.3c0.7,0.5,0-1,0-1
				S75.3,52.7,81.4,45.9z"/>
			<path class="st24" d="M113.9,55.8c0.3-2.3,1.5-3.3,2.8-3.6c1.6-0.4,3,0.7,3.7,3.3s0.7,4.1-0.5,6.3s-1.9,3.4-4.4,2.9"/>
			<path class="st25" d="M115.6,63.7c0.3,0,0.5-0.2,0.7-0.4c0.2-0.2,0.4-0.4,0.6-0.6c0.7-0.9,0.7-2.2,0-3.2
				c-0.2-0.2-0.5-0.5-0.8-0.6c0-0.2,0.1-0.4,0.1-0.6c0.1-0.6,0.3-1.1,0.4-1.7c0.1-0.6,0.4-1.1,0.8-1.5c0.2-0.2,0.5-0.3,0.7-0.3
				c0.3,0,0.6,0.1,0.7,0.4c-0.1-0.3-0.4-0.5-0.7-0.5c-0.3,0-0.6,0-0.9,0.3c-0.4,0.4-0.7,1-0.9,1.6c-0.2,0.6-0.3,1.1-0.4,1.7
				c0,0.2,0,0.4-0.1,0.6v0.1l0.1,0.1c0.2,0.2,0.4,0.4,0.6,0.6c0.3,0.4,0.5,0.9,0.5,1.5c0,0.5-0.2,1-0.4,1.5
				c-0.1,0.2-0.3,0.4-0.5,0.6C116.1,63.4,115.8,63.6,115.6,63.7z M118.9,60.5c-0.3,0.5-0.6,1-1,1.4c0.4-0.4,0.9-0.8,1.2-1.3
				c0.4-0.5,0.6-1.1,0.7-1.7c0-0.6-0.1-1.2-0.4-1.8c-0.3-0.5-0.7-1-1.1-1.4c0.3,0.5,0.6,1,0.9,1.5c0.3,0.5,0.4,1.1,0.4,1.7
				C119.4,59.5,119.2,60,118.9,60.5z"/>
			<path class="st26" d="M117.8,62.6c0,0-0.2,4,2,3.7s0-3.7,0-3.7s0.8,3.3-0.6,1.7L117.8,62.6z"/>
			<path class="st50" d="M71.5,44.7c-0.2-3.1,0.4-6.2,1.8-9.1c1.4-3,3.5-5.5,6.1-7.5c2.7-1.9,5.6-3.4,8.8-4.4l2.3-0.6
				c0.4-0.1,0.7-0.2,1.2-0.3s0.9-0.1,1.4-0.2c1.7-0.2,3.4-0.2,5.2-0.1c3.6,0.2,7.1,1,10.4,2.5c1.7,0.8,3.3,1.9,4.7,3.1
				c1.4,1.3,2.5,2.8,3.4,4.4c1.7,3.1,2.7,6.5,2.8,10c0.1,3.3-0.5,6.6-1.9,9.6l-1.2,0.1c-2-2.7-3.5-5.1-5-7.3c-1.3-2-2.9-3.8-4.5-5.5
				c-1.5-1.5-2.8-2.8-4.4-4.2c-1.6-1.5-3.6-2.6-5.7-3.2c-1.1-0.3-2.3-0.5-3.4-0.6c-0.3,0-0.6,0-0.8,0s-0.6,0-0.9,0l-2,0.1
				c-2.5,0.2-4.9,0.7-7.3,1.7c-2.3,1-4.4,2.5-6.1,4.4c-0.9,1-1.6,2.1-2.2,3.3c-0.7,1.2-1.2,2.5-1.5,3.8L71.5,44.7z"/>
			<path class="st51" d="M118.3,40.7c-1.8,1.9-2,4.5-4.6,2s-1.6-7.9-1.6-7.9s5.4-1.3,8,1.2S120.1,38.8,118.3,40.7z"/>
			<path class="st51" d="M105.7,28.8c-1.8,1.9-4.4,2.2-1.8,4.7s8,1.2,8,1.2s1-5.4-1.6-7.9S107.5,27,105.7,28.8z"/>
			<circle class="st52" cx="109.5" cy="28.6" r="0.6"/>
			<circle class="st52" cx="110.5" cy="30.8" r="0.6"/>
			<circle class="st52" cx="107.2" cy="31" r="0.6"/>
			<path class="st52" d="M108.5,33.7c-0.2,0.2-0.6,0.2-0.8,0c-0.2-0.2-0.2-0.6,0-0.8c0.2-0.2,0.6-0.2,0.8,0
				C108.7,33.1,108.7,33.5,108.5,33.7C108.5,33.7,108.5,33.7,108.5,33.7z"/>
			<circle class="st52" cx="105.7" cy="32.6" r="0.6"/>
			<path class="st52" d="M111.6,32c-0.2,0.2-0.2,0.5,0,0.8c0,0,0,0,0,0c0.1,0.1,0.3,0.2,0.4,0.2c0-0.3,0-0.7,0-1.1
				C111.8,31.9,111.7,31.9,111.6,32z"/>
			<path class="st52" d="M111.5,29.7c0.1,0.1,0.2,0.1,0.3,0.1c-0.1-0.3-0.2-0.6-0.3-0.9l0,0C111.3,29.1,111.3,29.5,111.5,29.7
				C111.5,29.7,111.5,29.7,111.5,29.7z"/>
			<path class="st52" d="M106.1,34.5L106.1,34.5c0.3,0.1,0.6,0.2,0.9,0.2c0-0.1-0.1-0.2-0.2-0.3C106.7,34.3,106.3,34.3,106.1,34.5z"
				/>
			<path class="st52" d="M110.1,34.4c-0.2-0.2-0.6-0.2-0.8,0c0,0,0,0,0,0c-0.1,0.1-0.2,0.3-0.1,0.5c0.4,0,0.8,0,1.1-0.1
				C110.2,34.7,110.2,34.5,110.1,34.4z"/>
			<path class="st52" d="M107.5,28.3c0.2-0.2,0.2-0.6,0-0.8c0,0,0,0,0,0c-0.1-0.1-0.3-0.2-0.5-0.1c-0.1,0.2-0.3,0.5-0.5,0.7
				c0,0.1,0.1,0.2,0.2,0.3C107,28.5,107.3,28.5,107.5,28.3z"/>
			<path class="st52" d="M108.3,26.7c0.2,0.2,0.6,0.2,0.8,0c0,0,0,0,0,0c0.1-0.1,0.2-0.3,0.2-0.4c-0.3-0.2-0.7-0.2-1.1-0.1
				C108.1,26.4,108.1,26.5,108.3,26.7z"/>
			<path class="st52" d="M104.4,30.7c0.2,0.2,0.6,0.2,0.8,0c0.2-0.2,0.2-0.5,0-0.8c0,0,0,0,0,0c-0.1-0.1-0.2-0.1-0.3-0.1l-0.7,0.5
				C104.3,30.4,104.4,30.6,104.4,30.7z"/>
			<path class="st52" d="M103.7,32.3c0.2-0.2,0.2-0.6,0-0.8c0,0,0,0,0,0c-0.1-0.1-0.3-0.2-0.5-0.1c-0.1,0.4-0.1,0.8,0.1,1.1
				C103.5,32.4,103.6,32.4,103.7,32.3z"/>
			<circle class="st52" cx="118.4" cy="36.9" r="0.6"/>
			<circle class="st52" cx="116" cy="36.2" r="0.6"/>
			<circle class="st52" cx="116.1" cy="39.3" r="0.6"/>
			<path class="st52" d="M113.3,38.2c-0.2,0.2-0.2,0.6,0,0.8c0,0,0,0,0,0c0.2,0.2,0.6,0.2,0.8,0c0.2-0.2,0.2-0.6,0-0.8c0,0,0,0,0,0
				C113.9,38,113.5,38,113.3,38.2z"/>
			<circle class="st52" cx="114.6" cy="40.9" r="0.6"/>
			<path class="st52" d="M114.8,35.1c-0.2,0.2-0.6,0.2-0.8,0c-0.1-0.1-0.2-0.3-0.2-0.4c0.3,0,0.7-0.1,1.1-0.1
				C115,34.8,114.9,34.9,114.8,35.1z"/>
			<path class="st52" d="M117.1,35c-0.1-0.1-0.1-0.2-0.2-0.3c0.3,0,0.7,0.1,1,0.2l0,0C117.8,35.2,117.5,35.3,117.1,35
				C117.2,35.1,117.2,35,117.1,35z"/>
			<path class="st52" d="M112.6,40.6L112.6,40.6c-0.1-0.3-0.2-0.6-0.3-0.9c0.1,0,0.2,0.1,0.3,0.1C112.8,40,112.8,40.4,112.6,40.6
				C112.6,40.6,112.6,40.6,112.6,40.6z"/>
			<path class="st52" d="M112.5,36.7c0.2,0.2,0.2,0.6,0,0.8c0,0,0,0,0,0c-0.1,0.1-0.3,0.2-0.4,0.2c0-0.4,0-0.8,0-1.1
				C112.2,36.5,112.3,36.6,112.5,36.7z"/>
			<path class="st52" d="M118.8,38.9c0.2-0.2,0.6-0.2,0.8,0c0.1,0.1,0.2,0.3,0.2,0.4l-0.7,0.5c-0.1,0-0.2-0.1-0.3-0.1
				C118.6,39.5,118.6,39.1,118.8,38.9C118.8,38.9,118.8,38.9,118.8,38.9z"/>
			<path class="st52" d="M120.4,38c-0.2-0.2-0.2-0.6,0-0.8c0.1-0.1,0.3-0.2,0.4-0.2c0.2,0.3,0.3,0.7,0.1,1.1
				C120.7,38.2,120.5,38.1,120.4,38z"/>
			<path class="st52" d="M116.6,42c-0.2-0.2-0.2-0.6,0-0.8c0.2-0.2,0.6-0.2,0.8,0l0,0c0.1,0.1,0.1,0.2,0.2,0.3
				c-0.2,0.2-0.3,0.5-0.4,0.7C116.8,42.2,116.7,42.2,116.6,42z"/>
			<path class="st52" d="M115,42.9c0.2-0.2,0.6-0.2,0.8,0c0,0,0,0,0,0c0.1,0.1,0.2,0.3,0.2,0.5c-0.4,0.2-0.8,0.1-1.1-0.1
				C114.8,43.2,114.9,43,115,42.9z"/>
			<path class="st53" d="M108.5,30c-0.8,0.6,2,3.1,2,3.1S109.4,29.4,108.5,30z"/>
			<path class="st53" d="M107.5,32.2c-0.3,0.6,2.7,1.4,2.7,1.4S107.8,31.6,107.5,32.2z"/>
			<path class="st53" d="M117.1,38c-0.5,0.9-3.2-1.9-3.2-1.9S117.6,37.1,117.1,38z"/>
			<path class="st53" d="M114.9,39.1c-0.6,0.3-1.6-2.6-1.6-2.6S115.4,38.8,114.9,39.1z"/>
			<path class="st54" d="M110.3,34.1c-0.4,0.4-0.4,1,0,1.4l1,0.9c0.4,0.4,1,0.4,1.4,0l0.9-1c0.4-0.4,0.4-1,0-1.4l-1-0.9
				c-0.4-0.4-1-0.4-1.4,0L110.3,34.1z"/>
			<path class="st29" d="M118.2,84c0,0,1.8,3.7-1.2,3.3s-1.5-3-1.4-3.1c-0.1,0.1-3,2.3-3.3-0.4s2.5-1.9,2.5-1.9
				c-0.2-1.1,0-1.4,0.4-1.5c0.2,0,0.5,0.1,0.6,0.2l0,0c0.4,0.3,0.8,0.6,1.1,0.9c0.1-0.1,0.3-0.2,0.4-0.3c1.3,0.5,2.5,1.1,3.7,1.8
				l0.1,0.1C121.4,85.9,118.2,84,118.2,84z"/>
			<path class="st29" d="M103.8,95.6c0,0.1,0,0.2-0.1,0.3c-0.1,0.2-0.2,0.4-0.4,0.5c-0.3,0.2-1.2,0.3-1.4-0.1
				c0.3,0.4,0.5,0.6,0.4,1.1c0,0.2-0.1,0.3-0.2,0.5c0,0.1-0.1,0.2-0.2,0.2c-0.1,0.1-0.3,0.2-0.4,0.3c-0.1,0.1-0.2,0.1-0.3,0.1
				c-0.1,0-0.2,0-0.2,0c-0.9,0-1.6-0.7-1.6-1.5c0,0,0-0.1,0-0.1c0,0.2-0.5,0.5-0.6,0.6c-0.3,0.2-0.7,0.2-1.1,0.2
				c-0.1,0-0.2,0-0.3-0.1l-0.2-0.1c-0.2-0.2-0.4-0.4-0.4-0.7l0,0v-0.2c0,0,0,0,0-0.1c-0.1-0.7,0.4-1.4,1.1-1.6c0.1,0,0.2,0,0.3,0
				c-0.6-0.4-1.1-0.9-1-1.5c0-0.1,0-0.2,0.1-0.2c0.1-0.2,0.3-0.4,0.4-0.5l0.2-0.1c0.1,0,0.2-0.1,0.3-0.1c0.6-0.1,1.1,0.2,1.3,0.7
				c-0.1-0.6,0.1-1.2,0.6-1.6c0.2-0.1,0.4-0.2,0.6-0.2c0.1,0,0.2,0,0.3,0l0,0c0.3,0,0.5,0.1,0.8,0.3c0.1,0,0.1,0.1,0.2,0.2
				c0.1,0,0.1,0.1,0.1,0.1c0.7,0.8,0,1.7-0.5,2.3c0.7-0.4,1.6-0.3,2.1,0.4c0,0.1,0.1,0.2,0.1,0.3l0,0
				C103.8,95.2,103.8,95.4,103.8,95.6z"/>
			<path class="st29" d="M109,112.2c0,0.1-0.1,0.2-0.1,0.3c-0.1,0.3-0.3,0.5-0.6,0.7c-0.4,0.3-1.7,0.4-2-0.1
				c0.3,0.6,0.7,0.8,0.5,1.6c-0.1,0.2-0.2,0.5-0.3,0.7l-0.2,0.3c-0.2,0.2-0.4,0.3-0.6,0.5c-0.1,0.1-0.3,0.2-0.4,0.2
				c-0.1,0-0.2,0.1-0.3,0.1c-1.2,0-2.2-0.9-2.2-2.1c0-0.1,0-0.2,0-0.2c0,0.2-0.7,0.7-0.9,0.8c-0.5,0.2-1,0.3-1.5,0.3
				c-0.2,0-0.3-0.1-0.5-0.1c-0.1,0-0.2-0.1-0.3-0.2c-0.3-0.2-0.5-0.6-0.6-1l0,0c0-0.1,0-0.2,0-0.3c0,0,0-0.1,0-0.1
				c-0.1-1,0.6-1.9,1.6-2.1c0.1,0,0.2,0,0.4,0c-0.8-0.6-1.4-1.3-1.3-2c0-0.1,0.1-0.2,0.1-0.3c0.2-0.4,0.5-0.7,0.9-0.8
				c0.1-0.1,0.3-0.1,0.4-0.1c0.8-0.1,1.5,0.3,1.8,1c-0.1-0.8,0.2-1.7,0.8-2.2c0.3-0.2,0.6-0.3,0.9-0.3c0.1,0,0.3,0,0.4,0l0,0
				c0.4,0,0.7,0.1,1.1,0.3c0.1,0.1,0.2,0.1,0.3,0.2l0.1,0.1c0.9,1,0.1,2.3-0.7,3.2c1-0.6,2.2-0.3,2.9,0.6c0.1,0.1,0.1,0.2,0.2,0.3
				c0,0,0,0,0,0.1C109,111.7,109,111.9,109,112.2z"/>
			<path class="st55" d="M80.8,97.1c0,13-13.3,27.4-32.1,27.4s-35.9-13.8-35.9-26.8c0-0.3,0-0.6,0-0.9s0-0.5,0.1-0.8
				c1.3-3.7,16-6.6,33.9-6.6c18.4,0,33.4,3.1,34,6.9c0,0.1,0,0.2,0,0.4S80.8,97,80.8,97.1z"/>
			<path class="st56" d="M80.8,96.5c0,0,0,0.1,0,0.1c-0.3,3.9-15.4,7-34,7c-18.3,0-33.3-3.1-34-6.9c0-0.1,0-0.2,0-0.3
				c0-0.2,0-0.4,0.1-0.5c1.3-3.7,16-6.6,33.9-6.6c18.4,0,33.4,3.1,34,6.9C80.8,96.4,80.8,96.5,80.8,96.5z"/>
			<path class="st57" d="M73.9,95.4c0,2.4-11.1,4.3-24.8,4.3c-4.3,0-8.3-0.2-11.8-0.5c-2-0.2-3.8-0.4-5.4-0.7
				c-4.7-0.8-7.6-1.9-7.6-3.1s2.9-2.3,7.6-3.1c1.6-0.3,3.4-0.5,5.4-0.7c3.5-0.3,7.5-0.5,11.8-0.5C62.8,91.1,73.9,93,73.9,95.4z"/>
			<path class="st58" d="M16.5,91.3v6.2c0,0.4,2,0.7,4.6,0.7s4.5-0.3,4.5-0.7v-6.2H16.5z"/>
			<ellipse class="st59" cx="21.1" cy="91.3" rx="4.6" ry="0.7"/>
			<path class="st60" d="M37.9,71.3c0-2.8-2.2-5-5-5h-9.3c-2.8,0-5,2.2-5,5l0,0v20l0,0c0,0.2,1.1,0.4,2.5,0.4s2.5-0.2,2.5-0.4l0,0
				V72.1c0-0.4,0.3-0.7,0.7-0.7h6.1c0.7,0,1.2,0.5,1.2,1.2c0,0,0,0,0,0v4.4h6.1L37.9,71.3L37.9,71.3z"/>
			<path class="st58" d="M30.6,76.3h6.8c0.4,0,0.8,0.3,0.8,0.8v0c0,0.4-0.3,0.8-0.8,0.8h-6.8c-0.4,0-0.8-0.3-0.8-0.8v0
				C29.8,76.6,30.1,76.3,30.6,76.3z"/>
			<polyline class="st55" points="26.3,103.5 26.3,179.6 13.2,177.6 12.9,99.8 			"/>
			<path class="st61" d="M26.3,102.2c0,0,1.7,12.9,9.2,20.1v52.6l-9.2,4.6L26.3,102.2z"/>
			<path class="st62" d="M68.2,91c-2.1-0.4-4.3-0.4-6.4-0.2c-0.4,0-0.7,0.1-1,0.3c-0.3,0.5-0.2,1.2,0.3,1.5c0,0,0.1,0,0.1,0.1
				c0.6,0.3,1.2,0.4,1.8,0.5c0.6,0,1.2,0.4,1.5,0.9c0.1,0.4,0.1,0.8,0,1.1c-0.1,0.5-0.4,0.9-0.7,1.3c-0.2,0.2-0.3,0.4-0.4,0.6
				c-0.2,0.7,0.8,1.2,1.4,0.9c0.6-0.4,1.1-0.9,1.3-1.6c0.3-0.6,0.8-1.2,1.5-1.3c0.4,0.7-0.4,1.6,0.1,2.2c0.3,0.3,0.8,0.3,1.2,0.3
				l5.8-0.7c-0.3,0.9-1.4,1.2-2.3,1.4s-2,0.6-2.2,1.5c2.6,0.9,5.3-0.5,7.7-1.8c0.6-0.3,1.2-0.7,1.2-1.4c0-0.9-1-1.3-1.9-1.5
				s-1.9-0.6-1.9-1.5c0-0.2,0-0.5,0-0.7c-0.1-0.3-0.3-0.4-0.6-0.6c-2.8-1.3-5.9-2-9-2.1"/>
			<path class="st63" d="M46.2,104.3c0,0,25.5,1.3,34-5.4c0,0-2.8,22.4-30,24.8c0,0,16.6-7.8,12.2-12.6S46.2,104.3,46.2,104.3z"/>
			<path class="st64" d="M24.9,123v55.1l-10.5-1.8C14.4,176.2,23.8,170.4,24.9,123z"/>
			<polygon class="st65" points="20.2,92.2 20.2,98.1 22.4,98.1 22.4,92.2 			"/>
			<path class="st66" d="M20.2,91.5V71.3c0-1.4,1.1-2.5,2.5-2.4h10.5c1.4,0,2.5,1.1,2.5,2.4V76"/>
			<path class="st67" d="M23.3,91.3v-19c0-0.6,0.4-1,1-1h6.6c0.6,0,1,0.4,1,1v3.9"/>
		</g>
	</g>
	
		<radialGradient id="SVGID_9_" cx="139.6254" cy="157.2792" r="58.2253" gradientTransform="matrix(1.27 0 0 -1.2 -98.15 268.56)" gradientUnits="userSpaceOnUse">
		<stop  offset="0" style="stop-color:#FFFFFF"/>
		<stop  offset="0.43" style="stop-color:#D3F9FC"/>
	</radialGradient>
	<path class="st68" d="M151.9,79.8c0,38.6-33,69.8-73.7,69.8S4.6,118.4,4.6,79.8S37.6,10,78.3,10S151.9,41.2,151.9,79.8z"/>
	<path class="st69" d="M82.5,142.2c-40.7,0-73.7-31.3-73.7-69.8c0-10,2.2-19.8,6.5-28.8c-0.8,1.2-1.6,2.4-2.3,3.6
		C7,57.5,3.7,69.2,3.8,81.2c0,38.6,33,69.8,73.7,69.8c29.8,0,55.6-16.9,67.1-41.1C131.4,129.4,108.6,142.2,82.5,142.2z"/>
	<path class="st70" d="M23,55.3c3-10.9,11.9-21.4,30.2-28.1c2.1-0.8,3.1-3.1,2.3-5.2c-0.2-0.5-0.5-0.9-0.9-1.3l-0.3-0.4
		c-1-1-2.5-1.4-3.9-1c-6.9,2.1-24.7,12.2-30.5,35.1c-0.2,0.7,0.1,1.4,0.7,1.8l0,0c0.8,0.5,1.8,0.3,2.3-0.4
		C22.9,55.7,23,55.5,23,55.3z"/>
	<circle class="st70" cx="20.5" cy="61.2" r="2.5"/>
</g>
<g class="st71">
	<path d="M128.4,24.1c-30-27.9-77-26.3-105,3.8C10.7,41.5,3.6,59.4,3.5,78.1c0,2.3,0.1,4.5,0.3,6.8c0,0.2,0,0.5,0.1,0.7v0.1
		c1.3,18.8,10.4,36.3,25,48.2c28.5,29.5,75.5,30.2,105,1.7s30.2-75.5,1.7-105C133.3,28.2,130.9,26.1,128.4,24.1L128.4,24.1z"/>
</g>
</svg>
