<?xml version="1.0" encoding="utf-8"?>
<!-- Generator: Adobe Illustrator 25.2.3, SVG Export Plug-In . SVG Version: 6.00 Build 0)  -->
<svg version="1.1" id="Layer_1" xmlns="http://www.w3.org/2000/svg" xmlns:xlink="http://www.w3.org/1999/xlink" x="0px" y="0px"
	 viewBox="0 0 160 160" style="enable-background:new 0 0 160 160;" xml:space="preserve">
<style type="text/css">
	.st0{opacity:0.3;enable-background:new    ;}
	.st1{opacity:0.91;fill:url(#SVGID_1_);enable-background:new    ;}
	.st2{clip-path:url(#SVGID_3_);}
	.st3{fill:#8CACC3;}
	.st4{fill:#C1E9F4;}
	.st5{fill:#E86A4D;}
	.st6{fill:#DB5B46;}
	.st7{fill:#6D2C21;}
	.st8{opacity:0.3;}
	.st9{fill:#983B39;stroke:#EF9595;stroke-width:0.5;stroke-miterlimit:10;}
	.st10{fill:#E0E5DF;}
	.st11{fill:#983B39;}
	.st12{fill:#3F493F;}
	.st13{fill-rule:evenodd;clip-rule:evenodd;fill:#F4EDEE;}
	.st14{fill-rule:evenodd;clip-rule:evenodd;fill:#C0CACE;}
	.st15{fill:#A6A8AB;}
	.st16{fill-rule:evenodd;clip-rule:evenodd;fill:#808184;}
	.st17{fill-rule:evenodd;clip-rule:evenodd;fill:#231F20;}
	.st18{fill-rule:evenodd;clip-rule:evenodd;fill:#6D6E70;}
	.st19{fill-rule:evenodd;clip-rule:evenodd;fill:#626366;}
	.st20{fill-rule:evenodd;clip-rule:evenodd;fill:#58595B;}
	.st21{fill-rule:evenodd;clip-rule:evenodd;fill:#4D4D4F;}
	.st22{fill-rule:evenodd;clip-rule:evenodd;fill:#404041;}
	.st23{fill:#FFFFFF;}
	.st24{fill:#BBBDBF;}
	.st25{fill:#E6E7E8;}
	.st26{fill:#8C8C8C;}
	.st27{fill-rule:evenodd;clip-rule:evenodd;fill:#AAAAAA;}
	.st28{fill-rule:evenodd;clip-rule:evenodd;fill:#7C7C7C;}
	.st29{fill-rule:evenodd;clip-rule:evenodd;fill:#C9C9C9;}
	.st30{fill-rule:evenodd;clip-rule:evenodd;fill:#333333;}
	.st31{fill-rule:evenodd;clip-rule:evenodd;fill:#5E5D5E;}
	.st32{fill:#E52940;}
	.st33{fill-rule:evenodd;clip-rule:evenodd;fill:#F24E71;}
	.st34{fill-rule:evenodd;clip-rule:evenodd;fill:#D12845;}
	.st35{fill-rule:evenodd;clip-rule:evenodd;fill:#E57089;}
	.st36{fill-rule:evenodd;clip-rule:evenodd;fill:#8E1730;}
	.st37{fill-rule:evenodd;clip-rule:evenodd;fill:#BA243D;}
	.st38{opacity:0.2;fill:#2A4F51;enable-background:new    ;}
	.st39{fill:#F9D1C6;stroke:#F4C7BD;stroke-width:0.25;stroke-miterlimit:10;}
	.st40{fill:#E02D2D;}
	.st41{fill:#F74646;}
	.st42{fill:#E5E4CF;}
	.st43{fill:#FFFEF3;}
	.st44{fill:#E8BAB1;}
	.st45{fill:#FF635F;}
	.st46{fill:#F9D1C6;}
	.st47{fill:#FAA181;}
	.st48{fill:#F4C7BD;}
	.st49{fill:#FFDBBB;}
	.st50{fill:#381A12;}
	.st51{fill:#FFAD8D;}
	.st52{fill:#CE6C4E;}
	.st53{fill:#DB9D8E;}
	.st54{fill:#A02727;}
	.st55{fill:#631111;}
	.st56{fill:#E2D0D0;}
	.st57{fill:#F27F7C;}
	.st58{fill:#E8524A;}
	.st59{fill:#C13A36;}
	.st60{fill:#F2E2E2;}
	.st61{fill:#342517;}
	.st62{fill:#F9D1C6;stroke:#CEA6A1;stroke-width:0.5;stroke-miterlimit:10;}
	.st63{fill:#D1F2F2;}
	.st64{fill:#A2CCCC;}
	.st65{fill:#007982;}
	.st66{opacity:0.8;fill:#C3DCDD;enable-background:new    ;}
	.st67{fill:#77C6C4;}
	.st68{opacity:0.5;fill:#FFFFFF;enable-background:new    ;}
	.st69{fill:#D3A7A3;}
	.st70{fill:none;stroke:#D3A7A3;stroke-width:0.5;stroke-miterlimit:10;}
	.st71{fill:#F9F8F7;stroke:#7F430D;stroke-width:0.75;stroke-miterlimit:10;}
	.st72{fill:#342516;}
	.st73{fill:#FDEFEC;}
	.st74{fill:#51290F;}
	.st75{fill:#8E4F24;}
	.st76{fill:#E9F1F4;}
	.st77{fill:#BCDBED;}
	.st78{fill:#CFE0E5;}
	.st79{fill:#F5FDFF;}
	.st80{fill:#CFEFFF;}
	.st81{fill:#ABCDDD;}
	.st82{opacity:0.2;fill:url(#SVGID_4_);enable-background:new    ;}
	.st83{opacity:0.5;fill:#4ECECE;enable-background:new    ;}
	.st84{opacity:0.6;fill:#FDFFFF;enable-background:new    ;}
	.st85{opacity:0.6;}
</style>
<circle class="st0" cx="82.5" cy="82" r="74"/>
<g id="_01-4">
	
		<radialGradient id="SVGID_1_" cx="123.8791" cy="323.4875" r="80.2466" gradientTransform="matrix(1.07 0 0 -1.07 -55.05 422.92)" gradientUnits="userSpaceOnUse">
		<stop  offset="0" style="stop-color:#FFFFFF"/>
		<stop  offset="0.61" style="stop-color:#D3F9FC"/>
		<stop  offset="0.93" style="stop-color:#48E5FF"/>
	</radialGradient>
	<path class="st1" d="M151.5,77.4c0.2,40.9-32.8,74.1-73.7,74.3C36.9,151.9,3.7,118.9,3.5,78S36.3,3.9,77.2,3.7c0.1,0,0.2,0,0.3,0
		C118.3,3.6,151.4,36.6,151.5,77.4C151.5,77.4,151.5,77.4,151.5,77.4z"/>
	<g>
		<defs>
			<ellipse id="SVGID_2_" cx="77.7" cy="76.6" rx="73.9" ry="73.5"/>
		</defs>
		<clipPath id="SVGID_3_">
			<use xlink:href="#SVGID_2_"  style="overflow:visible;"/>
		</clipPath>
		<g class="st2">
			<path class="st3" d="M-65.8-1.5v180.1L9.8,120V-1.5H-65.8z M-24.1,81.3L-39,89.1V20.8l14.9-0.1L-24.1,81.3z"/>
			<rect x="9.8" y="-1.3" class="st4" width="195.8" height="125.9"/>
			<polygon class="st5" points="147.9,131.8 -2.6,129.5 -2.8,84.5 148.2,87.7 			"/>
			<polygon class="st6" points="148,87 151.9,76.1 152.2,124.8 147.9,131.8 			"/>
			<polygon class="st6" points="146.2,130.1 98.8,130.1 98.8,88.8 146.2,88.7 			"/>
			<polygon class="st6" points="96.6,130.1 83.4,130.1 83.4,88.8 97,88.8 			"/>
			<polygon class="st6" points="81.2,130.1 67.8,130.1 68,88.8 81.6,88.8 			"/>
			<rect x="36.2" y="95.5" class="st7" width="1.3" height="7.7"/>
			<rect x="36.2" y="114.9" class="st7" width="1.3" height="7.7"/>
			<polygon class="st6" points="65.3,130.1 36.7,129.4 36.7,88.3 65.3,88.7 			"/>
			<g class="st8">
				<path d="M62.5,102.7h0.6c0.2,0,0.4,0.3,0.4,0.6v8.8c0,0.3-0.2,0.6-0.5,0.6h-0.6c-0.3,0-0.5-0.3-0.5-0.6v-8.8
					C62.1,102.9,62.3,102.6,62.5,102.7z"/>
			</g>
			<path class="st9" d="M62.8,102.2h0.6c0.2,0,0.4,0.3,0.4,0.7v8.8c0,0.3-0.2,0.6-0.5,0.6h-0.5c-0.3,0-0.5-0.3-0.5-0.6v-8.8
				C62.4,102.4,62.6,102.2,62.8,102.2z"/>
			<g class="st8">
				<path d="M71.3,91.6v-0.6c0-0.2,0.2-0.4,0.5-0.4h6.4c0.2,0,0.4,0.2,0.4,0.4v0.5c0,0.2-0.2,0.4-0.4,0.4h-6.4
					C71.5,92.1,71.3,91.9,71.3,91.6z"/>
			</g>
			<path class="st9" d="M70.9,91.4v-0.6c0-0.2,0.2-0.4,0.5-0.4h6.4c0.2,0,0.4,0.2,0.4,0.4v0.5c0,0.2-0.2,0.4-0.4,0.4h-6.5
				C71.1,91.8,70.9,91.6,70.9,91.4C70.9,91.4,70.9,91.4,70.9,91.4z"/>
			<g class="st8">
				<path d="M86.9,91.6v-0.6c0-0.2,0.2-0.4,0.5-0.4h6.4c0.2,0,0.4,0.2,0.4,0.4v0.5c0,0.2-0.2,0.4-0.4,0.4h-6.4
					C87.1,92.1,86.9,91.9,86.9,91.6z"/>
			</g>
			<path class="st9" d="M86.6,91.4v-0.6c0-0.2,0.2-0.4,0.5-0.4h6.4c0.2,0,0.4,0.2,0.4,0.4v0.5c0,0.2-0.2,0.4-0.4,0.4H87
				C86.8,91.8,86.6,91.6,86.6,91.4z"/>
			<polygon class="st10" points="-3.3,84.7 9.9,74.8 154.8,74.8 148.3,86.1 			"/>
			<path class="st11" d="M149.2,87.5c0,0.5-0.3,0.9-0.7,0.9L-3.2,88.5C-3.6,88.5-4,88-4,87.3l0.1-1.5c0-0.6,0.4-1.1,0.9-1.1
				l151.7-0.1c0.4,0,0.6,0.5,0.6,1L149.2,87.5z"/>
			<rect x="103.5" y="124.3" class="st12" width="29.4" height="7.5"/>
			<polygon class="st13" points="135.9,77.7 110.1,77.7 102.7,84.6 133.6,84.6 			"/>
			<polygon class="st14" points="133.6,125.9 102.7,125.5 102.7,84.6 133.6,84.6 			"/>
			<rect x="102.7" y="93.1" class="st15" width="30.9" height="2.1"/>
			<path class="st16" d="M113.3,81.3c-0.9-0.1-1.9-0.1-2.8-0.1c-0.7,0.2-0.5,0.7-0.5,1c0,0.5,1.5,0.9,3.3,0.9s3.3-0.4,3.3-0.9
				c0-0.2,0.1-0.8-0.3-0.9C115.3,81.1,114.3,81.2,113.3,81.3z"/>
			<path class="st17" d="M113.3,82.3c-1.7,0-3.1-0.4-3.1-0.9s1.4-0.9,3.1-0.9s3.1,0.4,3.1,0.9S115,82.3,113.3,82.3z"/>
			<path class="st16" d="M125.4,81.2c-1-0.1-1.9-0.2-2.9-0.1c-0.7,0.2-0.5,0.8-0.5,1c0,0.5,1.5,0.9,3.4,0.9s3.4-0.4,3.4-0.9
				c0-0.2,0.1-0.8-0.3-1C127.5,81,126.5,81,125.4,81.2z"/>
			<path class="st17" d="M125.4,82.3c-1.8,0-3.3-0.4-3.3-0.9s1.5-0.9,3.3-0.9s3.3,0.4,3.3,0.9S127.2,82.3,125.4,82.3z"/>
			<path class="st16" d="M115.7,78.3c-0.9-0.1-1.9-0.1-2.8-0.1c-0.7,0.2-0.5,0.7-0.5,1c0,0.5,1.5,0.9,3.3,0.9s3.3-0.4,3.3-0.9
				c0-0.2,0.1-0.8-0.3-0.9C117.6,78.2,116.7,78.2,115.7,78.3z"/>
			<path class="st17" d="M115.7,79.4c-1.7,0-3.1-0.4-3.1-0.9s1.4-0.9,3.1-0.9s3.1,0.4,3.1,0.9S117.4,79.4,115.7,79.4z"/>
			<path class="st16" d="M127.4,78.5c-0.9-0.1-1.9-0.1-2.8-0.1c-0.7,0.2-0.5,0.7-0.5,1c0,0.5,1.5,0.9,3.3,0.9s3.3-0.4,3.3-0.9
				c0-0.2,0.1-0.8-0.3-0.9C129.4,78.3,128.4,78.4,127.4,78.5z"/>
			<path class="st17" d="M127.4,79.5c-1.7,0-3.1-0.4-3.1-0.9s1.4-0.9,3.1-0.9s3.1,0.4,3.1,0.9S129.2,79.5,127.4,79.5z"/>
			<path class="st18" d="M111.1,78.5v-0.7c0-0.3,0.1-0.6,0.3-0.8c0.2-0.2,0.4-0.6,0.7-0.6h21.9c0.3,0,0.5,0.3,0.6,0.6
				c0.2,0.2,0.3,0.5,0.3,0.8v0.7h0.5v-0.7c0-0.5-0.1-0.9-0.4-1.3c-0.2-0.3-0.6-0.5-1-0.5H112c-0.4,0-0.8,0.2-1,0.5
				c-0.3,0.4-0.4,0.8-0.4,1.3v0.7H111.1z"/>
			<path class="st19" d="M109.6,79.8v-0.8c0-0.3,0.1-0.6,0.3-0.9c0.2-0.2,0.4-0.6,0.7-0.6h22.6c0.3,0,0.5,0.4,0.7,0.6
				c0.2,0.3,0.3,0.6,0.3,0.9v0.8h0.5v-0.8c0-0.5-0.1-1-0.4-1.4c-0.2-0.3-0.6-0.6-1.1-0.6h-22.6c-0.4,0-0.8,0.2-1.1,0.6
				c-0.3,0.4-0.4,0.9-0.4,1.4v0.8H109.6z"/>
			<path class="st20" d="M108.2,81.2v-0.8c0-0.4,0.1-0.7,0.3-1c0.2-0.3,0.5-0.7,0.7-0.7h23.3c0.3,0,0.5,0.5,0.7,0.7
				c0.2,0.3,0.3,0.6,0.3,1v0.8h0.5v-0.8c0-0.5-0.2-1.1-0.4-1.5c-0.2-0.4-0.6-0.6-1.1-0.6h-23.2c-0.4,0-0.8,0.3-1.1,0.6
				c-0.3,0.4-0.5,1-0.4,1.5v0.8H108.2z"/>
			<path class="st21" d="M106.8,82.6v-0.9c0-0.4,0.1-0.8,0.3-1.1c0.2-0.3,0.5-0.8,0.8-0.8h24c0.3,0,0.5,0.5,0.7,0.8
				c0.2,0.3,0.3,0.7,0.3,1.1v0.9h0.5v-0.9c0-0.6-0.2-1.1-0.5-1.6c-0.2-0.4-0.7-0.7-1.1-0.7h-24c-0.5,0-0.9,0.3-1.1,0.7
				c-0.3,0.5-0.5,1.1-0.5,1.6v0.9H106.8z"/>
			<path class="st22" d="M105.4,84v-1c0-0.4,0.1-0.8,0.3-1.2c0.2-0.3,0.5-0.9,0.8-0.9h24.7c0.3,0,0.5,0.6,0.7,0.9
				c0.2,0.4,0.3,0.8,0.3,1.2v1h0.5v-1c0-0.6-0.2-1.2-0.5-1.8c-0.2-0.4-0.7-0.7-1.1-0.7h-24.7c-0.5,0-0.9,0.3-1.1,0.7
				c-0.3,0.5-0.5,1.1-0.5,1.8v1H105.4z"/>
			<polygon class="st18" points="128.3,98.6 108,98.6 105.8,101.3 105.8,111.8 108,114.5 128.3,114.5 130.5,111.8 130.5,101.3 			
				"/>
			<rect x="101.6" y="94.4" class="st15" width="30.9" height="2.1"/>
			<polygon class="st18" points="132.5,94.4 101.6,94.4 102.8,93.2 104.8,93.2 104.3,93.7 130,93.7 130.5,93.2 133.7,93.2 			"/>
			<polygon class="st20" points="132.5,94.4 133.6,93.2 133.6,95.3 132.5,96.5 			"/>
			<rect x="101.6" y="94.4" class="st23" width="30.9" height="0.5"/>
			<rect x="102.7" y="92.4" class="st24" width="30.9" height="0.7"/>
			<rect x="102.7" y="84.6" class="st25" width="30.9" height="0.9"/>
			<ellipse class="st26" cx="107.5" cy="88.6" rx="1.8" ry="2.3"/>
			<path class="st27" d="M109.3,88.6c0,1.3-0.8,2.3-1.7,2.3h-0.1c1.3-0.4,2-1.8,1.5-3.1c-0.2-0.7-0.8-1.3-1.5-1.5h0.1
				C108.6,86.3,109.3,87.3,109.3,88.6z"/>
			<path class="st28" d="M107.5,90.9L107.5,90.9c-1.1,0-1.8-1-1.8-2.3s0.8-2.3,1.7-2.3h0.1c-1.3,0.4-2,1.8-1.5,3.1
				C106.2,90.1,106.8,90.7,107.5,90.9z"/>
			<path class="st29" d="M107.5,89.2c-0.2,0-0.4-0.7-0.4-1.6s0.2-1.6,0.4-1.6s0.4,0.7,0.4,1.6S107.8,89.2,107.5,89.2z"/>
			<path class="st30" d="M107.5,89c-0.2,0-0.4-0.7-0.4-1.6s0.2-1.6,0.4-1.6s0.4,0.7,0.4,1.6S107.8,89,107.5,89z"/>
			<path class="st31" d="M107.5,89.1c-0.2,0-0.4-0.7-0.4-1.6s0.2-1.6,0.4-1.6s0.4,0.7,0.4,1.6S107.8,89.1,107.5,89.1z"/>
			<ellipse class="st26" cx="112.1" cy="88.6" rx="1.8" ry="2.3"/>
			<path class="st27" d="M114,88.6c0,1.3-0.8,2.3-1.8,2.3h-0.1c1.3-0.4,2-1.8,1.5-3.1c-0.2-0.7-0.8-1.3-1.5-1.5h0.1
				C113.2,86.3,114,87.3,114,88.6z"/>
			<path class="st28" d="M112.1,90.9H112c-1,0-1.8-1-1.8-2.3s0.8-2.3,1.8-2.3h0.1c-1.3,0.4-2,1.8-1.5,3.1
				C110.8,90.1,111.4,90.7,112.1,90.9L112.1,90.9z"/>
			<path class="st29" d="M112.1,89.2c-0.2,0-0.4-0.7-0.4-1.6s0.2-1.6,0.4-1.6s0.4,0.7,0.4,1.6S112.3,89.2,112.1,89.2z"/>
			<path class="st30" d="M112.1,89c-0.2,0-0.4-0.7-0.4-1.6s0.2-1.6,0.4-1.6s0.4,0.7,0.4,1.6S112.3,89,112.1,89z"/>
			<path class="st31" d="M112.1,89.1c-0.2,0-0.4-0.7-0.4-1.6s0.2-1.6,0.4-1.6s0.4,0.7,0.4,1.6S112.3,89.1,112.1,89.1z"/>
			<ellipse class="st26" cx="116.7" cy="88.6" rx="1.8" ry="2.3"/>
			<path class="st27" d="M118.6,88.6c0,1.3-0.8,2.3-1.8,2.3h-0.1c1.3-0.4,2-1.8,1.5-3.1c-0.2-0.7-0.8-1.3-1.5-1.5h0.1
				C117.8,86.3,118.6,87.3,118.6,88.6z"/>
			<path class="st28" d="M116.7,90.9L116.7,90.9c-1.1,0-1.8-1-1.8-2.3s0.8-2.3,1.8-2.3h0.1c-1.3,0.4-2,1.8-1.5,3.1
				C115.4,90.1,116,90.7,116.7,90.9z"/>
			<path class="st29" d="M116.7,89.2c-0.2,0-0.4-0.7-0.4-1.6s0.2-1.6,0.4-1.6s0.4,0.7,0.4,1.6S117,89.2,116.7,89.2z"/>
			<path class="st30" d="M116.7,89c-0.2,0-0.4-0.7-0.4-1.6s0.2-1.6,0.4-1.6s0.4,0.7,0.4,1.6S117,89,116.7,89z"/>
			<path class="st31" d="M116.7,89.1c-0.2,0-0.4-0.7-0.4-1.6s0.2-1.6,0.4-1.6s0.4,0.7,0.4,1.6S117,89.1,116.7,89.1z"/>
			<ellipse class="st26" cx="121.3" cy="88.6" rx="1.8" ry="2.3"/>
			<path class="st27" d="M123.1,88.6c0,1.3-0.8,2.3-1.7,2.3h-0.1c1.3-0.4,2-1.8,1.5-3.1c-0.2-0.7-0.8-1.3-1.5-1.5h0.1
				C122.4,86.3,123.1,87.3,123.1,88.6z"/>
			<path class="st28" d="M121.3,90.9L121.3,90.9c-1.1,0-1.8-1-1.8-2.3s0.8-2.3,1.8-2.3h0.1c-1.3,0.4-2,1.8-1.5,3.1
				C120,90.1,120.6,90.7,121.3,90.9z"/>
			<path class="st29" d="M121.3,89.2c-0.2,0-0.4-0.7-0.4-1.6s0.2-1.6,0.4-1.6s0.4,0.7,0.4,1.6S121.5,89.2,121.3,89.2z"/>
			<path class="st30" d="M121.3,89c-0.2,0-0.4-0.7-0.4-1.6s0.2-1.6,0.4-1.6s0.4,0.7,0.4,1.6S121.5,89,121.3,89z"/>
			<path class="st31" d="M121.3,89.1c-0.2,0-0.4-0.7-0.4-1.6s0.2-1.6,0.4-1.6s0.4,0.7,0.4,1.6S121.5,89.1,121.3,89.1z"/>
			<ellipse class="st32" cx="129.6" cy="88.7" rx="1.8" ry="2.3"/>
			<path class="st33" d="M131.5,88.7c0,1.3-0.8,2.3-1.8,2.3h-0.1c1.3-0.4,2-1.8,1.5-3.1c-0.2-0.7-0.8-1.3-1.5-1.5h0.1
				C130.7,86.4,131.5,87.4,131.5,88.7z"/>
			<path class="st34" d="M129.6,91.1L129.6,91.1c-1.1,0-1.8-1-1.8-2.3s0.8-2.3,1.8-2.3h0.1c-1.3,0.4-2,1.8-1.5,3.1
				C128.3,90.2,128.9,90.8,129.6,91.1z"/>
			<path class="st35" d="M129.6,89.3c-0.2,0-0.4-0.7-0.4-1.6s0.2-1.6,0.4-1.6s0.4,0.7,0.4,1.6S129.9,89.3,129.6,89.3z"/>
			<path class="st36" d="M129.6,89.1c-0.2,0-0.4-0.7-0.4-1.6s0.2-1.6,0.4-1.6s0.4,0.7,0.4,1.6S129.9,89.1,129.6,89.1z"/>
			<path class="st37" d="M129.6,89.3c-0.2,0-0.4-0.7-0.4-1.6s0.2-1.6,0.4-1.6s0.4,0.7,0.4,1.6S129.9,89.3,129.6,89.3z"/>
			<g class="st8">
				<path d="M135.5,91.6v-0.6c0-0.2,0.2-0.4,0.5-0.4h6.4c0.2,0,0.4,0.2,0.4,0.4v0.5c0,0.2-0.2,0.4-0.4,0.4H136
					C135.8,92.1,135.5,91.9,135.5,91.6C135.5,91.7,135.5,91.7,135.5,91.6z"/>
			</g>
			<path class="st9" d="M135.2,91.4v-0.6c0-0.2,0.2-0.4,0.5-0.4h6.4c0.2,0,0.4,0.2,0.4,0.4c0,0,0,0,0,0v0.5c0,0.2-0.2,0.4-0.4,0.4
				h-6.5C135.4,91.8,135.2,91.6,135.2,91.4z"/>
			<rect x="0.6" y="95.5" class="st7" width="1.5" height="7.7"/>
			<rect x="0.6" y="114.9" class="st7" width="1.5" height="7.7"/>
			<polygon class="st6" points="33.8,130.1 1.2,129.4 1.2,88.5 33.8,88.7 			"/>
			<g class="st8">
				<path d="M30.5,102.7h0.7c0.3,0,0.5,0.3,0.5,0.6v8.8c0,0.3-0.2,0.6-0.5,0.6h-0.7c-0.3,0-0.6-0.3-0.5-0.6v-8.8
					C30,102.9,30.2,102.7,30.5,102.7z"/>
			</g>
			<path class="st9" d="M30.9,102.2h0.7c0.3,0.1,0.5,0.3,0.5,0.7v8.8c0,0.3-0.2,0.6-0.5,0.6h-0.7c-0.3,0-0.6-0.3-0.5-0.6
				c0,0,0,0,0,0v-8.8C30.3,102.5,30.6,102.2,30.9,102.2z"/>
			<path class="st38" d="M-65.7,107.6c0,0,23.6-139.9,75.2-49.6c0,0,88.9-84.7,196.2-1.8V-1.6H-65.8L-65.7,107.6z"/>
			<path class="st39" d="M95.5,93.6c7.4,3.7,12,7.1,15.6,11.8s2.5,9.1-0.1,10.3c-4.5,2.1-14.6,0.7-22.5-9.3"/>
			<path class="st40" d="M92.2,87.1c2.2,1.3,4.2,2.9,6.1,4.6c1.8,1.4,3.4,2.9,4.9,4.6c0.8,1.1-0.2,1.2-4,4.4
				c-6.5,5.5-6.9,11.5-8.4,11.5s-5.1-3.7-7.2-5.2"/>
			<path class="st41" d="M84.4,86.1c1.8-1.2,8,0.9,12,4.9s5.8,4.9,6.2,5.8s-1.6,1-5.3,4.7s-4.1,5.8-4.9,6.1s-7.1-4.9-9.7-9.5
				C81.3,94.3,80.3,88.9,84.4,86.1z"/>
			<path class="st42" d="M102.5,95.3c1.1-0.5,1.8,1.6,2.7,2.3s1.5,1.8,0.7,2.1c-2.7,0.1-5.9,2.9-7.9,8.2c-2.1,5.5-1,7.8-2.3,8.2
				s-5.2-1.9-5.2-3S92.8,98.1,102.5,95.3z"/>
			<path class="st43" d="M102.2,95.8c1.4-0.3,1.8,1.5,2.4,1.9s0.8,1.1-0.8,1.6s-6,3.7-7.4,10.1c-0.6,1.1-3.9,1-3.9-1.5
				S96.9,96.9,102.2,95.8z"/>
			<path class="st44" d="M54.4,75.2c3.7,2.1,5.4,9.9,1.3,11.6c-4.9,2.3-2.9,8,10.5,7.7s13.7-7.7,8.9-9.5c-4.1-1.5-3.6-9.4-1.9-10.8"
				/>
			<path class="st40" d="M91.5,103.4c0.3,3.7,0.8,15,1.8,24.1c0.7,6.8,2.4,17.7,2.9,23.2c0.2,1.9,0.8,3.9,0.6,4.5
				c-0.9,2.1-6,6.3-19.7,6.2s-26.9-6.7-29.8-5.5c-3.3,1.3,0.6-11.8-0.4-21.7c-0.1-1.5-3.3-18.3-4.9-22.9
				c-1.9-10.6,0.1-15.1,2.3-18.4c1.3-2,5.4-3.9,8.2-4.9c1.3-0.9,2.8-1.5,4.3-1.6c1.9,0.1,2.5,3.8,8.2,4.2c6.2,0.4,9-2.9,8.9-6.3
				c0.4-0.6,3.3-0.6,4.7-0.2c3.9,0.1,7.6,0.2,9.2,1.1"/>
			<path class="st41" d="M61.1,157.8c13.6,5.5,31.3,3.1,34.7-2.2c0.6-0.8,0.6-2.9-0.5-2.9c-6.6,7.8-25.5,6.8-34.8,2.2
				c-4.2-1.7-6.9-2.7-8.2-2.5s-1.2,2.3,0.5,2.6C55.7,155.6,58.5,156.5,61.1,157.8z"/>
			<path class="st41" d="M53.5,89.1c-1.4-0.1-6.6,1.9-7.2,3.2c-0.7,4.8,6.5,29.3,8.2,33c2.2,5,5.7,12.5,9.3,17.3
				c-0.9,1.1-5-4.5-6.8-6.7c-0.4,4.6-0.3,8.8-2.8,15.3c6.8,2.5,12.7,6.6,25,6.3s15.8-4.7,16.2-5.8c-0.4-4.2-2.9-23.3-3.7-29.5
				c-0.4-3.9-0.2-14.2-1-23.1c-0.5-6.2-2.7-11-1.6-12.8c-2.9-2.6-9.9-1.4-9.9-1.4c0.4,5-1.9,8.7-8.8,10.7
				C64.1,97.3,56.2,94.7,53.5,89.1z"/>
			<path class="st43" d="M71.1,112.7c-1.5-2.1-4.2-2.9-6.6-1.9c-3,1.3-2.1,13.1,1.7,15.4c1.8,1.2,4.2,0.8,5.5-1
				c0.5-0.7,0.7-1.6,0.7-2.5c-0.4-2-2.7-4-3.1-3.1s-0.4,2.9-2.2,3s-3.9-7.6-1-9s2.3,1.5,3.3,1.7S72,113.9,71.1,112.7z"/>
			<path class="st43" d="M74.3,112.8c-2.2-0.5-3.8,2.9-2.9,6.3c0.6,2.5,2,4.7,4.1,3.9C78.5,121.9,79.6,114.1,74.3,112.8z
				 M73.9,119.4c-1.3-1.7-0.1-4.4,1.4-4.3c1.3,0.1,2.1,2,1.4,4c-0.3,0.8-1.2,1.2-2.1,0.9C74.3,119.9,74,119.7,73.9,119.4z"/>
			<path class="st43" d="M78.8,124.7c3,1.7,5.8-1.2,6.1-5.8c0.3-4-3.4-7.3-5.7-6.3c-2.2,1-1.8,3.2-1.6,5.3
				C77.8,121.4,76.8,123.6,78.8,124.7z M79.5,122.1c-0.5-0.9-0.5-5,0.3-5.2c1.6-0.4,3.1,1,2.5,3.9C82,122,80.3,123.5,79.5,122.1z"/>
			<path class="st43" d="M82.3,109.9c-0.1,1.1,2.2,2.2,2.9,7.3c0.5,3.3-0.7,5.3-0.1,6s4.3,0.2,5.4-1.2s1.2-5.4,0.3-5.7
				s-0.8,1.7-1.2,2.6s-2.3,2-2.7,1s0.9-8.2-0.2-9.7S82.4,109.2,82.3,109.9z"/>
			<path class="st43" d="M73,131.7c0.7-0.3,3.7-0.3,4,0.3s0.8,2.3,0,3s-3.4,1.1-3.9-0.2S72.5,131.9,73,131.7z"/>
			<path class="st43" d="M78.6,131.6c-0.2,0.6,0.1,2.9,0.7,3.4s4-0.6,4.2-1.7s0.2-3-0.9-3S78.9,130.8,78.6,131.6z"/>
			<path class="st43" d="M67,128c2.7,5.2,17.1,3.7,21.1-3.4c1.9,0.2,2.6-1.1,0.9-1.8s-2.2,0.6-2.1,1.5s-3,4.6-10.3,5.6
				s-9.2-1.6-9-2.4s0.2-3.1-1.9-1.4S66.2,128.5,67,128z"/>
			<path class="st41" d="M57.7,87.1c-0.5-0.6-3.8,0.3-3.7,1.6c0.1,2,4.7,7.8,15.4,6.1c10-1.6,9.7-9.1,8.9-9.9s-4.1-0.8-4.2,0
				c-0.1,1,0.2,5-6.1,5.9C61.6,91.7,59.7,89.3,57.7,87.1z"/>
			<path class="st45" d="M74.7,85.5c-0.2,6.8-13.2,7.9-17.5,1.6c-3-0.4-0.4,5.7,7.5,7.2c6.4,1.2,10.7-1.5,11.7-4.3
				C77.7,85.8,74.7,83.8,74.7,85.5z"/>
			<path class="st46" d="M87,46.6c1.3-0.2,3.8-4.6,7.2-2.5c2.1,1.3,1.2,10.2-4.2,11.4c-2.2,0.5-3.7-2.7-3.7-2.8"/>
			<path class="st47" d="M89.2,50.7c0.1-3.4,3.1-4.9,4.4-5.4c-1.8,2.3-2.5,8-2.1,9"/>
			<path class="st48" d="M70.2,81.1c-8.3-0.1-16.4-2.8-23.3-7.6c-7.2-5.1-11.6-11.7-12.6-18.8c-1.4-10.1,0.8-18.7,6.2-25
				s13.6-9.6,22.6-9.6c8.2,0,15.6,3,20,8.1c6.9,7.1,8.3,17.5,9,22.5c0.1,0.9,0.2,1.5,0.3,2c1.4,6.6,0.1,13.4-3.8,18.9
				c-3.5,5-8.9,8.5-14,9.1C73.1,81,71.7,81.1,70.2,81.1z"/>
			<path class="st46" d="M41.8,61.5c-2.1-1.1-9.3-5.2-12-1.1c-2,3.2,4.3,11.2,9.9,10.9c2.9-0.2,3.6-4.1,3.6-4.3"/>
			<path class="st46" d="M46.4,49.4c0.1,11,9.7,32.8,30.8,29.1c9.4-1.7,17.7-15.2,14.2-28.1c-1.1-3.9-1.1-8-4.7-14.7
				c-1.8-1.1-4.1-2.4-4.1-2.4c1.2,1.6,0.2,4.5-1.2,4.6c-2.1,0.2-6.5-1.5-8.5-3.6c0.7,3.1,0.2,5.6-1.9,6.7c-3.8,1.9-15.2-4-18.3-4.6
				C48.6,38.9,46.4,46.1,46.4,49.4z"/>
			<path class="st49" d="M74,56.4c0.4-1,1.9-0.9,1.5,0.6S73.5,57.7,74,56.4z"/>
			<path class="st50" d="M56.7,40.2c1.3-0.6,4.7,0.6,4.8,1.4s-4.5,0.1-9.8,5.3C51.4,44.6,55.4,40.8,56.7,40.2z"/>
			<path class="st51" d="M76.8,57.8c1.1,0.2,1.2,0.7,2.4,0.9c1.6,0.3,0.7,1.5-0.9,1.8c-1.6,0.4-3.3,0.7-4.9,0.8
				c-1.6,0.1-1.3-1.2-0.1-1.8C74.2,59.2,75.4,57.6,76.8,57.8z"/>
			<path class="st52" d="M77.8,59.3c0.2-0.4,2-0.3,1.9,0.1C79.5,60,77.4,60.1,77.8,59.3z"/>
			<path class="st51" d="M71.6,57.7c-1.5,1.3-1.3,3.8,1.4,3.6c0.9,0-0.2-0.7-0.2-0.7C71.5,60.3,71.3,59.6,71.6,57.7z"/>
			<path class="st52" d="M74.6,59.9c-0.4-0.3-2.2,0.5-1.9,0.8C73.1,61.3,75.2,60.4,74.6,59.9z"/>
			<path class="st53" d="M39.7,64.2c-4-3-7.9-3-9-1.1c2.4,0.1,6.9,1.6,7.3,2.8c-1,1.8,1.4,2.7,2.4,2.4
				C37.3,66.7,39.7,64.2,39.7,64.2z"/>
			<path class="st47" d="M65.6,65.8c-1.3,1.4,0.7,2.1,2.8,1.3C67.4,66.7,67.1,64.2,65.6,65.8z"/>
			<path class="st47" d="M86.7,61.5c1.3,1.4,0.1,2-2.1,1.6C85.5,62.6,85.5,60.3,86.7,61.5z"/>
			<path class="st54" d="M85.1,63.1c0.3,0-0.4,1.4-1.5,4.1c-0.7,1.4-1.8,2.5-3.3,3c-3,1.4-6.7,1.2-8.7-0.3c-1.4-1.1-3-2.1-4.6-3
				c-0.3-0.1,0.3,0,0.6-0.2C71.5,65.3,78.1,65.7,85.1,63.1z"/>
			<path class="st55" d="M81.1,65.1c0.8,1.3-3.4,5.9-6.8,5.2s-4.9-3.4-4.5-4.2C71.6,66.1,80.4,64,81.1,65.1z"/>
			<path class="st56" d="M82.7,63.7c0,1.2-1.2,2.7-5.1,3.4c-4.7,0.8-6.1,0.3-8-0.5C73.1,65.5,78.6,64.7,82.7,63.7z"/>
			<path class="st57" d="M78.4,70.3c-3,0.7-6.1,0.1-8.6-1.7c1.8,1.6,4.8,4.1,8.6,3.3s5.6-4.4,6-6.5C83.8,66.3,81.6,69.6,78.4,70.3z"
				/>
			<path class="st58" d="M78.8,63.8c-1.2,0.8-1.1,0.1-3.1,0.5c-1.5,0.3-5,1.8-8.1,2.2c3,0.4,6.8-0.3,10.5-0.9c2.4-0.4,4.8-1.3,7-2.4
				C82.7,63.7,80.3,62.8,78.8,63.8z"/>
			<path class="st59" d="M66.2,66.1c-0.7,1,2,1.1,3.6,0.6c-0.9,0-1.8-0.1-2.6-0.3C66.5,66,66.5,65.8,66.2,66.1z"/>
			<path class="st59" d="M83.5,63.9c1-0.5,1.8-0.8,2-1.5c0.2-0.4,0.4-0.7,0.6-0.4c0.6,0.8-0.7,0.7-1.7,2.4"/>
			<path class="st60" d="M82,64.7c0.2,1.6-7.5,3.7-9.7,1.9C75.1,66.9,80.9,65.3,82,64.7z"/>
			<path class="st50" d="M78.8,36c-1.1,0.2-2.9,4-1.9,3.6c4.6-1.9,7.5-0.1,7.7-0.6C84.8,37.8,80.2,35.7,78.8,36z"/>
			<path class="st61" d="M32,46.6c-1.3,4.6-1.7,9.6,1.6,12c3.9,0.4,7.4,2.5,9.5,5.8c1,0.4,2.2,0.2,3.1-0.4
				c-3.7-6.5-5.5-19.4,0.1-25.2c-2.7,0.9-6.7,6.2-6.7,10.3"/>
			<path class="st61" d="M66.2,27.2c3.9,1.1,4.4,8.1,4.4,10.4c2.1-3,2.3-8.6-3.7-11"/>
			<path class="st61" d="M71.8,13.3c-19-5.6-37.3,4.3-38,14.1c-8.2-0.9-8.4,24.3-0.3,31.2c0,0,5.5-3.7,12.8,5.4
				c-9.8-14.6-2.4-25.6,2.4-30.2c-1-1.4-2.3-2.4-3.9-3c6,0.1,18,8.7,21.3,8c2.5-0.6,5-7.7,2-11.6c0,0,9.9,8.8,12,7.9
				c1.8-0.8,1.7-5.1-3.5-8.1c5.8,1.3,10.4,5.5,12.3,11C93.4,32.6,89.7,18.5,71.8,13.3z"/>
			<path class="st61" d="M35.8,28.1c-1.9-1.7-2.5-4.5-1.5-6.9c-2-0.3-2.8,3.3-1.7,4.7c-3.9-1.8-5.5,1.3-5.7,3.1
				c1.8-1.7,5.6-1.5,6.4-0.4"/>
			<path class="st61" d="M46.4,33.3c-6.2,3.6-9.1,18.6-5.2,26.4c-3.7-3.5-7.6-11.7-7.1-16.6c-2.1,3-4,7.8-2.1,11.3
				c-2-2.3-9.1-12.7-0.5-23c2.2-1.2,5.5,0,5.5,0c-3.6,2.2-5,6.3-5.6,11.5c2.2-5.3,5.7-9.4,8.3-10.1S46.4,33.3,46.4,33.3z"/>
			<path class="st62" d="M76.8,113.8c-1.4-4-13.9-11.9-16-14.3c-5.9,0.9-9.7,6.9-9.8,10.7c2.5,5.2,14.7,16,25.4,16"/>
			<path class="st40" d="M54.6,92.8c2.2,1.3,4.2,2.9,6.1,4.6c1.8,1.4,3.4,2.9,4.9,4.6c0.8,1.1-0.2,1.2-4,4.4
				c-6.5,5.4-6.9,11.5-8.4,11.5s-5.1-3.7-7.2-5.2"/>
			<path class="st41" d="M46.8,91.7c1.5-1.6,8,0.9,12,4.9s5.8,4.9,6.2,5.8s-1.6,1-5.3,4.7s-4.1,5.8-4.9,6.1s-7.2-4.9-9.7-9.5
				C43.7,100,43.3,95.3,46.8,91.7z"/>
			<path class="st42" d="M64.9,101c1.2-0.5,1.8,1.6,2.7,2.3s1.5,1.8,0.7,2.1c-2.7,0-5.9,2.9-7.9,8.2c-2.1,5.5-1,7.8-2.3,8.2
				s-5.2-1.9-5.2-3S55.2,103.7,64.9,101z"/>
			<path class="st43" d="M64.6,101.5c1.4-0.3,1.8,1.5,2.4,1.9s0.8,1.1-0.8,1.6s-6,3.7-7.5,10.1c-0.6,1.1-3.9,1-3.9-1.4
				S59.3,102.6,64.6,101.5z"/>
			<path class="st62" d="M107.2,116.5c3.2-0.1,6.2-0.9,8-3.7c3.4-5.2,1.7-25.2,0.8-29.6l-8.4-0.8c0,0-6.1,15.3-4.6,21.7"/>
			<path class="st62" d="M105.3,82.6c0.1,0.3-4.1-12.1,1.3-14.2c2-0.8,6.8-3.7,9.3-0.6c3.6,4.2,2.6,9.8,0.2,15.8"/>
			<path class="st63" d="M81.3,74.6c4.3,4.2,17.7-12,12.8-15.2C89,56.1,77.6,70.9,81.3,74.6z"/>
			<path class="st64" d="M81.4,74.8c4.6,4.4,18-12.1,12.9-15.4C88.8,56,77.3,71,81.4,74.8z"/>
			<path class="st65" d="M83.4,74.5c0.8-1.5,28.1,3.8,28.2,5s-6.4,9.2-9.1,8.9S82.9,75.6,83.4,74.5z"/>
			<path class="st66" d="M81.7,75.4c0,0,16.8,11.3,19.9,12.8c4,1.9,12.8-9.4,10-12.6c-5.4-5.6-11.2-11-17.2-16
				C89.3,55.5,76.6,71.3,81.7,75.4z"/>
			<path class="st67" d="M101.9,87.6c3.1,3,12.8-8.9,9.3-11.1C107.5,74.2,99.2,85,101.9,87.6z"/>
			<path class="st68" d="M89.3,61c0.8,0.7,17.8,14.1,18,14.1s0.1-0.4,1.3-0.3c-1-0.9-16.9-14.2-17.6-14.5S88.6,60.3,89.3,61z"/>
			<path class="st62" d="M114.5,73c-5,0.6-6.5-0.8-11.3-4.9s0.9-6.4,4-5.8s6.4,3,8.7,5.5"/>
			<path class="st62" d="M70.1,112.6c0.6-6.9,10.7-21.2,11-23.2c0.2-1.4-1.2-10,0.4-13.9c1.1-2.6,7.4-4.8,10.4-4.2s6.8,3.6,6.5,6.7
				s-5.2,4.2-4.4,7.5c0.5,2.1,1.8,3.6-3.8,7.9c-2.5,9.4-3.9,28.4-12.4,32.9c-1.8,0.1-3.6-0.1-5.3-0.5"/>
			<path class="st69" d="M93.3,72c-1.8-0.1-3.7,0.2-5.3,1.1c-0.8,0.4-1.6,0.9-2.4,1.4c-0.8,0.5-1.4,1.2-1.9,2
				c0.5-0.8,1.1-1.5,1.8-2.1c0.7-0.6,1.5-1.1,2.3-1.6c1.7-0.9,3.5-1.4,5.4-1.3L93.3,72z"/>
			<path class="st69" d="M95.9,73.5c-1.7,0.3-3.3,1-4.7,2c-0.7,0.5-1.4,1-2,1.6c-0.7,0.6-1.2,1.3-1.6,2.1c0.3-0.8,0.8-1.6,1.5-2.2
				c0.6-0.6,1.3-1.2,2-1.7c1.4-1.1,3-1.9,4.8-2.3L95.9,73.5z"/>
			<path class="st69" d="M98.1,76.2c-1.4,0.3-2.7,0.9-3.8,1.7c-0.6,0.4-1.1,0.9-1.6,1.5c-0.5,0.5-0.9,1.1-1.1,1.8
				c0.2-0.7,0.6-1.3,1-1.9c0.4-0.6,0.9-1.1,1.5-1.6c1.1-1,2.4-1.7,3.8-2L98.1,76.2z"/>
			<path class="st70" d="M102.8,67.7c-0.6-3.1,5-4.6,7.2-4.5"/>
			<path class="st70" d="M105,69.7c1.5-2.9,5.9-4.8,8.2-4.3"/>
			<path class="st70" d="M107.9,71.8c1.1-2.2,5.5-3.6,7.3-3"/>
			
				<ellipse transform="matrix(0.9271 -0.3748 0.3748 0.9271 -14.6517 26.9124)" class="st71" cx="61.9" cy="51.1" rx="5.4" ry="5.5"/>
			
				<ellipse transform="matrix(0.9265 -0.3764 0.3764 0.9265 -15.2187 27.7146)" class="st72" cx="63.3" cy="52.8" rx="3.4" ry="3.4"/>
			
				<ellipse transform="matrix(0.9268 -0.3756 0.3756 0.9268 -15.1494 26.6399)" class="st73" cx="60.8" cy="52.2" rx="0.7" ry="0.6"/>
			<ellipse transform="matrix(0.9527 -0.304 0.304 0.9527 -10.6636 26.8765)" class="st71" cx="81" cy="47.7" rx="4.9" ry="5.5"/>
			
				<ellipse transform="matrix(0.9527 -0.3039 0.3039 0.9527 -11.1594 27.3155)" class="st72" cx="82.2" cy="49.5" rx="3.2" ry="3.4"/>
			<circle class="st73" cx="79.8" cy="48.6" r="0.6"/>
			<polygon class="st74" points="-60.4,153 -59.1,193.1 194.9,193.1 194.6,153.5 			"/>
			<polygon class="st75" points="-11.4,129.2 -60.4,153 194.6,153.5 166.9,130.5 			"/>
			<ellipse class="st0" cx="101.7" cy="147.5" rx="11.8" ry="3.2"/>
			<path class="st76" d="M115.3,133.2c-1-10-6.3-14.1-6-18.8c0.1-2.3,0.4-4.6,1.1-6.9h-2.2c-6.7-0.4-7.8-5-9.8-6.4
				c-2.2-1.5-8.5-0.7-8.5-0.7c0.8,1.6,1.6,3.2,2.2,4.8c0.9,2.4,1.6,5,2,7.6c0,0.5,0.1,1,0.1,1.6c0.3,4.7-5,8.8-6,18.8s4.8,15,9.4,15
				l4.2-0.1l4.2,0.1C110.5,148.2,116.3,143.2,115.3,133.2z"/>
			<path class="st77" d="M108.7,119.2c-0.6-1.2-1-2.5-1.2-3.8h-5.8h-5.8c-0.2,1.3-0.7,2.6-1.2,3.8c-0.9,1.8-4.8,9.4-4.8,15.8
				s3.9,11,7.9,11h7.8c4,0,7.9-4.6,7.9-11S109.6,121.1,108.7,119.2z"/>
			<path class="st76" d="M109.3,114.4c0.8-3.4,7.3-6.1,10.6-1.8s-3.8,14.8-3.8,16.7s0.4,3.3-0.9,3s-1.6-3.3-1.2-5.2s3.9-6.1,4-10
				s-3.3-4.4-5-3.4s-1.7,2.3-1.6,2.9s-0.8,2.4-1.9,1.5S109.3,114.4,109.3,114.4z"/>
			<path class="st78" d="M98.2,148.2c-3,0-5.8-1.5-7.5-3.9c-2.7-4.1-2.6-7.6-2.6-10.5c0.4-4.2,1.6-8.4,3.6-12.1
				c2.2-4.2,2.5-5.8,2.4-7.2c-0.1-2.5-0.6-4.9-1.5-7.3c-0.7-2.3-1.7-4.6-2.8-6.7c1.7-0.2,3.3-0.3,5-0.2c2.7,0.2,3.5,0.8,4.1,1.3
				s2.6,4.3,6.1,5.3c1,0.3,2,0.5,3,0.6c0.8,0,1.6,0,2.4,0c0,0-1.5,0.5-5.7-0.5s-5.5-4.7-6.4-5.4s-2.4-1.1-4.9-1.2
				c-1.1-0.1-2.1,0-3.2,0.2c1.1,2.1,2,4.3,2.7,6.6c1.1,2.7,1.5,5.6,1.4,8.5c-0.1,2.1-5.5,11.5-5.7,18.1s1.6,9.2,3.1,11.2
				C93.4,146.9,95.8,148.1,98.2,148.2z"/>
			<path class="st78" d="M110.1,118.3c0.5,0,1-0.3,1.3-0.7c0.3-0.8,0-1.3,0.2-2.2c0.7-1.7,2.5-2.5,4.2-2c2.3,0.7,2.3,3.6,2,5.1
				c-0.3,1.7-1,3.3-1.9,4.8c-0.8,1.2-1.4,2.5-1.9,3.9c0.5-1,1-2,1.6-3c1.2-1.8,2.1-3.9,2.5-6c0.3-1.9,0-4.4-2.3-5
				c-1.7-0.5-3.5,0.2-4.4,1.7c-0.2,0.8-0.3,1.6-0.3,2.4C111.2,117.8,110.7,118.3,110.1,118.3z"/>
			<path class="st78" d="M106.5,148.2c0,0,6.3-1.2,7.8-6.8s0.8-9.1,0.8-9.1s0,5.6-1.2,9.1C112.8,144.8,110,147.3,106.5,148.2z"/>
			<path class="st78" d="M110.5,107.6c-0.6,2.2-1,4.5-1.1,6.9c0.7-2.2,2.7-3.8,5-3.9c4.2-0.5,6.4,2.1,6.4,4.9s-1,4.8-2.1,7.8
				s-2.6,4.9-2.5,5.9s0.8,3.5-0.9,3.1c0.4,0,0.7-0.4,0.7-0.7c-0.1-0.9-0.1-1.8-0.1-2.7c0.1-0.8,3-5.4,4.2-10s0.1-6.3-1.4-7.3
				c-1.7-1-3.7-1.2-5.5-0.6c-1.4,0.4-2.6,1.5-3.2,2.8c-0.2,0.6-0.4,1.1-0.5,1.8c0,0-0.3-0.3-0.2-2.8c0.1-1.7,0.4-3.3,0.7-5l-0.7-0.1
				L110.5,107.6z"/>
			<path class="st78" d="M110.3,118.3c0,0,1.4,2.8,2.3,4.8c0.6,1.3,1,2.6,1.4,3.9v0.2c0,0-3-7.3-4-8.8L110.3,118.3z"/>
			<path class="st79" d="M92.3,101.1c1.5,2.6,2.6,5.3,3.4,8.2c0.6,1.9,0.9,4,0.9,6c1.5,0,3,0,4.5-0.1c0.6-0.2,0-4.9-1.2-8.6
				s-2.7-5-4.2-5.5C94.6,100.7,93.4,100.8,92.3,101.1z"/>
			<path class="st80" d="M96.7,115.4c-0.1,1.3-0.4,2.6-0.9,3.8c-0.9,2.3-3.9,9.3-3.6,15.6s3.2,9.8,6.7,10.2c2,0.2,3.9,0.3,5.9,0.1
				c0,0-4.4,0.4-6.7-5.6s-0.2-13.5,1.1-17.2c0.8-2.2,1.4-4.5,1.8-6.8L96.7,115.4z"/>
			<path class="st81" d="M97.8,146.1h7.6c0,0,6.4,0,7.7-8.1s-3.2-16.1-4.2-18.2c-0.7-1.4-1.2-2.9-1.5-4.4h-3
				c0.2,1.5,0.6,2.9,1.3,4.3c1,2.2,4.4,6.4,5,14.2s-2.9,11.2-5.5,11.6C102.8,145.9,100.3,146.1,97.8,146.1z"/>
		</g>
	</g>
	
		<radialGradient id="SVGID_4_" cx="115.5629" cy="321.8275" r="65.3359" gradientTransform="matrix(1.12 0 0 -1.07 -51.9 422.92)" gradientUnits="userSpaceOnUse">
		<stop  offset="0" style="stop-color:#FFFFFF"/>
		<stop  offset="0.43" style="stop-color:#D3F9FC"/>
	</radialGradient>
	<path class="st82" d="M151.6,79.2c0,38.5-32.9,69.7-73.5,69.7S4.6,117.7,4.6,79.2S37.5,9.5,78.1,9.5S151.6,40.7,151.6,79.2z"/>
	<path class="st83" d="M82.3,141.4c-40.6,0-73.5-31.2-73.5-69.7C8.8,61.8,11,52,15.4,43c-0.8,1.2-1.6,2.4-2.3,3.6
		c-6.1,10.3-9.3,22-9.3,34c0,38.5,32.9,69.7,73.5,69.7c29.8,0,55.4-16.8,67-41C131.1,128.6,108.3,141.4,82.3,141.4z"/>
	<path class="st84" d="M23.8,54c3-10.8,11.7-21.2,29.8-27.7c2-0.7,3.1-3,2.3-5c-0.2-0.5-0.5-1-0.9-1.4l-0.3-0.4c-1-1-2.5-1.4-3.9-1
		c-6.8,2-24.4,12-30.2,34.7c-0.2,0.7,0.1,1.4,0.7,1.8l0,0c0.8,0.5,1.8,0.3,2.3-0.5C23.7,54.4,23.7,54.2,23.8,54z"/>
	<circle class="st84" cx="21.3" cy="59.8" r="2.5"/>
</g>
<g class="st85">
	<path d="M129.3,23.5C99.3-5,51.8-3.9,23.2,26.1C10,39.9,2.6,58.3,2.5,77.5c0,2.3,0.1,4.6,0.3,6.8c0,0.3,0,0.5,0.1,0.8
		c0,0,0,0.1,0,0.1c1.4,19.1,10.5,36.7,25.3,48.8c28.4,30.1,75.9,31.5,106,3.1s31.5-75.9,3.1-106C134.8,28.3,132.1,25.8,129.3,23.5
		L129.3,23.5z"/>
</g>
</svg>
