<?xml version="1.0" encoding="utf-8"?>
<!-- Generator: Adobe Illustrator 25.2.3, SVG Export Plug-In . SVG Version: 6.00 Build 0)  -->
<svg version="1.1" id="Layer_1" xmlns="http://www.w3.org/2000/svg" xmlns:xlink="http://www.w3.org/1999/xlink" x="0px" y="0px"
	 viewBox="0 0 160 160" style="enable-background:new 0 0 160 160;" xml:space="preserve">
<style type="text/css">
	.st0{opacity:0.5;enable-background:new    ;}
	.st1{opacity:0.91;fill:url(#SVGID_1_);enable-background:new    ;}
	.st2{clip-path:url(#SVGID_3_);}
	.st3{opacity:0.29;fill:#932216;enable-background:new    ;}
	.st4{fill:none;stroke:#F4F2F2;stroke-width:0.5;stroke-miterlimit:10;}
	.st5{fill:none;}
	.st6{fill:url(#SVGID_4_);}
	.st7{fill:#80E559;}
	.st8{opacity:0.5;fill:url(#SVGID_5_);enable-background:new    ;}
	.st9{fill:#73DD47;}
	.st10{opacity:0.3;}
	.st11{fill:#84E75A;}
	.st12{opacity:0.31;}
	.st13{fill:#5F8337;}
	.st14{opacity:0.5;fill:#5F8337;enable-background:new    ;}
	.st15{fill:#2BB51C;}
	.st16{fill:#1C8E16;}
	.st17{fill:#709B6D;}
	.st18{fill:#CC773E;}
	.st19{fill:#904E27;}
	.st20{fill:#7C3F29;}
	.st21{fill:#8C4D23;}
	.st22{fill:#723B17;}
	.st23{opacity:0.61;}
	.st24{fill:#666666;}
	.st25{fill:#1A1A1A;}
	.st26{fill:#E6E6E6;}
	.st27{fill:#C93140;}
	.st28{fill:#439C3D;}
	.st29{fill:#308C1F;}
	.st30{fill:#4FB62B;}
	.st31{fill:#AFD24D;}
	.st32{opacity:0.24;fill:#616849;enable-background:new    ;}
	.st33{fill:#82CFF7;stroke:#5DA3C1;stroke-miterlimit:10;}
	.st34{fill:#B3E0F4;}
	.st35{fill:url(#SVGID_6_);}
	.st36{fill:#52A2E7;}
	.st37{fill:#3476B7;}
	.st38{opacity:0.35;fill:#4A97CC;enable-background:new    ;}
	.st39{fill:#5393B7;stroke:#4C2606;stroke-width:0.5;stroke-miterlimit:10;}
	.st40{fill:#81C0EA;stroke:#4C2606;stroke-width:0.5;stroke-miterlimit:10;}
	.st41{fill:#D3E7F2;stroke:#4C2606;stroke-width:0.5;stroke-miterlimit:10;}
	.st42{fill:#DAB4AA;stroke:#323232;stroke-miterlimit:10;}
	.st43{fill:#587AB1;}
	.st44{fill:none;stroke:#323232;stroke-miterlimit:10;}
	.st45{opacity:0.76;fill:#1B3F72;enable-background:new    ;}
	.st46{fill:#FACC35;stroke:#323232;stroke-miterlimit:10;}
	.st47{fill:#BE9030;}
	.st48{fill:#4C3409;}
	.st49{fill:#FBD3C7;stroke:#453323;stroke-width:0.75;stroke-miterlimit:10;}
	.st50{fill:#453323;}
	.st51{fill:#DD9F8F;}
	.st52{fill:#F9D1C6;stroke:#323232;stroke-miterlimit:10;}
	.st53{fill:#DB9D8E;}
	.st54{fill:#F5968E;}
	.st55{fill:#951C27;}
	.st56{fill:#D26653;}
	.st57{fill:url(#SVGID_7_);}
	.st58{fill:#342517;}
	.st59{fill:#FFFFFF;stroke:#3D2E17;stroke-width:0.75;stroke-miterlimit:10;}
	.st60{fill:#2D2B21;}
	.st61{fill:#FFFFFF;}
	.st62{fill:#F9D1C6;}
	.st63{fill:#49442E;}
	.st64{fill:#323232;}
	.st65{fill:#FBD3C7;}
	.st66{fill:url(#SVGID_8_);}
	.st67{fill:url(#SVGID_9_);}
	.st68{fill:url(#SVGID_10_);}
	.st69{fill-rule:evenodd;clip-rule:evenodd;fill:#1E4D82;}
	.st70{fill-rule:evenodd;clip-rule:evenodd;fill:#497EB2;stroke:#357DC4;stroke-miterlimit:10;}
	.st71{fill-rule:evenodd;clip-rule:evenodd;fill:#3D709B;stroke:#357DC4;stroke-miterlimit:10;}
	.st72{fill-rule:evenodd;clip-rule:evenodd;fill:#306487;stroke:#357DC4;stroke-miterlimit:10;}
	.st73{fill-rule:evenodd;clip-rule:evenodd;fill:#9CCAFF;}
	.st74{fill-rule:evenodd;clip-rule:evenodd;fill:#DBECFF;}
	.st75{fill-rule:evenodd;clip-rule:evenodd;fill:#76A9E3;}
	.st76{fill:#211505;}
	.st77{fill:#664422;}
	.st78{fill:#ECE9D6;stroke:#B2AC8D;stroke-miterlimit:10;}
	.st79{fill:#A17127;}
	.st80{fill:#774E18;}
	.st81{fill:#F9F8F7;}
	.st82{fill:#222544;}
	.st83{fill:none;stroke:#61689B;stroke-miterlimit:10;}
	.st84{fill:#664422;stroke:#3F3A25;stroke-miterlimit:10;}
	.st85{fill:#7A552C;stroke:#686248;stroke-miterlimit:10;}
	.st86{fill:#956B39;}
	.st87{fill:#D3B497;}
	.st88{fill:#543614;}
	.st89{fill:#825638;stroke:#492C17;stroke-miterlimit:10;}
	.st90{opacity:0.7;}
	.st91{fill:#684229;}
	.st92{fill:#825638;}
	.st93{fill:#A77144;stroke:#754623;stroke-miterlimit:10;}
	.st94{fill:#8E5A33;stroke:#754623;stroke-miterlimit:10;}
	.st95{fill:#EFE7DF;stroke:#A8795A;stroke-miterlimit:10;}
	.st96{fill:#F2C3B7;}
	.st97{fill:#C67A6D;}
	.st98{fill:#E29181;}
	.st99{fill:#A77144;}
	.st100{fill:#F6AC7C;}
	.st101{fill:#EFE7DF;}
	.st102{fill:#E5D9CF;}
	.st103{fill:#D3C5BA;}
	.st104{opacity:0.8;fill:#825638;enable-background:new    ;}
	.st105{fill:#164A75;}
	.st106{fill:#186FB7;}
	.st107{fill:#308BE5;}
	.st108{fill:#DEE5B5;}
	.st109{fill:#991010;}
	.st110{fill:#3F2F2D;}
	.st111{fill:#F4EDED;}
	.st112{fill:#DD0E0E;}
	.st113{fill:#DEE5B5;stroke:#A4AA6A;stroke-miterlimit:10;}
	.st114{opacity:0.2;fill:url(#SVGID_11_);enable-background:new    ;}
	.st115{opacity:0.6;fill:#FDFFFF;enable-background:new    ;}
	.st116{opacity:0.5;fill:#4ECECE;enable-background:new    ;}
	.st117{opacity:0.6;}
</style>
<circle class="st0" cx="81.7" cy="82" r="74.3"/>
<g id="_01-2">
	
		<radialGradient id="SVGID_1_" cx="-3770.27" cy="-175.62" r="178.78" gradientTransform="matrix(0.48 0 0 -0.48 1893.85 -6.46)" gradientUnits="userSpaceOnUse">
		<stop  offset="0" style="stop-color:#FFFFFF"/>
		<stop  offset="0.61" style="stop-color:#D3F9FC"/>
		<stop  offset="0.93" style="stop-color:#48E5FF"/>
	</radialGradient>
	<path class="st1" d="M151.5,77.8c0.2,41-32.9,74.4-73.9,74.5c-41,0.2-74.4-32.9-74.5-73.9C2.8,37.4,35.9,4.1,76.9,3.9
		c0.1,0,0.2,0,0.3,0C118.2,3.8,151.4,36.9,151.5,77.8C151.5,77.8,151.5,77.8,151.5,77.8z"/>
	<g>
		<defs>
			<ellipse id="SVGID_2_" cx="77.4" cy="77" rx="74.1" ry="73.8"/>
		</defs>
		<clipPath id="SVGID_3_">
			<use xlink:href="#SVGID_2_"  style="overflow:visible;"/>
		</clipPath>
		<g class="st2">
			<path class="st3" d="M107.3,50.4c0,0,37.1,9.9,53.3,19.5s37.5,17.4,37.5,17.4L143,87L107.3,50.4z"/>
			<line class="st4" x1="151.5" y1="114" x2="173" y2="114"/>
			<line class="st4" x1="151.3" y1="114.4" x2="172.8" y2="114.4"/>
			<line class="st4" x1="151.1" y1="114.8" x2="172.6" y2="114.8"/>
			<line class="st4" x1="151.1" y1="115.2" x2="172.6" y2="115.2"/>
			<line class="st4" x1="150.9" y1="115.6" x2="172.3" y2="115.6"/>
			<line class="st4" x1="150.7" y1="116" x2="172.1" y2="116"/>
			<line class="st4" x1="150.7" y1="116.4" x2="172.1" y2="116.4"/>
			<line class="st4" x1="150.4" y1="116.9" x2="171.9" y2="116.9"/>
			<line class="st5" x1="141.6" y1="99.6" x2="185.4" y2="99.3"/>
			
				<linearGradient id="SVGID_4_" gradientUnits="userSpaceOnUse" x1="34.566" y1="-54.2792" x2="85.746" y2="198.7008" gradientTransform="matrix(1 0 0 -1 0 162)">
				<stop  offset="0.2" style="stop-color:#C5F7FD"/>
				<stop  offset="0.34" style="stop-color:#B3F0FD"/>
				<stop  offset="0.66" style="stop-color:#8EE1FD"/>
				<stop  offset="0.83" style="stop-color:#80DBFD"/>
			</linearGradient>
			<rect x="-97.9" y="-18.3" class="st6" width="334.7" height="124.2"/>
			<polygon class="st7" points="-95.2,122.3 243.6,115.1 243.6,180.7 -95.2,180.7 			"/>
			
				<linearGradient id="SVGID_5_" gradientUnits="userSpaceOnUse" x1="-16.4" y1="42.93" x2="-16.4" y2="49.38" gradientTransform="matrix(1 0 0 -1 0 162)">
				<stop  offset="0" style="stop-color:#09170A"/>
				<stop  offset="0.58" style="stop-color:#2D550C"/>
				<stop  offset="1" style="stop-color:#16623E"/>
			</linearGradient>
			<path class="st8" d="M-89.9,114.6c5.7,0.1,11.3,0.4,16.9,0.4c7,0.1,13.9-0.4,20.9-0.2c3.9,0.1,7.9,0.3,11.8,0.3
				c3.6,0.1,7.2,0,10.7,0.2c7.3,0.3,14.4,1.2,21.6,1.7c15.4,1.1,30.9,1.3,46.5,1.5c5.6,0.1,11.1,0,16.6-0.2c1-0.1,2-0.2,3.1-0.3
				c1.7-0.1,3.5-0.1,5.2-0.1c-1,0-1.8,0-2.4,0c-5.9,0-18.7,0.5-25.6,0.2s-9.8,0-19.6-0.4s-21.3-1.3-28.2-1.6s-14.8-1.3-21-1.4
				s-11.1,0.2-20-0.3s-17,0.4-26.2-0.1c-6.2-0.3-12.9-0.7-17-0.8v1C-94.2,114.6-92,114.6-89.9,114.6z"/>
			<path class="st9" d="M175.9,68.7c-11,2.8-22.3,7.4-33.3,8.2c-14.5,1-28.9,4.3-43.4,5.1c-14.7,0.9-29.5,0.5-44.2-1.1
				c-12.9-1.5-25.8-0.1-38.7-1.6c-13.2-1.5-26.2-6.7-39.4-8c-9.5-1-18.9-2.4-28.2-4.4c-7.8-1.7-15.3-6-23-7.7
				c-7.4-1.6-15.1-4.3-22.5-4.6v151.8h333.5V47.2c-9.5,2.9-18.8,6.7-27.7,11.1C198.4,63.7,186.9,65.8,175.9,68.7z"/>
			<g class="st10">
				<path class="st11" d="M212.3,96.1c-1.2,0.8-2.3,1.6-3.5,2.3c-4.8,3.1-10,5.5-15.4,7.3c-11.4,3.6-24.1,3.7-35.2,8.2
					c6.7,0.9,13.6,0.5,20.3-0.1c4.7-0.4,9.4-0.7,14.1-1c3.6-0.3,7.3-0.6,10.9-0.7c2.7,0,6.5-0.2,8.8,1.3c1.9,1.2,1.2,3.1,0,4.4
					c-2,2.2-4.9,3.8-7.7,5.2c-3.8,1.8-7.7,3.3-11.7,4.4c-3.8,1.2-7.8,1.9-11.8,2.3c-2.7,0.2-5.9,0.2-8.1-1.3c-0.1,0-0.1-0.2-0.1-0.2
					c0,0,0-0.1,0.1-0.1c2.5-2.6,7.2-2.6,9.4-5.4c-5.2-1.9-11.5-0.8-16.9-0.4c-6.8,0.6-13.7,1.3-20.5,1.5
					c-14.6,0.4-28.8-3.2-43.4-2.9c-7.6,0.1-15.1,0.4-22.7,0.5s-15,0.1-22.5-0.1c-5.5-0.2-11.1-0.1-16.6-0.4
					c-4.8-0.3-10.2-0.9-14.2-3.5c-0.1-0.1-0.1-0.2-0.1-0.3c0-0.1,0.1-0.1,0.1-0.1c0.5-0.1,0.9-0.2,1.4-0.3c3.2-0.5,6.4-0.1,9.6,0
					c3.6,0.1,7.2-0.1,10.8-0.6c3.7-0.4,7.3-0.8,11-1c1.8-0.1,3.5-0.2,5.2-0.2c-3-0.2-6.1-0.4-9.2-0.7c-12.9-1.1-25.8-0.1-38.7-1.2
					c-13.2-1.1-26.2-5-39.4-6c-9.5-0.7-18.8-1.8-28.2-3.3c-7.8-1.3-15.3-4.5-23-5.7c-7.4-1.2-15.1-3.2-22.5-3.4v2.7
					c1.5,0.1,3,0.3,4.5,0.4c14.3,1.8,27.9,6.1,41.8,9.4c3.5,0.8,6.9,1.6,10.5,2.1c3.3,0.5,6.7,0.8,10,0.9c5.4,0.2,11.4,0.5,16.2,3.1
					c0.1,0.1,0.1,0.2,0.1,0.3c0,0,0,0.1-0.1,0.1c-2.9,1.1-5.9,1.8-9,1.8c-5.9,0.3-11.7-0.3-17.6-0.3c-6.7,0-13.2,1.4-19.7,2.7
					c-3.7,0.7-7.3,1.6-11,2.2c-2.4,0.4-4.8,0.5-7.2,0.9c-2.6,0.2-5.2,0.9-7.6,1.9c-0.6,0.3-1.2,0.6-1.8,1c-0.5,0.4-0.5,0.4-0.1,0.8
					c0.5,0.5,1.1,0.9,1.7,1.3c3.5,1.8,8,2,11.9,2.2c4.4,0.2,8.8,0,13.2,0c3.9,0,7.8,0.3,11.7,0.4c4.7,0.1,10.4,0.1,14.5,2.4
					c0.1,0,0.1,0.1,0.1,0.2c0,0,0,0,0,0c-1.1,1.7-2.7,2-4.8,2.2c-1.9,0.1-3.8,0.6-5.7,0.9c-1.6,0.2-3.3,0.4-4.9,0.6
					c-3.7,0.4-7.4,0.7-11.1,0.9c-7.6,0.5-15,1.4-22.5,2.5c-4.3,0.6-8.7,1.2-13.1,1.5V208h333.5V89.1C228.1,91,220.1,93.3,212.3,96.1
					z"/>
			</g>
			<g class="st12">
				<path class="st13" d="M238.4,146.3c-3.2,0.8-6.3,1.9-9.3,3.3c-0.6,0.3-1.6,0.9-1.5,1.5c0.2,1.1,2.3,1.9,3.4,2.4
					c2.5,1.1,7,2.7,5.8,5.2c-0.6,1.3-2.6,1.8-4.4,2.1c-2.8,0.5-5.6,0.8-8.4,1.1c-14.6,1.8-29.5,1.9-44.3,1.9h-23
					c-3.4,0-6.8,0.1-10.1,0c-2.8,0-5.7-0.3-8.4-1.1c-0.2,0-0.1-0.2,0-0.3c8.2-3,18.1-3.3,27.3-3.5c3-0.1,6-0.1,9-0.2
					c3.4-0.1,6.8-0.4,10.2-0.6c3.8-0.2,7.6-0.5,11.5-0.7c3.5-0.2,7-0.5,10.5-0.6c2.7-0.1,5.7-0.1,8.1-0.9c0.7-0.2,1.3-0.5,1.9-0.9
					c0.6-0.4,0.4-0.6-0.4-0.8c-1.2-0.2-2.5-0.3-3.7-0.2c-2.6,0.1-5.2,0.5-7.9,0.7c-3.9,0.3-7.7,0.4-11.6,0.4
					c-7.7,0-15.5-0.4-23.2-0.4c-7,0-14,0.1-21,0.2c-3.9,0.3-7.9,0.6-11.8,1.3c-3.7,0.6-7.3,1.4-10.9,2c-3.5,0.6-7,1.1-10.6,1.4
					c-7.2,0.5-14.4,0.6-21.6,0.2c-5.4-0.2-10.9-0.6-16.2-1.4C62.4,158,47,157,31.6,158c6.2,1.3,12.6,2,18.9,2.2
					c6,0.3,12.2,0.6,18.2,0.7s11.9,0,17.9,0.2c5.4,0.3,10.9,0.8,15.7,2.6c0.2,0.1,0.1,0.2,0,0.3c-3.4,1.7-8.3,1.9-12.4,2
					c-4.9,0.1-9.9-0.1-14.8-0.4c-6.3-0.3-12.6-0.2-18.9-0.3c-7.4-0.1-14.8-0.2-22.1-0.4c-7.8-0.2-15.5-0.7-23.3-1.3
					s-15.3-1.1-23-1.2s-15.4,0-23-0.1c-3.2-0.1-6.5,0-9.7-0.1c-2.4-0.1-5-0.3-6.9-1.3c-0.1,0-0.1-0.1-0.1-0.2c0,0,0,0,0.1-0.1
					c2.6-1.8,6.9-2.3,10.5-2.5c5-0.3,10-0.2,14.9-0.1c6,0.1,12,0,18,0.1c3.9,0,7.8,0,11.8,0c3,0,5.9-0.1,8.9-0.1
					c2.7,0.1,5.3,0.2,8,0.1c2.5,0,4.9-0.4,7.2-1.4c-8.5-1.6-17.1-2.6-25.8-2.8c-8.7-0.3-17.4-0.5-26-0.9c-7.8-0.4-15.6-1.3-23.5-1.5
					c-3.7-0.1-7.4,0.2-11,0.3c-4.5,0.2-8.9,0.2-13.4-0.1c-2.4-0.2-6-0.5-7-2.2c0-0.1,0-0.1,0.1-0.2c0,0,0,0,0,0
					c4.6-2.4,11.4-2.7,17-3.1c7.8-0.5,15.5-1.7,23.4-2.3c3.3-0.1,6.6-0.6,9.8-1.5c2.5-0.9,5-1.6,7.5-2.1c2.7-0.5,6-0.7,8.1-2
					c0.4-0.2,0.3-0.2-0.1-0.4c-0.2-0.1-0.5-0.3-0.7-0.4c-0.4-0.2-0.8-0.3-1.2-0.5c-1-0.3-2-0.5-3-0.6c-4.8-0.5-9.6,0.2-14.4,0.3
					c-4.1,0.1-8.6-0.1-11.7-2.1c-0.1-0.1-0.1-0.2,0-0.3c2.8-1.1,5.7-1.8,8.7-2c3.3-0.4,6.7-0.5,10.1-0.8c3.1-0.2,6.2-0.6,9.3-0.8
					c3.7-0.3,7.5-0.5,11.2-1.1c2.7-0.4,5.3-1,7.8-1.9c1.6-0.6,4.6-1.9,4.4-3.4c0-0.2-0.1-0.4-0.2-0.6c-9.1-1.2-18.2-2.8-27.4-3.3
					c-9.9-0.6-19.4-1.4-29.2-2.6c-8.1-1-15.8-3.5-23.8-4.5c-7.6-0.9-15.6-2.5-23.3-2.7v2.2c1.6,0.1,3.1,0.2,4.7,0.3
					c14.8,1.4,28.9,4.8,43.2,7.4c3.6,0.7,7.2,1.3,10.8,1.7c3.4,0.4,6.8,0.6,10.3,0.7c5.6,0.2,11.8,0.4,16.7,2.4
					c0.1,0.1,0.2,0.2,0,0.3c-3,0.9-6.2,1.4-9.4,1.4c-6.1,0.2-12.1-0.2-18.2-0.2c-6.9,0-13.7,1.1-20.4,2.1c-3.8,0.6-7.6,1.3-11.4,1.8
					c-2.5,0.3-5,0.4-7.4,0.7c-2.7,0.2-5.3,0.7-7.9,1.5c-0.6,0.2-1.2,0.5-1.8,0.8c-0.5,0.3-0.5,0.3-0.1,0.6c0.6,0.4,1.2,0.7,1.8,1
					c3.6,1.4,8.3,1.6,12.3,1.7c4.6,0.1,9.1,0,13.7,0c4,0,8,0.3,12,0.3c4.9,0.1,10.7,0,15,1.9c0.1,0.1,0.2,0.1,0.1,0.2
					c-1.1,1.4-2.8,1.6-5,1.7c-2,0.1-3.9,0.5-5.9,0.7c-1.7,0.2-3.4,0.4-5,0.5c-3.8,0.3-7.7,0.5-11.5,0.7c-7.8,0.4-15.5,1.1-23.3,1.9
					c-4.5,0.5-9,0.9-13.6,1.2v53.7h345.1v-56.5C245,144.6,241.7,145.4,238.4,146.3z"/>
			</g>
			<path class="st14" d="M77.7,123.8h-1.3c-0.7,0-1.4,0.1-2,0.4c0,0,0,0,0,0.1c1.3,0.3,2.7,0.4,4,0.2c0.5,0,3-0.1,2.9-0.4
				S78.5,123.8,77.7,123.8z"/>
			<path class="st14" d="M93,122.4c-0.3-0.3-2.2-0.2-2.8-0.2c-0.3,0-0.9,0-1.3,0h-0.4c-0.3,0-1.1,0.2-0.7,0.3c0.7,0.1,1.3,0.2,2,0.2
				c0.7,0,1.3,0,2-0.1C92.1,122.6,92.5,122.6,93,122.4C93,122.5,93.1,122.4,93,122.4z"/>
			<path class="st14" d="M3.2,136c-0.3-0.3-2.2-0.2-2.8-0.1c-0.3,0-0.9,0-1.3,0h-0.4c-0.3,0-1.1,0.2-0.7,0.3c0.6,0.1,1.3,0.2,2,0.2
				c0.7,0,1.3,0,2-0.1c0.4,0,0.7,0,1.1-0.1C3.2,136.1,3.3,136.1,3.2,136z"/>
			<path class="st14" d="M86,137.1h-0.9c-0.5,0-1,0.1-1.4,0.3c0,0,0,0,0,0.1c0.9,0.2,1.9,0.3,2.8,0.2c0.3,0,2.1,0,2-0.3
				S86.5,137.1,86,137.1z"/>
			<path class="st14" d="M96.8,137.9c-0.7-0.2-1.3-0.2-2-0.1c-0.2,0-0.6,0-0.9,0h-0.3c-0.2,0-0.8,0.1-0.5,0.2
				c0.5,0.1,0.9,0.1,1.4,0.1c0.5,0,0.9,0,1.4,0c0.3,0,0.5,0,0.8-0.1C96.8,138,96.8,137.9,96.8,137.9z"/>
			<path class="st14" d="M143.3,138.4c0,0.4-5.3,0.7-11.9,0.7s-11.9-0.3-11.9-0.7s5.3-0.7,11.9-0.7C138,137.7,143.3,138,143.3,138.4
				z"/>
			<path class="st15" d="M160,129.9c1.3-0.8,2.8-1.3,4.4-1.4c2.9-0.3-3.1-1.5-5.3,1.4C159.2,129.9,158.2,131.1,160,129.9z"/>
			<path class="st15" d="M155.9,130c0,0,4.4-3.6,7-4.6s-2.5-1-5.9,2C157,127.4,155.3,129.2,155.9,130z"/>
			<path class="st15" d="M154.6,130c0,0,2.9-5.9,4.3-6.6s-2.1-1.1-4.3,3.7C154.6,127.1,153.8,129.6,154.6,130z"/>
			<path class="st15" d="M153.1,130c0,0,1.1-5.4,2.2-6.2S151.2,124.7,153.1,130z"/>
			<path class="st15" d="M152.4,130c0,0,0.1-4.5-2.3-5.2S151.5,127.8,152.4,130z"/>
			<path class="st15" d="M151.7,130c-1.5-1.3-3.4-2-5.4-2C142.7,127.9,149.5,126.6,151.7,130z"/>
			<path class="st15" d="M151.4,130c-1.4-1.3-3.2-2-5.1-1.9C143,128.2,150.6,129.4,151.4,130z"/>
			<path class="st16" d="M-97.8,82.3c40.3,1.7,62.4,1.8,83.9,2.3c73.6,1.9,71.9-1.5,112.8,0.8c26.7,1.5,70.1-2.4,96.8-0.4
				c4.9,0.4,15.6,1.3,37.9,0.8c2.2,0,1.9,3,2.4,0.6c1.1-5.4,1-0.1,0.9,0.4c-0.1,2.8-1,0.9-0.8,2.2l-332,0.2L-97.8,82.3z"/>
			<path class="st17" d="M-104.7,58.5c-0.2-2.5-5.9-4.5-2.1-6.4c7.2-3.5,23-4.5,41.9-2.3c35,4.2,49.9-2.5,83.4,2.6
				c6.5,1.1,13.2,1.5,19.8,1.1c11.7-0.6,3.3,1.8,29.6-1.4c6-0.8,12.1-0.5,18,0.8c12.9,2.8,28-0.4,39.8,0.8c5.2,0.5,41-3.6,43.9-3.9
				c65.4-6.8,64.6,5.4,64.5,6.1c0,0,3.6,0.3,7.2,0.5l0,0l-3.2,20.1H-90.8L-104.7,58.5z"/>
			<polygon class="st18" points="-96.2,67.4 -96.2,86 60.3,86 60.3,68.3 			"/>
			<rect x="-96.2" y="65.8" class="st19" width="156.5" height="2.9"/>
			<rect x="-96.2" y="64.4" class="st18" width="156.5" height="2.9"/>
			<rect x="23" y="73.1" class="st20" width="2.9" height="1.6"/>
			<rect x="24.5" y="75.1" class="st20" width="2.9" height="1.6"/>
			<rect x="6.1" y="76.5" class="st20" width="2.9" height="1.6"/>
			<rect x="7.6" y="78.5" class="st20" width="2.9" height="1.6"/>
			<rect x="51" y="73.1" class="st20" width="2.9" height="1.6"/>
			<rect x="52.5" y="75.1" class="st20" width="2.9" height="1.6"/>
			<polygon class="st18" points="236.8,66.9 236.8,85.8 57.8,85.1 57.8,67.8 			"/>
			<rect x="57.8" y="66.9" class="st21" width="179.1" height="1.6"/>
			<rect x="60.3" y="64" class="st18" width="176.6" height="3.2"/>
			<rect x="130.6" y="71.7" class="st22" width="3.4" height="1.6"/>
			<rect x="129" y="73.6" class="st22" width="3.4" height="1.6"/>
			<rect x="97" y="72.5" class="st22" width="3.3" height="1.6"/>
			<rect x="95.3" y="74.4" class="st22" width="3.3" height="1.6"/>
			<rect x="116.4" y="75.8" class="st22" width="3.3" height="1.6"/>
			<rect x="114.7" y="77.8" class="st22" width="3.3" height="1.6"/>
			<rect x="65" y="72.5" class="st22" width="3.3" height="1.6"/>
			<rect x="63.3" y="74.4" class="st22" width="3.4" height="1.6"/>
			<g class="st23">
				<path class="st24" d="M6.4,59.8H4.2v-1c0.3-0.1,0.4-0.5,0.3-0.8c-0.1-0.2-0.3-0.4-0.6-0.3c-0.3,0-0.6,0.2-0.6,0.6
					c0,0.2,0.1,0.4,0.3,0.5v1h-18v-1c0.2-0.1,0.3-0.3,0.3-0.5c0-0.3-0.3-0.6-0.6-0.6c0,0,0,0,0,0c-0.3,0-0.6,0.2-0.6,0.6
					c0,0,0,0,0,0c0,0.2,0.1,0.4,0.3,0.5v1h-18v-1c0.2-0.1,0.3-0.3,0.3-0.5c0-0.3-0.3-0.6-0.6-0.6c0,0,0,0,0,0
					c-0.3,0-0.6,0.2-0.6,0.6c0,0,0,0,0,0c0,0.2,0.1,0.4,0.3,0.5v1h-18v-1c0.2-0.1,0.3-0.3,0.3-0.5c0-0.3-0.3-0.6-0.6-0.6
					c0,0,0,0,0,0c-0.3,0-0.6,0.2-0.6,0.6c0,0,0,0,0,0c0,0.2,0.1,0.4,0.3,0.5v1h-18v-1c0.2-0.1,0.3-0.3,0.3-0.5
					c0-0.3-0.3-0.6-0.6-0.6c0,0,0,0,0,0c-0.3,0-0.6,0.2-0.6,0.6c0,0,0,0,0,0c0,0.2,0.1,0.4,0.3,0.5v1H-89v-1
					c0.2-0.1,0.3-0.3,0.3-0.5c0-0.3-0.3-0.6-0.6-0.6c0,0,0,0,0,0c-0.3,0-0.6,0.2-0.6,0.6c0,0,0,0,0,0c0,0.2,0.1,0.4,0.3,0.5v1h-18
					v-1c0.2-0.1,0.3-0.3,0.3-0.5c0-0.3-0.3-0.6-0.6-0.6c0,0,0,0,0,0c-0.3,0-0.6,0.2-0.6,0.6c0,0,0,0,0,0c0,0.2,0.1,0.4,0.3,0.5v1
					h-12.1v0.9h12.1v3.8h0.6v-3.8h18v3.8h0.6v-3.8h18v3.8h0.6v-3.8h18v3.8h0.6v-3.8h18v3.8h0.6v-3.8h18v3.8h0.6v-3.8h18v3.8h0.6
					v-3.8h2.3V59.8z"/>
				<path class="st25" d="M-14.1,59.8h-0.3v-1c0.2-0.1,0.3-0.3,0.3-0.5c0-0.2-0.1-0.4-0.4-0.5c0,0.1,0,0.2,0.1,0.2
					c0,0.3-0.3,0.6-0.6,0.6c0,0,0,0,0,0c-0.1,0-0.2,0-0.3,0c0.1,0.2,0.3,0.3,0.6,0.3h0.1v5.6h0.2v-3.9h18v-0.3h-17.7V59.8z"/>
			</g>
			<g class="st23">
				<path class="st24" d="M131.1,59.8H129v-1c0.2-0.1,0.3-0.3,0.3-0.5c0-0.3-0.2-0.6-0.6-0.7c-0.3,0-0.6,0.2-0.7,0.6
					c0,0.2,0.1,0.5,0.3,0.6v1h-18v-1c0.3-0.2,0.4-0.6,0.2-0.8c-0.2-0.3-0.6-0.4-0.8-0.2c-0.2,0.1-0.3,0.3-0.3,0.5
					c0,0.2,0.1,0.4,0.3,0.5v1h-18v-1c0.2-0.1,0.3-0.3,0.3-0.5c0-0.3-0.3-0.6-0.6-0.6c-0.3,0-0.6,0.3-0.6,0.6c0,0.2,0.1,0.4,0.3,0.5
					v1H73v-1c0.3-0.2,0.4-0.6,0.2-0.9c-0.2-0.3-0.6-0.4-0.9-0.2s-0.4,0.6-0.2,0.9c0.1,0.1,0.1,0.2,0.2,0.2v1h-18v-1
					c0.2-0.1,0.3-0.3,0.3-0.5c0-0.3-0.3-0.6-0.6-0.6c-0.3,0-0.6,0.3-0.6,0.6c0,0.2,0.1,0.4,0.3,0.5v1h-18v-1
					c0.2-0.1,0.3-0.3,0.3-0.5c0-0.3-0.3-0.6-0.6-0.6c0,0,0,0,0,0c-0.3,0-0.6,0.2-0.6,0.5c0,0.2,0.1,0.5,0.3,0.6v1h-18v-1
					c0.3-0.2,0.3-0.6,0.2-0.8c-0.2-0.3-0.6-0.3-0.8-0.2c-0.2,0.1-0.3,0.3-0.3,0.5c0,0.2,0.1,0.4,0.3,0.5v1H4.3v0.9h12.1v3.8h0.6
					v-3.8h18v3.8h0.6v-3.8h18v3.8h0.6v-3.8h18v3.8H73v-3.8h18v3.8h0.6v-3.8h18v3.8h0.6v-3.8h18v3.8h0.8v-3.8h2.1L131.1,59.8z"/>
				<path class="st26" d="M53.6,58.4c0.3,0.2,0.7-0.2,0.5-0.5S53.4,58.2,53.6,58.4z"/>
				<path class="st26" d="M72.3,58.4c0.3,0.2,0.8-0.2,0.5-0.5S72,58.2,72.3,58.4z"/>
				<path class="st26" d="M91,58.4c0.3,0.2,0.8-0.2,0.5-0.5S90.7,58.2,91,58.4z"/>
				<path class="st26" d="M35,58.4c0.3,0.2,0.8-0.2,0.5-0.5S34.7,58.2,35,58.4z"/>
				<path class="st25" d="M17.4,59.8h-0.3v-1c0.2-0.1,0.3-0.3,0.3-0.5c0-0.2-0.1-0.5-0.4-0.5c0,0.1,0.1,0.2,0.1,0.2
					c0,0.3-0.3,0.6-0.6,0.6c0,0,0,0,0,0c-0.1,0-0.2,0-0.3,0c0.1,0.2,0.3,0.4,0.6,0.3h0.1v5.6h0.2v-3.9h18v-0.3H17.4V59.8z"/>
				<path class="st25" d="M54.7,60.4v-0.6h-0.3v-1c0.2-0.1,0.3-0.3,0.3-0.5c0-0.2-0.2-0.4-0.4-0.5c0,0.1,0.1,0.2,0.1,0.2
					c0,0.3-0.3,0.6-0.6,0.6c-0.1,0-0.2,0-0.3,0c0.1,0.2,0.3,0.3,0.6,0.3h0.1v5.6h0.2v-3.8h18v-0.3H54.7z"/>
				<path class="st25" d="M73.3,60.4v-0.6H73v-1c0.2-0.1,0.3-0.3,0.3-0.5c0-0.2-0.2-0.4-0.4-0.5c0,0.1,0.1,0.2,0.1,0.2
					c0,0.3-0.3,0.6-0.6,0.6c0,0,0,0,0,0c-0.1,0-0.2,0-0.3,0c0.1,0.2,0.3,0.3,0.6,0.3h0.1v5.6H73v-3.8h18v-0.3H73.3z"/>
				<path class="st25" d="M92,60.4v-0.6h-0.3v-1c0.2-0.1,0.3-0.3,0.3-0.5c0-0.2-0.1-0.4-0.4-0.5c0,0.1,0,0.2,0.1,0.2
					c0,0.3-0.3,0.6-0.6,0.6c0,0,0,0,0,0c-0.1,0-0.2,0-0.3,0c0.1,0.2,0.3,0.4,0.6,0.3h0.1v5.6h0.2v-3.8h18v-0.3H92z"/>
				<path class="st25" d="M110.7,59.8h-0.3v-1c0.2-0.1,0.3-0.3,0.3-0.5c0-0.2-0.1-0.5-0.4-0.5c0,0.1,0.1,0.2,0.1,0.2
					c0,0.3-0.3,0.6-0.6,0.6c0,0,0,0,0,0c-0.1,0-0.2,0-0.3,0c0.1,0.2,0.3,0.4,0.5,0.4h0.1v5.6h0.2v-3.9h18v-0.3h-17.7V59.8z"/>
				<path class="st25" d="M36,60.4v-0.6h-0.3v-1c0.2-0.1,0.3-0.3,0.3-0.5c0-0.2-0.1-0.4-0.4-0.5c0,0.1,0,0.2,0,0.2
					c0,0.3-0.3,0.6-0.6,0.6c0,0,0,0,0,0c-0.1,0-0.2,0-0.3,0c0.1,0.2,0.3,0.4,0.6,0.3h0.1v5.6h0.2v-3.8h18v-0.3H36z"/>
			</g>
			<g class="st23">
				<path class="st24" d="M255.9,59.8h-2.1v-1c0.2-0.1,0.3-0.3,0.3-0.5c0-0.3-0.3-0.6-0.6-0.6c0,0,0,0,0,0c-0.3,0-0.6,0.2-0.6,0.5
					c0,0.2,0.1,0.5,0.3,0.6v1h-18v-1c0.3-0.2,0.3-0.6,0.2-0.8c-0.2-0.3-0.6-0.3-0.8-0.2c-0.2,0.1-0.3,0.3-0.3,0.5
					c0,0.2,0.1,0.4,0.3,0.5v1h-18v-1c0.2-0.1,0.3-0.3,0.3-0.5c0-0.3-0.3-0.6-0.6-0.6c-0.3,0-0.6,0.3-0.6,0.6c0,0.2,0.1,0.4,0.3,0.5
					v1h-18v-1c0.2-0.1,0.3-0.3,0.3-0.5c0-0.3-0.2-0.6-0.6-0.7c-0.3,0-0.6,0.2-0.7,0.6c0,0.2,0.1,0.5,0.3,0.6v1h-18v-1
					c0.3-0.2,0.4-0.6,0.2-0.8c-0.2-0.3-0.6-0.4-0.8-0.2c-0.2,0.1-0.3,0.3-0.3,0.5c0,0.2,0.1,0.4,0.3,0.5v1h-18v-1
					c0.2-0.1,0.3-0.3,0.3-0.5c0-0.3-0.3-0.6-0.6-0.6c-0.3,0-0.6,0.3-0.6,0.6c0,0.2,0.1,0.4,0.3,0.5v1h-18v-1
					c0.3-0.2,0.4-0.6,0.2-0.9c-0.2-0.3-0.6-0.4-0.9-0.2c-0.3,0.2-0.4,0.6-0.2,0.9c0.1,0.1,0.1,0.2,0.2,0.2v1h-12.3v0.9h12.1v3.8h0.6
					v-3.8h18v3.8h0.6v-3.8h18v3.8h0.6v-3.8h18v3.8h0.6v-3.8h18v3.8h0.6v-3.8h18v3.8h0.6v-3.8h18v3.8h0.6v-3.8h2.1L255.9,59.8z"/>
				<path class="st26" d="M159.7,58.4c0.3,0.2,0.8-0.2,0.5-0.5S159.5,58.2,159.7,58.4z"/>
				<path class="st25" d="M142.1,59.8h-0.3v-1c0.2-0.1,0.3-0.3,0.3-0.5c0-0.2-0.1-0.5-0.4-0.5c0,0.1,0.1,0.2,0.1,0.2
					c0,0.3-0.3,0.6-0.6,0.6c0,0,0,0,0,0c-0.1,0-0.2,0-0.3,0c0.1,0.2,0.3,0.3,0.6,0.3h0.1v5.6h0.2v-3.9h18v-0.3h-17.7V59.8z"/>
				<path class="st25" d="M160.8,60.4v-0.6h-0.3v-1c0.2-0.1,0.3-0.3,0.3-0.5c0-0.2-0.1-0.4-0.4-0.5c0,0.1,0,0.2,0.1,0.2
					c0,0.3-0.3,0.6-0.6,0.6c0,0,0,0,0,0c-0.1,0-0.2,0-0.3,0c0.1,0.2,0.3,0.3,0.6,0.3h0.1v5.6h0.2v-3.8h18v-0.3H160.8z"/>
			</g>
			<rect x="58.3" y="63" class="st19" width="0.9" height="3.8"/>
			<ellipse class="st27" cx="58.7" cy="60.2" rx="2.5" ry="3.8"/>
			<rect x="136.8" y="62.8" class="st19" width="0.9" height="3.8"/>
			<ellipse class="st27" cx="137.2" cy="60" rx="2.5" ry="3.8"/>
			<path class="st28" d="M13.8,88.5h43.4c0.2-0.4,0-0.8-0.3-1.1c-1.1-1.2-3.9-1-3.9-1s2.8-1.4,1.1-2.4c-1.3-0.5-2.7-0.6-4.1-0.1
				c0,0,2.3-1.8-0.2-2.7l-0.3-0.1c-1.3-0.4-2.7-0.3-3.8,0.4c-0.4-0.7-1.1-1.1-1.8-1.2c-0.9-0.2-1.8,0-2.6,0.6c0,0-0.7-1.4-3.3-1.3
				c-3.5,0.1-3.7,1.5-3.7,1.5c-0.7-0.6-1.7-1-2.7-0.9c-0.7,0-1.2,0.5-1.3,1.2c0,0-1.3-1.8-5.6-1.2l0,0c0,0-0.1,0-0.1,0
				c-4.3,0.6-3.1,2.6-3.1,2.6c-1.1-0.3-2.3-0.4-3.4-0.2c-0.2,0.1-0.5,0.2-0.7,0.3c-1.4,0.9,0.1,2,0.2,2.1c-0.1,0-2.6-0.3-3.6,1
				C13.2,86.6,13.2,87.7,13.8,88.5z"/>
			<path class="st28" d="M110.6,87.8h110.3V68.4c-1.9-3.6-8.1-5.7-11.7-3.2c0,0,1.1-7-7-10.3c-4.7-1.9-10.1-1.1-13.9,2.3
				c0,0-2.6-8.4-12.7-4c-3.2-4.9-11.5-4.4-12.3,1.8c0,0-6.2-7.8-15.7-5.9s-9.6,9.5-9.6,9.5s-0.3-0.2-0.7-0.4
				c-4.2-1.9-9.1-1.5-13,0.8c-6,3.8-5.9,7.6-5.4,10.6c0.1,0.7,0.3,1.3,0.4,2c0,0-6.4-0.6-9.8,7.1C108.2,81.7,108.5,85.2,110.6,87.8z
				"/>
			<path class="st29" d="M136.5,148.1c0,0,5.4-0.8,5.2-3S136.5,148.1,136.5,148.1z"/>
			<path class="st29" d="M135.4,149c0,0,3-5.6,5.2-7s-3.9-1.5-5.2,4.3V149z"/>
			<path class="st29" d="M135.2,148.2c0,0,1.5-4.3-4.1-4.5C128.6,143.6,135.2,148.2,135.2,148.2z"/>
			<path class="st15" d="M18.4,128.4c2.3-1.3,4.8-2,7.4-2.1c4.9-0.4-5.2-2.2-8.8,2.1C16.9,128.4,15.3,130.4,18.4,128.4z"/>
			<path class="st15" d="M11.5,128.7c0,0,7.4-5.4,11.7-6.8s-4.1-1.6-9.9,2.9C13.3,124.8,10.4,127.5,11.5,128.7z"/>
			<path class="st15" d="M9.4,128.7c0,0,4.9-8.8,7.1-9.8s-3.5-1.7-7.1,5.4C9.4,124.3,7.9,128.1,9.4,128.7z"/>
			<path class="st15" d="M6.7,128.7c0,0,1.9-8,3.7-9.2S3.6,120.8,6.7,128.7z"/>
			<path class="st15" d="M5.7,128.7c0,0,0.1-6.7-3.8-7.7S4.1,125.3,5.7,128.7z"/>
			<path class="st15" d="M4.4,128.7c0,0-2.4-7.7-8.4-7.9S0.7,123.7,4.4,128.7z"/>
			<path class="st15" d="M3.9,128.7c-2.4-2-5.5-3.1-8.6-2.9C-10.1,126.1,2.6,127.7,3.9,128.7z"/>
			<path class="st15" d="M2.5,97.8c1.7-1,3.7-1.5,5.7-1.6c3.7-0.3-4-1.7-6.8,1.6C1.4,97.8,0.1,99.3,2.5,97.8z"/>
			<path class="st15" d="M-2.8,98c0,0,5.7-4.1,9-5.2S3,91.6-1.4,95C-1.4,95-3.6,97.1-2.8,98z"/>
			<path class="st15" d="M-4.4,98c0,0,3.8-6.7,5.5-7.5s-2.7-1.3-5.5,4.2C-4.4,94.7-5.5,97.6-4.4,98z"/>
			<path class="st29" d="M133.6,99.4c1.6-0.9,3.4-1.4,5.2-1.5c3.5-0.3-3.7-1.6-6.3,1.5C132.6,99.4,131.5,100.8,133.6,99.4z"/>
			<path class="st29" d="M128.8,99.6c0,0,5.3-3.8,8.3-4.9s-2.9-1.1-7,2.1C130.1,96.8,128,98.7,128.8,99.6z"/>
			<path class="st29" d="M127.3,99.6c0,0,3.5-6.2,5.1-7s-2.5-1.2-5.1,3.9C127.3,96.5,126.2,99.1,127.3,99.6z"/>
			<path class="st29" d="M125.4,99.6c0,0,1.3-5.7,2.6-6.6C129.3,92.1,123.2,94,125.4,99.6z"/>
			<path class="st29" d="M124.6,99.6c0,0,0.1-4.8-2.7-5.5S123.5,97.2,124.6,99.6z"/>
			<path class="st29" d="M123.7,99.6c0,0-1.7-5.4-6-5.6S121.1,96,123.7,99.6z"/>
			<path class="st29" d="M123.4,99.6c-1.7-1.4-3.9-2.1-6.1-2C113.4,97.7,122.4,98.9,123.4,99.6z"/>
			<ellipse class="st30" cx="-5" cy="115.6" rx="5.7" ry="1.2"/>
			<ellipse class="st31" cx="69.9" cy="135" rx="79.2" ry="23.5"/>
			<ellipse class="st32" cx="72.4" cy="134.7" rx="68.3" ry="18.4"/>
			<path class="st33" d="M71.1,100.4l11-9.7c1.2-1.1,3-1.1,4.3-0.1l2.1,1.7c1.4,1.1,1.6,3.2,0.5,4.6c0,0.1-0.1,0.1-0.1,0.2
				l-10.2,10.9c-1.1,1.4-3.2,1.5-4.5,0.4c-0.1-0.1-0.1-0.1-0.2-0.2l-2.9-3c-1.3-1.3-1.3-3.4,0-4.7C71,100.5,71,100.4,71.1,100.4z"/>
			<path class="st33" d="M79.8,106.6c-2.5,6.9-8.3,5.1-10.5,2.9s-3.3-8.2,2.3-9.7"/>
			<path class="st34" d="M70,107c0,0-0.6-3,4-6.5s11.9-9.8,11.9-9.8c0.6,0.2,1.2,0.6,1.5,1.2l-12.2,10.3c0,0-3.9,3.2-3.2,7.2L70,107
				z"/>
			
				<linearGradient id="SVGID_6_" gradientUnits="userSpaceOnUse" x1="81.0862" y1="66.3871" x2="78.1162" y2="28.8071" gradientTransform="matrix(1 0 0 -1 0 162)">
				<stop  offset="0.1" style="stop-color:#286BAD"/>
				<stop  offset="0.13" style="stop-color:#3476B3"/>
				<stop  offset="0.23" style="stop-color:#5B96C7"/>
				<stop  offset="0.33" style="stop-color:#7BB1D7"/>
				<stop  offset="0.44" style="stop-color:#94C6E4"/>
				<stop  offset="0.55" style="stop-color:#A5D4ED"/>
				<stop  offset="0.67" style="stop-color:#B0DDF2"/>
				<stop  offset="0.81" style="stop-color:#B3E0F4"/>
			</linearGradient>
			<path class="st35" d="M72,108.8c0,0,3.8-0.5,7.7-4.4s9.4-11,9.4-11s1.3,0.8-0.1,3.1l-9.1,9.8c0,0-2.8,7.7-8.4,4.2L72,108.8z"/>
			<path class="st36" d="M71.5,107.1c1.1,1.2,1.3,2.7,0.7,3.4c-1.8,1.9-2.2,0.1-3.3-1.1s-2.7-2-0.6-3.4
				C69,105.4,70.4,105.9,71.5,107.1z"/>
			<ellipse transform="matrix(0.7539 -0.657 0.657 0.7539 -54.4722 72.4232)" class="st33" cx="69.4" cy="108.9" rx="1.7" ry="3"/>
			<path class="st33" d="M71.5,110.8c-0.4,0.4-1.3,0.1-2.2-0.6c-0.2-0.2-0.4-0.4-0.6-0.6c-1-1.1-1.3-2.4-0.8-2.9s1.8,0.1,2.8,1.2
				c0.1,0.2,0.3,0.3,0.4,0.5C71.7,109.4,71.9,110.4,71.5,110.8z"/>
			<path class="st37" d="M71.5,110.8c-0.4,0.4-1.3,0.1-2.2-0.6l1.7-1.8C71.7,109.4,71.9,110.4,71.5,110.8z"/>
			<path class="st38" d="M71.4,100c0,0,1.4-0.4,4.7,2.7s3.3,4.6,3.3,4.6s0-2.1-3-5S71.4,100,71.4,100z"/>
			<path class="st39" d="M18.5,99.6c-1.1-3.3-6.3-3.1-8-1.7c0,0-1.9,0.9-2.6,12.6l-0.6,6.4c0,0-0.8,3.2,2.1,4.3
				c2.1,0.8,7.1,1.5,9,0.1S18.5,99.6,18.5,99.6z"/>
			<path class="st40" d="M17.6,98.8c-9.1-4.4-9.4,9.9-10.5,16.8c-0.2,3.4,6.9,4.7,10.4,3.4s1.6-17.1,1.6-17.1"/>
			<path class="st39" d="M19.5,102.3c0,0,1.2-2.1-1.3-3.2c-4.9-2.8-11.6,6.3-5.3,9.6C12.3,104.9,14.3,99.5,19.5,102.3z"/>
			<path class="st41" d="M12.9,108.9c0,0-2.2-1-2.6-2.9c-2.9,2.1-0.7,7.1,3.7,6.2L12.9,108.9z"/>
			<path class="st40" d="M11.1,111.9c-1.1-0.1-2.2,0.5-2.7,1.5"/>
			<path class="st42" d="M35.8,128.1c-8.3,5.7-15-0.8-20-12.4c-3.2-7.6-4.3-12.5-0.7-14.3c0,0,2.2-1,3.5,0.5l3.9,4.4
				C22.6,106.3,39.9,115.5,35.8,128.1z"/>
			<path class="st42" d="M57.2,123.8c-1.2,7-11.7,6.4-15.6,0C39.1,120,57.3,120,57.2,123.8z"/>
			<path class="st43" d="M57.2,104.6l0.7,18.6c-5,5.1-17.3,4.3-21-1.2l1.4-16.4L57.2,104.6z"/>
			<path class="st44" d="M57.2,104.6c0,0,1.2,16.3,0.7,18.6c-4.8,5.1-15.3,3.9-19.9,0.1"/>
			<path class="st43" d="M45.8,108.8c0,0-0.9,7.9-1.2,7.8s-4.3,2-5.3,1.7c0,0-0.8,8.7-1.7,9.5s-13.2,0.8-18-9.5l1.7-20.1L45.8,108.8
				z"/>
			<path class="st44" d="M44.9,108.9l-1.8,8c0,0-2.3,1.4-3.8,1.3c0,0-0.5,7.7-1.7,9.5c0,0-5.6,2.2-12.6-3.1c-5-3.7-5.4-6.4-5.4-6.4
				l1.7-20.1"/>
			<path class="st44" d="M26.8,104.2c0,0-3.2,4-6.4,3"/>
			<path class="st45" d="M57.2,110.3c-12.8,6.6-26.9-0.4-36-7.2l0.2-3.6l35.5,5.3L57.2,110.3z"/>
			<path class="st46" d="M22.2,78.2l-1.9,21.3c0.4,4.4,7.8,8.1,12.2,9.7c7.4,2.5,15.5,2.1,22.6-1.3c1.7-0.8,2.8-2.6,2.6-4.5
				c-0.8-10.9,0.9-26.9,0.9-26.9c1.4-0.8,1.2-1.7,1.2-1.7l3-9.7l-5.3-6.6c-14.6-4-11.1-4.7-26.2-1.5l-9.1,11.9V78.2z"/>
			<path class="st47" d="M57.5,88.3c0,0-21,5.5-35.8-6.1l-0.3,3.5c0,0,13.3,10.1,36,5.6L57.5,88.3z"/>
			<path class="st48" d="M74.1,69.8c0.1,0.5,0.1,1.1-0.2,1.6l-1.4-1.5L74.1,69.8z"/>
			<path class="st49" d="M74.1,93.3c-2.3-12.2-6.5-12.6-9.2-14.9c0,0,2.6-7.6,7.5-8.9c5.9,6.8,8.1,5.7,9.4,21.5"/>
			<path class="st50" d="M69.2,77.4c-0.2,0.7-0.3,1.5-0.3,2.2c0,0.4,0.2,0.7,0.2,1s0.1,0.7,0.1,1.1h-0.1c-0.4-0.2-0.6-0.6-0.8-1
				c-0.1-0.4-0.2-0.8-0.1-1.3c0.1-0.8,0.4-1.6,0.8-2.2L69.2,77.4z"/>
			<path class="st51" d="M67.7,80c0,0-1.2-0.8-1.6-1.1s1.9-6.2,4.2-8.3l2.1-0.7l1.6,1.7C74,71.6,70,73.8,67.7,80z"/>
			<path class="st49" d="M81.4,90.6c1.7,1,0.7,8.2-3.5,7c-1.9-0.5-2.3-0.4-3.3,0s-0.9,0.7-2.5,1.8c-0.6,0.4-1-0.1-1.1-0.7
				c-0.2-1-0.1-2,0.2-2.9c1-1.9,2.6-3.2,3.9-3.3"/>
			<path class="st49" d="M14.4,70.7c0,0-8.3,8.3-5.7,10.7l3,3c0,0,8.7-4.8,8.6-5.1S21.4,71.4,14.4,70.7z"/>
			<path class="st52" d="M53.6,61.9c-0.5,5-16.3,3.1-14.4-4.7C40.6,54,53.7,58.1,53.6,61.9z"/>
			<path class="st46" d="M54.4,60.2l6-0.8c5.4,2.8,13.2,10.4,13.2,10.4c-5.4,3.1-7.3,9.9-7.3,9.9c-2.7-1.5-5.2-3.3-7.5-5.3"/>
			<path class="st47" d="M73.1,69.7c0,0-4.4,2-6.9,9.5l-2.6-1.6c1.2-4.1,4-7.5,7.8-9.5L73.1,69.7z"/>
			<path class="st52" d="M67.9,50c-2.1,2.7-5.4,3.4-7.6,1.8s-1-3.1,1.1-5.8s2.1-2.4,4.8-3C72.1,41.5,70,47.3,67.9,50z"/>
			<path class="st53" d="M66.8,44.4c4-0.2-1.8,8.1-3.7,6.5c-0.7-1.6,1.8-2.1,2.6-3.1c0.6-1-0.9-1.2-1.6-1.2
				C64.3,45.4,65.7,44.6,66.8,44.4z"/>
			<path class="st52" d="M65.4,29.5c-8.7-7.5,5.7-12.4-7.4-14.6C45.5,12.7,37,17.7,34.6,28.8c-1.1,5.1-0.4,10.8-0.5,11.1
				C29.9,57,46,67.2,58,60.1c4.1-2.2,7.7-6.1,9.4-15.2C67.5,44.7,72.7,35.8,65.4,29.5z"/>
			<path class="st54" d="M45,49.8c1.5,0.7,11.6,2.3,13.2,2.4C52.6,59.6,47.8,58.8,45,49.8z"/>
			<path class="st55" d="M51.5,51.4c-1.8-0.4-6.8-2-6.8-2c4.4,7.8,7,8.8,13.9,2.4C56.2,51.8,53.8,51.7,51.5,51.4z"/>
			<path class="st56" d="M53.5,54.3c-0.3-0.2-2.1-0.6-2.4-0.3c-1-0.6-3.5-1-3.6-0.3c1.6,2.1,3.7,3.3,6,1.8
				C54.5,55,55.4,54.9,53.5,54.3z"/>
			<path class="st53" d="M58.5,50.7c0,0-0.3,1.9,0.4,2.3s0.1-0.6,0-1L58.5,50.7z"/>
			<path class="st53" d="M45.3,48.3c-0.2,2.5-2.4,2.5-0.8,1.1C44.8,49,45.1,48.7,45.3,48.3z"/>
			
				<linearGradient id="SVGID_7_" gradientUnits="userSpaceOnUse" x1="1716.3635" y1="265.4033" x2="1716.5135" y2="261.8533" gradientTransform="matrix(1.41 0.22 0.26 -1.63 -2436.7 98.3)">
				<stop  offset="0" style="stop-color:#E8D9D7"/>
				<stop  offset="0.4" style="stop-color:#EFE5E4"/>
				<stop  offset="1" style="stop-color:#FFFFFF"/>
			</linearGradient>
			<path class="st57" d="M46.2,50c-0.4,3.4,9.7,5.6,10.4,1.9c-1.8,0.1-3.5,0-5.2-0.4C49.8,51.2,48.1,50.1,46.2,50z"/>
			<path class="st54" d="M44.7,49.4c1.9,1.3,4.1,2.2,6.4,2.7c6.7,0.9,7.5-0.2,7.5-0.2c-2.4-0.1-4.9-0.3-7.3-0.7
				C49.5,50.7,44.7,49.4,44.7,49.4z"/>
			<path class="st58" d="M48.2,32.1C47,32,42.6,32.7,42,35.4c1.9-1,4-1.7,6.2-1.8C48.2,33.5,48.9,32.2,48.2,32.1z"/>
			<path class="st58" d="M60.5,34.5c1.3,0.2,5.3,1.7,5.3,4.5c-1.6-1.4-3.6-2.5-5.6-3.2C60.2,35.8,59.8,34.4,60.5,34.5z"/>
			<path class="st53" d="M43.4,24.9c0,0,2,4.3,16.2,6.8v-2c0,0,0.4,2.8,8.3,5.7l-0.6,10.4L73.5,25L44,17.3l-5.4,3.9l-0.8,5.7
				c0,0-4.9,10.8-5.1,14.8l1,0.3c2.3-2.1,3.6-5.5,4.8-8.3C38.4,33.6,41,35.3,43.4,24.9z"/>
			<path class="st58" d="M42.8,21.9c0,0-2.3,4.1,16.5,8.6c0,0-0.5-0.3-1.3-5c1.1,5.9,6,6.9,9.4,8.7l2.6-5.3l-2.7,17
				c2-4,5.7-8.3,6.2-16c0.3,1.2,0.5,2.5,0.5,3.8c0,0,6.3-11.2-4.7-18.1c0,0,1.6-0.2,4.2,1.8c-0.9-6.1-20.9-17.8-30.3-7.7
				c0,0-5.2-4-10.1,4.1c0,0,4.7-2.2,6.2-0.8c0,0-4.8-1-8.3,8c-3,7.6-0.5,14.6,2.6,21.3c2.5-3.5,4-7.7,4.3-12l1.1,3
				C38.9,33.1,42.4,31.5,42.8,21.9z"/>
			<path class="st59" d="M49.7,39.8c0.3,5.3-7.9,5.8-8.3,0.5C41.1,34.9,49.3,34.5,49.7,39.8z"/>
			<path class="st60" d="M48.5,42.4c0,1.6-4.8,2.6-4.8,0.3C43.4,39.5,48.5,39.2,48.5,42.4z"/>
			<path class="st61" d="M45.6,41c0.1,0.4-0.1,0.8-0.5,0.8c-0.4,0.1-0.8-0.1-0.8-0.5s0.1-0.8,0.5-0.8C45.1,40.5,45.5,40.7,45.6,41
				L45.6,41z"/>
			<path class="st59" d="M64.4,43c-0.6,5.4-8.7,4.6-8.2-0.8C56.8,36.7,64.8,37.5,64.4,43z"/>
			<path class="st60" d="M63.2,45c0,1.6-4.8,2.6-4.8,0.3C58,42.1,63.1,41.8,63.2,45z"/>
			<path class="st61" d="M60.3,43.6c0.1,0.4-0.1,0.8-0.5,0.8c-0.4,0.1-0.8-0.1-0.8-0.5s0.1-0.8,0.5-0.8
				C59.8,43.1,60.2,43.3,60.3,43.6z"/>
			<path class="st62" d="M50.3,46.6c1.3,2.4,7.5,2.7,5.5-1.6"/>
			<path class="st63" d="M50.3,46.6c0.5,0.5,1.1,0.9,1.8,1.1c0.7,0.2,1.4,0.3,2.1,0.2c0.6,0,1.2-0.3,1.6-0.9c0.2-0.7,0.2-1.4,0-2.1
				c0.5,0.6,0.7,1.5,0.5,2.3c-0.1,0.4-0.4,0.8-0.8,1c-0.2,0.1-0.4,0.2-0.6,0.3l-0.6,0.1c-0.8,0.1-1.6-0.1-2.3-0.4
				C51.2,48,50.6,47.4,50.3,46.6z"/>
			<path class="st52" d="M33.5,46.8c-7.6,4.8-9-15.1-2.3-9.8c1.5,1.3,2.5,3.1,2.8,5.1"/>
			<path class="st53" d="M30.1,38c-3.1-1.1-1.6,6.2-0.4,7.2c0.6,0.5,1.2-0.2,1.1-0.8c-0.1-0.8-0.4-1.6-0.9-2.2
				c-0.8-1.3,0.4-1.7,1.4-1.2C31.6,39.9,31.1,38.7,30.1,38z"/>
			<path class="st46" d="M34.8,56.2c-8.5-0.9-17.5,10.1-20.7,14.3c0,0,5.9,4.2,7.9,10.1"/>
			<path class="st47" d="M19.6,75.5c0,0-3.3-4-5.1-5.1l1.6-1.8c0,0,4.8,4.2,5.5,6.8L19.6,75.5z"/>
			<path class="st64" d="M29.3,66c0.3,1.5,0.3,3,0.1,4.5c0,0.8-0.3,1.6-0.6,2.2c-0.4,0.7-1.1,1.2-1.9,1.4l0-0.1
				c0.4-0.6,0.7-1.2,1-1.8c0.3-0.6,0.5-1.3,0.8-1.9c0.2-0.7,0.3-1.4,0.4-2.1c0.1-0.7,0.2-1.5,0.2-2.2L29.3,66z"/>
			<path class="st49" d="M14.6,75.1c3.6,0.9,7.3,0.9,10.9,0c8.1,7.3-11.5,20.2-17.1,6"/>
			<path class="st49" d="M23.1,76.4c1.8-1.5,3.5-3.2,5-5c0,0,5.4,3.6,6.6,6.6s-2.5,1.7-2.5,1.7s1.4,3-1.6,2.5c0,0,0.8,3.1-2.2,2.6
				c0,0-0.9,2.4-3.1,0.7c-1.7,0.4-3.4,0.1-4.9-0.7"/>
			<path class="st50" d="M25.3,85.3c-0.5-0.1-1-0.3-1.5-0.6c-0.2-0.1-0.5-0.3-0.6-0.5C23,83.9,23,83.6,23,83.3H23
				c0.3,0.1,0.5,0.2,0.7,0.4c0.2,0.2,0.3,0.4,0.5,0.6C24.5,84.7,24.9,85,25.3,85.3L25.3,85.3z"/>
			<path class="st65" d="M32.2,79.7c-0.8-0.9-1.9-1.6-3-2.1"/>
			<path class="st50" d="M32.2,79.7c-0.5-0.4-1-0.7-1.5-1c-0.3-0.1-0.5-0.2-0.8-0.4c-0.3-0.2-0.5-0.4-0.7-0.7v-0.1
				c0.3-0.1,0.7,0,1,0.1c0.3,0.1,0.5,0.3,0.8,0.6C31.4,78.6,31.8,79.1,32.2,79.7L32.2,79.7z"/>
			<path class="st65" d="M30.6,82.2c-0.7-0.8-1.5-1.5-2.3-2.1"/>
			<path class="st50" d="M30.5,82.2c-0.4-0.3-0.8-0.7-1.3-1c-0.2-0.1-0.4-0.3-0.6-0.4c-0.2-0.2-0.3-0.5-0.4-0.7V80
				c0.3,0,0.6,0.1,0.8,0.2c0.2,0.2,0.4,0.4,0.6,0.6C30,81.2,30.3,81.6,30.5,82.2L30.5,82.2z"/>
			<path class="st65" d="M28.3,84.8c-0.5-0.8-1.2-1.4-1.9-2"/>
			<path class="st50" d="M28.3,84.8c-0.4-0.3-0.7-0.6-1.1-0.9c-0.2-0.1-0.4-0.2-0.5-0.4c-0.2-0.2-0.3-0.4-0.3-0.7l0-0.1
				c0.3,0,0.5,0.1,0.8,0.2c0.2,0.2,0.3,0.3,0.5,0.6C28,83.9,28.2,84.3,28.3,84.8L28.3,84.8z"/>
			<path class="st51" d="M17.7,75.4c-1.2-1.3-2.6-2.5-4.1-3.5l0.8-0.9c1.7,1.3,3.2,2.8,4.5,4.5C18.5,75.5,18.1,75.5,17.7,75.4z"/>
			<path class="st49" d="M78.1,97.6c0,0,5.3,2.1,3.5,7.1c0,0,2.3,2.2,3.1-2c0,0,1.7,1.5,2.3-2.1c0,0,1.2-0.1,1.4-2.4
				c0,0,4.3-3.7-7.1-8.4"/>
			<path class="st49" d="M84.7,102.8c0,0,0.7-4-2-5.8"/>
			<path class="st49" d="M86.8,101.2c0,0,0.3-4.5-2.4-5.4"/>
			<path class="st49" d="M88.3,98.3c-0.3-1.3-1-2.5-1.8-3.5"/>
			
				<linearGradient id="SVGID_8_" gradientUnits="userSpaceOnUse" x1="75.6378" y1="55.2715" x2="56.7679" y2="28.8415" gradientTransform="matrix(1 0 0 -1 0 162)">
				<stop  offset="0.1" style="stop-color:#286BAD"/>
				<stop  offset="0.13" style="stop-color:#3476B3"/>
				<stop  offset="0.23" style="stop-color:#5B96C7"/>
				<stop  offset="0.33" style="stop-color:#7BB1D7"/>
				<stop  offset="0.44" style="stop-color:#94C6E4"/>
				<stop  offset="0.55" style="stop-color:#A5D4ED"/>
				<stop  offset="0.67" style="stop-color:#B0DDF2"/>
				<stop  offset="0.81" style="stop-color:#B3E0F4"/>
			</linearGradient>
			<path class="st66" d="M70.9,110.8c0,0-3.2,0.1-3.3,14.2c0,0-1.7,2.2-1.1-5.5c0,0-1.6,0.7-0.8-3.2c0.4-1.8,1-3.5,1.8-5.1
				c0.7-1.4,2-2.4,3.6-2.6l0,0C71.1,108.6,72.3,110.8,70.9,110.8z"/>
			
				<linearGradient id="SVGID_9_" gradientUnits="userSpaceOnUse" x1="71.0517" y1="47.2488" x2="67.3617" y2="42.0688" gradientTransform="matrix(1 0 0 -1 0 162)">
				<stop  offset="0.1" style="stop-color:#286BAD"/>
				<stop  offset="0.13" style="stop-color:#3476B3"/>
				<stop  offset="0.23" style="stop-color:#5B96C7"/>
				<stop  offset="0.33" style="stop-color:#7BB1D7"/>
				<stop  offset="0.44" style="stop-color:#94C6E4"/>
				<stop  offset="0.55" style="stop-color:#A5D4ED"/>
				<stop  offset="0.67" style="stop-color:#B0DDF2"/>
				<stop  offset="0.81" style="stop-color:#B3E0F4"/>
			</linearGradient>
			<path class="st67" d="M69.4,114.6c0,0-1.1,2.6,0,3.8S70.8,116.1,69.4,114.6z"/>
			
				<linearGradient id="SVGID_10_" gradientUnits="userSpaceOnUse" x1="66.5703" y1="53.0826" x2="63.7203" y2="49.0926" gradientTransform="matrix(1 0 0 -1 0 162)">
				<stop  offset="0.1" style="stop-color:#286BAD"/>
				<stop  offset="0.13" style="stop-color:#3476B3"/>
				<stop  offset="0.23" style="stop-color:#5B96C7"/>
				<stop  offset="0.33" style="stop-color:#7BB1D7"/>
				<stop  offset="0.44" style="stop-color:#94C6E4"/>
				<stop  offset="0.55" style="stop-color:#A5D4ED"/>
				<stop  offset="0.67" style="stop-color:#B0DDF2"/>
				<stop  offset="0.81" style="stop-color:#B3E0F4"/>
			</linearGradient>
			<path class="st68" d="M66.2,109.4c0,0-2.5,0.7-1.3,2S66.2,109.4,66.2,109.4z"/>
			<path class="st69" d="M57.2,143.5c-0.2-0.7,0.2-1.3,0.9-1.5c0.1,0,0.1,0,0.2,0c0.4-0.1,0.7-0.1,1.1-0.1c6.2,2.2,9.7,4,17.2,4.1
				c6,0,12-1.3,17.4-4c0.9-0.4,1.8-0.5,2.7-0.4c0.8,0,1.5,0.6,1.5,1.4c0,0.1,0,0.3,0,0.4C96.5,151.9,58.9,151.9,57.2,143.5
				L57.2,143.5z"/>
			<path class="st70" d="M57.6,143.1c-0.2-0.8,0.1-0.9,0.6-1.4c1.3-1.5,2-6,2.7-8.4c0.4-1.3,1.1-3.5,2.1-4.3
				c5.1-4.1,24.4-4.1,29.5,0c1,0.8,1.7,3.1,2.1,4.3c0.8,2.3,1.4,6.9,2.7,8.4c0.5,0.5,0.7,0.6,0.6,1.4
				C96.2,151.1,59.2,151.1,57.6,143.1z"/>
			<path class="st71" d="M93.6,130.6c0.4,0.9,0.7,1.8,1,2.7c0.8,2.3,1.4,6.9,2.7,8.4c0.5,0.5,0.7,0.6,0.6,1.4
				c-1.6,7.7-35.8,8-39.9,0.9c4.3,4.7,19.7,5,26.1,3.7c2.8-0.6,4.5-1.4,0-1c-5,0.4-9.7,0.4-13.4-0.8c5,0.6,13.7,0.4,19.5-2.1
				C95.2,141.6,94.5,136.2,93.6,130.6L93.6,130.6z"/>
			<path class="st72" d="M77.7,126.5c7.4,0,13.5,1.7,13.5,3.7s-6,3.7-13.5,3.7s-13.5-1.7-13.5-3.7S70.2,126.5,77.7,126.5z"/>
			<path class="st73" d="M90.5,131.3c-1.8,1.5-6.8,2.6-12.8,2.6s-11.1-1.1-12.8-2.6c1.8-1.5,6.8-2.6,12.8-2.6S88.8,129.8,90.5,131.3
				z"/>
			<path class="st74" d="M71.4,133.5c-0.9-0.1-1.7-0.3-2.4-0.4c-1.5-0.6-2.5-1.4-0.9-2.2c2.7-1.4,8-1.2,10.6-1.3
				c-1.5,0.1-7.3,0.1-8.6,1.7C69.3,132.3,70.3,132.9,71.4,133.5z"/>
			<path class="st75" d="M89.2,132.1c-0.6,0.2-1.2,0.5-1.8,0.6c0.1-0.2,0.2-0.4,0.1-0.6c-0.4-2-4.3-2.3-6.1-2.6
				c2,0.1,6.6,0.5,7.7,2.3C89.1,131.9,89.1,132,89.2,132.1z"/>
			<path class="st76" d="M49.5,141.3l-0.5,0.8l3.2,0.5c0,0,0,1-2.9,0.2c0,0,2.2,0.5,2.5,1.2s-3.2-0.8-3.2-0.8l0.8,1.6
				c0,0-0.7,1.1-1.4-1.6l-0.7-0.8l1.2-1.6L49.5,141.3z"/>
			<polygon class="st77" points="51.3,138.9 49.5,141.3 47.8,141.1 48.7,138.8 			"/>
			<path class="st76" d="M51.8,139l3.2,0.8c0,0,0.7-0.4-1.4-1.1c0,0,3.2,0.7,2-0.1l-1-0.3l1.6-0.5C56.1,137.7,54.5,136.8,51.8,139z"
				/>
			<path class="st78" d="M56.3,118.4c1,2.7,1.7,5.4,2.1,8.3c0.4,3.6,1.4,11-9.3,13.4c0,0-5.9,1.9-3.9-8.3c0,0-5-13,4.6-15.5l0.3-0.1
				C50.2,116.2,53.6,113.7,56.3,118.4z"/>
			<path class="st79" d="M56.4,121.3c0.1,0.5,0.5,0.6,0.5,0.6c1,0.7,2.2,0.6,3.2-0.1l0,0l-1.3-0.9l0,0h0.1c0.3-0.1,0.5-0.1,0.8-0.3
				c1-0.4,1.2-0.9,1.2-0.9l-2.6-0.2c-0.9-0.1-1.7,0.5-1.8,1.3C56.4,121,56.4,121.2,56.4,121.3z"/>
			<path class="st80" d="M58.8,120.9c0.3-0.1,0.5-0.1,0.8-0.3L58.8,120.9z"/>
			<path class="st80" d="M57.7,121.1c0.7,0.4,1.5,0.7,2.3,0.7l-1.3-0.9C58.4,121,58,121.1,57.7,121.1z"/>
			<ellipse class="st76" cx="53.2" cy="121.3" rx="1.2" ry="1.6"/>
			<ellipse class="st81" cx="52.8" cy="120.3" rx="0.4" ry="0.5"/>
			<path class="st76" d="M52,118.4c-0.8,0-1.5,0.6-1.5,1.4C50.5,119.8,49.7,117.5,52,118.4z"/>
			<path class="st82" d="M43.5,135.7c0,0-4.6,3.2-7.5,5.5c0,0-0.8,1.4,1.1,1.8c0,0-0.1,1,0.7,1.1c0.6,0.1,1.2,0,1.7-0.2
				c0,0-0.2,1.1,0.6,1.2s0.6-0.5,4.1-7.7C44.1,137.4,45.3,135.7,43.5,135.7z"/>
			<line class="st83" x1="37" y1="143" x2="43.3" y2="136.6"/>
			<line class="st83" x1="39.5" y1="143.8" x2="43.4" y2="136.8"/>
			<path class="st84" d="M47.3,123.6c0,0-9.6,6.1-6.1,14.7c0,0,6,4.3,8.9,0.2S47.3,123.6,47.3,123.6z"/>
			<path class="st85" d="M40.7,120.4l0.7-0.5c-0.7,8.2,2,12,2,12s4.8,2.2,7.8-0.6s2.1-3.5,2.3-5.2s-4,0.5-6-1.8
				c-1.6-1.8-1.4-4.5,0.4-6.1c0.9-0.8,2-1.1,3.1-1c4.8-0.1,5.9,3.1,5.9,3.1c0-0.3,0-0.5-0.1-0.8c-0.3-1.7-1.7-5.6-7.4-5.6
				c-8.5,0.1-9.5,3.8-9.5,3.8c0.9-0.5,1.8-0.9,2.8-1.2c-1.2,1.3-2.2,2.8-2.8,4.5L40.7,120.4z"/>
			<path class="st82" d="M40,121l0.7-0.6c1.9-2,4.4-3.3,7.2-3.8c5.2-1,7.7,0.7,9,2.8c-0.3-1.7-1.7-5.6-7.4-5.6
				c-8.5,0.1-9.5,3.8-9.5,3.8c0.9-0.5,1.8-0.9,2.8-1.2C41.6,117.8,40.6,119.3,40,121z"/>
			<path class="st86" d="M43.2,136c0.1,1.5,4,5.7,6.7,3.4c0.6-0.5,1-1.1,1.3-1.9c2.6-5.7-1.3-7.6-1.3-7.6c-3.7-0.4-5.9,2.5-6.5,4.6
				C43.2,135.1,43.1,135.6,43.2,136z"/>
			<path class="st87" d="M43.3,134.8c0.1,1.2,3.9,4.1,6.5,4.6c0.2,0,0.9-0.9,0.9-1c-1.5-0.5-5.4-2.2-6.8-5
				C43.6,133.8,43.4,134.3,43.3,134.8z"/>
			<path class="st88" d="M43.2,136c0.1,1.5,4,5.7,6.7,3.4c-1.5-0.5-5.1-1.9-6.5-4.8C43.2,135.1,43.1,135.6,43.2,136z"/>
			<path class="st89" d="M137.1,115.2l0.1,1.3c0,0-3.6-3.2-2.9-6.9s2.5-3.8,3.8-5.4c1.3-1.5,1.1-3.8-0.3-5.1
				c-0.1-0.1-0.2-0.2-0.3-0.2c-1.8-1.1-4.8-0.2-5.9,2.6v-1.9c0,0-3.6,4.3-3.2,9.1s4.5,8.3,6.7,10.6c0.7,0.9,1.2,1.9,1.2,3.1v0.1
				c-0.1,2.2-1.7,4.3-5.3,4l-1.2,3.6l0.3-0.1c0,0,8.3,0.3,9.2-6.1S137.1,115.2,137.1,115.2z"/>
			<g class="st90">
				<path class="st91" d="M136.2,105.9c0,0-0.5-2.3-3.7-2.5c-0.5,0.1-0.9,0.2-1.3,0.4c0.5-0.1,1,0,1.5,0.3c0.6,0.4,2.4,1.6,2.6,2.9
					L136.2,105.9z"/>
				<path class="st91" d="M137.3,104.9c0,0,0.6-3.7-2.8-4c1-0.3,2.1-0.1,2.9,0.6c0.7,0.6,1,1.5,0.8,2.4
					C138,104.3,137.7,104.7,137.3,104.9z"/>
				<path class="st91" d="M134.4,108.9c-1-0.4-2-0.5-3-0.5c-0.7,0.1-1.4,0.5-1.8,1.2c0.6-0.2,1.2-0.4,1.8-0.4
					c0.9,0.3,1.9,0.6,2.7,1.1L134.4,108.9z"/>
				<path class="st91" d="M134.6,112.6c0,0-1.5-0.8-2.4-0.3c0,0,2.4,0.7,3.1,1.7L134.6,112.6z"/>
				<path class="st91" d="M137.2,116.5c-0.9-0.1-1.8-0.4-2.6-0.9c-0.7-0.6-1-0.8-1-0.8c0.9,0.4,1.8,0.7,2.8,0.8L137.2,116.5z"/>
				<path class="st91" d="M133.8,118c1,0,2,0.1,3,0.4c0.6,0.3,1.1,0.7,1.5,1.2c-1.1-0.4-2.2-0.6-3.4-0.4L133.8,118z"/>
				<path class="st91" d="M137.5,121.1c0,0,1.9,0.6,2.1,1.5c0,0,0,0.9-0.1,1.2C139.5,123.8,138,121.4,137.5,121.1z"/>
				<path class="st91" d="M137.2,124.7c0.3,0.9,0.5,1.8,0.4,2.7c0,0-0.8,0.7-1,0.8C137,127.1,137.2,125.9,137.2,124.7z"/>
			</g>
			<path class="st92" d="M117.7,130.8h-8.8c0,0-0.2-3,6.6-3.1c0,0-2.4-2.5-2.8-4.7s13.7-0.3,13.7-0.3l-0.8,7.7L117.7,130.8z"/>
			<path class="st93" d="M126.4,110.3c-5.2-5.9-8.4-7.7-11.8-12s-11.5-2.5-11,0.1l-0.1-0.1c0,0-1.2,9.4,0.1,12.8
				c1,2.2,2.2,4.2,3.8,6l0.1-0.1c0,0,7,7.2,9.8,9.2c1.5,1,3.1,1.8,4.8,2.4c0.4,0.1,0.8,0.1,1.3,0.2c5.7,0.8,8.3-8.1,8.3-8.1
				S131.6,116.1,126.4,110.3z"/>
			<path class="st92" d="M116.5,107.3c2.3,5.1,1.5,11-2.1,15.2l-0.4,0.3l-1.9-3.8L116.5,107.3z"/>
			<path class="st94" d="M103.7,99.3c0,0-3,1.3-3.4,7.9v1.6c-1.7-1.5-3.5-2.9-5.4-4.2c-1.7-1-4.8-1.8-7-0.3c0.9,2.3,3.1,3.7,5.6,3.6
				c0,0,6.7,8.5,8.1,9.1s4.6,0.2,6.3-2.8S103.7,99.3,103.7,99.3z"/>
			<path class="st92" d="M109.9,99c1.8,0.6,3.7,0.7,5.5,0.3l-0.7-1L109.9,99z"/>
			<path class="st93" d="M116.3,97.8c0.1-0.5,0.1-1,0-1.5l0.4,0.3c0.2-0.9,0.2-1.9,0-2.9l0.1-0.2l0,0c4.2-7,0.5-11.9,0.5-11.9
				l-0.3,0.1c-1.1,0.2-3.9,3.7-3.9,3.7l0,0c-1.4-1-3.1-1.6-4.8-1.7l-3-4.7c-1.9-0.3-3.3,7.4-3.3,7.4s-3,1.2-3.3,2.7
				c-0.3,1.3,0.9,4.2,1.2,5c0.8,1.6,2.1,2.9,3.7,3.7c2.7,1.3,7.8,1.4,10.4,1c0.7-0.1,1.3-0.4,1.8-0.8l-0.1-0.6L116.3,97.8z"/>
			<path class="st95" d="M102,89.5c0.6,0,1.1-0.1,1.6-0.3c0.6-0.3,1.8-1.6,2.8-1s1,2.2,1,2.2c0.1,0.7,0.4,1.4,0.8,2
				c0.7,0.6,3.8,1.7,3.1,3.4c-0.2,0.5-0.4,1-0.8,1.4c-0.4,0.5-0.6,1.1-0.7,1.8c-1.8,0-3.5-0.1-5.3-0.3c-1.6-0.3-3-1.4-3.6-2.8
				c-1.1-2.1-1.5-3.9-1.2-5.3C99.9,90.5,100.1,89.4,102,89.5z"/>
			<path class="st92" d="M110.1,84c0,0-1.7,0.5-3.8,3.7c1.3-1.5,2.9-2.7,4.8-3.4C111.2,84.4,110.4,84.1,110.1,84z"/>
			<path class="st92" d="M111.8,84.7c-1.4,0.8-2.7,1.7-3.8,2.9c0,0,3.5-2.2,4.6-2.4C112.6,85.1,112,84.8,111.8,84.7z"/>
			<path class="st92" d="M108.4,83.7c-1,0.7-1.7,1.7-2.3,2.8c0,0,2.2-2.4,3.1-2.7C109,83.8,108.7,83.7,108.4,83.7z"/>
			<path class="st92" d="M112.5,93.8c1.4-0.2,2.9,0,4.2,0.5c0,0,0.1,1,0.1,1.3C116.8,95.6,113.2,94,112.5,93.8z"/>
			<path class="st92" d="M112.6,95.5c0,0,1.2-0.4,3.7,1.2c0.1,0.3,0.1,0.7,0,1.1C115.1,96.9,113.9,96.2,112.6,95.5z"/>
			<path class="st92" d="M99.2,88.1c0.4,0.2,0.7,0.5,1,0.9c0.1-0.5-0.1-1-0.4-1.4C99.6,87.8,99.4,87.9,99.2,88.1z"/>
			<path class="st92" d="M98.6,89.5c0.4,0.3,0.8,0.6,1.1,1c-0.1-0.7-0.4-1.3-0.9-1.8C98.7,88.9,98.6,89.2,98.6,89.5z"/>
			<path class="st92" d="M111.8,86.7c-0.7,0.7-1.6,1.2-2.6,1.3c0.6,0,1.2,0,1.7,0C111.3,87.9,111.8,86.7,111.8,86.7z"/>
			<path class="st92" d="M105.6,85.6c-0.1,0.4-0.1,0.9,0.1,1.3c0,0-0.5-0.4-0.4-0.6C105.3,86,105.4,85.8,105.6,85.6z"/>
			<path class="st96" d="M116.8,81.7c0,0-2.2,1.1-4.5,4.8c1.5,1.7,2.5,3.6,3.1,5.8C115.4,92.3,119.7,86.7,116.8,81.7z"/>
			<path class="st96" d="M105.9,84.7c-0.3-1.3-1-4.9-0.6-5.8l0,0c-1.9-0.3-3.3,7.4-3.3,7.4C103.3,85.7,104.6,85.2,105.9,84.7z"/>
			<path class="st59" d="M103.4,86c-0.6,0.1-1.1,0.6-1.4,1.2c-0.4,0.6-0.3,1.5,0.4,1.9c0.1,0,0.1,0.1,0.2,0.1c0.7,0,1.4-0.3,1.8-0.8
				C104.3,88.3,104.4,86.6,103.4,86z"/>
			<path class="st60" d="M104.2,87.2c-0.1-0.5-0.4-0.9-0.8-1.2c-0.6,0.1-1.1,0.6-1.4,1.2c-0.3,0.4-0.3,1-0.1,1.4
				C102.3,88.6,103.3,88.6,104.2,87.2z"/>
			<path class="st61" d="M103.2,86.9c-0.1,0.1-0.2,0.2-0.3,0.1c0,0,0,0,0,0c-0.1-0.1-0.1-0.2-0.1-0.3c0,0,0,0,0,0
				c0.1-0.1,0.2-0.1,0.3,0C103.2,86.7,103.3,86.8,103.2,86.9z"/>
			<path class="st97" d="M102.1,93.1c0,0-0.1,3.2,1,3.3s1.8-0.9,2.1-1.7c-1-0.7-1.5-1.7-1.5-2.9C103.2,92.3,102.7,92.7,102.1,93.1z"
				/>
			<path class="st61" d="M97.1,90.6c0,0,3.3,0.5,4.9,0.9C100.4,90.9,98.7,90.6,97.1,90.6z"/>
			<path class="st61" d="M98.1,92.7c1.1-0.3,2.2-0.5,3.3-0.6C100.3,91.9,99.1,92.1,98.1,92.7z"/>
			<path class="st61" d="M105.6,93.8c2.6,1.2,5.1,2.6,7.4,4.2C110.9,96,108.3,94.6,105.6,93.8z"/>
			<path class="st61" d="M105.3,92.4c4.3,0.8,8.5,2,12.6,3.6C117.9,96,110.4,92.6,105.3,92.4z"/>
			<path class="st61" d="M105,93.1c3.6,0.9,7,2.2,10.3,3.9C112.1,95.1,108.6,93.8,105,93.1z"/>
			<path class="st61" d="M96.5,88.4c0,0,4,1.9,6.1,3C100.7,90.1,98.7,89.1,96.5,88.4z"/>
			<path class="st59" d="M107.9,90.2c-0.1,0.8,0.4,1.6,1.1,2c1.2,0.8,2.9,0.4,3.6-0.9c0.1-0.2,0.2-0.4,0.3-0.7
				c-0.4-1-1.3-1.6-2.4-1.8C109.5,88.6,108.4,89.2,107.9,90.2z"/>
			<path class="st60" d="M108.4,91.8c1.5,0.1,2.9-1,3.1-2.6c-0.3-0.1-0.6-0.2-0.8-0.3c-1.1-0.3-2.2,0.3-2.7,1.3
				C107.8,90.8,108,91.3,108.4,91.8z"/>
			<path class="st61" d="M109.7,89.6c-0.1,0.1-0.2,0.2-0.4,0.1c-0.1-0.1-0.2-0.2-0.1-0.4c0.1-0.1,0.2-0.2,0.4-0.1c0,0,0,0,0,0
				C109.7,89.3,109.8,89.5,109.7,89.6z"/>
			<path class="st98" d="M105.2,94.7c-0.5-0.3-0.9-0.7-1.1-1.3c-0.8,0.2-1.5,0.6-1.9,1.3l0,0c0.1,0.8,0.4,1.6,0.9,1.6
				C104.3,96.5,104.9,95.4,105.2,94.7z"/>
			<polygon class="st61" points="102.3,93.1 102.5,93.5 102.9,92.5 			"/>
			<polygon class="st61" points="104.3,93.8 104.1,94.5 104.6,94.2 			"/>
			<path class="st99" d="M100.5,93.1c0,0,1.6,0.5,3.1-1.7l0.1,0.2C103.7,91.7,102.3,94.1,100.5,93.1z"/>
			<path class="st99" d="M103.6,91.9c0,1.6,1.2,3,2.8,3.2c-1.5-0.4-2.5-1.7-2.6-3.3"/>
			<path class="st100" d="M103.3,90.5c0,0-0.5-0.3-0.4-0.5s1,0,1.5,0.2s1.3,0.5,1.2,0.8s-0.8,0-0.8,0s-0.4,1.3-1.2,1
				S103.3,90.5,103.3,90.5z"/>
			<path class="st92" d="M122.6,129.1c0,0-1.9-0.8-2.4-1c-1.6-1.7-2.4-4-2.4-6.3c0-2.8,1.5-5.3,4-6.6c1.3-0.5,1.2,6.6,1.2,6.6
				S122.6,129.1,122.6,129.1z"/>
			<path class="st93" d="M123.1,129.2c0,0-7.7-0.9-8.2,3.3c0,0,10.8,0.3,15.2,0.2c0,0,2.4-7.5,1.6-12c-0.7-3.8-3.9-6.5-7.7-6.6
				C120.9,114.2,113.4,122.9,123.1,129.2z"/>
			<path class="st101" d="M103.4,97.5c0,0-0.3,3.6-0.3,4.8c0,0.7,0,1.3,0.2,2l-0.7-0.7c0.2,0.7,0.3,1.4,0.4,2.1
				c-0.1-0.1-0.3-0.2-0.4-0.3c0.2,0.5,0.4,1.1,0.5,1.6c-0.1,1.5,0,3,0.3,4.4l-0.4-0.1c0.2,0.3,0.3,0.7,0.5,1c1.3,2.6,3.1,5,5.4,6.9
				c2.9,2.2,6.4,5.3,6.4,5.3s-1.1-2.3-1.7-3.8s-3.2-8.1-3.2-10.1c0.1-1.7,0.6-3.3,1.4-4.8c-0.4,0.2-0.8,0.4-1.2,0.7
				c0.1-0.5,0.3-0.9,0.5-1.3l-0.5,0.2c0.1-0.7,0.4-1.3,0.7-1.9c-0.4,0.1-0.8,0.3-1,0.6c-0.3-1.9-0.4-3.8-0.2-5.6
				C110.1,95.4,103.3,97.4,103.4,97.5"/>
			<path class="st93" d="M117.6,110.9c0.3,4.5-1.9,11.6-12,22.1c-2.2,0.4-4.4,0.4-6.6,0.1c0,0,0.2-3.5,4.9-3.3c0,0,2.4-3.1,4.9-14.4
				c1.1-5.1,2.3-7.7,3.2-9"/>
			<path class="st101" d="M114.8,132.5c0,0,3.4,0.1,7.1,0.2c0.1-1.5-0.8-3-2.3-3.4C117.5,129.4,115.1,130.2,114.8,132.5z"/>
			<path class="st101" d="M104.5,128.8c-0.2,0.3-0.4,0.6-0.6,0.9c-4.8-0.2-4.9,3.3-4.9,3.3c2.2,0.3,4.4,0.3,6.6-0.1
				c0.6-0.6,1.2-1.3,1.7-1.9C106.8,130,105.7,129.1,104.5,128.8z"/>
			<path class="st102" d="M87.9,104.3c0.9,2.3,3.1,3.7,5.6,3.6l1.4,1.7c0.8-1.3,1.2-2.8,1-4.4c-0.4-0.3-0.7-0.5-1-0.6
				C93.2,103.6,90.1,102.8,87.9,104.3z"/>
			<path class="st102" d="M115.9,132.5c0.2-0.9,0.8-1.7,1.7-2c-0.6,0.5-1.1,1.2-1.3,2H115.9z"/>
			<path class="st102" d="M100,133.2c0.1-0.9,0.8-1.8,1.6-2.1c-0.5,0.6-0.9,1.4-1.2,2.2L100,133.2z"/>
			<path class="st103" d="M88.8,105.9c0.8-0.5,1.8-0.8,2.8-0.6c-1-0.4-2.2-0.3-3.2,0.2L88.8,105.9z"/>
			<path class="st104" d="M115.5,108.5c-2.1,0.3-4.1,1.3-5.6,2.7c-0.2,0.6-0.4,1.2-0.6,1.9C111.1,111.8,115.5,108.5,115.5,108.5z"/>
			<path class="st104" d="M114.2,113.5c-1.9,0.4-3.7,1-5.4,1.9v0.1c-0.1,0.4-0.2,0.9-0.3,1.3C110.6,116,112.5,114.9,114.2,113.5z"/>
			<path class="st104" d="M107.4,121.1c2.1-0.3,4.1-1.1,5.9-2.1c-1.9,0.2-3.7,0.5-5.6,0.9C107.6,120.3,107.5,120.7,107.4,121.1z"/>
			<path class="st104" d="M117.1,101.1c-1.3,0.9-2.8,1.3-4.3,1.4c1.7,0.7,3.7,0.5,5.3-0.5C117.8,101.8,117.4,101.4,117.1,101.1z"/>
			<path class="st104" d="M121.6,105.3l-0.9-0.9c-1.4,1-3.4,2.1-5.1,2.1c1.1,0.3,2.3,0.2,3.4-0.1
				C119.9,106.1,120.7,105.8,121.6,105.3z"/>
			<path class="st104" d="M124.5,108.3c-1.2,0.9-3.4,2.2-5.3,2.2c0.7,0.3,1.5,0.5,2.3,0.5c1.4-0.3,2.8-0.7,4.2-1.4
				C125.3,109.1,124.9,108.7,124.5,108.3z"/>
			<path class="st104" d="M128.8,113.4c-1.4,1.3-3.2,2-5.1,2.2c0.9,0.3,1.8,0.4,2.7,0.3c1.1-0.2,2.2-0.6,3.3-1
				C129.5,114.5,129.2,113.9,128.8,113.4z"/>
			<path class="st104" d="M122.9,121.1c0,0,3.5,1.6,5.6,1.4c0.9-0.1,2.1-0.2,3.3-0.4c0-0.4,0-0.8-0.1-1.2c-0.1-0.4-0.1-0.7-0.2-1.1
				c-1.3,0.4-2.7,0.8-4.1,1.1C125.9,121.1,124.4,121.2,122.9,121.1z"/>
			<path class="st104" d="M131.4,126.6c-1.1,0.1-2.8,0.2-3.8,0.3c-1,0.1-2,0.3-2.9,0.6c0.9,0.3,1.8,0.4,2.7,0.5h3.8
				C131.3,127.5,131.4,127,131.4,126.6z"/>
			<path class="st93" d="M103.4,98.3c2.8,0.5,5.6,0.8,8.4,0.8"/>
			<path class="st105" d="M91.8,127.6l0.6,1.5c0,0-0.7-0.6-2.5,0.5s2-0.2,2-0.2s-2.1,0.3-1.4,1.3l1.9-1l-0.8,1.1l2.5-0.8l-0.8-0.6
				l-0.6-1l1-1.8L91.8,127.6z"/>
			<path class="st105" d="M86.8,125l0.6,1.5c0,0-0.7-0.6-2.5,0.5s2-0.2,2-0.2s-2.1,0.3-1.4,1.3l1.9-1l-0.8,1.1l2.5-0.8l-0.8-0.6
				l-0.6-1l1-1.8L86.8,125z"/>
			<path class="st106" d="M99.7,119.6c1.7-0.3,3-1.8,3-3.6c0.2-3.2,3.4-3.1,2.2-0.4s0.1,0.2,0.1,0.2s3-2.4,2.5,0.3s-2,2.8-2,2.8
				s4.6-1.7,3.2,0c-2,2.2-4.9,3.4-7.9,3.3C97.5,121.9,99.7,119.6,99.7,119.6z"/>
			<path class="st107" d="M80.5,113.5c-1.9,2.8-1.3,6.6,1.3,8.7c4.6,3.9,4.9-1.8,4.9-1.8l-2-5.1l-4.1-1.9"/>
			<path class="st108" d="M80.6,105.3c0,0-3,3.6,0.1,9.2c0,0-1.9,10,7.8,12.6c9.6,2.6,12.1-5.8,12.1-5.8l-6.6-1.2l2.6-7.5
				c0,0,0-8-3.2-8.6s-6-1.4-6-1.4S82.5,100.2,80.6,105.3z"/>
			<path class="st107" d="M79.7,106.8c0,0,1.6-3.7,4.7-3.8s1.4,5.7,1.4,5.7c1.5-1.7,3.7-2.6,6-2.6c3.8,0,5,6.2,0.6,9.7
				s-4.8,5.8-1.3,9.1c0,0,0.9,2.4,2.6,2.8c2.3-0.8,4.4-2,6.2-3.6c2.6-2.4,3.8-3,1.9-4.8h-3l-1.7-3.9c0,0,1.8-9-0.4-12.4
				c0,0,2.7-2.9,1.5-4.3s-3.4,0.5-2.9,3.5L94,97.6c0,0-3,0,0.7,4.2c0,0-0.9-2.2-5.2-1.8C85,100.3,80.7,101.8,79.7,106.8z"/>
			<path class="st106" d="M92.8,117.6c-1.9,1.2-2.5,3.7-1.3,5.6c0,0.1,0.1,0.1,0.1,0.2c2.1,3.8,7.5-1.1,7.5-1.1s1.5-0.9-1-2
				s0.1-0.5,0.1-0.5l-2.2-1.3l1.8,0.2C97.9,118.7,95.4,115.8,92.8,117.6z"/>
			<path class="st109" d="M84.6,111.7l-0.4,2c0.2,0.2,0.5,0.2,0.7,0.1c0.2-0.1,0.5-0.2,0.6-0.4l0.9-0.8c0.3-0.3,0.6-0.7,0.8-1
				c0.1-0.3-0.4,0.1-0.6-0.2c-0.2-0.2-0.4-0.3-0.6-0.5c-0.2-0.2-0.4-0.3-0.7-0.3c-0.2,0-0.5,0.2-0.6,0.4
				C84.6,111.3,84.6,111.6,84.6,111.7"/>
			<ellipse class="st110" cx="90.3" cy="109.5" rx="1.4" ry="1.4"/>
			<ellipse class="st111" cx="91.3" cy="109" rx="0.4" ry="0.4"/>
			<ellipse class="st110" cx="83.7" cy="107.1" rx="1.3" ry="1.4"/>
			<ellipse class="st111" cx="84.6" cy="106.6" rx="0.3" ry="0.4"/>
			<path class="st112" d="M83.7,109.6c0,0,0.4-0.9,1.8-0.8s1.8,2.8,1.8,2.8s-2.2,0.4-2.7,1.6S81.9,112.1,83.7,109.6"/>
			<path class="st113" d="M80.8,114.4c1.5,2,4,3.1,6.6,2.9"/>
		</g>
	</g>
	
		<radialGradient id="SVGID_11_" cx="-3613.8535" cy="-179.3333" r="145.7155" gradientTransform="matrix(0.51 0 0 -0.48 1905.71 -6.46)" gradientUnits="userSpaceOnUse">
		<stop  offset="0" style="stop-color:#FFFFFF"/>
		<stop  offset="0.43" style="stop-color:#D3F9FC"/>
	</radialGradient>
	<path class="st114" d="M151.5,79.6c0,38.6-33,69.9-73.7,69.9S4.1,118.2,4.1,79.6s33-69.9,73.7-69.9S151.5,41,151.5,79.6z"/>
	<path class="st115" d="M22.5,54.9c3-10.9,11.9-21.4,30.2-28.1c2.1-0.8,3.1-3.1,2.3-5.2c-0.2-0.5-0.5-0.9-0.9-1.3l-0.3-0.4
		c-1-1-2.5-1.4-3.9-1C43,21,25.1,31.1,19.3,54c-0.2,0.7,0.1,1.4,0.7,1.8l0,0c0.8,0.5,1.8,0.3,2.3-0.4C22.4,55.3,22.5,55.1,22.5,54.9
		z"/>
	<path class="st116" d="M82.1,142.1c-40.7,0-73.7-31.3-73.7-69.9c0-10,2.2-19.8,6.6-28.8c-0.8,1.2-1.6,2.4-2.3,3.6
		C6.5,57.3,3.2,69,3.2,81.1c0,38.6,33,69.9,73.8,69.9c29.9,0,55.6-16.9,67.2-41.1C131.1,129.2,108.1,142.1,82.1,142.1z"/>
	<circle class="st115" cx="20" cy="60.7" r="2.5"/>
</g>
<g class="st117">
	<path d="M129.3,23.5C99.3-5,51.8-3.9,23.2,26.1C10,39.9,2.6,58.3,2.5,77.5c0,2.3,0.1,4.6,0.3,6.8c0,0.3,0,0.5,0.1,0.8
		c0,0,0,0.1,0,0.1c1.4,19.1,10.5,36.7,25.3,48.8c28.4,30.1,75.9,31.5,106,3.1s31.5-75.9,3.1-106C134.8,28.3,132.1,25.8,129.3,23.5
		L129.3,23.5z"/>
</g>
</svg>
