<?xml version="1.0" encoding="utf-8"?>
<!-- Generator: Adobe Illustrator 25.2.3, SVG Export Plug-In . SVG Version: 6.00 Build 0)  -->
<svg version="1.1" id="Layer_1" xmlns="http://www.w3.org/2000/svg" xmlns:xlink="http://www.w3.org/1999/xlink" x="0px" y="0px"
	 viewBox="0 0 160 160" style="enable-background:new 0 0 160 160;" xml:space="preserve">
<style type="text/css">
	.st0{opacity:0.5;enable-background:new    ;}
	.st1{opacity:0.91;fill:url(#SVGID_1_);enable-background:new    ;}
	.st2{clip-path:url(#SVGID_3_);}
	.st3{fill:#A0D8D0;}
	.st4{fill:#859E7B;}
	.st5{fill:url(#SVGID_4_);}
	.st6{fill:url(#SVGID_5_);}
	.st7{fill:#202658;}
	.st8{fill:#121011;}
	.st9{fill:#1B1E28;}
	.st10{fill:url(#SVGID_6_);}
	.st11{fill:url(#SVGID_7_);}
	.st12{fill:#CE9373;}
	.st13{fill:url(#SVGID_8_);}
	.st14{fill:url(#SVGID_9_);}
	.st15{fill:#8B4E29;}
	.st16{fill:#C87942;}
	.st17{fill:#D1A787;}
	.st18{fill:url(#SVGID_10_);}
	.st19{fill:url(#SVGID_11_);}
	.st20{fill:url(#SVGID_12_);}
	.st21{opacity:0.3;fill:#0C0D0F;enable-background:new    ;}
	.st22{fill:url(#SVGID_13_);}
	.st23{fill:#485672;}
	.st24{opacity:0.11;enable-background:new    ;}
	.st25{fill:#4F4E4E;}
	.st26{fill:#449F90;}
	.st27{fill:#AFDDD6;}
	.st28{fill:#8FD1C5;}
	.st29{fill:#6D1549;}
	.st30{fill:#81235E;}
	.st31{fill:url(#SVGID_14_);}
	.st32{fill:#AF5286;}
	.st33{fill:#88406E;}
	.st34{fill:url(#SVGID_15_);}
	.st35{fill:#0C8479;}
	.st36{fill:#9F5F32;}
	.st37{fill:#29306E;}
	.st38{fill:#9D527E;}
	.st39{fill:#B7749D;}
	.st40{fill:#F1AD85;stroke:#77442A;stroke-width:0.5;stroke-miterlimit:10;}
	.st41{fill:#EAECEC;}
	.st42{fill:#64BCAD;}
	.st43{fill:#9F3F23;}
	.st44{fill:#F16623;}
	.st45{fill:#CB5428;}
	.st46{fill:url(#SVGID_16_);}
	.st47{fill:url(#SVGID_17_);}
	.st48{fill:#00A69C;}
	.st49{fill:#FFFFFF;}
	.st50{fill:#D6C8AE;}
	.st51{fill:#7C1A51;}
	.st52{fill:url(#SVGID_18_);}
	.st53{fill:url(#SVGID_19_);}
	.st54{fill:#9E6DA3;}
	.st55{fill:#805983;}
	.st56{fill:url(#SVGID_20_);}
	.st57{fill:#C04927;}
	.st58{fill:#E98056;}
	.st59{fill:url(#SVGID_21_);}
	.st60{fill:#F19776;}
	.st61{fill:url(#SVGID_22_);}
	.st62{fill:url(#SVGID_23_);}
	.st63{fill:url(#SVGID_24_);}
	.st64{fill:#F1AD85;stroke:#77442A;stroke-width:0.75;stroke-miterlimit:10;}
	.st65{fill:#F1AD85;}
	.st66{fill:#77442A;}
	.st67{fill:none;stroke:#77442A;stroke-width:0.75;stroke-miterlimit:10;}
	.st68{fill:none;stroke:#77442A;stroke-width:0.5;stroke-miterlimit:10;}
	.st69{fill:#264426;stroke:#162B17;stroke-width:0.25;stroke-miterlimit:10;}
	.st70{fill:#2F5C2D;stroke:#223D20;stroke-width:0.25;stroke-miterlimit:10;}
	.st71{opacity:0.54;fill:#DDDAD9;enable-background:new    ;}
	.st72{fill:#2A3578;}
	.st73{opacity:0.57;fill:#9FDCF4;enable-background:new    ;}
	.st74{fill:#DDDAD9;}
	.st75{opacity:0.33;fill:#FFFFFF;enable-background:new    ;}
	.st76{opacity:0.89;}
	.st77{fill:#E9F5FA;}
	.st78{opacity:0.46;fill:#FFFFFF;enable-background:new    ;}
	.st79{opacity:0.53;}
	.st80{fill:#B1E5E0;}
	.st81{opacity:0.2;fill:url(#SVGID_25_);enable-background:new    ;}
	.st82{opacity:0.5;fill:#4ECECE;enable-background:new    ;}
	.st83{opacity:0.6;fill:#FDFFFF;enable-background:new    ;}
	.st84{opacity:0.6;}
</style>
<circle class="st0" cx="82.7" cy="81.8" r="74.3"/>
<g id="_01-2">
	
		<radialGradient id="SVGID_1_" cx="-3380.8999" cy="-175.21" r="178.78" gradientTransform="matrix(0.48 0 0 -0.48 1707.27 -6.46)" gradientUnits="userSpaceOnUse">
		<stop  offset="0" style="stop-color:#FFFFFF"/>
		<stop  offset="0.61" style="stop-color:#D3F9FC"/>
		<stop  offset="0.93" style="stop-color:#48E5FF"/>
	</radialGradient>
	<path class="st1" d="M152.5,77.6c0.2,41-32.9,74.4-73.9,74.5c-41,0.2-74.4-32.9-74.5-73.9C3.8,37.2,36.9,3.9,77.9,3.7
		c0.1,0,0.2,0,0.3,0C119.1,3.6,152.4,36.7,152.5,77.6C152.5,77.6,152.5,77.6,152.5,77.6z"/>
	<g>
		<defs>
			<ellipse id="SVGID_2_" cx="78.4" cy="76.8" rx="74.1" ry="73.8"/>
		</defs>
		<clipPath id="SVGID_3_">
			<use xlink:href="#SVGID_2_"  style="overflow:visible;"/>
		</clipPath>
		<g class="st2">
			<rect x="-226.7" y="-90.1" class="st3" width="358.1" height="238.7"/>
			<rect x="-222" y="-85" class="st4" width="376.1" height="238.7"/>
			
				<linearGradient id="SVGID_4_" gradientUnits="userSpaceOnUse" x1="27.6926" y1="132.0818" x2="42.26" y2="132.0818" gradientTransform="matrix(1 0 0 -1 0 162)">
				<stop  offset="0" style="stop-color:#293B8F"/>
				<stop  offset="1" style="stop-color:#252962"/>
			</linearGradient>
			<path class="st5" d="M28.3,7.5c0,0,5.4,11,9,20.1c0,0,4.9,16.5,4.9,19s-5,6.1-7.4,5.8S25.6,17.2,28.3,7.5z"/>
			
				<linearGradient id="SVGID_5_" gradientUnits="userSpaceOnUse" x1="17.1108" y1="114.2792" x2="37.4208" y2="135.1792" gradientTransform="matrix(1 0 0 -1 0 162)">
				<stop  offset="0" style="stop-color:#293B8F"/>
				<stop  offset="1" style="stop-color:#151945"/>
			</linearGradient>
			<path class="st6" d="M30.5,13.8l1.3,0.8c0,0,3.7,8.3,4.7,15.1s0.9,8.7,6.2,8.2S40.2,45.2,35,47s-4.9,5.3-7,1.2
				S30.5,13.8,30.5,13.8z"/>
			<path class="st7" d="M39.5,58.1c-2.1-2.5,1.7-4.6,3.8-6.7c0.4-0.4,1.3-1.8,0-2.1c-5.2,1.4-7-1.8-7.5-5.8c-1.7,1.9-3.3,3.9-4.8,6
				l-6.5,18.1c5.6,0.2,12-3.9,16.9-8.3C40.6,59.2,39.9,58.7,39.5,58.1z"/>
			<path class="st8" d="M-27.6,96.5l-1.7,0.6c0,0-1.1,0.9-0.1,3.4l0.9,2.7c0,0-0.5,13.7,0,23.7l54.6-9.6l8.4-11l2.4-10.5L-27.6,96.5
				z"/>
			<path class="st9" d="M-23.5,88.3l2.5,0.9c0,0-8.3,1.2-6.8,2.8c0,0-4.2,4.4-1.9,6.1c8.4,6,2.4,43.1,9.7,44.8
				c4.9,1.2,25.1-3.8,32.3-3.5C31.4,140.2,28.8,100,31.8,97s0.9-8.1-1.4-8.9S-23.5,88.3-23.5,88.3z"/>
			
				<linearGradient id="SVGID_6_" gradientUnits="userSpaceOnUse" x1="2.2305" y1="194.4" x2="1.3205" y2="111.93" gradientTransform="matrix(1 0 0 -1 0 162)">
				<stop  offset="0" style="stop-color:#293B8F"/>
				<stop  offset="1" style="stop-color:#252962"/>
			</linearGradient>
			<path class="st10" d="M33.1,84.2v-0.1V84c0-0.2,0-0.3,0-0.5c0-0.1,0-0.3,0-0.4c0-0.2-0.1-0.4-0.1-0.7c0-3.3,0.5-19.2,0.5-32.4
				c0-2.2,1.3-7.3,1.2-9.1c-0.7-12.5,0.6-16.1-1.6-16.8c0,0-0.2-1-1.1-6.9s1-12-7.3-14.5C17,0.4-14.1-3.5-14.1-3.5l-1.3,1.5
				c0,0-4.3-0.3-4.9,1.7c-4.6,3.1-8.6,7.2-11.6,11.9c-5.2,7.9,2.6,41.2,2.8,45.6c0,0.4,2.5,3.7,2.5,4.3l3.8,6.3l-3.7,21.9l0.2,2.4
				c6.5,2.4,18,8,35.3,6.9c1.4-0.1,7.5-1,8.7-1.1l1.7-6.9l1,6.6c26-2.7,12-9.6,11.6-12.5C31.8,83.8,32.3,83.9,33.1,84.2z"/>
			
				<linearGradient id="SVGID_7_" gradientUnits="userSpaceOnUse" x1="20.9637" y1="156.6234" x2="-26.9363" y2="202.1134" gradientTransform="matrix(1 0 0 -1 0 162)">
				<stop  offset="0" style="stop-color:#F8C4A0"/>
				<stop  offset="0.66" style="stop-color:#D79F7E"/>
				<stop  offset="1" style="stop-color:#C48B6B"/>
			</linearGradient>
			<path class="st11" d="M-5.5-22.2c0,0-1.1,8.2-2.2,12l0.5,2.5c0,0-0.2,3,1.6,4.5S11,3.6,11,3.6s-1.1,4.8,0,5.4s2.3,3,2.3,3
				s0.2-3.1,0.4-5.3c0.1-1.3,0.1-2.6,0-3.9c0,0,3.8-2.5,4.3-6.2s-0.6-5.3-0.6-5.3L16.2-11l-0.3-5.2L-5.5-22.2z"/>
			<path class="st12" d="M1.7-2.4c-2.6-5.3-1.9-12-1.9-12l-5.6-5c-0.5-1.1-1.1-2.1-1.8-3c0.1,1.1,1,8.6,0,12.2l0.5,2.5
				c0,0-0.2,3,1.6,4.5C-4.9-2.6-1.7-1.3,1.6,0C2.1-0.7,2.2-1.7,1.7-2.4z"/>
			
				<linearGradient id="SVGID_8_" gradientUnits="userSpaceOnUse" x1="19.0482" y1="185.0603" x2="17.2782" y2="232.4303" gradientTransform="matrix(1 0 0 -1 0 162)">
				<stop  offset="0" style="stop-color:#293B8F"/>
				<stop  offset="1" style="stop-color:#252962"/>
			</linearGradient>
			<path class="st13" d="M25.7-4.1c-1.1-2.5-9.5-7-9.5-7s0.1,1,0.2,2.3l0.8,2.8l0.1,1.4l-0.4,1l0,0c-0.4,2-3.2,6.2-3.2,6.2
				s6.3,1.6,7.4,2.8s2.5,5.5,4.9,7.5C26,12.9,26.8-1.6,25.7-4.1z"/>
			
				<linearGradient id="SVGID_9_" gradientUnits="userSpaceOnUse" x1="19.5046" y1="166.5132" x2="30.0346" y2="151.2432" gradientTransform="matrix(1 0 0 -1 0 162)">
				<stop  offset="0" style="stop-color:#293B8F"/>
				<stop  offset="1" style="stop-color:#252962"/>
			</linearGradient>
			<path class="st14" d="M25.7-4.1c-0.2-0.4-0.5-0.8-0.8-1.1L21.1,5.4l0,0c1.2,1.2,2.5,5.6,4.9,7.5C26,12.9,26.8-1.6,25.7-4.1z"/>
			<rect x="119" y="1.3" class="st15" width="46.3" height="99.7"/>
			<polygon class="st16" points="-175.3,148.6 151.7,85.5 151.7,148.6 			"/>
			<polygon class="st17" points="142.2,116.2 101.2,103.3 -8.3,127.2 -1.6,130.2 99.8,107.9 137.9,119 			"/>
			<polygon class="st17" points="5.8,140 2.8,142.5 20.9,148.6 29.2,148.6 			"/>
			
				<linearGradient id="SVGID_10_" gradientUnits="userSpaceOnUse" x1="118.644" y1="70.4501" x2="120.334" y2="21.3301" gradientTransform="matrix(1 0 0 -1 0 162)">
				<stop  offset="1.000000e-02" style="stop-color:#88CBBF"/>
				<stop  offset="1" style="stop-color:#3C8D80"/>
			</linearGradient>
			<polygon class="st18" points="138.9,117.9 101.6,107.6 101.4,107.6 100.1,115.8 101.4,148.6 138.9,148.6 			"/>
			
				<linearGradient id="SVGID_11_" gradientUnits="userSpaceOnUse" x1="114.901" y1="23.5412" x2="117.031" y2="39.0412" gradientTransform="matrix(1 0 0 -1 0 162)">
				<stop  offset="1.000000e-02" style="stop-color:#ADDDD7"/>
				<stop  offset="1" style="stop-color:#46A99A"/>
			</linearGradient>
			<polyline class="st19" points="137.6,123.5 138.5,120.3 101.3,107.6 101.2,107.6 97.6,110.3 101.2,111.6 			"/>
			
				<linearGradient id="SVGID_12_" gradientUnits="userSpaceOnUse" x1="63.4868" y1="110.9408" x2="36.9868" y2="-0.7592" gradientTransform="matrix(1 0 0 -1 0 162)">
				<stop  offset="1.000000e-02" style="stop-color:#ADDDD7"/>
				<stop  offset="1" style="stop-color:#46A99A"/>
			</linearGradient>
			<polygon class="st20" points="-16.6,132.4 31.1,148.6 101.2,148.6 101.2,107.6 			"/>
			<path class="st15" d="M119,109l38.9,13.1l2-41.9c-13.9-1.7-27.6-4.7-40.9-9L119,109z"/>
			<path class="st21" d="M120.1,74.3h2.8c0,0,1.1,0.4,1.2,3.5s0,19.5,0,19.5s-1.1,1.2-2,1.2c-1,0.1-2.1,0.1-3.1,0L120.1,74.3z"/>
			
				<linearGradient id="SVGID_13_" gradientUnits="userSpaceOnUse" x1="3.657" y1="86.1012" x2="9.127" y2="53.6812" gradientTransform="matrix(1 0 0 -1 0 162)">
				<stop  offset="1.000000e-02" style="stop-color:#63BAAD"/>
				<stop  offset="1" style="stop-color:#449F90"/>
			</linearGradient>
			<path class="st22" d="M23.9,123.9l-40.5,8.5l47.7,16.2h14.7C36,143.1,28.1,135.2,23.9,123.9z"/>
			<path class="st23" d="M78.5,36.2l3.4,0.6c1.6-9.5,10.6-15.9,20.1-14.2c8.4,1.4,14.5,8.7,14.5,17.2v36.3h3.5V39.8
				c0-11.6-9.3-20.9-20.9-21C89,18.8,80.2,26.2,78.5,36.2z"/>
			<path class="st24" d="M99.8,22.4c9.4,0.3,16.8,8,16.8,17.4v36.3h1.2V39.8c0-9.6-7.8-17.4-17.4-17.4L99.8,22.4z"/>
			<rect x="109.7" y="82.8" class="st25" width="1.3" height="7.8"/>
			<rect x="104.4" y="80.7" class="st23" width="2.2" height="1.8"/>
			<path class="st23" d="M107,80.7h-2.9l0,0v-5.6c0-0.8,0.7-1.5,1.5-1.5l0,0c0.8,0,1.5,0.7,1.5,1.5V80.7L107,80.7z"/>
			<path class="st23" d="M113.4,76.6v20.7c0,0.4,2.2,0.8,4.9,0.8s4.9-0.4,4.9-0.8V76.6c0-0.7-0.6-1.2-1.2-1.2c0,0,0,0,0,0h-7.4
				C113.9,75.4,113.4,75.9,113.4,76.6z"/>
			<path class="st23" d="M110.1,90.9h-2.8c-2.3,0-4.2-1.9-4.2-4.2c0,0,0,0,0,0l0,0c0-2.3,1.9-4.2,4.2-4.2c0,0,0,0,0,0h2.8l0,0V90.9
				L110.1,90.9z"/>
			<rect x="110.6" y="82.5" class="st23" width="2.8" height="8.4"/>
			<rect x="110.6" y="88.9" class="st24" width="2.8" height="2"/>
			<path class="st24" d="M105.1,84v-1.5h-0.4l0,0l-0.2,0.1c-0.1,0.1-0.3,0.2-0.4,0.3c-0.2,0.1-0.4,0.2-0.6,0.3l0,0l0,0
				c0,0,0,0,0,0.1l-0.2,0.4v-0.1c-0.1,0.2-0.2,0.5-0.3,0.7v5.1c0.1,0,0.1,0.1,0.1,0.1c0.1,0.2,0.2,0.4,0.3,0.7l0.1,0.1l0.2,0.2
				c0.2,0.2,0.5,0.3,0.7,0.4h5.5v-2C107.4,88.8,105.2,86.7,105.1,84z"/>
			<path class="st24" d="M105.3,77.8v-4.1h-0.1l-0.2,0.1c-0.1,0-0.2,0-0.3,0l-0.2,0.2c-0.1,0.1-0.1,0.1-0.1,0.2l0,0
				c0,0.1-0.1,0.2-0.3,0.3v6.2h2.9v-1.2C106.1,79.4,105.3,78.7,105.3,77.8z"/>
			<path class="st24" d="M78.5,36.2l1.2,0.2v-0.2c1.7-9.8,10.1-17,20-17.3h-0.6C88.9,18.9,80.3,26.2,78.5,36.2z"/>
			<path class="st23" d="M82.1,41.8l-5.7-1l0,0l0.4-2.2c0.3-1.6,1.8-2.6,3.3-2.3l0,0l0,0c1.6,0.3,2.6,1.8,2.3,3.3l0,0
				C82.5,39.6,82.1,41.8,82.1,41.8z"/>
			<path class="st24" d="M81.3,39.8c-1.7-0.3-2.9-1.9-2.7-3.6l-0.2,0.1h-0.1l0,0h-0.1l-0.2,0.1l-0.2,0.1l-0.1,0.1h-0.1
				c-0.1,0.1-0.2,0.2-0.3,0.3l0,0L77.3,37l0,0l0,0v0.1c0,0.1,0,0.1-0.1,0.1l0,0l-0.6,3.4l5.7,1l0.3-1.8L81.3,39.8z"/>
			<path class="st26" d="M79.1,139c0,4-10.8,7.3-24,7.3S31,143.1,31,139s10.8-7.3,24-7.3S79.1,135,79.1,139z"/>
			<path class="st27" d="M110.3,131.7c0,0-5.6-2.8-14.6-0.8l-57.7,13.1l-0.1,1.8l-4.8-0.6l-7.8,1.8l4.1,1.8h102v-10.1L110.3,131.7z"
				/>
			<path class="st28" d="M95.8,132.2L28,147.6l3,1h100.4v-8.7l-21.1-6.9C110.3,133,104.8,130.3,95.8,132.2z"/>
			<path class="st29" d="M54.1,137.1c-13.3,0-24,3.3-24,7.3c0,1.6,1.6,3,4.3,4.2h39.4c2.7-1.2,4.3-2.6,4.3-4.2
				C78.1,140.4,67.4,137.1,54.1,137.1z"/>
			<path class="st30" d="M54.1,136.6c-13.3,0-24,3.3-24,7.3c0,1.8,2.1,3.4,5.6,4.7h36.8c3.5-1.3,5.6-2.9,5.6-4.7
				C78.1,139.9,67.4,136.6,54.1,136.6z"/>
			
				<linearGradient id="SVGID_14_" gradientUnits="userSpaceOnUse" x1="54.212" y1="22.57" x2="54.002" y2="11.63" gradientTransform="matrix(1 0 0 -1 0 162)">
				<stop  offset="0" style="stop-color:#FFFFFF"/>
				<stop  offset="1" style="stop-color:#918F8F"/>
			</linearGradient>
			<path class="st31" d="M54.1,138.3C43,138.3,34,140.9,34,144c0,1.9,3.4,3.6,8.5,4.6h23.1c5.2-1,8.5-2.7,8.5-4.6
				C74.2,140.9,65.2,138.3,54.1,138.3z"/>
			<path class="st32" d="M62.2,140.7c0,0.6-1.6,1.2-3.5,1.2s-3.5-0.5-3.5-1.2s1.6-1.2,3.5-1.2S62.2,140,62.2,140.7z"/>
			<path class="st32" d="M52.5,142.2c0,0.2-0.5,0.3-1.1,0.3s-1.1-0.1-1.1-0.3s0.5-0.3,1.1-0.3S52.5,142,52.5,142.2z"/>
			<path class="st32" d="M50.8,146.1c0,0.8-2.3,1.4-5.2,1.4s-5.2-0.6-5.2-1.4s2.3-1.3,5.2-1.3S50.8,145.3,50.8,146.1z"/>
			<path class="st32" d="M66.3,146.5c0,0.4-1.4,0.8-3.1,0.8s-3.1-0.4-3.1-0.8s1.4-0.8,3.1-0.8C64.9,145.7,66.3,146.1,66.3,146.5z"/>
			<path class="st33" d="M54.1,148.6c-9.3,0-16.6-2.1-16.6-4.8s7.3-4.8,16.6-4.8s16.6,2.1,16.6,4.8S63.4,148.6,54.1,148.6z
				 M54.1,139.4c-8.8,0-16.2,2-16.2,4.4s7.4,4.4,16.2,4.4s16.2-2,16.2-4.4S62.9,139.4,54.1,139.4z"/>
			
				<linearGradient id="SVGID_15_" gradientUnits="userSpaceOnUse" x1="116.11" y1="26.6391" x2="123.6989" y2="26.6391" gradientTransform="matrix(1 0 0 -1 0 162)">
				<stop  offset="1.000000e-02" style="stop-color:#D4C9B3"/>
				<stop  offset="1" style="stop-color:#00A69C"/>
			</linearGradient>
			<path class="st34" d="M122.7,130.3c-1.2-0.7-3.9,0-3.9,0l-2.7,9.3c0,0,0.6,2.1,3.2,0.8s3.8-6.4,4.2-7.7S123.8,130.9,122.7,130.3z
				"/>
			<path class="st35" d="M121.6,131.3c0,0,1,0,1.3,0s0.3,0.5,0,1.7s-1.4,4.7-2.4,5.9s-2,1.8-1.9,1.2S121.6,131.3,121.6,131.3z"/>
			<polygon class="st36" points="27.6,145.3 -8.6,133.1 101.2,109.4 141.2,122 140.8,117.9 101.3,105.9 -21.4,132.4 27.1,148.6 
				37.2,148.6 			"/>
			<path class="st37" d="M47.7,43.8c-1.1-1.2-0.6-2.9-0.6-3.9s1.1-4.2-4.3-2c-2.4,1-4.9,3.3-7,5.6l-0.2,2.1l-5.4,6.5
				c0,0,1.4,7.9,5.2,8.1c2.1,0.2,4.2-0.2,6.1-1c4.7-4.1,8.1-8.4,8.5-9.6C50.8,47.4,48.8,45,47.7,43.8z"/>
			
				<ellipse transform="matrix(0.996 -8.958964e-02 8.958964e-02 0.996 -8.2228 7.5805)" class="st38" cx="80.3" cy="95.4" rx="26.3" ry="20.2"/>
			
				<ellipse transform="matrix(0.996 -8.958964e-02 8.958964e-02 0.996 -8.2173 7.622)" class="st39" cx="80.8" cy="95.3" rx="19" ry="14.5"/>
			<path class="st40" d="M35.6,63.8c0,0,21.7,17.4,25.4,18.1c3.1-2,12-5.8,14.5-5.7s4.5-0.5,7.1,1.5s5,3.4,8.2,1
				c2.2-1.5,1.2-1.2,1.2-1.2s1.7-0.2-2.5-2c-3.2-1.9-6.3-4.2-9-6.8c-0.2-0.4-1.4-2-3.8-0.2c-1.7,1.4-3.6,2.6-5.7,3.4
				c-1.2,0.3-3.7-2-5.9-4.3S49,51.1,49,51.1"/>
			<path class="st41" d="M86.1,73.5c0,0-2.3,3.4,5.9,3.4C90,75.8,88,74.7,86.1,73.5z"/>
			<path class="st42" d="M104.3,140.8c0,4-10.8,7.3-24,7.3s-24-3.3-24-7.3s10.8-7.3,24-7.3S104.3,136.8,104.3,140.8z"/>
			<path class="st42" d="M126.6,144.9c0,2-6.9,3.6-15.5,3.6s-15.5-1.6-15.5-3.6s6.9-3.6,15.5-3.6S126.6,142.9,126.6,144.9z"/>
			<path class="st43" d="M102.6,140.8c0-4-10.8-7.3-24-7.3s-24,3.3-24,7.3c0,3.4,7.7,6.3,18.1,7.1c3.2,0.2,6.4,0.3,9.6,0.1l0,0
				C93.8,147.4,102.6,144.4,102.6,140.8z"/>
			<path class="st44" d="M78.4,132.8c-13.3,0-24,3.3-24,7.3c0,3.4,7.7,6.3,18.1,7.1l-0.3-0.6l7.2-2l2.8,2.7l0,0
				c11.5-0.5,20.3-3.6,20.3-7.2C102.4,136,91.6,132.8,78.4,132.8z"/>
			<path class="st45" d="M102.4,140.4c0-4-10.8-7.3-24-7.3s-24,3.3-24,7.3c0,3.4,7.7,6.3,18.1,7.1c3.2,0.2,6.4,0.3,9.6,0.1l0,0
				C93.6,147,102.4,144,102.4,140.4z"/>
			
				<linearGradient id="SVGID_16_" gradientUnits="userSpaceOnUse" x1="74.3649" y1="39.0483" x2="94.0149" y2="-20.7517" gradientTransform="matrix(1 0 0 -1 0 162)">
				<stop  offset="0" style="stop-color:#FFFFFF"/>
				<stop  offset="1" style="stop-color:#918F8F"/>
			</linearGradient>
			<path class="st46" d="M99.8,139.3c0,3.1-9,5.6-20.1,5.6s-20.1-2.5-20.1-5.6s9-5.6,20.1-5.6S99.8,136.2,99.8,139.3z"/>
			
				<linearGradient id="SVGID_17_" gradientUnits="userSpaceOnUse" x1="79.1155" y1="6.4884" x2="73.4555" y2="22.3084" gradientTransform="matrix(1 0 0 -1 0 162)">
				<stop  offset="0" style="stop-color:#FFFFFF"/>
				<stop  offset="1" style="stop-color:#918F8F"/>
			</linearGradient>
			<path class="st47" d="M92.6,137.2c0,2.6-9,4.7-20.1,4.7s-20.1-2.1-20.1-4.7s9-4.7,20.1-4.7S92.6,134.6,92.6,137.2z"/>
			<path class="st45" d="M79.8,144.2c-9.3,0-16.6-2.1-16.6-4.8s7.3-4.8,16.6-4.8s16.6,2.1,16.6,4.8S89.1,144.2,79.8,144.2z
				 M79.8,134.9c-8.8,0-16.2,2-16.2,4.4s7.4,4.4,16.2,4.4s16.2-2,16.2-4.4S88.5,134.9,79.8,134.9z"/>
			<path class="st48" d="M126.1,144.2c0,2-6.9,3.6-15.5,3.6s-15.5-1.6-15.5-3.6s6.9-3.6,15.5-3.6S126.1,142.2,126.1,144.2z"/>
			<path class="st49" d="M110.6,146.9c-3.4,0.1-6.8-0.3-10.2-1c-3-0.7-3.7-1.1-3.7-1.7s0.7-1,3.7-1.7c3.3-0.7,6.8-1.1,10.2-1
				c3.4-0.1,6.8,0.3,10.2,1c3,0.7,3.7,1,3.7,1.7c0,0.4-0.7,1-3.7,1.7C117.5,146.6,114,147,110.6,146.9z"/>
			<path class="st50" d="M118.5,145.1c0,0.8-3.6,1.4-8.1,1.4s-8.1-0.6-8.1-1.4s3.6-1.4,8.1-1.4S118.5,144.3,118.5,145.1z"/>
			<path class="st29" d="M81.4,141.3c0,4-10.8,7.3-24,7.3s-24-3.3-24-7.3s10.8-7.3,24-7.3S81.4,137.3,81.4,141.3z"/>
			<path class="st38" d="M79.3,140c0,0.2,2,1.1,2,1.3c-1,3.7-11.3,6.7-23.9,6.7c-13.3,0-24-3.3-24-7.3s10.8-7.3,24-7.3
				S79.3,136,79.3,140z"/>
			<path class="st51" d="M59.9,133.5c-4.5,0.9-7.5,2.2-7.5,3.6c0,2.6,9,4.7,20.1,4.7c1.7,0,3.2-0.2,4.8-0.3c1.3-0.1,2.8-0.1,4-0.2
				c0.1-0.2,0.1-0.4,0.1-0.6C81.4,137,72,133.9,59.9,133.5z"/>
			
				<linearGradient id="SVGID_18_" gradientUnits="userSpaceOnUse" x1="51.9535" y1="37.5312" x2="71.6035" y2="-22.2588" gradientTransform="matrix(1 0 0 -1 0 162)">
				<stop  offset="0" style="stop-color:#FFFFFF"/>
				<stop  offset="1" style="stop-color:#918F8F"/>
			</linearGradient>
			<path class="st52" d="M76.2,139.7l0.8-0.1c-2-2.5-10-4.4-19.6-4.4c-11.1,0-20.1,2.5-20.1,5.6s9,5.6,20.1,5.6
				c10.2,0,18.6-2.1,19.9-4.9L76.2,139.7z"/>
			
				<linearGradient id="SVGID_19_" gradientUnits="userSpaceOnUse" x1="59.1423" y1="9.7988" x2="67.5623" y2="26.5088" gradientTransform="matrix(1 0 0 -1 0 162)">
				<stop  offset="0" style="stop-color:#FFFFFF"/>
				<stop  offset="1" style="stop-color:#918F8F"/>
			</linearGradient>
			<path class="st53" d="M57.4,135.2h-0.7c-2.5,1.5-3.8,3-3.5,4.3c0.6,3.4,11.3,4.3,24.2,2.1c0.1-0.2,0.2-0.5,0.2-0.8
				C77.5,137.7,68.5,135.2,57.4,135.2z"/>
			<path class="st32" d="M65.5,137.6c0,0.6-1.6,1.2-3.5,1.2s-3.5-0.5-3.5-1.2s1.6-1.2,3.6-1.2S65.5,136.9,65.5,137.6z"/>
			<path class="st32" d="M55.8,139c0,0.2-0.5,0.3-1.1,0.3s-1.1-0.1-1.1-0.3s0.5-0.3,1.1-0.3S55.8,138.9,55.8,139z"/>
			<path class="st32" d="M54.1,142.9c0,0.8-2.3,1.4-5.2,1.4s-5.2-0.6-5.2-1.4s2.3-1.3,5.2-1.3S54.1,142.2,54.1,142.9z"/>
			<path class="st32" d="M69.5,143.4c0,0.4-1.4,0.8-3.1,0.8s-3.1-0.4-3.1-0.8s1.4-0.8,3.1-0.8S69.5,143,69.5,143.4z"/>
			<path class="st32" d="M57.4,145.6c-9.3,0-16.6-2.1-16.6-4.8s7.3-4.8,16.6-4.8s16.6,2.1,16.6,4.8S66.7,145.6,57.4,145.6z
				 M57.4,136.4c-8.8,0-16.2,2-16.2,4.4s7.4,4.4,16.2,4.4s16.2-2,16.2-4.4S66.2,136.4,57.4,136.4z"/>
			<path class="st54" d="M108,145.6c-12.7-3.3-9.2-16.9-9.2-16.9l11.9,1.7l12,1.4c0,0-0.4,13.8-13.5,13.8L108,145.6z"/>
			<path class="st55" d="M122.8,131.8c-0.1,0.9-5.5,0.9-12.2,0s-11.9-2.2-11.8-3.1s5.5-0.9,12.2,0
				C117.6,129.6,122.9,131,122.8,131.8z"/>
			
				<linearGradient id="SVGID_20_" gradientUnits="userSpaceOnUse" x1="110.722" y1="31.7443" x2="111.462" y2="25.4843" gradientTransform="matrix(1 0 0 -1 0 162)">
				<stop  offset="0" style="stop-color:#FFFFFF"/>
				<stop  offset="1" style="stop-color:#918F8F"/>
			</linearGradient>
			<path class="st56" d="M118.1,131.8c-2.5,0-4.9-0.2-7.4-0.6c-5.6-0.7-10-1.9-10-2.3c0.3-0.3,0.9-0.3,2.8-0.3
				c2.5,0,4.9,0.2,7.4,0.6c5.6,0.7,9.6,1.7,9.9,2.3C120.6,131.8,119.9,131.8,118.1,131.8z"/>
			<path class="st57" d="M108.3,126.1c-0.8-4.5-14.6-5.8-30.6-2.8s-28.4,9.1-27.6,13.6c0.7,3.8,10.6,5.3,23.4,3.9
				c3.9-0.4,7.8-1.1,11.7-2l0,0C99,135.5,109.1,130.2,108.3,126.1z"/>
			<path class="st58" d="M108,125.7c-0.8-4.5-14.6-5.8-30.6-2.8s-28.4,9.1-27.6,13.6c0.7,3.8,10.6,5.3,23.4,3.9
				c3.9-0.4,7.8-1.1,11.7-2l0,0C98.7,135.1,108.8,129.7,108,125.7z"/>
			
				<linearGradient id="SVGID_21_" gradientUnits="userSpaceOnUse" x1="66.9834" y1="219.7068" x2="89.4034" y2="151.4768" gradientTransform="matrix(1.06 -0.2 -0.18 -0.98 37.61 342.37)">
				<stop  offset="0" style="stop-color:#FFFFFF"/>
				<stop  offset="1" style="stop-color:#918F8F"/>
			</linearGradient>
			<path class="st59" d="M103.4,126.4c0.7,3.5-9.7,8.4-23.2,10.8s-24.9,1.7-25.5-1.8s9.7-8.3,23.2-10.8S102.7,122.9,103.4,126.4z"/>
			<path class="st60" d="M80.1,136.4c-11.3,2.1-20.6,1.4-21.1-1.7s7.8-7.1,19.1-9.1s20.6-1.4,21.2,1.7S91.3,134.3,80.1,136.4z
				 M78.1,126c-10.6,2-19.2,5.9-18.7,8.6s9.9,3.3,20.5,1.3s19.2-5.9,18.7-8.6S88.8,124,78.1,126z"/>
			
				<linearGradient id="SVGID_22_" gradientUnits="userSpaceOnUse" x1="32.0389" y1="146.0504" x2="28.8089" y2="137.6204" gradientTransform="matrix(1 0 0 -1 0 162)">
				<stop  offset="0" style="stop-color:#293B8F"/>
				<stop  offset="1" style="stop-color:#151945"/>
			</linearGradient>
			<path class="st61" d="M33.3,24c-3,1-6.2,1.5-9.3,1.4C24,25.5,28.9,24.7,33.3,24z"/>
			
				<linearGradient id="SVGID_23_" gradientUnits="userSpaceOnUse" x1="35.0252" y1="144.1956" x2="28.6452" y2="127.5357" gradientTransform="matrix(1 0 0 -1 0 162)">
				<stop  offset="0" style="stop-color:#293B8F"/>
				<stop  offset="1" style="stop-color:#151945"/>
			</linearGradient>
			<path class="st62" d="M24,28.6c0,0,0.2,7.9,1,9.3s5.2,3.3,7.9,3.3c0,0-4.9-1.2-6.7-3.3S24,28.6,24,28.6z"/>
			
				<linearGradient id="SVGID_24_" gradientUnits="userSpaceOnUse" x1="51.1424" y1="216.2691" x2="16.8924" y2="126.9291" gradientTransform="matrix(1 0 0 -1 0 162)">
				<stop  offset="0" style="stop-color:#293B8F"/>
				<stop  offset="1" style="stop-color:#151945"/>
			</linearGradient>
			<path class="st63" d="M13.3,11.9c0,0,2,3.2,1.3,5.8s1.8,19.9,1.3,28.9s0.1,13.2,0.8,14.3S20.3,62,18,63s-1.9,2.8-1.9,2.8
				c-0.3-0.8-0.4-1.6-0.4-2.5c0.1-0.8,0.8-1.2,0.4-1.6c-0.6-1.1-0.9-2.4-0.8-3.7c0-2-0.6-12.6-0.4-17.8S14,27,13.8,21.8
				s0.2-5.3,0-6.7S13.3,11.9,13.3,11.9z"/>
			<path class="st24" d="M113.4,76.6v20.7c0,0.4,2.2,0.8,4.9,0.8s4.9-0.4,4.9-0.8v-1.2c-4.4,0-7.9-3.5-7.9-7.9c0,0,0,0,0,0V75.4
				h-0.8C113.9,75.4,113.4,75.9,113.4,76.6L113.4,76.6z"/>
			<path class="st64" d="M4.3,84.1l38.3,21.7c0,0,3.5,3.4,9.3-2.4c4.6-1.8,8.9-4.3,10-4.1s3.2,4.2,3.2,4.2l-1,2.9l0.3,2.6
				c1.5-1.3,3-2.7,4.3-4.1c0.2-0.6,0.2-1.2,0.1-1.8c0,0,2.1-4.4,2.2-4.9s1.6-2.8,1.6-3.9c1.2,0.3,1.5-1.2,1.5-1.2s1.6-5.3,1.6-5.8
				s-2.8-3.8-4.4-4.6c-1.6-1.3-1.8-1.9-3.9-0.4c0,0-10.6,7.7-12,8.3s-5.3,3.4-6.7,4.3c-1.8-0.3-4.3-2.7-4.3-2.7L18,67.2"/>
			<path class="st64" d="M68.6,103.7c0,0-1.9-7.7-3.6-9.9"/>
			<path class="st64" d="M70.8,98.7c0.1-1.9-0.4-3.9-1.5-5.5c-1.1-1.6-2.2-3-3.5-4.4"/>
			<path class="st65" d="M72.6,94.3c0,0-0.1-2.9-1.6-4.5c-1.2-1.2-2.4-2.3-3.7-3.4"/>
			<path class="st66" d="M72.6,94.3c-0.2-0.8-0.4-1.6-0.7-2.3c-0.3-0.7-0.7-1.4-1.2-2c-1.1-1.2-2.3-2.3-3.4-3.6
				c1.5,0.8,2.8,1.8,3.9,3c0.6,0.7,1,1.4,1.2,2.3C72.6,92.6,72.7,93.5,72.6,94.3z"/>
			<polyline class="st67" points="69.3,88.9 71.9,87.8 70.6,89.6 			"/>
			<path class="st68" d="M46,101.1c-0.6-2.1-0.2-4.4,1.2-6.1"/>
			<path class="st69" d="M40.2,113.2c0,0,2.9,4.1,4.4,4.6s4.7,1.1,9.2-0.5s10.2-4.5,10.2-5.1c-0.4-1.5-1.7-8.2-5.8-7.4
				s-7.1,1.3-14.7,6C42.4,111.5,41.3,112.3,40.2,113.2z"/>
			<path class="st70" d="M46,106.3c0,0-4.7,5.2-5.4,6.4c1.9-1.4,3.9-2.7,6-3.9c1.7-1.1,3.6-2,5.5-2.6c2.8-0.9,4.8-1.6,6.8-0.8
				c3.5,1.2,4.7,5.4,5,6.2l-0.1-5.3l1.1-2.5c0,0,0.2-0.1-0.4-1c-0.7-1.2-1.2-2.4-1.8-3.6C62.7,99.2,50.7,103.1,46,106.3z"/>
			<path class="st70" d="M70.3,100c0,0,8.1-1.2,6.3-4.2L74,93.7l-1.2,0.5l-2.5,5.6"/>
			<path class="st37" d="M-3,88.9c0,0,2.2,3.2,3,2.2s21.7-21.8,22.5-22.7S8.8,53.7,8.1,54.2s-3,5.1-3.8,6.2s-4.8,4.6-5.7,5.9
				S-4.8,86.8-3,88.9z"/>
			<path class="st71" d="M85.3,90.4c0,0-2.6,7.1-1.6,7.6s1.8,0.1,2.1-7.6"/>
			<path class="st71" d="M83.5,100c0,0-1.7,1.8-1.1,2.4s3.1,0.3,2.3-0.7C84.2,101.2,83.8,100.6,83.5,100z"/>
			<path class="st72" d="M-5,52.2c0,0,3.3-2.3,6-1.2s0.2,5.2,0,5.4l-5.2-3.5L-5,52.2z"/>
			<path class="st73" d="M76.3,82.2c0.9-0.1,1.9-0.2,2.8-0.2c1,0,1.9,0.1,2.9,0.2c0-4-0.1-10.6-0.3-18.5c-0.2-6.9-0.4-15.1-0.7-23.1
				h-3.8c-0.4,8.2-0.6,16.3-0.7,23.1C76.4,71.7,76.3,78.3,76.3,82.2z"/>
			<path class="st74" d="M113,122.6c-0.9-0.8-2.4-0.7-3.2,0.2c-0.4,0.4-0.6,1-0.5,1.6l0,0c-0.1,0-0.1,0-0.2,0.1
				c-0.9,0.1-1.7,0.6-2,1.4l-0.2-0.1c-0.7-0.3-1.5,0.1-1.8,0.9c-0.3,0.7,0.1,1.5,0.9,1.8c0,0,0,0,0.1,0c-0.2,0.7,0.2,1.5,0.9,1.7
				c0,0,0,0,0,0c0.3,0.1,0.6,0.1,0.8,0c0.2,0.7,1,1.1,1.8,0.9c0.4-0.1,0.8-0.5,0.9-0.9c0-0.1,0-0.2,0.1-0.3c0.2,0.1,0.4,0.2,0.6,0.3
				l0.3,0.1c0.3,0.4,0.7,0.7,1.2,0.6c0.2,0,0.3-0.1,0.5-0.1c0.1,0.1,0.3,0.2,0.5,0.3c-0.2,0.7,0.2,1.5,0.9,1.8c0,0,0,0,0,0
				c0.3,0.1,0.6,0.1,0.8,0c0.1,0.4,0.5,0.8,0.9,0.9c0.7,0.2,1.5-0.2,1.8-0.9c0-0.1,0-0.2,0.1-0.3c0.2,0.1,0.4,0.2,0.6,0.3
				c1.2,0.3,2.5-0.5,2.8-1.7c0.3-1.1-0.3-2.3-1.4-2.7l0,0c0.1-0.5-0.3-1-0.9-1.1c-0.3,0-0.6,0.1-0.8,0.3c-0.5-0.5-1.3-0.7-2-0.5
				c0-0.1,0.1-0.1,0.1-0.2c0-0.1,0-0.2,0.1-0.3c0.2,0.1,0.3,0.2,0.5,0.3c1.2,0.4,2.5-0.3,2.9-1.5s-0.3-2.5-1.5-2.9l0,0
				c0.1-0.5-0.3-1-0.9-1.1c-0.3,0-0.6,0.1-0.8,0.3c-0.2-0.2-0.5-0.4-0.8-0.5C114.6,120.9,113.4,121.5,113,122.6z"/>
			<path class="st75" d="M97.9,141.1c-1.1,0-2.2,0-3.3,0.1l-6.8,3.1c2.2,0.5,4.5,0.7,6.8,0.6c1.1,0,2.3-0.1,3.4-0.3
				c1.2-0.1,2.4-0.4,3.5-0.8"/>
			<g class="st76">
				<path class="st49" d="M84.7,84c-0.3,0-0.6-0.3-0.6-0.6c0-0.3,0.3-0.6,0.6-0.6c0.3,0,0.6,0.3,0.6,0.6c0,0,0,0,0,0
					C85.3,83.7,85,84,84.7,84z M84.7,83.1c-0.2,0-0.3,0.1-0.3,0.3c0,0.2,0.1,0.3,0.3,0.3c0.2,0,0.3-0.1,0.3-0.3c0,0,0,0,0,0
					C85,83.3,84.9,83.1,84.7,83.1L84.7,83.1z"/>
				<g class="st76">
					<path class="st49" d="M72.7,83.1c-0.2,0-0.3-0.1-0.4-0.2s0.1-0.3,0.2-0.4c0,0,0.1,0,0.1,0c0.2,0,0.3,0.2,0.2,0.4
						C72.9,83,72.8,83.1,72.7,83.1z M72.7,82.6c-0.1,0-0.2,0.1-0.2,0.2l0,0c0,0.1,0.1,0.2,0.2,0.2s0.2-0.1,0.2-0.2
						C72.9,82.7,72.8,82.6,72.7,82.6C72.7,82.6,72.7,82.6,72.7,82.6z"/>
				</g>
			</g>
			<g class="st76">
				<path class="st49" d="M81.3,83c-0.2,0-0.4-0.2-0.4-0.4s0.2-0.4,0.4-0.4s0.4,0.2,0.4,0.4C81.7,82.8,81.6,83,81.3,83
					C81.3,83,81.3,83,81.3,83z M81.3,82.3c-0.1,0-0.2,0.1-0.2,0.2s0.1,0.2,0.2,0.2c0.1,0,0.2-0.1,0.2-0.2c0,0,0,0,0,0
					C81.6,82.4,81.5,82.3,81.3,82.3C81.3,82.3,81.3,82.3,81.3,82.3L81.3,82.3z"/>
			</g>
			<g class="st76">
				<circle class="st77" cx="78" cy="82.8" r="0.4"/>
			</g>
			<g class="st76">
				<path class="st49" d="M79.3,109c-0.2,0-0.4-0.2-0.4-0.4s0.2-0.4,0.4-0.4s0.4,0.2,0.4,0.4c0,0,0,0,0,0
					C79.7,108.8,79.5,109,79.3,109z M79.3,108.3c-0.1,0-0.3,0.1-0.3,0.2s0.1,0.3,0.2,0.3c0,0,0.1,0,0.1,0c0.1,0,0.2-0.2,0.2-0.3
					C79.4,108.4,79.3,108.3,79.3,108.3z"/>
			</g>
			<g class="st76">
				<path class="st49" d="M76.3,111c-0.2,0-0.3-0.1-0.3-0.3c0,0,0,0,0,0c0-0.2,0.1-0.3,0.3-0.3s0.3,0.1,0.3,0.3
					C76.6,110.9,76.5,111,76.3,111C76.3,111,76.3,111,76.3,111z M76.3,110.5c-0.1,0-0.2,0.1-0.2,0.2c0,0.1,0.1,0.2,0.2,0.2
					c0,0,0,0,0,0c0.1,0,0.2-0.1,0.2-0.2S76.4,110.5,76.3,110.5L76.3,110.5z"/>
			</g>
			<g class="st76">
				<path class="st77" d="M82.7,109.8c0,0.2-0.1,0.3-0.3,0.3c-0.2,0-0.3-0.1-0.3-0.3c0-0.2,0.1-0.3,0.3-0.3c0,0,0,0,0,0
					C82.5,109.4,82.7,109.6,82.7,109.8L82.7,109.8z"/>
			</g>
			<path class="st78" d="M85.7,80.5c0.1,0.1,0.1,0.2,0.1,0.3c0,0,0,0.1-0.1,0.1c-0.6,0.2-1.1,0.4-1.8,0.5l-1.1,0.2l0,0
				c0.7-0.1,1.3-0.4,1.8-0.7c0.1-0.1,0.1-0.2,0-0.3c0,0,0,0,0,0c-0.6-0.3-1.2-0.6-1.8-0.7l0,0c0.4,0,0.8,0.1,1.1,0.2
				C84.6,80,85.2,80.2,85.7,80.5z"/>
			<g class="st79">
				<path class="st49" d="M77,81.2c-0.3,0-0.5-0.2-0.5-0.5c0-0.3,0.2-0.5,0.5-0.5c0.3,0,0.5,0.2,0.5,0.5
					C77.5,80.9,77.3,81.2,77,81.2C77,81.2,77,81.2,77,81.2z M77,80.3c-0.2,0-0.3,0.2-0.3,0.4c0,0.2,0.2,0.3,0.3,0.3
					c0.2,0,0.3-0.2,0.3-0.4C77.3,80.5,77.2,80.3,77,80.3z"/>
			</g>
			<g class="st79">
				<path class="st49" d="M79.6,80.7c-0.2,0-0.3-0.1-0.3-0.3c0,0,0,0,0,0c0-0.2,0.1-0.3,0.3-0.3c0.2,0,0.3,0.1,0.3,0.3c0,0,0,0,0,0
					C79.9,80.6,79.8,80.7,79.6,80.7L79.6,80.7z M79.6,80.2c-0.1,0-0.2,0.1-0.2,0.2c0,0.1,0.1,0.2,0.2,0.2c0,0,0,0,0,0
					c0.1,0,0.2-0.1,0.2-0.2C79.8,80.3,79.7,80.2,79.6,80.2C79.6,80.2,79.6,80.2,79.6,80.2z"/>
				<path class="st80" d="M66.1,107.9c-0.6,2.9-1,5.2-1.3,6.4c-0.1,0.4-0.2,1.3,0.2,1.6c0.1,0.1,0.3,0.2,0.4,0.1
					c0.3-0.1,0.4-0.4,0.4-0.5c0.5-1.3,0.6-7.5,0.6-7.5l0,0L66.1,107.9z"/>
				<path class="st80" d="M66.3,115.2c0,0-1,2.7-0.6,3.2s1,0.5,1-0.6C66.6,116.9,66.5,116,66.3,115.2z"/>
				<path class="st80" d="M64.9,118.3c0,0-1,2.7-0.6,3.2s1,0.5,1-0.6C65.3,120.1,65.2,119.2,64.9,118.3z"/>
				<path class="st80" d="M56.8,116.8c0,0-1,2.7-0.6,3.2s1,0.5,1-0.6C57.2,118.5,57.1,117.6,56.8,116.8z"/>
				<path class="st80" d="M56.8,119.3c0,0-1,2.7-0.6,3.2s1,0.5,1-0.6C57.2,121.1,57.1,120.2,56.8,119.3z"/>
			</g>
			<g class="st79">
				<path class="st77" d="M84,80.7c0,0.2-0.1,0.3-0.3,0.3c-0.2,0-0.3-0.1-0.3-0.3c0-0.2,0.1-0.3,0.3-0.3c0,0,0,0,0,0
					C83.8,80.3,84,80.5,84,80.7z"/>
			</g>
		</g>
	</g>
	
		<radialGradient id="SVGID_25_" cx="-3260.5034" cy="-178.9167" r="145.7128" gradientTransform="matrix(0.51 0 0 -0.48 1727.88 -6.46)" gradientUnits="userSpaceOnUse">
		<stop  offset="0" style="stop-color:#FFFFFF"/>
		<stop  offset="0.43" style="stop-color:#D3F9FC"/>
	</radialGradient>
	<path class="st81" d="M152.5,79.4c0,38.6-33,69.9-73.7,69.9S5.1,118,5.1,79.4S38,9.5,78.8,9.5S152.5,40.8,152.5,79.4z"/>
	<path class="st82" d="M83.1,141.9c-40.7,0-73.7-31.3-73.7-69.9c0-10,2.2-19.8,6.6-28.8c-0.8,1.2-1.6,2.4-2.3,3.6
		C7.4,57.1,4.2,68.8,4.2,80.9c0,38.6,33,69.9,73.7,69.9c29.9,0,55.6-16.9,67.2-41.1C132,129,109.1,141.9,83.1,141.9z"/>
	<path class="st83" d="M22.5,52.7c3-10.9,11.9-21.4,30.2-28.1c2.1-0.8,3.1-3.1,2.3-5.2c-0.2-0.5-0.5-0.9-0.9-1.3l-0.4-0.4
		c-1-1-2.5-1.4-3.9-1C43,18.8,25.1,28.9,19.3,51.8c-0.2,0.7,0.1,1.4,0.7,1.8l0,0c0.8,0.5,1.8,0.3,2.3-0.4
		C22.4,53,22.5,52.9,22.5,52.7z"/>
	<circle class="st83" cx="20" cy="58.5" r="2.5"/>
</g>
<g class="st84">
	<path d="M129.3,23.5C99.3-5,51.8-3.9,23.2,26.1C10,39.9,2.6,58.3,2.5,77.5c0,2.3,0.1,4.6,0.3,6.8c0,0.3,0,0.5,0.1,0.8
		c0,0,0,0.1,0,0.1c1.4,19.1,10.5,36.7,25.3,48.8c28.4,30.1,75.9,31.5,106,3.1s31.5-75.9,3.1-106C134.8,28.3,132.1,25.8,129.3,23.5
		L129.3,23.5z"/>
</g>
</svg>
