<?xml version="1.0" encoding="utf-8"?>
<!-- Generator: Adobe Illustrator 25.2.3, SVG Export Plug-In . SVG Version: 6.00 Build 0)  -->
<svg version="1.1" id="Layer_1" xmlns="http://www.w3.org/2000/svg" xmlns:xlink="http://www.w3.org/1999/xlink" x="0px" y="0px"
	 viewBox="0 0 160 160" style="enable-background:new 0 0 160 160;" xml:space="preserve">
<style type="text/css">
	.st0{opacity:0.5;enable-background:new    ;}
	.st1{opacity:0.91;fill:url(#SVGID_1_);enable-background:new    ;}
	.st2{clip-path:url(#SVGID_3_);}
	.st3{opacity:0.29;fill:#932216;enable-background:new    ;}
	.st4{fill:none;stroke:#F4F2F2;stroke-width:0.5;stroke-miterlimit:10;}
	.st5{fill:none;}
	.st6{fill:#62D739;}
	.st7{fill:url(#SVGID_4_);}
	.st8{fill:url(#SVGID_5_);}
	.st9{fill:url(#SVGID_6_);}
	.st10{fill:#80E559;}
	.st11{opacity:0.5;fill:url(#SVGID_7_);enable-background:new    ;}
	.st12{fill:#73DD47;}
	.st13{opacity:0.3;}
	.st14{fill:#84E75A;}
	.st15{opacity:0.31;}
	.st16{fill:#5F8337;}
	.st17{opacity:0.5;fill:#5F8337;enable-background:new    ;}
	.st18{fill:#2BB51C;}
	.st19{fill:#1C8E16;}
	.st20{fill:#709B6D;}
	.st21{fill:#CC773E;}
	.st22{fill:#904E27;}
	.st23{fill:#7C3F29;}
	.st24{fill:#8C4D23;}
	.st25{fill:#723B17;}
	.st26{opacity:0.61;}
	.st27{fill:#666666;}
	.st28{fill:#1A1A1A;}
	.st29{fill:#E6E6E6;}
	.st30{fill:#C93140;}
	.st31{fill:#3BEAA2;}
	.st32{fill:url(#SVGID_8_);}
	.st33{fill:url(#SVGID_9_);}
	.st34{fill:#439C3D;}
	.st35{fill:#308C1F;}
	.st36{fill:#176713;}
	.st37{fill:#4FB62B;}
	.st38{opacity:0.22;enable-background:new    ;}
	.st39{fill:#218B8E;stroke:#0C4C4C;stroke-miterlimit:10;}
	.st40{fill:#D67F42;}
	.st41{fill:#C1723D;}
	.st42{fill:#FB975B;}
	.st43{fill:#934B1B;}
	.st44{fill:#699A59;}
	.st45{fill:#27423A;}
	.st46{fill:#9DBF6A;}
	.st47{fill:none;stroke:#27423A;stroke-width:0.5;stroke-miterlimit:10;}
	.st48{fill:#F9D1C6;stroke:#897F33;stroke-miterlimit:10;}
	.st49{fill:#FFC102;stroke:#916E0C;stroke-miterlimit:10;}
	.st50{fill:#EF852E;stroke:#60561A;stroke-miterlimit:10;}
	.st51{fill:#A32F07;}
	.st52{fill:#F9D1C6;}
	.st53{fill:#897F33;}
	.st54{fill:#D3978C;}
	.st55{fill:#FFFFFF;}
	.st56{fill:#4F4726;}
	.st57{fill:#2B2716;}
	.st58{fill:#240D00;}
	.st59{fill:#F5968E;}
	.st60{fill:#721F33;}
	.st61{fill:#F4EDEF;}
	.st62{fill:#E03859;}
	.st63{fill:#D26653;}
	.st64{fill:#F5AD03;}
	.st65{fill:#BC8E0C;stroke:#916E0C;stroke-miterlimit:10;}
	.st66{fill:#6B4C08;}
	.st67{fill:#442F06;}
	.st68{fill:#990E5A;}
	.st69{fill:#AD840E;stroke:#916E0C;stroke-miterlimit:10;}
	.st70{fill:#EFC54D;stroke:#916E0C;stroke-miterlimit:10;}
	.st71{fill:#C14489;}
	.st72{fill:url(#SVGID_10_);}
	.st73{fill:url(#SVGID_11_);}
	.st74{fill:url(#SVGID_12_);}
	.st75{fill:url(#SVGID_13_);}
	.st76{fill:#E9F1F4;stroke:#AF3A75;stroke-miterlimit:10;}
	.st77{fill:#73D3F4;stroke:#AF3A75;stroke-miterlimit:10;}
	.st78{fill:#D5F0F7;stroke:#AF3A75;stroke-miterlimit:10;}
	.st79{fill:none;stroke:#897F33;stroke-miterlimit:10;}
	.st80{opacity:0.2;fill:url(#SVGID_14_);enable-background:new    ;}
	.st81{opacity:0.5;fill:#4ECECE;enable-background:new    ;}
	.st82{opacity:0.6;fill:#FDFFFF;enable-background:new    ;}
	.st83{opacity:0.6;}
</style>
<ellipse class="st0" cx="82" cy="81.6" rx="74" ry="74.4"/>
<g id="_01-4">
	
		<radialGradient id="SVGID_1_" cx="-6980.8516" cy="-2275.2654" r="259.67" gradientTransform="matrix(0.33 0 0 -0.33 2383.29 -675.23)" gradientUnits="userSpaceOnUse">
		<stop  offset="0" style="stop-color:#FFFFFF"/>
		<stop  offset="0.61" style="stop-color:#D3F9FC"/>
		<stop  offset="0.93" style="stop-color:#48E5FF"/>
	</radialGradient>
	<path class="st1" d="M151.5,77.5c-0.1,40.8-33.3,73.9-74.1,73.8S3.5,118,3.6,77.1C3.7,36.4,36.8,3.4,77.6,3.4
		C118.4,3.4,151.5,36.6,151.5,77.5C151.5,77.5,151.5,77.5,151.5,77.5z"/>
	<g>
		<defs>
			<ellipse id="SVGID_2_" cx="76.8" cy="77" rx="73.8" ry="73.9"/>
		</defs>
		<clipPath id="SVGID_3_">
			<use xlink:href="#SVGID_2_"  style="overflow:visible;"/>
		</clipPath>
		<g class="st2">
			<path class="st3" d="M100.5,50.4c0,0,27.7,7.4,39.8,14.6s28,13,28,13l-41.2-0.2L100.5,50.4z"/>
			<line class="st4" x1="133.5" y1="98" x2="149.6" y2="98"/>
			<line class="st4" x1="133.3" y1="98.3" x2="149.4" y2="98.3"/>
			<line class="st4" x1="133.2" y1="98.6" x2="149.2" y2="98.6"/>
			<line class="st4" x1="133.2" y1="98.9" x2="149.2" y2="98.9"/>
			<line class="st4" x1="133" y1="99.2" x2="149.1" y2="99.2"/>
			<line class="st4" x1="132.9" y1="99.5" x2="148.9" y2="99.5"/>
			<line class="st4" x1="132.9" y1="99.8" x2="148.9" y2="99.8"/>
			<line class="st4" x1="132.7" y1="100.2" x2="148.8" y2="100.2"/>
			<line class="st5" x1="126.1" y1="87.2" x2="158.9" y2="87"/>
			<path class="st6" d="M153.8,117.5c0,0,2,0.3,0.3,1.2l0.9-0.3l0,0c0,0,0.9-0.4,0.9-0.9S153.8,117.5,153.8,117.5z"/>
			
				<linearGradient id="SVGID_4_" gradientUnits="userSpaceOnUse" x1="46.1073" y1="-12.4895" x2="84.3873" y2="176.7706" gradientTransform="matrix(1 0 0 -1 0 162)">
				<stop  offset="0.2" style="stop-color:#C5F7FD"/>
				<stop  offset="0.34" style="stop-color:#B3F0FD"/>
				<stop  offset="0.66" style="stop-color:#8EE1FD"/>
				<stop  offset="0.83" style="stop-color:#80DBFD"/>
			</linearGradient>
			<rect x="-52.8" y="-1" class="st7" width="250.1" height="93"/>
			
				<linearGradient id="SVGID_5_" gradientUnits="userSpaceOnUse" x1="143.2814" y1="130.9486" x2="153.3414" y2="141.0186" gradientTransform="matrix(1 0 0 -1 0 162)">
				<stop  offset="0.17" style="stop-color:#83DCFD"/>
				<stop  offset="0.9" style="stop-color:#D7EEF4"/>
			</linearGradient>
			<path class="st8" d="M143.1,25.4c0,0,0.2-1.5,2.7-2.5s4.7-1.6,6.9-0.4s1.7,3.8,1.3,4.1c-0.9,0.6-2.9,1.4-8.1,0.6
				C142.8,26.8,143.1,25.4,143.1,25.4z"/>
			
				<linearGradient id="SVGID_6_" gradientUnits="userSpaceOnUse" x1="-1.8541" y1="136.2041" x2="5.1559" y2="143.2141" gradientTransform="matrix(1 0 0 -1 0 162)">
				<stop  offset="0.17" style="stop-color:#83DCFD"/>
				<stop  offset="0.9" style="stop-color:#D7EEF4"/>
			</linearGradient>
			<path class="st9" d="M-2,21.8c0,0,0.1-1,1.9-1.7s3.3-1.1,4.8-0.3c1,0.5,1.5,1.8,0.9,2.8c0,0,0,0,0,0.1c-0.6,0.4-2,1-5.6,0.4
				C-2.2,22.8-2,21.8-2,21.8z"/>
			<polygon class="st10" points="-50.9,104.2 202.3,98.9 202.3,147.9 -50.9,147.9 			"/>
			
				<linearGradient id="SVGID_7_" gradientUnits="userSpaceOnUse" x1="8.035" y1="60.2" x2="8.035" y2="65.02" gradientTransform="matrix(1 0 0 -1 0 162)">
				<stop  offset="0" style="stop-color:#09170A"/>
				<stop  offset="0.58" style="stop-color:#2D550C"/>
				<stop  offset="1" style="stop-color:#16623E"/>
			</linearGradient>
			<path class="st11" d="M-46.8,98.4c4.2,0,8.4,0.3,12.7,0.3c5.2,0,10.4-0.3,15.6-0.2c2.9,0.1,5.9,0.2,8.9,0.3c2.7,0.1,5.3,0,8,0.1
				c5.5,0.2,10.8,0.9,16.2,1.3c11.5,0.8,23.1,1,34.8,1.1c4.2,0.1,8.3,0,12.4-0.1c0.8-0.1,1.5-0.2,2.3-0.2c1.3-0.1,2.6-0.1,3.9-0.1
				c-0.7,0-1.3,0-1.8,0c-4.4,0-14,0.4-19.1,0.2s-7.3,0-14.7-0.3s-15.9-1-21.1-1.2s-11-0.9-15.7-1s-8.3,0.2-14.9-0.2
				s-12.7,0.3-19.6-0.1c-4.6-0.3-9.6-0.5-12.7-0.6v0.8C-50.1,98.4-48.4,98.4-46.8,98.4z"/>
			<path class="st12" d="M151.8,64.1c-8.2,2.1-16.6,5.6-24.9,6.1c-10.9,0.7-21.6,3.2-32.4,3.8c-11,0.7-22,0.4-33-0.8
				c-9.6-1.1-19.3-0.1-28.9-1.2c-9.9-1.1-19.6-5-29.4-6C-4,65.3-11,64.2-18,62.7c-5.8-1.3-11.4-4.5-17.2-5.7
				c-5.5-1.2-11.3-3.2-16.8-3.4v113.7h249.2V48c-7.1,2.2-14,5-20.7,8.3C168.5,60.3,160,61.9,151.8,64.1z"/>
			<g class="st13">
				<path class="st14" d="M178.9,84.6c-0.9,0.6-1.8,1.2-2.6,1.7c-3.6,2.3-7.4,4.2-11.5,5.5c-8.6,2.7-18,2.7-26.3,6.2
					c5,0.6,10.1,0.6,15.1,0c3.5-0.3,7-0.5,10.5-0.8c2.7-0.2,5.4-0.5,8.2-0.5c2,0,4.9-0.1,6.6,1c1.4,0.9,0.9,2.3,0,3.3
					c-1.7,1.6-3.6,2.9-5.8,3.9c-2.8,1.4-5.7,2.5-8.7,3.3c-2.9,0.9-5.8,1.5-8.8,1.7c-2,0.1-4.4,0.1-6.1-1c-0.1-0.1-0.1-0.2,0-0.2
					c1.9-1.9,5.4-1.9,7-4c-3.9-1.4-8.6-0.6-12.6-0.3c-5.1,0.4-10.2,1-15.3,1.1c-10.9,0.3-21.6-2.4-32.4-2.2
					c-5.7,0.1-11.3,0.3-17,0.4s-11.2,0-16.8-0.1c-4.1-0.1-8.3,0-12.4-0.3c-3.6-0.2-7.6-0.7-10.6-2.6c-0.1,0-0.1-0.1-0.1-0.2
					c0,0,0-0.1,0.1-0.1c0.3-0.1,0.7-0.2,1-0.2c2.4-0.2,4.8-0.2,7.2,0c2.7,0,5.4-0.1,8.1-0.4c2.7-0.3,5.5-0.6,8.2-0.8
					c1.3-0.1,2.6-0.1,3.9-0.1c-2.3-0.1-4.6-0.3-6.9-0.5c-9.6-0.8-19.3-0.1-28.9-0.9c-9.9-0.8-19.6-3.7-29.5-4.5
					c-7.1-0.5-14-1.3-21.1-2.5c-5.8-1-11.4-3.4-17.2-4.4c-5.5-0.9-11.3-2.4-16.8-2.6v2c1.1,0.1,2.3,0.2,3.4,0.3
					c10.7,1.3,20.9,4.6,31.2,7.1c2.6,0.6,5.2,1.2,7.8,1.6c2.5,0.4,4.9,0.6,7.4,0.7c4.1,0.2,8.6,0.4,12.1,2.3c0.1,0,0.1,0.1,0.1,0.2
					c0,0,0,0.1-0.1,0.1C7.3,98.6,5,99,2.7,99.1c-4.4,0.2-8.8-0.2-13.1-0.2c-5,0-9.9,1-14.7,2c-2.7,0.6-5.5,1.2-8.2,1.7
					c-1.8,0.3-3.6,0.4-5.4,0.7c-2,0.2-3.9,0.6-5.7,1.4c-0.5,0.2-0.9,0.5-1.3,0.8c-0.3,0.3-0.4,0.3-0.1,0.6c0.4,0.4,0.8,0.7,1.3,0.9
					c2.6,1.3,6,1.5,8.9,1.7c3.3,0.1,6.6,0,9.9,0c2.9,0,5.8,0.2,8.7,0.3c3.5,0.1,7.8,0,10.8,1.8c0.1,0,0.1,0.1,0.1,0.2c0,0,0,0,0,0
					c-0.8,1.3-2,1.5-3.6,1.6s-2.8,0.5-4.2,0.7c-1.2,0.2-2.4,0.3-3.6,0.5c-2.8,0.3-5.5,0.5-8.3,0.7c-5.6,0.4-11.2,1.1-16.8,1.8
					c-3.3,0.4-6.5,0.9-9.8,1.1v51h249.3v-89C190.7,80.8,184.8,82.5,178.9,84.6z"/>
			</g>
			<g class="st15">
				<path class="st16" d="M198.4,122.2c-2.4,0.6-4.8,1.4-7,2.5c-0.5,0.3-1.2,0.7-1.1,1.1c0.1,0.8,1.7,1.4,2.6,1.8
					c1.9,0.8,5.2,2,4.3,3.9c-0.5,0.9-1.9,1.4-3.3,1.6c-2.1,0.4-4.2,0.6-6.3,0.9c-10.9,1.4-22.1,1.5-33.1,1.5h-17.2
					c-2.5,0-5,0.1-7.6,0c-2.1,0-4.2-0.2-6.3-0.8c-0.1,0-0.1-0.2,0-0.2c6.1-2.3,13.6-2.4,20.4-2.6c2.2-0.1,4.5-0.1,6.7-0.2
					c2.6-0.1,5.1-0.3,7.6-0.4l8.6-0.5c2.6-0.2,5.3-0.4,7.9-0.5c2,0.1,4.1-0.2,6.1-0.7c0.5-0.2,1-0.4,1.4-0.7
					c0.5-0.3,0.3-0.5-0.3-0.6c-0.9-0.2-1.8-0.2-2.8-0.2c-2,0.1-3.9,0.4-5.9,0.5c-2.9,0.2-5.8,0.3-8.6,0.3c-5.8,0-11.6-0.3-17.3-0.3
					c-5.2,0-10.5,0.1-15.7,0.2c-3,0.2-5.9,0.5-8.8,0.9c-2.7,0.4-5.4,1-8.1,1.5s-5.3,0.8-7.9,1c-5.4,0.4-10.8,0.4-16.1,0.2
					c-4.1-0.2-8.1-0.5-12.1-1c-11.5-0.4-23-1.3-34.5-0.5c4.7,1,9.4,1.5,14.1,1.6c4.5,0.2,9.1,0.4,13.6,0.5s8.9,0,13.4,0.2
					c4,0,7.9,0.7,11.7,1.9c0.1,0.1,0.1,0.1,0,0.2c-2.6,1.3-6.2,1.4-9.2,1.5c-3.7,0.1-7.4-0.1-11.1-0.3c-4.7-0.2-9.4-0.2-14.1-0.2
					c-5.5-0.1-11-0.1-16.5-0.3c-5.8-0.2-11.6-0.6-17.4-1s-11.4-0.9-17.2-0.9s-11.5,0-17.2-0.1c-2.4,0-4.9,0-7.3-0.1
					c-1.8,0.1-3.5-0.3-5.1-1c0,0-0.1-0.1,0-0.1c0,0,0,0,0,0c2-1.4,5.2-1.7,7.9-1.9c3.7-0.3,7.4-0.2,11.1-0.1c4.5,0.1,9,0,13.5,0.1
					c2.9,0,5.9,0,8.8,0c2.2,0,4.4-0.1,6.6-0.1c2,0.1,4,0.1,6,0.1c1.8,0,3.7-0.3,5.4-1c-6.4-1.2-12.8-1.9-19.3-2.1
					c-6.5-0.3-13-0.3-19.5-0.7c-5.8-0.3-11.7-1-17.5-1.2c-2.7-0.1-5.5,0.1-8.2,0.2c-3.3,0.2-6.7,0.1-10-0.1
					c-1.8-0.2-4.5-0.4-5.3-1.7c0,0,0-0.1,0-0.1c3.4-1.8,8.5-2,12.7-2.3c5.9-0.4,11.6-1.3,17.5-1.7c2.5-0.1,4.9-0.5,7.3-1.1
					c1.8-0.6,3.7-1.2,5.6-1.6c2-0.3,4.5-0.6,6.1-1.5c0.3-0.2,0.2-0.1-0.1-0.3s-0.3-0.2-0.5-0.3c-0.3-0.1-0.6-0.2-0.9-0.3
					c-0.7-0.2-1.5-0.4-2.2-0.4c-3.6-0.4-7.2,0.1-10.8,0.2c-3.1,0.1-6.4,0-8.7-1.6c-0.1-0.1-0.1-0.2,0-0.2c2.1-0.8,4.3-1.3,6.5-1.5
					c2.5-0.3,5-0.4,7.6-0.6c2.3-0.2,4.6-0.4,7-0.6c2.8-0.2,5.6-0.4,8.3-0.8c2-0.3,3.9-0.7,5.8-1.4c1.2-0.5,3.4-1.4,3.3-2.5
					c0-0.2-0.1-0.3-0.2-0.4c-6.8-0.9-13.6-2-20.4-2.4c-7.4-0.4-14.5-1-21.8-1.9c-6-0.7-11.8-2.6-17.8-3.4c-5.7-0.7-11.6-1.9-17.4-2
					v1.6c1.2,0.1,2.3,0.2,3.5,0.3c11,1,21.6,3.6,32.3,5.6c2.7,0.5,5.4,0.9,8.1,1.3c2.6,0.3,5.1,0.4,7.7,0.5
					c4.2,0.1,8.9,0.3,12.5,1.8c0.1,0,0.1,0.2,0,0.2c-2.3,0.7-4.6,1-7,1.1c-4.5,0.2-9.1-0.2-13.6-0.2c-5.1,0.1-10.2,0.7-15.2,1.6
					c-2.8,0.4-5.6,1-8.5,1.3c-1.8,0.2-3.7,0.3-5.6,0.5c-2,0.1-4,0.5-5.9,1.1c-0.5,0.2-0.9,0.4-1.4,0.6c-0.4,0.2-0.4,0.2-0.1,0.5
					c0.4,0.3,0.9,0.6,1.3,0.8c2.7,1,6.2,1.2,9.2,1.3c3.4,0.1,6.8,0,10.2,0c3,0,6,0.2,9,0.3c3.6,0.1,8,0,11.2,1.4
					c0.1,0,0.1,0.1,0.1,0.2c-0.8,1-2.1,1.2-3.7,1.3s-2.9,0.4-4.4,0.5c-1.3,0.2-2.5,0.3-3.8,0.4c-2.8,0.2-5.7,0.4-8.6,0.6
					c-5.8,0.3-11.6,0.8-17.4,1.5c-3.4,0.4-6.7,0.7-10.1,0.9v40.2h257.9v-42.3C203.4,120.9,200.9,121.5,198.4,122.2z"/>
			</g>
			<path class="st17" d="M78.4,105.4h-1c-0.5,0-1,0.1-1.5,0.3l0,0c1,0.2,2,0.3,3,0.2c0.3,0,2.3,0,2.2-0.3S78.9,105.4,78.4,105.4z"/>
			<path class="st17" d="M89.8,104.3c-0.7-0.2-1.4-0.2-2.1-0.1c-0.2,0-0.6,0-1,0h-0.3c-0.2,0-0.8,0.1-0.5,0.2c0.5,0.1,1,0.1,1.5,0.1
				c0.5,0,1,0,1.5-0.1c0.3,0,0.6,0,0.9-0.1C89.8,104.4,89.9,104.3,89.8,104.3z"/>
			<path class="st17" d="M11.2,113.6h-1c-0.5,0-1,0.1-1.5,0.3c0,0,0,0,0,0.1c1,0.2,2,0.3,3,0.2c0.3,0,2.3,0,2.2-0.3
				S11.7,113.6,11.2,113.6z"/>
			<path class="st17" d="M22.7,114.5c-0.7-0.2-1.4-0.2-2.1-0.1c-0.2,0-0.6,0-1,0h-0.3c-0.2,0-0.8,0.1-0.5,0.2c0.5,0.1,1,0.1,1.5,0.1
				c0.5,0,1,0,1.5-0.1c0.3,0,0.6,0,0.9-0.1C22.7,114.6,22.7,114.5,22.7,114.5z"/>
			<path class="st17" d="M84.6,115.3h-0.7c-0.4,0-0.7,0-1.1,0.2l0,0c0.7,0.2,1.4,0.2,2.1,0.1c0.2,0,1.6,0,1.5-0.2
				S85,115.3,84.6,115.3z"/>
			<path class="st17" d="M92.6,115.9c-0.5-0.1-1-0.1-1.5-0.1c-0.1,0-0.4,0-0.7,0h-0.2c-0.1,0-0.6,0.1-0.3,0.2c0.3,0.1,0.7,0.1,1,0.1
				c0.3,0,0.7,0,1,0c0.2,0,0.4,0,0.6-0.1C92.6,115.9,92.7,115.9,92.6,115.9z"/>
			<path class="st17" d="M127.4,116.3c0,0.3-4,0.5-8.9,0.5s-8.9-0.2-8.9-0.5s4-0.5,8.9-0.5S127.4,116,127.4,116.3z"/>
			<path class="st18" d="M139.9,109.9c1-0.6,2.1-1,3.3-1.1c2.2-0.2-2.3-1.1-3.9,1.1C139.2,109.9,138.5,110.8,139.9,109.9z"/>
			<path class="st18" d="M136.8,110c1.6-1.3,3.4-2.5,5.2-3.4c1.9-0.7-1.9-0.8-4.4,1.5C137.6,108,136.3,109.4,136.8,110z"/>
			<path class="st18" d="M135.9,110c0,0,2.2-4.4,3.2-5s-1.6-0.8-3.2,2.7C135.9,107.8,135.2,109.7,135.9,110z"/>
			<path class="st18" d="M134.7,110c0,0,0.8-4,1.6-4.7S133.3,106,134.7,110z"/>
			<path class="st18" d="M134.2,110c0,0,0-3.4-1.7-3.9S133.5,108.3,134.2,110z"/>
			<path class="st18" d="M133.6,110c-1.1-0.9-2.5-1.5-4-1.5C127,108.4,132,107.5,133.6,110z"/>
			<path class="st18" d="M133.4,110c-1-1-2.4-1.5-3.8-1.4C127.2,108.7,132.8,109.5,133.4,110z"/>
			<path class="st19" d="M-52.7,74.3c30.1,1.2,46.7,1.3,62.7,1.7c55,1.4,53.7-1.2,84.3,0.6c20,1.1,52.4-1.8,72.3-0.3
				c9.4,0.7,18.9,0.9,28.3,0.6c1.6,0,1.4,2.3,1.8,0.5c0.9-4,0.7-0.1,0.7,0.3c-0.1,2.1-0.8,0.7-0.6,1.7l-248.1,0.2L-52.7,74.3z"/>
			<path class="st20" d="M-58,56.4c-0.1-1.8-4.4-3.4-1.5-4.8c5.4-2.6,17.2-3.4,31.3-1.7c26.1,3.1,37.3-1.8,62.3,2
				c4.9,0.9,9.9,1.1,14.8,0.8c8.7-0.5,2.5,1.4,22.1-1.1c4.5-0.6,9-0.4,13.5,0.6c9.6,2.1,20.9-0.3,29.7,0.6
				c3.9,0.4,30.6-2.7,32.8-2.9c48.8-5.1,48.3,4.1,48.2,4.6c0,0,2.6,0.2,5.3,0.3l0,0L198.3,70H-47.5L-58,56.4z"/>
			<polygon class="st21" points="-51.6,63.1 -51.6,77 65.3,77 65.3,63.8 			"/>
			<rect x="-51.6" y="61.9" class="st22" width="116.9" height="2.2"/>
			<rect x="-51.6" y="60.8" class="st21" width="116.9" height="2.2"/>
			<rect x="15.6" y="66.8" class="st23" width="2.2" height="1.2"/>
			<rect x="16.6" y="68.3" class="st23" width="2.2" height="1.2"/>
			<rect x="37.5" y="67.4" class="st23" width="2.2" height="1.2"/>
			<rect x="38.6" y="68.9" class="st23" width="2.2" height="1.2"/>
			<rect x="24.9" y="69.9" class="st23" width="2.2" height="1.2"/>
			<rect x="26" y="71.4" class="st23" width="2.2" height="1.2"/>
			<rect x="58.4" y="67.4" class="st23" width="2.2" height="1.2"/>
			<rect x="59.5" y="68.9" class="st23" width="2.2" height="1.2"/>
			<polygon class="st21" points="197.3,62.7 197.3,76.9 63.5,76.4 63.5,63.4 			"/>
			<rect x="63.5" y="62.7" class="st24" width="133.8" height="1.2"/>
			<rect x="65.3" y="60.6" class="st21" width="131.9" height="2.4"/>
			<rect x="150.9" y="66.2" class="st25" width="2.5" height="1.2"/>
			<rect x="149.7" y="67.7" class="st25" width="2.5" height="1.2"/>
			<rect x="142.9" y="70.8" class="st25" width="2.5" height="1.2"/>
			<rect x="141.7" y="72.2" class="st25" width="2.5" height="1.2"/>
			<rect x="117.9" y="66.3" class="st25" width="2.5" height="1.2"/>
			<rect x="116.7" y="67.8" class="st25" width="2.5" height="1.2"/>
			<rect x="92.8" y="66.9" class="st25" width="2.5" height="1.2"/>
			<rect x="91.6" y="68.4" class="st25" width="2.5" height="1.2"/>
			<rect x="107.3" y="69.4" class="st25" width="2.5" height="1.2"/>
			<rect x="106" y="70.9" class="st25" width="2.5" height="1.2"/>
			<rect x="68.9" y="66.9" class="st25" width="2.5" height="1.2"/>
			<rect x="67.6" y="68.4" class="st25" width="2.5" height="1.2"/>
			<rect x="156.4" y="70.6" class="st25" width="2.5" height="1.2"/>
			<g class="st26">
				<path class="st27" d="M25.1,57.5h-1.6v-0.7c0.1-0.1,0.2-0.2,0.2-0.4c0-0.3-0.3-0.4-0.5-0.4c-0.2,0-0.4,0.2-0.4,0.4
					c0,0.2,0.1,0.3,0.2,0.4v0.7H9.5v-0.7c0.1-0.1,0.2-0.2,0.2-0.4c0-0.3-0.3-0.4-0.5-0.4c-0.2,0-0.4,0.2-0.4,0.4
					c0,0.2,0.1,0.3,0.2,0.4v0.7H-4.4v-0.7c0.1-0.1,0.2-0.2,0.2-0.4c0-0.3-0.2-0.4-0.5-0.4c-0.2,0-0.5,0.2-0.5,0.4c0,0,0,0,0,0
					c0,0.2,0.1,0.3,0.2,0.4v0.7h-13.5v-0.7c0.1-0.1,0.2-0.2,0.2-0.4c0-0.3-0.2-0.4-0.5-0.4c-0.2,0-0.5,0.2-0.5,0.4c0,0,0,0,0,0
					c0,0.2,0.1,0.3,0.2,0.4v0.7h-13.5v-0.7c0.1-0.1,0.2-0.2,0.2-0.4c0-0.3-0.2-0.4-0.5-0.4c-0.2,0-0.5,0.2-0.5,0.4c0,0,0,0,0,0
					c0,0.2,0.1,0.3,0.2,0.4v0.7h-13.5v-0.7c0.1-0.1,0.2-0.2,0.2-0.4c0-0.3-0.2-0.4-0.5-0.4c-0.2,0-0.5,0.2-0.5,0.4c0,0,0,0,0,0
					c0,0.2,0.1,0.3,0.2,0.4v0.7h-13.5v-0.7c0.1-0.1,0.2-0.2,0.2-0.4c0-0.3-0.2-0.4-0.5-0.4c-0.2,0-0.5,0.2-0.5,0.4c0,0,0,0,0,0
					c0,0.2,0.1,0.3,0.2,0.4v0.7h-9.1v0.7h9.1V61h0.5v-2.9h13.5V61h0.5v-2.9h13.5V61h0.5v-2.9h13.5V61h0.5v-2.9h13.5V61h0.5v-2.9H9.1
					V61h0.5v-2.9H23V61h0.5v-2.9h1.6V57.5z"/>
				<path class="st28" d="M-4.2,57.9v-0.4h-0.2v-0.7c0.1-0.1,0.2-0.2,0.2-0.4c0-0.2-0.1-0.3-0.3-0.4c0,0.1,0,0.1,0,0.2
					c0,0.2-0.2,0.4-0.5,0.4c0,0,0,0,0,0c-0.1,0-0.1,0-0.2,0c0.1,0.2,0.2,0.3,0.4,0.3h0.1V61h0.1v-2.9H9.1v-0.2H-4.2z"/>
				<path class="st28" d="M9.8,57.5H9.5v-0.7c0.1-0.1,0.2-0.2,0.2-0.4c0-0.2-0.1-0.3-0.3-0.4c0,0.1,0,0.1,0,0.2
					c0,0.2-0.2,0.4-0.5,0.4c0,0,0,0,0,0c-0.1,0-0.1,0-0.2,0c0.1,0.2,0.2,0.3,0.4,0.3h0.1V61h0.1v-2.9H23v-0.2H9.8V57.5z"/>
			</g>
			<g class="st26">
				<path class="st27" d="M118.3,57.5h-1.6v-0.7c0.1-0.1,0.2-0.2,0.2-0.4c0-0.2-0.2-0.4-0.5-0.4c0,0,0,0,0,0c-0.3,0-0.5,0.2-0.5,0.4
					c0,0.2,0.1,0.3,0.2,0.4v0.7h-13.5v-0.7c0.1-0.1,0.2-0.2,0.2-0.4c0-0.2-0.2-0.4-0.5-0.4c0,0,0,0,0,0c-0.3,0-0.5,0.2-0.5,0.4
					c0,0.2,0.1,0.3,0.2,0.4v0.7H88.8v-0.7c0.1-0.1,0.2-0.2,0.2-0.4c0-0.3-0.3-0.4-0.5-0.4c-0.2,0-0.4,0.2-0.4,0.4
					c0,0.2,0.1,0.3,0.2,0.4v0.7H74.9v-0.7c0.1-0.1,0.2-0.2,0.2-0.4c0-0.3-0.3-0.4-0.5-0.4c-0.2,0-0.4,0.2-0.4,0.4
					c0,0.2,0.1,0.3,0.2,0.4v0.7H60.9v-0.7c0.1-0.1,0.2-0.2,0.2-0.4c0-0.3-0.3-0.4-0.5-0.4c-0.2,0-0.4,0.2-0.4,0.4
					c0,0.2,0.1,0.3,0.2,0.4v0.7H47v-0.7c0.1-0.1,0.2-0.2,0.2-0.4c0-0.3-0.3-0.4-0.5-0.4c-0.2,0-0.4,0.2-0.4,0.4
					c0,0.2,0.1,0.3,0.2,0.4v0.7H33v-0.7c0.1-0.1,0.2-0.2,0.2-0.4c0-0.3-0.3-0.4-0.5-0.4c-0.2,0-0.4,0.2-0.4,0.4
					c0,0.2,0.1,0.3,0.2,0.4v0.7h-9.1v0.7h9.1V61h0.5v-2.9h13.5V61H47v-2.9h13.5V61h0.5v-2.9h13.5V61h0.5v-2.9h13.5V61h0.5v-2.9h13.5
					V61h0.5v-2.9h13.5V61h0.5v-2.9h1.6L118.3,57.5z"/>
				<path class="st29" d="M60.4,56.4c0.2,0.2,0.6-0.2,0.4-0.3S60.2,56.2,60.4,56.4z"/>
				<path class="st29" d="M74.3,56.4c0.2,0.2,0.6-0.2,0.4-0.3S74.1,56.2,74.3,56.4z"/>
				<path class="st29" d="M88.3,56.4c0.2,0.2,0.6-0.2,0.4-0.3S88.1,56.2,88.3,56.4z"/>
				<path class="st29" d="M46.4,56.4c0.2,0.2,0.6-0.2,0.4-0.3S46.2,56.2,46.4,56.4z"/>
				<path class="st28" d="M33.3,57.5H33v-0.7c0.1-0.1,0.2-0.2,0.2-0.4c0-0.2-0.1-0.3-0.3-0.3c0,0.1,0,0.1,0,0.2
					c0,0.2-0.2,0.4-0.5,0.4c0,0,0,0,0,0c-0.1,0-0.1,0-0.2,0c0.1,0.2,0.2,0.3,0.4,0.3h0.1V61H33v-2.9h13.5v-0.2H33.3V57.5z"/>
				<path class="st28" d="M61.2,57.9v-0.4h-0.2v-0.7c0.2-0.1,0.3-0.4,0.2-0.6c0-0.1-0.1-0.2-0.2-0.2c0,0.1,0,0.1,0,0.2
					c0,0.3-0.2,0.4-0.5,0.4c-0.1,0-0.1,0-0.2,0c0.1,0.2,0.2,0.3,0.4,0.3h0.1V61h0.1v-2.9h13.5v-0.2L61.2,57.9z"/>
				<path class="st28" d="M75.1,57.9v-0.4h-0.2v-0.7c0.2-0.1,0.3-0.4,0.2-0.6c0-0.1-0.1-0.2-0.2-0.2c0,0.1,0,0.1,0,0.2
					c0,0.3-0.2,0.4-0.5,0.4c-0.1,0-0.1,0-0.2,0c0.1,0.2,0.2,0.3,0.4,0.3h0.1V61h0.1v-2.9h13.5v-0.2H75.1z"/>
				<path class="st28" d="M89,57.9v-0.4h-0.2v-0.7c0.1-0.1,0.2-0.2,0.2-0.4c0-0.2-0.1-0.3-0.3-0.4c0,0.1,0,0.1,0,0.2
					c0,0.3-0.2,0.5-0.5,0.4c-0.1,0-0.1,0-0.2,0c0.1,0.2,0.2,0.3,0.4,0.3h0.1V61h0.1v-2.9h13.5v-0.2H89z"/>
				<path class="st28" d="M103,57.5h-0.2v-0.7c0.1-0.1,0.2-0.2,0.2-0.4c0-0.2-0.1-0.3-0.3-0.4c0,0.1,0,0.1,0,0.2
					c0,0.2-0.2,0.4-0.5,0.4c0,0,0,0,0,0c-0.1,0-0.1,0-0.2,0c0.1,0.2,0.2,0.3,0.4,0.3h0.1V61h0.1v-2.9h13.5v-0.2H103V57.5z"/>
				<path class="st28" d="M47.2,57.9v-0.4H47v-0.7c0.1-0.1,0.2-0.2,0.2-0.4c0-0.1-0.1-0.3-0.2-0.3c0,0.1,0,0.1,0,0.2
					c0,0.2-0.2,0.4-0.5,0.4c0,0,0,0,0,0c-0.1,0-0.1,0-0.2,0c0.1,0.2,0.2,0.3,0.4,0.3h0.1V61H47v-2.9h13.5v-0.2H47.2z"/>
			</g>
			<g class="st26">
				<path class="st27" d="M211.5,57.5h-1.6v-0.7c0.1-0.1,0.2-0.2,0.2-0.4c0-0.3-0.3-0.4-0.5-0.4c-0.2,0-0.4,0.2-0.4,0.4
					c0,0.2,0.1,0.3,0.2,0.4v0.7H196v-0.7c0.1-0.1,0.2-0.2,0.2-0.4c0-0.3-0.3-0.4-0.5-0.4c-0.2,0-0.4,0.2-0.4,0.4
					c0,0.2,0.1,0.3,0.2,0.4v0.7H182v-0.7c0.1-0.1,0.2-0.2,0.2-0.4c0-0.3-0.3-0.4-0.5-0.4c-0.2,0-0.4,0.2-0.4,0.4
					c0,0.2,0.1,0.3,0.2,0.4v0.7h-13.5v-0.7c0.1-0.1,0.2-0.2,0.2-0.4c0-0.3-0.2-0.4-0.5-0.4c-0.2,0-0.5,0.2-0.5,0.4c0,0,0,0,0,0
					c0,0.2,0.1,0.3,0.2,0.4v0.7h-13.5v-0.7c0.1-0.1,0.2-0.2,0.2-0.4c0-0.3-0.2-0.4-0.5-0.4c-0.2,0-0.5,0.2-0.5,0.4c0,0,0,0,0,0
					c0,0.2,0.1,0.3,0.2,0.4v0.7h-13.5v-0.7c0.1-0.1,0.2-0.2,0.2-0.4c0-0.3-0.2-0.5-0.5-0.5c-0.3,0-0.5,0.2-0.5,0.5
					c0,0.2,0.1,0.3,0.2,0.4v0.7h-13.5v-0.7c0.1-0.1,0.2-0.2,0.2-0.4c0-0.2-0.2-0.4-0.5-0.4c0,0,0,0,0,0c-0.3,0-0.5,0.2-0.5,0.4
					c0,0.2,0.1,0.3,0.2,0.4v0.7h-9.1v0.7h9.1V61h0.5v-2.9h13.5V61h0.5v-2.9h13.5V61h0.5v-2.9h13.5V61h0.5v-2.9h13.5V61h0.4v-2.9
					h13.5V61h0.5v-2.9h13.5V61h0.5v-2.9h1.6L211.5,57.5z"/>
				<path class="st29" d="M153.6,56.4c0.2,0.2,0.6-0.2,0.4-0.3S153.4,56.2,153.6,56.4z"/>
				<path class="st29" d="M139.7,56.4c0.2,0.2,0.6-0.2,0.4-0.3S139.5,56.2,139.7,56.4z"/>
				<path class="st28" d="M126.5,57.5h-0.2v-0.7c0.1-0.1,0.2-0.2,0.2-0.4c0-0.2-0.1-0.3-0.3-0.4c0,0.1,0,0.1,0,0.2
					c0,0.2-0.2,0.4-0.5,0.4c0,0,0,0,0,0c-0.1,0-0.1,0-0.2,0c0.1,0.2,0.2,0.3,0.4,0.3h0.1V61h0.1v-2.9h13.5v-0.2h-13.2V57.5z"/>
				<path class="st28" d="M154.4,57.9v-0.4h-0.2v-0.7c0.2-0.1,0.3-0.3,0.2-0.5c0-0.1-0.1-0.2-0.2-0.2c0,0.1,0,0.1,0,0.2
					c0,0.2-0.2,0.4-0.5,0.4c0,0,0,0,0,0c-0.1,0-0.1,0-0.2,0c0.1,0.2,0.2,0.3,0.4,0.3h0.1V61h0.1v-2.9h13.5v-0.2L154.4,57.9z"/>
				<path class="st28" d="M140.4,57.9v-0.4h-0.2v-0.7c0.1-0.1,0.2-0.2,0.2-0.4c0-0.2-0.1-0.3-0.3-0.4c0,0.1,0,0.1,0,0.2
					c0,0.2-0.2,0.4-0.5,0.4c0,0,0,0,0,0c-0.1,0-0.1,0-0.2,0c0.1,0.2,0.2,0.3,0.4,0.3h0.1V61h0.1v-2.9h13.5v-0.2H140.4z"/>
			</g>
			<rect x="63.9" y="59.8" class="st22" width="0.7" height="2.8"/>
			<ellipse class="st30" cx="64.2" cy="57.7" rx="1.9" ry="2.8"/>
			<rect x="122.5" y="59.7" class="st22" width="0.7" height="2.8"/>
			<ellipse class="st30" cx="122.8" cy="57.6" rx="1.9" ry="2.8"/>
			<path class="st31" d="M198.9,27.4c-0.3-3-1.4-5.9-3.1-8.3c-5.7-7.4-16.7-3.9-20.2-2.9c-8.7,2.7-13.2,9.7-16,13.5
				c-0.5,0.4-0.6,2.3-1.1,2.8c6.1,1.3,12.1,0.3,20.4,0.1c6.4-0.1,12.7-0.8,19-2.1L198.9,27.4z"/>
			
				<linearGradient id="SVGID_8_" gradientUnits="userSpaceOnUse" x1="3669.9358" y1="123.1155" x2="3651.3958" y2="167.0555" gradientTransform="matrix(-1 0 0 -1 3845.1001 162)">
				<stop  offset="0.26" style="stop-color:#55B093"/>
				<stop  offset="0.39" style="stop-color:#61C489"/>
				<stop  offset="0.56" style="stop-color:#6DDB7D"/>
				<stop  offset="0.68" style="stop-color:#72E379"/>
			</linearGradient>
			<path class="st32" d="M199.2,27.1c-0.3-2.9-1.3-5.7-3.1-8c-5.7-7.1-16.6-3.8-20-2.8c-8.6,2.6-13.4,9.2-16.2,12.9
				c-0.4,0.4-0.4,2.7-0.9,3.1c6,1.2,12.1,0,20.4-0.2c6.3-0.1,12.6-0.8,18.8-2L199.2,27.1z"/>
			<path class="st31" d="M196.8,31.2c-2.4-2.2-5.1-4-8.1-5.2c-4.5-2.2-10.5-7.1-17.8-4.8c-5.6,2.1-9.8,5.1-12.3,10.5
				c-1.2,3.2-1.4,7,7.9,6.5l25.8,0C192.2,38.1,202.3,37.3,196.8,31.2z"/>
			
				<linearGradient id="SVGID_9_" gradientUnits="userSpaceOnUse" x1="3669.3179" y1="118.0636" x2="3660.7979" y2="147.3936" gradientTransform="matrix(-1 0 0 -1 3845.1001 162)">
				<stop  offset="7.000000e-02" style="stop-color:#39A57E"/>
				<stop  offset="0.67" style="stop-color:#72E379"/>
			</linearGradient>
			<path class="st33" d="M197.2,32c-2.4-2.2-5.1-4-8.2-5.3c-4.6-2.2-10.6-7.2-18-4.9c-5.7,2.2-9.9,5.1-12.4,10.7
				c-1.2,3.2-1.4,7.1,7.9,6.6h26.1C192.5,39,202.7,38.2,197.2,32z"/>
			<path class="st19" d="M196.1,67.5c0,0-2,0.4-1,2.1c-5.5-1.8-8.6-0.2-8.4,2c-5.6-0.4-7.2,3.6-5,4.4c-3-1-6.2-0.7-9,0.7
				c-4.3-2.1-14.6,0.9-17.3,2.5l40.1,0.1L196.1,67.5z"/>
			<path class="st34" d="M30.6,78.9H63c0.1-0.3,0-0.6-0.2-0.8c-0.8-0.9-2.9-0.8-2.9-0.8s2.1-1.1,0.8-1.8c-1-0.4-2-0.4-3-0.1
				c0,0,1.7-1.3-0.2-2l-0.2-0.1c-1-0.3-2-0.2-2.9,0.3c-0.3-0.5-0.8-0.9-1.4-0.9c-0.7-0.1-1.4,0-1.9,0.4c0,0-0.5-1-2.5-1
				c-2.7,0.1-2.8,1.1-2.8,1.1c-0.6-0.5-1.3-0.7-2-0.7c-0.5,0-1,0.4-1,0.9c0,0-1-1.3-4.2-0.9h-0.1c-3.2,0.4-2.3,2-2.3,2
				c-0.8-0.3-1.7-0.3-2.5-0.1c-0.2,0.1-0.3,0.1-0.5,0.2c-1,0.7,0.1,1.5,0.2,1.5s-2-0.2-2.7,0.7C30.1,77.5,30.1,78.3,30.6,78.9z"/>
			<path class="st34" d="M153.8,73.2h34.4v-6.8c-0.6-1.3-2.5-2-3.6-1.1c0.1-1.6-0.7-3-2.2-3.6c-1.5-0.7-3.2-0.4-4.3,0.8
				c0,0-0.8-3-4-1.4c-1-1.7-3.6-1.5-3.8,0.6c0,0-1.9-2.7-4.9-2.1c-1.7,0.3-2.9,1.7-3,3.3l-0.2-0.1c-1.3-0.6-2.9-0.5-4.1,0.3
				c-1.3,0.7-2,2.3-1.7,3.7c0,0.2,0.1,0.5,0.1,0.7c0,0-2-0.2-3,2.5C153,71,153.2,72.2,153.8,73.2z"/>
			<path class="st34" d="M102.9,78.4h82.4V63.9c-1.4-2.7-6.1-4.3-8.7-2.4c0,0,0.8-5.2-5.2-7.7c-3.5-1.5-7.5-0.8-10.4,1.7
				c0,0-2-6.3-9.5-3c-2.4-3.6-8.6-3.3-9.2,1.3c0,0-4.6-5.8-11.8-4.4s-7.2,7.1-7.2,7.1s-0.2-0.1-0.6-0.3c-3.1-1.4-6.8-1.2-9.7,0.6
				c-4.5,2.9-4.4,5.7-4,7.9c0.1,0.5,0.2,1,0.3,1.5c0,0-4.8-0.5-7.3,5.3C101.1,73.9,101.4,76.5,102.9,78.4z"/>
			<path class="st34" d="M2.7,77.7h-59.4v-8.5c1.6-1.8,4.1-2.4,6.3-1.4c0,0-0.6-3.1,3.8-4.5c2.5-0.9,5.3-0.5,7.5,1
				c0,0,1.4-3.7,6.8-1.8c1.7-2.1,6.2-1.9,6.6,0.8c2.3-2.1,5.4-3,8.5-2.6c5.1,0.8,5.2,4.2,5.2,4.2l0.4-0.2c2.3-0.8,4.8-0.7,7,0.4
				c3.3,1.7,3.2,3.3,2.9,4.6C-1.8,70-1.9,70.3-2,70.6c2.2-0.1,4.2,1.1,5.3,3.1C4,75,3.8,76.7,2.7,77.7z"/>
			<path class="st35" d="M122.3,123.5c0,0,4-0.6,3.9-2.3S122.3,123.5,122.3,123.5z"/>
			<path class="st35" d="M121.5,124.2c0,0,2.2-4.2,3.9-5.2s-2.9-1.2-3.9,3.2V124.2z"/>
			<path class="st35" d="M121.3,123.6c0,0,1.1-3.2-3.1-3.4C116.4,120.1,121.3,123.6,121.3,123.6z"/>
			<path class="st18" d="M34,108.8c1.7-0.9,3.6-1.5,5.5-1.6c3.6-0.3-3.9-1.7-6.6,1.6C32.9,108.8,31.7,110.3,34,108.8z"/>
			<path class="st18" d="M28.9,109c0,0,5.5-4,8.8-5.1s-3.1-1.2-7.4,2.2C30.3,106.1,28.1,108.1,28.9,109z"/>
			<path class="st18" d="M27.3,109c0,0,3.7-6.6,5.3-7.4s-2.6-1.3-5.3,4.1C27.3,105.7,26.2,108.6,27.3,109z"/>
			<path class="st18" d="M25.3,109c0,0,1.4-6,2.8-6.9S23,103.1,25.3,109z"/>
			<path class="st18" d="M24.5,109c0,0,0.1-5-2.8-5.8S23.4,106.5,24.5,109z"/>
			<path class="st18" d="M23.6,109c0,0-1.8-5.7-6.3-5.9S20.8,105.2,23.6,109z"/>
			<path class="st18" d="M23.2,109c-1.8-1.5-4.1-2.3-6.4-2.2C12.8,107,22.2,108.3,23.2,109z"/>
			<path class="st18" d="M22.2,85.9c1.3-0.7,2.7-1.1,4.2-1.2c2.8-0.2-3-1.3-5.1,1.2C21.3,85.9,20.4,87,22.2,85.9z"/>
			<path class="st18" d="M18.2,86.1c0,0,4.2-3.1,6.7-3.9s-2.4-0.9-5.7,1.7C19.3,83.8,17.6,85.4,18.2,86.1z"/>
			<path class="st18" d="M17,86.1c0,0,2.8-5,4.1-5.6s-2-1-4.1,3.1C17,83.5,16.2,85.7,17,86.1z"/>
			<path class="st18" d="M15.5,86.1c0,0,1.1-4.6,2.1-5.3S13.7,81.5,15.5,86.1z"/>
			<path class="st18" d="M14.9,86.1c0,0,0-3.8-2.2-4.4S14,84.1,14.9,86.1z"/>
			<path class="st18" d="M14.2,86.1c0,0-1.4-4.4-4.8-4.5S12.1,83.2,14.2,86.1z"/>
			<path class="st18" d="M13.9,86.1c-1.4-1.2-3.1-1.7-4.9-1.7C5.9,84.5,13.1,85.5,13.9,86.1z"/>
			<path class="st35" d="M120.2,87.1c1.2-0.7,2.5-1,3.9-1.1c2.6-0.2-2.8-1.2-4.7,1.1C119.4,87.1,118.5,88.1,120.2,87.1z"/>
			<path class="st35" d="M116.5,87.2c0,0,3.9-2.9,6.2-3.6s-2.2-0.8-5.3,1.6C117.5,85.1,116,86.6,116.5,87.2z"/>
			<path class="st35" d="M115.4,87.2c0,0,2.6-4.7,3.8-5.2s-1.9-0.9-3.8,2.9C115.4,84.9,114.6,86.9,115.4,87.2z"/>
			<path class="st35" d="M114,87.2c0,0,1-4.3,2-4.9S112.3,83,114,87.2z"/>
			<path class="st35" d="M113.4,87.2c0,0,0-3.6-2-4.1S112.6,85.4,113.4,87.2z"/>
			<path class="st35" d="M112.8,87.2c0,0-1.3-4.1-4.4-4.2S110.8,84.5,112.8,87.2z"/>
			<path class="st35" d="M112.5,87.2c-1.3-1.1-2.9-1.6-4.6-1.5C105.1,85.8,111.8,86.7,112.5,87.2z"/>
			<path class="st36" d="M157.5,118c1.2-0.7,2.5-1.1,3.9-1.1c2.6-0.2-2.8-1.2-4.7,1.1C156.7,118,155.9,119,157.5,118z"/>
			<path class="st36" d="M153.9,118.1c1.9-1.4,4-2.7,6.2-3.6c2.3-0.8-2.2-0.8-5.3,1.6C154.8,116,153.3,117.5,153.9,118.1z"/>
			<path class="st36" d="M152.7,118.1c0,0,2.6-4.7,3.8-5.2s-1.9-0.9-3.8,2.9C152.7,115.8,151.9,117.8,152.7,118.1z"/>
			<path class="st36" d="M151.3,118.1c0,0,1-4.3,2-4.9S149.6,113.9,151.3,118.1z"/>
			<path class="st36" d="M150.7,118.1c0,0,0-3.6-2-4.1S149.9,116.3,150.7,118.1z"/>
			<path class="st36" d="M150.1,118.1c0,0-1.3-4.1-4.4-4.2S148.1,115.4,150.1,118.1z"/>
			<path class="st36" d="M149.8,118.1c-1.3-1.1-2.9-1.6-4.6-1.5C142.4,116.7,149.1,117.6,149.8,118.1z"/>
			<ellipse class="st37" cx="16.5" cy="99.2" rx="4.3" ry="0.9"/>
			<ellipse class="st38" cx="56.6" cy="115.5" rx="5.9" ry="2"/>
			<ellipse class="st38" cx="105.6" cy="117.8" rx="21" ry="6.8"/>
			<ellipse class="st38" cx="38.3" cy="121.4" rx="6.2" ry="2.1"/>
			<path class="st39" d="M98,84.1c0,0-0.6,1.9-2.7,11.3c0,0-0.7,2,1.1,9.7c0.5,2.2,1.1,4.4,1.9,6.5l0,0c0,0,4.5,1.6,6.7-0.6
				c0,0-0.5-6.6-1.3-12.7l3.1-4.8c0.4,2.9,1.5,5.7,3,8.1c2.6,4.3,4.1,11.6,4.1,11.6c1.9,1.4,4.4,1.6,6.6,0.5c-0.3-4-0.7-8-1.4-12
				c-1.1-6.3,0.7-13.2-1-20C112.3,86,104.7,86.9,98,84.1z"/>
			<path class="st39" d="M106.8,93.5c0,0-1.9-0.5-2.9-4.1"/>
			<path class="st40" d="M49,105.6l2.3,9.3c1.6,1.2,3.6,1.8,5.7,1.5c3.7-0.3,4.4-1.4,4.4-1.4l2.4-9.4L49,105.6z"/>
			<path class="st41" d="M55.9,114.5c-2.9-1.4-3.7-6.9-0.3-7c2.7-0.1,5.4-0.5,8-1.1l0.2-0.8H49l2.3,9.3c1.6,1.3,3.6,1.8,5.7,1.5
				c2.6-0.2,3.7-0.8,4.1-1.1C59.3,115.5,57.5,115.2,55.9,114.5z"/>
			<ellipse class="st40" cx="56.6" cy="105.1" rx="8.3" ry="1.7"/>
			<polygon class="st40" points="48,102.2 48.3,105.1 64.9,105 65.3,102.2 			"/>
			<ellipse class="st42" cx="56.7" cy="102.2" rx="8.7" ry="1.7"/>
			<ellipse class="st43" cx="56.6" cy="102.1" rx="7.7" ry="1.2"/>
			<path class="st44" d="M55,87.2c0.5,0.6,0.8,1.2,1,1.9c-0.6-0.3-1.2-0.8-1.7-1.3c-0.5-0.6-0.8-1.2-1-1.9
				C54,86.2,54.5,86.7,55,87.2z"/>
			<path class="st45" d="M53.1,82.3L53.1,82.3c-0.2,2.7-0.2,5.5,0.1,8.2c0.2,2.4,0.7,4.7,1.4,6.9c0.7,2.2,1.9,4.2,3.6,5.8l0,0
				c-1.7-1.6-2.9-3.6-3.6-5.9c-0.8-2.2-1.2-4.6-1.4-6.9C52.9,87.7,52.9,85,53.1,82.3z"/>
			<path class="st45" d="M49.1,90.4c0,0,0.1,0.1,0.3,0.3c0.7,0.8,2.5,2.8,4.3,3.4v0.1c-1.9-0.6-3.7-2.7-4.3-3.4
				C49.3,90.6,49.2,90.4,49.1,90.4L49.1,90.4z"/>
			<path class="st45" d="M60.6,84.5c-2.9,2.3-5.3,5.2-7,8.5h-0.1c0.4-0.9,0.9-1.8,1.5-2.6C56.6,88.2,58.4,86.2,60.6,84.5L60.6,84.5"
				/>
			<path class="st45" d="M57.9,82.4L57.9,82.4c-0.6,1.8-1,3.7-0.9,5.6l0,0C56.9,86.1,57.3,84.2,57.9,82.4z"/>
			<path class="st45" d="M61.3,86.5c-0.4-0.6-0.6-1.2-0.7-1.9c1.2,0.8,2,2,2.2,3.4C62.2,87.5,61.7,87,61.3,86.5z"/>
			<path class="st44" d="M62.2,84.6c-0.6,0.1-1.1,0.1-1.7-0.1c0.5-0.3,1-0.5,1.5-0.6c0.6-0.1,1.1-0.1,1.7,0.1
				C63.2,84.3,62.7,84.5,62.2,84.6z"/>
			<path class="st44" d="M53.6,78.7c0.1,1.2-0.1,2.4-0.5,3.5c-0.6-1.1-0.9-2.2-1-3.4c-0.1-1.2,0.1-2.4,0.5-3.5
				C53.2,76.4,53.5,77.5,53.6,78.7z"/>
			<path class="st44" d="M54.7,80.2c-0.4,0.8-0.9,1.5-1.6,2.1c0-0.9,0.2-1.8,0.6-2.6c0.4-0.8,0.9-1.5,1.6-2.1
				C55.3,78.5,55.1,79.3,54.7,80.2z"/>
			<path class="st44" d="M52.1,79.8c0.5,0.7,0.8,1.5,1,2.4c-1.6-0.9-2.7-2.4-3-4.2C50.9,78.5,51.6,79.1,52.1,79.8z"/>
			<path class="st44" d="M59.5,84.1c-0.2,0.9-0.6,1.7-1.2,2.4c-0.3-1.8,0.1-3.6,1.2-5C59.8,82.3,59.7,83.2,59.5,84.1z"/>
			<path class="st44" d="M51.4,90.2c0.3,0.8,0.3,1.7,0.2,2.6c-1.2-1.3-1.7-3.1-1.5-4.9C50.6,88.6,51.1,89.4,51.4,90.2z"/>
			<path class="st44" d="M47.3,89.4c0.7,0.2,1.3,0.5,1.9,1c-0.7,0.1-1.4,0-2.1-0.2c-0.7-0.2-1.3-0.5-1.9-1
				C45.9,89.2,46.7,89.2,47.3,89.4z"/>
			<path class="st44" d="M56.5,86.5c0,0.9-0.2,1.8-0.5,2.6c-0.4-0.8-0.6-1.7-0.6-2.6c0-0.9,0.2-1.7,0.6-2.5
				C56.3,84.8,56.5,85.7,56.5,86.5z"/>
			<path class="st44" d="M58.9,80.2c-0.2,0.9-0.5,1.7-1,2.4c-0.5-1.7-0.1-3.6,0.8-5.1C58.9,78.4,59,79.3,58.9,80.2z"/>
			<path class="st45" d="M57.3,80.6c0.3,0.6,0.6,1.3,0.7,2c-1.2-0.8-1.9-2.1-2.1-3.6C56.4,79.4,56.9,79.9,57.3,80.6z"/>
			<path class="st44" d="M52.9,94.8c0.6,0.4,1.1,0.9,1.4,1.5c-0.7-0.1-1.3-0.4-1.9-0.8c-0.6-0.4-1-0.9-1.4-1.5
				C51.7,94.1,52.3,94.4,52.9,94.8z"/>
			<path class="st44" d="M52.6,96.1c0.6,0,1.1,0,1.7,0.2c-0.5,0.3-1,0.4-1.6,0.5c-0.6,0-1.1,0-1.7-0.2
				C51.5,96.3,52.1,96.1,52.6,96.1z"/>
			<path class="st45" d="M51.9,82.8c0.5,0.7,0.8,1.6,1,2.4c-0.8-0.5-1.4-1.1-1.9-1.8c-0.5-0.7-0.8-1.6-1-2.5
				C50.8,81.5,51.4,82.1,51.9,82.8z"/>
			<path class="st44" d="M56.3,92.6C56,92,56,91.3,56,90.6c0.5,0.5,0.8,1.1,1.1,1.8c0.2,0.6,0.3,1.3,0.3,2
				C56.8,93.9,56.5,93.3,56.3,92.6z"/>
			<path class="st45" d="M57.2,91.8c-0.5-0.3-0.9-0.7-1.2-1.1c0.6,0.1,1.1,0.3,1.6,0.6c0.5,0.3,0.9,0.7,1.2,1.2
				C58.2,92.3,57.7,92.1,57.2,91.8z"/>
			<path class="st45" d="M52,86.9c0.4,0.4,0.8,1,1,1.5c-0.6-0.2-1.1-0.6-1.6-1c-0.5-0.4-0.8-1-1.1-1.5C51,86.1,51.5,86.4,52,86.9z"
				/>
			<path class="st44" d="M57,100.2c-0.8-0.4-1.5-1-2-1.7c0.9,0.1,1.7,0.3,2.5,0.8c0.8,0.4,1.5,1,2,1.7
				C58.6,100.9,57.8,100.6,57,100.2z"/>
			<path class="st44" d="M57,98.2c-0.7,0.1-1.4,0.1-2.1,0c0.6-0.4,1.3-0.7,2-0.8c0.7-0.1,1.4-0.1,2.1,0.1
				C58.4,97.9,57.7,98.1,57,98.2z"/>
			<path class="st46" d="M56.8,91.3c-0.7-0.1-1.4-0.3-2-0.6c0.7-0.2,1.4-0.3,2.1-0.2c0.7,0.1,1.4,0.3,2,0.6
				C58.2,91.3,57.5,91.3,56.8,91.3z"/>
			<path class="st44" d="M56.4,90.1c-0.5,0.3-1,0.5-1.6,0.6c0.6-1,1.6-1.6,2.7-1.8C57.3,89.3,56.9,89.7,56.4,90.1z"/>
			<path class="st46" d="M49.6,91.4c0.7,0,1.4,0.1,2.1,0.3c-1.3,0.6-2.8,0.7-4.1,0.2C48.2,91.6,48.9,91.4,49.6,91.4z"/>
			<path class="st47" d="M44.5,89.9c3.4,3.1,7.2,5.6,11.4,7.4"/>
			<path class="st47" d="M48.5,98c0.1-0.1,3.8,0,5.7-1.4"/>
			<path class="st47" d="M50.8,84c0,0-0.3,6.8,2.5,12.1"/>
			<path class="st47" d="M47.6,86.1c1,1.6,2.3,3.1,3.8,4.2"/>
			<path class="st46" d="M52.8,83.7c-0.6,0.3-1.3,0.4-2,0.4c1-1,2.3-1.6,3.7-1.6C54,83,53.4,83.4,52.8,83.7z"/>
			<path class="st46" d="M51.8,82.8c-0.3,0.5-0.6,0.9-1.1,1.3c0-0.6,0.2-1.1,0.5-1.6c0.3-0.5,0.6-0.9,1.1-1.3
				C52.2,81.8,52.1,82.3,51.8,82.8z"/>
			<path class="st46" d="M42,87.4c1,0.7,1.9,1.5,2.5,2.5c-1.2-0.2-2.3-0.6-3.3-1.2c-1-0.7-1.9-1.5-2.5-2.5
				C39.8,86.3,41,86.7,42,87.4z"/>
			<path class="st46" d="M43.8,87.3c0.4,0.8,0.7,1.6,0.7,2.5c-1.4-1.1-2.3-2.7-2.4-4.5C42.8,85.9,43.4,86.6,43.8,87.3z"/>
			<path class="st46" d="M42,89.2c0.9,0,1.8,0.2,2.5,0.6c-1.7,0.7-3.5,0.6-5.1-0.2C40.2,89.4,41.1,89.2,42,89.2z"/>
			<path class="st46" d="M49.8,85.9c0.5,0.7,0.9,1.5,1.2,2.3c-0.8-0.4-1.5-1-2-1.7c-0.5-0.7-1-1.5-1.2-2.3
				C48.6,84.6,49.3,85.2,49.8,85.9z"/>
			<path class="st46" d="M49.8,96.1c0.8,0.3,1.6,0.8,2.3,1.4c-1.8,0.1-3.5-0.5-4.8-1.8C48,95.7,48.9,95.8,49.8,96.1z"/>
			<path class="st45" d="M46.7,98.8c0.6-0.4,1.2-0.7,1.9-0.9c-0.4,0.6-0.8,1.2-1.4,1.6c-0.6,0.4-1.2,0.7-1.9,0.9
				C45.6,99.8,46.1,99.2,46.7,98.8z"/>
			<path class="st46" d="M49.9,89.7c0.7,0.5,1.3,1.2,1.7,2c-0.9-0.2-1.7-0.6-2.4-1.1c-0.7-0.5-1.3-1.2-1.7-2
				C48.4,88.9,49.2,89.2,49.9,89.7z"/>
			<path class="st45" d="M46.3,84c0.6,0.7,1.1,1.4,1.3,2.3c-0.8-0.3-1.5-0.9-2.2-1.5c-0.6-0.7-1.1-1.4-1.4-2.3
				C44.9,82.8,45.7,83.4,46.3,84z"/>
			<path class="st46" d="M45.6,85.5c0.7,0.1,1.4,0.3,2,0.7c-0.7,0.2-1.4,0.3-2.1,0.2c-0.7-0.1-1.4-0.3-2-0.7
				C44.2,85.5,44.9,85.5,45.6,85.5z"/>
			<path class="st46" d="M54.3,97.6c0.6-0.2,1.3-0.3,2-0.2c-0.5,0.4-1.1,0.8-1.8,1c-0.6,0.2-1.3,0.3-2,0.2
				C53,98.2,53.6,97.9,54.3,97.6z"/>
			<path class="st46" d="M55.2,98.6c0.3-0.5,0.7-0.9,1.2-1.2C56.2,98,56,98.5,55.8,99c-0.3,0.5-0.7,0.9-1.2,1.2
				C54.7,99.6,54.9,99.1,55.2,98.6z"/>
			<path class="st45" d="M44.2,91.2c0.9,0,1.8,0.3,2.5,0.6c-0.8,0.3-1.7,0.5-2.6,0.5c-0.9,0-1.8-0.3-2.5-0.6
				C42.5,91.3,43.3,91.1,44.2,91.2z"/>
			<path class="st46" d="M54.6,93.7c-0.7-0.2-1.3-0.6-1.8-1c1.4-0.1,2.8,0.3,3.8,1.3C56,94,55.3,93.9,54.6,93.7z"/>
			<path class="st45" d="M54.5,92.4c-0.5,0.2-1.1,0.3-1.7,0.3c0.8-0.8,1.9-1.2,3-1.2C55.5,91.9,55,92.2,54.5,92.4z"/>
			<path class="st46" d="M47.5,93.6c0.6-0.1,1.3-0.1,1.9,0.1c-1.1,0.7-2.4,0.9-3.6,0.6C46.2,93.9,46.8,93.7,47.5,93.6z"/>
			<path class="st46" d="M53.9,92.4c-0.5,0.5-1.1,0.9-1.7,1.2c0.2-0.7,0.6-1.3,1.1-1.8c0.5-0.5,1.1-0.9,1.7-1.2
				C54.8,91.3,54.4,91.9,53.9,92.4z"/>
			<path class="st46" d="M52.7,92c0,0.6-0.2,1.1-0.5,1.6C52,93.1,52,92.5,52,91.9c0-0.6,0.2-1.1,0.5-1.6
				C52.7,90.8,52.7,91.4,52.7,92z"/>
			<path class="st40" d="M30.4,111l2.5,10c1.7,1.4,4,2,6.1,1.7c4-0.3,4.8-1.5,4.8-1.5l2.6-10.2H30.4z"/>
			<path class="st41" d="M37.8,120.7c-3.2-1.5-4-7.5-0.3-7.6c2.9-0.2,5.8-0.6,8.7-1.2l0.2-0.9h-16l2.5,10c1.7,1.4,3.9,2,6.1,1.7
				c2.8-0.2,4-0.9,4.5-1.2C41.6,121.7,39.6,121.4,37.8,120.7z"/>
			<ellipse class="st40" cx="38.6" cy="110.4" rx="9" ry="1.8"/>
			<polygon class="st40" points="29.2,107.3 29.6,110.4 47.6,110.3 48.1,107.3 			"/>
			<ellipse class="st42" cx="38.7" cy="107.3" rx="9.4" ry="1.8"/>
			<ellipse class="st43" cx="38.6" cy="107.2" rx="8.4" ry="1.3"/>
			<path class="st45" d="M31.1,102.3c0,0,8.4-9.9,6.9-12.4s-3,1.8-3,1.8s1.7-7.1-0.5-7.3s-2.1,3.3-2.1,3.3s-0.1-5.7-2.6-5.5
				s-0.3,5.8-0.3,5.8s-2.3-4.2-3.5-1.9s3.7,7.8,3.7,7.8s-3.6-3.6-4.3-0.8C24.6,96.4,31.1,102.3,31.1,102.3z"/>
			<path class="st47" d="M30.1,102.9c0,0,3.4-7.4,1.7-12.8"/>
			<path class="st45" d="M42.3,99.4c0,0,7.3-5.8,6.5-7.8s-2.4,0.9-2.4,0.9s2.2-4.8,0.6-5.2s-1.9,2-1.9,2s0.7-4-1.1-4.2s-1,4-1,4
				s-1-3.3-2.2-1.8s1.6,6,1.6,6s-2-3-2.9-1.2C38.5,94.4,42.3,99.4,42.3,99.4z"/>
			<path class="st47" d="M41.5,99.7c0,0,3.4-4.7,2.9-8.7"/>
			<path class="st46" d="M41.4,106.5c0,0-0.4-13.7,2.5-14.8s1.3,3.5,1.3,3.5s3.3-7,5.2-5.7S50,93.6,50,93.6s3.8-4.6,5.8-2.8
				s-3.6,5-3.6,5s4.6-2,4.1,0.7s-8.2,4-8.2,4s5.3-0.6,4,2.2C50.6,106,41.4,106.5,41.4,106.5z"/>
			<path class="st47" d="M41.8,107.7c0,0,2.1-8.4,7-11.6"/>
			<path class="st44" d="M42.5,108c0,0-8.8-8.4-7.6-10.9s3,1.4,3,1.4s-2.3-6.5-0.2-6.8s2.3,2.8,2.3,2.8s-0.5-5.3,1.9-5.4
				s0.9,5.4,0.9,5.4s1.7-4.1,3-2.1s-2.7,7.7-2.7,7.7s3-3.7,3.9-1.2C48,102,42.5,108,42.5,108z"/>
			<path class="st47" d="M43.6,108.5c0,0-3.9-6.6-2.8-11.7"/>
			<path class="st44" d="M34.5,105.9c0,0,1.8-11.2-0.4-12.3s-1.4,2.7-1.4,2.7s-1.9-6.1-3.7-5.2s-0.1,3.4-0.1,3.4s-2.6-4.2-4.4-2.9
				s2.4,4.5,2.4,4.5s-3.5-2.2-3.4,0.1s6.3,4.2,6.3,4.2s-4.3-1.1-3.5,1.3C27.1,104.5,34.5,105.9,34.5,105.9z"/>
			<path class="st47" d="M34,106.8c0,0-0.8-7.1-4.4-10.3"/>
			<path class="st46" d="M35.5,108.1c0,0-5.7-8.5-4.3-10.3c1.4-1.8,2.2,1.7,2.2,1.7s-0.8-5.7,1-5.7s1.4,2.7,1.4,2.7s0.5-4.5,2.5-4.1
				S38,97,38,97s2.1-3.1,2.9-1.2s-3.6,5.8-3.6,5.8s3.1-2.5,3.4-0.3C41,104,35.5,108.1,35.5,108.1z"/>
			<path class="st47" d="M36.2,108.6c0,0-2-6.1-0.2-10.1"/>
			<path class="st45" d="M41.8,106.8c0,0,5.1-1.2,5.2-2.4s-1.4-0.1-1.4-0.1s2.3-1.9,1.6-2.5s-1.5,0.6-1.5,0.6s1.3-1.9,0.5-2.4
				s-1.5,1.8-1.5,1.8s0.3-1.9-0.7-1.4s-0.6,3.4-0.6,3.4s-0.3-2-1.2-1.3C41.1,103.3,41.8,106.8,41.8,106.8z"/>
			<path class="st47" d="M41.4,106.8c0,0,2.9-1.6,3.6-3.8"/>
			<path class="st48" d="M80.4,72.6c3.6-1.3,6.9-3.5,9.5-6.4l3.8,5.1c-3.1,2.7-6.9,4.2-11,4.3L80.4,72.6z"/>
			<path class="st48" d="M81.7,73.1c0,0-1.1-2.3-2.8-2.7s-1.4,1.7-0.3,3S81.7,73.1,81.7,73.1z"/>
			<path class="st49" d="M85.3,76.6c-3.5-5.4-10.4-7.2-15.3-3.9c-1,0.7-1.9,1.6-2.7,2.6l2.2,2.3c0.5-0.6,1.1-1.2,1.8-1.7
				c3.9-2.5,9-1.4,11.5,2.5c2.3,3.6,1.5,8.4-1.8,11l2.4,2.4C87.8,88.4,88.7,81.8,85.3,76.6z"/>
			<path class="st50" d="M104.2,60.4c0,0-1.7,2.3-4.6,6.1c-1.1,1.4-2.4,2.8-3.8,3.9c-0.7,0.6-1.4,1.1-2.2,1.5
				c-2-1.3-3.4-3.4-3.8-5.8c0.7-0.7,1.4-1.5,2-2.3c2.2-2.8,4.4-6.4,4.4-6.4L104.2,60.4z"/>
			<path class="st51" d="M95.8,70.1c-1.9,1.7-2.2,1.4-2.2,1.4c-2-1.1-3.3-3.1-3.6-5.4c0.6-0.6,1.2-1.3,1.8-2
				C91.9,65.4,92.7,67.9,95.8,70.1z"/>
			<path class="st50" d="M94.6,63.5c0,0,1.4,6.4,2.1,11.8s1,9.7,1,9.7s10.8,5.9,20.7-2.8c-1.2-8.3-3.7-16.3-7.4-23.8
				c0,0-3.3-6.6-9.6-5.5c-6,1.1-4.7,6.2-4.7,6.2"/>
			<ellipse transform="matrix(0.6774 -0.7356 0.7356 0.6774 -9.1715 91.4861)" class="st51" cx="99.7" cy="56.2" rx="5" ry="2.3"/>
			<path class="st48" d="M96.4,54.5c0,0,1,0.5,0.6,2.8s4.4,0.9,5.7-4.4c-0.7-1.6-0.9-3.3-0.4-5C103.1,44.8,95.6,50,96.4,54.5z"/>
			<path class="st48" d="M81.5,48.7c-0.6-1.1-1.6-1.8-2.8-1.9c-2-0.2-1.6,3,0.3,4.8s3.7,1.6,4.1,0.6"/>
			<path class="st52" d="M81.8,51.3c0,0-2.6-3-3.8-1.4"/>
			<path class="st53" d="M81.8,51.3c-0.6-0.4-1.2-0.8-1.9-1.1C79.6,50,79.2,50,79,49.9c-0.3-0.1-0.6-0.1-0.9,0L78,49.8
				c0.1-0.5,0.5-0.9,1.1-0.9c0.5,0,0.9,0.2,1.2,0.5C80.9,50,81.4,50.6,81.8,51.3L81.8,51.3z"/>
			<path class="st52" d="M80.1,49.7c0,0-0.8,0.6,0.1,2.4"/>
			<path class="st53" d="M80.2,49.8c-0.1,0.2-0.1,0.4-0.1,0.6c0,0.2,0.1,0.4,0.2,0.5c0.1,0.2,0.2,0.3,0.2,0.5c0,0.3-0.1,0.5-0.2,0.7
				h-0.1c-0.3,0-0.5-0.2-0.7-0.4c-0.1-0.2-0.1-0.5-0.1-0.7c0-0.5,0.2-1,0.6-1.3L80.2,49.8z"/>
			<path class="st48" d="M104.3,40.3c1.6,7.4-1.8,14.1-7.6,16.9s-13.9,2-16.9-8.4c-0.8-2.6-2.2-7.2-3.4-8.7
				c-2.2-2.7-2.9-1.9,2.7-6.2C95.4,21.3,102.7,33.1,104.3,40.3z"/>
			<path class="st54" d="M95.8,30.5c0,0-9.6,8.3-16.9,10l-0.2,5.3l-5-10.1l10.1-7.5l13-1.5l6.2,8.3l0.3,7.7c-0.8-2.1-2.2-4-3.9-5.4
				C96.8,35.2,95.8,30.5,95.8,30.5z"/>
			<ellipse transform="matrix(0.8409 -0.5413 0.5413 0.8409 -8.2398 57.7049)" class="st55" cx="94" cy="42.9" rx="3.1" ry="3.1"/>
			<path class="st56" d="M96.8,41.5c0.9,1.8,0.1,3.9-1.7,4.8c-1.8,0.9-3.9,0.1-4.8-1.7l0,0c-0.9-1.8-0.2-3.9,1.5-4.8
				c0.1-0.1,0.3-0.1,0.5-0.2C94.1,39,96.1,39.8,96.8,41.5z M96.8,41.5c-0.4-0.7-1-1.2-1.8-1.5c-0.8-0.2-1.6-0.2-2.3,0.2
				c-0.7,0.4-1.3,1-1.5,1.7c-0.3,0.8-0.2,1.6,0.1,2.3c0.3,0.7,1,1.3,1.7,1.5c1.5,0.6,3.3-0.2,3.9-1.7C97.2,43.2,97.1,42.3,96.8,41.5
				L96.8,41.5z"/>
			
				<ellipse transform="matrix(0.8409 -0.5413 0.5413 0.8409 -8.9722 57.1618)" class="st57" cx="92.7" cy="43.8" rx="1.5" ry="1.5"/>
			<path class="st55" d="M93.5,42.5c0.1,0.2,0.1,0.5-0.1,0.6c-0.1,0-0.1,0.1-0.2,0.1c-0.2,0-0.3,0-0.4-0.2c-0.2-0.2-0.2-0.5,0-0.6
				S93.3,42.2,93.5,42.5C93.5,42.4,93.5,42.5,93.5,42.5z"/>
			
				<ellipse transform="matrix(0.9034 -0.4288 0.4288 0.9034 -11.8901 40.6464)" class="st55" cx="84.3" cy="46.7" rx="2.7" ry="2.9"/>
			<path class="st56" d="M86.7,45.5c0.3,0.7,0.4,1.5,0.3,2.2c-0.1,0.8-0.6,1.6-1.3,2c-0.8,0.5-1.8,0.6-2.7,0.3
				c-1.9-0.7-2.8-2.7-2.2-4.6c0.3-0.9,1-1.6,1.9-1.9c0.8-0.3,1.7-0.2,2.4,0.3C85.8,44.2,86.4,44.8,86.7,45.5z M86.6,45.6
				c-0.3-0.7-0.9-1.2-1.5-1.5c-1.2-0.6-2.6,0-3.2,1.2c-0.1,0.2-0.1,0.3-0.2,0.5c-0.2,0.7-0.1,1.4,0.3,2.1c0.3,0.6,0.8,1.2,1.5,1.5
				c0.7,0.3,1.4,0.3,2.1,0c0.6-0.3,1.1-0.9,1.3-1.6C87,47,86.9,46.2,86.6,45.6z"/>
			
				<ellipse transform="matrix(0.8546 -0.5192 0.5192 0.8546 -12.6346 50.3215)" class="st57" cx="83.6" cy="47.7" rx="1.5" ry="1.5"/>
			
				<ellipse transform="matrix(0.9034 -0.4288 0.4288 0.9034 -11.9209 40.4672)" class="st55" cx="83.9" cy="46.7" rx="0.4" ry="0.4"/>
			<path class="st56" d="M87.2,45.4c0.4,0.1,0.8,0.3,1.1,0.6c0.3,0.3,0.6,0.7,0.8,1.1c0.5,1,0.3,2.2-0.5,3l0.1-0.9
				c0,0,0,0.2,0.1,0.2c0.1,0.1,0.1,0.2,0.2,0.2c0.2,0.1,0.4,0.1,0.6,0.1h0.7l0.1,0.1c-0.4,0.3-0.9,0.5-1.3,0.5c-0.5,0-1-0.3-1.2-0.8
				l0,0l0,0c0.2-0.3,0.4-0.6,0.4-1c0-0.4,0-0.7-0.1-1.1c-0.2-0.7-0.6-1.3-1.1-1.9L87.2,45.4z"/>
			<path class="st57" d="M90,38.6c-0.5-0.5-0.5-1.3,0-1.8c0.1-0.1,0.3-0.2,0.4-0.3c1.3-0.8,3.6-0.5,5.3,0.5c0.1,0.1,0.2,0.2,0.1,0.3
				c0,0.1-0.1,0.1-0.2,0.1C93.6,37.3,91.7,37.6,90,38.6z"/>
			<path class="st57" d="M83.4,40.8c0,0-0.3-1.6-1.7-1.1c-1.2,0.4-2.1,2.2-2.2,4.1c0,0.2,0.3,0.4,0.4,0.2
				C80.5,43,81.7,41.2,83.4,40.8z"/>
			<path class="st58" d="M96.1,29.1c0,0-6.3,4.3-10.2,3.4c-0.8,1.6-2.4,2.7-4.2,2.8c0,0,1,2.1-3.3,3.9c0,0-0.1,5.8,0.7,7.4
				c0,0-5.7-3.9-6.2-9.5s1.5-10.4,8.7-14.6s14.9-1.1,17.1,1.1l-1.4-3.1c1.1,0.6,1.9,1.7,2.1,2.9c0,0,0.4-1.1,2.5-0.5
				c0,0-1.7,0.8-1.6,1.6c1.8,0.6,3.3,1.8,4.2,3.4c1.9,2.8,3.4,8.7,1.9,11.7c0,0-2.4,0.8-2.4,2.7c0,0-0.8,1.6-1.2-1.3
				s-5.5-5.7-6.9-11.8L96.1,29.1z"/>
			<path class="st48" d="M103.3,43.3c0,0-0.4-1.9,1.7-4s4.2,0.4,3.6,3.4s-2.9,4.7-4.2,4.4"/>
			<path class="st52" d="M105,45.2c0,0,0.6-4.5,3.1-4.6"/>
			<path class="st53" d="M105,45.2c0-1,0.2-2,0.6-3c0.2-0.5,0.5-1,0.9-1.4c0.5-0.4,1.1-0.5,1.7-0.3v0.1c-0.4,0.3-0.7,0.6-1,0.9
				c-0.3,0.3-0.6,0.6-0.9,1C105.8,43.4,105.3,44.3,105,45.2L105,45.2z"/>
			<path class="st52" d="M105.7,42.6c0,0,1.4-0.3,1.7,1.7"/>
			<path class="st53" d="M105.7,42.5c0.2-0.1,0.5-0.2,0.8-0.1c0.3,0.1,0.5,0.2,0.8,0.4c0.2,0.2,0.4,0.4,0.5,0.7c0,0.3,0,0.6-0.2,0.8
				h-0.1c-0.2-0.1-0.4-0.3-0.6-0.5c-0.1-0.1-0.1-0.3-0.2-0.5C106.4,42.9,106.1,42.7,105.7,42.5L105.7,42.5z"/>
			<path class="st58" d="M95.9,29.4c0,0-8.2,9.1-17.7,10.2s10.1-12.2,10.1-12.2l9.1-0.8L95.9,29.4z"/>
			<path class="st59" d="M95.7,48.8c0,0,0.5,4.7-2.6,6.2c0,0-3.6,1.4-6-3C90.4,52.7,93.7,51.4,95.7,48.8z"/>
			<path class="st60" d="M95.7,48.7c0,0,0.3,3.9-2.8,5.5c-2.2,0.7-4.5-0.2-5.8-2.1C90.4,52.6,93.7,51.4,95.7,48.7z"/>
			<path class="st61" d="M94.8,49.7c-0.3,1.2-1,2.1-2.1,2.7c-1.4,0.7-3.1,0.6-4.4-0.3C90.7,52.2,93,51.4,94.8,49.7z"/>
			<path class="st59" d="M95.7,48.7c-1,1.2-2.4,2.1-3.9,2.7c-1.5,0.5-3.1,0.7-4.7,0.7C87.2,52.1,92.7,53.4,95.7,48.7z"/>
			<path class="st62" d="M95.3,48.5c0.4,0.2,0.7,0.5,0.8,0.9C96.1,48.9,95.7,48.5,95.3,48.5z"/>
			<path class="st62" d="M87.3,51.3c-0.2,0.4-0.2,0.8-0.1,1.2C87,52.2,87,51.7,87.3,51.3z"/>
			<path class="st63" d="M94.7,52.6c-0.7-0.3-1.6-0.1-2.1,0.5c0,0-1-0.2-2.1,1.2C92.1,54.8,93.8,54.1,94.7,52.6z"/>
			<path class="st48" d="M75.7,75.1c0,0-0.7,0.7-1.2,0.1c-0.4-0.5-0.5-1.2-0.3-1.8c0.2-0.5,0.4-0.9,0.9-1c0,0,0.7-0.4,0.7,2v0.4
				c0,0-0.2-2,0.9-2.5s0.7,2.3,0.9,2.5s-0.2-2.2,0.8-2.4s0.7,2.9,0.7,2.9s0-2.4,1.1-2.3s0.6,1.6,0.4,2.2s0.2,1-0.2,1.2
				c-1,0.5-0.2,0.2-0.2,0.2S76.3,77.1,75.7,75.1z"/>
			<path class="st49" d="M77,102.7c-3.6,2.6-7.6,3.6-10.5,2.9l-0.1,0.1l-0.1-0.1l-3.6-5.4l-9.2-13.9l2.1-1.8l11.6-9.8l13.6,14.2l0,0
				l2.1,2.2c0.1,0.2,0.1,0.3,0.2,0.5C84.1,94.8,81.6,99.4,77,102.7z"/>
			<path class="st64" d="M77,102.7c-3.6,2.6-7.6,3.6-10.5,2.9l-0.1,0.1l-0.1-0.1l-3.6-5.4l-9.2-13.9l2.1-1.8l7.6,10.3
				c3.7,5,10.8,6.1,15.9,2.4c1.8-1.3,3.1-3.1,3.9-5.2c0-0.1,0.1-0.3,0.1-0.4C84.1,94.8,81.6,99.4,77,102.7z"/>
			<ellipse transform="matrix(0.7663 -0.6425 0.6425 0.7663 -37.6154 57.6102)" class="st65" cx="60.4" cy="80.5" rx="9" ry="2.4"/>
			<path class="st66" d="M64.5,76.5c0.1,0.1,0.1,0.2,0.1,0.4c0,0.7-0.9,2.1-2.3,3.5l-0.2,0.2L61.6,81l-0.2,0.2l-0.1,0.1l-0.2,0.2
				c-0.2,0.1-0.3,0.3-0.4,0.4c-2,1.6-3.9,2.5-4.7,2.2c-0.1,0-0.2-0.1-0.3-0.2c-0.6-0.7,1-2.9,3.4-4.9S64,75.9,64.5,76.5z"/>
			<path class="st67" d="M64.6,76.9L64.6,76.9c0.3,0.5-0.7,1.9-2.3,3.5l-0.2,0.2L61.6,81l-0.2,0.2l-0.1,0.1l-0.2,0.2
				c-0.2,0.1-0.3,0.3-0.4,0.4c-2.2,1.8-4.2,2.8-4.6,2.3s0.7-2.1,2.6-3.8h0.1l0.1-0.1c0.2-0.2,0.5-0.4,0.8-0.7h0.1
				C61.9,77.4,64.1,76.3,64.6,76.9z"/>
			<path class="st68" d="M62.1,80.6L61.6,81l-0.2,0.2l-0.1,0.1l-2.7-1.1h-0.1l-0.1-0.1h0.4L62.1,80.6L62.1,80.6z"/>
			<path class="st65" d="M62.3,80.4l-0.2,0.2L61.6,81l-0.2,0.2l-2.8-1l-0.3-0.1l0.8-0.8l0.3,0.1L62.3,80.4L62.3,80.4z"/>
			<path class="st49" d="M51,89.1l7.6,2.5c1.7,1,3.1,2.6,3.8,4.4c1.3,3.2-0.1,3.4-0.1,3.4L50.7,96L51,89.1z"/>
			<path class="st69" d="M52.3,91.8c0.4,2.5-0.1,4.8-1.1,4.8c-2.5,0.2-2.2-1.7-2.6-4.2s-1.2-5.6,1.1-4.9
				C50.7,87.9,51.9,89.3,52.3,91.8z"/>
			<ellipse transform="matrix(0.9865 -0.1638 0.1638 0.9865 -14.4026 9.3651)" class="st70" cx="49.6" cy="92" rx="1.9" ry="4.6"/>
			
				<ellipse transform="matrix(0.998 -6.383562e-02 6.383562e-02 0.998 -5.6536 3.3037)" class="st71" cx="48.9" cy="90.1" rx="0.3" ry="0.7"/>
			
				<ellipse transform="matrix(0.9982 -5.989229e-02 5.989229e-02 0.9982 -5.5022 3.0733)" class="st71" cx="48.5" cy="93.3" rx="0.4" ry="0.7"/>
			
				<ellipse transform="matrix(0.9635 -0.2676 0.2676 0.9635 -22.8673 16.9526)" class="st71" cx="50.8" cy="92.4" rx="0.3" ry="0.7"/>
			<path class="st39" d="M114.6,85.8c0,0-1.4,4,3.1,3.8"/>
			
				<linearGradient id="SVGID_10_" gradientUnits="userSpaceOnUse" x1="37.6667" y1="61.5004" x2="51.08" y2="61.5004" gradientTransform="matrix(1 0 0 -1 0 162)">
				<stop  offset="0.1" style="stop-color:#286BAD"/>
				<stop  offset="0.13" style="stop-color:#3476B3"/>
				<stop  offset="0.23" style="stop-color:#5B96C7"/>
				<stop  offset="0.33" style="stop-color:#7BB1D7"/>
				<stop  offset="0.44" style="stop-color:#94C6E4"/>
				<stop  offset="0.55" style="stop-color:#A5D4ED"/>
				<stop  offset="0.67" style="stop-color:#B0DDF2"/>
				<stop  offset="0.81" style="stop-color:#B3E0F4"/>
			</linearGradient>
			<path class="st72" d="M50.8,93.4c0,0-8.5,5.2-11.5,14.4c0,0-1.5,1-1.7-1.5s4.8-9.7,13.4-13.3"/>
			
				<linearGradient id="SVGID_11_" gradientUnits="userSpaceOnUse" x1="44.7421" y1="75.0409" x2="47.1421" y2="69.3409" gradientTransform="matrix(1 0 0 -1 0 162)">
				<stop  offset="0.1" style="stop-color:#286BAD"/>
				<stop  offset="0.13" style="stop-color:#3476B3"/>
				<stop  offset="0.23" style="stop-color:#5B96C7"/>
				<stop  offset="0.33" style="stop-color:#7BB1D7"/>
				<stop  offset="0.44" style="stop-color:#94C6E4"/>
				<stop  offset="0.55" style="stop-color:#A5D4ED"/>
				<stop  offset="0.67" style="stop-color:#B0DDF2"/>
				<stop  offset="0.81" style="stop-color:#B3E0F4"/>
			</linearGradient>
			<path class="st73" d="M48.4,89.7c0,0-5.4,0.7-3.9,2.6S48.4,89.7,48.4,89.7z"/>
			
				<radialGradient id="SVGID_12_" cx="-7959.9102" cy="-2616.1289" r="99.93" gradientTransform="matrix(0.3 0 0 -0.31 2481.1201 -701.6)" gradientUnits="userSpaceOnUse">
				<stop  offset="0.1" style="stop-color:#286BAD"/>
				<stop  offset="0.13" style="stop-color:#3476B3"/>
				<stop  offset="0.23" style="stop-color:#5B96C7"/>
				<stop  offset="0.33" style="stop-color:#7BB1D7"/>
				<stop  offset="0.44" style="stop-color:#94C6E4"/>
				<stop  offset="0.55" style="stop-color:#A5D4ED"/>
				<stop  offset="0.67" style="stop-color:#B0DDF2"/>
				<stop  offset="0.81" style="stop-color:#B3E0F4"/>
			</radialGradient>
			<path class="st74" d="M48.7,102.4c0,0-3.1,2.1-2.5,4.9S49.9,107.8,48.7,102.4z"/>
			
				<linearGradient id="SVGID_13_" gradientUnits="userSpaceOnUse" x1="23.44" y1="61.9596" x2="51.11" y2="61.9596" gradientTransform="matrix(1 0 0 -1 0 162)">
				<stop  offset="0.41" style="stop-color:#286BAD"/>
				<stop  offset="0.42" style="stop-color:#3476B3"/>
				<stop  offset="0.48" style="stop-color:#5B96C7"/>
				<stop  offset="0.54" style="stop-color:#7BB1D7"/>
				<stop  offset="0.6" style="stop-color:#94C6E4"/>
				<stop  offset="0.66" style="stop-color:#A5D4ED"/>
				<stop  offset="0.73" style="stop-color:#B0DDF2"/>
				<stop  offset="0.81" style="stop-color:#B3E0F4"/>
			</linearGradient>
			<path class="st75" d="M48.4,92.8c0,0-9.2,1.6-12.2,14.4c0,0-1.7,1.9-1.8-1.6s3.3-11.5,14.3-13.4"/>
			<path class="st50" d="M110.3,67.3l-4.3,5.6l-2.1,2.8c-3.1-0.4-5.8-2.2-7.3-4.9c0,0,0.7-1.1,1.7-2.6c1.5-2.4,3.6-5.8,4.6-7.7"/>
			<path class="st51" d="M105.9,72.9l-2,2.8c-3-0.5-5.7-2.3-7.3-4.9c0.7-0.8,1.3-1.7,1.8-2.6C100.2,70.6,102.9,72.3,105.9,72.9z"/>
			<path class="st76" d="M96.3,113c0,0-0.8-3.1,2-3.7c0,0,2.4,0.1,2.3,3.3c0,0,3.4,1,4.3-1c0,0,0.3,2.8-0.2,3.9s-1.8,1.6-4.3,2.3
				s-4.8,3.4-9.7,1.7c-1.1-0.4-1.7-1.6-1.3-2.7c0-0.1,0-0.1,0.1-0.2c0.2-0.5,0.6-0.9,1-1.2C92.9,113.5,94.3,113.5,96.3,113z"/>
			<path class="st77" d="M96.4,111.8c0,0-0.8-3.1,2-3.7c0,0,2.4,0.1,2.3,3.4c0,0,3.4,1,4.3-1c0,0,0.3,2.8-0.2,3.9s-1.8,1.6-4.3,2.3
				s-4.8,3.4-9.7,1.7c-1.1-0.4-1.7-1.6-1.3-2.7c0-0.1,0-0.1,0.1-0.2c0.2-0.5,0.6-0.9,0.9-1.2C92.9,112.2,94.4,112.2,96.4,111.8z"/>
			<path class="st78" d="M96,111.5c1,0.2,2,0.8,2.6,1.6l-1,0.4c-0.8-0.9-1.8-1.4-3-1.6l0,0C94.9,111.5,95.5,111.3,96,111.5L96,111.5
				L96,111.5z"/>
			<path class="st78" d="M94.1,112.3c1.2,0.4,2.3,1,3.2,1.9l-1.2,0.4c-1.1-0.9-2.4-1.4-3.7-1.6C92.4,113,92.4,111.8,94.1,112.3z"/>
			<path class="st76" d="M113,115c0,0-0.7-1.7,1.5-3.2c0,0,3.2-0.9,3.2,3.1c0,0,1.8,0,2.4-2.4c0,0,0.3-1.6,0.8,1.3s0.5,3.1-0.8,4.3
				s-2.4,3.9-6.1,3.9s-5.5-0.8-5.1-3.1S113,115,113,115z"/>
			<path class="st77" d="M113,113.5c0,0-0.7-1.7,1.5-3.2c0,0,3.2-0.9,3.2,3.1c0,0,1.8,0.1,2.4-2.3c0,0,0.3-1.6,0.8,1.3
				s0.5,3.1-0.8,4.3s-2.4,3.9-6.1,3.9s-5.5-0.8-5.1-3.1S113,113.5,113,113.5z"/>
			<path class="st78" d="M111.8,114.2c0,0,1.8-0.8,4.6,1.3c0,0,2-0.1-0.2-1.2S110.9,112.9,111.8,114.2z"/>
			<path class="st78" d="M110.9,115.1c0,0,1.8-0.8,4.6,1.3c0,0,2-0.1-0.2-1.2S110,113.8,110.9,115.1z"/>
			<path class="st48" d="M89.1,78.6c-0.8-0.5-1.8-0.7-2.7-0.7l0.5,1.8c0,0,0.5,0.2-1.4,0.4s-2-0.7-2-0.7s-1.1,0.3-0.4,1.5
				c-0.3,0.5-0.2,1.1,0.1,1.6c-0.2,0.5,0,1.1,0.4,1.5c0,0-0.4,0.2,0.4,1s4.1,0.7,5.9-1.4c0.5-0.6,1.1-1.1,1.8-1.3l0,0"/>
			<path class="st48" d="M88.7,78.4c0,0,3.1,0.2,8.1-6.9c0,0,2.4,3.3,5.6,3.9c0,0-6.3,5.5-11,6.8"/>
			<path class="st79" d="M85.8,80c0,0,1.4,0,1.5-1"/>
			<path class="st48" d="M83.1,80.8c1,0.7,2.3,0.8,3.5,0.3"/>
			<path class="st48" d="M83,82.3c1.1,0.7,2.4,0.7,3.5,0.2"/>
			<path class="st48" d="M83.5,83.8c0,0,0.3,0.6,2.9,0.3"/>
		</g>
	</g>
	
		<radialGradient id="SVGID_14_" cx="-6658.3633" cy="-2270.3254" r="211.64" gradientTransform="matrix(0.35 0 0 -0.33 2388.29 -675.23)" gradientUnits="userSpaceOnUse">
		<stop  offset="0" style="stop-color:#FFFFFF"/>
		<stop  offset="0.43" style="stop-color:#D3F9FC"/>
	</radialGradient>
	<path class="st80" d="M152.9,75.8c0,38.7-32.9,70.1-73.4,70.1S6,114.5,6,75.8S38.9,5.8,79.4,5.8S152.9,37.2,152.9,75.8z"/>
	<path class="st81" d="M82.4,141.8C41.8,141.8,9,110.4,9,71.8c0-10,2.2-19.9,6.5-28.9c-0.8,1.2-1.6,2.4-2.3,3.6
		C7.1,56.9,3.9,68.7,3.9,80.7c0,38.7,32.9,70.1,73.4,70.1c29.8,0,55.4-16.9,66.9-41.2C131.1,129,108.3,141.8,82.4,141.8z"/>
	<path class="st82" d="M22.5,54.9c3-10.9,11.9-21.4,30.2-28.1c2.1-0.8,3.1-3.1,2.3-5.2c-0.2-0.5-0.5-0.9-0.9-1.3l-0.3-0.4
		c-1-1-2.5-1.4-3.9-1C43,21,25.1,31.1,19.3,54c-0.2,0.7,0.1,1.4,0.7,1.8l0,0c0.8,0.5,1.8,0.3,2.3-0.4C22.4,55.3,22.5,55.1,22.5,54.9
		z"/>
	<circle class="st82" cx="20" cy="60.7" r="2.5"/>
</g>
<g class="st83">
	<path d="M129.3,23.5C99.3-5,51.8-3.9,23.2,26.1C10,39.9,2.6,58.3,2.5,77.5c0,2.3,0.1,4.6,0.3,6.8c0,0.3,0,0.5,0.1,0.8
		c0,0,0,0.1,0,0.1c1.4,19.1,10.5,36.7,25.3,48.8c28.4,30.1,75.9,31.5,106,3.1s31.5-75.9,3.1-106C134.8,28.3,132.1,25.8,129.3,23.5
		L129.3,23.5z"/>
</g>
</svg>
