<svg xmlns="http://www.w3.org/2000/svg" viewBox="0 0 130 130"><defs><style>.a{fill:#fff;}.b{fill:#1783cc;}.c{fill:#074068;}.d{fill:#08518e;}.e{fill:#d8d8d8;}.f{fill:#fbfcfa;}</style></defs><circle class="a" cx="65" cy="65" r="65"/><circle class="b" cx="65" cy="65" r="58.23"/><circle class="c" cx="67.01" cy="67.01" r="56.22"/><circle class="d" cx="65.83" cy="65.83" r="55.04"/><path class="e" d="M42.32,63.55c1.37-3.31,8.87-9.91,18.73-16.27,9.28-6,17.89-10,21.86-10.32h.85a4.85,4.85,0,0,1,3.1,8.31l-3.25,2c-9.87,6.36-17.36,13-18.74,16.27a5.9,5.9,0,0,0,.86,6.58c2.54,3.57,9.31,9.28,17.88,14.8,1.1.71,2.18,1.39,3.26,2a4.85,4.85,0,0,1-3,8.29H83c-4-.34-12.6-4.33-21.91-10.33-8.56-5.52-15.34-11.23-17.88-14.8a5.91,5.91,0,0,1-1.49-3.92A5.75,5.75,0,0,1,42.32,63.55Z"/><path class="f" d="M42.32,61.34c1.37-3.3,8.87-9.91,18.73-16.27,9.28-6,17.89-10,21.86-10.32h.85a4.85,4.85,0,0,1,3.13,8.31l-3.25,2c-9.87,6.36-17.36,13-18.74,16.27A6,6,0,0,0,64.27,64a5.92,5.92,0,0,0,1.49,3.93c2.54,3.57,9.31,9.28,17.88,14.8,1.1.7,2.18,1.38,3.26,2a4.85,4.85,0,0,1-3,8.3h-.84c-4-.33-12.6-4.32-21.91-10.32-8.56-5.52-15.34-11.23-17.88-14.8A5.92,5.92,0,0,1,41.78,64,5.8,5.8,0,0,1,42.32,61.34Z"/></svg>