<svg xmlns="http://www.w3.org/2000/svg" viewBox="0 0 130 130"><defs><style>.a{fill:#fff;}.b{fill:#1783cc;}.c{fill:#074068;}.d{fill:#08518e;}.e{fill:#d8d8d8;}.f{fill:#fbfcfa;}</style></defs><circle class="a" cx="65" cy="65" r="65"/><circle class="b" cx="65" cy="65" r="58.23"/><circle class="c" cx="62.99" cy="67.01" r="56.22"/><circle class="d" cx="64.17" cy="65.83" r="55.04"/><path class="e" d="M87.69,63.53c-1.38-3.3-8.87-9.91-18.74-16.27-9.27-6-17.89-10-21.86-10.32h-.85a4.84,4.84,0,0,0-3.09,8.31l3.25,2c9.86,6.36,17.36,13,18.73,16.27a5.88,5.88,0,0,1-.85,6.58C61.74,73.68,55,79.38,46.4,84.9c-1.1.71-2.19,1.39-3.26,2a4.85,4.85,0,0,0,3,8.3H47c4-.34,12.59-4.32,21.9-10.33,8.57-5.52,15.34-11.22,17.88-14.8a6,6,0,0,0,.9-6.54Z"/><path class="f" d="M87.69,61.35C86.31,58,78.82,51.44,69,45.08c-9.27-6-17.89-10-21.86-10.32h-.85a4.84,4.84,0,0,0-3.09,8.31l3.25,2c9.86,6.36,17.36,13,18.73,16.27a5.88,5.88,0,0,1-.85,6.58C61.74,71.49,55,77.2,46.4,82.72c-1.1.71-2.19,1.39-3.26,2a4.81,4.81,0,0,0-1.46,3.45A4.86,4.86,0,0,0,46.18,93H47c4-.33,12.59-4.32,21.9-10.32,8.57-5.52,15.34-11.23,17.88-14.8a5.9,5.9,0,0,0,.86-6.58Z"/></svg>