<?xml version="1.0" encoding="utf-8"?>
<!-- Generator: Adobe Illustrator 25.2.3, SVG Export Plug-In . SVG Version: 6.00 Build 0)  -->
<svg version="1.1" id="Layer_1" xmlns="http://www.w3.org/2000/svg" xmlns:xlink="http://www.w3.org/1999/xlink" x="0px" y="0px"
	 viewBox="0 0 490 425" style="enable-background:new 0 0 490 425;" xml:space="preserve">
<style type="text/css">
	.st0{fill:#78EFE9;}
	.st1{fill:#0072AB;}
	.st2{fill:#74879E;}
	.st3{clip-path:url(#SVGID_2_);}
	.st4{clip-path:url(#SVGID_4_);}
	.st5{fill:#E5E5B1;}
	.st6{fill:#9B2A55;stroke:#323232;stroke-miterlimit:10;}
	.st7{fill:#707375;}
	.st8{fill:#858889;}
	.st9{fill:#4C4E51;}
	.st10{fill:#306068;}
	.st11{fill:#6BA3B2;}
	.st12{fill:#FFFFFF;stroke:#552168;stroke-miterlimit:10;}
	.st13{fill:#FFFFFF;}
	.st14{fill:#E5BBB1;stroke:#5E432E;stroke-miterlimit:10;}
	.st15{fill:#8BBFD1;}
	.st16{fill:#565A63;}
	.st17{fill:#44474F;}
	.st18{fill:#334872;}
	.st19{fill:#283A56;}
	.st20{fill:#686868;}
	.st21{fill:#23334C;}
	.st22{fill:#313338;}
	.st23{fill:#EA5B28;}
	.st24{fill:#F2961D;}
	.st25{fill:#EFD01B;}
	.st26{fill:#7C7C7C;}
	.st27{fill:#353535;}
	.st28{fill:#474747;}
	.st29{opacity:0.29;fill:#FFFFFF;enable-background:new    ;}
	.st30{fill:#EAC583;}
	.st31{fill:#ED7E5D;}
	.st32{fill:#EFE1A5;}
	.st33{opacity:0.6;fill:#FFFFFF;enable-background:new    ;}
	.st34{fill:#70B4F2;}
	.st35{fill:#C2E0F2;stroke:#453323;stroke-width:0.75;stroke-miterlimit:10;}
	.st36{fill:#EBF3F7;}
	.st37{fill:#99D3FF;}
	.st38{opacity:0.58;fill:#9DCFF4;enable-background:new    ;}
	.st39{fill:#9DCFF4;}
	.st40{fill:#DFECF4;}
	.st41{fill:#88B8D1;stroke:#453323;stroke-width:0.75;stroke-miterlimit:10;}
	.st42{fill:none;stroke:#453323;stroke-width:0.75;stroke-miterlimit:10;}
	.st43{fill:#72A2B7;}
	.st44{fill:#E6F5FF;}
	.st45{fill:#56A1D8;}
	.st46{opacity:0.38;fill:#EDF2F9;stroke:#5E432E;stroke-miterlimit:10;enable-background:new    ;}
	.st47{fill:#422B27;stroke:#453323;stroke-width:0.75;stroke-miterlimit:10;}
	.st48{fill:#704B48;stroke:#453323;stroke-width:0.75;stroke-miterlimit:10;}
	.st49{fill:#FBD3C7;stroke:#5E432E;stroke-miterlimit:10;}
	.st50{fill:#FFF7F5;stroke:#99755B;stroke-width:0.75;stroke-miterlimit:10;}
	.st51{fill:#CC8B81;}
	.st52{opacity:0.53;fill:#FFFFFF;enable-background:new    ;}
	.st53{opacity:0.33;fill:#FFFFFF;enable-background:new    ;}
</style>
<polygon class="st0" points="359.8,13.6 130.2,13.6 15.3,212.5 130.2,411.4 359.8,411.4 474.7,212.5 "/>
<polygon class="st1" points="353.3,24.9 136.7,24.9 28.3,212.5 136.7,400.1 353.3,400.1 461.7,212.5 "/>
<polygon class="st2" points="351.5,28 138.5,28 32,212.5 138.5,397 351.5,397 458,212.5 "/>
<g>
	<defs>
		<polygon id="SVGID_1_" points="351.5,28 138.5,28 32,212.5 138.5,397 351.5,397 458,212.5 		"/>
	</defs>
	<clipPath id="SVGID_2_">
		<use xlink:href="#SVGID_1_"  style="overflow:visible;"/>
	</clipPath>
	<g class="st3">
		<g>
			<defs>
				<rect id="SVGID_3_" x="11.2" y="25" width="477.3" height="375"/>
			</defs>
			<clipPath id="SVGID_4_">
				<use xlink:href="#SVGID_3_"  style="overflow:visible;"/>
			</clipPath>
			<g class="st4">
				<rect x="6.1" y="26.7" class="st5" width="485.8" height="390.2"/>
				<polygon class="st6" points="316.3,-0.3 306,87.8 325.5,329.4 34.3,402.2 4.6,335.7 41.1,195.1 71.9,74.9 57.5,-23.1 				"/>
				<path class="st7" d="M492.8,302.1v99.6c0,0.1-0.1,0.2-0.2,0.2H38.1c-0.2,0-0.3-0.4,0-0.5l0,0c0,0,0.1,0,0.1-0.1l28.9-32.9
					l34.4-39.1l24.3-27.6c0,0,0.1-0.1,0.1-0.1h366.6C492.7,301.9,492.8,302,492.8,302.1z"/>
				<polygon class="st8" points="492.8,301.8 492.8,329.5 101.5,329.5 125.9,301.9 125.9,301.8 				"/>
				<polygon class="st9" points="492.8,368.6 492.8,402 35.5,402 38.1,401.5 67.1,368.6 				"/>
				<ellipse class="st10" cx="233" cy="339.2" rx="96.3" ry="23.5"/>
				<ellipse class="st11" cx="235.3" cy="331.5" rx="86.8" ry="21.2"/>
				<path class="st12" d="M67.6,67.8c0,0,63.2,20,120.9,20.8c0,0,103.2,3.8,116.3-15.4c0,0,8,7.2,0.3,21.8c0,0-58,17.5-115,6.7
					c0,0-80.1,3.9-122.4-18.5C67.6,83.2,53,76.2,67.6,67.8z"/>
				<path class="st13" d="M201.6,94.7c0,0-30.8,1.7-20.7,45s30.8-37.5,30.8-37.5l-8.2,0.8c0,0-9.4,35-16.3,40.8
					S154.5,97.2,201.6,94.7z"/>
				<path class="st13" d="M204.5,87.7c0,0,57.7,20.8,46.2,47.8s-30,7.3-47.7-39.5c0,0,31.6,57.2,38.5,41S236.8,110.8,204.5,87.7z"/>
				<path class="st13" d="M173.7,72.7c1.1,0.3,0.9-1.6,0.6-2.7c-0.5-1.8,0.9-3.8,2.7-4.6c1.8-0.6,3.8-0.6,5.7,0
					c8,2.1,14.6,7.9,17.7,15.6c2.2-4.4,4.5-9,7.7-12.7s7.7-6.7,12.6-7.2c0.9-0.1,1.7,0,2.5,0.4c0.8,0.7,1.3,1.6,1.6,2.6
					c1.2,3.8,2.4,8,0.8,11.6c-1,2.2-2.9,3.8-4.8,5.3L208,91.5c3.9-2.1,8.1-3.3,12.4-3.8c2.7,2.9,0.7,8.1-2.8,10
					c-7.4,3.9-17.5,0.8-23.1-4.2C188.7,88.3,181.2,75,173.7,72.7z"/>
				<path class="st14" d="M91.4,98c0,0,14.4,27.5,10,43.1s-14.9-11.6-13.1-31.1S91.4,98,91.4,98z"/>
				<ellipse class="st15" cx="230.2" cy="326.8" rx="65.5" ry="19.3"/>
				<rect x="178" y="316.6" class="st16" width="106.7" height="11.6"/>
				<path class="st16" d="M284.8,328.3c0,6.4-19.5,12.7-53.8,12.7c-29.5,0-52.9-6.3-52.9-12.7s23.9-11.6,53.4-11.6
					S284.8,321.9,284.8,328.3z"/>
				<path class="st17" d="M287.2,316.6c0,6.4-24.7,14.4-55.8,14.4s-56.7-8-56.7-14.4s25.2-11.6,56.3-11.6S287.2,310.2,287.2,316.6z"
					/>
				<path class="st18" d="M102.3,230.2c-16.3-6.4-33-12.9-50.7-14.3c-5.3-0.4-11.4,0-14.6,3.7c-3.5,4.1-1.2,10.9,4,13.4
					c3.8,1.8,8.2,1.6,12.4,1.9c4.7,0.5,9.4,1.3,14,2.5c22.8,5.3,45.4,11.2,67.8,17.9c2.9,0.9,6.7,1.6,8.6-0.6
					c5.7-6.4-8.7-11.6-12.6-13.1L102.3,230.2z"/>
				<path class="st19" d="M123.4,250.1c-24.9-13-53.4-17-80.9-22.7c-2.2-0.4-4.4-1-6-2.6c-0.4-0.4-0.7-0.8-0.9-1.2
					c-0.2,4,2,7.8,5.7,9.5c3.8,1.8,8.2,1.6,12.4,1.9c4.7,0.5,9.4,1.3,14.1,2.5c18.2,4.2,36.2,8.8,54.2,13.9
					C122.3,251,122.9,250.6,123.4,250.1z"/>
				<path class="st20" d="M118.2,254.5c-0.8-0.4-1.4-1-2-1.7c-0.5-0.8-0.8-1.7-0.8-2.7c-0.2-4.5,3.7-8.4,8-9.5s9-0.1,13.2,1.3
					c4.1,1.4,8.1,3.3,11.8,5.6c3.5,2.2,7,5.7,6.2,9.7c-0.7,3.5-4.4,5.5-7.8,6.7C135.7,267.8,127.2,260.4,118.2,254.5z"/>
				<path class="st18" d="M335.8,275.6c-0.9,13.5-8.5,25.3-19.8,30.5c-15,6.9-41.4,13.6-87.2,13.6c-45.6,0-71.4-6.5-85.8-13.1
					c-10.6-4.9-18.1-15.7-19.5-28.4l-1.8-15.7l215.1-2.1L335.8,275.6z"/>
				<path class="st21" d="M335.8,268.6c-0.9,13.5-8.5,25.3-19.8,30.5c-15,6.9-41.5,17.1-87.2,17.1c-45.6,0-71.3-9.9-85.8-16.5
					c-10.6-4.9-18.1-15.7-19.5-28.4l-1-8.7h-0.8l1.8,15.7c1.5,12.6,8.9,23.5,19.5,28.4c14.5,6.6,40.2,16.4,85.8,16.4
					c45.8,0,72.2-10.1,87.2-16.9c11.3-5.2,19-17,19.8-30.5l1-15.2h-0.5L335.8,268.6z"/>
				<path class="st22" d="M181.3,324.9c0,1.9-0.6,3.4-1.2,3.4s-1.2-1.5-1.2-3.4s0.6-3.4,1.2-3.4S181.3,323.1,181.3,324.9z"/>
				<path class="st22" d="M190.8,328.8c0,1.9-0.6,3.4-1.2,3.4s-1.2-1.5-1.2-3.4s0.6-3.4,1.2-3.4S190.8,326.9,190.8,328.8z"/>
				<path class="st22" d="M202.6,331.4c0,1.9-0.6,3.4-1.2,3.4s-1.2-1.5-1.2-3.4s0.6-3.4,1.2-3.4S202.6,329.5,202.6,331.4z"/>
				<path class="st22" d="M214.4,332.8c0,1.9-0.6,3.4-1.2,3.4s-1.2-1.5-1.2-3.4s0.6-3.4,1.2-3.4S214.4,330.9,214.4,332.8z"/>
				<path class="st22" d="M225.2,334.7c0,1.9-0.6,3.4-1.2,3.4s-1.2-1.5-1.2-3.4s0.6-3.4,1.2-3.4S225.2,332.9,225.2,334.7z"/>
				<path class="st22" d="M234.6,334.6c0,1.9-0.6,3.4-1.2,3.4s-1.2-1.5-1.2-3.4s0.6-3.4,1.2-3.4S234.6,332.7,234.6,334.6z"/>
				<path class="st22" d="M244.4,333.5c0,1.9-0.6,3.4-1.2,3.4s-1.2-1.5-1.2-3.4s0.6-3.4,1.2-3.4S244.4,331.6,244.4,333.5z"/>
				<path class="st22" d="M254.8,332.4c0,1.9-0.6,3.4-1.2,3.4s-1.2-1.5-1.2-3.4s0.6-3.4,1.2-3.4S254.8,330.5,254.8,332.4z"/>
				<path class="st22" d="M265.7,331.4c0,1.9-0.5,3.4-1.2,3.4s-1.2-1.5-1.2-3.4s0.6-3.4,1.2-3.4S265.7,329.5,265.7,331.4z"/>
				<path class="st22" d="M274.9,328.4c0,1.9-0.6,3.4-1.2,3.4s-1.2-1.5-1.2-3.4s0.6-3.4,1.2-3.4S274.9,326.5,274.9,328.4z"/>
				<path class="st22" d="M284.5,325.7c0,1.9-0.5,3.4-1.2,3.4s-1.2-1.5-1.2-3.4s0.5-3.4,1.2-3.4S284.5,323.8,284.5,325.7z"/>
				<path class="st23" d="M168.1,320.3c-1.1-2.2-2-4.6-2.4-7.1c0.6,0.7,1.5,1.1,2.4,1.1c3.8,0.7,7.8,1.9,10.4,4.7
					c0.9,0.9,1.6,2.1,1.9,3.3c0.7,3-1.7,5.4-4.6,4.4C172.5,325.7,169.7,323.4,168.1,320.3z"/>
				<path class="st24" d="M171.9,322c-0.6-1.3-1.3-2.5-1.9-3.8c1,0.5,2,0.8,3.1,1c1.9,0.4,3.6,1.3,5.1,2.5c0.6,0.5,1.1,1.1,1.5,1.8
					c0.6,1.1,0.2,2.5-0.9,3.1c-0.5,0.3-1.1,0.4-1.7,0.2C174.4,326.4,173.1,324.3,171.9,322z"/>
				<path class="st25" d="M173,321.2c1.2,1,8.3,2.3,6.4,5.2C177.2,329.6,174,322.1,173,321.2z"/>
				<path class="st23" d="M228.8,324.3c0.7-1.9,1.7-3.7,3.1-5.3c-0.1,0.7,0.6,1.4,1.2,2.1c2.7,2.8,5.1,6,5.4,9.1
					c0.2,1.1-0.1,2.1-0.8,3c-1.6,2-5.4,1.7-7.1-0.7C228.6,329.8,228,327.1,228.8,324.3z"/>
				<path class="st24" d="M230.7,327.7l1.1-3.2c0.5,0.9,1.2,1.8,1.9,2.5c1.2,1.3,2,2.9,2.4,4.5c0.2,0.6,0.2,1.3,0,1.9
					c-0.6,1.6-3.1,1.5-4.5,0.1C229.7,331.5,230.1,329.6,230.7,327.7z"/>
				<path class="st25" d="M232.2,328c0.3,1.3,5.3,6.5,1.6,6.7C229.7,335,232.4,329,232.2,328z"/>
				<path class="st23" d="M214.9,325.8c-0.9-2.4-1.4-4.9-1.5-7.4c0.5,0.7,1.3,1.2,2.2,1.4c3.7,1.2,7.4,2.9,9.8,6
					c0.8,1,1.3,2.2,1.5,3.5c0.3,3.1-2.4,5.1-5.2,3.8C218.5,331.6,216.1,329,214.9,325.8z"/>
				<path class="st24" d="M218.4,328l-1.4-4c0.9,0.6,1.9,1,3,1.3c1.8,0.7,3.4,1.8,4.7,3.1c0.6,0.6,1,1.2,1.3,2
					c0.5,1.2-0.1,2.5-1.2,3c-0.6,0.2-1.2,0.2-1.7,0C220.3,332.6,219.3,330.4,218.4,328z"/>
				<path class="st25" d="M219.6,327.3c1,1.1,8,3.3,5.7,5.9C222.7,336.2,220.5,328.3,219.6,327.3z"/>
				<path class="st23" d="M204.4,325c-1-2.3-1.8-4.7-2.2-7.2c0.5,0.7,1.3,1.2,2.2,1.3c3.5,1.1,7.1,2.6,9.6,5.5
					c0.9,1,1.5,2.2,1.8,3.4c0.6,3-1.7,5.1-4.4,3.9C208.3,330.6,205.8,328.1,204.4,325z"/>
				<path class="st24" d="M207.9,327.1c-0.6-1.3-1.1-2.6-1.7-3.9c0.9,0.6,1.8,1,2.9,1.2c1.7,0.6,3.3,1.6,4.6,2.9
					c0.6,0.5,1,1.2,1.4,1.9c0.8,2-0.6,3.5-2.4,3C210.1,331.6,208.9,329.4,207.9,327.1z"/>
				<path class="st25" d="M208.9,326.4c1.1,1.1,7.6,3,5.8,5.6C212.7,335,209.8,327.3,208.9,326.4z"/>
				<path class="st23" d="M192.9,323.7c-0.7-2.4-1.1-4.9-1.1-7.4c0.4,0.8,1.1,1.3,1.9,1.6c3.3,1.5,6.7,3.5,8.7,6.8
					c0.7,1.1,1.1,2.3,1.3,3.6c0.2,3.1-2.4,4.9-4.9,3.3C195.9,329.7,193.8,326.9,192.9,323.7z"/>
				<path class="st24" d="M196,326.2c-0.4-1.4-0.8-2.7-1.2-4.1c0.8,0.7,1.7,1.2,2.7,1.6c1.6,0.9,3.1,2.1,4.2,3.5
					c0.5,0.6,0.9,1.3,1.1,2.1c0.5,2.1-1.1,3.4-2.8,2.6C197.6,331,196.7,328.7,196,326.2z"/>
				<path class="st25" d="M197.1,325.7c0.9,1.2,7.2,4,5,6.4C199.7,334.7,197.9,326.7,197.1,325.7z"/>
				<path class="st23" d="M180.2,321.3c-1-2.3-1.8-4.7-2.2-7.2c0.5,0.7,1.3,1.2,2.2,1.3c3.5,1.1,7.1,2.5,9.6,5.5
					c0.9,1,1.5,2.2,1.8,3.4c0.6,3-1.7,5.1-4.3,3.9C184.1,326.9,181.6,324.4,180.2,321.3z"/>
				<path class="st24" d="M183.7,323.4l-1.7-3.8c0.9,0.5,1.8,1,2.9,1.2c1.7,0.6,3.3,1.6,4.6,2.9c0.6,0.5,1.1,1.2,1.4,1.9
					c0.8,2-0.6,3.5-2.4,3C186,327.8,184.8,325.7,183.7,323.4z"/>
				<path class="st25" d="M184.8,322.7c1.1,1.1,7.7,3,5.8,5.6C188.5,331.3,185.7,323.6,184.8,322.7z"/>
				<path class="st23" d="M295.4,320.2c1.4-2.1,2.4-4.4,3.1-6.9c-0.7,0.6-1.5,0.9-2.5,0.9c-3.9,0.4-7.9,1.2-10.8,3.7
					c-1,0.8-1.8,1.9-2.3,3.1c-1,3,1.2,5.6,4.2,4.8C290.5,325.1,293.5,323.1,295.4,320.2z"/>
				<path class="st24" d="M291.4,321.6c0.8-1.2,1.5-2.4,2.3-3.6c-1,0.4-2.1,0.6-3.2,0.7c-1.9,0.3-3.7,0.9-5.3,2
					c-0.7,0.4-1.2,1-1.7,1.6c-0.7,1-0.4,2.5,0.6,3.2c0.5,0.3,1.1,0.4,1.6,0.4C288.5,325.7,290,323.7,291.4,321.6z"/>
				<path class="st25" d="M290.4,320.7c-1.3,0.9-8.5,1.5-6.8,4.5C285.4,328.6,289.3,321.4,290.4,320.7z"/>
				<path class="st23" d="M262.9,324.9c1.1-2.3,1.9-4.7,2.3-7.1c-0.5,0.7-1.3,1.2-2.2,1.3c-3.5,1-7.2,2.4-9.7,5.3
					c-0.9,1-1.5,2.1-1.8,3.4c-0.7,3,1.6,5.2,4.3,4C258.9,330.4,261.4,327.9,262.9,324.9z"/>
				<path class="st24" d="M259.4,326.8l1.8-3.8c-0.9,0.5-1.9,0.9-2.9,1.2c-1.8,0.6-3.4,1.6-4.7,2.8c-0.6,0.5-1.1,1.1-1.4,1.9
					c-0.9,2,0.5,3.5,2.3,3C257,331.3,258.3,329.1,259.4,326.8z"/>
				<path class="st25" d="M258.4,326.1c-1.1,1.1-7.7,2.8-5.9,5.5C254.4,334.6,257.4,327,258.4,326.1z"/>
				<path class="st23" d="M273.2,323.5c0.8-2.4,1.3-4.9,1.5-7.4c-0.5,0.7-1.2,1.3-2,1.5c-3.4,1.4-6.8,3.2-9,6.4
					c-0.8,1.1-1.2,2.3-1.4,3.6c-0.3,3.1,2.2,5,4.7,3.5C269.9,329.4,272.1,326.7,273.2,323.5z"/>
				<path class="st24" d="M270,325.9l1.4-4c-0.8,0.6-1.7,1.1-2.7,1.5c-1.7,0.8-3.2,1.9-4.4,3.4c-0.5,0.6-0.9,1.3-1.2,2
					c-0.6,2.1,0.9,3.4,2.7,2.8C268.1,330.5,269.1,328.3,270,325.9z"/>
				<path class="st25" d="M268.9,325.3c-1,1.2-7.3,3.7-5.3,6.2C265.9,334.2,268,326.3,268.9,325.3z"/>
				<path class="st23" d="M283.5,321.7c1.2-2.2,2.1-4.6,2.7-7c-0.6,0.6-1.4,1.1-2.3,1.1c-3.6,0.8-7.3,2-10,4.8c-0.9,0.9-1.6,2-2,3.3
					c-0.8,3,1.3,5.3,4,4.2C279.2,327,281.9,324.7,283.5,321.7z"/>
				<path class="st24" d="M279.9,323.5l2-3.7c-0.9,0.5-1.9,0.8-2.9,1c-1.8,0.5-3.4,1.4-4.9,2.6c-0.6,0.5-1.1,1.1-1.5,1.8
					c-1,1.9,0.3,3.5,2.2,3.2C277.3,327.8,278.6,325.7,279.9,323.5z"/>
				<path class="st25" d="M278.9,322.7c-1.1,1-7.9,2.4-6.2,5.2C274.5,331,277.9,323.6,278.9,322.7z"/>
				<path class="st23" d="M252.4,325c0.8-2.4,1.3-4.9,1.5-7.4c-0.5,0.7-1.3,1.2-2.2,1.4c-3.7,1.2-7.4,2.9-9.7,6
					c-0.8,1-1.3,2.2-1.5,3.5c-0.3,3.1,2.4,5.1,5.2,3.8C248.8,330.9,251.2,328.2,252.4,325z"/>
				<path class="st24" d="M248.9,327.2l1.4-4c-0.9,0.6-1.9,1.1-3,1.4c-1.8,0.7-3.4,1.8-4.7,3.2c-0.6,0.6-1,1.2-1.3,2
					c-0.5,1.2,0.1,2.5,1.3,3c0.6,0.2,1.2,0.2,1.7,0C247,331.9,248.1,329.6,248.9,327.2z"/>
				<path class="st25" d="M247.7,326.6c-1,1.1-7.9,3.3-5.6,5.9C244.6,335.4,246.8,327.5,247.7,326.6z"/>
				<path class="st26" d="M336.8,260.4c0,14.6-39,28.6-107.8,28.6c-60.3,0-107.3-11.9-107.3-26.5S168.6,236,228.9,236
					S336.8,245.8,336.8,260.4z"/>
				<ellipse class="st27" cx="228.9" cy="261.8" rx="103.1" ry="24.3"/>
				<path class="st28" d="M231,258.2c-42.1,0-78.3,5.9-94.3,14.5c16.9,7.9,51.8,13.4,92.1,13.4c42.1,0,78.3-6,94.3-14.5
					C306.2,263.7,271.3,258.2,231,258.2z"/>
				<path class="st29" d="M167.3,236.3c3.4-9.7,9.9-18.8,9.1-29c-0.5-6.5-4.1-12.5-4.7-19c-0.6-5.9,1.3-11.8,5.1-16.3
					c-3.1,4.3-2.4,10.3-0.3,15.1s5.4,9.1,7.3,14.1c2.8,7.8,1.8,16.6-2.8,23.5c-2.3,3.4-5.3,6.2-7.4,9.7c-4.8,7.9-1.7,13.8-0.5,21.8
					C164.2,255.5,165.4,241.6,167.3,236.3z"/>
				<path class="st29" d="M207.5,239.5c-0.8-4.3-0.1-8.7,0.8-13c1.1-5.2,2.4-10.4,4.1-15.4c1.2-3.6,2.5-7.3,2.4-11.1
					c-0.2-5.7-3.5-10.7-5.3-16c-3.3-9.5-2-20,3.5-28.5c-3,5.6-3.6,12.1-1.8,18.1c1.5,5,4.6,9.3,7.1,13.8c3.1,5.7,5.4,12.1,4.9,18.5
					c-0.5,5.3-2.9,10.2-5.2,15s-4.8,9.6-5.4,14.9s1,10.8,5.3,14.1C212.1,250.2,208.4,244.2,207.5,239.5z"/>
				<path class="st29" d="M247.8,234.3c-0.7-5.9-3.3-11.5-4.4-17.4s-0.6-12.6,3.7-16.8c-2.6,3.8-1.9,9-0.1,13.2s4.6,8,6,12.3
					c1.8,5.7,1.2,11.8-1.4,17.1c-2.6,5.2-7,9.4-12.3,11.8C244.7,248.8,248.9,242.6,247.8,234.3z"/>
				<path class="st29" d="M287.1,232.4c1.2-3.8,3.6-7.1,5.5-10.6s3.5-7.5,2.8-11.4c1.6,3.8,1.7,8.1,0.3,11.9c-0.8,2.2-2,4.2-3,6.3
					c-4.4,9.2-3.3,19.5,1.3,28.3C285.7,253.7,285,239.5,287.1,232.4z"/>
				<ellipse class="st30" cx="229" cy="271.7" rx="94.9" ry="14.3"/>
				<path class="st31" d="M168.1,273.4c0,0.9,0.4,1.7,1.1,2.1c1.1,0.8,3,1,4.7,1.1c2.9,0.2,5.9,0.2,8.8-0.1c2.7-0.3,5.3-1.1,7.7-2.5
					c-3.2-0.2-6.4-0.6-9.6-1.3c-1.9-0.4-3.9-1-4.3-2.1c-0.3-0.9,0.7-2-0.9-2.2c-1.2,0.2-2.3,0.5-3.4,0.9
					C169.3,270.1,168,271.5,168.1,273.4z"/>
				<path class="st31" d="M245.9,264.8c0.2-0.8-0.1-1.7-0.7-2.2c-1-0.8-2.8-1.1-4.5-1.4c-2.9-0.4-5.9-0.5-8.8-0.4
					c-2.8,0.1-5.5,0.8-8,2c3.2,0.4,6.3,1,9.4,1.9c1.8,0.5,3.7,1.2,3.9,2.4c0.1,0.9-1,1.9,0.5,2.3c1.2-0.1,2.4-0.3,3.6-0.6
					C244.1,268,245.6,266.7,245.9,264.8z"/>
				<path class="st31" d="M277.5,275.6c0.1,0.4,0.5,0.7,1.4,0.9c1.6,0.2,3.2,0.2,4.8,0c2.9-0.3,5.9-0.6,8.6-1.1
					c2.5-0.4,4.9-1.1,7.1-2.1c-3.2,0.3-6.5,0.4-9.6,0.5c-1.9,0-4,0-4.5-0.5s0.4-1-1.2-1c-0.4,0-2.8,0.7-3.2,0.8
					C278.3,274,277.2,274.8,277.5,275.6z"/>
				<path class="st32" d="M187.1,262.4c5.8-2.1,13.5-3,19.6-1.1c2.3,0.7,4.4,2,4.4,3.5c0,1.3-1.5,2.4-3.4,3c-2,0.6-4.1,0.9-6.1,0.9
					c-4.9,0.3-12.7,0.9-17.2-0.6C179.5,266.6,183.8,263.6,187.1,262.4z"/>
				<path class="st32" d="M261,273.8c1.3,0.1,2.7,0.5,3.9,1c1.1,0.5,1.9,1.4,1.5,2.2c-2.3,0.9-5.3,0.7-8,0.8s-5.2,0.6-7.9,0.8
					c-5.2,0.5-10.4,0.2-15.4-0.9c0.7-2.3,8-3.4,11.2-3.8C251.2,273.3,256.1,273.2,261,273.8z"/>
				<path class="st32" d="M283.3,259.2c1,0.2,2,0.6,2.9,1.2c0.7,0.6,0.9,1.4,0.1,1.9c-0.5,0.2-1,0.3-1.6,0.3
					c-4.2,0.2-32.8-0.2-30.7-5.1c0.9-2.1,7.3-1.2,10.1-1.1C270.7,256.6,277.1,257.5,283.3,259.2z"/>
				<path class="st32" d="M213.5,276.9c1.2,0.3,2.6,0.8,2.1,1.5c-0.3,0.4-1,0.6-1.7,0.8c-2.2,0.5-15.7,3-15.1-0.5
					C199.4,275.7,210.8,276.3,213.5,276.9z"/>
				<path class="st32" d="M142.1,268.5c0.6-1.6,3.5-2.4,6.1-2.7c2-0.3,4-0.4,6-0.5c2.3-0.1,4.6,0.2,6.8,0.9c1.7,0.7,3,2,2.3,3.1
					c-0.6,0.8-1.5,1.3-2.4,1.5C156.9,272.2,139.6,274.4,142.1,268.5z"/>
				<path class="st32" d="M274.5,268.3c3-1.3,7.1-1.2,10.7-0.8s7.2,1.1,10.9,1.1c2.9-0.1,6.1-0.6,8.6,0.3c0.3,0.1,0.5,0.2,0.7,0.4
					c0.2,0.3-0.2,0.7-0.7,0.9c-0.6,0.1-1.2,0.2-1.8,0.1c-4.8-0.2-9.5-0.8-14.3-1c-2.2-0.2-4.5-0.1-6.7,0.3c-1.4,0.3-2.7,0.8-4.1,1.1
					c-1.7,0.3-3.4,0.6-5.1,0.7c-4.2,0.3-8.4,0.4-12.5,0.1c-3.6-0.2-7.4-0.6-10.9,0.1c-0.6,0.1-1.5,0-1.4-0.3c0-0.1,0.1-0.1,0.2-0.2
					c3-2.1,10.2-1.5,14.1-0.9c2,0.4,4,0.6,6,0.5C271,270.4,272.4,269.1,274.5,268.3z"/>
				<path class="st32" d="M205.3,272.1c0.8,0.4,1.7,0.6,2.5,0.6c2.1,0.1,4.2-0.1,6.2,0c3.2,0.1,6.3,0.8,9.3,2.1
					c0.4,0.1,0.7,0.3,0.9,0.6c0.2,0.5-0.3,0.9-0.9,1.3c-1.5,0.8-3.5,1.5-3.9,2.6c-0.1,0.2,0,0.5,0.2,0.6c0.3,0.1,0.5,0.2,0.8,0.2
					c4.6,0.5,9.3,0.1,13.7,1c0.8,0.1,1.6,0.4,2.3,1c0.2,0.3,0.2,0.6,0.6,0.8c0.4,0.2,0.9,0.3,1.4,0.3c1.8,0.1,3.6,0,5.4-0.4
					c0.7-0.1,1.5-0.6,1-0.9c-0.2-0.1-0.4-0.1-0.5-0.1c-1.6-0.2-3.5,0.2-4.9-0.3c-0.4-0.2-0.8-0.4-1.2-0.6c-2.3-1.2-5.7-0.9-8.8-1
					c-1.1,0-2.4-0.2-3-0.8s0.1-1.5,1-2.2s1.9-1.3,1.6-2.1s-1.9-1.4-3.3-1.6c-4.1-0.8-8.3-1.4-12.6-1.8c-0.4,0-0.8-0.1-1.2-0.3
					c-0.5-0.4,0.3-1,1.1-1.2c2.3-0.4,4.7-0.7,7-0.8c0.6-0.1,1.2-0.2,1.4-0.5s-0.4-0.7-0.9-0.8c-1.6-0.3-3.2-0.2-4.7,0.2l-7.7,1.6
					C206.8,269.6,204.2,271.2,205.3,272.1z"/>
				<path class="st32" d="M157.9,274.8c1.9-0.5,3.7-1.2,5.4-2.1c1,0.4,1.4,1.2,1,1.8c-0.5,0.8-1.3,1.3-2.2,1.6
					c-1.9,0.6-3.9,0.9-5.9,0.8c-2-0.1-3.9-0.5-5.8-1.1c-0.2,0-0.3-0.1-0.5-0.2c-1.1-1,2.4-0.6,2.8-0.5
					C154.4,275.3,156.2,275.2,157.9,274.8z"/>
				<path class="st32" d="M182.1,279.1c0.1,0.2,0.2,0.4,0.4,0.4c1,0.6,2.6,0.5,3.9,0.5s3,0.2,3.5,1c0.1,0.2,0.1,0.5,0.4,0.6
					c0.3,0.1,0.5,0.2,0.8,0.2c1.7,0.2,3.5,0.2,5.2,0.1c0.5,0,1.1-0.1,1.6-0.3c0.4-0.2,0.7-0.6,0.4-0.9c-0.2-0.2-0.4-0.3-0.6-0.3
					c-1-0.4-2-0.6-3-0.6c-0.8,0-1.6,0-2.4-0.1c-0.8-0.2-1.4-0.6-1.2-1.1c0.2-0.2,0.5-0.4,0.8-0.5l1.3-0.6c1.6-0.8-4.6-0.6-5.5-0.4
					C186.3,277.3,181.8,277.9,182.1,279.1z"/>
				<path class="st33" d="M186.7,265c-0.2,0.2-0.3,0.6-0.3,0.9c0.2,0.6,1.3,0.9,2.3,1c0.5,0.1,1,0,1.5-0.1c0.8-0.3,1.1-0.9,1.5-1.4
					c0.9-0.9,2.6-1.4,4.3-1.6c0.7,0,1.5-0.3,2.1-0.7c1.7-1.7-3.5-1.8-5-1.5C190.3,262.3,187.9,263.5,186.7,265z"/>
				<path class="st33" d="M263.5,256.3c-0.6,0.1-1.2,0.2-1.4,0.5s0.8,1,1.6,1.1c0.8,0,1.6,0,2.3-0.2c3.2-0.4,7,0.7,10.3,0.4
					c0.2,0,0.4,0,0.4-0.1s-0.3-0.3-0.5-0.3C272,256.8,267.4,255.9,263.5,256.3z"/>
				<path class="st33" d="M147.6,267.1c-0.8,0.3-1.6,0.7-2.3,1.3c-0.6,0.4-0.7,1.2-0.3,1.8c0.7,0.7,1.7,0.9,2.6,0.7
					c0.3-0.1,0.5-0.2,0.7-0.4c0.2-0.3,0.3-0.6,0.3-0.9c0.3-0.9,1-1.5,1.8-1.8c1.1-0.4,2.3-0.6,3.5-0.4c0.4-0.2,0.3-0.6-0.1-0.8
					c-0.5-0.2-1-0.3-1.5-0.2C150.7,266.3,149.1,266.5,147.6,267.1z"/>
				<path class="st33" d="M202.1,278c-0.5,0.2-1.1,0.7-0.7,1c0.5,0.3,1,0.4,1.6,0.2c0.5-0.1,0.9-0.4,1.4-0.6
					c1.3-0.5,3.1-0.3,4.4-0.7c0.3-0.1,0.6-0.3,0.4-0.5c-0.3-0.4-2.9-0.3-3.5-0.2C204.5,277.2,203.2,277.5,202.1,278z"/>
				<path class="st33" d="M242,275.8c-0.4,0.1-0.8,0.4-0.8,0.6s1,0.5,1.7,0.4c2.5-0.3,4.8-1,7.3-1.1s5,0.3,7.5,0
					c0.4,0,0.8-0.2,0.8-0.4s-0.4-0.3-0.8-0.4C252.6,274.1,246.7,274.1,242,275.8z"/>
				<path class="st34" d="M256.2,263.1c0,0-11.6-16.1-13.6-9s13.4,10.5,13.4,10.5L256.2,263.1z"/>
				<path class="st34" d="M280.1,265.9c0,0,20.3-3.3,11.5-6.4s-12.6,6.2-12.6,6.2"/>
				<path class="st34" d="M265.2,267.7c0,0,2.1-2.3-11,0.5s-8.7-5.4-22.9-3.3s-11.8,9.8,7.2,10.8s18.7,4.9,18.7,4.9
					s-6.2-9.8,14.9-6.7s1.3-4.1,1.3-4.1S278.8,257.4,265.2,267.7z"/>
				<path class="st35" d="M429.5,156.8c-0.1,1.3-0.2,2.6-0.4,3.9c-1.9,13.4-9.3,23.1-13.7,25.3c-4.8,2.5-47.3,1-65.2-3.3l-0.7-0.2
					c-2.8-0.7-5.4-1.5-7.8-2.4c-5.3-1.9-10.4-4.1-15.4-6.7c-3-1.5-5.8-2.9-8.7-4.1c-2.1-0.9-4.2-1.6-6.4-2.3
					c-11.7-3.3-34.1,1-34.1,1s-3.9,1.7-7.9-9.4c-0.6-1.8-1.3-3.9-1.9-6.4c-4.6-18.1,6-33.1,13.1-28.9c5,3,26,8.2,29.1,2.5
					c2.1-3.8,6-4.1,9.2-5.9c6.1-3.7,13.7-4.2,20.3-1.5c0,0,16.5,2.4,34.9,3.3c14.4,0.8,30.2,3.9,36,4.5
					C423.4,127.7,430.3,141.4,429.5,156.8z"/>
				<path class="st36" d="M285.2,133.8c6,1.4,12.2,1.9,18.3,1.4l0.2,5.2c0,0-12.3,1.9-17.9-2.1L285.2,133.8z"/>
				<path class="st37" d="M429.1,160.7c-0.2,1.2-0.4,2.3-0.6,3.4c-1.3,6.1-3.9,11.9-7.6,16.9c-1.5,2-3.3,3.8-5.5,5.1
					c-4.8,2.5-47.3,1-65.2-3.3l-0.7-0.2c-2.8-0.7-5.4-1.5-7.8-2.4c-5.3-1.9-10.4-4.1-15.4-6.7c-3-1.5-5.8-2.9-8.7-4.1
					c-2.1-0.9-4.2-1.6-6.4-2.3c-11.7-3.3-34.1,1-34.1,1s-1.2,0.5-3-0.9c-1.4-1.2-3.1-3.6-4.9-8.5c0.8-1.1,1.8-2.1,2.9-2.9
					c2.1-1.4,4.6-2.3,7.1-2.6l44.4,2L429.1,160.7z"/>
				<path class="st38" d="M420.9,181c-1.5,2-3.3,3.8-5.5,5.1c-4.8,2.5-47.3,1-65.2-3.3l-0.7-0.2c-2.8-0.7-5.4-1.5-7.8-2.4
					c-5.3-1.9-10.4-4.1-15.4-6.7c-3-1.5-5.8-2.9-8.7-4.1c-2.1-0.9-4.2-1.6-6.4-2.3c-11.7-3.3-34.1,1-34.1,1s-1.2,0.5-3-0.9
					c3.6-1,31.1-8.3,48.3-0.1c11.5,5.4,23.5,9.7,35.8,12.8C393.6,186.1,415.2,182.3,420.9,181z"/>
				<path class="st39" d="M429.1,160.7c-0.2,1.2-0.4,2.3-0.6,3.4l-4.4-0.2c0,0-78.6-4.9-125.5-6.4c-14.9-0.5-22.7-1.1-26.4-1.7
					c2.1-1.4,4.6-2.3,7.1-2.6l44.4,2L429.1,160.7z"/>
				<path class="st40" d="M429.2,160.6l-0.5,3.5v0.1h-0.2l-4.9-0.1l-4.9-0.2l-9.8-0.4l-19.6-0.8l-39.1-1.6l-39.1-1.6l-19.6-0.6
					c-3.3-0.1-6.5-0.3-9.8-0.5s-6.5-0.4-9.9-1l-4.4-0.7l3.7-2.5c1.2-0.8,2.5-1.5,3.8-2c0.7-0.2,1.3-0.4,2-0.6
					c0.7-0.2,1.4-0.3,2.2-0.4h0.2l37.5,1.9l18.9,1c6.3,0.4,12.6,0.8,18.9,1.2l37.6,2.5L429.2,160.6z M429.1,160.8l-74.9-3.8
					c-12.5-0.6-24.9-1.3-37.4-1.9l-37.5-1.7l0,0c-1.3,0.1-2.5,0.4-3.7,0.9c-1.2,0.4-2.3,1-3.4,1.7l-0.1-0.4c3.2,0.5,6.5,0.7,9.7,1
					s6.5,0.4,9.8,0.5l19.5,0.7c13,0.5,26.1,1.1,39.1,1.8l39.1,2.1L409,163l9.8,0.6l4.9,0.3l4.9,0.2l-0.1,0.1
					C428.6,163,428.8,161.9,429.1,160.8z"/>
				<path class="st41" d="M278.7,122.4c-0.8-0.4-1.7-0.5-2.6-0.5c-0.6,0-1.1,0.1-1.6,0.2c-6,1.5-10.6,11.4-10.6,23.3
					c0,11,4,20.3,9.3,22.8c0.9,0.5,2,0.7,3,0.7c1.2,0,2.3-0.3,3.3-0.9c5.1-2.8,8.9-11.9,8.9-22.6
					C288.3,134.1,284.2,124.7,278.7,122.4z M269.3,145.1c0-8.9,2.6-16.6,6.4-20.5c4,2.3,6.9,10.8,6.9,20.8c0,9.7-2.8,17.9-6.5,20.6
					C272.1,162.1,269.3,154.2,269.3,145.1z"/>
				<path class="st42" d="M277.3,125.7c0,0-4.5-5-9.4,2.3"/>
				<path class="st41" d="M277.4,165.1c0,0-4.5,4.8-9.4-2.2"/>
				<path class="st43" d="M264.4,164.4l0.7,0.7C264.8,164.9,264.6,164.7,264.4,164.4z"/>
				<path class="st43" d="M288.3,145.4c0,10.8-3.8,19.8-8.9,22.6c-1,0.6-2.2,0.9-3.3,0.9c-1,0-2.1-0.2-3-0.7c1,0.1,2,0.2,3,0.2
					c8.4,0,13.4-19.6,9.4-34c-3.9-14.2-10.9-12.3-11.1-12.2l0-0.1c0.5-0.1,1.1-0.2,1.6-0.2c0.9,0,1.8,0.2,2.6,0.5
					C284.2,124.7,288.3,134.1,288.3,145.4z"/>
				<path class="st37" d="M278.3,153.2l-2.8,13.6c0,0-1.8,0.3-3.5,2.8s-3.3,6.9-3.4,15.2c-0.2,13.6,5.1,60.5,0.2,76.6
					c-1.2,3.9-3,6-5.6,5.3c-13.4-3.3-11.6-57-6.7-85C261.4,153.7,278.3,153.2,278.3,153.2z"/>
				<path class="st44" d="M261,172.4c0,0-5,34-6,54C255,226.4,253,188.4,261,172.4z"/>
				<path class="st45" d="M268.8,261.4c-0.6-1.2-0.7-2.8,0.1-5.2c3.3-10.3-2.1-52.6-1-72.4c0.6-10.9,2.5-13.8,4.2-14.1
					c-1.7,2.4-3.3,6.9-3.4,15.2C268.4,198.4,273.6,245.3,268.8,261.4z"/>
				<path class="st39" d="M279.6,156.3c0,0-12.1,0.5-18,11.6s-1,0.3-1,0.3s4.1-13.1,17.7-14.9"/>
				<path class="st34" d="M258.3,163.2c0,0-12.3,7.4-11.3,14.1S257.5,173,258.3,163.2z"/>
				<path class="st46" d="M384.8,125.4c0,0-28.8-2.5-23.2,4c9.6,11.1,55.1,36.4,47.6,57.4c2.6,0.3,5.2-0.3,7.4-1.7
					c4.1-2.5,22.5-43.8-6.6-56.6L384.8,125.4z"/>
				<path class="st47" d="M75.4,120.9c0,0,75.1,64.6,89.2,73.3c6.3,1.4,12.5,3.4,18.4,6.1c10,4.5,41.3,20.6,60.6,36.3
					c0,0,4.7,17.6-27,14.4c0,0-8.5,3.5-54.9-36.2c0,0-1.9-2.7-11.2-13.6S64.1,132,64.1,132S58.6,114.4,75.4,120.9z"/>
				<path class="st48" d="M78,118.3c0,0,75.1,64.6,89.2,73.3c6.3,1.4,12.5,3.4,18.4,6.1c10,4.5,41.3,20.6,60.6,36.3
					c0,0,4.7,17.6-27,14.4c0,0-8.5,3.5-54.9-36.2c0,0-1.9-2.7-11.2-13.6s-86.3-69.2-86.3-69.2S61.2,111.8,78,118.3z"/>
				<path class="st49" d="M-27.8,41c0,0,58.5,40.6,64.5,50.5c-4.3,10.9-2.8,23.2,3.9,32.7c0,0,6.7,23.1,16.8,18.1
					c0,0,5.6,12.7,13.5,5.8c0,0,1.7,8.6,10.4,9.2s7.7-11.6,7.7-11.6l0.3-23.1l2.6-5.9c0,0,10.7,22.8,16.5,35.2s10.2,15.9,16.7,11.7
					c0,0,1.5,0.1-3.9-17.8s-11.6-34-14.8-47.6s-6.8-10-20.8-23.8S47.5,36.9,14.6,16.6"/>
				<path class="st49" d="M71,148.1c-0.9-9.5-1.1-19-0.4-28.5"/>
				<path class="st49" d="M58.1,144.1c0,0-3.4-6.8-2.5-22"/>
				<path class="st50" d="M122.8,151.4c0,0-5.2-5.2-7.1,2c0,0,0.8,8,4.5,10.1c0,0,5.2,2.9,5.3-1.2L122.8,151.4z"/>
				<path class="st30" d="M211.3,225.1c0,0-8.7-3.1-9.2,4.1s11.8-5.6,9.8,15.4s5.6,29.8,7.7,8.7c0,0,2.6-9.2,4.6-1s6.2-2,6.2-2
					s13.9,0.5-3.6-13.4S226.2,217.4,211.3,225.1z"/>
				<path class="st49" d="M368-18.4c0,0-18.6,68.6-27.1,89.7s-21,19.5-31.4,55.8l20.4-5.7l-0.6-1l-2.8-2.4c0,0,8.2,4.9,12.2,17.7
					s3.4,28.4,3.4,28.4l-8.4,13c-1.6,2.3-1.6,5.4-0.1,7.7c1.1,1.6,3,3,6.3,3.1c4.4,0.2,8.6-1.6,11.5-4.9c0.4-0.4,0.7-0.8,1-1.2
					c0,0-2.7,8.9,9.5,7.3c0,0,4.3-0.6,7-6.4c0,0,0.3,6.4,8.8,5.5c0,0,4.6-0.3,9.1-8.2c0,0,6.7,6.1,14-6.7s5.8-17.4,5.8-17.4
					s1.8-18.6-12.5-68.9c0,0-4.3-5.5,3.7-28s43.3-77.2,43.3-77.2L368-18.4z"/>
				<path class="st51" d="M349.5,184.4c0,0,6.9-6.1,9.2-19.7v-34.3c0,0,3.1,25.1,1.9,35.7c0,0-0.3,7.2-8,19.8c0,0-1.3-0.9-0.1-4.3
					L349.5,184.4z"/>
				<path class="st51" d="M367.1,185.2c0,0,7.8-13.4,8.1-17.6c0.5-6.1-1.5-37-1.5-37s3.1,31.2,3.4,37.3s-7.6,16.9-7.6,16.9l-0.6-2.3
					L367.1,185.2z"/>
				<path class="st51" d="M385,182.6c0,0,6.8-9.2,6.8-17.9s-1.8-35.3-1.8-35.3s3,27.8,2.9,35.6s-4.5,15.5-4.5,15.5l-1.2-0.6
					L385,182.6z"/>
			</g>
		</g>
	</g>
</g>
<path class="st52" d="M167.8,38.5c0.7,0.4,0.2,0.1-0.3-0.3c-0.5-0.4-1-0.8-1.6-1c-0.9-0.4-1.8-0.8-2.8-1.1c-2.2-0.4-4.5-0.7-6.8-0.7
	c-5.2-0.3-9.9,2-14.4,4.7c-4,2.5-7.5,5.7-10.4,9.4c-1.7,2.2-3,4.7-3.8,7.3c-0.4,1.2-0.7,2.4-0.7,3.6c0.1,1.1,0.3,2.1,0.5,3.2
	c0,1.4,1.1,2.6,2.5,2.6c0.5,0,0.9-0.1,1.3-0.3c0.6-0.3,2-0.4,2.8-0.8c0.8-0.4,1.5-0.8,2.2-1.3c0.4-0.3,3.5-2.7,1.2-1.3
	c1.5-0.8,2.9-1.8,4.2-2.9c1.1-1,2.3-1.9,3.6-2.7c1.6-1,3.1-2.1,4.7-3c3.7-2.3,5.9-2.8,9.6-5.4c2.3-1.7,6.3-2.8,8.1-5.4
	c1.3-0.9,1.6-2.6,0.7-3.9C168.4,38.9,168.1,38.7,167.8,38.5z"/>
<path class="st53" d="M288.8,386c5.6,1.8,11.9,1.6,17.7,1.5c2.9-0.1,5.9-0.3,8.8-0.8c3-0.4,6.4-0.9,9-2.2c1.8-0.9,2.5-3,1.7-4.8
	c-0.5-1.1-1.5-1.8-2.7-2c-2.8-0.4-5.6-0.5-8.4-0.3c-2.9,0-5.8,0.1-8.6,0.4L288.8,386z"/>
<path class="st53" d="M360.5,364.3c-0.1-0.2-0.3-0.4-0.4-0.5c-1-0.7-2.2-1-3.4-0.7c-4.3,0.8-7,3.3-10.3,5.6c-2.5,1.8-5.9,2.6-8.7,4
	c-3.3,1.5-6.5,3.3-7.5,6.6c-0.4,1.2,0,2.6,1,3.4c2.9,2.5,6.9,2.4,10.6,1.6c3.5-0.7,6.9-2,10.1-3.6c5.4-3,11.2-9.6,9-15.6
	C360.7,364.8,360.6,364.6,360.5,364.3z"/>
</svg>
