<?xml version="1.0" encoding="utf-8"?>
<!-- Generator: Adobe Illustrator 25.2.3, SVG Export Plug-In . SVG Version: 6.00 Build 0)  -->
<svg version="1.1" id="Layer_1" xmlns="http://www.w3.org/2000/svg" xmlns:xlink="http://www.w3.org/1999/xlink" x="0px" y="0px"
	 viewBox="0 0 490 425" style="enable-background:new 0 0 490 425;" xml:space="preserve">
<style type="text/css">
	.st0{fill:#78EFE9;}
	.st1{fill:#0072AB;}
	.st2{fill:#74879E;}
	.st3{clip-path:url(#SVGID_2_);}
	.st4{fill:url(#SVGID_3_);}
	.st5{opacity:0.36;fill:none;stroke:#FEFFEB;stroke-miterlimit:10;enable-background:new    ;}
	.st6{fill:url(#SVGID_4_);}
	.st7{fill:url(#SVGID_5_);}
	.st8{fill:url(#SVGID_6_);}
	.st9{fill:url(#SVGID_7_);}
	.st10{fill:url(#SVGID_8_);}
	.st11{opacity:0.43;}
	.st12{fill:none;stroke:#FEFFEB;stroke-width:0.5;stroke-miterlimit:10;}
	.st13{fill:#A6E6F7;}
	.st14{fill:#71CAF2;}
	.st15{fill:#2C8284;}
	.st16{opacity:0.4;fill:#353535;enable-background:new    ;}
	.st17{fill:#54A3B7;}
	.st18{fill:#DF6B97;}
	.st19{fill:#ECA8C2;}
	.st20{opacity:0.5;fill:#DF6B97;enable-background:new    ;}
	.st21{opacity:0.7;fill:#DF6B97;enable-background:new    ;}
	.st22{fill:#471025;}
	.st23{fill:#E9EAE5;}
	.st24{fill:#4D8184;}
	.st25{fill:#426E72;}
	.st26{fill:#99AAA9;}
	.st27{fill:#C0C1BC;}
	.st28{fill:#A4A5A0;}
	.st29{fill:#CACCC0;}
	.st30{fill:#93D839;}
	.st31{fill:#73AD0E;}
	.st32{fill:none;stroke:#913D2A;stroke-width:0.25;stroke-miterlimit:10;}
	.st33{fill:#F9D1C6;}
	.st34{opacity:0.5;}
	.st35{fill:#2C5591;}
	.st36{fill:none;stroke:#0E3266;stroke-width:0.5;stroke-miterlimit:10;}
	.st37{fill:#4776C2;}
	.st38{fill:#5789D3;}
	.st39{fill:#F7BEB0;}
	.st40{fill:#913D2A;}
	.st41{fill:#F9D1C6;stroke:#CE8F89;stroke-width:0.5;stroke-miterlimit:10;}
	.st42{fill:#342517;}
	.st43{fill:#422F1F;}
	.st44{fill:#CE8F89;}
	.st45{fill:#EAEDF9;}
	.st46{fill:none;stroke:#035353;stroke-width:0.25;stroke-miterlimit:10;}
	.st47{fill:#2D2B21;}
	.st48{fill:url(#SVGID_9_);}
	.st49{opacity:0.6;fill:url(#SVGID_10_);enable-background:new    ;}
	.st50{fill:#C23945;}
	.st51{fill:#B5F7F5;}
	.st52{fill:#84C918;}
	.st53{opacity:0.3;enable-background:new    ;}
	.st54{fill:#D6D621;}
	.st55{fill:#BFBB17;}
	.st56{fill:#B2AA14;}
	.st57{fill:#CCC71D;}
	.st58{opacity:0.53;fill:#FFFFFF;enable-background:new    ;}
	.st59{opacity:0.33;fill:#FFFFFF;enable-background:new    ;}
	.st60{opacity:0.15;fill:#FFFFFF;enable-background:new    ;}
</style>
<polygon class="st0" points="359.8,13.6 130.2,13.6 15.3,212.5 130.2,411.4 359.8,411.4 474.7,212.5 "/>
<polygon class="st1" points="353.3,24.9 136.7,24.9 28.3,212.5 136.7,400.1 353.3,400.1 461.7,212.5 "/>
<polygon class="st2" points="351.5,28 138.5,28 32,212.5 138.5,397 351.5,397 458,212.5 "/>
<g>
	<defs>
		<polygon id="SVGID_1_" points="351.5,28 138.5,28 32,212.5 138.5,397 351.5,397 458,212.5 		"/>
	</defs>
	<clipPath id="SVGID_2_">
		<use xlink:href="#SVGID_1_"  style="overflow:visible;"/>
	</clipPath>
	<g class="st3">
		
			<linearGradient id="SVGID_3_" gradientUnits="userSpaceOnUse" x1="564.0423" y1="626.6692" x2="355.0823" y2="16.8292" gradientTransform="matrix(1 0 0 -1 0 426)">
			<stop  offset="0" style="stop-color:#72EDED"/>
			<stop  offset="0.23" style="stop-color:#6FE9EA"/>
			<stop  offset="0.45" style="stop-color:#67DDE3"/>
			<stop  offset="0.68" style="stop-color:#58C9D6"/>
			<stop  offset="0.9" style="stop-color:#45ADC4"/>
			<stop  offset="0.99" style="stop-color:#3CA1BC"/>
		</linearGradient>
		<path class="st4" d="M226.9-37.1c0.4,134.2,0.9,268.5,1.3,402.7l421.7,3.7V-35.3L226.9-37.1z"/>
		<line class="st5" x1="245.8" y1="337.7" x2="699" y2="339.1"/>
		
			<linearGradient id="SVGID_4_" gradientUnits="userSpaceOnUse" x1="-540.5881" y1="520.5941" x2="242.692" y2="153.5741" gradientTransform="matrix(1 0 0 -1 0 426)">
			<stop  offset="0.38" style="stop-color:#41AFB5"/>
			<stop  offset="0.76" style="stop-color:#3EABB6"/>
			<stop  offset="0.99" style="stop-color:#39A5B7"/>
		</linearGradient>
		<path class="st6" d="M242.4-45.5l-345.1-93.6l-6.7,564.4l354-60.9L242.4-45.5z"/>
		
			<linearGradient id="SVGID_5_" gradientUnits="userSpaceOnUse" x1="-413.609" y1="506.3462" x2="257.351" y2="399.8662" gradientTransform="matrix(1 0 0 -1 0 426)">
			<stop  offset="0.13" style="stop-color:#41B5C4"/>
			<stop  offset="0.48" style="stop-color:#40B1C2"/>
			<stop  offset="0.81" style="stop-color:#3DA5BE"/>
			<stop  offset="0.99" style="stop-color:#3A9CBA"/>
		</linearGradient>
		<path class="st7" d="M-146.1-145.7l385.8,78.1c-0.2,74,3.8,125.3,3.6,199.3C114.9,31.6-17.6-45.6-146.1-145.7z"/>
		
			<linearGradient id="SVGID_6_" gradientUnits="userSpaceOnUse" x1="644.4971" y1="476.7389" x2="221.6562" y2="370.4087" gradientTransform="matrix(1 0 0 -1 0 426)">
			<stop  offset="2.000000e-02" style="stop-color:#72EDED"/>
			<stop  offset="0.26" style="stop-color:#6FE9EC"/>
			<stop  offset="0.5" style="stop-color:#67DDE7"/>
			<stop  offset="0.74" style="stop-color:#59C9E0"/>
			<stop  offset="0.98" style="stop-color:#45ADD6"/>
			<stop  offset="0.99" style="stop-color:#45ADD6"/>
		</linearGradient>
		<polyline class="st8" points="649.8,-29.9 238.8,-29.7 240.8,131.7 646,-29.7 		"/>
		
			<linearGradient id="SVGID_7_" gradientUnits="userSpaceOnUse" x1="614.5392" y1="102.3331" x2="194.8092" y2="-3.2169" gradientTransform="matrix(1 0 0 -1 0 426)">
			<stop  offset="2.000000e-02" style="stop-color:#E9EAE5"/>
			<stop  offset="0.12" style="stop-color:#E0E4E0"/>
			<stop  offset="0.44" style="stop-color:#C7D4D1"/>
			<stop  offset="0.74" style="stop-color:#B8C9C8"/>
			<stop  offset="0.98" style="stop-color:#B3C6C5"/>
		</linearGradient>
		<polygon class="st9" points="626.7,343.8 245.8,337.7 -146.5,421.2 626.7,414.4 		"/>
		
			<linearGradient id="SVGID_8_" gradientUnits="userSpaceOnUse" x1="-116.71" y1="45.2756" x2="1177.75" y2="45.2756" gradientTransform="matrix(1 0 0 -1 0 426)">
			<stop  offset="0" style="stop-color:#6F929B"/>
			<stop  offset="0.14" style="stop-color:#7D96A5"/>
			<stop  offset="0.48" style="stop-color:#999EB9"/>
			<stop  offset="0.77" style="stop-color:#ABA2C5"/>
			<stop  offset="0.99" style="stop-color:#B1A4C9"/>
		</linearGradient>
		<path class="st10" d="M245.8,337.7c91.5,23.8,184.3,42.8,277.8,56.7c207.2,30.8,417.3,37.4,626,19.7l-1294.5,6.9L245.8,337.7z"/>
		<g class="st11">
			<polyline class="st12" points="-151,42 241.9,52.1 630,52.1 			"/>
			<polyline class="st12" points="-147.4,157.8 -147.4,172.5 236.6,143.5 648.1,143.3 			"/>
			<polyline class="st12" points="-144.9,298.5 248,240.5 672.7,240.5 			"/>
			<polyline class="st12" points="360.1,-239.8 360.1,333.4 39.7,467.5 			"/>
			<polyline class="st12" points="506.5,-239.8 500.8,337.9 303.7,487 			"/>
			<line class="st12" x1="129.9" y1="-76" x2="138" y2="360.6"/>
			<line class="st12" x1="24.8" y1="-52" x2="30.4" y2="380"/>
		</g>
		<path class="st13" d="M220.3,360.1c11.5-6.4,47.6-9,62.6-9s42.6,1.4,43.8,4.5s-9.5,5.6-8.5,8s31.7-0.5,34.5,6.4
			s-22.4,11.3-29.3,11.6s3.2,7.5,0.2,10.7s-22.4,1.3-29.1,3s-23.4,5.6-30.5,2.2s-17.2-5.1-32.5-2.9s-52.7-0.8-53.7-5.1
			s11.9-4.5,9.5-8.1s-29.1-1.9-27.6-7.2S211.4,362,220.3,360.1z"/>
		<path class="st14" d="M323.4,381.6c6.9-0.3,32.1-4.8,29.3-11.6s-33.5-4-34.5-6.4s9.7-5,8.5-8c-0.5-1.2-5-2.1-11.2-2.8
			c1.9,0.5,2.9,2,2.3,3.5l-0.1,0.2c-0.9,2.1-4.5,2.8-6.3,4.6c-1.2,1.6-0.6,3.7,1.4,4.6c0.3,0.1,0.5,0.2,0.8,0.3
			c8.1,2.8,30.7,1.2,26,6.4c-7.6,4.6-18.4,3.2-26.9,7.1c-0.4,0.6-0.4,1.5,0,2.1c1.8,2.5,5.8,5,4,7.8c-0.9,1.4-4,1.8-5.8,1.8
			c-9.9,0.7-16.5-1.1-30.6,3.4c-4.2,1.1-8.5,1.4-12.8,0.6c-2.6-1.2-5.2-2.2-7.9-3c-8.6-4-39,2.9-67.5-1.6c-6-1.6-4.9-3.3-4-4.7
			c1.8-2.1,6.7-4.3,4.5-6c-8.9-6-23.1,0.3-32.9-5.5c-1.1,5.2,25.3,3.5,27.7,7.1s-10.5,3.8-9.5,8.1s38.4,7.3,53.7,5.1
			s25.4-0.5,32.5,2.9s23.8-0.5,30.5-2.2s26,0.2,29.1-3S316.5,381.9,323.4,381.6z"/>
		<path class="st15" d="M272,399.1c-2.8,0.1-5.5-0.3-8.1-1.4c-6.1-2.7-12.8-4-19.5-3.8c-4.3,0-8.5,0.4-12.7,1
			c-4.5,0.6-9.1,0.8-13.6,0.8c-15.9,0-39.6-2.4-40.4-6.1c-0.6-2.4,2.7-3.5,5.5-4.6c2-0.7,3.8-1.4,4.2-2.4c0.1-0.4,0.1-0.8-0.2-1.1
			c-1-1.5-7-2.1-12.7-2.6c-6.3-0.6-12.8-1.2-14.5-3.1c-0.4-0.4-0.6-1-0.4-1.5c1-3.9,26.2-8.5,49.6-12.4c5.1-0.9,9.1-1.5,11.1-2
			c11.3-6.3,47-9,62.7-9c11.3,0,42.7,1.1,44.1,4.6c0.7,1.8-2,3.3-4.7,4.7c-2.1,1.1-4.2,2.3-3.8,3.3c0.3,0.7,5.3,0.9,10.2,1.1
			c9.5,0.3,22.5,0.8,24.3,5.3c0.5,1.2,0.2,2.5-0.7,3.4c-4.5,5.3-23.4,8.3-28.8,8.5c-1,0-1.7,0.3-2,0.6c-0.6,0.8,0.3,2.3,1.3,3.9
			c1.2,2.1,2.6,4.5,1.1,6c-1.9,2-8.9,2.1-16.4,2.2c-4.3-0.1-8.6,0.2-12.9,0.9C287.2,397.6,279.6,398.8,272,399.1z M244.3,393.5
			c6.8-0.2,13.6,1.1,19.9,3.9c2.5,1,5.2,1.4,7.8,1.3c7.6-0.3,15.1-1.5,22.4-3.5c4.3-0.7,8.6-1,13-0.9c7-0.1,14.2-0.3,15.9-2
			c1.3-1.3,0-3.6-1.2-5.6c-1.1-1.8-2-3.4-1.2-4.4c0.7-0.6,1.5-0.9,2.5-0.9c6.4-0.3,24.2-3.6,28.3-8.3c0.8-0.8,1.1-2,0.7-3
			c-1.7-4.2-14.5-4.6-23.8-5c-6.8-0.3-10.3-0.4-10.7-1.4c-0.5-1.3,1.7-2.5,4-3.8s5-2.8,4.5-4.2c-1-2.6-26.5-4.3-43.5-4.3
			c-15.7,0-51.2,2.7-62.4,8.9h-0.1c-2,0.4-6,1.1-11.2,2c-16.8,2.8-48.1,8.1-49.1,12c-0.1,0.4,0,0.9,0.3,1.2c1.6,1.7,8,2.4,14.1,3
			s12,1.1,13.2,2.9c0.3,0.4,0.4,1,0.2,1.5c-0.5,1.1-2.4,1.9-4.5,2.6c-2.8,1-5.6,2.1-5.1,4.1c0.7,3.1,22.5,5.7,39.8,5.7
			c4.5,0.1,9-0.2,13.5-0.8C235.7,393.8,240,393.5,244.3,393.5L244.3,393.5z"/>
		<path class="st13" d="M174.5,391c2.5,3.3-13.3,7.3-17.8,3.7S170.3,385.4,174.5,391z"/>
		<path class="st14" d="M174.5,391c-0.8-0.9-1.8-1.6-3-1.9c0.3,0.5,0.3,1,0.1,1.5c-3.6,3.3-9.5,4.2-14.3,2.1
			c-0.3-0.1-0.5-0.2-0.7-0.5c-0.6,0.6-0.7,1.5-0.1,2.1c0.1,0.1,0.2,0.2,0.3,0.3C161.2,398.4,177,394.3,174.5,391z"/>
		<path class="st15" d="M162.5,396.4c-2.1,0.2-4.2-0.4-6-1.5c-0.8-0.5-1-1.5-0.6-2.2c1.2-2.2,6.9-4.2,11.9-4.2
			c2.6-0.2,5.1,0.7,6.9,2.5c0.4,0.5,0.4,1.2,0,1.8C173.4,394.6,167.5,396.4,162.5,396.4z M167.9,388.9c-4.7,0-10.2,1.9-11.3,3.9
			c-0.3,0.6-0.1,1.4,0.4,1.7c1.7,1,3.6,1.5,5.6,1.4c4.2,0.2,8.3-1,11.7-3.5c0.3-0.4,0.3-0.9,0-1.3
			C172.5,389.5,170.2,388.7,167.9,388.9L167.9,388.9z"/>
		<path class="st13" d="M348,389.8c0.7,2.8,23,1.3,21.2-2.2S347.2,386.5,348,389.8z"/>
		<path class="st14" d="M369.2,387.6c-0.5-0.9-2.2-1.4-4.5-1.6c-2.6,4.7-14.9,4.2-16.3,3.4c-0.1,0-0.2,0-0.3,0c0,0.2,0,0.3,0,0.5
			C348.7,392.6,371,391.1,369.2,387.6z"/>
		<path class="st15" d="M355,391.5L355,391.5c-2.6,0-6.9-0.2-7.3-1.7c-0.1-0.5,0.1-0.9,0.5-1.2c1.9-1.8,8.8-3,14.1-3
			c2.3,0,6.4,0.3,7.2,1.9c0.2,0.4,0.1,0.9-0.2,1.2C367.8,390.5,360.7,391.5,355,391.5z M362.3,386.1c-5.7,0-12,1.3-13.6,2.8
			c-0.3,0.2-0.4,0.5-0.4,0.8c0.2,0.8,2.8,1.3,6.7,1.3c5.6,0,12.5-1,13.8-2.6c0.2-0.2,0.3-0.5,0.1-0.8
			C368.4,386.7,366,386.1,362.3,386.1L362.3,386.1z"/>
		<ellipse class="st16" cx="140.1" cy="377.4" rx="24.8" ry="5.6"/>
		<path class="st13" d="M244.6,340.6c7.1-2.2,10.1,12.8,0,12.6c7.3,7.1-5.4,10.2-9.9,5.1c-1.1,3.3-5.4,5.1-9.5,4.3
			c-2.5-0.4-4.5-2.1-5.4-4.4c-0.9,3-4.7,4.8-8.5,4c-3.4-0.7-5.6-3.2-5.3-5.9c-7.5,8.1-29.7,2.3-7.5-4.7c-6.7-3-2.8-12,7.3-8.3
			c-8.5-9.1,6.6-13.4,14.2-7.4c0.7-2.5,3.2-3.9,5.7-3.2c1.5,0.4,2.6,1.5,3.1,2.9C230.6,329.3,245,332.5,244.6,340.6z"/>
		<path class="st14" d="M247.4,340.6c2,3,3.8,6.8-0.5,8.9c-2.8,0.8-5.7,0.9-8.5,0.4c2.2,1.8,4,4.6,2.2,6c-3.1,2.8-6.3-1.8-8.5-4.3
			c0.9,2.8-0.9,6.4-5.4,5.7s-4-4.3-5.4-6.7c-1.4,1.4-1.8,3.9-3.6,4.3c-2,0.8-4.2,0.2-5.5-1.5c-0.4-0.6-0.5-1.4-0.3-2.1
			c-2.2,2.5-6.7,5-10.3,3.5c-4-1.4,0.9-5,3.6-5.3c-2.7-1.1-6.7,0-7.6-2.8c-0.5-0.9-0.7-1.9-0.6-3c-1.9,1.4-2.3,4.1-0.9,6
			c0.3,0.4,0.7,0.8,1.1,1c0.4,0.3,0.9,0.6,1.4,0.8c-22.2,7,0,12.8,7.5,4.7c-0.4,3,2.4,5.8,6.2,6.1c3.5,0.3,6.6-1.5,7.5-4.1
			c1,3.3,5.2,5.3,9.4,4.5c2.5-0.4,4.6-2,5.6-4.3c4.4,5.1,17.1,2.1,9.9-5.1C253.2,353.4,252.2,342.4,247.4,340.6z"/>
		<path class="st17" d="M227.4,363c-3.4,0.1-6.5-1.6-7.7-4.1c-1.5,2.4-4.1,3.7-6.9,3.6l0,0c-3.9,0-7.1-2.4-7.1-5.5V357
			c-2.9,2.4-6.6,3.6-10.3,3.5c-3.6,0-6.3-1-6.7-2.6c-0.3-1.2,0.6-3.5,9.2-6.3c-2.4-1.3-3.5-3.5-2.7-5.7s3.3-3.7,6.2-3.6
			c1.2,0,2.5,0.2,3.6,0.6c-2.3-1.6-2.8-4.7-1.2-7c0.4-0.5,0.8-1,1.3-1.3c1.8-1.3,4.1-1.9,6.3-1.6c3,0,6,0.9,8.4,2.6
			c0.7-1.9,2.5-3.2,4.5-3.2c1.8,0,3.5,1,4.4,2.5c1.2-2,3.4-3.1,5.7-2.8c2.7,0,5.4,1,7.5,2.6c1.8,1.3,2.8,3.4,2.8,5.6
			c0.4-0.1,0.7-0.1,1.1-0.1c3.3,0,5.4,3.6,5.4,6.9c0.2,3.4-2.4,6.2-5.7,6.4c-0.1,0-0.3,0-0.4,0c1.6,1.2,2.3,3.4,1.5,5.3
			c-1.4,1.7-3.5,2.5-5.6,2.3l0,0c-2.3,0.1-4.5-0.7-6.2-2.3C233.8,361.4,230.8,363.1,227.4,363L227.4,363z M219.8,357.2l0.2,0.9
			c0.8,2.7,3.9,4.5,7.3,4.5l0,0c3.3,0.1,6.3-1.7,7-4.3l0.2-0.5l0.4,0.4c1.6,1.6,3.8,2.5,6.1,2.4l0,0c1.9,0.2,3.8-0.6,5.1-2.1
			c0.7-1.9,0-4.1-1.8-5.2l-0.4-0.4h0.8c4.4,0,6-3.1,6-6c0-3.1-1.9-6.4-4.8-6.4c-0.4,0-0.9,0.1-1.3,0.2l-0.4,0.1v-0.4
			c0.1-2.2-0.9-4.3-2.7-5.6c-2-1.6-4.5-2.5-7.1-2.5c-2.6-0.2-4.9,1.2-5.4,3.2l-0.3,1l-0.3-1c-0.8-2.2-3.2-3.5-5.5-2.7
			c-1.4,0.5-2.4,1.6-2.8,3l-0.1,0.4l-0.4-0.3c-2.4-1.8-5.3-2.8-8.4-2.8c-2.7-0.2-5.4,0.8-7.2,2.9c-1.1,2.4-0.3,5.3,1.9,6.9l0.7,0.7
			l-1.1-0.4c-1.4-0.5-2.9-0.8-4.4-0.9c-2.6-0.1-5,1.3-5.6,3.3s0.5,4.4,3,5.4l0.6,0.3l-0.6,0.2c-9.1,2.9-9.6,5.1-9.4,6
			c0.3,1.3,2.8,2.2,6.1,2.2c3.8,0.2,7.6-1.2,10.4-3.9l0.6-0.7l-0.1,0.8c-0.2,1.6,0.5,3.2,1.7,4.2c1.4,1.1,3.1,1.7,4.8,1.6l0,0
			c3.1,0,5.8-1.7,6.6-4L219.8,357.2z"/>
		<path class="st18" d="M198,265.5c-2.9-3.2-27.2-5-58-5c-32.8,0-58,2.5-58,6l0,0c0,4.1,1.2,7.6,5,10l0,0c1.1,2.2,1.7,4.6,2,7
			c0.2,2.8,0.7,8.2,1,11c0.8,6.6,1.4,11.4,2,18c1.1,13.1,1,24.8,2,38c0.7,9.2,1.8,18.2,10.3,23.3c5.5,3.3,11.2,3.3,17.7,3.7
			c1.5,0.2,4.6-0.2,6,0c6.1,0.8,28,0,34,0l0,0c4.9-0.8,9.7-2.5,14-5c8.5-5.1,9.3-12.8,10-22c1-13.1,1.9-25.9,3-39
			c0.6-6.6,1.3-12.4,2-19c0.3-2.8,0.8-7.2,1-10c0.2-2.1,0.9-4.2,2-6c0.7-0.3,1.4-0.6,2-1c2-2,2.9-5.2,3-9
			C199,266.2,198.3,265.5,198,265.5z"/>
		<path class="st18" d="M197.4,265.5c0,0.5-0.9,1-2.6,1.6c-7.3,2.1-28.8,3.6-54.3,3.6c-24.8,0-45.8-1.4-53.6-3.4
			c-2.1-0.5-3.2-1.1-3.2-1.7c0-2.9,25.5-5.1,56.9-5.1S197.4,262.6,197.4,265.5z"/>
		<path class="st13" d="M194.7,267c-7.3,2.1-28.8,3.6-54.3,3.6c-24.8,0-45.8-1.4-53.6-3.4c7.3-2.1,28.8-3.6,54.2-3.6
			C165.9,263.6,187,265,194.7,267z"/>
		<path class="st19" d="M191,285.6c-0.8,6.2-1.4,12.4-2,18.6c-1.1,13-2.5,26-3.7,39c-0.8,8.2,0.1,18.2-5.6,24.9
			c-3.6,4.2-10.8,7.3-16.1,8.1c-3.4,0.5-6.8,0.7-10.2,0.7c-12.7,0.2-26,1.5-38.4-1.7c-3.2-0.8-6.3-2-9.2-3.6
			c-10.2-5.7-9.2-18.4-10.1-28.5c-1.2-13-2.6-26-3.7-39c-0.5-6.2-1.1-12.5-2-18.6c-0.4-2.6-0.4-5.5-1.6-7.8c4.2,1.9,9,2.5,13.6,3.1
			c13.3,1.6,26.8,2.4,40.2,2.2c12.9,0,25.8-1,38.6-3.1c3.1-0.6,6.1-1.3,9.1-2c1-0.3,2.1-0.5,3.1-0.8
			C191.4,279.4,191.4,282.6,191,285.6z"/>
		<path class="st18" d="M191,285.6c-0.8,6.2-1.4,12.4-2,18.6c-1.1,13-2.5,26-3.7,39c-0.8,8.2,0.1,18.2-5.6,24.9
			c-3.6,4.2-10.8,7.3-16.1,8.1c-3.4,0.5-6.8,0.7-10.2,0.7c-12.7,0.2-26,1.5-38.4-1.7c-3.2-0.8-6.3-2-9.2-3.6
			c-10.2-5.7-9.2-18.4-10.1-28.5c-1.2-13-2.6-26-3.7-39c-0.5-6.2-1.1-12.5-2-18.6c-0.4-2.6-0.4-5.5-1.6-7.8c4.2,1.9,9,2.5,13.6,3.1
			c13.3,1.6,26.8,2.4,40.2,2.2c12.9,0,25.8-1,38.6-3.1c3.1-0.6,6.1-1.3,9.1-2c1-0.3,2.1-0.5,3.1-0.8
			C191.4,279.4,191.4,282.6,191,285.6z"/>
		<path class="st19" d="M122.6,367.8c-1.1-10.9-1.7-21.8-1.7-32.7c0-11.5,0.2-22.9,0-34.4c-0.1-5.7-0.3-11.5-0.4-17.2
			c0-0.4,0-0.7,0-1c-3.2-0.2-6.4-0.4-9.6-0.7c0.6,17.7,0.9,35.4,1.8,53.1c0.7,13.6,2.1,27.1,3.1,40.7c2.6,0.6,5.2,1.1,7.8,1.3
			C123.3,373.8,122.9,370.8,122.6,367.8z"/>
		<path class="st20" d="M189.9,277.8c-3,0.8-6.1,1.5-9.1,2c-1.4,0.2-2.7,0.5-4.1,0.7c-0.5,16.2-2.1,32.3-3.1,48.4
			c-0.6,9.3-1.2,18.7-2,28c-0.3,2.8-0.6,5.6-0.8,8.4l-0.3,3.5c-0.1,1,0.1,2.4-0.2,0.8c0,0.8,0,1.6-0.1,2.4c0,0.2-0.1,0.5-0.1,0.7
			c-0.2,0.8-0.6,1.5-1,2.1c4.1-1.5,8.2-3.8,10.6-6.7c5.7-6.7,4.9-16.8,5.6-24.9c1.2-13,2.6-26,3.7-39c0.5-6.2,1.1-12.5,2-18.6
			c0.4-3,0.4-6.2,2-8.6C192,277.3,190.9,277.5,189.9,277.8z"/>
		<path class="st19" d="M194.7,274.8c-2.2,0.9-4.5,1.5-6.8,2c-5.3,1.4-10.7,2.4-16.1,3.1c-11.2,1.3-22.4,1.8-33.6,1.5
			c-11.1-0.1-22.2-0.8-33.3-2.1c-5.2-0.6-10.6-1.3-15.5-3.4c-3.7-1.6-5.8-4.8-6.7-8.5c6.3,2.8,29.8,4.9,57.7,4.9
			c28.3,0,52-2.1,57.9-5C198.2,270.2,197.6,273.5,194.7,274.8z"/>
		<path class="st20" d="M194.7,274.8c-2.2,0.9-4.5,1.5-6.8,2c-5.3,1.4-10.7,2.4-16.1,3.1c-11.2,1.3-22.4,1.8-33.6,1.5
			c-11.1-0.1-22.2-0.8-33.3-2.1c-5.2-0.6-10.6-1.3-15.5-3.4c-3.7-1.6-5.8-4.8-6.7-8.5c6.3,2.8,29.8,4.9,57.7,4.9
			c28.3,0,52-2.1,57.9-5C198.2,270.2,197.6,273.5,194.7,274.8z"/>
		<path class="st18" d="M139.4,278.5c-10.3,0-27-1.1-37.3-2.3c-6.5-0.8-13.8-2.1-18.7-6.6c1.1,2.8,3.2,5.1,6,6.3
			c4.9,2.1,10.3,2.8,15.5,3.4c11,1.3,22.1,2,33.3,2.1c11.2,0.3,22.5-0.2,33.6-1.5c5.4-0.7,10.8-1.7,16.1-3.1c2.3-0.5,4.6-1.1,6.8-2
			c1.7-0.9,2.8-2.5,3.2-4.3C193,277,153.3,278.6,139.4,278.5z"/>
		<path class="st18" d="M90.4,288.4c1-3.5,0.2-6,4.2-6.1c10.8-0.3,19.8,2.3,30.6,2.7c5.8,0.2,21.1,0.8,26.9,0.3
			c8.2-0.7,18.4-2.6,23.5-3.4c9.2-1.4,14-6.1,13.6,8.2c-0.1,2.6,0.1,5.3,0.4,7.9c0.4-4.1,0.8-8.3,1.4-12.4c0.4-3,0.4-6.2,2-8.6
			c-1,0.3-2.1,0.5-3.1,0.8c-3,0.8-6.1,1.5-9.1,2c-12.7,2.2-25.6,3.2-38.5,3.2c-13.4,0.2-26.9-0.6-40.2-2.2
			c-4.6-0.6-9.3-1.2-13.6-3.1c1.2,2.3,1.2,5.2,1.6,7.8C90.2,286.5,90.3,287.4,90.4,288.4z"/>
		<path class="st21" d="M182,355.8c-1.1,2.7-2.7,5.1-4.8,7.1c-4.7,4-12.2,6-19.4,6.8c-13.1,1.5-38.2,2.1-50-4.1
			c-6.1-3.2-7.2-6.5-9.2-14.6c-0.8-3.1-1.7-7.2-3.2-10l0.2,2.2c0.9,10.1-0.1,22.8,10.1,28.5c2.9,1.6,6,2.8,9.2,3.6
			c12.4,3.2,25.7,1.9,38.4,1.7c3.4,0,6.8-0.2,10.2-0.7c5.3-0.9,12.6-3.9,16.1-8.1c5.6-6.5,4.9-16.3,5.6-24.3
			C185.1,346,184.7,348.6,182,355.8z"/>
		<path class="st22" d="M186.5,274.8c0-0.1,0-0.1,0-0.2c0.2-0.7,0.1-1.4-0.4-2c-0.2-0.4-0.6-0.7-1-0.9c-1.1-0.3-2.2,0-3.1,0.7
			c-1,0.6-1.6,1.8-1.6,3c0.1,0.4,0.3,0.8,0.6,1.1c0.3,0.5,0.7,0.8,1.3,0.9c-1,2.2-2.2,4.4-3.7,6.3c-1.9,2.9-3.7,5.9-5.7,8.7
			c-4,5.8-8.6,11.1-13.6,16c-10.5,10.2-22.8,18.3-36.3,23.8c-9.3,3.7-20.9,6.2-30.5,2.2c-4.8-2-7.1-6.1-7.5-11.2
			c-0.1-3.8,0.3-7.6,1.3-11.2c0.9-3.8,2-7.9,4-11.3c0.4-0.6-0.4-0.8-0.7-0.3c-4.3,5.5-6.8,13.8-7.3,20.7c-0.4,5.7,0.8,11.1,5.8,14.5
			c9.1,6.2,22.4,3.4,32,0.2c15.2-5.1,29.1-14.9,40.7-25.9c5.8-5.6,10.9-11.8,15.3-18.5c2.8-4.2,6.7-9.2,8.3-14.4
			c0.9-0.4,1.6-1.1,2-2v0V275C186.4,274.9,186.4,274.9,186.5,274.8z"/>
		<path class="st23" d="M129,188l2-2.3c0,0-4.4-8.4-5.3-11.1s15.5-1.7,16-1.7s2.2,1.1,0.7,4.3c-1.1,4.3-1.8,8.9-1.8,8.9l1.4,1
			c0,0-5.4,3.3,0.1,9.3c-6.3,6-10.9,1.2-11.6,0.2S127.6,193.3,129,188z"/>
		<ellipse class="st24" cx="116.9" cy="192.2" rx="7.8" ry="11.4"/>
		<ellipse class="st25" cx="117" cy="192.7" rx="5.8" ry="8.4"/>
		<path class="st26" d="M118.2,187.9H129c0,0-1.8,4.9,1.3,8.6l-13.1-0.3C117.2,196.2,113.5,190.4,118.2,187.9z"/>
		<path class="st23" d="M141.9,187.1c0,0,10.7-2.9,10.6,9.4l-0.1,9.8c0,0-5.4,1.7-9.2,0l0.2-7.8c0,0-0.7-1-1.5-2
			S136.7,190.6,141.9,187.1z"/>
		<path class="st25" d="M125.8,174.9h17.6C144.6,170.3,123.5,170.4,125.8,174.9z"/>
		<path class="st24" d="M143.4,174.9c0,0,0.3-2.1-2.8-2.7l-7.3,2.7H143.4z"/>
		<path class="st26" d="M143.2,206.3c0,0,2.5,1.9,9.2,0c-0.1,0.6-0.1,1.2,0,1.8c0,0-6.6,2.2-9.2,0V206.3z"/>
		<path class="st27" d="M143.4,198.5c0,0,4.7,7.4,9,7.8c-3.7,0.8-5.9,1.4-9.2,0L143.4,198.5z"/>
		<path class="st28" d="M125.8,174.9c0,0,2.2,8.1,4.4,9.5c1.6,1,7.8-0.1,7.8-0.1s-7.9-5.7-9.6-9.4
			C125.9,174.9,125.8,174.9,125.8,174.9z"/>
		<polygon class="st29" points="143.4,174.9 140.9,184.3 138,184.3 141.4,174.9 		"/>
		<path class="st27" d="M130.3,186.4c0,0-4.2,3-0.7,9c2.7,5.4,9.4,4.9,12.4,1.1c0,0-7.9,1.4-8.5-10.1L130.3,186.4z"/>
		<path class="st24" d="M130.2,186.4h10.6c0,0-0.3-0.4,0-2.1c0.1-0.2-10.6,0-10.6,0l0.7,1.3L130.2,186.4z"/>
		<path class="st23" d="M99.4,190l2.2-2.5c0,0-5-9-6-11.9s17.5-1.8,18.1-1.8s2.5,1.2,0.8,4.6c-1.2,4.6-2.1,9.6-2.1,9.6l1.6,1.1
			c0,0-6.1,3.5,0.2,10c-7.1,6.4-12.3,1.3-13.1,0.2S97.8,195.7,99.4,190z"/>
		<ellipse class="st24" cx="85.7" cy="194.5" rx="8.8" ry="12.2"/>
		<ellipse class="st25" cx="85.9" cy="195.1" rx="6.5" ry="9"/>
		<path class="st26" d="M87.2,189.9h12.2c0,0-2.1,5.3,1.4,9.3l-14.8-0.3C86.1,198.8,81.9,192.7,87.2,189.9z"/>
		<path class="st23" d="M114,189.1c0,0,12.1-3.1,12,10l-0.2,10.5c0,0-6.1,1.9-10.4,0l0.2-8.3c0,0-0.8-1.1-1.7-2.2
			S108.1,192.8,114,189.1z"/>
		<path class="st25" d="M95.8,176h19.6C116.7,171,93.1,171.1,95.8,176z"/>
		<path class="st24" d="M115.7,176c0,0,0.4-2.2-3.2-2.9l-8.2,2.9H115.7z"/>
		<path class="st26" d="M115.4,209.7c0,0,2.9,2,10.4,0c-0.1,0.6-0.1,1.3,0,1.9c0,0-7.5,2.3-10.4,0V209.7z"/>
		<path class="st27" d="M115.7,201.3c0,0,5.3,7.9,10.1,8.3c-4.2,0.8-6.7,1.5-10.4,0L115.7,201.3z"/>
		<path class="st28" d="M95.8,176c0,0,2.6,8.7,5,10.2c1.9,1.1,8.7-0.3,8.7-0.3s-8.8-6-10.7-10C95.9,176,95.8,176,95.8,176z"/>
		<polygon class="st29" points="115.7,176 112.8,186.1 109.6,186 113.4,176 		"/>
		<path class="st27" d="M100.9,188.3c0,0-4.7,3.2-0.8,9.7c3,5.8,10.6,5.3,14,1.1c0,0-8.9,1.5-9.6-10.8H100.9z"/>
		<path class="st24" d="M100.9,188.3h12c0,0-0.4-0.4,0-2.2c0-0.3-12,0-12,0l0.8,1.3L100.9,188.3z"/>
		<path class="st29" d="M115.8,188.8c0,0,5.7-8.7,10-0.9c0,3.8,0.3,5.8,1.2,7l-1.3,1C125.7,195.9,125.1,188.1,115.8,188.8z"/>
		<path class="st24" d="M113.2,185.6l5.4,0.4c0,0,2.3-2.9,5.6,0l0.2-4.6l-9.9-0.1L113.2,185.6z"/>
		<path class="st27" d="M121.8,180.9l-2.8,3l-2,0.4l-0.9-0.8c-0.3-1-0.1-2.1,0.4-2.9"/>
		<polyline class="st30" points="278.8,271.1 320.6,278.6 319.8,315.4 277.8,308.5 		"/>
		<ellipse class="st31" cx="278.2" cy="289.8" rx="8.7" ry="18.7"/>
		<polyline class="st32" points="278.8,271.1 278.8,271.1 320.6,278.6 319.8,315.4 277.8,308.5 277.8,308.5 		"/>
		<ellipse class="st32" cx="278.2" cy="289.8" rx="8.7" ry="18.7"/>
		<path class="st33" d="M387.2,294.7l-51.9-10.4l-23.8-4.6c0.5-1.1,0.9-2.1,1.4-3.2c-0.2-4.4-0.4-8.9-0.6-13.3l-2.8-14.7l-7.4-13.4
			l-0.7-2c0,0-0.7-2-1.3-3.6c-2.4-6.5-5.7-16-9.4-28.5l-2.4-6.3l-6.5-17c0,0-8.4-25.8-13.8-63.9l16.4,0.5l-0.3,0.7
			c0,0,16.5,26.9,22.1,48.1l8.4,22.1l1.5,4.1c0,0,10.7,14.2,15.4,4.3l38.4-1.1c0,0-2.9,7,2.3,8.7s15.5-4.9,19.4,3.7
			c4.9,10.9-4.1,38.7-6.2,58.9C384.4,273.8,385,284.4,387.2,294.7z"/>
		<path class="st32" d="M387.2,295l-51.9-10.4l-23.8-4.6c0.5-1.1,0.9-2.1,1.4-3.2c-0.2-4.4-0.4-8.9-0.6-13.3l-2.8-14.7l-7.4-13.4
			l-0.8-2.1c0,0-0.7-1.9-1.3-3.6c-2.4-6.5-5.7-16-9.4-28.5l-2.4-6.3l-6.5-17c0,0-8.4-25.8-13.8-63.9l16.4,0.5l-0.3,0.7
			c0,0,16.5,26.9,22.2,48.1l8.4,22.1l1.5,4.1c0,0,10.7,14.2,15.4,4.3l38.4-1.1c0,0-2.9,7,2.3,8.7s15.5-4.9,19.4,3.7
			c4.9,10.9-4.1,38.7-6.2,58.8C384.4,274.1,385,284.7,387.2,295z"/>
		<path class="st33" d="M269.6,119.2c-9.4-4.2-11.6-14.3-11.6-14.3c-15.1-7.3-15.6-10.2-15.1-12.6s3.3-1.3,3.3-1.3l12.9,6.2
			c0,0-10.6-13.5-11.5-20s3.1-5.2,7.2,0.6c4.2,5.8,8.2,11,8.2,11s1.7,0.3,0.9-2.2s-6-19.2-6-19.2s-1.3-3.2,1.6-4.5
			s5.8,3.2,13.1,21.7c0,0,1.2-1.9,0.5-13.5c0,0-0.4-9,4.3-10.6c0,0,3.2,0.7,4.2,22.9c0,0,1,10.8,3.7,13.4c0,0,0.3,1,3.2-2.6
			s7.5-6,11.4-2.6c0,0,2.2,1.3-1.9,3.9s-5.4,5.3-7.5,10.5s-2.1,5.1-6.1,9.7"/>
		<path class="st32" d="M269.6,119.2c-9.4-4.2-11.6-14.3-11.6-14.3c-15.1-7.3-15.6-10.2-15.1-12.6s3.3-1.3,3.3-1.3l12.9,6.2
			c0,0-10.6-13.5-11.5-20s3.1-5.2,7.2,0.6c4.2,5.8,8.2,11,8.2,11s1.7,0.3,0.9-2.2s-6-19.2-6-19.2s-1.3-3.2,1.6-4.5
			s5.8,3.2,13.1,21.7c0,0,1.2-1.9,0.5-13.5c0,0-0.4-9,4.3-10.6c0,0,3.2,0.7,4.2,22.9c0,0,1,10.8,3.7,13.4c0,0,0.3,1,3.2-2.6
			s7.5-6,11.4-2.6c0,0,2.2,1.3-1.9,3.9s-5.4,5.3-7.5,10.5s-2.1,5.1-6.1,9.7"/>
		<path class="st33" d="M279.7,83.3c0,0-20.2,2.3-21.8,16.3"/>
		<path class="st32" d="M279.7,83.3c0,0-20.2,2.3-21.8,16.3"/>
		<path class="st33" d="M285.9,97.1c0,0-8,2.2-10.4,8.8"/>
		<path class="st32" d="M285.9,97.1c0,0-8,2.2-10.4,8.8"/>
		<g class="st34">
			<ellipse cx="344.8" cy="357" rx="81.7" ry="10.5"/>
		</g>
		<path class="st35" d="M298.9,318.8h9.7c3.5,0,6.3,2.8,6.3,6.3v21.6c0,3.5-2.8,6.3-6.3,6.3h-9.7c-3.5,0-6.3-2.8-6.3-6.3V325
			C292.7,321.6,295.5,318.8,298.9,318.8z"/>
		<path class="st36" d="M298.9,318.8h9.7c3.5,0,6.3,2.8,6.3,6.3v21.6c0,3.5-2.8,6.3-6.3,6.3h-9.7c-3.5,0-6.3-2.8-6.3-6.3V325
			C292.7,321.6,295.5,318.8,298.9,318.8z"/>
		<path class="st37" d="M285.5,332.7h9.7c3.5,0,6.3,2.8,6.3,6.3v17.1c0,3.5-2.8,6.3-6.3,6.3h-9.7c-3.5,0-6.3-2.8-6.3-6.3V339
			C279.3,335.5,282.1,332.7,285.5,332.7z"/>
		<path class="st36" d="M285.5,332.7h9.7c3.5,0,6.3,2.8,6.3,6.3v17.1c0,3.5-2.8,6.3-6.3,6.3h-9.7c-3.5,0-6.3-2.8-6.3-6.3V339
			C279.3,335.5,282.1,332.7,285.5,332.7z"/>
		<path class="st35" d="M400.2,318.8h9.7c3.5,0,6.3,2.8,6.3,6.3v21.6c0,3.5-2.8,6.3-6.3,6.3h-9.7c-3.5,0-6.3-2.8-6.3-6.3V325
			C394,321.6,396.8,318.8,400.2,318.8z"/>
		<path class="st36" d="M400.2,318.8h9.7c3.5,0,6.3,2.8,6.3,6.3v21.6c0,3.5-2.8,6.3-6.3,6.3h-9.7c-3.5,0-6.3-2.8-6.3-6.3V325
			C394,321.6,396.8,318.8,400.2,318.8z"/>
		<path class="st37" d="M387.8,332.7h9.7c3.5,0,6.3,2.8,6.3,6.3v17.1c0,3.5-2.8,6.3-6.3,6.3h-9.7c-3.5,0-6.3-2.8-6.3-6.3V339
			C381.5,335.5,384.3,332.7,387.8,332.7z"/>
		<path class="st36" d="M387.8,332.7h9.7c3.5,0,6.3,2.8,6.3,6.3v17.1c0,3.5-2.8,6.3-6.3,6.3h-9.7c-3.5,0-6.3-2.8-6.3-6.3V339
			C381.5,335.5,384.3,332.7,387.8,332.7z"/>
		<path class="st37" d="M426.5,329.5c0,5.8-36.6,10.5-81.7,10.5s-81.7-4.7-81.7-10.5v-7.3c0-5.8,36.6-10.5,81.7-10.5
			c44.5,0,80.8,4.6,81.7,10.3v7.3C426.5,329.3,426.5,329.4,426.5,329.5z"/>
		<ellipse class="st38" cx="344.8" cy="322.2" rx="81.7" ry="10.5"/>
		<path class="st36" d="M426.5,329.5c0,5.8-36.6,10.5-81.7,10.5s-81.7-4.7-81.7-10.5v-7.3c0-5.8,36.6-10.5,81.7-10.5
			c44.5,0,80.8,4.6,81.7,10.3v7.3C426.5,329.3,426.5,329.4,426.5,329.5z"/>
		<ellipse class="st36" cx="344.8" cy="322.2" rx="81.7" ry="10.5"/>
		
			<ellipse transform="matrix(2.443220e-02 -0.9997 0.9997 2.443220e-02 3.5304 648.637)" class="st16" cx="334.1" cy="322.5" rx="7.8" ry="58.1"/>
		<path class="st33" d="M308.3,295.1l-1.7,5.8c-2.2,7.2-9.8,11.4-17,9.2l-15.3-4.5c0,7.5-5.3,28.1-6.1,32.1
			c-1.2,3.5-0.7,7.4,1.5,10.5c2.6,5,1.5,8.9-2.5,9.6s-8.3,0.9-10.1,5.1c-1.8,4-6.7,6-11.4,4.7c-3.2,4.9-11.6,4.2-10.2-0.1
			c-2.3,1.4-6,0.5-4.4-1.8c-3.6,1.2-3.4-1.6-2.4-2.8c-4-0.3-3.5-2.5-1.9-3.8c-2.1-1.1,3.4-4.7,8.1-4.1c2.2-0.8,13.8-7.1,15.1-13.7
			c1.2-6.1-0.8-26.4-2.1-44.6c-0.1-1.3-0.2-2.6-0.3-3.9c-1.3-3.2-2-6.6-1.9-10c0.1-4.5,1.2-8.8,3.4-12.7l0.4-0.3
			c3.5-2.9,8.2-3.8,12.6-2.5l12.1,3.6l1.2,0.3l23.8,7C306.4,280.2,310.5,287.8,308.3,295.1z"/>
		<path class="st39" d="M269.4,347c1.6,1.2,2.7,3.1,2.9,5.1c0,0.6,0.2,2.8-1.2,4.1c-0.9,0.8-1.6,0.6-4,1.6c0,0-0.8,0.4-2.5,1.2
			c-4.3,2.1-8.2,7.5-13.8,8.7c-1.7,0.4-3.5,0.3-5.2-0.1c-0.5,0.8-1.1,1.4-1.9,1.9c-2.9,1.9-7.4,1.6-8.3-0.3c-0.2-0.6-0.2-1.2,0-1.8
			c-2.3,1.4-6,0.5-4.4-1.8c-3.6,1.2-3.4-1.6-2.4-2.8c-4-0.3-3.5-2.5-1.9-3.8c-1-0.6-0.2-1.7,1.4-2.7c-0.6,0.6,1.3,1.3,2.1,1.4
			c-1.5,0.3-3.2,2.4,0.5,3.3c-0.5,0.7-0.3,1.6,0.4,2c0,0,0.1,0,0.1,0.1c0.9,0.4,1.9,0.4,2.9,0.1c-0.9,0.4-1.3,1.8-0.6,2.3
			c0.9,0.9,2.7,0.8,4.6,0c-1.5,1-1,2-0.5,2.4c1.3,0.7,3,0.6,4.2-0.3c1.6-1.7,2.1-1.4,3.7-3c2.8-0.4,6.8-0.5,7.4-3.1
			c1.9-5.6,8.1-5.5,11.8-8.8c2.1-1.2,0.6-5.8-0.3-8.1c-1-3.7-0.9-7.5,0.1-11.2c4.9-11.9,4.2-21.7,1-36c2.2-1.2,4.2-2.8,6-4.6
			c0,0.3,0,0.5,0,0.8c0.2,2.5,1.4,4.9,2.5,10.3s-5,29.4-6,33.8c-0.4,1-0.6,2-0.6,3C267.5,342.9,268.1,345.1,269.4,347z"/>
		<path class="st39" d="M293.4,310.6c-1.3,0-2.6-0.2-3.9-0.6l-15.3-4.5c0,1.3-0.1,2.7-0.3,4l-2.3-1.2v-15.6c0,0,8.5,9.2,17.4,12.5
			C293.5,306.9,294,309,293.4,310.6z"/>
		<path class="st32" d="M299.1,278.2l-23.8-7l-1.2-0.3l-12.2-3.6c-4.3-1.3-9.1-0.3-12.6,2.5l-0.4,0.3c-4,7-4.5,15.4-1.5,22.8
			c0.1,1.3,0.2,2.6,0.3,3.9c1.3,18.2,3.4,38.5,2.2,44.6c-1.3,6.5-12.9,12.9-15.1,13.7c-2.3-0.2-4.7,0.3-6.7,1.5l0,0
			c-0.7,0.4-1.3,0.9-1.7,1.5c0,0.1-0.1,0.1-0.1,0.2c-0.1,0.3,0,0.6,0.2,0.8c0.1,0,0.1,0.1,0.2,0.1l0,0l-0.2,0.2l-0.2,0.2
			c-0.7,0.8-1,1.7-0.3,2.4c0.2,0.2,0.4,0.4,0.7,0.5c0.6,0.2,1.3,0.4,2,0.4c-0.6,0.8-0.9,2.3-0.1,2.9c0.2,0.1,0.4,0.2,0.6,0.2
			c0.6,0.1,1.3,0,1.9-0.3c-0.6,0.8-0.5,1.5,0,1.9c0.1,0.1,0.2,0.2,0.3,0.2c1.3,0.6,2.9,0.5,4.1-0.3c0,0.2-0.1,0.3-0.1,0.5
			c0,0.3,0,0.5,0,0.8l0.1,0.3c0,0.1,0,0.2,0.1,0.3l0,0c0.9,1.8,5,2.2,7.8,0.6c0.1-0.1,0.2-0.1,0.3-0.2l0.6-0.4
			c0.2-0.1,0.4-0.3,0.6-0.5s0.3-0.4,0.5-0.5s0.3-0.4,0.4-0.6l0,0c0.1,0,0.2,0.1,0.4,0.1c0.4,0.1,0.8,0.1,1.2,0.2
			c0.9,0.1,1.8,0.1,2.8,0c0.1,0,0.3,0,0.4-0.1h0.2c0.1,0,0.2-0.1,0.3-0.1c0.1,0,0.2-0.1,0.3-0.1c0.2,0,0.5-0.1,0.7-0.2
			c5.1-1.6,8.7-6.4,12.8-8.4c1.6-0.8,2.5-1.2,2.5-1.2c0.6-0.2,1.2-0.5,1.8-0.6c0.8-0.1,1.6-0.4,2.2-0.9c1.4-1.3,1.2-3.5,1.2-4.1
			c-0.2-2-1.3-3.9-2.9-5.1c-1-1.4-1.6-3.1-1.8-4.8c0,0.6,0.1,1.3,0.3,1.9c-0.2-0.6-0.3-1.3-0.3-1.9c0-0.1,0-0.3,0-0.5l0,0
			c0-0.1,0-0.3,0-0.4v-0.1c0-0.2,0-0.4,0-0.6c0-0.1,0-0.3,0-0.4c0-0.2,0-0.5,0.1-0.7c0-0.3,0.1-0.6,0.2-0.9c0.1-0.3,0.2-0.6,0.3-0.9
			c0.1-0.5,0.3-1.3,0.5-2.2c0.2-0.7,0.4-1.5,0.6-2.5l0,0c0.1-0.3,0.2-0.6,0.2-0.9c0.2-1,0.5-2,0.8-3.1s0.5-2.3,0.8-3.5
			c0.5-2,0.9-4.1,1.3-6.2c0.1-0.4,0.2-0.8,0.3-1.2c0.2-0.8,0.3-1.6,0.5-2.4c0.7-3.3,1.1-6.6,1.3-10l0,0l15.3,4.5
			c0.7,0.2,1.3,0.3,2,0.4c0.6,0.1,1.2,0.1,1.9,0.1c6.1,0,11.5-4,13.2-9.8l1.7-5.7C310.6,288,306.4,280.3,299.1,278.2
			C299.1,278.2,299.1,278.2,299.1,278.2z"/>
		<path class="st40" d="M274.2,305.6c0.7-7.5-0.8-15-4.2-21.6c3.5,6.7,5.1,14.2,4.4,21.7L274.2,305.6z"/>
		<path class="st40" d="M235.4,367.3c0.7-0.8,1.6-1.5,2.4-2.1c0.9-0.6,1.9-1.1,2.9-1.4c-1,0.3-2,0.9-2.8,1.5
			c-0.9,0.6-1.6,1.4-2.3,2.2L235.4,367.3z"/>
		<path class="st40" d="M231.1,365.6c1-1,2-1.8,3.2-2.5c1.2-0.7,2.5-1.1,3.8-1.2c-1.3,0.2-2.6,0.6-3.7,1.4c-1.1,0.7-2.2,1.6-3.1,2.5
			L231.1,365.6z"/>
		<path class="st40" d="M228.7,362.7c0.9-0.8,1.9-1.5,2.9-2c0.5-0.2,1.1-0.4,1.7-0.6c0.6-0.1,1.1-0.2,1.7-0.2
			c-0.6,0-1.2,0.1-1.7,0.3c-0.6,0.2-1.1,0.4-1.6,0.6c-1,0.5-2,1.2-2.8,2L228.7,362.7z"/>
		<path class="st40" d="M226.7,359c1-0.6,2-1,3.1-1.2c1.1-0.3,2.2-0.3,3.3,0c-1.1-0.2-2.2-0.2-3.3,0.1c-1.1,0.3-2.1,0.8-3,1.3
			L226.7,359z"/>
		<path class="st41" d="M313.8,130.2c-3.2,8.3-0.1,29.6-0.8,38.6s9.6,31,35,29.8s41.3-15.1,46.1-35.7s5.6-44.8-7.5-52.8
			s-45.7-11.3-58.1-0.9C321.5,114.5,316.3,121.9,313.8,130.2z"/>
		<path class="st39" d="M386.5,110.1c-13.1-7.9-45.7-11.3-58.1-0.9c-7,5.3-12.1,12.6-14.7,21c-0.9,2.7-1.3,5.5-1.4,8.4
			c1.2,2.1,2.8,4.4,5,2.6c6.8-5,7.2-13.6,12.2-19.9c-0.9,6.3-3.6,14.5,1.8,19.4c0-6.3,3.6-11.8,6.3-17.6c-1.7,6.6-0.2,13.6,4.1,19
			c1.8-8.3,5.9-16,11.8-22.1c-1.9,5-1.4,10.6,1.2,15.3c2.3-7.2,4.2-13.9,10.5-19.3c-1.4,6.8-1.8,13.6-3.2,20.3
			c7.7-5,15.4-11.3,17.6-20.3c4.5,12.6,3.6,26.6,2.3,39.7c2.3-0.9,3.2-3.2,5-5c5.9,20.8-11,39.2-30.4,43.3
			c-18.5,4.2-37.1-0.2-43.6-23.5c2.3,17.2,17.7,29.6,35,28.2c25.4-1.2,41.3-15.1,46.1-35.7S399.6,118,386.5,110.1z"/>
		<path class="st40" d="M362,175.1h-0.2c-3.7,0.2-7.3-1.5-9.5-4.5l0,0c0.4,1.3,1.3,2.5,2.4,3.2c-15.5,7.7-25.5,0.5-25.6,0.5l0,0
			c3.3,2.5,7.4,3.9,11.6,3.7c5.1-0.1,10.2-1.4,14.7-3.8C357.5,175.3,359.8,175.6,362,175.1L362,175.1z"/>
		<path class="st40" d="M333.5,171c-2,0.1-3.9-1-4.9-2.8c-1.2-1.7-1.1-4.1,0.2-5.8c1.7-1.6,3.4-0.6,4.9,0.3c0.9,0.6,1.9,1,2.9,1.1
			l0,0c-1.1,0.2-2.3,0-3.2-0.6c-1.5-0.9-2.8-1.7-4.2-0.4c-1.2,1.5-1.2,3.5-0.1,5c1.5,2.4,4.5,3.2,7,2l0,0
			C335.4,170.6,334.5,170.9,333.5,171z"/>
		<path class="st40" d="M342.7,186c-1.7,0.1-3.3-0.5-4.5-1.6l0,0c3.3,1.5,7.1,1.5,10.3,0l0,0C346.7,185.4,344.7,185.9,342.7,186z"/>
		<path class="st42" d="M312.3,150.6c0,0-13.9-15.5-8.7-42.5s37.5-41.8,59-36.4s48.2,31.7,49,52.1c0.6,14.9-6.7,29-19.2,37.1
			c-0.1-7.6-3-12.1-1.6-20.6c-3,8.2-5.5,9.1-5.5,9.1s4.6-22.1-5-37.1c-4.3,7.9-9.7,15.1-16,21.4c2.5-6.9,3.3-14.4,2.3-21.7
			c0,0-10.2,10.5-11.7,18.8c-2.8-3.8,4.7-20.1,4.7-20.1s-15.9,13.7-18.1,28.1c-4.6-9.9,0.1-23,0.1-23s-10.8,12.5-11.2,20.7
			c-2.7-6.6,2.1-21.4,2.1-21.4c-9.7,12.6-13.9,24.4-15.6,25.3s-4.3-3.1-4.3-3.1C312.2,141.7,312.1,146.2,312.3,150.6z"/>
		<path class="st43" d="M411.6,123.9c-0.3-5-1.7-9.9-4-14.3c3,9.2,3.7,19-2.1,27.5c0.7-2.6,0.8-5.3,0.4-7.9
			c-0.8,6.3-6,10.7-10.8,14.7c2.4-8.2,2.4-16.8,0.1-25c0,4.4-3.2,8.6-4.6,12.8c2.7-10.4-5-19-8.6-27.5c-0.1-0.4-0.3-0.8-0.4-1.3
			c-0.7,6.3-6.7,10.6-11.4,14.8c3.2-4.5,2.7-10.4,2.7-15.8c-2.3,2.3-5.4,2.7-7.7,5c1-2.2,2.5-4.1,4.5-5.4
			c-7.3,1.7-14.1,5.1-19.9,9.9c2.5-4.9,6-9.2,10.3-12.7c-8.6,1.8-13.4,6.3-20.2,12.6c1.5-3.3,3.5-6.3,5.9-9
			c-11.3,4.1-23.9,11.7-28,23.9c-0.2-5.9,0.2-11.8,0.9-17.6c-5.8,7.9-9.6,17-11.3,26.7c-3.3-9.1-4.5-18.7-3.6-28.3l-0.2,1.1
			c-5.2,27,8.7,42.5,8.7,42.5c-0.2-4.5-0.1-8.9,0.2-13.4c0,0,2.6,4,4.3,3.1s6-12.7,15.6-25.3c0,0-4.8,14.8-2.1,21.4
			c0.4-8.2,11.2-20.7,11.2-20.7s-4.7,13.1-0.2,23c2.3-14.3,18.2-28.1,18.2-28.1s-7.5,16.3-4.7,20.1c1.5-8.2,11.7-18.8,11.7-18.8
			c1,7.3,0.2,14.7-2.3,21.7c6.4-6.3,11.7-13.5,16-21.4c9.6,15,5,37.1,5,37.1s2.6-0.9,5.5-9.1c-1.3,8.4,1.5,12.9,1.6,20.6
			C404.9,152.8,412.2,138.8,411.6,123.9z"/>
		<path d="M392.1,161.5V161c-0.1-2.7-0.4-5.4-1-8.1c-0.8-3.3-1.1-6.8-0.9-10.2c-2.6,6.2-4.8,7-4.9,7l-0.5,0.2l0.1-0.5
			c0-0.2,4.4-21.7-4.7-36.4c-4.3,7.7-9.6,14.7-15.9,20.9l-0.9,0.9l0.4-1.2c2.3-6.7,3.1-13.8,2.4-20.9c-1.9,2.1-9.9,11-11.2,18.1
			l-0.1,0.7l-0.4-0.6c-2.4-3.3,2.3-15.1,4.1-19.1c-3.6,3.4-15.1,15-17,26.9l-0.2,1L341,139c-2.5-7-2.6-14.7-0.3-21.8
			c-2.7,3.3-9.8,12.8-10.1,19.4l-0.1,1.4l-0.5-1.3c-2.2-5.4,0.4-15.9,1.6-20c-4.3,5.9-8,12.1-11.3,18.5c-1.9,3.5-2.7,5.1-3.4,5.5
			c-0.2,0.1-0.4,0.2-0.7,0.2c-1.3,0-2.8-1.7-3.5-2.7c-0.3,4.2-0.3,8.3-0.1,12.5l0.1,0.9l-0.6-0.7c-0.1-0.1-13.9-15.9-8.7-42.8
			c4.5-23.3,29.4-37.8,49.9-37.8c3.2,0,6.4,0.4,9.5,1.1c12.4,3.9,23.6,10.9,32.4,20.5c10.3,10.7,16.4,22.3,16.8,31.9
			c0.6,15-6.8,29.2-19.4,37.4L392.1,161.5z M390.5,140.3l0.6,0.1c-0.6,4.1-0.4,8.3,0.6,12.4c0.5,2.5,0.9,5.1,1,7.7
			c12.2-8.1,19.2-22,18.6-36.6c-0.3-9.4-6.4-20.9-16.6-31.5c-8.7-9.5-19.8-16.5-32.1-20.3c-3.1-0.8-6.2-1.1-9.3-1.1
			c-20.3,0-44.9,14.3-49.3,37.3c-3.3,14.3-0.4,29.4,8,41.5c-0.2-4.4,0.2-12.4,0.3-12.4l0.1-0.9l0.5,0.8c0.6,0.9,2.3,3.1,3.5,3.1
			c0.1,0,0.3,0,0.4-0.1c1.3-1.6,2.3-3.3,3.1-5.2c3.5-7,7.7-13.7,12.4-20l1.1-1.4l-0.5,1.7c0,0.1-4.1,12.9-2.5,19.8
			c1.4-8.2,10.7-19,11.1-19.5l1.1-1.2l-0.5,1.6c0,0.1-4.4,12.3-0.6,21.9c2.8-13.9,17.9-27.1,18.1-27.2l1.1-0.9l-0.6,1.3
			c-0.1,0.2-6.6,14.4-5.1,19.1c2-8.1,11.2-17.7,11.6-18.1l0.4-0.4l0.1,0.6c0.9,6.9,0.3,13.9-1.9,20.6c6-6,11-12.9,15-20.3l0.2-0.5
			l0.3,0.5c8.6,13.4,5.9,32.7,5.2,36.6C387.9,146.4,389.6,143.5,390.5,140.3L390.5,140.3z"/>
		<path class="st33" d="M402.2,144.9c-7-1.7-10.5,8.2-11.1,13.2l1.2,9.2c3.6,0.7,7.3-0.5,9.9-3C406.4,160,409.1,146.6,402.2,144.9z"
			/>
		<path class="st44" d="M394.5,167.7c-0.7,0-1.5-0.2-2.2-0.4l0,0c3.5,0.4,7.1-0.7,9.6-3.2c3.4-4.2,4.8-9.8,3.8-15.1
			c-0.4-1.9-1.8-3.3-3.6-3.8c-1.7-0.4-3.5-0.1-4.9,0.9c-3.4,3.1-5.6,7.3-6.1,11.9l0,0c0-3,0.8-6,2.3-8.6c0.8-1.5,2-2.8,3.4-3.9
			c1.6-1.1,3.5-1.5,5.4-1c2,0.5,3.6,2.2,4,4.2c1.1,5.5-0.4,11.3-3.9,15.7C400.3,166.7,397.4,167.8,394.5,167.7z"/>
		<path class="st40" d="M398.7,159.9c-2.6-0.8-3.2-3.2-2.5-5.9s2.4-4.7,4.5-3.8l0,0c-1.8-0.4-3.3,1.7-3.9,3.9
			S396.5,159.2,398.7,159.9z"/>
		<ellipse class="st45" cx="357.1" cy="151.3" rx="8.4" ry="10.2"/>
		<ellipse class="st46" cx="357.1" cy="151" rx="8.4" ry="10.2"/>
		<ellipse class="st47" cx="356.1" cy="154.7" rx="4.5" ry="5.4"/>
		<ellipse transform="matrix(0.4647 -0.8855 0.8855 0.4647 57.9065 399.0973)" class="st45" cx="359" cy="151.7" rx="2.5" ry="2"/>
		<ellipse class="st45" cx="321.9" cy="151.4" rx="7.9" ry="9.6"/>
		<ellipse class="st46" cx="321.9" cy="151.2" rx="7.9" ry="9.6"/>
		<ellipse class="st47" cx="320.8" cy="154.4" rx="4.2" ry="5.1"/>
		
			<ellipse transform="matrix(0.4647 -0.8855 0.8855 0.4647 39.5409 367.3149)" class="st45" cx="323.6" cy="151" rx="2.3" ry="1.9"/>
		<path class="st47" d="M351.6,137.4c0-0.4,0.2-0.7,0.5-0.9c5.4-2.8,11.9-2.1,16.5,1.7c0.2,0.2,0.2,0.4,0,0.6
			c-0.1,0.1-0.3,0.2-0.5,0.1c-2.4-1.1-5-1.8-7.6-2c-2.9-0.2-5.7,0-8.5,0.8c-0.2,0.1-0.5-0.1-0.5-0.3
			C351.7,137.5,351.6,137.5,351.6,137.4L351.6,137.4z"/>
		<path class="st47" d="M327.4,139.3c0-0.4-0.2-0.7-0.5-0.9c-2.2-1.3-4.7-1.9-7.3-1.6c-2.7,0.3-5.2,1.5-7.1,3.4
			c-0.4,0.3,0,0.9,0.4,0.7c2-1.1,4.3-1.8,6.6-2c2.5-0.2,5,0,7.4,0.8c0.2,0.1,0.4-0.1,0.5-0.3C327.4,139.3,327.4,139.3,327.4,139.3
			L327.4,139.3z"/>
		<path class="st13" d="M323.4,242.3c6.3,1.7,16.8-6.2,7.3-9.9c1.3-2.3,0.9-5.2-0.9-7.2c2.5,0.1,4.6-1.9,4.7-4.4
			c0-1.5-0.6-2.9-1.8-3.8c23.1-4.6,5.6-23.1-7.4-19.9c-0.1-2.8-2.4-4.9-5.2-4.8c-1.4,0-2.8,0.7-3.7,1.8c-1.8-5.7-9.3-6.6-10.4,1.9
			c-7.6-4.8-15.1,4.2-8.8,13.3c-9,1.5-12.6,5.8-7.5,10.9c-9.5,7,0.2,14.5,11.3,14.5C308.9,235.3,316.7,237.9,323.4,242.3z"/>
		<path class="st14" d="M330.7,232.4c1.3-2.3,0.9-5.2-0.9-7.2c2.5,0.1,4.6-1.9,4.7-4.4c0-1.5-0.6-2.9-1.8-3.8
			c12.1-2.4,13.1-8.6,9.4-13.5c0.1,0.5,0.1,1,0,1.5c-0.8,8.2-10.3,5.3-14.2,9.5c-0.4,0.9,2.9,3.4,1.4,5.4c-0.2,0.4-1.7,0.3-3.1-0.3
			c0.5,4,4,8.1,0.9,11.6c-0.8,0.7-1.8,0.3-2.9,0.4c-2-0.3-3.6-4.2-4.4-3.5c-8.1,5.7-18.8,5.6-26.8-0.2c-3.2-2.4,0.1-6.4,2.6-8.5
			c-2.5,0.6-4.9-1-5.5-3.4c0.1-1.9,0.7-3.8,1.8-5.4c-4.9,2.1-6.2,5.5-2.3,9.4c-9.5,7,0.2,14.5,11.3,14.5c8,0.6,15.8,3.3,22.5,7.7
			C329.7,244.1,340.2,236.1,330.7,232.4z"/>
		<path class="st17" d="M291.7,233.2L291.7,233.2c-3.1-0.9-5.5-3.4-6.3-6.5c-0.1-2.7,1.3-5.2,3.7-6.6c-1.7-1.4-2.4-3.5-2-5.6
			c0.8-2.6,4.2-4.5,9.4-5.5c-2.8-3.5-2.9-8.5-0.3-12.1c2.3-2.8,6.3-3.4,9.4-1.4c0.2-2.2,1.4-4.2,3.2-5.4c1.3-0.7,2.9-0.8,4.2-0.2
			c1.6,0.7,2.8,2,3.4,3.7c1.7-1.4,4.1-1.8,6.2-1c1.7,0.7,2.8,2.4,2.9,4.2c3.2-0.6,6.6-0.2,9.6,1.2c5.7,2.4,9.5,7.2,9.1,11.3
			c-0.3,2.7-2.4,6.3-10.9,8.1c1.3,1.5,1.7,3.5,1.1,5.4c-0.7,1.6-2.2,2.8-4,2.9c1.5,1.9,1.8,4.5,0.7,6.7h0.1c4,1.7,3.9,4,3.4,5.2
			c-2.2,4-6.8,6.1-11.3,5.2h0h0c-2.6-1.6-5.3-3.1-8.1-4.3c-4.5-2.1-9.3-3.2-14.2-3.4C297.7,235,294.6,234.4,291.7,233.2z
			 M304.4,195.6c-2.6-1.3-5.8-0.5-7.6,1.7c-2.5,3.6-2.3,8.4,0.6,11.7l0.3,0.4l-0.5,0.1c-5.2,0.9-8.6,2.7-9.4,5.1
			c-0.5,1.6,0.2,3.4,2,5.2l0.3,0.3l-0.3,0.2c-2.2,1.2-3.7,3.6-3.7,6.2c0.8,2.9,3,5.2,5.9,6l0,0c2.8,1.2,5.8,1.7,8.9,1.7
			c5,0.2,9.9,1.3,14.5,3.4c2.8,1.2,5.6,2.7,8.2,4.3c4.1,0.8,8.3-1.1,10.5-4.8c0.6-1.9-0.5-3.4-3.4-4.6l-0.4-0.1l0.2-0.3
			c1.2-2.2,0.9-4.9-0.9-6.8L329,225h0.8c1.7,0.1,3.3-0.9,4-2.5c0.6-1.8,0.1-3.8-1.4-5.1l-0.5-0.4l0.6-0.1c6.7-1.3,10.6-4.1,11-7.6
			c0.4-3.8-3.3-8.3-8.7-10.6c-3-1.4-6.3-1.7-9.5-1.1l-0.4,0.1v-0.4c0.1-1.7-0.9-3.3-2.5-4c-2-0.8-4.3-0.3-5.8,1.2l-0.4,0.4l-0.2-0.6
			c-0.5-1.7-1.6-3-3.2-3.8c-1.2-0.5-2.5-0.5-3.6,0.1c-1.8,1.3-2.9,3.3-3,5.4l-0.1,0.5l-0.4-0.3C305.3,196.1,304.9,195.8,304.4,195.6
			z"/>
		
			<linearGradient id="SVGID_9_" gradientUnits="userSpaceOnUse" x1="445.2401" y1="-855.6418" x2="467.3501" y2="-855.6418" gradientTransform="matrix(0.92 0.39 -0.39 0.92 -446.52 817.39)">
			<stop  offset="0" style="stop-color:#FC9E9F"/>
			<stop  offset="0.78" style="stop-color:#FE909B"/>
			<stop  offset="1" style="stop-color:#FF8B9A"/>
		</linearGradient>
		<path class="st48" d="M299.4,208.6c0,0,12.8-10.1,14.3-9.5s8.9,10,8.4,12.5s-12.2,9.6-12.2,9.6C304.5,219,300.5,214.3,299.4,208.6
			z"/>
		
			<linearGradient id="SVGID_10_" gradientUnits="userSpaceOnUse" x1="454.5401" y1="-853.6615" x2="467.3501" y2="-853.6615" gradientTransform="matrix(0.92 0.39 -0.39 0.92 -446.52 817.39)">
			<stop  offset="0" style="stop-color:#FC9E9F"/>
			<stop  offset="0.78" style="stop-color:#FE909B"/>
			<stop  offset="1" style="stop-color:#FF8B9A"/>
		</linearGradient>
		<path class="st49" d="M322,211.6c0.2-1.1-1-3.4-2.6-5.8c-0.2,5.9-8.1,10.1-14.2,12.6c1.4,1.2,2.9,2.1,4.6,2.8
			C309.9,221.3,321.6,214.2,322,211.6z"/>
		<path class="st50" d="M309.5,221.5c-5.4-2.3-9.3-7.1-10.5-12.8v-0.2l0.2-0.1c3-2.4,13-10.2,14.6-9.5s9.1,10.1,8.6,12.9
			s-11.1,9.1-12.4,9.9l-0.1,0.1l-0.1-0.1L309.5,221.5z M299.7,208.7c1.2,5.5,5,10,10.1,12.2c3.3-2,11.5-7.4,11.9-9.3
			c0.5-2.4-6.9-11.6-8.2-12.1C308.5,201.9,303.9,205,299.7,208.7z"/>
		<path class="st33" d="M365.1,259.5l-10.9-16.7c-2.2-0.5-4.4-1.1-6.4-2c-2.7-1.1-5.2-2.6-7.5-4.3c-7.2-5.1-13.5-9.8-16.5-12.1
			c0.7-4.4-0.7-8.8-3.7-12c0,0-2.5,2.2-4,3.4c-1.9-0.1-11.5-5.9-12.7-9.2s-3.6-2.1-2.9,0.6c-1.1-0.6-2.8,0.7-2.5,3.3
			c-1.1-0.5-2,0.5-2.3,2.8l0,0c0,0.3-0.1,0.6-0.1,0.9c-5.6,3.8,1.9,14.9,3.9,16.7c5.9,3.2,12.3,5.4,18.8,6.7
			c24.6,29.6,44.1,33,51.1,28.8L365.1,259.5z"/>
		<path class="st39" d="M365.1,259.5c-1.2,0.6-2.4,0.9-3.8,1c-16.7,0.6-26.4-16.7-39.9-24.9c-18-6.8-23.8-10.7-25.7-22.3
			c0,0.3-0.1,0.6-0.1,0.9c-5.6,3.8,1.9,14.9,3.9,16.7c5.9,3.2,12.3,5.4,18.8,6.7c24.6,29.6,44.1,33,51.1,28.7L365.1,259.5z"/>
		<path class="st40" d="M302.3,226.3c-3.8-2.9-6.3-7.2-7-11.9l0.7-0.1C296.7,218.8,298.9,223.1,302.3,226.3L302.3,226.3z"/>
		<path class="st40" d="M305.4,223.4c-0.3-0.3-7.2-8-7.7-12.8l0.7-0.1C299.9,215.2,302.3,219.6,305.4,223.4L305.4,223.4z"/>
		<path class="st40" d="M306.9,218.4c-3.2-3-5.5-6.9-6.8-11.1l0.6-0.2C302,211.2,304.1,215.1,306.9,218.4L306.9,218.4z"/>
		<path class="st33" d="M369.5,266.5l23.5-40.4c0,0,5.2-25-8.7-26l-30.2,42.8L369.5,266.5z"/>
		<path class="st39" d="M394.2,215.5v1.6c0,0.3,0,0.6,0,0.9v0.2c0,0.7-0.1,1.4-0.1,2.1c0,0.1,0,0.1,0,0.1c0,0.3,0,0.6-0.1,0.8
			c0,0.1,0,0.1,0,0.1c0,0.3,0,0.5-0.1,0.8v0.1c-0.1,1.2-0.3,2.1-0.4,2.8c0,0,0,0.1,0,0.1c-0.1,0.3-0.3,0.6-0.4,1l-23.5,40.4
			l-4.6-6.9l23.5-37.8c0,0,2.8-13.5-1.2-21c0.1,0.1,0.2,0.1,0.3,0.1c0.4,0.2,0.8,0.3,1.2,0.6l0,0l0.2,0.1c0.2,0.1,0.4,0.3,0.6,0.4
			l0.3,0.2c0.2,0.2,0.3,0.3,0.5,0.5c0.1,0.1,0.2,0.1,0.2,0.2c0.2,0.2,0.3,0.4,0.5,0.6l0.1,0.2c0.2,0.3,0.3,0.5,0.5,0.7
			c0,0,0.1,0.1,0.1,0.1c0.4,0.6,0.7,1.3,0.9,2c0,0,0,0.1,0,0.1c0.1,0.3,0.2,0.6,0.3,0.9c0,0.1,0.1,0.2,0.1,0.3
			c0.1,0.2,0.2,0.5,0.2,0.7c0,0.1,0.1,0.3,0.1,0.4c0,0.2,0.1,0.4,0.2,0.7s0,0.3,0.1,0.5s0.1,0.4,0.1,0.7s0,0.3,0.1,0.5
			s0,0.4,0.1,0.6s0,0.3,0.1,0.5s0,0.4,0,0.6s0,0.3,0,0.5s0,0.4,0,0.7s0,0.3,0,0.5S394.2,215.3,394.2,215.5z"/>
		<path class="st32" d="M384.6,200.1L384.6,200.1c1,0.1,2,0.3,3,0.7l0.3,0.1c0.1,0,0.2,0.1,0.3,0.2c0.2,0.1,0.4,0.2,0.6,0.3
			c0,0,0.1,0,0.1,0.1l0,0l0.2,0.1c0.2,0.1,0.4,0.3,0.6,0.4l0.3,0.2c0.2,0.2,0.3,0.3,0.5,0.5c0.1,0.1,0.2,0.1,0.2,0.2
			c0.2,0.2,0.3,0.4,0.5,0.6l0.1,0.2c0.2,0.3,0.3,0.5,0.5,0.7c0,0,0.1,0.1,0.1,0.1c0.4,0.6,0.7,1.3,0.9,2c0,0,0,0.1,0,0.1
			c0.1,0.3,0.2,0.6,0.3,0.9c0,0.1,0.1,0.2,0.1,0.3c0.1,0.2,0.2,0.5,0.2,0.7c0,0.1,0.1,0.3,0.1,0.4c0,0.2,0.1,0.4,0.2,0.7
			s0,0.3,0.1,0.5s0.1,0.4,0.1,0.7s0,0.3,0.1,0.5s0,0.4,0.1,0.6s0,0.3,0.1,0.5s0,0.4,0,0.6s0,0.3,0,0.5s0,0.4,0,0.7s0,0.3,0,0.5
			s0,0.4,0,0.7v1.6c0,0.3,0,0.6,0,0.9v0.2c0,0.7-0.1,1.4-0.1,2.1c0,0.1,0,0.1,0,0.1c0,0.3,0,0.6-0.1,0.8c0,0.1,0,0.1,0,0.1
			c0,0.3,0,0.5-0.1,0.8v0.1c-0.1,1.2-0.3,2.1-0.4,2.8c0,0,0,0.1,0,0.1c-0.1,0.6-0.2,1-0.2,1l0,0l-23.5,40.4l0,0l0,0l0,0
			c-1.9,1-4.1,1.5-6.3,1.5c-0.8,0-1.6-0.1-2.4-0.1c-0.4,0-0.9-0.1-1.3-0.2c-0.9-0.2-1.8-0.4-2.7-0.7c-1.6-0.4-3.1-0.9-4.6-1.5
			c-1.1-0.5-2.2-0.9-3.3-1.5c-8.5-4.3-19-12.4-30.5-26.3c-1.6-0.3-3.3-0.7-4.9-1.1c-4.9-1.3-9.6-3.2-14-5.6
			c-0.6-0.6-1.1-1.2-1.6-1.9c-2.1-3-5.1-8.3-4.2-12.1c0.2-1,0.8-1.9,1.6-2.5l0-0.2l0.3-0.1c0-0.3,0-0.6,0.1-0.9l0,0
			c0.3-2.3,1.2-3.4,2.3-2.8c-0.4-2.6,1.4-3.9,2.4-3.3c-0.6-2.6,1.8-3.9,2.9-0.6s10.8,9.1,12.7,9.2c1.4-1.2,4-3.4,4-3.4
			c3.1,3.2,4.4,7.7,3.7,12.1c3,2.2,9.3,7,16.5,12.1c2.3,1.7,4.9,3.1,7.5,4.3c2,0.8,4.1,1.5,6.2,2h0.2l19.7-27.8"/>
		<path class="st40" d="M354.5,242.9c-1.1,1.9-1.8,4-2.1,6.1c-0.1,1.1-0.1,2.2,0.1,3.3c0.2,1.1,0.6,2.1,1.1,3.1
			c-1.1-1.9-1.6-4.1-1.4-6.4c0.1-1.1,0.3-2.2,0.6-3.2c0.3-1,0.8-2.1,1.4-3L354.5,242.9z"/>
		<path class="st51" d="M293.6,144.1c-1.3,4.5-0.9,7.8,0.6,8.6c0.8,0.3,1.6,0.1,2.3-0.4c1.6-1.2,1.9-4.4,0-7.9"/>
		<path class="st51" d="M383.9,205.5c-2.1,4.2-2.4,7.5-1,8.5c0.7,0.4,1.6,0.5,2.3,0.1c1.8-0.8,2.7-4,1.5-7.8"/>
		<path class="st51" d="M381.3,148.5c-2.4,4-2.8,7.4-1.5,8.5c0.7,0.5,1.6,0.5,2.3,0.2c1.9-0.7,2.9-3.8,2-7.7"/>
		<path class="st51" d="M370.7,166.5c-0.7,1.6-0.8,2.9-0.3,3.3c0.3,0.2,0.6,0.2,0.9,0c0.7-0.3,1-1.6,0.5-3"/>
		<path class="st51" d="M384.3,245.8c-0.7,1.6-0.8,2.9-0.3,3.2c0.3,0.1,0.6,0.1,0.9,0c0.7-0.4,1-1.6,0.5-3"/>
		<path class="st51" d="M367.8,184.3c-0.7,1.6-0.8,2.9-0.3,3.3c0.3,0.2,0.6,0.2,0.9,0c0.7-0.3,1-1.6,0.5-3"/>
		<path class="st51" d="M366.8,199.1c-0.7,1.6-0.8,2.9-0.3,3.3c0.3,0.2,0.6,0.2,0.9,0c0.7-0.3,1-1.6,0.5-3"/>
		<path class="st51" d="M356.4,208.5c-0.7,1.6-0.8,2.9-0.3,3.3c0.3,0.2,0.6,0.2,0.9,0c0.7-0.3,1-1.6,0.5-3"/>
		<path class="st51" d="M348.2,233.3c-0.7,1.6-0.8,2.9-0.3,3.3c0.3,0.1,0.6,0.1,0.9,0c0.7-0.4,1-1.6,0.5-3"/>
		<path class="st51" d="M342,218.6c-0.7,1.6-0.8,2.9-0.3,3.2c0.3,0.1,0.6,0.1,0.9,0c0.7-0.4,1-1.6,0.5-3"/>
		<path class="st51" d="M320,267.8c-0.7,1.6-0.8,2.9-0.3,3.3c0.3,0.1,0.6,0.1,0.9,0c0.7-0.4,1-1.5,0.5-3"/>
		<path class="st51" d="M325.4,253.7c-0.7,1.6-0.8,2.9-0.3,3.3c0.3,0.2,0.6,0.2,0.9,0c0.7-0.3,1-1.6,0.5-3"/>
		<path class="st51" d="M367.8,278.8c-0.7,1.6-0.8,2.9-0.3,3.3c0.3,0.2,0.6,0.2,0.9,0c0.7-0.3,1-1.5,0.5-3"/>
		<path class="st51" d="M334,275.3c-0.7,1.6-0.8,2.9-0.3,3.3c0.3,0.2,0.6,0.2,0.9,0c0.7-0.3,1-1.5,0.5-3"/>
		<path class="st51" d="M357.4,226.3c-0.7,1.6-0.8,2.9-0.3,3.3c0.3,0.1,0.6,0.1,0.9,0c0.7-0.4,1-1.6,0.5-3"/>
		<path class="st51" d="M378.7,174.6c-0.7,1.6-0.8,2.9-0.3,3.3c0.3,0.1,0.6,0.1,0.9,0c0.7-0.4,1-1.6,0.5-3"/>
		<path class="st51" d="M374.7,229.2c-0.7,1.6-0.8,2.9-0.3,3.3c0.3,0.1,0.6,0.1,0.9,0c0.7-0.4,1-1.6,0.5-3"/>
		<path class="st51" d="M273.8,132.8c-0.9,3.1-0.6,5.3,0.4,5.8c0.5,0.2,1.1,0.1,1.6-0.3c1.1-0.8,1.3-3,0-5.4"/>
		<path class="st51" d="M305.9,180c-0.9,3.1-0.6,5.3,0.4,5.8c0.5,0.2,1.1,0.1,1.6-0.3c1.1-0.8,1.3-3,0-5.4"/>
		<path class="st51" d="M285.7,166.9c-0.9,3.1-0.6,5.3,0.4,5.8c0.5,0.2,1.1,0.1,1.6-0.3c1.1-0.8,1.3-3,0-5.4"/>
		<path class="st31" d="M332.1,301.8c-0.2,6.4-2.7,12.4-6.9,17.2l-0.7,0.8c-0.3,0.3-0.5,0.6-0.8,0.8l-0.8,0.8l-0.8,0.7
			c-0.5,0.4-0.8,0.7-1,0.8c-0.9-0.4-12.5-6-14.3-18.6c-1.4-10.1,4.1-20.4,13.8-25.4C322.2,279.9,332.6,288,332.1,301.8z"/>
		<path class="st32" d="M428.3,253.2C428.3,253.2,428.3,253.2,428.3,253.2l-0.2,0.1"/>
		<path class="st33" d="M351.3,304.6l-2,6.8c-2,6.9-8.4,11.5-15.5,11.5c-0.7,0-1.5-0.1-2.2-0.2c-0.8-0.1-1.5-0.3-2.3-0.5l-18-5.3
			l0,0c-0.1,2.6-0.3,5.1-0.8,7.7c-0.1,0.9-0.3,1.7-0.4,2.6c-0.3,1.8-0.7,3.8-1.1,5.7c-0.1,0.5-0.2,1-0.3,1.5l0,0
			c-0.3,1.4-0.6,2.9-0.9,4.3c-1.6,7.2-3.2,13.6-3.7,15.9c-0.5,1.4-0.8,2.8-0.8,4.3c0,0.1,0,0.2,0,0.3c0,2.8,0.9,5.5,2.5,7.8
			c0.9,1.7,1.5,3.5,1.6,5.4 M307.4,372.2c0,0.5-0.1,1-0.2,1.5c-0.2,0.7-0.5,1.4-1,1.9c-0.9,1-2.1,1.6-3.4,1.9
			c-2.5,0.7-5,1.6-7.4,2.8c-1.6,0.8-3.2,1.9-4.5,3.2l-1.5,1.5c-1.9,1.3-2.3,1.9-3.3,2.4c-0.2,0.1-0.3,0.2-0.5,0.3
			c-0.5,0.3-1.1,0.5-1.7,0.7l0,0c0,0,0,0.1,0,0.1c-0.5,1.4-1.9,2.3-3.4,2.2c-0.6,0-1.2-0.1-1.8-0.4c0,0-0.1,0-0.1-0.1
			c-0.1,0-0.3-0.1-0.4-0.2c-0.1,0.2-0.3,0.3-0.5,0.4l-0.1,0.1l0,0c-0.8,0.5-1.7,0.7-2.6,0.7c-0.7,0-1.3-0.1-1.9-0.4l0,0h-0.1
			c-0.4-0.2-0.8-0.4-1.1-0.7c-0.3,0.2-0.6,0.3-0.9,0.4l0,0l0,0c-0.5,0.2-1,0.2-1.6,0.2c-0.8,0-1.7-0.2-2.4-0.6c-0.1,0-0.2,0-0.3-0.1
			h-0.1c-0.1,0-0.1,0-0.2-0.1c0,0-0.1,0-0.1-0.1l-0.1-0.1c-0.4-0.3-0.8-0.7-1.1-1.1c-0.4,0.1-0.8,0.1-1.2,0.1H264c0,0-0.1,0-0.1,0
			c-1.4,0-2.7-0.6-3.7-1.6l0,0c-2.6,0-4.8-1.7-5.1-3.8c0-0.1-0.1-0.3-0.1-0.5c0.1-2,1.5-3.6,3.5-4c0.5-0.2,1.1-0.2,1.7-0.2h0.2
			c0.2-0.1,0.5-0.2,0.7-0.3c0.6-0.3,1.2-0.6,1.8-0.9c0.5-0.3,1-0.7,1.5-1.1c0.4-0.4,0.8-0.8,1.2-1.3c0.1-0.1,0.3-0.3,0.4-0.4
			c10.3-7,16.5-13.8,16.9-15.8c0.3-1.5,0.4-3,0.4-4.5c0-0.3,0-0.5,0-0.8c0-1.1,0-2.3,0-3.5c0-0.3,0-0.7,0-1s0-0.7,0-1.1
			c0-0.7,0-1.4-0.1-2.1c-0.1-1.4-0.1-2.8-0.2-4.3c0-0.5,0-1-0.1-1.5l0,0c-0.6-9.9-1.7-22-2.5-33.4c-0.1-1.6-0.2-3.1-0.3-4.6
			c-1.5-3.7-2.3-7.6-2.3-11.6V290c0.1-5.2,1.5-10.3,4-14.8c0.1-0.1,0.3-0.2,0.4-0.4c4.1-3.4,9.7-4.5,14.8-3l14.3,4.2l1.4,0.4
			l27.9,8.3c1,0.3,1.9,0.6,2.8,1.1c0.3,0.2,0.6,0.3,0.9,0.5c1.1,0.7,2.1,1.4,3,2.3c0.2,0.2,0.4,0.4,0.5,0.6c0.2,0.2,0.3,0.4,0.5,0.6
			c3.5,4.1,4.6,9.7,3.1,14.9L307.4,372.2z"/>
		<path class="st39" d="M343.4,318.8l-0.1,1c-2.7,2-6,3-9.4,3c-0.7,0-1.5-0.1-2.2-0.2c-0.8-0.1-1.5-0.3-2.3-0.5l-18-5.3l0,0
			c-0.1,2.6-0.3,5.1-0.8,7.7c-0.1,0.9-0.3,1.7-0.4,2.6c-0.3,1.8-0.7,3.8-1.1,5.7c-0.1,0.5-0.2,1-0.3,1.5l0,0
			c-0.3,1.4-0.6,2.9-0.9,4.3c-1.6,7.2-3.2,13.6-3.7,15.9c-0.5,1.4-0.8,2.8-0.8,4.3c0,0.1,0,0.2,0,0.3c0,2.8,0.9,5.5,2.5,7.8
			c0.9,1.7,1.5,3.5,1.6,5.4 M307.5,372.2c0,0.5-0.1,1-0.2,1.5c-0.2,0.7-0.5,1.4-1,1.9c-0.9,1-2.1,1.6-3.4,1.9
			c-2.5,0.7-5,1.7-7.4,2.8c-1.6,0.8-3.1,1.9-4.5,3.2l-1.5,1.5c-1.9,1.3-2.3,1.9-3.3,2.4c-0.1,0.1-0.3,0.2-0.5,0.3
			c-0.5,0.3-1.1,0.5-1.7,0.7l0,0c0,0,0,0.1,0,0.1c-0.5,1.4-1.9,2.3-3.4,2.2c-0.6,0-1.2-0.1-1.8-0.4c0,0-0.1,0-0.1-0.1
			c-0.1,0-0.3-0.1-0.4-0.2c-0.1,0.2-0.3,0.3-0.5,0.4l-0.1,0.1l0,0c-0.8,0.5-1.7,0.7-2.6,0.7c-0.7,0-1.3-0.1-1.9-0.4l0,0h-0.1
			c-0.4-0.2-0.8-0.4-1.1-0.7c-0.3,0.2-0.6,0.3-0.9,0.4c0,0,0,0-0.1,0l0,0c-0.5,0.2-1,0.2-1.6,0.2c-0.8,0-1.7-0.2-2.4-0.6l-0.1,0
			h-0.1c-0.1,0-0.1,0-0.2-0.1c0,0-0.1,0-0.1-0.1l-0.1-0.1c-0.4-0.3-0.8-0.7-1.1-1.1c-0.4,0.1-0.8,0.1-1.2,0.1h-0.2c0,0-0.1,0-0.1,0
			c-1.4,0-2.7-0.6-3.7-1.6l0,0c-2.6,0-4.8-1.7-5.1-3.8c0-0.1,0-0.3-0.1-0.5c0.1-2,1.5-3.6,3.4-4c0,0.9,0.4,1.8,1.1,2.5
			c0.8,0.6,1.7,0.9,2.7,0.8c0,1,0.6,2,1.5,2.5c0.9,0.5,2.1,0.5,2.9-0.1c0,0,0,0.1,0,0.1c0,0.5,0.2,0.9,0.4,1.3
			c0.4,0.8,1.2,1.4,2.2,1.5c1.1,0.1,2.1-0.3,2.9-1.1c0.1,0.2,0.2,0.5,0.4,0.7c0.9,1.6,3,2.1,4.5,1.1c0.5-0.3,0.9-0.7,1.1-1.1
			l0.2,0.3c0.7,0.7,1.8,1,2.8,0.7c0.9-0.3,1.6-1,1.9-1.9c3.8-6,8-8.8,11.1-10.3s5.7-1.8,6.7-4.1s-0.8-4.6-1.7-8.6
			c-0.9-4.1-0.5-8.3,0.9-12.3c2-4.6,3.5-9.5,4.6-14.4c1.6-7.5,2.1-15.2,1.5-22.9c-0.6-4.1-1.1-8.1-1.7-12.2L307.5,372.2z"/>
		<path class="st40" d="M260.1,387.2c-0.1-2.4,1.2-4.6,3.4-5.7c0.3-0.2,0.7-0.3,1.1-0.4c0.4-0.1,0.8-0.2,1.1-0.3
			c-0.4,0.1-0.8,0.2-1.1,0.3c-0.4,0.1-0.7,0.3-1,0.5c-0.7,0.4-1.3,0.8-1.8,1.4c-1,1.2-1.5,2.7-1.4,4.2L260.1,387.2z"/>
		<path class="st40" d="M265.3,388.7c0-1.2,0.3-2.4,1-3.4c0.3-0.5,0.8-0.9,1.3-1.2c0.5-0.3,1-0.5,1.6-0.7c-0.6,0.1-1.1,0.4-1.6,0.7
			c-0.5,0.3-0.9,0.7-1.2,1.2c-0.6,1-0.9,2.1-0.8,3.3L265.3,388.7z"/>
		<path class="st40" d="M272,390.1c-0.1-0.9-0.1-1.8,0-2.7c0.1-0.9,0.5-1.7,1-2.5c-0.9,1.5-1.2,3.4-0.9,5.1L272,390.1z"/>
		<path class="st40" d="M278.3,390c-0.1-0.7-0.1-1.3-0.1-2c0-0.7,0.1-1.3,0.4-2c-0.2,0.6-0.3,1.3-0.3,2c0,0.7,0.1,1.3,0.2,2H278.3z"
			/>
		<path class="st32" d="M351.3,304.6l-2,6.8c-2,6.9-8.4,11.5-15.5,11.5c-0.7,0-1.5-0.1-2.2-0.2c-0.8-0.1-1.5-0.3-2.3-0.5l-18-5.3
			l0,0c-0.1,2.6-0.3,5.1-0.8,7.7c-0.1,0.9-0.3,1.7-0.4,2.6c-0.3,1.8-0.7,3.8-1.1,5.7c-0.1,0.5-0.2,1-0.3,1.5l0,0
			c-0.3,1.4-0.6,2.9-0.9,4.3c-1.6,7.2-3.2,13.6-3.7,15.9c-0.5,1.4-0.8,2.8-0.8,4.3c0,0.1,0,0.2,0,0.3c0,2.8,0.9,5.5,2.5,7.8
			c0.9,1.7,1.5,3.5,1.6,5.4 M307.4,372.2c0,0.5-0.1,1-0.2,1.5c-0.2,0.7-0.5,1.4-1,1.9c-0.9,1-2.1,1.6-3.4,1.9
			c-2.5,0.7-5,1.6-7.4,2.8c-1.6,0.8-3.2,1.9-4.5,3.2l-1.5,1.5c-1.9,1.3-2.3,1.9-3.3,2.4c-0.2,0.1-0.3,0.2-0.5,0.3
			c-0.5,0.3-1.1,0.5-1.7,0.7l0,0c0,0,0,0.1,0,0.1c-0.5,1.4-1.9,2.3-3.4,2.2c-0.6,0-1.2-0.1-1.8-0.4c0,0-0.1,0-0.1-0.1
			c-0.1,0-0.3-0.1-0.4-0.2c-0.1,0.2-0.3,0.3-0.5,0.4l-0.1,0.1l0,0c-0.8,0.5-1.7,0.7-2.6,0.7c-0.7,0-1.3-0.1-1.9-0.4l0,0h-0.1
			c-0.4-0.2-0.8-0.4-1.1-0.7c-0.3,0.2-0.6,0.3-0.9,0.4l0,0l0,0c-0.5,0.2-1,0.2-1.6,0.2c-0.8,0-1.7-0.2-2.4-0.6c-0.1,0-0.2,0-0.3-0.1
			h-0.1c-0.1,0-0.1,0-0.2-0.1c0,0-0.1,0-0.1-0.1l-0.1-0.1c-0.4-0.3-0.8-0.7-1.1-1.1c-0.4,0.1-0.8,0.1-1.2,0.1H264c0,0-0.1,0-0.1,0
			c-1.4,0-2.7-0.6-3.7-1.6l0,0c-2.6,0-4.8-1.7-5.1-3.8c0-0.1-0.1-0.3-0.1-0.5c0.1-2,1.5-3.6,3.5-4c0.5-0.2,1.1-0.2,1.7-0.2h0.2
			c0.2-0.1,0.5-0.2,0.7-0.3c0.6-0.3,1.2-0.6,1.8-0.9c0.5-0.3,1-0.7,1.5-1.1c0.4-0.4,0.8-0.8,1.2-1.3c0.1-0.1,0.3-0.3,0.4-0.4
			c10.3-7,16.5-13.8,16.9-15.8c0.3-1.5,0.4-3,0.4-4.5c0-0.3,0-0.5,0-0.8c0-1.1,0-2.3,0-3.5c0-0.3,0-0.7,0-1s0-0.7,0-1.1
			c0-0.7,0-1.4-0.1-2.1c-0.1-1.4-0.1-2.8-0.2-4.3c0-0.5,0-1-0.1-1.5l0,0c-0.6-9.9-1.7-22-2.5-33.4c-0.1-1.6-0.2-3.1-0.3-4.6
			c-1.5-3.7-2.3-7.6-2.3-11.6V290c0.1-5.2,1.5-10.3,4-14.8c0.1-0.1,0.3-0.2,0.4-0.4c4.1-3.4,9.7-4.5,14.8-3l14.3,4.2l1.4,0.4
			l27.9,8.3c1,0.3,1.9,0.6,2.8,1.1c0.3,0.2,0.6,0.3,0.9,0.5c1.1,0.7,2.1,1.4,3,2.3c0.2,0.2,0.4,0.4,0.5,0.6c0.2,0.2,0.3,0.4,0.5,0.6
			c3.5,4.1,4.6,9.7,3.1,14.9L307.4,372.2z"/>
		<path class="st30" d="M354.6,286.9h31.9c0,0.3,0,0.6,0,0.9c0,0.2,0.1,0.4,0.1,0.6c0,0.6-0.5,0.7-0.5,1.2s0.7,0.6,0.8,1.3
			c0,0.4-0.2,0.7,0,1c0.1,0.1,0.2,0.2,0.2,0.3c0.1,0.2,0.1,0.3,0,0.5h-32.5V286.9z"/>
		<path class="st30" d="M320.9,322.7c1.2-0.9,10.6-8.2,11-21c0.4-14.2-10.7-22.4-11.6-23c0,0,38.4,7.7,50,12.7
			c9.3,0.3,16.2,1.1,16.5,1.4s4.3,13.1,2.5,21.2c-1.2,2.8-3.2,5.1-5.7,6.8l0,0c-0.5,0.4-1.1,0.8-1.7,1.2c-11.8,5-28.3,3.7-28.3,3.7
			c-7-0.6-16.9-1.2-29.7-1.5L320.9,322.7z"/>
		<path class="st52" d="M389.3,314c-1.2,2.8-3.2,5.1-5.7,6.8c-0.6,0.4-1.1,0.8-1.7,1.2c-11.8,5-28.3,3.7-28.3,3.7
			c-7-0.6-16.9-1.2-29.7-1.5l-3-1.3c1.5-1.2,2.9-2.5,4.1-3.9c0.3,0.1,0.5,0.2,0.8,0.4c12.3,0.3,21.7,0.9,28.3,1.5
			c0,0,15.8,1.3,27-3.5c0.6-0.3,1.1-0.7,1.6-1.1c1.5-1,2.8-2.2,3.8-3.7c0.6-0.9,1.2-1.8,1.6-2.8c1.1-5.2-0.3-12.6-1.4-16.8
			C387,293.1,391.1,305.9,389.3,314z"/>
		<path class="st32" d="M389.8,308.2c-0.3-5.2-1.3-10.4-2.9-15.3c-0.3-0.3-7.1-1.2-16.5-1.4c-11.5-5-50-12.7-50-12.7
			c0.9,0.6,12,8.8,11.6,23c-0.2,6.4-2.7,12.5-6.9,17.2c-0.2,0.2-0.3,0.4-0.5,0.5l-0.4,0.4l-0.4,0.4c-0.1,0.1-0.3,0.3-0.4,0.4
			l-0.3,0.3l-0.4,0.4c-0.2,0.2-0.4,0.4-0.6,0.6l-0.1,0.1l-0.4,0.3l0,0l-0.3,0.2l-0.2,0.2l0,0l3,1.4c8,0.2,14.9,0.5,20.6,0.9
			c3.4,0.2,6.5,0.5,9.1,0.7c0,0,1.6,0.1,4.2,0.2c5.7,0.1,16-0.4,24.1-3.8c0.3-0.1,1.7-1.2,1.7-1.2c1.5-1,2.9-2.4,4-3.9
			c0.7-0.9,1.2-1.9,1.7-3C389.8,312.1,389.9,310.2,389.8,308.2z"/>
		<path class="st51" d="M313.5,242.1c0.4,0.6,0.6,1.3,0.6,2c0,1.7-1.5,2.4-1.2,3.7c0.2,0.7,0.7,1.2,1.4,1.5c0.5,0.2,1.1,0.2,1.6-0.1
			c0.5-0.4,0.9-0.9,1-1.6c0.1-1.4-1.3-1.9-1.6-3.7c-0.1-0.6-0.1-1.2,0.1-1.8"/>
		<path class="st51" d="M376.7,263.8c0.4,0.6,0.6,1.3,0.6,2c0,1.7-1.5,2.4-1.2,3.7c0.2,0.7,0.7,1.2,1.4,1.5c0.5,0.2,1.1,0.1,1.6-0.1
			c0.6-0.3,0.9-0.9,1-1.6c0.1-1.4-1.3-1.9-1.6-3.7c-0.1-0.6-0.1-1.2,0.1-1.8"/>
		<path class="st51" d="M348.5,267.8c0.2,0.5,0.2,1,0.1,1.5c-0.3,1.3-1.4,1.6-1.4,2.6c0,0.5,0.3,1,0.7,1.3c0.3,0.2,0.7,0.3,1.1,0.1
			c0.4-0.2,0.8-0.5,0.9-1c0.3-1-0.6-1.6-0.5-3c0-0.5,0.1-0.9,0.3-1.3"/>
		<path class="st51" d="M291.9,291.3c-0.7,1.5-0.8,2.7-0.3,3c0.3,0.1,0.6,0.1,0.8,0c0.6-0.3,0.9-1.4,0.4-2.8"/>
		<path class="st51" d="M253.2,277.1c-0.7,1.5-0.8,2.7-0.3,3c0.3,0.1,0.6,0.1,0.8,0c0.6-0.3,0.9-1.5,0.4-2.8"/>
		<path class="st51" d="M267.9,287.8c-0.7,1.5-0.8,2.7-0.3,3c0.3,0.1,0.6,0.1,0.8,0c0.6-0.3,0.9-1.4,0.4-2.8"/>
		<path class="st51" d="M251.8,295.6c-0.7,2.1-0.5,3.7,0.2,4.1c0.4,0.1,0.8,0.1,1.1-0.1c0.8-0.5,0.9-2.1,0.1-3.8"/>
		<path class="st51" d="M259.9,334.8c-0.4,1.6-0.3,2.8,0.1,3.1c0.2,0.1,0.4,0,0.6-0.1c0.5-0.9,0.5-2,0.1-2.9"/>
		<path class="st51" d="M268.1,308c-0.3,1.1-0.3,1.9,0.1,2c0.2,0.1,0.4,0,0.5-0.1c0.4-0.3,0.5-1,0-1.9"/>
		<path class="st51" d="M303.2,320.6c-0.7,1.5-0.8,2.7-0.3,3c0.3,0.1,0.6,0.1,0.8,0c0.6-0.3,0.9-1.4,0.4-2.8"/>
		<path class="st51" d="M286.4,308.6c-0.5,1.6-0.4,2.8,0.1,3c0.3,0.1,0.6,0.1,0.8-0.1c0.6-0.4,0.7-1.5,0.1-2.8"/>
		<path class="st51" d="M320.5,298.3c-3,2.8-4.9,5.2-4.9,6.1c0,0.5,0.5,0.5,0.9,0.4c1.2-0.4,3.2-2.6,4.7-5.5"/>
		<path class="st51" d="M290.7,335.8c-0.5,1.6-0.4,2.8,0.1,3c0.3,0.1,0.6,0.1,0.8-0.1c0.6-0.4,0.7-1.5,0.1-2.8"/>
		<path class="st51" d="M295.7,360.3c-0.5,1.6-0.4,2.8,0.1,3c0.3,0.1,0.6,0.1,0.8-0.1c0.6-0.4,0.7-1.5,0.1-2.8"/>
		<ellipse class="st53" cx="336" cy="388" rx="20" ry="4.5"/>
		<path class="st54" d="M358.9,345.6l-2.8,38.9c-0.1,1.7-1.2,3.1-2.8,3.7c-12.2,4.1-23.9,4.4-34.9,0.1c-1.5-0.6-2.4-2-2.5-3.6
			l-2.9-39.1H358.9z"/>
		<path class="st55" d="M351.1,383.7c-14.4,6.3-27.9,3.2-30,1.3c-1.1-0.9-1.7-2.1-1.8-3.5c0-0.1-0.5-7.4-0.5-7
			c-0.3-6.6-0.8-14.8-0.5-23.9c1.5,8.9,2.3,17.5,2.9,23.7c0,0.1,0.4,5.2,0.6,6.9c0.2,2.4,2.8,2.6,5.9,3.2
			C335.4,386.2,343.4,385.3,351.1,383.7z"/>
		<path class="st56" d="M358.9,345.6c0,2.3-10.3,4.1-23,4.1s-23-1.8-23-4.1s10.3-4.1,23-4.1S358.9,343.4,358.9,345.6z"/>
		<path class="st57" d="M373.6,353.3v28c-4,0-7.2-3.2-7.2-7.2l0,0v-19h-8.9v-7.2h10.6C371.1,347.9,373.6,350.3,373.6,353.3
			C373.6,353.3,373.6,353.3,373.6,353.3z"/>
	</g>
</g>
<path class="st58" d="M167.8,38.5c0.7,0.4,0.2,0.1-0.3-0.3c-0.5-0.4-1-0.8-1.6-1c-0.9-0.4-1.8-0.8-2.8-1.1c-2.2-0.4-4.5-0.7-6.8-0.7
	c-5.2-0.3-9.9,2-14.4,4.7c-4,2.5-7.5,5.7-10.4,9.4c-1.7,2.2-3,4.7-3.8,7.3c-0.4,1.2-0.7,2.4-0.7,3.6c0.1,1.1,0.3,2.1,0.5,3.2
	c0,1.4,1.1,2.6,2.5,2.6c0.5,0,0.9-0.1,1.3-0.3c0.6-0.3,2-0.4,2.8-0.8c0.8-0.4,1.5-0.8,2.2-1.3c0.4-0.3,3.5-2.7,1.2-1.3
	c1.5-0.8,2.9-1.8,4.2-2.9c1.1-1,2.3-1.9,3.6-2.7c1.6-1,3.1-2.1,4.7-3c3.7-2.3,5.9-2.8,9.6-5.4c2.3-1.7,6.3-2.8,8.1-5.4
	c1.3-0.9,1.6-2.6,0.7-3.9C168.4,38.9,168.1,38.7,167.8,38.5z"/>
<path class="st59" d="M288.8,386c5.6,1.8,11.9,1.6,17.7,1.5c2.9-0.1,5.9-0.3,8.8-0.8c3-0.4,6.4-0.9,9-2.2c1.8-0.9,2.5-3,1.7-4.8
	c-0.5-1.1-1.5-1.8-2.7-2c-2.8-0.4-5.6-0.5-8.4-0.3c-2.9,0-5.8,0.1-8.6,0.4L288.8,386z"/>
<path class="st59" d="M360.5,364.3c-0.1-0.2-0.3-0.4-0.4-0.5c-1-0.7-2.2-1-3.4-0.7c-4.3,0.8-7,3.3-10.3,5.6c-2.5,1.8-5.9,2.6-8.7,4
	c-3.3,1.5-6.5,3.3-7.5,6.6c-0.4,1.2,0,2.6,1,3.4c2.9,2.5,6.9,2.4,10.6,1.6c3.5-0.7,6.9-2,10.1-3.6c5.4-3,11.2-9.6,9-15.6
	C360.7,364.8,360.6,364.6,360.5,364.3z"/>
<path class="st60" d="M357.8,65.8c-5.4-3.3-11.2-5.8-17.3-7.3c-10.8-3-22-4.1-33.1-4.9c-17-1.9-34.1-2.8-51.2-2.8
	c-19.8-0.2-39.6,0.7-59.4,2.7c-16.1,1.6-32.5,3.8-48.2,8.2h-0.1c-0.1,0-0.2,0-0.2,0.1l-0.5,0.2c-5.2,1.5-10.5,3.5-12.9,9
	c-2.1,4.9-2,10.4,0.1,15.3c5,12,19.3,15.2,30.3,16.7c14.1,2,28.6,2,42.9,2.3s28.8,0.1,43.2-0.4c28.8-1,57.6-3.6,86.2-7.9
	c6.3-1,12.6-2.2,18.4-4.8c5.1-2.3,11-6,10.9-12.6C366.9,73.6,362.3,68.8,357.8,65.8z"/>
</svg>
