<svg id="Layer_1" data-name="Layer 1" xmlns="http://www.w3.org/2000/svg" xmlns:xlink="http://www.w3.org/1999/xlink" width="490" height="425" viewBox="0 0 490 425">
  <defs>
    <style>
      .cls-1 {
        fill: #74879e;
      }

      .cls-2 {
        fill: #78efe9;
      }

      .cls-3 {
        fill: #0072ab;
      }

      .cls-4 {
        clip-path: url(#clip-path);
      }

      .cls-5 {
        fill: #63b7e6;
      }

      .cls-6 {
        fill: #f7f7ad;
      }

      .cls-44, .cls-57, .cls-7, .cls-8 {
        fill: none;
      }

      .cls-7, .cls-8 {
        stroke: #49707f;
      }

      .cls-11, .cls-35, .cls-37, .cls-39, .cls-40, .cls-41, .cls-43, .cls-44, .cls-55, .cls-57, .cls-59, .cls-7, .cls-71, .cls-8 {
        stroke-miterlimit: 10;
      }

      .cls-11, .cls-7 {
        stroke-width: 2px;
      }

      .cls-22, .cls-24, .cls-26, .cls-9 {
        fill: #8cc6ec;
      }

      .cls-10 {
        fill: #4f8daf;
        opacity: 0.68;
      }

      .cls-11 {
        fill: #3691ce;
        stroke: #5f8aaa;
      }

      .cls-11, .cls-24 {
        opacity: 0.73;
      }

      .cls-12 {
        fill: #6dc3f7;
      }

      .cls-13 {
        fill: #d6f2ff;
        opacity: 0.53;
      }

      .cls-14, .cls-71 {
        fill: #fff;
      }

      .cls-15 {
        fill: #426c77;
      }

      .cls-16 {
        fill: #1775bb;
      }

      .cls-17 {
        fill: #3c3e3f;
      }

      .cls-18 {
        fill: #26abe2;
      }

      .cls-19 {
        fill: #b3cddd;
      }

      .cls-20 {
        fill: #0f6ea8;
      }

      .cls-21 {
        fill: #a7b4bc;
      }

      .cls-22 {
        opacity: 0.43;
      }

      .cls-23 {
        fill: #b9d9ea;
      }

      .cls-25 {
        fill: #3a9ad6;
      }

      .cls-26 {
        opacity: 0.58;
      }

      .cls-27 {
        fill: #b2d5f2;
      }

      .cls-28 {
        fill: #62b7e6;
      }

      .cls-29 {
        opacity: 0.2;
      }

      .cls-30 {
        fill: #e51e25;
      }

      .cls-31, .cls-55 {
        fill: #f7d8d0;
      }

      .cls-32 {
        fill: #926156;
      }

      .cls-33 {
        fill: #1d4070;
      }

      .cls-34 {
        fill: #e5159a;
      }

      .cls-35 {
        fill: #cd264f;
        stroke: #931d42;
      }

      .cls-35, .cls-39, .cls-55, .cls-57 {
        stroke-width: 0.75px;
      }

      .cls-36 {
        fill: #a21c3d;
      }

      .cls-37, .cls-38, .cls-39 {
        fill: #fcc01a;
      }

      .cls-37, .cls-39, .cls-40 {
        stroke: #634a1d;
      }

      .cls-40 {
        fill: #c6922c;
      }

      .cls-41, .cls-60 {
        fill: #f6e18c;
      }

      .cls-41 {
        stroke: #756428;
      }

      .cls-42 {
        fill: #634a1d;
      }

      .cls-43 {
        fill: #85618e;
        stroke: #056270;
      }

      .cls-44 {
        stroke: #4b2e15;
      }

      .cls-45 {
        fill: #4b2e15;
      }

      .cls-46 {
        fill: #c0b2a2;
      }

      .cls-47 {
        fill: #a98;
      }

      .cls-48 {
        fill: #f0ae5e;
      }

      .cls-49 {
        fill: #3b739d;
      }

      .cls-50 {
        fill: #1d5f83;
      }

      .cls-51 {
        fill: #de9340;
      }

      .cls-52 {
        fill: #d4cab6;
      }

      .cls-53 {
        fill: #c5bca9;
      }

      .cls-54 {
        fill: #e8ddc5;
      }

      .cls-55, .cls-57 {
        stroke: #7f441d;
      }

      .cls-56 {
        fill: #7f441d;
      }

      .cls-58 {
        fill: #342517;
      }

      .cls-59 {
        fill: #ede841;
        stroke: #48451b;
      }

      .cls-61 {
        fill: #756428;
      }

      .cls-62 {
        fill: #e9b7ac;
      }

      .cls-63 {
        fill: #eee955;
      }

      .cls-64 {
        fill: #737631;
      }

      .cls-65 {
        fill: #411312;
      }

      .cls-66 {
        fill: #8c3e36;
      }

      .cls-67 {
        fill: #f5968e;
      }

      .cls-68 {
        fill: #d15346;
      }

      .cls-69 {
        fill: #fff6f3;
      }

      .cls-70 {
        fill: #d26653;
      }

      .cls-71 {
        stroke: #3d2e17;
        stroke-width: 0.5px;
      }

      .cls-72 {
        fill: #3d2e17;
      }

      .cls-73 {
        fill: #ba7d70;
      }

      .cls-74 {
        fill: #db9d8e;
      }

      .cls-75 {
        fill: #f05642;
      }

      .cls-76 {
        fill: #b11f24;
      }
    </style>
    <clipPath id="clip-path">
      <polygon class="cls-1" points="351.5 28.04 138.5 28.04 32 212.5 138.5 396.96 351.5 396.96 458 212.5 351.5 28.04"/>
    </clipPath>
  </defs>
  <g>
    <polygon class="cls-2" points="359.83 13.61 130.17 13.61 15.34 212.5 130.17 411.39 359.83 411.39 474.66 212.5 359.83 13.61"/>
    <polygon class="cls-3" points="353.33 24.87 136.67 24.87 28.34 212.5 136.67 400.13 353.33 400.13 461.66 212.5 353.33 24.87"/>
    <g>
      <polygon class="cls-1" points="351.5 28.04 138.5 28.04 32 212.5 138.5 396.96 351.5 396.96 458 212.5 351.5 28.04"/>
      <g class="cls-4">
        <g>
          <g id="Wet_Bathroom_Area" data-name="Wet Bathroom Area">
            <g id="BG">
              <rect class="cls-5" x="2.17" y="281.06" width="477.83" height="147.22"/>
              <rect class="cls-6" x="2.05" y="-52.37" width="477.95" height="335.08"/>
              <g>
                <line class="cls-7" x1="478.82" y1="283.56" x2="2.15" y2="284.24"/>
                <line class="cls-7" x1="478.82" y1="292.46" x2="2.15" y2="292.67"/>
                <line class="cls-8" x1="1.06" y1="399.96" x2="479.9" y2="402.11"/>
                <rect class="cls-9" x="2.12" y="284.17" width="477.87" height="8.37"/>
                <line class="cls-8" x1="294.35" y1="293.27" x2="312.49" y2="428.15"/>
                <line class="cls-8" x1="340.04" y1="292.54" x2="403.93" y2="428.65"/>
                <line class="cls-8" x1="384.77" y1="292.54" x2="478.89" y2="393.95"/>
                <line class="cls-8" x1="194.59" y1="292.54" x2="186.4" y2="428.15"/>
                <line class="cls-8" x1="246.08" y1="291.92" x2="246.08" y2="428.15"/>
                <line class="cls-8" x1="157.27" y1="292.87" x2="98.15" y2="427.53"/>
                <line class="cls-8" x1="110.29" y1="292.69" x2="2.38" y2="410.64"/>
                <line class="cls-8" x1="479.37" y1="355.79" x2="1.59" y2="353.86"/>
                <line class="cls-8" x1="479.85" y1="312.86" x2="1.82" y2="313.51"/>
              </g>
            </g>
            <g id="water">
              <path class="cls-10" d="M356.62,341.74c1.86-.63,2.13-.71,9.06-1.06s24.77-1,26.77-3.5-7.3-2.63-12.1-3.17-11.33-1.12-12.27-2-.4-.83,4.94-2.65c8.45-2.89-10.54-4.9-20.8-5.6a411.24,411.24,0,0,0-69.47.29c-33.47,3.07-32.91,6-33,6.76-.14,1.24,5.19,2.57,15.93,2.32,3.69-.08,16.27.83,13.74,2.42,0,0-.94.47-4.8.7s-9.42.47-6.5,2.89c1.76,1.47,19,7.37,54.26,7.08C322.38,346.22,342.68,346.42,356.62,341.74Z"/>
              <path class="cls-11" d="M357.47,340.79c1.87-.63,2.13-.71,9.07-1.06s24.26-.35,26.26-2.83-6.8-3.3-11.6-3.83-11.33-1.12-12.26-2-.94-1.18,4.93-2.65-10.53-4.89-20.8-5.6a410.5,410.5,0,0,0-69.47.3c-33.46,3.06-33.91,6.62-34,7.36-.14,1.24,2.4,1.46,16.94,1.71,3.69.07,16.26.83,13.73,2.42,0,0-.93.47-4.8.71s-9.07,1.3-8,2.89,20.47,7.37,55.77,7.07C323.24,345.27,343.54,345.47,357.47,340.79Z"/>
              <path class="cls-12" d="M349.12,338.75s1.61-.57,6.85-.85,18.31-.28,19.82-2.26-5.13-2.64-8.75-3.06-8.56-.89-9.26-1.6-.71-.94,3.72-2.12-7.95-3.91-15.7-4.47-22.43-2.2-52.43.23c-19.19,1.56-23.61,3-24.76,5.51-.15.31.2,1.32,11.88,1.74,2.8.1,12.27.66,10.36,1.93a10.93,10.93,0,0,1-3.62.57c-2.92.19-6.85,1-6,2.3s15.45,5.89,42.09,5.65C323.28,342.32,338.66,342.51,349.12,338.75Z"/>
              <path class="cls-13" d="M341.62,336.8a19,19,0,0,1,4.85-.68c3.72-.22,13-.22,14.08-1.81s-3.64-2.11-6.22-2.45-6.07-.71-6.57-1.28-.5-.75,2.64-1.69-5.64-3.13-11.14-3.58-15.93-1.77-37.23.19c-13.62,1.24-16.76,2.4-17.57,4.4-.11.25.14,1.06,8.43,1.4,2,.08,8.72.53,7.36,1.54a6.87,6.87,0,0,1-2.57.46c-2.08.15-4.86.83-4.29,1.84s11,4.71,29.88,4.52C323.27,339.66,334.19,339.82,341.62,336.8Z"/>
              <path class="cls-14" d="M390.83,336.54c-.79.51-2.17,1.61-8.1,1.68-4.16.06-16.27.12-20.17,1.14,0,0,.71-1,8.05-1.45s15.31.28,18-1.17-.62-2.07-.62-2.07S392.47,335.49,390.83,336.54Z"/>
              <path class="cls-14" d="M345.93,341.82a104.53,104.53,0,0,1-38.13,1.72S327.4,345,345.93,341.82Z"/>
              <path class="cls-14" d="M298.86,343.39s-21.76-.82-28.4-5.83C270.46,337.56,284.6,343,298.86,343.39Z"/>
            </g>
            <g id="bucket">
              <path class="cls-11" d="M360.06,315.64c-10-1.32-34.28-7.75-5.75-15.13s54.07-1.19,55.52,3.64-6.34,4.47-2.9,6.66,14,1.55,13.84,4.83-4.1,7.57,4.29,10,9.78,1.17,9.69,1.9c-.58,4.66-17.8-.53-28.29.1a112.67,112.67,0,0,1-17.91-.18c-5-.29-7.22-1.2-6-8.29C383.38,314.59,375,317.62,360.06,315.64Z"/>
              <path class="cls-15" d="M396.88,308c0,2.52-10.13,6-22.09,6s-21.66-2.05-21.66-4.57,9.7-4.58,21.66-4.58S396.88,305.5,396.88,308Z"/>
              <path class="cls-16" d="M350.49,259.67,357,308.54s3.64,4.74,19,4.47,20.51-2.92,21-5,6.84-48.32,6.84-48.32S376.83,268.43,350.49,259.67Z"/>
              <path class="cls-17" d="M405.05,257.88c-.63,4.35-12.4,8-27.7,8s-27.41-3.58-27.69-8c-.66-10.25,12.4-8,27.69-8S406.46,248.18,405.05,257.88Z"/>
              <path class="cls-16" d="M407.83,255.6c-.7,4.35-13.7,8-30.59,8s-30.27-3.58-30.58-8c-.73-10.25,13.69-8,30.58-8S409.38,245.9,407.83,255.6Z"/>
              <ellipse class="cls-18" cx="377.24" cy="252.6" rx="30.59" ry="7.98"/>
              <ellipse class="cls-16" cx="377.11" cy="252.97" rx="26.62" ry="6.06"/>
              <ellipse class="cls-19" cx="377.44" cy="254.42" rx="25.51" ry="4.52"/>
              <path class="cls-20" d="M350.49,259.59s7.83,38.52,14.22,42.83c7.29,4.92,27.94,7.53,30.84,6.82,2.09-.51-4.31,3.41-19.63,3.68s-19-4.47-19-4.47l-6.47-48.86"/>
              <path class="cls-17" d="M347.11,257.52s2.26,26.07,22.14,30,35.88-5.71,37.68-28.87l-1.73,1.43s-1.36,26.81-27.74,25.67-26.44-23-28.34-25.6Z"/>
              <path class="cls-21" d="M346.66,256.25s2.28,26.06,22.33,30,36.47-5.71,38.29-28.87l-2,1.44s-1.38,26.81-28,25.66-26.34-22.95-28.25-25.6Z"/>
              <path class="cls-22" d="M384.23,315.32s1,4.47,0,7.38c-.89,2.67,4.71,4.58,12.45,3.13s18.65,4.29,21.31-3.13c1.81-5.08-.23-8.32-13.68-9.77,0,0-3.11-1-.58-4.63s.1-6.17-3.41-6.77c0,0,2.91.48,1.45,5.32s-2.66,7.21,1.09,7.74c4.67.67,9.57,1.9,12.1,3.39,3.05,1.79.49,4.79-2.78,4.44-6.66-.73-10.16-3.84-13.92-3.84s-10.15,3.39-10.83,1S388.34,317.74,384.23,315.32Z"/>
              <path class="cls-23" d="M385.08,319.55a4.94,4.94,0,0,1,.85,3.87c-.59,1.93,3.27,2.06,5.93,1.7s9.29-1.07,14.82.16c0,0-9.44-1.46-14.82-1s-4.65-1.09-4.65-1.09A13.48,13.48,0,0,0,385.08,319.55Z"/>
              <path class="cls-23" d="M422.46,327.66s6.59,1.78,9.44.84C431.9,328.5,424.88,330,422.46,327.66Z"/>
              <path class="cls-24" d="M352.84,303.07S328,310.48,363.24,315C363.24,315,339.29,309.61,352.84,303.07Z"/>
              <path class="cls-25" d="M380.24,322.34c0,3.57-3.27,6.62-11.13,6.62-5.87,0-12.95-2.22-12.34-6.62.74-5.37,8.85-1.17,11.73-1.28C373.21,320.87,380.19,317.3,380.24,322.34Z"/>
              <path class="cls-26" d="M379.63,322c0,3.07-3.08,5.69-10.48,5.69-5.52,0-12.19-1.91-11.62-5.69.7-4.63,8.33-1,11.05-1.1C373,320.69,379.59,317.62,379.63,322Z"/>
              <ellipse class="cls-27" cx="366.37" cy="323.69" rx="2.37" ry="4.11" transform="translate(-97.14 479.13) rotate(-60)"/>
              <path class="cls-28" d="M358.58,252.77s-5.91,1-.72,3.65C357.86,256.42,355.44,253.93,358.58,252.77Z"/>
              <path class="cls-28" d="M396,252.51s5.92,1,.73,3.65C396.73,256.16,399.15,253.67,396,252.51Z"/>
            </g>
          </g>
          <g>
            <ellipse class="cls-29" cx="151.2" cy="368.17" rx="41.02" ry="15.26"/>
            <g>
              <polygon class="cls-30" points="139.81 139.23 130.79 196.27 122.41 200.05 129.06 144.16 139.81 139.23"/>
              <g>
                <polygon class="cls-31" points="171.73 355.31 178.97 359.69 184.22 363.91 163.44 368.39 151.94 365.47 151.7 357.39 168.08 351.77 171.73 355.31 171.73 355.31"/>
                <polygon class="cls-32" points="171.81 355.1 178.97 359.69 177.86 359.69 170.66 355.1 171.81 355.1"/>
                <g>
                  <path class="cls-33" d="M150.8,363.34s.31-.91,1.79-.86c0,0-1.68,2.12,6.76,4.08l1.53,1-6.09-.55-4.15-1.86Z"/>
                  <path class="cls-34" d="M159.16,367a14.65,14.65,0,0,1,15.28-8.67c11.57,1,16.45,10.47,10.51,12.83s-19.42-.21-29-2.6a60.62,60.62,0,0,1-5.8-2.22,2,2,0,0,1,.67-3S149.92,364.79,159.16,367Z"/>
                </g>
                <path class="cls-35" d="M171.84,319.37s.65,7-.17,8.87-1.09,9.14.5,14.08c.83,2.56-1.2,7.4-1.2,7.4s2.73,3.33,1.85,5.81c0,0-10.64-4.45-18.6,3.86,0,0-2.46,3.16-.59,5a7.81,7.81,0,0,1-4-2.67A5.72,5.72,0,0,1,149,356c.91-1.75,0-6,0-6s-2-4.3.35-7.62c.58-.79.24-19.32.24-19.32l-.12-7.15H170.3Z"/>
                <g>
                  <polygon class="cls-31" points="136.94 360.4 143.96 364.77 149.04 369 128.9 373.48 117.74 370.56 117.93 364.4 133.39 356.86 136.93 360.4 136.94 360.4"/>
                  <polygon class="cls-32" points="137.54 360.74 144.7 365.33 143.58 365.33 136.39 360.74 137.54 360.74"/>
                  <g>
                    <path class="cls-33" d="M116.27,368.78s.3-.93,1.78-.89c0,0-1.68,2.18,6.78,4.17l1.53,1-6.11-.55-4.15-1.89Z"/>
                    <path class="cls-34" d="M124.64,372.51A14.77,14.77,0,0,1,140,363.6c11.6,1,16.47,10.69,10.51,13.12s-19.47-.19-29.1-2.62a59.12,59.12,0,0,1-5.81-2.26,2,2,0,0,1,.69-3.06S115.38,370.26,124.64,372.51Z"/>
                  </g>
                  <path class="cls-35" d="M139.12,322.49s-1.52,11.36,0,17.1,2.3,9.32,1.42,12.18c-.66,2.18,1.68,5.33,1.68,5.33s3.44,8.52-2.76,5.38c-1.83-.93-3.15-2.51-8.54-1.34s-12.18,8.31-12.18,8.31-4.81-.81-1-8.1c1.84-3.52,1.77-4.21.31-6.85-2-3.53-2.48-7.11-.31-12.08l.18-24.62Z"/>
                  <g>
                    <path class="cls-36" d="M170.62,319.37l1.44,3.72a45.39,45.39,0,0,1-22.39,3.47v-7.19Z"/>
                    <path class="cls-36" d="M139.46,322.15l-.42,4.43s-8.52,2.84-21,0l0-7.13Z"/>
                  </g>
                </g>
              </g>
              <path class="cls-37" d="M187.74,135.75c-.33,3.56-1.26,12-1.71,12.25,0,0,3.23,11.07-.74,21.46a28.9,28.9,0,0,1-3.65,4.58c-3.11,2.6-6,3-11.33,4.88,0,0-2.74,5.63-2.77,8-.1,8,8.51,39.45,8.51,39.45s10.94,74.8,10.6,90.91c-.06,2.69-25,7.57-42.36,6.77-29.32-1.35-40.6-4.3-44.25-5.59A1.7,1.7,0,0,1,99,316.39c1.93-6.44,4.43-36.57,3.77-58.42-1-34.83,11.33-51.68,21.61-65.27l5-9,2.77-7.92a194.27,194.27,0,0,0,3-19.94L137,140.56c.52-5.11,1.83-12.58,1.09-18.09l17.28-6.93s8.84-3.31,16.19-1.06,14.31,10.92,15.86,13Z"/>
              <path class="cls-38" d="M133.09,125.67a21.87,21.87,0,0,1,6.79-3.2c4-1.07,6.29-1.44,6.29-1.44l-3.67,19.42-7.59,4.45Z"/>
              <path class="cls-39" d="M141.59,134.11s-10.41,16.92-4.91,32.54C134.39,159,134.8,148.19,141.59,134.11Z"/>
              <path class="cls-39" d="M140.09,173.49c-.93-1.61-1.88-3.3-1.88-3.3a24.73,24.73,0,0,1-1.53-3.54l0,.13a33.26,33.26,0,0,0,2.72,6.36A1.28,1.28,0,0,1,140.09,173.49Z"/>
              <g>
                <g>
                  <path class="cls-37" d="M180.21,239.71s-2.28-5.55-1.43-23.49c.8-16.62,1.46-28.56,1.46-28.56l9.28-62.09s10.81,12.33,13.42,20.81c0,0,3.19,7.88-3.26,29.47l-4.22,21.31s-1.05,20.87,1,37Z"/>
                  <path class="cls-40" d="M188.65,244.38c-4.11,1.25-7.92,1.82-8.19.84s3.13-3.14,7.24-4.39,8.59-1.51,8.85-.53S192.76,243.13,188.65,244.38Z"/>
                </g>
                <path class="cls-41" d="M193.15,241c-2.26,0-6.2.32-12.71,3.72l-.76-8.14c1.07-1,3.94-2.3,7.25-3.22,4-1.12,8.69-.8,9.63-.22v7.42C196.59,241,193.48,241,193.15,241Z"/>
                <polygon class="cls-38" points="184.96 125.57 198.03 142.29 182.96 150.65 171 141.41 184.96 125.57"/>
                <g>
                  <path class="cls-38" d="M188.51,191.63s5.44,1.15,7,5.53"/>
                  <path class="cls-42" d="M188.52,191.58a11.18,11.18,0,0,1,4.4,1.65,5.84,5.84,0,0,1,1.82,1.61,4.28,4.28,0,0,1,.77,2.31l-.09,0c-.54-.62-.95-1.2-1.46-1.72a20.48,20.48,0,0,0-1.51-1.59,11.5,11.5,0,0,0-1.87-1.25,12.2,12.2,0,0,0-2.08-1Z"/>
                </g>
              </g>
              <g>
                <path class="cls-43" d="M185.41,128c-.1.57,1,12.49.24,20.09,0,0,.06,2.59,2.13,2.51,0,0,1.62.25,2-2.61.64-4.5.26-19.7-1.61-21S186.08,124.17,185.41,128Z"/>
                <path class="cls-44" d="M172.55,181.81s6.39,2.4,10.92-1a18.44,18.44,0,0,0,7.21-15.25c-.15-2.77-.87-10.89-1-14-.05-1.51,0-3.35,0-3.35s-2.42.25-11.72-1-13.45-3-13.45-3"/>
                <path class="cls-45" d="M138,172.55a14.48,14.48,0,0,0,5.22,2.57,23.13,23.13,0,0,0,5.72.9,41.57,41.57,0,0,0,5.8-.26,29.2,29.2,0,0,1,6.13-.14,15.25,15.25,0,0,1,6,1.8,9.1,9.1,0,0,1,1.32,1l1.12,1c.75.61,1.5,1.22,2.29,1.75a8.75,8.75,0,0,0,5.24,1.68,11.37,11.37,0,0,0,5.45-1.84l.05.08a11.1,11.1,0,0,1-5.45,2.28,9.36,9.36,0,0,1-5.7-1.54,24.42,24.42,0,0,1-2.43-1.74,17.36,17.36,0,0,0-2.34-1.8,14.29,14.29,0,0,0-5.66-1.6c-3.95-.49-7.9.57-11.89.19a23.38,23.38,0,0,1-5.84-1.17,13.88,13.88,0,0,1-5.11-3Z"/>
                <path class="cls-43" d="M151.36,117.23a5.67,5.67,0,0,1,4.39-.82,70.17,70.17,0,0,1,2.34,24.31s-2.06,3.76-4.75-.36C153.34,140.36,155.31,135.14,151.36,117.23Z"/>
              </g>
              <path class="cls-31" d="M184.23,243.61a24,24,0,0,1,9-2l1,3.44,4.48,8.18.51,2.88-.12,1.05-9.29,6.19L186,254.89Z"/>
              <g>
                <g>
                  <polygon class="cls-46" points="274.83 314 271.39 318.31 105.54 195.67 107.64 193.04 108.98 191.36 274.46 313.72 274.83 314"/>
                  <polygon class="cls-47" points="274.46 313.72 273.11 315.4 107.64 193.04 108.98 191.36 274.46 313.72"/>
                  <path class="cls-48" d="M93.74,179.35a5.16,5.16,0,0,0-3.21-1.51,3,3,0,0,0-2.74,3.29,5.38,5.38,0,0,0,1.94,3,31.64,31.64,0,0,0,6.09,4.41l3.71-4.47Zm-2.24,3.88c-1.19-1.15-1.69-2.54-1.12-3.1s2-.07,3.2,1.09,1.69,2.54,1.12,3.09S92.7,184.38,91.5,183.23Z"/>
                  <path class="cls-49" d="M112,193.75l-3.7,4.28a1.39,1.39,0,0,1-1.88.21l-.7-.53-10.93-8.36a1.26,1.26,0,0,1-.18-1.85l2.76-3.22.63-.75a1.41,1.41,0,0,1,1.86-.24l12,8.57A1.28,1.28,0,0,1,112,193.75Z"/>
                  <path class="cls-50" d="M112,193.75l-3.7,4.28a1.39,1.39,0,0,1-1.88.21l-.7-.53a4.46,4.46,0,0,0,2.24-3.29c.07-1.67-1.31-3-2.61-4.07-2.21-1.82-4.5-3.57-6.86-5.21a11.86,11.86,0,0,1-1.12-.86l.63-.75a1.41,1.41,0,0,1,1.86-.24l12,8.57A1.28,1.28,0,0,1,112,193.75Z"/>
                  <path class="cls-51" d="M93.94,180.94c-1.6-1.57-3.57-2.22-4.39-1.44s-.19,2.7,1.41,4.28,3.56,2.22,4.39,1.44S95.53,182.52,93.94,180.94Zm.76,3.37c-.57.56-2,.07-3.2-1.08s-1.69-2.54-1.12-3.1,2-.07,3.2,1.09S95.27,183.76,94.7,184.31Z"/>
                </g>
                <g>
                  <path class="cls-52" d="M346.77,323.51c0,.12,0,.25,0,.37s0,.41-.08.62a13.4,13.4,0,0,1-.6,2.16c-.27.76-.56,1.53-.75,2.29l0,.16a6.1,6.1,0,0,0-.14.72,19.41,19.41,0,0,1-.36,3,.88.88,0,0,0-.05.15c0,.11-.08.21-.13.32a3.83,3.83,0,0,1-2.58,2l-.23.06a5.18,5.18,0,0,1-1.11.13,12.81,12.81,0,0,1-4.55-1.14,5.31,5.31,0,0,1-.32,1.07h0l-.08.15a7.11,7.11,0,0,1-4.61,3.57h0a8.38,8.38,0,0,1-1.56.28l-.23,0h-.16c-2.83.16-5.62-.75-8.38-1.47A63,63,0,0,0,308.65,336h0a63,63,0,0,0-8.58.1c-1.1.09-2.18.21-3.27.35l-.58.08c-1,.15-2.07.31-3.11.44h0a23.72,23.72,0,0,1-4.37.23c-.3,0-.61,0-.91-.07a9.89,9.89,0,0,1-6.25-2.93s0,0,0,0a6.37,6.37,0,0,1-1.07-1.58,5.07,5.07,0,0,1-1.18.38,6.05,6.05,0,0,1-2.08,0,7.38,7.38,0,0,1-5.4-4.09c-1.45-3.17-.61-7.06,1.48-9.85a18.29,18.29,0,0,1,8.52-5.81c3.47-1.27,7.33-1.93,10.85-.8a20,20,0,0,0,4.06,1.25,8.41,8.41,0,0,0,5.72-2.14,57.18,57.18,0,0,1,4.87-3.92l.12-.07,0,0a8.41,8.41,0,0,1,.79-.42l.07,0a11.5,11.5,0,0,1,4.08-1.1l.32,0a11.5,11.5,0,0,1,4.12.5,5,5,0,0,1,.54.2c.19.06.37.14.55.21l.07,0c.73.31,1.44.67,2.15,1l.45.22c.39.21.8.41,1.2.6h0a13.62,13.62,0,0,0,2.51.95h0c.23.06.46.12.69.16,1.48.27,3,.16,4.51.45h0a5.56,5.56,0,0,1,.7.19h.09a5.41,5.41,0,0,1,1,.46,8.43,8.43,0,0,1,2.51,2.76l.05.09c.23.34.45.68.68,1a7.83,7.83,0,0,0,1.44,1.65c.2.16.41.31.62.45a6,6,0,0,0,.79.42h0a.11.11,0,0,0,.06,0,25.11,25.11,0,0,0,4.23,1.24c2,.53,4.12,1.52,4.82,3.45A4.29,4.29,0,0,1,346.77,323.51Z"/>
                  <path class="cls-53" d="M279.3,333.2a6.11,6.11,0,0,1-2.09,0,6.45,6.45,0,0,1-.72-1.25,17,17,0,0,1-.73-12.36l1.21-.13A21.39,21.39,0,0,0,279.3,333.2Z"/>
                  <path class="cls-53" d="M288.72,337.43c-.3,0-.6,0-.9-.07a10,10,0,0,1-6.26-2.93s0,0,0,0a16,16,0,0,1-2.71-6.91,45.36,45.36,0,0,1-.28-8.8l1.39-.5c.11,4.67.3,9.6,2.82,13.53A21.49,21.49,0,0,0,288.72,337.43Z"/>
                  <path class="cls-53" d="M293.7,335.34a14.45,14.45,0,0,0,2.51,1.42c-1,.15-2.07.31-3.11.44h0a10.52,10.52,0,0,1-4.87-3.43c-1.74-2.4-1.89-5.54-2.37-8.46s-1.59-6.12-4.28-7.35l1.58-1.09a6.36,6.36,0,0,1,3.49,4.28c.56,1.82.67,3.75,1.14,5.6A15.16,15.16,0,0,0,293.7,335.34Z"/>
                  <path class="cls-53" d="M308.63,336.22a64.66,64.66,0,0,0-8.58.11,23.8,23.8,0,0,1-9.34-13.41,26.21,26.21,0,0,0-1.42-5c-.74-1.55-2.11-2.92-3.73-3a2.52,2.52,0,0,1,2.68.08,6.16,6.16,0,0,1,1.93,2.18c2.37,4,2.93,9.11,5.74,12.8C298.94,334,303.84,335.44,308.63,336.22Z"/>
                  <path class="cls-53" d="M331.12,339.09a8.38,8.38,0,0,1-1.56.28l-.23,0h-.16c-2.58-3-6.43-4.62-10.26-5.62-4.14-1.08-8.45-1.52-12.52-2.84a21.57,21.57,0,0,1-14.13-14.17c9.07,11.81,15.47,12.73,21.8,14.15S327,334.16,331.12,339.09Z"/>
                  <path class="cls-53" d="M341.8,335.31a5.18,5.18,0,0,1-1.11.13,12.81,12.81,0,0,1-4.55-1.14,5.31,5.31,0,0,1-.32,1.07h0l-.08.15a58.29,58.29,0,0,0-10.57-3.85c-5.95-1.64-14.28-2.79-19.63-6.05C315.83,328.54,330.13,328.62,341.8,335.31Z"/>
                  <path class="cls-53" d="M345.29,329.11a6.1,6.1,0,0,0-.14.72,19.41,19.41,0,0,1-.36,3,.88.88,0,0,0-.05.15,38.23,38.23,0,0,0-28.39-9.45c-3.49.31-7.05,1.09-10.44.23-6.78-1.73-10.86-9.48-17.78-10.58,3-.47,6,1.12,8.4,3s4.61,4.09,7.43,5.28c4.7,2,10.07.65,15.18.27A40.19,40.19,0,0,1,345.29,329.11Z"/>
                  <path class="cls-53" d="M346.77,323.51a29.09,29.09,0,0,0-13.09-4.31c-4.7-.28-9.38.52-14.06,1s-8.66,1.23-14-.92c6.65.88,13.92-1.23,20.94-2a59.94,59.94,0,0,1,9.38-.07c.5,0,1,.09,1.51.17a25.11,25.11,0,0,0,4.23,1.24c2,.53,4.12,1.52,4.82,3.45A4.29,4.29,0,0,1,346.77,323.51Z"/>
                  <path class="cls-53" d="M333.88,313.86a33.48,33.48,0,0,0-8.36-.31c-3.47.52-6.61,2.26-9.88,3.54s-8.61,1.78-11.82.39a22.43,22.43,0,0,0,11.87-2.24,50.15,50.15,0,0,1,9.83-4.29,13.34,13.34,0,0,1,4.52-.45h0l.14,0h.09a5.41,5.41,0,0,1,1,.46,8.43,8.43,0,0,1,2.51,2.76Z"/>
                  <path class="cls-53" d="M320.8,308.14a28.27,28.27,0,0,0-6.9,2.84c-3.8,2.07-6,5.52-11.91,5.11,3-.72,5.55-2.55,7.94-4.39s4.81-3.79,7.71-4.8l.12,0A28.78,28.78,0,0,1,320.8,308.14Z"/>
                  <path class="cls-53" d="M312.7,306a38.43,38.43,0,0,0-4.3,4.08c-2.19,2.25-5.14,5.37-9.76,4.88,4.51-.73,6.57-4.41,8.62-6.87.21-.25.43-.49.65-.74v0l.31-.18.07,0a11.5,11.5,0,0,1,4.08-1.1Z"/>
                  <path class="cls-54" d="M273.79,319.47a11.58,11.58,0,0,0-1.35,6.67A8.7,8.7,0,0,0,275.7,332a20.54,20.54,0,0,1-1.58-5.95A12.38,12.38,0,0,1,275,320Z"/>
                  <path class="cls-54" d="M280.64,319.32c1,1.76,1.15,3.85,1.46,5.85a19.22,19.22,0,0,0,1.83,6,9.83,9.83,0,0,0,4.4,4.41,14.87,14.87,0,0,1-3.58-4.82,12.71,12.71,0,0,1-.66-4.21,30.26,30.26,0,0,0-.24-4.26,6.94,6.94,0,0,0-1.81-3.8A3.06,3.06,0,0,1,280.64,319.32Z"/>
                  <path class="cls-54" d="M287.87,317.76a3,3,0,0,0-1.38-1.16,1.32,1.32,0,0,0-1.59.52,7.76,7.76,0,0,1,3.83,4.59,40.49,40.49,0,0,1,1.32,6,12.14,12.14,0,0,0,1.8,4.81,7.47,7.47,0,0,0,4.73,3,8.26,8.26,0,0,1-4.64-4.77,33.1,33.1,0,0,1-1.66-6.64A15.82,15.82,0,0,0,287.87,317.76Z"/>
                  <path class="cls-54" d="M309.75,335.38c1.67.18,3.36.11,5,.23a43.84,43.84,0,0,1,10,2.57c-2-1.58-7.33-3.46-9.8-3.85-2.13-.35-4.32-.21-6.43-.68a19.54,19.54,0,0,1-5.23-2.21c-3.52-2-6.93-4.37-9.24-7.68a21.9,21.9,0,0,0,6.34,7.85A18.69,18.69,0,0,0,309.75,335.38Z"/>
                  <path class="cls-54" d="M307.75,324.62a30.8,30.8,0,0,0,10.53,2.53,87.3,87.3,0,0,1,10.89,1.33c4.66,1.06,8.86,3.19,13,5.29a27.6,27.6,0,0,0-8.21-5,35.09,35.09,0,0,0-8.19-2.75,42,42,0,0,0-7-.34A85.85,85.85,0,0,1,307.75,324.62Z"/>
                  <path class="cls-54" d="M346.68,324.5a13.4,13.4,0,0,1-.6,2.16,41.26,41.26,0,0,0-10.83-4.2,64.23,64.23,0,0,0-14-1.61,36.59,36.59,0,0,1,10.19-.28,33.36,33.36,0,0,1,7.91,1.15A68.41,68.41,0,0,1,346.68,324.5Z"/>
                  <path class="cls-54" d="M336.62,317a49.39,49.39,0,0,0-19.67.82,19.26,19.26,0,0,1,8.82-2.61c2.92-.25,5.86-.15,8.79-.31a7.83,7.83,0,0,0,1.44,1.65C336.2,316.68,336.41,316.83,336.62,317Z"/>
                  <path class="cls-54" d="M324.29,309.74a27.13,27.13,0,0,0-7.45,3.13c-3.16,1.73-6.51,3.51-10.11,3.42a21.54,21.54,0,0,0,7.51-3c1.33-.85,2.56-1.85,3.88-2.72a13,13,0,0,1,3.66-1.76h0A13.62,13.62,0,0,0,324.29,309.74Z"/>
                </g>
                <path class="cls-49" d="M282.94,316.12a22.31,22.31,0,0,1-8.41,9.41,3.52,3.52,0,0,1-2.74.7,2.1,2.1,0,0,1-.89-.57,2.6,2.6,0,0,1-.58-1,4.59,4.59,0,0,1,0-2.24,11.16,11.16,0,0,1,3.24-5.68c3.64-3.58,6.76-4.52,7.5-4.62l.32,0a2.14,2.14,0,0,1,1.73.7C283.82,313.69,283.44,315.05,282.94,316.12Z"/>
                <path class="cls-49" d="M272.63,319.46l-2.27-2a.9.9,0,0,1-.1-1.24l2.78-3.46a.93.93,0,0,1,1.34-.11l2.93,2.56Z"/>
                <path class="cls-50" d="M282.94,316.12a22.31,22.31,0,0,1-8.41,9.41,3.52,3.52,0,0,1-2.74.7,2.1,2.1,0,0,1-.89-.57,8.48,8.48,0,0,0,2.81-1.57,25,25,0,0,0,6.82-8.36,7.31,7.31,0,0,0,.87-2.66,3.64,3.64,0,0,0-.06-1,2.14,2.14,0,0,1,1.73.7C283.82,313.69,283.44,315.05,282.94,316.12Z"/>
              </g>
              <g>
                <path class="cls-55" d="M125.15,199.24s5.55,2.82,6.66,7.62a3.05,3.05,0,0,1-4.77.22C124.35,204.55,125.15,199.24,125.15,199.24Z"/>
                <path class="cls-40" d="M116.87,195.43c-3.38,2-6.69,3.41-7.22,2.54s1.92-3.64,5.3-5.7,6.86-3.16,7.39-2.29S120.25,193.37,116.87,195.43Z"/>
                <path class="cls-37" d="M137.35,143.81s-9.76,8.65-19.31,17.84L116.15,163l2,11,1.8,11.4-11.67,7.77L98.29,162s-1.41-5.37,1.76-9.51c0,0,12.24-12.5,22.46-20,0,0,13.13-9.95,15.7-10"/>
                <polygon class="cls-42" points="115.9 163.32 113.75 158.7 116.76 162.81 115.9 163.32"/>
                <path class="cls-55" d="M112.31,195.93s2.26,3,2.13,4.55-.81,5.79,1.52,9.32a1.53,1.53,0,0,0,1.41.68s-.26,3.23,2.89,3.32a2.68,2.68,0,0,0,1.63,2.59,1.5,1.5,0,0,0,2.14-1s.09,2.45,1.62,2.31c1.9-.18,1.95-2.31,2.16-3.62s1.1-6.52.89-7.74-2.21-7.1-4.72-10.12a40,40,0,0,1-4.39-7.08C118.74,187.72,107.13,191.35,112.31,195.93Z"/>
                <g>
                  <polygon class="cls-56" points="123.69 215.57 124.8 210.33 124.27 215.71 123.69 215.57"/>
                  <polygon class="cls-56" points="120.11 214.18 121.15 208.59 120.69 214.33 120.11 214.18"/>
                  <path class="cls-56" d="M117.19,211.46a4.79,4.79,0,0,1,.14-.7l.16-.65.32-1.27.66-2.55-.37,2.6-.17,1.31-.09.65c0,.2,0,.47,0,.59Z"/>
                </g>
                <path class="cls-41" d="M121.88,189.84c-1.7.29-7.15,1.84-12.49,7.41l-2.16-7.1c.72-1.34,1.92-2.77,5.13-4.48,3.89-2.06,6.2-2.79,7.34-2.59l2.58,6A.54.54,0,0,1,121.88,189.84Z"/>
              </g>
              <g>
                <path class="cls-55" d="M195,256.14s2.25-.19,2.24,3.38c0,2.47-4.46,5.47-4.46,5.47s-3.72,1.48-2.84-2.17C190,262.82,194.25,258.82,195,256.14Z"/>
                <path class="cls-55" d="M197.79,259.57s1.77-.2,1.76,2.64c0,2-4,4.73-4,4.73s-2.95,1.18-2.26-1.72C193.31,265.22,197.19,261.7,197.79,259.57Z"/>
                <path class="cls-55" d="M199.75,263s1.31-.14,1.29,1.94c0,1.45-2.92,3.48-2.92,3.48s-2.17.87-1.66-1.27C196.46,267.14,199.31,264.56,199.75,263Z"/>
                <path class="cls-55" d="M185.76,253.11s-.49,4.78.24,7.3c2.06,7.08,8.05-3.59,8.05-3.59s1.09-4-2.12-2.67a15.32,15.32,0,0,0-3.42,4.79"/>
              </g>
              <path class="cls-55" d="M198.49,253.84s-.48,3,2.78,6.83,4.46,1.24,4.46,1.24-4.75-12.72-6-14.64l-6.05-2.39h0"/>
              <g>
                <polyline class="cls-57" points="193.19 241.56 193.72 244.88 195.33 245.52"/>
                <line class="cls-57" x1="184.3" y1="243.47" x2="184.83" y2="247.96"/>
              </g>
              <g>
                <ellipse class="cls-58" cx="160.79" cy="102.76" rx="14.67" ry="14.63" transform="translate(35.38 246.58) rotate(-81.49)"/>
                <path class="cls-59" d="M179.46,110.62c2.13-3.35.27-5.66-9.39-11.8s-19.22-8.39-21.35-5,5.9,14.93,15.86,19.39S177.33,114,179.46,110.62Z"/>
                <g>
                  <path class="cls-41" d="M181.88,116.13c3.07,5.44,4.25,13-.19,14.45s-11.76-2.69-15-8a11.92,11.92,0,0,1-2.13-7.39c.28-3.09,4.91-.52,7.19-1.62C176,111.48,178.81,110.68,181.88,116.13Z"/>
                  <g>
                    <path class="cls-60" d="M166.54,115.73a1.75,1.75,0,0,1,1.23-1.49"/>
                    <path class="cls-61" d="M166.16,115.72a1.52,1.52,0,0,1,.25-.59,2,2,0,0,1,.38-.44,2.08,2.08,0,0,1,1-.45,1.9,1.9,0,0,0-.69.69,1.45,1.45,0,0,0-.16.42,1,1,0,0,0,0,.39Z"/>
                  </g>
                </g>
                <path class="cls-55" d="M187,117.05l-.34.33a8.87,8.87,0,0,0-.93,1.1,16.42,16.42,0,0,0-2.7,6.18,3.17,3.17,0,0,1-.46,1.76c-1,1.72-3.44,3.48-8.48.17-7.13-4.68-7.64-10.4-7.64-10.4a9,9,0,0,0,4.19-3.44,10.56,10.56,0,0,0,1.43-3.68,2.83,2.83,0,0,1,.16-.66C185,99.61,190.16,114.18,187,117.05Z"/>
                <path class="cls-62" d="M182.87,124.51a3.08,3.08,0,0,1-.45,1.69c-7,1.17-15.33-6.55-15.95-10,.91-1.38,5.46-5.9,5.61-6.66,4.17-1.22,10,4,13.41,9.06A15.38,15.38,0,0,0,182.87,124.51Z"/>
                <g>
                  <g>
                    <path class="cls-55" d="M201.26,111.56c1.43,1.44,3.26,1.19,4.73.58a10.21,10.21,0,0,0,3.75-2.81c5.72-6.5,5.82-13.71,1.71-13.17-4.37.58-8.19,9.09-8.19,9.09"/>
                    <path class="cls-62" d="M213.2,100.54c.17.14-2.72-3.84-7.55,4.47,0,0,1.48.91.18,1.89s-3.11,1.63-2.09,2a3.22,3.22,0,0,0,4.11-.91s1.2-1.71.51-3.11S213,100.39,213.2,100.54Z"/>
                    <path class="cls-56" d="M207.88,108a2.93,2.93,0,0,1-2.17,1.58,2.56,2.56,0,0,1-1.38-.23c-.21-.09-.41-.19-.6-.29a1,1,0,0,1-.32-.22.33.33,0,0,1,0-.45,8.67,8.67,0,0,1,1.05-.83c.35-.26.67-.54,1-.8s.56-.53.52-.74a1.39,1.39,0,0,0-.54-.7l-.31-.23.18-.3a17.38,17.38,0,0,1,3.19-4.08,4.74,4.74,0,0,1,2.35-1.21,2.39,2.39,0,0,1,1.32.21,4.07,4.07,0,0,1,1,.77l0,.08a6.07,6.07,0,0,0-1.11-.63,2.27,2.27,0,0,0-1.18-.07,4.38,4.38,0,0,0-2,1.27,18.82,18.82,0,0,0-2.9,4.06l-.13-.53a2,2,0,0,1,.58.51,1.34,1.34,0,0,1,.31.83,1.59,1.59,0,0,1-.92,1.27,11.72,11.72,0,0,0-2.22,1.26c-.05.08-.05.1,0,.13a.83.83,0,0,0,.24.08c.21,0,.42.1.63.13a5.82,5.82,0,0,0,1.17,0,4.51,4.51,0,0,0,2.18-1Z"/>
                  </g>
                  <g>
                    <ellipse class="cls-63" cx="203.2" cy="110.96" rx="1.47" ry="1.14" transform="translate(16.13 247.38) rotate(-64.74)"/>
                    <path class="cls-64" d="M202.15,110.61a1.27,1.27,0,0,0,0,1,.7.7,0,0,0,.63.43.77.77,0,0,0,.53-.34,1.81,1.81,0,0,0,.33-.57,1.79,1.79,0,0,0,.14-.62.56.56,0,0,0-.19-.54.8.8,0,0,0-.79,0A1.45,1.45,0,0,0,202.15,110.61Zm-.07,0a1.48,1.48,0,0,1,1.65-1,1,1,0,0,1,.69.77,1.79,1.79,0,0,1-.07,1,1.5,1.5,0,0,1-1.68,1,1,1,0,0,1-.68-.77A1.84,1.84,0,0,1,202.08,110.58Z"/>
                  </g>
                </g>
                <path class="cls-55" d="M157.41,80.75s-4.76,22.52,6.08,33.36C173.56,124.19,180.76,125,180.76,125s7.64,2.71,19.59-6.49c6.52-5,9.73-17.1,11.1-22.33,1.8-6.86,3.49-6.72,2.88-10.41,0,0,10.29-30.12-21-36.48S151,68.92,157.41,80.75Z"/>
                <path class="cls-62" d="M198.06,69.2l-.5.12c-3.16.81-15.94,1.27-24.32,8.31,0,0-9.07,4.12-16.11,16.48,0,0-2-26.26-1.15-26.55s48.6-3.62,48.6-3.62l9.21,24.24-3.4,7.22S214.1,82.13,198.06,69.2Z"/>
                <path class="cls-65" d="M174.23,82.83a16.22,16.22,0,0,1,3.13-1.46,12.84,12.84,0,0,1,3.45-.72,12.26,12.26,0,0,1,1.82,0,5.59,5.59,0,0,1,1.82.49,5.44,5.44,0,0,1,2.67,2.66l-.11.1c-.54-.3-1-.59-1.53-.83a13,13,0,0,0-1.49-.57,13.94,13.94,0,0,0-3.13-.67,11.37,11.37,0,0,0-1.65,0,15.69,15.69,0,0,0-1.66.21,18.64,18.64,0,0,0-3.25.89Z"/>
                <path class="cls-65" d="M209.31,90.51a12.6,12.6,0,0,0-1.49-2.72,10.05,10.05,0,0,0-2.17-2.25,9.69,9.69,0,0,0-1.37-.88,4.83,4.83,0,0,0-1.66-.48,5.72,5.72,0,0,0-3.6.92l0,.13c.59,0,1.13,0,1.64.06a9.8,9.8,0,0,1,1.47.24,12,12,0,0,1,2.76,1,9.29,9.29,0,0,1,1.22.82,10.48,10.48,0,0,1,1.12,1,14.7,14.7,0,0,1,1.93,2.3Z"/>
                <g>
                  <path class="cls-66" d="M195,114.23a7.26,7.26,0,0,1-.82.28c-1.7.51-5.38,2.1-8.81,1.81a17.39,17.39,0,0,1-6.81-1.91c-2.3-1.32-2.9-3.17-3.5-4.68-.2-.5-.38-1-.62-1.68,0,0-.08-.12.19,0a2.4,2.4,0,0,1,.4.15,48.23,48.23,0,0,0,10.83,4.27,51.51,51.51,0,0,0,8.94,1.64c.14,0,.24.07.25.12S195.06,114.22,195,114.23Z"/>
                  <path class="cls-67" d="M194.23,114.5a27.22,27.22,0,0,1-9.61,2.22,13.1,13.1,0,0,1-6.84-1.81c-2.2-1.44-3-5.37-3.24-6.58,1.65,3.55,2.94,6,6.7,7.13C186.37,117,192.4,115.14,194.23,114.5Z"/>
                  <path class="cls-68" d="M195.08,114.18a48.92,48.92,0,0,1-11.68-2.06c-5.6-1.71-8-3.52-8.74-4.12.09,0,0-.36.22-.29a60.88,60.88,0,0,0,20.2,6.05C195.21,113.78,195.08,114.13,195.08,114.18Z"/>
                  <path class="cls-69" d="M176.19,109.07c.11.05,6,3.62,16.34,4.91,0,0-3.32,1-8.92-.45C177.21,111.87,176.19,109.07,176.19,109.07Z"/>
                  <path class="cls-70" d="M181.5,115.53a7.65,7.65,0,0,1-3.75-2,10,10,0,0,1,5.61.89c.19.08-1.12-.45.47-.16a5.06,5.06,0,0,1,3.3,1.77A15.63,15.63,0,0,1,181.5,115.53Z"/>
                </g>
                <path class="cls-58" d="M197.94,68.18s-11.85-2.93-28.51,9.32c0,0-12.24,5.34-12.53,17.83,0,0-5.45,8.94-8.33,2.91-19.11-40,27.21-62.07,50.56-50.88,0,0,17.07,2.15,23,26,0,.11,5.25,21.15-11.82,26.14A30.57,30.57,0,0,0,197.94,68.18Z"/>
                <g>
                  <g>
                    <path class="cls-55" d="M158.53,96s-.82-9.28-5.58-11.26c-4.47-1.86-7.37,5-3.53,13a10.38,10.38,0,0,0,3.11,3.88,5.71,5.71,0,0,0,5.66,1"/>
                    <path class="cls-62" d="M149.13,88.3c-.26.08,4.71-2.73,6.76,6.7,0,0-2.07.37-1,1.72s2.88,2.56,1.55,2.58-3.24,0-4.31-2.21c0,0-.66-2,.71-3.1S149.39,88.22,149.13,88.3Z"/>
                    <path class="cls-56" d="M152.17,97.08a4.44,4.44,0,0,0,2.1,1.63,8.23,8.23,0,0,0,1.3.33l.7.1c.22,0,.52,0,.53,0s-.17-.35-.32-.5a4.88,4.88,0,0,0-.53-.48,14,14,0,0,1-1.1-1,2.21,2.21,0,0,1-.49-.64,1.08,1.08,0,0,1,0-1,1.6,1.6,0,0,1,.7-.63,3,3,0,0,1,.79-.25l-.32.47a15.14,15.14,0,0,0-1.82-5,4.18,4.18,0,0,0-1.92-1.71,3.3,3.3,0,0,0-1.29-.21,12.38,12.38,0,0,0-1.37.21l0-.06a4.09,4.09,0,0,1,2.75-.28,4.65,4.65,0,0,1,2.27,1.73,10.91,10.91,0,0,1,1.31,2.51,19.65,19.65,0,0,1,.81,2.68l.08.37-.4.1a1.93,1.93,0,0,0-1,.49c-.15.15,0,.5.32.88s.56.75.87,1.11l.47.57c.13.2.35.33.36.71a.43.43,0,0,1-.38.28c-.14,0-.26,0-.38,0s-.48.06-.73.07a3.29,3.29,0,0,1-1.51-.2,3.19,3.19,0,0,1-1.93-2.23Z"/>
                  </g>
                  <g>
                    <ellipse class="cls-63" cx="156.02" cy="102.76" rx="1.89" ry="2.02" transform="translate(-23.58 51.32) rotate(-17.39)"/>
                    <path class="cls-64" d="M158,102.77a2.32,2.32,0,0,1-.45,1.49,2.05,2.05,0,0,1-1.47.86,2.33,2.33,0,0,1-1.78-.58,2.56,2.56,0,0,1-.82-1.77,2.45,2.45,0,0,1,.75-1.82,2.22,2.22,0,0,1,1.81-.55,2.18,2.18,0,0,1,1.44.89A2.56,2.56,0,0,1,158,102.77Zm-.08,0a2,2,0,0,0-1.89-2,1.82,1.82,0,0,0-1.8,1.94,2,2,0,0,0,1.86,2A1.83,1.83,0,0,0,157.88,102.77Z"/>
                  </g>
                </g>
                <g>
                  <ellipse class="cls-71" cx="179.02" cy="91.92" rx="6.11" ry="5.42" transform="translate(61.63 255.38) rotate(-81.49)"/>
                  <ellipse class="cls-72" cx="178.25" cy="91.37" rx="4.21" ry="3.54" transform="translate(61.53 254.15) rotate(-81.49)"/>
                  <ellipse class="cls-14" cx="180.35" cy="88.6" rx="1.02" ry="0.86" transform="translate(66.05 253.87) rotate(-81.49)"/>
                </g>
                <g>
                  <ellipse class="cls-71" cx="200.91" cy="96.17" rx="6.36" ry="5.42" transform="translate(76.07 280.65) rotate(-81.49)"/>
                  <ellipse class="cls-72" cx="200.18" cy="95.33" rx="4.38" ry="3.54" transform="translate(76.3 279.21) rotate(-81.49)"/>
                  <ellipse class="cls-14" cx="202.81" cy="92.41" rx="1.06" ry="0.86" transform="translate(81.43 279.32) rotate(-81.49)"/>
                </g>
                <g>
                  <path class="cls-63" d="M206.22,111.15c-.49,1.19-.26,2.36.51,2.62a2.2,2.2,0,0,0,2.63-1.2c.49-1.18-.08-2.84-.85-3.1S206.71,110,206.22,111.15Z"/>
                  <path class="cls-64" d="M206.25,111.17a2.39,2.39,0,0,0-.13,1.51c.15.51.49.81.89.77a1.89,1.89,0,0,0,1.17-.41,1.6,1.6,0,0,0,.61-.88,2.94,2.94,0,0,0,.07-1.23,1.68,1.68,0,0,0-.43-1.08c-.24-.22-.8-.14-1.22.13A2.75,2.75,0,0,0,206.25,111.17Zm-.07,0a3.51,3.51,0,0,1,.92-1.3,1.49,1.49,0,0,1,1.51-.39,2,2,0,0,1,.89,1.32,3.1,3.1,0,0,1,0,1.6,2.23,2.23,0,0,1-2.58,1.5,1.22,1.22,0,0,1-1-1.16A3.12,3.12,0,0,1,206.18,111.14Z"/>
                </g>
                <path class="cls-73" d="M193.36,100.72a5.29,5.29,0,0,1,.69,1.53,3.55,3.55,0,0,1,.07,1.81A2.94,2.94,0,0,1,193,105.7a4.83,4.83,0,0,1-1.77.77,3.89,3.89,0,0,1-3.67-1.12,5.46,5.46,0,0,1-1.55-3.14l.18-.1c1,.6,1.81,1.24,2.62,1.73a5.09,5.09,0,0,0,2.2,1,2.39,2.39,0,0,0,2.13-1.11,4.19,4.19,0,0,0,0-2.91Z"/>
                <path class="cls-74" d="M194.8,112.75a1.07,1.07,0,0,1,.8.5,1.57,1.57,0,0,1,.26.92,1.61,1.61,0,0,1-1,1.44,4.78,4.78,0,0,1,0-.83c0-.24,0-.45,0-.65A6.3,6.3,0,0,0,194.8,112.75Z"/>
                <path class="cls-74" d="M175.57,106.87a4,4,0,0,0-.48.56l-.34.49c-.13.15-.24.32-.41.49a2.7,2.7,0,0,1-.6.54,1.62,1.62,0,0,1,.21-1.63,1.57,1.57,0,0,1,.72-.54A1,1,0,0,1,175.57,106.87Z"/>
                <path class="cls-62" d="M197.15,68.78a21.72,21.72,0,0,0,1.65-5.47,20.76,20.76,0,0,0-.42-8.69,19.46,19.46,0,0,0-1-2.75,21.35,21.35,0,0,0-3.28-5,21.64,21.64,0,0,1,3.72,4.73,19.85,19.85,0,0,1,1.32,2.75,21.53,21.53,0,0,1,.83,3,22.23,22.23,0,0,1,.37,6.15A23.7,23.7,0,0,1,199,69.61Z"/>
                <circle class="cls-75" cx="193.99" cy="81.44" r="1.25"/>
              </g>
              <path class="cls-30" d="M184.15,125.61s3.48,16.23-5.79,11.59c-11-5.49-11.6-15.07-25.51-22l-19.69,3.9-3.49,8.85,8.11-4.64s1.65-1.89,5.48,6.17c5.42,11.4,18.06,46.31,27.91,52,11.77,6.82,22.63-3.78,25-20.44,1-6.7,1.73-33.08-3.89-37.75Z"/>
              <path class="cls-76" d="M133.16,119.08s6.14-2.43,12,.75,8.74,11.79,8.74,11.79-4.61-9.51-9.06-11.41-11.06-1.36-12.76.36Z"/>
              <path class="cls-76" d="M191.18,128s1.57,9.82-2.62,22.7c0,0,4.73-14.19,4.19-17.5,0,0-.58-4.76-.73-5.49Z"/>
              <path class="cls-76" d="M158.54,141.71s9.76,30.83,19.8,32c8.53,1,10.88-21,10.88-21s-2.59,19.76-10.88,20.34S158.54,141.71,158.54,141.71Z"/>
            </g>
          </g>
        </g>
      </g>
    </g>
  </g>
</svg>
