<svg xmlns="http://www.w3.org/2000/svg" xmlns:xlink="http://www.w3.org/1999/xlink" width="490" height="425" viewBox="0 0 490 425">
  <defs>
    <style>
      .cls-1 {
        fill: #74879e;
      }

      .cls-2, .cls-57 {
        fill: none;
      }

      .cls-3 {
        isolation: isolate;
      }

      .cls-4 {
        fill: #78efe9;
      }

      .cls-5 {
        fill: #0072ab;
      }

      .cls-6 {
        clip-path: url(#clip-path);
      }

      .cls-7 {
        clip-path: url(#clip-path-2);
      }

      .cls-8 {
        fill-rule: evenodd;
        fill: url(#linear-gradient);
      }

      .cls-9 {
        fill: url(#linear-gradient-2);
      }

      .cls-10 {
        fill: #ffffd7;
      }

      .cls-10, .cls-14 {
        opacity: 0.4;
      }

      .cls-10, .cls-36 {
        mix-blend-mode: screen;
      }

      .cls-11 {
        opacity: 0.9;
        fill: url(#linear-gradient-3);
      }

      .cls-12 {
        fill: url(#linear-gradient-4);
      }

      .cls-13 {
        fill: url(#radial-gradient);
      }

      .cls-14, .cls-26 {
        mix-blend-mode: multiply;
      }

      .cls-15 {
        fill: url(#linear-gradient-5);
      }

      .cls-16 {
        fill: url(#linear-gradient-6);
      }

      .cls-17 {
        fill: url(#linear-gradient-7);
      }

      .cls-18 {
        fill: url(#linear-gradient-8);
      }

      .cls-19 {
        fill: url(#linear-gradient-9);
      }

      .cls-20, .cls-23, .cls-26 {
        opacity: 0.5;
      }

      .cls-21 {
        fill: #fff8d2;
        opacity: 0.3;
        mix-blend-mode: overlay;
      }

      .cls-22 {
        opacity: 0.6;
        fill: url(#radial-gradient-2);
      }

      .cls-23 {
        fill: #fefcf7;
      }

      .cls-24 {
        fill: url(#radial-gradient-3);
      }

      .cls-25 {
        fill: #563822;
      }

      .cls-27 {
        fill: url(#radial-gradient-4);
      }

      .cls-28 {
        fill: url(#linear-gradient-10);
      }

      .cls-29 {
        fill: url(#linear-gradient-11);
      }

      .cls-30 {
        fill: url(#linear-gradient-12);
      }

      .cls-31 {
        fill: url(#linear-gradient-13);
      }

      .cls-32 {
        fill: url(#linear-gradient-14);
      }

      .cls-33 {
        fill: url(#linear-gradient-15);
      }

      .cls-34 {
        fill: url(#radial-gradient-5);
      }

      .cls-35 {
        fill: url(#radial-gradient-6);
      }

      .cls-36 {
        opacity: 0.1;
      }

      .cls-37 {
        fill: url(#radial-gradient-7);
      }

      .cls-38 {
        fill: url(#radial-gradient-8);
      }

      .cls-39 {
        fill: #85a511;
      }

      .cls-40, .cls-55 {
        fill: #5d65ce;
      }

      .cls-40, .cls-52 {
        stroke: #424a9b;
      }

      .cls-40, .cls-47, .cls-48, .cls-50, .cls-52, .cls-55, .cls-56, .cls-57, .cls-59, .cls-64, .cls-66, .cls-67, .cls-68, .cls-69 {
        stroke-miterlimit: 10;
      }

      .cls-40, .cls-69 {
        stroke-width: 0.5px;
      }

      .cls-41 {
        fill: #4b4b4c;
        opacity: 0.33;
      }

      .cls-42 {
        fill: #6bafc1;
      }

      .cls-43 {
        fill: #4f93a3;
      }

      .cls-44 {
        fill: #7bc2db;
      }

      .cls-45 {
        fill: #9adbf9;
      }

      .cls-46 {
        fill: #4f8699;
      }

      .cls-47 {
        fill: #e0a053;
        stroke: #a57138;
      }

      .cls-48 {
        fill: #69f4f7;
        stroke: #26aaa7;
      }

      .cls-49 {
        fill: #606060;
        opacity: 0.22;
      }

      .cls-50, .cls-65, .cls-68 {
        fill: #f9dad2;
      }

      .cls-50, .cls-57, .cls-64, .cls-66 {
        stroke: #7f430d;
      }

      .cls-50, .cls-57, .cls-64, .cls-66, .cls-68 {
        stroke-width: 0.75px;
      }

      .cls-51 {
        fill: #d6a598;
      }

      .cls-52, .cls-53 {
        fill: #9ba1f4;
      }

      .cls-54 {
        fill: #424a9b;
      }

      .cls-55 {
        stroke: #1f2763;
      }

      .cls-56 {
        fill: #69f7c6;
        stroke: #186b4b;
      }

      .cls-58 {
        fill: #342516;
      }

      .cls-59 {
        fill: #efe940;
        stroke: #47430f;
      }

      .cls-60 {
        fill: #fff;
      }

      .cls-61 {
        fill: #e8bab1;
      }

      .cls-62 {
        fill: #b78256;
      }

      .cls-63 {
        fill: #dd726c;
      }

      .cls-64 {
        fill: #d8d821;
      }

      .cls-66 {
        fill: #ed35a3;
      }

      .cls-67, .cls-69 {
        fill: #7c87d8;
      }

      .cls-67 {
        stroke: #313f84;
      }

      .cls-68 {
        stroke: #b25846;
      }

      .cls-69 {
        stroke: #4152a3;
      }

      .cls-70 {
        fill: #ea0f33;
      }

      .cls-71 {
        fill: #edeff7;
        opacity: 0.35;
      }

      .cls-72 {
        fill: #ffeee3;
      }

      .cls-73 {
        fill: #f9e3d2;
      }
    </style>
    <clipPath id="clip-path">
      <polygon class="cls-1" points="351.5 28.04 138.5 28.04 32 212.5 138.5 396.96 351.5 396.96 458 212.5 351.5 28.04"/>
    </clipPath>
    <clipPath id="clip-path-2">
      <rect class="cls-2" x="21.97" y="18.71" width="446.06" height="387.57"/>
    </clipPath>
    <linearGradient id="linear-gradient" x1="259.83" y1="248.21" x2="261.27" y2="21.08" gradientUnits="userSpaceOnUse">
      <stop offset="0.18" stop-color="#e6ffff"/>
      <stop offset="0.52" stop-color="#b3e5ff"/>
      <stop offset="0.97" stop-color="#68c0ff"/>
    </linearGradient>
    <linearGradient id="linear-gradient-2" x1="239.05" y1="40.67" x2="238.58" y2="203.54" gradientUnits="userSpaceOnUse">
      <stop offset="0" stop-color="#9dd2ce"/>
      <stop offset="0.18" stop-color="#97cfc9"/>
      <stop offset="0.42" stop-color="#86c6bd"/>
      <stop offset="0.69" stop-color="#6bb9a8"/>
      <stop offset="0.8" stop-color="#5eb29e"/>
    </linearGradient>
    <linearGradient id="linear-gradient-3" x1="255.03" y1="-121.48" x2="227.39" y2="349.29" gradientUnits="userSpaceOnUse">
      <stop offset="0" stop-color="#71cd37"/>
      <stop offset="0.56" stop-color="#3a9640"/>
      <stop offset="0.8" stop-color="#035c56"/>
    </linearGradient>
    <linearGradient id="linear-gradient-4" x1="347.19" y1="-117.55" x2="324.58" y2="347.72" xlink:href="#linear-gradient-3"/>
    <radialGradient id="radial-gradient" cx="1218.48" cy="469.88" fx="1361.7965309787678" fy="283.7016950536234" r="302.56" gradientTransform="translate(-4168.68 -67.8) scale(3.61 1.24)" gradientUnits="userSpaceOnUse">
      <stop offset="0" stop-color="#d0f3f0"/>
      <stop offset="0.03" stop-color="#c2efec"/>
      <stop offset="0.12" stop-color="#a1e7e2"/>
      <stop offset="0.19" stop-color="#8ce2db"/>
      <stop offset="0.24" stop-color="#85e0d9"/>
      <stop offset="0.4" stop-color="#80dbd6"/>
      <stop offset="0.47" stop-color="#6dc9cc"/>
      <stop offset="0.63" stop-color="#3f9db3"/>
      <stop offset="0.77" stop-color="#2381a4"/>
      <stop offset="0.84" stop-color="#18779e"/>
    </radialGradient>
    <linearGradient id="linear-gradient-5" x1="-505.49" y1="378.88" x2="1244.78" y2="417.89" gradientUnits="userSpaceOnUse">
      <stop offset="0" stop-color="#18779e"/>
      <stop offset="0.24" stop-color="#85e0d9"/>
      <stop offset="0.53" stop-color="#d0f3f0"/>
      <stop offset="0.59" stop-color="#cbf0ee"/>
      <stop offset="0.66" stop-color="#bee7e8"/>
      <stop offset="0.74" stop-color="#a7d7de"/>
      <stop offset="0.81" stop-color="#87c2d0"/>
      <stop offset="0.89" stop-color="#5ea6bd"/>
      <stop offset="0.97" stop-color="#2d85a7"/>
      <stop offset="1" stop-color="#18779e"/>
    </linearGradient>
    <linearGradient id="linear-gradient-6" x1="-497.08" y1="240.12" x2="1257.51" y2="279.23" xlink:href="#linear-gradient-5"/>
    <linearGradient id="linear-gradient-7" x1="-499.29" y1="279.97" x2="1253.06" y2="319.03" xlink:href="#linear-gradient-5"/>
    <linearGradient id="linear-gradient-8" x1="-499.59" y1="293.62" x2="1252.75" y2="332.67" xlink:href="#linear-gradient-5"/>
    <linearGradient id="linear-gradient-9" x1="-502.71" y1="321.32" x2="1250.76" y2="360.4" xlink:href="#linear-gradient-5"/>
    <radialGradient id="radial-gradient-2" cx="1152.32" cy="355.92" r="100.47" gradientTransform="translate(-4200.81 -67.8) scale(3.64 1.24)" gradientUnits="userSpaceOnUse">
      <stop offset="0" stop-color="#d0f3f0"/>
      <stop offset="0.03" stop-color="#c2efec"/>
      <stop offset="0.12" stop-color="#a1e7e2"/>
      <stop offset="0.19" stop-color="#8ce2db"/>
      <stop offset="0.24" stop-color="#85e0d9"/>
      <stop offset="0.4" stop-color="#80dbd6"/>
      <stop offset="0.52" stop-color="#77d2d1"/>
      <stop offset="0.61" stop-color="#6bc7cb"/>
      <stop offset="0.78" stop-color="#4ca9ba"/>
      <stop offset="0.99" stop-color="#1a789f"/>
      <stop offset="1" stop-color="#18779e"/>
    </radialGradient>
    <radialGradient id="radial-gradient-3" cx="1139.21" cy="350.13" fx="1219.6070212789373" r="195.42" gradientTransform="translate(-4306.53 -129.46) scale(3.71 1.43)" gradientUnits="userSpaceOnUse">
      <stop offset="0" stop-color="#e3ca96"/>
      <stop offset="0.03" stop-color="#e0c58c"/>
      <stop offset="0.07" stop-color="#d9b671"/>
      <stop offset="0.13" stop-color="#cd9f45"/>
      <stop offset="0.14" stop-color="#c99737"/>
      <stop offset="0.32" stop-color="#a76a28"/>
      <stop offset="0.42" stop-color="#af7325"/>
      <stop offset="0.59" stop-color="#c38c1c"/>
      <stop offset="1" stop-color="#a76a28"/>
    </radialGradient>
    <radialGradient id="radial-gradient-4" cx="1139.21" cy="350.13" fx="1219.6070512463828" r="195.42" gradientTransform="translate(-4306.53 -129.46) scale(3.71 1.43)" gradientUnits="userSpaceOnUse">
      <stop offset="0" stop-color="#e3ca96"/>
      <stop offset="0.03" stop-color="#e0c58c"/>
      <stop offset="0.07" stop-color="#d9b671"/>
      <stop offset="0.13" stop-color="#cd9f45"/>
      <stop offset="0.14" stop-color="#c99737"/>
      <stop offset="0.3" stop-color="#ab6f2a"/>
      <stop offset="0.32" stop-color="#a76a28"/>
      <stop offset="0.59" stop-color="#c38c1c"/>
      <stop offset="1" stop-color="#a76a28"/>
    </radialGradient>
    <linearGradient id="linear-gradient-10" x1="196.55" y1="314.14" x2="195.63" y2="345.76" gradientUnits="userSpaceOnUse">
      <stop offset="0" stop-color="#e3ca96"/>
      <stop offset="0.07" stop-color="#dbbb7a"/>
      <stop offset="0.15" stop-color="#d5ae62"/>
      <stop offset="0.25" stop-color="#cfa44f"/>
      <stop offset="0.36" stop-color="#cc9c41"/>
      <stop offset="0.49" stop-color="#ca9839"/>
      <stop offset="0.76" stop-color="#c99737"/>
    </linearGradient>
    <linearGradient id="linear-gradient-11" x1="2520.58" y1="543.37" x2="2519.66" y2="574.74" gradientTransform="matrix(-0.98, -0.19, -0.19, 0.98, 2739.25, 264.46)" xlink:href="#linear-gradient-10"/>
    <linearGradient id="linear-gradient-12" x1="2611.11" y1="555.51" x2="2610.17" y2="587.65" gradientTransform="matrix(-0.98, -0.19, -0.19, 0.98, 2739.25, 264.46)" gradientUnits="userSpaceOnUse">
      <stop offset="0" stop-color="#e3ca96"/>
      <stop offset="0.1" stop-color="#e0c58c"/>
      <stop offset="0.28" stop-color="#d9b671"/>
      <stop offset="0.5" stop-color="#cd9f45"/>
      <stop offset="0.57" stop-color="#c99737"/>
    </linearGradient>
    <linearGradient id="linear-gradient-13" x1="2324.64" y1="499.98" x2="2323.7" y2="532.14" xlink:href="#linear-gradient-12"/>
    <linearGradient id="linear-gradient-14" x1="230.8" y1="314.52" x2="229.88" y2="346.1" xlink:href="#linear-gradient-10"/>
    <linearGradient id="linear-gradient-15" x1="2509.69" y1="312.23" x2="2508.56" y2="350.91" gradientTransform="matrix(-1, 0, 0, 1, 2519.92, 0)" xlink:href="#linear-gradient-10"/>
    <radialGradient id="radial-gradient-5" cx="1220.32" cy="252.62" fx="1136.8246659395832" fy="291.1284241276238" r="324.46" gradientTransform="translate(-4193.77 -44.46) scale(3.64 1.22)" gradientUnits="userSpaceOnUse">
      <stop offset="0.13" stop-color="#a6cd3a"/>
      <stop offset="0.32" stop-color="#8cb83b"/>
      <stop offset="0.64" stop-color="#59903c"/>
      <stop offset="1" stop-color="#14422f"/>
    </radialGradient>
    <radialGradient id="radial-gradient-6" cx="1218.39" cy="252.62" fx="1136.9518895355552" fy="290.18127669752465" r="316.48" xlink:href="#radial-gradient-5"/>
    <radialGradient id="radial-gradient-7" cx="1253" cy="175.7" r="72.84" gradientTransform="translate(-4193.77 -44.46) scale(3.64 1.22)" gradientUnits="userSpaceOnUse">
      <stop offset="0.55" stop-color="#f6fb7f"/>
      <stop offset="0.59" stop-color="#eaef79"/>
      <stop offset="0.66" stop-color="#c9cd68"/>
      <stop offset="0.76" stop-color="#95984d"/>
      <stop offset="0.88" stop-color="#4d4f28"/>
      <stop offset="1"/>
    </radialGradient>
    <radialGradient id="radial-gradient-8" cx="1253" cy="174.75" r="74.16" xlink:href="#radial-gradient-7"/>
  </defs>
  <g class="cls-3">
    <g id="Layer_1" data-name="Layer 1">
      <g>
        <polygon class="cls-4" points="359.83 13.61 130.17 13.61 15.34 212.5 130.17 411.39 359.83 411.39 474.66 212.5 359.83 13.61"/>
        <polygon class="cls-5" points="353.33 24.87 136.67 24.87 28.34 212.5 136.67 400.13 353.33 400.13 461.66 212.5 353.33 24.87"/>
        <g>
          <polygon class="cls-1" points="351.5 28.04 138.5 28.04 32 212.5 138.5 396.96 351.5 396.96 458 212.5 351.5 28.04"/>
          <g class="cls-6">
            <g class="cls-7">
              <g>
                <g>
                  <polygon class="cls-8" points="477.29 252.47 477.29 18.71 43.8 18.71 43.8 252.31 477.29 252.47"/>
                  <path class="cls-9" d="M27.62,104.12C72.79,79.19,140.08,23.35,249.25,89.26c37.05,22.37,89.25,41.72,188.17-8,0,0,3-1.79,8.68-4.44,1.24-.58,4.11-1.87,4.11-1.87l-6,145.63-415.91,3S27.81,104,27.62,104.12Z"/>
                  <g>
                    <g>
                      <path class="cls-10" d="M71.89,330s19.17.12,48.13.07,31.82-1.92,68.94-1.18,40,1.85,52.84,1.48.71,1.48-24.28.74-36.41-.37-55.68-.37S129,332.18,109,331.8,48.33,331.43,71.89,330Z"/>
                      <path class="cls-10" d="M301.31,331.67a68.57,68.57,0,0,1,20.28-1.19c11.32,1,9.7,1.44,21.87.64s11.35-.82,27.55-.23-3.26.89-11.36.82-13.84,3.08-26.79,2.51-16.15-2.42-30.77-1.17S277.8,332.39,301.31,331.67Z"/>
                    </g>
                    <g>
                      <g>
                        <path class="cls-11" d="M456.34,200.13V161.68a12.89,12.89,0,0,0-6.08,3.51c1.9-3.62.11-12.93-7.78-9.78,4.21-10.86-5.46-17.43-10.76-10.62-5.89-10.57-20.57-1-11.7,11.19-4.86-.86-8.25,1.94-9.42,7.19,0-4.45-7.74-12.61-13.07-2.56-.29-10.52-13-9-11.66,5.93,0,0-7.84-2.5-7.15,4-14.55-5.81-11,14.84-11,14.84s-4.85-1.67-6.42,6.41c-.35-2.43-6.67-7.35-10.45-2.13.42-6.07-5.1-17-12.66-7.81,2-13.33-11.85-13.87-10.07-4.15-6.7-4.92-8.68,8-8.68,8s-4.46-4.08-6.73-1.28c.08-8.08-8.87-12.21-14.15-8.23,1.94-8.07-13-13.07-18.3-3.83-.7-5.66-9.28-9.79-13.82-3.78.05-5.66-8.48-15-13.43-5,1.57-8.07-5.11-15-12.27-9.43.92-19.39-10.77-9.81-10.77-9.81-8.12-12.21-22.45.17-15.43,10.75-11.23-1.33-22.56,9.87-7,23a6.2,6.2,0,0,0-1-.22c-5-4.78-11.87-6.19-16.68.83-1.07-6.06-10.41-7.78-12.71-1.34-5.57-5.71-13.85-.54-11,11.61-1.46-4-9.31-5.75-16.44-3.4-.22-17-16-11.48-16.08-1.38-4.47-3.68-13.84-1.76-15.06,10-.73-3.24-6.31-6.13-12.36.68,3.49-13.3-7.68-21.1-16.74-12.29,1.91-3.63.11-12.95-7.77-9.79C86,161.82,76.32,155.25,71,162.07c-5.9-10.57-20.57-1-11.7,11.2-4.86-.86-8.25,1.93-9.42,7.17,0-4.44-7.75-12.6-13.08-2.56-.28-10.51-13-9-11.66,5.94,0,0-7.83-2.5-7.14,4l-.17-.07c-1,18.76-2.74,37.47-4.46,56.18a6,6,0,0,1,3.37,1.26c-.25-15,13.16-6.73,13.16-6.73-1.46-3.65,1.21-10.09,9.07-10-5.2-4.5-5.15-9.75.13-14.94s22.11-2.2,19,6.65c2.65-3.2,13.88-2.68,9.23,15.46,0,0,9.76-3.54,9.67,5.35,0,0,6.07-8.82,11.66-5.53-3.88-26.71,20.76-19.19,17.66-7.5,2.27-3.21,10.87-1.1,7.06,5.73,0,0,7.13-1.54,5.55,7.33,0,0,7.18-7.6,12-4.72-1.71-18.61,20.72-15.55,18.38-3.85,0,0,10.93-9.19,15-.25,0,0,4.27-17.33,14.28-6.32a28.72,28.72,0,0,1-.67-3q12.9,3.78,26,8.17c-1.83-4.9-.39-8.44,4.61-9.37-.11.15-.18.28-.3.42a2.84,2.84,0,0,1,.47-.44,21.14,21.14,0,0,1,6.74.12c-.15-.44-.27-.86-.4-1.28,2.93.64,5.54,3,5.11,8.19,3-4.81,13.54-7.14,12.34,1.75,17.48-6.5,11.77,8.87,7.83,16.93l11.82-2.68.63-.13c1.74-.4,3.56-.8,5.44-1.24a1.2,1.2,0,0,0,.2,0l2.13-.49,1.31-.28,1.73-.39,1.44-.32,1.88-.42,1.39-.31,2-.44,1.5-.33,1.73-.38,2-.44c.48-.11,1-.21,1.45-.33a3.94,3.94,0,0,0,.47-.1C277,226.42,267,219.58,260.2,227.89c-2.18-7.3-8.57-4.14-8.57-4.14,6.43-7.21,1.72-24.63-8.07-18.66,5.31-8,3.89-16.94-2.15-10.54.05-5-1.14-8.51-2.76-10.68,4-.25,7.42,1.15,7.79,4.27.78-3.63,9-4.35,9.31,5,0,0,4.93-8,6.73,1.28,0,0,.45-8.08,4.52-3.19,0,0-2.88-12.56,7.22-12.86,12.73-.28,8.85,15.86,8.85,15.86,1.89-2.81,9-1.93,7.05,7.34.78-4,6.4-5.59,6.36-.74,4.54-5.21,18.31,3.42,13.35,13.47,3.77-2.79,7.51-1.94,9,2.52,4.59-11.26,18-2.23,14.56,4.6,6-3.58,10.43,5.37,4.4,10.15,4.52-2.38,13.12-1.88,13.06,4.58,8.7-9.61,15.73-1,15.73-1,0-4.44,5.35-11.26,10.92-7.16-.24-14.95,13.16-6.74,13.16-6.74-1.46-3.64,1.21-10.09,9.07-10-5.2-4.49-5.15-9.74.14-14.95s22.1-2.19,19,6.66c2.65-3.2,13.87-2.67,9.22,15.46,0,0,9.76-3.54,9.68,5.35,0,0,6.06-8.83,11.65-5.53C447.67,206.13,451.68,201,456.34,200.13ZM227.46,189.91a11.91,11.91,0,0,1,2.11-2.42,15.47,15.47,0,0,0,.64,3.31A4.68,4.68,0,0,0,227.46,189.91Z"/>
                        <path class="cls-12" d="M456.34,245.81V200.13c-4.66.91-8.67,6-6.93,18-5.59-3.3-11.65,5.53-11.65,5.53.08-8.89-9.68-5.35-9.68-5.35,4.65-18.13-6.57-18.66-9.22-15.46,3.07-8.85-13.75-11.85-19-6.66s-5.34,10.46-.14,14.95c-7.86-.08-10.53,6.37-9.07,10,0,0-13.4-8.21-13.16,6.74-5.57-4.1-10.88,2.72-10.92,7.16,0,0-7-8.56-15.73,1,.06-6.46-8.54-7-13.06-4.58,6-4.78,1.62-13.73-4.4-10.15,3.43-6.83-10-15.86-14.56-4.6-1.45-4.46-5.19-5.31-9-2.52,5-10.05-8.81-18.68-13.35-13.47,0-4.85-5.58-3.29-6.36.74,1.94-9.27-5.16-10.15-7.05-7.34,0,0,3.88-16.14-8.85-15.86-10.1.3-7.22,12.86-7.22,12.86-4.07-4.89-4.52,3.19-4.52,3.19-1.8-9.32-6.73-1.28-6.73-1.28-.29-9.3-8.53-8.58-9.31-5-1.05-8.91-27.29-3.92-19.22,14.35-4.86-.45-6.4,4.78-4.94,8-6.69-5.72-10.85-.11-6.84,11.25-10.44-1.6-14,2.58-11.52,9.27,12.19,4.12,24.45,8.63,36.77,13.62,8.4,2.71,11.19,4.26,16.53,4.31-7.88,2-2.86,5.73,11.2,2.85-6.5,5.69,1.09,4.25,5.6,2.18,3.28,8.82,7,6.44,7,1.59,10.9,5.87,14,2,13.19.44,7.25,6.14,22.71,4.17,22.71,4.17s-6.79,5.69,14.3,1.06c-.9,5.75,6.73,1,7.58.08,5.56,5.81,17.09,4.12,12.07-.48,13.44,4.68,21,2,23.3.24,8.09,5.54,14,2,14,2,7,3.71,26.6-2.54,36.53-3.57q17.7-1.82,31.6-3.29C456.33,252.74,456.34,249.27,456.34,245.81Z"/>
                      </g>
                      <path class="cls-13" d="M485.8,558.89c-1.66-17.54-3.23-35.1-5.2-52.62q-.74-6.45-1.53-12.88c-.23-1.79-.46-3.57-.7-5.36-.07-.49-.54-3.88-.62-4.44-1.22-8.49-2.6-17-4.19-25.39-6.54-34.68-12.91-69.09-15.48-104.37-2.47-34-1.82-68.11-1.74-102.16H12.68q-.64,7.05-1.22,14.11C10.21,281,9.24,296.2,9.06,311.44s.76,30.7,1.71,46c1.93,31.09,4.46,62.14,7.17,93.17,3.95,45.4,8.25,90.78,11.6,136.23,153.06,3.65,306.23,5.87,459.25,2.34C487.72,579.11,486.75,569,485.8,558.89Z"/>
                      <g class="cls-14">
                        <path class="cls-15" d="M462.49,393.93c-127.33-1.56-176-3.52-.74-5.38q-.69-5.12-1.3-10.25c-121.54-1.72-279.46-3.1-448.54-3.49q1.3,18.9,2.83,37.78c177.22,2.16,336.71,4.47,451.74,6.73C465,410.87,463.69,402.41,462.49,393.93Z"/>
                        <path class="cls-16" d="M12.68,251.67l-.15,1.62q43.44-.85,89.7-1.62Z"/>
                        <path class="cls-17" d="M9.49,296.32c28.64-.74,65.56-1.49,109.68-2.2,207.82-3.36-79.36-6.59-109.23-6.91Q9.68,291.77,9.49,296.32Z"/>
                        <path class="cls-18" d="M127,302.08c-49.5,0-88.45-.15-117.7-.42q-.16,4.89-.23,9.78v.68C332.64,307.13,332,302.08,127,302.08Z"/>
                        <path class="cls-19" d="M458.08,353.83c-.66-9-1.09-18.1-1.38-27.16-131.08-.75-289.34-.43-447.43,1.81.22,6.78.57,13.54,1,20.31,122.63,1.48,271.5,3.24,447.87,5.42Z"/>
                      </g>
                      <g class="cls-20">
                        <path class="cls-21" d="M456.2,291.48c-76.89.14-271.69,1-126.12,6.92,62.87,2.54,102.82,4.4,126.19,5.78Q456.21,297.83,456.2,291.48Z"/>
                        <path class="cls-21" d="M456.31,308.17c-57.11,1-175.26.49-76.53,7.08,25.1,1.68,51.08,3.15,76.73,4.45C456.42,315.86,456.36,312,456.31,308.17Z"/>
                        <path class="cls-21" d="M13.58,397.78c25.09-.54,56.34-1.15,94.57-1.86,445-8.25,62.57-15.33,62.57-15.33-41.37-1.82-97.46-2.82-158.64-3.3Q12.8,387.54,13.58,397.78Z"/>
                      </g>
                      <g>
                        <path class="cls-22" d="M11.84,373.71c112.21-.32,190.33-1.64,190.32-2.34s-84.06-1.16-190.56-1.11Z"/>
                        <path class="cls-23" d="M456.21,295.44c-3.57-.55-20.8-1.12-41.57-1.34-23.4-.23-42.42.07-42.47.68s18.88,1.29,42.27,1.53c20.85.22,38.19,0,41.78-.48C456.22,295.7,456.21,295.57,456.21,295.44Z"/>
                      </g>
                      <g>
                        <g>
                          <path class="cls-24" d="M456.23,276.78,220,262.62,11.42,266.27c-1.23,15-2.18,30.09-2.36,45.17-.06,5.56,0,11.12.2,16.66,42.28.06,69.51-.11,146.9-.5,134.68-.68,161.26,2.73,269.36.69q15.71-.3,31.23-.33C456.18,310.92,456.16,293.85,456.23,276.78Z"/>
                          <path class="cls-25" d="M393.42,325a4.42,4.42,0,0,0,.16-.58c.11-.37.14-.9.28-1.53s.15-1.37.13-2.16c0-.4,0-.81,0-1.22a9,9,0,0,0-.14-1.26c0-.42-.06-.84-.09-1.26s-.18-.82-.25-1.21-.14-.78-.2-1.14a6.83,6.83,0,0,0-.29-1c-.37-1.26-.55-2.11-.55-2.11s.46.83,1,2.08a8,8,0,0,1,.43,1l.32,1.14c.11.39.22.8.32,1.22s.1.84.16,1.27.08.85.07,1.27-.05.83-.07,1.23a4.68,4.68,0,0,1-.17,1.14c-.09.37-.16.71-.24,1a12.33,12.33,0,0,1-.6,1.52A3.47,3.47,0,0,1,393.42,325Z"/>
                          <path class="cls-25" d="M388.7,322.67a3.75,3.75,0,0,0,.15-.58c.12-.37.15-.9.28-1.53s.16-1.37.13-2.16c0-.4,0-.81,0-1.22a10.76,10.76,0,0,0-.13-1.26c0-.42-.06-.84-.09-1.26s-.17-.82-.25-1.21-.14-.78-.2-1.14a10.51,10.51,0,0,0-.29-1c-.37-1.26-.55-2.11-.55-2.11s.46.83,1,2.08a9.29,9.29,0,0,1,.43,1c.11.36.22.75.33,1.15s.21.81.32,1.22.09.84.15,1.27.09.85.07,1.27-.05.82-.07,1.22a4.84,4.84,0,0,1-.17,1.15c-.08.36-.16.71-.24,1a10.91,10.91,0,0,1-.6,1.52A3.4,3.4,0,0,1,388.7,322.67Z"/>
                          <path class="cls-25" d="M315.51,324.72a4,4,0,0,1-.31-.57,9.68,9.68,0,0,1-.61-1.52c-.08-.32-.16-.66-.24-1a4.76,4.76,0,0,1-.16-1.15c0-.39-.06-.8-.08-1.22s.05-.85.07-1.27.11-.84.16-1.27.21-.82.31-1.22l.32-1.14a10.78,10.78,0,0,1,.44-1c.58-1.25,1-2.08,1-2.08s-.18.85-.55,2.11a8.85,8.85,0,0,0-.28,1q-.09.54-.21,1.14c-.08.39-.16.8-.25,1.21s-.06.84-.1,1.26-.12.85-.13,1.26,0,.83,0,1.22c0,.79.1,1.53.13,2.16s.16,1.16.28,1.53A3.36,3.36,0,0,0,315.51,324.72Z"/>
                          <path class="cls-25" d="M320.82,324a4.59,4.59,0,0,1-.32-.57,13,13,0,0,1-.6-1.52c-.08-.32-.15-.67-.23-1a4.76,4.76,0,0,1-.17-1.15c0-.4-.05-.81-.07-1.22s0-.85.06-1.27.11-.86.16-1.28.21-.82.31-1.21.23-.78.33-1.14a8,8,0,0,1,.43-1c.59-1.25,1-2.08,1-2.08s-.18.84-.55,2.1a7.59,7.59,0,0,0-.29,1c-.06.37-.13.75-.2,1.14s-.17.8-.25,1.22-.07.83-.1,1.26-.12.84-.13,1.26,0,.82,0,1.21c0,.8.1,1.54.13,2.17s.17,1.17.29,1.53A4.91,4.91,0,0,0,320.82,324Z"/>
                          <path class="cls-25" d="M256.57,323.9s.16-.2.41-.56.57-.87,1-1.48.8-1.34,1.14-2.12c.2-.39.39-.79.59-1.2s.31-.83.46-1.24l.5-1.25c.11-.42.21-.82.32-1.22s.22-.77.33-1.13a9.12,9.12,0,0,0,.2-1c.22-1.27.44-2.12.44-2.12s.06.85.06,2.13a7.46,7.46,0,0,1-.05,1c-.07.36-.15.74-.22,1.14s-.17.81-.27,1.23-.29.83-.43,1.25-.32.85-.53,1.26-.43.81-.65,1.2a6.32,6.32,0,0,1-.7,1.12c-.24.35-.49.68-.71,1a16.18,16.18,0,0,1-1.31,1.45C256.8,323.71,256.57,323.9,256.57,323.9Z"/>
                          <path class="cls-25" d="M249.29,322.86a6.61,6.61,0,0,0,.41-.56c.3-.35.58-.87,1-1.48a21.78,21.78,0,0,0,1.15-2.13l.59-1.19c.19-.41.3-.84.46-1.25s.33-.84.5-1.25.21-.82.32-1.21.22-.77.33-1.14a9,9,0,0,0,.2-1c.22-1.27.45-2.12.45-2.12s.06.85.05,2.12c0,.32,0,.67-.05,1s-.15.75-.22,1.15-.18.8-.26,1.22l-.44,1.26c-.18.42-.32.84-.53,1.25l-.65,1.2a5.67,5.67,0,0,1-.7,1.12l-.71,1c-.5.6-1,1.11-1.3,1.45A7.66,7.66,0,0,1,249.29,322.86Z"/>
                          <path class="cls-25" d="M177.45,322.83a2.27,2.27,0,0,1,.11-.58,10.58,10.58,0,0,1,.55-1.52c.16-.32.34-.65.53-1a6.52,6.52,0,0,1,.68-1.11c.27-.38.56-.78.84-1.19s.67-.8,1-1.2l1.09-1.2,1.2-1.14,1.16-1.06c.36-.33.8-.63,1.16-.92,1.49-1.14,2.55-1.89,2.55-1.89s-.81.8-2.09,2c-.31.29-.71.59-1,.94s-.67.7-1,1.07L183,315.12l-1,1.2c-.35.4-.74.79-1.05,1.18l-.89,1.18c-.61.76-1,1.47-1.47,2.09s-.7,1.12-.86,1.49A5,5,0,0,0,177.45,322.83Z"/>
                          <path class="cls-25" d="M144,323.16a4.86,4.86,0,0,1-.32-.56,11.12,11.12,0,0,1-.6-1.53c-.08-.31-.15-.66-.24-1a4.84,4.84,0,0,1-.17-1.15c0-.4-.05-.81-.07-1.23s0-.84.06-1.26.11-.86.15-1.27.22-.83.32-1.23.22-.77.33-1.14a10.59,10.59,0,0,1,.42-1c.59-1.26,1-2.08,1-2.08s-.18.84-.55,2.1a8.85,8.85,0,0,0-.28,1c-.07.36-.13.75-.21,1.14s-.16.8-.25,1.21-.06.84-.1,1.27-.11.84-.12,1.25,0,.83,0,1.22a19.59,19.59,0,0,0,.13,2.16c.13.64.16,1.17.28,1.53A5.17,5.17,0,0,0,144,323.16Z"/>
                          <path class="cls-25" d="M137.52,322.48a3.4,3.4,0,0,1-.32-.57,11.44,11.44,0,0,1-.6-1.52c-.08-.32-.15-.66-.24-1a4.76,4.76,0,0,1-.17-1.14c0-.4-.05-.81-.07-1.23s0-.85.07-1.27l.15-1.27c.11-.41.21-.82.31-1.22s.22-.78.33-1.14a10.81,10.81,0,0,1,.42-1c.59-1.25,1-2.08,1-2.08s-.18.85-.55,2.11a8.32,8.32,0,0,0-.28,1c-.07.36-.13.74-.2,1.13s-.17.81-.26,1.22-.06.84-.09,1.26-.12.84-.13,1.26,0,.82,0,1.22a19.94,19.94,0,0,0,.13,2.17c.14.62.16,1.15.28,1.52S137.52,322.48,137.52,322.48Z"/>
                          <path class="cls-25" d="M39.52,324.56a3.81,3.81,0,0,1-.27-.57,10.31,10.31,0,0,1-.49-1.53c0-.32-.11-.66-.16-1a4.34,4.34,0,0,1-.08-1.15c0-.4,0-.81,0-1.22s.11-.85.16-1.27.16-.85.24-1.27.28-.82.41-1.22.28-.77.42-1.13a8.63,8.63,0,0,1,.5-1c.68-1.25,1.2-2.07,1.2-2.07s-.25.84-.71,2.1c-.1.31-.28.65-.36,1s-.18.74-.29,1.14-.22.8-.34,1.21-.12.84-.19,1.26-.19.84-.22,1.26,0,.82-.08,1.22c-.08.79,0,1.52,0,2.16s.08,1.16.17,1.53S39.52,324.56,39.52,324.56Z"/>
                          <path class="cls-25" d="M33.08,323.81a3.68,3.68,0,0,1-.27-.58,9.79,9.79,0,0,1-.5-1.53c0-.32-.09-.66-.15-1a4.26,4.26,0,0,1-.09-1.14c0-.4,0-.81,0-1.23s.11-.84.16-1.27.17-.85.25-1.27.28-.82.41-1.21.28-.78.41-1.14a10.56,10.56,0,0,1,.5-1c.69-1.25,1.21-2.07,1.21-2.07s-.24.85-.71,2.1a6.77,6.77,0,0,0-.36,1l-.29,1.13c-.11.39-.22.8-.34,1.21s-.13.84-.19,1.26-.19.84-.22,1.26-.06.82-.08,1.22a20,20,0,0,0,0,2.16c.09.63.07,1.16.16,1.54S33.08,323.81,33.08,323.81Z"/>
                          <g class="cls-26">
                            <path class="cls-27" d="M456.23,276.78,220,262.62,11.42,266.27c-1.23,15-2.18,30.09-2.36,45.17,0,1.86,0,3.71,0,5.56,4.09-1,15.33.69,16,6.49a42.94,42.94,0,0,1,.23,4.62c8.14,0,16,0,24.09,0-.1-.48-.23-1-.39-1.51-3.55-11.28,11.51-12.31,23.92-7.52s10.63,1.37,3.54-2.05,1.77-2.4,8,1,5.31,2.06,8-1.36,1.77,6.15,9.75,2.39,9.74-7.87,13.29-2.05,1.77,4.78,7.09,0,6.19-1.41,7.94,10.73l19.45-.1a7.35,7.35,0,0,0,.07-1.06c0-10.25,4.43-16.76,10.63-10.6s6.2,5.13,5.32-1,9.75.34,7.09,6.15a38,38,0,0,0-2.49,6.44l11.42,0a32.36,32.36,0,0,1,3.47-6.06c6.21-8.56,19.5-8.9,23-5.48s-1.77,9.24,3.54,3.42,11.52-5.47,11.52-.34,3.55,2.4,4.43-1.37,17.72,3.08,15.07-1,11.51-1.71,0,9.23a19.92,19.92,0,0,0-1.73,1.83c8.39.07,16.29.16,23.83.25,5.2-5.15,7.42-15,13.34-11,7.08,4.78,8,5.13,7.08.68s3.54,0,13.29,1.37c8.86,1.24,9.66,4.76,8.41,9.49,10.94.15,21.72.27,32.95.34-2.08-3.51-2.87-6.36-1.48-9.83,1.77-4.45,10.63-6.16,21.26-2.05s11.52,5.47,7.08.34c-4.1-4.75,18.41-2.45,16.09,11.52,6,0,12.19-.11,18.71-.19a9.57,9.57,0,0,0,.64-2.78c.89-12,8.87-10.94,9.76-6.84s5.31,1.37,16.83-1.37.88,4.45,15.06,2.05c11.08-1.87,8.63,2.94,10,8.24h2.64C456.18,310.92,456.16,293.85,456.23,276.78Z"/>
                          </g>
                        </g>
                        <g>
                          <path class="cls-28" d="M198,318.14a59.45,59.45,0,0,0-8.27,8.2c-.94,1.1,8.67,1.24,9.39.4,2.42-2.78,4-6.15,3.79-8.37-.1-1.13-3.91-1-4.91-.23Z"/>
                          <path class="cls-29" d="M160.73,317.86a33,33,0,0,1,4,8.67c.38,1.14-9.13.57-9.43-.31-1-2.91-.85-6.33.45-8.5.67-1.1,4.35-.71,4.94.14Z"/>
                          <path class="cls-30" d="M70.06,321.16c4.72,1.8,9,4,9.32,5.07s-21.79,1.78-22.08.9c-.54-1.58-3-7.2.69-8.42C60.17,318,65.35,319.36,70.06,321.16Z"/>
                          <path class="cls-31" d="M361.85,321.62c4.72,1.79,9,4,9.32,5.07s-21.79,1.78-22.08.91c-.54-1.59-3-7.21.69-8.43C352,318.45,357.14,319.82,361.85,321.62Z"/>
                          <path class="cls-32" d="M231,320.67a41.43,41.43,0,0,1-7.48,5.56c-1.2.77,9.38,1.21,10.19.69,3.8-2.43,5.32-5.14,2.41-6.52-1-.5-4.44-.36-5.12.27Z"/>
                          <g class="cls-20">
                            <path class="cls-33" d="M12,327.14c-.86-.55-1.84-1.12-2.85-1.68,0,.74,0,1.49.06,2.23C11.17,327.57,12.42,327.38,12,327.14Z"/>
                          </g>
                        </g>
                      </g>
                      <g>
                        <path class="cls-34" d="M470.07,211l-13.73-21.86c-96.43,1-199.61,2.24-313,3.48-42.27.46-84.12.33-125.79,0-1.43,24.44-4.12,48.81-6.12,73.21-.77,9.3-1.42,18.6-1.86,27.92,2.63,1.4,7,3.25,14.37,4.24,16.85,2.27-.6-.58-5.38-4.85s0,1.17,16.9,3.44,1.18.78-4.73-2.9,16.27,1.88,17.52,5,6.33-1.19-3.09-5.83,7.05,2.9,19.83,4.6-1.77-1.16-8.25-4.45,8.21,3.28,21.52,3.23-9.88-1.32-15.78-4.61c0,0-2.37-1.75,3.77.18a76.89,76.89,0,0,0,17.46,3.15c5.8.46,2.58-.5,2.58-.5-6.39-.95-18.17-6.94-5.87-2.71s29.65,4.37,21.52,3.23-12.3-4.24-12.3-4.24c5.85,1.74,18.07,3.83,18.07,3.83-3.55-2.13-1.29-3.89-1.29-3.89,14.91,4.62-5.74,10.25,7.17,7s2.27-10,10.18-7.05,2.81,6.12,7.94,3.76-5.46-7.57,2.43-5,34.05,6,28.79,4.57-28-6.91-13.21-5.79,27.24,9.83,23.64,6.34a23.08,23.08,0,0,0-8-4.94c19.14,1.68,29.86,10.7,28,7.2s-10.63-6.39-10.63-6.39c27.07,4.86,59.11,3,44.34,2.46s-22.21-2.55-22.21-2.55c41.24.72,41,5.84,39.16,3.51s-11-3.61-11-3.61c16.54,1.69,21.85,5,20,2.55s-24-3.85-5.29-2.61,23.61,5.47,20,2.56c-2.16-1.76-13.34-3-16.45-3.32h0c1.23.11,4,.34,9,.71,24.36,1.81,29.74,6.9,28.8,4.86s-6.2-3.63-6.2-3.63c11.39,3.17,31.37,4.12,20.91,2.41s-12.25-3-12.25-3c14.43,3.46,53.54,5.2,43.94,3.63a149.24,149.24,0,0,0-15.24-1.84c14.28-1.07,35.65,2.21,27.34.34s-30.84-1.2-17.42-2.13,27,2.38,26.06.93-23.53-3-4-1.89,19.36,7.82,20.11,4.6-11.05-6.1-1-3.65,8.45,6.26,10.54,3.76-8.41-4.79,1.64-2.64,18.79,3.88,13.52,2.15-15.47-4.33-1.51-1.85,14.67,5.79,15.75,3.83-14.07-5.59-7.07-3.87,18.44,1.84,18.44,1.84c39.76-3.83,17.51-1.36-.16,1.55-17,2.81,9.47.7,33.5-2.69C456.18,277.07,470.07,211,470.07,211Z"/>
                        <path class="cls-35" d="M456.21,293.88a29.89,29.89,0,0,0-3.94,1.18c-3.33,1.46-4.18,1.54,3.94.19Z"/>
                        <g class="cls-36">
                          <path class="cls-37" d="M456.34,221.58c-14.12-.41-30.54.57-42.41-.1,12.94-.22,28,0,42.41-.29V220l-8.13,0c2.49-.07,5.22-.13,8.13-.19v-4.24c-10.52-.17-20.57-.63-29.64-1.6L405,212.68c-45.61-1.74-93.67-.91-140-.7,23.79.25,47.28,2,70.66,3.42-21.84-.08-45.26.27-66.93,1.31,11.28-.18,22.78-.3,33.38,1.18-24.46.64-49.81-.91-73.91,1.32,22.32,1,45.13.53,67.57,1.41-26,2.09-53.67,2.53-79.06,5,17.81,4.5,41.14,1.68,61.74,1.68,36.33,0,52.63-.58,89-.67,13.87,0,60.63.59,88.95-.67Z"/>
                          <path class="cls-38" d="M262.34,216.68q7.21,0,14.51,0Q269.6,216.55,262.34,216.68Z"/>
                        </g>
                      </g>
                    </g>
                  </g>
                  <g>
                    <path class="cls-39" d="M112.09,197s-10.45-2.32-10.16-8.7S112.09,197,112.09,197Z"/>
                    <path class="cls-39" d="M114.7,197s-5.8-16-10.16-20,7.55-4.39,10.16,12.3Z"/>
                    <path class="cls-39" d="M116,197s-2.93-12.41,8-13.05C128.93,183.68,116,197,116,197Z"/>
                    <path class="cls-39" d="M124.29,193.83s1.74-9.29,8.42-9.87S124.29,193.83,124.29,193.83Z"/>
                  </g>
                </g>
                <g>
                  <g>
                    <path class="cls-40" d="M257.2,186.18s-6.2,4.39-17.56,5.6l-1.84-7.28-5.12-20.26,1.06-18.77,13.32-10.59s2.57,11.8,4.08,21.48c1,6.33,3.28,17.14,4.74,23.85C256.66,183.78,257.2,186.18,257.2,186.18Z"/>
                    <ellipse class="cls-41" cx="385.36" cy="255.72" rx="60.64" ry="12.59"/>
                    <g>
                      <path class="cls-42" d="M438.93,181.27l-1.86,15.5-4.14,34.51a31,31,0,0,1-30.78,27.31h-36a31,31,0,0,1-30.64-26.27L330,196.81l-2.4-15.54Z"/>
                      <path class="cls-43" d="M438.93,181.27l-1.86,15.5c-54.75,12.23-91.9,4.62-107.08,0l-2.4-15.54Z"/>
                      <g>
                        <path class="cls-44" d="M443.35,187c0,5.37-26.6,9.72-59.42,9.72s-58.18-4.49-59.43-9.72c-6.18-25.92,29.84-11.24,62.45-15C455.57,164,443.35,181.65,443.35,187Z"/>
                        <ellipse class="cls-45" cx="383.48" cy="176.41" rx="59.42" ry="9.72"/>
                        <ellipse class="cls-46" cx="383.12" cy="176.56" rx="50.07" ry="6.04"/>
                      </g>
                      <path class="cls-47" d="M385,182.38s-.44,22.75-1.77,42.63,7.07,15.91,10.61,2.65c0,0,5.74,7.51,8.83,0,0,0,9.72,5.3,8.84-16.79,0,0,2.21-16.34-3.53-30-2.26-5.39-6.74-6.33-11.35-5.5-7.1,1.29-14.5,6.82-14.5,6.82"/>
                      <path class="cls-48" d="M362.5,181.49s-13.26-4.64-11.05,36.45c0,0-7.07,5.74-9.72-5.74,0,0-6.62,6.18-5.3-15.47S343.06,174.42,362.5,181.49Z"/>
                      <path class="cls-47" d="M388.12,178.18s7.74-2,5.08,24.3-2.65,24.08-2.65,24.08"/>
                      <path class="cls-47" d="M402.7,227.66s3.54-28.94-1.76-46.39"/>
                      <path class="cls-48" d="M355.13,179.65s-7.36-3.24-8.54,27.69"/>
                      <path class="cls-48" d="M341.73,212.2s-.73-35.49,6.92-34.32"/>
                    </g>
                    <path class="cls-49" d="M262.58,268.69c.9,10.62-8,12.17-64.45,16.95s-114.91-4.34-115.81-15,31.07-12.46,87.48-17.24S261.68,258.07,262.58,268.69Z"/>
                    <g>
                      <path class="cls-50" d="M92.27,253.4s-4.85-7.09-5.76-.51S92.27,253.4,92.27,253.4Z"/>
                      <path class="cls-50" d="M97.34,254s-6.76-6.59-6.06-1.26S97.34,254,97.34,254Z"/>
                      <path class="cls-50" d="M135.32,270c-35.47-2-51.14-12-54.2-16.8-.84-1.31-.72-2.24.21-2.48,4.3-1.15,5.22,3.11,5.22,3.11,5.3-2.74,8-.6,8-.6,9.6,1.62,13.22.2,16.5-2.48.75-.61,1.48-1.28,2.25-2,4.18-3.88,8.05.31,8.05.31C144.28,256,135.32,270,135.32,270Z"/>
                      <path class="cls-51" d="M135.32,268.9c-35.47-1.88-51.14-11.14-54.2-15.57,21.7,11.24,42.43,8.36,36,4.75a12.33,12.33,0,0,1-6.08-7c.75-.56,1.48-1.19,2.25-1.85,4.18-3.59,8.05.29,8.05.29C144.28,256,135.32,268.9,135.32,268.9Z"/>
                    </g>
                    <g>
                      <path class="cls-52" d="M203,208.66a19.25,19.25,0,0,1-1.1,7.07s6.4-2.21,43.74,37.56c0,0,4.86,11.48-4,25a53.73,53.73,0,0,1-39.54-3.54c-20.77-10.38-55.45-40.86-55.45-40.86l4.2-22.32,5.52-4S179.59,187.46,203,208.66Z"/>
                      <path class="cls-52" d="M179.88,209.1a11.42,11.42,0,0,1,.88,10.31s33.88,26.22,41.54,50.08c0,0,.88,12.07-14.14,17.67s-56-5.6-73-18.26l-6.48-9.43s-23-15-24.45-40.35,17.68-43.3,17.68-43.3Z"/>
                      <path class="cls-52" d="M128.63,259.47s28,17.38,54.2,18.26"/>
                      <g>
                        <path class="cls-53" d="M201.9,215.73a11.06,11.06,0,0,1-8,7.07"/>
                        <path class="cls-54" d="M202,215.75a6.14,6.14,0,0,1-.71,2.85,8.27,8.27,0,0,1-1.8,2.37,11.73,11.73,0,0,1-1.2.9,7.26,7.26,0,0,1-1.36.63,6.08,6.08,0,0,1-2.92.35l0-.1a10.81,10.81,0,0,0,2.58-.95,9.72,9.72,0,0,0,2.25-1.58,11.3,11.3,0,0,0,3.08-4.5Z"/>
                      </g>
                    </g>
                    <path class="cls-55" d="M217.88,116.62s-18.85-2.06-52.14,19.14S128,176.12,128,176.12s57.73,29.16,89.25,7.36,20.91-51.84,20.91-51.84Z"/>
                    <g>
                      <path class="cls-56" d="M144.9,153.22l-7.51,7.95s28.28,16.79,59.87,13.47,30.93-25.4,30.93-25.4l1.54-19s-2-13.47,12.15-8.84c0,0,5.08,1.33,1.11,38.66s-22.09,54.57-51.7,51-65.38-14.13-72-34c0,0-.88-2.43,2.21-4.41,0,0-.44-8.18,5.3-9.28C126.79,163.38,128.34,145,144.9,153.22Z"/>
                      <path class="cls-56" d="M126.79,163.38s-2.21,10.6,17.45,19.22"/>
                      <path class="cls-56" d="M136.07,155.2s-7.07,13.7,50.81,35.57"/>
                      <path class="cls-56" d="M121.49,172.66s4.86,13.69,27.83,23.41"/>
                      <path class="cls-57" d="M239.67,138.86s2.88,62.51-37.55,68.26"/>
                    </g>
                    <g>
                      <g>
                        <path class="cls-50" d="M224.21,107.71s-.22,6.4-14.14,9.06c0,0-.66,8.83,5.75,20.76s11.26,12.59,13.69,1.77a28.9,28.9,0,0,0-2.65-19.44Z"/>
                        <path class="cls-50" d="M230.84,129.36a7.58,7.58,0,0,0-4.64,5.3"/>
                      </g>
                      <g>
                        <path class="cls-58" d="M246.48,61.83c-2,9.33-12.52,17.76-21,15.92S210.18,69.28,212.21,60s9-15.41,19.21-15.19C240.06,45,248.51,52.51,246.48,61.83Z"/>
                        <path class="cls-59" d="M240.77,64.82c-4.7,3.88-9.67,5.89-12.88,2s-5-12,5.21-16.27c6.15-2.59,11.88-2,15.08,1.89S245.46,61,240.77,64.82Z"/>
                        <path class="cls-58" d="M217.61,86.24s-8.22,11.49-6.43,20.56,11.61,9.57,13.77.07S217.61,86.24,217.61,86.24Z"/>
                      </g>
                      <g>
                        <path class="cls-50" d="M277,106.58s.07,0,0,.38a16.88,16.88,0,0,1-2,4.39c-2.44,4.39-1.55,1.7-8.32,11.84s-16.59,16.08-29.47,12.25a32.59,32.59,0,0,1-14.83-22.64s-1.84-8.12,4.45-17.8c0,0,.61-22.44,13.16-27.6s27.17-4.39,36.85,3.39c0,0,16.45,17.51.2,35.84"/>
                        <path class="cls-60" d="M249.5,103.79c0,.12-.06.24-.09.36a3.59,3.59,0,0,1-4.32,2.27c-1.77-.38-3.77-2.9-3.36-4.79a4.89,4.89,0,0,1,.58-1.46A3.8,3.8,0,0,1,247,98.3C249.86,99.27,250,101.76,249.5,103.79Z"/>
                        <path class="cls-61" d="M249.41,104.15a29.69,29.69,0,0,1-7.1-4A3.8,3.8,0,0,1,247,98.3C249.86,99.27,250.27,101.17,249.41,104.15Z"/>
                        <path class="cls-60" d="M268.36,114.5c0,.12.8.74.76.85a3.39,3.39,0,0,1-4.16,2.26c-1.77-.38-3.77-2.9-3.36-4.79.11-.47.74-.83,1-1.31.84-1.43,2.19-1.85,4.4-1.09C269.9,111.39,268.87,112.47,268.36,114.5Z"/>
                        <path class="cls-61" d="M269,115.94c-3-.76-5.78-3.11-7-4,.84-1.44,2.68-3.22,4.9-2.47C269.74,110.46,269.85,113,269,115.94Z"/>
                      </g>
                      <path class="cls-61" d="M224.67,99.25s7.39-14.74,26.39-14.13c0,0,15.84.32,20.41-.88,0,0,8.25,12.19,2.07,30.74l11.71-15.81L274.52,75.93l-29-2.42L224.38,83.68Z"/>
                      <path class="cls-58" d="M267.67,102.52a4.74,4.74,0,0,1,5.06,2.36,5.93,5.93,0,0,1,.45,5.52s.15-5.56-5.08-6.39C268.1,104,266.79,103.44,267.67,102.52Z"/>
                      <g>
                        <path class="cls-58" d="M256,96.78A6,6,0,0,0,252,90.62c-4.58-2-7.74-.29-7.74-.29s7.72-.45,9.57,6C253.83,96.32,254.78,97.92,256,96.78Z"/>
                        <path class="cls-62" d="M264,104.88a19.23,19.23,0,0,0-3.93,3.31,9.12,9.12,0,0,0-2.35,4.39,28.64,28.64,0,0,1-1,5.15,3,3,0,0,1-2,2,5.31,5.31,0,0,1-2.75-.14h0a6.62,6.62,0,0,1-1.32-.77,5.71,5.71,0,0,1-1.09-1,4.62,4.62,0,0,1-.73-1.32,4.36,4.36,0,0,1-.21-1.47h.07a4.74,4.74,0,0,0,.43,1.35,4.48,4.48,0,0,0,.8,1.12,6.36,6.36,0,0,0,1.07.87,5.57,5.57,0,0,0,1.22.61h0a5.08,5.08,0,0,0,2.35.07,2.39,2.39,0,0,0,1.55-1.52,28.71,28.71,0,0,0,1.13-5,9.17,9.17,0,0,1,2.61-4.52,19.38,19.38,0,0,1,4.12-3.16Z"/>
                        <path class="cls-58" d="M248.41,104.22a2.69,2.69,0,0,1-5.26-1.15,2.82,2.82,0,0,1,.33-.82,5.26,5.26,0,0,1,.58-.74,10.8,10.8,0,0,0,4.4,2.25,1.87,1.87,0,0,1,0,.4S248.41,104.2,248.41,104.22Z"/>
                        <path class="cls-58" d="M267.17,115.88a2.4,2.4,0,1,1-4.07-2.41,2.07,2.07,0,0,1,.39-.34c.91.87,2.51,1.28,3.79,2.38a1.92,1.92,0,0,1-.09.32S267.18,115.86,267.17,115.88Z"/>
                        <path class="cls-63" d="M237,115.64a45.84,45.84,0,0,0,3.1,3.65,32.53,32.53,0,0,0,3.47,3.18,24.17,24.17,0,0,0,3.9,2.58l1.05.54,1.09.46.55.24.57.19,1.14.41c-.41,0-.81,0-1.22-.1l-.61-.06-.6-.13-1.19-.29-1.16-.43c-.19-.08-.39-.14-.57-.23l-.56-.28c-.36-.19-.74-.36-1.09-.58l-1-.67c-.34-.23-.66-.49-1-.73a20.33,20.33,0,0,1-3.43-3.51A16.52,16.52,0,0,1,237,115.64Z"/>
                        <path class="cls-63" d="M239.94,123.2c1,.8,1.83,1.54,2.73,2.2.45.33.91.63,1.4.92s1,.56,1.56.9a3.86,3.86,0,0,1-1.91,0,5.08,5.08,0,0,1-1.74-.83,5.41,5.41,0,0,1-1.32-1.38A4.27,4.27,0,0,1,239.94,123.2Z"/>
                        <path class="cls-62" d="M239,115.6a4.34,4.34,0,0,0-1.76.29,2.83,2.83,0,0,0-.58.44,3.91,3.91,0,0,0-.57.64H236a1.09,1.09,0,0,1,.05-1.1,1.41,1.41,0,0,1,1-.55,3.64,3.64,0,0,1,1.95.22Z"/>
                        <path class="cls-62" d="M252.11,125.81a1.38,1.38,0,0,1,.45,1.57,1,1,0,0,1-.74.63,1.13,1.13,0,0,1-.83-.13c.5-.31.79-.51.88-.79A8.2,8.2,0,0,0,252.11,125.81Z"/>
                      </g>
                      <path class="cls-58" d="M272.63,82.44h-.15c-1.21.09-9.38.65-21.59.69-13.24,0-22.09,6.55-25.57,16.12l-13.63.27a31.36,31.36,0,0,1-1.5-12.24,37.94,37.94,0,0,1,20.08-31c7-3.8,16.54-7.1,27.35-5.66C277.1,53.21,292,71,290.09,90.56c0,.41-.09.82-.14,1.23,0,0-3.27,13.16-17.49,23.41C272.46,115.2,282.71,101.36,272.63,82.44Z"/>
                      <g>
                        <g>
                          <path class="cls-50" d="M226.07,99.43s2.8-7.9-2.13-10.83-7.45,3.45-8.06,7.53,2.28,11.92,7.75,7.26"/>
                          <path class="cls-61" d="M218.49,99.25c2,7.26,3.47-1.61,3.47-1.61,1.41-.93,3.6-2.93,1.43-5.73,0,0-.95-2.06-2.86-1.18C219.71,91.12,217.28,94.78,218.49,99.25Z"/>
                        </g>
                        <path class="cls-64" d="M222.13,102.37s1.55,4.42-.57,6.24a2.43,2.43,0,0,1-4.06-2.34,3.69,3.69,0,0,1,.83-1.65l1.83-2.17S221.3,101.49,222.13,102.37Z"/>
                      </g>
                      <path class="cls-65" d="M272.07,82.16a35.11,35.11,0,0,0,3.58-6.4,25.34,25.34,0,0,0,2-7.07,14.73,14.73,0,0,0-.84-7.23,14.09,14.09,0,0,0-4.51-5.78A13.39,13.39,0,0,1,278,65a17.5,17.5,0,0,1,.09,3.76,26.18,26.18,0,0,1-1.78,7.3,36.08,36.08,0,0,1-3.47,6.7Z"/>
                    </g>
                    <path class="cls-53" d="M176.64,209.4l10.6,1.77.59,10.31s34.17,27.09,36.82,49.18l-15.9.59-38-24.15Z"/>
                    <path class="cls-52" d="M127.75,202.33s12.37,18.26,50.36,19.15"/>
                    <g>
                      <path class="cls-53" d="M188.42,228s22.39,12.37,31.81,33"/>
                      <path class="cls-54" d="M188.45,227.91a53,53,0,0,1,5.14,2.77c1.66,1,3.27,2.13,4.86,3.25a83.84,83.84,0,0,1,8.92,7.6l2,2.13,1.92,2.23c.66.72,1.24,1.52,1.84,2.29a22.5,22.5,0,0,1,1.72,2.38,47.77,47.77,0,0,1,5.41,10.36l-.09.05a61.79,61.79,0,0,0-5.94-10,74.47,74.47,0,0,0-7.59-8.77,93.16,93.16,0,0,0-8.68-7.69A89,89,0,0,0,188.4,228Z"/>
                    </g>
                    <g>
                      <g>
                        <path class="cls-66" d="M272.66,260.36s-16.49,3.24-16.2,16.78,2.36,37.41-4.71,56.56,18.56,25.62,18.56,25.62,9.42,10,17.37,3.83c0,0,22.39-7.07,18.86-21.21,0,0-39.77-56.55-31.52-71.86s13.25,5.52,13.25,5.52l5,42.19s4.71,9.72,2.36-5c0,0,13,3.1,6.55-30.78s-11-36.67-21-29S272.66,260.36,272.66,260.36Z"/>
                        <path class="cls-66" d="M270.31,359.32s-14.44-7.07-7.37-59.79"/>
                        <path class="cls-57" d="M287.68,363.15S283,352.84,275,312.78s-11-41.67.59-50.07"/>
                        <path class="cls-57" d="M271.19,262.71s-13,1.77-11.19,22.39"/>
                        <path class="cls-57" d="M284.44,260.65s10.9,16.2,11.2,52.13"/>
                      </g>
                      <g>
                        <path class="cls-55" d="M214.05,149.68l9.95,28,3.08,8.66c-10.38-.88-24.3,7.29-24.3,7.29l-3.45-7.18-13.12-27.28"/>
                        <path class="cls-67" d="M227.08,186.35c-10.38-.88-24.3,7.29-24.3,7.29l-3.45-7.18c1.52-2.06,5.29-5.54,14-7.62A39.42,39.42,0,0,1,224,177.69Z"/>
                      </g>
                    </g>
                    <g>
                      <path class="cls-68" d="M256.44,184.06l3.18,11.8s6.05,8.63,9.53,14.84,16.5,28.14,20.74,31.63c0,0,5.75,2.11,8.92,6.81s5.6,11.65-3.63,15.28c0,0-1.51.61-1.66-1,0,0-2.27,1.13-3.48-.68,0,0-3.56.45-2.88-1.59,0,0-3.45.62-.65-3.47,0,0,1.64-1.88-1.48-5.22-.63-.69-3.6-3.61-3.6-3.61s-13.64-11.08-17.12-16.23-14.15-16-18.84-25.88c0,0-5.33-13-6.24-21.51C239.23,185.25,252.13,179.6,256.44,184.06Z"/>
                      <path class="cls-68" d="M286.93,260.71s1,.87,2.69-.19,2.91-2,3.29-8.17"/>
                      <path class="cls-68" d="M288.71,262.76a9.89,9.89,0,0,0,6.32-3,8.69,8.69,0,0,0,2.2-6.05"/>
                      <path class="cls-68" d="M293.14,263.7s5-2,6.39-5.9"/>
                    </g>
                    <path class="cls-69" d="M257.2,186.18s-6.24,4.39-17.66,5.6l-1.85-7.28a61.46,61.46,0,0,0,18.18-5.14C256.65,182.92,257.2,186.18,257.2,186.18Z"/>
                    <g>
                      <path class="cls-50" d="M203.44,193.42s9.28,18,11.93,25.4,14.88,22.1,45.95,42.27c0,0,5.45,3.83,13.4.44a15.68,15.68,0,0,1,.45,11.34s2.35.3,4.27-5c0,0,1.76,1.76,3.38-2.8,0,0,.89,2.5,2.36-1.33,0,0,2.65,1.48,2.06-9.42s-18-1.33-18-1.33-1.92.15-12.82-13.11-20.73-28-20.73-28L226,186.35A62.78,62.78,0,0,0,203.44,193.42Z"/>
                      <path class="cls-50" d="M279.22,268.16a18.14,18.14,0,0,0,.07-7.51"/>
                      <path class="cls-50" d="M282.46,266.1a17.42,17.42,0,0,0,.29-8"/>
                      <path class="cls-50" d="M285.11,264s1.47-3.9.44-6.7"/>
                      <path class="cls-50" d="M269.64,252.7a6.09,6.09,0,0,0-3.75,4.42"/>
                    </g>
                    <path class="cls-57" d="M276.23,244.56c-1.71,1.22-2.43.19-2.43.19s-1.06-2.1,4.2-5.6c7.13-4.75,8.59-1.92,8.59-1.92A2,2,0,0,1,287,239"/>
                    <path class="cls-57" d="M278.61,246.38c-1.54,1.22-2.19.19-2.19.19s-.95-2.09,3.77-5.6c6.4-4.75,7.72-1.91,7.72-1.91a2.11,2.11,0,0,1,.32,1.8"/>
                    <path class="cls-57" d="M280.12,247.65c-1.55,1.22-2.21.19-2.21.19s-1-2.09,3.81-5.6c6.46-4.75,7.79-1.91,7.79-1.91a2.11,2.11,0,0,1,.32,1.8"/>
                    <path class="cls-57" d="M260.44,260.36s-5.49,5.42-4-4.2c1.4-8.91,7-10.09,7-10.09s1.84-.29,1.1,3"/>
                    <path class="cls-57" d="M258.52,259s-5.48,5.42-4-4.2c1.4-8.91,7-10.09,7-10.09s1.84-.29,1.11,3"/>
                    <path class="cls-57" d="M255.93,257.45s-5.85,5.63-4.24-4.36c1.49-9.26,7.46-10.48,7.46-10.48s2-.31,1.18,3.06"/>
                    <path class="cls-70" d="M262.65,100.46s-1.61-.36,1.12-3A2.9,2.9,0,0,1,262.65,100.46Z"/>
                    <path class="cls-58" d="M241.88,99.81a17.85,17.85,0,0,0,7.62,4.7l-.09-.36S248.18,103.57,241.88,99.81Z"/>
                    <path class="cls-58" d="M262.26,111.35l6.9,4.48-.22.38a28.66,28.66,0,0,1-7-4.26Z"/>
                  </g>
                  <path class="cls-71" d="M69.73,341.59s159.46,2.17,192.59,2.83c3.95.08,4,4.51,14.2,5.41,4.25.38,3-3.48,8.11-3.3,15.45.53,11.19-1.57,31.55-1.81,49.63-.56,128.22-.68,142.57-1.81,11.34-.89-129.93,5.53-141.82,12.59-7.7,4.57,346.82,9.7,333.35,13.26-12.39,3.27-341.12,2.34-355.89,2-13.91-.34-421-4-432.09-7.29-15.8-4.71,424.14,1.32,356.45-13.12C207.34,347.91,69.73,341.59,69.73,341.59Z"/>
                  <g>
                    <path class="cls-72" d="M257.16,339.55a1.67,1.67,0,0,1-.48,2,2.86,2.86,0,0,1,2.15.56,1.35,1.35,0,0,1,0,2,2,2,0,0,1,2.13,1.91,2.18,2.18,0,0,1-2.11,2.1,1.52,1.52,0,0,1,.64,2,1.57,1.57,0,0,1-2,.73c.64,0,.86.91.64,1.53a3.21,3.21,0,0,1-3,1.95,5.4,5.4,0,0,1-3.38-1.45c.07.81-.86,1.36-1.66,1.52a6.23,6.23,0,0,1-6-2.21c0,.36-.52.46-.87.41a3.54,3.54,0,0,1-2.47-1.62,3.37,3.37,0,0,1-2.39-.34,2.93,2.93,0,0,1-1.61-2.94,2.09,2.09,0,0,1,2.69-1.66,5.38,5.38,0,0,1-.79-3.41,4.07,4.07,0,0,1,1.87-3,3,3,0,0,1,3.34.13,6,6,0,0,1-.34-2.59,2.5,2.5,0,0,1,1.54-2,3.44,3.44,0,0,1,2.26.35,2.08,2.08,0,0,1,1.76-1.76,2.39,2.39,0,0,1,2.25,1,3.45,3.45,0,0,1,.49,2.54c.08-.45,1.22-.36,1.46-.25.67.31.45,1,.9,1.41s1,0,1.54,0A1.94,1.94,0,0,1,257.16,339.55Z"/>
                    <path class="cls-60" d="M248.28,335.86a1.57,1.57,0,0,0,.39-.3,1.16,1.16,0,0,1,.78-.27,1.88,1.88,0,0,0,.41,0,.39.39,0,0,0,.34-.2c.1-.21-.1-.44-.31-.54a1.47,1.47,0,0,0-1.09-.09,1.8,1.8,0,0,0-.91.62.67.67,0,0,0-.17.32A.45.45,0,0,0,248.28,335.86Z"/>
                    <path class="cls-60" d="M254.7,341a.75.75,0,0,0,.62.43.66.66,0,0,0,.27-.09.85.85,0,0,0,.36-.85,1.33,1.33,0,0,0-.53-.8,2.62,2.62,0,0,0-.9-.36c-.35-.07-1.28.08-.84.57.15.15.45.16.62.34A3.44,3.44,0,0,1,254.7,341Z"/>
                    <path class="cls-60" d="M258.07,346.32a1,1,0,0,0,.34.71.74.74,0,0,0,.94-.16,1.22,1.22,0,0,0,.24-1,1.85,1.85,0,0,0-1.56-1.51c-.44-.06-1.1.21-.67.65.18.2.42.23.55.5A2.37,2.37,0,0,1,258.07,346.32Z"/>
                    <path class="cls-60" d="M255.73,348.47a1.14,1.14,0,0,1,.61-.46,2,2,0,0,1,.77-.14,1.23,1.23,0,0,1,.6.14.74.74,0,0,1,.37.48.35.35,0,0,1-.09.35c-.12.11-.32.07-.49,0a.86.86,0,0,0-.67.12,3.36,3.36,0,0,0-.24.29C256,350,255.33,349.11,255.73,348.47Z"/>
                    <g>
                      <path class="cls-72" d="M248.71,329.68a1.38,1.38,0,1,1,1.36-1.36,1.36,1.36,0,0,1-1.36,1.36Z"/>
                      <path class="cls-60" d="M248.17,327.36a1.12,1.12,0,0,0-.32.33.83.83,0,0,0-.17.46.37.37,0,0,0,.25.38.17.17,0,0,0,.14,0,.23.23,0,0,0,.11-.17,1.49,1.49,0,0,0,0-.21.51.51,0,0,1,.25-.34c.18-.09.43-.09.5-.31C249,327.11,248.34,327.25,248.17,327.36Z"/>
                    </g>
                    <g>
                      <path class="cls-72" d="M252,332.61a1.19,1.19,0,1,1,1.18-1.17,1.17,1.17,0,0,1-1.18,1.17Z"/>
                      <path class="cls-60" d="M251.51,330.6a1,1,0,0,0-.28.29.7.7,0,0,0-.15.39.34.34,0,0,0,.22.34h.12a.23.23,0,0,0,.1-.15c0-.06,0-.12,0-.18a.42.42,0,0,1,.21-.29c.15-.09.37-.08.43-.27C252.2,330.39,251.65,330.51,251.51,330.6Z"/>
                    </g>
                    <g>
                      <path class="cls-72" d="M261,329.68a1.38,1.38,0,1,1,1.36-1.36,1.36,1.36,0,0,1-1.36,1.36Z"/>
                      <path class="cls-60" d="M260.45,327.36a1,1,0,0,0-.32.33.78.78,0,0,0-.18.46.39.39,0,0,0,.26.38.17.17,0,0,0,.14,0,.26.26,0,0,0,.11-.17c0-.07,0-.14,0-.21a.5.5,0,0,1,.24-.34c.18-.09.44-.09.5-.31C261.24,327.11,260.61,327.25,260.45,327.36Z"/>
                    </g>
                    <g>
                      <path class="cls-72" d="M250.07,324.57a.81.81,0,1,1,.8-.8.8.8,0,0,1-.8.8Z"/>
                      <path class="cls-60" d="M249.75,323.21a1.14,1.14,0,0,0-.19.19.52.52,0,0,0-.1.27.24.24,0,0,0,.15.23.11.11,0,0,0,.08,0,.14.14,0,0,0,.07-.1.49.49,0,0,0,0-.12.28.28,0,0,1,.15-.2c.1-.06.25-.06.29-.19S249.85,323.15,249.75,323.21Z"/>
                    </g>
                    <g>
                      <path class="cls-72" d="M254.55,325a1.43,1.43,0,1,1,1.41-1.4,1.41,1.41,0,0,1-1.41,1.4Z"/>
                      <path class="cls-60" d="M254,322.55a1.33,1.33,0,0,0-.33.34.91.91,0,0,0-.18.47.4.4,0,0,0,.27.4.17.17,0,0,0,.14,0,.24.24,0,0,0,.12-.17c0-.07,0-.15,0-.22a.51.51,0,0,1,.25-.35c.19-.1.45-.09.52-.32C254.82,322.3,254.16,322.44,254,322.55Z"/>
                    </g>
                  </g>
                  <g>
                    <path class="cls-72" d="M273.72,345.23a2.14,2.14,0,0,1-.61,2.61,3.74,3.74,0,0,1,2.76.72,1.74,1.74,0,0,1,0,2.59,2.56,2.56,0,0,1,2.74,2.46,2.8,2.8,0,0,1-2.71,2.69,1.93,1.93,0,0,1,.81,2.52,2,2,0,0,1-2.52.94c.83,0,1.11,1.16.83,2a4.13,4.13,0,0,1-3.91,2.51,7,7,0,0,1-4.33-1.87c.09,1-1.11,1.75-2.14,1.95a8,8,0,0,1-7.69-2.83c-.05.46-.66.59-1.11.53a4.55,4.55,0,0,1-3.17-2.08,4.42,4.42,0,0,1-3.07-.43,3.78,3.78,0,0,1-2.07-3.78c.26-1.55,2.08-2.79,3.45-2.13a6.93,6.93,0,0,1-1-4.38,5.28,5.28,0,0,1,2.4-3.82,3.83,3.83,0,0,1,4.28.17,7.55,7.55,0,0,1-.42-3.33,3.15,3.15,0,0,1,2-2.59,4.41,4.41,0,0,1,2.9.44,2.67,2.67,0,0,1,2.25-2.26,3.07,3.07,0,0,1,2.89,1.34,4.43,4.43,0,0,1,.63,3.25c.09-.58,1.56-.45,1.87-.31.85.39.58,1.32,1.16,1.8s1.31,0,2,.06A2.49,2.49,0,0,1,273.72,345.23Z"/>
                    <path class="cls-60" d="M262.33,340.5a2.05,2.05,0,0,0,.5-.39,1.5,1.5,0,0,1,1-.34,4.7,4.7,0,0,0,.53,0,.49.49,0,0,0,.43-.25c.12-.27-.13-.57-.39-.7a1.94,1.94,0,0,0-1.4-.12,2.36,2.36,0,0,0-1.17.79,1,1,0,0,0-.22.42A.58.58,0,0,0,262.33,340.5Z"/>
                    <path class="cls-60" d="M270.57,347a.94.94,0,0,0,.79.55.76.76,0,0,0,.35-.11,1.1,1.1,0,0,0,.45-1.1,1.56,1.56,0,0,0-.67-1,3.19,3.19,0,0,0-1.16-.47c-.45-.09-1.63.11-1.07.73.18.2.58.21.79.43A5.11,5.11,0,0,1,270.57,347Z"/>
                    <path class="cls-60" d="M274.88,353.91a1.34,1.34,0,0,0,.44.91,1,1,0,0,0,1.21-.2,1.57,1.57,0,0,0,.3-1.26,2.37,2.37,0,0,0-2-1.94c-.56-.07-1.42.27-.87.84.24.25.54.29.72.64A3.12,3.12,0,0,1,274.88,353.91Z"/>
                    <path class="cls-60" d="M271.88,356.67a1.59,1.59,0,0,1,.78-.59,2.64,2.64,0,0,1,1-.18,1.56,1.56,0,0,1,.77.18,1,1,0,0,1,.48.62.48.48,0,0,1-.12.44c-.16.15-.42.1-.63.06a1,1,0,0,0-.86.15,2.76,2.76,0,0,0-.31.37C272.22,358.56,271.37,357.49,271.88,356.67Z"/>
                    <g>
                      <path class="cls-72" d="M264.38,334.67a1.77,1.77,0,1,1,1.75-1.74,1.75,1.75,0,0,1-1.75,1.74Z"/>
                      <path class="cls-60" d="M263.69,331.69a1.64,1.64,0,0,0-.41.42,1.1,1.1,0,0,0-.22.59.5.5,0,0,0,.32.5.22.22,0,0,0,.18,0,.28.28,0,0,0,.15-.21,2.48,2.48,0,0,1,0-.27.61.61,0,0,1,.31-.44c.23-.12.55-.11.64-.4C264.72,331.38,263.9,331.55,263.69,331.69Z"/>
                    </g>
                    <g>
                      <path class="cls-72" d="M270,336.7a1.53,1.53,0,1,1,1.5-1.5,1.5,1.5,0,0,1-1.5,1.5Z"/>
                      <path class="cls-60" d="M269.37,334.13a1.2,1.2,0,0,0-.35.36.9.9,0,0,0-.2.51.44.44,0,0,0,.29.43.2.2,0,0,0,.15,0,.23.23,0,0,0,.12-.19,1.81,1.81,0,0,0,0-.23.56.56,0,0,1,.27-.38c.2-.1.48-.1.55-.34C270.26,333.86,269.55,334,269.37,334.13Z"/>
                    </g>
                    <g>
                      <path class="cls-72" d="M276.32,333a1.77,1.77,0,1,1,1.74-1.75,1.74,1.74,0,0,1-1.74,1.75Z"/>
                      <path class="cls-60" d="M275.63,330a1.37,1.37,0,0,0-.41.42,1.05,1.05,0,0,0-.23.59.51.51,0,0,0,.33.49.23.23,0,0,0,.32-.22,2.3,2.3,0,0,0,0-.26.62.62,0,0,1,.31-.44c.23-.12.56-.12.64-.4C276.65,329.7,275.84,329.88,275.63,330Z"/>
                    </g>
                    <g>
                      <path class="cls-72" d="M264.62,326a1,1,0,1,1,1-1,1,1,0,0,1-1,1Z"/>
                      <path class="cls-60" d="M264.22,324.26a.94.94,0,0,0-.24.25.57.57,0,0,0-.14.35.31.31,0,0,0,.2.29.17.17,0,0,0,.1,0,.18.18,0,0,0,.09-.13s0-.11,0-.16a.37.37,0,0,1,.19-.25c.13-.08.32-.07.37-.24S264.34,324.18,264.22,324.26Z"/>
                    </g>
                    <g>
                      <path class="cls-72" d="M270.08,327.27a1.83,1.83,0,1,1,1.8-1.8,1.8,1.8,0,0,1-1.8,1.8Z"/>
                      <path class="cls-60" d="M269.36,324.19a1.47,1.47,0,0,0-.42.44,1,1,0,0,0-.23.61.51.51,0,0,0,.34.51.28.28,0,0,0,.18,0,.34.34,0,0,0,.15-.23c0-.09,0-.18,0-.27a.62.62,0,0,1,.32-.45c.24-.13.57-.13.66-.42C270.42,323.87,269.58,324.05,269.36,324.19Z"/>
                    </g>
                  </g>
                  <g>
                    <path class="cls-72" d="M221.08,342a.92.92,0,0,0-1,.45,1.49,1.49,0,0,0-.5-1.07.75.75,0,0,0-1.08.2,1.06,1.06,0,0,0-1.23-.92,1.17,1.17,0,0,0-.91,1.31.82.82,0,0,0-1.32,1c-.07-.34-.56-.37-.88-.19a1.71,1.71,0,0,0-.74,1.78,2.85,2.85,0,0,0,1.1,1.62c-.44.05-.64.59-.65,1a3.3,3.3,0,0,0,1.76,2.92c-.18.05-.19.31-.13.49a1.85,1.85,0,0,0,1.11,1.13,1.72,1.72,0,0,0,.41,1.21,1.6,1.6,0,0,0,1.73.56,1.11,1.11,0,0,0,.62-1.57,3,3,0,0,0,1.9.07,2.25,2.25,0,0,0,1.41-1.27,1.58,1.58,0,0,0-.4-1.74,3.25,3.25,0,0,0,1.42-.08,1.34,1.34,0,0,0,.93-1,1.78,1.78,0,0,0-.41-1.15,1.12,1.12,0,0,0,.78-1.09,1.26,1.26,0,0,0-.78-1.07,1.93,1.93,0,0,0-1.4,0c.23-.08.07-.67,0-.78-.22-.32-.59-.14-.83-.34s-.08-.53-.18-.79A1,1,0,0,0,221.08,342Z"/>
                    <path class="cls-60" d="M223.92,346.25A.84.84,0,0,1,224,346a.62.62,0,0,0,.07-.44.8.8,0,0,1-.05-.21.2.2,0,0,1,.07-.2c.1-.07.25,0,.32.11a.79.79,0,0,1,.16.56,1,1,0,0,1-.25.54.33.33,0,0,1-.15.11A.23.23,0,0,1,223.92,346.25Z"/>
                    <path class="cls-60" d="M220.58,343.4a.39.39,0,0,1-.29-.28.26.26,0,0,1,0-.15.46.46,0,0,1,.42-.27.66.66,0,0,1,.48.19,1.44,1.44,0,0,1,.28.44c.07.17.08.67-.22.49-.1-.06-.13-.22-.24-.29A2.54,2.54,0,0,0,220.58,343.4Z"/>
                    <path class="cls-60" d="M217.39,342.17a.56.56,0,0,1-.42-.1.39.39,0,0,1,0-.51.62.62,0,0,1,.5-.22,1,1,0,0,1,.95.66c.08.22,0,.6-.28.42-.12-.08-.16-.2-.32-.24A1.55,1.55,0,0,0,217.39,342.17Z"/>
                    <path class="cls-60" d="M216.46,343.61a.63.63,0,0,0,.19-.36,1,1,0,0,0,0-.42.63.63,0,0,0-.13-.3.4.4,0,0,0-.3-.15.21.21,0,0,0-.17.08c-.05.08,0,.18,0,.27a.41.41,0,0,1,0,.36.93.93,0,0,1-.13.15C215.65,343.62,216.16,343.88,216.46,343.61Z"/>
                    <g>
                      <path class="cls-72" d="M227.18,345.41a.76.76,0,0,0,1.35.29.75.75,0,0,0-.76-1.14.73.73,0,0,0-.59.85Z"/>
                      <path class="cls-60" d="M228.47,345.46a.59.59,0,0,1-.15.2.52.52,0,0,1-.22.14.24.24,0,0,1-.24-.1.17.17,0,0,1,0-.07s.05-.06.08-.08l.11,0a.31.31,0,0,0,.16-.16c0-.1,0-.23.12-.29S228.51,345.36,228.47,345.46Z"/>
                    </g>
                    <g>
                      <path class="cls-72" d="M225.29,344a.66.66,0,0,0,1.17.24.64.64,0,1,0-1.17-.24Z"/>
                      <path class="cls-60" d="M226.41,344a.52.52,0,0,1-.12.17.35.35,0,0,1-.2.12.17.17,0,0,1-.2-.08.07.07,0,0,1,0-.06.1.1,0,0,1,.07-.07l.09,0a.2.2,0,0,0,.14-.14c0-.08,0-.2.1-.25S226.45,344,226.41,344Z"/>
                    </g>
                    <g>
                      <path class="cls-72" d="M226,339a.76.76,0,0,0,1.36.28A.74.74,0,1,0,226,339Z"/>
                      <path class="cls-60" d="M227.27,339.05a.66.66,0,0,1-.14.2.49.49,0,0,1-.23.14.22.22,0,0,1-.23-.1.09.09,0,0,1,0-.07s0-.06.08-.08l.11,0A.26.26,0,0,0,227,339c0-.1,0-.24.12-.29S227.32,339,227.27,339.05Z"/>
                    </g>
                    <g>
                      <path class="cls-72" d="M229.77,344.19a.45.45,0,0,0,.8.17.44.44,0,0,0-.45-.66.42.42,0,0,0-.35.49Z"/>
                      <path class="cls-60" d="M230.53,344.22a.34.34,0,0,1-.09.12.22.22,0,0,1-.13.08.13.13,0,0,1-.14-.06s0,0,0,0a0,0,0,0,1,0,0l.07,0a.15.15,0,0,0,.09-.1c0-.06,0-.14.07-.17S230.55,344.16,230.53,344.22Z"/>
                    </g>
                    <g>
                      <path class="cls-72" d="M229.13,341.89a.78.78,0,0,0,1.4.29.77.77,0,1,0-1.4-.29Z"/>
                      <path class="cls-60" d="M230.47,341.94a.62.62,0,0,1-.15.21.53.53,0,0,1-.24.14.23.23,0,0,1-.24-.1.19.19,0,0,1,0-.08.14.14,0,0,1,.08-.07l.12,0a.28.28,0,0,0,.16-.16c0-.11,0-.25.12-.3S230.51,341.84,230.47,341.94Z"/>
                    </g>
                  </g>
                  <g>
                    <path class="cls-72" d="M307.73,341.31a1.62,1.62,0,0,1,.84,1.88,3,3,0,0,1,2.09-.81c.76.08,1.47.86,1.21,1.58a2,2,0,1,1,2.43,3.15,1.47,1.47,0,0,1,.54,2.89c.54-.37,1.25.21,1.45.83a3.07,3.07,0,0,1-1.31,3.29,5.73,5.73,0,0,1-3.63.82c.55.59.12,1.57-.44,2.15a6.47,6.47,0,0,1-6.22,1.75c.18.3-.15.66-.46.82a3.71,3.71,0,0,1-3,.16,3.58,3.58,0,0,1-2.15,1.12,3,3,0,0,1-3.1-1.38,2,2,0,0,1,1.2-2.86,5.37,5.37,0,0,1-2.69-2.23,3.83,3.83,0,0,1-.27-3.42,3,3,0,0,1,2.8-1.82,5.87,5.87,0,0,1-1.83-1.85,2.33,2.33,0,0,1,0-2.48,3.52,3.52,0,0,1,2.05-1,2,2,0,0,1,.37-2.4,2.5,2.5,0,0,1,2.46-.48,3.47,3.47,0,0,1,1.93,1.7c-.21-.39.78-1,1-1,.73-.15,1,.55,1.58.58s.82-.62,1.29-.86A2,2,0,0,1,307.73,341.31Z"/>
                    <path class="cls-73" d="M316.68,351.36a1.35,1.35,0,0,0-.23.78.76.76,0,0,0,.4.67.83.83,0,0,0,.85-.16,2.46,2.46,0,0,0,.52-.75C319,350.42,317.37,350.16,316.68,351.36Z"/>
                    <path class="cls-72" d="M307.43,330.68a1.75,1.75,0,1,1-1.75-1.74A1.74,1.74,0,0,1,307.43,330.68Z"/>
                    <path class="cls-60" d="M305,329.45a1.6,1.6,0,0,0-.41.41,1.1,1.1,0,0,0-.22.59.5.5,0,0,0,.33.5.25.25,0,0,0,.17,0,.29.29,0,0,0,.15-.22c0-.09,0-.18,0-.27a.62.62,0,0,1,.31-.43c.2-.11.48-.12.6-.31a.28.28,0,0,0,0-.15C306,329.15,305.2,329.31,305,329.45Z"/>
                    <path class="cls-72" d="M315.88,334.87a1.75,1.75,0,1,1-1.75-1.75A1.74,1.74,0,0,1,315.88,334.87Z"/>
                    <path class="cls-60" d="M313.44,333.63a1.64,1.64,0,0,0-.41.42,1.07,1.07,0,0,0-.22.59.51.51,0,0,0,.33.5.25.25,0,0,0,.17,0,.26.26,0,0,0,.15-.21c0-.09,0-.18,0-.27a.64.64,0,0,1,.31-.44c.2-.11.48-.11.6-.31a.33.33,0,0,0,0-.14C314.4,333.33,313.64,333.5,313.44,333.63Z"/>
                    <path class="cls-72" d="M321.14,332.78a1,1,0,1,1-1-1A1,1,0,0,1,321.14,332.78Z"/>
                    <path class="cls-60" d="M319.71,332.05a.82.82,0,0,0-.24.25.63.63,0,0,0-.13.35.3.3,0,0,0,.19.29.12.12,0,0,0,.1,0,.16.16,0,0,0,.09-.12.86.86,0,0,0,0-.16.35.35,0,0,1,.19-.25c.12-.07.28-.07.35-.19a.08.08,0,0,0,0-.08C320.27,331.88,319.83,332,319.71,332.05Z"/>
                    <path class="cls-73" d="M309.85,337.31a2,2,0,0,0,0,.49v.44a.41.41,0,0,0,.1.33.4.4,0,0,0,.24.05.68.68,0,0,0,.35-.06.54.54,0,0,0,.2-.31,3.86,3.86,0,0,0,.2-.74.63.63,0,0,0,0-.43.43.43,0,0,0-.32-.16A.56.56,0,0,0,309.85,337.31Z"/>
                    <path class="cls-73" d="M306.21,335.32a1.08,1.08,0,0,0,0,.59.58.58,0,0,0,.38.42.63.63,0,0,0,.55-.17,1.66,1.66,0,0,0,.31-.51,5.68,5.68,0,0,0,.22-.7.5.5,0,0,0,0-.45C307.1,333.89,306.33,334.9,306.21,335.32Z"/>
                    <path class="cls-73" d="M303.11,336.91a.42.42,0,0,0,.1.37.35.35,0,0,0,.14.06.8.8,0,0,0,.72-.32,2.29,2.29,0,0,0,.33-.75c.12-.45-.12-1.12-.64-.71A2.06,2.06,0,0,0,303.11,336.91Z"/>
                    <path class="cls-73" d="M299.83,339a.65.65,0,0,0-.06.47.4.4,0,0,0,.5.18.8.8,0,0,0,.42-.39c.09-.17.14-.36.22-.54a1.23,1.23,0,0,0,.13-.29c.13-.45-.27-.45-.53-.27A2,2,0,0,0,299.83,339Z"/>
                    <path class="cls-60" d="M295.66,350.75a1.87,1.87,0,0,0-.91,1.31,1.27,1.27,0,0,0,.74,1.33.61.61,0,0,0,.42,0c.35-.12.38-.6.57-.92s.83-.6,1-1.07C297.92,350.26,296.21,350.41,295.66,350.75Z"/>
                    <path class="cls-60" d="M298.07,357.35a.81.81,0,0,0-.83.1,1.66,1.66,0,0,0-.53.69,1.41,1.41,0,0,0-.16,1,.66.66,0,0,0,.79.48.93.93,0,0,1,.5-1.21c.31-.11.74-.09.86-.39a.45.45,0,0,0-.13-.49.88.88,0,0,0-.49-.19Z"/>
                    <path class="cls-60" d="M297.52,344.65a2.29,2.29,0,0,0-2,.91c-.2.27-.3.7,0,.89a.61.61,0,0,0,.75-.16,3.29,3.29,0,0,1,.59-.59,2.34,2.34,0,0,1,.53-.17.67.67,0,0,0,.44-.3.31.31,0,0,0-.16-.45Z"/>
                    <path class="cls-60" d="M312.37,349.46a.94.94,0,0,1,.29-1.07,1.72,1.72,0,0,1,1.11-.34.36.36,0,0,1,.32.1c.13.18-.09.42-.3.46s-.45,0-.63.13-.22.42-.32.64-.44.38-.57.18Z"/>
                  </g>
                </g>
              </g>
            </g>
          </g>
        </g>
      </g>
    </g>
  </g>
</svg>
