<?xml version="1.0" encoding="utf-8"?>
<!-- Generator: Adobe Illustrator 25.2.3, SVG Export Plug-In . SVG Version: 6.00 Build 0)  -->
<svg version="1.1" id="Layer_1" xmlns="http://www.w3.org/2000/svg" xmlns:xlink="http://www.w3.org/1999/xlink" x="0px" y="0px"
	 viewBox="0 0 490 425" style="enable-background:new 0 0 490 425;" xml:space="preserve">
<style type="text/css">
	.st0{fill:#78EFE9;}
	.st1{fill:#0072AB;}
	.st2{fill:#74879E;}
	.st3{clip-path:url(#SVGID_2_);}
	.st4{opacity:0.29;fill:#932216;enable-background:new    ;}
	.st5{fill:none;stroke:#F4F2F2;stroke-width:0.5;stroke-miterlimit:10;}
	.st6{fill:none;}
	.st7{fill:url(#SVGID_3_);}
	.st8{fill:url(#SVGID_4_);}
	.st9{fill:#80E559;}
	.st10{opacity:0.5;fill:url(#SVGID_5_);enable-background:new    ;}
	.st11{fill:#73DD47;}
	.st12{opacity:0.3;}
	.st13{fill:#84E75A;}
	.st14{opacity:0.31;}
	.st15{fill:#5F8337;}
	.st16{opacity:0.5;fill:#5F8337;enable-background:new    ;}
	.st17{fill:#2BB51C;}
	.st18{fill:#1C8E16;}
	.st19{fill:#439C3D;}
	.st20{fill:#9B5334;}
	.st21{fill:#904E27;}
	.st22{fill:#CC773E;}
	.st23{fill:#7C3F29;}
	.st24{fill:#8C4D23;}
	.st25{fill:#723B17;}
	.st26{opacity:0.61;}
	.st27{fill:#666666;}
	.st28{fill:#1A1A1A;}
	.st29{fill:#E6E6E6;}
	.st30{fill:#C93140;}
	.st31{fill:#308C1F;}
	.st32{fill:#1D7C15;}
	.st33{fill:#4FB62B;}
	.st34{fill:#E89C15;}
	.st35{fill:#D3910D;}
	.st36{opacity:0.11;enable-background:new    ;}
	.st37{fill:#F9D1C6;stroke:#323232;stroke-width:0.5;stroke-miterlimit:10;}
	.st38{fill:#3096D2;stroke:#2C3581;stroke-miterlimit:10;}
	.st39{fill:#F6E982;stroke:#453323;stroke-width:0.5;stroke-miterlimit:10;}
	.st40{fill:#7595CC;stroke:#453323;stroke-width:0.5;stroke-miterlimit:10;}
	.st41{fill:#BCD0EB;stroke:#453323;stroke-width:0.5;stroke-miterlimit:10;}
	.st42{fill:#D3DAE5;}
	.st43{fill:#D4E4F4;stroke:#453323;stroke-width:0.5;stroke-miterlimit:10;}
	.st44{fill:#D6C76B;stroke:#453323;stroke-width:0.5;stroke-miterlimit:10;}
	.st45{opacity:0.16;fill:#910303;enable-background:new    ;}
	.st46{fill:none;stroke:#094745;stroke-width:0.75;stroke-miterlimit:10;}
	.st47{opacity:0.2;fill:#420000;enable-background:new    ;}
	.st48{opacity:0.3;fill:#2BB51C;enable-background:new    ;}
	.st49{fill:#342517;}
	.st50{fill:#DB9D8E;}
	.st51{fill:#FFFFFF;stroke:#3D2E17;stroke-miterlimit:10;}
	.st52{fill:#FEFFFE;}
	.st53{fill:#2D2B21;}
	.st54{fill:#F9D1C6;stroke:#49442E;stroke-width:2;stroke-miterlimit:10;}
	.st55{fill:#C4C4C4;}
	.st56{opacity:0.2;fill:#6D261D;enable-background:new    ;}
	.st57{fill:#864A30;stroke:#68321E;stroke-miterlimit:10;}
	.st58{fill:#FFBDA9;}
	.st59{opacity:5.000000e-02;enable-background:new    ;}
	.st60{fill:#C1BAB0;}
	.st61{fill:#E8E3DA;}
	.st62{fill:#F4F2EF;}
	.st63{fill:#330A0A;}
	.st64{fill:#540E0E;}
	.st65{fill:#EF8181;}
	.st66{fill:#231C1C;}
	.st67{fill:#FFFFFF;}
	.st68{fill:#F9FEFF;}
	.st69{fill:#C44949;}
	.st70{fill:#864A30;}
	.st71{fill:#F99300;}
	.st72{fill:#FCB600;}
	.st73{fill:#CC0A0A;}
	.st74{fill:#E55151;}
	.st75{fill:#F5968E;}
	.st76{fill:#951C27;}
	.st77{fill:#D26653;}
	.st78{fill:url(#SVGID_6_);}
	.st79{fill:#F9D1C6;}
	.st80{fill:#F6E982;}
	.st81{opacity:0.53;fill:#FFFFFF;enable-background:new    ;}
	.st82{opacity:0.33;fill:#FFFFFF;enable-background:new    ;}
	.st83{opacity:0.15;fill:#FFFFFF;enable-background:new    ;}
</style>
<polygon class="st0" points="359.8,13.6 130.2,13.6 15.3,212.5 130.2,411.4 359.8,411.4 474.7,212.5 "/>
<polygon class="st1" points="353.3,24.9 136.7,24.9 28.3,212.5 136.7,400.1 353.3,400.1 461.7,212.5 "/>
<polygon class="st2" points="351.5,28 138.5,28 32,212.5 138.5,397 351.5,397 458,212.5 "/>
<g>
	<defs>
		<polygon id="SVGID_1_" points="351.5,28 138.5,28 32,212.5 138.5,397 351.5,397 458,212.5 		"/>
	</defs>
	<clipPath id="SVGID_2_">
		<use xlink:href="#SVGID_1_"  style="overflow:visible;"/>
	</clipPath>
	<g class="st3">
		<path class="st4" d="M328.1,123.4c0,0,112.6,30.2,161.6,59.3s113.8,52.8,113.8,52.8l-167.3-1L328.1,123.4z"/>
		<line class="st5" x1="462" y1="316.4" x2="527.2" y2="316.4"/>
		<line class="st5" x1="461.4" y1="317.6" x2="526.5" y2="317.6"/>
		<line class="st5" x1="460.8" y1="318.9" x2="525.9" y2="318.9"/>
		<line class="st5" x1="460.7" y1="320.1" x2="525.9" y2="320.1"/>
		<line class="st5" x1="460.1" y1="321.3" x2="525.3" y2="321.3"/>
		<line class="st5" x1="459.5" y1="322.6" x2="524.6" y2="322.6"/>
		<line class="st5" x1="459.5" y1="323.8" x2="524.6" y2="323.8"/>
		<line class="st5" x1="458.9" y1="325.1" x2="524" y2="325.1"/>
		<line class="st6" x1="432" y1="272.7" x2="565" y2="271.7"/>
		
			<linearGradient id="SVGID_3_" gradientUnits="userSpaceOnUse" x1="107.2776" y1="-200.7095" x2="262.5377" y2="566.8305" gradientTransform="matrix(1 0 0 -1 0 426)">
			<stop  offset="0.2" style="stop-color:#C5F7FD"/>
			<stop  offset="0.34" style="stop-color:#B3F0FD"/>
			<stop  offset="0.66" style="stop-color:#8EE1FD"/>
			<stop  offset="0.83" style="stop-color:#80DBFD"/>
		</linearGradient>
		<rect x="-294.5" y="-85" class="st7" width="1015.3" height="376.9"/>
		
			<linearGradient id="SVGID_4_" gradientUnits="userSpaceOnUse" x1="240.0898" y1="408.4702" x2="278.8898" y2="447.3002" gradientTransform="matrix(1 0 0 -1 0 426)">
			<stop  offset="0.11" style="stop-color:#85DDFD"/>
			<stop  offset="0.82" style="stop-color:#D7EEF4"/>
		</linearGradient>
		<path class="st8" d="M240.2,1.1c0,0,0.6-4.8,7.7-8s13.1-5,19.3-1.3s4.9,12.3,3.6,13.3c-2.5,2-8,4.5-22.7,2
			C239.2,5.7,240.2,1.1,240.2,1.1z"/>
		<polygon class="st9" points="-286.5,341.4 741.4,319.9 741.4,518.8 -286.5,518.8 		"/>
		
			<linearGradient id="SVGID_5_" gradientUnits="userSpaceOnUse" x1="-47.37" y1="94.22" x2="-47.37" y2="113.78" gradientTransform="matrix(1 0 0 -1 0 426)">
			<stop  offset="0" style="stop-color:#09170A"/>
			<stop  offset="0.58" style="stop-color:#2D550C"/>
			<stop  offset="1" style="stop-color:#16623E"/>
		</linearGradient>
		<path class="st10" d="M-270.3,318.2c17.2,0.2,34.2,1.2,51.4,1.4c21.2,0.2,42.2-1.4,63.4-0.7c12,0.4,24,0.8,36,1
			c10.8,0.2,21.7,0.1,32.5,0.6c22.2,1,43.7,3.5,65.6,5.1c46.6,3.4,93.9,3.9,141.2,4.6c17,0.3,33.6,0.1,50.4-0.5
			c2.9-0.5,6.3-0.6,9.3-0.8c5.3-0.3,10.6-0.4,15.9-0.4c-2.9-0.1-5.4-0.1-7.4-0.1c-17.9,0-56.7,1.5-77.5,0.7s-29.8,0-59.6-1.1
			s-64.6-4.1-85.5-4.8s-44.7-3.7-63.6-4.1s-33.8,0.8-60.6-0.7s-51.7,1.1-79.5-0.4c-18.9-1-39-2-51.7-2.6v3
			C-283.5,318.1-276.7,318.1-270.3,318.2z"/>
		<path class="st11" d="M536.2,178.8c-33.3,8.6-67.5,22.6-101.1,24.9c-44,2.9-87.6,13.1-131.6,15.5c-45.2,2.4-89,1.9-134.1-3.4
			c-39.1-4.5-78.3-0.4-117.3-4.9c-40.1-4.6-79.5-20.2-119.5-24.3c-28.8-2.9-57.4-7.4-85.7-13.4c-23.7-5.1-46.4-18.2-69.9-23.3
			c-22.4-4.8-45.7-13-68.2-13.9v460.6h1012v-483c-28.9,8.9-56.9,20.2-83.9,33.8C604.2,163.8,569.6,170.2,536.2,178.8z"/>
		<g class="st12">
			<path class="st13" d="M646.4,261.9c-3.5,2.4-7.1,4.7-10.7,7c-14.5,9.4-30.2,16.8-46.7,22.1c-34.7,11-73.1,11.1-106.7,25
				c20.3,2.8,41.1,1.5,61.5-0.2c14.2-1.2,28.5-2,42.7-3.1c11-0.9,22.1-1.9,33.2-2c8.2-0.1,19.8-0.6,26.8,3.9
				c5.6,3.6,3.6,9.3-0.1,13.4c-6,6.7-15,11.6-23.4,15.6c-11.4,5.5-23.2,10-35.4,13.5c-11.6,3.4-23.6,6.1-35.8,6.9
				c-8.1,0.5-17.8,0.5-24.6-4c-0.4-0.3-0.5-0.6-0.1-1c7.5-7.8,22-7.8,28.4-16.4c-15.8-5.6-34.8-2.6-51.2-1.2
				c-20.7,1.8-41.5,4.1-62.2,4.6c-44.1,1.2-87.5-9.6-131.7-8.9c-23,0.4-45.9,1.4-68.9,1.6c-22.8,0.2-45.5,0.2-68.2-0.4
				c-16.8-0.5-33.6-0.2-50.3-1.2c-14.7-0.9-30.9-2.7-43.1-10.6c-0.3-0.1-0.4-0.5-0.3-0.8c0.1-0.2,0.3-0.3,0.4-0.3
				c1.4-0.4,2.8-0.7,4.2-0.9c9.7-1.5,19.4-0.4,29.1,0c11,0.4,22-0.7,32.9-1.8c11.1-1.1,22.1-2.4,33.3-3.1c5.3-0.3,10.6-0.5,15.9-0.5
				c-9.3-0.5-18.6-1.2-27.9-2c-39.1-3.4-78.3-0.3-117.4-3.6c-40.2-3.4-79.6-15.1-119.6-18.2c-28.9-2.2-57-5.4-85.7-10
				c-23.7-3.8-46.4-13.6-69.9-17.4c-22.4-3.6-45.7-9.7-68.2-10.4v8.1c4.6,0.3,9.2,0.8,13.8,1.4c43.3,5.3,84.7,18.6,126.7,28.6
				c10.5,2.5,21,4.9,31.7,6.5c10,1.4,20.1,2.3,30.2,2.6c16.5,0.7,34.7,1.5,49.1,9.5c0.3,0.1,0.4,0.5,0.3,0.8
				c-0.1,0.1-0.2,0.2-0.3,0.3c-8.5,3.7-18,5.1-27.4,5.6c-17.8,0.9-35.6-0.9-53.4-0.9c-20.3,0-40.1,4.2-59.8,8.2
				c-11.1,2.2-22.1,5-33.3,6.7c-7.2,1.2-14.6,1.7-21.8,2.6c-7.8,1-16.1,2.3-23.1,5.7c-1.9,0.8-3.7,1.9-5.4,3.1
				c-1.4,1.1-1.5,1.1-0.2,2.4c1.6,1.5,3.3,2.8,5.3,3.8c10.6,5.4,24.2,6.2,36.2,6.7c13.4,0.5,26.8,0.1,40.2,0
				c11.8-0.1,23.5,1,35.3,1.3c14.3,0.4,31.4,0.2,43.8,7.4c0.3,0.1,0.4,0.5,0.3,0.8c0,0,0,0,0,0.1c-3.3,5.3-8.3,6.1-14.6,6.6
				c-5.8,0.5-11.5,1.9-17.2,2.8c-4.9,0.7-9.9,1.4-14.8,1.9c-11.2,1.2-22.4,2-33.7,2.8c-22.9,1.6-45.5,4.3-68.2,7.5
				c-13.2,1.9-26.4,3.6-39.7,4.6v206.6H718.9V240.8C694.4,246.5,670.1,253.5,646.4,261.9z"/>
		</g>
		<g class="st14">
			<path class="st15" d="M725.7,414.5c-9.6,2.7-20.2,5.5-28.3,10c-1.9,1-4.9,2.7-4.7,4.5c0.5,3.3,6.8,5.7,10.4,7.3
				c7.6,3.4,21.2,8.3,17.6,15.8c-1.9,3.9-7.7,5.6-13.2,6.5c-8.4,1.4-17.1,2.4-25.5,3.5c-44.4,5.4-89.6,5.9-134.5,5.9h-69.9
				c-10.2,0-20.5,0.2-30.7,0c-8.7-0.2-17.5-0.8-25.5-3.3c-0.5-0.1-0.4-0.7,0-0.8c24.9-9.1,55-9.9,82.7-10.5
				c9.1-0.2,18.2-0.4,27.4-0.6c10.3-0.3,20.6-1.1,30.9-1.7c11.6-0.7,23.2-1.4,34.8-2.1c10.6-0.6,21.3-1.6,32-2
				c8.2-0.3,17.2-0.3,24.7-2.8c2-0.6,3.9-1.5,5.7-2.7c1.9-1.4,1.4-2-1.2-2.5c-3.7-0.7-7.5-0.9-11.2-0.6c-8,0.4-15.8,1.6-23.8,2.2
				c-11.7,0.8-23.4,1.2-35.1,1.2c-23.5,0-46.9-1.1-70.3-1.2c-21.2-0.1-42.5,0.2-63.7,0.7c-12,0.8-24,1.9-35.7,3.8
				c-11.1,1.8-22,4.2-33.1,6c-10.6,1.8-21.4,3.3-32.3,4.2c-21.6,1.8-43.8,1.5-65.5,0.7c-16.5-0.6-33-1.9-49.1-4.1
				c-46.7-1.8-93.4-5.1-140-1.9c18.4,4.3,38.1,5.8,57.4,6.7c18.4,0.9,36.9,1.7,55.3,2c18.1,0.3,36.2-0.1,54.2,0.7
				c16.3,0.8,33.2,2.4,47.6,7.9c0.5,0.2,0.4,0.6,0,0.8c-10.4,5.1-25,5.8-37.5,6.1c-15,0.4-30-0.4-45-1.1
				c-19.1-0.9-38.3-0.7-57.4-0.9c-22.4-0.3-44.8-0.6-67.2-1.3c-23.7-0.7-47-2.2-70.6-4c-23.2-1.8-46.4-3.5-69.8-3.8
				s-46.6,0-69.8-0.4c-9.8-0.1-19.7-0.1-29.5-0.3c-7.3-0.2-15-0.8-20.9-4c-0.2-0.1-0.3-0.3-0.2-0.5c0-0.1,0.1-0.1,0.2-0.2
				c8-5.5,21-6.8,31.9-7.5c15-1,30.2-0.6,45.3-0.4c18.2,0.3,36.4,0.1,54.6,0.3c11.9,0.1,23.8,0.1,35.7,0c9-0.1,18-0.4,27-0.2
				c8.1,0.2,16.2,0.6,24.3,0.3c7.5-0.3,15.6-1.1,21.8-4.1c-25.3-5.3-51.8-7.4-78.2-8.4s-52.7-1.4-79-2.7c-23.8-1.1-47.4-4-71.2-4.7
				c-11.1-0.3-22.4,0.5-33.4,0.8c-13.5,0.4-27.2,0.8-40.6-0.3c-7.1-0.6-18.1-1.6-21.3-6.7c-0.1-0.1,0-0.4,0.2-0.5
				c13.9-7.4,34.4-8.1,51.5-9.3c23.8-1.6,47.2-5.2,71-7c10.3-0.8,20.1-1.7,29.6-4.5c7.6-2.3,14.6-5,22.8-6.4s18.1-2.3,24.7-6.1
				c1.1-0.6,0.8-0.6-0.3-1.1c-0.7-0.4-1.4-0.8-2.1-1.1c-1.2-0.6-2.5-1-3.8-1.4c-3-0.9-6-1.5-9.1-1.8c-14.5-1.5-29.2,0.5-43.7,0.9
				c-12.4,0.3-26.1-0.2-35.4-6.5c-0.3-0.3-0.2-0.6,0.1-0.8c7.6-3.6,17.3-5,26.4-6c10.2-1.1,20.4-1.6,30.7-2.4
				c9.4-0.7,18.8-1.7,28.3-2.4c11.3-0.8,22.8-1.6,33.9-3.4c8.2-1.3,16.5-2.9,23.7-5.8c4.9-1.9,13.9-5.7,13.4-10.2
				c-0.1-0.7-0.3-1.3-0.7-1.8c-27.6-3.7-55.2-8.4-83-10c-29.9-1.7-58.9-4.3-88.6-7.9c-24.5-3-48-10.7-72.3-13.7
				c-23.1-2.8-47.3-7.7-70.6-8.2v6.4c4.8,0.3,9.5,0.6,14.2,1.1c44.8,4.2,87.6,14.6,131.1,22.5c10.8,2,21.7,3.8,32.8,5.1
				c10.4,1.2,20.7,1.8,31.3,2.1c17.1,0.5,35.9,1.2,50.8,7.4c0.4,0.2,0.5,0.6,0,0.8c-8.8,3-18.7,4-28.4,4.4
				c-18.4,0.7-36.8-0.7-55.3-0.7c-21,0-41.5,3.3-61.8,6.4c-11.4,1.8-22.9,3.9-34.4,5.3c-7.5,0.9-15.1,1.3-22.6,2.1
				c-8.1,0.8-16.6,1.8-23.9,4.5c-1.9,0.6-3.8,1.5-5.5,2.5c-1.5,0.9-1.6,0.9-0.2,1.9c1.7,1.2,3.5,2.3,5.5,3c11,4.3,25,4.9,37.5,5.3
				c13.9,0.4,27.7,0.1,41.6,0c12.2-0.1,24.3,0.8,36.6,1c14.8,0.3,32.5,0.2,45.4,5.8c0.3,0.2,0.4,0.4,0.3,0.7
				c-3.3,4.1-8.5,4.8-15.1,5.2c-6,0.4-11.9,1.5-17.8,2.2c-5.1,0.6-10.2,1.1-15.4,1.5c-11.6,1-23.2,1.6-34.9,2.2
				c-23.7,1.3-47.1,3.4-70.6,5.9c-13.7,1.5-27.3,2.8-41.1,3.7V578H755.8V406.6C745.7,409.1,735.6,411.6,725.7,414.5z"/>
		</g>
		<path class="st16" d="M238.2,346.2c-1.1,0-2.6,0-4.1,0.1c-2.9,0.1-5.5,0.5-6.1,1.1c-0.1,0.1,0,0.2,0.1,0.2
			c2.8,1.3,8.4,0.9,12.3,0.7c1.4-0.1,9.2-0.2,8.8-1.3S240.4,346.2,238.2,346.2z"/>
		<path class="st16" d="M284.7,341.8c-1-0.9-6.7-0.5-8.5-0.5c-0.8,0-2.6,0-4.1,0.1l-1.3,0.1c-0.8,0-3.4,0.5-2,0.9
			c1.9,0.4,3.9,0.6,5.9,0.5c2,0,4-0.1,6-0.2c1.2,0,2.4-0.2,3.5-0.5C284.5,342.2,284.9,342,284.7,341.8z"/>
		<path class="st16" d="M12.1,383.1c-1-0.9-6.7-0.5-8.6-0.5c-0.8,0-2.6,0-4.1,0.1l-1.3,0.1c-0.8,0-3.4,0.5-2,0.9
			c1.9,0.4,3.9,0.6,5.9,0.5c2,0,4-0.1,6-0.2c1.2,0,2.3-0.2,3.5-0.5C12,383.5,12.3,383.3,12.1,383.1z"/>
		<path class="st16" d="M263.3,386.4c-0.8,0-1.8,0-2.8,0.1c-2,0.1-3.8,0.3-4.3,0.8c0,0,0,0.1,0.1,0.2c2,0.9,5.9,0.6,8.6,0.5
			c1,0,6.5-0.1,6.1-0.9S264.9,386.3,263.3,386.4z"/>
		<path class="st16" d="M296,388.8c-0.7-0.6-4.7-0.4-6-0.3c-0.5,0-1.8,0-2.9,0.1h-0.9c-0.6,0-2.4,0.3-1.4,0.6
			c1.4,0.3,2.8,0.4,4.1,0.3c1.4,0,2.8,0,4.2-0.2c0.8,0,1.7-0.1,2.5-0.3C295.9,389.1,296.1,389,296,388.8z"/>
		<path class="st16" d="M437.3,390.5c0,1.1-16.2,2.1-36.1,2.1s-36.1-0.9-36.1-2.1s16.2-2.1,36.1-2.1S437.3,389.3,437.3,390.5z"/>
		<path class="st17" d="M487.9,364.5c0,0,4.6-3.4,13.4-4.3s-9.5-4.5-16,4.3C485.3,364.5,482.4,368.4,487.9,364.5z"/>
		<path class="st17" d="M475.5,365c0,0,13.4-11,21.2-14s-7.5-3.2-18,6C478.8,357,473.5,362.5,475.5,365z"/>
		<path class="st17" d="M471.6,365c0,0,8.9-17.9,12.9-20.1s-6.4-3.4-12.9,11.1C471.6,356.1,469,363.8,471.6,365z"/>
		<path class="st17" d="M466.9,365c0,0,3.4-16.4,6.7-18.9S461.1,348.8,466.9,365z"/>
		<path class="st17" d="M464.9,365c0,0,0.2-13.7-6.9-15.8S462.1,358.1,464.9,365z"/>
		<path class="st17" d="M462.6,365c0,0-5.7-5.6-16.4-6S455.9,354.7,462.6,365z"/>
		<path class="st17" d="M461.7,365c-4.1-4-9.8-6.2-15.6-5.9C436.3,359.6,459.3,363,461.7,365z"/>
		<path class="st18" d="M-294.2,220.3c122.4,5,189.4,5.4,254.5,7c223.3,5.6,218-4.7,342.2,2.3c81.1,4.6,212.6-7.3,293.6-1.2
			c14.8,1.1,47.3,3.8,115.1,2.5c6.6-0.1,5.7,9.2,7.2,1.9c3.5-16.3,3-0.3,2.9,1.2c-0.4,8.5-3.2,2.8-2.6,6.8l-1007.3,0.6L-294.2,220.3
			z"/>
		<path class="st19" d="M-315.3,148c-0.6-7.5-18-13.6-6.3-19.3c22-10.6,69.8-13.7,127-6.9c106.1,12.8,151.4-7.4,253,7.9
			c18.2,2.8,32.5,4.8,60.1,3.3c35.4-1.9,10.1,5.6,89.9-4.4c18.2-2.3,36.7-1.5,54.7,2.5c39,8.6,84.9-1.3,120.7,2.5
			c15.9,1.7,124.2-10.9,133.3-11.8c198.1-20.6,195.9,16.5,195.7,18.6c0,0,10.8,1,21.7,1.4h0.1c0.1,0-9.8,61.1-9.8,61.1h-998
			L-315.3,148z"/>
		<polygon class="st20" points="-289.5,174.9 -289.5,231.4 185.2,231.4 185.2,177.8 		"/>
		<rect x="-289.5" y="170.2" class="st21" width="474.7" height="8.8"/>
		<rect x="-289.5" y="165.8" class="st22" width="474.7" height="8.8"/>
		<rect x="72.2" y="192.2" class="st23" width="8.9" height="4.9"/>
		<rect x="76.7" y="198.3" class="st23" width="8.9" height="4.9"/>
		<rect x="20.9" y="202.6" class="st23" width="8.9" height="4.9"/>
		<rect x="25.3" y="208.7" class="st23" width="8.9" height="4.9"/>
		<rect x="157.2" y="192.2" class="st23" width="8.9" height="4.9"/>
		<rect x="161.6" y="198.3" class="st23" width="8.9" height="4.9"/>
		<polygon class="st20" points="720.9,173.4 720.9,230.9 177.6,228.8 177.6,176.3 		"/>
		<rect x="177.6" y="173.5" class="st24" width="543.3" height="5"/>
		<rect x="185.2" y="164.8" class="st22" width="535.7" height="9.8"/>
		<rect x="398.8" y="188" class="st25" width="10.2" height="4.8"/>
		<rect x="393.7" y="193.9" class="st25" width="10.2" height="4.8"/>
		<rect x="296.8" y="190.4" class="st25" width="10.2" height="4.8"/>
		<rect x="291.7" y="196.3" class="st25" width="10.2" height="4.8"/>
		<rect x="355.5" y="200.6" class="st25" width="10.2" height="4.8"/>
		<rect x="350.4" y="206.6" class="st25" width="10.2" height="4.8"/>
		<rect x="199.6" y="190.4" class="st25" width="10.2" height="4.8"/>
		<rect x="194.5" y="196.3" class="st25" width="10.2" height="4.8"/>
		<g class="st26">
			<path class="st27" d="M21.8,152h-6.5v-2.9c0.6-0.3,0.9-0.9,0.9-1.5c-0.1-1-1-1.8-2-1.7c-0.9,0.1-1.7,0.8-1.7,1.7
				c0,0.6,0.4,1.2,0.9,1.5v2.9h-54.7v-2.9c0.6-0.3,0.9-0.9,0.9-1.5c0-1-0.9-1.8-1.9-1.8c-1,0-1.9,0.8-1.9,1.8c0,0.7,0.4,1.3,1,1.5
				v2.9H-98v-2.9c0.6-0.3,1-0.9,1-1.5c0-1-0.9-1.8-1.9-1.8c-1,0-1.9,0.8-1.9,1.8c0,0.7,0.4,1.3,1,1.5v2.9h-54.7v-2.9
				c0.6-0.3,0.9-0.9,0.9-1.5c0-1-0.9-1.8-1.9-1.8c0,0,0,0,0,0c-1,0-1.9,0.8-1.9,1.8c0,0.6,0.4,1.2,0.9,1.5v2.9h-54.7v-2.9
				c0.6-0.3,0.9-0.9,0.9-1.5c0-1-0.9-1.8-1.9-1.8c-1,0-1.9,0.8-1.9,1.8c0,0,0,0,0,0c0,0.6,0.4,1.2,0.9,1.5v2.9h-54.7v-2.9
				c0.6-0.3,0.9-0.9,0.9-1.5c0-1-0.9-1.8-1.9-1.8c-1,0-1.9,0.8-1.9,1.8c0,0,0,0,0,0c0,0.6,0.4,1.2,0.9,1.5v2.9h-54.7v-2.9
				c0.6-0.3,0.9-0.9,1-1.5c0-1-0.9-1.8-1.9-1.8c-1,0-1.9,0.8-1.9,1.8c0,0.6,0.4,1.2,1,1.5v2.9H-363v2.7h36.8v11.6h1.9v-11.6h54.7
				v11.6h1.9v-11.6h54.7v11.6h1.9v-11.6h54.7v11.6h1.9v-11.6h54.7v11.6h1.8v-11.6h54.7v11.6h1.9v-11.6h54.7v11.6h1.9v-11.6h6.5V152z
				"/>
			<path class="st28" d="M-40.4,152h-0.9v-2.9c0.6-0.3,0.9-0.9,0.9-1.5c0-0.7-0.5-1.3-1.1-1.5c0.1,0.2,0.2,0.5,0.2,0.7
				c0,1-0.9,1.8-1.9,1.8c-0.3,0-0.5-0.1-0.8-0.2c0.3,0.7,1,1.1,1.7,1.1c0.1,0,0.3,0,0.4,0v17h0.6v-11.7h54.7v-0.9h-53.8V152z"/>
		</g>
		<g class="st26">
			<path class="st27" d="M400.3,152h-6.5v-2.9c0.6-0.3,0.9-0.9,0.9-1.5c-0.1-1-1-1.8-2-1.7c-0.9,0.1-1.7,0.8-1.7,1.7
				c0,0.6,0.4,1.2,0.9,1.5v2.9h-54.7v-2.9c0.6-0.3,0.9-0.9,0.9-1.5c-0.1-1-1-1.8-2-1.7c-0.9,0.1-1.7,0.8-1.7,1.7
				c0,0.6,0.4,1.2,0.9,1.5v2.9h-54.7v-2.9c0.6-0.3,0.9-0.9,1-1.5c0-1-0.8-1.9-1.9-1.9c-1,0-1.9,0.8-1.9,1.9c0,0.7,0.4,1.3,1,1.5v2.9
				h-54.8v-2.9c0.6-0.3,0.9-0.9,0.9-1.5c0-1-0.8-1.9-1.9-1.9c-1,0-1.9,0.8-1.9,1.9c0,0.6,0.4,1.2,0.9,1.5v2.9h-54.7v-2.9
				c0.6-0.3,0.9-0.9,0.9-1.5c-0.1-1-1-1.8-2-1.7c-0.9,0.1-1.7,0.8-1.7,1.7c0,0.6,0.4,1.2,0.9,1.5v2.9h-54.7v-2.9
				c0.6-0.3,0.9-0.9,0.9-1.5c-0.1-1-1-1.8-2-1.7c-0.9,0.1-1.7,0.8-1.7,1.7c0,0.6,0.4,1.2,0.9,1.5v2.9H54.1v-2.9
				c0.6-0.3,0.9-0.9,0.9-1.5c0-1-0.8-1.9-1.9-1.9c-1,0-1.9,0.8-1.9,1.9c0,0.7,0.4,1.3,1,1.5v2.9H15.5v2.7h36.8v11.6h1.9v-11.6h54.7
				v11.6h1.9v-11.6h54.7v11.6h1.9v-11.6h54.7v11.6h1.9v-11.6h54.7v11.6h1.9v-11.6h54.7v11.6h1.9v-11.6h54.7v11.6h1.9v-11.6h6.5
				L400.3,152z"/>
			<path class="st29" d="M165.1,147.7c0.8,0.7,2.3-0.6,1.5-1.4S164.3,147,165.1,147.7z"/>
			<path class="st29" d="M221.7,147.7c0.8,0.7,2.3-0.6,1.5-1.4S220.9,147,221.7,147.7z"/>
			<path class="st29" d="M278.3,147.7c0.8,0.7,2.3-0.6,1.5-1.4S277.5,147,278.3,147.7z"/>
			<path class="st29" d="M108.5,147.7c0.8,0.7,2.3-0.6,1.5-1.4S107.7,147,108.5,147.7z"/>
			<path class="st28" d="M55.1,152h-0.9v-2.9c0.6-0.3,0.9-0.9,0.9-1.5c0-0.7-0.5-1.3-1.1-1.5c0.1,0.2,0.2,0.5,0.2,0.7
				c0,1-0.9,1.8-1.9,1.8c-0.3,0-0.5-0.1-0.8-0.2c0.3,0.7,1,1.1,1.7,1.1c0.1,0,0.3,0,0.4,0v17h0.6v-11.7h54.7v-0.9H55.1V152z"/>
			<path class="st28" d="M168.3,153.8V152h-0.9v-2.9c0.9-0.4,1.2-1.5,0.8-2.3c-0.2-0.4-0.5-0.7-0.9-0.8c0.1,0.2,0.2,0.5,0.2,0.7
				c0,1-0.9,1.8-1.9,1.8c-0.3,0-0.5-0.1-0.8-0.2c0.3,0.6,1,1,1.7,1c0.1,0,0.2,0,0.4,0v17h0.6v-11.6h54.7v-0.9H168.3z"/>
			<path class="st28" d="M224.9,153.8V152h-0.9v-2.9c0.6-0.3,0.9-0.9,0.9-1.5c0-0.7-0.5-1.4-1.1-1.6c0.1,0.2,0.2,0.5,0.2,0.7
				c0,1-0.9,1.8-1.9,1.8c0,0,0,0,0,0c-0.3,0-0.5-0.1-0.8-0.2c0.3,0.6,1,1,1.7,1c0.1,0,0.3,0,0.4,0v17h0.6v-11.6h54.7v-0.9H224.9z"/>
			<path class="st28" d="M281.5,153.8V152h-1v-2.9c0.6-0.3,0.9-0.9,1-1.5c0-0.7-0.4-1.4-1.1-1.6c0.1,0.2,0.2,0.5,0.2,0.7
				c0,1-0.9,1.8-1.9,1.8c0,0,0,0,0,0c-0.3,0-0.5-0.1-0.8-0.2c0.3,0.7,1,1.1,1.7,1.1c0.1,0,0.3,0,0.4,0v17h0.6v-11.6h54.7v-0.9H281.5
				z"/>
			<path class="st28" d="M338.1,152h-0.9v-2.9c0.6-0.3,0.9-0.9,0.9-1.5c0-0.7-0.5-1.3-1.1-1.5c0.1,0.2,0.2,0.5,0.2,0.7
				c0,1-0.9,1.8-1.9,1.8c-0.3,0-0.5-0.1-0.8-0.2c0.3,0.7,1,1.1,1.7,1.1c0.1,0,0.3,0,0.4,0v17h0.6v-11.7h54.7v-0.9h-53.8V152z"/>
			<path class="st28" d="M111.7,153.8V152h-0.9v-2.9c0.6-0.3,0.9-0.9,0.9-1.5c0-0.7-0.4-1.4-1.1-1.6c0.1,0.2,0.2,0.5,0.2,0.7
				c0,1-0.9,1.8-1.9,1.8c-0.3,0-0.5-0.1-0.8-0.2c0.3,0.7,1,1.1,1.7,1.1c0.1,0,0.3,0,0.4,0v17h0.6v-11.6h54.7v-0.9H111.7z"/>
		</g>
		<g class="st26">
			<path class="st27" d="M778.8,152h-6.5v-2.9c0.6-0.3,1-0.9,1-1.5c0-1-0.8-1.9-1.9-1.9s-1.9,0.8-1.9,1.9c0,0.7,0.4,1.3,1,1.5v2.9
				h-54.8v-2.9c0.6-0.3,0.9-0.9,0.9-1.5c-0.1-1-1-1.8-2-1.7c-0.9,0.1-1.7,0.8-1.7,1.7c0,0.6,0.4,1.2,0.9,1.5v2.9h-54.7v-2.9
				c0.6-0.3,0.9-0.9,0.9-1.5c-0.1-1-1-1.8-2-1.7c-0.9,0.1-1.7,0.8-1.7,1.7c0,0.6,0.4,1.2,0.9,1.5v2.9h-54.7v-2.9
				c0.6-0.3,0.9-0.9,1-1.5c0-1-0.8-1.9-1.9-1.9s-1.9,0.8-1.9,1.9c0,0.7,0.4,1.3,1,1.5v2.9h-54.8v-2.9c0.6-0.3,0.9-0.9,1-1.5
				c0-1-0.8-1.9-1.9-1.9s-1.9,0.8-1.9,1.9c0,0.7,0.4,1.3,1,1.5v2.9h-54.8v-2.9c0.6-0.3,0.9-0.9,0.9-1.5c-0.1-1-1-1.8-2-1.7
				c-0.9,0.1-1.7,0.8-1.7,1.7c0,0.6,0.4,1.2,0.9,1.5v2.9h-54.7v-2.9c0.6-0.3,0.9-0.9,0.9-1.5c-0.1-1-1-1.8-2-1.7
				c-0.9,0.1-1.7,0.8-1.7,1.7c0,0.6,0.4,1.2,0.9,1.5v2.9H394v2.7h36.8v11.6h1.9v-11.6h54.7v11.6h1.9v-11.6H544v11.6h1.9v-11.6h54.7
				v11.6h1.9v-11.6h54.7v11.6h1.9v-11.6h54.7v11.6h1.9v-11.6h54.7v11.6h1.9v-11.6h6.5L778.8,152z"/>
			<path class="st29" d="M487,147.7c0.8,0.7,2.3-0.6,1.5-1.4S486.2,147,487,147.7z"/>
			<path class="st28" d="M433.6,152h-0.9v-2.9c0.6-0.3,0.9-0.9,0.9-1.5c0-0.7-0.4-1.4-1.1-1.6c0.1,0.2,0.2,0.5,0.2,0.7
				c0,1-0.9,1.8-1.9,1.8c-0.3,0-0.5-0.1-0.8-0.2c0.3,0.7,1,1.1,1.7,1.1c0.1,0,0.3,0,0.4,0v17h0.6v-11.6h54.7v-0.9h-53.8V152z"/>
			<path class="st28" d="M490.2,153.8V152h-0.9v-2.9c0.9-0.4,1.2-1.5,0.8-2.3c-0.2-0.4-0.5-0.7-0.9-0.8c0.1,0.2,0.2,0.5,0.2,0.7
				c0,1-0.9,1.8-1.9,1.8c-0.3,0-0.5-0.1-0.8-0.2c0.3,0.7,1,1.1,1.7,1.1c0.1,0,0.2,0,0.4,0v17h0.6v-11.6H544v-0.9H490.2z"/>
		</g>
		<rect x="179.4" y="161.7" class="st21" width="2.7" height="11.6"/>
		<ellipse class="st30" cx="180.6" cy="153.2" rx="7.6" ry="11.4"/>
		<rect x="417.4" y="161" class="st21" width="2.7" height="11.6"/>
		<ellipse class="st30" cx="418.6" cy="152.5" rx="7.6" ry="11.4"/>
		<path class="st19" d="M44.2,239.1h131.6c0.4-1.1,0.1-2.4-0.8-3.2c-3.3-3.6-11.8-3.1-11.8-3.1s8.4-4.3,3.2-7.2s-12.3-0.4-12.3-0.4
			s7-5.5-0.7-8.2c-0.3-0.1-0.6-0.2-1-0.3c-3.9-1.2-8.1-0.8-11.7,1.1c0,0-1.2-3-5.6-3.6c-2.7-0.5-5.6,0.1-7.8,1.8c0,0-2.2-4.1-10-3.9
			c-10.8,0.3-11.3,4.5-11.3,4.5c-2.2-2-5.2-3-8.1-2.8c-3.9,0.4-3.9,3.7-3.9,3.7s-4-5.4-16.9-3.8h-0.3c-13.1,1.7-9.5,8-9.5,8
			s-5.9-1.8-10.3-0.5c-0.7,0.2-1.4,0.5-2,0.9c-4.2,2.8,0.4,6.1,0.7,6.3c-0.3,0-8-0.9-11,2.9C42.1,234.1,42.5,237,44.2,239.1z"/>
		<path class="st19" d="M262.1,239.9h334.6V222c-5.8-3.3-24.7-5.3-35.4-2.9c0,0,3.4-6.4-21.2-9.5s-42.1,2-42.1,2s-8-7.8-38.4-3.8
			c-9.8-4.5-34.8-4.1-37.4,1.7c0,0-18.9-7.2-47.7-5.4s-29.2,8.8-29.2,8.8s-0.8-0.1-2.3-0.4c-6-0.9-23.5-2.3-39.5,0.8
			c-18.3,3.5-18,7-16.4,9.8c0.4,0.7,0.9,1.3,1.4,1.9c0,0-19.4-0.6-29.6,6.6C253.9,235,257.4,237.9,262.1,239.9z"/>
		<path class="st31" d="M416.5,419.7c0,0,16.4-2.5,15.9-9.2S416.5,419.7,416.5,419.7z"/>
		<path class="st31" d="M413.3,422.4c0,0,9.1-16.9,15.9-21.1s-11.8-4.6-15.9,13V422.4z"/>
		<path class="st31" d="M412.6,420.2c0,0,4.6-13.1-12.5-13.8C392.4,406.1,412.6,420.2,412.6,420.2z"/>
		<path class="st17" d="M58.1,360.2c0,0,7.7-5.1,22.4-6.4s-15.8-6.7-26.8,6.4C53.7,360.2,48.8,366,58.1,360.2z"/>
		<path class="st17" d="M37.3,361c0,0,22.4-16.4,35.5-20.7s-12.6-4.7-30,8.9C42.8,349.1,34,357.3,37.3,361z"/>
		<path class="st17" d="M30.7,361c0,0,14.9-26.5,21.6-29.8s-10.7-5.2-21.6,16.5C30.7,347.7,26.4,359.1,30.7,361z"/>
		<path class="st17" d="M22.8,361c0,0,5.7-24.4,11.2-28S13.3,337,22.8,361z"/>
		<path class="st17" d="M19.5,361c0,0,0.3-20.3-11.5-23.4S14.9,350.8,19.5,361z"/>
		<path class="st17" d="M15.7,361c0,0-7.4-23.3-25.4-23.9S4.5,345.7,15.7,361z"/>
		<path class="st17" d="M14.2,361c0,0-9.6-9.5-26-8.7S10.2,358,14.2,361z"/>
		<path class="st17" d="M9.9,267.4c0,0,5.9-3.9,17.2-4.9s-12.1-5.1-20.5,4.9C6.6,267.4,2.8,271.8,9.9,267.4z"/>
		<path class="st17" d="M-6,267.9c0,0,17.2-12.5,27.2-15.9s-9.6-3.6-23,6.8C-1.8,258.9-8.5,265.1-6,267.9z"/>
		<path class="st17" d="M-11,267.9c0,0,11.4-20.3,16.6-22.8s-8.2-3.9-16.6,12.7C-11,257.8-14.4,266.5-11,267.9z"/>
		<path class="st31" d="M407.9,272.1c0,0,5.4-3.6,15.9-4.5s-11.3-4.8-19,4.5C404.8,272.1,401.3,276.2,407.9,272.1z"/>
		<path class="st31" d="M393.1,272.6c0,0,15.9-11.6,25.2-14.7s-8.9-3.4-21.4,6.3C397,264.2,390.8,270,393.1,272.6z"/>
		<path class="st31" d="M388.5,272.6c0,0,10.6-18.9,15.4-21.2s-7.6-3.6-15.4,11.8C388.5,263.2,385.4,271.3,388.5,272.6z"/>
		<path class="st31" d="M382.8,272.6c0,0,4.1-17.3,8-19.9S376,255.6,382.8,272.6z"/>
		<path class="st31" d="M380.5,272.6c0,0,0.2-14.4-8.1-16.6S377.2,265.4,380.5,272.6z"/>
		<path class="st31" d="M377.8,272.6c0,0-5.3-16.5-18.1-16.9S369.8,261.8,377.8,272.6z"/>
		<path class="st31" d="M376.7,272.6c-5.1-4.4-11.8-6.6-18.5-6.2C346.5,266.9,373.8,270.5,376.7,272.6z"/>
		<path class="st32" d="M221,459.4c0,0,12.9-26.8,22.6-33.6s-16.8-7.4-22.6,20.7V459.4z"/>
		<path class="st32" d="M116.6,435.5c0,0,9-6.9,26.4-8.5s-18.7-9-31.6,8.5C111.4,435.5,105.6,443.3,116.6,435.5z"/>
		<path class="st32" d="M92.1,436.5c0,0,26.4-21.9,41.9-27.8s-14.8-6.3-35.4,11.9C98.6,420.6,88.2,431.6,92.1,436.5z"/>
		<path class="st32" d="M84.4,436.5c0,0,17.5-35.6,25.5-40s-12.6-6.8-25.5,22.2C84.4,418.7,79.2,434,84.4,436.5z"/>
		<path class="st32" d="M75,436.5c0,0,6.8-32.7,13.2-37.5S63.8,404.3,75,436.5z"/>
		<path class="st32" d="M71.2,436.5c0,0,0.3-27.2-13.5-31.4S65.7,422.8,71.2,436.5z"/>
		<path class="st32" d="M66.7,436.5c0,0-8.7-31.2-29.9-31.9S53.5,416,66.7,436.5z"/>
		<path class="st32" d="M64.8,436.5c-8.1-8-19.3-12.3-30.7-11.7C14.8,425.8,60.1,432.6,64.8,436.5z"/>
		<ellipse class="st33" cx="54" cy="365.3" rx="40.2" ry="7.5"/>
		<ellipse class="st33" cx="-12.8" cy="321.2" rx="17.3" ry="3.7"/>
		<path class="st34" d="M165.9,185.9c-0.1-1.2-0.2-6-0.3-6.9l-15.7,0.6c0,0,0.2,6,0.2,7C152.2,188.6,164.1,188.1,165.9,185.9z"/>
		<path class="st35" d="M144.8,185.7c0.3,3.8,7.9,6.4,17,5.8s16.3-4.3,16-8.1s-7.9-6.4-17-5.8S144.5,181.8,144.8,185.7z"/>
		<path class="st36" d="M87.9,337.9c0,2.5,29.6,4.6,66,4.6s66-2,66-4.6s-29.5-4.6-66-4.6S87.9,335.4,87.9,337.9z"/>
		<path class="st37" d="M178.3,323.6c0.1,2.6,13.6,3.4,15.1,1.5c0.5-18.3,1.8-33.8,1.2-39.4c-0.6-6-6.2-19.4-10.1-28.1
			c-5.2,4.2-11.8,16.7-16.8,21.4c5.9,4.5,8.2,7.8,8.5,10.1C176.8,294.3,177.6,307.4,178.3,323.6z"/>
		<path class="st37" d="M105.4,266.9c-1.5-0.5-8.2,11.6-6.8,12.4c11.7,6.6,19.5,10.9,26.5,14.1c4.2,1.9,13.3,0.4,17-12
			C140.5,280.3,110.5,268.6,105.4,266.9z"/>
		<path class="st38" d="M183.3,242.2c0,0,10.3,29.9,13.7,39.7c-5.9,2.7-20.1,7.4-25.5,7.6c-0.9-1.5-7.3-15.5-10.2-21.4
			c-0.8-1.7-4.5-2.2-5.7-0.6c-4.1,5.7-8,11.6-11.6,17.7c-7.3-1.3-21.1-8.3-24.1-13.3c2.6-5.2,12.9-29.4,16.2-35.2L183.3,242.2z"/>
		<path class="st39" d="M177.1,326.7c0,0.5,16.7,1.1,16.8,0.5c1-4.8,1.8-9.7,2.1-12.2l-19.2-1C176.9,319.2,176.9,323.6,177.1,326.7z
			"/>
		<path class="st40" d="M199.4,322.7c-0.2-1.1-0.7-2.4-1.1-3.7c-0.3-0.9-8.6-1.1-8.7,1c0,0.5,0,1,0,1.5c-1.4,0-3-0.1-4.6-0.3
			c-3-0.2-5.9-0.6-8.9-1.2c-0.3,3.5-0.2,9.5-0.5,13.3c0,0,36.6,9.1,42.6,3.6C220,335.4,211.1,327.8,199.4,322.7z"/>
		<path class="st41" d="M175.9,330.9c0,0.9-0.1,1.7-0.1,2.4c0,0,36.6,9.1,42.6,3.6c0.2-0.3,0.3-0.7,0.1-1
			C208.2,337.9,185,333,175.9,330.9z"/>
		<path class="st42" d="M202,323.9c0.3,0.1,0.6-0.1,0.6-0.4c0,0,0,0,0,0c0.1-0.3-0.1-0.6-0.4-0.7c-2.3-0.5-4.8,0.4-6.2,2.3
			c-0.2,0.2-0.2,0.6,0.1,0.8c0.1,0.1,0.2,0.1,0.3,0.1c0.2,0,0.3-0.1,0.4-0.2C198.1,324.3,200.1,323.5,202,323.9z M204.8,325.5
			c0.3,0.1,0.5-0.1,0.6-0.4c0,0,0,0,0-0.1c0-0.3-0.1-0.6-0.4-0.6c-2.3-0.4-4.6,0.5-6.2,2.2c-0.2,0.2-0.2,0.6,0,0.8
			c0.1,0.1,0.2,0.2,0.3,0.2c0.2,0,0.3,0,0.4-0.2C200.8,325.9,202.8,325.2,204.8,325.5L204.8,325.5z M207.9,326.1
			c-2.4-0.4-4.8,0.4-6.5,2.1c-0.2,0.2-0.2,0.6,0,0.8c0.1,0.1,0.2,0.2,0.3,0.2c0.1,0,0.3,0,0.4-0.1c1.4-1.5,3.5-2.2,5.6-1.9
			c0.3,0.1,0.5-0.1,0.6-0.4c0,0,0,0,0,0C208.4,326.4,208.2,326.1,207.9,326.1C207.9,326.1,207.8,326.1,207.9,326.1L207.9,326.1z"/>
		<path class="st39" d="M102.9,266.1c-0.4-0.2-8.2,16.3-7.7,16.6c3.9,2.9,8.2,5,10.3,6.5l8.6-17.5
			C109.6,269.5,105.7,267.4,102.9,266.1z"/>
		<path class="st40" d="M96.8,290.4c1,0.3,2.5,0.4,3.7,0.6c0.9,0.1,4.7-8,2.8-9.2c-0.4-0.3-0.9-0.5-1.3-0.7c0.7-1.4,1.4-2.9,2.2-4.5
			c1.5-2.9,3.1-5.6,4.9-8.3c-2.9-1.9-8.2-4.6-11.5-6.7c0,0-23.8,32.5-21.6,41.1C76.8,305.2,87.3,299.7,96.8,290.4z"/>
		<path class="st41" d="M99.8,263c-0.7-0.4-1.4-0.9-2.1-1.2c0,0-23.8,32.5-21.6,41.1c0.1,0.3,0.4,0.5,0.8,0.6
			C79.7,292.1,94,271.1,99.8,263z"/>
		<path class="st42" d="M94.6,292.4c-0.2,0.3-0.1,0.6,0.1,0.8c0.2,0.2,0.5,0.2,0.7,0c0,0,0,0,0,0c1.5-2.1,1.7-4.9,0.6-7.3
			c-0.1-0.3-0.4-0.4-0.7-0.3c0,0,0,0,0,0c-0.1,0.1-0.2,0.1-0.2,0.2c-0.1,0.2-0.1,0.4,0,0.5C96,288.3,95.9,290.6,94.6,292.4z
			 M92.1,294.5c-0.2,0.3-0.1,0.6,0.2,0.8c0.2,0.2,0.5,0.1,0.7-0.1c0,0,0,0,0,0c1.3-2.2,1.6-4.9,0.7-7.3c-0.1-0.3-0.4-0.5-0.7-0.4
			c0,0,0,0,0,0c-0.1,0-0.2,0.1-0.3,0.3c-0.1,0.1-0.1,0.3,0,0.5C93.5,290.3,93.3,292.6,92.1,294.5z M90.3,297.3
			c1.3-2.3,1.7-5,0.9-7.5c-0.1-0.3-0.4-0.5-0.7-0.4c-0.1,0-0.2,0.1-0.3,0.3c-0.1,0.1-0.1,0.3,0,0.5c0.7,2.2,0.4,4.5-0.7,6.5
			c-0.2,0.3-0.1,0.6,0.1,0.8C89.8,297.6,90.1,297.5,90.3,297.3C90.2,297.3,90.2,297.3,90.3,297.3z"/>
		<path class="st43" d="M186.5,250.9c-13.1,7.3-48.9,3.4-52.9,1.4c0,0,5.4-50.2,6.1-63.6c10.9-1.7,28.9-1.4,37.1-1.3
			C181.6,195.6,186.5,250.9,186.5,250.9z"/>
		<path class="st37" d="M148.9,177.3v14.5c0,3.1,4.7,5.6,10.4,5.6s10.4-2.6,10.4-5.7v-14.4H148.9z"/>
		<path class="st37" d="M83.3,164.5c-1.4,2.7-4.1,9.3-5.5,11.9c3.3,1.8,10.7,5.2,13.5,6.5c1.3-2.8,4.4-9.2,6.1-12.2
			C93.6,169.1,88.5,166.9,83.3,164.5z"/>
		<path class="st44" d="M96.8,169.9l-6.8-3.4c-1.2,1.5-6.4,12.7-6.6,14.1l6.9,2.9L96.8,169.9z"/>
		<path class="st39" d="M93.8,168.5c-2.6,3.6-5.4,11.3-6,13.8c-1.1,7.2,27.4,23.4,53.3,21.1c1.9-2.7,3.5-11,5.3-17.7
			C123,176.6,102.5,165.4,93.8,168.5z"/>
		<path class="st39" d="M123.3,254.3c5,3.3,15.6,5.3,22,4.4c2.9-2.8,4.9-37.8,5-65.9c-0.3,0-2.9-4.9-3.5-5.7c-4,0.1-11.4,0.3-14.7,1
			C124.2,218.1,117.9,250.8,123.3,254.3z"/>
		<path class="st44" d="M232,218.5l4.9,0.5c0.9-0.1,0.8,12.6,0,12.7l-5.2,0.3L232,218.5z"/>
		<path class="st39" d="M233.4,219c-1.8-4.6-15.8-3.4-19.1-5.3c-1-0.6-8.5-11.9-15.3-20.8c-2.8-3.6-10.1-4.7-12.9-5
			c-0.9,3.7,0.6,18.6,0.7,26.2c5.8,9.2,10.4,13.9,16.9,17.1c4.6,2.2,27.1,6.3,29.3,0.7C233.5,230.6,233.9,220.4,233.4,219z"/>
		<path class="st39" d="M192.5,255.4c-4,3.1-11.7,4.5-17.4,3.9c-3.8-0.7-4.1-23.4-4.5-31.7c-0.6-11.9-1.6-27.9-1.7-36.7
			c0.3,0,4.2-3.2,6.8-4.1c4.6,0.1,9.1,0.6,13.6,1.6C196,215.8,201,246.9,192.5,255.4z"/>
		<path class="st45" d="M181.8,190.8c-1.6,1.5-8.4,2.8-12.6,1.6c2-2.2,4.6-4.4,5.5-4.6C177.3,187.7,184.6,188.2,181.8,190.8z"/>
		<path class="st39" d="M179.1,189c-2.6,2.7-6.4,4-10.1,3.4c-1.9-7.9,8.7-8.4,1-11.9c1.2-0.5,2.5-0.9,3.8-1.1
			C176.8,179.7,182.1,185.4,179.1,189z"/>
		<path class="st45" d="M138.7,192.4c1.7,1.9,7,2.5,11.3,0.6c-5.5-6.5-3.4-8.9-4.3-8.9C138.1,183,135.7,189.1,138.7,192.4z"/>
		<path class="st39" d="M140.4,191.4c2,1.7,5.2,3,9.5,1.6c0.6-8-8.2-7.8-1.1-12.4c-1.5-0.2-2.9-0.2-4.4,0.1
			C141.6,181.7,136.9,188.3,140.4,191.4z"/>
		<path class="st44" d="M144.7,262.7c-6.7,0.5-16.5-1.3-21.5-4.1v-4.2c4.3,2.7,15.9,5.3,22,4.4L144.7,262.7z"/>
		<path class="st44" d="M140.8,236.1c-3.9,2.1-9.6,3.7-13,3.5l-0.3-1.8c4.3-0.2,8.6-1.3,12.4-3.3L140.8,236.1z"/>
		<path class="st44" d="M175.3,263c5.9,0.8,12.8,0,17-3.2l0.2-4.4c-3.7,2.8-12.3,4.3-17.7,3.7L175.3,263z"/>
		<path class="st44" d="M177.8,237.8c4,1.6,9.6,2.8,12.9,2.4v-1.7c-4.2,0.1-8.3-0.7-12.2-2.2L177.8,237.8z"/>
		<path class="st46" d="M149.4,220.9c-0.1,0-0.2-0.1-0.3-0.1c-2-2-2-4.9-1.7-7.1c0.2-1.6,0.4-3.2,0.6-4.7c0.3-1.8,0.6-3.7,0.7-5.6
			c0.4-3.5-0.1-7-1.4-10.2c-0.1-0.2,0-0.4,0.2-0.5c0,0,0,0,0.1,0c0.2-0.1,0.5,0,0.6,0.3c1.4,3.3,1.9,7,1.5,10.5
			c-0.1,1.9-0.4,3.8-0.7,5.6c-0.2,1.5-0.5,3.1-0.6,4.7c-0.2,2.1-0.3,4.7,1.5,6.5c0.2,0.1,0.2,0.4,0,0.5c0,0,0,0,0,0
			C149.6,220.8,149.5,220.9,149.4,220.9z"/>
		<path class="st46" d="M173.4,219.7c0.1,0,0.2-0.1,0.3-0.2c1.8-2.2,1.4-5,1-7.3c-0.3-1.6-0.7-3.1-1.1-4.6c-0.5-1.8-1-3.6-1.3-5.5
			c-0.8-3.4-0.6-6.9,0.4-10.3c0.1-0.2,0-0.4-0.2-0.5c0,0,0,0-0.1,0c-0.2-0.1-0.5,0.1-0.5,0.3c-1,3.5-1.2,7.1-0.4,10.6
			c0.4,1.9,0.8,3.7,1.3,5.5c0.4,1.5,0.8,3,1.1,4.6c0.4,2.1,0.7,4.7-0.8,6.6c-0.1,0.2-0.1,0.4,0,0.5c0,0,0,0,0,0
			C173.2,219.7,173.3,219.7,173.4,219.7z"/>
		<path class="st47" d="M171.2,183.4c-0.9,4-6.6,6.1-12.8,4.8s-10.5-5.7-9.6-9.6s6.6-6.1,12.8-4.8S172,179.4,171.2,183.4z"/>
		<path class="st37" d="M206.7,144.2c-0.4,8.9-6.6,15.8-12.2,16.2s-7.9-6.3-8.5-14.7s3.5-15.5,9.1-15.8
			C202.8,129.4,207,135.8,206.7,144.2z"/>
		<ellipse class="st48" cx="305.1" cy="349.6" rx="105.6" ry="6.7"/>
		<path class="st49" d="M204.1,119.8c2.7,29.8-15.8,44.9-43.4,47.4s-49-9.1-51.6-38.9s16.9-38.5,44.5-41S201.4,90.1,204.1,119.8z"/>
		<path class="st37" d="M199.1,158.7c-1.3,12.9-15.7,23.8-27.6,24.7c-25,1.9-52.2-10.3-55.3-45.2s14.7-37.4,39.2-39.6
			c16.3-1.5,30-2.4,37.7,7.8C197.9,112.7,199.9,150.8,199.1,158.7z"/>
		<path class="st50" d="M139.9,160c0,1.3,1.9,2.3,4.2,2.2s4.1-1.1,4.1-2.4s-1.9-2.2-4.2-2.2S139.9,158.8,139.9,160z"/>
		<path class="st50" d="M186.5,154.4c0.2,1.1,1.9,1.8,3.9,1.5s3.4-1.5,3.2-2.6s-1.9-1.8-3.9-1.5S186.3,153.2,186.5,154.4z"/>
		<path class="st51" d="M177.1,137.3c-2.1,4.6-1.2,9.3,1.3,10.8c3.7,2.3,11.9,2.1,14.4-2.2s0.2-10.9-4.9-13.3
			C183.5,130.6,179.1,132.9,177.1,137.3z"/>
		<path class="st49" d="M178.4,140.1c-0.8,3,0.8,6.1,3.7,7.2c2.8,0.9,5.6-0.9,6.3-4s-0.9-6.3-3.7-7.2S179.1,137,178.4,140.1z"/>
		<path class="st52" d="M178.8,139.5c-0.2,0.8,0.2,1.7,1,2c0.7,0.2,1.5-0.2,1.7-0.9c0-0.1,0-0.1,0-0.2c0.2-0.8-0.2-1.7-1-2
			c-0.7-0.2-1.5,0.2-1.7,1C178.8,139.4,178.8,139.5,178.8,139.5z"/>
		<path class="st51" d="M156.5,139.6c3.4,4,3.5,8.8,1.1,10.8c-3.6,3.1-12.7,4.9-16.6,1.3s-2.8-10.5,2.3-14.1
			C147.8,134.6,153.2,135.8,156.5,139.6z"/>
		<path class="st53" d="M143,143.9c-0.9,3.1,1,6.3,4.1,7.2c3.1,0.9,6.3-1,7.2-4.1c0.9-3.1-1-6.3-4.1-7.2c0,0,0,0,0,0
			C147.1,139,143.9,140.8,143,143.9z"/>
		<path class="st52" d="M143.4,143.4c-0.2,0.9,0.3,1.8,1.1,2c0.9,0.2,1.8-0.3,2-1.1c0.2-0.9-0.3-1.8-1.1-2
			C144.5,142,143.6,142.5,143.4,143.4z"/>
		<path class="st54" d="M172.1,152.5c-0.2,0-0.4-0.1-0.4-0.3c-0.3-1.4-1.7-2.3-3.1-2.1c-1.4,0-2.6,1.2-2.7,2.6
			c0,0.2-0.2,0.4-0.4,0.4c-0.2,0-0.4-0.2-0.4-0.4c0.2-2.1,2-3.6,4.1-3.4c1.5,0.1,2.8,1.2,3.3,2.7
			C172.5,152.2,172.3,152.4,172.1,152.5C172.1,152.4,172.1,152.4,172.1,152.5L172.1,152.5z"/>
		<path class="st49" d="M129.5,129.7c0.9,14.6-3.7,24.4-9.9,25s-12.3-16.6-13.6-31.2c-1.5-16.8,6.8-24.3,13-25.8
			S128.5,113.1,129.5,129.7z"/>
		<path class="st37" d="M107.9,159c3.7,9.2,13.8,13.9,20.6,12.1c6.8-1.9,2.3-29.9-10.6-30.7C107.2,139.7,104.4,150.4,107.9,159z"/>
		<path class="st50" d="M115.6,157.6c1.1,3.9,6,6.7,9.3,5.2c1.3-0.6-2.8-14.3-4.9-14C116.3,149.2,114.5,153.7,115.6,157.6z"/>
		<path class="st49" d="M201.6,99.2c-0.5-1-1-1.8-1.4-2.7c0.9-0.7,1.6-1.5,2.1-2.5l-0.4-1.3c-0.3-0.1-0.6-0.3-0.8-0.6
			c-1-1.7-2-3.5-2.8-5.3c-0.4-0.9-0.9-1.8-1.2-2.8c-0.7-1-1.4-2-2-3.1c-1.1-0.4-2.3-0.8-3.5-1c-2-0.3-4.1-0.3-6.1,0.1
			c0.9-2.1,0.7-4.5-0.6-6.4c-2.4-3.5-8.1-3.6-12.8-0.3c-1,0.7-1.9,1.6-2.7,2.6c-0.4-2.3-1.6-4.5-3.2-6.2c-6.4-6.3-19.2-3.4-28.5,6.4
			c-4.5,4.6-7.5,10.4-8.6,16.8c-0.1-2.6-1.9-8.4-6.2-10.6c-0.1,0.3-0.3,0.5-0.6,0.6c-0.8,0.4-1.5,0.8-2.3,1.3
			c-0.2,0.1-0.4,0.3-0.6,0.4l-0.2,0.2l-0.1,0.1c-0.3,0.3-0.7,0.6-1,0.8s-0.7,0.7-1.1,1.1l-1.2,1.9c0.2,0.1,0.5,0.2,0.8,0.2
			c4.6,0.9,8,1.4,11.3,5c-7-2.2-16.3,0.3-21.4,8.7c-0.6,4-1.1,8-1.4,12c-0.1,2.4-0.2,4.9-0.3,7.4c0.2,1.8,0.3,3.6,0.5,5.4
			c1.6,4,3.8,6.9,6,7.4c5.6,1.2,12.4-4.3,15.7-13.9c0.2-0.5,0.3-0.9,0.4-1.4c0-0.1,0-0.1,0-0.2V119c-0.3-0.3-0.4-0.8-0.3-1.2
			c0.1-0.4,0.2-0.9,0.3-1.3c0-1.7,0-3.3,0.1-5c-0.2-2.6-0.4-4.6,0.5-5c0.1-0.7,0.2-1.4,0.4-2.1c0.1-0.6,0.6-1,1.2-1
			c0-0.1,0-0.3,0-0.4c0-0.6,0.4-1.1,1-1.3c0.1,0,0.3,0,0.4,0c0.2-0.1,0.4-0.2,0.7-0.2c0.8,0,1.4,0.6,1.4,1.4v1.6c1,0.3,2,0.7,3,1.2
			c1.1,0.6,2.1,1.2,3.1,1.8l0,0c3.9,0.7,7.8,1.6,11.7,2.4c-0.3-1-0.8-1.9-1.4-2.7c0.4-0.2,0.8-0.4,1.2-0.6c3,1.1,6.2,1.5,9.4,1.2
			c1.9-0.1,3.8-0.5,5.6-1.1c0.1-0.2,0.3-0.4,0.4-0.6c0.2-0.2,0.4-0.4,0.7-0.6c0.3-0.2,0.7-0.3,1.1-0.3c0.2,0,0.4,0,0.6,0.1
			c0.1,0,0.2,0.1,0.4,0.1c3.7-1.9,6.3-4.8,7-7.9c0.9,3.6,3.7,7.4,7.8,10.1c4.5,2.9,9.4,3.8,13.1,2.7c3.3,5,5.8,10.5,7.6,9.6
			c0.1-0.1,0.2-0.1,0.3-0.2c0-2.7,0-5.3,0.1-8l-0.1-1c0-0.2,0-0.4,0.1-0.6c0-0.6,0-1.2,0-1.8c0-0.1,0-0.2,0.1-0.3
			C203.9,104.9,202.9,102,201.6,99.2z"/>
		<path class="st37" d="M247.4,212.5c-6.1,1.5-8.4,3-10.6,5.7c-3,3.7-2.3,8.7,0.4,11.9c1.4,1.8,4.9,3.2,12.3,4.1
			c0.2-4,5.1-11.6,4.5-17.9C251.1,217.2,248.8,213.7,247.4,212.5z"/>
		<path class="st55" d="M362.7,260.5h-0.1c-27.4-3.6-43.7-8.7-64.5-20.3c-5.8-3.2-11.3-7-16.7-10.6c-11.3-7.7-21-14.3-28.1-12.4
			c-8.7,2.4-8.1,11.1-7.4,20.4c0.6,8.1,1.1,16.4-4.6,21c-0.5,0.4-1.1,0.3-1.5-0.2c-0.4-0.5-0.3-1.1,0.2-1.5
			c4.9-3.9,4.3-11.6,3.8-19.2c-0.7-9.7-1.4-19.7,9-22.5c8.1-2.2,18.2,4.7,29.9,12.6c5.3,3.6,10.8,7.4,16.5,10.5
			c20.5,11.4,36.6,16.4,63.7,20c0.6,0,1,0.5,1,1.1C363.8,260.1,363.3,260.6,362.7,260.5L362.7,260.5z"/>
		<path class="st56" d="M240.6,222.9c-1.9,5.7,2.9,9.4,7.8,10c0-1.2,5.6-8.6,5.3-12.8c-1.6-4-6.4-1.6-6.6-3
			C246.8,220.3,244,222.9,240.6,222.9z"/>
		<path class="st37" d="M251.5,220.8c-3.2-0.3-5.8,0.6-5.9,2s2.4,2.9,5.6,3.2s5.8-0.6,5.9-2S254.6,221.1,251.5,220.8z"/>
		<path class="st37" d="M251.6,215.9c-3.2,0.1-5.6,1.3-5.5,2.7s2.8,2.5,6,2.5s5.6-1.3,5.5-2.7S254.8,215.9,251.6,215.9z"/>
		<path class="st37" d="M251.3,225.4c-3.1-0.7-5.9-0.2-6.2,1.2s2,3,5.1,3.7s5.9,0.2,6.2-1.2S254.4,226.1,251.3,225.4z"/>
		<path class="st37" d="M250.1,229.5c-2.5-1.2-5-1.2-5.7,0s0.9,3.1,3.4,4.3s5,1.2,5.7,0S252.6,230.7,250.1,229.5z"/>
		<path class="st37" d="M252.1,222.2c-1.5,0.7-3.9-0.8-5.3-3.5s-1.4-5.4,0.1-6.1s3.9,0.8,5.3,3.5S253.6,221.5,252.1,222.2z"/>
		<path class="st37" d="M68.6,173.3c-0.2,0.8-1.4,1.3-3.2,2.1c-1.5,0.7-3.9,1.7-4.5,2.8s0.6,1.9,2.5,1.7c3.3-0.3,10.6-1.1,14.2-1.8
			c6.2-0.8,11.1-6.5,10.2-12.3c-1.4-8.7-2.4-12-3.5-17.3c-0.3-1.3-2.7,0.4-3.1,2.2c-0.8,3.9,0.1,5-0.4,6.9s-2.2,1.8-3.9,0.9
			c-7.2-6.3-10.6-10.7-13.3-9.6c-2.1,1.2,2.3,6.2,7.5,11.6c-7.4-3.3-13.6-5.4-14.2-3.4c-0.7,2.4,5.7,5.4,11.2,8.7
			c-6.1,0.9-12.8,0.2-12.3,3.4C56.2,171.6,69.2,171.1,68.6,173.3z"/>
		<path class="st57" d="M341.3,224.9c1.8,6.8,17-3.2,15.6-8.6c-1.9-7.4-11-19.6-13.5-18.8C340.6,198.4,338.2,213.4,341.3,224.9z"/>
		<path class="st58" d="M345.1,217.7c1.3,5.4,10.8,1.5,9.7-2.8c-1.5-5.9-8.4-15.5-10.3-14.9C342.4,200.7,343.8,212.3,345.1,217.7z"
			/>
		<path class="st57" d="M363.5,218.1c0,7,12.6,2.5,12.9-3c0.4-7.7-3.5-21.9-5.5-21.8C368.5,193.3,363.5,208.2,363.5,218.1z"/>
		<path class="st58" d="M368.3,213.1c-0.3,5.5,6,4.4,6.3,0c0.3-6-1.8-17.2-3-17.1C370.1,196,368.6,207.6,368.3,213.1z"/>
		<ellipse class="st59" cx="312.1" cy="350.6" rx="77" ry="3.5"/>
		<path class="st60" d="M304.3,300.6c-3.3,5.6-7.6,10.5-12.7,14.4c-7.3,5.7-10.2,9.5-11.2,14.2c-1.3,6,9.5,14,8.4,17.9
			c-0.4,1.3-9.9,1.6-12.2,0.5c-2-0.9-2.5-3.7-4.8-7.1c-3.7-5.5-6.4-7.5-6.3-11.8c0.1-3.5,8.8-14.3,7.1-31.2
			C274.2,297.5,302.1,300.5,304.3,300.6z"/>
		<path class="st60" d="M332.6,297.3c-1.9,5.9-2.1,17.1-6.1,25.2c-2.2,4.5-13.2,11.8-13.7,14.3c-1.1,5.1,7.6,5.5,11.2,4.1
			c2.1-0.9,11.4-10.3,13.7-14c3.2-5,6-14.9,9-26.8C345,299.5,334.8,297.9,332.6,297.3z"/>
		<path class="st61" d="M373.1,250.4c-4.3-1.7-25.8-8.5-29.8-8.5c-8.9,13.1-12.9,16-23.1,16.9c-18.3,1.5-35.7-5.1-52.3-1.5
			c-11.6,2.5-18,16.6-18.9,27.3c12.5,14.5,23.1,23.5,24.5,24.6c2.8-1.6,6.1-5,15.4-3.8c13.7,1.7,25.2,8.9,40,10.8
			c23.3,2.9,40.1-9.2,43.9-22.3C375.9,283.5,372.9,268.6,373.1,250.4z"/>
		<path class="st62" d="M401.3,234.5c1.4,1.6,0.7,12.6-9.6,16.1c-0.8,0.3,1,10.4-2.2,13.1c-4.3,3.5-12.8,1.2-19.6-3.4
			c-4.9-3.4-30.3-9.4-31.8-10.6c4-7.4-0.4-20,6.4-30.1c5.2-7.8,25.6-11.6,35.3-4.8c7.8,5.4,7.4,14.9,12.1,18.3
			C396.2,232.9,399.4,232.4,401.3,234.5z"/>
		<path class="st57" d="M396.3,235.3c-3,0-10.1-0.1-14.2-1.5c-6.2-2.1-9.3-15.6-13.9-15.5c-5.9,0.1-10.3,11.3-10.8,17.3
			c-0.6,6.5-15.4,0.1-4.7,16.1c-3.1,1.2-14.1-0.5-15.6-1.7c4.1-12.4-0.3-20.4,6.5-30.6c5.2-7.8,26.4-11.7,36.1-4.9
			c3.3,2.3,5.7,5.5,6.9,9.3c-5.6-7-9.2-7.7-10.2-7.2c-1.8,0.9,4.2,14.7,6.7,16C387.2,234.9,394.7,235.1,396.3,235.3z"/>
		<path class="st63" d="M400.4,235.8c0.5,1.6-0.9,5.5-3.8,5.8s-6.4-1.8-6.7-4.6c-0.2-1.7,2.6-2,5.5-2.4S399.9,234.2,400.4,235.8z"/>
		<path class="st64" d="M390.4,250.9c-0.4,2.4,0.9,10.7-3.7,10.8c-9.1,0.2-12.2-12.1-15.6-15.6c5.4,5.3,12.4,8,17.1,3.8
			C388.7,250.5,389.4,251.2,390.4,250.9z"/>
		<path class="st65" d="M395.2,264.5c0.6,2.7,1,6.2-1,8.7c-1.4,1.7-5.7,2.1-7.3-0.1s0.9-7-8.5-15.7c1.2-2.4,4.8-2.8,7.8-1.3
			c0.8-0.6,1.9-0.8,2.8-0.3C390.8,256.6,394.1,259.9,395.2,264.5z"/>
		<path class="st66" d="M365.7,233.1c0.3,2.3,2.4,4,4.7,3.8c2.3-0.3,4-2.4,3.8-4.7c-0.2-2.1-2-3.8-4.2-3.8
			C367.5,228.5,365.6,230.6,365.7,233.1z"/>
		<path class="st67" d="M366,233.4c0.2,2.3,2.2,4,4.5,3.9c2.3-0.2,4-2.2,3.9-4.5c-0.2-2.2-1.9-3.8-4.1-3.9
			C367.8,229,365.9,231,366,233.4z"/>
		<path class="st66" d="M365.9,233.5c0.2,2,2,3.5,4.1,3.3s3.5-2,3.3-4.1c-0.2-1.9-1.8-3.3-3.7-3.3
			C367.5,229.5,365.9,231.4,365.9,233.5z"/>
		<path class="st68" d="M370.5,231c0.1,0.5,0.5,0.8,1,0.8s0.8-0.5,0.8-1c-0.1-0.4-0.4-0.8-0.9-0.8
			C370.8,230.1,370.5,230.5,370.5,231z"/>
		<path class="st66" d="M383.8,230.1c0.6,2,2.1,3.4,3.3,3s1.7-2.3,1.1-4.3s-2.1-3.4-3.3-3S383.2,228.1,383.8,230.1z"/>
		<path class="st67" d="M383.8,230.3c0.6,1.9,2,3.2,3.2,2.9s1.7-2.2,1.1-4.2s-2-3.2-3.2-2.9S383.3,228.4,383.8,230.3z"/>
		<path class="st66" d="M383.8,230.3c0.5,1.8,1.8,3,2.9,2.6s1.5-2,1-3.8s-1.8-2.9-2.9-2.6S383.2,228.5,383.8,230.3z"/>
		<path class="st68" d="M385.5,227.6c0.1,0.4,0.4,0.7,0.7,0.6s0.4-0.5,0.2-0.9s-0.4-0.7-0.7-0.6S385.4,227.2,385.5,227.6z"/>
		<path class="st69" d="M391.8,265.2c0.2,0.9-0.4,0.9-0.7,0c-0.7-3.3-2.3-6.3-4.8-8.6C389.4,257.9,391.1,261.6,391.8,265.2z"/>
		<path class="st57" d="M266.3,264.8c-18.5,6.2-25.6,28.7-52.2,18.2c-14.3-5.6-18.4-24-15.2-23.4c13.8,6.6,39.3,10,68.5-2.1
			C267,259.6,266.4,264.7,266.3,264.8z"/>
		<path class="st70" d="M212.8,281c-2.3,0.1-6.1-0.9-10.3-3.8c5.6,7.5,17.9,15.1,36.4,5.4C238,281.3,213.8,281,212.8,281z"/>
		<path class="st57" d="M229.1,265.5c-8.9,0-22.8-3.2-28.6-8.4c2.8,4.9,7.5,7.1,9.1,7.3C214.1,266.1,225.4,266.8,229.1,265.5z"/>
		<path class="st62" d="M294.8,283.8c0,12.5-7.8,25.6-18.6,29.1c-19.4,6.2-25.7,13-28.6,15.7c-2.1,2-5.2,8-4.7,12.6s2.2,5.6,1.4,7.5
			c-0.7,1.6-12.2,1.4-12.7,0.3c-3.6-6.9,1.2-18.3,0.4-24c-0.5-3.5,14.4-15.7,17.1-25.5c1.4-4.9-0.5-33.7,20.3-38.3
			C286.2,257.6,294.8,271.3,294.8,283.8z"/>
		<path class="st62" d="M325.3,301.2c4,5.8,15,23.5,16.6,25.3c7.6,8.7,15.4,20.5,21.8,23c2.6,1,10.3,1.1,13.4,0.4
			c1.1-0.5,1.7-1.6,1.5-2.8c-0.6-2.5-4.7-4.7-7.5-7.5c-24.9-24-26.8-59.7-30-70.6C339.1,262.8,318.4,291.2,325.3,301.2z"/>
		<path class="st70" d="M342.1,283.8c-3.3,7.4-16.6,13.2-16.9,14.8c7.8,9,18.9,24,24.2,23.6c2.5-0.1,5-0.8,7.2-1.9
			C349.2,307.2,346.1,296.9,342.1,283.8z"/>
		<path class="st57" d="M348.8,243.9c-3-0.4-5.8-2.5-7.4-2.5c-5.6,14.3-11,16.6-21.2,17.4c-18.3,1.5-35.7-5.1-52.3-1.5
			c-11.3,2.5-17.6,15.8-18.8,26.4c9,3.3,17.8,7.1,26.3,11.3c23.6-4.8,68.8,29.7,76.7,1.8c3.6-12.7-10.8-27.5-5.9-30.6
			c4.5-2.9,12.7,3.7,15.7,1.9C367.7,264.7,351.8,253.5,348.8,243.9z"/>
		<path class="st70" d="M255.9,275.8c-1.8,0-3.6,0.2-5.4,0.6c-4.2,10.5-3.5,23.1-4.1,26.2c-0.4,1.8-0.9,3.7-1.6,5.4
			c3.4,2,7.2,3.1,11.1,3.1c11.1,0,25.6-13.9,25.6-23.7S267,275.8,255.9,275.8z"/>
		<path class="st71" d="M372.6,278.6l-3.7-5c-0.7,0-1.4-0.1-1.7,0.3l-3.8,5.1c-0.3,0.4-0.3,1,0.1,1.5l4.2,4.7c0.4,0.4,1,0.2,1.6,0.2
			l3.4-5.4C372.9,279.6,372.9,279,372.6,278.6z"/>
		<path class="st72" d="M373.5,278.6l-4.2-4.7c-0.3-0.3-0.7-0.4-1-0.1c-0.1,0-0.1,0.1-0.1,0.2l-3.8,5.1c-0.3,0.4-0.3,1,0.1,1.4
			l4.2,4.7c0.3,0.3,0.7,0.4,1,0.1c0.1,0,0.1-0.1,0.2-0.2l3.8-5.1C373.9,279.6,373.9,279,373.5,278.6z"/>
		<path class="st73" d="M369.3,273.6c-6.5,1.8-15.4,0.2-21.5-3.1c-7.8-4.3-13.3-10-14.9-16.2c0-0.5,0.1-1,0.4-1.4
			c1-1.6,2.8-4.5,4-6.2c0.4-0.6,1.7-0.4,1.8-0.2c-0.5,0.6-1,1.1-1.1,1.3c1.4,5.6,7.2,12.1,13.8,15.7c5.9,3.2,16.2,5.3,20.9,0.6
			c0.3-0.7,0.5-1.3,0.7-2c0.5,0.3,0.9,0.9,0.9,1.5c0,2.6,0,5.5-0.1,7.4C374.1,271.2,371.5,273,369.3,273.6z"/>
		<path class="st74" d="M349.4,263.2c-9.6-6.3-13.7-14.9-12.1-16.6c0.5-0.4,1.2-0.5,1.8-0.2c-0.5,0.6-1,1.1-1.1,1.3
			c1.4,5.6,7.2,12.1,13.8,15.7c5.9,3.2,16,5.1,20.9,0.6c0.3-0.7,0.5-1.3,0.7-2c0.8,0.4,1.1,1.4,0.8,2.2
			C368.7,269.9,357,268.1,349.4,263.2z"/>
		<path class="st75" d="M152.5,161.7c0,0,10.3-0.1,14-0.6s15.3-2.1,15.3-2.1s-5.5,13-13.2,14.5C161.3,174.9,152.5,161.7,152.5,161.7
			z"/>
		<path class="st76" d="M167.3,161.2c-4,0.2-15.5-0.2-15.5-0.2s10.2,10.3,16.2,10s14.5-12.9,14.5-12.9S171.3,161,167.3,161.2z"/>
		<path class="st77" d="M173.1,165.8c-1.2-0.1-2.3,0-3.4,0.1c-0.7,0-1.3,0.3-1.9,0.6c-1.8-0.5-3.6-0.4-5.4,0.1
			c-2.8,0.8-2.5,1-2.4,1.4c2.5,1.6,5.4,3.2,8,3.1c2.2-0.3,4.2-1.3,5.8-2.9c0.6-0.5,1.2-0.9,1.8-1.5
			C176.2,166.2,175.5,166,173.1,165.8z"/>
		<path class="st50" d="M181.8,155.7c0,0,0.3,4,2,4.3s-0.1-1.3-0.6-2C183,157.7,181.8,155.7,181.8,155.7z"/>
		<path class="st50" d="M152.4,158.5c0,0,0.4,4-1.3,4.6s-0.3-1.3,0.2-2C151.8,160.2,152.1,159.4,152.4,158.5z"/>
		
			<linearGradient id="SVGID_6_" gradientUnits="userSpaceOnUse" x1="378.5494" y1="-32.0291" x2="378.8594" y2="-39.3192" gradientTransform="matrix(1.42 -0.14 -0.17 -1.64 -376.55 157.34)">
			<stop  offset="0" style="stop-color:#E8D9D7"/>
			<stop  offset="0.4" style="stop-color:#EFE5E4"/>
			<stop  offset="1" style="stop-color:#FFFFFF"/>
		</linearGradient>
		<path class="st78" d="M155.3,161.3c0,0,1.2,5.6,12.4,4.6s10.9-6.6,10.9-6.6c-3.7,1.1-7.5,1.9-11.3,2.2
			C163.6,161.7,159.3,160.6,155.3,161.3z"/>
		<path class="st75" d="M151.8,161c0,0,8.1,2.7,15.1,1.7c14.7-1.9,15.7-4.7,15.7-4.7s-11.5,2.5-15.9,2.6
			C162.8,160.9,151.8,161,151.8,161z"/>
		<path class="st49" d="M152.4,123.7c-2.6-1-12.3-2.1-15.3,3.5c0,0,8-2.1,14.5-0.4C151.6,126.8,153.8,124.2,152.4,123.7z"/>
		<path class="st49" d="M174.2,122.7c2.2-1.9,11-5.9,15.8-1.1c0,0-8.3,0.3-14,4C176.1,125.6,173.1,123.6,174.2,122.7z"/>
		<path class="st50" d="M132.3,107c2.8,1.9,5.8,3.6,9,4.9c8.5,3.4,17.8,4.5,26.9,3.2l-0.9-3.6c0,0,6.1,1.7,21.8,4.3l8.9,14.9
			c-0.5-3.2-1-6.4-1.6-9.8c-1.5-7.6-3.3-15.2-5.6-22.6L134,94.1l-8.4,8.9l0.8,10.7c0,0,0,25.6,1.2,32.8l1.8-6.5
			c0.6-4.7,1.1-9.6,1.5-14.6C131.6,119.2,132,113,132.3,107z"/>
		<path class="st49" d="M192.8,75c3.3,1,6.6,2.3,9.7,3.9c0,0-12.3-19.4-37.6-20.1c-13.2-0.3-32.2,2.5-37.9,15.2
			c0,0-12.1-5.2-18.9,14.2c0,0,4.9-6.7,10.7-6.8c0,0-8.3,2.6-11.2,21.2c-2.5,16,1.3,25.5,6.8,36.2l0,0c0.2,0,0.5,0.1,0.7,0.2
			c0.2,0,0.3,0.1,0.4,0.1c0.3-0.1,0.5-0.1,0.8,0c0,0,0.1,0,0.1,0c0.8-4.9,2.5-15.1,5.3-22.9l0.7,6.6c0,0,5.6,0.6,6.6-23.3
			c0.2,2.3,3.8,9.5,39.8,10.9c0,0-1.1-0.5-5.1-10.3c5.2,12,20.9,11.3,29.1,13.7l-1.5-11.5l9.5,35.9c1.6-4.3,3-8.6,4.1-13
			c0,0,1.7-11.8-0.6-20.1c1.6,1.8,2.7,4,3.1,6.3C207.6,111.6,210.3,89.6,192.8,75z"/>
		<path class="st79" d="M129.6,146.5c-0.8-0.4-4.6,1.4-4.6,1.4c0.5,2.3,3,19.7,4.6,21.6s3.4,2.4,3.8-1.5s-2.2-9.4-1.8-12
			S129.6,146.5,129.6,146.5z"/>
		<path class="st80" d="M121.3,200.6l10.3,2.9l5.8-14.4c0,0,1.9-2,1.7-3.5s-8.5-3.8-14.1-2.7S117.4,197.6,121.3,200.6z"/>
		<path class="st57" d="M147.3,251h24.9l0.6,3.5c0,0-20,2.2-26.1,0C146.8,251,147.3,251,147.3,251z"/>
		<polygon class="st47" points="176.2,289.1 194.2,283 194.7,285.7 176.5,291.9 		"/>
		<path class="st47" d="M119.9,271.9c5.7,6,13,10.4,21.1,12.5c-0.7,1-1.2,2-1.7,3.1c0,0-17-6.9-21.5-15.9l2.4,0.6"/>
		<path class="st70" d="M340.2,236.2l-1.2,10.1l1.1,0.1L339,248c0,0,1.2,9.8,5.1,5.9s4.5-7.4,4.3-11s3.5-6.4,0.8-8.2
			S340.2,236.2,340.2,236.2z"/>
	</g>
</g>
<path class="st81" d="M167.8,38.5c0.7,0.4,0.2,0.1-0.3-0.3c-0.5-0.4-1-0.8-1.6-1c-0.9-0.4-1.8-0.8-2.8-1.1c-2.2-0.4-4.5-0.7-6.8-0.7
	c-5.2-0.3-9.9,2-14.4,4.7c-4,2.5-7.5,5.7-10.4,9.4c-1.7,2.2-3,4.7-3.8,7.3c-0.4,1.2-0.7,2.4-0.7,3.6c0.1,1.1,0.3,2.1,0.5,3.2
	c0,1.4,1.1,2.6,2.5,2.6c0.5,0,0.9-0.1,1.3-0.3c0.6-0.3,2-0.4,2.8-0.8c0.8-0.4,1.5-0.8,2.2-1.3c0.4-0.3,3.5-2.7,1.2-1.3
	c1.5-0.8,2.9-1.8,4.2-2.9c1.1-1,2.3-1.9,3.6-2.7c1.6-1,3.1-2.1,4.7-3c3.7-2.3,5.9-2.8,9.6-5.4c2.3-1.7,6.3-2.8,8.1-5.4
	c1.3-0.9,1.6-2.6,0.7-3.9C168.4,38.9,168.1,38.7,167.8,38.5z"/>
<path class="st82" d="M288.8,386c5.6,1.8,11.9,1.6,17.7,1.5c2.9-0.1,5.9-0.3,8.8-0.8c3-0.4,6.4-0.9,9-2.2c1.8-0.9,2.5-3,1.7-4.8
	c-0.5-1.1-1.5-1.8-2.7-2c-2.8-0.4-5.6-0.5-8.4-0.3c-2.9,0-5.8,0.1-8.6,0.4L288.8,386z"/>
<path class="st82" d="M360.5,364.3c-0.1-0.2-0.3-0.4-0.4-0.5c-1-0.7-2.2-1-3.4-0.7c-4.3,0.8-7,3.3-10.3,5.6c-2.5,1.8-5.9,2.6-8.7,4
	c-3.3,1.5-6.5,3.3-7.5,6.6c-0.4,1.2,0,2.6,1,3.4c2.9,2.5,6.9,2.4,10.6,1.6c3.5-0.7,6.9-2,10.1-3.6c5.4-3,11.2-9.6,9-15.6
	C360.7,364.8,360.6,364.6,360.5,364.3z"/>
<path class="st83" d="M357.8,65.8c-5.4-3.3-11.2-5.8-17.3-7.3c-10.8-3-22-4.1-33.1-4.9c-17-1.9-34.1-2.8-51.2-2.8
	c-19.8-0.2-39.6,0.7-59.4,2.7c-16.1,1.6-32.5,3.8-48.2,8.2h-0.1c-0.1,0-0.2,0-0.2,0.1l-0.5,0.2c-5.2,1.5-10.5,3.5-12.9,9
	c-2.1,4.9-2,10.4,0.1,15.3c5,12,19.3,15.2,30.3,16.7c14.1,2,28.6,2,42.9,2.3s28.8,0.1,43.2-0.4c28.8-1,57.6-3.6,86.2-7.9
	c6.3-1,12.6-2.2,18.4-4.8c5.1-2.3,11-6,10.9-12.6C366.9,73.6,362.3,68.8,357.8,65.8z"/>
</svg>
