<?xml version="1.0" encoding="utf-8"?>
<!-- Generator: Adobe Illustrator 25.2.3, SVG Export Plug-In . SVG Version: 6.00 Build 0)  -->
<svg version="1.1" id="Layer_1" xmlns="http://www.w3.org/2000/svg" xmlns:xlink="http://www.w3.org/1999/xlink" x="0px" y="0px"
	 viewBox="0 0 490 425" style="enable-background:new 0 0 490 425;" xml:space="preserve">
<style type="text/css">
	.st0{fill:#78EFE9;}
	.st1{fill:#0072AB;}
	.st2{fill:#74879E;}
	.st3{clip-path:url(#SVGID_2_);}
	.st4{fill:url(#SVGID_3_);}
	.st5{fill:#CADDDB;}
	.st6{opacity:0.36;fill:#8CA1A0;enable-background:new    ;}
	.st7{opacity:0.95;}
	.st8{fill:none;stroke:#A39FAA;stroke-miterlimit:10;}
	.st9{fill:#9CB9DB;}
	.st10{opacity:0.39;fill:#85A2B5;enable-background:new    ;}
	.st11{fill:#636A7A;}
	.st12{fill-rule:evenodd;clip-rule:evenodd;fill:#C29370;}
	.st13{fill-rule:evenodd;clip-rule:evenodd;fill:#B3784C;}
	.st14{fill-rule:evenodd;clip-rule:evenodd;fill:#D1AE94;}
	.st15{fill:#FFFFFF;}
	.st16{fill:#CF5D4F;}
	.st17{fill:#BC4839;}
	.st18{fill:#E27064;}
	.st19{fill:#F9E7BF;}
	.st20{fill:#C29370;}
	.st21{fill:#B3784C;}
	.st22{fill:#D1AE94;}
	.st23{fill:#9FBE3F;}
	.st24{fill-rule:evenodd;clip-rule:evenodd;fill:#87AA3E;}
	.st25{fill-rule:evenodd;clip-rule:evenodd;fill:#B6D04C;}
	.st26{fill-rule:evenodd;clip-rule:evenodd;fill:#4F988F;}
	.st27{fill-rule:evenodd;clip-rule:evenodd;fill:#1B756B;}
	.st28{fill-rule:evenodd;clip-rule:evenodd;fill:#86BBB5;}
	.st29{fill:#1B756B;}
	.st30{fill-rule:evenodd;clip-rule:evenodd;fill:#CF5D4F;}
	.st31{fill-rule:evenodd;clip-rule:evenodd;fill:#BC4839;}
	.st32{fill-rule:evenodd;clip-rule:evenodd;fill:#E27064;}
	.st33{fill-rule:evenodd;clip-rule:evenodd;fill:#7CB9D5;}
	.st34{fill-rule:evenodd;clip-rule:evenodd;fill:#53A1C7;}
	.st35{fill-rule:evenodd;clip-rule:evenodd;fill:#A7D0E2;}
	.st36{fill:#407893;}
	.st37{fill-rule:evenodd;clip-rule:evenodd;fill:#EECE77;}
	.st38{fill-rule:evenodd;clip-rule:evenodd;fill:#E9C056;}
	.st39{fill-rule:evenodd;clip-rule:evenodd;fill:#F4E19F;}
	.st40{fill:#E9C056;}
	.st41{fill:#865A39;}
	.st42{fill-rule:evenodd;clip-rule:evenodd;fill:#7F4719;}
	.st43{opacity:0.46;fill-rule:evenodd;clip-rule:evenodd;fill:#383838;enable-background:new    ;}
	.st44{fill:#BC763C;}
	.st45{fill-rule:evenodd;clip-rule:evenodd;fill:#6D6E71;}
	.st46{fill-rule:evenodd;clip-rule:evenodd;fill:#EDEBEB;}
	.st47{fill:#6D6E71;}
	.st48{opacity:0.3;fill:#231F20;enable-background:new    ;}
	.st49{fill:#D68549;}
	.st50{fill:#77593D;}
	.st51{fill:#89513A;}
	.st52{fill:#312F33;}
	.st53{fill:#14615A;}
	.st54{opacity:0.26;fill:#14615A;enable-background:new    ;}
	.st55{fill:#1B6963;}
	.st56{opacity:0.13;fill:#14615A;enable-background:new    ;}
	.st57{fill:#F15823;}
	.st58{fill:#231E24;}
	.st59{opacity:0.38;}
	.st60{fill:#5B66B2;}
	.st61{opacity:0.2;fill:#020202;stroke:#211E1F;stroke-miterlimit:10;enable-background:new    ;}
	.st62{fill:#DAB4AA;stroke:#323232;stroke-miterlimit:10;}
	.st63{fill:#E0D1CE;stroke:#323232;stroke-width:0.75;stroke-miterlimit:10;}
	.st64{fill:#AE9997;stroke:#663F3F;stroke-miterlimit:10;}
	.st65{fill:#375E95;stroke:#222058;stroke-miterlimit:10;}
	.st66{fill:#D3DAE5;}
	.st67{fill:#C47947;}
	.st68{opacity:0.12;enable-background:new    ;}
	.st69{fill:#EA9C47;}
	.st70{fill:#F9C273;}
	.st71{fill:#8D653D;}
	.st72{fill:#A76F43;}
	.st73{fill:#FACC35;stroke:#323232;stroke-miterlimit:10;}
	.st74{fill:#DADADA;}
	.st75{fill:#FBD3C7;stroke:#453323;stroke-miterlimit:10;}
	.st76{fill:#FBD3C7;stroke:#453323;stroke-width:0.5;stroke-miterlimit:10;}
	.st77{fill:#FBD3C7;}
	.st78{fill:#EBB283;}
	.st79{fill:#BE9030;}
	.st80{fill:#FACC35;}
	.st81{fill:#2D3452;}
	.st82{fill:#DDB186;}
	.st83{fill:#604E3A;}
	.st84{fill:#376E6C;}
	.st85{fill:#FF3636;}
	.st86{fill:url(#SVGID_4_);}
	.st87{fill:#FF4848;}
	.st88{opacity:0.27;enable-background:new    ;}
	.st89{fill:#6B28A0;}
	.st90{fill:url(#SVGID_5_);}
	.st91{fill:#9A4CCC;}
	.st92{fill:#FFB000;}
	.st93{fill:#E5D8C0;}
	.st94{fill:url(#SVGID_6_);}
	.st95{fill:#FFC826;}
	.st96{fill:#51B77D;}
	.st97{fill:#DD9F8F;}
	.st98{fill:#FAC7B3;stroke:#323232;stroke-width:0.75;stroke-miterlimit:10;}
	.st99{fill:#FAD2C6;stroke:#323232;stroke-width:0.75;stroke-miterlimit:10;}
	.st100{fill:#E7B4A7;}
	.st101{fill:#561211;}
	.st102{fill:#311415;stroke:#211E1F;stroke-miterlimit:10;}
	.st103{fill:#C28974;}
	.st104{fill:#F3EAE3;}
	.st105{fill:#4F3317;}
	.st106{fill:#451F16;}
	.st107{fill:#E8194E;}
	.st108{fill:#BC7757;}
	.st109{fill:#453323;}
	.st110{fill:none;stroke:#453323;stroke-width:0.5;stroke-miterlimit:10;}
	.st111{fill:none;stroke:#453323;stroke-miterlimit:10;}
	.st112{fill:#F5DC90;}
	.st113{opacity:0.53;fill:#FFFFFF;enable-background:new    ;}
	.st114{opacity:0.33;fill:#FFFFFF;enable-background:new    ;}
	.st115{opacity:0.15;fill:#FFFFFF;enable-background:new    ;}
</style>
<polygon class="st0" points="359.8,13.6 130.2,13.6 15.3,212.5 130.2,411.4 359.8,411.4 474.7,212.5 "/>
<polygon class="st1" points="353.3,24.9 136.7,24.9 28.3,212.5 136.7,400.1 353.3,400.1 461.7,212.5 "/>
<polygon class="st2" points="351.5,28 138.5,28 32,212.5 138.5,397 351.5,397 458,212.5 "/>
<g>
	<defs>
		<polygon id="SVGID_1_" points="351.5,28 138.5,28 32,212.5 138.5,397 351.5,397 458,212.5 		"/>
	</defs>
	<clipPath id="SVGID_2_">
		<use xlink:href="#SVGID_1_"  style="overflow:visible;"/>
	</clipPath>
	<g class="st3">
		
			<linearGradient id="SVGID_3_" gradientUnits="userSpaceOnUse" x1="223.34" y1="-50.25" x2="223.34" y2="270.09" gradientTransform="matrix(1 0 0 -1 0 426)">
			<stop  offset="1.000000e-02" style="stop-color:#E6E7E8"/>
			<stop  offset="1" style="stop-color:#B2EBF2"/>
		</linearGradient>
		<rect x="-409.2" y="291.8" class="st4" width="1265" height="190.1"/>
		<polygon class="st5" points="867.2,494.6 -372.1,494.6 -372.1,258 37.2,258 261.5,258 371.4,258 867.2,258 		"/>
		<polygon class="st6" points="-362.4,309.3 860.3,309.3 861.1,486.5 		"/>
		<g class="st7">
			<line class="st8" x1="9.5" y1="537.7" x2="69.1" y2="276"/>
			<line class="st8" x1="207.4" y1="276" x2="254.9" y2="558.5"/>
			<line class="st8" x1="344.2" y1="276" x2="511.5" y2="537.7"/>
			<line class="st8" x1="778" y1="525" x2="481.7" y2="276"/>
			<line class="st8" x1="-577.7" y1="377.6" x2="1202.8" y2="379.6"/>
			<line class="st8" x1="-559.5" y1="295.1" x2="1228.7" y2="300"/>
			<line class="st8" x1="-549.2" y1="331.6" x2="1239" y2="336.5"/>
		</g>
		<rect x="-416.9" y="-204.7" class="st9" width="1277.2" height="495.6"/>
		<path class="st10" d="M-177.1,267.5c6.5-13.1,154.5-298.6,440.4-316.3c56.9-3.5,204.9-1.7,332.3,101
			c42.6,34.5,78.6,76.5,106.2,123.9c15.8,33.3,31.6,66.7,47.3,100l123.7-2.5l-11.7-475.3H-362.4c-2.1,155.1-3,238.4-3.5,286.3
			c-0.9,94.1-0.4,99.4-3,120.9c-5,42.8-10.9,55.6-3.3,68C-359.4,294.3-314.3,305.3-177.1,267.5z"/>
		<rect x="-372.1" y="278.5" class="st11" width="1244.9" height="30.8"/>
		<path class="st12" d="M14.3,35.3h5.3c0.7,0,1.2,0.5,1.2,1.2c0,0,0,0,0,0v37c0,0.7-0.6,1.2-1.2,1.2h-5.3c-0.7,0-1.2-0.6-1.2-1.2
			l0,0v-37C13.1,36,13.6,35.4,14.3,35.3C14.3,35.4,14.3,35.4,14.3,35.3L14.3,35.3z"/>
		<path class="st13" d="M20.9,71.2v2.4c0,0.7-0.6,1.2-1.2,1.2h-5.3c-0.7,0-1.2-0.6-1.2-1.2l0,0v-9.8c0.5,3.2,1.4,6.5,3.2,7.4
			C18.4,72.3,19.9,72.1,20.9,71.2L20.9,71.2z"/>
		<path class="st14" d="M17.8,36c-2-0.1-3.4,0.8-3.2,5.9s-0.9,21.8,0.4,24.2c1.3,2.5,4.9,6.6,4.9-0.9c0-4.4-0.1-8.5-0.2-11.6
			C19.6,52,20,36.2,17.8,36z"/>
		<rect x="13.1" y="39.8" class="st15" width="7.8" height="4.3"/>
		<rect x="13.1" y="38.5" class="st15" width="7.8" height="0.8"/>
		<rect x="13.1" y="44.5" class="st15" width="7.8" height="0.8"/>
		<rect x="13.1" y="68.5" class="st15" width="7.8" height="0.8"/>
		<path class="st16" d="M24.7,31.3h-2.5c-0.7,0-1.3,0.5-1.3,1.2v41.1c0,0.7,0.6,1.2,1.3,1.2h2.5c0.7,0,1.2-0.6,1.3-1.2V32.5
			C25.9,31.8,25.4,31.3,24.7,31.3z"/>
		<path class="st17" d="M25.9,73.8V32.3c0-0.4-0.2-0.7-0.5-0.9c0.2,6.8,1,40.5-1.8,43.4h1.3c0.6,0,1-0.4,1.1-0.9
			C25.9,73.9,25.9,73.9,25.9,73.8z"/>
		<path class="st18" d="M24.5,32.6c0.6,0.8,1.3,24.8,0.2,31.8c-1.1,7.3-1.4,8.7-2,8.9s-0.9-2.6-0.8-10.6S21.9,34.4,22.2,33
			S23.8,31.2,24.5,32.6z"/>
		<path class="st19" d="M24.4,32.5h-2c-0.4,0-0.7,0.3-0.7,0.7c0,0,0,0,0,0v1.9c0,0.4,0.3,0.7,0.7,0.7c0,0,0,0,0,0h2
			c0.4,0,0.7-0.3,0.7-0.7c0,0,0,0,0,0v-1.9C25.2,32.8,24.8,32.5,24.4,32.5C24.4,32.5,24.4,32.5,24.4,32.5z"/>
		<path class="st16" d="M29.6,31.3h-2.5c-0.7,0-1.2,0.6-1.3,1.2v41.1c0,0.7,0.6,1.2,1.3,1.2h2.5c0.7,0,1.3-0.5,1.3-1.2V32.5
			C30.9,31.8,30.3,31.3,29.6,31.3z"/>
		<path class="st17" d="M30.9,73.8V32.3c0-0.4-0.2-0.7-0.5-0.9c0.2,6.8,1,40.5-1.8,43.4h1.3c0.6,0,1-0.4,1.1-0.9
			C30.9,73.9,30.9,73.9,30.9,73.8z"/>
		<path class="st18" d="M29.5,32.6c0.7,0.8,1.3,24.8,0.3,31.8c-1.1,7.3-1.4,8.7-2,8.9s-0.9-2.6-0.8-10.6S26.9,34.4,27.2,33
			S28.7,31.2,29.5,32.6z"/>
		<path class="st19" d="M29.4,32.5h-2c-0.4,0-0.7,0.3-0.7,0.7c0,0,0,0,0,0v1.9c0,0.4,0.3,0.7,0.7,0.7c0,0,0,0,0,0h2
			c0.4,0,0.7-0.3,0.7-0.7c0,0,0,0,0,0v-1.9C30.1,32.8,29.8,32.5,29.4,32.5C29.4,32.5,29.4,32.5,29.4,32.5z"/>
		<path class="st16" d="M34.6,31.3h-2.5c-0.7,0-1.3,0.5-1.3,1.2c0,0,0,0,0,0v41.1c0,0.7,0.6,1.2,1.3,1.2c0,0,0,0,0,0h2.5
			c0.7,0,1.3-0.5,1.3-1.2V32.5C35.9,31.8,35.3,31.3,34.6,31.3z"/>
		<path class="st17" d="M35.9,73.8V32.3c0-0.4-0.2-0.7-0.5-0.9c0.2,6.8,1,40.5-1.8,43.4h1.3c0.6,0,1-0.4,1.1-0.9
			C35.9,73.9,35.9,73.9,35.9,73.8z"/>
		<path class="st18" d="M34.5,32.6c0.7,0.8,1.3,24.8,0.3,31.8c-1.1,7.3-1.4,8.7-2,8.9s-0.9-2.6-0.8-10.6S31.8,34.4,32.1,33
			S33.7,31.2,34.5,32.6z"/>
		<path class="st19" d="M34.4,32.5h-2c-0.4,0-0.7,0.3-0.7,0.7v1.9c0,0.4,0.3,0.7,0.7,0.7c0,0,0,0,0,0h2c0.4,0,0.7-0.3,0.7-0.7
			c0,0,0,0,0,0v-1.9C35.1,32.8,34.8,32.5,34.4,32.5z"/>
		<path class="st16" d="M39.6,31.3h-2.5c-0.7,0-1.3,0.5-1.3,1.2v41.1c0,0.7,0.6,1.2,1.3,1.2h2.5c0.7,0,1.3-0.5,1.3-1.2c0,0,0,0,0,0
			V32.5C40.9,31.8,40.3,31.3,39.6,31.3C39.6,31.3,39.6,31.3,39.6,31.3z"/>
		<path class="st17" d="M40.9,73.8V32.3c0-0.4-0.2-0.7-0.5-0.9c0.2,6.8,1,40.5-1.8,43.4h1.3c0.6,0,1-0.4,1.1-0.9
			C40.9,73.9,40.9,73.9,40.9,73.8z"/>
		<path class="st18" d="M39.5,32.6c0.7,0.8,1.3,24.8,0.3,31.8c-1.1,7.3-1.4,8.7-2,8.9s-0.9-2.6-0.8-10.6S36.8,34.4,37.1,33
			S38.7,31.2,39.5,32.6z"/>
		<path class="st19" d="M39.4,32.5h-2c-0.4,0-0.7,0.3-0.7,0.7v1.9c0,0.4,0.3,0.7,0.7,0.7c0,0,0,0,0,0h2c0.4,0,0.7-0.3,0.7-0.7
			c0,0,0,0,0,0v-1.9C40.1,32.8,39.8,32.5,39.4,32.5z"/>
		<path class="st16" d="M44.6,31.3h-2.5c-0.7,0-1.3,0.5-1.3,1.2v41.1c0,0.7,0.6,1.2,1.3,1.2h2.5c0.7,0,1.2-0.6,1.3-1.2V32.5
			C45.8,31.8,45.3,31.3,44.6,31.3z"/>
		<path class="st17" d="M45.8,73.8V32.3c0-0.4-0.2-0.7-0.5-0.9c0.2,6.8,1,40.5-1.8,43.4h1.3c0.6,0,1-0.4,1.1-0.9
			C45.9,73.9,45.9,73.9,45.8,73.8z"/>
		<path class="st18" d="M44.4,32.6c0.7,0.8,1.3,24.8,0.2,31.8c-1.1,7.3-1.4,8.7-2,8.9s-0.9-2.6-0.8-10.6S41.8,34.4,42.1,33
			S43.7,31.2,44.4,32.6z"/>
		<path class="st19" d="M44.3,32.5h-2c-0.4,0-0.7,0.3-0.7,0.7c0,0,0,0,0,0v1.9c0,0.4,0.3,0.7,0.7,0.7c0,0,0,0,0,0h2
			c0.4,0,0.7-0.3,0.7-0.7c0,0,0,0,0,0v-1.9C45.1,32.8,44.8,32.5,44.3,32.5C44.4,32.5,44.4,32.5,44.3,32.5z"/>
		<path class="st20" d="M86.5,35.3h2.2c0.6,0,1.1,0.5,1.1,1.1v37.3c0,0.6-0.5,1.1-1.1,1.1h-2.2c-0.6,0-1.1-0.5-1.1-1.1V36.5
			C85.4,35.8,85.9,35.3,86.5,35.3z"/>
		<path class="st21" d="M85.4,73.9V36.3c0-0.3,0.2-0.6,0.5-0.8c-0.2,6.1-0.9,36.8,1.6,39.4h-1.2C85.8,74.8,85.4,74.4,85.4,73.9z"/>
		<path class="st22" d="M86.7,36.5c-0.6,0.7-1.2,22.5-0.2,28.9c1,6.6,1.3,7.9,1.8,8.1s0.8-2.4,0.7-9.6s0.1-25.7-0.2-26.9
			S87.4,35.2,86.7,36.5z"/>
		<path class="st20" d="M82.1,35.3h2.2c0.6,0,1.1,0.5,1.1,1.1v37.3c0,0.6-0.5,1.1-1.1,1.1h-2.2c-0.6,0-1.1-0.5-1.1-1.1V36.5
			C80.9,35.8,81.5,35.3,82.1,35.3z"/>
		<path class="st21" d="M81,73.9V36.3c0-0.3,0.2-0.6,0.5-0.8c-0.2,6.1-0.9,36.8,1.6,39.4h-1.2C81.4,74.8,81,74.4,81,73.9z"/>
		<path class="st22" d="M82.2,36.5c-0.6,0.7-1.2,22.5-0.2,28.9c1,6.6,1.3,7.9,1.8,8.1s0.8-2.4,0.7-9.6s0.1-25.7-0.2-26.9
			S82.9,35.2,82.2,36.5z"/>
		<path class="st20" d="M77.6,35.3h2.2c0.6,0,1.1,0.5,1.1,1.1v37.3c0,0.6-0.5,1.1-1.1,1.1h-2.2c-0.6,0-1.1-0.5-1.1-1.1V36.5
			C76.5,35.8,77,35.3,77.6,35.3z"/>
		<path class="st21" d="M76.5,73.9V36.3c0-0.3,0.2-0.6,0.4-0.8c-0.2,6.1-0.9,36.8,1.6,39.4h-1.1C76.9,74.9,76.5,74.4,76.5,73.9
			C76.5,73.9,76.5,73.9,76.5,73.9z"/>
		<path class="st22" d="M77.8,36.5c-0.6,0.7-1.2,22.5-0.2,28.9c1,6.6,1.3,7.9,1.8,8.1s0.8-2.4,0.7-9.6s0.1-25.7-0.2-26.9
			S78.5,35.2,77.8,36.5z"/>
		<path class="st12" d="M52.6,33.9h-5.5c-0.7,0-1.3,0.6-1.3,1.3c0,0,0,0,0,0v38.4c0,0.7,0.6,1.3,1.3,1.3h5.5c0.7,0,1.3-0.6,1.3-1.3
			V35.2C53.9,34.5,53.3,33.9,52.6,33.9C52.6,33.9,52.6,33.9,52.6,33.9z"/>
		<path class="st13" d="M45.9,71.1v2.5c0,0.7,0.6,1.3,1.3,1.3h5.5c0.7,0,1.3-0.6,1.3-1.3V63.4c-0.5,3.3-1.5,6.7-3.3,7.6
			C48.5,72.2,46.9,72,45.9,71.1L45.9,71.1z"/>
		<path class="st14" d="M49.1,34.6c2.1-0.1,3.5,0.8,3.4,6.1s0.9,22.5-0.4,25.1s-5,6.8-5-0.9c0-4.6,0.1-8.8,0.2-12
			C47.3,51.1,46.8,34.8,49.1,34.6L49.1,34.6z"/>
		<rect x="45.9" y="38.5" class="st15" width="8" height="4.4"/>
		<rect x="45.9" y="37.2" class="st15" width="8" height="0.8"/>
		<rect x="45.9" y="43.5" class="st15" width="8" height="0.8"/>
		<rect x="45.9" y="68.3" class="st15" width="8" height="0.8"/>
		<path class="st23" d="M89.9,72.5l3.9-32.2c0.1-0.8,0.8-1.3,1.6-1.2l6,0.7c0.8,0.1,1.3,0.8,1.2,1.6l-3.9,32.2
			c-0.1,0.8-0.8,1.3-1.6,1.2l-6-0.7C90.4,74,89.8,73.3,89.9,72.5z"/>
		<path class="st24" d="M95.5,70.4c2.1-0.8,3.6-4.4,4.6-7.9l-1.4,11.1c-0.1,0.8-0.8,1.3-1.6,1.2c0,0,0,0,0,0l-6-0.7
			c-0.8-0.1-1.3-0.8-1.2-1.6l0.3-2.8C91.2,70.9,93,71.4,95.5,70.4z"/>
		<path class="st25" d="M97.5,40.2c2.3,0.1,3.8,1.4,2.9,7.1s-0.8,14.9-2.6,17.6c-1.8,2.7-6.5,6.8-5.5-1.7c0.6-5,1.3-9.6,1.8-13.1
			C94.4,48.1,94.9,40,97.5,40.2z"/>
		<path class="st19" d="M99.6,52.9l-5.4-0.7c-0.3,0-0.6-0.3-0.5-0.7l0.9-7.1c0-0.3,0.3-0.6,0.7-0.5l5.4,0.7c0.3,0,0.6,0.3,0.5,0.7
			l-0.9,7.1C100.2,52.7,99.9,52.9,99.6,52.9z"/>
		
			<rect x="94" y="63.9" transform="matrix(0.1212 -0.9926 0.9926 0.1212 15.5946 154.2757)" class="st19" width="1.8" height="8.9"/>
		<path class="st26" d="M108.8,39.5h-5c-0.6,0-1.1,0.5-1.2,1.1v33.1c0,0.6,0.5,1.1,1.2,1.1h5c0.6,0,1.1-0.5,1.2-1.1V40.6
			C110,40,109.5,39.5,108.8,39.5z"/>
		<path class="st27" d="M102.7,71.6v2.2c0,0.6,0.5,1.1,1.2,1.1h5c0.6,0,1.1-0.5,1.2-1.1V65c-0.5,2.9-1.3,5.8-3,6.6
			C105,72.6,103.5,72.4,102.7,71.6L102.7,71.6z"/>
		<path class="st28" d="M105.6,40.1c1.9-0.1,3.2,0.7,3.1,5.3s0.8,19.5-0.4,21.7s-4.7,5.9-4.7-0.8c0-4,0.1-7.6,0.2-10.4
			C103.9,54.4,103.4,40.3,105.6,40.1z"/>
		<rect x="102.7" y="42.8" class="st29" width="7.3" height="3.8"/>
		<rect x="102.7" y="65.2" class="st29" width="7.3" height="3.8"/>
		<path class="st30" d="M55.4,39.6h6c0.8,0,1.4,0.6,1.5,1.4c0,0,0,0,0,0v32.4c0,0.8-0.6,1.4-1.4,1.4h0h-6c-0.8,0-1.4-0.6-1.4-1.4
			c0,0,0,0,0,0V41C54,40.2,54.6,39.6,55.4,39.6z"/>
		<path class="st31" d="M59.2,70.7c2-1,3.1-4.8,3.6-8.4v11.2c0,0.8-0.6,1.4-1.4,1.4h0h-6c-0.8,0-1.4-0.6-1.4-1.4c0,0,0,0,0,0v-2.8
			C55.1,71.7,56.8,71.9,59.2,70.7z"/>
		<path class="st32" d="M57.5,40.4c2.3-0.2,3.9,0.9,3.7,6.7s1,14.9-0.5,17.8s-5.6,7.6-5.6-1c0-5.1,0.1-9.7,0.2-13.3
			C55.4,48.6,54.9,40.6,57.5,40.4z"/>
		<path class="st19" d="M61.1,52.8h-5.5c-0.3,0-0.6-0.3-0.6-0.6V45c0-0.3,0.3-0.6,0.6-0.6h5.5c0.3,0,0.6,0.3,0.6,0.6v7.1
			C61.7,52.5,61.5,52.8,61.1,52.8z"/>
		<rect x="54" y="67.8" class="st19" width="8.9" height="1.8"/>
		<path class="st33" d="M75.4,40.5h-4.6c-0.6,0-1.1,0.5-1.1,1.1c0,0,0,0,0,0v32.3c0,0.6,0.5,1.1,1.1,1.1h4.6c0.6,0,1.1-0.5,1.1-1.1
			V41.5C76.5,40.9,76,40.4,75.4,40.5C75.4,40.4,75.4,40.4,75.4,40.5z"/>
		<path class="st34" d="M69.7,71.7v2.1c0,0.6,0.5,1.1,1.1,1.1h4.6c0.6,0,1.1-0.5,1.1-1.1v-8.5c-0.4,2.8-1.2,5.6-2.8,6.4
			C71.9,72.6,70.6,72.4,69.7,71.7L69.7,71.7z"/>
		<path class="st35" d="M72.4,41c1.8-0.1,3,0.7,2.8,5.1s0.8,19-0.3,21.1s-4.3,5.8-4.3-0.8c0-3.9,0.1-7.4,0.2-10.1
			C70.8,54.9,70.5,41.2,72.4,41L72.4,41z"/>
		<rect x="69.7" y="43.7" class="st36" width="6.8" height="3.7"/>
		<rect x="69.7" y="65.5" class="st36" width="6.8" height="3.7"/>
		<path class="st37" d="M68.7,40.5H64c-0.6,0-1,0.5-1,1.1v32.3c0,0.6,0.4,1,1,1.1h4.6c0.6,0,1.1-0.5,1.1-1.1V41.5
			C69.7,40.9,69.2,40.4,68.7,40.5L68.7,40.5L68.7,40.5z"/>
		<path class="st38" d="M63,71.7v2.1c0,0.6,0.4,1,1,1.1h4.6c0.6,0,1.1-0.5,1.1-1.1v-8.5c-0.4,2.8-1.2,5.6-2.7,6.4
			C65.2,72.6,63.8,72.4,63,71.7L63,71.7z"/>
		<path class="st39" d="M65.7,41c1.8-0.1,3,0.7,2.8,5.1s0.8,18.9-0.3,21.1s-4.3,5.8-4.3-0.8c0-3.9,0.1-7.4,0.2-10.1
			C64,54.9,63.7,41.1,65.7,41z"/>
		<rect x="63" y="43.7" class="st40" width="6.8" height="3.7"/>
		<rect x="63" y="65.5" class="st40" width="6.8" height="3.7"/>
		<path class="st12" d="M115.4,37.9H111c-0.6,0-1,0.6-1,1.2v34.6c0,0.6,0.4,1.1,1,1.2h4.4c0.6-0.1,1-0.6,1-1.2V39.1
			C116.4,38.5,116,38,115.4,37.9L115.4,37.9z"/>
		<path class="st13" d="M110,71.4v2.3c0,0.6,0.4,1.1,1,1.2h4.4c0.6-0.1,1-0.6,1-1.2v-9.2c-0.4,3-1.2,6-2.6,6.9
			C112,72.4,110.8,72.3,110,71.4L110,71.4z"/>
		<path class="st14" d="M112.6,38.5c1.7-0.1,2.8,0.7,2.7,5.5s0.7,20.3-0.3,22.7s-4.1,6.2-4.1-0.8c0-4.2,0.1-7.9,0.2-10.8
			C111,53.5,110.7,38.7,112.6,38.5z"/>
		<rect x="110" y="41.4" class="st41" width="6.4" height="4"/>
		<path class="st42" d="M19.5,99.5l2.1-21.2h-5.7l2.1,21.1l0,0c0.1,0.4,0.4,0.7,0.8,0.7C19,100,19.3,99.8,19.5,99.5z"/>
		<polygon class="st43" points="15.9,78.3 16.4,84.3 21,84.3 21.6,78.3 18.7,78.3 		"/>
		<path class="st42" d="M111.6,99.5l2.1-21.2H108l2.1,21.1l0,0c0.1,0.4,0.4,0.7,0.8,0.7C111.2,100,111.5,99.8,111.6,99.5L111.6,99.5
			z"/>
		<polygon class="st43" points="108,78.3 108.6,84.3 113.1,84.3 113.7,78.3 110.8,78.3 		"/>
		<rect x="1.7" y="73.9" class="st44" width="126.2" height="7.7"/>
		<path class="st42" d="M110.7,79.9c0,0,13.8,0.9,16.6-4.9h0.5v6.6H1.7v-1.6H110.7z"/>
		<path class="st45" d="M269.3,22.5c15.9,0,28.8-12.9,28.9-28.8c-0.1-15.9-13-28.8-28.9-28.8c-15.9,0-28.8,12.9-28.9,28.8
			C240.5,9.6,253.4,22.5,269.3,22.5z"/>
		<path class="st46" d="M269.3,20.1c14.6,0,26.4-11.8,26.5-26.4c0-14.6-11.9-26.4-26.5-26.4c-14.6,0-26.4,11.8-26.5,26.4
			C242.9,8.3,254.7,20.1,269.3,20.1z"/>
		<path class="st45" d="M247.5,6.3c-0.3-0.5-0.1-1.1,0.4-1.4c0.5-0.3,1.1-0.1,1.4,0.4c0.2,0.5,0.1,1-0.4,1.3
			C248.4,7,247.8,6.9,247.5,6.3C247.5,6.4,247.5,6.3,247.5,6.3z"/>
		<path class="st45" d="M256.7,15.5c-0.5-0.3-0.7-0.9-0.4-1.3c0,0,0-0.1,0.1-0.1c0.3-0.5,0.9-0.6,1.4-0.3c0.5,0.3,0.6,0.9,0.3,1.4
			C257.7,15.6,257.2,15.8,256.7,15.5z"/>
		<path class="st45" d="M269.3,18.9c-0.6,0-1-0.5-1-1.1c0-0.6,0.5-1,1-1s1,0.5,1,1C270.4,18.4,269.9,18.9,269.3,18.9L269.3,18.9z"/>
		<path class="st45" d="M282,15.5c-0.5,0.3-1.1,0.2-1.4-0.3c0,0,0,0,0-0.1c-0.2-0.5,0-1.2,0.5-1.4c0.5-0.2,1-0.1,1.3,0.3
			C282.7,14.6,282.5,15.3,282,15.5z"/>
		<path class="st45" d="M291.2,6.3c-0.3,0.5-0.9,0.6-1.4,0.3c-0.5-0.3-0.6-0.9-0.3-1.4c0.3-0.4,0.8-0.6,1.3-0.3
			C291.3,5.2,291.5,5.8,291.2,6.3C291.2,6.3,291.2,6.3,291.2,6.3z"/>
		<path class="st47" d="M268.6-5.8c-0.3-0.4-0.1-0.9,0.3-1.2c0,0,0,0,0,0c0.4-0.2,1-0.1,1.2,0.3l10.2,17.4c0.3,0.4,0.1,0.9-0.3,1.2
			c0,0,0,0,0,0c-0.4,0.2-1,0.1-1.2-0.3L268.6-5.8z"/>
		<ellipse class="st48" cx="510" cy="313.4" rx="92.8" ry="8.2"/>
		<rect x="430" y="248.7" class="st49" width="158.6" height="42.6"/>
		<path class="st50" d="M479.7,286.4h-44.1c-0.8-0.1-1.4-0.8-1.4-1.6v-29.5c-0.1-0.8,0.5-1.6,1.4-1.6h44.1c0.8,0.1,1.4,0.8,1.4,1.6
			v29.5C481.1,285.6,480.5,286.3,479.7,286.4z M435.6,254.3c-0.5,0.1-0.9,0.5-0.8,1v29.5c-0.1,0.5,0.3,0.9,0.8,1h44.1
			c0.5-0.1,0.9-0.5,0.8-1v-29.5c0-0.5-0.3-0.9-0.8-1L435.6,254.3z"/>
		<path class="st50" d="M531.3,286.4h-44.1c-0.8-0.1-1.4-0.8-1.4-1.6v-29.5c-0.1-0.8,0.5-1.6,1.4-1.6h44.1c0.8,0.1,1.4,0.8,1.3,1.6
			v29.5C532.8,285.6,532.2,286.3,531.3,286.4z M487.3,254.3c-0.5,0.1-0.9,0.5-0.8,1v29.5c0,0.5,0.3,0.9,0.8,1h44.1
			c0.5-0.1,0.9-0.5,0.8-1v-29.5c0.1-0.5-0.3-0.9-0.8-1L487.3,254.3z"/>
		<polygon class="st51" points="445.1,291.3 437.6,310.7 441.7,310.7 455.4,291.3 		"/>
		<path class="st52" d="M460.3,262.3c0,1.9-1.3,3.5-2.8,3.5s-2.8-1.5-2.8-3.5s1.3-3.5,2.8-3.5S460.3,260.4,460.3,262.3z"/>
		<path class="st53" d="M475.1,227.8v0.5c-0.1,2.3-0.4,4.3-0.5,5.7c-0.1,1-0.2,1.7-0.2,1.7h-1.1c0-2.4-2.2-2.5-3-7.3
			c0-0.1,0-0.2,0-0.3c-0.2-1.4-0.2-2.8,0-4.2c0.4-4.2,1.6-9.5,2-16.1c0,0,1.1,5.7,2.1,9.1c0.1,0.3,0.2,0.6,0.2,0.9s0.2,0.6,0.3,0.9
			C475.6,222.3,475.3,224.4,475.1,227.8z"/>
		<path class="st53" d="M485.4,208.5c0,0-0.3,14.8-1,18.7c-0.2,1-0.3,2-0.5,2.9c-0.4,2.8-0.6,5-0.6,5H481c-0.5-2.6-0.7-5.3-0.7-8
			c0-2.8,0.5-5.5,1.4-8.2c0.1-0.2,0.1-0.4,0.2-0.6c0.4-0.8,0.8-1.9,1.2-3.1C484.2,212.8,485.1,209.7,485.4,208.5z"/>
		<path class="st53" d="M480.2,214.3c0,1.5-0.1,3-0.3,4.4c0,0.3-0.1,0.6-0.1,0.9c-0.4,2.9-0.5,5.9-0.3,8.8c0,0.7,0.1,1.4,0.1,2.1
			c0.1,1.7,0,3.5-0.3,5.2c0,0.1,0,0.1,0,0.1h-2.5c-0.7-2.7-0.9-5.6-0.6-8.4v-0.2c0.5-4.4,0.7-8.8,0.6-13.2c0-0.4,0-0.8,0-1.1
			c0-0.9,0.1-1.8,0.2-2.7c0.5-4.1,2-9.8,2.9-10.8c-0.2,3-0.2,6.1,0,9.1C480,210.4,480.1,212.3,480.2,214.3z"/>
		<path class="st54" d="M485.4,208.5c0,0-0.3,14.8-1,18.7c-0.5-0.1-0.9-6.2-0.9-7.4c0-0.3-0.2-0.6-0.5-0.7c-0.4-0.1-0.8-0.1-1.2-0.1
			c-0.2,0-0.3,0-0.5,0.1c-0.5,0-0.9-0.2-1.4-0.4c-0.2-0.1-0.3-0.2-0.4-0.3c-0.2-0.2-0.4-0.5-0.5-0.8c-0.4-1.4,0.1-3.7-0.9-4.4
			c-0.2-0.2-0.6-0.1-0.8,0.1c-0.2,0.2-0.4,0.4-0.6,0.7c-0.6,0.9-1.1,2.2-1.4,2.6c-0.3,0.7-0.5,1.4-0.6,2.1l-0.5,1.7
			c-0.5,2-1.1,3.9-1.5,3.8c-0.7-0.2-0.6-2.6-1-3.3c-0.2-0.4-0.9,1.4-1.6,3.1c0.4-4.2,1.6-9.5,2-16.1c0,0,1.1,5.7,2.1,9.1
			c0-1.8,0-3.3,0.1-4.2c0.3-4.3-0.6-11.1,0.4-13.6c0.2,2.1,0.7,4.2,1.3,6.3c0.4,1.5,0.7,3.1,0.9,4.7c0.5-4.1,2-9.8,2.9-10.8
			c-0.2,3-0.2,6.1,0,9.1c0.2,1.9,0.4,3.8,0.4,5.8c1-3.5,2.7-9.1,2.7-9.1c0.5,2.1,0.7,4.2,0.6,6.4c0,0.7-0.1,2.1-0.2,3.8
			C484.2,212.8,485.1,209.7,485.4,208.5z"/>
		<path class="st54" d="M475.1,227.8v0.5c-0.1,2.3-0.4,4.3-0.5,5.7c-0.1,1-0.2,1.7-0.2,1.7h-1.1c0-2.4-2.2-2.5-3-7.3
			c0-0.1,0-0.2,0-0.3c0.2-0.3,0.5-0.5,0.6-0.4c0.4,0.3,0.9,0.6,1.2,1c0,0,0.4-2.8,1.2-2.6s1.1,1.4,1.2,1.8
			C474.4,228.2,474.7,228.1,475.1,227.8z"/>
		<path class="st54" d="M479.6,230.4c0.1,1.7,0,3.5-0.3,5.2l-1.7,0.1h-0.9c-0.7-2.7-0.9-5.6-0.6-8.4v-0.2c0.4-0.3,0.7-0.6,1-1
			c0.5-0.7,0.3-1.5,0.9-0.3s0.6,3,0.9,3c0.1,0,0.3-0.2,0.5-0.5C479.5,229.1,479.5,229.8,479.6,230.4z"/>
		<path class="st54" d="M483.9,230.1c-0.4,2.8-0.6,5-0.6,5H481c-0.5-2.6-0.7-5.3-0.7-8c0.5-0.6,0.9-1.2,1.1-1.2
			c0.5-0.1,1.8-0.3,1.7,1.3S483,230.6,483.9,230.1z"/>
		<path class="st55" d="M477.8,223.6c0,0.5-0.1,0.9-0.1,1.3c-0.5,5.5-1,10.9-1,10.9h-2.1c0,0,0-0.6-0.1-1.7c-0.1-2-0.2-5.4-0.3-9.1
			c0-1.6-0.1-3.1-0.1-4.6c0-1.2,0-2.4,0-3.4s0-1.8,0-2.6s0-1.2,0.1-1.6c0.3-4.3-0.6-11.1,0.4-13.6c0.2,2.1,0.7,4.2,1.3,6.3
			c0.4,1.5,0.7,3.1,0.9,4.7c0.1,1,0.3,2,0.4,3.1c0.3,2.7,0.5,5.3,0.5,8C477.8,222.1,477.8,222.9,477.8,223.6z"/>
		<path class="st55" d="M483.5,211.6c0,0.7-0.1,2.1-0.2,3.8c0,0.5-0.1,1.1-0.1,1.7s-0.1,1.3-0.2,2c-0.1,1.8-0.3,3.8-0.5,5.7
			c-0.3,3.7-0.6,7.3-0.8,9.4c0,0.4-0.1,0.7-0.1,0.9l-0.1,0.9l-0.9-0.1l-1.6-0.2c0,0,0-5.5,0.1-10.9c0.1-2,0.1-4.1,0.3-5.8l0,0
			l0.1-0.7c0.1-1,0.2-2.1,0.4-3.1c0.1-0.3,0.2-0.6,0.3-1c1-3.5,2.7-9.1,2.7-9.1C483.3,207.3,483.5,209.4,483.5,211.6z"/>
		<path class="st56" d="M477.3,213.3c0.3,2.7,0.5,5.3,0.5,8c0-0.1-0.9-1.9-0.9-2.3s0.1-4-0.4-3.5s-0.9-0.3-1.2-1.1s-1.1,0-1.1,0
			c0-0.6,0-1.2,0.1-1.6c0.3-4.3-0.6-11.1,0.4-13.6c0.2,2.1,0.7,4.2,1.3,6.3c0.4,1.5,0.7,3.1,0.9,4.7
			C477,211.2,477.2,212.2,477.3,213.3z"/>
		<path class="st56" d="M483.5,211.6c0,0.7-0.1,2.1-0.2,3.8c0,0.5-0.1,1.1-0.1,1.7l-0.8,1.2l-1,1.9c-0.2-0.8-0.3-1.7-0.4-2.5
			c0-1.2-0.3-1.1-0.3-1.1l-1.2,2.4l0.1-0.7c0.1-1,0.2-2.1,0.4-3.1c0.1-0.3,0.2-0.6,0.3-1c1-3.5,2.7-9.1,2.7-9.1
			C483.3,207.3,483.5,209.4,483.5,211.6z"/>
		<path class="st56" d="M477.8,223.6c0,0.5-0.1,0.9-0.1,1.3c-0.5,5.5-1,10.9-1,10.9h-2.1c0,0,0-0.6-0.1-1.7c-0.1-2-0.2-5.4-0.3-9.1
			c0.3-0.5,0.9-1.6,1-0.9c0.2,0.9,0.7,0.5,0.7,0.5s1-1.4,1.4-1.4C477.5,223.2,477.6,223.3,477.8,223.6z"/>
		<path class="st56" d="M482.5,224.8c-0.3,3.7-0.6,7.3-0.8,9.4l-1,1.8l-1.6-0.2c0,0,0-5.5,0.1-10.9l1-0.9l1.1-0.7
			c-0.1,0.9-0.1,1.8,0,2.7C481.4,225.9,482.5,224.8,482.5,224.8z"/>
		<path class="st57" d="M487,234v7.5c0,0.2,0,0.4,0,0.6c-0.1,0.8-0.3,1.6-0.6,2.3c-0.2,0.4-0.3,0.7-0.6,1.1
			c-1.4,2.1-3.7,3.4-6.2,3.4h-3.5c-2.5,0-4.8-1.3-6.2-3.4c-0.2-0.3-0.4-0.7-0.6-1.1c-0.4-0.9-0.6-1.8-0.6-2.7c0-0.1,0-0.1,0-0.2V234
			H487z"/>
		<path class="st58" d="M487,240.6v0.8c0,0.2,0,0.4,0,0.6l-2.5-3.1l-2.6,3.5c-0.1,0.1-0.2,0.2-0.4,0.2c-0.1,0-0.3-0.1-0.4-0.2
			l-2.9-3.6l-2.8,3.6c-0.1,0.1-0.2,0.2-0.4,0.2c-0.1,0-0.3-0.1-0.4-0.2l-3.1-3.6l-2.8,2.8c0-0.1,0-0.1,0-0.2v-1.1l2.5-2.5
			c0.1-0.1,0.2-0.1,0.4-0.1c0.1,0,0.3,0.1,0.3,0.2l3,3.6l2.8-3.6c0.1-0.1,0.2-0.2,0.4-0.2c0.1,0,0.3,0.1,0.4,0.2l2.9,3.6l2.6-3.5
			c0.1-0.1,0.2-0.2,0.4-0.2l0,0c0.1,0,0.3,0.1,0.4,0.2L487,240.6z"/>
		<path class="st58" d="M486.3,244.3c-0.2,0.4-0.3,0.7-0.6,1.1c-5.3,0.9-10.6,0.9-15.9,0c-0.2-0.3-0.4-0.7-0.6-1.1
			c2.8,0.5,5.7,0.8,8.5,0.8C480.7,245.1,483.5,244.8,486.3,244.3z"/>
		<g class="st59">
			<polygon class="st60" points="55.8,334 217.2,334 224.7,378.6 45.9,377.6 			"/>
			<polygon class="st60" points="409.1,377.6 444.7,432.7 668,432.7 603.6,379 			"/>
			<polygon class="st60" points="365.5,309.3 381.3,334 551.4,334.6 520.6,308.7 			"/>
			<polygon class="st60" points="61.5,309.3 55.8,334 -110.7,331.6 -92.4,308.3 			"/>
		</g>
		<polygon class="st61" points="129,379.5 87.6,434.7 409.1,434.7 355.4,382.3 		"/>
		<path class="st62" d="M263.9,316.1c1.9,20.5,3.6,39.3,4.7,51.9h18.8c0.5-12.8,1.6-31.6,2.8-51.9c0.4-7.7-5.6-14.3-13.1-14.2h-1
			c-7,0.2-12.5,6.1-12.3,13.1C263.9,315.4,263.9,315.8,263.9,316.1z"/>
		<path class="st63" d="M267.2,371.4c0,0.4,21.7,0.8,21.8,0.3c0.4-4.1,1.2-12.8,1.4-15.2h-24.1C266.6,361,267,368.6,267.2,371.4z"/>
		<path class="st64" d="M302.4,402.5c5.7,0,10.5-1.6,11.7-4.5c0.3-1.8,0.3-3.5,0.1-5.3c-0.2-1.6-2.8-5-4-5.6
			c-1.3,3.8-7,11.4-17.7,8.4c-9.9-2.8-26.2-12.1-27.2-13.1c0,0,0,4.8,0.6,5.1c7.6,4.7,22.3,12.2,22.5,12.2
			C292.9,401.5,297.6,402.4,302.4,402.5z"/>
		<path class="st65" d="M266.7,367.1c0.7,0.2,3,3.1,11,4.1c0.7,0.1,0-3.6,0.6-4c1.2-0.7,13.2-1.1,14-0.7c0.6,0.3,0.9,1.2,1.4,4.5
			c0.6,1.8,19.1,15.9,20.1,21.2c0.5,2.9-1.8,5.2-6.8,6c-5.8,0.9-11.7,0.2-17.2-2c-2.5-1-23.3-12.1-24.5-13.4s0.2-12.1,0.3-15
			C265.7,367.1,266.3,367,266.7,367.1z"/>
		<path class="st66" d="M298.8,375.1c0.2-0.3,0.1-0.6-0.1-0.8c0,0,0,0-0.1,0c-1.7-0.9-4.6-1-7.7-0.2l-0.3,0.1
			c-2.6,0.6-5,2.1-6.6,4.3c-0.2,0.3-0.1,0.6,0.1,0.8c0,0,0,0,0.1,0c0.2,0.1,0.4,0.1,0.5,0c0.2-0.1,0.3-0.2,0.4-0.3
			c1.5-1.8,3.5-3.1,5.8-3.7l0.3-0.1c2.7-0.7,5.3-0.7,6.6,0C298.2,375.5,298.6,375.4,298.8,375.1z"/>
		<path class="st66" d="M302.3,378.2c0.2-0.3,0.2-0.6-0.1-0.8c0,0,0,0-0.1,0c-1.6-1-4.6-1.1-7.7-0.4l-0.3,0.1c-2.6,0.5-5,1.9-6.8,4
			c-0.2,0.3-0.1,0.6,0.1,0.8c0,0,0,0,0.1,0c0.3,0.2,0.7,0.1,0.9-0.2c1.5-1.8,3.6-3,5.9-3.5c0.1,0,0.2,0,0.3-0.1
			c2.7-0.6,5.3-0.5,6.6,0.3C301.7,378.6,302.1,378.5,302.3,378.2z"/>
		<path class="st66" d="M305.8,381.2c0.2-0.3,0.2-0.6-0.1-0.8c0,0,0,0,0,0c-1.6-1-4.5-1.2-7.6-0.6l-0.3,0.1
			c-2.7,0.5-5.1,1.9-6.8,3.9c-0.2,0.3-0.1,0.6,0.1,0.8c0,0,0,0,0,0c0.2,0.1,0.3,0.1,0.5,0.1c0.2,0,0.3-0.1,0.4-0.3
			c1.6-1.8,3.7-2.9,6-3.3l0.3,0c2.7-0.6,5.3-0.4,6.6,0.4C305.2,381.5,305.6,381.4,305.8,381.2z"/>
		<path class="st62" d="M247.2,316.1c-1.9,20.5-3.6,39.3-4.7,51.9h-18.8c-0.5-12.8-1.6-31.6-2.8-51.9c-0.4-7.7,5.6-14.3,13.1-14.2
			h0.9c7,0.2,12.5,6.1,12.3,13.1C247.3,315.4,247.3,315.7,247.2,316.1z"/>
		<path class="st63" d="M244,371.4c0,0.4-21.7,0.8-21.8,0.3c-0.4-4.1-1.2-12.8-1.4-15.2h24.1C244.6,361,244.2,368.6,244,371.4z"/>
		<path class="st64" d="M208.8,402.5c-5.7,0-10.5-1.6-11.7-4.5c-0.3-1.8-0.3-3.5-0.1-5.3c0.2-1.6,2.8-5,4-5.6
			c1.3,3.8,7,11.4,17.7,8.4c9.9-2.8,26.2-12.1,27.2-13.1c0,0,0,4.8-0.6,5.1c-7.6,4.7-22.3,12.2-22.5,12.2
			C218.3,401.5,213.6,402.4,208.8,402.5z"/>
		<path class="st65" d="M244.4,367.1c-0.7,0.2-3,3.1-11,4.1c-0.7,0.1,0-3.6-0.6-4c-1.2-0.7-13.2-1.1-13.9-0.7s-0.9,1.2-1.4,4.5
			c-0.6,1.8-19.1,15.9-20.1,21.2c-0.6,2.9,1.8,5.2,6.8,6c5.8,0.9,11.7,0.2,17.2-2c2.5-1,23.3-12.1,24.6-13.4
			c1.1-1.1-0.3-12.1-0.4-15C245.5,367.1,244.9,367,244.4,367.1z"/>
		<path class="st66" d="M212.4,375.1c-0.2-0.3-0.1-0.6,0.1-0.8c0,0,0,0,0.1,0c1.7-0.9,4.6-1,7.7-0.2l0.3,0.1c3,0.9,5.4,2.4,6.6,4.3
			c0.2,0.3,0.1,0.6-0.1,0.8c0,0,0,0-0.1,0c-0.2,0.1-0.4,0.1-0.5,0c-0.2-0.1-0.3-0.2-0.4-0.3c-1.5-1.8-3.5-3.1-5.8-3.7l-0.3-0.1
			c-2.7-0.7-5.3-0.7-6.6,0C213,375.5,212.6,375.4,212.4,375.1z"/>
		<path class="st66" d="M208.9,378.2c-0.2-0.3-0.2-0.6,0.1-0.8c0,0,0,0,0.1,0c1.6-1,4.6-1.1,7.7-0.4l0.3,0.1c2.7,0.5,5,1.9,6.8,4
			c0.2,0.3,0.1,0.6-0.1,0.8c0,0,0,0,0,0c-0.2,0.1-0.3,0.1-0.5,0.1c-0.2,0-0.3-0.1-0.4-0.3c-1.5-1.8-3.6-3-5.9-3.5
			c-0.1,0-0.2,0-0.3-0.1c-2.7-0.6-5.3-0.5-6.6,0.3C209.5,378.6,209.1,378.5,208.9,378.2z"/>
		<path class="st66" d="M205.4,381.2c-0.2-0.3-0.2-0.6,0.1-0.8c0,0,0,0,0,0c1.6-1,4.6-1.2,7.6-0.6l0.3,0.1c2.7,0.5,5.1,1.9,6.8,3.9
			c0.2,0.3,0.1,0.6-0.1,0.8c0,0,0,0,0,0c-0.2,0.1-0.3,0.1-0.5,0.1c-0.2,0-0.3-0.1-0.4-0.3c-1.6-1.8-3.7-2.9-6-3.3l-0.3,0
			c-2.7-0.6-5.3-0.4-6.6,0.4C206,381.5,205.6,381.4,205.4,381.2z"/>
		<path class="st67" d="M382,434.7c3.4,0,6.1-3.1,6.1-6.9v-114c0-3.8-2.7-6.9-6.1-6.9s-6.1,3.1-6.1,6.9v114
			C375.9,431.6,378.6,434.7,382,434.7z"/>
		<path class="st51" d="M350.3,404.7c3.4,0,6.1-3.1,6.1-6.9v-114c0-3.8-2.7-6.9-6.1-6.9s-6.1,3.1-6.1,6.9v114
			C344.2,401.6,346.9,404.7,350.3,404.7z"/>
		<path class="st67" d="M103.4,434.7c-3.4,0-6.1-3.1-6.1-6.9v-114c0-3.8,2.7-6.9,6.1-6.9s6.1,3.1,6.1,6.9v114
			C109.5,431.6,106.8,434.7,103.4,434.7z"/>
		<path class="st51" d="M135.1,404.7c-3.4,0-6.1-3.1-6.1-6.9v-114c0-3.8,2.7-6.9,6.1-6.9s6.1,3.1,6.1,6.9v114
			C141.3,401.6,138.5,404.7,135.1,404.7z"/>
		<rect x="375.9" y="329.3" class="st68" width="12.3" height="23"/>
		<rect x="97.3" y="329.3" class="st68" width="12.3" height="25.3"/>
		<path class="st49" d="M88.8,294.5h310.8l0,0v53.6c0,0.3-0.2,0.5-0.5,0.5H89.3c-0.3,0-0.5-0.2-0.6-0.5L88.8,294.5
			C88.8,294.5,88.8,294.5,88.8,294.5z"/>
		<polygon class="st68" points="88.8,306.8 399.6,303.7 399.6,294.5 88.8,294.5 		"/>
		<path class="st69" d="M415.5,290.1H72.9v9.5c0,1.1,0.9,2.1,2.1,2.1c0,0,0,0,0.1,0h338.4c1.1,0,2.1-0.9,2.1-2.1V290.1z"/>
		<path class="st70" d="M412.2,293.1H76.1c-1.8,0-3.2-1.4-3.2-3.2c0-0.5,0.1-1,0.3-1.4l24.1-33.9c0.5-1.1,1.7-1.8,2.9-1.8h290.2
			c1.2,0,2.3,0.7,2.9,1.8l21.9,33.9c0.8,1.6,0.1,3.5-1.5,4.3C413.2,293,412.7,293.1,412.2,293.1z"/>
		<rect x="214.3" y="179.4" class="st71" width="87.8" height="74.5"/>
		<path class="st72" d="M215,255.1v-78.2h-5.7c-4.7,0-8.5,3.8-8.5,8.5v69.7L215,255.1z"/>
		<path class="st72" d="M301.2,255.1v-78.2h5.7c4.7,0,8.5,3.8,8.5,8.5v69.7L301.2,255.1z"/>
		<path class="st73" d="M287.7,217.7l1.5,37.1l-64.4-2.5v-7.5l-0.2-27.1l-24.4,2.8c3.6-20.2,13.9-28.5,23.2-31.8
			c5.3-1.9,11-2.5,16.5-1.8l25.4-0.9c38-2.3,42.2,25,42.2,25L287.7,217.7z"/>
		<path class="st74" d="M146.2,290.3l-1.6,0.7l0.1,0.8h168.6l0.1-0.8c0,0-51.3-6.8-51.8-6.9s-33.4,1.3-33.4,1.3
			S153.8,282,146.2,290.3z"/>
		<path class="st15" d="M313.5,291c0,0-32.5-3.5-43.2-3.5c-11.1,0-44,3.5-44,3.5s-33.5-3.2-45.1-3.1c-8.9,0.1-36.6,3.1-36.6,3.1
			l21.9-37.6c0,0,17.6-2.7,33.6-2.2c6.5,0.2,26,2.2,26,2.2s26.1-1.8,34.8-1.8c8.4,0,33.2,0.5,33.2,0.5L313.5,291z"/>
		<path class="st75" d="M318.7,245.3c0.4,9.4-33,22.5-33,22.5l-8.7-11c6.4-4.4,11.8-8,15.5-10.3c3-1.9,4.8-3,4.8-3l-4.6-14.9l0-0.1
			l3.8-1.4l15.6-5.9c0,0,0.7,2.4,1.6,6.3C314.9,232.4,318.4,238.2,318.7,245.3z"/>
		<path class="st76" d="M281.1,256.9c0,0-13.3-4.6-18.5-2.3l-4.8,2.4c0,0,2.2,11,11.4,15.7l3.6-1.1c-0.9,0,14.4,2,16.3-5.5
			L281.1,256.9z"/>
		<path class="st77" d="M262.6,254.6l-10.7,5.1l-8.1,6.4c0,0,0.6,7.7,12.3-0.7l8.3-2.5C264.4,262.9,265.6,257.7,262.6,254.6z"/>
		<path class="st77" d="M264.5,259l-9.4,4.5l-7.2,5.7c0,0,0.5,6.8,10.9-0.6l7.4-2.2C266.2,266.4,267.2,261.8,264.5,259z"/>
		<path class="st77" d="M267.7,262l-9,4.3l-6.9,5.4c0,0,0.5,6.5,10.4-0.6l7-2.1C269.3,269.1,270.3,264.7,267.7,262z"/>
		<path class="st77" d="M272,264.4l-9,4.3l-6.9,5.4c0,0,0.5,6.5,10.4-0.6l7-2.1C273.5,271.5,274.5,267.1,272,264.4z"/>
		<path class="st78" d="M306.9,244.9c0,0-8.8,0-14.3,1.7c3-1.9,4.8-3,4.8-3l-4.6-14.9l3.8-1.6l15.6-5.9c0,0,0.7,2.4,1.6,6.3
			l-17.4,7.6l2.8,9C301.8,243.7,304.4,244,306.9,244.9z"/>
		<path class="st75" d="M219.9,228l-5.8,20.1c-1.3,15-36.6,15.6-36.6,15.6c-2.1,0.3-4.3-0.2-6-1.5c-4.1-2.7-6.7-7.8-6.7-7.8l1.8-1.3
			c8.9-6.5,15.3-9.9,19.5-11.7c1.9-0.9,3.9-1.6,5.9-2c0.3-0.1,0.7-0.2,1-0.2c1.3-4.1,3-8,4.9-11.8c2.5-5.1,4.8-8.7,4.8-8.7
			L219.9,228z"/>
		<path class="st79" d="M240.6,187.2c0,0-6.8,2.2,0.9,9.1c2.5,1.4,10.4,5.5,19.8,3.2c2.4-0.6,4.6-1.5,6.7-2.8c2-1.1,3.7-2.8,4.8-4.8
			c0.6-1.2,1.3-2.3,0.8-3.6c-0.5-1.4-2.2-2.3-4.4-2.4C269.1,186,250.2,186.8,240.6,187.2z"/>
		<path class="st80" d="M203.1,210.4l-4.9,13.6l21.6,8.6l6.4-17.9C218.9,211.6,211,210.2,203.1,210.4z"/>
		<path class="st80" d="M305.5,205.4l6.8,15.3l-21,8.6l-5.2-14.5C286.1,214.7,292.8,204.8,305.5,205.4z"/>
		<path class="st81" d="M176.1,228.3l13.5,40.8c1.5,0.3,3.1-0.2,4.1-1.3l-13.6-40.4C180.1,227.3,178.1,225.1,176.1,228.3z"/>
		<path class="st75" d="M183.4,263.8L183.4,263.8c-17.9,9.7-22.2-3-22.2-3c-0.5-0.9-0.8-1.8-1-2.8c-1.8-9.4,14.8-16.2,14.8-16.2
			c10.2-5.6,14.8,16.4,14.8,16.4C192.4,267.3,184.1,264.1,183.4,263.8z"/>
		<path class="st82" d="M189.6,269.1l3.1,3.5l1.1-0.5l-0.1-4.4C193.7,267.7,190.3,264.4,189.6,269.1z"/>
		<path class="st83" d="M192.7,272.6l1.2,1.3l-0.1-1.8C193.8,272.1,192.9,271.4,192.7,272.6z"/>
		<polygon class="st79" points="312.7,218.9 289.7,228 291.5,233.1 314.4,224 		"/>
		<polygon class="st74" points="226.1,253.4 225.5,291 226.6,291 226.2,253.4 		"/>
		<rect x="143.8" y="291.8" class="st84" width="170.6" height="2.4"/>
		<path class="st85" d="M356.2,283l42-16.8l-36.2-12l-48.5,22.6L356.2,283z"/>
		
			<linearGradient id="SVGID_4_" gradientUnits="userSpaceOnUse" x1="2591.7676" y1="-2927.9761" x2="2587.6877" y2="-2920.106" gradientTransform="matrix(1.52 1.000000e-02 0 0.34 -3564.5901 1226.11)">
			<stop  offset="0" style="stop-color:#DCC499"/>
			<stop  offset="1" style="stop-color:#E5D8C0"/>
		</linearGradient>
		<path class="st86" d="M315,276.5l41.7,6.2c1.4-2.3,0.7-10.6,0-12.8l-41.7-6.4C315.5,265.6,315.6,274.6,315,276.5z"/>
		<path class="st85" d="M399.4,270.7l0.1-12.8l-43,11.9c2.1,4.5,0.8,12.4-0.3,13.2L399.4,270.7z"/>
		<path class="st87" d="M314,263.7l42.5,6.2l42.8-12l-40.1-4.3L314,263.7z"/>
		<polygon class="st88" points="335,249.5 365.3,264 366.1,267.5 394,255.8 348.2,244.8 		"/>
		<path class="st89" d="M362.4,271.6l-36.9-17.2l31.4-9.9l42.6,19.6L362.4,271.6z"/>
		
			<linearGradient id="SVGID_5_" gradientUnits="userSpaceOnUse" x1="-1273.2126" y1="-2577.3574" x2="-1277.7627" y2="-2568.5776" gradientTransform="matrix(-1.09 3.000000e-02 1.000000e-02 0.3 -1009 1059.4399)">
			<stop  offset="0" style="stop-color:#DCC499"/>
			<stop  offset="1" style="stop-color:#E5D8C0"/>
		</linearGradient>
		<path class="st90" d="M398.1,263.8l-36.2,7.4c-1.3-2.5-1.9-9.8-0.2-12.3l36.2-7.6C397.5,253.6,397.6,261.9,398.1,263.8z"/>
		<path class="st89" d="M324.1,262l-0.3-12.3l38.5,9.1c-2.4,1.7-0.9,12,0.1,12.8L324.1,262z"/>
		<path class="st91" d="M399,251.5l-37,7.5l-38.1-9.1l35-5.5L399,251.5z"/>
		<path class="st92" d="M327.2,252.9l25.8,6.4l2.4-1.2l-25.5-6L327.2,252.9z"/>
		<path class="st93" d="M395.2,248.3l-42.3,10.6l-25.6-15.4l40-7.4l27.5,5.9L395.2,248.3z"/>
		
			<linearGradient id="SVGID_6_" gradientUnits="userSpaceOnUse" x1="-1590.5869" y1="-1126.8535" x2="-1589.9769" y2="-1125.7535" gradientTransform="matrix(-0.95 5.000000e-02 4.000000e-02 0.74 -1126.17 1164.9399)">
			<stop  offset="0" style="stop-color:#DCC499"/>
			<stop  offset="1" style="stop-color:#E5D8C0"/>
		</linearGradient>
		<path class="st94" d="M352.8,251.8l-25.6-8.3l1,9.4l24.6,6L352.8,251.8z"/>
		<path class="st92" d="M395.9,241.9c0.3,0.6-0.3,1.6-0.4,3.2c-0.1,2,0.5,2.9,0,3.3l-42.8,10.9c0.3-1.4,0.4-2.8,0.3-4.3
			c0-1.2,0.5-2.8,0.3-3.4c-9.5-3.6-16.2-5.6-25.7-9.2l39.5-7.8C377.7,237.6,385.4,238.9,395.9,241.9z"/>
		<path class="st95" d="M395.9,241.9l-42.5,9.7l-25.8-9.2l39.7-7.9L395.9,241.9z"/>
		<path class="st96" d="M348.6,279.8l1.8-2.3l2.7,2.4c0,0-0.4-7.4,0.9-7.9c-0.2,0-4.4-0.8-4.6-0.8
			C348,272.4,348.6,279.8,348.6,279.8z"/>
		<path class="st78" d="M199,225.3c-1.5,3.1-2.7,6.2-3.6,9.5c9.3,3.2,16.2,6.3,16.2,6.3l-2.4,8.7c-2.7-1.5-5.6-2.6-8.7-3.1
			c6.3,2.1,7.6,5.5,7.6,5.5c-2.3,4.9-9.8,6.7-13.5,7.3c0.1,0.3-4,2.4-4,2.7c14.3-2.4,21.6-8,22.6-11.9l4.8-17.8L199,225.3z"/>
		<polygon class="st79" points="198.9,220.2 221.9,229.3 220.1,234.4 197.3,225.3 		"/>
		<path class="st75" d="M268.3,190.3c0,0-3.7,6.2-13.7,6.4s-11.7-6.4-11.7-6.4c0.2-0.4,0.4-0.8,0.5-1.2c2.1-5.7-0.5-12.1-0.5-12.1
			s27.6-9.8,24.3,0c-2.3,6.7-0.9,10.4,0.2,12.1C267.6,189.5,267.9,189.9,268.3,190.3z"/>
		<path class="st97" d="M267.1,189.2c-7.5,3.2-16,3.1-23.5-0.1c2.1-5.7-0.7-12.2-0.7-12.2s27.6-9.8,24.3,0
			C264.9,183.7,266,187.5,267.1,189.2z"/>
		<path class="st98" d="M197.3,145c1.8,6,7,10.1,10.6,9.7s3.9-5.2,2.8-10.9s-5-10.2-8.6-9.8C197.1,134.5,195.6,139.4,197.3,145z"/>
		<path class="st97" d="M205.4,137.5c-1-0.9-2.4-1.3-3.6-0.9c-0.8,0.3-1.4,1-1.6,1.8c-0.6,2.2-0.4,4.5,0.5,6.5
			c0.9,2.6,2.4,5.4,5.6,6.7c0.3,0.1,0.6,0.2,0.9,0.2c0.7-0.1,0.8-0.8,0.8-1.3l-0.1-2.2c0-0.5-0.1-1-0.4-1.4c-0.4-0.4-0.9-0.8-1.4-1
			c-0.9-0.4-1.7-1.1-2.1-2c-0.2-0.7,0.1-1.4,0.8-1.7c0.7-0.3,2,0.1,2.4-0.3C207.9,141.3,206.1,138.2,205.4,137.5z"/>
		<path class="st99" d="M313.5,145.5c-2.3,5.6-7.7,8.6-11.2,7.6s-3.3-5.9-1.6-11.3s5.8-9.1,9.2-8.1
			C314.7,135.1,315.7,140.2,313.5,145.5z"/>
		<path class="st97" d="M307.1,136c0.8-0.7,2-0.9,3-0.4c0.6,0.5,1,1.2,1.1,2c0.2,2.1-0.1,4.3-1,6.2c-1,2.4-2.5,4.9-5.2,5.7
			c-0.2,0.1-0.5,0.1-0.8,0c-0.6-0.2-0.6-0.9-0.5-1.4l0.3-2.1c0-0.5,0.2-0.9,0.5-1.3c0.4-0.3,0.8-0.6,1.3-0.7
			c0.8-0.3,1.5-0.8,1.9-1.6c0.2-0.6,0-1.3-0.5-1.8c-0.5-0.4-1.6-0.1-1.9-0.6C304.7,139.3,306.5,136.6,307.1,136z"/>
		<path class="st75" d="M302.7,151.1c-2.8,26.3-36.2,37.9-45.8,36.9c-12.2-1.3-44.9-4.6-50.3-50.8c0-0.4,0-0.8,0-1.2l0,0
			c0.5-18.1-6.1-34.5-4.4-41.5c6-24.2,10.4-14.8,39-17.5c26.8-2.5,38.2-2.6,54.7,11.2c1.5,1.2,6.3,2.6,6.4,7
			c0.1,7.4,0.3,13,0.5,17.4C303.4,127.8,304.9,130.3,302.7,151.1z"/>
		<path class="st100" d="M302.9,112.5c-7.5-9.8-16.7-14.1-27.9-16c-12.6,9-25.9,14.3-41.1,11.2c18.1-15.5,4.9-10.2,8.4-14
			c0,4-7.6,9.7-15.3,6.6c-3.4,6.6-8.1,12.4-14,17c-2,1.7-5.4,13.7-5.8,15.4c-0.2,1-0.3,2.2-0.5,3.3c0.5-18.1-6.1-34.5-4.4-41.5
			c6-24.2,10.4-14.8,39-17.5c26.8-2.5,38.2-2.6,54.7,11.2c1.5,1.2,6.3,2.6,6.4,7C302.6,102.5,302.7,108,302.9,112.5z"/>
		<path class="st97" d="M228.4,143.1c-2.8-2-4.5-5.2-4.5-8.6c0-5.5,4.7-10.1,10.8-10c3,0.1,6.4,0.8,10.3,5.3
			c-2.5-4.5-7.6-7.1-12.7-6.4c-4.4,0.6-8.9,3.7-9.3,9.1C222.6,137.3,225.2,141.9,228.4,143.1z"/>
		<path class="st101" d="M242.2,116.2l-0.9-1.1c-1.5-2.2-4.1-3.3-6.8-3.1c-3.7,0.7-6.8,2.9-8.5,6.2c-0.3,0.5-0.5,0.7-0.1,0.4
			C228.9,116.2,236.6,113.2,242.2,116.2z"/>
		<path class="st102" d="M272.9,94.2c0,0-7.3,12.7-38.9,12.5c0,0,13.5-11.6,6.1-13.4c0,0-4.9,8.3-15.5,4.3c0,0,5,1-13.6,18.7
			c0,0-5.3,6.1-4.3,20.9c0.1,1-7.4-1.2-7.7-11.6c0,0-13.1-10.8-2.5-24.7c0,0-11.4-19.7,8.3-26.3c0,0,2.1-19.4,17.4-20.5
			c0,0,16.2-23.8,39.1-7.3c0,0,20.5-9.8,31.8,9.8c0,0,15.8,5.8,13.6,20.3c0,0,20.9,9.9,7.9,25.1c0,0,5.7,11.6-5.1,25.2l-5.4,13.8
			l-0.8-5.4c-0.1-11.5,1.8-15.5-3.3-25.7C299.9,110.1,295,93.5,272.9,94.2z"/>
		<path class="st97" d="M282.3,144.1c3-1.6,5.1-4.5,5.6-7.9c0.6-5.6-3.5-10.7-9.1-11.4c-0.1,0-0.1,0-0.2,0
			c-2.9-0.4-6.5-0.1-10.9,3.8c3.1-4.1,8.5-5.9,13.5-4.5c4.2,1.2,8.2,4.9,7.9,10.3C288.9,139,285.6,143.3,282.3,144.1z"/>
		<path class="st103" d="M250.6,147.4c0,0,0.6,3.4,5.7,3.5c5.1,0.1,6-3.5,6-3.5S257.3,152.5,250.6,147.4z"/>
		<path class="st101" d="M270.2,114.8l0.9-1.1c1.5-2.2,4.1-3.4,6.8-3.1c3.7,0.7,6.8,3,8.5,6.2c0.3,0.5,0.5,0.7,0.1,0.3
			C283.5,114.8,275.8,111.8,270.2,114.8z"/>
		<path class="st104" d="M288.3,136.2c-0.8,5.7-6.5,9.7-12.7,8.9s-10.7-6-9.9-11.7s6.5-9.7,12.7-8.9S289.1,130.5,288.3,136.2z"/>
		<path class="st105" d="M288.4,136.2c-0.5,2.9-2.1,5.5-4.5,7.2c-2.4,1.7-5.4,2.5-8.3,2.3c-3-0.3-5.8-1.6-7.9-3.8
			c-2.2-2.3-3.2-5.4-2.8-8.4c0.4-3.1,2.1-5.9,4.7-7.7c1.3-0.9,2.7-1.5,4.2-1.9c1.5-0.3,3.1-0.4,4.6-0.2c3.1,0.4,5.9,2,7.8,4.4
			C288.1,130.3,288.9,133.3,288.4,136.2z M288.2,136.2c0.2-1.4,0-2.8-0.5-4.1c-0.5-1.3-1.3-2.4-2.3-3.4c-2-1.8-4.5-2.9-7.2-3.1
			c-1.3-0.1-2.6-0.1-3.9,0.3c-1.3,0.3-2.5,0.8-3.6,1.5c-2.3,1.4-3.8,3.7-4.3,6.3c-0.4,2.7,0.4,5.4,2.2,7.4c1.8,2.1,4.3,3.4,7,3.7
			c2.8,0.4,5.6-0.2,8-1.6c1.2-0.8,2.2-1.7,3-2.9C287.5,139,288,137.6,288.2,136.2L288.2,136.2z"/>
		<path class="st106" d="M271.5,143.2c3.3,2,7.4,2,10.7,0c0.3-0.3,0.6-0.6,0.8-1c0.3-0.8,0.4-1.6,0.2-2.4c-0.4-3.5-3.5-6-7-5.6
			c0,0-0.1,0-0.1,0c-3.9,0.6-6.1,4.8-5.4,7.4C270.9,142.2,271.2,142.7,271.5,143.2z"/>
		<path class="st15" d="M282.1,134.4c0.1,0.9-0.5,1.7-1.4,1.8c-0.9,0.1-1.7-0.5-1.8-1.4c0,0,0,0,0,0c-0.1-0.9,0.5-1.7,1.4-1.8
			C281.2,132.9,282,133.5,282.1,134.4C282.1,134.4,282.1,134.4,282.1,134.4z"/>
		<path class="st104" d="M223.5,134.5c0,5.7,5.1,10.5,11.4,10.6s11.5-4.4,11.5-10.2s-5.1-10.5-11.4-10.6S223.5,128.8,223.5,134.5z"
			/>
		<path class="st105" d="M223.6,134.5c0,1.4,0.3,2.8,0.9,4.1c0.6,1.3,1.5,2.4,2.6,3.3c2.2,1.8,4.9,2.7,7.7,2.7
			c2.8,0,5.4-0.9,7.5-2.7c2.1-1.7,3.3-4.3,3.3-7c-0.1-2.7-1.3-5.1-3.4-6.8c-1-0.9-2.1-1.5-3.4-2c-1.2-0.5-2.5-0.8-3.9-0.8
			c-2.7-0.2-5.4,0.6-7.6,2.1c-1.1,0.8-2.1,1.8-2.8,3C224,131.7,223.6,133.1,223.6,134.5z M223.4,134.5c0-3,1.2-5.8,3.4-7.9
			c2.2-2.1,5.2-3.3,8.3-3.3c1.6,0,3.1,0.3,4.5,0.9c1.5,0.6,2.8,1.4,3.9,2.4c2.4,2.1,3.7,5.1,3.6,8.3c-0.1,3.1-1.5,6.1-4,8
			c-2.4,1.9-5.4,2.8-8.4,2.7c-3-0.1-5.8-1.3-8-3.4C224.7,140.3,223.4,137.5,223.4,134.5L223.4,134.5z"/>
		<path class="st106" d="M229.4,143.4L229.4,143.4c5.3,2.2,8.8,1,11.5-0.5c0.1-0.1,0.1-0.3,0.1-0.4c1-3.4-0.9-7.1-4.4-8.1
			c-3.4-0.9-6.9,1-7.9,4.4c0,0,0,0.1,0,0.1c-0.4,1.5-0.3,3,0.3,4.4L229.4,143.4z"/>
		<path class="st15" d="M236.4,134.3c-0.3,0.9,0.2,1.7,1.1,2c0.8,0.3,1.7-0.2,2-1.1c0,0,0,0,0-0.1c0.2-0.8-0.2-1.7-1.1-2
			C237.6,132.9,236.7,133.4,236.4,134.3C236.4,134.3,236.4,134.3,236.4,134.3z"/>
		<path class="st97" d="M240.8,157.7c0,1.5-0.2,2.5-1.7,2.5s-5.1-3.2-5.4-4.6c-0.7-2.7,1.3-3.4,2.7-2.7S240.8,156.2,240.8,157.7z"/>
		<path class="st97" d="M274.8,158.5c0,1.5,0.2,2.5,1.7,2.5s5-3.2,5.4-4.6c0.7-2.7-1.3-3.4-2.7-2.7S274.8,157,274.8,158.5z"/>
		<path class="st101" d="M257.1,172.9c14.3,0,26.4-19.3,23.7-18.4c-4.2,1.4-3.9,2.3-15.2,2.9c-2.2,0.1-6.9,0.3-10.3,0.1
			c-5-0.2-10-0.8-15-1.7c-2.1-0.4-3.8-1.5-5-1.4C232.1,154.7,244.5,172.9,257.1,172.9z"/>
		<path class="st107" d="M257.1,172.9c-2.8,0-5.6-0.9-8-2.4c1.5-2.1,3.7-3.5,6.1-3.9c3.8-0.7,9.6,0.1,11.6,3
			C264.7,171.8,259.7,172.8,257.1,172.9z"/>
		<path class="st15" d="M237.5,155.1c12.6,3.9,26,4.2,38.8,0.8c-2.3,3.3-9.2,8.1-18.2,8.4C248.4,164.4,241.3,159.1,237.5,155.1z"/>
		<path class="st108" d="M235.4,154.4c2.9,1.4,22.1,9.6,45.4,0C280.7,154.4,262.4,160.8,235.4,154.4L235.4,154.4z"/>
		<path class="st108" d="M251.3,173.4c0,0,4.8,3.3,9.9,0.5c-2.6,2.6-6.9,2.6-9.5,0C251.6,173.7,251.5,173.6,251.3,173.4z"/>
		<path class="st76" d="M183.3,263.8c0,0-1.6-9.3-5.7-14.1"/>
		<path class="st76" d="M178.5,265.6c0,0-3.5-10.7-5.5-12.8"/>
		<path class="st79" d="M225.1,233.9v5.3c0,0,58.3,1.5,63.1-0.8v-4.5C288.2,233.9,233.4,236.6,225.1,233.9z"/>
		<path class="st79" d="M225.1,242.2v5.3c0,0,58.3,1.5,63.1-0.8v-4.5C288.2,242.2,233.4,244.9,225.1,242.2z"/>
		<path class="st77" d="M273.1,264.4c0,0-6.3,2.5-9.1,3.8s-8.1,6.2-8.1,6.2"/>
		<path class="st109" d="M273.1,264.4c-1.5,0.7-3,1.4-4.6,2.1s-3.1,1.3-4.6,2.1c-1.4,0.8-2.8,1.7-4.1,2.8c-1.3,1-2.6,2.1-3.9,3.1
			c1.2-1.2,2.4-2.3,3.7-3.4c1.3-1.1,2.7-2.1,4.1-2.9c1.5-0.7,3.1-1.4,4.6-2S271.5,264.9,273.1,264.4z"/>
		<path class="st77" d="M275.1,266.9c-1.2-3.6-12.3-12.1-12.3-12.1s-9,3.5-11.1,5.1c-1.9,0.9-7.8,6.3-7.8,6.3s1,3.7,3.9,3.1
			c0,0,5.3-7.1,16.9-10.1"/>
		<path class="st109" d="M275.1,266.9c-0.6-1.3-1.5-2.5-2.6-3.5c-1-1-2.1-2-3.2-3c-2.2-1.9-4.4-3.8-6.7-5.5h0.2
			c-1.9,0.8-3.8,1.5-5.6,2.3c-0.9,0.4-1.9,0.8-2.8,1.3c-0.9,0.4-1.8,0.9-2.6,1.5l0,0c-0.7,0.4-1.4,0.9-2,1.4c-0.7,0.5-1.3,1-2,1.6
			c-1.3,1.1-2.6,2.1-3.8,3.3l0.1-0.2c0.2,0.9,0.7,1.7,1.3,2.3c0.6,0.6,1.5,0.9,2.4,0.7l-0.1,0.1c1.1-1.3,2.3-2.5,3.6-3.5
			c1.3-1,2.7-2,4.2-2.8c1.5-0.8,3-1.5,4.5-2.1c1.6-0.6,3.2-1.1,4.8-1.5c-1.6,0.5-3.2,1-4.7,1.7c-1.5,0.6-3,1.4-4.4,2.3
			c-1.4,0.8-2.8,1.8-4.1,2.9c-1.3,1-2.5,2.2-3.5,3.5v0.1h-0.1c-0.5,0.1-1,0.1-1.5,0c-0.5-0.1-0.9-0.4-1.3-0.8
			c-0.7-0.7-1.2-1.6-1.4-2.5v-0.1l0.1-0.1c1.3-1.1,2.5-2.2,3.8-3.3c0.6-0.5,1.3-1.1,2-1.6c0.7-0.5,1.4-1,2.1-1.4l0,0
			c0.9-0.6,1.8-1.1,2.7-1.5c0.9-0.5,1.8-0.9,2.8-1.3c1.9-0.8,3.8-1.6,5.7-2.3h0.1l0.1,0.1c2.3,1.8,4.5,3.7,6.6,5.7
			c1.1,1,2.1,2,3.1,3.1C273.8,264.4,274.6,265.6,275.1,266.9z"/>
		<path class="st77" d="M247.7,269.3c0,0,1.3,3.7,3.9,2.7c0,0,6.7-5.3,8.5-6.4s8.1-3.7,8.1-3.7"/>
		<path class="st109" d="M247.7,269.3c0.3,0.8,0.9,1.5,1.5,2.1c0.3,0.3,0.7,0.5,1.1,0.6c0.4,0.1,0.8,0,1.2-0.1h-0.1
			c1.3-1,2.5-2.1,3.8-3.1s2.6-2,3.9-2.9c1.4-0.9,2.9-1.6,4.4-2.2c1.5-0.6,3-1.2,4.6-1.8l-4.4,2.1l-2.2,1.1c-0.7,0.3-1.4,0.7-2.1,1.2
			c-2.6,1.9-5.2,3.9-7.8,5.8l0,0l0,0c-0.5,0.2-0.9,0.2-1.4,0.1c-0.4-0.1-0.9-0.4-1.2-0.7C248.5,270.9,248,270.1,247.7,269.3z"/>
		<path class="st110" d="M251.9,272c0,0,0.2,3.1,4.3,2.3c0.5,2.7,3.2,4.5,10.2-0.6l7.4-2.1"/>
		<path class="st77" d="M280.6,255.1l-2,1.1l9.8,10.5c0,0,0.1-0.3,1.7-1.3S280.6,255.1,280.6,255.1z"/>
		<polyline class="st111" points="305,203.9 311.5,218.9 312.7,218.9 314.4,224 313,224.5 313.7,227.5 		"/>
		<polyline class="st111" points="287,217.3 290.8,227.6 289.7,228 291.5,233.1 293.8,232.2 314.4,224 		"/>
		<polyline class="st111" points="203,209.7 199.5,220.3 198.9,220.2 197.3,225.3 198.2,225.6 		"/>
		<polyline class="st111" points="224.6,217.7 221.1,228.9 221.9,229.3 220.1,234.4 218,233.9 		"/>
		<line class="st111" x1="197.3" y1="225.3" x2="219.9" y2="233.9"/>
		<path class="st77" d="M174.6,266.4c0,0-5.8-8.4-7.8-9.5"/>
		<path class="st109" d="M174.6,266.4c-1.3-1.6-2.6-3.2-3.8-4.8l-1.9-2.4c-0.3-0.4-0.6-0.8-1-1.2c-0.3-0.4-0.7-0.7-1.1-1
			c0.9,0.5,1.7,1.2,2.4,2c0.7,0.8,1.4,1.5,2,2.4C172.4,262.9,173.6,264.6,174.6,266.4z"/>
		<polygon class="st63" points="220.4,353.4 220.8,356.5 244.9,356.5 245.8,352.1 219.8,352.1 		"/>
		<polygon class="st63" points="265.4,352.1 266.3,356.5 290.4,356.5 291.4,352.1 		"/>
		<ellipse class="st112" cx="257.6" cy="207.6" rx="14.6" ry="4.8"/>
	</g>
</g>
<path class="st113" d="M167.8,38.5c0.7,0.4,0.2,0.1-0.3-0.3c-0.5-0.4-1-0.8-1.6-1c-0.9-0.4-1.8-0.8-2.8-1.1
	c-2.2-0.4-4.5-0.7-6.8-0.7c-5.2-0.3-9.9,2-14.4,4.7c-4,2.5-7.5,5.7-10.4,9.4c-1.7,2.2-3,4.7-3.8,7.3c-0.4,1.2-0.7,2.4-0.7,3.6
	c0.1,1.1,0.3,2.1,0.5,3.2c0,1.4,1.1,2.6,2.5,2.6c0.5,0,0.9-0.1,1.3-0.3c0.6-0.3,2-0.4,2.8-0.8c0.8-0.4,1.5-0.8,2.2-1.3
	c0.4-0.3,3.5-2.7,1.2-1.3c1.5-0.8,2.9-1.8,4.2-2.9c1.1-1,2.3-1.9,3.6-2.7c1.6-1,3.1-2.1,4.7-3c3.7-2.3,5.9-2.8,9.6-5.4
	c2.3-1.7,6.3-2.8,8.1-5.4c1.3-0.9,1.6-2.6,0.7-3.9C168.4,38.9,168.1,38.7,167.8,38.5z"/>
<path class="st114" d="M288.8,386c5.6,1.8,11.9,1.6,17.7,1.5c2.9-0.1,5.9-0.3,8.8-0.8c3-0.4,6.4-0.9,9-2.2c1.8-0.9,2.5-3,1.7-4.8
	c-0.5-1.1-1.5-1.8-2.7-2c-2.8-0.4-5.6-0.5-8.4-0.3c-2.9,0-5.8,0.1-8.6,0.4L288.8,386z"/>
<path class="st114" d="M360.5,364.3c-0.1-0.2-0.3-0.4-0.4-0.5c-1-0.7-2.2-1-3.4-0.7c-4.3,0.8-7,3.3-10.3,5.6c-2.5,1.8-5.9,2.6-8.7,4
	c-3.3,1.5-6.5,3.3-7.5,6.6c-0.4,1.2,0,2.6,1,3.4c2.9,2.5,6.9,2.4,10.6,1.6c3.5-0.7,6.9-2,10.1-3.6c5.4-3,11.2-9.6,9-15.6
	C360.7,364.8,360.6,364.6,360.5,364.3z"/>
<path class="st115" d="M357.8,65.8c-5.4-3.3-11.2-5.8-17.3-7.3c-10.8-3-22-4.1-33.1-4.9c-17-1.9-34.1-2.8-51.2-2.8
	c-19.8-0.2-39.6,0.7-59.4,2.7c-16.1,1.6-32.5,3.8-48.2,8.2h-0.1c-0.1,0-0.2,0-0.2,0.1l-0.5,0.2c-5.2,1.5-10.5,3.5-12.9,9
	c-2.1,4.9-2,10.4,0.1,15.3c5,12,19.3,15.2,30.3,16.7c14.1,2,28.6,2,42.9,2.3s28.8,0.1,43.2-0.4c28.8-1,57.6-3.6,86.2-7.9
	c6.3-1,12.6-2.2,18.4-4.8c5.1-2.3,11-6,10.9-12.6C366.9,73.6,362.3,68.8,357.8,65.8z"/>
</svg>
