<?xml version="1.0" encoding="utf-8"?>
<!-- Generator: Adobe Illustrator 25.2.3, SVG Export Plug-In . SVG Version: 6.00 Build 0)  -->
<svg version="1.1" id="Layer_1" xmlns="http://www.w3.org/2000/svg" xmlns:xlink="http://www.w3.org/1999/xlink" x="0px" y="0px"
	 viewBox="0 0 160 160" style="enable-background:new 0 0 160 160;" xml:space="preserve">
<style type="text/css">
	.st0{opacity:0.5;enable-background:new    ;}
	.st1{opacity:0.91;fill:url(#SVGID_1_);enable-background:new    ;}
	.st2{clip-path:url(#SVGID_3_);}
	.st3{fill:#1E9AAF;}
	.st4{fill:#255D63;}
	.st5{fill:#198AA5;}
	.st6{fill:#307F95;}
	.st7{opacity:0.5;fill:none;stroke:#144747;stroke-width:0.75;stroke-miterlimit:10;enable-background:new    ;}
	.st8{fill:#1E5B6E;}
	.st9{fill:#898E90;}
	.st10{fill:#464949;}
	.st11{opacity:0.3;enable-background:new    ;}
	.st12{fill:#D12664;stroke:#951A46;stroke-width:0.75;stroke-miterlimit:10;}
	.st13{fill:#D73B81;}
	.st14{fill:#EC72AB;}
	.st15{fill:#C62567;}
	.st16{fill:#B11E57;}
	.st17{fill:#CC1B6C;}
	.st18{fill:#B11F5A;}
	.st19{fill:#D62970;}
	.st20{fill:#D12664;}
	.st21{fill:#A41E58;}
	.st22{opacity:0.2;fill:#151617;enable-background:new    ;}
	.st23{fill:#A7A8AC;}
	.st24{fill:#8C8E91;}
	.st25{fill:#C9CACF;stroke:#9C9B9F;stroke-width:0.25;stroke-miterlimit:10;}
	.st26{fill:#DEDEDD;stroke:#9C9B9F;stroke-width:0.25;stroke-miterlimit:10;}
	.st27{fill:#C3C3C3;}
	.st28{fill:#DEDEDD;}
	.st29{fill:#DA9E51;stroke:#905B24;stroke-width:0.25;stroke-miterlimit:10;}
	.st30{fill:#BB8844;}
	.st31{fill:#E7A855;}
	.st32{opacity:0.5;fill:#3970B7;enable-background:new    ;}
	.st33{fill:#72C9F1;}
	.st34{opacity:0.31;fill:#50B1E4;enable-background:new    ;}
	.st35{fill:#50B1E4;}
	.st36{opacity:0.28;fill:#50B1E4;enable-background:new    ;}
	.st37{opacity:0.5;}
	.st38{opacity:0.63;fill:#3970B7;enable-background:new    ;}
	.st39{fill:#3970B7;}
	.st40{opacity:0.5;fill:#D6EFFB;enable-background:new    ;}
	.st41{fill:#5A5F5F;}
	.st42{fill:#BBBAB9;}
	.st43{fill:#BBBAB9;stroke:#8B8B8A;stroke-width:0.5;stroke-miterlimit:10;}
	.st44{opacity:0.4;}
	.st45{fill:#FFFFFF;}
	.st46{fill:#A29DA0;}
	.st47{fill:#BBBAB9;stroke:#9C9B9F;stroke-width:0.5;stroke-miterlimit:10;}
	.st48{opacity:0.6;}
	.st49{opacity:0.6;fill:#BBBAB9;enable-background:new    ;}
	.st50{opacity:0.6;fill:#AAA9A8;enable-background:new    ;}
	.st51{fill:#C0BDBC;stroke:#9C9B9F;stroke-width:0.5;stroke-miterlimit:10;}
	.st52{opacity:0.4;fill:#FFFFFF;enable-background:new    ;}
	.st53{fill:#A1A1A1;stroke:#7B7A7A;stroke-width:0.5;stroke-miterlimit:10;}
	.st54{opacity:0.57;}
	.st55{fill:#515251;}
	.st56{fill:#114956;}
	.st57{fill:#165568;}
	.st58{opacity:0.2;fill:url(#SVGID_4_);enable-background:new    ;}
	.st59{opacity:0.5;fill:#4ECECE;enable-background:new    ;}
	.st60{opacity:0.6;fill:#FDFFFF;enable-background:new    ;}
</style>
<circle class="st0" cx="82.2" cy="82.2" r="74.3"/>
<g id="_01-4">
	
		<radialGradient id="SVGID_1_" cx="-4156.5698" cy="-371.32" r="178.78" gradientTransform="matrix(0.48 0 0 -0.48 2080.4299 -100.1)" gradientUnits="userSpaceOnUse">
		<stop  offset="0" style="stop-color:#FFFFFF"/>
		<stop  offset="0.61" style="stop-color:#D3F9FC"/>
		<stop  offset="0.93" style="stop-color:#48E5FF"/>
	</radialGradient>
	<path class="st1" d="M152,78.1c0.2,41-32.9,74.4-73.9,74.5S3.7,119.7,3.5,78.7C3.4,37.7,36.5,4.3,77.5,4.2c0.1,0,0.2,0,0.3,0
		C118.7,4.1,151.9,37.1,152,78.1C152,78.1,152,78.1,152,78.1z"/>
	<g>
		<defs>
			<ellipse id="SVGID_2_" cx="77.9" cy="77.3" rx="74.1" ry="73.8"/>
		</defs>
		<clipPath id="SVGID_3_">
			<use xlink:href="#SVGID_2_"  style="overflow:visible;"/>
		</clipPath>
		<g class="st2">
			<path class="st3" d="M3.6,83.5H116L118.8-38c0,0-85.6-12.8-90.1-12.3s-30,11.8-30.4,10.5S3.6,83.5,3.6,83.5z"/>
			<rect x="4.3" y="72.2" class="st4" width="103.6" height="7.3"/>
			<path class="st5" d="M110.6-38l-2.8,115.9c0,0,17.2,91.8,18.9,91.8c1.7,0,102.3,1.7,102.3,1.7l8.6-219c0,0-105.4,3.7-106.7,2.7
				S110.6-38,110.6-38z"/>
			<path class="st6" d="M4.7,79.7h77l27.4,0.4l30.4,91.4c0,0-142.3-1.6-142.6-0.6s-28.4-19.5-27.1-21.7s12.4-36.9,11.9-40.5
				S4.7,79.7,4.7,79.7z"/>
			<line class="st7" x1="123.2" y1="111.1" x2="3.6" y2="111.2"/>
			<line class="st7" x1="4" y1="140.3" x2="131.1" y2="137.8"/>
			<polyline class="st7" points="43.2,80.3 46.3,168.8 45,139.6 90.4,139.1 93.6,166.5 84.9,78.9 			"/>
			<polygon class="st8" points="4.3,111.8 43.8,111.2 45,139.6 4.1,140.9 			"/>
			<polygon class="st8" points="45,139.6 91.1,138.6 96.2,171.5 46.3,169.4 			"/>
			<polygon class="st8" points="84.9,78.9 88,110.1 88,111.8 116.9,112.9 107.9,77.7 			"/>
			<ellipse class="st9" cx="119.7" cy="33.4" rx="2.9" ry="10.3"/>
			<ellipse class="st10" cx="118" cy="33.4" rx="2.9" ry="10.3"/>
			<ellipse class="st11" cx="69.6" cy="138.7" rx="30.5" ry="4"/>
			<path class="st12" d="M39.6,86.2l7.9,49c0,2.6,10.6,5.8,23.6,5.8s23.6-3.2,23.6-5.8l7.9-49H39.6z"/>
			<path class="st13" d="M45.7,87.8c-0.1-0.5-0.1-1.1,0-1.6h-6.1l7.9,49c0,1.1,2,2.4,5.4,3.4C49.9,121.8,47.8,104.8,45.7,87.8z"/>
			<path class="st14" d="M46,114.2c-1-6.4-2.3-12.8-3.2-19.3c-0.4-2.9-0.7-5.8-0.9-8.7h-2.3l7.9,49c0,0.7,0.8,1.4,2.1,2.2
				C48.3,129.7,47.2,121.9,46,114.2z"/>
			<path class="st15" d="M85.2,86.2c0.9,9.3,0.9,18.6,0,27.8c-0.7,8.8-2,17.6-3.9,26.3c8-1.1,13.5-3.3,13.5-5.1l7.9-49L85.2,86.2z"
				/>
			<path class="st16" d="M40.1,89.3c8.4,2.2,37.1,8.5,62.1-0.6l0.4-2.5h-63L40.1,89.3z"/>
			<path class="st16" d="M88.7,138.9c1.5-0.4,3-1,4.3-1.7c0.8-5.5,1.4-11,2-16.6c1.3-11.3,3.8-22.9,3.3-34.3h-6.7
				c1.2,9.5,1.4,19.1,0.6,28.6C91.4,122.8,90,130.9,88.7,138.9z"/>
			<path class="st17" d="M104.6,85.3c0,3.7-15,6.7-33.5,6.7s-33.5-3-33.5-6.7c-1.9-6,15-6.7,33.5-6.7S106.5,79.4,104.6,85.3z"/>
			<ellipse class="st18" cx="71.1" cy="83.9" rx="33.5" ry="6.7"/>
			<ellipse class="st19" cx="71.1" cy="83.9" rx="31.2" ry="5.7"/>
			<path class="st20" d="M85,78.9c0.1,3.4-0.1,6.9-0.8,10.2c10.7-0.9,18.2-2.9,18.2-5.1S95.2,79.8,85,78.9z"/>
			<path class="st13" d="M90.4,79.5c0.3,3,0.3,5.9,0,8.9c7.2-1,11.8-2.6,11.8-4.4S97.7,80.5,90.4,79.5z"/>
			<path class="st16" d="M57.7,78.8C47.2,79.7,40,81.7,40,83.9s7.7,4.3,18.6,5.2C58.2,85.7,57.8,82.3,57.7,78.8z"/>
			<path class="st21" d="M47.5,80.3c-4.7,1-7.5,2.3-7.5,3.7s2.9,2.7,7.6,3.7C47.2,85.2,47.2,82.7,47.5,80.3z"/>
			<path class="st22" d="M96,127.3c-4.9,2.2-10.5,2.2-13.9,1.9c-2.4-0.2-4.5-1.5-5.8-3.5L57.9,97.5c-0.2-0.3-0.2-0.6-0.2-0.9
				c0.1-0.3,0.3-0.6,0.5-0.8l0.3-1.7c-1.1,0.2-2,1-2.3,2.1c-0.2,0.7,0,1.5,0.4,2.1l18.4,28.2c1.4,2.2,3.8,3.7,6.4,4.1l0.5,0.1
				c4.6,0.5,9.3-0.1,13.7-1.6L96,127.3z"/>
			<path class="st23" d="M60.7,91.7c-0.4,0-1-0.1-1-0.1l-0.6-0.2c0,0.3-0.1,0.6-0.1,0.7c-0.1,0.5-0.1,1-0.2,1.5
				c-0.1,1-0.4,1.9-0.7,2.8c-0.2,0.4-0.4,0.8-0.7,1.2c1.1,0.6,2.4,0.1,2.9-0.9c0.1-0.3,0.2-0.6,0.2-0.9C60.7,94.4,60.7,93,60.7,91.7
				z"/>
			<path class="st24" d="M57.7,97c-0.1,0.2-0.2,0.3-0.3,0.5c1.1,0.6,2.4,0.1,2.9-0.9c0.1-0.2,0.2-0.5,0.2-0.7
				C59.7,96.5,58.7,96.9,57.7,97z"/>
			<path class="st25" d="M54.9,89.8c0,0,0.1,4.7,0.9,6.7s3.7,1.7,4-0.7c0.2-1.8,0.2-3.7,0-5.6l0.9-1l-4.5-0.4L54.9,89.8z"/>
			<path class="st26" d="M105.6,108.4c-1.6-2.6-3.3-5.7-5.1-8.8l-0.4,2.5c1.4,2.5,2.8,5,4.1,7.1c1.6,2.7,1.5,6-0.4,8.6
				c-4.6,6.1-13,7.4-17.5,7.7c-2.4,0.1-4.7-0.8-6.2-2.6L57.7,97.6c-0.2-0.2-0.3-0.6-0.3-0.9c0-0.3,0.2-0.6,0.4-0.8v-1.7
				c-1.1,0.4-1.8,1.3-2,2.4c0,0.7,0.2,1.4,0.7,2l22.4,25.2c1.8,2,4.3,3.2,7,3.2h0.5c4.8-0.3,13.7-1.7,18.7-8.3
				C107.3,115.6,107.5,111.6,105.6,108.4z"/>
			<path class="st27" d="M104.5,116.6c1.6-2.5,1.6-5.7,0.1-8.2c-1.3-2.2-2.7-4.6-4.1-7.1l0.2-1.3l-0.2-0.4l-0.4,2.5
				c1.4,2.5,2.8,5,4.1,7.1C105.6,111.4,105.7,114.2,104.5,116.6z"/>
			<path class="st27" d="M105.6,117.9c-5,6.6-13.8,8-18.7,8.3h-0.5c-2.7,0-5.2-1.1-7-3.2L57,97.8c-0.5-0.5-0.7-1.3-0.7-2
				c0-0.2,0.1-0.5,0.2-0.7c-0.3,0.4-0.5,0.9-0.6,1.4c0,0.7,0.2,1.4,0.7,2l22.4,25.2c1.8,2,4.3,3.2,7,3.2h0.5
				c4.8-0.3,13.7-1.7,18.7-8.3c0.3-0.4,0.6-0.8,0.8-1.2C105.8,117.6,105.7,117.8,105.6,117.9z"/>
			<path class="st28" d="M58.7,95c0,0.5-0.3,0.9-0.7,0.9s-0.7-0.4-0.7-0.9s0.3-0.9,0.7-0.9S58.7,94.5,58.7,95z"/>
			<path class="st29" d="M105,116.1c-2-1.1-3.1,2.2-4.6,2.1c-2.2-0.1-4,0-6.7,2.8c-1.2,1-2.2,0.5-3.5,0.8c-1.4,0.2-2.3,1.5-2.2,2.8
				c0,0.2,0.1,0.4,0.1,0.6c0.1,0,0.1,0,0.1,0c0.4,0,0.7,0.3,0.7,0.8c0,0,0,0,0,0c0.1,0.3-0.1,0.6-0.4,0.7c0.6,0.9,1.7,1.1,3.1,1.1
				c2.2-0.1,2.5-1.9,4.3-1.4s5.9-1.4,6.7-3.3c0.7-0.8,1.7-1.4,2.7-1.8C106.9,120.7,108.2,117.8,105,116.1z"/>
			<path class="st30" d="M104.9,120.9c-0.6,0.3-1.3,0.4-2,0.6c-0.6,0.3-1.2,0.8-1.6,1.4c-1.3,1.6-3.2,2.5-5.2,2.5
				c-0.5-0.1-1,0-1.5,0.1c-1.2,0.5-2.2,1.6-3.6,1.6c-0.7,0-1.4-0.3-2-0.7c-0.1,0.2-0.2,0.3-0.4,0.3c0.6,0.9,1.7,1.1,3.1,1.1
				c2.2-0.1,2.5-1.9,4.3-1.4s5.9-1.4,6.7-3.3c0.7-0.8,1.7-1.4,2.7-1.8c1-0.5,1.6-1.4,1.8-2.5c0,0.5-1.3,1.4-1.7,1.7
				C105.2,120.8,105,120.8,104.9,120.9z"/>
			<path class="st31" d="M97,120.8c1.4-0.8,3.1-1,4.7-1.5c0.7-0.2,1.4-0.5,2-1c0.3-0.3,0.7-1.4-0.1-1.2c-0.1,0.1-0.3,0.1-0.4,0.2
				c-1,0.8-2.3,1.3-3.6,1.4c-1.1,0-2.2,0.3-3.2,0.9c-0.7,0.5-1.1,1.2-1.8,1.8c-0.9,0.6-1.9,1.1-3,1.3c-0.6,0.1-1.1,0.4-1.5,0.8
				c-0.1,0.2-0.2,0.4,0,0.6c0.1,0.1,0.3,0.1,0.4,0c1.6-0.4,3.2-1.1,4.7-2C95.8,121.7,96.4,121.2,97,120.8z"/>
			<path class="st32" d="M71.4,82.7c-15.3,0-27.6,1.5-27.6,3.4s12.4,3.4,27.6,3.4S99,88.1,99,86.2S86.7,82.7,71.4,82.7z"/>
			<path class="st33" d="M71.4,89.3c-15,0-27.2-1.4-27.2-3.2s12.2-3.2,27.2-3.2s27.2,1.4,27.2,3.2S86.4,89.3,71.4,89.3z"/>
			<path class="st34" d="M72.1,83c3.1,0,6.3,0.3,9.4,0.7c0.4,0.1,0.2,0.2-0.2,0.2c-2.6,0-5.2-0.2-7.8-0.2c1.4,0.2,2.7,0.5,4.1,0.8
				c0.3,0.1,0.2,0.2-0.2,0.2c-0.8,0-1.6,0-2.4-0.1c0,0.1-0.2,0.1-0.5,0.1c-1.5-0.1-2.9-0.2-4.3-0.2c0.9,0,1.8,0.2,2.6,0.7
				c0.4,0.5-0.3,0.7-1.4,0.8c1.4,0,2.8-0.2,4.1-0.6c0.2-0.1,0.5-0.1,0.7,0c0.5,0.4,0,0.8-1,1.1c1.9-0.2,3.8-0.6,3.6-1.2
				c0-0.1,0.5-0.2,0.7-0.1c1.2,0.6,0.5,1.1-0.8,1.5c0.4,0,0.8-0.1,1.3-0.1c0.7,0,1.4-0.2,2-0.4c0.6-0.4-0.6-0.9-1-1.2
				c-0.1-0.1,0.1-0.2,0.4-0.2c1.6,0.2,5.3,0.4,5.3,1.1c0,0.2-0.3,0.4-0.7,0.6c0.7-0.1,1.3-0.1,1.9-0.2c0.7-0.1,2.1-0.3,2.3-0.6
				c0.3-0.5-1.8-0.8-2.7-1c-0.4-0.1-0.1-0.3,0.3-0.2c4,0.2,7.6,1.5,4.2,2.6c-2,0.6-4,0.9-6,1c6-0.3,12.9-0.9,11.3-2.9
				c-0.1-0.1,0.1-0.2,0.3-0.2c-3-1.2-11.8-2.1-22.6-2.3C73.9,82.9,73,82.9,72.1,83z"/>
			<path class="st35" d="M62.6,88c-0.3-0.1,0-0.2,0.4-0.2c1.6,0.1,3.3,0.2,4.9,0.2c-1.8-0.1-3.7-0.4-5.5-0.8
				c-0.4-0.1-0.2-0.3,0.3-0.2c2.4,0.1,4.9,0.2,7.4,0.2c-1.9,0-3.8-0.2-5.6-0.5c-0.4-0.1-0.1-0.3,0.3-0.2c1.9,0.2,3.7,0.2,5.6,0
				c-2.4,0-5.1-0.1-5.8-0.8c-0.1-0.1,0.2-0.2,0.5-0.2l1.2,0.1c-1.2-0.1-2-0.3-1.4-0.8c-1.1,0.2-1.5,0.6-1.1,1
				c0.2,0.1-0.5,0.2-0.7,0.1c-0.9-0.4-1.1-0.8-0.6-1c-1.2,0.2-2.2,0.5-1.3,0.8c0.3,0.1-0.1,0.3-0.5,0.2h-0.1l0,0
				c-1.3-0.3-1.7-0.8-1-1.2c-1.3,0.1-2.6,0.4-2.9,0.8c-0.5,0.6,0.9,1,2.3,1.3c0.3,0.1,0.2,0.2-0.2,0.2c-1.4,0-2.8-0.3-4.2-0.8
				c-0.5-0.3-0.5-0.6-0.2-0.8c-1.3,0.4-2.4,1-1.8,1.4c0.4,0.2,0.8,0.3,1.2,0.4s-0.1,0.3-0.5,0.2c-0.5-0.1-1-0.2-1.5-0.5
				c-1-0.4-1.8-0.9-1-1.3c1.1-0.5,2.2-0.8,3.4-1c-3.9,0.3-9.3,1.8-4.7,2.7c0.4,0.1,0,0.3-0.4,0.2c-1.8-0.3-4-0.8-4.4-1.5
				c-0.1-0.1-0.1-0.3-0.1-0.5c-0.3,0.2-0.4,0.4-0.4,0.6c0,1.8,12.2,3.2,27.2,3.2c2.1,0,4.1,0,6-0.1C72.5,89.3,66.5,89.1,62.6,88z"/>
			<path class="st36" d="M59.3,83.3c0.5,0,0.7,0.2,0.2,0.2c-2.4,0.2-4.8,0.5-7.1,1c3.9-0.6,8.3-0.8,12.5-1c0.5,0,0.7,0.2,0.2,0.2
				c-2.8,0.1-5.6,0.6-8.3,1.3c0.9-0.2,1.9-0.3,3-0.4c0.9-0.2,1.8-0.3,2.8-0.4c0.4,0,0.7,0.2,0.3,0.2c-0.7,0.1-1.5,0.2-2.3,0.3
				c-1,0.2-1.6,0.4-0.3,0.7l0.9,0.1c-0.7-0.7,2.8-1.3,4.9-1.1c0.4,0,0.3,0.2,0,0.2c-1.3,0.2,1.7,0.6,2,0.6c0.7,0.1,1.3,0.1,2,0
				c-0.7-0.1-1.4-0.1-2.2-0.1c-0.4,0-0.5-0.2-0.2-0.2c1.9-0.4,6.5,0.2,6.3,0.8c1.1-0.2,2.1-0.5,0.8-0.8c-0.3-0.1,0-0.2,0.3-0.2
				c3.7,0,5,1.1,3,1.9c1.4-0.1,2.8-0.2,4.2-0.5c3-0.7-2.7-1.3-4.4-1.5c-0.5,0-0.3-0.2,0.1-0.2c2.1-0.1,9.8,0.3,10.6,1.3
				c1.5-1-6.1-1.4-8.3-1.5c-0.4,0-0.4-0.2,0-0.2c3.9-0.2,7.8,0,11.7,0.7c-1.9-0.4-4.2-0.6-6.3-0.8c-2.8-0.3-5.5-0.5-8.4-0.6h-3.7
				c-0.5,0-0.5-0.2,0-0.3c1.2,0,2.4,0,3.6,0c1.6,0,3.3,0,4.9,0.1c-3.2-0.2-6.8-0.3-10.5-0.3c-6.7-0.1-13.4,0.3-20.1,1.1
				C54,83.6,56.8,83.4,59.3,83.3z"/>
			<g class="st37">
				<path class="st38" d="M71.1,85.4c-0.9,0-1.9,0.1-2.8,0.1c-0.5,0-1.1,0-1.6-0.1s-2.4-0.2-1.6-0.5c0,0,0-0.1-0.1,0
					c-1.2,0.3,0.2,0.6,1.1,0.7c1.7,0.2,3.4,0.2,5.1-0.1C71.3,85.4,71.3,85.4,71.1,85.4z"/>
				<path class="st39" d="M74.5,85.3c-0.1-0.3-1.7-0.5-2.4-0.5c-1.6-0.1-3.2-0.2-4.8-0.1c-0.1,0-0.1,0,0,0c1.9,0,3.8,0.1,5.6,0.4
					c2.1,0.3,0.2,0.8-1.3,0.9c-0.8,0-1.6,0-2.4,0.1c-0.1,0-0.2,0.1,0,0.1C70.9,86.2,74.8,86.2,74.5,85.3z"/>
				<path class="st38" d="M73.3,84.1c-3.9-0.4-7.7-0.2-11.5,0.6c-2.5,0.6,0,1.2,1.9,1.5c0.1,0,0.2,0,0.1-0.1
					c-0.7-0.2-1.5-0.3-2.2-0.6C59.7,85,64,84.5,65,84.4C67.7,84.1,70.5,84,73.3,84.1C73.3,84.2,73.3,84.1,73.3,84.1z"/>
				<path class="st38" d="M69.6,86.9c-2.1-0.1-4.2-0.1-6.3-0.2s-7.8-0.9-4.9-1.8l0,0c-1.7,0.4-0.8,1.1,0.7,1.5
					C61.9,87.1,66.3,87.1,69.6,86.9C69.7,87,69.8,86.9,69.6,86.9z"/>
				<path class="st38" d="M70.9,83.3c-4.3,0.1-8.6,0.2-12.8,0.5c-3.5,0.3-7.7,0.8-10,1.7c-1.7,0.7,0.4,1.5,2.1,2
					c3.2,0.6,6.5,0.9,9.7,0.8c0.2,0,0.2-0.1,0.1-0.1c-2.3-0.1-4.6-0.2-6.8-0.5c-1.4-0.1-2.7-0.4-4-0.8c-2.3-0.8-0.6-1.5,1.7-2
					C56.5,83.7,64.2,83.5,70.9,83.3C71,83.3,71,83.3,70.9,83.3z"/>
				<path class="st38" d="M76.1,84.1L76.1,84.1c2.9,0.1,5.6,0.4,8.3,0.8c1.1,0.1,2.2,0.4,3.3,0.7c1.6,0.5-1.1,0.9-2.2,1.1
					c-5.6,0.9-12,0.8-18.2,0.9c-0.2,0-0.3,0.1,0,0.1c4.2,0.1,8.3,0.1,12.4-0.2c2.8-0.1,5.5-0.4,8.2-1.1C92.3,85,77.9,84.2,76.1,84.1
					z"/>
				<path class="st39" d="M76.8,84.7C76.8,84.7,76.8,84.7,76.8,84.7c1.5,0.3,5.4,0.6,4,1.4c-0.9,0.5-3.5,0.6-5,0.8
					c-0.2,0-0.2,0.1,0,0.1c1.8-0.1,4.8-0.2,5.6-0.9C82.6,85.2,78.6,85,76.8,84.7z"/>
				<path class="st38" d="M90.6,84.4c-3.7-0.5-7.8-0.5-11.6-0.8c-0.1,0-0.1,0,0,0c2.8,0.3,5.6,0.3,8.4,0.6c2.5,0.2,8.2,0.9,8.1,1.9
					s-6,1.6-8.6,1.9s-5.6,0.5-8.4,0.7c-0.1,0-0.1,0.1,0,0.1c4.2-0.3,8.4-0.6,12.4-1.1c2-0.3,5-0.8,5.2-1.6
					C96.3,85.2,92.9,84.7,90.6,84.4z"/>
			</g>
			<path class="st40" d="M66.4,83.7c-2.2,0-4.3,0.1-6.5,0.3c-3.6,0.3-7.6,0.6-9.9,1.6s0.7,1.7,3.5,2c0.2,0,0.3-0.1,0.1-0.1
				c-1.2-0.3-2.7-0.6-2.8-1.1s1.1-0.7,1.9-0.9c1-0.3,2-0.5,3-0.7c-2.2,0.7-1.1,1.8,2.2,2c0.2,0,0.4-0.1,0.2-0.1
				c-4.4-0.6-1.7-1.6,1.1-2.1c2.4-0.4,4.8-0.6,7.3-0.7C66.5,83.7,66.5,83.7,66.4,83.7z"/>
			<path class="st40" d="M66.4,86.6c-2.4-0.2-6.2-0.2-6.5-1.3c-0.3-0.8,2.9-1.2,4.9-1.3c0.2,0,0.2-0.1,0-0.1
				c-2.4,0.1-5.8,0.5-5.8,1.4C58.9,86.4,64.1,86.7,66.4,86.6C66.5,86.7,66.5,86.6,66.4,86.6z"/>
			<path class="st40" d="M69.1,86.7c-0.5,0-1,0-1.5,0c-0.1,0-0.1,0,0,0C68.1,86.7,68.6,86.7,69.1,86.7
				C69.1,86.7,69.1,86.7,69.1,86.7z"/>
			<path class="st40" d="M70.8,84.6C70.6,84.6,70.7,84.6,70.8,84.6c1.6,0.1,3.2,0.3,4.8,0.5c0.7,0.1,1.7,0.4,1.6,0.7
				c-0.3,0.7-3.5,0.8-5.1,0.8c-0.1,0,0,0,0,0c1.9,0,5.6-0.2,6-0.9C78.8,84.8,72.7,84.5,70.8,84.6z"/>
			<path class="st40" d="M93,86c-1.2-1-5.8-1.5-8.8-1.8c-4.7-0.4-9.3-0.5-14-0.4c-0.1,0-0.1,0.1,0,0.1c6.9,0.3,14.6,0.4,20.1,1.9
				c3.1,0.8-0.3,1.6-2.9,1.9c-3.5,0.4-7.5,0.3-11,0.8c-0.1,0-0.1,0.1,0,0.1c2.3,0.1,4.9-0.1,7.2-0.2c2-0.1,4.2-0.2,6-0.5
				C91.8,87.3,93.9,86.8,93,86z"/>
			<path class="st40" d="M75.5,88.3c-0.1,0-0.3,0-0.4,0c-0.1,0-0.1,0,0,0C75.2,88.3,75.4,88.3,75.5,88.3
				C75.5,88.3,75.5,88.3,75.5,88.3z"/>
			<path class="st40" d="M72.5,88.2c-5.2,0-10-0.2-15-0.6c-0.1,0-0.1,0,0,0C62,88.4,67.6,88.3,72.5,88.2
				C72.6,88.3,72.6,88.2,72.5,88.2z"/>
			<path class="st40" d="M55.2,83.8c-4.1,0.4-9.8,0.9-10,2.5c0,0,0.2,0.1,0.3,0C46.3,84.9,51.7,84.3,55.2,83.8
				C55.3,83.8,55.3,83.7,55.2,83.8z"/>
			<path class="st40" d="M96.2,85.1c-3.6-1.4-10.8-1.8-16.1-1.8c-0.1,0-0.1,0.1,0,0.1c5.3,0.2,10.7,0.8,15.9,1.9
				C96.1,85.3,96.3,85.2,96.2,85.1z"/>
			<path class="st40" d="M71.8,88.6c-2.9,0-5.8,0-8.7,0c-0.2,0-0.2,0.1,0,0.1c2.9,0.1,5.9,0.3,8.8,0.1
				C72.2,88.8,72.1,88.6,71.8,88.6z"/>
			<rect x="83.7" y="19" class="st9" width="2.9" height="9.9"/>
			<rect x="83.7" y="19" class="st41" width="1.3" height="9.9"/>
			<path class="st42" d="M83.7,20.4V19h2.9v1.3C85.8,21.1,84.5,21.1,83.7,20.4z"/>
			<rect x="83.7" y="25.8" class="st42" width="2.9" height="3.1"/>
			<path class="st43" d="M85.8,18.7c0,0.9,0.5,1,2,1.2l5.3,0.5c1,0.1,1.9-0.6,2.1-1.7l0,0c-0.1-1-1-1.8-2-1.7l-5.2,0.6
				C86.6,17.8,85.8,17.7,85.8,18.7L85.8,18.7z"/>
			<path class="st42" d="M91.5,17.2l1.7-0.2c1-0.1,1.9,0.6,2.1,1.6c-0.1,1-1,1.8-2.1,1.7l-1.4-0.1C91.1,19.4,91,18.2,91.5,17.2z"/>
			<path class="st42" d="M87.1,17.8c0.3,0.6,0.3,1.4,0,2c-0.9-0.1-1.3-0.3-1.3-1.1S86.3,17.9,87.1,17.8z"/>
			<path class="st43" d="M91.4,18.5c-0.1,1.4,1,2.6,2.4,2.6s2.6-1,2.6-2.4c0.1-1.4-1-2.6-2.4-2.6c0,0,0,0-0.1,0
				C92.6,16,91.5,17.1,91.4,18.5C91.5,18.5,91.5,18.5,91.4,18.5z"/>
			<g class="st44">
				<path class="st45" d="M93.8,16.5c-0.6,0-1.1,0.2-1.5,0.6c0.4-0.5,1-0.8,1.7-0.8c1.2,0,2.2,0.9,2.2,2.1c0,0,0,0,0,0
					c0,0.6-0.3,1.2-0.7,1.6c0.3-0.4,0.5-0.9,0.5-1.4C96,17.5,95,16.5,93.8,16.5z"/>
			</g>
			<path class="st43" d="M84.4,18.7c0,0.9-0.6,1-2,1.2l-5.3,0.5c-1,0.1-2-0.6-2.1-1.6c0,0,0,0,0-0.1l0,0c0.1-1,1-1.8,2.1-1.7
				c0,0,0,0,0,0l5.2,0.6C83.6,17.8,84.4,17.7,84.4,18.7L84.4,18.7z"/>
			<path class="st42" d="M78.7,17.2L77.1,17c-1-0.1-2,0.6-2.1,1.7c0,0,0,0,0,0c0.1,1,1,1.8,2.1,1.7l1.4-0.1
				C79.2,19.4,79.3,18.2,78.7,17.2z"/>
			<path class="st42" d="M83.2,17.8c-0.3,0.6-0.3,1.4,0,2c0.9-0.1,1.3-0.3,1.3-1.1S84,17.9,83.2,17.8z"/>
			<path class="st43" d="M78.8,18.5c0.1,1.4-1,2.6-2.4,2.6c-1.4,0.1-2.6-1-2.6-2.4c-0.1-1.4,1-2.6,2.4-2.6c0,0,0.1,0,0.1,0
				C77.7,16.1,78.8,17.1,78.8,18.5z"/>
			<path class="st43" d="M83.2,18.8c-0.1,1.1,0.8,2.1,1.9,2.1c1.1,0.1,2.1-0.8,2.1-1.9c0.1-1.1-0.8-2.1-1.9-2.1c-0.1,0-0.1,0-0.2,0
				C84.1,16.9,83.2,17.7,83.2,18.8C83.2,18.7,83.2,18.7,83.2,18.8z"/>
			<g class="st44">
				<path class="st45" d="M85,17.2c-0.4,0-0.9,0.2-1.2,0.5c0.3-0.4,0.8-0.6,1.3-0.6c0.9,0,1.7,0.7,1.8,1.7c0,0,0,0,0,0
					c0,0.5-0.2,0.9-0.6,1.2c0.3-0.3,0.4-0.7,0.4-1.1C86.7,18,85.9,17.2,85,17.2z"/>
			</g>
			<g class="st44">
				<path class="st45" d="M76.2,16.5c-0.6,0-1.1,0.2-1.5,0.6c0.4-0.5,1-0.8,1.7-0.8c1.2,0,2.2,0.9,2.2,2.1c0,0.6-0.3,1.2-0.7,1.6
					c0.3-0.4,0.5-0.9,0.5-1.4C78.4,17.5,77.4,16.5,76.2,16.5z"/>
			</g>
			<path class="st46" d="M80.5,28.9c0.1,1.6,1.4,2.8,3,2.8h3.3c1.6,0.1,2.9-1.2,3-2.8l0,0c-0.1-1.6-1.4-2.8-3-2.8h-3.3
				C81.9,26.1,80.6,27.3,80.5,28.9L80.5,28.9z"/>
			<path class="st42" d="M75.8,39.9v3.6h-7.1v-3.6c-0.4-5.2,3.4-9.8,8.6-10.2c0.5,0,0.9,0,1.4,0h39.1v7.1H78.3
				c-0.6,0-1.3,0.2-1.8,0.6C75.9,38.1,75.7,39,75.8,39.9z"/>
			<path class="st47" d="M75.8,39.9v3.6h-7.1v-3.6c-0.4-5.2,3.4-9.8,8.6-10.2c0.5,0,0.9,0,1.4,0h39.1v7.1H78.3
				c-0.6,0-1.3,0.2-1.8,0.6C75.9,38.1,75.7,39,75.8,39.9z"/>
			<g class="st48">
				<path class="st42" d="M85.3,35.1l32.5-0.2v1.9H78.3c-0.6,0-1.3,0.2-1.8,0.6c-0.6,0.7-0.8,1.6-0.7,2.5v3.6H74l0.1-4.9
					C74.2,33.3,85.3,35.1,85.3,35.1z"/>
			</g>
			<rect x="68.7" y="42.8" class="st49" width="7.1" height="0.7"/>
			<rect x="116.7" y="29.7" class="st49" width="1.1" height="7.1"/>
			<path class="st50" d="M78.7,29.7h13.7v7.1h-14c-0.1,0-0.3,0-0.4,0v-7.1C78.2,29.7,78.5,29.7,78.7,29.7z"/>
			<path class="st51" d="M83.1,27.1h4.1c2.7,0,4.8,2.2,4.8,4.9v3.2c0,2.7-2.2,4.8-4.8,4.8h-4.1c-2.7,0-4.8-2.2-4.8-4.8V32
				C78.2,29.3,80.4,27.1,83.1,27.1z"/>
			<path class="st52" d="M91.3,32.5c-0.1-2.4-2-4.3-4.4-4.5c-0.7-0.1-4.3-0.3-3.1-0.3h3.6c2.3,0,4.2,1.9,4.2,4.2v0v2.8
				c0,0.7-0.2,1.4-0.5,2c0.2-0.4,0.2-0.9,0.2-1.4L91.3,32.5z"/>
			<path class="st49" d="M78.9,35c0.1,2.5,2.2,4.4,4.6,4.3h3.9c1,0,2-0.3,2.8-0.9c-0.9,0.9-2.1,1.4-3.3,1.4h-3.8
				c-2.4,0.1-4.4-1.8-4.5-4.3v-2.9C78.7,33.4,78.8,34.2,78.9,35z"/>
			<path class="st9" d="M117.7,37.3c0.4,0,0.7-0.3,0.7-0.7V30c0-0.4-0.3-0.7-0.7-0.7c0,0,0,0,0,0l0,0c-0.4,0-0.7,0.3-0.7,0.7
				c0,0,0,0,0,0v6.6C117,37,117.3,37.3,117.7,37.3C117.7,37.3,117.7,37.3,117.7,37.3L117.7,37.3z"/>
			<path class="st42" d="M68.3,43.9c0,0.4,0.3,0.7,0.7,0.7l0,0h6.6c0.4,0,0.7-0.3,0.7-0.7c0,0,0,0,0,0l0,0c0-0.4-0.3-0.7-0.7-0.7
				l0,0H69C68.6,43.2,68.3,43.5,68.3,43.9C68.3,43.9,68.3,43.9,68.3,43.9L68.3,43.9z"/>
			<path class="st53" d="M116.6,29.2h-4.3c-0.6,0-1.1,0.5-1.1,1.1v5.6c0,0.6,0.4,1.1,1,1.1c0,0,0,0,0,0h5.5L116.6,29.2z"/>
			<g class="st54">
				<rect x="113.6" y="29.2" class="st55" width="1.5" height="7.7"/>
			</g>
			<polygon class="st56" points="108,78.7 141.4,174.2 149.9,198.1 151.8,170.3 143.7,171.3 107.9,71.3 			"/>
			<polygon class="st57" points="108,78 130.9,172.2 139.4,196.1 141.4,168.3 140.6,165.7 108.2,72.2 			"/>
		</g>
	</g>
	
		<radialGradient id="SVGID_4_" cx="-3964.2737" cy="-374.9896" r="145.6977" gradientTransform="matrix(0.51 0 0 -0.48 2083.53 -100.1)" gradientUnits="userSpaceOnUse">
		<stop  offset="0" style="stop-color:#FFFFFF"/>
		<stop  offset="0.43" style="stop-color:#D3F9FC"/>
	</radialGradient>
	<path class="st58" d="M152,79.9c0,38.6-33,69.9-73.7,69.9S4.6,118.5,4.6,79.9S37.6,10,78.3,10S152,41.3,152,79.9z"/>
	<path class="st59" d="M82.6,142.3c-40.7,0-73.7-31.3-73.7-69.9c0-10,2.2-19.8,6.6-28.8c-0.8,1.2-1.6,2.4-2.3,3.6
		C7,57.5,3.7,69.3,3.7,81.3c0,38.6,33,69.9,73.7,69.9c29.9,0,55.6-16.9,67.2-41.1C131.6,129.5,108.6,142.3,82.6,142.3z"/>
	<path class="st60" d="M22,53.2c3-10.9,11.9-21.4,30.2-28.1c2.1-0.8,3.1-3.1,2.3-5.2c-0.2-0.5-0.5-0.9-0.9-1.3l-0.3-0.4
		c-1-1-2.5-1.4-3.9-1c-6.9,2.1-24.7,12.2-30.6,35.1c-0.2,0.7,0.1,1.4,0.7,1.8l0,0c0.8,0.5,1.8,0.3,2.3-0.5
		C21.9,53.5,22,53.3,22,53.2z"/>
	<circle class="st60" cx="19.5" cy="59" r="2.5"/>
</g>
<g class="st48">
	<path d="M128.4,24.1c-30-27.9-77-26.3-105,3.8C10.7,41.5,3.6,59.4,3.5,78.1c0,2.3,0.1,4.5,0.3,6.8c0,0.2,0,0.5,0.1,0.7v0.1
		c1.3,18.8,10.4,36.3,25,48.2c28.5,29.5,75.5,30.2,105,1.7s30.2-75.5,1.7-105C133.3,28.2,130.9,26.1,128.4,24.1L128.4,24.1z"/>
</g>
</svg>
