<?xml version="1.0" encoding="utf-8"?>
<!-- Generator: Adobe Illustrator 25.2.3, SVG Export Plug-In . SVG Version: 6.00 Build 0)  -->
<svg version="1.1" id="Layer_1" xmlns="http://www.w3.org/2000/svg" xmlns:xlink="http://www.w3.org/1999/xlink" x="0px" y="0px"
	 viewBox="0 0 160 160" style="enable-background:new 0 0 160 160;" xml:space="preserve">
<style type="text/css">
	.st0{opacity:0.3;enable-background:new    ;}
	.st1{opacity:0.91;fill:url(#SVGID_1_);enable-background:new    ;}
	.st2{clip-path:url(#SVGID_3_);}
	.st3{fill:url(#SVGID_4_);}
	.st4{opacity:0.36;fill:none;stroke:#FEFFEB;stroke-miterlimit:10;enable-background:new    ;}
	.st5{fill:url(#SVGID_5_);}
	.st6{fill:url(#SVGID_6_);}
	.st7{fill:url(#SVGID_7_);}
	.st8{fill:url(#SVGID_8_);}
	.st9{fill:url(#SVGID_9_);}
	.st10{opacity:0.43;}
	.st11{fill:none;stroke:#FEFFEB;stroke-width:0.5;stroke-miterlimit:10;}
	.st12{fill:#A6E6F7;}
	.st13{fill:#71CAF2;}
	.st14{fill:#2C8284;}
	.st15{opacity:0.4;fill:#353535;enable-background:new    ;}
	.st16{fill:#54A3B7;}
	.st17{fill:#DF6B97;}
	.st18{fill:#ECA8C2;}
	.st19{opacity:0.5;fill:#DF6B97;enable-background:new    ;}
	.st20{opacity:0.7;fill:#DF6B97;enable-background:new    ;}
	.st21{fill:#471025;}
	.st22{fill:#E9EAE5;}
	.st23{fill:#4D8184;}
	.st24{fill:#426E72;}
	.st25{fill:#99AAA9;}
	.st26{fill:#C0C1BC;}
	.st27{fill:#A4A5A0;}
	.st28{fill:#CACCC0;}
	.st29{fill:#93D839;}
	.st30{fill:#73AD0E;}
	.st31{fill:none;stroke:#913D2A;stroke-width:0.25;stroke-miterlimit:10;}
	.st32{fill:#F9D1C6;}
	.st33{opacity:0.5;}
	.st34{fill:#2C5591;}
	.st35{fill:none;stroke:#0E3266;stroke-width:0.5;stroke-miterlimit:10;}
	.st36{fill:#4776C2;}
	.st37{fill:#5789D3;}
	.st38{fill:#F7BEB0;}
	.st39{fill:#913D2A;}
	.st40{fill:#F9D1C6;stroke:#CE8F89;stroke-width:0.5;stroke-miterlimit:10;}
	.st41{fill:#342517;}
	.st42{fill:#422F1F;}
	.st43{fill:#CE8F89;}
	.st44{fill:#EAEDF9;}
	.st45{fill:none;stroke:#035353;stroke-width:0.25;stroke-miterlimit:10;}
	.st46{fill:#2D2B21;}
	.st47{fill:url(#SVGID_10_);}
	.st48{opacity:0.6;fill:url(#SVGID_11_);enable-background:new    ;}
	.st49{fill:#C23945;}
	.st50{fill:#B5F7F5;}
	.st51{fill:#84C918;}
	.st52{fill:#D6D621;}
	.st53{fill:#BFBB17;}
	.st54{fill:#B2AA14;}
	.st55{fill:#CCC71D;}
	.st56{opacity:0.1;fill:url(#SVGID_12_);enable-background:new    ;}
	.st57{opacity:0.5;fill:#4ECECE;enable-background:new    ;}
	.st58{opacity:0.6;fill:#FDFFFF;enable-background:new    ;}
	.st59{opacity:0.6;}
</style>
<circle class="st0" cx="82.7" cy="81.8" r="74.3"/>
<g id="_01">
	
		<radialGradient id="SVGID_1_" cx="-18075.9805" cy="-543.7299" r="584.26" gradientTransform="matrix(0.15 0 0 -0.15 2739.4099 -7.35)" gradientUnits="userSpaceOnUse">
		<stop  offset="0" style="stop-color:#FFFFFF"/>
		<stop  offset="0.61" style="stop-color:#D3F9FC"/>
		<stop  offset="0.93" style="stop-color:#48E5FF"/>
	</radialGradient>
	<path class="st1" d="M152.5,77.6c0.2,41-32.9,74.4-73.9,74.5c-41,0.2-74.4-32.9-74.5-73.9S36.9,3.9,77.9,3.7c0.1,0,0.2,0,0.3,0
		C119.2,3.6,152.4,36.7,152.5,77.6C152.5,77.6,152.5,77.6,152.5,77.6z"/>
	<g>
		<defs>
			<ellipse id="SVGID_2_" cx="78.4" cy="76.8" rx="74.1" ry="73.8"/>
		</defs>
		<clipPath id="SVGID_3_">
			<use xlink:href="#SVGID_2_"  style="overflow:visible;"/>
		</clipPath>
		<g class="st2">
			
				<linearGradient id="SVGID_4_" gradientUnits="userSpaceOnUse" x1="202.6846" y1="247.9784" x2="120.8746" y2="9.2084" gradientTransform="matrix(1 0 0 -1 0 162)">
				<stop  offset="0" style="stop-color:#72EDED"/>
				<stop  offset="0.23" style="stop-color:#6FE9EA"/>
				<stop  offset="0.45" style="stop-color:#67DDE3"/>
				<stop  offset="0.68" style="stop-color:#58C9D6"/>
				<stop  offset="0.9" style="stop-color:#45ADC4"/>
				<stop  offset="0.99" style="stop-color:#3CA1BC"/>
			</linearGradient>
			<path class="st3" d="M70.7-21.9l0.5,157.7l165.1,1.4V-21.2L70.7-21.9z"/>
			<line class="st4" x1="78.1" y1="124.8" x2="255.5" y2="125.4"/>
			
				<linearGradient id="SVGID_5_" gradientUnits="userSpaceOnUse" x1="-229.807" y1="206.4251" x2="76.863" y2="62.7351" gradientTransform="matrix(1 0 0 -1 0 162)">
				<stop  offset="0.38" style="stop-color:#41AFB5"/>
				<stop  offset="0.76" style="stop-color:#3EABB6"/>
				<stop  offset="0.99" style="stop-color:#39A5B7"/>
			</linearGradient>
			<path class="st5" d="M76.8-25.2L-58.3-61.9c-0.9,73.7-1.8,147.3-2.6,221l138.6-23.9L76.8-25.2z"/>
			
				<linearGradient id="SVGID_6_" gradientUnits="userSpaceOnUse" x1="-180.0783" y1="200.8709" x2="82.6117" y2="159.1909" gradientTransform="matrix(1 0 0 -1 0 162)">
				<stop  offset="0.13" style="stop-color:#41B5C4"/>
				<stop  offset="0.48" style="stop-color:#40B1C2"/>
				<stop  offset="0.81" style="stop-color:#3DA5BE"/>
				<stop  offset="0.99" style="stop-color:#3A9CBA"/>
			</linearGradient>
			<path class="st6" d="M-75.3-64.4L75.7-33.9c-0.1,29,1.5,49,1.4,78C26.9,5-25-25.3-75.3-64.4z"/>
			
				<linearGradient id="SVGID_7_" gradientUnits="userSpaceOnUse" x1="234.1817" y1="189.2834" x2="68.6336" y2="147.6438" gradientTransform="matrix(1 0 0 -1 0 162)">
				<stop  offset="2.000000e-02" style="stop-color:#72EDED"/>
				<stop  offset="0.26" style="stop-color:#6FE9EC"/>
				<stop  offset="0.5" style="stop-color:#67DDE7"/>
				<stop  offset="0.74" style="stop-color:#59C9E0"/>
				<stop  offset="0.98" style="stop-color:#45ADD6"/>
				<stop  offset="0.99" style="stop-color:#45ADD6"/>
			</linearGradient>
			<polyline class="st7" points="236.2,-19.1 75.3,-19 76.1,44.2 234.8,-19 			"/>
			
				<linearGradient id="SVGID_8_" gradientUnits="userSpaceOnUse" x1="222.4598" y1="42.691" x2="58.1197" y2="1.361" gradientTransform="matrix(1 0 0 -1 0 162)">
				<stop  offset="2.000000e-02" style="stop-color:#E9EAE5"/>
				<stop  offset="0.12" style="stop-color:#E0E4E0"/>
				<stop  offset="0.44" style="stop-color:#C7D4D1"/>
				<stop  offset="0.74" style="stop-color:#B8C9C8"/>
				<stop  offset="0.98" style="stop-color:#B3C6C5"/>
			</linearGradient>
			<polygon class="st8" points="227.2,127.2 78.1,124.8 -75.5,157.5 227.2,154.9 			"/>
			
				<linearGradient id="SVGID_9_" gradientUnits="userSpaceOnUse" x1="-63.84" y1="20.3489" x2="442.96" y2="20.3489" gradientTransform="matrix(1 0 0 -1 0 162)">
				<stop  offset="0" style="stop-color:#6F929B"/>
				<stop  offset="0.14" style="stop-color:#7D96A5"/>
				<stop  offset="0.48" style="stop-color:#999EB9"/>
				<stop  offset="0.77" style="stop-color:#ABA2C5"/>
				<stop  offset="0.99" style="stop-color:#B1A4C9"/>
			</linearGradient>
			<path class="st9" d="M78.1,124.8c35.8,9.3,72.1,16.7,108.8,22.2c81.1,12.1,163.4,14.7,245.1,7.7l-506.8,2.7L78.1,124.8z"/>
			<g class="st10">
				<polyline class="st11" points="-77.3,9.1 76.6,13 228.5,13 				"/>
				<polyline class="st11" points="-75.9,54.4 -75.9,60.1 74.5,48.8 235.6,48.7 				"/>
				<polyline class="st11" points="-74.9,109.4 78.9,86.8 245.2,86.8 				"/>
				<polyline class="st11" points="122.8,-101.3 122.8,123.1 -2.6,175.6 				"/>
				<polyline class="st11" points="180.2,-101.3 177.9,124.9 100.8,183.3 				"/>
				<line class="st11" x1="32.7" y1="-37.2" x2="35.9" y2="133.8"/>
			</g>
			<path class="st12" d="M68.1,133.6c4.5-2.5,18.7-3.5,24.5-3.5s16.7,0.6,17.1,1.8s-3.7,2.2-3.3,3.1s12.4-0.2,13.5,2.5
				s-8.8,4.4-11.5,4.6s1.3,2.9,0.1,4.2s-8.8,0.5-11.4,1.2s-9.2,2.2-11.9,0.9s-6.7-2-12.7-1.1s-20.6-0.3-21-2s4.7-1.8,3.7-3.2
				s-11.4-0.8-10.8-2.8S64.6,134.3,68.1,133.6z"/>
			<path class="st13" d="M108.5,142c2.7-0.1,12.6-1.9,11.5-4.6s-13.1-1.6-13.5-2.5s3.8-1.9,3.3-3.1c-0.2-0.5-2-0.8-4.4-1.1
				c0.7,0.2,1.1,0.8,0.9,1.4c0,0,0,0.1,0,0.1c-0.3,0.8-1.8,1.1-2.4,1.8c-0.4,0.5-0.3,1.2,0.2,1.6c0.1,0.1,0.2,0.1,0.3,0.2
				c0.1,0.1,0.2,0.1,0.3,0.1c3.2,1.1,12,0.5,10.2,2.5c-3,1.8-7.2,1.3-10.5,2.8c-0.2,0.3-0.2,0.6,0,0.8c0.7,1,2.3,1.9,1.6,3
				c-0.3,0.6-1.6,0.7-2.3,0.7c-3.9,0.3-6.4-0.4-12,1.3c-1.6,0.4-3.3,0.5-5,0.2c-1-0.5-2-0.8-3.1-1.2c-3.4-1.6-15.3,1.1-26.4-0.6
				c-2.4-0.6-1.9-1.3-1.6-1.9c0.7-0.8,2.6-1.7,1.8-2.4c-3.5-2.3-9,0.1-12.9-2.2c-0.4,2,9.9,1.4,10.8,2.8s-4.1,1.5-3.7,3.2
				s15,2.9,21,2s10-0.2,12.7,1.1s9.3-0.2,11.9-0.9s10.2,0.1,11.4-1.2S105.8,142.1,108.5,142z"/>
			<path class="st14" d="M88.4,148.9c-1.1,0-2.2-0.1-3.2-0.5c-2.4-1.1-5-1.6-7.7-1.5c-1.7,0-3.3,0.1-5,0.4c-1.8,0.2-3.5,0.3-5.3,0.3
				c-6.2,0-15.5-0.9-15.8-2.4c-0.2-0.9,1-1.4,2.2-1.8c0.8-0.3,1.5-0.6,1.7-0.9c0.1-0.1,0-0.3-0.1-0.4c-0.4-0.6-2.7-0.8-5-1
				c-2.5-0.2-5-0.5-5.7-1.2c-0.2-0.2-0.2-0.4-0.2-0.6c0.4-1.5,10.2-3.3,19.4-4.9c2-0.3,3.6-0.6,4.3-0.8c4.5-2.5,18.4-3.5,24.6-3.5
				c4.4,0,16.7,0.4,17.3,1.8c0.3,0.7-0.8,1.3-1.8,1.9c-0.8,0.4-1.6,0.9-1.5,1.3s2.1,0.4,4,0.4c3.7,0.1,8.8,0.3,9.5,2.1
				c0.2,0.5,0.1,1-0.3,1.3c-1.8,2.1-9.2,3.3-11.3,3.4c-0.4,0-0.7,0.1-0.8,0.3s0.1,0.9,0.5,1.5c0.5,0.8,1,1.8,0.4,2.4
				c-0.7,0.8-3.5,0.8-6.4,0.9c-1.7,0-3.3,0.1-5,0.4C94.4,148.3,91.4,148.8,88.4,148.9z M77.5,146.6c2.7-0.1,5.3,0.4,7.8,1.5
				c1,0.4,2,0.6,3.1,0.5c3-0.1,5.9-0.6,8.8-1.4c1.7-0.3,3.4-0.4,5.1-0.4c2.7,0,5.6-0.1,6.2-0.8c0.5-0.5,0-1.4-0.5-2.2
				s-0.8-1.3-0.5-1.7c0.3-0.3,0.6-0.4,1-0.3c2.5-0.1,9.5-1.4,11.1-3.3c0.3-0.3,0.4-0.8,0.3-1.2c-0.7-1.6-5.7-1.8-9.3-1.9
				c-2.6-0.1-4-0.2-4.2-0.6s0.7-1,1.6-1.5s2-1.1,1.7-1.6c-0.4-1-10.4-1.7-17-1.7c-6.1,0-20,1-24.4,3.5l0,0c-0.8,0.2-2.4,0.4-4.4,0.8
				c-6.6,1.1-18.8,3.2-19.3,4.7c0,0.2,0,0.3,0.1,0.5c0.6,0.7,3.1,0.9,5.5,1.2s4.7,0.4,5.2,1.1c0.1,0.2,0.2,0.4,0.1,0.6
				c-0.2,0.4-1,0.7-1.8,1c-1.1,0.4-2.2,0.8-2,1.6c0.3,1.2,8.8,2.2,15.6,2.2c1.8,0,3.5-0.1,5.3-0.3C74.2,146.8,75.9,146.6,77.5,146.6
				z"/>
			<path class="st12" d="M50.2,145.7c1,1.3-5.2,2.9-7,1.4S48.5,143.5,50.2,145.7z"/>
			<path class="st13" d="M50.2,145.7c-0.3-0.4-0.7-0.6-1.2-0.7c0.1,0.2,0.1,0.4,0,0.6c-1.6,1.3-3.7,1.6-5.6,0.8
				c-0.1,0-0.2-0.1-0.3-0.2c-0.2,0.2-0.3,0.6-0.1,0.8c0,0,0.1,0.1,0.1,0.1C45,148.6,51.2,147,50.2,145.7z"/>
			<path class="st14" d="M45.5,147.8c-0.8,0.1-1.7-0.1-2.3-0.6c-0.3-0.2-0.4-0.6-0.2-0.9c0.5-0.9,2.7-1.6,4.7-1.6c1-0.1,2,0.3,2.7,1
				c0.2,0.2,0.2,0.5,0,0.7C49.7,147.1,47.5,147.8,45.5,147.8z M47.6,144.8c-1.8,0-4,0.8-4.4,1.5c-0.1,0.2-0.1,0.5,0.2,0.7
				c0.7,0.4,1.4,0.6,2.2,0.5c1.6,0.1,3.3-0.4,4.6-1.4c0.1-0.1,0.1-0.4,0-0.5C49.4,145.1,48.5,144.8,47.6,144.8L47.6,144.8z"/>
			<path class="st12" d="M118.1,145.2c0.3,1.1,9,0.5,8.3-0.9S117.8,143.9,118.1,145.2z"/>
			<path class="st13" d="M126.4,144.3c-0.2-0.4-0.9-0.6-1.8-0.6c-1,1.9-5.8,1.7-6.4,1.3c0,0-0.1,0-0.1,0c0,0.1,0,0.1,0,0.2
				C118.4,146.3,127.1,145.7,126.4,144.3z"/>
			<path class="st14" d="M120.8,145.9L120.8,145.9c-1,0-2.7-0.1-2.8-0.6c0-0.2,0-0.4,0.2-0.5c0.7-0.7,3.4-1.2,5.5-1.2
				c0.9,0,2.5,0.1,2.8,0.7c0.1,0.2,0.1,0.4-0.1,0.5C125.9,145.5,123.1,145.9,120.8,145.9z M123.7,143.8c-2.2,0-4.7,0.5-5.3,1.1
				c-0.1,0.1-0.1,0.2-0.1,0.3c0.1,0.3,1.1,0.5,2.6,0.5c2.2,0,4.9-0.4,5.4-1c0.1-0.1,0.1-0.2,0.1-0.3
				C126.1,144,125.1,143.8,123.7,143.8L123.7,143.8z"/>
			<ellipse class="st15" cx="36.7" cy="140.4" rx="9.7" ry="2.2"/>
			<path class="st12" d="M77.6,125.9c2.8-0.9,4,5,0,4.9c2.8,2.8-2.1,4-3.9,2c-0.7,1.4-2.3,2.1-3.7,1.6c-1-0.2-1.8-0.8-2.1-1.7
				c-0.6,1.3-2,1.9-3.3,1.6c-1.2-0.1-2-1.1-2-2.3c-2.9,3.2-11.6,0.9-2.9-1.8c-2.6-1.2-1.1-4.7,2.8-3.2c-3.3-3.6,2.6-5.3,5.6-2.9
				c0.3-1,1.2-1.5,2.2-1.3c0.6,0.2,1.1,0.6,1.2,1.2C72.2,121.5,77.8,122.8,77.6,125.9z"/>
			<path class="st13" d="M78.7,126c0.8,1.2,1.5,2.6-0.2,3.5c-1.1,0.3-2.2,0.4-3.3,0.1c0.9,0.7,1.6,1.8,0.9,2.4
				c-1.2,1.1-2.4-0.7-3.3-1.7c0.3,0.9-0.1,1.9-1,2.2c-0.3,0.1-0.7,0.1-1.1,0c-1.8-0.3-1.6-1.7-2.1-2.6c-0.5,0.6-0.7,1.5-1.4,1.7
				c-0.8,0.3-1.6,0.1-2.2-0.6c-0.2-0.2-0.2-0.5-0.1-0.8c-0.9,1-2.6,2-4,1.4c-1.6-0.6,0.3-1.9,1.4-2.1c-1-0.4-2.6,0-3-1.1
				c-0.2-0.3-0.3-0.8-0.2-1.2c-0.8,0.5-0.9,1.6-0.4,2.3c0.1,0.2,0.3,0.3,0.4,0.4c0.2,0.1,0.4,0.2,0.5,0.3c-8.7,2.7,0,5,2.9,1.8
				c-0.2,1.2,0.9,2.3,2.4,2.4c1.2,0.2,2.4-0.5,2.9-1.6c0.6,1.4,2.2,2.1,3.7,1.7c1-0.1,1.8-0.8,2.2-1.7c1.7,2,6.7,0.8,3.9-2
				C81,131,80.6,126.7,78.7,126z"/>
			<path class="st16" d="M70.9,134.7c-1.2,0.1-2.4-0.5-3-1.6c-0.6,0.9-1.6,1.5-2.7,1.4l0,0c-1.4,0.2-2.6-0.8-2.8-2.1v-0.1
				c-1.1,0.9-2.5,1.4-4,1.4c-1.4,0-2.5-0.4-2.6-1c-0.1-0.4,0.2-1.4,3.6-2.5c-0.9-0.3-1.4-1.3-1.1-2.2c0.4-0.9,1.4-1.5,2.4-1.4
				c0.5,0,1,0.1,1.4,0.2c-0.9-0.6-1.1-1.9-0.4-2.8c0.1-0.2,0.3-0.3,0.4-0.4c0.7-0.5,1.6-0.7,2.5-0.6c1.2,0,2.3,0.3,3.3,1
				c0.3-0.7,1-1.2,1.8-1.3c0.7,0,1.4,0.4,1.7,1c0.5-0.8,1.3-1.2,2.2-1.1c1.1,0,2.1,0.3,3,1c0.7,0.5,1.1,1.3,1.1,2.2
				c0.1,0,0.3,0,0.4,0c1.3,0,2.1,1.4,2.1,2.7c0.1,1.3-0.9,2.4-2.2,2.5c-0.1,0-0.1,0-0.2,0c0.6,0.5,0.9,1.3,0.6,2.1
				c-0.5,0.7-1.4,1-2.2,0.9l0,0c-0.9,0-1.8-0.3-2.4-0.9C73.2,134.2,72.1,134.8,70.9,134.7L70.9,134.7z M67.9,132.4l0.1,0.4
				c0.5,1.2,1.6,1.9,2.9,1.7l0,0c1.2,0.1,2.3-0.6,2.7-1.7l0.1-0.2l0.2,0.2c0.6,0.7,1.5,1,2.4,1l0,0c0.8,0.1,1.5-0.2,2-0.8
				c0.3-0.7,0-1.6-0.7-2l-0.2-0.2h0.3c1.2,0.1,2.2-0.8,2.4-2c0-0.1,0-0.3,0-0.4c0-1.2-0.8-2.5-1.9-2.5c-0.2,0-0.3,0-0.5,0.1
				l-0.2,0.1v-0.2c0-0.8-0.3-1.7-1-2.2c-0.8-0.6-1.8-1-2.8-1c-0.9-0.1-1.8,0.4-2.1,1.2l-0.1,0.4l-0.1-0.4c-0.2-0.7-0.9-1.1-1.6-1.1
				c-0.8,0-1.4,0.5-1.6,1.3v0.2l-0.1-0.1c-0.9-0.7-2.1-1.1-3.3-1.1c-1.1-0.1-2.1,0.3-2.8,1.1c-0.4,1-0.1,2.1,0.7,2.7l0.3,0.3
				l-0.4-0.2c-0.5-0.2-1.1-0.3-1.7-0.3c-0.9-0.1-1.9,0.4-2.2,1.3c-0.2,0.9,0.3,1.8,1.2,2.1l0.2,0.1l-0.2,0.1c-3.6,1.1-3.8,2-3.7,2.3
				c0.1,0.5,1.1,0.9,2.4,0.9c1.5,0.1,3-0.5,4.1-1.5l0.2-0.3v0.3c-0.1,0.6,0.2,1.2,0.7,1.6c0.5,0.4,1.2,0.6,1.9,0.6l0,0
				c1.1,0.1,2.1-0.6,2.6-1.6L67.9,132.4z"/>
			<path class="st17" d="M59.4,96.5c-1.2-1.3-10.6-2-22.7-2c-12.8,0-22.7,1-22.7,2.3l0,0c-0.1,1.6,0.7,3.1,2,3.9c0,0-0.1,0,0,0
				c0.4,0.9,0.7,1.8,0.8,2.8c0.1,1.1,0.3,3.2,0.4,4.3c0.3,2.6,0.6,4.4,0.8,7c0.5,5.1,0.4,9.7,0.8,14.9c0.3,3.6,0.7,7.1,4,9.1
				c2.2,1.3,4.4,1.3,6.9,1.4c0.6,0.1,1.8-0.1,2.4,0c2.4,0.3,11,0,13.3,0l0,0c1.9-0.3,3.8-1,5.5-2c3.3-2,3.6-5,3.9-8.6
				c0.4-5.1,0.7-10.1,1.2-15.3c0.2-2.6,0.5-4.8,0.8-7.4c0.1-1.1,0.3-2.8,0.4-3.9c0.1-0.8,0.3-1.6,0.8-2.3c0.3-0.1,0.5-0.2,0.8-0.4
				c0.8-1,1.2-2.2,1.2-3.5C59.8,96.8,59.5,96.5,59.4,96.5z"/>
			<path class="st17" d="M59.1,96.5c0,0.2-0.4,0.4-1,0.6c-2.8,0.8-11.3,1.4-21.3,1.4c-9.7,0-17.9-0.6-21-1.3
				c-0.8-0.2-1.3-0.4-1.3-0.7c0-1.1,10-2,22.3-2S59.1,95.4,59.1,96.5z"/>
			<path class="st12" d="M58.1,97.1c-2.8,0.8-11.3,1.4-21.3,1.4c-9.7,0-17.9-0.6-21-1.3c2.9-0.8,11.3-1.4,21.2-1.4
				C46.8,95.8,55,96.3,58.1,97.1z"/>
			<path class="st18" d="M56.6,104.4c-0.3,2.4-0.6,4.9-0.8,7.3c-0.4,5.1-1,10.2-1.5,15.3c-0.3,3.2,0,7.1-2.2,9.8
				c-1.7,1.7-3.9,2.8-6.3,3.2c-1.3,0.2-2.7,0.3-4,0.3c-5,0.1-10.2,0.6-15-0.7c-1.3-0.3-2.5-0.8-3.6-1.4c-4-2.2-3.6-7.2-4-11.2
				c-0.5-5.1-1-10.2-1.5-15.3c-0.2-2.4-0.4-4.9-0.8-7.3c0-1-0.3-2.1-0.6-3.1c1.7,0.7,3.5,1.1,5.3,1.2c5.2,0.6,10.5,0.9,15.7,0.8
				c5.1,0,10.1-0.4,15.1-1.2c1.2-0.2,2.4-0.5,3.6-0.8c0.4-0.1,0.8-0.2,1.2-0.3C56.9,102.1,56.6,103.2,56.6,104.4z"/>
			<path class="st17" d="M56.6,104.4c-0.3,2.4-0.6,4.9-0.8,7.3c-0.4,5.1-1,10.2-1.5,15.3c-0.3,3.2,0,7.1-2.2,9.8
				c-1.7,1.7-3.9,2.8-6.3,3.2c-1.3,0.2-2.7,0.3-4,0.3c-5,0.1-10.2,0.6-15-0.7c-1.3-0.3-2.5-0.8-3.6-1.4c-4-2.2-3.6-7.2-4-11.2
				c-0.5-5.1-1-10.2-1.5-15.3c-0.2-2.4-0.4-4.9-0.8-7.3c0-1-0.3-2.1-0.6-3.1c1.7,0.7,3.5,1.1,5.3,1.2c5.2,0.6,10.5,0.9,15.7,0.8
				c5.1,0,10.1-0.4,15.1-1.2c1.2-0.2,2.4-0.5,3.6-0.8c0.4-0.1,0.8-0.2,1.2-0.3C56.9,102.1,56.6,103.2,56.6,104.4z"/>
			<path class="st18" d="M29.9,136.6c-0.4-4.3-0.7-8.5-0.6-12.8c0-4.5,0.1-9,0-13.5c0-2.2-0.1-4.5-0.2-6.7c0-0.1,0-0.3,0-0.4
				c-1.3-0.1-2.5-0.2-3.7-0.3c0.2,6.9,0.4,13.8,0.7,20.8c0.3,5.3,0.8,10.6,1.2,15.9c1,0.2,2,0.4,3.1,0.5
				C30.1,139,30,137.8,29.9,136.6z"/>
			<path class="st19" d="M56.2,101.3c-1.2,0.3-2.4,0.6-3.6,0.8c-0.5,0.1-1.1,0.2-1.6,0.3c-0.2,6.3-0.8,12.6-1.2,19
				c-0.2,3.7-0.5,7.3-0.8,11c-0.1,1.1-0.2,2.2-0.3,3.3l-0.1,1.3c0,0.4,0.1,0.9-0.1,0.3c0,0.3,0,0.7,0,1c0,0.1,0,0.2,0,0.3
				c-0.1,0.3-0.2,0.6-0.4,0.8c1.6-0.5,3-1.4,4.2-2.6c2.2-2.6,1.9-6.6,2.2-9.8c0.5-5.1,1-10.2,1.5-15.3c0.2-2.4,0.4-4.9,0.8-7.3
				c0-1.2,0.3-2.3,0.8-3.4C57,101.1,56.6,101.2,56.2,101.3z"/>
			<path class="st18" d="M58.1,100.2c-0.9,0.3-1.8,0.6-2.7,0.8c-2.1,0.5-4.2,0.9-6.3,1.2c-4.4,0.5-8.8,0.7-13.2,0.6
				c-4.3,0-8.7-0.3-13-0.8c-2.1-0.2-4.1-0.6-6.1-1.3c-1.4-0.6-2.3-1.8-2.6-3.3c2.5,1.1,11.7,1.9,22.6,1.9s20.4-0.8,22.7-2
				C59.5,98.4,59.2,99.7,58.1,100.2z"/>
			<path class="st19" d="M58.1,100.2c-0.9,0.3-1.8,0.6-2.7,0.8c-2.1,0.5-4.2,0.9-6.3,1.2c-4.4,0.5-8.8,0.7-13.2,0.6
				c-4.3,0-8.7-0.3-13-0.8c-2.1-0.2-4.1-0.6-6.1-1.3c-1.4-0.6-2.3-1.8-2.6-3.3c2.5,1.1,11.7,1.9,22.6,1.9s20.4-0.8,22.7-2
				C59.5,98.4,59.2,99.7,58.1,100.2z"/>
			<path class="st17" d="M36.5,101.6c-4,0-10.6-0.4-14.6-0.9c-2.5-0.3-5.4-0.8-7.3-2.6c0.4,1.1,1.2,2,2.3,2.5c1.9,0.7,4,1.2,6.1,1.3
				c4.3,0.5,8.7,0.8,13,0.8c4.4,0.1,8.8-0.1,13.2-0.6c2.1-0.3,4.2-0.7,6.3-1.2c0.9-0.2,1.8-0.4,2.7-0.8c0.7-0.3,1.1-1,1.3-1.7
				C57.4,101,41.9,101.7,36.5,101.6z"/>
			<path class="st17" d="M17.2,105.5c0.4-1.4,0.1-2.4,1.6-2.4c4.2-0.1,7.8,0.9,12,1.1c2.3,0.1,8.3,0.3,10.5,0.1
				c3.2-0.3,7.2-1,9.2-1.3c3.6-0.5,5.5-2.4,5.3,3.2c0,1,0,2.1,0.2,3.1c0.2-1.6,0.3-3.3,0.5-4.9c0-1.2,0.3-2.3,0.8-3.4
				c-0.4,0.1-0.8,0.2-1.2,0.3c-1.2,0.3-2.4,0.6-3.6,0.8c-5,0.8-10,1.3-15.1,1.2c-5.3,0.1-10.5-0.2-15.7-0.8
				c-1.8-0.1-3.6-0.5-5.3-1.2c0.4,1,0.6,2,0.6,3.1C17.1,104.8,17.2,105.1,17.2,105.5z"/>
			<path class="st20" d="M53.1,131.9c-0.4,1.1-1.1,2-1.9,2.8c-1.8,1.6-4.8,2.4-7.6,2.7c-5.1,0.6-15,0.8-19.6-1.6
				c-2.4-1.3-2.8-2.5-3.6-5.7c-0.3-1.3-0.7-2.7-1.2-3.9l0.1,0.9c0.4,4-0.1,8.9,4,11.2c1.1,0.6,2.3,1.1,3.6,1.4
				c4.9,1.3,10.1,0.7,15,0.7c1.3,0,2.7-0.1,4-0.3c2.4-0.4,4.6-1.5,6.3-3.2c2.2-2.6,1.9-6.4,2.2-9.5
				C54.2,128.8,53.8,130.4,53.1,131.9z"/>
			<path class="st21" d="M54.9,100.2C54.9,100.2,54.9,100.1,54.9,100.2c0.1-0.3,0-0.6-0.2-0.9c-0.1-0.2-0.2-0.3-0.4-0.3
				c-0.4-0.1-0.9,0-1.2,0.3c-0.4,0.2-0.6,0.7-0.6,1.2c0,0.2,0.1,0.3,0.2,0.4c0.1,0.2,0.3,0.3,0.5,0.4c-0.4,0.9-0.9,1.7-1.5,2.5
				c-0.8,1.1-1.5,2.3-2.2,3.4c-1.6,2.3-3.4,4.4-5.3,6.3c-4.1,4-8.9,7.2-14.2,9.3c-3.6,1.4-8.2,2.4-11.9,0.8
				c-1.8-0.7-2.9-2.5-2.9-4.4c-0.1-1.5,0.1-3,0.5-4.4c0.3-1.5,0.8-3,1.6-4.4c0.1-0.3-0.1-0.3-0.3-0.1c-1.7,2.4-2.7,5.2-2.9,8.1
				c-0.1,2.3,0.3,4.3,2.3,5.7c3.5,2.4,8.8,1.3,12.5,0.1c6-2,11.4-5.8,15.9-10.1c2.3-2.2,4.3-4.6,6-7.2c1.1-1.7,2.6-3.6,3.3-5.6
				c0.4-0.2,0.6-0.4,0.8-0.8l0,0l0,0C54.9,100.3,54.9,100.2,54.9,100.2z"/>
			<path class="st22" d="M32.4,66.2l0.8-0.9c0,0-1.7-3.3-2.1-4.4s6.1-0.7,6.3-0.7s0.9,0.4,0.3,1.7c-0.4,1.7-0.7,3.5-0.7,3.5l0.5,0.4
				c0,0-2.1,1.3,0.1,3.7c-2.4,2.3-4.3,0.5-4.5,0.1C32.1,68.6,31.9,67.3,32.4,66.2z"/>
			<ellipse class="st23" cx="27.6" cy="67.8" rx="3.1" ry="4.4"/>
			<ellipse class="st24" cx="27.7" cy="68" rx="2.3" ry="3.3"/>
			<path class="st25" d="M28.1,66.1h4.2c-0.4,1.1-0.2,2.4,0.5,3.4l-5.1-0.1C27.7,69.4,26.3,67.2,28.1,66.1z"/>
			<path class="st22" d="M37.4,65.9c0,0,4.2-1.1,4.1,3.7v3.8c-1.2,0.4-2.4,0.4-3.6,0l0.1-3c0,0-0.3-0.4-0.6-0.8S35.4,67.2,37.4,65.9
				z"/>
			<path class="st24" d="M31.1,61.1H38C38.5,59.3,30.2,59.3,31.1,61.1z"/>
			<path class="st23" d="M38,61.1c0,0,0.1-0.8-1.1-1l-2.8,1H38z"/>
			<path class="st25" d="M37.9,73.3c0,0,1,0.7,3.6,0c0,0.2,0,0.5,0,0.7c0,0-2.6,0.8-3.6,0V73.3z"/>
			<path class="st26" d="M38,70.3c0,0,1.8,2.9,3.5,3c-1.5,0.3-2.3,0.5-3.6,0L38,70.3z"/>
			<path class="st27" d="M31.1,61.1c0,0,0.9,3.2,1.7,3.7c0.6,0.4,3,0,3,0s-3.1-2.2-3.8-3.7L31.1,61.1z"/>
			<polygon class="st28" points="38,61.1 37,64.8 35.9,64.7 37.2,61.1 			"/>
			<path class="st26" d="M32.9,65.6c0,0-1.6,1.2-0.3,3.5c0.7,1.4,2.4,2,3.8,1.3c0.4-0.2,0.7-0.5,1-0.9c0,0-3.1,0.5-3.3-4L32.9,65.6z
				"/>
			<path class="st23" d="M32.8,65.6H37c0,0-0.1-0.2,0-0.8c0-0.1-4.2,0-4.2,0l0.3,0.5L32.8,65.6z"/>
			<path class="st22" d="M20.8,67l0.9-1c0,0-2-3.5-2.3-4.7s6.9-0.7,7.1-0.7s1,0.5,0.3,1.8c-0.5,1.8-0.8,3.8-0.8,3.8l0.6,0.4
				c0,0-2.4,1.4,0.1,3.9c-2.8,2.5-4.8,0.5-5.1,0.1C20.5,69.6,20.3,68.2,20.8,67z"/>
			<ellipse class="st23" cx="15.4" cy="68.8" rx="3.5" ry="4.8"/>
			<ellipse class="st24" cx="15.5" cy="69" rx="2.5" ry="3.5"/>
			<path class="st25" d="M16,66.9h4.8c-0.5,1.2-0.3,2.6,0.6,3.6l-5.8-0.1C15.6,70.4,13.9,68,16,66.9z"/>
			<path class="st22" d="M26.5,66.6c0,0,4.7-1.2,4.7,3.9l-0.1,4.1c-1.3,0.4-2.7,0.4-4.1,0l0.1-3.3c0,0-0.3-0.4-0.6-0.8
				S24.2,68.1,26.5,66.6z"/>
			<path class="st24" d="M19.4,61.5H27C27.5,59.5,18.3,59.6,19.4,61.5z"/>
			<path class="st23" d="M27.2,61.5c0,0,0.1-0.9-1.3-1.1l-3.2,1.1H27.2z"/>
			<path class="st25" d="M27,74.7c0,0,1.1,0.8,4.1,0c-0.1,0.3-0.1,0.5,0,0.8c0,0-2.9,0.9-4.1,0V74.7z"/>
			<path class="st26" d="M27.1,71.4c0,0,2.1,3.1,4,3.3c-1.6,0.3-2.6,0.6-4.1,0L27.1,71.4z"/>
			<path class="st27" d="M19.4,61.5c0,0,1,3.4,2,4c0.7,0.4,3.4-0.1,3.4-0.1s-3.5-2.4-4.2-3.9C19.4,61.5,19.4,61.5,19.4,61.5z"/>
			<polygon class="st28" points="27.2,61.5 26,65.4 24.8,65.4 26.2,61.5 			"/>
			<path class="st26" d="M21.3,66.3c0,0-1.8,1.3-0.3,3.8c0.9,1.6,2.9,2.2,4.5,1.3c0.4-0.2,0.7-0.5,1-0.8c0,0-3.5,0.6-3.8-4.3H21.3z"
				/>
			<path class="st23" d="M21.3,66.3H26c0,0-0.1-0.2,0-0.9c0-0.1-4.7,0-4.7,0l0.3,0.5L21.3,66.3z"/>
			<path class="st28" d="M27.2,66.5c0,0,2.2-3.4,3.9-0.4c0,1.5,0.1,2.3,0.5,2.7l-0.5,0.4C31.1,69.3,30.8,66.2,27.2,66.5z"/>
			<path class="st23" d="M26.2,65.3l2.1,0.2c0.5-0.6,1.4-0.7,2-0.2c0.1,0.1,0.1,0.1,0.2,0.2l0.1-1.8h-3.9L26.2,65.3z"/>
			<path class="st26" d="M29.5,63.4l-1.1,1.2l-0.8,0.1l-0.4-0.3c-0.1-0.4-0.1-0.8,0.1-1.2"/>
			<polyline class="st29" points="91,98.7 107.4,101.7 107.1,116.1 90.6,113.4 			"/>
			<ellipse class="st30" cx="90.8" cy="106.1" rx="3.4" ry="7.3"/>
			<polyline class="st31" points="91,98.7 91,98.7 107.4,101.7 107.1,116.1 90.6,113.4 90.6,113.4 			"/>
			<ellipse class="st31" cx="90.8" cy="106.1" rx="3.4" ry="7.3"/>
			<path class="st32" d="M133.4,108l-20.3-4.1l-9.3-1.8l0.5-1.3c-0.1-1.7-0.2-3.5-0.2-5.2l-1.1-5.8l-2.9-5.3
				c-0.1-0.2-0.2-0.5-0.3-0.8l-0.5-1.4c-0.9-2.5-2.2-6.3-3.7-11.2l-0.9-2.5l-2.5-6.7c-2.5-8.2-4.3-16.5-5.4-25l6.4,0.2l-0.1,0.3
				c0,0,6.5,10.5,8.7,18.8L105,65l0.6,1.6c0,0,4.2,5.6,6,1.7l15-0.4c0,0-1.2,2.7,0.9,3.4c2.1,0.7,6.1-1.9,7.6,1.4
				c1.9,4.3-1.6,15.2-2.4,23C132.3,99.8,132.5,104,133.4,108z"/>
			<path class="st31" d="M133.4,108.1l-20.3-4.1l-9.3-1.8l0.5-1.3c-0.1-1.7-0.2-3.5-0.2-5.2L103,90c-1-1.7-1.9-3.5-2.9-5.3l-0.3-0.8
				c0,0-0.3-0.8-0.5-1.4c-0.9-2.5-2.2-6.3-3.7-11.2l-1-2.5l-2.5-6.7c-2.5-8.2-4.3-16.5-5.4-25l6.4,0.2L93,37.7
				c0,0,6.4,10.5,8.7,18.8l3.3,8.7l0.6,1.6c0,0,4.2,5.6,6,1.7l15-0.4c0,0-1.2,2.7,0.9,3.4c2.1,0.7,6.1-1.9,7.6,1.4
				c1.9,4.3-1.6,15.2-2.4,23C132.2,99.9,132.5,104.1,133.4,108.1z"/>
			<path class="st32" d="M87.4,39.3c-2.3-1.1-3.9-3.2-4.6-5.6c-5.9-2.9-6.1-4-5.9-4.9s1.3-0.5,1.3-0.5l5,2.4c0,0-4.2-5.3-4.5-7.8
				s1.2-2,2.8,0.2s3.2,4.3,3.2,4.3s0.7,0.1,0.4-0.9S82.8,19,82.8,19c-0.3-0.7,0-1.4,0.6-1.8c1.1-0.5,2.3,1.2,5.1,8.5
				c0,0,0.5-0.7,0.2-5.3c0,0-0.1-3.5,1.7-4.1c0,0,1.3,0.3,1.6,9c0,0,0.4,4.2,1.5,5.3c0,0,0.1,0.4,1.3-1s2.9-2.4,4.5-1
				c0,0,0.9,0.5-0.7,1.5s-2.1,2.1-2.9,4.1c-0.5,1.4-1.3,2.7-2.4,3.8"/>
			<path class="st31" d="M87.4,39.3c-2.3-1.1-3.9-3.2-4.6-5.6c-5.9-2.9-6.1-4-5.9-4.9s1.3-0.5,1.3-0.5l5,2.4c0,0-4.2-5.3-4.5-7.8
				s1.2-2,2.8,0.2s3.2,4.3,3.2,4.3s0.7,0.1,0.4-0.9S82.8,19,82.8,19c-0.3-0.7,0-1.4,0.6-1.8c1.1-0.5,2.3,1.2,5.1,8.5
				c0,0,0.5-0.7,0.2-5.3c0,0-0.1-3.5,1.7-4.1c0,0,1.3,0.3,1.6,9c0,0,0.4,4.2,1.5,5.3c0,0,0.1,0.4,1.3-1s2.9-2.4,4.5-1
				c0,0,0.9,0.5-0.7,1.5s-2.1,2.1-2.9,4.1c-0.5,1.4-1.3,2.7-2.4,3.8"/>
			<path class="st32" d="M91.4,25.2c0,0-7.9,0.9-8.5,6.4"/>
			<path class="st31" d="M91.4,25.2c0,0-7.9,0.9-8.5,6.4"/>
			<path class="st32" d="M93.8,30.6c0,0-3.1,0.8-4.1,3.4"/>
			<path class="st31" d="M93.8,30.6c0,0-3.1,0.8-4.1,3.4"/>
			<g class="st33">
				<ellipse cx="116.8" cy="132.4" rx="32" ry="4.1"/>
			</g>
			<path class="st34" d="M100.8,117.4L100.8,117.4c2.4,0,4.4,1.9,4.4,4.3v4.7c0,2.4-1.9,4.3-4.3,4.3h0c-2.4,0-4.3-1.9-4.3-4.3v-4.7
				C96.4,119.3,98.4,117.4,100.8,117.4z"/>
			<path class="st35" d="M100.8,117.4L100.8,117.4c2.4,0,4.4,1.9,4.4,4.3v4.7c0,2.4-1.9,4.3-4.3,4.3h0c-2.4,0-4.3-1.9-4.3-4.3v-4.7
				C96.4,119.3,98.4,117.4,100.8,117.4z"/>
			<path class="st36" d="M95.5,122.8L95.5,122.8c2.4,0,4.4,1.9,4.4,4.3v2.9c0,2.4-1.9,4.3-4.3,4.3h0c-2.4,0-4.3-1.9-4.3-4.3v-2.9
				C91.2,124.8,93.1,122.8,95.5,122.8z"/>
			<path class="st35" d="M95.5,122.8L95.5,122.8c2.4,0,4.4,1.9,4.4,4.3v2.9c0,2.4-1.9,4.3-4.3,4.3h0c-2.4,0-4.3-1.9-4.3-4.3v-2.9
				C91.2,124.8,93.1,122.8,95.5,122.8z"/>
			<path class="st34" d="M140.4,117.4L140.4,117.4c2.4,0,4.4,1.9,4.4,4.3v4.7c0,2.4-1.9,4.3-4.3,4.3h0c-2.4,0-4.3-1.9-4.3-4.3v-4.7
				C136.1,119.3,138,117.4,140.4,117.4z"/>
			<path class="st35" d="M140.4,117.4L140.4,117.4c2.4,0,4.4,1.9,4.4,4.3v4.7c0,2.4-1.9,4.3-4.3,4.3h0c-2.4,0-4.3-1.9-4.3-4.3v-4.7
				C136.1,119.3,138,117.4,140.4,117.4z"/>
			<path class="st36" d="M135.6,122.8L135.6,122.8c2.4,0,4.4,1.9,4.4,4.3v2.9c0,2.4-1.9,4.3-4.3,4.3h0c-2.4,0-4.3-1.9-4.3-4.3v-2.9
				C131.2,124.8,133.2,122.8,135.6,122.8z"/>
			<path class="st35" d="M135.6,122.8L135.6,122.8c2.4,0,4.4,1.9,4.4,4.3v2.9c0,2.4-1.9,4.3-4.3,4.3h0c-2.4,0-4.3-1.9-4.3-4.3v-2.9
				C131.2,124.8,133.2,122.8,135.6,122.8z"/>
			<path class="st36" d="M148.8,121.6c0,2.3-14.3,4.1-32,4.1s-32-1.8-32-4.1v-2.9c0-2.3,14.3-4.1,32-4.1c17.4,0,31.6,1.8,32,4v2.8
				C148.8,121.5,148.8,121.6,148.8,121.6z"/>
			<ellipse class="st37" cx="116.8" cy="118.7" rx="32" ry="4.1"/>
			<path class="st35" d="M148.8,121.6c0,2.3-14.3,4.1-32,4.1s-32-1.8-32-4.1v-2.9c0-2.3,14.3-4.1,32-4.1c17.4,0,31.6,1.8,32,4v2.8
				C148.8,121.5,148.8,121.6,148.8,121.6z"/>
			<ellipse class="st35" cx="116.8" cy="118.7" rx="32" ry="4.1"/>
			
				<ellipse transform="matrix(2.443220e-02 -0.9997 0.9997 2.443220e-02 -8.9276 228.5869)" class="st15" cx="112.7" cy="118.9" rx="3.1" ry="22.7"/>
			<path class="st32" d="M102.6,108.1l-0.7,2.3c-0.8,2.8-3.8,4.5-6.6,3.6c0,0,0,0,0,0l-6-1.8c0,2.9-2.1,11-2.4,12.6
				c-0.5,1.4-0.3,2.9,0.6,4.1c1,2,0.6,3.5-1,3.8s-3.3,0.3-3.9,2c-0.8,1.6-2.7,2.4-4.4,1.9c-1.3,1.9-4.5,1.6-4-0.1
				c-0.9,0.6-2.3,0.2-1.7-0.7c-1.4,0.4-1.3-0.6-0.9-1.1c-1.6-0.1-1.4-1-0.7-1.5c-0.8-0.4,1.3-1.9,3.2-1.6c0.8-0.3,5.4-2.8,5.9-5.4
				c0.5-2.4-0.3-10.3-0.8-17.4c0-0.5-0.1-1-0.1-1.5c-0.5-1.2-0.8-2.6-0.8-3.9c0-1.8,0.5-3.5,1.3-5l0.2-0.1c1.4-1.1,3.2-1.5,4.9-1
				l4.8,1.4l0.4,0.1l9.4,2.7C101.8,102.3,103.4,105.3,102.6,108.1z"/>
			<path class="st38" d="M87.3,128.4c0.6,0.5,1.1,1.2,1.1,2c0.1,0.6-0.1,1.2-0.5,1.6c-0.3,0.3-0.6,0.2-1.6,0.6c0,0-0.3,0.2-1,0.5
				c-1.7,0.8-3.2,2.9-5.4,3.4c-0.7,0.1-1.3,0.1-2,0c-0.2,0.3-0.4,0.6-0.7,0.8c-1.1,0.8-2.9,0.6-3.3-0.1c-0.1-0.2-0.1-0.5,0-0.7
				c-0.9,0.6-2.3,0.2-1.7-0.7c-1.4,0.5-1.3-0.6-0.9-1.1c-1.6-0.1-1.4-1-0.7-1.5c-0.4-0.2-0.1-0.7,0.6-1c-0.3,0.3,0.5,0.5,0.8,0.5
				c-0.6,0.1-1.2,0.9,0.2,1.3c-0.2,0.3-0.1,0.6,0.1,0.8c0,0,0,0,0,0c0.4,0.2,0.8,0.2,1.1,0c-0.4,0.2-0.5,0.7-0.2,0.9
				c0.4,0.4,1.1,0.3,1.8,0c-0.6,0.4-0.4,0.8-0.2,1c0.5,0.3,1.2,0.2,1.6-0.1c0.6-0.6,0.8-0.5,1.4-1.2c1.1-0.2,2.7-0.2,2.9-1.2
				c0.7-2.2,3.2-2.1,4.6-3.4c0.8-0.5,0.2-2.3-0.1-3.2c-0.4-1.4-0.4-2.9,0.1-4.4c1.9-4.7,1.7-8.5,0.4-14.1c0.9-0.5,1.7-1.1,2.3-1.8
				c0,0.1,0,0.2,0,0.3c0.1,1,0.5,1.9,1,4s-2,11.5-2.3,13.2c-0.1,0.4-0.2,0.8-0.3,1.2C86.6,126.9,86.9,127.7,87.3,128.4z"/>
			<path class="st38" d="M96.7,114.2c-0.5,0-1-0.1-1.5-0.2l-6-1.8c0,0.5,0,1-0.1,1.6l-0.9-0.5v-6.1c0,0,3.3,3.6,6.8,4.9
				C96.8,112.8,97,113.6,96.7,114.2z"/>
			<path class="st31" d="M99,101.5l-9.3-2.8l-0.5-0.1l-4.8-1.4c-1.7-0.5-3.6-0.1-4.9,1l-0.2,0.1c-1.6,2.7-1.8,6-0.6,8.9
				c0,0.5,0.1,1,0.1,1.5c0.5,7.1,1.3,15.1,0.8,17.5c-0.5,2.6-5.1,5.1-5.9,5.4c-0.9-0.1-1.8,0.1-2.6,0.6l0,0
				c-0.3,0.1-0.5,0.3-0.7,0.6c0,0,0,0.1,0,0.1c0,0.1,0,0.2,0.1,0.3h0.1l0,0c0,0-0.1,0.1-0.1,0.1c0,0-0.1,0.1-0.1,0.1
				c-0.3,0.3-0.4,0.7-0.1,1c0.1,0.1,0.2,0.1,0.3,0.2c0.2,0.1,0.5,0.2,0.8,0.2c-0.3,0.3-0.4,0.9,0,1.1c0.1,0,0.1,0.1,0.2,0.1
				c0.2,0,0.5,0,0.7-0.1c-0.2,0.3-0.2,0.6,0,0.7l0.1,0.1c0.5,0.2,1.1,0.2,1.6-0.1c0,0.1,0,0.1,0,0.2c0,0.1,0,0.2,0,0.3
				c0,0,0,0.1,0,0.1c0,0,0,0.1,0,0.1l0,0c0.3,0.7,1.9,0.8,3.1,0.2l0.1-0.1l0.2-0.2l0.2-0.2l0.2-0.2c0.1-0.1,0.1-0.2,0.2-0.2l0,0h0.2
				c0.2,0,0.3,0.1,0.5,0.1c0.4,0,0.7,0,1.1,0H80h0h0.1h0.1c0.1,0,0.2,0,0.3-0.1c2-0.6,3.4-2.5,5-3.3l1-0.5c0.2-0.1,0.5-0.2,0.7-0.3
				c0.3,0,0.6-0.2,0.9-0.4c0.4-0.4,0.5-1,0.5-1.6c-0.1-0.8-0.5-1.5-1.1-2c-0.4-0.6-0.6-1.2-0.7-1.9c0,0.3,0,0.5,0.1,0.8
				c-0.1-0.2-0.1-0.5-0.1-0.8c0-0.1,0-0.1,0-0.2V126c0-0.1,0-0.1,0-0.2c0-0.1,0-0.2,0-0.3c0.1-0.2,0.1-0.5,0.2-0.7
				c0-0.2,0.1-0.5,0.2-0.9s0.1-0.6,0.2-1l0,0l0.1-0.4c0.1-0.4,0.2-0.8,0.3-1.2s0.2-0.9,0.3-1.4c0.2-0.8,0.3-1.6,0.5-2.4
				c0-0.2,0.1-0.3,0.1-0.5l0.2-1c0.3-1.3,0.4-2.6,0.5-3.9l0,0l6,1.8c0.3,0.1,0.5,0.1,0.8,0.2c0.2,0,0.5,0,0.7,0
				c2.4,0,4.5-1.6,5.2-3.8l0.7-2.2C103.4,105.2,101.8,102.3,99,101.5z"/>
			<path class="st39" d="M89.1,112.3c0.3-2.9-0.2-5.9-1.6-8.5c1.4,2.6,2,5.6,1.8,8.5L89.1,112.3z"/>
			<path class="st39" d="M74,136.4c0.6-0.6,1.3-1.1,2.1-1.4c-0.8,0.3-1.5,0.8-2,1.5L74,136.4z"/>
			<path class="st39" d="M72.3,135.7c0.4-0.4,0.8-0.7,1.3-0.9c0.5-0.3,1-0.4,1.5-0.4c-1,0.2-1.9,0.8-2.6,1.6L72.3,135.7z"/>
			<path class="st39" d="M71.3,134.6c0.7-0.6,1.6-1,2.6-1c-0.9,0.1-1.8,0.5-2.4,1.2L71.3,134.6z"/>
			<path class="st39" d="M70.6,133.1c0.4-0.2,0.8-0.4,1.3-0.5c0.4-0.1,0.9-0.1,1.3,0c-0.9-0.1-1.7,0.1-2.4,0.6L70.6,133.1z"/>
			<path class="st40" d="M104.7,43.6c-1.3,3.3,0,11.6-0.3,15.1s3.7,12.1,13.7,11.7s16.2-5.9,18-14s2.2-17.6-2.9-20.7
				s-17.9-4.4-22.7-0.3C107.7,37.4,105.7,40.3,104.7,43.6z"/>
			<path class="st38" d="M133.2,35.7c-5.1-3.1-17.9-4.4-22.7-0.3c-2.7,2.1-4.7,5-5.7,8.2c-0.3,1.1-0.5,2.2-0.6,3.3
				c0.5,0.8,1.1,1.7,2,1c2.7-1.9,2.8-5.3,4.8-7.8c-0.4,2.5-1.4,5.7,0.7,7.6c0-2.5,1.4-4.6,2.5-6.9c-0.7,2.6-0.1,5.3,1.6,7.4
				c0.7-3.3,2.3-6.3,4.6-8.7c-0.7,2-0.6,4.2,0.5,6c0.9-2.8,1.6-5.5,4.1-7.6c-0.5,2.7-0.7,5.3-1.2,8c3-2,6-4.4,6.9-8
				c1.8,5,1.4,10.4,0.9,15.6c0.9-0.3,1.2-1.2,1.9-1.9c2.3,8.1-4.3,15.3-11.9,16.9c-7.3,1.6-14.5-0.1-17.1-9.2
				c0.9,6.7,6.9,11.6,13.7,11c10-0.5,16.2-5.9,18-14S138.3,38.8,133.2,35.7z"/>
			<path class="st39" d="M123.6,61.2L123.6,61.2c-1.5,0.1-2.9-0.6-3.8-1.8l0,0c0.2,0.5,0.5,1,1,1.3c-6.1,3-10,0.2-10,0.2l0,0
				c1.3,1,2.9,1.5,4.5,1.4c2,0,3.9-0.6,5.6-1.5C121.8,61.2,122.7,61.3,123.6,61.2L123.6,61.2z"/>
			<path class="st39" d="M112.4,59.5c-0.8,0-1.5-0.4-1.9-1.1c-0.5-0.7-0.4-1.6,0.1-2.3c0.7-0.6,1.3-0.2,1.9,0.1
				c0.3,0.2,0.7,0.4,1.1,0.5l0,0c-0.4,0.1-0.9,0-1.3-0.2c-0.6-0.3-1.1-0.7-1.6-0.2c-0.4,0.6-0.4,1.4,0,2c0.6,0.9,1.8,1.3,2.8,0.8
				l0,0C113.2,59.4,112.8,59.5,112.4,59.5z"/>
			<path class="st39" d="M116,65.4c-0.6,0.1-1.3-0.2-1.8-0.6l0,0c1.3,0.6,2.7,0.6,4,0l0,0C117.6,65.1,116.8,65.4,116,65.4z"/>
			<path class="st41" d="M104.1,51.6c0,0-5.4-6.1-3.4-16.6s14.7-16.4,23.1-14.3s18.9,12.4,19.2,20.4c0.2,5.8-2.6,11.4-7.5,14.5
				c-0.1-3-1.2-4.8-0.6-8c-1.2,3.2-2.2,3.6-2.2,3.6s1.8-8.7-2-14.5c-1.7,3.1-3.8,5.9-6.2,8.3c1-2.7,1.3-5.6,0.9-8.5
				c0,0-4,4.1-4.6,7.3c-1.1-1.5,1.8-7.9,1.8-7.9s-6.2,5.4-7.1,11c-1.8-3.9,0.1-9,0.1-9s-4.2,4.9-4.4,8.1c-1.1-2.6,0.8-8.4,0.8-8.4
				c-3.8,4.9-5.4,9.5-6.1,9.9s-1.7-1.2-1.7-1.2C104.1,48.1,104,49.8,104.1,51.6z"/>
			<path class="st42" d="M143,41.1c-0.1-2-0.7-3.9-1.6-5.6c1.2,3.6,1.4,7.5-0.8,10.8c0.3-1,0.3-2.1,0.1-3.1
				c-0.3,2.5-2.3,4.2-4.2,5.8c0.9-3.2,0.9-6.6,0-9.8c0,1.7-1.3,3.4-1.8,5c1.1-4.1-1.9-7.4-3.4-10.8c-0.1-0.2-0.1-0.3-0.1-0.5
				c-0.3,2.5-2.6,4.1-4.4,5.8c1.2-1.8,1.1-4.1,1.1-6.2c-0.9,0.9-2.1,1.1-3,1.9c0.4-0.9,1-1.6,1.8-2.1c-2.9,0.7-5.5,2-7.8,3.9
				c1-1.9,2.3-3.6,4-5c-3.4,0.7-5.3,2.5-7.9,5c0.6-1.3,1.4-2.5,2.3-3.5c-4.4,1.6-9.4,4.6-11,9.4c-0.1-2.3,0.1-4.6,0.3-6.9
				c-2.3,3.1-3.8,6.7-4.4,10.4c-1.3-3.5-1.8-7.3-1.4-11.1l-0.1,0.4c-2,10.6,3.4,16.6,3.4,16.6c-0.1-1.7,0-3.5,0.1-5.2
				c0,0,1,1.6,1.7,1.2s2.3-5,6.1-9.9c0,0-1.9,5.8-0.8,8.4c0.2-3.2,4.4-8.1,4.4-8.1s-1.9,5.1-0.1,9c0.9-5.6,7.1-11,7.1-11
				s-2.9,6.4-1.8,7.9c0.6-3.2,4.6-7.3,4.6-7.3c0.4,2.9,0.1,5.8-0.9,8.5c2.5-2.5,4.6-5.3,6.3-8.4c3.8,5.8,2,14.5,2,14.5
				s1-0.3,2.2-3.6c-0.5,3.3,0.6,5.1,0.6,8C140.3,52.4,143.2,46.9,143,41.1z"/>
			<path d="M135.4,55.8v-0.2c0-1.1-0.2-2.1-0.4-3.2c-0.3-1.3-0.4-2.7-0.4-4c-1,2.4-1.9,2.7-1.9,2.8l-0.2,0.1v-0.2
				c0-0.1,1.7-8.5-1.8-14.2c-1.7,3-3.8,5.8-6.2,8.2l-0.4,0.4l0.2-0.5c0.9-2.6,1.2-5.4,0.9-8.2c-0.8,0.8-3.9,4.3-4.4,7.1v0.3
				l-0.2-0.2c-0.9-1.3,0.9-5.9,1.6-7.5c-1.4,1.3-5.9,5.9-6.7,10.5l-0.1,0.4l-0.2-0.4c-1-2.7-1-5.7-0.1-8.5c-1,1.3-3.8,5-4,7.6v0.5
				l-0.2-0.5c-0.9-2.1,0.2-6.2,0.6-7.8c-1.7,2.3-3.1,4.7-4.4,7.3c-0.7,1.4-1.1,2-1.3,2.2c-0.1,0-0.2,0.1-0.3,0.1
				c-0.5,0-1.1-0.7-1.4-1c-0.1,1.6-0.1,3.3,0,4.9V52l-0.2-0.3c-0.1-0.1-5.4-6.2-3.4-16.7c1.8-9.1,11.5-14.8,19.5-14.8
				c1.3,0,2.5,0.1,3.7,0.4c4.9,1.5,9.2,4.3,12.7,8c4,4.2,6.4,8.7,6.6,12.5c0.2,5.9-2.6,11.4-7.6,14.6L135.4,55.8z M134.7,47.5
				l0.2,0.1c-0.2,1.6-0.2,3.2,0.2,4.8c0.2,1,0.4,2,0.4,3c4.8-3.2,7.5-8.6,7.3-14.3c-0.1-3.7-2.5-8.2-6.5-12.3
				c-3.4-3.7-7.8-6.5-12.6-8c-1.2-0.3-2.4-0.4-3.7-0.4c-7.9,0-17.6,5.6-19.3,14.6c-1.3,5.6-0.1,11.5,3.2,16.3
				c-0.1-1.7,0.1-4.8,0.1-4.9V46l0.2,0.3c0.2,0.3,0.9,1.2,1.4,1.2c0,0,0.1,0,0.2,0c0.5-0.6,0.9-1.3,1.2-2c1.4-2.7,3-5.4,4.8-7.8
				l0.4-0.5l-0.2,0.7c0,0.1-1.6,5.1-1,7.8c0.5-3.2,4.2-7.4,4.3-7.6l0.4-0.5l-0.2,0.6c0,0-1.7,4.8-0.2,8.6c1.1-5.5,7-10.6,7.1-10.7
				l0.4-0.4l-0.2,0.5c0,0.1-2.6,5.7-2,7.5c0.8-3.2,4.4-6.9,4.6-7.1l0.2-0.2v0.2c0.4,2.7,0.1,5.5-0.7,8c2.3-2.4,4.3-5.1,5.9-8
				l0.1-0.2l0.1,0.2c3.4,5.2,2.3,12.8,2,14.3C133.7,50,134.3,48.8,134.7,47.5L134.7,47.5z"/>
			<path class="st32" d="M139.3,49.3c-2.7-0.7-4.1,3.2-4.3,5.2l0.5,3.6c1.4,0.3,2.8-0.2,3.9-1.2C141,55.3,142,50,139.3,49.3z"/>
			<path class="st43" d="M136.3,58.2c-0.3,0-0.6-0.1-0.9-0.2l0,0c1.4,0.2,2.8-0.3,3.8-1.3c1.3-1.7,1.9-3.8,1.5-5.9
				c-0.1-0.7-0.7-1.3-1.4-1.5c-0.7-0.2-1.4,0-1.9,0.4c-1.3,1.2-2.2,2.9-2.4,4.7l0,0c0-1.2,0.3-2.3,0.9-3.3c0.3-0.6,0.8-1.1,1.3-1.5
				c0.6-0.4,1.4-0.6,2.1-0.4c0.8,0.2,1.4,0.8,1.6,1.7c0.4,2.2-0.2,4.4-1.6,6.1C138.6,57.8,137.5,58.3,136.3,58.2z"/>
			<path class="st39" d="M137.9,55.2c-1-0.3-1.3-1.3-1-2.3s0.9-1.8,1.7-1.5l0,0c-0.7-0.2-1.3,0.7-1.5,1.5S137.1,54.9,137.9,55.2
				L137.9,55.2z"/>
			<ellipse class="st44" cx="121.7" cy="51.8" rx="3.3" ry="4"/>
			<ellipse class="st45" cx="121.7" cy="51.7" rx="3.3" ry="4"/>
			<ellipse class="st46" cx="121.3" cy="53.2" rx="1.8" ry="2.1"/>
			<ellipse transform="matrix(0.4647 -0.8855 0.8855 0.4647 19.5209 136.2184)" class="st44" cx="122.4" cy="52" rx="1" ry="0.8"/>
			<ellipse class="st44" cx="107.9" cy="51.9" rx="3.1" ry="3.8"/>
			<ellipse class="st45" cx="107.9" cy="51.8" rx="3.1" ry="3.8"/>
			<ellipse class="st46" cx="107.4" cy="53.1" rx="1.7" ry="2"/>
			
				<ellipse transform="matrix(0.4647 -0.8855 0.8855 0.4647 12.3349 123.7817)" class="st44" cx="108.5" cy="51.7" rx="0.9" ry="0.7"/>
			<path class="st46" d="M119.5,46.4c0-0.1,0.1-0.3,0.2-0.3c2.1-1.1,4.6-0.8,6.5,0.7c0.1,0.1,0.1,0.2,0,0.2c-0.1,0.1-0.2,0.1-0.2,0
				l0,0c-2-0.9-4.2-1-6.3-0.5C119.6,46.6,119.5,46.5,119.5,46.4C119.5,46.4,119.5,46.4,119.5,46.4L119.5,46.4z"/>
			<path class="st46" d="M110,47.1c0-0.1-0.1-0.3-0.2-0.3c-0.9-0.5-1.8-0.7-2.8-0.7c-1,0.1-2,0.6-2.8,1.3c-0.1,0.1,0,0.4,0.2,0.3
				c0.8-0.4,1.7-0.7,2.6-0.8c1-0.1,2,0,2.9,0.3C109.9,47.3,110,47.2,110,47.1C110,47.1,110,47.1,110,47.1z"/>
			<path class="st12" d="M108.5,87.5c2.5,0.7,6.6-2.4,2.8-3.9c0.5-0.9,0.4-2.1-0.4-2.8c1,0,1.8-0.7,1.8-1.7c0-0.6-0.2-1.1-0.7-1.5
				c9-1.8,2.2-9-2.9-7.8c-0.1-1.1-1.1-1.9-2.2-1.8c-0.5,0-1,0.3-1.3,0.7c-0.7-2.2-3.6-2.6-4.1,0.7c-3-1.9-5.9,1.6-3.4,5.2
				c-3.5,0.6-4.9,2.3-3,4.3c-3.7,2.8,0.1,5.7,4.4,5.7C102.8,84.7,105.8,85.7,108.5,87.5z"/>
			<path class="st13" d="M111.3,83.6c0.5-0.9,0.4-2.1-0.4-2.8c1,0,1.8-0.7,1.8-1.7c0-0.6-0.2-1.1-0.7-1.5c4.7-1,5.1-3.4,3.7-5.3
				c0,0.2,0,0.4,0,0.6c-0.3,3.2-4,2.1-5.6,3.7c-0.2,0.3,1.1,1.3,0.6,2.1c-0.1,0.2-0.7,0.1-1.2-0.1c0.2,1.5,1.6,3.2,0.4,4.6
				c-0.3,0.3-0.7,0.1-1.1,0.2c-0.8-0.1-1.4-1.6-1.8-1.3c-3.2,2.2-7.3,2.2-10.5-0.1c-1.3-1,0-2.5,1-3.3c-1,0.2-1.9-0.4-2.2-1.3
				c0-0.8,0.3-1.5,0.7-2.1c-1.9,0.8-2.4,2.2-0.9,3.7c-3.7,2.8,0.1,5.7,4.4,5.7c3.1,0.2,6.2,1.3,8.8,3
				C110.9,88.1,115.1,85,111.3,83.6z"/>
			<path class="st16" d="M96.1,83.9L96.1,83.9c-1.2-0.4-2.1-1.3-2.5-2.6c0-1,0.5-2,1.4-2.6c-0.6-0.5-0.9-1.4-0.8-2.2
				c0.3-1,1.6-1.8,3.7-2.1c-1.1-1.4-1.1-3.3-0.1-4.7c0.9-1.1,2.5-1.3,3.7-0.6c0.1-0.9,0.6-1.6,1.3-2.1c0.5-0.3,1.1-0.3,1.6-0.1
				c0.6,0.3,1.1,0.8,1.3,1.4c0.7-0.6,1.6-0.7,2.4-0.4c0.6,0.3,1.1,0.9,1.1,1.6c1.3-0.2,2.6-0.1,3.8,0.5c2.2,1,3.7,2.8,3.6,4.4
				c-0.1,1.1-0.9,2.4-4.3,3.2c0.5,0.6,0.7,1.4,0.4,2.1c-0.3,0.6-0.9,1.1-1.6,1.1c0.6,0.7,0.7,1.8,0.3,2.6l0,0c1.6,0.7,1.5,1.6,1.3,2
				c-0.9,1.6-2.7,2.4-4.4,2l0,0c-1-0.6-2.1-1.2-3.2-1.7c-1.8-0.8-3.6-1.3-5.6-1.3C98.4,84.6,97.2,84.3,96.1,83.9z M101.1,69.2
				c-1-0.5-2.3-0.2-3,0.7c-1,1.4-0.9,3.3,0.2,4.6l0.1,0.2h-0.2c-2,0.3-3.4,1.1-3.7,2c-0.1,0.8,0.2,1.5,0.8,2l0.1,0.1l-0.1,0.1
				c-0.9,0.5-1.4,1.4-1.4,2.4c0.3,1.1,1.2,2,2.3,2.3l0,0c1.1,0.4,2.3,0.7,3.5,0.7c2,0.1,3.9,0.5,5.7,1.3c1.1,0.5,2.2,1,3.2,1.7
				c1.6,0.3,3.3-0.4,4.1-1.9c0.3-0.7-0.2-1.3-1.3-1.8h-0.1l0.1-0.1c0.5-0.9,0.3-1.9-0.3-2.7l-0.2-0.2h0.3c0.7,0,1.3-0.4,1.6-1
				c0.2-0.7,0-1.5-0.5-2l-0.2-0.2h0.3c2.6-0.5,4.2-1.6,4.3-3s-1.3-3.2-3.4-4.2c-1.2-0.5-2.5-0.7-3.7-0.4h-0.2v-0.2
				c0-0.7-0.4-1.3-1-1.6c-0.8-0.3-1.7-0.1-2.3,0.5l-0.2,0.2l-0.1-0.2c-0.2-0.7-0.6-1.2-1.3-1.5c-0.5-0.2-1-0.2-1.4,0.1
				c-0.7,0.5-1.1,1.3-1.2,2.1v0.2l-0.2-0.1C101.4,69.3,101.2,69.3,101.1,69.2L101.1,69.2z"/>
			
				<linearGradient id="SVGID_10_" gradientUnits="userSpaceOnUse" x1="885.7955" y1="2154.6604" x2="894.4612" y2="2154.6604" gradientTransform="matrix(0.92 0.39 -0.39 0.92 127.71 -2253.54)">
				<stop  offset="0" style="stop-color:#FC9E9F"/>
				<stop  offset="0.78" style="stop-color:#FE909B"/>
				<stop  offset="1" style="stop-color:#FF8B9A"/>
			</linearGradient>
			<path class="st47" d="M99.1,74.3c0,0,5-4,5.6-3.7s3.5,3.9,3.3,4.9s-4.8,3.8-4.8,3.8C101.1,78.3,99.5,76.5,99.1,74.3z"/>
			
				<linearGradient id="SVGID_11_" gradientUnits="userSpaceOnUse" x1="889.4355" y1="2155.4321" x2="894.4572" y2="2155.4321" gradientTransform="matrix(0.92 0.39 -0.39 0.92 127.71 -2253.54)">
				<stop  offset="0" style="stop-color:#FC9E9F"/>
				<stop  offset="0.78" style="stop-color:#FE909B"/>
				<stop  offset="1" style="stop-color:#FF8B9A"/>
			</linearGradient>
			<path class="st48" d="M107.9,75.4c-0.1-0.8-0.5-1.6-1-2.3c-0.1,2.3-3.2,4-5.6,4.9c0.5,0.5,1.2,0.8,1.8,1.1
				C103.2,79.2,107.8,76.4,107.9,75.4z"/>
			<path class="st49" d="M103,79.3c-2.1-0.9-3.6-2.8-4.1-5v-0.1H99c1.2-1,5.1-4,5.7-3.7s3.6,4,3.4,5s-4.4,3.6-4.8,3.9h-0.1h-0.1
				L103,79.3z M99.2,74.3c0.5,2.1,2,3.9,4,4.8c1.3-0.8,4.5-2.9,4.7-3.7c0.2-0.9-2.7-4.5-3.2-4.8C102.7,71.6,100.8,72.8,99.2,74.3
				L99.2,74.3z"/>
			<path class="st32" d="M124.8,94.2l-4.3-6.5c-0.9-0.2-1.7-0.4-2.5-0.8c-1.1-0.4-2.1-1-3-1.7c-2.8-2-5.3-3.8-6.5-4.7
				c0.3-1.7-0.3-3.5-1.4-4.7l-1.5,1.3c-0.7,0-4.5-2.3-5-3.6s-1.4-0.8-1.1,0.2c-0.4-0.2-1.1,0.3-1,1.3c-0.4-0.2-0.8,0.2-0.9,1.1l0,0
				c0,0.1,0,0.2,0,0.4c-2.2,1.5,0.8,5.8,1.6,6.5c2.3,1.2,4.8,2.1,7.4,2.6c9.6,11.6,17.3,12.9,20,11.3L124.8,94.2z"/>
			<path class="st38" d="M124.8,94.2c-0.5,0.2-1,0.3-1.5,0.4c-6.5,0.3-10.3-6.5-15.6-9.7c-7.1-2.7-9.3-4.2-10.1-8.7
				c0,0.1,0,0.2,0,0.4c-2.2,1.5,0.8,5.8,1.6,6.5c2.3,1.2,4.8,2.1,7.4,2.6c9.6,11.6,17.3,12.9,20,11.3L124.8,94.2z"/>
			<path class="st39" d="M100.2,81.2c-1.5-1.1-2.5-2.8-2.7-4.7l0.3-0.1C98,78.3,98.9,79.9,100.2,81.2z"/>
			<path class="st39" d="M101.4,80c-0.1-0.1-2.8-3.1-3-5h0.3C99.3,76.8,100.2,78.5,101.4,80L101.4,80z"/>
			<path class="st39" d="M102,78.1c-1.2-1.2-2.2-2.7-2.7-4.3l0.3-0.1C100.1,75.3,100.9,76.8,102,78.1z"/>
			<path class="st32" d="M126.5,96.9l9.2-15.8c0,0,2-9.8-3.4-10.2l-11.8,16.8L126.5,96.9z"/>
			<path class="st38" d="M136.2,77v0.6c0,0.1,0,0.2,0,0.3v0c0,0.3,0,0.6-0.1,0.8c0,0,0,0,0,0.1s0,0.2,0,0.3s0,0,0,0.1s0,0.2,0,0.3
				l0,0c0,0.4-0.1,0.8-0.1,1.1l0,0c0,0-0.1,0.3-0.1,0.4l-9.2,15.8l-1.8-2.7l9.1-14.7c0,0,1.1-5.3-0.5-8.2l0.1,0.1
				c0.2,0.1,0.3,0.1,0.5,0.2l0,0h0.1l0.2,0.2l0.1,0.1l0.2,0.2l0.1,0.1l0.2,0.2l0.1,0.1l0.2,0.3l0,0c0.1,0.2,0.3,0.5,0.4,0.8
				c0,0,0,0,0,0.1c0,0.1,0.1,0.2,0.1,0.3v0.1c0,0.1,0.1,0.2,0.1,0.3c0,0.1,0,0.1,0,0.2l0.1,0.3c0,0.1,0,0.1,0,0.2c0,0.1,0,0.2,0,0.3
				c0,0.1,0,0.1,0,0.2c0,0.1,0,0.2,0,0.3c0,0.1,0,0.1,0,0.2v0.3c0,0.1,0,0.1,0,0.2c0,0.1,0,0.2,0,0.3s0,0.1,0,0.2L136.2,77z"/>
			<path class="st31" d="M132.4,70.9L132.4,70.9c0.4,0,0.8,0.1,1.2,0.3h0.1l0.1,0.1l0.2,0.1l0,0l0,0h0.1l0.2,0.2l0.1,0.1l0.2,0.2
				l0.1,0.1l0.2,0.2l0.1,0.1l0.2,0.3l0,0c0.1,0.2,0.3,0.5,0.4,0.8c0,0,0,0,0,0.1c0,0.1,0.1,0.2,0.1,0.3v0.1c0,0.1,0.1,0.2,0.1,0.3
				c0,0.1,0,0.1,0,0.2l0.1,0.3c0,0.1,0,0.1,0,0.2c0,0.1,0,0.2,0,0.3c0,0.1,0,0.1,0,0.2c0,0.1,0,0.2,0,0.3c0,0.1,0,0.1,0,0.2v0.3
				c0,0.1,0,0.1,0,0.2c0,0.1,0,0.2,0,0.3s0,0.1,0,0.2v0.9c0,0.1,0,0.2,0,0.3V78c0,0.3,0,0.6-0.1,0.8c0,0,0,0,0,0.1s0,0.2,0,0.3
				s0,0,0,0.1s0,0.2,0,0.3l0,0c0,0.4-0.1,0.8-0.1,1.1l0,0c0,0.2-0.1,0.4-0.1,0.4l0,0l-9.2,15.8l0,0c-0.8,0.4-1.6,0.6-2.5,0.6
				c-0.3,0-0.6,0-0.9,0l-0.5-0.1c-0.4-0.1-0.7-0.1-1.1-0.2c-0.6-0.2-1.2-0.4-1.8-0.6c-0.4-0.2-0.8-0.4-1.3-0.6
				c-3.3-1.7-7.4-4.9-11.9-10.3c-0.6-0.1-1.3-0.3-1.9-0.4c-1.8-0.5-3.5-1.3-5.2-2.2c-0.2-0.2-0.4-0.5-0.6-0.7
				c-0.8-1.2-2-3.3-1.7-4.7c0.1-0.4,0.3-0.8,0.6-1c0,0,0,0,0-0.1h0.1c0-0.1,0-0.2,0-0.3l0,0c0.1-0.9,0.5-1.3,0.9-1.1
				c-0.1-1,0.5-1.5,1-1.3c-0.3-1,0.7-1.5,1.1-0.2s4.2,3.6,5,3.6l1.5-1.3c1.2,1.3,1.7,3,1.4,4.7c1.2,0.9,3.7,2.7,6.5,4.7
				c1.6,1.2,3.4,2,5.4,2.4h0.1l7.7-10.9"/>
			<path class="st39" d="M120.7,87.7c-0.5,0.7-0.7,1.5-0.8,2.4c-0.1,0.4-0.1,0.8,0,1.3c0.1,0.4,0.2,0.8,0.4,1.2
				c-0.2-0.4-0.4-0.8-0.5-1.2c-0.1-0.4-0.1-0.9-0.1-1.3c0.1-0.9,0.3-1.7,0.8-2.5L120.7,87.7z"/>
			<path class="st50" d="M96.8,49c-0.5,1.8-0.4,3.1,0.2,3.4c0.3,0.1,0.6,0,0.9-0.1c0.6-0.5,0.7-1.7,0-3.1"/>
			<path class="st50" d="M132.2,73.1c-0.8,1.6-0.9,2.9-0.4,3.3c0.3,0.2,0.6,0.2,0.9,0c0.7-0.3,1-1.6,0.6-3.1"/>
			<path class="st50" d="M131.1,50.7c-0.9,1.6-1.1,2.9-0.6,3.3c0.3,0.2,0.6,0.2,0.9,0.1c0.7-0.3,1.1-1.5,0.8-3"/>
			<path class="st50" d="M127,57.8c-0.3,0.6-0.3,1.1-0.1,1.3c0.1,0.1,0.2,0.1,0.3,0c0.3-0.1,0.4-0.6,0.2-1.2"/>
			<path class="st50" d="M132.3,88.8c-0.3,0.6-0.3,1.1-0.1,1.3c0.1,0.1,0.2,0.1,0.4,0c0.3-0.1,0.4-0.6,0.2-1.2"/>
			<path class="st50" d="M125.8,64.7c-0.3,0.6-0.3,1.1-0.1,1.3c0.1,0.1,0.2,0.1,0.3,0c0.3-0.1,0.4-0.6,0.2-1.2"/>
			<path class="st50" d="M125.5,70.6c-0.3,0.6-0.3,1.1-0.1,1.3c0.1,0.1,0.2,0.1,0.3,0c0.3-0.1,0.4-0.6,0.2-1.2"/>
			<path class="st50" d="M121.4,74.2c-0.3,0.6-0.3,1.1-0.1,1.3c0.1,0.1,0.2,0.1,0.3,0c0.3-0.1,0.4-0.6,0.2-1.2"/>
			<path class="st50" d="M118.2,83.9c-0.3,0.6-0.3,1.1-0.1,1.3c0.1,0.1,0.2,0.1,0.3,0c0.3-0.1,0.4-0.6,0.2-1.2"/>
			<path class="st50" d="M115.8,78.2c-0.3,0.6-0.3,1.1-0.1,1.3c0.1,0.1,0.2,0.1,0.3,0c0.3-0.1,0.4-0.6,0.2-1.2"/>
			<path class="st50" d="M107.1,97.4c-0.3,0.6-0.3,1.1-0.1,1.3c0.1,0.1,0.2,0.1,0.3,0c0.3-0.1,0.4-0.6,0.2-1.2"/>
			<path class="st50" d="M109.2,91.9c-0.3,0.6-0.3,1.1-0.1,1.3c0.1,0.1,0.2,0.1,0.3,0c0.3-0.1,0.4-0.6,0.2-1.2"/>
			<path class="st50" d="M125.8,101.8c-0.3,0.6-0.3,1.1-0.1,1.3c0.1,0.1,0.2,0.1,0.3,0c0.3-0.1,0.4-0.6,0.2-1.2"/>
			<path class="st50" d="M112.6,100.4c-0.3,0.6-0.3,1.1-0.1,1.3c0.1,0.1,0.2,0.1,0.3,0c0.3-0.1,0.4-0.6,0.2-1.2"/>
			<path class="st50" d="M121.8,81.2c-0.3,0.6-0.3,1.1-0.1,1.3c0.1,0.1,0.2,0.1,0.3,0c0.3-0.1,0.4-0.6,0.2-1.2"/>
			<path class="st50" d="M130.1,61c-0.3,0.6-0.3,1.1-0.1,1.3c0.1,0.1,0.2,0.1,0.4,0c0.3-0.1,0.4-0.6,0.2-1.2"/>
			<path class="st50" d="M128.6,82.3c-0.3,0.6-0.3,1.1-0.1,1.3c0.1,0.1,0.2,0.1,0.4,0c0.3-0.1,0.4-0.6,0.2-1.2"/>
			<path class="st50" d="M89.1,44.6c-0.3,1.2-0.2,2.1,0.2,2.3c0.2,0.1,0.4,0,0.6-0.1c0.4-0.3,0.5-1.2,0-2.1"/>
			<path class="st50" d="M101.6,63.1c-0.3,1.2-0.2,2.1,0.2,2.3c0.2,0.1,0.4,0,0.6-0.1c0.4-0.3,0.5-1.2,0-2.1"/>
			<path class="st50" d="M93.7,57.9c-0.3,1.2-0.3,2.1,0.2,2.3c0.2,0.1,0.4,0,0.6-0.1c0.4-0.3,0.5-1.2,0-2.1"/>
			<path class="st30" d="M111.9,110.7c-0.1,2.5-1,4.9-2.7,6.7l-0.3,0.3l-0.3,0.3c-0.1,0.1-0.2,0.2-0.3,0.3l-0.3,0.3l-0.4,0.3
				c-0.3-0.2-4.9-2.4-5.6-7.3c-0.5-4.1,1.7-8.1,5.4-9.9C110.2,103.9,111.9,107.2,111.9,110.7z"/>
			<path class="st31" d="M149.6,91.7L149.6,91.7L149.6,91.7"/>
			<path class="st32" d="M119.4,111.8l-0.8,2.7c-0.4,1.3-1.2,2.5-2.4,3.3c-1.1,0.8-2.4,1.2-3.7,1.2c-0.3,0-0.6,0-0.9-0.1
				c-0.3,0-0.6-0.1-0.9-0.2l-7-2.1l0,0c0,1-0.1,2-0.3,3c0,0.3-0.1,0.7-0.2,1c-0.1,0.7-0.3,1.5-0.4,2.2c0,0.2-0.1,0.4-0.1,0.6l0,0
				c-0.1,0.6-0.2,1.1-0.4,1.7c-0.6,2.8-1.3,5.3-1.4,6.2c-0.2,0.5-0.3,1.1-0.3,1.7v0.1c0,1.1,0.4,2.2,1,3.1c0.4,0.6,0.6,1.4,0.6,2.1
				l0,0c0,0.5-0.2,1-0.5,1.4c-0.4,0.4-0.8,0.6-1.3,0.7c-1,0.3-2,0.6-2.9,1.1c-0.6,0.3-1.2,0.8-1.8,1.3l-0.6,0.5
				c-0.8,0.5-0.9,0.7-1.3,0.9l-0.2,0.1l-0.7,0.3l0,0l0,0c-0.2,0.5-0.8,0.9-1.3,0.9c-0.2,0-0.5,0-0.7-0.1l0,0c-0.1,0-0.1-0.1-0.1-0.1
				l-0.2,0.2l0,0l0,0c-0.5,0.3-1.2,0.4-1.8,0.1l0,0l0,0c-0.2-0.1-0.3-0.2-0.4-0.3c-0.1,0.1-0.2,0.1-0.4,0.1l0,0
				c-0.2,0.1-0.4,0.1-0.6,0.1c-0.3,0-0.6-0.1-0.9-0.2l0,0l0,0c0,0-0.1,0-0.1,0h-0.1l0,0c-0.2-0.1-0.3-0.3-0.4-0.4
				c-0.2,0-0.3,0-0.5,0.1h-0.1c-0.5,0-1.1-0.2-1.5-0.6l0,0c-0.9,0.1-1.8-0.6-2-1.5c0-0.1,0-0.1,0-0.2c0-0.7,0.4-1.3,1-1.6
				c0.2-0.1,0.4-0.1,0.7-0.1h0.1c0.1,0,0.2-0.1,0.3-0.1c0.2-0.1,0.5-0.2,0.7-0.4c0.2-0.1,0.4-0.3,0.6-0.4c0.2-0.2,0.3-0.3,0.5-0.5
				c0.1,0,0.1-0.1,0.2-0.2c4-2.7,6.5-5.4,6.6-6.2c0.1-0.6,0.2-1.2,0.2-1.8c0-0.1,0-0.2,0-0.3c0-0.4,0-0.9,0-1.4c0-0.1,0-0.3,0-0.4
				s0-0.3,0-0.4s0-0.5,0-0.8c0-0.5,0-1.1-0.1-1.7v-0.6l0,0c-0.2-3.9-0.7-8.6-1-13.1c0-0.6-0.1-1.2-0.1-1.8c-0.6-1.4-0.9-3-0.9-4.5
				v-0.2c0-2,0.6-4,1.6-5.8l0.2-0.1c1.6-1.3,3.7-1.8,5.7-1.2l5.6,1.7l0.5,0.2l10.9,3.2c0.4,0.1,0.7,0.3,1.1,0.4l0.3,0.2
				c0.4,0.3,0.8,0.6,1.2,0.9c0.1,0.1,0.1,0.2,0.2,0.2c0.1,0.1,0.1,0.1,0.2,0.2C119.5,107.6,120,109.8,119.4,111.8z"/>
			<path class="st38" d="M116.3,117.4v0.4c-1.3,0.9-2.9,1.3-4.6,1.1c-0.3,0-0.6-0.1-0.9-0.2l-7-2.1l0,0c0,1-0.1,2-0.3,3
				c-0.1,0.3-0.1,0.7-0.2,1c-0.1,0.7-0.3,1.5-0.4,2.2l-0.1,0.6l0,0c-0.1,0.6-0.2,1.1-0.4,1.7c-0.6,2.8-1.3,5.3-1.4,6.2
				c-0.2,0.5-0.3,1.1-0.3,1.7c0,0,0,0.1,0,0.1c0,1.1,0.4,2.2,1,3.1c0.4,0.6,0.6,1.4,0.6,2.1l0,0c0,0.2,0,0.4-0.1,0.6
				c-0.1,0.3-0.2,0.5-0.4,0.8c-0.4,0.4-0.8,0.6-1.3,0.7c-1,0.3-2,0.6-2.9,1.1c-0.6,0.3-1.2,0.8-1.8,1.3l-0.6,0.5
				c-0.8,0.5-0.9,0.7-1.3,0.9c-0.1,0-0.1,0.1-0.2,0.1l-0.7,0.3l0,0l0,0c-0.2,0.5-0.8,0.9-1.3,0.9c-0.2,0-0.5,0-0.7-0.1l0,0
				c-0.1,0-0.1-0.1-0.2-0.1c-0.1,0.1-0.1,0.1-0.2,0.2l0,0l0,0c-0.3,0.2-0.6,0.3-1,0.3c-0.3,0-0.5,0-0.7-0.1l0,0l0,0
				c-0.2-0.1-0.3-0.2-0.4-0.3c-0.1,0.1-0.2,0.1-0.4,0.1l0,0c-0.2,0.1-0.4,0.1-0.6,0.1c-0.3,0-0.6-0.1-0.9-0.2l0,0l0,0
				c0,0-0.1,0-0.1,0h-0.1l0,0c-0.2-0.1-0.3-0.3-0.4-0.4c-0.2,0-0.3,0-0.5,0.1h-0.1c-0.5,0-1.1-0.2-1.5-0.6l0,0
				c-0.9,0.1-1.8-0.6-2-1.5c0-0.1,0-0.1,0-0.2c0-0.7,0.4-1.3,0.9-1.6c0,0.4,0.2,0.7,0.4,0.9c0.3,0.2,0.7,0.4,1.1,0.3
				c0,0.2,0.1,0.5,0.2,0.7c0.1,0.1,0.2,0.2,0.4,0.3c0.4,0.2,0.8,0.2,1.2-0.1c0,0,0,0,0,0.1c0,0.2,0.1,0.4,0.2,0.5
				c0.2,0.3,0.5,0.5,0.8,0.6c0.4,0,0.8-0.1,1.1-0.4c0,0.1,0.1,0.2,0.1,0.3c0.2,0.4,0.6,0.6,1,0.6c0.5,0,1-0.2,1.2-0.6l0.1,0.1
				c0.3,0.3,0.7,0.4,1.1,0.3c0.4-0.1,0.6-0.4,0.7-0.8c1-1.7,2.5-3.1,4.4-4c1.2-0.6,2.2-0.7,2.6-1.6s-0.3-1.8-0.7-3.4
				c-0.4-1.6-0.2-3.3,0.3-4.9c0.8-1.8,1.4-3.7,1.8-5.6c0.6-3,0.8-6,0.6-9c-0.2-1.6-0.4-3.2-0.7-4.8L116.3,117.4z"/>
			<path class="st39" d="M83.6,144.2c0-0.6,0.2-1.3,0.6-1.7c0.2-0.2,0.5-0.4,0.7-0.5c0.3-0.1,0.6-0.2,0.9-0.3
				c-0.3,0.1-0.6,0.2-0.8,0.3c-0.3,0.1-0.5,0.3-0.7,0.6c-0.4,0.5-0.5,1-0.5,1.6L83.6,144.2z"/>
			<path class="st39" d="M85.7,144.8c0-0.5,0.1-0.9,0.4-1.3c0.3-0.4,0.7-0.6,1.2-0.7c-0.4,0.1-0.8,0.4-1,0.8
				c-0.2,0.4-0.3,0.8-0.3,1.3L85.7,144.8z"/>
			<path class="st39" d="M88.3,145.3c-0.1-0.7,0.1-1.4,0.5-2c-0.3,0.6-0.4,1.3-0.3,2H88.3z"/>
			<path class="st39" d="M90.7,145.3c-0.1-0.5,0-1.1,0.2-1.6c-0.1,0.5-0.1,1,0,1.5L90.7,145.3z"/>
			<path class="st31" d="M119.4,111.8l-0.8,2.7c-0.4,1.3-1.2,2.5-2.4,3.3c-1.1,0.8-2.4,1.2-3.7,1.2c-0.3,0-0.6,0-0.9-0.1
				c-0.3,0-0.6-0.1-0.9-0.2l-7-2.1l0,0c0,1-0.1,2-0.3,3c0,0.3-0.1,0.7-0.2,1c-0.1,0.7-0.3,1.5-0.4,2.2c0,0.2-0.1,0.4-0.1,0.6l0,0
				c-0.1,0.6-0.2,1.1-0.4,1.7c-0.6,2.8-1.3,5.3-1.4,6.2c-0.2,0.5-0.3,1.1-0.3,1.7v0.1c0,1.1,0.4,2.2,1,3.1c0.4,0.6,0.6,1.4,0.6,2.1
				l0,0c0,0.5-0.2,1-0.5,1.4c-0.4,0.4-0.8,0.6-1.3,0.7c-1,0.3-2,0.6-2.9,1.1c-0.6,0.3-1.2,0.8-1.8,1.3l-0.6,0.5
				c-0.8,0.5-0.9,0.7-1.3,0.9l-0.2,0.1l-0.7,0.3l0,0l0,0c-0.2,0.5-0.8,0.9-1.3,0.9c-0.2,0-0.5,0-0.7-0.1l0,0c-0.1,0-0.1-0.1-0.1-0.1
				l-0.2,0.2l0,0l0,0c-0.5,0.3-1.2,0.4-1.8,0.1l0,0l0,0c-0.2-0.1-0.3-0.2-0.4-0.3c-0.1,0.1-0.2,0.1-0.4,0.1l0,0
				c-0.2,0.1-0.4,0.1-0.6,0.1c-0.3,0-0.6-0.1-0.9-0.2l0,0l0,0c0,0-0.1,0-0.1,0h-0.1l0,0c-0.2-0.1-0.3-0.3-0.4-0.4
				c-0.2,0-0.3,0-0.5,0.1h-0.1c-0.5,0-1.1-0.2-1.5-0.6l0,0c-0.9,0.1-1.8-0.6-2-1.5c0-0.1,0-0.1,0-0.2c0-0.7,0.4-1.3,1-1.6
				c0.2-0.1,0.4-0.1,0.7-0.1h0.1c0.1,0,0.2-0.1,0.3-0.1c0.2-0.1,0.5-0.2,0.7-0.4c0.2-0.1,0.4-0.3,0.6-0.4c0.2-0.2,0.3-0.3,0.5-0.5
				c0.1,0,0.1-0.1,0.2-0.2c4-2.7,6.5-5.4,6.6-6.2c0.1-0.6,0.2-1.2,0.2-1.8c0-0.1,0-0.2,0-0.3c0-0.4,0-0.9,0-1.4c0-0.1,0-0.3,0-0.4
				s0-0.3,0-0.4s0-0.5,0-0.8c0-0.5,0-1.1-0.1-1.7v-0.6l0,0c-0.2-3.9-0.7-8.6-1-13.1c0-0.6-0.1-1.2-0.1-1.8c-0.6-1.4-0.9-3-0.9-4.5
				v-0.2c0-2,0.6-4,1.6-5.8l0.2-0.1c1.6-1.3,3.7-1.8,5.7-1.2l5.6,1.7l0.5,0.2l10.9,3.2c0.4,0.1,0.7,0.3,1.1,0.4l0.3,0.2
				c0.4,0.3,0.8,0.6,1.2,0.9c0.1,0.1,0.1,0.2,0.2,0.2c0.1,0.1,0.1,0.1,0.2,0.2C119.5,107.6,120,109.8,119.4,111.8z"/>
			<path class="st29" d="M120.7,104.9h12.5c0,0.1,0,0.2,0,0.3c0,0.1,0,0.1,0.1,0.2c0,0.2-0.2,0.3-0.2,0.4s0.3,0.3,0.3,0.5
				s-0.1,0.3,0,0.4s0.1,0.1,0.1,0.1c0,0.1,0,0.1,0,0.2h-12.7V104.9z"/>
			<path class="st29" d="M107.5,119c2.6-2,4.2-5,4.3-8.2c0-3.5-1.7-6.9-4.5-9c0,0,15,3,19.6,5c2.2,0,4.3,0.2,6.4,0.6
				c0.1,0.1,1.7,5.1,1,8.3c-0.2,0.4-0.4,0.8-0.7,1.2c-0.4,0.6-1,1.1-1.6,1.5l0,0c-0.2,0.2-0.4,0.3-0.7,0.4c-4.6,2-11.1,1.4-11.1,1.4
				c-2.7-0.2-6.6-0.5-11.6-0.6L107.5,119z"/>
			<path class="st51" d="M134.3,115.5c-0.2,0.4-0.4,0.8-0.7,1.2c-0.4,0.6-1,1.1-1.6,1.5c0,0-0.5,0.4-0.7,0.5
				c-4.6,2-11.1,1.4-11.1,1.4c-2.7-0.2-6.6-0.5-11.6-0.6l-1.2-0.5c0.6-0.5,1.1-1,1.6-1.5l0.3,0.1c4.8,0.1,8.5,0.4,11.1,0.6
				c0,0,6.2,0.5,10.6-1.4c0.2-0.1,0.4-0.3,0.6-0.4c0.6-0.4,1.1-0.9,1.5-1.4c0.3-0.3,0.5-0.7,0.6-1.1c0.3-2.2,0.1-4.4-0.5-6.6
				C133.4,107.3,135,112.4,134.3,115.5z"/>
			<path class="st31" d="M134.5,113.3c-0.1-2-0.5-4.1-1.1-6c-2.1-0.4-4.3-0.6-6.5-0.6c-4.5-1.9-19.6-5-19.6-5c2.8,2.1,4.5,5.5,4.5,9
				c-0.1,2.5-1,4.9-2.7,6.7l-0.2,0.2l-0.1,0.2l-0.2,0.2l-0.2,0.2l-0.1,0.1l-0.2,0.1l-0.3,0.2l0,0l-0.1,0.1l0,0l-0.1,0.1
				c0,0-0.1,0-0.1,0.1l0,0l1.2,0.5c3.1,0.1,5.8,0.2,8.1,0.3c1.3,0.1,2.5,0.2,3.6,0.3c0,0,0.6,0,1.6,0.1c3.2,0.1,6.4-0.4,9.4-1.5
				c0.2-0.1,0.5-0.3,0.7-0.4c0.6-0.4,1.1-0.9,1.6-1.5c0.3-0.4,0.5-0.8,0.7-1.2C134.5,114.7,134.5,114,134.5,113.3z"/>
			<path class="st50" d="M104.6,87.4c0.1,0.2,0.2,0.5,0.2,0.8c0,0.7-0.6,0.9-0.5,1.5c0.1,0.3,0.3,0.5,0.6,0.6c0.2,0.1,0.4,0.1,0.6,0
				c0.2-0.1,0.4-0.4,0.4-0.6c0-0.5-0.5-0.7-0.6-1.4c0-0.2,0-0.5,0-0.7"/>
			<path class="st50" d="M129.4,95.9c0.1,0.2,0.2,0.5,0.2,0.8c0,0.7-0.6,1-0.5,1.5c0.1,0.3,0.3,0.5,0.6,0.6c0.2,0.1,0.4,0.1,0.6,0
				c0.2-0.1,0.4-0.4,0.4-0.6c0-0.5-0.5-0.7-0.6-1.4c-0.1-0.2-0.1-0.5,0-0.7"/>
			<path class="st50" d="M118.3,97.4c0.1,0.2,0.1,0.4,0,0.6c-0.1,0.5-0.5,0.6-0.5,1c0,0.2,0.1,0.4,0.3,0.5c0.1,0.1,0.3,0.1,0.4,0.1
				c0.2-0.1,0.3-0.2,0.3-0.4c0.1-0.4-0.2-0.6-0.2-1.2c0-0.2,0-0.3,0.1-0.5"/>
			<path class="st50" d="M96.1,106.6c-0.3,0.6-0.3,1.1-0.1,1.2c0.1,0.1,0.2,0.1,0.3,0c0.3-0.1,0.3-0.6,0.2-1.1"/>
			<path class="st50" d="M81,101.1c-0.3,0.6-0.3,1.1-0.1,1.2c0.1,0.1,0.2,0.1,0.3,0c0.3-0.1,0.3-0.6,0.2-1.1"/>
			<path class="st50" d="M86.7,105.3c-0.3,0.6-0.3,1-0.1,1.2c0.1,0.1,0.2,0.1,0.3,0c0.2-0.1,0.3-0.6,0.2-1.1"/>
			<path class="st50" d="M80.4,108.3c-0.3,0.8-0.2,1.4,0.1,1.6c0.1,0.1,0.3,0,0.4-0.1c0.3-0.2,0.4-0.8,0-1.5"/>
			<path class="st50" d="M83.6,123.7c-0.1,0.6-0.1,1.1,0,1.2s0.2,0,0.2,0c0.2-0.4,0.2-0.8,0-1.1"/>
			<path class="st50" d="M86.8,113.2c-0.1,0.4-0.1,0.7,0,0.8c0.1,0,0.1,0,0.2,0c0.2-0.1,0.2-0.4,0-0.7"/>
			<path class="st50" d="M100.6,118.1c-0.3,0.6-0.3,1.1-0.1,1.2c0.1,0.1,0.2,0.1,0.3,0c0.3-0.1,0.3-0.6,0.2-1.1"/>
			<path class="st50" d="M94,113.4c-0.2,0.6-0.2,1.1,0,1.2c0.1,0.1,0.2,0.1,0.3,0c0.2-0.2,0.3-0.6,0-1.1"/>
			<path class="st50" d="M107.3,109.4c-1.2,1.1-1.9,2-1.9,2.4c0,0.2,0.2,0.2,0.4,0.1c0.8-0.5,1.5-1.3,1.8-2.2"/>
			<path class="st50" d="M95.7,124.1c-0.2,0.6-0.2,1.1,0.1,1.2c0.1,0.1,0.2,0.1,0.3,0c0.2-0.2,0.3-0.6,0-1.1"/>
			<path class="st50" d="M97.6,133.7c-0.2,0.6-0.2,1.1,0,1.2c0.1,0.1,0.2,0.1,0.3,0c0.2-0.2,0.3-0.6,0-1.1"/>
			<ellipse class="st0" cx="113.4" cy="144.5" rx="7.8" ry="1.8"/>
			<path class="st52" d="M122.4,127.9l-1.1,15.2c-0.1,0.7-0.5,1.2-1.1,1.4c-4.8,1.6-9.4,1.7-13.7,0c-0.6-0.2-1-0.8-1-1.4l-1.1-15.3
				L122.4,127.9z"/>
			<path class="st53" d="M119.3,142.8c-5.6,2.4-10.9,1.2-11.7,0.5c-0.4-0.3-0.7-0.8-0.7-1.4c0-0.1-0.2-2.9-0.2-2.7
				c-0.1-2.6-0.3-5.8-0.2-9.4c0.6,3.5,0.9,6.9,1.1,9.3c0,0.1,0.2,2,0.2,2.7c0.1,1,1.1,1,2.3,1.3
				C113.2,143.7,116.3,143.6,119.3,142.8z"/>
			<path class="st54" d="M122.4,127.9c0,0.9-4,1.6-9,1.6s-9-0.7-9-1.6s4-1.6,9-1.6S122.4,127,122.4,127.9z"/>
			<path class="st55" d="M128.1,130.9v11c-1.6,0-2.8-1.3-2.8-2.8l0,0v-7.5h-3.5v-2.8h4.2C127.2,128.8,128.1,129.7,128.1,130.9
				C128.1,130.9,128.1,130.9,128.1,130.9z"/>
		</g>
	</g>
	
		<radialGradient id="SVGID_12_" cx="-17178.1094" cy="-555.8199" r="476.18" gradientTransform="matrix(0.15 0 0 -0.15 2744.99 -7.35)" gradientUnits="userSpaceOnUse">
		<stop  offset="0" style="stop-color:#FFFFFF"/>
		<stop  offset="0.43" style="stop-color:#D3F9FC"/>
	</radialGradient>
	<path class="st56" d="M152.5,79.4c0,38.6-33,69.9-73.7,69.9S5.1,118,5.1,79.4s33-69.9,73.7-69.9S152.5,40.8,152.5,79.4z"/>
	<path class="st57" d="M83.1,141.9c-40.7,0-73.7-31.3-73.7-69.9c0-10,2.2-19.8,6.6-28.8c-0.8,1.2-1.6,2.4-2.3,3.6
		C7.5,57.1,4.2,68.8,4.2,80.9c0,38.6,33,69.9,73.7,69.9c29.9,0,55.6-16.9,67.2-41.1C132.1,129,109.1,141.9,83.1,141.9z"/>
	<path class="st58" d="M22.5,52.7c3-10.9,11.9-21.4,30.2-28.1c2.1-0.8,3.1-3.1,2.3-5.2c-0.2-0.5-0.5-0.9-0.9-1.3l-0.3-0.4
		c-1-1-2.5-1.4-3.9-1C43,18.8,25.1,28.9,19.3,51.8c-0.2,0.7,0.1,1.4,0.7,1.8l0,0c0.8,0.5,1.8,0.3,2.3-0.4
		C22.4,53.1,22.5,52.9,22.5,52.7z"/>
	<circle class="st58" cx="20" cy="58.5" r="2.5"/>
</g>
<g class="st59">
	<path d="M129.3,23.5C99.3-5,51.8-3.9,23.2,26.1C10,39.9,2.6,58.3,2.5,77.5c0,2.3,0.1,4.6,0.3,6.8c0,0.3,0,0.5,0.1,0.8
		c0,0,0,0.1,0,0.1c1.4,19.1,10.5,36.7,25.3,48.8c28.4,30.1,75.9,31.5,106,3.1s31.5-75.9,3.1-106C134.8,28.3,132.1,25.8,129.3,23.5
		L129.3,23.5z"/>
</g>
</svg>
