<svg xmlns="http://www.w3.org/2000/svg" viewBox="0 0 182.64 182.64"><defs><style>.a{fill:#fff;}.b{fill:#1783cc;}.c{fill:#074068;}.d{fill:none;stroke:#08518e;stroke-miterlimit:10;}.e{fill:#d8d8d8;}.f{fill:#fbfcfa;}</style></defs><circle class="a" cx="91.32" cy="91.32" r="91.32"/><circle class="b" cx="91.32" cy="91.32" r="81.81"/><circle class="c" cx="88.5" cy="94.15" r="78.98"/><circle class="d" cx="90.16" cy="92.49" r="77.32"/><path class="e" d="M120.21,82.12,77.07,57.25a10.62,10.62,0,0,0-15.93,9.21v49.79a10.62,10.62,0,0,0,15.93,9.2l43.14-24.92a10.63,10.63,0,0,0,0-18.41Z"/><path class="f" d="M119.94,80.53,77,56.08a10.62,10.62,0,0,0-15.88,9.23v48.94A10.63,10.63,0,0,0,77,123.48L119.94,99a10.63,10.63,0,0,0,0-18.5Z"/></svg>