<svg xmlns="http://www.w3.org/2000/svg" viewBox="0 0 130 130"><defs><style>.a{fill:#fff;}.b{fill:#1783cc;}.c{fill:#074068;}.d{fill:#08518e;}.e{fill:#d8d8d8;}.f{fill:#fbfcfa;}</style></defs><circle class="a" cx="65" cy="65" r="65"/><circle class="b" cx="65" cy="65" r="58.23"/><circle class="c" cx="62.99" cy="67.01" r="56.22"/><circle class="d" cx="64.17" cy="65.83" r="55.04"/><path class="e" d="M29.59,57.81c.73-2.3,2.36-3.12,4.7-3,3,.09,6.06,0,9.08,0a2.26,2.26,0,0,0,1.27-.46c6.49-5.34,12.94-10.7,19.41-16,1.92-1.59,4.25-1.47,5.59.4a4.9,4.9,0,0,1,.76,2.44c.11,1.9,0,3.82,0,5.73V90.53c0,2.35-1.23,3.89-3.31,4.15a3.81,3.81,0,0,1-3-1q-7.35-6.11-14.73-12.2c-1.59-1.33-3.17-2.67-4.79-4a2.11,2.11,0,0,0-1.21-.42c-3,0-6-.11-8.93,0-2.33.09-4-.63-4.87-2.92Z"/><path class="e" d="M100.4,64.94c-.12,8.2-2.45,14.78-7.14,20.5a2.41,2.41,0,0,1-3.34.62l-.13-.1c-1.38-1.09-1.64-2.48-.64-3.77A30,30,0,0,0,92.48,77a25.7,25.7,0,0,0-2.14-26.19c-.48-.68-1-1.31-1.54-2a2.51,2.51,0,0,1,0-3.54,3.5,3.5,0,0,1,.43-.33,2.43,2.43,0,0,1,3.43.33l.12.15a30.38,30.38,0,0,1,7.08,14.91C100.21,62.17,100.3,64,100.4,64.94Z"/><path class="e" d="M88.74,65.67A19,19,0,0,1,85,77.14a2.4,2.4,0,0,1-3.33.66h0a2.56,2.56,0,0,1-1.09-3.45l.09-.16a15.17,15.17,0,0,0,2.36-5,13.82,13.82,0,0,0-2.19-11.68,5.87,5.87,0,0,1-.9-1.55,2.65,2.65,0,0,1,1.55-3,2.43,2.43,0,0,1,3,.77A19,19,0,0,1,88.74,65.67Z"/><path class="f" d="M29.59,56c.73-2.3,2.36-3.11,4.7-3,3,.09,6.06,0,9.08,0a2.26,2.26,0,0,0,1.27-.46c6.49-5.34,12.94-10.7,19.41-16C66,35,68.3,35.11,69.64,37a4.9,4.9,0,0,1,.76,2.44c.11,1.9,0,3.82,0,5.74v43.6c0,2.35-1.23,3.89-3.31,4.15a3.81,3.81,0,0,1-3-1q-7.35-6.1-14.73-12.2c-1.59-1.33-3.17-2.67-4.79-4a2.11,2.11,0,0,0-1.21-.42c-3,0-6-.11-8.93,0-2.33.09-4-.63-4.87-2.92Z"/><path class="f" d="M100.4,63.17c-.12,8.2-2.45,14.78-7.14,20.5a2.41,2.41,0,0,1-3.34.62l-.13-.1c-1.38-1.09-1.64-2.48-.64-3.77a29.43,29.43,0,0,0,3.33-5.15,25.7,25.7,0,0,0-2.14-26.19c-.48-.68-1-1.31-1.54-2a2.51,2.51,0,0,1,0-3.54,3.5,3.5,0,0,1,.43-.33,2.43,2.43,0,0,1,3.43.33l.12.15A30.38,30.38,0,0,1,99.89,58.6C100.21,60.4,100.3,62.2,100.4,63.17Z"/><path class="f" d="M88.74,63.9A19.06,19.06,0,0,1,85,75.38a2.4,2.4,0,0,1-3.33.65,2.56,2.56,0,0,1-1.09-3.45l.09-.16a15.17,15.17,0,0,0,2.36-5,13.82,13.82,0,0,0-2.19-11.68,5.87,5.87,0,0,1-.9-1.55,2.66,2.66,0,0,1,1.55-3.05,2.43,2.43,0,0,1,3,.77A19,19,0,0,1,88.74,63.9Z"/></svg>